<svg width="17" height="17" viewBox="0 0 17 17" fill="none" xmlns="http://www.w3.org/2000/svg">
<path d="M1.5 7.5C1.08333 7.5 0.729333 7.354 0.438 7.062C0.146 6.77067 0 6.41667 0 6V1.5C0 1.08333 0.146 0.729333 0.438 0.438C0.729333 0.146 1.08333 0 1.5 0H6C6.41667 0 6.77067 0.146 7.062 0.438C7.354 0.729333 7.5 1.08333 7.5 1.5V6C7.5 6.41667 7.354 6.77067 7.062 7.062C6.77067 7.354 6.41667 7.5 6 7.5H1.5ZM1.5 6H6V1.5H1.5V6ZM1.5 17C1.08333 17 0.729333 16.854 0.438 16.562C0.146 16.2707 0 15.9167 0 15.5V11C0 10.5833 0.146 10.2293 0.438 9.938C0.729333 9.646 1.08333 9.5 1.5 9.5H6C6.41667 9.5 6.77067 9.646 7.062 9.938C7.354 10.2293 7.5 10.5833 7.5 11V15.5C7.5 15.9167 7.354 16.2707 7.062 16.562C6.77067 16.854 6.41667 17 6 17H1.5ZM1.5 15.5H6V11H1.5V15.5ZM11 7.5C10.5833 7.5 10.2293 7.354 9.938 7.062C9.646 6.77067 9.5 6.41667 9.5 6V1.5C9.5 1.08333 9.646 0.729333 9.938 0.438C10.2293 0.146 10.5833 0 11 0H15.5C15.9167 0 16.2707 0.146 16.562 0.438C16.854 0.729333 17 1.08333 17 1.5V6C17 6.41667 16.854 6.77067 16.562 7.062C16.2707 7.354 15.9167 7.5 15.5 7.5H11ZM11 6H15.5V1.5H11V6ZM15.575 17C15.4583 17 15.3543 16.9543 15.263 16.863C15.171 16.771 15.125 16.6667 15.125 16.55V15.575C15.125 15.4583 15.171 15.354 15.263 15.262C15.3543 15.1707 15.4583 15.125 15.575 15.125H16.55C16.6667 15.125 16.771 15.1707 16.863 15.262C16.9543 15.354 17 15.4583 17 15.575V16.55C17 16.6667 16.9543 16.771 16.863 16.863C16.771 16.9543 16.6667 17 16.55 17H15.575ZM9.95 11.375C9.83333 11.375 9.729 11.3293 9.637 11.238C9.54567 11.146 9.5 11.0417 9.5 10.925V9.95C9.5 9.83333 9.54567 9.729 9.637 9.637C9.729 9.54567 9.83333 9.5 9.95 9.5H10.925C11.0417 9.5 11.146 9.54567 11.238 9.637C11.3293 9.729 11.375 9.83333 11.375 9.95V10.925C11.375 11.0417 11.3293 11.146 11.238 11.238C11.146 11.3293 11.0417 11.375 10.925 11.375H9.95ZM11.825 13.25C11.7083 13.25 11.604 13.2043 11.512 13.113C11.4207 13.021 11.375 12.9167 11.375 12.8V11.825C11.375 11.7083 11.4207 11.604 11.512 11.512C11.604 11.4207 11.7083 11.375 11.825 11.375H12.8C12.9167 11.375 13.021 11.4207 13.113 11.512C13.2043 11.604 13.25 11.7083 13.25 11.825V12.8C13.25 12.9167 13.2043 13.021 13.113 13.113C13.021 13.2043 12.9167 13.25 12.8 13.25H11.825ZM9.95 15.125C9.83333 15.125 9.729 15.0793 9.637 14.988C9.54567 14.896 9.5 14.7917 9.5 14.675V13.7C9.5 13.5833 9.54567 13.479 9.637 13.387C9.729 13.2957 9.83333 13.25 9.95 13.25H10.925C11.0417 13.25 11.146 13.2957 11.238 13.387C11.3293 13.479 11.375 13.5833 11.375 13.7V14.675C11.375 14.7917 11.3293 14.896 11.238 14.988C11.146 15.0793 11.0417 15.125 10.925 15.125H9.95ZM11.825 17C11.7083 17 11.604 16.9543 11.512 16.863C11.4207 16.771 11.375 16.6667 11.375 16.55V15.575C11.375 15.4583 11.4207 15.354 11.512 15.262C11.604 15.1707 11.7083 15.125 11.825 15.125H12.8C12.9167 15.125 13.021 15.1707 13.113 15.262C13.2043 15.354 13.25 15.4583 13.25 15.575V16.55C13.25 16.6667 13.2043 16.771 13.113 16.863C13.021 16.9543 12.9167 17 12.8 17H11.825ZM13.7 15.125C13.5833 15.125 13.4793 15.0793 13.388 14.988C13.296 14.896 13.25 14.7917 13.25 14.675V13.7C13.25 13.5833 13.296 13.479 13.388 13.387C13.4793 13.2957 13.5833 13.25 13.7 13.25H14.675C14.7917 13.25 14.896 13.2957 14.988 13.387C15.0793 13.479 15.125 13.5833 15.125 13.7V14.675C15.125 14.7917 15.0793 14.896 14.988 14.988C14.896 15.0793 14.7917 15.125 14.675 15.125H13.7ZM13.7 11.375C13.5833 11.375 13.4793 11.3293 13.388 11.238C13.296 11.146 13.25 11.0417 13.25 10.925V9.95C13.25 9.83333 13.296 9.729 13.388 9.637C13.4793 9.54567 13.5833 9.5 13.7 9.5H14.675C14.7917 9.5 14.896 9.54567 14.988 9.637C15.0793 9.729 15.125 9.83333 15.125 9.95V10.925C15.125 11.0417 15.0793 11.146 14.988 11.238C14.896 11.3293 14.7917 11.375 14.675 11.375H13.7ZM15.575 13.25C15.4583 13.25 15.3543 13.2043 15.263 13.113C15.171 13.021 15.125 12.9167 15.125 12.8V11.825C15.125 11.7083 15.171 11.604 15.263 11.512C15.3543 11.4207 15.4583 11.375 15.575 11.375H16.55C16.6667 11.375 16.771 11.4207 16.863 11.512C16.9543 11.604 17 11.7083 17 11.825V12.8C17 12.9167 16.9543 13.021 16.863 13.113C16.771 13.2043 16.6667 13.25 16.55 13.25H15.575Z" fill="black"/>
</svg>
