<svg width="16" height="14" viewBox="0 0 16 14" fill="none" xmlns="http://www.w3.org/2000/svg">
<path d="M16 4.5H0V6H16V4.5Z" fill="black"/>
<path d="M16 8H0V9.5H16V8Z" fill="black"/>
<path d="M6.04783 2.58722L7.78996 0.109707C7.87257 -0.00780813 8.03362 -0.0352251 8.14966 0.0484687C8.17301 0.0653292 8.19342 0.0860238 8.21006 0.109702L9.95213 2.58717C10.0348 2.7047 10.0077 2.86777 9.89167 2.9515C9.84801 2.98299 9.7957 2.99995 9.74205 2.99995L6.2579 3C6.11546 3 6 2.88302 6 2.73877C6 2.68442 6.01672 2.63144 6.04783 2.58722Z" fill="black"/>
<path d="M9.95217 11.4128L8.21004 13.8903C8.12743 14.0078 7.96638 14.0352 7.85034 13.9515C7.82699 13.9347 7.80658 13.914 7.78994 13.8903L6.04787 11.4128C5.96521 11.2953 5.99229 11.1322 6.10833 11.0485C6.15199 11.017 6.2043 11.0001 6.25795 11.0001L9.7421 11C9.88454 11 10 11.117 10 11.2612C10 11.3156 9.98328 11.3686 9.95217 11.4128Z" fill="black"/>
</svg>
