<svg width="19.5" height="18" viewBox="0 0 19.5 18" fill="none" xmlns="http://www.w3.org/2000/svg">
<path fill-rule="evenodd" clip-rule="evenodd" d="M11.6671 2.46792V5.8019C11.6671 7.49949 11.1856 8.89184 10.3229 10.0557C9.47266 11.2027 8.28376 12.0854 6.93167 12.8338L6.9299 12.8348C6.41859 13.116 5.79761 13.1161 5.2863 12.8348L5.28325 12.8331C3.93302 12.082 2.74391 11.2013 1.89363 10.0562C1.03043 8.89381 0.549048 7.50295 0.549048 5.8019V2.48949C0.538586 1.74413 1.06017 1.11338 1.76898 0.95901L4.93341 0.149495C5.70558 -0.0480387 6.5145 -0.0498427 7.28753 0.144245L10.445 0.936998C11.1549 1.09058 11.6775 1.72185 11.6671 2.46792ZM2.1945 2.55559L2.19436 5.80191C2.19436 7.16152 2.56981 8.20267 3.21247 9.06812C3.86758 9.95033 4.83279 10.6931 6.07736 11.3857C6.09609 11.3956 6.12049 11.3956 6.13912 11.3855C7.38239 10.6972 8.34784 9.9528 9.00322 9.06867C9.64637 8.20104 10.0217 7.15778 10.0217 5.8019V2.53425L6.88856 1.74759C6.37988 1.61988 5.84758 1.62107 5.33947 1.75105L2.1945 2.55559Z" fill="black"/>
<path fill-rule="evenodd" clip-rule="evenodd" d="M0.000197695 9.15098C-4.03733e-05 9.20159 -0.000196726 9.23482 0.00054131 9.28619V12.0225C0.00054131 13.4295 0.40659 14.5788 1.13266 15.538C1.84746 16.4823 2.8465 17.2082 3.98158 17.8276L3.98434 17.8291C4.40653 18.057 4.91772 18.057 5.33991 17.8291L5.34143 17.8283C6.47803 17.2112 7.47718 16.4834 8.19194 15.5375C8.79438 14.7403 9.17658 13.8119 9.28901 12.7162C8.77151 13.1109 8.22081 13.4643 7.65425 13.7867C7.5158 14.1253 7.33575 14.4341 7.11968 14.72C6.56655 15.452 5.75146 16.0684 4.70246 16.6381L4.62145 16.638C3.5717 16.0648 2.75703 15.4498 2.20423 14.7196C1.6622 14.0035 1.3467 13.1438 1.3467 12.0225V11.2302C1.23191 11.0946 1.121 10.955 1.01432 10.8114C0.607005 10.2629 0.252726 9.64982 0.00054131 9.01293C0.000558275 9.07433 0.000359185 9.11665 0.000197695 9.15098ZM4.6246 16.6394C4.65026 16.65 4.70246 16.6381 4.70246 16.6381L4.6246 16.6394Z" fill="black"/>
<path fill-rule="evenodd" clip-rule="evenodd" d="M19.1005 9.71542C19.4084 9.71542 19.6002 9.37999 19.4451 9.1129L16.6494 4.29895C16.4955 4.03392 16.1143 4.03392 15.9604 4.29895L13.1648 9.1129C13.0097 9.37999 13.2015 9.71542 13.5093 9.71542H19.1005ZM17.6249 8.46339L16.3049 6.1905L14.985 8.46339H17.6249Z" fill="black"/>
<path fill-rule="evenodd" clip-rule="evenodd" d="M14.0819 12H18.5743C18.8928 12 19.0828 12.3566 18.9061 12.6229L16.6599 16.0073C16.5021 16.2451 16.1541 16.2451 15.9962 16.0073L13.75 12.6229C13.5733 12.3566 13.7633 12 14.0819 12ZM15.1998 13.0016L16.3281 14.7016L17.4563 13.0016H15.1998Z" fill="black"/>
</svg>
