<svg width="17.116695404052734" height="16.365890502929688" viewBox="0 0 17.116695404052734 16.365890502929688" fill="none" xmlns="http://www.w3.org/2000/svg"><path d="M 7.085127353668213 6.023435115814209 L 6.856611728668213 6.567380428314209 L 2.476728916168213 6.947263240814209 L 5.797041416168213 9.82714557647705 L 4.797041416168213 14.10741901397705 L 8.556806564331055 11.83788776397705 L 12.327314376831055 14.11718463897705 L 11.457197189331055 10.39550495147705 L 13.590009689331055 12.52831745147705 L 14.197431564331055 15.13769245147705 C 14.397124603390694 15.997447848320007 13.467058777809143 16.677386105060577 12.707197189331055 16.217771530151367 L 8.556806564331055 13.70702838897705 L 4.407392978668213 16.207029342651367 C 3.647503614425659 16.666962385177612 2.7175165861845016 15.98774927854538 2.917158603668213 15.12792682647705 L 4.016767978668213 10.40722370147705 L 0.3468461036682129 7.227536678314209 C -0.32311487197875977 6.647530138492584 0.03717118501663208 5.547535680234432 0.9171586036682129 5.477536678314209 L 5.747236728668213 5.067380428314209 L 5.860517978668213 4.798825740814209 L 7.085127353668213 6.023435115814209 Z" fill="black" fill-rule="nonzero" clip-rule="nonzero" stroke="none" /><path d="M 7.636885166168213 0.6074194312095642 C 7.976871818304062 -0.20251774787902832 9.136651426553726 -0.20242851972579956 9.476728439331055 0.6074194312095642 L 11.367353439331055 5.057614803314209 L 16.207197189331055 5.477536678314209 C 17.086944818496704 5.547692961990833 17.43671488761902 6.647582232952118 16.766767501831055 7.227536678314209 L 13.353681564331055 10.18456745147705 L 12.225751876831055 9.05663776397705 L 14.646650314331055 6.957028865814209 L 10.266767501831055 6.577146053314209 L 8.556806564331055 2.537106990814209 L 7.710127353668213 4.541013240814209 L 6.487471103668213 3.318356990814209 L 7.636885166168213 0.6074194312095642 Z" fill="black" fill-rule="nonzero" clip-rule="nonzero" stroke="none" /></svg>