<svg width="19.944089889526367" height="18.889970779418945" viewBox="0 0 19.944089889526367 18.889970779418945" fill="none" xmlns="http://www.w3.org/2000/svg">
<path fill-rule="evenodd" clip-rule="evenodd" d="M7.39305 4.85116L7.19996 4.7733C6.79503 4.61005 6.48133 4.27847 6.34075 3.86513L6.05859 3.03555C5.98653 2.82438 5.9476 2.65109 5.94234 2.4017C5.90295 0.62719 7.71805 0 9.93859 0C12.159 0 13.9739 0.62714 13.9349 2.40217C13.9292 2.65244 13.8899 2.82761 13.819 3.03408L13.538 3.86052C13.3981 4.27183 13.0868 4.60229 12.6845 4.76641L12.4978 4.84259C12.8432 5.0517 13.168 5.30209 13.4427 5.57708C14.1358 6.23478 14.5553 7.08868 14.5944 8.01747C14.6784 10.0095 14.3467 11.7558 13.5174 13.6087C13.4536 13.7513 13.3781 13.8971 13.2507 14.132L13.1052 14.3991C13.0475 14.5052 13.0019 14.59 12.9584 14.6722C12.8932 14.7956 12.8368 14.906 12.7868 15.0087C12.7246 15.1363 12.6749 15.2494 12.638 15.3364C14.0506 15.7933 15.3064 16.5988 16.3049 17.6509C15.7298 18.1313 15.1 18.5485 14.4252 18.89C13.2502 17.7914 11.6729 17.1179 9.93749 17.1179C8.20779 17.1179 6.63504 17.7868 5.46122 18.8789C4.78731 18.5359 4.15811 18.1178 3.584 17.6362C4.57754 16.5942 5.82401 15.7956 7.22523 15.3401C7.18615 15.2469 7.13482 15.1306 7.07208 15.0006C7.02406 14.9011 6.97049 14.7947 6.90936 14.6768C6.95252 14.76 6.44749 13.8122 6.35649 13.6088C5.52718 11.7559 5.19552 10.0096 5.27938 8.01747C5.31852 7.08888 5.73784 6.23524 6.45631 5.55376C6.76351 5.27552 7.07152 5.04526 7.39305 4.85116ZM11.1642 14.9977C10.7634 14.9415 10.3538 14.9125 9.93749 14.9125C9.51729 14.9125 9.10409 14.9421 8.69979 14.9992C8.54099 14.5422 8.24819 13.9951 8.01479 13.559C7.89313 13.3317 7.7876 13.1345 7.72562 12.996C6.97945 11.3289 6.70521 9.81097 6.77805 8.08057C6.80053 7.54731 7.05155 7.05638 7.46329 6.66552C7.97969 6.1978 8.45599 5.94608 8.95039 5.76532C8.95099 5.61839 8.95099 5.09045 8.95039 4.18151L8.71899 3.76841L7.76085 3.38212L7.47822 2.55113C7.45863 2.49373 7.44365 2.44846 7.44197 2.36842C7.43116 1.88148 8.55179 1.5 9.93859 1.5C11.3255 1.5 12.446 1.88148 12.4353 2.36842C12.4335 2.44846 12.4186 2.49373 12.3989 2.55113L12.1178 3.37757L11.1606 3.76815L10.9263 4.18905C10.9312 5.13496 10.9346 5.66336 10.9365 5.77424C11.3944 5.90375 11.9662 6.22129 12.4102 6.66517C12.8221 7.05609 13.0733 7.54716 13.0957 8.08057C13.1687 9.81097 12.8944 11.3289 12.1483 12.996C12.086 13.1352 11.9779 13.3333 11.8533 13.5617C11.616 13.9967 11.3188 14.5414 11.1642 14.9977ZM5.00341 1.29301V3.07857C2.83585 4.65209 1.5 7.18347 1.5 9.95157C1.5 12.212 2.38713 14.3302 3.9432 15.9091L2.87485 16.962C1.04498 15.1053 0 12.6101 0 9.95157C0 6.33464 1.93936 3.06015 5.00341 1.29301ZM14.9407 1.29301V3.07857C17.1082 4.65209 18.4441 7.18347 18.4441 9.95157C18.4441 12.212 17.557 14.3302 16.0009 15.9091L17.0692 16.962C18.8991 15.1053 19.9441 12.6101 19.9441 9.95157C19.9441 6.33464 18.0047 3.06015 14.9407 1.29301Z" fill="black"/>
</svg>
