<svg width="20" height="20" viewBox="0 0 20 20" fill="none" xmlns="http://www.w3.org/2000/svg">
<path fill-rule="evenodd" clip-rule="evenodd" d="M10 0C4.48 0 0 4.48 0 10C0 15.52 4.48 20 10 20C15.52 20 20 15.52 20 10C20 4.48 15.52 0 10 0ZM10 18C5.59 18 2 14.41 2 10C2 5.59 5.59 2 10 2C14.41 2 18 5.59 18 10C18 14.41 14.41 18 10 18ZM8.5424 6.07016L13.4664 9.5772C13.6999 9.7435 13.7544 10.0677 13.5881 10.3012C13.5546 10.3483 13.5135 10.3894 13.4664 10.4229L8.5425 13.9298C8.3089 14.0962 7.98474 14.0417 7.8184 13.8081C7.75576 13.7202 7.72211 13.6149 7.72211 13.5069L7.72202 6.49304C7.72201 6.2063 7.95445 5.97386 8.2412 5.97387C8.3492 5.97387 8.4544 6.00752 8.5424 6.07016Z" fill="black"/>
</svg>
