<svg width="10" height="10" viewBox="0 0 10 10" fill="none" xmlns="http://www.w3.org/2000/svg">
<path d="M5.86475 5.00039L9.82065 1.04482C10.0598 0.805562 10.0598 0.418706 9.82065 0.180999C9.58156 -0.0582614 9.19497 -0.0582614 8.95743 0.180999L4.99998 4.13501L1.04254 0.179445C0.803444 -0.059815 0.416859 -0.059815 0.17932 0.179445C-0.0597732 0.418706 -0.0597732 0.805562 0.17932 1.04327L4.13521 4.99884L0.17932 8.95595C-0.0597732 9.19522 -0.0597732 9.58207 0.17932 9.81978C0.298865 9.93941 0.455673 9.99845 0.610928 9.99845C0.767735 9.99845 0.92299 9.93941 1.04254 9.81978L4.99998 5.86421L8.95743 9.82133C9.07698 9.94096 9.23223 10 9.38904 10C9.54585 10 9.7011 9.94096 9.82065 9.82133C10.0598 9.58207 10.0598 9.19522 9.82065 8.95751L5.86475 5.00039Z" fill="white"/>
</svg>
