<svg width="22.000059127807617" height="21.020004272460938" viewBox="0 0 22.000059127807617 21.020004272460938" fill="none" xmlns="http://www.w3.org/2000/svg">
<path fill-rule="evenodd" clip-rule="evenodd" d="M11 0C11.3806 0 11.7283 0.216072 11.8967 0.557374L14.7543 6.34645L21.1447 7.28049C21.5212 7.33553 21.8339 7.59954 21.9513 7.96155C22.0687 8.32356 21.9704 8.72081 21.6978 8.98634L17.0746 13.4894L18.1656 19.851C18.23 20.2261 18.0757 20.6053 17.7678 20.8291C17.4598 21.0528 17.0515 21.0823 16.7146 20.9051L11 17.8998L5.28546 20.9051C4.94854 21.0823 4.54025 21.0528 4.23228 20.8291C3.9243 20.6053 3.77005 20.2261 3.8344 19.851L4.92549 13.4894L0.302296 8.98634C0.0296782 8.72081 -0.0685944 8.32356 0.0487829 7.96155C0.166161 7.59954 0.478839 7.33553 0.855399 7.28049L7.24575 6.34645L10.1033 0.557374C10.2718 0.216072 10.6194 0 11 0ZM11 3.25923L8.80672 7.7026C8.66118 7.99745 8.37999 8.20191 8.05464 8.24947L3.14844 8.96658L6.69774 12.4236C6.93362 12.6534 7.04128 12.9845 6.98562 13.309L6.14819 18.1917L10.5346 15.8849C10.826 15.7317 11.1741 15.7317 11.4655 15.8849L15.8518 18.1917L15.0144 13.309C14.9588 12.9845 15.0664 12.6534 15.3023 12.4236L18.8516 8.96658L13.9454 8.24947C13.62 8.20191 13.3389 7.99745 13.1933 7.7026L11 3.25923Z" fill="#1A313C"/>
</svg>
