<svg width="16.869455337524414" height="33.945743560791016" viewBox="0 0 16.869455337524414 33.945743560791016" fill="none" xmlns="http://www.w3.org/2000/svg">
<path d="M7.72434 20.0527V23.1281H7.79628H15.2958V24.5848H7.77829H7.71535V30.9064L7.72434 30.9693C8.91132 30.8074 9.98139 30.2769 10.7997 29.4946L11.8158 30.5377C10.7277 31.5808 9.29798 32.2732 7.71535 32.435L7.70636 32.48V33.9457H6.24961V32.462V32.4261C2.74264 32.0664 0 29.0899 0 25.475C0 21.8602 2.74263 18.8837 6.2676 18.515V18.4521V14.1268V14.0819L16.8695 0V0.0629455V11.573H15.4127V4.4062V4.37023L7.73333 14.5764V14.6304V18.4611L7.74232 18.515C9.32496 18.6769 10.7547 19.3693 11.8428 20.4124L10.8267 21.4555C9.99938 20.6732 8.9293 20.1336 7.75132 19.9808L7.72434 20.0527ZM6.2676 19.9808C3.55194 20.3315 1.44775 22.6605 1.44775 25.475C1.44775 28.2806 3.55194 30.6096 6.2676 30.9693L6.2586 30.9243V20.0437L6.2676 19.9808Z" fill="#C40D24"/>
</svg>
