<svg width="25.86170196533203" height="58" viewBox="0 0 25.86170196533203 58" fill="none" xmlns="http://www.w3.org/2000/svg">
<path d="M13.9395 59L13.8496 59.4922L13.9395 59.5088L14.0303 59.4922L13.9395 59ZM13.9395 59L14.0312 59.4912H14.0322C14.0332 59.491 14.0347 59.4905 14.0361 59.4902C14.039 59.4897 14.0431 59.4892 14.0479 59.4883C14.0577 59.4863 14.0722 59.4832 14.0898 59.4795C14.1251 59.4721 14.1758 59.4614 14.2402 59.4463C14.3695 59.4159 14.5554 59.3684 14.7891 59.2998C15.2566 59.1626 15.9167 58.9396 16.6992 58.5938C18.2641 57.9021 20.3241 56.7177 22.3135 54.7422C26.4592 50.6242 27.3613 46.406 27.3613 43.4609V6.54297H20.7891C20.3593 3.1382 17.4537 0.5 13.9307 0.5C10.4116 0.500093 7.49942 3.13319 7.07324 6.54297H0.5V43.4609C0.5 46.406 1.40345 50.6226 5.56641 54.7402V54.7412C7.5516 56.7171 9.61166 57.9021 11.1777 58.5938C11.9609 58.9396 12.6216 59.1626 13.0898 59.2998C13.324 59.3684 13.5102 59.4159 13.6396 59.4463C13.7042 59.4614 13.7547 59.4721 13.79 59.4795C13.8077 59.4832 13.8221 59.4863 13.832 59.4883C13.8368 59.4892 13.8409 59.4897 13.8438 59.4902C13.8452 59.4905 13.8467 59.491 13.8477 59.4912H13.8486L13.9395 59Z" fill="#C40D24" stroke="white"/>
</svg>
