<svg width="5.251471519470215" height="6.465427398681641" viewBox="0 0 5.251471519470215 6.465427398681641" fill="none" xmlns="http://www.w3.org/2000/svg">
<path d="M3.58791 1.02512C3.5969 1.09706 3.67783 1.15101 3.7138 1.16C4.62201 1.60062 5.25147 2.56279 5.25147 3.68682C5.25147 5.2245 4.07349 6.46543 2.62574 6.46543C1.17798 6.46543 0 5.2245 0 3.68682C0 2.69767 0.485581 1.82543 1.22295 1.33985C1.7355 0.998142 1.95132 0.692406 1.55566 0.143879C1.55566 0.143879 2.19411 0.71039 2.62574 0.0359712C2.62574 0.0359712 2.71566 0.422637 3.10233 0.422637C3.48899 0.422637 3.77674 0 3.77674 0C3.77674 0 3.57891 0.494576 3.57891 0.71039C3.56992 0.863258 3.57891 0.962173 3.58791 1.02512ZM2.35597 5.77302C2.35597 5.77302 2.74263 5.69209 3.06636 5.41333C3.47101 5.06264 3.77674 4.64899 3.77674 4.10047C3.77674 3.55194 3.65984 3.31814 3.15628 3.0124C2.65271 2.70667 2.50884 2.52682 2.51783 2.19411C2.52682 1.8614 2.59876 1.55566 2.68868 1.3938C2.68868 1.3938 2.53581 1.36682 2.21209 1.58264C1.92434 1.78047 1.55566 2.18512 1.63659 2.60775C1.72651 3.08434 1.99628 3.1293 2.42791 3.57891C2.80558 3.98356 2.87752 4.13643 2.84155 4.67597C2.80558 5.28744 2.35597 5.77302 2.35597 5.77302Z" fill="#C40D24"/>
</svg>
