<svg width="464" height="35" viewBox="0 0 464 35" fill="none" xmlns="http://www.w3.org/2000/svg">
<rect x="168.997" y="1" width="125.001" height="33.968" fill="#14144D"/>
<path d="M272.46 34.9668H464V0.998817H272.46L266.999 21.979L272.46 34.9668Z" fill="#0232FF"/>
<path d="M191.54 34.9668L-7.62939e-05 34.9668L-7.33216e-05 0.998819L191.54 0.998836L197.001 21.979L191.54 34.9668Z" fill="#0232FF"/>
<rect width="233.221" height="1" transform="matrix(1 0 0 -1 0.000976562 1)" fill="url(#paint0_linear_5023_14964)"/>
<rect width="235.001" height="0.999058" transform="matrix(-1 0 0 1 463.999 0)" fill="url(#paint1_linear_5023_14964)"/>
<path d="M88.4724 26L93.7744 12.47L95.6664 12.008L101.1 26H98.0864L96.7224 22.348H92.3004L90.9364 26H88.4724ZM93.0484 20.258H95.9304L94.4784 16.386L93.0484 20.258ZM104.264 26.242C103.648 26.242 102.592 26 102.196 25.802L101.822 23.712C102.812 23.998 103.362 24.086 104 24.086C104.88 24.086 105.298 23.646 105.298 22.568V12.206H108.048V22.084C108.048 24.856 106.926 26.242 104.264 26.242ZM109.677 26L114.979 12.47L116.871 12.008L122.305 26H119.291L117.927 22.348H113.505L112.141 26H109.677ZM114.253 20.258H117.135L115.683 16.386L114.253 20.258ZM122.829 26L127.031 18.784L123.071 12.206H126.195L129.055 17.068L131.761 12.206H134.335L130.353 19.004L134.533 26H131.409L128.285 20.83L125.403 26H122.829Z" fill="white"/>
<path d="M316.457 26V12.206H320.527C324.267 12.206 325.543 13.438 325.543 15.638C325.543 17.068 324.751 18.124 323.167 18.41V18.498C325.367 18.608 326.599 20.082 326.599 21.952C326.599 24.306 325.169 26 321.011 26H316.457ZM319.207 17.64H320.351C322.089 17.64 322.727 17.024 322.727 15.99C322.727 14.956 322.089 14.384 320.351 14.384H319.207V17.64ZM319.207 23.822H321.033C322.881 23.822 323.629 23.14 323.629 21.842C323.629 20.544 322.881 19.862 320.923 19.862H319.207V23.822ZM328.703 26V12.206H337.173L336.513 14.384H331.453V18.168H336.095L335.589 20.346H331.453V23.822H337.437L336.931 26H328.703ZM339.467 26V12.206H341.359L348.135 21.402V12.206H350.489V26H348.487L341.821 17.288V26H339.467ZM353.432 26V12.206H361.902L361.242 14.384H356.182V18.168H360.824L360.318 20.346H356.182V26H353.432ZM363.574 26V12.206H366.324V26H363.574ZM374.941 26.242C370.893 26.242 368.539 23.184 368.539 19.092C368.539 15.242 370.893 11.92 375.007 11.92C376.591 11.92 378.153 12.338 378.901 12.844L378.747 15.154C377.823 14.56 376.591 14.186 375.381 14.186C374.435 14.186 373.511 14.472 372.873 15.066C371.905 15.946 371.509 17.398 371.509 18.916C371.509 22.106 372.785 23.998 375.381 23.998C376.877 23.998 378.021 23.646 379.011 23.074L379.231 25.23C378.241 25.824 376.657 26.242 374.941 26.242ZM380.193 26L385.495 12.47L387.387 12.008L392.821 26H389.807L388.443 22.348H384.021L382.657 26H380.193ZM384.769 20.258H387.651L386.199 16.386L384.769 20.258Z" fill="white"/>
<path d="M213.32 26.242C212.022 26.242 210.614 25.956 209.646 25.318L209.822 23.272C210.658 23.844 211.978 24.152 212.946 24.152C214.618 24.152 215.674 23.206 215.674 21.622C215.674 20.016 214.684 19.048 213.166 19.048C212.594 19.048 211.758 19.268 211.318 19.554L210.306 18.916L210.79 12.206H218.534L217.874 14.538H212.858L212.616 17.266C212.946 17.178 213.408 17.112 213.98 17.112C216.774 17.112 218.49 18.938 218.49 21.666C218.49 24.614 216.158 26.242 213.32 26.242Z" fill="white"/>
<path d="M244.064 13.042C244.533 12.7193 245.083 12.4553 245.714 12.25C246.359 12.03 247.034 11.92 247.738 11.92C248.427 11.92 249.043 12.0153 249.586 12.206C250.128 12.382 250.583 12.6313 250.95 12.954C251.316 13.262 251.595 13.636 251.786 14.076C251.976 14.516 252.072 15 252.072 15.528C252.072 16.144 251.947 16.7527 251.698 17.354C251.448 17.9407 251.052 18.608 250.51 19.356L247.342 23.712H252.6L251.94 26H243.558V24.9C244.379 23.6973 245.134 22.6047 245.824 21.622C246.117 21.2113 246.403 20.8007 246.682 20.39C246.975 19.9647 247.239 19.5833 247.474 19.246C247.708 18.9087 247.906 18.6227 248.068 18.388C248.229 18.1387 248.332 17.9773 248.376 17.904C248.713 17.3613 248.94 16.9213 249.058 16.584C249.19 16.232 249.256 15.8947 249.256 15.572C249.256 15.0733 249.102 14.6773 248.794 14.384C248.486 14.076 248.002 13.922 247.342 13.922C247.078 13.922 246.799 13.9513 246.506 14.01C246.227 14.0687 245.948 14.1493 245.67 14.252C245.406 14.34 245.149 14.45 244.9 14.582C244.65 14.714 244.43 14.8533 244.24 15L244.064 13.042Z" fill="white"/>
<path d="M233.449 18.96V21.05H228.565V18.96H233.449Z" fill="white"/>
<defs>
<linearGradient id="paint0_linear_5023_14964" x1="0" y1="1.00002" x2="233.221" y2="1.00002" gradientUnits="userSpaceOnUse">
<stop stop-color="#5AF7DD"/>
<stop offset="1" stop-color="#5AF7DD" stop-opacity="0"/>
</linearGradient>
<linearGradient id="paint1_linear_5023_14964" x1="0" y1="0.999081" x2="235.001" y2="0.999081" gradientUnits="userSpaceOnUse">
<stop stop-color="#5AF7DD"/>
<stop offset="1" stop-color="#5AF7DD" stop-opacity="0"/>
</linearGradient>
</defs>
</svg>
