<svg width="101" height="45" viewBox="0 0 101 45" fill="none" xmlns="http://www.w3.org/2000/svg">
<path d="M25.8676 29.2947L25.0769 28.3942L25.6134 26.8183H29.2281L29.7082 28.3942L28.861 29.2947V29.3229H33.2099V29.2947L32.3627 28.3942L29.2563 19.1921H25.8111V19.2203L26.4041 20.1208L23.2695 28.3942L22.4788 29.2947V29.3229H25.8958V29.2947H25.8676ZM27.5619 21.2464L28.7763 25.2987H26.15L27.5619 21.2464ZM100.533 26.3962C100.533 28.5912 98.3589 29.6887 95.7326 29.6887C94.5183 29.6887 93.2475 29.5199 92.1744 29.0415L92.0614 26.0022H92.0897L93.6429 27.9158C94.2359 28.0847 94.8854 28.1972 95.6479 28.1972C96.5516 28.1972 97.9071 27.9721 97.9071 26.9028C97.9071 26.0022 97.0316 25.6646 95.2243 25.1862C92.8804 24.5389 91.8073 23.6103 91.8073 22.0625C91.8073 19.6705 94.1512 18.8263 96.5798 18.8263C97.7376 18.8263 98.7542 19.0233 99.7144 19.3891L99.8556 22.2595H99.8273L98.2742 20.5992C97.7094 20.4303 97.0881 20.3459 96.4103 20.3459C95.6196 20.3459 94.3489 20.5429 94.3489 21.5278C94.3489 22.3721 94.9136 22.5972 96.7492 23.1037C99.0931 23.751 100.533 24.3419 100.533 26.3962ZM86.3852 19.1921H89.774V19.2203L89.0115 20.1208V29.3229H87.0912L81.9234 21.6685V28.3942L82.9118 29.2947V29.3229H79.523V29.2947L80.2855 28.3942V20.1208L79.523 19.2203V19.1921H83.2506L87.3736 25.5238V20.1208L86.3852 19.2203V19.1921ZM86.8088 33.6284C85.9616 33.6284 85.2557 34.2757 85.2557 35.1481C85.2557 36.0486 85.9616 36.6677 86.8088 36.6677C87.656 36.6677 88.362 36.0204 88.362 35.1481C88.362 34.2757 87.6278 33.6284 86.8088 33.6284ZM86.8088 36.4144C86.1028 36.4144 85.5663 35.8797 85.5663 35.1481C85.5663 34.4164 86.1028 33.8817 86.8088 33.8817C87.5148 33.8817 88.0514 34.4164 88.0514 35.1481C88.0514 35.8797 87.4866 36.4144 86.8088 36.4144ZM87.5148 34.7541C87.5148 34.4164 87.3172 34.2475 86.8936 34.2475H86.2158V36.0204H86.47V35.2606H86.7806L87.2324 36.0204H87.5431L87.0348 35.2325C87.3172 35.2325 87.5148 35.0918 87.5148 34.7541ZM86.47 35.0355V34.5008H86.8371C87.0348 34.5008 87.2324 34.529 87.2324 34.7541C87.2324 35.0355 87.0348 35.0355 86.8088 35.0355H86.47ZM71.8418 33.8536V33.8817L71.1076 34.7822V40.6355C71.1076 43.3934 69.6956 44.3502 66.9563 44.3502C63.9347 44.3502 62.5227 43.3371 62.5227 40.5793V34.7822L61.7602 33.8817V33.8536H65.9679V33.8817L65.1208 34.7822V40.5793C65.1208 42.2677 65.9397 42.6617 67.2952 42.6617C68.6225 42.6617 69.4414 42.2396 69.4414 40.5793V34.7822L68.5942 33.8817V33.8536H71.8418ZM77.4615 24.2856C77.4615 21.359 75.3718 18.8263 72.096 18.8263C69.1308 18.8263 66.7869 21.0494 66.7869 24.1168C66.7869 27.0716 68.8484 29.6887 72.0395 29.6887C74.9482 29.6887 77.4615 27.6344 77.4615 24.2856ZM72.4066 28.0847C70.2321 28.0847 69.4979 25.2143 69.4979 23.4414C69.4979 22.2314 70.0062 20.4303 71.8136 20.4303C74.0727 20.4303 74.7223 23.2444 74.7223 24.9892C74.7223 26.6213 73.9598 28.0847 72.4066 28.0847ZM49.6736 29.2947V29.3229H54.1073V29.2947L53.0342 28.3942V25.749C53.5707 25.8897 54.2767 25.9178 54.9827 25.9178C57.1572 25.9178 58.7386 24.6233 58.7386 22.5128C58.7386 20.4866 57.4113 19.164 54.4744 19.164H49.6454V19.1921L50.4079 20.0926V28.3661L49.6736 29.2947ZM53.0342 20.6555H53.8814C55.3498 20.6555 56.1405 21.3027 56.1405 22.6535C56.1405 23.7791 55.5193 24.5671 54.1073 24.5671C53.7119 24.5671 53.3448 24.5108 53.0342 24.4264V20.6555ZM59.9811 39.2285V39.2566L59.1904 40.1571V44.3502H59.1622L57.8914 43.2808C56.8183 44.0687 55.6605 44.3502 54.3897 44.3502C51.481 44.3502 49.6172 41.9582 49.6172 39.0597C49.6172 35.5983 52.0458 33.4877 55.4628 33.4877C56.5924 33.4877 57.722 33.6847 58.6539 34.1631L58.7386 36.9491H58.7103L57.1007 35.2325C56.5924 35.0636 55.9993 35.0074 55.4063 35.0074C53.3166 35.0074 52.2999 36.6958 52.2999 38.6938C52.2999 40.523 53.2601 42.718 55.0392 42.718C55.8017 42.718 56.3664 42.4084 56.6771 42.0426V40.129L55.6605 39.2285H59.9811ZM64.6972 29.351H60.6024V29.3229L61.3649 28.4224V20.1208L60.6024 19.2203V19.1921H64.6972V19.2203L63.9629 20.1208V28.3942L64.6972 29.2947V29.351ZM9.00846 26.959H9.03671L8.89551 28.6475C7.93536 29.3792 6.52337 29.6887 5.59146 29.6887C2.0615 29.6887 0 27.156 0 24.2856C0 21.359 2.14622 18.8263 5.87386 18.8263C7.08816 18.8263 8.04832 19.0796 8.50015 19.2484L8.61311 22.4565H8.58487L7.00345 20.5148C6.60809 20.4022 6.15626 20.3459 5.67618 20.3459C3.92532 20.3459 2.71101 21.8092 2.71101 24.0605C2.71101 25.8897 4.03828 28.0003 6.12802 28.0003C7.03169 28.0003 8.18951 27.6063 9.00846 26.959ZM44.7882 33.8536H41.3429V33.8817L41.936 34.7822L38.8013 43.0557L38.0106 43.9562V43.9843H41.4276V43.9562L40.6369 43.0557L41.1735 41.4798H44.7882L45.2682 43.0557L44.4211 43.9562V43.9843H48.77V43.9562L47.9228 43.0557L44.7882 33.8536ZM41.6818 39.9602L43.0938 35.936L44.3081 39.9602H41.6818ZM82.6294 40.9732H82.6576L82.4599 44.0406H73.8468V44.0125L74.6093 43.1119V34.8385L73.8468 33.938V33.9099H82.121L82.2622 36.5832H82.234L81.1044 35.3732H77.2356V38.0466H79.636L80.6244 37.2023H80.6526V40.3541H80.6244L79.636 39.5099H77.2356V42.5773H81.2456L82.6294 40.9732ZM17.904 28.3942V24.8203H14.261V28.3942L14.9953 29.2947V29.3229H10.9005V29.2947L11.663 28.3942V20.1208L10.9005 19.2203V19.1921H14.9953V19.2203L14.261 20.1208V23.1881H17.904V20.1208L17.1697 19.2203V19.1921H21.2645V19.2203L20.502 20.1208V28.3942L21.2645 29.2947V29.3229H17.1697V29.2947L17.904 28.3942ZM26.5453 40.8325H26.5736L26.1782 44.0125H18.1016V43.9562L18.8641 43.0557V34.7822L18.1016 33.8817V33.8536H22.4223V33.8817L21.4622 34.7822V42.4928H24.9639L26.5453 40.8325ZM36.7399 28.3942L37.6153 29.2947V29.3229H34.0571V29.2947L34.9325 28.3942L35.3561 20.1208L34.6219 19.2203V19.1921H38.2648L40.8911 25.9741L43.3479 19.1921H46.9626V19.2203L46.3131 20.1208L46.9344 28.3942L47.7816 29.2947V29.3229H43.4609V29.2947L44.4493 28.3942L43.9975 22.0062L41.3712 29.3229H39.7897L36.9375 22.0907L36.7399 28.3942ZM36.8246 40.9732H36.8528L36.6551 44.0406H28.042V44.0125L28.8045 43.1119V34.8385L28.042 33.938V33.9099H36.3163L36.4575 36.5832H36.4292L35.2996 35.3732H31.4308V38.0466H33.8312L34.8196 37.2023H34.8478V40.3541H34.8196L33.8312 39.5099H31.4308V42.5773H35.4408L36.8246 40.9732ZM61.0542 13.17L61.3084 12.2695L60.1788 11.4252L61.0825 10.778L61.619 11.172L62.2121 9.14581L58.7386 11.3971L57.3266 10.581L62.7769 7.06338C62.9745 6.92268 63.2852 6.81011 63.6523 7.09152L63.8782 7.26037C64.2453 7.54178 64.1888 7.85133 64.1324 8.07646L62.325 14.2956L61.0542 13.17ZM33.2946 8.21716L32.4757 7.23223C32.871 6.83825 33.2946 6.44428 33.7464 6.07845C38.2648 2.13871 44.1387 0 50.2667 0C56.3947 0 62.2685 2.13871 66.8151 6.05031C67.2387 6.41614 67.6623 6.81011 68.0859 7.20409L67.267 8.18902C66.8716 7.7669 66.4198 7.37293 65.9962 6.97896C61.7038 3.29249 56.1123 1.2382 50.2949 1.2382C44.4775 1.2382 38.8861 3.26435 34.5936 6.97896C34.1136 7.40107 33.69 7.79505 33.2946 8.21716ZM54.5873 5.26236L54.4744 5.65633L57.1289 6.33172L56.7618 7.71062L54.1073 7.03524L53.486 9.42722L52.6106 9.20209C52.4411 9.14581 52.2999 9.06139 52.2152 8.92068C52.1305 8.77998 52.1305 8.61113 52.1587 8.44229L53.1189 4.72768C53.4295 3.51762 54.3332 3.03922 55.604 3.37691L57.9761 3.99602L57.609 5.40306L55.3216 4.8121C54.8697 4.69954 54.7003 4.75582 54.5873 5.26236ZM48.1769 4.193L45.24 4.78396L45.4377 5.79704L48.1204 5.26236L48.4028 6.66941L45.7201 7.20409L45.8048 7.59806C45.9178 8.13274 46.059 8.18902 46.539 8.07646L48.8547 7.59806L49.1371 9.00511L46.7367 9.4835C46.5108 9.53979 46.3131 9.53979 46.1154 9.53979C45.7483 9.53979 45.4094 9.45536 45.127 9.28652C44.7035 9.03325 44.4493 8.58299 44.3081 7.99203L43.5456 4.24928C43.5174 4.08044 43.5456 3.91159 43.6303 3.77089C43.7151 3.63018 43.8563 3.54576 44.0257 3.51762L47.8663 2.72967L48.1769 4.193ZM40.3263 10.384C40.3545 9.99004 40.2698 9.73677 39.8745 9.28652L37.6718 6.58498L38.8578 5.62819L41.2582 8.55485C41.7665 9.17395 41.9642 9.82119 41.9077 10.4966C41.823 11.2564 41.4559 11.8755 40.8064 12.4102C40.2133 12.8886 39.5921 13.1137 38.9425 13.1137C38.8578 13.1137 38.7731 13.1137 38.7166 13.1137C38.0389 13.0574 37.4458 12.7197 36.9375 12.1006L34.5372 9.17395L35.7232 8.21716L37.9259 10.8906C38.293 11.3689 38.5472 11.5097 38.9143 11.5659C39.2249 11.5941 39.5638 11.4815 39.8462 11.2564C40.1004 11.0031 40.2981 10.6936 40.3263 10.384ZM61.2802 15.5619L60.4894 16.5187C58.2303 13.7328 54.4179 11.8192 50.2667 11.8192C46.1154 11.8192 42.3031 13.7328 40.0439 16.5187L39.2532 15.5619C41.7383 12.6071 45.7766 10.6091 50.2667 10.6091C54.7568 10.6091 58.7951 12.6071 61.2802 15.5619Z" fill="white"/>
</svg>
