<svg width="27" height="27" viewBox="0 0 27 27" fill="none" xmlns="http://www.w3.org/2000/svg">
<path fill-rule="evenodd" clip-rule="evenodd" d="M17.7333 13.3333C17.7333 15.7635 15.7635 17.7333 13.3333 17.7333C10.9033 17.7333 8.9334 15.7635 8.9334 13.3333C8.9334 10.9033 10.9033 8.9334 13.3333 8.9334C15.7635 8.9334 17.7333 10.9033 17.7333 13.3333ZM0 7.33333C0 3.28324 3.28324 0 7.33333 0H19.3333C23.3835 0 26.6667 3.28324 26.6667 7.33333V19.3333C26.6667 23.3835 23.3835 26.6667 19.3333 26.6667H7.33333C3.28324 26.6667 0 23.3835 0 19.3333V7.33333ZM22.1333 6.20003C22.1333 7.12051 21.3871 7.86669 20.4667 7.86669C19.5461 7.86669 18.8 7.12051 18.8 6.20003C18.8 5.27956 19.5461 4.53336 20.4667 4.53336C21.3871 4.53336 22.1333 5.27956 22.1333 6.20003ZM20.2667 13.3333C20.2667 17.1625 17.1625 20.2667 13.3333 20.2667C9.50423 20.2667 6.40007 17.1625 6.40007 13.3333C6.40007 9.50423 9.50423 6.40007 13.3333 6.40007C17.1625 6.40007 20.2667 9.50423 20.2667 13.3333Z" fill="white"/>
</svg>
