<svg width="18.715295791625977" height="19.192251205444336" viewBox="0 0 18.715295791625977 19.192251205444336" fill="none" xmlns="http://www.w3.org/2000/svg">
<path d="M2.60767 16.3846C2.39486 16.3846 2.21666 16.3128 2.07307 16.1692C1.92947 16.0256 1.85767 15.8474 1.85767 15.6346C1.85767 15.4218 1.92947 15.2436 2.07307 15.1C2.21666 14.9564 2.39486 14.8846 2.60767 14.8846H3.66537V7.42303C3.66537 6.07816 4.08044 4.88907 4.91056 3.85574C5.74069 2.82241 6.8064 2.16152 8.10768 1.87308V1.25C8.10768 0.903848 8.22947 0.608982 8.47306 0.3654C8.71664 0.121801 9.01151 0 9.35766 0C9.70381 0 9.99867 0.121801 10.2422 0.3654C10.4858 0.608982 10.6076 0.903848 10.6076 1.25V1.87308C11.9089 2.16152 12.9746 2.82241 13.8047 3.85574C14.6349 4.88907 15.0499 6.07816 15.0499 7.42303V14.8846H16.1076C16.3204 14.8846 16.4986 14.9564 16.6422 15.1C16.7858 15.2436 16.8576 15.4218 16.8576 15.6346C16.8576 15.8474 16.7858 16.0256 16.6422 16.1692C16.4986 16.3128 16.3204 16.3846 16.1076 16.3846H2.60767ZM9.35766 19.1923C8.85894 19.1923 8.43298 19.0157 8.07978 18.6625C7.72658 18.3093 7.54998 17.8833 7.54998 17.3846H11.1653C11.1653 17.8833 10.9887 18.3093 10.6355 18.6625C10.2823 19.0157 9.85637 19.1923 9.35766 19.1923ZM0.723049 7.41341C0.510249 7.41341 0.332048 7.33232 0.188448 7.17016C0.0448645 7.00797 -0.016669 6.81727 0.00384765 6.59806C0.111531 5.35447 0.445507 4.19997 1.00577 3.13459C1.56602 2.06921 2.29102 1.14935 3.18077 0.374999C3.34616 0.230132 3.53429 0.162826 3.74518 0.173076C3.95608 0.183326 4.12563 0.276275 4.25383 0.451925C4.38203 0.627557 4.42947 0.816648 4.39613 1.0192C4.3628 1.22177 4.26344 1.39741 4.09806 1.54613C3.38395 2.18202 2.80414 2.93394 2.35862 3.80189C1.91311 4.66984 1.6365 5.61087 1.5288 6.62496C1.50188 6.84419 1.41567 7.03041 1.27017 7.18361C1.12466 7.33681 0.942282 7.41341 0.723049 7.41341ZM17.9922 7.41341C17.773 7.41341 17.5906 7.33681 17.4451 7.18361C17.2996 7.03041 17.2134 6.84419 17.1865 6.62496C17.0788 5.61087 16.8022 4.66984 16.3567 3.80189C15.9112 2.93394 15.3313 2.18202 14.6172 1.54613C14.4519 1.39741 14.3525 1.22177 14.3192 1.0192C14.2858 0.816648 14.3333 0.627557 14.4615 0.451925C14.5897 0.276275 14.7592 0.183326 14.9701 0.173076C15.181 0.162826 15.3691 0.230132 15.5345 0.374999C16.4243 1.14935 17.1493 2.06921 17.7095 3.13459C18.2698 4.19997 18.6038 5.35447 18.7114 6.59806C18.732 6.81727 18.6704 7.00797 18.5268 7.17016C18.3832 7.33232 18.205 7.41341 17.9922 7.41341Z" fill="black"/>
</svg>
