<svg width="17.116867065429688" height="16.365814208984375" viewBox="0 0 17.116867065429688 16.365814208984375" fill="none" xmlns="http://www.w3.org/2000/svg">
<path fill-rule="evenodd" clip-rule="evenodd" d="M16.207 5.4775L11.367 5.0575L9.47701 0.6075C9.13701 -0.2025 7.97701 -0.2025 7.63701 0.6075L5.74696 5.0675L0.916957 5.4775C0.0369575 5.5475 -0.323043 6.6475 0.346957 7.2275L4.01696 10.4075L2.91696 15.1275C2.71696 15.9875 3.64696 16.6675 4.40696 16.2075L8.55701 13.7075L12.707 16.2175C13.467 16.6775 14.397 15.9975 14.197 15.1375L13.097 10.4075L16.767 7.2275C17.437 6.6475 17.0869 5.5475 16.207 5.4775ZM8.55701 11.8375L4.79696 14.1075L5.79696 9.8275L2.47696 6.9475L6.85701 6.5675L8.55701 2.5375L10.267 6.5775L14.647 6.9575L11.327 9.8375L12.327 14.1175L8.55701 11.8375Z" fill="black"/>
</svg>
