<svg width="18" height="15.75" viewBox="0 0 18 15.75" fill="none" xmlns="http://www.w3.org/2000/svg">
<path fill-rule="evenodd" clip-rule="evenodd" d="M16.5 2.75H12.7107L12.4426 1.626C12.174 0.651392 11.3263 0 10.3565 0H7.64348C6.6737 0 5.82598 0.651392 5.564 1.60043L5.2895 2.75H1.5C0.671573 2.75 0 3.42157 0 4.25V12.25C0 14.2026 1.5537 15.75 3.5 15.75H14.5C16.4463 15.75 18 14.2026 18 12.25V4.25C18 3.42157 17.3284 2.75 16.5 2.75ZM11.1808 2.8H6.81948L7.01649 1.974C7.09308 1.6983 7.35115 1.5 7.64348 1.5H10.3565C10.6489 1.5 10.9069 1.6983 10.9901 1.99957L11.1808 2.8ZM11 8.25C11.5523 8.25 12 8.69771 12 9.25C12 9.80229 11.5523 10.25 11 10.25H10V11.25C10 11.8023 9.55229 12.25 9 12.25C8.44771 12.25 8 11.8023 8 11.25V10.25H7C6.44772 10.25 6 9.80229 6 9.25C6 8.69771 6.44772 8.25 7 8.25H8V7.25C8 6.69772 8.44771 6.25 9 6.25C9.55229 6.25 10 6.69772 10 7.25V8.25H11Z" fill="#FF3B3B"/>
</svg>
