<svg width="22.005268096923828" height="15.499998092651367" viewBox="0 0 22.005268096923828 15.499998092651367" fill="none" xmlns="http://www.w3.org/2000/svg">
<path fill-rule="evenodd" clip-rule="evenodd" d="M1.50527 1.5L1.50525 14L10.5052 14V13.25C10.5052 12.8358 10.5913 12.5 11.0055 12.5C11.4197 12.5 11.5052 12.8358 11.5052 13.25V14L20.5053 14V1.5H11.5052V2.25C11.5052 2.66421 11.4197 3 11.0055 3C10.5913 3 10.5052 2.66421 10.5052 2.25V1.5H1.50527ZM0.75 0H21.2553C21.6695 0 22.0053 0 22.0053 0.760132V14.75C22.0053 14.9489 21.9263 15.1397 21.7856 15.2803C21.6449 15.421 21.4542 15.5 21.2553 15.5H0.750002C0.551089 15.5 0.360323 15.421 0.219671 15.2803C0.0790179 15.1397 0 14.9489 0 14.75V0.760132C0 0.345919 0.335785 0 0.75 0ZM4.48039 4.76638C4.48039 4.35217 4.81617 4.01638 5.23039 4.01638H6.23039C6.6446 4.01638 6.98039 4.35217 6.98039 4.76638V10.0164H7.23039C7.6446 10.0164 7.98039 10.3522 7.98039 10.7664C7.98039 11.1806 7.6446 11.5164 7.23039 11.5164H5.23039C4.81617 11.5164 4.48039 11.1806 4.48039 10.7664C4.48039 10.3522 4.81617 10.0164 5.23039 10.0164H5.48039V5.51638H5.23039C4.81617 5.51638 4.48039 5.18059 4.48039 4.76638ZM13.4832 4.76638C13.4832 4.35217 13.819 4.01638 14.2332 4.01638H17.7332C18.1474 4.01638 18.4832 4.35217 18.4832 4.76638V7.76638C18.4832 8.18059 18.1474 8.51638 17.7332 8.51638H14.9832V10.0164H17.7332C18.1474 10.0164 18.4832 10.3522 18.4832 10.7664C18.4832 11.1806 18.1474 11.5164 17.7332 11.5164H14.2332C13.819 11.5164 13.4832 11.1806 13.4832 10.7664V7.76638C13.4832 7.35217 13.819 7.01638 14.2332 7.01638H16.9832V5.51638H14.2332C13.819 5.51638 13.4832 5.18059 13.4832 4.76638ZM11.0055 4.49997C11.4197 4.49997 11.5052 4.83576 11.5052 5.24997V6.24997C11.5052 6.66419 11.4197 6.99997 11.0055 6.99997C10.5052 6.99997 10.5052 6.66419 10.5052 6.24997V5.24997C10.5052 4.83576 10.5913 4.49997 11.0055 4.49997ZM11.0055 8.49999C11.4197 8.49999 11.5052 8.83578 11.5052 9.24999V10.2913C11.5052 10.7055 11.4197 11 11.0055 11C10.5913 11 10.5052 10.7055 10.5052 10.2913V9.24999C10.5052 8.83578 10.5913 8.49999 11.0055 8.49999Z" fill="black"/>
</svg>
