<svg width="20" height="20" viewBox="0 0 20 20" fill="none" xmlns="http://www.w3.org/2000/svg">
<path d="M17.6451 16.4336C19.2587 14.5211 20.096 12.0723 19.9912 9.57186C19.8865 7.07137 18.8475 4.70127 17.0797 2.93048C15.3118 1.1597 12.944 0.11722 10.4447 0.0093C7.94536 -0.0986202 5.49656 0.735879 3.5828 2.3477L2.59134 1.35227C2.43086 1.18938 2.21396 1.0944 1.98547 1.08694C1.75697 1.07947 1.53435 1.1601 1.36358 1.31216C1.19281 1.46422 1.08695 1.67609 1.06788 1.904C1.0488 2.13191 1.11796 2.35844 1.26108 2.53679C1.28066 2.56541 1.30339 2.59174 1.32884 2.61529L3.74329 5.01645L17.0139 18.2817C17.0567 18.3239 17.095 18.3706 17.128 18.4209L17.3776 18.6706C17.5454 18.8375 17.7723 18.9312 18.0089 18.9312C18.2454 18.9312 18.4724 18.8375 18.6401 18.6706C18.8061 18.5024 18.8991 18.2755 18.8991 18.0391C18.8991 17.8027 18.8061 17.5759 18.6401 17.4076L17.6451 16.4336ZM16.2185 15.0064L12.4061 11.1746L13.4475 10.4324C13.4947 10.3995 13.5358 10.3584 13.5687 10.3111C13.6458 10.2 13.6763 10.063 13.6536 9.92961C13.6309 9.79622 13.5569 9.67703 13.4475 9.59757L8.5294 6.08681C8.44218 6.02391 8.33733 5.99019 8.22982 5.99047C8.0978 5.98935 7.97042 6.03914 7.87413 6.12949C7.77783 6.21985 7.72002 6.34383 7.71269 6.4757L4.99153 3.7677C6.52456 2.51859 8.4663 1.88287 10.4409 1.9836C12.4155 2.08433 14.2825 2.91435 15.6806 4.31299C17.0787 5.71163 17.9084 7.57942 18.0091 9.55483C18.1097 11.5302 17.4743 13.4728 16.2257 15.0064H16.2185ZM9.98448 18.0034C8.63453 18.0021 7.30688 17.6589 6.12531 17.0057C4.94373 16.3525 3.94669 15.4107 3.22712 14.2681C2.50755 13.1254 2.08889 11.8191 2.01014 10.4709C1.9314 9.12269 2.19515 7.77648 2.7768 6.55776L1.30031 5.08067C0.222024 6.98219 -0.202989 9.18506 0.090451 11.3514C0.383891 13.5178 1.37958 15.5281 2.92482 17.074C4.47006 18.6199 6.47952 19.616 8.64502 19.9095C10.8105 20.2031 13.0125 19.7779 14.9132 18.6992L13.4368 17.2221C12.3588 17.7373 11.1791 18.0043 9.98448 18.0034ZM8.5294 13.9361L9.47806 13.2618L7.69486 11.4778V13.5008C7.69552 13.6082 7.72913 13.7128 7.79115 13.8005C7.82947 13.8594 7.87938 13.9098 7.93784 13.9488C7.99629 13.9877 8.06206 14.0144 8.13114 14.0271C8.20022 14.0397 8.27116 14.0382 8.33963 14.0226C8.4081 14.0069 8.47267 13.9775 8.5294 13.9361Z" fill="black"/>
</svg>
