<svg width="20.832244873046875" height="20.83196258544922" viewBox="0 0 20.832244873046875 20.83196258544922" fill="none" xmlns="http://www.w3.org/2000/svg">
<path d="M8.25003 13.5416V7.12239C8.25003 6.94162 8.32791 6.80765 8.48368 6.72049C8.63944 6.6333 8.79425 6.64164 8.9481 6.74549L13.9461 9.94546C14.0833 10.039 14.1519 10.1679 14.1519 10.332C14.1519 10.4961 14.0833 10.6249 13.9461 10.7185L8.9481 13.9185C8.79425 14.0223 8.63944 14.0307 8.48368 13.9435C8.32791 13.8563 8.25003 13.7224 8.25003 13.5416ZM1.5 15.6223V18.082C1.5 18.2948 1.42821 18.473 1.28463 18.6166C1.14104 18.7602 0.962842 18.832 0.750025 18.832C0.537192 18.832 0.358992 18.7602 0.215425 18.6166C0.0718083 18.473 0 18.2948 0 18.082V14.0435C0 13.7858 0.0862167 13.5707 0.25865 13.3983C0.4311 13.2259 0.646167 13.1397 0.90385 13.1397H4.9327C5.14552 13.1397 5.32372 13.2115 5.4673 13.355C5.61088 13.4986 5.68268 13.6768 5.68268 13.8896C5.68268 14.1025 5.61088 14.2807 5.4673 14.4242C5.32372 14.5678 5.14552 14.6396 4.9327 14.6396H2.67495C3.48648 16.0948 4.58328 17.2406 5.96533 18.0772C7.34741 18.9137 8.85897 19.332 10.5 19.332C12.3039 19.332 13.9433 18.8403 15.4183 17.857C16.8933 16.8736 17.9885 15.5691 18.7038 13.9435C18.809 13.7179 18.9519 13.5377 19.1327 13.4031C19.3135 13.2685 19.5269 13.2281 19.7731 13.282C20.0025 13.3358 20.1503 13.4682 20.2163 13.6791C20.2823 13.89 20.2628 14.1185 20.1577 14.3646C19.3474 16.3108 18.0731 17.8752 16.3346 19.0579C14.5961 20.2406 12.6513 20.832 10.5 20.832C8.62948 20.832 6.90833 20.3762 5.33652 19.4646C3.76474 18.5531 2.4859 17.2723 1.5 15.6223ZM0.8154 9.33199C0.602583 9.33199 0.432717 9.25026 0.3058 9.08681C0.178883 8.92335 0.134008 8.732 0.171175 8.51276C0.325025 7.71661 0.538492 6.98456 0.811575 6.31661C1.08466 5.64866 1.45261 4.97815 1.91543 4.30509C2.04363 4.11277 2.20901 3.99995 2.41158 3.96661C2.61413 3.93328 2.79809 3.9993 2.96347 4.16469C3.13911 4.34032 3.22532 4.53199 3.22212 4.73969C3.21892 4.94737 3.14809 5.15762 3.00962 5.37044C2.66859 5.87429 2.40032 6.37814 2.2048 6.88199C2.00928 7.38584 1.84166 7.93776 1.70192 8.53776C1.64807 8.76725 1.54423 8.95699 1.3904 9.10699C1.23655 9.25699 1.04488 9.33199 0.8154 9.33199ZM9.5 0.651238C9.5 0.890971 9.42661 1.0852 9.27983 1.23391C9.13303 1.38263 8.93655 1.4807 8.6904 1.52814C8.09423 1.6448 7.55 1.80923 7.0577 2.02141C6.56538 2.2336 6.0673 2.5102 5.56345 2.85124C5.36088 2.98969 5.15576 3.05379 4.94808 3.04354C4.74039 3.03327 4.54873 2.94032 4.3731 2.76469C4.22438 2.60957 4.16253 2.4349 4.18753 2.24066C4.21253 2.04645 4.31284 1.8801 4.48848 1.74164C5.15129 1.28907 5.81155 0.923687 6.46925 0.645487C7.12693 0.367287 7.85706 0.156387 8.65963 0.0127874C8.88911 -0.0243959 9.08654 0.019512 9.25193 0.144512C9.41731 0.269512 9.5 0.438421 9.5 0.651238ZM16.6481 2.77431C16.4724 2.94995 16.2782 3.03872 16.0654 3.04064C15.8526 3.04257 15.6449 2.9711 15.4423 2.82624C14.9513 2.4852 14.4538 2.21533 13.95 2.01661C13.4461 1.81788 12.8942 1.65505 12.2942 1.52814C12.0583 1.4807 11.867 1.38006 11.7202 1.22621C11.5734 1.07238 11.5 0.880721 11.5 0.651238C11.5 0.438421 11.5785 0.269512 11.7356 0.144512C11.8926 0.019512 12.0808 -0.0243959 12.3 0.0127874C13.1128 0.156387 13.849 0.364721 14.5087 0.637787C15.1683 0.910871 15.8346 1.27882 16.5077 1.74164C16.6897 1.86984 16.7974 2.03522 16.8307 2.23779C16.8641 2.44034 16.8032 2.61918 16.6481 2.77431ZM20.1807 9.33199C19.941 9.33199 19.7484 9.25699 19.6029 9.10699C19.4574 8.95699 19.3577 8.75891 19.3039 8.51276C19.1705 7.90635 19.0035 7.35378 18.8029 6.85506C18.6022 6.35635 18.3218 5.85634 17.9615 5.35504C17.8231 5.1589 17.7574 4.95699 17.7644 4.74929C17.7715 4.5416 17.8628 4.34995 18.0385 4.17431C18.1936 4.01918 18.3682 3.95668 18.5625 3.98681C18.7567 4.01695 18.923 4.11983 19.0615 4.29546C19.5372 4.96213 19.9131 5.62848 20.1894 6.29451C20.4657 6.96053 20.6756 7.69995 20.8192 8.51276C20.8564 8.73841 20.8141 8.93136 20.6923 9.09161C20.5705 9.25186 20.4 9.33199 20.1807 9.33199Z" fill="black"/>
</svg>
