<svg width="20" height="15.384614944458008" viewBox="0 0 20 15.384614944458008" fill="none" xmlns="http://www.w3.org/2000/svg">
<path d="M5.58181 8.77967L6.69734 5.07812H7.8264L6.11253 10H5.05446L3.34736 5.07812H4.47303L5.58181 8.77967Z" fill="#19C201"/>
<path fill-rule="evenodd" clip-rule="evenodd" d="M10.8147 8.98588H9.03658L8.69854 10H7.62019L9.45237 5.07812H10.3921L12.2344 10H11.1561L10.8147 8.98588ZM9.3104 8.16444H10.5409L9.92225 6.32212L9.3104 8.16444Z" fill="#19C201"/>
<path fill-rule="evenodd" clip-rule="evenodd" d="M13.7083 8.19824H14.5162L15.4391 10H16.5276V9.95267L15.4627 7.94133C15.758 7.80837 15.9777 7.63033 16.1219 7.40723C16.2684 7.18187 16.3416 6.90129 16.3416 6.56551C16.3416 6.09225 16.1839 5.72604 15.8684 5.46687C15.5529 5.20771 15.1044 5.07812 14.523 5.07812H12.6942V10H13.7083V8.19824ZM14.5264 7.3768H13.7083V5.89956H14.523C14.7957 5.89956 14.9974 5.96605 15.1281 6.09901C15.261 6.23197 15.3275 6.41451 15.3275 6.64663C15.3275 6.87425 15.2577 7.05341 15.1179 7.18412C14.9782 7.31258 14.781 7.3768 14.5264 7.3768Z" fill="#19C201"/>
<path fill-rule="evenodd" clip-rule="evenodd" d="M1.15385 0C0.516594 0 0 0.516595 0 1.15385V14.2308C0 14.868 0.516593 15.3846 1.15385 15.3846H18.8462C19.4834 15.3846 20 14.868 20 14.2308V1.15385C20 0.516595 19.4834 0 18.8462 0H1.15385ZM1.53846 13.8462V1.53846H18.4615V13.8462H1.53846Z" fill="#19C201"/>
</svg>
