<svg width="224" height="53" viewBox="0 0 224 53" fill="none" xmlns="http://www.w3.org/2000/svg">
<mask id="mask0_3670_419" style="mask-type:luminance" maskUnits="userSpaceOnUse" x="0" y="0" width="224" height="53">
<path d="M0 0H223.714V52.4571H0V0Z" fill="white"/>
</mask>
<g mask="url(#mask0_3670_419)">
<path fill-rule="evenodd" clip-rule="evenodd" d="M51.2615 2.19855C51.8787 2.19855 52.4264 1.72026 52.4264 1.10312C52.4264 0.485976 51.8787 0.00769043 51.2615 0.00769043H1.17267C0.555527 0.00769043 0.0078125 0.485976 0.0078125 1.10312C0.0078125 1.72026 0.555527 2.19855 1.17267 2.19855H51.2615ZM51.2615 52.4571C51.8787 52.4571 52.4264 51.9788 52.4264 51.3617C52.4264 50.7445 51.8787 50.2663 51.2615 50.2663H1.17267C0.555527 50.2663 0.0078125 50.7445 0.0078125 51.3617C0.0078125 51.9788 0.486098 52.4571 1.17267 52.4571H51.2615Z" fill="url(#paint0_linear_3670_419)"/>
<path fill-rule="evenodd" clip-rule="evenodd" d="M222.548 2.19855C223.165 2.19855 223.713 1.72026 223.713 1.10312C223.713 0.485976 223.165 0.00769043 222.548 0.00769043H61.2811C60.6639 0.00769043 60.1162 0.485976 60.1162 1.10312C60.1162 1.72026 60.6639 2.19855 61.2811 2.19855H222.548ZM222.548 52.4571C223.165 52.4571 223.713 51.9788 223.713 51.3617C223.713 50.7445 223.165 50.2663 222.548 50.2663H61.2811C60.6639 50.2663 60.1162 50.7445 60.1162 51.3617C60.1162 51.9788 60.6639 52.4571 61.2811 52.4571H222.548Z" fill="url(#paint1_linear_3670_419)"/>
<path fill-rule="evenodd" clip-rule="evenodd" d="M103.078 37.4219C102.252 37.7691 101.226 38.0391 100.192 38.1779C99.097 38.3168 98.1327 38.3862 97.1761 38.3862C95.3247 38.3862 93.6044 38.1085 92.0307 37.5608C90.4492 37.0131 89.1455 36.2571 87.9807 35.2233C86.8852 34.1896 85.9904 32.8859 85.3732 31.3816C84.7561 29.8696 84.4089 28.1571 84.4089 26.2285C84.4089 24.4465 84.7484 22.7956 85.3732 21.2836C85.9904 19.7716 86.8852 18.5373 87.9807 17.4419C89.0761 16.3465 90.4492 15.5211 91.9612 14.9733C93.4732 14.3562 95.1164 14.0785 96.8984 14.0785C97.9938 14.0785 99.0969 14.1479 100.123 14.2868C101.157 14.4256 102.183 14.6956 103.209 15.0428V18.4756C102.183 17.9279 101.218 17.5808 100.262 17.3802C99.3669 17.1719 98.2715 17.0408 97.1067 17.0408C95.8029 17.0408 94.5687 17.2491 93.5349 17.7273C92.4395 18.2056 91.5447 18.8228 90.7887 19.5788C90.0327 20.4042 89.4155 21.2991 89.0067 22.3945C88.5978 23.4899 88.3895 24.6625 88.3895 25.9662C88.3895 27.4088 88.5978 28.6431 88.9372 29.8079C89.3461 30.9728 89.9015 31.9371 90.6498 32.7625C91.4058 33.5879 92.3624 34.2051 93.4655 34.6833C94.561 35.1616 95.8647 35.3699 97.3072 35.3699C98.6109 35.3699 99.8452 35.2311 101.01 35.0305C102.175 34.8222 103.34 34.3439 104.443 33.7268L103.078 37.4219ZM83.1747 37.9002H79.1941L75.9001 29.3142H66.9747L63.8195 37.9002H60.2478L69.5898 14.6956H73.7787L83.1747 37.9002ZM74.9358 26.7145L71.4335 17.6502L67.8618 26.7145H74.9358ZM125.102 37.9002H129.082L119.609 14.6956H115.42L106.086 37.9002H109.65L112.805 29.3142H121.792L125.102 37.9002ZM117.349 17.6502L120.851 26.7145H113.785L117.349 17.6502ZM152.896 26.2285C152.896 28.3576 152.488 30.2091 151.662 31.7211C150.872 33.1793 149.771 34.446 148.438 35.4316C147.064 36.3959 145.552 37.0825 143.77 37.5608C141.988 37.9696 140.199 38.2473 138.278 38.2473C137.321 38.2473 136.357 38.1779 135.393 38.1085C134.536 38.0468 133.742 37.9311 132.901 37.8076L132.585 37.7613V14.7651L132.901 14.7188C133.742 14.5953 134.544 14.4796 135.393 14.4179C136.357 14.3485 137.314 14.2791 138.278 14.2791C140.199 14.2791 141.981 14.4873 143.77 14.9656C145.552 15.3745 147.064 16.1305 148.438 17.0948C149.811 18.0591 150.837 19.2933 151.662 20.8053C152.549 22.3173 152.896 24.0993 152.896 26.2285ZM149.055 26.2285C149.055 24.5776 148.777 23.2045 148.229 22.1091C147.682 20.9442 146.926 20.0493 145.969 19.2933C145.005 18.5373 143.84 18.0591 142.606 17.7119C141.302 17.3648 139.929 17.2336 138.486 17.2336H137.391C137.051 17.2336 136.635 17.3031 136.295 17.3725V35.1539C136.465 35.1848 136.658 35.2079 136.843 35.2233C137.028 35.2388 137.221 35.2542 137.391 35.2928C137.622 35.3391 137.884 35.3236 138.139 35.3082C138.262 35.3005 138.378 35.2928 138.494 35.2928C139.936 35.2928 141.31 35.1539 142.613 34.8145C143.917 34.4674 145.012 33.9196 145.977 33.2331C146.933 32.4771 147.689 31.5822 148.237 30.4173C148.777 29.2525 149.055 27.8793 149.055 26.2285ZM156.946 37.9002H170.122L171.218 34.7451C170.122 35.0228 168.95 35.1539 167.854 35.2233L167.669 35.2311C166.574 35.2928 165.525 35.3545 164.422 35.3545H162.431C161.745 35.3545 161.128 35.3545 160.441 35.2851V26.7762H168.063V24.2382H160.449V17.2336C161.066 17.1642 161.683 17.1642 162.231 17.1642H164.013C164.838 17.1642 165.725 17.1642 166.551 17.2336C167.376 17.2336 168.263 17.3725 169.089 17.5113V14.6262H156.946V37.9002ZM202.237 37.9002H198.534L196.606 19.1545L189.192 38.3785C189.03 38.2705 188.876 38.1779 188.722 38.0853C188.475 37.9388 188.236 37.7922 188.027 37.6225C187.678 37.4078 187.355 37.1542 187.063 36.8665C186.785 36.5888 186.515 36.3188 186.307 35.9716C186.099 35.6322 185.898 35.2156 185.69 34.7373L179.58 19.1545L177.52 37.9002H174.296L177.112 14.6262H181.362L188.359 32.0682L195.356 14.6262H199.406L202.237 37.9002ZM215.205 27.4011L223.575 14.6262H219.802L213.623 24.2382L207.174 14.6262H202.985L211.633 27.4011V37.9079H215.197V27.4011H215.205Z" fill="#00B3B0"/>
</g>
<defs>
<linearGradient id="paint0_linear_3670_419" x1="0.0024125" y1="26.2301" x2="52.431" y2="26.2301" gradientUnits="userSpaceOnUse">
<stop stop-color="#9DA9B1"/>
<stop offset="0.25" stop-color="#E3E9EC"/>
<stop offset="0.5" stop-color="#9DA9B1"/>
<stop offset="0.75" stop-color="#E3E9EC"/>
<stop offset="1" stop-color="#9DA9B1"/>
</linearGradient>
<linearGradient id="paint1_linear_3670_419" x1="60.1154" y1="26.2301" x2="223.715" y2="26.2301" gradientUnits="userSpaceOnUse">
<stop stop-color="#00A9AB"/>
<stop offset="0.997" stop-color="#B7DEDC"/>
</linearGradient>
</defs>
</svg>
