<svg width="224" height="53" viewBox="0 0 224 53" fill="none" xmlns="http://www.w3.org/2000/svg">
<mask id="mask0_3663_141" style="mask-type:luminance" maskUnits="userSpaceOnUse" x="0" y="0" width="224" height="53">
<path d="M0 0H223.714V52.4571H0V0Z" fill="white"/>
</mask>
<g mask="url(#mask0_3663_141)">
<path fill-rule="evenodd" clip-rule="evenodd" d="M51.2615 2.19843C51.8787 2.19843 52.4264 1.72014 52.4264 1.103C52.4264 0.485854 51.8787 0.00756836 51.2615 0.00756836H1.17267C0.555527 0.00756836 0.0078125 0.485854 0.0078125 1.103C0.0078125 1.72014 0.555527 2.19843 1.17267 2.19843H51.2615ZM51.2615 52.457C51.8787 52.457 52.4264 51.9787 52.4264 51.3616C52.4264 50.7444 51.8787 50.2661 51.2615 50.2661H1.17267C0.555527 50.2661 0.0078125 50.7444 0.0078125 51.3616C0.0078125 51.9787 0.486098 52.457 1.17267 52.457H51.2615Z" fill="url(#paint0_linear_3663_141)"/>
<path fill-rule="evenodd" clip-rule="evenodd" d="M222.548 2.19843C223.165 2.19843 223.713 1.72014 223.713 1.103C223.713 0.485854 223.165 0.00756836 222.548 0.00756836H61.2811C60.6639 0.00756836 60.1162 0.485854 60.1162 1.103C60.1162 1.72014 60.6639 2.19843 61.2811 2.19843H222.548ZM222.548 52.457C223.165 52.457 223.713 51.9787 223.713 51.3616C223.713 50.7444 223.165 50.2661 222.548 50.2661H61.2811C60.6639 50.2661 60.1162 50.7444 60.1162 51.3616C60.1162 51.9787 60.6639 52.457 61.2811 52.457H222.548Z" fill="url(#paint1_linear_3663_141)"/>
<path fill-rule="evenodd" clip-rule="evenodd" d="M103.078 37.4218C102.252 37.7689 101.226 38.0389 100.192 38.1778C99.097 38.3167 98.1327 38.3861 97.1761 38.3861C95.3247 38.3861 93.6044 38.1084 92.0307 37.5607C90.4492 37.0129 89.1455 36.2569 87.9807 35.2232C86.8852 34.1895 85.9904 32.8858 85.3732 31.3815C84.7561 29.8695 84.4089 28.1569 84.4089 26.2284C84.4089 24.4464 84.7484 22.7955 85.3732 21.2835C85.9904 19.7715 86.8852 18.5372 87.9807 17.4418C89.0761 16.3464 90.4492 15.5209 91.9612 14.9732C93.4732 14.3561 95.1164 14.0784 96.8984 14.0784C97.9938 14.0784 99.0969 14.1478 100.123 14.2867C101.157 14.4255 102.183 14.6955 103.209 15.0427V18.4755C102.183 17.9278 101.218 17.5807 100.262 17.3801C99.3669 17.1718 98.2715 17.0407 97.1067 17.0407C95.8029 17.0407 94.5687 17.2489 93.5349 17.7272C92.4395 18.2055 91.5447 18.8227 90.7887 19.5787C90.0327 20.4041 89.4155 21.2989 89.0067 22.3944C88.5978 23.4898 88.3895 24.6624 88.3895 25.9661C88.3895 27.4087 88.5978 28.6429 88.9372 29.8078C89.3461 30.9727 89.9015 31.9369 90.6498 32.7624C91.4058 33.5878 92.3624 34.2049 93.4655 34.6832C94.561 35.1615 95.8647 35.3698 97.3072 35.3698C98.6109 35.3698 99.8452 35.2309 101.01 35.0304C102.175 34.8221 103.34 34.3438 104.443 33.7267L103.078 37.4218ZM83.1747 37.9001H79.1941L75.9001 29.3141H66.9747L63.8195 37.9001H60.2478L69.5898 14.6955H73.7787L83.1747 37.9001ZM74.9358 26.7144L71.4335 17.6501L67.8618 26.7144H74.9358ZM125.102 37.9001H129.082L119.609 14.6955H115.42L106.086 37.9001H109.65L112.805 29.3141H121.792L125.102 37.9001ZM117.349 17.6501L120.851 26.7144H113.785L117.349 17.6501ZM152.896 26.2284C152.896 28.3575 152.488 30.2089 151.662 31.7209C150.872 33.1791 149.771 34.4459 148.438 35.4315C147.064 36.3958 145.552 37.0824 143.77 37.5607C141.988 37.9695 140.199 38.2472 138.278 38.2472C137.321 38.2472 136.357 38.1778 135.393 38.1084C134.536 38.0467 133.742 37.9309 132.901 37.8075L132.585 37.7612V14.7649L132.901 14.7187C133.742 14.5952 134.544 14.4795 135.393 14.4178C136.357 14.3484 137.314 14.2789 138.278 14.2789C140.199 14.2789 141.981 14.4872 143.77 14.9655C145.552 15.3744 147.064 16.1304 148.438 17.0947C149.811 18.0589 150.837 19.2932 151.662 20.8052C152.549 22.3172 152.896 24.0992 152.896 26.2284ZM149.055 26.2284C149.055 24.5775 148.777 23.2044 148.229 22.1089C147.682 20.9441 146.926 20.0492 145.969 19.2932C145.005 18.5372 143.84 18.0589 142.606 17.7118C141.302 17.3647 139.929 17.2335 138.486 17.2335H137.391C137.051 17.2335 136.635 17.3029 136.295 17.3724V35.1538C136.465 35.1847 136.658 35.2078 136.843 35.2232C137.028 35.2387 137.221 35.2541 137.391 35.2927C137.622 35.3389 137.884 35.3235 138.139 35.3081C138.262 35.3004 138.378 35.2927 138.494 35.2927C139.936 35.2927 141.31 35.1538 142.613 34.8144C143.917 34.4672 145.012 33.9195 145.977 33.2329C146.933 32.4769 147.689 31.5821 148.237 30.4172C148.777 29.2524 149.055 27.8792 149.055 26.2284ZM156.946 37.9001H170.122L171.218 34.7449C170.122 35.0227 168.95 35.1538 167.854 35.2232L167.669 35.2309C166.574 35.2927 165.525 35.3544 164.422 35.3544H162.431C161.745 35.3544 161.128 35.3544 160.441 35.2849V26.7761H168.063V24.2381H160.449V17.2335C161.066 17.1641 161.683 17.1641 162.231 17.1641H164.013C164.838 17.1641 165.725 17.1641 166.551 17.2335C167.376 17.2335 168.263 17.3724 169.089 17.5112V14.6261H156.946V37.9001ZM202.237 37.9001H198.534L196.606 19.1544L189.192 38.3784C189.03 38.2704 188.876 38.1778 188.722 38.0852C188.475 37.9387 188.236 37.7921 188.027 37.6224C187.678 37.4077 187.355 37.154 187.063 36.8664C186.785 36.5887 186.515 36.3187 186.307 35.9715C186.099 35.6321 185.898 35.2155 185.69 34.7372L179.58 19.1544L177.52 37.9001H174.296L177.112 14.6261H181.362L188.359 32.0681L195.356 14.6261H199.406L202.237 37.9001ZM215.205 27.4009L223.575 14.6261H219.802L213.623 24.2381L207.174 14.6261H202.985L211.633 27.4009V37.9078H215.197V27.4009H215.205Z" fill="#00B3B0"/>
</g>
<defs>
<linearGradient id="paint0_linear_3663_141" x1="0.0024125" y1="26.23" x2="52.431" y2="26.23" gradientUnits="userSpaceOnUse">
<stop stop-color="#9DA9B1"/>
<stop offset="0.25" stop-color="#E3E9EC"/>
<stop offset="0.5" stop-color="#9DA9B1"/>
<stop offset="0.75" stop-color="#E3E9EC"/>
<stop offset="1" stop-color="#9DA9B1"/>
</linearGradient>
<linearGradient id="paint1_linear_3663_141" x1="60.1154" y1="26.23" x2="223.715" y2="26.23" gradientUnits="userSpaceOnUse">
<stop stop-color="#00A9AB"/>
<stop offset="0.997" stop-color="#B7DEDC"/>
</linearGradient>
</defs>
</svg>
