<svg width="21.99993133544922" height="9.999996185302734" viewBox="0 0 21.99993133544922 9.999996185302734" fill="none" xmlns="http://www.w3.org/2000/svg">
<path d="M5.15 7.15002C5.42614 7.15002 5.65 6.92617 5.65 6.65002V5.65002H6.65C6.92614 5.65002 7.15 5.42617 7.15 5.15002C7.15 4.87388 6.92614 4.65002 6.65 4.65002H5.65V3.65002C5.65 3.37388 5.42614 3.15002 5.15 3.15002C4.87386 3.15002 4.65 3.37388 4.65 3.65002V4.65002H3.65C3.37386 4.65002 3.15 4.87388 3.15 5.15002C3.15 5.42617 3.37386 5.65002 3.65 5.65002H4.65V6.65002C4.65 6.92617 4.87386 7.15002 5.15 7.15002Z" fill="black"/>
<path d="M17.9 3.65002C17.9 4.06397 17.5639 4.40002 17.15 4.40002C16.7361 4.40002 16.4 4.06397 16.4 3.65002C16.4 3.23608 16.7361 2.90002 17.15 2.90002C17.5639 2.90002 17.9 3.23608 17.9 3.65002Z" fill="black"/>
<path d="M14.905 5.15075C14.905 5.56364 15.2411 5.90002 15.655 5.90002C16.0689 5.90002 16.405 5.56364 16.405 5.15075C16.405 4.73641 16.0689 4.40002 15.655 4.40002C15.2411 4.40002 14.905 4.73641 14.905 5.15075Z" fill="black"/>
<path d="M17.15 5.90002C16.7361 5.90002 16.4 6.23608 16.4 6.65002C16.4 7.06397 16.7361 7.40002 17.15 7.40002C17.5639 7.40002 17.9 7.06397 17.9 6.65002C17.9 6.23608 17.5639 5.90002 17.15 5.90002Z" fill="black"/>
<path d="M18.65 4.40002C18.2361 4.40002 17.9 4.73608 17.9 5.15002C17.9 5.56252 18.2361 5.89858 18.65 5.89858C19.0639 5.89858 19.4 5.56252 19.4 5.15002C19.4 4.73608 19.0639 4.40002 18.65 4.40002Z" fill="black"/>
<path fill-rule="evenodd" clip-rule="evenodd" d="M11.8262 7.65002C12.6277 7.65257 13.1326 7.8444 13.5155 8.32371C14.701 9.80651 16.5409 10.4472 18.3936 10.02C20.1701 9.6137 21.6149 8.13945 22.0198 6.33159C22.3596 4.81182 22.0274 3.24757 21.1013 2.05038C20.1835 0.859793 18.6802 0.150024 17.1603 0.150024H5.29089C2.59315 0.150024 0.291108 2.25644 0.156806 4.88246C0.0870734 6.26079 0.556994 7.578 1.47904 8.58011C3.44119 10.71 7.01238 10.5757 8.80655 8.29739C9.17999 7.82391 9.6535 7.64261 10.4593 7.64998L11.8262 7.65002ZM21.044 6.11301C20.7226 7.54798 19.568 8.72597 18.1698 9.04534C16.6895 9.387 15.2409 8.88046 14.2968 7.6995C13.6381 6.87506 12.7617 6.653 11.8262 6.65002H10.4684C9.49403 6.64111 8.65945 6.86912 8.02091 7.6787C6.60545 9.47613 3.75724 9.57714 2.21493 7.90301C1.47549 7.09937 1.09929 6.04468 1.1555 4.93354C1.26216 2.84793 3.11725 1.15002 5.29089 1.15002H17.1603C18.3494 1.15002 19.5694 1.70114 20.3103 2.66224C21.0526 3.62186 21.3193 4.88155 21.044 6.11301Z" fill="black"/>
<path d="M5.15 7.15002C5.42614 7.15002 5.65 6.92617 5.65 6.65002V5.65002H6.65C6.92614 5.65002 7.15 5.42617 7.15 5.15002C7.15 4.87388 6.92614 4.65002 6.65 4.65002H5.65V3.65002C5.65 3.37388 5.42614 3.15002 5.15 3.15002C4.87386 3.15002 4.65 3.37388 4.65 3.65002V4.65002H3.65C3.37386 4.65002 3.15 4.87388 3.15 5.15002C3.15 5.42617 3.37386 5.65002 3.65 5.65002H4.65V6.65002C4.65 6.92617 4.87386 7.15002 5.15 7.15002Z" stroke="black" stroke-width="0.3"/>
<path d="M17.9 3.65002C17.9 4.06397 17.5639 4.40002 17.15 4.40002C16.7361 4.40002 16.4 4.06397 16.4 3.65002C16.4 3.23608 16.7361 2.90002 17.15 2.90002C17.5639 2.90002 17.9 3.23608 17.9 3.65002Z" stroke="black" stroke-width="0.3"/>
<path d="M14.905 5.15075C14.905 5.56364 15.2411 5.90002 15.655 5.90002C16.0689 5.90002 16.405 5.56364 16.405 5.15075C16.405 4.73641 16.0689 4.40002 15.655 4.40002C15.2411 4.40002 14.905 4.73641 14.905 5.15075Z" stroke="black" stroke-width="0.3"/>
<path d="M17.15 5.90002C16.7361 5.90002 16.4 6.23608 16.4 6.65002C16.4 7.06397 16.7361 7.40002 17.15 7.40002C17.5639 7.40002 17.9 7.06397 17.9 6.65002C17.9 6.23608 17.5639 5.90002 17.15 5.90002Z" stroke="black" stroke-width="0.3"/>
<path d="M18.65 4.40002C18.2361 4.40002 17.9 4.73608 17.9 5.15002C17.9 5.56252 18.2361 5.89858 18.65 5.89858C19.0639 5.89858 19.4 5.56252 19.4 5.15002C19.4 4.73608 19.0639 4.40002 18.65 4.40002Z" stroke="black" stroke-width="0.3"/>
<path fill-rule="evenodd" clip-rule="evenodd" d="M11.8262 7.65002C12.6277 7.65257 13.1326 7.8444 13.5155 8.32371C14.701 9.80651 16.5409 10.4472 18.3936 10.02C20.1701 9.6137 21.6149 8.13945 22.0198 6.33159C22.3596 4.81182 22.0274 3.24757 21.1013 2.05038C20.1835 0.859793 18.6802 0.150024 17.1603 0.150024H5.29089C2.59315 0.150024 0.291108 2.25644 0.156806 4.88246C0.0870734 6.26079 0.556994 7.578 1.47904 8.58011C3.44119 10.71 7.01238 10.5757 8.80655 8.29739C9.17999 7.82391 9.6535 7.64261 10.4593 7.64998L11.8262 7.65002ZM21.044 6.11301C20.7226 7.54798 19.568 8.72597 18.1698 9.04534C16.6895 9.387 15.2409 8.88046 14.2968 7.6995C13.6381 6.87506 12.7617 6.653 11.8262 6.65002H10.4684C9.49403 6.64111 8.65945 6.86912 8.02091 7.6787C6.60545 9.47613 3.75724 9.57714 2.21493 7.90301C1.47549 7.09937 1.09929 6.04468 1.1555 4.93354C1.26216 2.84793 3.11725 1.15002 5.29089 1.15002H17.1603C18.3494 1.15002 19.5694 1.70114 20.3103 2.66224C21.0526 3.62186 21.3193 4.88155 21.044 6.11301Z" stroke="black" stroke-width="0.3"/>
</svg>
