<svg width="18.00242042541504" height="18.00242042541504" viewBox="0 0 18.00242042541504 18.00242042541504" fill="none" xmlns="http://www.w3.org/2000/svg">
<path fill-rule="evenodd" clip-rule="evenodd" d="M6.20044 7.68202L8.41312 6.07311C8.76372 5.81818 9.23872 5.81818 9.58932 6.07311L11.802 7.68202C12.1522 7.93662 12.2987 8.38772 12.165 8.79962L11.3195 11.4038C11.1857 11.8159 10.8017 12.095 10.3684 12.095H7.63402C7.20072 12.095 6.81668 11.8159 6.68288 11.4038L5.8374 8.79962C5.7037 8.38772 5.85024 7.93662 6.20044 7.68202ZM9.00122 18.0024C4.03797 18.0024 0 13.9646 0 9.00122C0 4.03797 4.03797 0 9.00122 0C13.9646 0 18.0024 4.03797 18.0024 9.00122C18.0024 13.9646 13.9646 18.0024 9.00122 18.0024ZM9.00122 16.501C8.32212 16.501 7.66382 16.4102 7.03782 16.2403L5.85076 14.0511C5.70676 13.7855 5.45043 13.5993 5.15336 13.5444L2.71973 13.0948C2.00724 12.0052 1.57038 10.7198 1.50895 9.33852L3.20625 7.55192C3.41432 7.33282 3.51223 7.03152 3.47263 6.73202L3.15255 4.31158C3.98942 3.26997 5.09828 2.45573 6.37031 1.97768L8.57012 3.02849C8.84272 3.15871 9.15962 3.15871 9.43222 3.02849L11.6321 1.97766C12.9041 2.45568 14.0129 3.26989 14.8498 4.31146L14.5297 6.73202C14.4901 7.03152 14.588 7.33282 14.7961 7.55192L16.4935 9.33852C16.432 10.7198 15.9952 12.0052 15.2827 13.0947L12.849 13.5444C12.5519 13.5993 12.2956 13.7855 12.1516 14.0511L10.9646 16.2403C10.3386 16.4102 9.68032 16.501 9.00122 16.501Z" fill="black"/>
</svg>
