<svg width="19.758098602294922" height="18.016216278076172" viewBox="0 0 19.758098602294922 18.016216278076172" fill="none" xmlns="http://www.w3.org/2000/svg">
<path d="M3.24188 9.00757C3.24217 4.8612 6.60356 1.5 10.75 1.5C14.8966 1.5 18.2581 4.86149 18.2581 9.00811C18.2581 13.1547 14.8966 16.5162 10.75 16.5162C9.28744 16.5162 7.92467 16.0988 6.77168 15.3769C6.25799 15.0553 5.78582 14.6731 5.36523 14.2403C5.07654 13.9433 4.60172 13.9365 4.30468 14.2252C4.00763 14.5139 4.00086 14.9887 4.28954 15.2857C4.7935 15.8043 5.35948 16.2624 5.97567 16.6482C7.36031 17.5152 8.99778 18.0162 10.75 18.0162C15.725 18.0162 19.7581 13.9831 19.7581 9.00811C19.7581 4.03307 15.725 0 10.75 0C5.77513 0 1.74217 4.03278 1.74188 9.00757H0.388327C0.039902 9.00757 -0.130439 9.42568 0.11733 9.66571L2.27757 11.8337C2.43242 11.9885 2.67245 11.9885 2.8273 11.8337L4.98754 9.66571C5.22757 9.42568 5.05723 9.00757 4.7088 9.00757H3.24188Z" fill="black"/>
<path d="M10.5 5.00806C10.09 5.00806 9.75 5.34806 9.75 5.75806V9.43806C9.75 9.78806 9.94 10.1181 10.24 10.2981L13.36 12.1481C13.72 12.3581 14.18 12.2381 14.39 11.8881C14.6 11.5281 14.48 11.0681 14.13 10.8581L11.25 9.14806V5.74806C11.25 5.34806 10.91 5.00806 10.5 5.00806Z" fill="black"/>
</svg>
