<svg width="21.30138397216797" height="19.06560516357422" viewBox="0 0 21.30138397216797 19.06560516357422" fill="none" xmlns="http://www.w3.org/2000/svg">
<path fill-rule="evenodd" clip-rule="evenodd" d="M11.4476 0.665541C12.3234 -0.222696 13.7366 -0.215442 14.6158 0.648911C15.1488 1.17284 15.3793 1.95178 15.239 2.68294L14.5642 7.05673H17.5766C20.1867 7.05673 22.0048 9.38776 21.0382 12.0001L19.0466 17.3573C18.8359 17.923 18.5633 18.3788 18.1264 18.6835C17.6878 18.9895 17.1975 19.0656 16.7383 19.0656C11.6589 19.0656 6.57944 19.0617 1.5 19.0597C0.671573 19.0597 0 18.3881 0 17.5597V8.55969C0 7.73127 0.671573 7.05969 1.5 7.05969C2.96919 7.05969 4.43838 7.05969 5.90756 7.05969C7.76953 4.89172 9.58594 2.80969 11.4476 0.665541ZM5.5 8.55969H1.5L1.5 17.5597H5.5V8.55969ZM7.00534 17.5656L16.7383 17.5656C17.2508 17.5656 17.4531 17.3253 17.6319 16.8586L19.6462 11.4408C20.1913 9.96533 19.2573 8.55673 17.5766 8.55673H12.815L13.7646 2.40667C13.9037 1.71136 13.0094 1.16244 12.5149 1.71953C12.0535 2.23924 8.81641 5.97375 7.00533 8.08605L7.00534 17.5656Z" fill="black"/>
</svg>
