<svg width="26" height="25.797523498535156" viewBox="0 0 26 25.797523498535156" fill="none" xmlns="http://www.w3.org/2000/svg">
<path d="M22.1539 24.5825C21.9346 24.5825 21.7483 24.4137 21.7483 24.182C21.7483 23.9531 21.9346 23.784 22.1539 23.784C22.3713 23.784 22.5579 23.9531 22.5579 24.182C22.5579 24.4137 22.3713 24.5825 22.1539 24.5825ZM21.8286 24.182C21.8286 24.3745 21.9714 24.5161 22.1539 24.5161C22.3344 24.5161 22.4776 24.3745 22.4776 24.182C22.4776 23.9934 22.3344 23.8507 22.1539 23.8507C21.9714 23.8507 21.8286 23.9934 21.8286 24.182ZM22.0693 24.214V24.4137H22V23.9531H22.1753C22.284 23.9531 22.3377 23.9934 22.3377 24.084C22.3377 24.1664 22.2859 24.202 22.2187 24.2108L22.3488 24.4137H22.2712L22.1502 24.214H22.0693ZM22.0693 24.1545H22.1533C22.2122 24.1545 22.2653 24.1511 22.2653 24.0801C22.2653 24.0228 22.2134 24.0126 22.1644 24.0126H22.0693V24.1545ZM22.193 15.5927C22.1622 15.656 22.1013 15.6994 22.0314 15.7075C20.4399 15.8927 18.7485 15.6708 18.0966 15.5682C17.0081 14.4783 15.8297 13.266 14.961 12.2067C14.8718 12.098 14.8678 11.9429 14.9496 11.8285C16.1883 10.0979 17.3228 8.72423 17.8026 8.18025C19.1727 7.88094 20.5393 7.61598 21.4619 7.57836C21.5316 7.57555 21.5981 7.60771 21.6387 7.66439C22.8283 9.32238 23.6791 10.911 23.952 11.4916C23.4058 12.9622 22.7488 14.4481 22.193 15.5927ZM20.6742 18.3982C19.7971 19.8701 19.1305 20.7577 18.917 21.0273C18.627 21.4375 17.888 22.5062 16.7401 23.5868C16.6667 23.6558 16.5712 23.6957 16.4706 23.7C15.033 23.76 13.6961 23.659 13.1756 23.5451C12.735 23.3626 11.7092 22.9002 10.4965 22.2282C10.3909 22.1698 10.3285 22.0555 10.3366 21.9351C10.3997 20.9931 10.6979 19.6513 10.9619 18.2325C11.6141 17.0846 12.2901 15.775 12.9913 14.6992C13.0652 14.586 13.2037 14.5334 13.3341 14.569C15.4336 15.1435 17.2554 15.5796 17.995 15.7464C19.0075 16.9233 19.989 17.7508 20.6493 18.2636C20.6903 18.2956 20.7009 18.3534 20.6742 18.3982ZM7.97208 20.4437C7.86575 20.5099 7.73007 20.5063 7.62795 20.4339C6.71379 19.7851 5.62287 18.9567 4.71448 18.1057C4.17863 17.188 3.76519 16.0132 3.4768 15.013C3.45822 14.9485 3.47243 14.8789 3.51475 14.8269C4.53415 13.571 5.75778 12.5772 6.26912 12.1988C7.42311 12.6977 8.7476 13.1377 9.90612 13.5238C10.0246 13.5633 10.1082 13.6696 10.118 13.7941C10.2815 15.8599 10.659 17.5302 10.76 18.1685C10.3274 18.6318 9.19695 19.6818 7.97208 20.4437ZM2.89427 12.3163C2.74313 11.341 2.64351 10.3171 2.63259 9.84809C2.60745 8.76514 2.77935 7.80616 2.97874 6.91806C3.01137 6.77286 3.08678 6.64092 3.19654 6.54006C3.77549 6.00858 4.82284 5.07068 5.48392 4.64584C6.10689 4.24551 7.83827 3.6853 8.55227 3.47732C8.69076 3.43704 8.83815 3.49871 8.90935 3.62409C8.99523 3.77507 9.08516 3.92527 9.18009 4.07298C9.74233 4.94999 10.3617 5.70521 10.6226 6.032C10.2768 7.40817 10.13 8.95109 10.0629 10.2526C10.0566 10.3747 9.97919 10.4817 9.86536 10.5262C8.05857 11.2324 6.69318 11.7849 6.23445 11.9971C4.99334 12.0496 3.81093 12.2615 3.01293 12.4014C2.95641 12.4112 2.90317 12.3728 2.89427 12.3163ZM12.2222 2.72554C14.0799 2.47962 15.7796 2.4434 16.4327 2.46151C17.6215 3.25374 18.7831 4.29906 19.7103 5.2902C19.7754 5.35984 19.7851 5.46445 19.7339 5.5447C19.072 6.58159 18.1099 7.57711 17.6872 8.01069C16.12 8.38245 14.4581 8.92361 13.1095 9.36719C12.9781 9.41028 12.834 9.36141 12.7557 9.24743C11.7323 7.75744 11.0818 6.48057 10.8267 6.00639C11.1035 4.7645 11.4906 3.65844 12.0011 2.86559C12.0506 2.78877 12.1315 2.7374 12.2222 2.72554ZM24.4106 15.0951C24.3773 15.1104 24.3392 15.087 24.3372 15.0503C24.2593 13.521 24.1189 12.0352 24.0455 11.4916C24.0513 10.1708 23.8327 8.80042 23.6149 7.78976C23.6071 7.75323 23.6391 7.72044 23.6758 7.72793C24.923 7.98321 25.3232 8.45099 25.3232 8.45099C24.663 6.96787 23.7118 5.85026 22.6778 5.00557C21.7939 3.151 20.7767 2.29351 20.7767 2.29351C20.859 2.70368 20.8021 3.16755 20.6563 3.64611C20.6471 3.67671 20.6124 3.69123 20.5838 3.67718C18.8896 2.84732 17.1401 2.46807 16.4633 2.3733C15.452 1.88085 14.3475 1.55499 13.4494 1.30799C13.4254 1.30143 13.419 1.27021 13.4382 1.25428C14.6304 0.262981 15.727 0.0108238 15.727 0.0108238C13.7856 -0.0672435 12.1146 0.284528 10.7175 0.822568C8.63003 0.654879 7.30023 1.01852 7.30023 1.01852C7.30023 1.01852 7.87683 1.70972 8.10073 2.09444C8.1279 2.14112 8.11369 2.20046 8.06935 2.23121C6.75641 3.14304 5.8143 4.14464 5.44301 4.56152C5.0291 4.61773 4.31244 4.71688 3.68649 4.87145C3.66151 4.87754 3.64043 4.85256 3.65043 4.82867C4.27731 3.33352 4.96055 2.5057 4.96055 2.5057C4.96055 2.5057 0.931968 5.37077 0.168314 10.5192C0.168314 10.5192 0.499787 9.60654 1.62161 8.22335C1.63629 8.20508 1.66502 8.20898 1.6747 8.23022C1.99243 8.93485 2.35576 9.5608 2.53844 9.84809C1.92155 10.8425 1.49561 11.9272 1.23346 12.8146C1.22425 12.8456 1.20099 12.8701 1.17085 12.8816C0.237792 13.2362 0 13.5747 0 13.5747C0.145049 14.0709 0.429839 14.5545 0.789886 15.0104C0.821113 15.0499 0.837038 15.0992 0.834852 15.1495C0.735706 17.3466 1.44362 18.7929 1.44362 18.7929C1.60335 18.0255 1.9164 17.2801 2.31173 16.5803C2.32734 16.5525 2.36435 16.5455 2.38948 16.5655C3.31021 17.2979 4.26404 17.938 4.64251 18.1654C4.83799 18.6647 5.39679 19.9601 6.14374 21.2892C6.15951 21.3171 6.14655 21.3526 6.11657 21.3636C5.22223 21.69 4.30447 21.8377 3.46322 21.6323C3.46322 21.6323 4.47778 22.8981 7.60766 23.4379C8.47608 24.4653 9.5328 25.3162 10.7667 25.6121C10.7667 25.6121 10.405 25.2138 10.3157 23.7299C10.3139 23.6999 10.3378 23.6743 10.3681 23.6747C11.1407 23.6865 12.1891 23.7032 13.1486 23.6335C13.4886 23.9021 14.2309 24.491 14.9547 24.8667C14.9906 24.8853 14.9928 24.9362 14.9582 24.9571C13.6858 25.7274 12.8393 25.7946 12.8393 25.7946C18.6027 25.9175 22.0631 22.1545 22.0631 22.1545C21.1138 22.7796 20.0175 23.1684 18.9263 23.4001C18.8895 23.4081 18.8573 23.3753 18.8648 23.3384C19.0676 22.357 19.0108 21.4081 18.9964 21.0735C20.3639 20.7343 21.5569 20.1225 22.4398 19.4974C22.4578 19.4847 22.4815 19.4846 22.4995 19.4972C22.8672 19.753 23.1818 20.0404 23.4958 20.5188C23.4958 20.5188 24.0936 19.6718 24.2995 17.7095C25.7799 15.7748 26 13.7945 26 13.7945C25.6286 14.3761 25.0676 14.7949 24.4106 15.0951Z" fill="white"/>
</svg>
