<svg width="1.2468128204345703" height="0.8002452850341797" viewBox="0 0 1.2468128204345703 0.8002452850341797" fill="none" xmlns="http://www.w3.org/2000/svg">
<path d="M0.397757 0.0353299C0.305967 0.0659265 0.214176 0.12712 0.152983 0.157717C0.0917899 0.21891 0.0305962 0.280103 0.0305962 0.341296C-4.67324e-07 0.371893 0 0.463682 0 0.524875C0 0.586069 0.0305957 0.647262 0.0611923 0.677858C0.091789 0.708455 0.152983 0.739053 0.183579 0.769649C0.214176 0.769649 0.336563 0.800245 0.428353 0.800245C0.55074 0.800245 0.642529 0.769647 0.764916 0.739051C0.856706 0.708454 0.979093 0.616665 1.04029 0.524875C1.10148 0.433085 1.19327 0.341297 1.22387 0.3107C1.25446 0.249507 1.25446 0.21891 1.22387 0.188313C1.19327 0.157716 1.10148 0.127119 1.04029 0.0965222C0.979093 0.0659256 0.856706 0.0353299 0.764916 0.0353299C0.581336 -0.0258633 0.489547 0.00473331 0.397757 0.0353299Z" fill="white"/>
</svg>
