<svg width="11.749105453491211" height="11.259560585021973" viewBox="0 0 11.749105453491211 11.259560585021973" fill="none" xmlns="http://www.w3.org/2000/svg">
<path d="M5.72157 0.27537C5.66038 0.428353 5.56859 0.703722 5.50739 0.887302L5.38501 1.22387C4.65069 1.22387 4.40592 1.22387 4.22234 1.25446C4.06935 1.28506 3.85517 1.34625 3.70219 1.37685C3.57981 1.40745 3.33503 1.49923 3.21265 1.59102C3.09026 1.65222 2.87608 1.7746 2.7537 1.86639C2.63131 1.92759 2.47833 2.08057 2.35594 2.20296C2.26415 2.29475 2.08057 2.50892 1.98878 2.63131C1.89699 2.7537 1.7746 2.96787 1.71341 3.05966C1.65222 3.18205 1.56043 3.36563 1.52983 3.48802C1.46864 3.6104 1.40744 3.82458 1.37685 3.94697L1.34625 4.16114C0.305967 4.16114 0 4.16114 0 4.19174C0 4.22234 0.244773 4.37532 0.520143 4.5895C0.795513 4.80367 1.07088 4.98725 1.07088 5.01785C1.07088 5.01785 1.04029 5.14023 0.979092 5.26262C0.917899 5.38501 0.856706 5.59918 0.826109 5.75217C0.764916 5.99694 0.764916 6.08873 0.764916 6.60887C0.764916 7.15961 0.764915 7.22081 0.856705 7.49618C0.887302 7.64916 1.00969 7.92453 1.10148 8.10811C1.19327 8.29169 1.34625 8.53646 1.43804 8.65885C1.52983 8.78123 1.71341 8.99541 1.86639 9.1178C1.98878 9.24018 2.23355 9.42376 2.38654 9.54615C2.53952 9.63794 2.6925 9.72973 2.6925 9.72973C2.6925 9.72973 2.60071 10.0357 2.47833 10.3723C2.35594 10.7088 2.26415 11.0148 2.26415 11.0454C2.26415 11.0454 2.26415 11.0454 2.29475 11.0454C2.32534 11.0454 2.57012 10.8618 2.84549 10.6476C3.15145 10.4335 3.39623 10.2499 3.39623 10.2499C3.39623 10.2499 3.48802 10.3111 3.54921 10.3723C3.641 10.4335 3.79398 10.5558 3.91637 10.6476C4.03876 10.7394 4.25293 10.8618 4.37532 10.923C4.49771 10.9842 4.68128 11.0454 4.80367 11.1066C4.89546 11.1372 5.07904 11.1984 5.20143 11.1984C5.32381 11.229 5.56859 11.2596 5.72157 11.2596C5.90515 11.2596 6.14992 11.2596 6.27231 11.229C6.3947 11.1984 6.63947 11.1678 6.76185 11.1372C6.88424 11.1066 7.09842 11.0454 7.2208 10.9842C7.34319 10.923 7.55737 10.8312 7.67975 10.77C7.80214 10.7088 8.01632 10.5558 8.1387 10.464C8.26109 10.3417 8.38348 10.2805 8.38348 10.2805C8.38348 10.2805 8.62825 10.464 8.93421 10.6782C9.24018 10.8924 9.48495 11.076 9.48495 11.076C9.51555 11.076 9.48495 10.923 9.39316 10.6782C9.33197 10.464 9.24018 10.1581 9.17899 10.0051C9.0872 9.76033 9.0872 9.72973 9.14839 9.72973C9.17899 9.72973 9.30138 9.63794 9.45436 9.54615C9.57675 9.45436 9.79092 9.27078 9.9439 9.17899C10.0663 9.0566 10.2499 8.84243 10.3417 8.72004C10.4335 8.59766 10.5864 8.38348 10.6476 8.26109C10.7088 8.13871 10.8006 7.89393 10.8618 7.74095C10.923 7.58797 10.9842 7.3126 10.9842 7.19021C11.0148 7.03723 11.0148 6.79245 11.0148 6.51708C11.0148 6.21112 10.9842 5.99694 10.9536 5.84396C10.923 5.72157 10.8618 5.4768 10.8006 5.35441C10.7394 5.20143 10.7088 5.07904 10.7088 5.07904C10.7088 5.04844 10.9536 4.86486 11.229 4.65069C11.5043 4.43651 11.7491 4.25293 11.7491 4.25293C11.7491 4.25293 11.4431 4.22234 11.076 4.22234H10.4334C10.4029 4.09995 10.3723 3.94697 10.3111 3.76339C10.2499 3.6104 10.1887 3.36563 10.1275 3.24324C10.0663 3.12086 9.9439 2.90668 9.85211 2.7537C9.76032 2.60071 9.57675 2.38654 9.45436 2.23355C9.33197 2.11117 9.14839 1.92759 9.02601 1.86639C8.90362 1.7746 8.72004 1.68281 8.59765 1.59102C8.47527 1.52983 8.26109 1.43804 8.10811 1.37685C7.98572 1.34625 7.74095 1.28506 7.58797 1.25446C7.40439 1.22387 7.15961 1.19327 6.85365 1.19327H6.3641C6.05813 0.27537 5.96634 0 5.93575 0C5.84396 0 5.78276 0.122386 5.72157 0.27537Z" fill="white"/>
</svg>
