<svg width="1.2544631958007812" height="1.4074459075927734" viewBox="0 0 1.2544631958007812 1.4074459075927734" fill="none" xmlns="http://www.w3.org/2000/svg">
<path d="M0.764915 0C0.703722 0 0.611933 0.0611943 0.581336 0.0917909C0.520143 0.122388 0.428354 0.214177 0.397757 0.27537C0.336564 0.336564 0.244773 0.55074 0.152983 0.887304C0.0611932 1.16267 0 1.40745 0 1.40745C0 1.40745 0.152983 1.37685 0.305966 1.31566C0.458949 1.25446 0.673126 1.16267 0.764915 1.10148C0.856705 1.04029 1.00969 0.948497 1.04029 0.887304C1.10148 0.82611 1.16267 0.734319 1.19327 0.673126C1.22387 0.611932 1.25446 0.489547 1.25446 0.428354C1.25446 0.336564 1.25446 0.275369 1.22386 0.214176C1.19327 0.152982 1.13208 0.0917909 1.10148 0.0917909C1.07088 0.0611943 1.00969 0.0611929 0.948497 0.0305962C0.9179 -4.67324e-07 0.826109 0 0.764915 0Z" fill="white"/>
</svg>
