<svg width="20.254972457885742" height="9.607339859008789" viewBox="0 0 20.254972457885742 9.607339859008789" fill="none" xmlns="http://www.w3.org/2000/svg">
<path d="M9.79092 0.0305962C9.79092 0.0305962 10.2193 0.520142 10.7394 1.10148C11.2596 1.68281 12.3916 2.93728 13.2789 3.88577C14.1662 4.83427 15.6961 6.51708 16.6752 7.61856C17.6543 8.68944 18.4804 9.60734 18.4804 9.60734C18.4804 9.60734 18.6028 9.33197 18.6945 8.99541C18.8169 8.65884 18.9699 8.1387 19.0617 7.80214C19.1535 7.46558 19.3065 6.91484 19.3677 6.57828C19.4595 6.21112 19.5207 5.90515 19.5207 5.87455C19.5207 5.84396 18.8781 5.10964 18.052 4.22233C17.2565 3.33503 16.0632 2.01938 15.3901 1.31565L14.1968 0C10.8006 0 9.82152 0.0305962 9.79092 0.0305962ZM17.6849 0.0305962C17.6849 0.0305962 17.8378 0.214175 18.0214 0.428351C18.205 0.642527 18.7557 1.22386 19.2147 1.71341C19.6736 2.23355 20.0714 2.63131 20.0714 2.60071C20.0714 2.60071 20.102 2.47833 20.1326 2.35594C20.1326 2.23355 20.1632 2.04997 20.1632 1.92759C20.1632 1.8052 20.1938 1.49923 20.1938 1.22387C20.1938 0.948496 20.2244 0.550738 20.2244 0.367159L20.255 0C18.2662 0 17.6849 0.0305962 17.6849 0.0305962ZM4.68129 0.856704C4.62009 0.887301 4.46711 0.917898 4.34472 0.979091C4.22233 1.04028 4.06935 1.13207 3.97756 1.19327C3.88577 1.25446 3.76339 1.40744 3.6716 1.49923C3.57981 1.62162 3.42682 1.86639 3.27384 2.17236L3.05966 2.7231C2.90668 2.6925 2.81489 2.66191 2.7231 2.63131C2.63131 2.60071 2.53952 2.53952 2.47833 2.50892L2.38654 2.44773C2.35594 2.60071 2.35594 2.6925 2.35594 2.6925C2.35594 2.7231 2.41713 2.7537 2.50892 2.81489C2.60071 2.84549 2.7231 2.90668 2.81489 2.90668C2.93728 2.93728 2.96787 2.96787 2.93728 2.99847C2.93728 3.02906 2.81489 3.33503 2.69251 3.6716C2.57012 4.00816 2.41713 4.46711 2.32534 4.65069C2.26415 4.83427 2.14177 5.07904 2.08057 5.20143L1.98878 5.4156C1.68282 5.35441 1.49924 5.32381 1.34625 5.32381C1.22387 5.32381 1.04029 5.35441 0.948495 5.35441C0.856705 5.38501 0.673127 5.4462 0.581337 5.47679C0.489547 5.53799 0.336564 5.62978 0.244774 5.69097C0.183581 5.75217 0.0917894 5.87455 0.0305962 5.93574C0.0305962 6.02753 0 6.11932 0 6.18052C0 6.24171 0.0305962 6.3029 0.0305962 6.3641C0.0305962 6.42529 0.0917899 6.48648 0.152983 6.54768C0.214176 6.60887 0.336563 6.63947 0.428353 6.70066C0.520143 6.73126 0.73432 6.76185 0.887303 6.76185C1.10148 6.76185 1.19327 6.76186 1.34625 6.73126C1.46864 6.70066 1.62162 6.60887 1.74401 6.54768C1.8358 6.48648 1.98878 6.3641 2.08057 6.27231C2.17236 6.18052 2.23356 6.08873 2.23356 6.08873C2.23356 6.08873 2.23356 6.05813 2.26415 6.05813C2.29475 6.05813 2.38654 6.11933 2.44773 6.14992C2.53952 6.21112 2.7231 6.3335 2.87608 6.39469C3.02907 6.45589 3.24324 6.54768 3.33503 6.60887C3.42682 6.63947 3.6104 6.67006 3.70219 6.70066C3.79398 6.70066 3.97756 6.73126 4.06935 6.70066C4.16114 6.70066 4.37532 6.67006 4.4977 6.63947C4.62009 6.60887 4.83427 6.51708 4.95665 6.45589C5.07904 6.39469 5.26262 6.27231 5.38501 6.14992C5.50739 6.05813 5.62978 5.87455 5.72157 5.78276C5.84396 5.59918 5.84396 5.56858 5.84396 5.4462C5.84396 5.32381 5.84396 5.29322 5.78276 5.29322C5.75217 5.29322 5.66038 5.35441 5.53799 5.4462C5.4156 5.53799 5.26262 5.66038 5.14024 5.72157C5.04845 5.78276 4.89546 5.87455 4.80367 5.90515C4.68128 5.96634 4.5895 5.96634 4.31413 5.96634C4.13055 5.96634 3.85518 5.93574 3.70219 5.93574C3.54921 5.90515 3.36563 5.87455 3.24324 5.84396C3.15145 5.81336 2.93728 5.75217 2.81489 5.69097C2.66191 5.62978 2.57012 5.56859 2.57012 5.56859C2.57012 5.56859 2.63131 5.4462 2.69251 5.32381C2.7537 5.20143 2.93728 4.89546 3.02907 4.65069C3.15145 4.40591 3.30444 4.06935 3.36563 3.88577C3.42682 3.70219 3.51861 3.45742 3.57981 3.33503L3.641 3.09026C3.85518 3.05966 4.03876 2.99847 4.16114 2.96787C4.28353 2.90668 4.49771 2.84549 4.5895 2.78429C4.68129 2.7231 4.83427 2.63131 4.92606 2.57011C5.01785 2.50892 5.17083 2.38654 5.26262 2.29475C5.35441 2.20296 5.4462 2.04997 5.53799 1.92759C5.62978 1.71341 5.66038 1.68281 5.66038 1.43804C5.66038 1.16267 5.66038 1.16267 5.56859 1.07088C5.50739 1.00969 5.38501 0.948496 5.32382 0.917899C5.23203 0.887302 5.10964 0.856704 4.98725 0.856704C4.89546 0.826108 4.74248 0.856704 4.68129 0.856704Z" fill="#0060A9"/>
</svg>
