<svg width="3.9163684844970703" height="1.658151626586914" viewBox="0 0 3.9163684844970703 1.658151626586914" fill="none" xmlns="http://www.w3.org/2000/svg">
<path d="M0.397757 0.189511C0.214177 0.403688 0.214177 0.403687 0.122387 0.373091H0C0.0305966 0.709654 0.0611942 0.862637 0.0917908 0.985024C0.122387 1.07681 0.183581 1.26039 0.244774 1.35218L0.336565 1.56636L0.489548 1.41338C0.856707 1.59696 0.979093 1.65815 1.00969 1.65815C1.04029 1.65815 1.07088 1.59696 1.13208 1.56636C1.16267 1.50517 1.25446 1.38278 1.31566 1.29099L1.43804 1.10741L1.22386 0.281301C0.764916 0.0671239 0.611932 0.00593006 0.611932 0.00593006C0.581336 -0.0246666 0.489547 0.0671241 0.397757 0.189511ZM2.96787 0.220107C2.81489 0.250704 2.66191 0.311897 2.66191 0.311897C2.66191 0.311897 2.60071 0.526074 2.50892 0.740251L2.38654 1.13801C2.7231 1.50517 2.81489 1.62755 2.84549 1.62755C2.87608 1.62755 2.99847 1.56636 3.15145 1.53576L3.42682 1.41338C3.51861 1.50517 3.57981 1.53576 3.57981 1.53576C3.57981 1.53576 3.641 1.44397 3.70219 1.35218C3.76339 1.2298 3.82458 1.07681 3.85518 0.985024C3.88577 0.893234 3.91637 0.770847 3.91637 0.709654C3.91637 0.587267 3.91637 0.587267 3.88577 0.617864C3.85518 0.617864 3.79398 0.648461 3.76339 0.648461C3.70219 0.648461 3.6716 0.617864 3.54921 0.403687C3.45742 0.250703 3.36563 0.158913 3.33503 0.158913C3.27384 0.128317 3.12086 0.158914 2.96787 0.220107Z" fill="white"/>
</svg>
