<svg width="9.345575332641602" height="1.9887828826904297" viewBox="0 0 9.345575332641602 1.9887828826904297" fill="none" xmlns="http://www.w3.org/2000/svg">
<path d="M0.0135985 0.0611936C0.0135985 0.0917902 0.0441937 0.336564 0.105387 0.581337L0.166582 1.04029C0.533741 1.71341 0.625531 1.92759 0.656128 1.92759C0.656128 1.92759 0.686724 1.89699 0.686724 1.8664C0.686724 1.8052 0.656128 1.59103 0.625531 1.34625L0.533741 0.887304C0.166581 0.18358 0.0135985 0 0.0135985 0C0.0135985 0 -0.0169981 0.0305969 0.0135985 0.0611936ZM9.0702 0.489547L8.82543 0.948497C8.73364 1.65222 8.70304 1.8664 8.70304 1.92759C8.70304 1.95819 8.70305 1.98878 8.73364 1.98878C8.73364 1.98878 8.85603 1.8052 8.97841 1.56043L9.22319 1.10148C9.34557 0.305967 9.34558 0.0611936 9.34558 0.0611936C9.31498 0.0305969 9.19259 0.244774 9.0702 0.489547Z" fill="#0060A9"/>
</svg>
