<svg width="18.296789169311523" height="14.166238784790039" viewBox="0 0 18.296789169311523 14.166238784790039" fill="none" xmlns="http://www.w3.org/2000/svg">
<path d="M16.767 0.0917897C16.4916 0.152983 16.2774 0.183579 16.2468 0.214175C16.2162 0.244772 16.2468 0.244773 16.2774 0.244773C16.308 0.244773 16.5222 0.305966 16.7976 0.336562L17.2871 0.397756C18.1132 0.275369 18.2968 0.214175 18.2968 0.214175C18.2968 0.214175 18.052 0.152983 17.8072 0.0917897C17.5319 0.0305964 17.3177 0 17.2871 0C17.2565 0 17.0117 0.061193 16.767 0.0917897ZM0.0305968 4.89546C0.0305968 5.07904 0.0611935 5.4768 0.0611935 5.75217C0.0917901 6.05813 0.122386 6.48649 0.122386 6.76186C0.152983 7.00663 0.18358 7.2208 0.18358 7.2208C0.18358 7.2208 0.734319 6.63947 1.37685 5.90515C2.04997 5.17083 2.57012 4.58949 2.57012 4.58949C2.57012 4.58949 1.98878 4.5589 1.28506 4.5589H0L0.0305968 4.89546ZM4.98725 5.72157C4.40592 6.3335 3.79398 7.03722 3.6104 7.2514C3.42682 7.46558 2.7231 8.23049 2.01938 8.99541C1.31566 9.76033 0.764916 10.3723 0.734319 10.4029C0.703722 10.464 0.703722 10.4946 0.734319 10.617C0.764916 10.7088 0.856706 11.076 0.917899 11.4125C1.00969 11.7491 1.13208 12.2998 1.22387 12.6058C1.31566 12.9118 1.46864 13.3707 1.56043 13.6461C1.65222 13.9215 1.74401 14.1662 1.74401 14.1662C1.77461 14.1662 2.60071 13.2789 3.57981 12.1775C4.5895 11.076 6.02754 9.48496 6.82305 8.59765C7.61856 7.74095 8.75064 6.48649 9.36257 5.81336C9.9745 5.14023 10.464 4.58949 10.4335 4.58949C10.4335 4.58949 9.42376 4.5589 8.1999 4.5589H5.99694L4.98725 5.72157Z" fill="#0060A9"/>
</svg>
