<svg width="22.94747543334961" height="18.177799224853516" viewBox="0 0 22.94747543334961 18.177799224853516" fill="none" xmlns="http://www.w3.org/2000/svg">
<path d="M10.5252 0.00339999C10.4335 0.0339966 10.2805 0.0951904 10.1887 0.125787C10.0969 0.18698 9.94391 0.309365 9.85212 0.401155C9.76033 0.492945 9.66854 0.615333 9.66854 0.615333C9.66854 0.645929 9.69913 0.676526 9.72973 0.73772L9.79092 0.798912C9.94391 0.615332 10.0357 0.523543 10.0663 0.462349C10.1275 0.401156 10.2193 0.339963 10.3111 0.27877C10.4029 0.217577 10.4946 0.217575 10.617 0.217575C10.77 0.217575 10.8006 0.217577 10.8618 0.27877C10.923 0.339963 10.923 0.370559 10.923 0.523542C10.923 0.615332 10.8924 0.768314 10.8618 0.860104C10.8312 0.951894 10.7088 1.19667 10.5864 1.38025C10.464 1.59442 10.2499 1.96158 10.0663 2.26755C9.91331 2.54292 9.63794 3.00187 9.48496 3.24664C9.30138 3.55261 9.17899 3.76679 9.1178 3.98096C9.0566 4.13395 9.02601 4.34812 8.99541 4.47051C8.96481 4.62349 8.99541 4.71528 9.02601 4.86826C9.0566 4.99065 9.1178 5.08244 9.20959 5.17423C9.30138 5.26602 9.39317 5.32721 9.51555 5.35781C9.60734 5.38841 9.79092 5.419 9.9745 5.419C10.1275 5.419 10.3111 5.38841 10.4029 5.38841C10.4946 5.35781 10.6476 5.29662 10.7394 5.26602C10.8312 5.23542 10.9842 5.11304 11.076 5.05184C11.1678 4.96005 11.2902 4.83767 11.3208 4.77647C11.3819 4.71528 11.4125 4.65409 11.4431 4.65409C11.4737 4.65409 11.4737 4.71528 11.4737 4.77647C11.4737 4.83767 11.5349 4.96005 11.5961 5.05184C11.6573 5.14363 11.7491 5.26602 11.8103 5.29662C11.8715 5.35781 11.9939 5.419 12.0857 5.4802C12.2387 5.54139 12.2998 5.54139 12.5446 5.54139C12.7588 5.54139 12.8506 5.51079 12.9424 5.4496C13.0036 5.419 13.0954 5.35781 13.1566 5.29662C13.2177 5.26602 13.2789 5.14363 13.3095 5.08244C13.3707 4.96005 13.3707 4.89886 13.3707 4.71528C13.3707 4.5623 13.3401 4.43991 13.3095 4.37872C13.2789 4.28693 13.2483 4.25633 13.1871 4.25633C13.1566 4.25633 13.0648 4.28693 13.0342 4.28693C12.973 4.31752 12.973 4.34812 13.0036 4.43991C13.0342 4.5011 13.0342 4.59289 13.0342 4.65409C13.0342 4.71528 12.973 4.80707 12.9424 4.83767C12.8506 4.92946 12.8506 4.92946 12.6364 4.92946C12.4222 4.92946 12.3916 4.92946 12.2998 4.83767C12.2387 4.77647 12.1775 4.68468 12.1775 4.62349C12.1469 4.5623 12.1469 4.43991 12.1775 4.37872C12.1775 4.31752 12.2387 4.16454 12.2692 4.04215C12.2998 3.91977 12.4528 3.58321 12.6058 3.24664C12.7588 2.94068 13.0342 2.32874 13.2483 1.93099C13.4625 1.53323 13.7073 0.982493 13.8603 0.73772C13.9827 0.492947 14.105 0.278768 14.105 0.248172C14.105 0.217575 14.0745 0.186979 14.0439 0.186979C14.0133 0.186979 13.8603 0.156383 13.7073 0.156383L13.4319 0.125787C13.3095 0.248174 13.1566 0.554138 13.0036 0.829508C12.8506 1.13547 12.4222 1.99218 12.0857 2.7571C11.7185 3.52201 11.3819 4.19514 11.3514 4.28693C11.2902 4.37872 11.1678 4.5011 11.076 4.59289C10.9842 4.68468 10.8006 4.80707 10.7088 4.86826C10.5252 4.96005 10.464 4.96005 10.2499 4.99065C10.0051 4.99065 10.0051 4.99065 9.91331 4.92946C9.85212 4.86826 9.82152 4.80707 9.82152 4.71528C9.79092 4.62349 9.82152 4.5317 9.85212 4.37872C9.88271 4.25633 9.9745 4.04216 10.0663 3.82798C10.1581 3.6444 10.3723 3.27724 10.5252 3.00187C10.6782 2.7265 10.9536 2.26755 11.1066 1.99218C11.2596 1.71681 11.4431 1.38025 11.5349 1.19667C11.6267 0.982493 11.6879 0.890702 11.6879 0.768316C11.6879 0.707123 11.6573 0.584736 11.6267 0.492946C11.5961 0.401156 11.5043 0.309367 11.4431 0.27877C11.3819 0.248174 11.2596 0.18698 11.1678 0.156383C11.076 0.125787 10.923 0.0951885 10.8312 0.0951885C10.77 -0.027198 10.617 0.00339999 10.5252 0.00339999ZM5.01785 4.04215C4.77308 4.28693 3.76339 5.419 2.7537 6.52048C1.74401 7.62196 0.917899 8.57045 0.887303 8.57045C0.887303 8.57045 0.673126 8.81523 0.428353 9.06L0 9.51895C0.152983 9.73313 0.367159 10.0085 0.550739 10.2533C0.734319 10.498 1.07088 10.9264 1.25446 11.1712C1.46864 11.4159 1.71341 11.7525 1.86639 11.9055C1.98878 12.0585 2.11117 12.1809 2.11117 12.1503C2.11117 12.1503 2.26415 11.9973 2.41713 11.8137C2.57012 11.6301 3.33503 10.804 4.09995 9.9779L5.4768 8.44807C5.4768 4.62349 5.4768 3.55261 5.4462 3.55261C5.4462 3.58321 5.26262 3.79738 5.01785 4.04215ZM17.5013 6.03094V8.47867C18.5416 9.64134 19.1535 10.2839 19.5207 10.7122C19.8878 11.11 20.3468 11.6301 20.5303 11.8137C20.7139 11.9973 20.8669 12.1809 20.8669 12.1503C20.8975 12.1503 21.0811 11.9361 21.2953 11.6913C21.5094 11.4465 21.846 11.0488 22.0296 10.804C22.2132 10.5592 22.4885 10.1921 22.6415 10.0085C22.7945 9.79432 22.9169 9.61074 22.9475 9.61074C22.9475 9.58015 22.5497 9.0906 21.7848 8.26449C21.1423 7.56077 19.9184 6.21451 19.0923 5.29662C18.2662 4.37872 17.5625 3.6138 17.5625 3.6138C17.5319 3.5832 17.5013 4.10335 17.5013 6.03094ZM14.3804 6.55108C14.3498 6.58168 14.2886 6.67347 14.2274 6.70406C14.1662 6.76526 14.105 6.79585 14.0439 6.82645C13.9827 6.82645 13.8297 6.85705 13.7073 6.88764C13.5237 6.91824 13.2483 6.91824 12.82 6.88764C12.4834 6.88764 11.9633 6.85705 11.6573 6.85705C11.3514 6.85705 11.0148 6.85705 10.8924 6.88764C10.77 6.91824 10.5558 6.94883 10.4335 6.97943C10.3111 7.01003 10.1275 7.07122 10.0663 7.13241C10.0051 7.19361 9.91331 7.2854 9.85212 7.37719C9.79092 7.49957 9.76033 7.56077 9.76033 7.71375C9.76033 7.89733 9.76033 7.92793 9.85212 8.01972C9.91331 8.11151 10.0051 8.1727 10.1275 8.23389C10.2805 8.32568 10.3723 8.32569 10.5252 8.32569C10.6476 8.32569 10.7394 8.29508 10.8006 8.26449C10.8618 8.23389 10.8618 8.2033 10.8312 8.1727C10.8006 8.14211 10.7088 8.08091 10.617 8.05031C10.5252 8.01972 10.4335 7.95852 10.4029 7.92793C10.3723 7.89733 10.3417 7.83614 10.3417 7.80554C10.3417 7.77494 10.3723 7.68315 10.3723 7.65256C10.4029 7.62196 10.4335 7.56077 10.4946 7.53017C10.5252 7.49957 10.6476 7.46898 10.7394 7.43838C10.8312 7.40778 11.0454 7.37719 11.1984 7.37719C11.3514 7.37719 11.5043 7.37719 11.5655 7.37719L11.6573 7.40778C11.6267 7.65256 11.5961 7.89733 11.5349 8.08091C11.5043 8.26449 11.4431 8.50926 11.4125 8.60105C11.3819 8.69284 11.3514 8.87642 11.2902 8.96821C11.229 9.15179 11.1984 9.18239 11.1678 9.21299C11.1372 9.21299 11.0148 9.24358 10.8924 9.24358C10.77 9.24358 10.617 9.27418 10.4946 9.30478C10.4029 9.33537 10.2499 9.39657 10.1581 9.45776C10.0663 9.51895 9.9745 9.61074 9.94391 9.67194C9.91331 9.76373 9.88271 9.82492 9.88271 9.9779C9.88271 10.1309 9.88271 10.1615 9.94391 10.2533C9.9745 10.3145 10.0357 10.3451 10.0663 10.3451C10.0969 10.3451 10.1275 10.2839 10.1275 10.1615C10.1581 10.0391 10.1581 9.9779 10.2499 9.91671C10.3111 9.85552 10.4029 9.82492 10.4946 9.79432C10.5864 9.76372 10.7394 9.76373 10.8618 9.76373C10.9842 9.76373 11.076 9.76373 11.076 9.76373C11.076 9.76373 11.0454 9.91671 10.9842 10.1003C10.923 10.2839 10.8006 10.5898 10.7394 10.7428C10.6782 10.9264 10.5558 11.1712 10.464 11.2936C10.4029 11.4159 10.2805 11.5689 10.2193 11.6301C10.1275 11.7219 10.0357 11.7831 9.88271 11.8137C9.72973 11.8749 9.63794 11.8749 9.54615 11.8443C9.45436 11.8443 9.36257 11.7831 9.33197 11.7525C9.27078 11.7219 9.24018 11.6301 9.20959 11.5383C9.17899 11.4465 9.14839 11.3853 9.1178 11.3547C9.0872 11.3547 9.0566 11.3548 9.02601 11.3853C8.99541 11.4159 8.99541 11.4771 8.99541 11.5689C8.99541 11.6301 9.02601 11.7525 9.0566 11.8137C9.0872 11.8749 9.14839 11.9667 9.20959 11.9973C9.27078 12.0585 9.36257 12.1503 9.45436 12.1809C9.57675 12.2421 9.63794 12.2421 9.91331 12.2421C10.2193 12.2421 10.2499 12.2421 10.4029 12.1503C10.4946 12.1197 10.6476 11.9973 10.7394 11.9361C10.8312 11.8749 10.9536 11.7219 11.0454 11.6301C11.1372 11.5383 11.2596 11.3548 11.3208 11.2324C11.3819 11.11 11.5349 10.8958 11.5961 10.7122C11.6879 10.5592 11.7797 10.2533 11.8409 10.1003L11.9327 9.79432C12.2998 9.82492 12.4834 9.79432 12.6058 9.79432C12.7282 9.76372 12.8506 9.73313 12.9118 9.70253C12.973 9.67194 13.0954 9.58014 13.1566 9.48835C13.2177 9.39656 13.2789 9.30478 13.3095 9.24358C13.3401 9.18239 13.3401 9.06 13.3401 8.99881C13.3401 8.93762 13.3095 8.84583 13.2789 8.81523C13.2483 8.78463 13.2177 8.72344 13.1871 8.72344C13.1566 8.72344 13.126 8.75403 13.126 8.81523C13.126 8.87642 13.0954 8.96821 13.0648 8.99881C13.0342 9.06 12.9424 9.1212 12.8812 9.15179C12.7894 9.21299 12.667 9.21299 12.514 9.24358C12.3916 9.24358 12.2387 9.24358 12.2081 9.24358L12.1163 9.21299C12.2081 8.90702 12.2998 8.50926 12.361 8.11151C12.514 7.37719 12.514 7.37719 12.5752 7.40778C12.6058 7.40778 12.8506 7.40778 13.126 7.37719C13.3707 7.34659 13.6767 7.31599 13.7379 7.2854C13.8297 7.2548 13.9521 7.22421 14.0439 7.16301C14.105 7.13242 14.2274 7.04062 14.2886 6.97943C14.3498 6.91824 14.4416 6.82645 14.4722 6.76525C14.5028 6.70406 14.5334 6.61227 14.5334 6.55108C14.5334 6.48989 14.5334 6.42869 14.5028 6.42869C14.4416 6.48989 14.4416 6.48989 14.3804 6.55108ZM4.74248 13.007C4.34472 13.4353 3.97756 13.8331 3.94697 13.8943L3.85518 14.0167C4.46711 14.598 4.83427 14.9346 5.04844 15.1487C5.29322 15.3629 5.4768 15.5159 5.50739 15.5159C5.50739 15.5159 5.53799 14.751 5.53799 13.8637C5.53799 12.854 5.53799 12.2421 5.50739 12.2421C5.4462 12.2421 5.10964 12.6092 4.74248 13.007ZM17.5013 13.8637C17.5013 14.751 17.5013 15.5159 17.5319 15.5159C17.5319 15.5159 17.6543 15.4547 17.7766 15.3323C17.899 15.2099 18.2662 14.8734 18.5722 14.5674C18.8781 14.2614 19.1535 14.0167 19.1229 13.9861C19.1229 13.9861 18.7557 13.5577 18.3274 13.0988C17.899 12.6092 17.5319 12.2115 17.5013 12.2115C17.5319 12.2421 17.5013 12.7928 17.5013 13.8637ZM12.3304 12.4562C12.2081 12.4868 11.9939 12.5786 11.8103 12.6704C11.6573 12.7622 11.3819 12.9152 11.2596 13.007C11.1066 13.1294 10.8312 13.3435 10.6476 13.5271C10.4641 13.7107 10.2193 13.9555 10.1275 14.0778C10.0357 14.2002 9.88271 14.445 9.79092 14.6286C9.69913 14.7816 9.57675 15.0569 9.54615 15.2405C9.48496 15.4241 9.42376 15.6689 9.39317 15.8219C9.36257 15.9748 9.36257 16.2196 9.36257 16.3726C9.36257 16.5256 9.39317 16.7092 9.39317 16.8315C9.42376 16.9539 9.48496 17.1375 9.54615 17.2599C9.60734 17.4129 9.72973 17.5659 9.82152 17.6883C9.91331 17.78 10.0663 17.933 10.1275 17.9636C10.2193 18.0248 10.3723 18.086 10.4946 18.1166C10.6476 18.1472 10.8006 18.1778 11.0148 18.1778C11.229 18.1778 11.3514 18.1778 11.5043 18.1166C11.5961 18.086 11.7797 17.9942 11.8715 17.9024C11.9939 17.8106 12.1163 17.6883 12.2692 17.5047C12.3916 17.3517 12.514 17.1681 12.5752 17.0763C12.6364 16.9845 12.667 16.8927 12.667 16.8315C12.667 16.8009 12.6364 16.7398 12.6364 16.7398C12.6058 16.7092 12.5752 16.7092 12.5446 16.7092C12.514 16.7092 12.4528 16.8009 12.361 16.9233C12.2998 17.0457 12.1163 17.2293 11.9939 17.3517C11.8103 17.5353 11.7185 17.5965 11.6267 17.6271C11.5349 17.6577 11.3819 17.6883 11.2902 17.6883C11.1984 17.6883 11.0454 17.6883 10.9536 17.6577C10.8618 17.6271 10.77 17.5965 10.6782 17.5047C10.617 17.4435 10.5252 17.3517 10.4946 17.2599C10.4641 17.1987 10.4029 17.0763 10.3723 16.9845C10.3417 16.8927 10.3111 16.7398 10.3111 16.648C10.3111 16.5256 10.3111 16.342 10.3417 16.189C10.3723 16.036 10.4029 15.8219 10.4335 15.6995C10.464 15.5771 10.5558 15.3323 10.617 15.1793C10.6782 15.0263 10.8006 14.751 10.8618 14.598C10.9536 14.4144 11.1066 14.1696 11.1984 14.0167C11.2902 13.8637 11.4431 13.6495 11.5655 13.5271C11.6879 13.4047 11.8715 13.2517 11.9633 13.1599C12.0857 13.0682 12.2693 12.9458 12.3916 12.8846C12.514 12.8234 12.6976 12.7622 12.82 12.7316C12.9424 12.701 13.0648 12.701 13.126 12.701C13.1872 12.701 13.2789 12.7622 13.3095 12.7928C13.3401 12.8234 13.4013 12.9152 13.4319 13.007C13.4625 13.0988 13.4625 13.1905 13.4625 13.3129C13.4625 13.4047 13.4319 13.5271 13.4319 13.5577C13.4319 13.6189 13.4319 13.6495 13.4625 13.6801C13.4931 13.7107 13.5237 13.7107 13.5543 13.7107C13.5849 13.7107 13.6155 13.6495 13.6461 13.5883C13.6767 13.5271 13.7073 13.4047 13.7073 13.2823C13.7073 13.1294 13.7073 13.0376 13.6461 12.9152C13.6155 12.8234 13.5543 12.701 13.4931 12.6398C13.4319 12.5786 13.3401 12.4868 13.2789 12.4562C13.1872 12.4256 13.0648 12.395 12.82 12.395C12.6058 12.395 12.4834 12.395 12.3304 12.4562Z" fill="#0060A9"/>
</svg>
