<svg width="48.77103805541992" height="60.03628921508789" viewBox="0 0 48.77103805541992 60.03628921508789" fill="none" xmlns="http://www.w3.org/2000/svg">
<path d="M23.5594 0C23.4982 0 23.3147 0.0305966 23.1311 0.0305966C22.9475 0.0611933 22.6109 0.0917899 22.3968 0.122387C22.1826 0.152983 21.7542 0.214176 21.4789 0.27537C21.2035 0.336563 20.7446 0.428353 20.4692 0.489546C20.1938 0.55074 19.7349 0.673126 19.4289 0.764916C19.1229 0.856706 18.6334 1.00969 18.2968 1.10148C17.9909 1.19327 17.4401 1.37685 17.073 1.49924C16.7058 1.62162 16.1551 1.8358 15.8185 1.95819C15.5431 2.14176 14.9924 2.35594 14.6864 2.47833C14.3804 2.60071 13.8603 2.84549 13.5237 2.96787C13.2178 3.12086 12.7894 3.30444 12.6058 3.39623C12.4223 3.48802 12.1163 3.641 11.9327 3.73279C11.7491 3.82458 11.2902 4.06935 10.8924 4.25293C10.5253 4.43651 9.97453 4.74248 9.69916 4.89546C9.42379 5.04845 8.96484 5.32382 8.65888 5.4768C8.38351 5.62978 7.86337 5.93575 7.5574 6.14992C7.22084 6.3641 6.70069 6.67007 6.39473 6.88424C6.08876 7.09842 5.62981 7.40439 5.35444 7.58797C5.07907 7.77155 4.74251 8.01632 4.55893 8.1693C4.37535 8.29169 4.03879 8.56706 3.79401 8.75064C3.54924 8.93422 3.21268 9.20959 3.0291 9.36257C2.84552 9.51556 2.50896 9.82152 2.23359 10.0969C1.98881 10.3417 1.68285 10.6476 1.56046 10.8006C1.40748 10.9842 1.28509 11.1678 1.1627 11.382C1.00972 11.6573 0.979123 11.8103 0.856737 12.1775C0.795544 12.4222 0.703754 12.8506 0.64256 13.0954C0.581367 13.3401 0.489577 13.8909 0.428384 14.258C0.367191 14.6252 0.275401 15.2371 0.214208 15.6349C0.183611 16.002 0.0918211 16.614 0.0612244 16.9505C0.0306278 17.2871 3.11807e-05 17.7155 3.11807e-05 17.8684C3.11807e-05 18.0214 -0.0305655 18.4192 -0.0611621 18.7251C-0.0611621 19.0311 -0.0917587 19.8572 -0.0917587 20.5609C-0.0917587 21.2647 -0.0917587 22.0908 -0.0611621 22.3967C-0.0305655 22.7027 -0.0305655 23.1005 3.11807e-05 23.2534C3.11807e-05 23.4064 0.0306278 23.7736 0.0612244 24.049C0.0918211 24.3243 0.122418 24.8751 0.183611 25.2422C0.214208 25.6094 0.305998 26.1601 0.336594 26.4967C0.397787 26.8333 0.458981 27.3228 0.520174 27.5982C0.581367 27.8735 0.673157 28.4549 0.764947 28.9138C0.856737 29.3422 0.979123 29.9847 1.07091 30.3213C1.1627 30.6578 1.28509 31.2392 1.40748 31.6063C1.49927 31.9735 1.68285 32.5854 1.80523 33.0138C1.92762 33.4421 2.1418 34.0235 2.23359 34.36C2.35597 34.6966 2.50896 35.1555 2.60075 35.4309C2.69254 35.6757 2.90671 36.1958 3.0291 36.5324C3.18208 36.8995 3.39626 37.4197 3.51864 37.7257C3.64103 38.0316 3.85521 38.46 3.97759 38.7353C4.09998 39.0107 4.34475 39.5309 4.55893 39.898C4.74251 40.2652 5.07907 40.8771 5.26265 41.2137C5.44623 41.5502 5.78279 42.1316 5.99697 42.4987C6.21115 42.8353 6.51711 43.3248 6.6701 43.5696C6.82308 43.8144 7.09845 44.2121 7.28203 44.4875C7.46561 44.7629 7.77158 45.2218 7.98575 45.4972C8.16933 45.7726 8.5059 46.2315 8.72007 46.4763C8.93425 46.7517 9.30141 47.2412 9.60737 47.5778C9.88274 47.9449 10.2805 48.4039 10.4947 48.6487C10.6783 48.8934 10.9842 49.1994 11.1372 49.383C11.2902 49.5666 11.6573 49.9337 11.9327 50.2397C12.2081 50.5457 12.8506 51.1882 13.3402 51.6777C13.8297 52.1673 14.4722 52.7792 14.717 53.024C14.9924 53.2687 15.3901 53.6359 15.6655 53.8501C15.9103 54.0643 16.3998 54.4926 16.7364 54.7374C17.073 55.0128 17.5319 55.3799 17.7461 55.5635C17.9909 55.7471 18.4804 56.1448 18.8782 56.4202C19.2759 56.7262 19.8267 57.1239 20.1326 57.3381C20.4386 57.5523 21.0199 57.95 21.4483 58.2254C21.8766 58.5008 22.4274 58.8679 22.7333 59.0821C23.0087 59.2657 23.4982 59.5717 23.8042 59.7246C24.202 59.9694 24.355 60.0612 24.3855 60.0306C24.4161 60 24.8139 59.7552 25.2729 59.4799C25.7318 59.1739 26.5273 58.6844 27.0169 58.3478C27.5064 58.0112 28.1489 57.5829 28.4549 57.3687C28.7609 57.1545 29.281 56.7568 29.6482 56.4814C30.0153 56.206 30.5355 55.8083 30.8108 55.5941C31.0862 55.3799 31.6064 54.9516 31.9735 54.6456C32.3407 54.3396 32.7996 53.9419 33.0138 53.7583C33.228 53.5747 33.5951 53.2382 33.8705 52.9934C34.1459 52.7486 34.8496 52.0449 35.4615 51.4636C36.0735 50.8516 36.7772 50.1479 37.022 49.8419C37.2667 49.5666 37.7257 49.0464 38.0011 48.7404C38.2764 48.4039 38.766 47.8531 39.0413 47.486C39.3473 47.1188 39.7451 46.5987 39.9592 46.3233C40.1734 46.0479 40.4794 45.6196 40.663 45.3442C40.8465 45.0689 41.1525 44.6405 41.3361 44.3651C41.5197 44.0898 41.8562 43.5696 42.0704 43.2331C42.2846 42.8965 42.5905 42.3763 42.7741 42.101C42.9271 41.8256 43.2025 41.3361 43.3861 40.9995C43.5696 40.6935 43.9062 40.0204 44.1816 39.5003C44.4263 38.9801 44.7935 38.2458 44.9771 37.848C45.1607 37.4503 45.436 36.7772 45.6196 36.3182C45.8032 35.8593 46.048 35.1861 46.201 34.819C46.3233 34.4518 46.5375 33.8399 46.6599 33.4727C46.7823 33.1056 46.9353 32.5854 47.0271 32.3101C47.1188 32.0347 47.2412 31.5145 47.3636 31.1474C47.4554 30.7802 47.5778 30.2601 47.639 29.9847C47.7002 29.7093 47.8226 29.2198 47.8838 28.9138C47.945 28.6079 48.0367 28.0571 48.0979 27.7206C48.1591 27.384 48.2509 26.8333 48.2815 26.4967C48.3121 26.1601 48.4039 25.5788 48.4345 25.2116C48.4651 24.8445 48.5263 24.2019 48.5569 23.7736C48.5875 23.3452 48.6181 22.6109 48.6487 22.1826C48.6793 21.693 48.6793 20.8975 48.6793 20.0714C48.6793 19.3677 48.6487 18.5416 48.6181 18.2968C48.5875 18.0214 48.5569 17.5013 48.5263 17.1341C48.4957 16.767 48.4345 16.1244 48.3733 15.7573C48.3121 15.3901 48.2509 14.8394 48.1897 14.5334C48.1285 14.2274 48.0368 13.7379 47.9756 13.4319C47.9144 13.126 47.792 12.6364 47.7308 12.361C47.639 11.9327 47.5778 11.8103 47.4248 11.5349C47.333 11.3208 47.18 11.1066 47.0577 10.9842C46.9659 10.8618 46.7211 10.617 46.5375 10.4335C46.3539 10.2499 46.048 9.94391 45.8032 9.72973C45.5584 9.51556 45.2219 9.24019 45.0077 9.05661C44.7935 8.87303 44.4875 8.62825 44.3346 8.50587C44.151 8.38348 43.8144 8.10811 43.5696 7.95513C43.3249 7.77155 42.8965 7.49618 42.6517 7.3126C42.407 7.12902 41.9786 6.85365 41.7338 6.70066C41.4585 6.54768 40.9995 6.24171 40.663 6.05813C40.357 5.87455 39.8369 5.56859 39.5615 5.41561C39.2861 5.26262 38.766 4.98725 38.4294 4.80367C38.0928 4.62009 37.4197 4.28353 36.9302 4.03876C36.4406 3.79398 35.7063 3.42682 35.278 3.24324C34.8802 3.05966 34.2989 2.81489 34.0235 2.6925C33.7481 2.57012 33.2586 2.35594 32.922 2.23355C32.616 2.11117 32.0959 1.92759 31.7899 1.8052C31.484 1.68282 30.9332 1.49924 30.5967 1.40745C30.2601 1.28506 29.74 1.13208 29.4952 1.07088C29.2198 1.00969 28.7609 0.856706 28.4549 0.795513C28.1489 0.703723 27.6288 0.611933 27.3228 0.55074C27.0169 0.489546 26.5885 0.397756 26.3743 0.36716C26.1602 0.336563 25.8236 0.27537 25.6094 0.27537C25.3646 0.244773 24.9363 0.214176 24.3855 0.214176C24.049 0 23.6206 0 23.5594 0Z" fill="#0060A9"/>
</svg>
