<svg width="34.237632751464844" height="13.431924819946289" viewBox="0 0 34.237632751464844 13.431924819946289" fill="none" xmlns="http://www.w3.org/2000/svg">
<path d="M16.767 0.152983C16.6752 0.152983 16.4304 0.183579 16.2162 0.183579C16.002 0.214176 15.6349 0.244773 15.3901 0.27537C15.1453 0.305966 14.717 0.36716 14.4722 0.428353C14.2274 0.489546 13.7685 0.581336 13.4625 0.673126C13.1566 0.734319 12.6364 0.887302 12.2998 0.979092C11.9939 1.07088 11.4737 1.22387 11.1984 1.31566C10.923 1.40745 10.464 1.56043 10.2193 1.65222C9.9745 1.74401 9.48496 1.92759 9.17899 2.04997C8.87302 2.17236 8.35288 2.38654 8.07751 2.50892C7.80214 2.63131 7.19021 2.90668 6.76186 3.12086C6.3335 3.33503 5.72157 3.641 5.4156 3.79398C5.10964 3.94697 4.62009 4.22234 4.34472 4.40592C4.06935 4.5895 3.641 4.83427 3.42682 4.98725C3.18205 5.14024 2.84549 5.38501 2.63131 5.53799C2.41713 5.69097 2.11117 5.93575 1.95818 6.05813C1.8052 6.18052 1.46864 6.48649 1.22387 6.70066C0.979092 6.91484 0.734319 7.19021 0.642529 7.3126C0.55074 7.43498 0.458949 7.61856 0.397756 7.71035C0.367159 7.80214 0.305966 8.01632 0.27537 8.13871C0.244773 8.29169 0.18358 8.53646 0.152983 8.72004C0.122387 8.90362 0.0917897 9.14839 0.0917897 9.30138C0.0917897 9.45436 0.0611934 9.72973 0.0305968 9.91331C0.0305968 10.0969 0 10.8312 0 11.5349C0 12.2387 1.16261e-07 12.8812 0.0305968 12.9424C0.0305968 13.0036 0.0611935 13.1566 0.0611935 13.2483V13.4319H34.1764C34.207 13.0036 34.2376 12.4222 34.2376 11.8409C34.2376 11.1678 34.2376 10.5558 34.207 10.1581C34.1764 9.79093 34.1458 9.36257 34.1458 9.14839C34.1152 8.93422 34.0847 8.62825 34.0541 8.44467C34.0235 8.26109 33.9623 8.01632 33.9317 7.89393C33.9011 7.77155 33.8399 7.61856 33.7787 7.52677C33.7481 7.46558 33.5951 7.2514 33.4421 7.06782C33.2891 6.88424 33.0444 6.63947 32.922 6.51708C32.769 6.3947 32.5548 6.21112 32.4324 6.08873C32.31 5.99694 32.0347 5.75217 31.8205 5.59918C31.6063 5.4462 31.178 5.14024 30.9332 4.98725C30.6578 4.80367 30.1989 4.5283 29.9235 4.34472C29.6481 4.19174 29.2198 3.94697 28.975 3.79398C28.7302 3.6716 28.1795 3.36563 27.7206 3.15145C27.2616 2.93728 26.6497 2.63131 26.3131 2.47833C26.0071 2.32534 25.5788 2.17236 25.3952 2.08057C25.181 1.98878 24.7527 1.8358 24.4161 1.68282C24.0796 1.56043 23.4676 1.34625 23.1005 1.19327C22.7333 1.07088 22.2132 0.887302 21.9684 0.826109C21.7236 0.764916 21.3259 0.642529 21.1117 0.581336C20.8669 0.520143 20.4691 0.428353 20.2244 0.367159C19.9796 0.305966 19.5207 0.214176 19.2453 0.183579C18.9699 0.152983 18.5416 0.0611929 18.2968 0.0611929C18.052 0.0305963 17.6543 0 17.4095 0C17.1647 0 16.8587 0.152983 16.767 0.152983Z" fill="#0060A9"/>
</svg>
