<svg width="3.885772705078125" height="1.8663959503173828" viewBox="0 0 3.885772705078125 1.8663959503173828" fill="none" xmlns="http://www.w3.org/2000/svg">
<path d="M0.367161 0.0917897C0.336564 0.152983 0.244775 0.27537 0.183582 0.397756C0.122388 0.520143 0.0611951 0.703723 0.0305985 0.82611C1.86701e-06 0.948496 0 1.04029 0 1.04029C0 1.04029 0.0305976 1.07088 0.0917908 1.07088C0.152984 1.10148 0.183582 1.04029 0.336565 0.856706L0.520144 0.64253C0.550741 0.214177 0.55074 0.0917902 0.55074 0.0611935C0.55074 0.0611935 0.520143 0.0305966 0.458949 0C0.458949 0 0.428354 0.0305964 0.367161 0.0917897ZM3.48802 0.214177C3.42682 0.244773 3.39623 0.244773 3.39623 0.520143L3.36563 0.795513C3.641 1.25446 3.70219 1.31566 3.73279 1.31566C3.76339 1.31566 3.82458 1.31566 3.82458 1.31566C3.85517 1.31566 3.88577 1.25446 3.88577 1.19327C3.88577 1.13208 3.85517 0.979092 3.82458 0.856706C3.79398 0.734319 3.73279 0.520143 3.6716 0.397756C3.6104 0.27537 3.54921 0.183581 3.54921 0.183581C3.57981 0.183581 3.54921 0.18358 3.48802 0.214177ZM1.65222 0.764916C1.49924 0.887303 1.34625 0.979093 1.31566 0.979093C1.31566 0.979093 1.34625 1.13208 1.37685 1.34625C1.43804 1.52983 1.46864 1.71341 1.46864 1.77461L1.49924 1.8664H2.35594C2.53952 1.19327 2.60071 1.00969 2.60071 1.00969C2.60071 1.00969 2.47833 0.9179 2.32535 0.82611C2.17236 0.73432 2.01938 0.64253 1.98878 0.611933C1.95818 0.55074 1.8358 0.642529 1.65222 0.764916Z" fill="#FFE003"/>
</svg>
