<svg width="3.132905960083008" height="0.8462104797363281" viewBox="0 0 3.132905960083008 0.8462104797363281" fill="none" xmlns="http://www.w3.org/2000/svg">
<path d="M0.0426481 0.0917901C-0.0185451 0.152984 -0.0185456 0.152984 0.0732443 0.244774C0.134438 0.305968 0.226228 0.397758 0.348614 0.489548C0.440404 0.550741 0.593387 0.673129 0.685177 0.703726C0.776966 0.764919 0.868758 0.795516 0.899354 0.795516C0.929951 0.795516 0.960546 0.76492 0.991143 0.734323C1.02174 0.673129 0.991143 0.642532 0.83816 0.458952C0.685177 0.275371 0.623985 0.214178 0.440405 0.122388C0.318019 0.061194 0.195632 0 0.165035 0C0.103842 0.0305968 0.0732447 0.0611933 0.0426481 0.0917901ZM2.73515 0.152984C2.49038 0.244774 2.45978 0.275371 2.3068 0.489548C2.15382 0.703725 2.12322 0.703725 2.18441 0.795516C2.21501 0.856709 2.21501 0.85671 2.33739 0.826113C2.39859 0.795516 2.52097 0.734323 2.61276 0.673129C2.70455 0.611936 2.85754 0.520146 2.94933 0.428355C3.04112 0.336565 3.13291 0.244774 3.13291 0.214178C3.13291 0.183581 3.13291 0.122387 3.10231 0.0917901C3.07171 0.0611933 3.04112 0.030597 3.04112 0.0611938C2.97992 0.030597 2.85754 0.0917903 2.73515 0.152984Z" fill="#FFE003"/>
</svg>
