<svg width="45.28301239013672" height="56.30736541748047" viewBox="0 0 45.28301239013672 56.30736541748047" fill="none" xmlns="http://www.w3.org/2000/svg">
<path d="M22.152 0C22.0602 0 21.846 0.0305966 21.6318 0.0305966C21.4482 0.0611932 21.1117 0.0917899 20.8975 0.122387C20.6833 0.152983 20.3162 0.214176 20.0408 0.27537C19.796 0.336563 19.3677 0.428353 19.1229 0.489546C18.8781 0.550739 18.4498 0.642529 18.1744 0.734319C17.899 0.826109 17.4707 0.948496 17.2259 1.00969C16.9505 1.10148 16.4916 1.25446 16.1856 1.34625C15.8797 1.43804 15.3901 1.62162 15.1147 1.71341C14.8394 1.8052 14.3498 2.01938 14.0439 2.14176C13.7379 2.26415 13.1871 2.50892 12.82 2.66191C12.4834 2.81489 11.9327 3.05966 11.6267 3.21265C11.3208 3.36563 10.7088 3.641 10.2499 3.88577C9.79092 4.09995 9.20959 4.43651 8.90362 4.58949C8.62825 4.74248 8.10811 5.01785 7.80214 5.20143C7.49617 5.38501 6.94543 5.72157 6.57828 5.93575C6.24171 6.14992 5.69097 6.48649 5.4156 6.67007C5.10964 6.85365 4.65069 7.19021 4.34472 7.40438C4.06935 7.61856 3.6716 7.89393 3.45742 8.04691C3.27384 8.1999 2.96787 8.44467 2.81489 8.56706C2.66191 8.68944 2.35594 8.96481 2.17236 9.1178C1.95818 9.30138 1.68281 9.57675 1.56043 9.72973C1.43804 9.91331 1.25446 10.0969 1.16267 10.2193L1.00969 10.4029C0.795512 11.1984 0.703722 11.6267 0.642529 11.9021C0.581336 12.1775 0.489546 12.6058 0.458949 12.9118C0.428353 13.2177 0.336563 13.6155 0.305966 13.8603C0.244773 14.0745 0.214176 14.5028 0.18358 14.8088C0.152983 15.1147 0.122387 15.6043 0.0917899 15.9102C0.0611933 16.2162 0.0305966 16.7976 0.0305966 17.2259C-2.96351e-08 17.6849 0 18.4804 0 19.3371C0 20.0714 0.0305967 20.9893 0.0611933 21.3564C0.09179 21.7236 0.122387 22.152 0.122387 22.3355C0.122387 22.5191 0.18358 22.9169 0.214176 23.1922C0.244773 23.4982 0.305966 23.9266 0.336563 24.1713C0.336563 24.4161 0.428353 24.9057 0.489546 25.2422C0.550739 25.5788 0.642529 26.1295 0.703723 26.4661C0.764916 26.8026 0.887302 27.3228 0.948495 27.6594C1.00969 27.9653 1.16267 28.5161 1.22387 28.8526C1.31566 29.1892 1.46864 29.7705 1.56043 30.1377C1.65222 30.5048 1.86639 31.178 2.01938 31.6063C2.17236 32.0653 2.41713 32.7384 2.57012 33.1362C2.7231 33.5339 2.96787 34.1152 3.09026 34.4518C3.24324 34.7884 3.42682 35.2473 3.51861 35.4615C3.6104 35.6757 3.85518 36.1958 4.06935 36.6242C4.28353 37.0219 4.5589 37.6339 4.74248 37.9398C4.89546 38.2458 5.17083 38.7353 5.32381 39.0107C5.4768 39.2861 5.75217 39.7756 5.93575 40.051C6.11933 40.357 6.48649 40.9383 6.76186 41.3666C7.03722 41.795 7.43498 42.3763 7.67975 42.7129C7.92453 43.0189 8.23049 43.4778 8.41407 43.7226C8.59765 43.9674 8.93421 44.3957 9.17899 44.7017C9.42376 45.0076 9.82152 45.4972 10.0969 45.8032C10.3417 46.1091 10.6782 46.4763 10.8312 46.6293C10.9842 46.7822 11.3513 47.18 11.6573 47.5166C11.9633 47.8531 12.514 48.4039 12.8812 48.7404C13.2483 49.077 13.7685 49.5971 14.0439 49.8419C14.3192 50.1173 14.7782 50.515 15.0229 50.7292C15.2677 50.9434 15.7267 51.3411 16.002 51.5859C16.2774 51.8307 16.6752 52.1367 16.8893 52.3202C17.0729 52.4732 17.5013 52.8098 17.8072 53.024C18.1132 53.2687 18.5416 53.5747 18.7863 53.7583C19.0311 53.9419 19.4595 54.2478 19.7654 54.462C20.0714 54.6762 20.5915 55.0433 20.9587 55.2881C21.3258 55.5329 21.846 55.8694 22.1214 56.0224C22.5497 56.2978 22.6109 56.3284 22.6721 56.2978C22.7027 56.2672 23.0699 56.053 23.437 55.8083C23.8348 55.5635 24.4773 55.1045 24.9057 54.8292C25.334 54.5232 25.9459 54.1254 26.2519 53.8807C26.5579 53.6665 27.078 53.2687 27.4146 53.024C27.7511 52.7792 28.2713 52.3508 28.5773 52.1061C28.8832 51.8613 29.434 51.4023 29.7705 51.127C30.1071 50.821 30.6272 50.3927 30.9026 50.1479C31.178 49.9031 31.6675 49.4136 32.0041 49.1076C32.3406 48.8016 32.8608 48.2815 33.1667 47.9449C33.4727 47.639 33.9317 47.1494 34.1764 46.874C34.4212 46.6293 34.7578 46.2315 34.9719 45.9867C35.1555 45.7726 35.4921 45.4054 35.6757 45.1606C35.8592 44.9159 36.2264 44.4875 36.4712 44.1815C36.716 43.8756 37.0831 43.386 37.3279 43.0801C37.5421 42.7741 37.8786 42.3151 38.0316 42.101C38.1846 41.8562 38.4906 41.3972 38.7047 41.0607C38.9189 40.7241 39.2555 40.204 39.4391 39.898C39.6226 39.592 39.898 39.1331 40.051 38.8577C40.204 38.5824 40.4793 38.0622 40.6629 37.6951C40.8465 37.3279 41.1525 36.7466 41.3055 36.3794C41.4584 36.0122 41.6726 35.5839 41.7644 35.3697C41.8562 35.1555 42.0398 34.7272 42.1927 34.3906C42.3151 34.0541 42.5599 33.5033 42.6823 33.1362C42.8047 32.7996 43.0189 32.2183 43.1412 31.8511C43.2636 31.5145 43.4166 30.9638 43.539 30.6578C43.6308 30.3519 43.7532 29.8929 43.8144 29.6787C43.8756 29.434 43.9674 29.0974 44.0285 28.9138C44.0897 28.7302 44.1815 28.2713 44.2733 27.8735C44.3651 27.5064 44.4875 26.8944 44.5487 26.5273C44.6099 26.1601 44.7323 25.5788 44.7935 25.2116C44.8547 24.8445 44.9159 24.2937 44.977 23.9878C45.0076 23.6818 45.0688 23.1616 45.0994 22.8251C45.13 22.4885 45.1912 21.9684 45.1912 21.6318C45.2218 21.2953 45.2524 20.7139 45.2524 20.3162C45.283 19.949 45.283 19.2453 45.283 18.7863C45.283 18.3274 45.283 17.6543 45.2524 17.3177C45.2218 16.9505 45.2218 16.461 45.1912 16.2162C45.1606 15.9714 45.13 15.5125 45.0994 15.1759C45.0688 14.8394 45.0076 14.3192 44.977 14.0133C44.9464 13.7073 44.8547 13.2483 44.8241 13.0036C44.7935 12.7588 44.7017 12.3304 44.6405 12.0551C44.5793 11.7797 44.4875 11.3208 44.3957 11.0454C44.3345 10.77 44.2427 10.4946 44.2427 10.4335C44.2121 10.3723 44.0591 10.1887 43.8756 9.9745C43.692 9.76033 43.3554 9.42376 43.1106 9.20959C42.8659 8.99541 42.5293 8.68944 42.3151 8.53646C42.101 8.38348 41.7338 8.07751 41.489 7.89393C41.2443 7.71035 40.8465 7.43498 40.6323 7.282C40.4181 7.12901 40.051 6.88424 39.8368 6.73126C39.6226 6.57828 39.2249 6.3335 38.9495 6.14992C38.6741 5.96634 38.2152 5.69097 37.9092 5.50739C37.6033 5.32381 37.2055 5.10964 37.0219 4.98725C36.8383 4.86486 36.41 4.65069 36.1346 4.4977C35.8592 4.34472 35.2167 4.00816 34.6966 3.76339C34.207 3.51861 33.5033 3.18205 33.1667 3.02907C32.7996 2.87608 32.2794 2.63131 31.9429 2.47833C31.6369 2.32534 31.1168 2.14176 30.8108 2.01938C30.5048 1.89699 29.9847 1.71341 29.6481 1.59102C29.3116 1.46864 28.7302 1.25446 28.3325 1.13208C27.9347 1.00969 27.4146 0.826109 27.1392 0.764916C26.8944 0.703723 26.4355 0.581336 26.1601 0.520143C25.8847 0.45895 25.4258 0.336563 25.1504 0.27537C24.8751 0.214176 24.5079 0.152983 24.3549 0.122387C24.2937 0.122387 23.9878 0.09179 23.7736 0.0611934C23.5594 0.0305967 23.1311 0.0305966 22.8557 0C22.5497 0 22.2437 0 22.152 0Z" fill="#FFE003"/>
</svg>
