<svg width="3.090259552001953" height="1.591024398803711" viewBox="0 0 3.090259552001953 1.591024398803711" fill="none" xmlns="http://www.w3.org/2000/svg">
<path d="M0.642529 0.0917896C0.550739 0.122386 0.428352 0.214176 0.367159 0.244773C0.305965 0.305966 0.183578 0.397757 0.122385 0.428353C0.0611914 0.489546 0 0.550739 0 0.550739C0 0.550739 0.0305952 0.581336 0.0917885 0.581336L0.183579 0.611932C0.122386 1.19327 0.152983 1.25446 0.183579 1.25446C0.214176 1.25446 0.336563 1.31566 0.489546 1.40745L0.764916 1.52983L1.43804 1.10148L1.40744 0.36716C1.22386 0.305966 1.10148 0.275369 1.00969 0.244773C0.856704 0.214176 0.856704 0.183579 0.856704 0.0917896C0.856704 0.0305964 0.856705 0 0.826108 0C0.795512 0 0.734319 0.0305964 0.642529 0.0917896ZM2.11117 0.0917896C2.11117 0.183579 2.08057 0.183579 1.92759 0.244773C1.8358 0.275369 1.71341 0.305967 1.65222 0.336564L1.52983 0.36716C1.52983 0.917899 1.52983 1.07088 1.52983 1.10148C1.52983 1.13208 1.71341 1.22387 1.89699 1.34625L2.23355 1.59102L2.84549 1.40745C2.84549 1.04029 2.87608 0.917899 2.87608 0.887302C2.87608 0.856706 2.93728 0.795512 2.99847 0.764915L3.09026 0.734319C2.90668 0.489546 2.7537 0.367159 2.66191 0.305966C2.57012 0.244773 2.44773 0.152984 2.38654 0.122387C2.32534 0.0917903 2.23355 0.0611939 2.20296 0.0305973C2.11117 6.99845e-07 2.11117 0.0305964 2.11117 0.0917896Z" fill="white"/>
</svg>
