<svg width="7.006628036499023" height="6.394696235656738" viewBox="0 0 7.006628036499023 6.394696235656738" fill="none" xmlns="http://www.w3.org/2000/svg">
<path d="M1.19327 0.244774L0.73432 0.458949C0.152984 1.04029 0 1.22387 0 1.22387C0 1.22387 0.244773 1.13208 0.489546 1.00969L0.948495 0.795513C1.49923 0.18358 1.68281 0.0305966 1.68281 0C1.68281 0 1.68281 0 1.65222 0C1.65222 0.0305966 1.43804 0.122387 1.19327 0.244774ZM5.38501 0.0611935C5.38501 0.0611935 5.53799 0.244773 5.75217 0.458949L6.11933 0.856707C6.79245 1.16267 7.00663 1.25446 7.00663 1.25446C7.00663 1.25446 6.88424 1.07088 6.70066 0.887303L6.3641 0.520143C5.62978 0.152983 5.4156 0.0611935 5.38501 0.0611935ZM2.99847 2.35594C2.90668 2.38654 2.7537 2.41713 2.6925 2.47833C2.63131 2.50892 2.47833 2.57012 2.41713 2.63131C2.32534 2.6925 2.23355 2.78429 2.17236 2.81489C2.11117 2.84549 2.01938 2.96787 1.92759 3.05966C1.8358 3.15145 1.74401 3.33503 1.68281 3.42682C1.62162 3.54921 1.56043 3.70219 1.52983 3.82458C1.49923 3.94697 1.46864 4.13055 1.46864 4.31413C1.46864 4.5283 1.46864 4.68128 1.52983 4.86486C1.56043 4.98725 1.65222 5.17083 1.68281 5.29322C1.71341 5.4156 1.86639 5.56859 1.95818 5.69097C2.04997 5.81336 2.20296 5.93575 2.26415 5.99694C2.32534 6.05813 2.47833 6.14992 2.60071 6.18052C2.7231 6.24171 2.90668 6.30291 2.99847 6.3335C3.12086 6.3641 3.33503 6.3947 3.48802 6.3947C3.641 6.3947 3.85517 6.3641 3.97756 6.3335C4.09995 6.30291 4.28353 6.24171 4.43651 6.18052C4.65069 6.08873 4.74248 6.02754 4.95665 5.81336C5.17083 5.59918 5.23202 5.50739 5.35441 5.29322C5.4156 5.17083 5.50739 4.95666 5.53799 4.86486C5.56859 4.74248 5.59918 4.5589 5.59918 4.37532C5.59918 4.19174 5.56859 4.00816 5.53799 3.88577C5.50739 3.79398 5.4462 3.57981 5.35441 3.45742C5.26262 3.27384 5.20143 3.15145 4.98725 2.93728C4.77307 2.7231 4.68128 2.66191 4.46711 2.57012C4.31412 2.50892 4.13055 2.44773 4.03876 2.41713C3.91637 2.38654 3.73279 2.38654 3.51861 2.38654C3.30444 2.32535 3.12086 2.32534 2.99847 2.35594Z" fill="#0060A9"/>
</svg>
