<svg width="1.6828155517578125" height="1.2238597869873047" viewBox="0 0 1.6828155517578125 1.2238597869873047" fill="none" xmlns="http://www.w3.org/2000/svg">
<path d="M0.183579 0.244772C0.0917895 0.397754 0 0.520141 0 0.520141C0 0.520141 0.0917895 0.642526 0.183579 0.764912C0.367159 0.979088 0.367159 0.979088 0.336563 1.04028C0.305966 1.07088 0.305966 1.10147 0.305966 1.13207C0.305966 1.16267 0.36716 1.19326 0.45895 1.19326C0.55074 1.22386 0.734318 1.22386 0.887301 1.22386C1.04028 1.22386 1.22386 1.22386 1.31565 1.19326L1.46864 1.16267C1.40744 1.04028 1.37685 1.00968 1.37685 1.00968C1.37685 1.00968 1.43804 0.887298 1.52983 0.764912C1.62162 0.642526 1.68282 0.520141 1.68282 0.520141C1.68282 0.489544 1.59102 0.367158 1.46864 0.244772L1.25446 0H0.397755L0.183579 0.244772Z" fill="white"/>
</svg>
