<svg width="29.005611419677734" height="12.422237396240234" viewBox="0 0 29.005611419677734 12.422237396240234" fill="none" xmlns="http://www.w3.org/2000/svg">
<path d="M7.46558 1.07088C6.94544 1.65222 5.4156 3.33503 4.06935 4.80367C2.7537 6.27231 1.28506 7.86334 0.826109 8.38348C0.36716 8.87302 0 9.30138 0 9.33198C0 9.36257 0.214176 9.82152 0.489546 10.3417C0.764915 10.8924 1.13208 11.5655 1.28506 11.8715C1.46864 12.1775 1.59102 12.4222 1.62162 12.4222C1.62162 12.4222 2.08057 11.9633 2.60071 11.4125C3.12086 10.8312 4.43651 9.39317 5.50739 8.1999C6.57828 7.00663 7.71035 5.78276 7.98572 5.4768L8.50586 4.92606C8.50586 0.887302 8.50587 0.0611924 8.47527 0.0611924C8.44467 -9.34647e-07 8.01632 0.489546 7.46558 1.07088ZM20.4997 2.44773V4.89546C21.7848 6.30291 22.9169 7.55737 23.8348 8.56706C24.7527 9.57675 25.9459 10.8618 26.4355 11.4125C27.1392 12.1775 27.3534 12.4222 27.384 12.3916C27.4146 12.361 27.5676 12.1163 27.7511 11.7797C27.9347 11.4737 28.2101 10.9536 28.3631 10.617C28.5161 10.2805 28.7302 9.85212 28.822 9.63794L29.0056 9.27078C28.8526 9.1178 28.3631 8.56706 27.8123 7.98572C27.2616 7.37379 26.2519 6.24171 25.5176 5.4768C24.8139 4.68128 23.3758 3.12086 22.3661 2.01938C21.3565 0.917899 20.5303 0 20.4997 0C20.5303 0 20.4997 0.826109 20.4997 2.44773Z" fill="#0060A9"/>
</svg>
