<svg width="9.056610107421875" height="8.903619766235352" viewBox="0 0 9.056610107421875 8.903619766235352" fill="none" xmlns="http://www.w3.org/2000/svg">
<path d="M3.61041 0.0917897C3.54921 0.122386 3.45742 0.152983 3.39623 0.214177C3.30444 0.27537 3.24325 0.36716 3.15146 0.520143C3.05967 0.673126 2.93728 0.826109 2.7843 0.948495C2.66191 1.07088 2.41714 1.25446 2.20296 1.40744C1.98878 1.56043 1.71341 1.71341 1.59103 1.8052C1.43804 1.86639 1.25446 1.95818 1.13208 1.98878C1.00969 2.01938 0.856706 2.08057 0.764916 2.11117C0.673126 2.17236 0.581337 2.26415 0.550741 2.32534C0.520144 2.38654 0.45895 2.50892 0.428354 2.60071C0.428354 2.6925 0.428354 2.78429 0.428354 2.87608C0.428354 2.93728 0.458949 3.02907 0.489546 3.05966C0.520143 3.09026 0.550741 3.12086 0.550741 3.12086C0.550741 3.12086 0.642531 3.18205 0.703724 3.24324C0.795514 3.33503 0.887303 3.36563 1.10148 3.45742C1.25446 3.51861 1.46864 3.54921 1.59103 3.57981C1.74401 3.6104 1.8358 3.6104 1.98878 3.57981C2.17236 3.54921 2.20296 3.54921 2.29475 3.57981C2.35594 3.6104 2.41714 3.6716 2.47833 3.70219C2.50893 3.76339 2.53952 3.82458 2.53952 3.88577C2.53952 3.94697 2.50893 4.03875 2.47833 4.06935C2.44773 4.13055 2.35594 4.16114 2.32535 4.16114C2.26415 4.16114 2.20296 4.16114 2.14177 4.16114C2.08057 4.16114 1.95819 4.06935 1.8664 3.97756C1.74401 3.85518 1.59103 3.76339 1.46864 3.70219C1.34625 3.641 1.16267 3.57981 1.00969 3.54921C0.795514 3.48802 0.734321 3.48802 0.550741 3.48802C0.397758 3.51861 0.305968 3.51861 0.244774 3.57981C0.183581 3.6104 0.122388 3.70219 0.0611947 3.79398C1.39969e-06 3.91637 0 3.97756 0 4.16114C0 4.31412 1.39969e-06 4.40592 0.0611947 4.4977C0.0917914 4.5589 0.18358 4.68128 0.27537 4.77307C0.36716 4.89546 0.489547 5.04844 0.550741 5.23202C0.611934 5.38501 0.734319 5.69097 0.795513 5.90515C0.856706 6.11933 0.948496 6.3947 0.948496 6.51708C0.979093 6.70066 0.979094 6.82305 0.979094 7.06782C0.948498 7.282 0.979094 7.40438 1.00969 7.52677C1.04029 7.61856 1.10148 7.74095 1.16267 7.80214C1.22387 7.86333 1.34625 7.95512 1.40745 7.98572C1.49924 8.01632 1.59103 8.04691 1.65222 8.04691C1.71341 8.04691 1.8052 8.01632 1.8358 7.98572C1.8664 7.95512 1.95819 7.89393 2.01938 7.86333C2.11117 7.80214 2.20296 7.74095 2.29475 7.58796C2.38654 7.46558 2.50893 7.2514 2.57012 7.12901C2.63131 6.97603 2.69251 6.82305 2.7231 6.70066C2.7537 6.54768 2.7537 6.48649 2.84549 6.42529C2.93728 6.3641 2.96788 6.3335 3.05967 6.3335C3.12086 6.3335 3.21265 6.3335 3.24325 6.3641C3.27384 6.3947 3.30444 6.42529 3.33504 6.48649C3.36563 6.54768 3.36563 6.60887 3.36563 6.63947C3.36563 6.67007 3.33504 6.76186 3.30444 6.82305C3.27384 6.88424 3.18205 6.94543 3.05967 7.00663C2.96788 7.06782 2.81489 7.15961 2.69251 7.282C2.60072 7.37379 2.44773 7.55737 2.35594 7.67975C2.26415 7.80214 2.20296 7.92453 2.20296 7.98572C2.20296 8.01632 2.17236 8.10811 2.17236 8.1387C2.14177 8.1999 2.14177 8.26109 2.17236 8.35288C2.17236 8.41407 2.23356 8.53646 2.26415 8.59765C2.32535 8.65885 2.41714 8.75064 2.50893 8.78123C2.63131 8.84243 2.69251 8.87302 2.87609 8.87302C3.02907 8.87302 3.12086 8.84243 3.27384 8.78123C3.36563 8.72004 3.54921 8.68944 3.641 8.65885C3.76339 8.62825 4.03876 8.62825 4.52831 8.62825C5.10964 8.62825 5.29322 8.62825 5.44621 8.68944C5.56859 8.72004 5.72158 8.78123 5.78277 8.81183C5.87456 8.84243 5.99695 8.90362 6.05814 8.90362C6.11933 8.90362 6.24172 8.90362 6.33351 8.87302C6.4253 8.84243 6.54769 8.78123 6.63948 8.68944C6.73127 8.62825 6.79246 8.50586 6.82306 8.44467C6.85365 8.35288 6.85365 8.29169 6.85365 8.1693C6.85365 8.07751 6.82306 7.98572 6.79246 7.89393C6.76186 7.83274 6.67007 7.71035 6.60888 7.61856C6.54768 7.52677 6.3947 7.37379 6.30291 7.2514C6.18052 7.12902 6.08874 7.03723 5.93575 6.97603C5.84396 6.91484 5.72157 6.85365 5.69098 6.82305C5.66038 6.79245 5.62979 6.70066 5.62979 6.67007C5.62979 6.60887 5.62979 6.54768 5.66038 6.45589C5.69098 6.3641 5.75217 6.3335 5.84396 6.30291C5.93575 6.27231 5.96635 6.27231 6.05814 6.30291C6.11933 6.3335 6.18053 6.3947 6.21112 6.45589C6.24172 6.51708 6.27232 6.60887 6.27232 6.70066C6.27232 6.79245 6.33351 6.94544 6.3947 7.06782C6.4559 7.19021 6.57828 7.37379 6.67007 7.49617C6.76186 7.61856 6.85365 7.77154 6.91484 7.80214C6.94544 7.83274 7.06783 7.89393 7.12902 7.92453C7.22081 7.95512 7.3126 7.98572 7.37379 7.98572C7.43499 7.98572 7.52678 7.95512 7.58797 7.92453C7.64917 7.89393 7.74095 7.83274 7.80215 7.77154C7.86334 7.74095 7.92453 7.61856 7.98573 7.52677C8.04692 7.40438 8.04692 7.37379 8.04692 7.00663C8.04692 6.73126 8.04692 6.54768 8.07752 6.3947C8.10812 6.27231 8.16931 5.99694 8.2611 5.78276C8.32229 5.56859 8.44468 5.26262 8.53647 5.10964C8.62826 4.92606 8.72005 4.77307 8.81184 4.68128C8.87303 4.62009 8.96482 4.4977 8.99542 4.43651C9.02601 4.37532 9.05661 4.25293 9.05661 4.19174C9.05661 4.13055 9.05661 4.00816 9.02601 3.91637C8.99542 3.82458 8.96482 3.70219 8.90363 3.641C8.84243 3.57981 8.78124 3.48802 8.68945 3.45742C8.59766 3.42682 8.50587 3.39623 8.38348 3.39623C8.2611 3.39623 8.13871 3.42682 7.98573 3.45742C7.86334 3.48802 7.64916 3.57981 7.52678 3.641C7.37379 3.70219 7.25141 3.79398 7.15962 3.88577C7.06783 3.97756 6.97604 4.03875 6.91484 4.06935C6.82305 4.09995 6.76186 4.09995 6.70067 4.06935C6.63948 4.06935 6.57828 4.00816 6.54769 3.94696C6.51709 3.88577 6.48649 3.82458 6.48649 3.73279C6.48649 3.641 6.51709 3.57981 6.57828 3.51861C6.63947 3.45742 6.70067 3.42682 6.76186 3.42682C6.82305 3.42682 6.91485 3.42682 7.00664 3.45742C7.09843 3.48802 7.22081 3.48802 7.3126 3.48802C7.40439 3.48802 7.58797 3.42682 7.74096 3.39623C7.89394 3.36563 8.10812 3.27384 8.19991 3.24324C8.2917 3.18205 8.41408 3.12086 8.44468 3.05966C8.50587 2.99847 8.53647 2.90668 8.56706 2.87608C8.56706 2.84549 8.59766 2.7537 8.59766 2.66191C8.59766 2.60071 8.59766 2.47833 8.56706 2.41713C8.53647 2.35594 8.50587 2.26415 8.44468 2.20296C8.41408 2.14176 8.2917 2.04997 8.19991 2.01938C8.10812 1.95818 7.95513 1.92759 7.86334 1.89699C7.77155 1.89699 7.58797 1.8052 7.43499 1.74401C7.28201 1.68281 7.00664 1.49923 6.82306 1.34625C6.60888 1.19327 6.36411 1.00969 6.24172 0.887302C6.11933 0.764915 5.99695 0.611932 5.90516 0.489546C5.84396 0.367159 5.75217 0.244773 5.69098 0.214177C5.62978 0.152983 5.538 0.0917901 5.4768 0.0611935C5.38501 0.0305969 5.29322 0 5.14024 0C4.92606 0 4.89547 2.32522e-07 4.80368 0.0611935C4.74248 0.0917901 4.65069 0.18358 4.62009 0.244773C4.5895 0.305966 4.52831 0.428353 4.49771 0.520143C4.46711 0.611933 4.46711 0.826108 4.49771 1.04028C4.49771 1.22386 4.52831 1.46864 4.5589 1.56043C4.5895 1.65222 4.65069 1.7746 4.68129 1.8358C4.74248 1.92759 4.74248 1.98878 4.74248 2.11117C4.74248 2.20296 4.71189 2.26415 4.65069 2.32534C4.5895 2.38654 4.52831 2.41713 4.43652 2.41713C4.34473 2.41713 4.31413 2.38654 4.22234 2.32534C4.13055 2.23355 4.13055 2.20296 4.13055 2.11117C4.13055 2.04997 4.16115 1.92759 4.22234 1.7746C4.31413 1.59102 4.31413 1.49923 4.34473 1.22387C4.37532 1.04029 4.37532 0.795512 4.34473 0.703722C4.34473 0.611932 4.28353 0.458949 4.28353 0.397756C4.25294 0.336563 4.19174 0.244773 4.16115 0.183579C4.13055 0.152983 4.03876 0.0917901 3.97757 0.0611935C3.91637 0.0305969 3.79399 0 3.7022 0C3.76339 0.0611933 3.6716 0.0917897 3.61041 0.0917897Z" fill="white"/>
</svg>
