<svg width="10.92300033569336" height="10.291131973266602" viewBox="0 0 10.92300033569336 10.291131973266602" fill="none" xmlns="http://www.w3.org/2000/svg">
<path d="M5.38501 0.0353299C5.38501 0.0659266 5.32381 0.280103 5.29322 0.524876C5.26262 0.769649 5.23203 0.983826 5.23203 1.04502C5.23203 1.10621 5.23203 1.13681 5.23203 1.13681C5.23203 1.13681 5.17083 1.10621 5.07904 1.07562C4.98725 1.04502 4.89546 1.01442 4.74248 1.01442C4.5895 1.01442 4.49771 1.01442 4.37532 1.07562C4.28353 1.10621 4.16114 1.198 4.06935 1.2592C4.00816 1.32039 3.88577 1.47337 3.85518 1.53456C3.82458 1.62635 3.70219 1.74874 3.641 1.84053C3.54921 1.93232 3.36563 2.0853 3.21265 2.20769C3.05966 2.33008 2.81489 2.48306 2.6925 2.57485C2.57012 2.66664 2.38654 2.75843 2.29475 2.81962C2.20296 2.85022 2.04997 2.91141 1.92759 2.94201C1.8052 2.97261 1.65222 3.0032 1.59102 3.0644C1.52983 3.12559 1.43804 3.18678 1.37685 3.21738C1.34625 3.27857 1.25446 3.40096 1.22387 3.46215C1.19327 3.55394 1.16267 3.67633 1.16267 3.76812C1.16267 3.85991 1.16267 3.9517 1.19327 3.9823L1.22387 4.04349C0.917899 3.9823 0.642529 3.9517 0.428352 3.9211C0.214176 3.89051 0 3.85991 0 3.89051C0 3.89051 -4.67324e-07 3.9211 0.0305962 3.9517C0.0611928 3.9823 0.305966 4.10468 0.581336 4.25767L1.10148 4.53303C0.948496 4.65542 0.887301 4.77781 0.856705 4.839C0.795511 4.96139 0.795512 5.02258 0.795512 5.20616C0.795512 5.38974 0.795511 5.48153 0.856705 5.57332C0.887301 5.63451 0.979093 5.7875 1.07088 5.87929C1.16267 5.97108 1.28506 6.15466 1.34625 6.30764C1.40745 6.43003 1.52983 6.73599 1.59102 6.95017C1.65222 7.16435 1.74401 7.43972 1.7746 7.5621C1.8052 7.71509 1.8052 7.89866 1.8052 8.14344C1.8052 8.48 1.8052 8.54119 1.86639 8.66358C1.89699 8.72477 1.98878 8.84716 2.04997 8.90835C2.11117 8.96955 2.23356 9.06134 2.29475 9.09193C2.38654 9.12253 2.47833 9.15313 2.53952 9.15313C2.60071 9.15313 2.63131 9.15313 2.63131 9.18372C2.63131 9.18372 2.60071 9.30611 2.53952 9.3979C2.47833 9.52029 2.35594 9.76506 2.26415 9.94864C2.17236 10.1322 2.11117 10.2852 2.14177 10.2852C2.17236 10.2852 2.35594 10.1016 2.60071 9.88744L3.02907 9.45909C3.12086 9.67327 3.21265 9.76506 3.30444 9.85685C3.39623 9.91804 3.51861 9.97923 3.6104 10.0098C3.70219 10.0404 3.82458 10.0404 3.91637 10.0404C4.00816 10.0404 4.16114 9.97923 4.28353 9.94864C4.40592 9.88744 4.5589 9.82625 4.62009 9.82625C4.71188 9.82625 5.01785 9.79566 5.32382 9.76506C5.75217 9.76506 5.96634 9.76506 6.18052 9.79566C6.3947 9.82625 6.54768 9.85685 6.67007 9.94864C6.85365 10.0404 6.88424 10.0404 7.09842 10.0404C7.282 10.0404 7.37379 10.0404 7.46558 9.97924C7.52677 9.94864 7.64916 9.88745 7.71035 9.82625C7.77155 9.76506 7.86334 9.67327 7.89393 9.61208C7.92453 9.55088 7.95513 9.48969 7.95513 9.48969C7.95513 9.48969 8.04692 9.55088 8.13871 9.67327C8.2305 9.79566 8.44467 9.97923 8.56706 10.1016C8.68945 10.224 8.81183 10.3158 8.84243 10.2852C8.84243 10.2852 8.75064 10.0404 8.59766 9.73446C8.44467 9.45909 8.35288 9.21432 8.32229 9.21432C8.32229 9.21432 8.38348 9.18372 8.44467 9.18372C8.50587 9.18372 8.59766 9.15313 8.65885 9.12253C8.72004 9.09193 8.81183 9.03074 8.87303 8.96955C8.93422 8.90835 9.02601 8.78597 9.0872 8.69418C9.1484 8.54119 9.1484 8.5106 9.1484 8.08224C9.1484 7.71509 9.1484 7.5927 9.20959 7.40912C9.24019 7.28673 9.33197 7.01136 9.39317 6.79719C9.45436 6.58301 9.57675 6.30764 9.63794 6.21585C9.69914 6.12406 9.79093 5.97108 9.88271 5.87929C9.9745 5.7875 10.0663 5.66511 10.0969 5.57332C10.1581 5.48153 10.1581 5.38974 10.1581 5.20616C10.1581 5.02258 10.1581 4.96139 10.0969 4.8084C10.0663 4.71661 9.97451 4.62483 9.94391 4.56363L9.85212 4.47184C10.3723 4.22707 10.5864 4.10468 10.7088 4.04349C10.8312 3.9823 10.923 3.9211 10.923 3.89051C10.923 3.85991 10.8924 3.85991 10.8006 3.89051C10.7394 3.89051 10.5252 3.9211 10.3111 3.9517C10.0969 3.9823 9.88272 4.01289 9.82152 4.04349H9.66854C9.72973 3.79872 9.72973 3.70693 9.69913 3.61514C9.66854 3.55394 9.63794 3.40096 9.57675 3.33977C9.54615 3.24798 9.42377 3.15619 9.36257 3.09499C9.27078 3.0338 9.1484 2.97261 9.0872 2.94201C8.99541 2.91141 8.90362 2.91141 8.87303 2.91141C8.84243 2.91141 8.75064 2.88082 8.65885 2.85022C8.56706 2.81962 8.38348 2.72783 8.26109 2.63604C8.13871 2.54425 7.89393 2.39127 7.71035 2.23829C7.52677 2.0853 7.3126 1.90172 7.19021 1.80993C7.09842 1.71815 6.97603 1.56516 6.94544 1.50397C6.91484 1.44278 6.82305 1.32039 6.76186 1.2592C6.70066 1.198 6.60888 1.13681 6.54768 1.10621C6.45589 1.07562 6.3641 1.04502 6.18052 1.04502C5.96634 1.04502 5.90515 1.04502 5.78277 1.10621C5.72157 1.13681 5.62978 1.16741 5.62978 1.16741C5.62978 1.16741 5.62978 1.10621 5.62978 1.07562C5.62978 1.04502 5.59918 0.861439 5.56859 0.677859C5.53799 0.49428 5.5074 0.280103 5.4768 0.188313C5.4768 0.0965232 5.4462 0.0353299 5.41561 0.0353299C5.41561 -0.0258633 5.38501 0.00473332 5.38501 0.0353299Z" fill="#0060A9"/>
</svg>
