<svg width="21.790618896484375" height="21.794143676757812" viewBox="0 0 21.790618896484375 21.794143676757812" fill="none" xmlns="http://www.w3.org/2000/svg">
<path d="M18.4924 7.01319C18.651 6.98791 18.8027 6.95782 18.9434 6.92609L20.1466 8.1293C20.3386 8.32134 20.3386 8.64438 20.1466 8.83641L17.0601 11.9229L18.1208 12.9836L21.2073 9.89707C21.9851 9.11925 21.9851 7.84646 21.2073 7.06864L19.6074 5.46882C19.4683 5.32969 19.2612 5.2848 19.0728 5.34165C18.4714 5.52315 17.1423 5.83214 16.5504 5.24022C15.9585 4.6483 16.2675 3.31927 16.449 2.71781C16.5058 2.52945 16.4609 2.32231 16.3218 2.18319L14.722 0.583363C13.9442 -0.194454 12.6714 -0.194455 11.8935 0.583363L8.80704 3.66987L9.86771 4.73053L12.9542 1.64402C13.1462 1.45199 13.4693 1.45199 13.6613 1.64402L14.8645 2.84724C14.8328 2.98791 14.8027 3.13959 14.7774 3.29817C14.7171 3.67674 14.6736 4.15783 14.7331 4.65014C14.7915 5.13328 14.9687 5.77987 15.4897 6.30088C16.0107 6.82188 16.6573 6.99912 17.1405 7.05752C17.6328 7.11703 18.1139 7.07354 18.4924 7.01319Z" fill="black"/>
<path d="M8.80484 5.79339L7.74418 4.73273L0.57984 11.8971C-0.197978 12.6749 -0.190907 13.9406 0.586911 14.7184L2.06178 16.1933C2.25705 16.3886 2.57157 16.3815 2.80942 16.2412C3.57456 15.7898 4.57968 15.8969 5.23669 16.5539C5.89466 17.2119 6.0011 18.219 5.54318 18.9888C5.40201 19.2262 5.39499 19.5406 5.59025 19.7359L7.06512 21.2108C7.84294 21.9886 9.11573 21.9886 9.89355 21.2108L17.0579 14.0464L15.9972 12.9858L8.83289 20.1501C8.64086 20.3421 8.31781 20.3421 8.12578 20.1501L7.12024 19.1446C7.56061 17.908 7.28102 16.4769 6.29735 15.4933C5.31733 14.5132 3.88915 14.2302 2.65507 14.6653L1.64757 13.6578C1.44861 13.4588 1.45538 13.1429 1.6405 12.9577L8.80484 5.79339Z" fill="black"/>
</svg>
