<svg width="15" height="18" viewBox="0 0 15 18" fill="none" xmlns="http://www.w3.org/2000/svg">
<path fill-rule="evenodd" clip-rule="evenodd" d="M8.04143 1.53303C7.69059 1.44413 7.32337 1.44496 6.97293 1.53543L1.72171 2.89113L1.70316 2.89489C1.54616 2.92672 1.44889 3.06043 1.45168 3.19772L1.45183 3.20523V8.00371C1.45183 10.0615 2.01816 11.6618 2.99803 12.9935C3.98887 14.3401 5.43112 15.4505 7.2406 16.4665C7.40168 16.5553 7.59893 16.5552 7.75993 16.4662C9.56815 15.456 11.0106 14.3432 12.0016 12.994C12.9819 11.6593 13.5482 10.0562 13.5482 8.00371V3.17414L13.5483 3.16665C13.5511 3.02932 13.4538 2.89561 13.2968 2.86378L13.2799 2.86034L8.04143 1.53303ZM6.61363 0.114118C7.1977 -0.0366707 7.80974 -0.0380478 8.39446 0.110111L13.6015 1.42947C14.4188 1.60455 15.013 2.33452 14.9998 3.18817V8.00371C14.9998 10.3584 14.3406 12.2708 13.1672 13.8683C12.0047 15.451 10.3655 16.6868 8.46123 17.7506L8.45958 17.7515C7.86276 18.0828 7.13723 18.0828 6.54041 17.7515L6.53742 17.7498C4.63478 16.6817 2.99571 15.4488 1.83317 13.8688C0.659352 12.2735 0.000218597 10.3635 0.000218597 8.00371V3.21928C-0.0130631 2.36624 0.580291 1.63672 1.39671 1.46096L6.61363 0.114118Z" fill="black"/>
</svg>
