<svg width="2.798733711242676" height="3.9651708602905273" viewBox="0 0 2.798733711242676 3.9651708602905273" fill="none" xmlns="http://www.w3.org/2000/svg">
<path d="M0.0773832 2.95546C0.214033 3.73168 0.787859 3.96517 1.39093 3.96517C2.28687 3.96517 2.79873 3.17224 2.79873 1.99348C2.79873 0.601156 2.22289 0 1.2857 0C0.560161 0 0 0.416988 0 1.35123C0 1.90098 0.337018 2.59226 1.08445 2.59226C1.39264 2.59226 1.58436 2.52698 1.84017 2.31466C1.84472 2.81457 1.6986 3.19398 1.34698 3.19398C1.15976 3.19398 1.01359 3.10184 0.963381 2.89045L0.0773832 2.95546ZM1.34973 1.84653C1.11188 1.84653 0.947232 1.63969 0.947232 1.33492C0.947232 1.00836 1.08901 0.801523 1.36805 0.801523C1.59668 0.801523 1.79793 1.01928 1.79793 1.29677C1.79793 1.59611 1.67443 1.83561 1.34973 1.84653Z" fill="white"/>
</svg>
