<svg width="2.7987289428710938" height="3.96517276763916" viewBox="0 0 2.7987289428710938 3.96517276763916" fill="none" xmlns="http://www.w3.org/2000/svg">
<path d="M0.0774348 2.95557C0.214033 3.73168 0.787857 3.96517 1.39093 3.96517C2.28686 3.96517 2.79873 3.1724 2.79873 1.99359C2.79873 0.60126 2.22294 0 1.2857 0C0.560161 0 0 0.417092 0 1.35138C0 1.90098 0.337016 2.59231 1.08445 2.59231C1.39263 2.59231 1.58436 2.52699 1.84016 2.31476C1.84472 2.81457 1.6986 3.19408 1.34698 3.19408C1.15981 3.19408 1.01359 3.1019 0.96338 2.89051L0.0774348 2.95557ZM1.34973 1.84653C1.11188 1.84653 0.947282 1.6398 0.947282 1.33492C0.947282 1.00846 1.089 0.801523 1.36805 0.801523C1.59673 0.801523 1.79798 1.01928 1.79798 1.29688C1.79798 1.59621 1.67442 1.83571 1.34973 1.84653Z" fill="white"/>
</svg>
