<svg width="2.798731803894043" height="3.9651708602905273" viewBox="0 0 2.798731803894043 3.9651708602905273" fill="none" xmlns="http://www.w3.org/2000/svg">
<path d="M2.7213 1.00971C2.5847 0.233496 2.01087 0 1.4078 0C0.511763 0 0 0.792878 0 1.97117C0 3.36355 0.575689 3.96517 1.51293 3.96517C2.23857 3.96517 2.79873 3.54777 2.79873 2.61332C2.79873 2.06362 2.46171 1.37286 1.71418 1.37286C1.40609 1.37286 1.21427 1.43814 0.958567 1.6503C0.954009 1.15065 1.10008 0.771139 1.45175 0.771139C1.63892 0.771139 1.78504 0.863274 1.8353 1.07477L2.7213 1.00971ZM1.44895 2.11253C1.68674 2.11253 1.85145 2.31937 1.85145 2.62414C1.85145 2.9507 1.70962 3.15754 1.43068 3.15754C1.202 3.15754 1.00075 2.93983 1.00075 2.66229C1.00075 2.36295 1.1242 2.12345 1.44895 2.11253Z" fill="white"/>
</svg>
