<svg width="27" height="19" viewBox="0 0 27 19" fill="none" xmlns="http://www.w3.org/2000/svg">
<path fill-rule="evenodd" clip-rule="evenodd" d="M23.7669 0.57096C24.9092 0.878586 25.81 1.77913 26.1172 2.92155C26.6885 5.00813 26.6665 9.35747 26.6665 9.35747C26.6665 9.35747 26.6665 13.6845 26.1176 15.7713C25.81 16.9136 24.9093 17.8141 23.7669 18.1216C21.6803 18.6709 13.3333 18.6709 13.3333 18.6709C13.3333 18.6709 5.00813 18.6709 2.89957 18.0999C1.75716 17.7921 0.856773 16.8916 0.54916 15.7493C0 13.6845 0 9.33547 0 9.33547C0 9.33547 0 5.00813 0.54916 2.92155C0.85644 1.77929 1.77913 0.856614 2.89941 0.54932C4.98616 2.38419e-07 13.3331 0 13.3331 0C13.3331 0 21.6803 -2.78155e-07 23.7669 0.57096ZM10.2875 13.9521L18.6667 9.33333L10.2875 4.71453V13.9521Z" fill="white"/>
</svg>
