<svg width="27" height="27" viewBox="0 0 27 27" fill="none" xmlns="http://www.w3.org/2000/svg">
<path d="M17.1651 8.86959C17.6289 9.3913 18.1793 9.73911 18.8174 9.82609C19.02 9.88408 19.2521 9.88408 19.4837 9.82609V12.1159C18.3247 12.2029 17.1942 11.8261 16.3245 11.0435V15.7971C16.3245 18.1159 14.4115 20 12.0634 20C10.8462 20 9.74485 19.4783 8.96231 18.6667C8.26651 17.9131 7.83187 16.8986 7.83187 15.7971C7.83187 13.5073 9.65765 11.6232 11.9767 11.5652H12.0634C12.2664 11.5652 12.4694 11.5942 12.6434 11.6232V13.942C12.4694 13.884 12.2664 13.8551 12.0634 13.8551C10.9911 13.8551 10.1214 14.7246 10.1214 15.7971C10.1214 16.2029 10.2376 16.6087 10.4692 16.9276C10.8462 17.4203 11.4257 17.7391 12.0634 17.7391C13.1652 17.7391 14.0345 16.8696 14.0345 15.7971V6.66667H16.3245C16.2954 7.44925 16.6142 8.26086 17.1651 8.86959Z" fill="white"/>
<path fill-rule="evenodd" clip-rule="evenodd" d="M13.3333 26.6667C20.6971 26.6667 26.6667 20.6971 26.6667 13.3333C26.6667 5.96954 20.6971 0 13.3333 0C5.96954 0 0 5.96954 0 13.3333C0 20.6971 5.96954 26.6667 13.3333 26.6667ZM13.3333 24C19.2244 24 24 19.2244 24 13.3333C24 7.4423 19.2244 2.66667 13.3333 2.66667C7.4423 2.66667 2.66667 7.4423 2.66667 13.3333C2.66667 19.2244 7.4423 24 13.3333 24Z" fill="white"/>
</svg>
