<svg width="378" height="41" viewBox="0 0 378 41" fill="none" xmlns="http://www.w3.org/2000/svg">
<path d="M3.4585 40V3.5947H10.057V34.9943H16.4734L15.6998 40H3.4585ZM24.0856 40V3.5947H38.3292L37.5556 8.60043H30.6841V19.9771H37.1005L36.3269 24.9828H30.6841V34.9943H38.4202L37.6466 40H24.0856ZM58.9734 40L58.2453 31.1262H52.5114L51.7833 40H45.1394L48.5979 3.5947H62.1589L65.6174 40H58.9734ZM52.557 26.1205H58.1998L56.5615 11.2398H56.3795L55.3784 23.8451L54.3772 11.2398H54.1952L52.557 26.1205ZM84.538 40.4551C83.9464 40.4551 83.4003 40.4096 82.8542 40.273C82.4447 40.4096 82.1716 40.4551 81.7166 40.4551C75.6642 40.4551 72.7063 34.3572 72.7063 21.7973C72.7063 9.7836 76.1193 3.13963 81.58 3.13963C82.0351 3.13963 82.4902 3.18514 82.8542 3.27615C83.3093 3.18514 83.7644 3.13963 84.2194 3.13963C88.8611 3.13963 91.6825 6.91668 91.6825 13.8792L85.6301 15.2444C85.6301 9.96563 85.3116 8.37289 84.2194 8.37289C83.5823 8.37289 83.1728 9.23752 82.8542 11.2398C82.7632 9.19201 82.3537 8.37289 81.58 8.37289C80.3059 8.37289 79.7598 11.9224 79.7598 21.7973C79.7598 31.6723 80.3969 35.2218 82.2626 35.2218C82.4447 35.2218 82.6722 35.2218 82.8542 35.1763V31.6268C83.2183 34.1752 83.9009 35.2218 84.902 35.2218C85.2206 35.2218 85.5391 35.1763 85.8122 35.0398V24.9828H83.7644L84.538 19.9771H91.9556V38.6348C89.5437 39.9545 86.9953 40.4551 84.538 40.4551ZM106.727 40.4551C102.995 40.4551 100.447 37.0421 100.447 30.8987V3.5947H107.045V31.0807C107.045 34.1296 107.455 35.2218 108.365 35.2218C108.957 35.2218 109.275 34.5392 109.503 32.901C109.73 34.5392 110.049 35.2218 110.64 35.2218C111.55 35.2218 111.96 34.1296 111.96 31.0807V3.5947H118.194V30.8987C118.194 37.0421 115.783 40.4551 112.279 40.4551C111.095 40.4551 110.367 40.2275 109.503 39.6815C108.638 40.2275 107.91 40.4551 106.727 40.4551ZM127.174 40V3.5947H141.418L140.644 8.60043H133.773V19.9771H140.189L139.416 24.9828H133.773V34.9943H141.509L140.735 40H127.174ZM164.802 33.6746C164.893 34.7667 165.211 35.2218 165.803 35.2218C166.667 35.2218 167.031 34.3117 167.031 32.2184C167.031 30.1251 166.076 28.1228 164.802 26.1205V31.2627C164.164 25.2103 155.427 19.9316 155.427 12.0134C155.427 6.59814 158.613 3.13963 163.391 3.13963C164.028 3.13963 164.437 3.23065 164.802 3.36716C165.12 3.23065 165.439 3.13963 166.167 3.13963C170.535 3.13963 173.721 6.3251 173.721 13.3786L167.668 14.7438C167.577 9.82911 167.168 8.37289 165.894 8.37289C165.393 8.37289 165.029 8.60043 164.802 9.05549C164.529 8.60043 164.21 8.37289 163.709 8.37289C162.708 8.37289 162.253 9.28303 162.253 11.4673C162.253 13.6517 163.345 15.6995 164.802 17.7928V13.6972C166.531 19.158 173.857 24.0272 173.857 31.3537C173.857 36.9055 170.581 40.4551 166.349 40.4551C165.803 40.4551 165.302 40.4096 164.802 40.3185C164.301 40.4096 163.8 40.4551 163.254 40.4551C158.476 40.4551 155.2 37.2696 155.2 30.2161L161.343 28.8509C161.434 33.7656 161.798 35.2218 163.391 35.2218C164.255 35.2218 164.711 34.7667 164.802 33.6746ZM184.807 40V8.60043H180.302L181.076 3.5947H197.049L196.275 8.60043H191.406V40H184.807ZM215.633 40L214.905 31.1262H209.171L208.443 40H201.799L205.258 3.5947H218.819L222.277 40H215.633ZM209.217 26.1205H214.86L213.221 11.2398H213.039L212.038 23.8451L211.037 11.2398H210.855L209.217 26.1205ZM243.353 40L239.44 25.4834V36.9511L235.481 22.2524H235.299L235.526 40H230.066V3.5947H235.526L239.44 18.3388V6.68915L243.399 21.5698H243.581L243.353 3.5947H248.814V40H243.353ZM257.732 40V3.5947H261.281C263.329 3.5947 265.832 4.14078 267.061 5.41496V3.6402C273.386 4.09527 276.89 10.5572 276.89 21.7973C276.89 33.0375 273.386 39.4994 267.061 39.9545V38.1797C265.832 39.4539 263.329 40 261.281 40H257.732ZM267.061 34.9488C269.2 34.5392 269.973 30.8987 269.973 21.7973C269.973 12.696 269.2 9.05549 267.061 8.64593V11.6039C266.515 9.46505 265.696 8.60043 264.421 8.60043H264.33V34.9943H264.421C265.696 34.9943 266.515 34.1296 267.061 31.9908V34.9488ZM284.93 40V3.5947H291.528V40H284.93ZM313.985 40L310.071 25.4834V36.9511L306.112 22.2524H305.93L306.158 40H300.697V3.5947H306.158L310.071 18.3388V6.68915L314.031 21.5698H314.213L313.985 3.5947H319.446V40H313.985ZM339.74 40.4551C339.149 40.4551 338.603 40.4096 338.056 40.273C337.647 40.4096 337.374 40.4551 336.919 40.4551C330.866 40.4551 327.908 34.3572 327.908 21.7973C327.908 9.7836 331.321 3.13963 336.782 3.13963C337.237 3.13963 337.692 3.18514 338.056 3.27615C338.512 3.18514 338.967 3.13963 339.422 3.13963C344.063 3.13963 346.885 6.91668 346.885 13.8792L340.832 15.2444C340.832 9.96563 340.514 8.37289 339.422 8.37289C338.785 8.37289 338.375 9.23752 338.056 11.2398C337.965 9.19201 337.556 8.37289 336.782 8.37289C335.508 8.37289 334.962 11.9224 334.962 21.7973C334.962 31.6723 335.599 35.2218 337.465 35.2218C337.647 35.2218 337.874 35.2218 338.056 35.1763V31.6268C338.421 34.1752 339.103 35.2218 340.104 35.2218C340.423 35.2218 340.741 35.1763 341.014 35.0398V24.9828H338.967L339.74 19.9771H347.158V38.6348C344.746 39.9545 342.198 40.4551 339.74 40.4551ZM364.477 33.6746C364.568 34.7667 364.887 35.2218 365.478 35.2218C366.343 35.2218 366.707 34.3117 366.707 32.2184C366.707 30.1251 365.752 28.1228 364.477 26.1205V31.2627C363.84 25.2103 355.103 19.9316 355.103 12.0134C355.103 6.59814 358.288 3.13963 363.067 3.13963C363.704 3.13963 364.113 3.23065 364.477 3.36716C364.796 3.23065 365.114 3.13963 365.843 3.13963C370.211 3.13963 373.397 6.3251 373.397 13.3786L367.344 14.7438C367.253 9.82911 366.844 8.37289 365.569 8.37289C365.069 8.37289 364.705 8.60043 364.477 9.05549C364.204 8.60043 363.886 8.37289 363.385 8.37289C362.384 8.37289 361.929 9.28303 361.929 11.4673C361.929 13.6517 363.021 15.6995 364.477 17.7928V13.6972C366.207 19.158 373.533 24.0272 373.533 31.3537C373.533 36.9055 370.257 40.4551 366.025 40.4551C365.478 40.4551 364.978 40.4096 364.477 40.3185C363.977 40.4096 363.476 40.4551 362.93 40.4551C358.152 40.4551 354.875 37.2696 354.875 30.2161L361.019 28.8509C361.11 33.7656 361.474 35.2218 363.067 35.2218C363.931 35.2218 364.386 34.7667 364.477 33.6746Z" fill="white"/>
<path d="M1.45621 40V3.5947H2.54837V40H1.45621ZM22.0833 40V3.5947H23.1755V40H22.0833ZM42.864 40L44.2292 26.1205V40H42.864ZM71.7961 33.4926C70.8405 30.5346 70.3399 26.5755 70.3399 21.7973C70.3399 17.0192 70.8405 13.0601 71.7961 10.1021V33.4926ZM99.5367 36.405C98.8541 34.9488 98.4445 33.083 98.4445 30.8987V3.5947H99.5367V36.405ZM125.172 40V3.5947H126.264V40H125.172ZM154.381 36.8145C153.47 35.1763 152.924 32.992 152.924 30.2161L154.381 29.852V36.8145ZM154.608 17.6107C153.743 15.8815 153.152 14.0157 153.152 12.0134C153.152 9.87461 153.698 8.05435 154.608 6.59814V17.6107ZM178.027 8.60043L178.801 3.5947H179.392V8.60043H178.027ZM199.524 40L200.889 26.1205V40H199.524ZM228.063 40V3.5947H229.155V40H228.063ZM255.73 40V3.5947H256.822V40H255.73ZM282.927 40V3.5947H284.02V40H282.927ZM298.695 40V3.5947H299.787V40H298.695ZM326.998 33.4926C326.043 30.5346 325.542 26.5755 325.542 21.7973C325.542 17.0192 326.043 13.0601 326.998 10.1021V33.4926ZM354.056 36.8145C353.146 35.1763 352.6 32.992 352.6 30.2161L354.056 29.852V36.8145ZM354.284 17.6107C353.419 15.8815 352.828 14.0157 352.828 12.0134C352.828 9.87461 353.374 8.05435 354.284 6.59814V17.6107Z" fill="#FFCD44"/>
<path d="M10.9671 32.2639V3.5947H12.3323L11.5587 32.2639H10.9671ZM17.3835 40V34.9943H18.7487L17.9751 40H17.3835ZM31.5942 19.067V8.60043H32.9594L32.6409 19.067H31.5942ZM31.5942 34.0841V24.9828H32.4588L32.1858 34.0841H31.5942ZM39.3303 40V34.9943H40.6955L39.9219 40H39.3303ZM39.2393 8.60043V3.5947H40.6045L39.8309 8.60043H39.2393ZM38.0107 24.9828V19.9771H39.3759L38.6022 24.9828H38.0107ZM66.5275 40V26.1205L67.8927 40H66.5275ZM92.8657 39.4084V19.9771H94.2309V38.7713C93.7758 38.9989 93.3208 39.2264 92.8657 39.4084ZM93.9579 13.9247C93.9579 11.0578 93.4573 8.73695 92.5927 6.96219V14.1977L93.9579 13.9247ZM119.287 36.587V3.5947H120.379V30.8987C120.379 33.174 120.015 35.0853 119.287 36.587ZM134.683 19.067V8.60043H136.048L135.73 19.067H134.683ZM134.683 34.0841V24.9828H135.548L135.274 34.0841H134.683ZM142.419 40V34.9943H143.784L143.011 40H142.419ZM142.328 8.60043V3.5947H143.693L142.92 8.60043H142.328ZM141.099 24.9828V19.9771H142.465L141.691 24.9828H141.099ZM174.767 25.6654C175.632 27.3947 176.224 29.2604 176.224 31.3537C176.224 33.5381 175.723 35.4493 174.767 36.9055V25.6654ZM174.631 6.68915C175.541 8.32739 176.087 10.5117 176.087 13.3786L174.631 13.6972V6.68915ZM192.316 40V8.60043H193.681L192.908 40H192.316ZM197.959 8.60043V3.5947H199.324L198.55 8.60043H197.959ZM223.187 40V26.1205L224.552 40H223.187ZM249.724 40V3.5947H250.817V40H249.724ZM277.8 10.1021C278.756 13.0601 279.257 17.0192 279.257 21.7973C279.257 26.5755 278.756 30.5346 277.8 33.4926V10.1021ZM292.438 40V3.5947H293.531V40H292.438ZM320.356 40V3.5947H321.448V40H320.356ZM348.068 39.4084V19.9771H349.433V38.7713C348.978 38.9989 348.523 39.2264 348.068 39.4084ZM349.16 13.9247C349.16 11.0578 348.66 8.73695 347.795 6.96219V14.1977L349.16 13.9247ZM374.443 25.6654C375.308 27.3947 375.899 29.2604 375.899 31.3537C375.899 33.5381 375.399 35.4493 374.443 36.9055V25.6654ZM374.307 6.68915C375.217 8.32739 375.763 10.5117 375.763 13.3786L374.307 13.6972V6.68915Z" fill="#00EEFF"/>
</svg>
