<svg width="40" height="40" viewBox="0 0 40 40" fill="none" xmlns="http://www.w3.org/2000/svg">
<path fill-rule="evenodd" clip-rule="evenodd" d="M0 20C0 8.96 8.96 0 20 0C31.04 0 40 8.96 40 20C40 31.04 31.04 40 20 40C8.96 40 0 31.04 0 20ZM26.9328 19.1544L17.0848 12.1403C16.9088 12.015 16.6984 11.9477 16.4824 11.9477C15.9089 11.9477 15.444 12.4126 15.444 12.9861L15.4442 27.0138C15.4442 27.2298 15.5115 27.4404 15.6368 27.6162C15.9695 28.0834 16.6178 28.1924 17.085 27.8596L26.9328 20.8458C27.027 20.7788 27.1092 20.6966 27.1762 20.6024C27.5088 20.1354 27.3998 19.487 26.9328 19.1544Z" fill="white"/>
</svg>
