<svg width="45" height="45" viewBox="0 0 45 45" fill="none" xmlns="http://www.w3.org/2000/svg">
<path fill-rule="evenodd" clip-rule="evenodd" d="M0 22.5C0 10.08 10.08 0 22.5 0C34.92 0 45 10.08 45 22.5C45 34.92 34.92 45 22.5 45C10.08 45 0 34.92 0 22.5ZM30.2994 21.5487L19.2204 13.6579C19.0224 13.5169 18.7857 13.4412 18.5427 13.4412C17.8975 13.4412 17.3745 13.9642 17.3745 14.6093L17.3747 30.3905C17.3747 30.6335 17.4505 30.8704 17.5914 31.0682C17.9657 31.5938 18.695 31.7165 19.2206 31.3421L30.2994 23.4515C30.4054 23.3762 30.4979 23.2837 30.5732 23.1777C30.9474 22.6523 30.8248 21.9229 30.2994 21.5487Z" fill="white"/>
</svg>
