<svg width="21.30138397216797" height="19.06560516357422" viewBox="0 0 21.30138397216797 19.06560516357422" fill="none" xmlns="http://www.w3.org/2000/svg">
<path fill-rule="evenodd" clip-rule="evenodd" d="M9.85378 18.4001C8.97801 19.2883 7.56481 19.2811 6.68555 18.4167C6.15256 17.8928 5.92211 17.1138 6.06239 16.3827L6.73721 12.0089L3.72477 12.0089C1.11464 12.0089 -0.703441 9.67786 0.263175 7.06553L2.25477 1.70827C2.46544 1.14264 2.73811 0.68684 3.17497 0.382118C3.61362 0.0761467 4.10388 9.13285e-06 4.56306 9.09271e-06C9.6425 -2.56836e-05 14.7219 0.0038744 19.8014 0.00592054C20.6298 0.00592047 21.3014 0.677492 21.3014 1.50592L21.3014 10.5059C21.3014 11.3343 20.6298 12.0059 19.8014 12.0059C18.3322 12.0059 16.863 12.0059 15.3938 12.0059C13.5319 14.1739 11.7154 16.2559 9.85378 18.4001ZM15.8014 10.5059L19.8014 10.5059L19.8014 1.50592L15.8014 1.50592L15.8014 10.5059ZM14.296 1.49997L4.56306 1.50001C4.05054 1.50001 3.84826 1.7403 3.66951 2.20704L1.65521 7.62478C1.11005 9.10028 2.04406 10.5089 3.72477 10.5089L8.48639 10.5089L7.53677 16.6589C7.3977 17.3543 8.29194 17.9032 8.78649 17.3461C9.24784 16.8264 12.485 13.0919 14.2961 10.9796L14.296 1.49997Z" fill="black"/>
</svg>
