<svg width="10" height="10" viewBox="0 0 10 10" fill="none" xmlns="http://www.w3.org/2000/svg">
<path d="M5.86476 5.00039L9.82066 1.04482C10.0598 0.805562 10.0598 0.418706 9.82066 0.180999C9.58157 -0.0582614 9.19498 -0.0582614 8.95744 0.180999L4.99999 4.13501L1.04254 0.179445C0.803445 -0.059815 0.41686 -0.059815 0.17932 0.179445C-0.0597732 0.418706 -0.0597732 0.805562 0.17932 1.04327L4.13522 4.99883L0.17932 8.95595C-0.0597732 9.19522 -0.0597732 9.58207 0.17932 9.81978C0.298866 9.93941 0.455674 9.99845 0.610929 9.99845C0.767736 9.99845 0.922991 9.93941 1.04254 9.81978L4.99999 5.86421L8.95744 9.82133C9.07699 9.94096 9.23224 10 9.38905 10C9.54586 10 9.70111 9.94096 9.82066 9.82133C10.0598 9.58207 10.0598 9.19522 9.82066 8.95751L5.86476 5.00039Z" fill="white"/>
</svg>
