<svg width="24.882408142089844" height="26.550939559936523" viewBox="0 0 24.882408142089844 26.550939559936523" fill="none" xmlns="http://www.w3.org/2000/svg">
<g opacity="0.15">
<path fill-rule="evenodd" clip-rule="evenodd" d="M1.82105 2.46761C1.34481 3.68812 0.338526 6.26704 0.0740037 8.54408C-0.00646444 9.17789 -0.021358 9.81832 0.0295597 10.4552C0.243846 12.0427 0.701821 13.0402 1.13595 13.9857C1.5392 14.864 1.92188 15.6974 2.06956 16.9174C2.23104 18.2514 2.28284 18.9211 2.32879 19.5152C2.37011 20.0493 2.40669 20.5223 2.514 21.3619C2.74067 23.1352 3.46067 26.9974 7.12289 26.5085C9.56289 26.2019 9.87845 23.5352 9.74067 22.4685C9.5678 21.375 9.2338 20.313 8.74956 19.3174L8.714 19.2774C8.21023 18.0661 7.85793 16.7973 7.66511 15.4996C7.47652 14.0277 8.10079 12.7057 8.7028 11.4309C9.26417 10.2421 9.80619 9.09431 9.65178 7.90408C9.33178 5.43741 7.93623 -0.38037 4.58511 0.0196304C3.46134 0.0886966 2.47739 0.797697 2.05623 1.84185C2.02143 1.95406 1.93693 2.17062 1.82105 2.46761ZM2.78939 5.83648C2.58825 5.82436 2.42044 5.67844 2.3805 5.48093C2.3681 5.37331 2.39987 5.26526 2.46856 5.1815C2.53725 5.09773 2.63698 5.0454 2.74495 5.03648L6.44717 4.63648C6.59787 4.60441 6.75371 4.66075 6.84906 4.78178C6.94442 4.90281 6.96271 5.0675 6.89626 5.20651C6.8298 5.34553 6.69013 5.4347 6.53606 5.43648L2.78939 5.83648ZM3.05678 7.83251C2.96095 7.8349 2.86821 7.7985 2.7996 7.73156C2.73098 7.66462 2.69231 7.57281 2.69234 7.47695C2.67863 7.36909 2.70992 7.26034 2.77886 7.17626C2.84781 7.09218 2.94832 7.04019 3.05678 7.03251L6.759 6.63251C6.97959 6.60909 7.17787 6.76772 7.20345 6.98806C7.21716 7.09521 7.18646 7.20331 7.11846 7.28725C7.05047 7.37119 6.95111 7.42367 6.84345 7.43251L3.04789 7.83251H3.05678ZM3.22436 9.83275L3.22699 9.83294H3.22254L3.22436 9.83275ZM6.97366 9.43294L3.22436 9.83275C3.02609 9.8176 2.86186 9.67252 2.82254 9.47739C2.81012 9.37047 2.8413 9.26306 2.90904 9.17943C2.97679 9.09579 3.07538 9.04298 3.18254 9.03294L6.88921 8.63294C6.99542 8.62048 7.10221 8.65106 7.18571 8.71787C7.26922 8.78467 7.3225 8.88214 7.33366 8.9885C7.34737 9.09565 7.31666 9.20374 7.24867 9.28768C7.18068 9.37162 7.08132 9.42411 6.97366 9.43294ZM6.97921 25.5524C6.83452 25.5884 6.68541 25.6034 6.53646 25.5969C5.57518 25.6224 4.69551 25.0588 4.31698 24.1746C3.88009 23.2678 3.60485 22.2917 3.50365 21.2902C3.41476 20.4902 3.37032 20.0457 3.32587 19.5568C3.17095 18.6608 3.08035 17.7547 3.05476 16.8457C3.05476 14.2279 6.44143 13.8724 6.6681 15.6057C6.8549 17.0121 7.23322 18.3863 7.79254 19.6902L7.93032 19.9568C8.30802 20.7927 8.58119 21.6719 8.74365 22.5746C8.80904 23.1952 8.71576 23.8222 8.47254 24.3968C8.35397 24.688 8.16817 24.9469 7.93032 25.1524C7.65831 25.3744 7.3281 25.5132 6.97921 25.5524Z" fill="white"/>
<path fill-rule="evenodd" clip-rule="evenodd" d="M23.0463 2.43557C23.5185 3.64252 24.5373 6.24692 24.8042 8.54408C24.8882 9.17758 24.9046 9.81822 24.8531 10.4552C24.6408 12.0445 24.1808 13.0424 23.7445 13.9889C23.3401 14.866 22.9561 15.6989 22.8086 16.9174C22.6453 18.2669 22.5929 18.9366 22.546 19.5359C22.5049 20.0616 22.468 20.5332 22.3642 21.3619C22.142 23.1352 21.4175 26.9974 17.7597 26.5085C15.3197 26.2019 14.9997 23.5352 15.1375 22.4685C15.3099 21.3743 15.6455 20.3121 16.1331 19.3174L16.1642 19.2774C16.6676 18.0657 17.0213 16.797 17.2175 15.4996C17.4034 14.0307 16.7786 12.7112 16.1762 11.4388C15.612 10.2472 15.0674 9.09694 15.2264 7.90408C15.5553 5.43741 16.9464 -0.38037 20.2931 0.0196304C21.4172 0.087634 22.4017 0.797001 22.822 1.84185C22.8563 1.94998 22.9365 2.15503 23.0463 2.43557ZM22.0956 5.83771L22.0922 5.83735C22.2909 5.82293 22.4561 5.67787 22.4956 5.48216C22.5081 5.37525 22.4769 5.26784 22.4091 5.1842C22.3414 5.10056 22.2428 5.04776 22.1356 5.03771L18.429 4.63771C18.2084 4.6143 18.0101 4.77292 17.9845 4.99327C17.9721 5.10089 18.0039 5.20893 18.0726 5.2927C18.1413 5.37647 18.241 5.4288 18.349 5.43771L22.0922 5.83735L22.0867 5.83771H22.0956ZM21.8167 7.83251L18.0256 7.43251C17.9171 7.42482 17.8166 7.37283 17.7477 7.28875C17.6787 7.20467 17.6474 7.09592 17.6611 6.98806C17.6867 6.76772 17.885 6.60909 18.1056 6.63251L21.8078 7.03251C21.9163 7.04019 22.0168 7.09218 22.0857 7.17626C22.1547 7.26034 22.1859 7.36909 22.1722 7.47695C22.1723 7.57281 22.1336 7.66462 22.065 7.73156C21.9964 7.7985 21.9036 7.8349 21.8078 7.83251H21.8167ZM17.8765 9.43388L21.6277 9.83388C21.8271 9.81983 21.9926 9.67432 22.0321 9.47832C22.0445 9.37141 22.0133 9.264 21.9456 9.18037C21.8779 9.09673 21.7793 9.04392 21.6721 9.03388L17.9654 8.63388C17.8147 8.6018 17.6589 8.65814 17.5635 8.77917C17.4682 8.9002 17.4499 9.0649 17.5163 9.20391C17.5828 9.34292 17.7225 9.43209 17.8765 9.43388ZM18.3316 25.5981C19.2939 25.6248 20.1749 25.0609 20.5538 24.1759C20.9928 23.2699 21.2681 22.2934 21.3671 21.2915C21.456 20.4915 21.5005 20.047 21.5449 19.5581C21.7021 18.6624 21.7928 17.7562 21.816 16.847C21.816 14.2292 18.4294 13.8737 18.2027 15.607C18.0145 17.0136 17.6346 18.3879 17.0738 19.6915L16.9405 19.9581C16.5622 20.7915 16.2919 21.6697 16.136 22.5715C16.066 23.1921 16.1594 23.8203 16.4071 24.3937C16.5226 24.6865 16.7089 24.9461 16.9494 25.1492C17.2197 25.3711 17.5485 25.51 17.896 25.5492C18.0413 25.5851 18.191 25.6001 18.3405 25.5937L18.3316 25.5981Z" fill="white"/>
</g>
</svg>
