<svg width="10.475932121276855" height="13.84919548034668" viewBox="0 0 10.475932121276855 13.84919548034668" fill="none" xmlns="http://www.w3.org/2000/svg">
<path d="M9.75174 1.82095C9.94249 1.97544 10.2224 1.94605 10.3768 1.75531C10.5313 1.56456 10.5019 1.28469 10.3112 1.1302C9.49684 0.470613 8.49982 0.0765617 7.45456 0.0011709C7.20973 -0.0164873 6.99695 0.167667 6.97929 0.412491C6.96163 0.657315 7.14579 0.870098 7.39061 0.887757C8.25456 0.95007 9.07864 1.27577 9.75174 1.82095Z" fill="#0AC3FC"/>
<path d="M7.26829 2.21364C8.39244 2.28164 9.3769 2.99101 9.79718 4.03586C9.83718 4.15586 9.93495 4.4092 10.0683 4.74697C10.0683 4.82711 10.0742 4.90607 10.0799 4.98263C10.0853 5.05468 10.0905 5.12462 10.0905 5.19142C10.0953 9.31179 7.26784 12.8953 3.2594 13.8492L3.16272 13.6441C2.5993 12.4507 2.05472 11.2972 2.20607 10.1159C2.53495 7.63142 3.92606 1.81364 7.26829 2.21364Z" fill="#0AC3FC"/>
<path d="M5.90287 0.513354C5.98569 0.744419 5.86552 0.998875 5.63445 1.0817C3.19521 1.956 1.44333 5.52309 0.885442 9.94561C0.854722 10.1891 0.632398 10.3617 0.388868 10.3309C0.145338 10.3002 -0.0271779 10.0779 0.00354184 9.83436C0.599207 5.11236 2.48876 1.26495 5.33453 0.244935C5.5656 0.162113 5.82005 0.282289 5.90287 0.513354Z" fill="#0AC3FC"/>
</svg>
