<svg width="20" height="21.148645401000977" viewBox="0 0 20 21.148645401000977" fill="none" xmlns="http://www.w3.org/2000/svg">
<path d="M5.97973 9.83108C5.97973 12.6689 6.97635 15.2365 8.20946 16.6638C8.31081 16.4527 8.41216 16.2078 8.47973 16.0388C8.2348 15.0929 8.16723 14.0625 8.33615 13.0321C8.87669 9.74662 11.4105 7.33108 14.6622 6.68919L13.9443 5.92905C11.4105 6.74831 9.40878 8.44594 8.49662 10.7432L8.31926 10.2956C8.96959 8.42061 9.91554 7.17061 10.3378 6.6723C9.86487 6.18243 9.5777 5.52365 9.5777 4.7973C9.5777 3.83446 10.0845 2.98986 10.8446 2.50845C10.6757 2.82095 10.5828 3.17568 10.5828 3.55574C10.5828 4.78885 11.5794 5.78547 12.8125 5.78547C14.0456 5.78547 15.0422 4.78885 15.0422 3.55574C15.0422 2.34797 14.0794 1.3598 12.8716 1.32601L13.3108 0L13.2855 0.00844594C9.03716 1.27534 5.97973 5.26182 5.97973 9.83108ZM19.1132 19.4088H19.0709C19.0287 19.4088 19.0118 19.4172 18.9865 19.4679C18.9696 19.5101 18.8007 19.9324 18.7753 19.9831C18.7669 20 18.6909 20.1858 18.6909 20.2027H18.6824C18.674 20.1858 18.598 19.9916 18.598 19.9747L18.3953 19.4595C18.3784 19.4088 18.353 19.4003 18.3108 19.4003H18.2686C18.2095 19.4003 18.1926 19.4257 18.1926 19.4763V20.4223C18.1926 20.4392 18.201 20.4476 18.2179 20.4476H18.2939C18.3108 20.4476 18.3193 20.4392 18.3193 20.4223V19.6537H18.3277L18.4037 19.848C18.4206 19.8902 18.5557 20.2196 18.5811 20.2618C18.598 20.3041 18.6149 20.3209 18.6571 20.3209H18.7078C18.75 20.3209 18.7669 20.3041 18.7838 20.2618C18.8007 20.2196 18.9358 19.8902 18.9527 19.848C18.9611 19.8395 19.0287 19.6537 19.0372 19.6453H19.0456V20.4223C19.0456 20.4392 19.0541 20.4476 19.0709 20.4476H19.147C19.1639 20.4476 19.1723 20.4392 19.1723 20.4223V19.4763C19.1892 19.4341 19.1723 19.4088 19.1132 19.4088ZM18.049 19.4088H17.3142C17.2973 19.4088 17.2973 19.4172 17.2973 19.4341V19.5101C17.2973 19.527 17.2973 19.5355 17.3142 19.5355H17.6098V20.4392C17.6098 20.4561 17.6182 20.4645 17.6351 20.4645H17.7196C17.7365 20.4645 17.7449 20.4561 17.7449 20.4392V19.5355H18.049C18.0659 19.5355 18.0659 19.527 18.0659 19.5101V19.4341C18.0659 19.4172 18.0659 19.4088 18.049 19.4088ZM14.6537 18.7922C14.8649 15.1267 12.728 11.8328 9.92399 10.2027C9.65372 10.5236 9.375 11.0557 9.27365 11.3598C9.42568 11.951 9.50169 12.5676 9.50169 13.201C9.50169 16.2584 6.84122 19.0456 6.43581 19.3581C3.26858 17.9899 1.0473 14.8311 1.0473 11.1486C1.0473 6.91723 3.98649 3.36993 7.93074 2.44088C8.33615 1.9848 8.77534 1.5625 9.24831 1.17399C4.07939 1.5625 0 5.87838 0 11.1486C0 16.6723 4.47635 21.1486 10 21.1486C15.5236 21.1486 20 16.6723 20 11.1486C20 7.82939 18.3868 4.8902 15.8953 3.07432C15.9206 3.2348 15.9375 3.39527 15.9375 3.56419C15.9375 3.8429 15.9037 4.10473 15.8361 4.35811C17.7449 5.99662 18.9527 8.42905 18.9527 11.1486C18.9527 14.3919 17.2297 17.2213 14.6537 18.7922ZM10.8868 20.0591C10.5912 20.0845 10.2956 20.1013 10 20.1013C9.71284 20.1013 9.42568 20.0845 9.13851 20.0591C9.95777 19.3497 11.6385 17.103 11.6385 14.8649C11.6385 14.1301 11.5203 13.4206 11.3091 12.7618L11.4611 12.6182C11.9679 13.598 12.2466 14.7044 12.2466 15.8868C12.2466 16.4949 12.2213 18.1081 10.8868 20.0591Z" fill="black"/>
</svg>
