<svg width="22.896038055419922" height="20.102806091308594" viewBox="0 0 22.896038055419922 20.102806091308594" fill="none" xmlns="http://www.w3.org/2000/svg"><path d="M 9.976225852966309 0.385841429233551 C 10.425515174865723 0.13288795948028564 10.932415962219238 0 11.448019027709961 0 C 11.963622093200684 0 12.4705228805542 0.13288795948028564 12.919812202453613 0.385841429233551 C 13.369101524353027 0.638795018196106 13.745613098144531 1.0032756328582764 14.013018608093262 1.4441159963607788 L 14.015899658203125 1.4488649368286133 L 22.48588752746582 15.588872909545898 L 22.494009017944336 15.602684020996094 C 22.755956649780273 16.056316375732422 22.894559860229492 16.570632934570312 22.896026611328125 17.094463348388672 C 22.897493362426758 17.61829376220703 22.76177406311035 18.133378982543945 22.502370834350586 18.588472366333008 C 22.242965698242188 19.04356575012207 21.868921279907227 19.422805786132812 21.417448043823242 19.688461303710938 C 20.96597671508789 19.954113006591797 20.45281410217285 20.096927642822266 19.92900848388672 20.102684020996094 L 19.918018341064453 20.102806091308594 L 2.9670276641845703 20.102745056152344 C 2.443222999572754 20.096988677978516 1.9300603866577148 19.954113006591797 1.4785901308059692 19.688461303710938 C 1.0271159410476685 19.422805786132812 0.6530712246894836 19.04356575012207 0.39366814494132996 18.588472366333008 C 0.13426461815834045 18.133378982543945 -0.0014549288634952973 17.61829376220703 0.000011762630492739845 17.094463348388672 C 0.0014785137291255523 16.570632934570312 0.14008083939552307 16.056316375732422 0.4020284116268158 15.602684020996094 L 0.41015151143074036 15.588872909545898 L 8.880151748657227 1.4488729238510132 L 9.73799991607666 1.9627325534820557 L 8.88301944732666 1.4441159963607788 C 9.15042495727539 1.0032756328582764 9.526936531066895 0.638795018196106 9.976225852966309 0.385841429233551 Z M 10.594228744506836 2.479381799697876 L 2.1307060718536377 16.608570098876953 C 2.0455284118652344 16.75836944580078 2.0004868507385254 16.927669525146484 2.0000040531158447 17.10006332397461 C 1.9995150566101074 17.274673461914062 2.044754981994629 17.446369171142578 2.131222724914551 17.598066329956055 C 2.217690944671631 17.749765396118164 2.3423731327056885 17.876178741455078 2.492863416671753 17.96472930908203 C 2.6420376300811768 18.052507400512695 2.811413526535034 18.10004997253418 2.9844157695770264 18.102745056152344 L 19.91162109375 18.102745056152344 C 20.084623336791992 18.10004997253418 20.253999710083008 18.052507400512695 20.403173446655273 17.96472930908203 C 20.553665161132812 17.876178741455078 20.678346633911133 17.74976348876953 20.764814376831055 17.598066329956055 C 20.85128402709961 17.446367263793945 20.896522521972656 17.274673461914062 20.896034240722656 17.10006332397461 C 20.895551681518555 16.927688598632812 20.850521087646484 16.758407592773438 20.765363693237305 16.60862159729004 L 12.303019523620605 2.4813718795776367 L 12.301809310913086 2.479381799697876 C 12.212749481201172 2.3333280086517334 12.087703704833984 2.212550640106201 11.938616752624512 2.1286139488220215 C 11.788853645324707 2.0442957878112793 11.61988639831543 2 11.448019027709961 2 C 11.276151657104492 2 11.107184410095215 2.0442957878112793 10.95742130279541 2.1286139488220215 C 10.808334350585938 2.212550640106201 10.68328857421875 2.3333280086517334 10.594228744506836 2.479381799697876 Z" fill="black" fill-rule="evenodd" clip-rule="evenodd" stroke="none" /><path d="M 11.448019027709961 6.102744102478027 C 12.000303745269775 6.102744102478027 12.448019027709961 6.550459325313568 12.448019027709961 7.102744102478027 L 12.448019027709961 11.102744102478027 C 12.448019027709961 11.655028820037842 12.000303745269775 12.102744102478027 11.448019027709961 12.102744102478027 C 10.895734250545502 12.102744102478027 10.448019027709961 11.655028820037842 10.448019027709961 11.102744102478027 L 10.448019027709961 7.102744102478027 C 10.448019027709961 6.550459325313568 10.895734250545502 6.102744102478027 11.448019027709961 6.102744102478027 Z" fill="black" fill-rule="evenodd" clip-rule="evenodd" stroke="none" /><path d="M 10.448019027709961 15.102744102478027 C 10.448019027709961 14.550459325313568 10.895734250545502 14.102744102478027 11.448019027709961 14.102744102478027 L 11.458019256591797 14.102744102478027 C 12.010303974151611 14.102744102478027 12.458019256591797 14.550459325313568 12.458019256591797 15.102744102478027 C 12.458019256591797 15.655028820037842 12.010303974151611 16.102745056152344 11.458019256591797 16.102745056152344 L 11.448019027709961 16.102745056152344 C 10.895734250545502 16.102745056152344 10.448019027709961 15.655028820037842 10.448019027709961 15.102744102478027 Z" fill="black" fill-rule="evenodd" clip-rule="evenodd" stroke="none" /></svg>