<svg width="19" height="20" viewBox="0 0 19 20" fill="none" xmlns="http://www.w3.org/2000/svg">
<path d="M2.60767 16.3846C2.39486 16.3846 2.21666 16.3128 2.07307 16.1692C1.92947 16.0256 1.85767 15.8474 1.85767 15.6346C1.85767 15.4218 1.92947 15.2436 2.07307 15.1C2.21666 14.9564 2.39486 14.8846 2.60767 14.8846H3.66537V7.42305C3.66537 6.07818 4.08043 4.88908 4.91055 3.85575C5.74068 2.82242 6.80639 2.16153 8.10767 1.87308V1.25C8.10767 0.90385 8.22946 0.608984 8.47305 0.365401C8.71663 0.121801 9.0115 0 9.35765 0C9.7038 0 9.99866 0.121801 10.2422 0.365401C10.4858 0.608984 10.6076 0.90385 10.6076 1.25V1.87308C11.9089 2.16153 12.9746 2.82242 13.8047 3.85575C14.6349 4.88908 15.0499 6.07818 15.0499 7.42305V14.8846H16.1076C16.3204 14.8846 16.4986 14.9564 16.6422 15.1C16.7858 15.2436 16.8576 15.4218 16.8576 15.6346C16.8576 15.8474 16.7858 16.0256 16.6422 16.1692C16.4986 16.3128 16.3204 16.3846 16.1076 16.3846H2.60767ZM9.35765 19.1923C8.85893 19.1923 8.43297 19.0157 8.07977 18.6625C7.72657 18.3093 7.54997 17.8833 7.54997 17.3846H11.1653C11.1653 17.8833 10.9887 18.3093 10.6355 18.6625C10.2823 19.0157 9.85636 19.1923 9.35765 19.1923ZM0.723048 7.41343C0.510248 7.41343 0.332048 7.33234 0.188448 7.17018C0.0448644 7.00799 -0.016669 6.81729 0.00384765 6.59808C0.111531 5.35448 0.445506 4.19998 1.00577 3.1346C1.56602 2.06922 2.29102 1.14935 3.18077 0.375C3.34616 0.230133 3.53429 0.162826 3.74517 0.173076C3.95607 0.183326 4.12562 0.276276 4.25382 0.451926C4.38202 0.627559 4.42946 0.81665 4.39612 1.0192C4.36279 1.22177 4.26343 1.39741 4.09805 1.54613C3.38395 2.18203 2.80414 2.93395 2.35862 3.8019C1.91311 4.66985 1.6365 5.61088 1.5288 6.62498C1.50188 6.84421 1.41567 7.03043 1.27017 7.18363C1.12466 7.33683 0.942281 7.41343 0.723048 7.41343ZM17.9922 7.41343C17.773 7.41343 17.5906 7.33683 17.4451 7.18363C17.2996 7.03043 17.2134 6.84421 17.1865 6.62498C17.0788 5.61088 16.8022 4.66985 16.3567 3.8019C15.9112 2.93395 15.3313 2.18203 14.6172 1.54613C14.4519 1.39741 14.3525 1.22177 14.3192 1.0192C14.2858 0.81665 14.3333 0.627559 14.4615 0.451926C14.5897 0.276276 14.7592 0.183326 14.9701 0.173076C15.181 0.162826 15.3691 0.230133 15.5345 0.375C16.4243 1.14935 17.1493 2.06922 17.7095 3.1346C18.2698 4.19998 18.6038 5.35448 18.7114 6.59808C18.732 6.81729 18.6704 7.00799 18.5268 7.17018C18.3832 7.33234 18.205 7.41343 17.9922 7.41343Z" fill="black"/>
</svg>
