<svg width="10.153879165649414" height="15.567399978637695" viewBox="0 0 10.153879165649414 15.567399978637695" fill="none" xmlns="http://www.w3.org/2000/svg">
<path d="M6.04818 15.5674C4.78258 15.5674 3.69368 15.2486 2.78128 14.6109C1.8689 13.9572 1.17726 13.0486 0.70636 11.8848C0.23546 10.7051 0 9.342 0 7.7957C0 6.2333 0.26489 4.87029 0.79465 3.70652C1.32442 2.52681 2.06021 1.61812 3.00201 0.98043C3.95858 0.32681 5.04748 0 6.26888 0C7.44618 0 8.64548 0.29493 9.86688 0.88478L9.69028 3.89783C9.11638 3.5471 8.59398 3.29203 8.12308 3.13261C7.66688 2.97319 7.19598 2.89348 6.71038 2.89348C5.70968 2.89348 4.94448 3.31594 4.41468 4.16087C3.89968 5.0058 3.64218 6.1536 3.64218 7.6043C3.64218 9.2464 3.90698 10.5058 4.43678 11.3826C4.98128 12.2435 5.74648 12.6739 6.73248 12.6739C7.70368 12.6739 8.77058 12.2833 9.93308 11.5022L10.1539 14.3717C9.62408 14.7225 8.99128 15.0094 8.25548 15.2326C7.51978 15.4558 6.78398 15.5674 6.04818 15.5674Z" fill="black"/>
</svg>
