<svg width="17.44775390625" height="19.083194732666016" viewBox="0 0 17.44775390625 19.083194732666016" fill="none" xmlns="http://www.w3.org/2000/svg">
<path d="M3.96247 4.61031L1.39179 0.361843C1.17735 0.00745508 0.716231 -0.106 0.361843 0.108435C0.00745508 0.322869 -0.106 0.78399 0.108435 1.13838L2.67911 5.38685C2.71545 5.44689 2.75886 5.50002 2.80764 5.54581C3.17161 5.21266 3.56385 4.90988 3.98034 4.64149C3.97466 4.63101 3.9687 4.62062 3.96247 4.61031Z" fill="black"/>
<path d="M7.78224 3.30098C7.36203 3.34544 6.95069 3.41965 6.55037 3.52145L5.10841 1.13838C4.89398 0.783991 5.00743 0.322869 5.36182 0.108435C5.71621 -0.106 6.17733 0.00745511 6.39176 0.361843L7.98601 2.99659L7.78224 3.30098Z" fill="black"/>
<path d="M10.8946 3.52604C10.3785 3.39361 9.84396 3.30709 9.29565 3.27107L11.056 0.361843C11.2704 0.00745508 11.7315 -0.106 12.0859 0.108435C12.4403 0.322869 12.5538 0.783991 12.3393 1.13838L10.8946 3.52604Z" fill="black"/>
<path d="M14.6298 5.55534C14.2674 5.22256 13.8768 4.91994 13.4621 4.65146C13.4694 4.6376 13.4771 4.62388 13.4853 4.61031L16.056 0.361843C16.2704 0.00745508 16.7315 -0.106 17.0859 0.108435C17.4403 0.322869 17.5538 0.783991 17.3393 1.13838L14.7686 5.38685C14.7298 5.45111 14.6828 5.50744 14.6298 5.55534Z" fill="black"/>
<path d="M7.18109 12.5804L6.81833 14.6955L8.71778 13.6969L10.6172 14.6955L10.2545 12.5804L11.7912 11.0825L9.66751 10.7739L8.71778 8.84958L7.76805 10.7739L5.6444 11.0825L7.18109 12.5804Z" fill="black"/>
<path fill-rule="evenodd" clip-rule="evenodd" d="M15.7199 12.0811C15.7199 15.9483 12.5849 19.0832 8.71778 19.0832C4.85064 19.0832 1.71571 15.9483 1.71571 12.0811C1.71571 8.21398 4.85064 5.07904 8.71778 5.07904C12.5849 5.07904 15.7199 8.21398 15.7199 12.0811ZM3.21571 12.0811C3.21571 15.1198 5.67907 17.5832 8.71778 17.5832C11.7565 17.5832 14.2199 15.1198 14.2199 12.0811C14.2199 9.04241 11.7565 6.57904 8.71778 6.57904C5.67907 6.57904 3.21571 9.04241 3.21571 12.0811Z" fill="black"/>
</svg>
