<svg width="829.06005859375" height="865.6521606445312" viewBox="0 0 829.06005859375 865.6521606445312" fill="none" xmlns="http://www.w3.org/2000/svg"><path d="M 828.691734551072 306.2359563823828 C 827.5716894441573 304.5838384888591 820.3268145347482 293.9966188866043 813.7771255372215 287.2089231227744 C 807.2274365396948 280.42448637510734 801.5467217673632 275.1096701072436 794.0861917103158 271.48609000149514 C 793.8254915555702 285.29935974345125 791.8268107064148 299.7024514796984 789.158657434803 313.0888428024309 C 783.5970543036615 340.9532615339355 775.4831528642181 363.4670168863778 773.3363997426316 369.0131799033618 C 760.9354408639493 321.1571541913041 740.3690975306287 271.89667643979317 717.6527803733649 232.1220188471835 C 697.2151763436539 223.14779189511162 680.4016720419463 217.23667021605328 645.9377574377195 208.9532699602114 C 611.6154547407064 200.70897324849048 576.7781948292546 196.749748447584 567.154818854951 195.7069915333716 C 576.7363540197758 188.5608484233678 586.3854486661496 181.50921884867802 596.1536585257513 174.62376499951782 C 617.3057742123575 159.43861788029403 638.9471243590032 144.97036132023328 660.7107586266852 130.6943681144474 L 664.4442280282499 128.2471424988809 L 662.2234411066243 124.47041188264421 C 657.5855531694808 117.03751048238283 639.5521887780881 90.03988155408805 613.8490846690515 65.13102676200117 C 588.145980560015 40.22217196991428 566.8168504996828 28.575878544251136 560.4924580900741 25.1347808694284 C 568.6835923445408 28.051241523049192 621.7795229308344 45.00581871810389 686.0340653076703 93.00196352583141 C 751.6017622571264 141.98221135237213 791.1284252692569 207.93658401284333 795.38652777019 214.5450555869382 C 795.8693058357148 215.30105434005503 796.6996508961206 215.64321093234264 797.2403623116483 215.31734942086914 C 797.7810737271759 214.98822928071888 797.8711882672569 214.08558235625364 797.4399065482826 213.30025607420808 C 793.9606861214861 206.97202527469327 762.2067791210643 143.18463745520853 690.9938009935468 87.81750325464748 C 619.7840397412025 32.44711210451597 540.0130203949598 14.05874784968212 527.7665501094243 10.95980476513561 C 505.4074898011903 5.296331632436798 496.8301065081369 4.872711712727956 496.8301065081369 4.872711712727956 C 496.8301065081369 4.872711712727956 510.37366536090667 8.147619454198598 526.714093060361 13.93166171877504 C 536.7430024846842 17.480293752444368 546.4983428024284 21.801218070100354 555.7419335956672 27.08669182624074 C 562.4493301026783 30.902530378107176 582.5940561204043 42.23273488469548 608.6286677889336 68.9761905178799 C 634.6600605411252 95.71964615106432 648.2518421591724 119.02200695099052 652.0368221316523 125.32742773725417 C 631.2741463339595 138.62257797368585 610.627322948121 152.11324644737044 590.4150144857458 166.2556365232198 C 577.2448295165033 175.3048115473708 564.2806766250995 184.65052087697168 551.4130320300573 194.1330913193757 C 516.5242694572024 191.304613252541 478.84503300588494 190.03049567200037 448.6520937613408 190.41175364494504 C 419.8238076684911 190.8060461003062 390.866760839805 192.45816212098057 362.27664393847743 194.84672699556066 C 356.8856224512977 185.54989774192114 342.6308116812595 161.48828072265957 323.78315637057875 136.5533558678625 C 307.7452690453246 115.33651173792565 290.3394953638872 98.7403839556372 287.2368417121089 95.89887137409553 C 305.57918839270627 67.34036693019812 326.901902562881 41.65596135460985 355.66581849363473 25.128264903695133 C 381.716522702688 10.158185985516434 400.7926884147133 6.241330073832856 427.9344705453889 2.357060707240796 C 428.813126587648 2.23323332609986 429.48256991155085 1.6466826264363892 429.42141802394207 1.0145112463878518 C 429.3570476146739 0.37908123766256696 428.58781800788887 -0.06409037943496418 427.702724898391 0.007599152766300646 C 412.72694933004885 1.21980398319744 382.51472006086976 4.230764059163107 352.5599500078477 21.22444299007045 C 321.8423906763585 38.65151837252699 300.07873599703186 63.2670947754383 281.20211452164085 90.5840669891379 C 277.3044862552019 87.26679668738348 273.3231947402854 84.04403113792551 269.1552109255486 81.04936365438684 C 262.2579218280051 76.12233724442034 256.9022977044266 72.57696267696954 247.22098838012025 68.17131478869027 C 237.53967905581388 63.76566690041099 227.85192832679436 62.397047013579694 223.94142618102356 62.49806409085492 C 223.05311453790637 62.520874398756945 222.39332188337642 63.097650346594186 222.46412932799012 63.73308035531947 C 222.53493677260383 64.365251735368 223.31703225352888 64.82471600543724 224.19890682940735 64.93876754091106 C 227.34018262947228 65.34283585001194 236.91528991229836 67.57172504557639 245.3606874296844 72.11749357946974 C 253.80286654102383 76.66000309720027 259.25825308738837 80.64528853198924 265.5923012254279 85.81671118857763 C 269.6926962168766 89.17960203348247 273.58388639549463 92.7901502077644 277.381740502452 96.50171290029895 C 275.08693534466624 100.1089999918257 260.1208190767927 124.28792764345019 246.51613347223812 154.94172115599255 C 233.26548477979347 184.80367087081183 221.3891383336896 221.03295079608216 217.3949545689612 233.96639467017712 C 198.61810725305176 242.51374268637736 177.1216226297532 253.7201224031378 159.2942372459234 263.7827264250864 C 140.63003771368187 274.3895189819734 117.3311558930657 289.5257891251245 98.23889355818748 303.8832484353151 C 84.65995622258772 296.0430201295666 75.77362789158096 290.38933231172575 71.29666586996852 287.433768372308 C 69.28187211648427 286.104253297 68.16504496911135 284.94417632159707 67.16086662598858 283.11935175401584 C 66.02794751216919 281.0696827118732 63.420942296996245 272.7634734760763 64.4766169866695 259.02189279003653 C 65.5355102099621 245.28357112015956 66.54612938372054 238.91623884311616 68.39034162081578 228.55058351668822 C 70.26030199929305 218.1881872064231 72.4295838356329 207.36631611552914 75.05267789171927 197.19617799305794 L 78.46752968729308 184.77108070918365 L 71.05849463728197 195.72980671310367 C 59.92241373023038 212.2021071223238 49.716482277814514 229.47277556136976 40.93314038884256 247.39841841896617 C 32.1079576903918 265.31428422807414 24.589495814214917 283.8851110228822 18.451777589092025 302.9089079988438 C 12.371992713971926 321.9457389728643 7.624674633770524 341.43227284550613 4.560643130278939 361.1957734937705 C 1.4805190862633695 380.4020526423338 0.061151887608795766 399.8592347035866 0 419.30339103315 C 0 420.2027688668146 0.5085262069068992 420.9327255207993 1.1393561810580912 420.9327255207993 C 1.7701861552092832 420.9327255207993 2.288368002840734 420.2027688668146 2.298023563832299 419.30339103315 C 2.5426311142674822 399.9895788173603 4.135798478543267 380.68881919896086 7.373630032043232 361.6617652734288 C 10.60180585711236 342.0840037473365 15.493956802029633 322.8060179768218 21.699264105586156 303.99729126849763 C 27.965723165192045 285.2015985582324 35.59040060556369 266.8751587103806 44.49604600663438 249.21672211265724 C 51.319309213651074 235.63155456980516 58.93754524930955 222.51236537376096 67.19626858220978 209.7679206712971 C 65.71574924080086 215.64972102120385 64.32856788464429 221.54781025214754 63.08943754410459 227.50130017461868 C 60.942684422517985 237.97448960156916 59.932069713806776 244.21474504737114 58.41614663015775 258.53635931295554 C 56.874475405126674 273.0534907824967 59.34951768015949 283.3148593999829 60.723825922420886 286.01625133591045 C 62.13997484658831 288.79585010175595 63.95199843059778 291.0899370897403 66.96775205737185 293.28298527701173 C 69.98350568414592 295.47603346428315 82.70309645697016 303.870207720831 91.1613681088336 309.3609746961204 C 79.874017524973 318.23744252956584 68.98576562020325 327.6450814326297 58.88283030535334 337.9194956727568 C 44.22246975597995 352.92216061937893 30.843080229052283 369.8017915506228 22.574701167721212 389.3697760282266 C 22.223882438405514 390.19746428932683 22.42021340379756 391.0772647768505 22.999547095184663 391.32817815166385 C 23.578880786571766 391.5790915264772 24.348105824656653 391.12290908581315 24.7311097625931 390.3115139035156 C 33.591696458429524 371.54840722169376 47.33478015677127 355.6105193322198 62.30733680877576 341.5072322838433 C 73.25674302105044 331.25888707313015 85.0397465065636 321.9555439203497 97.25403171105113 313.2648172756688 C 130.01534981257987 334.24378215801323 163.97396191021673 353.2903881139298 198.52799800724105 371.0628758112052 C 196.38124488565444 401.22461781434095 195.88880155563356 431.11589454144087 196.37479812288458 461.1407764650696 C 196.93803920996132 492.61574078761566 199.2328480673576 530.7415139287839 203.07576138984032 564.1716482243052 C 173.61986213422628 609.2220061411034 134.84312829909118 678.5848808899642 134.84312829909118 678.5848808899642 C 134.84312829909118 678.5848808899642 101.53144694457369 660.470235760848 68.86668408618887 621.7350741288576 C 41.171315703858006 588.8914904119105 25.339410447913547 558.3974114238622 11.754036300220642 527.535065676008 C 9.101975569132875 521.5066271648096 6.533596457002725 515.4618827231873 3.9780912242044284 509.3845651693238 C 5.970355369925995 520.6658914082191 7.518463407050216 528.9786052434912 7.518463407050216 528.9786052434912 C 15.165667648583431 571.0994651503971 29.256352977815283 611.8843350897852 48.49666709374706 650.0264260442835 C 67.65329959072122 688.2108780091214 92.57751983960213 723.5277367384216 122.39711173575692 754.0088230602584 C 152.1265841802787 784.6104785139728 187.32109889959588 809.6105795588414 225.2867658346919 828.4551513117718 C 244.32109584014955 837.8106356232688 264.1182212475677 845.4683590238996 284.27581425569554 851.7868138082221 C 303.9828140879873 857.7631142605925 324.0599484758242 862.3838672902555 344.3269703512823 865.622930762092 C 345.2056263935414 865.7663098264945 346.0070230138797 865.3687307304428 346.1132341847869 864.7398179790711 C 346.22266388134017 864.1109052276993 345.6047116137042 863.4592009655361 344.7324925748974 863.2799771309966 C 324.46868757461255 859.1415357609144 304.4205458866238 853.8625740956467 284.8583789190479 847.2475850058743 C 265.2897741187966 840.6325959161019 246.2071522036158 832.6782855119158 227.8680223981917 823.17942205529 C 190.578246247432 804.2761942112061 156.53917348833966 779.0805873286387 127.25707530331621 749.133913526548 C 97.85267258561183 719.2426347328558 73.67515111583852 684.3396379907555 54.29000209402642 646.9959088663059 C 44.6022559576269 628.3044922736965 36.311346523096475 608.8733410098988 29.163012568680152 589.0251162743631 C 24.760076437594496 576.7792400803353 20.89141612188473 564.3215733007564 17.557029070095297 551.727025775747 C 21.44178320205683 559.8507538722384 32.7581012263555 586.6463196652538 63.91981590100537 625.6519445066878 C 95.68983024039346 665.4168271174013 125.34205583688635 682.270387469287 137.81382271033988 688.6833423560732 C 148.44137709155262 671.165026920612 181.46340394304283 613.5299026604775 204.88457600818882 579.5164768025451 C 207.92285924272556 602.7047839196788 211.86876564102758 625.7822700211302 216.79953873423153 648.6512328195629 C 223.5809611317694 679.4027844174356 238.80454886278673 729.4714423793309 244.33074850683371 740.7951306618619 C 259.71527644153315 746.6280519691035 291.78141067234395 756.5537860952314 324.2273137549039 762.3834489029583 C 356.6699999622906 768.2163702101999 373.17779089966024 770.1096279174232 397.8284379596334 772.2114347600697 C 391.7937123000387 774.4989827914807 377.6740414150343 780.416657893259 349.63429184902435 788.7130921471597 C 321.5977611993521 797.0095264010605 296.5769897896561 802.86199612215 281.13131060919847 806.120611366047 C 285.2027389256458 811.2920340226353 294.626559181765 820.347710029725 304.9451353561021 827.4971121558916 C 315.8398271347117 835.0473236718678 327.59065855160026 840.5836840662829 329.57970416370244 841.5221652503254 C 330.3843342516484 841.9001646268839 331.2565540239987 841.737269939642 331.52690973176254 841.1604950533551 C 331.79404692185364 840.5837201670682 331.3692140227601 839.7821059727008 330.57745800550515 839.371520438537 C 328.6560013442638 838.3711255679602 317.37186291538364 832.4371601643628 307.61974661688816 825.2258444808241 C 298.4051230089418 818.4120796875802 290.6806772774364 810.307879339013 289.59603591276175 809.1021916367733 C 301.208457244022 806.8407126347763 327.4136286139953 800.9165649657045 352.8270649524356 793.5162495938865 C 378.90673532619917 785.9269345337893 404.1656871538217 776.8484332723299 413.1646699022808 773.3975595823149 C 463.3510578333753 776.8875365581268 513.7466651205971 775.8643558275973 563.7560351059277 771.3446563231179 C 564.6443467490449 771.266449557781 565.3138128207687 770.6831739468796 565.2623164941515 770.051002566831 C 565.2076016458749 769.4155725581057 564.4480030582682 768.9560869520848 563.5596914151511 769.0245178717546 C 516.6079163763644 772.5959601769991 469.40832356170046 773.104313225321 422.50160926931255 769.6860258220735 C 423.80511002709375 769.1646473649673 448.93531757576824 760.7867004437525 492.65247972224705 736.0766208384889 C 537.2482978471986 710.871230707656 558.5291854960456 688.3444563399495 562.137146757325 685.2357372402107 C 561.1007832055815 681.1494336706324 555.2945501509288 662.9891886642896 545.825662769772 637.8196435780629 C 536.3567753886151 612.6468415422657 524.2615548785353 584.5510342131456 520.5666935922517 575.9645831694725 C 520.2126563612098 575.140153537049 519.4498718667219 574.66439478354 518.8641011718825 574.8990150795507 C 518.278330477043 575.1401526167696 518.0562659135655 576.0134837821954 518.3588068299501 576.8607237507752 C 521.6771013412156 586.027208890641 532.0954496338699 615.468756886715 539.9261096538423 640.2668195954127 C 547.1001913669223 662.9826272335243 550.6695062410872 678.1906424889096 551.8893255074836 682.1987392285699 C 547.518574967737 686.1416636530194 531.9795870161932 702.6367694256579 489.0316499396925 729.0087426813134 C 456.61149410550513 748.9221415403284 418.70374725284296 763.8237785358475 407.5676663457914 768.4542706403641 C 388.9324329782602 766.8184457610621 361.0954669768667 763.4294928614925 325.4085111281591 756.2800907353259 C 289.48338812909384 749.0883265655235 261.936064383741 739.4330194834728 250.34939132143558 734.7340963059064 C 239.69287077551255 706.1951438923935 231.8010528759974 676.6362744143468 225.63436797587312 646.7352206387584 C 220.28840570421877 620.1872811762346 216.33928651307244 593.3428063749647 213.54882921907083 566.3679895265134 C 215.6119007216998 563.2918567135421 241.69799948775318 524.5208415122519 268.353784445207 489.12250324569663 C 291.8425455887866 457.9245201649197 316.13595085331775 429.7048929541284 319.76000491026673 425.70331347182156 C 319.76000491026673 425.70331347182156 395.42420750655526 466.2991377412502 476.7851857776503 500.3940286702913 C 571.1007081585008 539.9177730172496 624.7856274629622 556.9049680146053 667.2379126583926 567.1500542091557 C 694.9976512028194 532.3578185515589 717.1539626462326 498.05437125402136 735.8535661758598 465.5692359165443 C 754.553169705487 433.08410057906724 766.8189463449729 402.84089247152673 772.0876643200539 389.1090878006792 C 773.5359984528421 394.8996470642851 774.9134998417401 400.70649727552035 776.1622857831378 406.5459360984395 C 782.4705856522226 436.1863016464804 786.2008361215029 466.445776935838 786.445443671938 496.7997781600639 C 786.6932697400459 526.5998148341591 783.5455735847763 556.4813413784714 776.477702843271 585.4699822244589 C 776.2652805014566 586.3432910932906 776.5839080102844 587.1872868024686 777.1922083766729 587.3502175582054 C 777.8005087430613 587.5098897014107 778.4860428653224 586.936335357149 778.7145578114472 586.066285052413 C 786.3778545935044 557.0092131333757 790.127433726025 526.9126390539421 790.4331931760289 496.8062920592048 C 790.7647007674149 466.13946454860354 787.5687398435306 435.47592291986587 781.7496550434231 405.37935297361696 C 780.0213096339062 396.509402139201 778.0418685935508 387.6948318470368 775.8758042702481 378.92263909795116 C 778.0161203245959 372.97240767499477 787.8938014056903 346.1442274378909 793.9381827937158 314.0436084760017 C 796.0495321730623 302.8339723263189 797.7102947552116 290.82598674614155 798.3346877259105 279.1210411041855 C 802.570260619081 281.8419848121736 804.6139734629203 283.4158788263924 810.8224991725234 289.27812766256267 C 817.0342432881731 295.1468940144105 825.4410184021268 305.85472291793207 826.7638302340514 307.6111165416256 C 827.3013231159597 308.3280118797835 828.1478357296829 308.6147593527217 828.6627990038286 308.246535829903 C 829.1809807797003 307.88157090347056 829.1938237226334 306.9789206853737 828.691734551072 306.2359563823828 Z" fill="black" fill-rule="evenodd" clip-rule="evenodd" stroke="none" /></svg>