<svg width="664.518310546875" height="455.38494873046875" viewBox="0 0 664.518310546875 455.38494873046875" fill="none" xmlns="http://www.w3.org/2000/svg"><path d="M 625.1815725005339 359.2655598094179 C 604.6023500638588 394.3901721790583 583.060793999038 425.4610852754459 559.0184437795713 455.38494873046875 C 506.29585383810394 440.1183372376125 464.4357626849654 426.0867336864283 375.5434405125763 387.57641906336806 C 297.5007496263115 353.7650289531416 212.05867344635666 307.20267772396704 212.05867344635666 307.20267772396704 C 212.05867344635666 307.20267772396704 184.15732584066507 337.24386575549113 154.66923804006584 378.4914149091145 C 130.8650590812635 411.78794455350146 106.96110391009448 447.9683293170095 106.96110391009448 447.9683293170095 C 106.96110391009448 447.9683293170095 103.05381549350987 388.41063623287255 102.92829318587454 358.57475587726424 C 102.84139312674239 327.4712753532524 103.5816503568685 294.4321728418967 106.99006395471332 260.8716959658583 C 76.49136081639575 247.18225396406746 33.417901354572 224.9813078295981 0 205.43939224091136 C 18.90559190208741 192.9491203708969 40.19288824615903 180.23073804583052 59.0083606860272 170.5559098576404 C 77.81095950019682 160.94625372335963 99.8578283367886 150.50890878456363 122.99899209872164 140.99701073114696 C 127.82033638066292 122.50762918623661 138.2805205880504 87.1875047880526 150.4722768514924 56.941040079496766 C 162.7251853884584 26.541420217616967 176.09814911458767 4.076527626468276 178.27708757318004 0 C 180.76500401979786 2.6264437438557886 196.4649365707353 19.35943135782976 210.59746079754214 40.12332709050197 C 228.97843255105786 67.14376273098979 250.1788446789436 106.15916697162456 250.1788446789436 106.15916697162456 C 250.1788446789436 106.15916697162456 297.3012135308957 101.04965681422306 343.09754382445044 99.66148674447813 C 381.967618552422 98.48512662491079 419.22197262922015 100.90302104912813 432.81378620620563 101.76003680000312 C 423.44789080066533 108.64223183522606 400.876411000743 126.09536563341243 374.05325965448424 147.9476383862374 C 347.22688939150964 169.8064291710902 318.0799577748337 195.57882287244257 298.1669694517438 215.17613346699693 C 307.42021706038355 232.518483969873 354.76144469328744 324.06276412091967 354.76144469328744 324.06276412091967 C 355.1766338567233 324.861124816617 355.9748300329406 325.28472132250187 356.5445081903892 325.0142562687108 C 357.1141863478378 324.7437912149198 357.3008786058022 323.85095811018357 356.95649687137785 323.02001125836955 L 313.63517674010734 217.88730413581774 C 328.96820993805375 202.50338253260617 355.2216905898723 178.60143049831913 380.67375283186516 157.42369139668546 C 409.32502434458826 133.58692174926918 436.36705692461044 112.74482409840873 449.2186104887883 102.98201281080402 C 461.7290007249664 104.02802824132351 504.4355322574934 107.80476339942871 537.8115917770892 115.8861290830761 C 572.0083750421469 124.16952896047948 582.3334065913465 127.48353699477754 606.3628831851146 137.07690011558094 C 628.7348217867094 173.86340812627967 647.7787842431181 218.26204344579668 664.518310546875 276.9138582067838 C 658.4095582791642 293.04074453110997 645.760794937209 324.14094743977745 625.1815725005339 359.2655598094179 Z" fill="black" fill-rule="evenodd" clip-rule="evenodd" stroke="none" /></svg>