<svg width="167.99998474121094" height="35.60811996459961" viewBox="0 0 167.99998474121094 35.60811996459961" fill="none" xmlns="http://www.w3.org/2000/svg">
<path d="M151.91 0.077777C153.94 0.077777 154.614 1.14188 155.05 2.37492L168 35.4147L160.602 35.4172L158.052 28.9175H149.62L151.925 22.4106H155.503L150.967 10.8434L142.265 35.4172L135.365 35.4147L147.068 2.37492C147.503 1.14315 148.175 0.077777 150.208 0.077777H151.91ZM119.921 20.9413H135.902V14.5341H119.92L119.921 11.1802C119.921 7.48109 121.209 6.57115 124.529 6.57115H137.382V0.0680619H124.139C118.003 0.0680619 113.028 2.82176 113.028 10.4394V32.8164C113.028 34.4621 114.113 35.4098 115.62 35.4098H119.933L119.921 20.9413ZM108.251 6.57115V0.0674304H86.4898C84.9837 0.0674304 83.8964 1.01581 83.8964 2.65895V25.0383C83.8964 32.6572 88.8714 35.4098 95.0087 35.4098H108.251V28.9053H95.3967C92.0785 28.9053 90.7901 27.9968 90.7901 24.2987V20.9413H106.77V14.5341H90.7901V6.57115H108.251ZM56.6833 26.493C54.9422 24.7175 54.3838 22.9422 54.391 19.1926L54.3862 0.0674304H47.4924V20.9852C47.4996 25.3544 48.7854 28.7363 51.424 31.3152C54.4007 34.2319 58.0498 35.5961 62.7469 35.6081C67.4415 35.5961 71.0931 34.2319 74.0698 31.3152C76.7085 28.7363 77.9932 25.3544 77.9991 20.9829V0.0674304H71.1067L71.1029 19.1926C71.1103 22.9422 70.5519 24.7175 68.8093 26.493C67.3879 27.9626 65.1385 28.7708 62.7469 28.7657C60.3543 28.7682 58.1062 27.9626 56.6833 26.493Z" fill="white"/>
<path d="M39.0396 0H34.8222L33.9435 2.48087H33.9351L30.7119 11.5814L27.5716 3.99266L26.007 0L21.4615 0.00147901L28.4725 17.8893L25.4808 26.3363L25.2461 26.9856H28.04C29.2863 26.9856 29.6998 26.3314 29.9676 25.5746L33.7769 14.8195C33.7843 14.7992 33.7955 14.7815 33.8029 14.761L34.6474 12.3765C34.66 12.3433 34.678 12.3137 34.69 12.2799L39.0396 0Z" fill="white"/>
<path d="M17.0835 0H14.2147V0.00696812L14.205 0L11.8506 6.64711H11.8451L9.21307 14.0783L6.58122 6.64711H6.57552L4.22115 0L4.20742 0.0101356V0H1.33842C0.599311 0 0 0.599099 0 1.33821V26.9856H4.20742V11.8667L4.35334 12.2799C4.36115 12.3019 4.37319 12.3207 4.38122 12.3425L6.71342 18.927C6.71384 18.929 6.71489 18.9302 6.71553 18.9319L7.299 20.5795C7.93738 22.3814 10.4856 22.3818 11.1246 20.5799L11.703 18.949C11.7058 18.9416 11.7102 18.9349 11.7127 18.927L14.0449 12.3425C14.053 12.3207 14.065 12.3019 14.0728 12.2799L14.2147 11.8781V26.9856H18.4219V1.33821C18.4219 0.599099 17.8228 0 17.0835 0Z" fill="white"/>
<path d="M8.78459e-05 31.4005V35.6081H37.6067L39.0972 31.4005H8.78459e-05Z" fill="white"/>
</svg>
