<svg width="829.0599975585938" height="865.6521606445312" viewBox="0 0 829.0599975585938 865.6521606445312" fill="none" xmlns="http://www.w3.org/2000/svg"><path d="M 828.6916735430319 306.2359563823828 C 827.5716285185746 304.5838384888591 820.326754142531 293.9966188866043 813.7770656271904 287.2089231227744 C 807.2273771118498 280.42448637510734 801.5466627577309 275.1096701072436 794.0861332499255 271.48609000149514 C 793.8254331143727 285.29935974345125 791.8267524123594 299.7024514796984 789.1585993371763 313.0888428024309 C 783.5969966154784 340.9532615339355 775.483095773378 363.4670168863778 773.3363428098347 369.0131799033618 C 760.9353848441074 321.1571541913041 740.3690430248748 271.89667643979317 717.6527275399795 232.1220188471835 C 697.2151250148789 223.14779189511162 680.4016219509766 217.23667021605328 645.937709883973 208.9532699602114 C 611.6154097137576 200.70897324849048 576.7781523670146 196.749748447584 567.1547771011811 195.7069915333716 C 576.7363115606162 188.5608484233678 586.3854054966265 181.50921884867802 596.1536146370954 174.62376499951782 C 617.3057287664891 159.43861788029403 638.9470773199049 144.97036132023328 660.7107099853547 130.6943681144474 L 664.4441791120626 128.2471424988809 L 662.2233923539305 124.47041188264421 C 657.5855047582271 117.03751048238283 639.5521416944453 90.03988155408805 613.8490394776636 65.13102676200117 C 588.145937260882 40.22217196991428 566.816808770794 28.575878544251136 560.4924168267852 25.1347808694284 C 568.683550478223 28.051241523049192 621.77947715561 45.00581871810389 686.0340148020455 93.00196352583141 C 751.6017069244273 141.98221135237213 791.1283670266164 207.93658401284333 795.3864692140693 214.5450555869382 C 795.8692472440522 215.30105434005503 796.6995922433281 215.64321093234264 797.2403036190487 215.31734942086914 C 797.7810149947694 214.98822928071888 797.8711295282162 214.08558235625364 797.4398478409927 213.30025607420808 C 793.9606276703355 206.97202527469327 762.2067230076268 143.18463745520853 690.9937501227877 87.81750325464748 C 619.7839941128849 32.44711210451597 540.0129806393612 14.05874784968212 527.7665112554072 10.95980476513561 C 505.4074525932406 5.296331632436798 496.8300699316515 4.872711712727956 496.8300699316515 4.872711712727956 C 496.8300699316515 4.872711712727956 510.3736277873484 8.147619454198598 526.7140542838254 13.93166171877504 C 536.7429629698231 17.480293752444368 546.4983025693822 21.801218070100354 555.7418926821106 27.08669182624074 C 562.4492886953251 30.902530378107176 582.5940132300025 42.23273488469548 608.6286229818713 68.9761905178799 C 634.6600138176395 95.71964615106432 648.2517944350636 119.02200695099052 652.0367741288944 125.32742773725417 C 631.2740998597436 138.62257797368585 610.6272779939183 152.11324644737044 590.4149710195672 166.2556365232198 C 577.2447870199098 175.3048115473708 564.2806350829231 184.65052087697168 551.4129914351931 194.1330913193757 C 516.5242314308388 191.304613252541 478.84499775345535 190.03049567200037 448.65206073170646 190.41175364494504 C 419.82377676118665 190.8060461003062 390.86673206430976 192.45816212098057 362.27661726777814 194.84672699556066 C 356.8855961774838 185.54989774192114 342.63078645688057 161.48828072265957 323.78313253375865 136.5533558678625 C 307.745246389209 115.33651173792565 290.33947398917945 98.7403839556372 287.23682056581765 95.89887137409553 C 305.5791658960569 67.34036693019812 326.9018784964597 41.65596135460985 355.6657923096225 25.128264903695133 C 381.71649460083063 10.158185985516434 400.79265890847427 6.241330073832856 427.93443904097984 2.357060707240796 C 428.8130950185526 2.23323332609986 429.48253829317116 1.6466826264363892 429.4213864100644 1.0145112463878518 C 429.3570160055351 0.37908123766256696 428.5877864553806 -0.06409037943496418 427.702693411043 0.007599152766300646 C 412.726918945213 1.21980398319744 382.5146919002493 4.230764059163107 352.55992405248855 21.22444299007045 C 321.842366982417 38.65151837252699 300.0787139053242 63.2670947754383 281.20209381962445 90.5840669891379 C 277.30446584012776 87.26679668738348 273.32317461831275 84.04403113792551 269.1551911104217 81.04936365438684 C 262.2579025206546 76.12233724442034 256.9022787913555 72.57696267696954 247.22097017978427 68.17131478869027 C 237.53966156821303 63.76566690041099 227.85191155240284 62.397047013579694 223.94140969452206 62.49806409085492 C 223.05309811680212 62.520874398756945 222.3933055108459 63.097650346594186 222.46411295024677 63.73308035531947 C 222.53492038964765 64.365251735368 223.31701581299504 64.82471600543724 224.19889032395017 64.93876754091106 C 227.34016589275532 65.34283585001194 236.91527247066483 67.57172504557639 245.3606693663032 72.11749357946974 C 253.80284785613193 76.66000309720027 259.2582340008725 80.64528853198924 265.5922816726013 85.81671118857763 C 269.6926763621802 89.17960203348247 273.5838662543299 92.7901502077644 277.38172008169033 96.50171290029895 C 275.0869150928475 100.1089999918257 260.120799926775 124.28792764345019 246.51611532379334 154.94172115599255 C 233.2654676068575 184.80367087081183 221.38912203508679 221.03295079608216 217.394938564409 233.96639467017712 C 198.6180926308455 242.51374268637736 177.1216095901118 253.7201224031378 159.2942255187288 263.7827264250864 C 140.63002736054014 274.3895189819734 117.33114725518072 289.5257891251245 98.23888632586922 303.8832484353151 C 84.65994998994681 296.0430201295666 75.77362231314889 290.38933231172575 71.29666062112908 287.433768372308 C 69.28186701597333 286.104253297 68.16503995082093 284.94417632159707 67.16086168162546 283.11935175401584 C 66.02794265121125 281.0696827118732 63.42093762796525 272.7634734760763 64.47661223992004 259.02189279003653 C 65.53550538525724 245.28357112015956 66.5461244846142 238.91623884311616 68.39033658593907 228.55058351668822 C 70.2602968267504 218.1881872064231 72.42957850338837 207.36631611552914 75.05267236636334 197.19617799305794 L 78.46752391053677 184.77108070918365 L 71.05848940597663 195.72980671310367 C 59.922409318760025 212.2021071223238 49.7164786177018 229.47277556136976 40.93313737535688 247.39841841896617 C 32.10795532661346 265.31428422807414 24.589494003943514 283.8851110228822 18.45177623067762 302.9089079988438 C 12.371991803149484 321.9457389728643 7.624674072444234 341.43227284550613 4.560642794525743 361.1957734937705 C 1.4805189772679932 380.4020526423338 0.061151883106811904 399.8592347035866 0 419.30339103315 C 0 420.2027688668146 0.5085261694693504 420.9327255207993 1.1393560971790264 420.9327255207993 C 1.7701860248887025 420.9327255207993 2.288367834371759 420.2027688668146 2.2980233946524846 419.30339103315 C 2.542630927079732 399.9895788173603 4.135798174067007 380.68881919896086 7.373629489198772 361.6617652734288 C 10.601805076610553 342.0840037473365 15.49395566136912 322.8060179768218 21.699262508092755 303.99729126849763 C 27.965721106363784 285.2015985582324 35.59039798540893 266.8751587103806 44.49604273084864 249.21672211265724 C 51.319305435538716 235.63155456980516 58.937540910344914 222.51236537376096 67.19626363524038 209.7679206712971 C 65.71574440282686 215.64972102120385 64.32856314879416 221.54781025214754 63.08943289947887 227.50130017461868 C 60.942679935935594 237.97448960156916 59.93206530162554 244.21474504737114 58.41614232957832 258.53635931295554 C 56.874471218044626 273.0534907824967 59.34951331086556 283.3148593999829 60.72382145195079 286.01625133591045 C 62.139970271861756 288.79585010175595 63.95199372247058 291.0899370897403 66.96774712722576 293.28298527701173 C 69.98350053198095 295.47603346428315 82.70309036839268 303.870207720831 91.16136139756067 309.3609746961204 C 79.87401164467147 318.23744252956584 68.9857605414916 327.6450814326297 58.882825970416796 337.9194956727568 C 44.22246650033481 352.92216061937893 30.84307795839385 369.8017915506228 22.574699505778394 389.3697760282266 C 22.223880802289866 390.19746428932683 22.420211753228088 391.0772647768505 22.999545401964816 391.32817815166385 C 23.578879050701545 391.5790915264772 24.348104032156307 391.12290908581315 24.73110794189612 390.3115139035156 C 33.59169398541877 371.54840722169376 47.33477667199877 355.6105193322198 62.30733222172807 341.5072322838433 C 73.2567376279107 331.25888707313015 85.03974024596262 321.9555439203497 97.25402455123809 313.2648172756688 C 130.0153402408883 334.24378215801323 163.97394983850216 353.2903881139298 198.52798339166858 371.0628758112052 C 196.3812304281253 401.22461781434095 195.88878713435798 431.11589454144087 196.37478366583008 461.1407764650696 C 196.93802471144116 492.61574078761566 199.2328333998943 530.7415139287839 203.07574643946288 564.1716482243052 C 173.61984935238343 609.2220061411034 134.84311837197998 678.5848808899642 134.84311837197998 678.5848808899642 C 134.84311837197998 678.5848808899642 101.53143946985863 660.470235760848 68.86667901624398 621.7350741288576 C 41.171312672837935 588.8914904119105 25.33940858243365 558.3974114238622 11.754035434891968 527.535065676008 C 9.101974899048127 521.5066271648096 6.533595976001287 515.4618827231873 3.9780909313385298 509.3845651693238 C 5.9703549303902 520.6658914082191 7.518462853543166 528.9786052434912 7.518462853543166 528.9786052434912 C 15.165666532091468 571.0994651503971 29.256350823971236 611.8843350897852 48.49666352343678 650.0264260442835 C 67.65329461010532 688.2108780091214 92.57751302407253 723.5277367384216 122.39710272491779 754.0088230602584 C 152.12657298076462 784.6104785139728 187.32108510907204 809.6105795588414 225.28674924914688 828.4551513117718 C 244.3210778533028 837.8106356232688 264.1182018032624 845.4683590238996 284.27579332739424 851.7868138082221 C 303.9827917088626 857.7631142605925 324.0599246186267 862.3838672902555 344.32694500203263 865.622930762092 C 345.2056009796054 865.7663098264945 346.006997540945 865.3687307304428 346.113208704033 864.7398179790711 C 346.2226383925301 864.1109052276993 345.6046861703876 863.4592009655361 344.7324671957933 863.2799771309966 C 324.4686636873238 859.1415357609144 304.42052347527334 853.8625740956467 284.85835794785834 847.2475850058743 C 265.2897545882419 840.6325959161019 246.20713407791814 832.6782855119158 227.86800562261533 823.17942205529 C 190.57823221711791 804.2761942112061 156.53916196397202 779.0805873286387 127.257065934688 749.133913526548 C 97.85266538172704 719.2426347328558 73.67514569189571 684.3396379907555 54.28999809721254 646.9959088663059 C 44.602252674022026 628.3044922736965 36.31134384986589 608.8733410098988 29.1630104217078 589.0251162743631 C 24.760074614764996 576.7792400803353 20.89141458386486 564.3215733007564 17.557027777552012 551.727025775747 C 21.441781623519095 559.8507538722384 32.75809881471379 586.6463196652538 63.91981119524745 625.6519445066878 C 95.6898231957365 665.4168271174013 125.3420466092413 682.270387469287 137.81381256452704 688.6833423560732 C 148.44136616334237 671.165026920612 181.46339058376074 613.5299026604775 204.88456092464696 579.5164768025451 C 207.92284393550622 602.7047839196788 211.8687500433118 625.7822700211302 216.79952277351367 648.6512328195629 C 223.58094467180524 679.4027844174356 238.80453128206653 729.4714423793309 244.33073051927633 740.7951306618619 C 259.7152573213714 746.6280519691035 291.78138919148284 756.5537860952314 324.227289885385 762.3834489029583 C 356.66997370435075 768.2163702101999 373.17776342642173 770.1096279174232 397.82840867162156 772.2114347600697 C 391.79368345630155 774.4989827914807 377.67401361078316 780.416657893259 349.6342661090513 788.7130921471597 C 321.5977375234201 797.0095264010605 296.57696795574594 802.86199612215 281.1312899123946 806.120611366047 C 285.2027179291046 811.2920340226353 294.62653749144494 820.347710029725 304.9451129061315 827.4971121558916 C 315.8398038826771 835.0473236718678 327.5906344344729 840.5836840662829 329.5796799001422 841.5221652503254 C 330.3843099288515 841.9001646268839 331.2565296369892 841.737269939642 331.52688532484956 841.1604950533551 C 331.7940224952741 840.5837201670682 331.3691896274567 839.7821059727008 330.5774336684906 839.371520438537 C 328.6559771487063 838.3711255679602 317.37183955056105 832.4371601643628 307.6197239700135 825.2258444808241 C 298.40510104044506 818.4120796875802 290.68065587761095 810.307879339013 289.5960145927873 809.1021916367733 C 301.2084350691445 806.8407126347763 327.41360450990084 800.9165649657045 352.8270389774115 793.5162495938865 C 378.90670743119745 785.9269345337893 404.1656573992634 776.8484332723299 413.1646394852201 773.3975595823149 C 463.35102372160753 776.8875365581268 513.7466272987197 775.8643558275973 563.7559936023753 771.3446563231179 C 564.6443051800952 771.266449557781 565.3137712025332 770.6831739468796 565.2622748797071 770.051002566831 C 565.2075600354585 769.4155725581057 564.4479615037734 768.9560869520848 563.5596499260535 769.0245178717546 C 516.6078783438426 772.5959601769991 469.4082890039986 773.104313225321 422.50157816486916 769.6860258220735 C 423.805078826687 769.1646473649673 448.9352845252831 760.7867004437525 492.65244345331735 736.0766208384889 C 537.2482582951379 710.871230707656 558.5291443772924 688.3444563399495 562.1371053729547 685.2357372402107 C 561.100741897508 681.1494336706324 555.2945092703085 662.9891886642896 545.8256225862483 637.8196435780629 C 536.3567359021881 612.6468415422657 524.2615162825548 584.5510342131456 520.5666552682858 575.9645831694725 C 520.212618063308 575.140153537049 519.449833624976 574.66439478354 518.8640629732608 574.8990150795507 C 518.2782923215457 575.1401526167696 518.0562277744166 576.0134837821954 518.3587686685282 576.8607237507752 C 521.6770629355018 586.027208890641 532.0954104611604 615.468756886715 539.926069904642 640.2668195954127 C 547.1001510895683 662.9826272335243 550.6694657009612 678.1906424889096 551.8892848775548 682.1987392285699 C 547.5185346595816 686.1416636530194 531.9795478520134 702.6367694256579 489.03161393732717 729.0087426813134 C 456.6114604899021 748.9221415403284 418.70371642799705 763.8237785358475 407.56763634078044 768.4542706403641 C 388.9324043451696 766.8184457610621 361.09544039312533 763.4294928614925 325.40848717168086 756.2800907353259 C 289.4833668174125 749.0883265655235 261.93604510008544 739.4330194834728 250.3493728907875 734.7340963059064 C 239.69285312939436 706.1951438923935 231.8010358108725 676.6362744143468 225.6343513647377 646.7352206387584 C 220.28838948665154 620.1872811762346 216.33927058623817 593.3428063749647 213.54881349766922 566.3679895265134 C 215.61188484841549 563.2918567135421 241.69798169401795 524.5208415122519 268.3537646890808 489.12250324569663 C 291.84252410342475 457.9245201649197 316.13592757948265 429.7048929541284 319.7599813696298 425.70331347182156 C 319.7599813696298 425.70331347182156 395.4241783955421 466.2991377412502 476.78515067686607 500.3940286702913 C 571.1006661142357 539.9177730172496 624.7855814664292 556.9049680146053 667.237863536535 567.1500542091557 C 694.9976000372981 532.3578185515589 717.15390984957 498.05437125402136 735.853512002538 465.5692359165443 C 754.5531141555059 433.08410057906724 766.8188898919891 402.84089247152673 772.0876074791886 389.1090878006792 C 773.5359415053508 394.8996470642851 774.9134427928376 400.70649727552035 776.1622286423001 406.5459360984395 C 782.4705280469697 436.1863016464804 786.20077824163 466.445776935838 786.4453857740573 496.7997781600639 C 786.6932118239204 526.5998148341591 783.5455159003832 556.4813413784714 776.4776456792124 585.4699822244589 C 776.2652233530364 586.3432910932906 776.5838508384069 587.1872868024686 777.1921511600125 587.3502175582054 C 777.8004514816181 587.5098897014107 778.4859855534104 586.936335357149 778.714500482712 586.066285052413 C 786.3777967005996 557.0092131333757 790.1273755570772 526.9126390539421 790.4331349845712 496.8062920592048 C 790.7646425515517 466.13946454860354 787.5686818629531 435.47592291986587 781.7495974912449 405.37935297361696 C 780.0212522089683 396.509402139201 778.0418113143388 387.6948318470368 775.8757471505011 378.92263909795116 C 778.0160630472795 372.97240767499477 787.8937434011817 346.1442274378909 793.9381243442217 314.0436084760017 C 796.0494735681312 302.8339723263189 797.7102360280157 290.82598674614155 798.334628952747 279.1210411041855 C 802.5702015340959 281.8419848121736 804.6139142274778 283.4158788263924 810.8224394800111 289.27812766256267 C 817.034183138354 295.1468940144105 825.4409576334034 305.85472291793207 826.7637693679429 307.6111165416256 C 827.3012622102812 308.3280118797835 828.1477747616844 308.6147593527217 828.6627379979186 308.246535829903 C 829.180919735642 307.88157090347056 829.1937626776297 306.9789206853737 828.6916735430319 306.2359563823828 Z" fill="black" fill-rule="evenodd" clip-rule="evenodd" stroke="none" /></svg>