<svg width="664.5182495117188" height="455.38494873046875" viewBox="0 0 664.5182495117188 455.38494873046875" fill="none" xmlns="http://www.w3.org/2000/svg"><path d="M 625.1815150784067 359.2655598094179 C 604.602294531907 394.3901721790583 583.0607404456504 425.4610852754459 559.0183924344428 455.38494873046875 C 506.2958073354779 440.1183372376125 464.4357200271352 426.0867336864283 375.543406019392 387.57641906336806 C 297.50072230124846 353.7650289531416 212.05865396903894 307.20267772396704 212.05865396903894 307.20267772396704 C 212.05865396903894 307.20267772396704 184.15730892605043 337.24386575549113 154.6692238338943 378.4914149091145 C 130.86504706147534 411.78794455350146 106.961094085854 447.9683293170095 106.961094085854 447.9683293170095 C 106.961094085854 447.9683293170095 103.05380602814884 388.41063623287255 102.92828373204257 358.57475587726424 C 102.84138368089208 327.4712753532524 103.58164084302649 294.4321728418967 106.9900541278129 260.8716959658583 C 76.49135379076218 247.18225396406746 33.41789828518054 224.9813078295981 0 205.43939224091136 C 18.90559016563299 192.9491203708969 40.192884554493695 180.23073804583052 59.00835526618481 170.5559098576404 C 77.8109523533598 160.94625372335963 99.8578191649749 150.50890878456363 122.99898080142167 140.99701073114696 C 127.82032464052865 122.50762918623661 138.2805078871616 87.1875047880526 150.4722630308064 56.941040079496766 C 162.72517044235843 26.541420217616967 176.09813294019807 4.076527626468276 178.27707119865775 0 C 180.76498741676363 2.6264437438557886 196.46491852568235 19.35943135782976 210.59744145443494 40.12332709050197 C 228.97841151968194 67.14376273098979 250.17882170033695 106.15916697162456 250.17882170033695 106.15916697162456 C 250.17882170033695 106.15916697162456 297.3011862241598 101.04965681422306 343.0975123113802 99.66148674447813 C 381.9675834691852 98.48512662491079 419.2219341242186 100.90302104912813 432.8137464528134 101.76003680000312 C 423.4478519075186 108.64223183522606 400.8763741807578 126.09536563341243 374.0532252981711 147.9476383862374 C 347.22685749916434 169.8064291710902 318.0799285595968 195.57882287244257 298.16694206548937 215.17613346699693 C 307.4201888242302 232.518483969873 354.7614121089029 324.06276412091967 354.7614121089029 324.06276412091967 C 355.17660123420416 324.861124816617 355.97479733710816 325.28472132250187 356.5444754422325 325.0142562687108 C 357.11415354735686 324.7437912149198 357.3008457881739 323.85095811018357 356.95646408538056 323.02001125836955 L 313.6351479331178 217.88730413581774 C 328.96817972274476 202.50338253260617 355.22165796321474 178.60143049831913 380.67371786746827 157.42369139668546 C 409.32498674860875 133.58692174926918 436.3670168448548 112.74482409840873 449.2185692286339 102.98201281080402 C 461.7289583157487 104.02802824132351 504.43548592573546 107.80476339942871 537.811542379783 115.8861290830761 C 572.0083225039099 124.16952896047948 582.3333531047685 127.48353699477754 606.3628274914599 137.07690011558094 C 628.7347640382209 173.86340812627967 647.778724745466 218.26204344579668 664.5182495117188 276.9138582067838 C 658.4094978050891 293.04074453110997 645.7607356249065 324.14094743977745 625.1815150784067 359.2655598094179 Z" fill="black" fill-rule="evenodd" clip-rule="evenodd" stroke="none" /></svg>