<svg width="60" height="60" viewBox="0 0 60 60" xmlns="http://www.w3.org/2000/svg" xmlns:xlink="http://www.w3.org/1999/xlink" fill="none" overflow="hidden"><path d="M30 0C13.4338 0 0 13.4338 0 30 0 46.5662 13.4338 60 30 60 46.5662 60 60 46.5662 60 30 60 13.4338 46.5662 0 30 0ZM30 57.7398C14.6782 57.7398 2.26024 45.3218 2.26024 30 2.26024 14.6782 14.6782 2.26024 30 2.26024 45.3218 2.26024 57.7398 14.6782 57.7398 30 57.7398 45.3218 45.3218 57.7398 30 57.7398ZM17.2948 32.5315C17.2948 32.3241 17.465 32.1539 17.6724 32.1539L37.27 32.1539C37.4774 32.1539 37.6476 32.3241 37.6476 32.5315 37.6476 32.7389 37.4774 32.9091 37.27 32.9091L17.6724 32.9091C17.4597 32.9091 17.2948 32.7389 17.2948 32.5315ZM30.819 40.8864 30.6701 40.8864C30.4627 40.8864 30.2925 41.0566 30.2925 41.264 30.2925 41.4714 30.4627 41.6416 30.6701 41.6416L30.819 41.6416C31.0264 41.6416 31.1966 41.4714 31.1966 41.264 31.1966 41.0512 31.0264 40.8864 30.819 40.8864ZM27.5058 36.5201 27.3569 36.5201C27.1494 36.5201 26.9793 36.6903 26.9793 36.8977 26.9793 37.1051 27.1494 37.2753 27.3569 37.2753L27.5058 37.2753C27.7132 37.2753 27.8834 37.1051 27.8834 36.8977 27.878 36.6903 27.7132 36.5201 27.5058 36.5201ZM30.0638 33.9887C30.0638 33.7812 29.8936 33.6111 29.6862 33.6111L28.5588 33.6111C28.3514 33.6111 28.1812 33.7812 28.1812 33.9887 28.1812 34.1961 28.3514 34.3662 28.5588 34.3662L29.6915 34.3662C29.899 34.3662 30.0638 34.1961 30.0638 33.9887ZM31.2179 35.4405C31.2179 35.2331 31.0477 35.0629 30.8403 35.0629L29.7075 35.0629C29.5001 35.0629 29.3299 35.2331 29.3299 35.4405 29.3299 35.6479 29.5001 35.8181 29.7075 35.8181L30.8403 35.8181C31.0477 35.8181 31.2179 35.6479 31.2179 35.4405ZM27.5058 35.0629 27.3569 35.0629C27.1494 35.0629 26.9793 35.2331 26.9793 35.4405 26.9793 35.6479 27.1494 35.8181 27.3569 35.8181L27.5058 35.8181C27.7132 35.8181 27.8834 35.6479 27.8834 35.4405 27.878 35.2331 27.7132 35.0629 27.5058 35.0629ZM24.3042 33.6111 17.6724 33.6111C17.465 33.6111 17.2948 33.7812 17.2948 33.9887 17.2948 34.1961 17.465 34.3662 17.6724 34.3662L24.3042 34.3662C24.5116 34.3662 24.6818 34.1961 24.6818 33.9887 24.6818 33.7812 24.5116 33.6111 24.3042 33.6111ZM22.1929 36.5201 18.8743 36.5201C18.6669 36.5201 18.4967 36.6903 18.4967 36.8977 18.4967 37.1051 18.6669 37.2753 18.8743 37.2753L22.1929 37.2753C22.4003 37.2753 22.5705 37.1051 22.5705 36.8977 22.5705 36.6903 22.4003 36.5201 22.1929 36.5201ZM22.1929 35.0629 17.6724 35.0629C17.465 35.0629 17.2948 35.2331 17.2948 35.4405 17.2948 35.6479 17.465 35.8181 17.6724 35.8181L22.1929 35.8181C22.4003 35.8181 22.5705 35.6479 22.5705 35.4405 22.5705 35.2331 22.4003 35.0629 22.1929 35.0629ZM30.819 39.4292 30.367 39.4292C30.1595 39.4292 29.9894 39.5994 29.9894 39.8068 29.9894 40.0142 30.1595 40.1844 30.367 40.1844L30.819 40.1844C31.0264 40.1844 31.1966 40.0142 31.1966 39.8068 31.1966 39.5994 31.0264 39.4292 30.819 39.4292ZM40.796 37.9773 40.647 37.9773C40.4396 37.9773 40.2695 38.1475 40.2695 38.3549 40.2695 38.5623 40.4396 38.7325 40.647 38.7325L40.796 38.7325C41.0034 38.7325 41.1736 38.5623 41.1736 38.3549 41.1736 38.1422 41.0034 37.9773 40.796 37.9773ZM36.8818 37.9773 36.7328 37.9773C36.5254 37.9773 36.3553 38.1475 36.3553 38.3549 36.3553 38.5623 36.5254 38.7325 36.7328 38.7325L36.8818 38.7325C37.0892 38.7325 37.2593 38.5623 37.2593 38.3549 37.2593 38.1422 37.0945 37.9773 36.8818 37.9773ZM36.6371 36.8977C36.6371 36.6903 36.4669 36.5201 36.2595 36.5201L35.0523 36.5201C34.8449 36.5201 34.6747 36.6903 34.6747 36.8977 34.6747 37.1051 34.8449 37.2753 35.0523 37.2753L36.2595 37.2753C36.4669 37.2753 36.6371 37.1051 36.6371 36.8977ZM46.1301 30C46.1301 38.908 38.908 46.1301 30 46.1301 21.092 46.1301 13.8699 38.908 13.8699 30 13.8699 21.092 21.092 13.8699 30 13.8699 38.908 13.8699 46.1301 21.092 46.1301 30ZM40.764 40.764C40.9608 40.5673 41.1523 40.3652 41.3384 40.1578 41.1895 40.1046 41.0885 39.9663 41.0885 39.8015 41.0885 39.594 41.2586 39.4239 41.4661 39.4239L41.9606 39.4239C42.4978 38.7431 42.9764 38.0199 43.3859 37.27L39.5143 37.27C39.3069 37.27 39.1367 37.0998 39.1367 36.8924 39.1367 36.685 39.3069 36.5148 39.5143 36.5148L43.7688 36.5148C43.8805 36.2861 43.9816 36.0521 44.0773 35.8128L38.4559 35.8128C38.2485 35.8128 38.0784 35.6426 38.0784 35.4352 38.0784 35.2278 38.2485 35.0576 38.4559 35.0576L44.3645 35.0576C44.4442 34.8236 44.524 34.5896 44.5932 34.3556L32.9197 34.3556C32.7123 34.3556 32.5421 34.1854 32.5421 33.978 32.5421 33.7706 32.7123 33.6004 32.9197 33.6004L44.7952 33.6004C44.8538 33.3664 44.9016 33.1324 44.9495 32.8984L43.7529 32.8984C43.5455 32.8984 43.3753 32.7282 43.3753 32.5208 43.3753 32.3134 43.5455 32.1432 43.7529 32.1432L45.0771 32.1432C45.109 31.9092 45.1356 31.6752 45.1622 31.4412L41.5831 31.4412C41.3756 31.4412 41.2055 31.2711 41.2055 31.0636 41.2055 30.8562 41.3756 30.6861 41.5831 30.6861L45.2101 30.6861C45.2207 30.452 45.226 30.218 45.226 29.984L23.1714 29.984C22.964 29.984 22.7938 29.8139 22.7938 29.6065 22.7938 29.399 22.964 29.2289 23.1714 29.2289L45.2048 29.2289C45.1941 28.9949 45.1782 28.7609 45.1569 28.5269L22.0706 28.5269C21.8631 28.5269 21.693 28.3567 21.693 28.1493 21.693 27.9419 21.8631 27.7717 22.0706 27.7717L45.0665 27.7717C45.0346 27.5377 44.992 27.3037 44.9495 27.0697L26.4421 27.0697C26.2347 27.0697 26.0645 26.8995 26.0645 26.6921 26.0645 26.4847 26.2347 26.3145 26.4421 26.3145L44.7846 26.3145C44.7261 26.0805 44.6623 25.8465 44.5932 25.6125L27.5111 25.6125C27.3037 25.6125 27.1335 25.4423 27.1335 25.2349 27.1335 25.0275 27.3037 24.8573 27.5111 24.8573L44.3485 24.8573C44.2634 24.6233 44.173 24.3893 44.0773 24.1553L35.1374 24.1553C34.93 24.1553 34.7598 23.9851 34.7598 23.7777 34.7598 23.5703 34.93 23.4001 35.1374 23.4001L43.7422 23.4001C43.6306 23.1661 43.5082 22.9321 43.3806 22.6981L35.1374 22.6981C34.93 22.6981 34.7598 22.5279 34.7598 22.3205 34.7598 22.1131 34.93 21.9429 35.1374 21.9429L42.9445 21.9429C42.7956 21.7036 42.6414 21.4696 42.4818 21.2409L37.3125 21.2409C37.1051 21.2409 36.9349 21.0707 36.9349 20.8633 36.9349 20.6559 37.1051 20.4857 37.3125 20.4857L41.9128 20.4857C41.7213 20.2464 41.5246 20.0124 41.3171 19.7837L34.0099 19.7837C33.8025 19.7837 33.6323 19.6135 33.6323 19.4061 33.6323 19.1987 33.8025 19.0285 34.0099 19.0285L40.5939 19.0285C40.3386 18.7839 40.0833 18.5499 39.8121 18.3212L35.1427 18.3212C34.9353 18.3212 34.7651 18.151 34.7651 17.9436 34.7651 17.7362 34.9353 17.566 35.1427 17.566L38.8442 17.566C38.4985 17.3161 38.1422 17.0874 37.7805 16.8694L35.1427 16.8694C34.9353 16.8694 34.7651 16.6992 34.7651 16.4918 34.7651 16.2843 34.9353 16.1142 35.1427 16.1142L36.3446 16.1142C35.749 15.8429 35.1374 15.6089 34.5152 15.4122L32.122 15.4122C31.9146 15.4122 31.7444 15.242 31.7444 15.0346 31.7444 14.9654 31.7656 14.8963 31.7976 14.8378 31.2072 14.7687 30.6063 14.7314 30 14.7314 26.7825 14.7314 23.7139 15.7259 21.1505 17.566L21.4324 17.566C21.6398 17.566 21.81 17.7362 21.81 17.9436 21.81 18.151 21.6398 18.3212 21.4324 18.3212L20.1879 18.3212C19.8635 18.5978 19.5444 18.885 19.2413 19.1934 16.3641 22.0706 14.7793 25.8943 14.7793 29.9575 14.7793 34.0259 16.3641 37.8497 19.2413 40.7215 22.1184 43.5987 25.9422 45.1835 30.0053 45.1835 34.0684 45.226 37.8922 43.6412 40.764 40.764ZM31.8614 37.9773 31.4093 37.9773C31.2019 37.9773 31.0317 38.1475 31.0317 38.3549 31.0317 38.5623 31.2019 38.7325 31.4093 38.7325L31.8614 38.7325C32.0688 38.7325 32.239 38.5623 32.239 38.3549 32.239 38.1422 32.0688 37.9773 31.8614 37.9773ZM36.6637 35.4405C36.6637 35.2331 36.4935 35.0629 36.2861 35.0629L34.0259 35.0629C33.8185 35.0629 33.6483 35.2331 33.6483 35.4405 33.6483 35.6479 33.8185 35.8181 34.0259 35.8181L36.2861 35.8181C36.4935 35.8181 36.6637 35.6479 36.6637 35.4405ZM19.0285 37.9773 18.8796 37.9773C18.6722 37.9773 18.502 38.1475 18.502 38.3549 18.502 38.5623 18.6722 38.7325 18.8796 38.7325L19.0285 38.7325C19.236 38.7325 19.4061 38.5623 19.4061 38.3549 19.4061 38.1422 19.236 37.9773 19.0285 37.9773ZM32.3134 36.5201 31.1806 36.5201C30.9732 36.5201 30.8031 36.6903 30.8031 36.8977 30.8031 37.1051 30.9732 37.2753 31.1806 37.2753L32.3134 37.2753C32.5208 37.2753 32.691 37.1051 32.691 36.8977 32.691 36.6903 32.5208 36.5201 32.3134 36.5201ZM24.7669 24.8839 21.1505 24.8839C20.9431 24.8839 20.7729 25.0541 20.7729 25.2615 20.7729 25.4689 20.9431 25.6391 21.1505 25.6391L24.7669 25.6391C24.9743 25.6391 25.1445 25.4689 25.1445 25.2615 25.1392 25.0488 24.9743 24.8839 24.7669 24.8839ZM28.5162 24.1819 28.6651 24.1819C28.8725 24.1819 29.0427 24.0117 29.0427 23.8043 29.0427 23.5969 28.8725 23.4267 28.6651 23.4267L28.5162 23.4267C28.3088 23.4267 28.1386 23.5969 28.1386 23.8043 28.1386 24.0117 28.3088 24.1819 28.5162 24.1819ZM28.6917 21.2728 32.9888 21.2728C33.1962 21.2728 33.3664 21.1026 33.3664 20.8952 33.3664 20.6878 33.1962 20.5176 32.9888 20.5176L28.6917 20.5176C28.4843 20.5176 28.3141 20.6878 28.3141 20.8952 28.3141 21.1026 28.4843 21.2728 28.6917 21.2728ZM28.6917 19.8156 31.8561 19.8156C32.0635 19.8156 32.2336 19.6455 32.2336 19.438 32.2336 19.2306 32.0635 19.0605 31.8561 19.0605L28.6917 19.0605C28.4843 19.0605 28.3141 19.2306 28.3141 19.438 28.3141 19.6455 28.4843 19.8156 28.6917 19.8156ZM40.4396 32.9091 40.5886 32.9091C40.796 32.9091 40.9661 32.7389 40.9661 32.5315 40.9661 32.3241 40.796 32.1539 40.5886 32.1539L40.4396 32.1539C40.2322 32.1539 40.062 32.3241 40.062 32.5315 40.062 32.7389 40.2269 32.9091 40.4396 32.9091ZM31.8773 21.9748 30.8243 21.9748C30.6169 21.9748 30.4467 22.145 30.4467 22.3524 30.4467 22.5598 30.6169 22.73 30.8243 22.73L31.8773 22.73C32.0847 22.73 32.2549 22.5598 32.2549 22.3524 32.2549 22.1397 32.0847 21.9748 31.8773 21.9748ZM30.7765 18.3638 32.9622 18.3638C33.1697 18.3638 33.3398 18.1936 33.3398 17.9862 33.3398 17.7788 33.1697 17.6086 32.9622 17.6086L30.7765 17.6086C30.569 17.6086 30.3989 17.7788 30.3989 17.9862 30.3989 18.1936 30.569 18.3638 30.7765 18.3638ZM23.1714 31.4572 39.4505 31.4572C39.6579 31.4572 39.828 31.287 39.828 31.0796 39.828 30.8722 39.6579 30.702 39.4505 30.702L23.1714 30.702C22.964 30.702 22.7938 30.8722 22.7938 31.0796 22.7938 31.287 22.964 31.4572 23.1714 31.4572ZM30.7765 16.9066 32.9622 16.9066C33.1697 16.9066 33.3398 16.7364 33.3398 16.529 33.3398 16.3216 33.1697 16.1514 32.9622 16.1514L30.7765 16.1514C30.569 16.1514 30.3989 16.3216 30.3989 16.529 30.3989 16.7364 30.569 16.9066 30.7765 16.9066ZM22.4747 24.1819 25.187 24.1819C25.3944 24.1819 25.5646 24.0117 25.5646 23.8043 25.5646 23.5969 25.3944 23.4267 25.187 23.4267L22.4747 23.4267C22.2673 23.4267 22.0971 23.5969 22.0971 23.8043 22.0971 24.0117 22.2673 24.1819 22.4747 24.1819ZM18.752 31.4572 19.9592 31.4572C20.1666 31.4572 20.3368 31.287 20.3368 31.0796 20.3368 30.8722 20.1666 30.702 19.9592 30.702L18.752 30.702C18.5446 30.702 18.3744 30.8722 18.3744 31.0796 18.3744 31.287 18.5446 31.4572 18.752 31.4572ZM21.4802 22.7247 21.6291 22.7247C21.8366 22.7247 22.0067 22.5545 22.0067 22.3471 22.0067 22.1397 21.8366 21.9695 21.6291 21.9695L21.4802 21.9695C21.2728 21.9695 21.1026 22.1397 21.1026 22.3471 21.1026 22.5598 21.2728 22.7247 21.4802 22.7247ZM20.156 24.1819 20.757 24.1819C20.9644 24.1819 21.1346 24.0117 21.1346 23.8043 21.1346 23.5969 20.9644 23.4267 20.757 23.4267L20.156 23.4267C19.9486 23.4267 19.7784 23.5969 19.7784 23.8043 19.7837 24.0117 19.9486 24.1819 20.156 24.1819ZM23.3788 21.2728 24.8839 21.2728C25.0913 21.2728 25.2615 21.1026 25.2615 20.8952 25.2615 20.6878 25.0913 20.5176 24.8839 20.5176L23.3788 20.5176C23.1714 20.5176 23.0012 20.6878 23.0012 20.8952 23.0012 21.1026 23.1714 21.2728 23.3788 21.2728ZM23.7617 19.8156 24.2138 19.8156C24.4212 19.8156 24.5914 19.6455 24.5914 19.438 24.5914 19.2306 24.4212 19.0605 24.2138 19.0605L23.7617 19.0605C23.5543 19.0605 23.3842 19.2306 23.3842 19.438 23.3842 19.6455 23.549 19.8156 23.7617 19.8156ZM23.5065 21.9748C23.2991 21.9748 23.1289 22.145 23.1289 22.3524 23.1289 22.5598 23.2991 22.73 23.5065 22.73L24.2617 22.73C24.4691 22.73 24.6392 22.5598 24.6392 22.3524 24.6392 22.145 24.4691 21.9748 24.2617 21.9748L23.5065 21.9748ZM31.8773 23.4267 30.8243 23.4267C30.6169 23.4267 30.4467 23.5969 30.4467 23.8043 30.4467 24.0117 30.6169 24.1819 30.8243 24.1819L31.8773 24.1819C32.0847 24.1819 32.2549 24.0117 32.2549 23.8043 32.2549 23.5969 32.0847 23.4267 31.8773 23.4267ZM34.3397 9.21645 37.4827 10.0408 37.8124 8.78036 34.6694 7.95604 34.8449 7.29658C35.0363 6.56798 35.3342 6.4563 35.9883 6.62648L38.5198 7.29126 38.8548 6.00957 36.2489 5.32352C35.0417 5.00443 33.9195 5.29162 33.526 6.79135L32.3719 11.1948C32.2868 11.5192 32.4517 11.7639 32.7495 11.8383L33.6004 12.0617 34.3397 9.21645ZM27.6174 5.86066 27.3515 4.56302 23.0119 5.44584C22.7141 5.50434 22.5332 5.73834 22.6024 6.06807L23.5118 10.53C23.8202 12.0511 24.9264 12.3967 26.1496 12.1468L28.7928 11.6096 28.5269 10.312 25.9635 10.8332C25.304 10.9661 25.0062 10.8385 24.8573 10.0993L24.719 9.42918 27.9046 8.78036 27.644 7.50399 24.4584 8.15281 24.134 6.56267 27.6174 5.86066ZM17.0342 14.8059C16.529 14.7474 16.2152 14.54 15.7366 13.9497L13.2796 10.9289 12.1893 11.8117 14.875 15.1143C15.4388 15.8057 16.0716 16.1727 16.8215 16.2418 17.6671 16.3216 18.4169 16.0663 19.1615 15.4653 19.9007 14.8591 20.3049 14.1783 20.4006 13.3327 20.4857 12.5882 20.257 11.8862 19.6933 11.1948L17.0076 7.89222 15.9174 8.77504 18.3691 11.7958C18.853 12.3861 18.9913 12.7371 18.9435 13.2423 18.9062 13.6572 18.6563 14.072 18.2787 14.3804 17.9064 14.6942 17.4437 14.8537 17.0342 14.8059ZM45.5717 9.72168C45.9014 9.97164 45.8748 10.2269 45.7951 10.4822L43.7529 17.566 42.5988 16.5077 42.9924 15.1409 41.6309 14.0932 42.8062 13.3274 43.3859 13.7688 44.0879 11.3384 39.6366 14.2262 38.3336 13.4923 44.5081 9.48236C44.7314 9.33877 44.9707 9.24836 45.3005 9.49832L45.5717 9.72168Z" fill="#FFFFFF"/></svg>