<svg width="290" height="68" viewBox="0 0 290 68" fill="none" xmlns="http://www.w3.org/2000/svg">
<mask id="mask0_761_158283" style="mask-type:luminance" maskUnits="userSpaceOnUse" x="0" y="0" width="290" height="68">
<path d="M0 0H290V68H0V0Z" fill="white"/>
</mask>
<g mask="url(#mask0_761_158283)">
<path fill-rule="evenodd" clip-rule="evenodd" d="M66.4498 2.84977C67.2498 2.84977 67.9598 2.22977 67.9598 1.42977C67.9598 0.629766 67.2498 0.00976562 66.4498 0.00976562H1.51977C0.719766 0.00976562 0.00976562 0.629766 0.00976562 1.42977C0.00976562 2.22977 0.719766 2.84977 1.51977 2.84977H66.4498ZM66.4498 67.9998C67.2498 67.9998 67.9598 67.3798 67.9598 66.5798C67.9598 65.7798 67.2498 65.1598 66.4498 65.1598H1.51977C0.719766 65.1598 0.00976562 65.7798 0.00976562 66.5798C0.00976562 67.3798 0.629766 67.9998 1.51977 67.9998H66.4498Z" fill="url(#paint0_linear_761_158283)"/>
<path fill-rule="evenodd" clip-rule="evenodd" d="M288.49 2.84977C289.29 2.84977 290 2.22977 290 1.42977C290 0.629766 289.29 0.00976562 288.49 0.00976562H79.4397C78.6397 0.00976562 77.9297 0.629766 77.9297 1.42977C77.9297 2.22977 78.6397 2.84977 79.4397 2.84977H288.49ZM288.49 67.9998C289.29 67.9998 290 67.3798 290 66.5798C290 65.7798 289.29 65.1598 288.49 65.1598H79.4397C78.6397 65.1598 77.9297 65.7798 77.9297 66.5798C77.9297 67.3798 78.6397 67.9998 79.4397 67.9998H288.49Z" fill="url(#paint1_linear_761_158283)"/>
<path fill-rule="evenodd" clip-rule="evenodd" d="M133.62 48.51C132.55 48.96 131.22 49.31 129.88 49.49C128.46 49.67 127.21 49.76 125.97 49.76C123.57 49.76 121.34 49.4 119.3 48.69C117.25 47.98 115.56 47 114.05 45.66C112.63 44.32 111.47 42.63 110.67 40.68C109.87 38.72 109.42 36.5 109.42 34C109.42 31.69 109.86 29.55 110.67 27.59C111.47 25.63 112.63 24.03 114.05 22.61C115.47 21.19 117.25 20.12 119.21 19.41C121.17 18.61 123.3 18.25 125.61 18.25C127.03 18.25 128.46 18.34 129.79 18.52C131.13 18.7 132.46 19.05 133.79 19.5V23.95C132.46 23.24 131.21 22.79 129.97 22.53C128.81 22.26 127.39 22.09 125.88 22.09C124.19 22.09 122.59 22.36 121.25 22.98C119.83 23.6 118.67 24.4 117.69 25.38C116.71 26.45 115.91 27.61 115.38 29.03C114.85 30.45 114.58 31.97 114.58 33.66C114.58 35.53 114.85 37.13 115.29 38.64C115.82 40.15 116.54 41.4 117.51 42.47C118.49 43.54 119.73 44.34 121.16 44.96C122.58 45.58 124.27 45.85 126.14 45.85C127.83 45.85 129.43 45.67 130.94 45.41C132.45 45.14 133.96 44.52 135.39 43.72L133.62 48.51ZM107.82 49.13H102.66L98.3896 38H86.8196L82.7296 49.13H78.0996L90.2096 19.05H95.6396L107.82 49.13ZM97.1396 34.63L92.5996 22.88L87.9696 34.63H97.1396ZM162.17 49.13H167.33L155.05 19.05H149.62L137.52 49.13H142.14L146.23 38H157.88L162.17 49.13ZM152.12 22.88L156.66 34.63H147.5L152.12 22.88ZM198.2 34C198.2 36.76 197.67 39.16 196.6 41.12C195.576 43.0102 194.149 44.6523 192.42 45.93C190.64 47.18 188.68 48.07 186.37 48.69C184.06 49.22 181.74 49.58 179.25 49.58C178.01 49.58 176.76 49.49 175.51 49.4C174.4 49.32 173.37 49.17 172.28 49.01L171.87 48.95V19.14L172.28 19.08C173.37 18.92 174.41 18.77 175.51 18.69C176.76 18.6 178 18.51 179.25 18.51C181.74 18.51 184.05 18.78 186.37 19.4C188.68 19.93 190.64 20.91 192.42 22.16C194.2 23.41 195.53 25.01 196.6 26.97C197.75 28.93 198.2 31.24 198.2 34ZM193.22 34C193.22 31.86 192.86 30.08 192.15 28.66C191.44 27.15 190.46 25.99 189.22 25.01C187.97 24.03 186.46 23.41 184.86 22.96C183.17 22.51 181.39 22.34 179.52 22.34H178.1C177.66 22.34 177.12 22.43 176.68 22.52V45.57C176.9 45.61 177.15 45.64 177.39 45.66C177.63 45.68 177.88 45.7 178.1 45.75C178.4 45.81 178.74 45.79 179.07 45.77C179.23 45.76 179.38 45.75 179.53 45.75C181.4 45.75 183.18 45.57 184.87 45.13C186.56 44.68 187.98 43.97 189.23 43.08C190.47 42.1 191.45 40.94 192.16 39.43C192.86 37.92 193.22 36.14 193.22 34ZM203.45 49.13H220.53L221.95 45.04C220.53 45.4 219.01 45.57 217.59 45.66L217.35 45.67C215.93 45.75 214.57 45.83 213.14 45.83H210.56C209.67 45.83 208.87 45.83 207.98 45.74V34.71H217.86V31.42H207.99V22.34C208.79 22.25 209.59 22.25 210.3 22.25H212.61C213.68 22.25 214.83 22.25 215.9 22.34C216.97 22.34 218.12 22.52 219.19 22.7V18.96H203.45V49.13ZM262.16 49.13H257.36L254.86 24.83L245.25 49.75C245.04 49.61 244.84 49.49 244.64 49.37C244.32 49.18 244.01 48.99 243.74 48.77C243.287 48.4917 242.868 48.1629 242.49 47.79C242.13 47.43 241.78 47.08 241.51 46.63C241.24 46.19 240.98 45.65 240.71 45.03L232.79 24.83L230.12 49.13H225.94L229.59 18.96H235.1L244.17 41.57L253.24 18.96H258.49L262.16 49.13ZM278.97 35.52L289.82 18.96H284.93L276.92 31.42L268.56 18.96H263.13L274.34 35.52V49.14H278.96V35.52H278.97Z" fill="#00B3B0"/>
</g>
<defs>
<linearGradient id="paint0_linear_761_158283" x1="0.00276563" y1="34.0018" x2="67.9658" y2="34.0018" gradientUnits="userSpaceOnUse">
<stop stop-color="#9DA9B1"/>
<stop offset="0.25" stop-color="#E3E9EC"/>
<stop offset="0.5" stop-color="#9DA9B1"/>
<stop offset="0.75" stop-color="#E3E9EC"/>
<stop offset="1" stop-color="#9DA9B1"/>
</linearGradient>
<linearGradient id="paint1_linear_761_158283" x1="77.9287" y1="34.0018" x2="290.003" y2="34.0018" gradientUnits="userSpaceOnUse">
<stop stop-color="#00A9AB"/>
<stop offset="0.997" stop-color="#B7DEDC"/>
</linearGradient>
</defs>
</svg>
