<svg width="21.341978073120117" height="19.38385772705078" viewBox="0 0 21.341978073120117 19.38385772705078" fill="none" xmlns="http://www.w3.org/2000/svg">
<path d="M9.22198 18.9401C10.8008 17.3613 15.342 11.9901 15.342 11.9901L15.342 9.20773e-05C12.9204 -5.64842e-05 10.4988 -6.68145e-06 8.07718 4.31213e-05L4.34198 9.30389e-05C3.54198 9.31089e-05 2.82198 0.480093 2.50198 1.21009L0.241979 7.82009C-0.598021 9.80009 0.85198 12.0001 3.00198 12.0001L7.65198 12.0001L6.70198 17.5801C6.60198 18.0801 6.75198 18.5901 7.11198 18.9501C7.70198 19.5301 8.64198 19.5301 9.22198 18.9401Z" fill="black"/>
<path d="M19.842 12.0001C20.6704 12.0001 21.342 11.3285 21.342 10.5001L21.342 1.50006C21.342 0.671633 20.6704 6.10939e-05 19.842 6.11663e-05L16.842 6.14286e-05L16.842 12.0001L19.842 12.0001Z" fill="black"/>
</svg>
