<svg width="14" height="14" viewBox="0 0 14 14" fill="none" xmlns="http://www.w3.org/2000/svg">
<path d="M6 1C6 0.447716 6.44771 0 7 0C7.55229 0 8 0.447715 8 1V13C8 13.5523 7.55229 14 7 14C6.44771 14 6 13.5523 6 13V1Z" fill="black"/>
<path d="M0 5C0 4.44772 0.447715 4 1 4C1.55228 4 2 4.44771 2 5V13C2 13.5523 1.55228 14 1 14C0.447715 14 0 13.5523 0 13V5Z" fill="black"/>
<path d="M13 8C12.4477 8 12 8.44772 12 9V13C12 13.5523 12.4477 14 13 14C13.5523 14 14 13.5523 14 13V9C14 8.44772 13.5523 8 13 8Z" fill="black"/>
</svg>
