<svg width="10.285715103149414" height="12" viewBox="0 0 10.285715103149414 12" fill="none" xmlns="http://www.w3.org/2000/svg">
<path d="M0 11.1429C0 11.6163 0.38376 12 0.857143 12H2.57143C3.04481 12 3.42857 11.6163 3.42857 11.1429V0.857143C3.42857 0.38376 3.04481 0 2.57143 0H0.857143C0.38376 0 0 0.38376 0 0.857143V11.1429ZM7.71429 0C7.24089 0 6.85714 0.38376 6.85714 0.857143V11.1429C6.85714 11.6163 7.24089 12 7.71429 12H9.42857C9.90197 12 10.2857 11.6163 10.2857 11.1429V0.857143C10.2857 0.38376 9.90197 0 9.42857 0H7.71429Z" fill="black"/>
</svg>
