<svg width="3.4014129638671875" height="4.756534576416016" viewBox="0 0 3.4014129638671875 4.756534576416016" fill="none" xmlns="http://www.w3.org/2000/svg">
<path d="M0.879644 3.42638C0.908902 3.73825 1.11848 4.02129 1.43777 4.05192C2.1088 4.11627 2.36915 3.25358 2.44399 2.74793L2.43222 2.73362C2.14378 3.06743 1.79703 3.18563 1.35403 3.14302C0.963072 3.10549 0.58325 2.88479 0.350035 2.57313C0.135901 2.26984 0.0613771 1.88133 0.0958294 1.52302C0.185299 0.591327 0.90106 -0.0830889 1.85226 0.00828905C3.23364 0.140798 3.48922 1.38182 3.37844 2.53517C3.27137 3.64941 2.65441 4.87231 1.35774 4.74775C0.569257 4.67206 0.0273498 4.15315 0 3.34188L0.879644 3.42638ZM2.46 1.69083C2.5007 1.26744 2.2677 0.817652 1.80509 0.773235C1.36198 0.730726 1.06728 1.12963 1.02784 1.54019C0.9865 1.97026 1.16682 2.42143 1.64236 2.46722C2.13773 2.51461 2.41696 2.14041 2.46 1.69083Z" fill="white"/>
</svg>
