<svg width="38.29685592651367" height="38.195091247558594" viewBox="0 0 38.29685592651367 38.195091247558594" fill="none" xmlns="http://www.w3.org/2000/svg">
<path d="M34.6795 19.1452C34.6795 25.5956 30.7465 31.1263 25.1485 33.4734V31.1982C29.5723 28.9917 32.6125 24.4246 32.6125 19.1452C32.6125 17.8289 32.4202 16.5582 32.068 15.3557H28.2385H25.1485V11.3416C25.7531 11.8076 26.3042 12.3399 26.786 12.9316L29.3519 10.3658C28.1877 9.01399 26.7599 7.89583 25.1485 7.09103V0.956926C23.855 0.530459 22.4995 0.241272 21.1006 0.0991164V5.82244C20.4632 5.72968 19.8116 5.68092 19.1483 5.68092C19.0618 5.68092 18.9762 5.68579 18.8899 5.68749V3.61728V1.88035V0C8.43392 0.138657 0 8.65622 0 19.1452C0 24.4329 2.14325 29.22 5.60841 32.6853L8.16615 30.1274C6.64982 28.6111 5.44654 26.7824 4.65891 24.7465H14.8422V26.7321C16.0417 27.4156 17.4187 27.819 18.89 27.8621V19.1452H21.1007V28.7979C20.4695 28.9249 19.817 28.9922 19.1484 28.9922C16.3106 28.9922 13.7549 27.7901 11.9579 25.8693H7.48548C9.81265 29.897 14.1624 32.6094 19.1484 32.6094C19.8117 32.6094 20.4632 32.5593 21.1007 32.4667V38.1951C30.7589 37.2171 38.2969 29.0616 38.2969 19.1452H34.6795ZM14.8422 20.268H3.65799C3.63148 19.8971 3.61728 19.5229 3.61728 19.1452C3.61728 12.0619 8.35982 6.08788 14.8423 4.2211V6.38873C9.51901 8.18523 5.68431 13.2158 5.68431 19.1452H9.30159H12.4883H14.8424V20.268H14.8422ZM14.8422 10.288V15.3557H10.0582C10.9829 13.1402 12.6937 11.3348 14.8422 10.288ZM18.89 15.3557V9.30318C18.976 9.30095 19.0619 9.2982 19.1484 9.2982C19.8175 9.2982 20.4692 9.36869 21.1007 9.4958V15.3557H18.89ZM25.1485 19.1452H28.9953C28.9953 22.3246 27.4869 25.1501 25.1485 26.9505V19.1452Z" fill="#711D38"/>
</svg>
