<svg width="4.685178756713867" height="5.020510673522949" viewBox="0 0 4.685178756713867 5.020510673522949" fill="none" xmlns="http://www.w3.org/2000/svg">
<path d="M0 0.4002L2.49126 0.019741C3.31949 -0.106725 3.93158 0.389069 4.03833 1.08797C4.12144 1.63158 3.96359 2.07278 3.48402 2.35794L3.48603 2.37087C4.00398 2.42419 4.22044 2.88776 4.32401 3.34878C4.38783 3.63701 4.46426 4.18147 4.68518 4.41277L3.66921 4.56797C3.50182 4.29553 3.44659 3.84712 3.33836 3.48606C3.19313 3.01157 2.97285 2.8267 2.46158 2.90482L1.44572 3.06002L1.72144 4.86532L0.705581 5.02051L0 0.4002ZM1.33515 2.33514L2.44812 2.16511C2.90098 2.09589 3.11734 1.86426 3.04621 1.39836C2.97794 0.951966 2.70243 0.795287 2.24946 0.864404L1.1365 1.03444L1.33515 2.33514Z" fill="white"/>
</svg>
