<svg width="4.924190044403076" height="4.093866348266602" viewBox="0 0 4.924190044403076 4.093866348266602" fill="none" xmlns="http://www.w3.org/2000/svg">
<path d="M3.05179 3.08026C3.66302 3.1939 3.98963 2.76203 4.09013 2.2215C4.15585 1.86765 4.15331 1.30804 3.68359 1.2208C3.18822 1.12868 2.97663 1.80161 2.6709 2.44369C2.36401 3.09224 1.97221 3.73167 1.11006 3.57139C0.170727 3.3968 -0.11475 2.42514 0.0394903 1.59521C0.217688 0.636489 0.799773 -0.167255 1.86143 0.0300241L1.67974 1.00804C1.12044 0.937442 0.905886 1.30359 0.816204 1.78613C0.756416 2.10786 0.822246 2.50613 1.20822 2.57779C1.56207 2.64362 1.64772 2.4332 2.15783 1.33656C2.30359 1.01748 2.70737 0.027586 3.74974 0.22126C4.5926 0.377938 5.09995 1.15783 4.8679 2.40606C4.679 3.42266 4.00002 4.28164 2.87009 4.05818L3.05179 3.08026Z" fill="white"/>
</svg>
