<svg width="3.602802276611328" height="4.983543395996094" viewBox="0 0 3.602802276611328 4.983543395996094" fill="none" xmlns="http://www.w3.org/2000/svg">
<path d="M2.67172 0.736111L0.854002 1.26085L0.966687 2.3119L0.982801 2.32081C1.15104 2.00639 1.40047 1.83222 1.74627 1.73215C2.61427 1.48155 3.29918 2.01286 3.53728 2.83685C3.79869 3.74268 3.2519 4.65688 2.35974 4.89401C1.50436 5.14101 0.600642 4.89083 0.321205 3.96985L1.21443 3.71193C1.37111 4.08932 1.73832 4.2761 2.12832 4.16363C2.59381 4.02921 2.77137 3.53501 2.64416 3.09466C2.51165 2.63565 2.12323 2.3525 1.64514 2.49063C1.32436 2.58317 1.18103 2.74727 1.07386 3.03709L0.268728 3.26956L0 0.71014L2.45907 0L2.67172 0.736111Z" fill="white"/>
</svg>
