<svg width="20" height="19" viewBox="0 0 20 19" fill="none" xmlns="http://www.w3.org/2000/svg">
<path d="M14 0.5V1H13.5C13.2239 1 13 1.22386 13 1.5C13 1.77614 13.2239 2 13.5 2H14V2.5C14 2.77614 14.2239 3 14.5 3C14.7761 3 15 2.77614 15 2.5V2H15.5C15.7761 2 16 1.77614 16 1.5C16 1.22386 15.7761 1 15.5 1H15V0.5C15 0.22386 14.7761 0 14.5 0C14.2239 0 14 0.22386 14 0.5ZM12 9V3.82998C12 3.29998 11.79 2.78998 11.41 2.41998L9.7 0.70998C9.31 0.31998 8.68 0.31998 8.29 0.70998L6.59 2.40998C6.21 2.78998 6 3.29998 6 3.82998V4.99998H2C0.9 4.99998 0 5.89998 0 6.99998V19H1.5V6.5H7.5V2.99998H10.5V9H8.5V19H10V10.5H17.5V19H19V11C19 9.9 18.1 9 17 9H12ZM6 9H4V11H6V9ZM6 13H4V15H6V13ZM4 17H6V19H4V17ZM15 15H12V19H15V15ZM15 4.5V5H14.5C14.2239 5 14 5.22386 14 5.5C14 5.77614 14.2239 6 14.5 6H15V6.5C15 6.77614 15.2239 7 15.5 7C15.7761 7 16 6.77614 16 6.5V6H16.5C16.7761 6 17 5.77614 17 5.5C17 5.22386 16.7761 5 16.5 5H16V4.5C16 4.22386 15.7761 4 15.5 4C15.2239 4 15 4.22386 15 4.5ZM18 2V1.5C18 1.22386 18.2239 1 18.5 1C18.7761 1 19 1.22386 19 1.5V2H19.5C19.7761 2 20 2.22386 20 2.5C20 2.77614 19.7761 3 19.5 3H19V3.5C19 3.77614 18.7761 4 18.5 4C18.2239 4 18 3.77614 18 3.5V3H17.5C17.2239 3 17 2.77614 17 2.5C17 2.22386 17.2239 2 17.5 2H18Z" fill="black"/>
</svg>
