<svg width="54" height="16" viewBox="0 0 54 16" fill="none" xmlns="http://www.w3.org/2000/svg">
<g clip-path="url(#clip0_3387_730)">
<path fill-rule="evenodd" clip-rule="evenodd" d="M82.4734 4.0911H83.7738V6.04255H83.8417C84.5821 4.65165 85.7931 3.75455 87.6314 3.75455C89.1564 3.75455 90.5252 4.49496 90.9517 6.02048C91.6469 4.49496 93.1046 3.75455 94.6295 3.75455C97.1641 3.75455 98.4645 5.07814 98.4645 7.81414V15.6641H97.0521V7.882C97.0521 5.97524 96.3343 4.94296 94.315 4.94296C91.8709 4.94296 91.1757 6.96227 91.1757 9.1151V15.6641H89.7622V7.81414C89.7848 6.24448 89.1349 4.94296 87.3407 4.94296C84.896 4.94296 83.9084 6.78186 83.8858 9.20503V15.6641H82.4734V4.0911ZM55.3484 15.6056V13.6348H56.9109V15.6056H55.3484ZM66.9357 7.72476C66.5539 5.99786 65.5001 4.94296 63.6607 4.94296C60.9473 4.94296 59.6017 7.41027 59.6017 9.87703C59.6017 12.3449 60.9473 14.8117 63.6607 14.8117C65.4108 14.8117 66.8463 13.4439 67.0251 11.5151H68.4375C68.0574 14.2963 66.2406 16.0001 63.6607 16.0001C60.1175 16.0001 58.1887 13.1973 58.1887 9.87703C58.1887 6.55841 60.1175 3.75455 63.6607 3.75455C66.1286 3.75455 68.0348 5.07814 68.3481 7.72476H66.9357ZM71.2414 9.87703C71.2414 12.3449 72.5876 14.8117 75.3021 14.8117C78.0154 14.8117 79.3611 12.3449 79.3611 9.87703C79.3611 7.41027 78.0154 4.94296 75.3021 4.94296C72.5876 4.94296 71.2414 7.41027 71.2414 9.87703ZM80.7741 9.87703C80.7741 13.1973 78.8452 16.0001 75.3021 16.0001C71.7578 16.0001 69.829 13.1973 69.829 9.87703C69.829 6.55841 71.7578 3.75455 75.3021 3.75455C78.8452 3.75455 80.7741 6.55841 80.7741 9.87703ZM4.04414 11.6823C4.67034 12.3289 5.65959 12.6831 6.71228 12.682C7.76441 12.6842 8.75421 12.3289 9.37986 11.6823C10.1468 10.901 10.3923 10.1198 10.389 8.47014L10.3906 0.0546875H13.4234V9.25745C13.4207 11.1813 12.8557 12.6693 11.6943 13.8042C10.3846 15.0875 8.77793 15.6878 6.71228 15.6928C4.64552 15.6878 3.04 15.0875 1.73021 13.8042C0.568828 12.6693 0.00331034 11.1813 0 9.25855V0.0546875H3.03338L3.03559 8.47014C3.03228 10.1198 3.27779 10.901 4.04414 11.6823ZM26.7349 2.91648H19.0516V6.41993H26.0828V9.23924H19.0516V10.7168C19.0516 12.3438 19.6188 12.7438 21.0786 12.7438H26.7349V15.6056H20.9081C18.2074 15.6056 16.0182 14.3946 16.0182 11.0423V1.19455C16.0182 0.471791 16.4966 0.0546875 17.1592 0.0546875H26.7349V2.91648ZM31.8698 9.23924L31.8748 15.6056H29.9774C29.3142 15.6056 28.837 15.1885 28.837 14.4646V4.61855C28.837 1.26627 31.0257 0.0546875 33.7258 0.0546875H39.5525V2.91648H33.8968C32.4364 2.91648 31.8698 3.31648 31.8698 4.94407L31.8692 6.41993H38.9015V9.23924H31.8698ZM45.9454 0.0591013C46.8386 0.0591013 47.1349 0.527515 47.3269 1.06986L53.0251 15.6078L49.7694 15.6089L48.6477 12.7488H44.9379L45.952 9.88586H47.5261L45.5305 4.79621L41.7015 15.6089L38.6654 15.6078L43.8146 1.06986C44.0061 0.528067 44.3018 0.0591013 45.1961 0.0591013H45.9454Z" fill="black"/>
</g>
<defs>
<clipPath id="clip0_3387_730">
<rect width="54" height="16" fill="white"/>
</clipPath>
</defs>
</svg>
