<svg width="20" height="20" viewBox="0 0 20 20" fill="none" xmlns="http://www.w3.org/2000/svg">
<path fill-rule="evenodd" clip-rule="evenodd" d="M0 10C0 4.48 4.48 0 10 0C15.52 0 20 4.48 20 10C20 15.52 15.52 20 10 20C4.48 20 0 15.52 0 10ZM13.4664 9.5772L8.5424 6.07016C8.4544 6.00752 8.3492 5.97387 8.2412 5.97387C7.95445 5.97386 7.72201 6.2063 7.72202 6.49304L7.72211 13.5069C7.72211 13.6149 7.75576 13.7202 7.8184 13.8081C7.98474 14.0417 8.3089 14.0962 8.5425 13.9298L13.4664 10.4229C13.5135 10.3894 13.5546 10.3483 13.5881 10.3012C13.7544 10.0677 13.6999 9.7435 13.4664 9.5772Z" fill="black"/>
</svg>
