<svg width="19.87939453125" height="21.50802230834961" viewBox="0 0 19.87939453125 21.50802230834961" fill="none" xmlns="http://www.w3.org/2000/svg">
<path d="M9.9397 21.508C4.50439 21.508 0 17.0036 0 11.5683C0 6.68356 3.63354 2.54953 8.30811 1.76876V0.737758C8.30811 0.027065 8.97876 -0.213169 9.5293 0.207241L12.2119 2.20919C12.5823 2.47946 12.5823 2.98996 12.2119 3.27023L9.5293 5.26217C8.98877 5.67257 8.30811 5.43234 8.30811 4.74166V3.49044C4.52441 4.24118 1.69165 7.55441 1.69165 11.5683C1.69165 16.1428 5.36523 19.7964 9.9397 19.8064C14.5042 19.8164 18.1777 16.1528 18.1777 11.5783C18.1777 8.84567 16.8564 6.45333 14.8345 4.95187C14.354 4.5715 14.334 4.05099 14.5742 3.71066C14.8145 3.38034 15.325 3.23019 15.8655 3.64059C18.2778 5.38229 19.8794 8.32516 19.8794 11.5783C19.8794 16.9135 15.0647 21.508 9.9397 21.508ZM12.5322 15.7824C10.8706 15.7824 9.77954 14.2109 9.77954 11.8086C9.77954 9.3862 10.8706 7.79464 12.5322 7.79464C14.1938 7.79464 15.2749 9.3862 15.2749 11.8086C15.2749 14.2109 14.1938 15.7824 12.5322 15.7824ZM7.30713 15.6623C6.93677 15.6623 6.69653 15.382 6.69653 14.9716V9.46627L5.76562 10.1469C5.56543 10.2871 5.46533 10.3271 5.28516 10.3271C4.96484 10.3271 4.70459 10.0468 4.70459 9.71652C4.70459 9.47628 4.80469 9.29611 5.03491 9.13595L6.41626 8.20504C6.78662 7.96481 6.9668 7.87472 7.23706 7.87472C7.6875 7.87472 7.95776 8.18502 7.95776 8.6755V14.9716C7.95776 15.3921 7.69751 15.6623 7.30713 15.6623ZM12.5322 14.5713C13.4131 14.5713 13.9636 13.5202 13.9636 11.8086C13.9636 10.0569 13.4231 9.00583 12.5322 9.00583C11.6313 9.00583 11.0808 10.0669 11.0808 11.8086C11.0808 13.5202 11.6414 14.5713 12.5322 14.5713Z" fill="black"/>
</svg>
