<svg width="571" height="135" viewBox="0 0 571 135" fill="none" xmlns="http://www.w3.org/2000/svg">
<path d="M25.3614 345.146C25.3614 345.146 25.3614 345.146 25.3588 345.143C20.2827 339.372 15.4897 333.543 11.1143 327.826C-11.1448 298.74 4.80236 271.938 17.6175 250.403C20.3315 245.843 22.8953 241.533 24.9744 237.434C61.111 166.155 143.165 95.5862 244.465 48.6597C345.345 1.92814 444.863 -12.198 510.674 10.8756C536.954 20.0974 556.311 32.0625 569.859 47.4641C596.843 78.1395 594.517 116.228 592.461 149.83C590.861 175.977 589.355 200.672 602.431 216.69C602.586 216.878 602.746 217.067 602.915 217.258C619.044 235.594 680.958 246.85 752.647 259.882C854.494 278.4 981.246 301.444 1030.21 357.102C1056.48 386.971 1058.37 423.803 1035.84 466.582C1012.56 510.758 978.039 546.144 933.231 571.761C892.006 595.329 841.912 610.752 784.336 617.599C721.692 625.047 651.173 622.386 574.732 609.683C503.617 597.866 430.662 577.993 357.89 550.617C215.861 497.186 91.5485 420.37 25.3726 345.141L25.3614 345.146ZM564.308 52.347C551.621 37.9236 533.275 26.6395 508.224 17.8498C444.187 -4.60093 346.741 9.4221 247.564 55.3667C147.72 101.619 66.9713 170.931 31.5592 240.78C29.3701 245.1 26.7447 249.516 23.9633 254.187C11.682 274.829 -2.23877 298.227 16.9819 323.344C21.2563 328.929 25.9402 334.622 30.909 340.271C96.324 414.634 219.529 490.69 360.486 543.716C432.811 570.923 505.3 590.671 575.938 602.408C651.691 614.995 721.512 617.642 783.461 610.275C840.046 603.543 889.202 588.435 929.562 565.36C973.13 540.453 1006.69 506.065 1029.3 463.151C1050.56 422.802 1049.04 389.714 1024.66 361.996C977.392 308.268 852.041 285.475 751.32 267.16C675.269 253.332 615.194 242.41 597.366 222.149C597.139 221.891 596.923 221.633 596.709 221.373C581.799 203.112 583.393 177.017 585.084 149.388C587.147 115.636 589.28 80.7351 564.311 52.3499L564.308 52.347Z" fill="#88090C"/>
</svg>
