<svg width="318" height="7" viewBox="0 0 318 7" fill="none" xmlns="http://www.w3.org/2000/svg">
<path d="M5.06321 207.917C-5.5665 195.833 2.81055 185.113 9.53798 176.492C14.1193 170.623 19.3122 163.975 22.674 154.865C41.2693 104.49 82.8207 58.6962 136.675 29.2247C187.75 1.27675 240.69 -7.26363 278.294 6.37206C292.249 11.4473 303.25 18.4786 310.986 27.2737C328.883 47.6185 326.741 73.2542 325.021 93.8489C323.986 106.231 323.009 117.923 327.273 122.776C332.825 129.065 362.222 134.659 388.159 139.59C438.891 149.241 502.027 161.255 530.132 193.204C545.1 210.22 548.569 230.982 540.438 254.909C523.742 304.036 483.592 336.811 424.323 349.683C362.612 363.087 283.304 354.842 201.014 326.463C121.61 299.082 50.4329 256.139 5.72888 208.645C5.49801 208.4 5.27804 208.156 5.06356 207.912L5.06321 207.917ZM300.378 36.6109C294.224 29.6155 285.169 23.9111 273.47 19.6567C240.136 7.56789 190.319 15.9819 143.46 41.6216C92.5559 69.4764 53.3632 112.536 35.9317 159.756C31.8044 170.935 25.6353 178.838 20.6751 185.189C12.7814 195.294 13.3381 195.927 15.6744 198.583C15.7842 198.708 15.8965 198.835 16.0198 198.964C59.2056 244.843 128.312 286.446 205.623 313.11C284.346 340.255 362.968 348.558 421.326 335.879C476.256 323.946 511.829 295.177 527.059 250.372C533.532 231.316 531.07 215.673 519.523 202.547C494.62 174.237 434.126 162.727 385.515 153.48C347.145 146.181 325.025 141.589 316.666 132.122C308.425 122.741 309.645 108.141 310.935 92.6772C312.512 73.8156 314.298 52.4417 300.372 36.6106L300.378 36.6109Z" fill="#88090C"/>
</svg>
