<svg width="260.2276306152344" height="233.21426391601562" viewBox="0 0 260.2276306152344 233.21426391601562" fill="none" xmlns="http://www.w3.org/2000/svg"><path d="M 43.937360154611454 233.21426391601562 C 39.16683189913185 233.21426391601562 36.59983625229833 230.70484317156652 35.49418713224042 229.2084672482753 C 32.44398722678043 225.07893345241075 33.80095613812566 220.66325422902568 34.61279639401522 218.02622984775962 C 35.896277211995894 213.85416353440422 37.83307554629332 207.55160022846167 30.483987855274464 196.32684690412174 C 3.457436503017508 155.0353763760395 -6.2150645630497845 108.89130118608907 3.948403074979854 69.72646317001602 C 10.211171342627438 45.60271751069597 23.363005645798896 27.224759011803837 40.987671869942275 17.975840857347624 C 48.58417731898825 13.997104772356707 56.15748016392913 11.978733397500665 63.49883586566887 11.978733397500665 C 84.15050584309412 11.978733397500665 97.9517977511882 27.45675912082193 107.0869336733507 37.69939453107212 C 109.00828895176734 39.85309334142701 111.47860109042126 42.6215614105233 113.12547720135619 44.106337531175114 C 116.29938617017051 42.3354326688564 122.1948949014616 37.90432852611859 127.09299803059432 34.22332080105993 C 145.2240984920737 20.59353970136462 172.62563141556464 0 199.82228063305755 0 C 212.91223911319284 0 224.57565147023553 4.682458366986337 234.49170061287498 13.919776442242014 C 259.9370948136172 37.6297955308615 266.79524837664934 69.79607397016733 253.80966953969286 104.49111805044903 C 241.99546053345182 136.05034559066019 213.91739477002582 167.79903887865783 176.78150117941922 191.59025630919217 C 137.29126920610005 216.88945011096644 90.29341574174298 231.66761075009435 44.44376932160265 233.2026527743707 C 44.269803549191664 233.20651937885157 44.10746757100356 233.21039353546732 43.94509951752139 233.21039353546732 L 43.937360154611454 233.21426391601562 Z M 63.49883586566887 29.482859825582043 C 59.0143845772489 29.482859825582043 54.17428906442353 30.828421259958983 49.11768384188431 33.47704535167744 C 36.11664102636962 40.30160226544406 25.825595565234536 55.11456268123839 20.892699221708867 74.12279067503361 C 11.966321848540975 108.52010455164233 20.79989470419315 149.56411262341683 45.128042261810684 186.73764869733878 C 52.98742944744201 198.743455583774 53.89593818773837 208.43703164097667 53.12275695654055 215.2035896337332 C 92.89519842755362 212.23017069936273 133.11606283277993 198.77054234764185 167.32933231328352 176.8507615866753 C 201.345439753985 155.05857800943315 226.8913439164511 126.44570126150606 237.4066089556867 98.35481849015119 C 244.7209034323126 78.8129986530721 248.08426936540238 50.521056692196815 222.5499580253134 26.729839261662466 C 215.8890018955113 20.523939226161417 208.45484167625585 17.50799680862969 199.8145412701476 17.50799680862969 C 178.45927501558427 17.50799680862969 153.87210360502704 35.99034053290446 137.60050453547984 48.22041045474262 C 125.68191588605995 57.17933326665212 119.69750070718678 61.51379695524 113.92956869295651 62.14018689698463 C 113.47339178682728 62.186586150755 113.04814021095854 62.20980654709147 112.6228905245827 62.20980654709147 C 105.49029337183757 62.20980654709147 100.42981846784338 56.53362723682969 94.02014609070797 49.34947598030574 C 86.12983168532325 40.49881836177901 76.30657894920562 29.482859825582043 63.49496618421391 29.482859825582043 L 63.49883586566887 29.482859825582043 Z" fill="black" fill-rule="nonzero" clip-rule="nonzero" stroke="none" /></svg>