<svg width="600" height="248" viewBox="0 0 600 248" fill="none" xmlns="http://www.w3.org/2000/svg">
<path d="M-153.865 458.404L-153.898 458.366C-161.53 449.69 -168.581 441.002 -174.857 432.544C-190.117 411.872 -195.005 388.817 -189.391 364.014C-184.694 343.267 -173.659 325.358 -166.36 313.505C-165.66 312.369 -164.993 311.283 -164.363 310.255C-136.974 265.31 -92.625 218.698 -36.0967 175.465C17.9743 134.11 82.0325 96.5738 149.147 66.92C217.363 36.7805 286.63 15.7675 349.454 6.1469C417.821 -4.32206 476.201 -1.40899 522.973 14.8044C559.884 27.5985 586.811 44.0362 605.3 65.0544C640.345 104.894 637.781 152.829 635.297 199.186C633.266 237.112 631.35 272.934 651.96 298.676C675.769 328.422 770.74 345.441 880.961 365.242C954.626 378.476 1038.12 393.473 1109.9 414.4C1192.3 438.425 1246.93 466.668 1276.92 500.751C1294.18 520.382 1303.41 542.364 1304.32 566.091C1305.32 591.724 1296.66 620.266 1278.58 650.913C1243.3 710.867 1192.86 758.383 1128.67 792.138C1069.53 823.23 998.307 842.918 916.966 850.657C826.982 859.218 725.724 853.265 616.009 832.957C514.89 814.241 411.042 784.293 307.343 743.946C107.388 666.143 -65.0336 559.399 -153.866 458.415L-153.865 458.404ZM604.185 66.0297C585.87 45.2088 559.148 28.9102 522.487 16.2005C475.947 0.0705135 417.807 -2.82173 349.679 7.60766C286.981 17.209 217.846 38.1838 149.748 68.2706C82.7352 97.8761 18.7824 135.35 -35.1939 176.638C-91.5726 219.76 -135.8 266.229 -163.091 311.021C-163.719 312.052 -164.389 313.141 -165.092 314.28C-180.228 338.854 -208.404 384.591 -173.66 431.656C-167.412 440.077 -160.387 448.736 -152.783 457.38L-152.75 457.418C-64.066 558.233 108.125 664.82 307.882 742.545C411.492 782.861 515.255 812.783 616.282 831.481C725.861 851.764 826.98 857.711 916.827 849.163C997.974 841.445 1069.02 821.811 1127.98 790.809C1191.92 757.186 1242.17 709.858 1277.3 650.146C1295.23 619.745 1303.82 591.481 1302.84 566.136C1301.94 542.76 1292.84 521.085 1275.81 501.721C1246.02 467.856 1191.61 439.756 1109.49 415.815C1037.79 394.912 954.337 379.921 880.709 366.694C771.78 347.126 677.705 330.226 651.91 300.908C651.527 300.473 651.161 300.038 650.808 299.597C629.842 273.415 631.776 237.315 633.821 199.099C636.286 153.043 638.838 105.416 604.191 66.03L604.185 66.0297Z" fill="#88090C"/>
</svg>
