<svg width="70" height="25" viewBox="0 0 70 25" fill="none" xmlns="http://www.w3.org/2000/svg">
<path d="M38.4054 19.6072H35.7266L40.1308 6.30461C40.3084 5.74539 40.5819 5.31513 41.361 5.29737L42.0266 5.30395C42.8057 5.28553 43.052 5.70461 43.2477 6.23289L48.4076 19.6072H45.4158L44.4274 17.1171L41.1328 17.1276L42.0441 14.4526L43.4888 14.4408L41.6844 9.71711L38.4054 19.6072ZM0.45051 0.940132C0.32943 0.938398 0.21398 0.887953 0.129517 0.799877C0.0450553 0.711801 -0.00151127 0.593297 4.66187e-05 0.470395C4.66187e-05 0.210526 0.201621 0 0.45051 0H69.5496C69.7985 0 70 0.210526 70 0.470395C70.0016 0.593297 69.955 0.711801 69.8706 0.799877C69.7861 0.887953 69.6707 0.938398 69.5496 0.940132H0.45051ZM0.45051 25C0.390501 24.9991 0.331247 24.9863 0.276131 24.9622C0.221014 24.9381 0.171116 24.9032 0.129286 24.8595C0.0874553 24.8158 0.0545118 24.7642 0.0323367 24.7076C0.0101616 24.651 -0.000810602 24.5905 4.66187e-05 24.5296C4.66187e-05 24.2704 0.201621 24.0599 0.45051 24.0599H69.5496C69.7985 24.0599 70 24.2704 70 24.5296C70.0009 24.5905 69.9899 24.651 69.9678 24.7076C69.9456 24.7642 69.9126 24.8158 69.8708 24.8595C69.829 24.9032 69.7791 24.9381 69.724 24.9622C69.6688 24.9863 69.6096 24.9991 69.5496 25H0.45051ZM6.93005 16.7487C7.88931 16.7408 8.75005 16.4329 9.29644 15.9197C10.01 15.1987 10.244 14.4809 10.2583 12.9322L10.3568 5.06842L13.0563 5.1L12.9844 13.6961C12.9896 15.4757 12.4419 16.8401 11.3887 17.9007C10.1941 19.052 8.76106 19.5651 6.91449 19.575C5.02838 19.5487 3.60894 18.9395 2.47014 17.725C1.49144 16.6513 0.965139 15.2664 0.993009 13.4454L1.0656 4.84868L3.76514 4.87961L3.73921 12.7368C3.7256 14.2862 3.89801 15.0059 4.59088 15.7566C5.12366 16.3678 6.00384 16.7151 6.93005 16.7487ZM31.5292 7.80789C30.1888 7.82368 29.682 8.17895 29.6392 9.80789L29.636 11.148L35.945 11.2289L35.9256 13.8566L29.6159 13.7757L29.5737 19.7007L27.8542 19.7033C27.2599 19.6914 26.8308 19.2454 26.845 18.6276L26.9721 9.44474C27.0317 6.30526 28.9697 5.18553 31.3976 5.22039L36.6198 5.25066L36.5997 7.87829L31.5292 7.80789ZM25.1035 5.16974L25.1061 7.79868L18.2 7.77039L18.1748 11.0638L24.4845 11.127L24.4359 13.7447L18.1262 13.6809L18.1112 15.0757C18.1262 16.5888 18.6356 16.9816 19.9196 16.9882L24.9965 17.0566L24.9881 19.7388L19.7472 19.6895C17.2913 19.6461 15.3203 18.5362 15.3748 15.3605L15.4221 6.14539C15.45 5.48026 15.9062 5.07895 16.4915 5.09737L25.1035 5.16974ZM50.4046 17.9145H52.0262V19.6072H50.4046V17.9145ZM56.5218 5.90855V8.92566H58.6406V9.89276H56.5218V17.0112C56.5218 17.6033 56.6249 18.0441 56.8297 18.3336C57.0345 18.623 57.3767 18.7678 57.8557 18.7678C58.0449 18.7678 58.3509 18.7349 58.7728 18.6691L59.0003 19.6368C58.7041 19.7487 58.1201 19.8046 57.61 19.8046C56.8342 19.8046 56.2697 19.5691 55.9171 19.0987C55.5638 18.6283 55.3869 17.9355 55.3869 17.0204V9.89276H53.5053V8.92566H55.3869V6.37895L56.5218 5.90855ZM64.8764 17.9783L67.9875 8.92566H69.151L65.3301 19.6072H64.4124L60.5727 8.92566H61.7362L64.8764 17.9783Z" fill="white"/>
</svg>
