<svg width="444" height="71" viewBox="0 0 444 71" fill="none" xmlns="http://www.w3.org/2000/svg">
<path d="M17.9359 279.949L17.9206 279.932C14.4556 275.993 11.123 271.999 8.01923 268.067C-7.84907 247.961 2.98497 230.749 13.4651 214.1C17.1133 208.301 20.8894 202.302 23.6475 196.071C50.8285 134.668 111.523 77.3432 190.163 38.7916C266.141 1.54092 342.434 -9.72251 394.248 8.66225C414.459 15.8441 429.487 25.2533 440.194 37.4242C462.602 62.898 460.444 94.1759 458.54 121.769C457.148 141.952 455.945 159.383 464.672 169.83L464.864 170.048C475.682 182.346 521.519 190.805 570.045 199.756C646.376 213.837 741.37 231.355 779.885 275.139C800.598 298.686 803.265 327.588 787.817 361.051C771.536 396.313 746.214 424.875 712.559 445.948C681.624 465.319 643.633 478.385 599.649 484.788C552.587 491.639 499.555 490.843 442.035 482.421C388.01 474.513 332.615 460.323 277.396 440.244C166.715 399.999 72.1441 341.573 17.9359 279.949ZM432.117 44.529C422.649 33.7659 409.086 25.3489 390.645 18.7979C366.27 10.15 334.968 8.49138 300.139 14.0037C266.355 19.3473 229.962 31.2603 194.896 48.4521C159.143 65.9808 125.768 88.5431 98.3876 113.7C68.7427 140.936 46.9041 170.114 33.4851 200.428C30.4097 207.376 26.4232 213.71 22.5678 219.835C11.5414 237.356 5.82052 247.923 16.4647 261.405C19.452 265.187 22.6574 269.03 25.9998 272.83L26.0125 272.844C79.0692 333.159 172.031 390.488 281.074 430.135C393.596 471.051 509.148 487.089 598.102 474.142C640.598 467.956 677.186 455.403 706.851 436.831C738.707 416.886 762.662 389.873 778.049 356.545C791.741 326.892 789.699 302.589 771.808 282.25C735.754 241.264 642.791 224.117 568.092 210.339C512.812 200.143 469.258 192.085 456.422 176.737C444.917 162.962 446.319 142.596 447.81 121.034C449.656 94.2944 451.563 66.6412 432.117 44.5344L432.117 44.529Z" fill="#88090C"/>
</svg>
