<svg width="349" height="23" viewBox="0 0 349 23" fill="none" xmlns="http://www.w3.org/2000/svg">
<path d="M11.9316 230.535C9.75225 228.122 7.73142 225.672 5.75248 223.253C-6.0066 208.872 2.68508 196.747 10.3511 186.05C14.5842 180.143 19.3801 173.447 22.608 165.145C43.2651 112.008 89.593 63.3261 149.705 31.5837C206.998 1.33221 265.783 -7.87549 306.957 6.94997C322.623 12.6058 334.403 20.0841 342.969 29.8226C361.982 51.4359 359.827 78.8075 358.091 100.801C356.925 115.563 355.919 128.311 361.32 134.568C368.202 142.386 401.279 148.609 433.268 154.632C490.411 165.388 561.53 178.778 592.232 213.68C608.665 232.361 611.93 255.192 601.937 281.539C581.029 336.668 532.502 372.611 461.604 385.477C392.879 397.95 303.766 387.766 217.104 357.532C131.418 327.641 56.6364 281.349 11.9319 230.529L11.9316 230.535ZM332.988 38.6027C326.038 30.7016 315.761 24.259 302.449 19.4522C265.299 6.07567 209.148 15.2271 155.909 43.3381C98.5821 73.6094 54.5093 119.762 34.9913 169.961C31.1563 179.827 25.6083 187.57 21.1497 193.788C12.5661 205.767 11.1818 208.9 16.039 214.838C17.911 217.13 19.8825 219.453 21.8971 221.743L21.9098 221.757C65.1487 270.911 137.884 315.825 221.483 344.989C306.041 374.488 392.696 384.482 459.232 372.406C525.293 360.417 570.342 327.364 589.511 276.833C597.736 255.15 595.359 237.362 582.25 222.46C554.572 190.995 485.946 178.074 430.806 167.692C386.382 159.33 360.79 154.075 351.362 143.369L351.268 143.262C342.233 132.797 343.5 116.746 344.839 99.7566C346.458 79.2459 348.29 55.9984 332.986 38.5998L332.988 38.6027Z" fill="#88090C"/>
</svg>
