<svg width="600" height="199" viewBox="0 0 600 199" fill="none" xmlns="http://www.w3.org/2000/svg">
<path d="M-64.0103 410.021L-64.0435 409.983C-70.6619 402.459 -76.8129 394.911 -82.3317 387.542C-111.758 348.26 -89.4986 311.018 -74.7692 286.373C-73.1767 283.711 -71.6758 281.196 -70.3603 278.881C-23.9502 196.953 78.1064 114.689 202.646 58.8274C328.365 2.43838 450.937 -14.693 530.526 13.0036C562.877 24.2681 586.563 38.7892 602.938 57.404C634.528 93.3158 632.001 138.254 629.771 177.904C627.92 210.79 626.175 241.854 643.568 263.435C643.832 263.758 644.073 264.056 644.372 264.39C665.84 288.771 745.969 303.219 838.75 319.954C902.644 331.477 975.065 344.538 1037.58 362.873C1109.57 383.986 1157.46 408.902 1183.97 439.047C1215.73 475.147 1216.87 519.826 1187.35 571.838C1157.17 625.026 1113.5 667.333 1057.56 697.584C1006.06 725.436 943.84 743.28 872.639 750.621C794.386 758.685 706.343 754.144 610.945 737.121C522.725 721.378 432.166 695.777 341.792 661.035C166.766 593.751 15.0626 499.911 -64.0103 410.021ZM599.924 60.0549C584.022 41.9771 560.888 27.8254 529.209 16.7985C450.563 -10.5694 329.095 6.51206 204.293 62.4912C80.5066 118.015 -20.863 199.648 -66.863 280.86C-68.1976 283.219 -69.7134 285.752 -71.3181 288.435C-85.4981 312.159 -106.926 348.01 -79.1146 385.134C-73.6589 392.419 -67.5739 399.887 -61.0245 407.333L-60.9913 407.37C17.6757 496.799 168.781 590.222 343.237 657.287C433.374 691.939 523.685 717.47 611.659 733.167C706.686 750.125 794.357 754.654 872.235 746.625C942.909 739.342 1004.62 721.651 1055.66 694.051C1110.93 664.166 1154.06 622.38 1183.87 569.856C1212.85 518.783 1211.9 476.864 1180.96 441.698C1122.46 375.195 964.763 346.753 838.043 323.903C744.522 307.035 663.754 292.47 641.364 267.041C641.022 266.735 640.745 266.325 640.448 265.953C622.086 243.17 623.873 211.359 625.767 177.678C628.058 136.898 630.43 94.7331 599.927 60.0578L599.924 60.0549Z" fill="#88090C"/>
</svg>
