<svg width="600" height="151" viewBox="0 0 600 151" fill="none" xmlns="http://www.w3.org/2000/svg">
<path d="M25.5107 361.414L25.48 361.379C20.0056 355.155 14.8678 348.893 10.2039 342.76C-13.7726 311.236 3.99266 281.285 16.9637 259.412C19.3996 255.303 21.7029 251.423 23.5988 247.788C62.2164 173.832 149.252 100.334 256.419 51.1713C363.515 2.04019 468.814 -12.8204 538.092 11.4146C565.887 21.1468 586.329 33.7538 600.582 49.9565C628.713 81.9352 626.339 121.733 624.241 156.85C622.58 184.688 621.009 210.98 635.171 228.39C635.351 228.613 635.538 228.819 635.732 229.051C653.203 248.894 719.659 260.947 796.612 274.904C904.834 294.534 1039.52 318.964 1091.1 377.598C1118.75 409.031 1120.45 447.829 1096.16 492.921C1071.15 539.35 1034.33 576.466 986.734 603.236C942.935 627.869 889.8 643.892 828.811 650.857C762.267 658.457 687.368 655.323 606.188 641.543C530.8 628.743 453.447 607.441 376.281 578.225C226.024 521.343 94.8961 440.291 25.5107 361.414ZM595.667 54.2802C582.175 38.9425 562.634 26.9437 535.926 17.5933C468.21 -6.09532 364.738 8.68208 259.144 57.1203C153.253 105.696 67.3665 178.106 29.3986 250.816C27.4217 254.605 25.0723 258.561 22.5905 262.747C9.23845 285.264 -5.89749 310.781 15.4139 338.795C19.9818 344.802 25.0203 350.945 30.3926 357.052L30.4232 357.087C99.1346 435.198 229.281 515.573 378.596 572.1C455.367 601.164 532.308 622.355 607.279 635.084C687.849 648.763 762.13 651.879 828.064 644.353C888.181 637.485 940.484 621.735 983.52 597.527C1030.02 571.374 1065.98 535.134 1090.39 489.815C1113.57 446.787 1112.19 411.494 1086.18 381.919C1036.1 324.997 902.66 300.791 795.435 281.341C717.28 267.165 649.787 254.922 630.808 233.371C630.564 233.117 630.321 232.806 630.082 232.516C614.313 213.132 615.958 185.602 617.697 156.459C619.817 120.951 622.007 84.235 595.656 54.2795L595.667 54.2802Z" fill="#88090C"/>
</svg>
