<svg width="381" height="39" viewBox="0 0 381 39" fill="none" xmlns="http://www.w3.org/2000/svg">
<path d="M14.0204 247.084L14.0051 247.067C11.4134 244.12 8.89556 241.135 6.51772 238.186C-6.52141 222.023 2.58981 208.566 11.3989 195.549C15.5778 189.376 19.8989 182.995 22.9719 175.442C45.7482 119.545 96.8549 67.9826 163.186 33.9668C226.704 1.39571 291.334 -8.49024 336.068 7.52428C353.246 13.6877 366.11 21.8135 375.392 32.3647C395.53 55.258 393.346 84.3756 391.594 107.773C390.352 124.358 389.278 138.68 395.797 146.337C404.042 155.709 442.077 162.809 478.857 169.678C542.403 181.542 621.487 196.306 654.789 234.163C672.665 254.484 675.73 279.36 663.899 308.096C639.515 367.334 585.455 405.523 507.565 418.536C431.533 431.238 332.995 419.051 237.208 385.095C143.211 351.774 61.8631 301.471 14.0204 247.084ZM366.044 40.5826C358.187 31.651 347.008 24.6686 331.865 19.2379C247.269 -11.047 81.6648 64.3899 34.5001 180.135C30.9308 188.892 26.0285 196.134 21.7043 202.522C12.6289 215.933 9.22253 221.72 16.2042 230.371C18.4729 233.184 20.8763 236.033 23.3505 238.846L23.3633 238.86C69.8501 291.706 149.302 340.726 241.368 373.362C335.224 406.634 431.498 418.623 505.514 406.258C540.953 400.338 571.238 389.051 595.527 372.715C621.505 355.244 640.635 331.908 652.388 303.358C662.404 279.029 660.13 259.08 645.441 242.381C614.976 207.749 538.234 193.422 476.569 181.911C430.682 173.342 397.528 167.155 386.516 154.636L386.321 154.415C376.477 142.855 377.79 125.363 379.178 106.843C380.84 84.6719 382.725 59.5457 366.044 40.5826Z" fill="#88090C"/>
</svg>
