<svg width="600" height="232" viewBox="0 0 600 232" fill="none" xmlns="http://www.w3.org/2000/svg">
<path d="M-123.737 442.57L-123.77 442.532C-131.134 434.161 -137.943 425.77 -144.016 417.596C-177.347 372.728 -150.358 328.37 -135.861 304.538C-134.854 302.879 -133.898 301.313 -133.023 299.843C-106.982 256.094 -64.603 210.844 -10.4641 168.986C41.1901 129.052 102.536 92.8354 166.952 64.2527C232.242 35.2821 298.642 15.0913 358.984 5.86803C424.541 -4.15318 480.56 -1.33078 525.491 14.2635C560.881 26.5468 586.731 42.3458 604.513 62.56C638.409 101.093 635.779 149.468 633.456 192.145C631.486 228.39 629.625 262.629 649.163 286.983C649.478 287.375 649.767 287.734 650.135 288.141C674.269 315.552 763.556 331.618 866.943 350.223C937.362 362.894 1017.17 377.255 1085.87 397.322C1164.8 420.377 1217.18 447.512 1246 480.275C1262.61 499.154 1271.52 520.307 1272.48 543.139C1273.52 567.781 1265.34 595.198 1248.16 624.617C1214.63 682.316 1166.49 728.102 1105.09 760.701C1048.53 790.726 980.344 809.817 902.407 817.444C816.355 825.867 719.514 820.411 614.578 801.227C517.758 783.523 418.338 755.049 319.077 716.592C127.402 642.323 -38.1464 539.887 -123.746 442.577L-123.737 442.57ZM602.765 64.0974C585.254 44.1909 559.729 28.6099 524.728 16.4583C480.162 0.991422 424.516 -1.79887 359.336 8.16422C299.196 17.3593 232.996 37.4863 167.895 66.3785C103.648 94.8898 42.4647 131.004 -9.03988 170.828C-62.9509 212.505 -105.13 257.532 -131.023 301.034C-131.904 302.509 -132.86 304.086 -133.873 305.75C-148.088 329.113 -174.545 372.6 -142.147 416.209C-136.114 424.331 -129.343 432.667 -122.023 440.995L-121.989 441.032C-36.6248 538.074 128.572 640.269 319.926 714.414C419.051 752.821 518.328 781.256 615.005 798.931C719.727 818.076 816.349 823.525 902.189 815.123C979.817 807.526 1047.72 788.524 1104 758.64C1165.02 726.246 1212.84 680.761 1246.15 623.439C1263.1 594.408 1271.18 567.423 1270.16 543.232C1269.21 520.944 1260.5 500.276 1244.25 481.807C1215.73 449.387 1163.71 422.483 1085.22 399.554C1016.64 379.522 936.89 365.173 866.53 352.512C762.716 333.83 673.057 317.699 648.388 289.678C648.031 289.302 647.684 288.861 647.346 288.442C627.247 263.392 629.133 228.725 631.13 192.018C633.537 147.722 636.033 101.916 602.765 64.0974Z" fill="#88090C"/>
</svg>
