<svg width="2" height="3" viewBox="0 0 2 3" fill="none" xmlns="http://www.w3.org/2000/svg">
<path d="M1.70451 2.02162C1.70325 2.03111 1.70198 2.03681 1.70198 2.03681C1.70198 2.03681 1.63998 1.99695 1.6267 2.02162C1.61341 2.0463 1.64821 2.22027 1.66909 2.32719C1.68996 2.43411 1.63935 2.59859 1.63935 2.59859L1.57988 2.55747C1.57988 2.55747 1.57988 2.45245 1.56407 2.37211C1.54888 2.29176 1.54003 2.16397 1.54003 2.12791C1.54003 2.09185 1.59823 1.97671 1.56913 1.9223C1.54003 1.86726 1.53686 1.75465 1.53054 1.59396C1.52484 1.43264 1.54888 1.41049 1.5919 1.41998C1.60139 1.39784 1.51915 1.32319 1.48309 1.19097C1.45462 1.08658 1.4717 0.941707 1.46538 0.888565C1.41034 0.856933 1.31797 0.729772 1.28064 0.64563C1.24332 0.562122 1.24332 0.53745 1.24332 0.53745C1.24332 0.53745 1.18132 0.535551 1.10034 0.517205C0.986465 0.491266 0.894101 0.388779 0.862469 0.343229C0.830837 0.297678 0.885244 0.271108 0.816919 0.301475C0.748594 0.331842 0.618269 0.343862 0.551209 0.324882C0.484149 0.305903 0.384826 0.327413 0.331052 0.309066C0.276645 0.291352 0.293724 0.226823 0.293724 0.226823C0.246276 0.297046 0.119749 0.290719 0.046995 0.218598C-0.0219627 0.150273 -0.00551363 0.0794177 0.035608 0.0180516C0.035608 0.0180516 0.139993 0.0275416 0.183012 0.00856235C0.226664 -0.0110495 0.25893 0.0022356 0.307011 0.0566427C0.346235 0.100927 0.418988 0.081949 0.439233 0.0870101C0.445559 0.0882754 0.658759 0.111683 0.757451 0.127499C0.852979 0.142682 0.920038 0.155967 0.980139 0.135723C1.0124 0.124968 1.02885 0.131927 1.02442 0.153437C1.02442 0.153437 0.960529 0.22619 0.928264 0.264149C0.935856 0.25972 0.959263 0.243272 0.971283 0.243272C1.02569 0.243905 1.05606 0.311597 1.12438 0.355882C1.19271 0.400167 1.3224 0.394473 1.37174 0.414717C1.38693 0.420411 1.39642 0.428003 1.40148 0.435594C1.39578 0.438125 1.39009 0.441288 1.3844 0.443819C1.33568 0.47039 1.29013 0.501389 1.24838 0.535552C1.28001 0.516573 1.31228 0.499491 1.34517 0.483042C1.36542 0.47292 1.38629 0.462798 1.40717 0.454574C1.40717 0.486838 1.37238 0.529226 1.38313 0.584265C1.39895 0.665876 1.51725 0.805689 1.57988 0.846178C1.60139 0.860096 1.59443 0.896157 1.59001 0.89932C1.59001 0.89932 1.56596 0.970808 1.56596 0.994216C1.56596 1.03028 1.57229 1.19729 1.64821 1.31433C1.68743 1.3757 1.69819 1.41176 1.69502 1.4358C1.69376 1.43517 1.69186 1.43517 1.69059 1.4358C1.68237 1.43453 1.67351 1.43453 1.66529 1.4339C1.67478 1.43643 1.68427 1.43896 1.69376 1.44149C1.68743 1.47502 1.65453 1.48578 1.64694 1.51614C1.63366 1.56929 1.64062 1.83057 1.68111 1.8932C1.71084 1.93938 1.70831 1.99505 1.70515 2.02162H1.70451Z" fill="#7592BC"/>
</svg>
