<svg width="46" height="6" viewBox="0 0 46 6" fill="none" xmlns="http://www.w3.org/2000/svg">
<path d="M15.59 1.00118V5.0892H16.7277V3.0908H17.7272C18.2188 3.0908 18.6171 2.692 18.6171 2.2009V2.0667H16.7277V1.5801C16.7277 1.3345 16.9268 1.13486 17.1729 1.13486H19.0321V0.11075H16.4805C15.9888 0.11075 15.59 0.50954 15.59 1.00118ZM7.43909 0C5.97535 0 5.03066 0.9872 5.03066 2.6003C5.03066 4.2134 5.97535 5.2006 7.43909 5.2006C8.90283 5.2006 9.84752 4.2128 9.84752 2.6003C9.84752 0.98776 8.90227 0 7.43909 0ZM7.43909 4.1776C6.72875 4.1776 6.1672 3.6663 6.1672 2.6003C6.1672 1.5342 6.72819 1.023 7.43909 1.023C8.14998 1.023 8.71098 1.5342 8.71098 2.6003C8.71098 3.6663 8.14998 4.1776 7.43909 4.1776ZM13.5468 3.2083L11.9606 0.62141C11.7665 0.30483 11.4214 0.1113 11.05 0.1113H10.4175V5.0898H11.5551V1.9929L13.1934 4.6653C13.355 4.9293 13.6425 5.0904 13.9524 5.0904H14.6845V0.11186H13.5468V3.2083ZM35.5136 3.2083L33.9273 0.62141C33.7332 0.30483 33.3881 0.1113 33.0168 0.1113H32.3842V5.0898H33.5218V1.9929L35.1601 4.6653C35.3217 4.9293 35.6092 5.0904 35.9191 5.0904H36.6512V0.11186H35.5136V3.2083ZM2.4287 1.03754C2.82862 1.03754 3.12897 1.20589 3.31075 1.5275C3.43156 1.7412 3.67543 1.8536 3.91593 1.806L4.60278 1.6701C4.39695 0.60463 3.57978 0.000559807 2.43598 0.000559807C1.03656 0.000559807 -0.000976562 0.98832 -0.000976562 2.6008C-0.000976562 4.2134 1.02202 5.2011 2.40745 5.2011C3.55126 5.2011 4.36842 4.5333 4.60278 3.4253L4.1777 3.3419C3.83036 3.2737 3.47128 3.4146 3.27496 3.7088C3.09206 3.9829 2.80569 4.1641 2.40745 4.1641C1.68984 4.1641 1.14954 3.6031 1.14954 2.6014C1.14954 1.5997 1.71781 1.03866 2.42815 1.03866L2.4287 1.03754ZM39.7073 1.03754C40.1072 1.03754 40.4076 1.20589 40.5894 1.5275C40.7102 1.7412 40.9541 1.8536 41.1946 1.806L41.8814 1.6701C41.6756 0.60463 40.8584 0.000559807 39.7146 0.000559807C38.3152 0.000559807 37.2776 0.98832 37.2776 2.6008C37.2776 4.2134 38.3006 5.2011 39.6861 5.2011C40.8299 5.2011 41.647 4.5333 41.8814 3.4253L41.4563 3.3419C41.109 3.2737 40.7499 3.4146 40.5536 3.7088C40.3707 3.9829 40.0843 4.1641 39.6861 4.1641C38.9685 4.1641 38.4282 3.6031 38.4282 2.6014C38.4282 1.5997 38.9964 1.03866 39.7068 1.03866L39.7073 1.03754ZM26.4917 3.555C26.9364 3.3559 27.5925 2.9157 27.5925 1.9039C27.5925 1.19695 27.277 0.76962 27.0125 0.53583C26.7071 0.26568 26.306 0.11075 25.9117 0.11075H23.5603V5.0892H24.698V1.2305H25.8356C25.8356 1.2305 25.9168 1.22883 25.9693 1.23889C26.1153 1.26574 26.4352 1.3821 26.4352 1.8799C26.4352 2.2418 26.2949 2.3956 25.8088 2.5645C25.4967 2.6735 25.2735 2.9465 25.2232 3.2961C25.1846 3.5657 25.2663 3.8386 25.429 4.0567L26.1959 5.0892H27.616L26.4878 3.5701C26.4839 3.5645 26.4856 3.5578 26.4917 3.555ZM20.4561 3.1339V3.0914H21.6849C22.1766 3.0914 22.5748 2.6926 22.5748 2.2015V2.0672H20.4556C20.4556 1.5527 20.8728 1.13542 21.3874 1.13542H22.76V0.1113H21.2498C20.1826 0.1113 19.3179 0.976009 19.3179 2.0432V3.1579C19.3179 4.2251 20.1826 5.0898 21.2498 5.0898H22.817V4.0657H21.3874C20.8728 4.0657 20.4561 3.6484 20.4561 3.1339ZM29.2341 3.1339V3.0914H30.4629C30.9545 3.0914 31.3528 2.6926 31.3528 2.2015V2.0672H29.2335C29.2335 1.5527 29.6508 1.13542 30.1653 1.13542H31.5379V0.1113H30.0277C28.9606 0.1113 28.0959 0.976009 28.0959 2.0432V3.1579C28.0959 4.2251 28.9606 5.0898 30.0277 5.0898H31.595V4.0657H30.1653C29.6508 4.0657 29.2341 3.6484 29.2341 3.1339ZM44.3894 4.0651C43.8748 4.0651 43.4576 3.6479 43.4576 3.1333V3.0908H44.6864C45.178 3.0908 45.5763 2.692 45.5763 2.2009V2.0667H43.457C43.457 1.5521 43.8743 1.13486 44.3888 1.13486H45.7614V0.11075H44.2512C43.1841 0.11075 42.3194 0.97545 42.3194 2.0426V3.1574C42.3194 4.2245 43.1841 5.0892 44.2512 5.0892H45.8185V4.0651H44.3894Z" fill="white"/>
</svg>
