<svg width="7" height="4" viewBox="0 0 7 4" fill="none" xmlns="http://www.w3.org/2000/svg">
<path d="M6.27381 3.65369C5.90026 3.46272 5.47214 3.28801 4.90184 3.11959L4.81265 3.01886L4.71559 2.91865C4.62955 2.59599 4.45641 2.2707 4.23081 2.00943C3.86198 1.58236 3.40868 1.33734 2.98738 1.33734C2.66944 1.33734 2.37353 1.47113 2.10858 1.73503C1.84731 1.99578 1.69778 2.40187 1.70145 2.83313L1.63325 2.91813L1.56819 3.00312C1.13325 3.08287 0.706709 3.18937 0.185203 3.3368L0.0204615 3.31214L0 3.21613C1.00996 1.67522 1.93492 0.631159 2.82211 0.0314792L2.99945 0L3.24184 0.100209C4.1647 0.844169 5.28589 2.05664 6.42859 3.55033L6.4118 3.64635L6.27329 3.65422L6.27381 3.65369Z" fill="url(#paint0_linear_3091_44637)"/>
<defs>
<linearGradient id="paint0_linear_3091_44637" x1="2.8069" y1="2.09704" x2="14.5948" y2="0.396114" gradientUnits="userSpaceOnUse">
<stop stop-color="#009E4C"/>
<stop offset="0.5" stop-color="#007E38"/>
<stop offset="1" stop-color="#009E4C"/>
</linearGradient>
</defs>
</svg>
