<svg width="5" height="2" viewBox="0 0 5 2" fill="none" xmlns="http://www.w3.org/2000/svg">
<path d="M4.46135 0.320637C4.32538 0.308621 4.02308 0.275735 4.01739 0.333285C4.0117 0.390836 4.56886 0.489494 4.47337 0.586887C4.34182 0.72096 4.29692 0.954956 4.29186 1.15543C4.28238 1.4805 4.4076 1.54374 4.36143 1.61584C4.32854 1.66769 4.10656 1.65125 3.61517 1.61963C3.31667 1.57852 3.00489 1.55006 2.695 1.55006C2.18906 1.55006 1.59648 1.6209 1.1247 1.71702C0.657338 1.81315 0.260177 1.8979 0.224129 1.84288C0.178595 1.77268 0.30255 1.72651 0.293696 1.41409C0.288004 1.22121 0.298122 0.999225 0.167844 0.868946C0.0653914 0.765862 0.592198 0.580562 0.589669 0.524909C0.586507 0.462932 0.308874 0.521748 0.172903 0.533764C0.0970125 0.54072 -0.0142941 0.572341 0.00151649 0.507834C0.625716 0.203007 1.68882 0 2.695 0C3.409 0 4.11162 0.0898035 4.72128 0.260557C4.74594 0.273838 4.52333 0.32633 4.46135 0.32127V0.320637Z" fill="url(#paint0_linear_1587_25624)"/>
<defs>
<linearGradient id="paint0_linear_1587_25624" x1="0.000251648" y1="0.930292" x2="4.72318" y2="0.930292" gradientUnits="userSpaceOnUse">
<stop offset="0.16" stop-color="#CEDBF2"/>
<stop offset="0.49" stop-color="#E1EAFA"/>
</linearGradient>
</defs>
</svg>
