<svg width="3" height="1" viewBox="0 0 3 1" fill="none" xmlns="http://www.w3.org/2000/svg">
<path d="M2.35345 0.1126C2.33065 0.1202 2.26805 0.1082 2.26545 0.1177C2.26355 0.1247 2.31545 0.1664 2.31865 0.274C2.32115 0.3796 2.28765 0.6536 2.25595 0.7535C2.23575 0.8149 2.22495 0.8212 2.22495 0.8212C2.22495 0.8212 2.24145 0.8402 2.23765 0.8573C2.23255 0.8807 2.22435 0.8902 2.22435 0.8902C2.22435 0.8902 2.26425 0.925 2.26545 0.9281C2.27055 0.9389 2.26735 0.9446 2.25915 0.949C2.19775 0.9338 1.85615 0.8218 1.18995 0.8218C1.16155 0.8218 1.13175 0.8218 1.10075 0.8225C0.666147 0.8294 0.413146 0.8876 0.221446 0.9269C0.203746 0.9287 0.201146 0.9167 0.204346 0.9066L0.207447 0.9009C0.223947 0.88 0.241046 0.8686 0.241046 0.8686C0.241046 0.8686 0.224547 0.8642 0.219547 0.8408C0.213847 0.8161 0.239747 0.7864 0.239747 0.7864C0.239747 0.7864 0.237846 0.7864 0.234046 0.7826C0.229046 0.7769 0.220146 0.7624 0.208746 0.7257C0.177146 0.6257 0.139146 0.3676 0.141746 0.2619C0.144846 0.1544 0.201847 0.1051 0.201847 0.1051C0.201847 0.1051 0.0227461 0.1259 0.000646101 0.1215C-0.0158539 0.1183 0.289747 0.0588999 0.289747 0.0588999C0.527647 0.0252999 0.817346 0 1.19885 0C1.44055 0 1.66135 0.0088996 1.85745 0.0284996C2.09525 0.0524996 2.37305 0.107 2.35345 0.1126Z" fill="white"/>
</svg>
