<svg width="3" height="4" viewBox="0 0 3 4" fill="none" xmlns="http://www.w3.org/2000/svg">
<path d="M1.9031 2.0642C1.8904 2.6005 1.9486 2.9376 1.8708 3.1121C1.695 3.0894 1.5122 3.0742 1.2548 3.0742C0.8096 3.0742 0.5902 3.109 0.4384 3.1374C0.3075 3.1507 0.267 3.0938 0.2619 3.0204C0.2493 2.8421 0.2708 2.5259 0.2746 2.3286C0.2853 1.7657 0.232199 1.3799 0.1589 0.965099C0.0626995 0.418699 -0.0328003 0.2163 0.0108997 0.1979C0.4283 0.0239998 0.9273 0 1.246 0C1.5015 0 1.7899 0.00249957 2.1649 0.0979996C2.01 0.991 1.9196 1.3615 1.9031 2.0642Z" fill="url(#paint0_linear_1591_39897)"/>
<defs>
<linearGradient id="paint0_linear_1591_39897" x1="-0.000500279" y1="1.5697" x2="2.1643" y2="1.5697" gradientUnits="userSpaceOnUse">
<stop offset="0.16" stop-color="#D6E2F5"/>
<stop offset="0.49" stop-color="#E7EEFB"/>
</linearGradient>
</defs>
</svg>
