<svg width="6" height="1" viewBox="0 0 6 1" fill="none" xmlns="http://www.w3.org/2000/svg">
<path d="M1.59648 0.0916996C1.97908 0.0335196 2.40158 0.00064 2.86698 0C2.89418 0 2.92138 0 2.94858 0C3.38498 0.00253 3.78408 0.0341497 4.14708 0.0879097C4.16978 0.0910697 4.19198 0.0948701 4.21468 0.0980301C4.27098 0.10688 4.32598 0.115739 4.38038 0.125859C4.39618 0.129019 4.41138 0.131549 4.42658 0.134709C4.42718 0.134709 4.42788 0.134709 4.42848 0.134709C5.23858 0.354159 5.71168 0.636219 4.64288 0.424359C4.58598 0.411709 4.52898 0.400329 4.47148 0.389569C4.39808 0.375659 4.32408 0.36301 4.25018 0.35163C2.90438 0.1404 1.45738 0.251069 0.239983 0.662149C-0.0636171 0.764599 -0.0807174 0.70642 0.197583 0.54642C0.581483 0.32696 1.10378 0.18404 1.59648 0.0916996Z" fill="url(#paint0_linear_1591_39960)"/>
<defs>
<linearGradient id="paint0_linear_1591_39960" x1="0.000282722" y1="0.35669" x2="5.26268" y2="0.35669" gradientUnits="userSpaceOnUse">
<stop offset="0.16" stop-color="#F1F4FB"/>
<stop offset="0.49" stop-color="#F6F9FD"/>
</linearGradient>
</defs>
</svg>
