<svg width="4" height="4" viewBox="0 0 4 4" fill="none" xmlns="http://www.w3.org/2000/svg">
<path d="M1.66928 0.520324C1.98512 0.520324 2.21795 0.648884 2.35765 0.756188C2.4194 0.804779 2.48621 0.830087 2.55201 0.830087C2.70588 0.830087 2.80913 0.693426 2.80913 0.566889C2.80913 0.490966 2.77269 0.414032 2.70993 0.358355C2.51152 0.19335 2.11976 0 1.66928 0C0.749103 0 0 0.734932 0 1.6379C0 2.54088 0.749103 3.2758 1.66928 3.2758C2.58946 3.2758 3.33249 2.54088 3.33249 1.6379C3.33249 1.38787 3.27378 1.14289 3.15736 0.91006L3.13611 0.866532L2.64413 1.10442L2.6664 1.14896C2.73726 1.29068 2.77471 1.45974 2.77471 1.6379C2.77471 2.26452 2.28982 2.75548 1.6703 2.75548C1.05077 2.75548 0.55879 2.26452 0.55879 1.6379C0.55879 1.01129 1.04672 0.520324 1.6703 0.520324H1.66928Z" fill="white"/>
</svg>
