<svg width="3" height="4" viewBox="0 0 3 4" fill="none" xmlns="http://www.w3.org/2000/svg">
<path d="M2.01502 2.00351C1.98023 2.64858 2.05359 2.93444 1.97264 3.12479C1.79367 3.0976 1.5622 3.0742 1.25485 3.0742C0.809621 3.0742 0.590171 3.10898 0.43839 3.13744C0.307479 3.15072 0.267003 3.09381 0.261944 3.02044C0.249295 2.8421 0.270798 2.52589 0.274593 2.32858C0.285344 1.76572 0.232221 1.37994 0.15886 0.965075C0.0627316 0.418663 -0.0327638 0.216288 0.0108733 0.197948C0.428271 0.0240323 0.927252 0 1.24599 0C1.53754 0 1.87019 0.00316183 2.3249 0.14103C2.14719 0.891082 2.04601 1.42611 2.01438 2.00288L2.01502 2.00351Z" fill="url(#paint0_linear_3091_43911)"/>
<defs>
<linearGradient id="paint0_linear_3091_43911" x1="0.000122118" y1="1.5703" x2="2.32554" y2="1.5703" gradientUnits="userSpaceOnUse">
<stop offset="0.16" stop-color="#F5F8FC"/>
<stop offset="0.49" stop-color="#F9FBFE"/>
</linearGradient>
</defs>
</svg>
