<svg width="7" height="16" viewBox="0 0 7 16" fill="none" xmlns="http://www.w3.org/2000/svg">
<path d="M5.18037 11.7415C4.63901 12.9273 4.63395 14.6292 4.6036 15.5506C4.39616 15.55 4.0945 15.5475 3.79157 15.5437C3.47662 15.5399 2.77527 15.5494 2.71202 15.5468C2.61906 15.543 2.60578 15.5215 2.60009 15.4735C2.58554 15.3533 2.6608 13.7628 1.94047 12.1836C1.49082 11.1983 0.951995 10.5235 0.528905 9.15684C-0.126283 7.04139 -0.0320525 3.02045 0.0387787 2.32985C0.122891 1.50264 0.279099 0.399699 2.71392 0.0430133C3.06175 -0.00821287 3.79473 -0.045526 4.44992 0.0031704C4.50114 0.0107595 4.54794 0.0189815 4.59221 0.0284678C6.28837 0.324441 6.35035 1.98771 6.41865 2.54551C6.63177 4.28403 6.55715 8.72679 5.181 11.7415H5.18037Z" fill="url(#paint0_linear_1587_25534)"/>
<defs>
<linearGradient id="paint0_linear_1587_25534" x1="-0.011815" y1="7.76488" x2="6.50782" y2="7.76488" gradientUnits="userSpaceOnUse">
<stop offset="0.16" stop-color="#D6E2F5"/>
<stop offset="0.52" stop-color="#E7EEFB"/>
</linearGradient>
</defs>
</svg>
