<svg width="2" height="3" viewBox="0 0 2 3" fill="none" xmlns="http://www.w3.org/2000/svg">
<path d="M0.0638973 0.128869C0.0993251 0.092809 0.100591 0.0257486 0.148039 0.0067694C0.195487 -0.0122098 0.177772 0.00993244 0.144875 0.0580131C0.111978 0.106094 0.0582029 0.175051 0 0.17948C0 0.17948 0.0208784 0.173154 0.0645305 0.128869H0.0638973ZM1.29691 1.09238C1.22479 0.894996 1.28489 0.743795 1.25326 0.755815L1.28932 0.741897C1.29438 0.708367 1.23365 0.698245 1.16659 0.622328C1.09953 0.545779 1.0388 0.392047 1.03247 0.373701C1.01286 0.388252 0.991981 0.413557 0.991981 0.413557C1.01412 0.425578 1.01729 0.433802 1.01412 0.482515C1.01222 0.518576 1.09637 0.622961 1.1261 0.66345C1.15583 0.703306 1.18114 0.705837 1.22543 0.765938C1.22226 0.769101 1.21973 0.77353 1.21657 0.781121C1.20645 0.806427 1.21087 0.86463 1.21657 0.901956C1.2172 0.906384 1.24124 1.06834 1.25832 1.11895C1.27477 1.16703 1.33044 1.21511 1.33361 1.26003C1.32728 1.26825 1.30008 1.31823 1.30134 1.35303C1.30893 1.55864 1.28299 1.60355 1.29881 1.68643C1.31842 1.78702 1.3412 1.81928 1.3412 1.81928C1.3412 1.81928 1.3102 1.91608 1.30071 1.95973C1.29122 2.00338 1.32602 2.05842 1.32602 2.1394C1.32602 2.22038 1.33993 2.34627 1.33804 2.37474L1.37473 2.40005C1.37473 2.40005 1.38295 2.31148 1.36967 2.24315C1.35638 2.17483 1.35638 2.15458 1.35765 2.10397C1.35955 2.01793 1.32475 1.93126 1.37726 1.83953C1.39307 1.81169 1.38865 1.78575 1.37093 1.75918C1.35322 1.73261 1.33171 1.68833 1.3374 1.63076C1.35005 1.49917 1.31463 1.36062 1.3355 1.31633C1.34499 1.29609 1.35448 1.27078 1.34942 1.26193L1.4013 1.26572C1.4051 1.2303 1.31589 1.14932 1.29565 1.09428L1.29691 1.09238ZM0.650354 0.172521C0.683884 0.142787 0.707925 0.111788 0.702864 0.102931C0.697803 0.0928087 0.576969 0.151012 0.535215 0.197827C0.504848 0.231357 0.446644 0.240214 0.377686 0.247173C0.448542 0.249703 0.492195 0.249071 0.554827 0.231357C0.57001 0.226928 0.585826 0.219336 0.602275 0.209214C0.593418 0.221234 0.588356 0.231989 0.59405 0.238948C0.747149 0.407863 0.957185 0.410394 1.03247 0.374333C0.960981 0.366741 0.885697 0.3446 0.821168 0.318661C0.767393 0.297152 0.679455 0.220602 0.650354 0.173154V0.172521Z" fill="#6476A0"/>
</svg>
