<svg width="6" height="4" viewBox="0 0 6 4" fill="none" xmlns="http://www.w3.org/2000/svg">
<path d="M0.991596 3.42914C0.730318 3.42914 0.458023 3.41025 0.189925 3.38769L0.0141667 3.30742L0 3.18832C0.641127 2.44856 1.37879 1.50261 2.07186 0.104406L2.22348 0L2.3877 0.0288559C3.23239 0.605976 4.5498 1.27071 5.62744 1.66263L5.71139 1.76756L5.53773 1.98949C5.19618 2.245 4.83154 2.47217 4.44959 2.66052L4.37299 2.62012L4.29429 2.58025C4.19671 2.10806 3.89136 1.73031 3.42914 1.51258C3.26125 1.43336 3.08602 1.39348 2.90868 1.39348C2.394 1.39348 1.89872 1.73661 1.64741 2.26756C1.49212 2.59599 1.4365 2.94279 1.4853 3.27594L1.42601 3.34887L1.36987 3.42232C1.24448 3.42757 1.11804 3.42966 0.991596 3.42966V3.42914Z" fill="url(#paint0_linear_3091_44608)"/>
<defs>
<linearGradient id="paint0_linear_3091_44608" x1="-8.06026" y1="3.36198" x2="3.46587" y2="1.43126" gradientUnits="userSpaceOnUse">
<stop stop-color="#E30918"/>
<stop offset="0.5" stop-color="#9C1006"/>
<stop offset="1" stop-color="#E30918"/>
</linearGradient>
</defs>
</svg>
