<svg width="3" height="4" viewBox="0 0 3 4" fill="none" xmlns="http://www.w3.org/2000/svg">
<path d="M2.02514 1.99782C1.98782 2.65301 2.06308 2.93444 1.98213 3.12606C1.80252 3.09887 1.56663 3.0742 1.25485 3.0742C0.809621 3.0742 0.590171 3.10898 0.43839 3.13744C0.307479 3.15072 0.267004 3.09381 0.261945 3.02044C0.249296 2.8421 0.270798 2.52589 0.274593 2.32858C0.285344 1.76572 0.232221 1.37994 0.15886 0.965075C0.0627316 0.418663 -0.0327638 0.216288 0.0108733 0.197948C0.428271 0.0240323 0.927252 0 1.24599 0C1.5407 0 1.87841 0.0031623 2.34071 0.145457C2.16111 0.881596 2.05802 1.43243 2.02577 1.99782H2.02514Z" fill="url(#paint0_linear_3091_43909)"/>
<defs>
<linearGradient id="paint0_linear_3091_43909" x1="-0.000510303" y1="1.5703" x2="2.34008" y2="1.5703" gradientUnits="userSpaceOnUse">
<stop offset="0.16" stop-color="#F8FAFD"/>
<stop offset="0.49" stop-color="#FBFCFE"/>
</linearGradient>
</defs>
</svg>
