<svg width="5" height="2" viewBox="0 0 5 2" fill="none" xmlns="http://www.w3.org/2000/svg">
<path d="M4.48411 0.329451C4.34821 0.317451 4.03831 0.28015 4.03321 0.33775C4.02881 0.39145 4.58911 0.49455 4.49361 0.59195C4.36211 0.72605 4.31721 0.962551 4.31211 1.16305C4.30261 1.48805 4.42781 1.55135 4.38171 1.62345C4.34941 1.67405 4.12871 1.65695 3.64811 1.62535C3.34011 1.58165 3.01691 1.55005 2.69501 1.55005C2.18911 1.55005 1.59651 1.62085 1.12471 1.71705C0.657314 1.81315 0.260215 1.89785 0.224115 1.84285C0.178615 1.77265 0.302615 1.72655 0.293715 1.41405C0.288015 1.22125 0.298115 0.99925 0.167915 0.86895C0.0654146 0.76585 0.592214 0.58055 0.589714 0.52495C0.586514 0.46295 0.308915 0.521751 0.172915 0.533751C0.0970147 0.540751 -0.0142854 0.572351 0.00151464 0.507851C0.625715 0.203051 1.68881 0 2.69501 0C3.41601 0 4.12621 0.0916998 4.73901 0.26565C4.76181 0.28145 4.54611 0.335151 4.48411 0.329451Z" fill="url(#paint0_linear_1591_39941)"/>
<defs>
<linearGradient id="paint0_linear_1591_39941" x1="0.000314643" y1="0.93095" x2="4.74091" y2="0.93095" gradientUnits="userSpaceOnUse">
<stop offset="0.16" stop-color="#D1DDF3"/>
<stop offset="0.49" stop-color="#E3ECFA"/>
</linearGradient>
</defs>
</svg>
