<svg width="4" height="2" viewBox="0 0 4 2" fill="none" xmlns="http://www.w3.org/2000/svg">
<path d="M0.27 0.000599861C0.2491 0.0296999 0.2359 0.0607002 0.2365 0.0999002C0.2365 0.1517 0.2346 0.5103 0.2308 0.5976C0.2257 0.7007 0.2087 0.8733 0.2605 0.8822C0.1948 0.9195 0.074 1.015 0 1.0991C0.0025 1.0137 0.0587998 0.8019 0.0840998 0.6672C0.0973998 0.5951 0.117 0.4167 0.117 0.2681C0.117 0.1277 0.103699 0.0803 0.181499 0.0253L0.27 0.000599861ZM3.4764 0.000599861C3.4985 0.0290999 3.5105 0.0613002 3.5099 0.0999002C3.5099 0.1517 3.5112 0.5097 3.5156 0.597C3.5207 0.7001 3.5409 0.8733 3.4859 0.8816C3.5517 0.9189 3.6724 1.0144 3.7464 1.0985C3.7439 1.0131 3.6876 0.8012 3.6623 0.6665C3.649 0.5944 3.6294 0.4161 3.6294 0.2675C3.6294 0.1271 3.6427 0.0803 3.5649 0.0246L3.4764 0.000599861Z" fill="#556684"/>
</svg>
