<svg width="5" height="5" viewBox="0 0 5 5" fill="none" xmlns="http://www.w3.org/2000/svg">
<path d="M3.1442 2.32222L3.1513 2.28881H4.4835V4.14132C3.8306 4.62216 3.1787 4.74769 2.5581 4.74769C1.147 4.74769 0 3.84472 0 2.37384C0 0.902973 1.147 0 2.5581 0C3.1979 0 3.8903 0.191325 4.3641 0.566889V1.61563L4.3377 1.62272C4.0472 1.12871 3.3953 0.791619 2.7089 0.791619C1.7665 0.791619 1.0144 1.38483 1.0144 2.37384C1.0144 3.36286 1.7655 3.95607 2.7089 3.95607C3.0056 3.95607 3.289 3.89027 3.5198 3.79106V2.95389C3.5198 2.68968 3.3619 2.44673 3.1442 2.32121V2.32222Z" fill="white"/>
</svg>
