<svg width="6" height="1" viewBox="0 0 6 1" fill="none" xmlns="http://www.w3.org/2000/svg">
<path d="M1.59519 0.0916996C1.98039 0.0335196 2.40529 0 2.87399 0C2.90119 0 2.92899 0 2.95619 0C3.39569 0.00317 3.79729 0.0354194 4.16219 0.0898094C4.18499 0.0929694 4.20769 0.0967598 4.22989 0.0999298C4.28619 0.10878 4.34179 0.11827 4.39679 0.12838C4.41259 0.13155 4.42779 0.134079 4.44359 0.137239H4.44549C5.27909 0.363009 5.80209 0.66658 4.66619 0.42815C4.60929 0.4155 4.55179 0.403489 4.49419 0.392739C4.42089 0.378819 4.34749 0.366169 4.27349 0.354159C2.92139 0.137869 1.46429 0.24791 0.239894 0.66088C-0.0636065 0.76334 -0.0807067 0.70515 0.197593 0.54515C0.581393 0.3257 1.10319 0.18277 1.59579 0.0904398L1.59519 0.0916996Z" fill="url(#paint0_linear_1591_39956)"/>
<defs>
<linearGradient id="paint0_linear_1591_39956" x1="-0.0010066" y1="0.35669" x2="5.31889" y2="0.35669" gradientUnits="userSpaceOnUse">
<stop offset="0.16" stop-color="#F6F9FD"/>
<stop offset="0.49" stop-color="#FAFBFE"/>
</linearGradient>
</defs>
</svg>
