<svg width="6" height="1" viewBox="0 0 6 1" fill="none" xmlns="http://www.w3.org/2000/svg">
<path d="M1.59648 0.0917009C1.97025 0.0354154 2.38195 0.00252969 2.83413 0C2.8607 0 2.88726 0 2.91319 0C3.33754 0.00126484 3.72585 0.0297238 4.08127 0.0790527C4.1034 0.0822148 4.12554 0.0853765 4.14767 0.0885386C4.20206 0.0961277 4.25582 0.104982 4.30894 0.113836C4.32412 0.116366 4.33993 0.119527 4.35447 0.122057C4.35511 0.122057 4.35574 0.122057 4.35637 0.122057C5.07291 0.315578 5.34485 0.514159 4.54673 0.405382C4.49108 0.393366 4.43479 0.383248 4.37851 0.373761C4.30451 0.361113 4.23052 0.349096 4.15589 0.338345C2.83666 0.149251 1.42889 0.261822 0.239941 0.662777C-0.0636216 0.76523 -0.0806968 0.707047 0.197569 0.547044C0.581448 0.327594 1.1032 0.184667 1.59585 0.092333L1.59648 0.0917009Z" fill="url(#paint0_linear_3091_44015)"/>
<defs>
<linearGradient id="paint0_linear_3091_44015" x1="0.000253079" y1="0.356686" x2="5.03243" y2="0.356686" gradientUnits="userSpaceOnUse">
<stop offset="0.16" stop-color="#D9E4F5"/>
<stop offset="0.49" stop-color="#E8EFFB"/>
</linearGradient>
</defs>
</svg>
