<svg width="2" height="1" viewBox="0 0 2 1" fill="none" xmlns="http://www.w3.org/2000/svg">
<path d="M0 0.3195L0.00949955 0.3106L0.1208 0.403601C0.131 0.411901 0.1405 0.416302 0.1544 0.416302C0.1373 0.423202 0.1158 0.4163 0.1038 0.4062L0 0.3195ZM0.6181 0.00320053L0.6345 0.0544014L0.4966 0.0854015L0.5055 0.1145L0.5226 0.110701L0.5143 0.0834999L0.6523 0.0525017L0.6358 0L0.6181 0.00320053ZM0.6744 0.170801L0.6909 0.2227L0.4732 0.2733L0.4694 0.277102L0.7086 0.222101L0.6915 0.167002L0.6744 0.170801ZM0.6542 0.136702L0.5213 0.166401L0.5327 0.2031L0.5498 0.199301L0.5384 0.164501L0.6712 0.1348L0.6542 0.0810013L0.6371 0.0848007L0.6542 0.136702ZM1.3779 0.402401L1.3849 0.3904L1.3488 0.3568L1.426 0.322701L1.4298 0.315701L1.3317 0.359402L1.3779 0.402401ZM0.2455 0.2847L0.1354 0.194901L0.1259 0.203701L0.2284 0.287901C0.2284 0.287901 0.2354 0.294201 0.2385 0.296701C0.3182 0.373901 0.2221 0.478301 0.1386 0.497301C0.2252 0.490301 0.3416 0.3758 0.2562 0.2936C0.2531 0.291 0.2487 0.2872 0.2455 0.2847ZM1.2849 0.382101L1.245 0.4011L1.2488 0.404902L1.2887 0.3859L1.2849 0.382101ZM0.961 0.162601L0.9344 0.2493L0.9496 0.253101L0.9762 0.166401L0.961 0.162601ZM1.4507 0.242901L1.4361 0.248001L1.5006 0.3062L1.3868 0.532701L1.3975 0.542801L1.5177 0.303001L1.4507 0.242901ZM1.0021 0.0816002L0.9869 0.0778008L0.9749 0.1152L1.0774 0.1392L1.0635 0.1854L1.0787 0.189201L1.0945 0.136702L0.992 0.1126L1.0021 0.0816002ZM0.9262 0.0152016L1.1236 0.0601006L1.1097 0.106901L1.1248 0.110701L1.1407 0.0576L0.9218 0.00760078L0.9262 0.0152016Z" fill="#2B4688"/>
</svg>
