<svg width="3" height="3" viewBox="0 0 3 3" fill="none" xmlns="http://www.w3.org/2000/svg">
<path d="M1.15245 0C0.860746 0.0019 0.578046 0.1063 0.355946 0.2948C0.0345463 0.5681 -0.0837545 1.0236 0.0611455 1.4285C0.217346 1.8637 0.627946 2.1307 1.15875 2.1421H1.18095C1.80025 2.1383 2.29435 1.6936 2.30705 1.1267C2.31335 0.824899 2.20955 0.556099 2.00525 0.349199C1.78825 0.128999 1.47825 0.0019 1.15245 0ZM2.22795 1.1242C2.21655 1.6524 1.74265 2.0618 1.17835 2.058C1.16765 2.058 1.15745 2.058 1.14675 2.058C0.0484455 2.0346 -0.210254 0.882499 0.403346 0.358099C0.626046 0.167599 0.894346 0.0815988 1.15495 0.0840988C1.71295 0.0821988 2.24185 0.483999 2.22795 1.1242Z" fill="#9DB4DB"/>
</svg>
