<svg width="5" height="2" viewBox="0 0 5 2" fill="none" xmlns="http://www.w3.org/2000/svg">
<path d="M4.64291 0.38645C4.50691 0.37435 4.14451 0.30675 4.14131 0.36425C4.13881 0.40915 4.72821 0.524951 4.63271 0.622351C4.50121 0.756351 4.45631 1.00935 4.45121 1.20985C4.44171 1.53485 4.56701 1.59745 4.52081 1.67025C4.49171 1.71575 4.27981 1.69365 3.87451 1.66205C3.50201 1.59935 3.09661 1.55005 2.69501 1.55005C2.18911 1.55005 1.59652 1.62085 1.12472 1.71705C0.657315 1.81315 0.260215 1.89785 0.224115 1.84285C0.178615 1.77265 0.302515 1.72655 0.293715 1.41405C0.288015 1.22125 0.298114 0.99925 0.167814 0.86895C0.0654145 0.76585 0.592214 0.58055 0.589714 0.52495C0.586514 0.46295 0.308915 0.521751 0.172915 0.533751C0.0970147 0.540751 -0.0142854 0.572351 0.00151464 0.507851C0.625715 0.203051 1.68881 0 2.69501 0C3.46591 0 4.22422 0.105611 4.86421 0.304151C4.87121 0.338351 4.70681 0.39205 4.64291 0.38645Z" fill="url(#paint0_linear_1591_39927)"/>
<defs>
<linearGradient id="paint0_linear_1591_39927" x1="-0.000385357" y1="0.93095" x2="4.86422" y2="0.93095" gradientUnits="userSpaceOnUse">
<stop offset="0.16" stop-color="#E5ECF8"/>
<stop offset="0.49" stop-color="#EFF4FC"/>
</linearGradient>
</defs>
</svg>
