<svg width="6" height="1" viewBox="0 0 6 1" fill="none" xmlns="http://www.w3.org/2000/svg">
<path d="M1.59519 0.0916996C1.98229 0.0328896 2.41039 0 2.88219 0C2.90999 0 2.93719 0 2.96439 0C3.40709 0.0038 3.81119 0.0366795 4.17799 0.0923395C4.20079 0.0954995 4.22359 0.0992893 4.24629 0.103089C4.30319 0.111939 4.35889 0.122059 4.41449 0.132179C4.43039 0.135339 4.44619 0.138499 4.46129 0.141669C4.46199 0.141669 4.46259 0.141669 4.46319 0.141669C5.31949 0.373759 5.89379 0.6982 4.68959 0.43448C4.63209 0.42183 4.57449 0.40981 4.51699 0.39843C4.44359 0.38388 4.37029 0.37123 4.29689 0.35922C2.93779 0.13724 1.47129 0.24728 0.239894 0.66278C-0.0636065 0.76523 -0.0807067 0.707049 0.197593 0.54705C0.581393 0.3276 1.10259 0.18403 1.59519 0.0916996Z" fill="url(#paint0_linear_1591_39952)"/>
<defs>
<linearGradient id="paint0_linear_1591_39952" x1="-0.0010066" y1="0.35669" x2="5.37649" y2="0.35669" gradientUnits="userSpaceOnUse">
<stop offset="0.16" stop-color="#FCFDFE"/>
<stop offset="0.49" stop-color="#FDFEFF"/>
</linearGradient>
</defs>
</svg>
