<svg width="7" height="16" viewBox="0 0 7 16" fill="none" xmlns="http://www.w3.org/2000/svg">
<path d="M5.23981 11.7737C4.70225 12.9513 4.68391 14.6329 4.65356 15.5505C4.44676 15.5499 4.12043 15.5474 3.79157 15.5436C3.47662 15.5398 2.77527 15.5493 2.71202 15.5467C2.61906 15.5429 2.60578 15.5214 2.60009 15.4734C2.58554 15.3532 2.6608 13.7627 1.94047 12.1835C1.49082 11.1982 0.951995 10.5234 0.528905 9.15676C-0.126283 7.04131 -0.0320525 3.02037 0.0387787 2.32977C0.122891 1.50256 0.279099 0.399617 2.71392 0.0429316C3.08073 -0.0108243 3.87884 -0.0500341 4.55933 0.0125756C4.64091 0.0245916 4.71617 0.0378724 4.78637 0.0530505C6.57359 0.384439 6.51983 2.52266 6.55778 3.13674C6.68679 5.25092 6.47936 9.06 5.24108 11.7737H5.23981Z" fill="url(#paint0_linear_3091_43884)"/>
<defs>
<linearGradient id="paint0_linear_3091_43884" x1="-0.011815" y1="7.76543" x2="6.59003" y2="7.76543" gradientUnits="userSpaceOnUse">
<stop offset="0.16" stop-color="#DFE8F7"/>
<stop offset="0.52" stop-color="#ECF2FC"/>
</linearGradient>
</defs>
</svg>
