<svg width="3" height="4" viewBox="0 0 3 4" fill="none" xmlns="http://www.w3.org/2000/svg">
<path d="M2.0517 1.9833C2.0074 2.6644 2.0884 2.9338 2.0062 3.1292C1.8259 3.1008 1.5786 3.0742 1.2548 3.0742C0.8096 3.0742 0.5902 3.109 0.4384 3.1374C0.3075 3.1507 0.267 3.0938 0.2619 3.0204C0.2487 2.8421 0.2708 2.5259 0.2746 2.3286C0.2853 1.7657 0.232199 1.3799 0.1589 0.965099C0.0626995 0.418699 -0.0328003 0.2163 0.0108997 0.1979C0.4283 0.0239998 0.9273 0 1.246 0C1.5647 0 1.8974 0.00319959 2.3787 0.1556C2.1934 0.8576 2.0865 1.4477 2.0517 1.9833Z" fill="white"/>
</svg>
