<svg width="2" height="3" viewBox="0 0 2 3" fill="none" xmlns="http://www.w3.org/2000/svg">
<path d="M1.65885 0.0189779C1.64409 0.0231955 1.62827 0.0274139 1.6114 0.0316315C1.53106 0.0512433 1.41528 0.0733856 1.34316 0.0809773C1.25333 0.0904669 1.09137 0.144241 1.01925 0.0828752C1.01989 0.0651612 1.02052 0.0404879 1.01546 0.0132844C1.00533 -0.0392248 0.751646 0.211933 0.683953 0.236606C0.616893 0.260647 0.579568 0.259381 0.579568 0.259381C0.579568 0.259381 0.564384 0.20371 0.539078 0.196751C0.514405 0.189159 0.404959 0.497255 0.36194 0.555457C0.296778 0.642762 0.232248 0.553559 0.194289 0.538376C0.160127 0.523825 0.239207 0.720576 0.183535 0.792697C0.152535 0.832554 0.172779 1.0369 0.166453 1.07169C0.160759 1.10649 0.123434 1.10838 0.107618 1.08687C0.0918019 1.066 0.0475173 1.03373 0.0475173 1.03373C-0.0132161 1.04196 0.0867411 1.2735 0.0702924 1.31652C0.0538438 1.35954 0.0734554 1.4576 0.0918019 1.55693C0.110149 1.65625 0.0664967 1.69358 0.0664967 1.69358C0.029171 1.65562 0.00323271 1.64043 0.00323271 1.64043C-0.0208076 1.67586 0.0974959 1.92322 0.0861084 1.97826C0.0740882 2.0333 0.0468846 2.07632 0.0424561 2.12251C0.0380276 2.16869 0.0601694 2.27244 0.0487819 2.32432C0.0373944 2.37683 0.0354966 2.54701 0.0608022 2.60584L0.183535 2.52107C0.183535 2.52107 0.187331 2.44642 0.181004 2.38758C0.175311 2.32938 0.188596 2.23006 0.217064 2.14718C0.245533 2.0643 0.22086 1.99914 0.185432 1.90931C0.1538 1.82643 0.119638 1.77266 0.119638 1.77266C0.164556 1.78911 0.2158 1.92133 0.2158 1.92133C0.245534 1.87578 0.233514 1.75051 0.208841 1.66448C0.184168 1.57907 0.235412 1.4633 0.208841 1.35195C0.18227 1.24061 0.163291 1.18873 0.163291 1.18873C0.194923 1.20075 0.232248 1.35069 0.232248 1.35069C0.261982 1.32538 0.245533 1.31399 0.269574 1.22859C0.293614 1.14318 0.316389 1.00463 0.320817 0.933776C0.325246 0.863553 0.29994 0.720577 0.29994 0.720577C0.327144 0.744617 0.344858 0.881267 0.344858 0.881267C0.408122 0.857226 0.502386 0.649721 0.542875 0.60164C0.583364 0.553559 0.588425 0.390971 0.588425 0.390971C0.604873 0.37642 0.597914 0.495357 0.597914 0.495357C0.748482 0.46246 0.831358 0.457398 0.950294 0.315686C0.996477 0.260647 1.01546 0.109446 1.01546 0.109446C1.01546 0.109446 1.01672 0.103752 1.01799 0.0936299C1.01988 0.170812 1.04519 0.201179 1.07935 0.225851C1.19576 0.309993 1.55636 0.222055 1.56902 0.199913C1.57091 0.196117 1.56965 0.211933 1.56965 0.211933C1.72781 0.157526 1.73603 0.214464 1.77083 0.175873C1.78791 0.157527 1.81575 0.0632628 1.82144 0.00126405C1.77146 -0.00253179 1.72148 0.00189661 1.65885 0.0189779Z" fill="#7592BC"/>
</svg>
