<svg width="8" height="16" viewBox="0 0 8 16" fill="none" xmlns="http://www.w3.org/2000/svg">
<path d="M7.24181 9.15268C6.81999 10.5155 6.25776 11.1884 5.80938 12.1712C4.99229 13.9616 5.08399 15.3276 5.06944 15.4522C5.06375 15.5003 5.04857 15.525 4.95561 15.5287C4.893 15.5313 4.34469 15.5288 3.79258 15.5224C3.47827 15.5186 2.77881 15.5281 2.7162 15.5256C2.62324 15.5218 2.60996 15.5003 2.60427 15.4522C2.59035 15.3327 2.66498 13.7466 1.94655 12.1712C1.49816 11.1884 0.960602 10.5155 0.538777 9.15268C-0.114515 7.04292 -0.0209159 3.03337 0.0499153 2.34466C0.134027 1.52062 0.290235 0.420201 2.7181 0.0641481C3.1551 0.000273539 4.18722 -0.042731 4.95751 0.0692076C7.17351 0.392375 7.62 1.26448 7.73067 2.34466C7.82111 3.22626 7.86664 7.13462 7.24181 9.15268Z" fill="black"/>
</svg>
