<svg width="10" height="3" viewBox="0 0 10 3" fill="none" xmlns="http://www.w3.org/2000/svg">
<path d="M9.99452 2.0674C9.25143 1.10675 7.95054 0.469898 6.79827 0.323177C6.20632 0.247919 5.43413 0.342149 4.99523 0.342149C4.55633 0.342149 3.88533 0.234638 3.1922 0.323177C2.03993 0.469898 0.715004 1.09347 0.0187084 2.11546C-0.0318854 2.07815 0.0338869 1.89474 0.0547568 1.84289C0.301401 1.53047 0.607493 1.28129 1.02426 1.0005C1.47075 0.699467 2.13353 0.402229 2.92342 0.221357C3.90937 -0.00505011 4.5557 9.2596e-06 4.99523 9.2596e-06C5.43477 9.2596e-06 6.0811 -0.00505011 7.06705 0.221357C7.85694 0.402229 8.51972 0.699467 8.96621 1.0005C9.38297 1.28129 9.68906 1.53047 9.93571 1.84289C9.95658 1.89474 10.0451 2.03008 9.99452 2.0674Z" fill="#8198BA"/>
</svg>
