<svg width="6" height="1" viewBox="0 0 6 1" fill="none" xmlns="http://www.w3.org/2000/svg">
<path d="M1.59585 0.0917009C1.98163 0.0335181 2.40725 0 2.87651 0C2.9037 0 2.93153 0 2.95872 0C3.39889 0.00316211 3.80111 0.0354151 4.16665 0.0904358C4.18941 0.0935979 4.21218 0.0973923 4.23431 0.101187C4.2906 0.110041 4.34689 0.119528 4.40127 0.129647C4.41708 0.132809 4.43226 0.135338 4.44807 0.1385C4.44871 0.1385 4.44934 0.1385 4.44997 0.1385C5.28919 0.366172 5.82549 0.674794 4.67195 0.430047C4.61503 0.417398 4.55748 0.405382 4.49993 0.394631C4.42657 0.380718 4.35321 0.36807 4.27922 0.356054C2.9252 0.137868 1.46557 0.248542 0.239941 0.662145C-0.0636216 0.764598 -0.0806968 0.706415 0.197569 0.546412C0.581448 0.326962 1.1032 0.184034 1.59585 0.0917009Z" fill="url(#paint0_linear_3091_43994)"/>
<defs>
<linearGradient id="paint0_linear_3091_43994" x1="-0.000379343" y1="0.356686" x2="5.3341" y2="0.356686" gradientUnits="userSpaceOnUse">
<stop offset="0.16" stop-color="#F8FAFD"/>
<stop offset="0.49" stop-color="#FBFCFE"/>
</linearGradient>
</defs>
</svg>
