<svg width="13" height="4" viewBox="0 0 13 4" fill="none" xmlns="http://www.w3.org/2000/svg">
<path d="M12.2514 3.44959C11.8257 3.03709 11.3853 2.63929 10.922 2.27018C10.4595 1.90106 9.97864 1.5518 9.47129 1.24739C8.96467 0.941506 8.43379 0.675331 7.87791 0.47239C7.32277 0.268715 6.74409 0.129744 6.15512 0.0790093C5.86101 0.0540094 5.56542 0.0495978 5.27057 0.0665095C4.97645 0.0826859 4.68454 0.129745 4.39484 0.188568C3.81616 0.30842 3.2544 0.504743 2.72058 0.758419C2.18823 1.01577 1.68382 1.33195 1.225 1.70621C0.765439 2.07827 0.347058 2.50474 0 2.98562C0.338969 2.49885 0.747791 2.06062 1.20588 1.68268C1.66396 1.304 2.16837 0.982683 2.7022 0.720919C3.23675 0.462096 3.80146 0.260626 4.38381 0.136362C4.67498 0.075333 4.9691 0.0245978 5.26763 0.00842137C5.56542 -0.00701975 5.86321 -0.00113746 6.16027 0.025333C6.75365 0.0790093 7.33674 0.222391 7.89336 0.429743C8.45071 0.63636 8.98306 0.906948 9.48967 1.21577C10.5051 1.83415 11.4125 2.61209 12.2507 3.44959H12.2514Z" fill="url(#paint0_linear_1587_26091)"/>
<defs>
<linearGradient id="paint0_linear_1587_26091" x1="12.3073" y1="1.79739" x2="0.00808841" y2="1.53121" gradientUnits="userSpaceOnUse">
<stop offset="0.03" stop-color="#E3E9EC"/>
<stop offset="0.54" stop-color="white"/>
<stop offset="0.61" stop-color="#FBFBFB"/>
<stop offset="0.68" stop-color="#EFF0F1"/>
<stop offset="0.76" stop-color="#DBDEDF"/>
<stop offset="0.83" stop-color="#BFC4C7"/>
<stop offset="0.9" stop-color="#9BA3A7"/>
<stop offset="0.97" stop-color="#6F7B81"/>
<stop offset="1" stop-color="#58666D"/>
</linearGradient>
</defs>
</svg>
