<svg width="5" height="2" viewBox="0 0 5 2" fill="none" xmlns="http://www.w3.org/2000/svg">
<path d="M4.66561 0.3934C4.52971 0.3814 4.15971 0.3099 4.15651 0.3674C4.15461 0.4104 4.74781 0.5287 4.65231 0.6261C4.52081 0.7602 4.47591 1.0157 4.47081 1.2161C4.46131 1.5412 4.58661 1.6038 4.54041 1.6765C4.51191 1.7215 4.30071 1.6981 3.90671 1.6671C3.52471 1.6019 3.10801 1.5501 2.69501 1.5501C2.18911 1.5501 1.59652 1.6209 1.12472 1.717C0.657315 1.8132 0.260215 1.8979 0.224115 1.8429C0.178615 1.7727 0.302515 1.7265 0.293715 1.4141C0.288015 1.2212 0.298114 0.9992 0.167814 0.8689C0.0654145 0.7659 0.592214 0.5806 0.589714 0.5249C0.586514 0.4629 0.308915 0.5217 0.172915 0.5338C0.0970147 0.5407 -0.0142854 0.5723 0.00151464 0.5078C0.625715 0.203 1.68881 0 2.69501 0C3.47351 0 4.23812 0.10751 4.88192 0.3093C4.88631 0.3466 4.73011 0.3997 4.66561 0.3934Z" fill="url(#paint0_linear_1591_39925)"/>
<defs>
<linearGradient id="paint0_linear_1591_39925" x1="-0.000385357" y1="0.9297" x2="4.88192" y2="0.9297" gradientUnits="userSpaceOnUse">
<stop offset="0.16" stop-color="#E8EEF9"/>
<stop offset="0.49" stop-color="#F1F5FC"/>
</linearGradient>
</defs>
</svg>
