<svg width="1" height="3" viewBox="0 0 1 3" fill="none" xmlns="http://www.w3.org/2000/svg">
<path d="M0.887001 0.1271C0.892701 0.3384 0.7421 0.655399 0.6092 0.934999C0.577 1.0046 0.545301 1.0698 0.518101 1.1311C0.397901 1.3987 0.108801 2.0946 0.00760078 2.7773H0C0.1006 2.0946 0.390301 1.3987 0.509901 1.1311C0.537701 1.0704 0.568701 1.0046 0.601601 0.9356C0.733901 0.6554 0.8844 0.3384 0.8787 0.1271V0.121399C0.8768 0.0789989 0.874301 0.0119997 0.854101 0.00119972C0.852801 0.000599722 0.8515 0 0.8503 0C0.8528 0 0.854101 0 0.856001 0C0.857201 0 0.8579 0 0.8585 0C0.8825 0.005 0.885101 0.0771 0.886301 0.1208L0.887001 0.1271Z" fill="url(#paint0_linear_1591_40114)"/>
<defs>
<linearGradient id="paint0_linear_1591_40114" x1="0" y1="1.388" x2="0.887001" y2="1.388" gradientUnits="userSpaceOnUse">
<stop stop-color="#DCE4F2"/>
<stop offset="0.2" stop-color="#9DB4DB"/>
<stop offset="0.36" stop-color="#8FA5CC"/>
<stop offset="0.77" stop-color="#6F82AC"/>
<stop offset="1" stop-color="#6476A0"/>
</linearGradient>
</defs>
</svg>
