<svg width="1" height="3" viewBox="0 0 1 3" fill="none" xmlns="http://www.w3.org/2000/svg">
<path d="M0.203462 0.0012989L0.199063 0.00259972C0.191463 0.00449972 0.182662 0.0094991 0.172462 0.0189991C0.0567619 0.119599 -0.00273753 0.337201 0.00996247 0.615601C0.0137625 0.701001 0.0219622 0.8604 0.0301622 1.0243C0.0415622 1.2432 0.0529621 1.4703 0.0560621 1.5411C0.0605621 1.6658 0.0921625 2.7248 0.0921625 2.8387H0.0839619C0.0832619 2.7235 0.0522624 1.6658 0.0478624 1.5411C0.0447624 1.4703 0.0333626 1.2432 0.0219626 1.0243C0.0137626 0.8604 0.00546264 0.701001 0.00166264 0.615601C-0.0109374 0.337201 0.0485623 0.119599 0.163662 0.0189991C0.176262 0.0075991 0.186462 0.0025989 0.194662 0.0012989L0.197162 0.000699997L0.199063 0L0.203462 0.0012989Z" fill="url(#paint0_linear_1591_40098)"/>
<defs>
<linearGradient id="paint0_linear_1591_40098" x1="-0.000237367" y1="1.4197" x2="0.203462" y2="1.4197" gradientUnits="userSpaceOnUse">
<stop stop-color="#C6D4EA"/>
<stop offset="1" stop-color="#6476A0"/>
</linearGradient>
</defs>
</svg>
