<svg width="3" height="1" viewBox="0 0 3 1" fill="none" xmlns="http://www.w3.org/2000/svg">
<path d="M0.00141698 0.121467C-0.014399 0.118936 0.103905 0.0923652 0.270289 0.0619985C0.276615 0.0607332 0.283575 0.0601003 0.290534 0.0588351C0.528407 0.0253051 0.818156 0 1.19964 0C1.39955 0 1.58618 0.00695916 1.76459 0.0208772C1.8424 0.026571 1.96893 0.0417544 2.08091 0.0594683C2.0265 0.206241 2.18909 0.568743 1.97462 0.889492C1.97019 0.888859 1.9645 0.887593 1.95817 0.886961C1.91073 0.878104 1.67981 0.830023 1.30908 0.823064C1.2901 0.823064 1.27113 0.823065 1.25151 0.822432C1.2319 0.8218 1.21166 0.822432 1.19078 0.822432C0.701117 0.822432 0.426551 0.885696 0.222209 0.927451C0.200066 0.929981 0.201332 0.910369 0.208291 0.901512C0.224739 0.880635 0.24182 0.869247 0.24182 0.869247C0.24182 0.869247 0.225372 0.864819 0.220311 0.841412C0.214617 0.816739 0.238025 0.790167 0.238025 0.790167C0.237392 0.790167 0.228535 0.786371 0.209556 0.726271C0.177924 0.626313 0.139965 0.368196 0.142495 0.262545C0.145026 0.156894 0.202597 0.105651 0.202597 0.105651C0.202597 0.105651 0.0235594 0.126528 0.00141698 0.122099V0.121467Z" fill="url(#paint0_linear_1587_25470)"/>
<defs>
<linearGradient id="paint0_linear_1587_25470" x1="0.000151698" y1="0.463093" x2="2.08976" y2="0.463093" gradientUnits="userSpaceOnUse">
<stop offset="0.16" stop-color="#D1DBE9"/>
<stop offset="0.49" stop-color="#D8E0EC"/>
</linearGradient>
</defs>
</svg>
