<svg width="8" height="16" viewBox="0 0 8 16" fill="none" xmlns="http://www.w3.org/2000/svg">
<path d="M5.42827 11.8767C4.9021 13.0289 4.84328 14.6467 4.8123 15.551C4.60802 15.551 4.20138 15.5485 3.79157 15.5435C3.47662 15.5397 2.77527 15.5491 2.71202 15.5466C2.61906 15.5428 2.60578 15.5213 2.60009 15.4733C2.58554 15.3531 2.6608 13.7626 1.94047 12.1834C1.49082 11.1981 0.951995 10.5233 0.528905 9.15663C-0.126283 7.04118 -0.0320525 3.02024 0.0387787 2.32964C0.122891 1.50243 0.279099 0.39949 2.71392 0.0428043C3.1427 -0.0204379 4.14572 -0.0628101 4.90526 0.0428043C5.08234 0.0687336 5.2474 0.098457 5.40045 0.131343C7.47605 0.575303 7.04474 4.21426 6.99731 5.01047C6.80316 8.30792 6.23208 10.116 5.42827 11.8767Z" fill="url(#paint0_linear_1587_25509)"/>
<defs>
<linearGradient id="paint0_linear_1587_25509" x1="-0.011815" y1="7.76467" x2="7.06561" y2="7.76467" gradientUnits="userSpaceOnUse">
<stop offset="0.16" stop-color="#FBFCFE"/>
<stop offset="0.52" stop-color="#FCFDFF"/>
</linearGradient>
</defs>
</svg>
