<svg width="2" height="1" viewBox="0 0 2 1" fill="none" xmlns="http://www.w3.org/2000/svg">
<path d="M0.00141432 0.1215C-0.0143857 0.119 0.103914 0.0911003 0.270214 0.0620003C0.276614 0.0608003 0.282914 0.0600999 0.290514 0.0588999C0.528414 0.0252999 0.818114 0 1.19961 0C1.36031 0 1.51341 0.00259994 1.67661 0.0132999C1.76071 0.0189999 1.85061 0.0272001 1.94481 0.0380001C1.88471 0.1531 2.04231 0.6814 1.85311 0.8636C1.84801 0.863 1.84361 0.8623 1.83791 0.8617C1.83541 0.8617 1.71201 0.8263 1.29071 0.8218C1.27491 0.8218 1.25911 0.8218 1.24321 0.8218C1.22621 0.8218 1.20911 0.8218 1.19141 0.8218C0.701714 0.8218 0.427114 0.8851 0.222814 0.9269C0.200714 0.9294 0.201914 0.9098 0.208914 0.9009C0.225314 0.88 0.242415 0.8686 0.242415 0.8686C0.242415 0.8686 0.226014 0.8642 0.220914 0.8408C0.215214 0.8161 0.236714 0.7921 0.236714 0.7921C0.236114 0.7921 0.229115 0.7858 0.210115 0.7257C0.178515 0.6257 0.140614 0.3676 0.143114 0.2619C0.145614 0.1563 0.203214 0.1051 0.203214 0.1051C0.203214 0.1051 0.0235143 0.1259 0.00141432 0.1215Z" fill="url(#paint0_linear_1591_39815)"/>
<defs>
<linearGradient id="paint0_linear_1591_39815" x1="-0.00048568" y1="0.4631" x2="1.94931" y2="0.4631" gradientUnits="userSpaceOnUse">
<stop offset="0.16" stop-color="#A4B9D4"/>
<stop offset="0.49" stop-color="#B3C2DA"/>
</linearGradient>
</defs>
</svg>
