<svg width="3" height="1" viewBox="0 0 3 1" fill="none" xmlns="http://www.w3.org/2000/svg">
<path d="M0.00141698 0.121467C-0.014399 0.118936 0.103905 0.0923652 0.270289 0.0619985C0.276615 0.0607332 0.283574 0.0601003 0.290533 0.0588351C0.528406 0.0253051 0.818155 0 1.19964 0C1.42359 0 1.62983 0.0101225 1.81899 0.0259385C1.89238 0.0322649 2.04168 0.0512435 2.16505 0.0727532C2.11443 0.238505 2.28019 0.499786 2.04927 0.905308C2.04484 0.904675 2.03915 0.90341 2.03156 0.902144C1.95691 0.888226 1.65957 0.831922 1.32047 0.82433C1.29959 0.82433 1.27872 0.823697 1.25721 0.823064C1.2357 0.822432 1.21355 0.823064 1.19078 0.823064C0.701116 0.823064 0.426551 0.886329 0.222208 0.928083C0.200065 0.930614 0.201331 0.911001 0.20829 0.902144C0.224738 0.881267 0.241819 0.86988 0.241819 0.86988C0.241819 0.86988 0.225371 0.865452 0.22031 0.842044C0.214616 0.817371 0.239289 0.788902 0.239289 0.788902C0.238657 0.788902 0.228534 0.787004 0.209555 0.726903C0.177923 0.626946 0.139965 0.368829 0.142495 0.263179C0.145026 0.157528 0.202596 0.106283 0.202596 0.106283C0.202596 0.106283 0.0235594 0.127161 0.00141698 0.122732V0.121467Z" fill="url(#paint0_linear_3091_43815)"/>
<defs>
<linearGradient id="paint0_linear_3091_43815" x1="-0.000480942" y1="0.463092" x2="2.17517" y2="0.463092" gradientUnits="userSpaceOnUse">
<stop offset="0.16" stop-color="#EBF0F6"/>
<stop offset="0.49" stop-color="#EFF2F7"/>
</linearGradient>
</defs>
</svg>
