<svg width="5" height="2" viewBox="0 0 5 2" fill="none" xmlns="http://www.w3.org/2000/svg">
<path d="M4.77946 0.435105C4.64349 0.422457 4.23558 0.329491 4.23431 0.387042C4.23368 0.423722 4.84713 0.550839 4.75163 0.648232C4.62009 0.782305 4.57519 1.04919 4.57013 1.24966C4.56064 1.57473 4.68586 1.63734 4.6397 1.71007C4.61377 1.75117 4.40886 1.72398 4.06862 1.69299C3.64047 1.61457 3.16489 1.55006 2.695 1.55006C2.18906 1.55006 1.59648 1.6209 1.1247 1.71702C0.657337 1.81315 0.260176 1.8979 0.224128 1.84288C0.178594 1.77268 0.302549 1.72651 0.293695 1.41409C0.288003 1.22121 0.298121 0.999225 0.167843 0.868946C0.0653904 0.765862 0.592198 0.580562 0.589669 0.524909C0.586507 0.462932 0.308873 0.521748 0.172902 0.533764C0.0970116 0.54072 -0.014294 0.572341 0.0015165 0.507834C0.625716 0.203007 1.68882 0 2.695 0C3.50893 0 4.30831 0.116997 4.97108 0.336448C4.96476 0.386409 4.84523 0.44143 4.77946 0.435105Z" fill="url(#paint0_linear_1587_25596)"/>
<defs>
<linearGradient id="paint0_linear_1587_25596" x1="-0.000380774" y1="0.930292" x2="4.97108" y2="0.930292" gradientUnits="userSpaceOnUse">
<stop offset="0.16" stop-color="#F6F9FD"/>
<stop offset="0.49" stop-color="#FAFBFE"/>
</linearGradient>
</defs>
</svg>
