<svg width="6" height="1" viewBox="0 0 6 1" fill="none" xmlns="http://www.w3.org/2000/svg">
<path d="M1.59648 0.0917009C1.9772 0.0341506 2.39776 0.00126484 2.8607 0C2.88789 0 2.91508 0 2.94165 0C3.37612 0.00252969 3.77265 0.032886 4.13439 0.0860094C4.15716 0.0891715 4.17929 0.0923338 4.20143 0.0961283C4.25708 0.104982 4.3121 0.113835 4.36649 0.123954C4.3823 0.127116 4.39748 0.129646 4.41266 0.132808C4.41329 0.132808 4.41392 0.132808 4.41455 0.132808C5.20698 0.347199 5.64272 0.614081 4.62452 0.421193C4.5676 0.408544 4.51068 0.397793 4.45377 0.387042C4.3804 0.373128 4.30641 0.361113 4.23242 0.349729C2.89168 0.142927 1.45166 0.253601 0.239941 0.662777C-0.0636216 0.76523 -0.0806968 0.707047 0.197569 0.547044C0.581448 0.327594 1.1032 0.184667 1.59585 0.092333L1.59648 0.0917009Z" fill="url(#paint0_linear_1587_25646)"/>
<defs>
<linearGradient id="paint0_linear_1587_25646" x1="0.000253079" y1="0.356686" x2="5.21963" y2="0.356686" gradientUnits="userSpaceOnUse">
<stop offset="0.16" stop-color="#ECF1FA"/>
<stop offset="0.49" stop-color="#F4F7FD"/>
</linearGradient>
</defs>
</svg>
