<svg width="3" height="4" viewBox="0 0 3 4" fill="none" xmlns="http://www.w3.org/2000/svg">
<path d="M1.97264 2.02628C1.94671 2.63024 2.01438 2.93507 1.93407 3.11974C1.75636 3.09444 1.54323 3.0742 1.25485 3.0742C0.809621 3.0742 0.590171 3.10898 0.43839 3.13744C0.307479 3.15072 0.267003 3.09381 0.261944 3.02045C0.249295 2.8421 0.270798 2.52589 0.274593 2.32858C0.285344 1.76572 0.232221 1.37994 0.15886 0.965076C0.0627316 0.418664 -0.0327638 0.216288 0.0108733 0.197948C0.428271 0.0240323 0.927252 0 1.24599 0C1.52363 0 1.83984 0.00252977 2.26419 0.124587C2.09533 0.929027 1.99921 1.40145 1.97264 2.02628Z" fill="url(#paint0_linear_1587_25563)"/>
<defs>
<linearGradient id="paint0_linear_1587_25563" x1="0.000122118" y1="1.56967" x2="2.26419" y2="1.56967" gradientUnits="userSpaceOnUse">
<stop offset="0.16" stop-color="#E9EFF9"/>
<stop offset="0.49" stop-color="#F2F6FD"/>
</linearGradient>
</defs>
</svg>
