<svg width="17" height="8" viewBox="0 0 17 8" fill="none" xmlns="http://www.w3.org/2000/svg">
<path d="M3.34976 5.15245C3.21553 5.26152 3.05948 5.31465 2.92132 5.29843C2.74682 5.2783 2.64055 5.2067 2.4666 4.99248L1.46542 3.76142L0.925673 4.20049L2.01635 5.5423C2.24846 5.82643 2.51246 5.97856 2.824 6.00709C2.86092 6.01045 2.89727 6.01268 2.93307 6.01268C3.2351 6.01548 3.51532 5.90865 3.78715 5.68884C4.08974 5.44162 4.25586 5.15469 4.29501 4.81126C4.33081 4.50028 4.23572 4.21056 4.00473 3.92586L2.91461 2.58461L2.37487 3.02368L3.37549 4.2553C3.55 4.46952 3.5981 4.5881 3.58188 4.76316C3.56957 4.90132 3.48568 5.04338 3.35032 5.15301L3.34976 5.15245ZM8.12579 5.41757C10.0196 5.41757 11.7653 6.2957 12.7916 7.57262L13.1502 7.1302C12.0203 5.77889 10.1679 4.86552 8.12579 4.86552C6.08372 4.86552 4.23181 5.77889 3.10142 7.1302L3.45995 7.57262C4.4863 6.2957 6.23194 5.41757 8.12579 5.41757ZM0.956435 3.21385C2.92076 1.51799 5.46679 0.584489 8.12579 0.584489C10.7848 0.584489 13.3308 1.51855 15.2951 3.21385C15.4993 3.39003 15.6945 3.57349 15.8813 3.76254L16.2516 3.30558C16.0681 3.12156 15.8763 2.94314 15.6772 2.77143C13.6066 0.983844 10.9252 0 8.12579 0C5.3264 0 2.64502 0.984403 0.57442 2.77143C0.375303 2.94314 0.184016 3.12156 0 3.30558L0.369709 3.76254C0.556522 3.57349 0.751725 3.39003 0.955877 3.21385H0.956435ZM14.4534 3.70773C14.4864 3.60761 14.5099 3.45995 14.3421 3.33075L14.2358 3.24909C14.0697 3.121 13.9382 3.17581 13.8426 3.23846L11.3531 4.8493L12.0036 5.21733L13.5903 4.19098L13.3168 5.1133L13.0758 4.93208L12.6602 5.23019L13.1764 5.61613L13.0562 6.03058L13.6261 6.55243L14.4523 3.70885L14.4534 3.70773ZM7.04239 1.27413L5.2934 1.6293C5.21341 1.64552 5.15021 1.68579 5.11106 1.74508C5.07135 1.80492 5.05904 1.87819 5.07526 1.95818L5.42372 3.67585C5.48021 3.95495 5.6055 4.1563 5.79623 4.27376C5.92207 4.3515 6.07309 4.3901 6.24704 4.3901C6.33541 4.3901 6.43049 4.38003 6.53061 4.35934L7.62352 4.13729L7.49208 3.48903L6.42882 3.70493C6.21124 3.74912 6.14021 3.72507 6.09099 3.48064L6.05351 3.29607L7.28346 3.04661L7.15313 2.40563L5.92319 2.65509L5.82978 2.19533L7.17383 1.92238L7.04239 1.27413ZM10.4436 2.21099L11.4918 2.48282L11.6573 1.84352L10.5795 1.56442C9.98888 1.41116 9.5845 1.63265 9.44075 2.18694L9.00057 3.88559C8.97987 3.96446 8.98826 4.03829 9.02462 4.09981C9.06097 4.16134 9.12138 4.2044 9.20024 4.2251L9.60016 4.32857L9.88373 3.23007L11.0969 3.54441L11.2608 2.91238L10.0476 2.59804L10.0946 2.41626C10.1572 2.17519 10.2288 2.15506 10.4436 2.21099Z" fill="white"/>
</svg>
