<svg width="3" height="1" viewBox="0 0 3 1" fill="none" xmlns="http://www.w3.org/2000/svg">
<path d="M2.6775 0.0752843C2.68573 0.106916 2.67687 0.144241 2.6136 0.1512C2.5244 0.161322 0.165287 0.161322 0.0760849 0.1512C0.0128209 0.144241 0.00333162 0.106916 0.0121886 0.0752843C0.0147191 0.0664274 -0.0112195 0.0417539 0.00586179 0.0253052C0.0197799 0.0120198 0.0684932 0.0177132 0.100758 0.0170806C0.311427 0.0139174 1.09337 0 1.30088 0C1.50838 0 2.37636 0.00885627 2.58893 0.0170806C2.6212 0.0183459 2.67307 0.0158166 2.6832 0.0322653C2.69711 0.0550403 2.67497 0.0651621 2.6775 0.0752843Z" fill="url(#paint0_linear_3091_43800)"/>
<defs>
<linearGradient id="paint0_linear_3091_43800" x1="-0.000464548" y1="0.0790795" x2="2.68762" y2="0.0790795" gradientUnits="userSpaceOnUse">
<stop offset="0.06" stop-color="#A3B7D4"/>
<stop offset="0.34" stop-color="#ADBFD9"/>
<stop offset="0.79" stop-color="#C7D5E7"/>
<stop offset="1" stop-color="white"/>
</linearGradient>
</defs>
</svg>
