<svg width="2" height="2" viewBox="0 0 2 2" fill="none" xmlns="http://www.w3.org/2000/svg">
<path d="M1.37167 0.679256C1.37167 1.06798 1.05482 1.35851 0.692413 1.35851C0.330009 1.35851 0 1.06798 0 0.679256C0 0.290532 0.31685 0 0.692413 0C1.06798 0 1.37167 0.290532 1.37167 0.679256ZM1.23905 0.679256C1.23905 0.356332 0.99509 0.112367 0.6914 0.112367C0.38771 0.112367 0.137671 0.356332 0.137671 0.679256C0.137671 1.00218 0.381636 1.24614 0.6914 1.24614C1.00116 1.24614 1.23905 1.00218 1.23905 0.679256ZM0.79769 0.724807L1.02141 1.06798H0.88981L0.685326 0.731894H0.546641V1.06798H0.428201V0.290533H0.724807C0.909046 0.290533 1.00218 0.356332 1.00218 0.508177C1.00218 0.646862 0.916129 0.712661 0.79769 0.72582V0.724807ZM0.876652 0.50109C0.876652 0.40897 0.790607 0.388726 0.705573 0.388726H0.547655V0.625604H0.686339C0.791619 0.625604 0.877662 0.625602 0.877662 0.500076L0.876652 0.50109Z" fill="white"/>
</svg>
