<svg width="3" height="1" viewBox="0 0 3 1" fill="none" xmlns="http://www.w3.org/2000/svg">
<path d="M0.00141698 0.121467C-0.014399 0.118936 0.103905 0.0923652 0.270289 0.0619985C0.276615 0.0607332 0.283575 0.0601003 0.290534 0.0588351C0.528407 0.0253051 0.818156 0 1.19964 0C1.40208 0 1.58998 0.00759145 1.76965 0.0215095C1.84683 0.0272033 1.97589 0.043019 2.0885 0.0607329C2.03472 0.208771 2.19731 0.562417 1.98095 0.890757C1.97652 0.890125 1.97083 0.888859 1.9645 0.888226C1.91452 0.878737 1.67728 0.830023 1.30972 0.823064C1.29074 0.823064 1.27113 0.822432 1.25151 0.822432C1.2319 0.822432 1.21103 0.822432 1.19015 0.822432C0.700485 0.822432 0.425918 0.885696 0.221575 0.927451C0.199433 0.929981 0.200699 0.910369 0.207658 0.901512C0.224107 0.880635 0.241188 0.869247 0.241188 0.869247C0.241188 0.869247 0.224739 0.864819 0.219678 0.841412C0.213984 0.816739 0.237391 0.790167 0.237391 0.790167C0.236759 0.790167 0.227902 0.786371 0.208923 0.726271C0.177291 0.626313 0.139333 0.368196 0.141863 0.262545C0.144394 0.156894 0.201964 0.105651 0.201964 0.105651C0.201964 0.105651 0.0229271 0.126528 0.000784685 0.122099L0.00141698 0.121467Z" fill="url(#paint0_linear_3091_43825)"/>
<defs>
<linearGradient id="paint0_linear_3091_43825" x1="0.000151698" y1="0.463093" x2="2.09735" y2="0.463093" gradientUnits="userSpaceOnUse">
<stop offset="0.16" stop-color="#D3DDEA"/>
<stop offset="0.49" stop-color="#DAE1ED"/>
</linearGradient>
</defs>
</svg>
