<svg width="3" height="4" viewBox="0 0 3 4" fill="none" xmlns="http://www.w3.org/2000/svg">
<path d="M1.98845 2.01743C1.95936 2.63657 2.02893 2.93507 1.94861 3.12163C1.77027 3.0957 1.55082 3.0742 1.25485 3.0742C0.809621 3.0742 0.590171 3.10898 0.43839 3.13744C0.307479 3.15072 0.267003 3.09381 0.261944 3.02045C0.249295 2.8421 0.270798 2.52589 0.274593 2.32858C0.285344 1.76572 0.232221 1.37994 0.15886 0.965076C0.0627316 0.418664 -0.0327638 0.216288 0.0108733 0.197948C0.428271 0.0240323 0.927252 0 1.24599 0C1.52868 0 1.85122 0.00253015 2.28696 0.130912C2.11494 0.915114 2.01691 1.41093 1.98845 2.01806V2.01743Z" fill="url(#paint0_linear_3091_43916)"/>
<defs>
<linearGradient id="paint0_linear_3091_43916" x1="0.000122118" y1="1.56967" x2="2.28759" y2="1.56967" gradientUnits="userSpaceOnUse">
<stop offset="0.16" stop-color="#EEF2FB"/>
<stop offset="0.49" stop-color="#F5F8FD"/>
</linearGradient>
</defs>
</svg>
