<svg width="5" height="2" viewBox="0 0 5 2" fill="none" xmlns="http://www.w3.org/2000/svg">
<path d="M4.60931 0.373751C4.47341 0.361151 4.12241 0.30105 4.11861 0.35855C4.11611 0.40535 4.69851 0.517951 4.60301 0.615351C4.47151 0.749451 4.42661 0.99855 4.42151 1.19905C4.41201 1.52415 4.53731 1.58675 4.49111 1.65945C4.46141 1.70625 4.24701 1.68475 3.82581 1.65375C3.46721 1.59555 3.07951 1.55005 2.69501 1.55005C2.18911 1.55005 1.59651 1.62085 1.12471 1.71705C0.657314 1.81315 0.260215 1.89785 0.224115 1.84285C0.178615 1.77265 0.302615 1.72655 0.293715 1.41405C0.288015 1.22125 0.298115 0.99925 0.167915 0.86895C0.0654146 0.76585 0.592214 0.58055 0.589714 0.52495C0.586514 0.46295 0.308915 0.521751 0.172915 0.533751C0.0970147 0.540751 -0.0142854 0.572351 0.00151464 0.507851C0.625715 0.203051 1.68881 0 2.69501 0C3.45521 0 4.20331 0.10245 4.83701 0.29595C4.84711 0.32635 4.67321 0.379451 4.60931 0.373751Z" fill="url(#paint0_linear_1591_39930)"/>
<defs>
<linearGradient id="paint0_linear_1591_39930" x1="0.000314643" y1="0.93025" x2="4.83831" y2="0.93025" gradientUnits="userSpaceOnUse">
<stop offset="0.16" stop-color="#E1E9F7"/>
<stop offset="0.49" stop-color="#EDF2FC"/>
</linearGradient>
</defs>
</svg>
