<svg width="5" height="2" viewBox="0 0 5 2" fill="none" xmlns="http://www.w3.org/2000/svg">
<path d="M4.64286 0.38641C4.50689 0.374394 4.14451 0.306725 4.14135 0.364275C4.13882 0.409177 4.72824 0.524911 4.63274 0.622303C4.5012 0.756377 4.45629 1.00934 4.45123 1.20982C4.44175 1.53489 4.56697 1.5975 4.5208 1.67023C4.49171 1.71576 4.27985 1.69362 3.87446 1.662C3.50197 1.59939 3.09659 1.55007 2.695 1.55007C2.18906 1.55007 1.59648 1.6209 1.1247 1.71702C0.657337 1.81315 0.260176 1.8979 0.224128 1.84288C0.178594 1.77268 0.302549 1.72651 0.293695 1.41409C0.288003 1.22121 0.298121 0.999226 0.167843 0.868947C0.0653904 0.765863 0.592198 0.580563 0.589669 0.52491C0.586507 0.462933 0.308873 0.521748 0.172902 0.533764C0.0970116 0.54072 -0.014294 0.572341 0.0015165 0.507834C0.625716 0.203007 1.68882 0 2.695 0C3.46592 0 4.22419 0.105614 4.8642 0.304195C4.87116 0.338345 4.70736 0.392101 4.64349 0.38641H4.64286Z" fill="url(#paint0_linear_1587_25608)"/>
<defs>
<linearGradient id="paint0_linear_1587_25608" x1="-0.000380774" y1="0.930924" x2="4.8642" y2="0.930924" gradientUnits="userSpaceOnUse">
<stop offset="0.16" stop-color="#E5ECF8"/>
<stop offset="0.49" stop-color="#EFF4FC"/>
</linearGradient>
</defs>
</svg>
