<svg width="1" height="2" viewBox="0 0 1 2" fill="none" xmlns="http://www.w3.org/2000/svg">
<path d="M0.295137 0.0347954C0.279321 0.138548 0.236302 0.245465 0.24073 0.343524C0.178099 0.411849 0.0458779 0.618722 0.00728689 0.70919C-0.0407938 0.547234 0.159752 0.182833 0.295137 0.0347954ZM0.639927 0C0.607662 0.022775 0.50897 0.0923654 0.437481 0.151201C0.472909 0.236607 0.551357 0.294178 0.551357 0.294178C0.592478 0.250526 0.687375 0.177139 0.735455 0.137283C0.694966 0.110079 0.646886 0.0442854 0.639927 0.000633258V0ZM0.399524 1.94157C0.399524 1.6999 0.423563 1.45824 0.476072 1.2735C0.514664 1.13812 0.544398 1.03563 0.507704 1.01792C0.477338 1.00337 0.357769 1.14824 0.347647 1.33171C0.337524 1.51517 0.386871 1.65182 0.386871 1.65182C0.386871 1.65182 0.390666 1.72078 0.391299 1.74672C0.319178 1.65372 0.240098 1.50885 0.198344 1.31399C0.160385 1.13622 0.191385 1.01729 0.200875 0.960348C0.210364 0.903411 0.194548 0.851534 0.18063 0.897084C0.166712 0.942634 0.144569 1.05398 0.154059 1.20961C0.162283 1.33993 0.249588 1.58856 0.394462 1.77645C0.392564 1.83908 0.400789 1.94157 0.400789 1.94157H0.399524Z" fill="#556684"/>
</svg>
