<svg width="5" height="2" viewBox="0 0 5 2" fill="none" xmlns="http://www.w3.org/2000/svg">
<path d="M4.79021 0.43885C4.65421 0.42625 4.24251 0.33135 4.24191 0.38895C4.24191 0.42495 4.85721 0.55275 4.76171 0.65015C4.63021 0.78415 4.58531 1.05235 4.58021 1.25285C4.57071 1.57785 4.69601 1.64045 4.64981 1.71325C4.62391 1.75435 4.41961 1.72655 4.08501 1.69555C3.65251 1.61585 3.17121 1.55005 2.69501 1.55005C2.18901 1.55005 1.59651 1.62085 1.12471 1.71705C0.657314 1.81315 0.260115 1.89785 0.224115 1.84285C0.178615 1.77265 0.302514 1.72655 0.293714 1.41405C0.288014 1.22125 0.298114 0.99925 0.167814 0.86895C0.0654145 0.76585 0.592214 0.58055 0.589614 0.52495C0.586514 0.46295 0.308814 0.521751 0.172914 0.533751C0.0970138 0.540751 -0.0142853 0.572351 0.00151465 0.507851C0.625715 0.203051 1.68881 0 2.69501 0C3.51271 0 4.31521 0.11763 4.97991 0.33895C4.97231 0.39085 4.85601 0.44525 4.79021 0.43885Z" fill="url(#paint0_linear_1591_39914)"/>
<defs>
<linearGradient id="paint0_linear_1591_39914" x1="-0.000985357" y1="0.93025" x2="4.97931" y2="0.93025" gradientUnits="userSpaceOnUse">
<stop offset="0.16" stop-color="#F8FAFD"/>
<stop offset="0.49" stop-color="#FBFCFE"/>
</linearGradient>
</defs>
</svg>
