<svg width="3" height="4" viewBox="0 0 3 4" fill="none" xmlns="http://www.w3.org/2000/svg">
<path d="M1.23461 0.646879C1.23461 0.646879 1.23391 0.649979 1.23391 0.651279L1.23461 0.646879ZM0.0564117 1.53918C0.0842117 1.59608 0.213212 1.74348 0.241012 1.79218C0.279612 1.85988 0.242312 2.01228 0.259412 2.06848C0.272612 2.11088 0.299812 2.20518 0.262512 2.28548C0.262512 2.28548 0.297312 2.31708 0.325112 2.34808C0.351112 2.28798 0.334612 2.17288 0.315712 2.10898C0.296712 2.04518 0.317512 1.96168 0.315712 1.87118C0.313812 1.78078 0.210712 1.63408 0.275212 1.65368C0.199312 1.58468 0.0766114 1.49868 0.0766114 1.49868C0.0766114 1.49868 0.0286117 1.48228 0.0564117 1.53918ZM0.219512 2.25068C0.219512 2.25068 0.118312 2.17608 0.0209121 2.14438C-0.0251879 2.15198 0.0127121 2.17858 0.0595121 2.23168C0.115812 2.29618 0.228412 2.35948 0.231512 2.44098C0.234712 2.52258 0.207512 2.58778 0.220212 2.68008C0.232212 2.77238 0.234112 2.92478 0.221412 3.00638C0.209412 3.08798 0.256811 3.18158 0.254911 3.23158L0.296712 3.20248C0.263212 3.09938 0.271411 2.99688 0.287211 2.90898C0.299211 2.84388 0.239812 2.74078 0.294212 2.64658C0.371312 2.51308 0.226512 2.35438 0.219512 2.25068ZM0.727412 0.744879C0.704012 0.770179 0.671112 1.07308 0.570512 1.07498C0.502212 1.07688 0.444011 1.12688 0.445911 1.17368L0.525012 1.30208C0.628112 1.28498 0.606612 1.15848 0.697012 1.08388C0.753912 1.03638 0.728012 0.889079 0.753312 0.857479C0.769112 0.837879 0.784911 0.853679 0.795711 0.868779C0.799511 0.826479 0.765912 0.703179 0.727412 0.743579V0.744879ZM1.95301 0.520379C1.89231 0.527279 1.85431 0.548179 1.83471 0.612079C1.84041 0.582379 1.83921 0.558979 1.83791 0.544379C1.83471 0.499479 1.79051 0.520979 1.69501 0.557079C1.59881 0.593079 1.43441 0.587379 1.34211 0.620279C1.31551 0.629779 1.25731 0.622779 1.23461 0.646879C1.24091 0.585479 1.23581 0.535579 1.14861 0.594379C1.08341 0.637979 1.06061 0.683479 0.975312 0.706279C0.889312 0.729079 0.795711 0.870079 0.795711 0.870079C0.807011 0.899179 0.805112 0.918179 0.807012 0.949179C0.934812 0.876379 0.998011 0.902379 1.05621 0.843479C1.13721 0.762579 1.14731 0.651879 1.23391 0.651279C1.23391 0.666479 1.23201 0.674079 1.23331 0.692379C1.31171 0.768279 1.43501 0.718279 1.54631 0.697479C1.61721 0.684179 1.73481 0.677879 1.82711 0.642379C1.84401 0.638179 1.85981 0.633979 1.87461 0.629779C1.93721 0.612679 1.99161 0.608279 2.03711 0.612079C2.04341 0.546279 2.02571 0.512779 1.95301 0.520379ZM0.351111 0.926379C0.282811 0.870079 0.311911 0.947279 0.344111 1.01998C0.386511 1.11488 0.394112 1.22868 0.399112 1.30208C0.404212 1.37598 0.322612 1.39378 0.335312 1.47408C0.347312 1.55378 0.350412 1.58788 0.341612 1.58658C0.320112 1.58348 0.287212 1.56448 0.259412 1.56828C0.227112 1.57338 0.244212 1.61948 0.276412 1.65368C0.310012 1.69038 0.342811 1.72448 0.363111 1.75798C0.424411 1.69918 0.398512 1.59548 0.396612 1.55628C0.393412 1.49178 0.456712 1.40508 0.460512 1.38548C0.470612 1.33298 0.406712 1.18188 0.404212 1.15848C0.401712 1.13448 0.434511 1.17108 0.446611 1.17488C0.441511 1.09148 0.446612 1.00418 0.352312 0.926979L0.351111 0.926379ZM0.970212 0.131379C1.00371 0.247779 1.11441 0.190279 1.15361 0.256679C1.19281 0.323079 1.27691 0.364179 1.31491 0.339479C1.33511 0.238979 1.44011 0.222479 1.52101 0.248379C1.60201 0.274379 1.76521 0.324979 1.87081 0.309779C1.97641 0.294579 2.35521 0.291379 2.46271 0.393879C2.57021 0.496279 2.73781 0.725279 2.73781 0.725279C2.73781 0.725279 2.75361 0.442579 2.70491 0.285079C2.65691 0.127579 2.61581 0.0637793 2.61581 0.0637793C2.61581 0.0637793 2.46531 0.0890789 2.35581 0.104879C2.24641 0.120679 1.62601 -0.0659207 1.22131 0.0251793C1.10741 0.0504793 1.04921 0.0832786 0.970212 0.131379Z" fill="#B6C8DB"/>
</svg>
