<svg width="26" height="23" viewBox="0 0 26 23" fill="none" xmlns="http://www.w3.org/2000/svg">
<path d="M9.42143 21.383C11.2611 20.6977 14.6442 19.3963 17.6567 17.4007C18.1354 14.3051 18.6523 10.1022 17.528 10.4242C16.2501 10.7889 14.1802 10.6213 15.0383 10.4529C17.9832 9.87571 19.2508 8.22351 19.7868 6.23454C20.6861 2.90294 21.7611 2.19044 21.7405 2.30294C21.5876 3.08749 20.7802 4.47867 20.7905 6.39925C20.7949 6.98895 21.8567 9.96688 22.7758 9.65291C23.2515 9.49041 24.0831 8.78747 24.7721 7.96689C25.0434 6.90586 25.1633 5.83675 25.1368 4.78602C24.0081 3.52205 22.5787 1.74853 22.2508 1.54706C21.803 1.27206 18.1692 0.0301514 16.6155 4.39619e-06C16.4074 -0.00440735 13.3354 3.31323 12.092 3.07058C11.4722 2.95147 9.14791 0.346327 8.76041 0.32868C8.54791 0.321327 4.37072 1.7522 4.08616 2.2375C2.48102 4.98602 0.681759 7.06616 0.0170554 7.98968C0.0170554 7.98968 -0.0270623 8.11027 0.026614 8.17498C0.248672 8.43968 0.921463 9.05292 1.21705 9.24262C2.92734 10.3411 4.10895 10.6419 4.54057 9.88526C5.61998 7.99189 4.11851 6.01763 4.48027 3.64999C4.59719 2.87352 4.78027 5.84116 6.2038 8.26762C6.8413 9.35953 7.5832 10.1081 8.7457 10.6456C9.26555 10.8845 7.68909 10.7308 7.1413 10.5757C6.70821 10.4551 6.79056 12.8169 6.93835 14.1C7.07585 15.2882 6.7163 21.2904 6.5038 22.3433C7.93026 21.9007 9.16335 21.4808 9.42364 21.3838L9.42143 21.383Z" fill="url(#paint0_linear_1587_26168)" style="mix-blend-mode:color-burn"/>
<defs>
<linearGradient id="paint0_linear_1587_26168" x1="-0.37599" y1="11.1675" x2="24.9924" y2="11.168" gradientUnits="userSpaceOnUse">
<stop offset="0.29" stop-color="white"/>
<stop offset="0.45" stop-color="white"/>
<stop offset="0.55" stop-color="white"/>
<stop offset="0.57" stop-color="#F8F9F9"/>
<stop offset="0.6" stop-color="#E6E9EB"/>
<stop offset="0.62" stop-color="#E0E3E6"/>
<stop offset="0.64" stop-color="#CFD5D8"/>
<stop offset="0.65" stop-color="#C8CFD3"/>
<stop offset="0.67" stop-color="#CDD4D7"/>
<stop offset="0.7" stop-color="#DEE2E5"/>
<stop offset="0.73" stop-color="white"/>
</linearGradient>
</defs>
</svg>
