<svg width="7" height="16" viewBox="0 0 7 16" fill="none" xmlns="http://www.w3.org/2000/svg">
<path d="M5.3391 11.8285C4.80724 12.9928 4.76803 14.6409 4.73704 15.5509C4.53213 15.5509 4.1628 15.5484 3.79157 15.544C3.47662 15.5402 2.77527 15.5497 2.71202 15.5472C2.61906 15.5434 2.60578 15.5219 2.60009 15.4738C2.58554 15.3536 2.6608 13.7631 1.94047 12.1839C1.49082 11.1986 0.951995 10.5238 0.528905 9.15716C-0.126283 7.04171 -0.0320525 3.02078 0.0387787 2.33018C0.122891 1.50297 0.279099 0.400025 2.71392 0.0433389C3.11298 -0.0154763 4.01924 -0.0559513 4.74146 0.0294256C4.87301 0.0483982 4.9957 0.0705335 5.10953 0.095198C7.04854 0.485402 6.79747 3.41415 6.78924 4.12435C6.75636 6.86274 6.34908 9.61693 5.33973 11.8291L5.3391 11.8285Z" fill="url(#paint0_linear_3091_43874)"/>
<defs>
<linearGradient id="paint0_linear_3091_43874" x1="-0.011815" y1="7.7652" x2="6.80316" y2="7.7652" gradientUnits="userSpaceOnUse">
<stop offset="0.16" stop-color="#EEF2FB"/>
<stop offset="0.52" stop-color="#F5F8FD"/>
</linearGradient>
</defs>
</svg>
