<svg width="41" height="12" viewBox="0 0 41 12" fill="none" xmlns="http://www.w3.org/2000/svg">
<path d="M2.46685 4.57548C2.40919 4.70969 2.35815 4.84674 2.3194 4.98946C2.24946 5.25977 2.21449 5.53765 2.21449 5.82119C2.21449 6.06788 2.24379 6.31456 2.29767 6.55463C2.35816 6.80226 2.44889 7.03855 2.5642 7.25877L4.29099 6.35993C4.20498 6.19642 4.153 6.01211 4.153 5.81458C4.153 5.65012 4.18891 5.49417 4.2494 5.3524L2.4659 4.57454L2.46685 4.57548ZM5.33444 2.18897C6.09434 2.18897 6.79943 2.42337 7.38164 2.82222L8.6179 1.01604C7.68314 0.375225 6.55274 0 5.33444 0C2.94604 0 0.895059 1.44041 0 3.49895L2.0075 4.37228C2.56514 3.08781 3.84488 2.18897 5.33444 2.18897ZM5.33444 9.44112C3.93656 9.44112 2.72393 8.64909 2.11903 7.49033L0.177689 8.50164C1.14741 10.3608 3.09254 11.6301 5.33538 11.6301C6.66238 11.6301 7.88541 11.1849 8.86364 10.4373L7.53475 8.69824C6.92513 9.1642 6.16334 9.44207 5.33633 9.44207L5.33444 9.44112ZM18.232 2.35248L16.4731 3.60008L16.5818 3.77683C16.9419 4.31367 17.1318 4.94125 17.1318 5.58963C17.1318 7.38731 15.6687 8.8504 13.8711 8.8504C12.0734 8.8504 10.6103 7.38731 10.6103 5.58963C10.6103 4.94314 10.7993 4.3184 11.1556 3.78533L11.2473 3.65679L9.47232 2.40541L9.3485 2.58594C8.75495 3.47816 8.44116 4.51688 8.44116 5.59058C8.44116 8.58482 10.8768 11.0214 13.872 11.0214C16.8672 11.0214 19.3028 8.58482 19.3028 5.59058C19.3028 4.51027 18.9853 3.46587 18.3851 2.56892L18.232 2.35248ZM39.6756 3.44224L37.7551 4.377C37.98 4.83823 38.1 5.33349 38.1123 5.8486C38.1586 7.81074 36.6001 9.44491 34.6389 9.49216C32.6767 9.53848 31.0426 7.98087 30.9953 6.01873C30.949 4.05659 32.5076 2.42243 34.4697 2.37517C35.3856 2.35343 36.2731 2.68896 36.9479 3.30142L38.4289 1.76176C37.3449 0.75612 35.9044 0.204153 34.4187 0.239123C31.2789 0.31379 28.7846 2.92903 28.8593 6.06882C28.9339 9.20862 31.5492 11.7029 34.689 11.6282C37.8288 11.5535 40.323 8.93831 40.2484 5.79851C40.2285 4.97339 40.0357 4.1804 39.6756 3.44224ZM20.1979 7.30981C20.1979 8.40335 20.5193 9.46003 21.127 10.3645L21.2253 10.511L22.8954 9.30502L22.8368 9.21807C22.4559 8.65192 22.2555 7.99221 22.2555 7.30981C22.2555 5.4195 23.7933 3.88174 25.6836 3.88174C26.3603 3.88174 27.0153 4.07928 27.5767 4.45261L27.6542 4.50365L28.4689 2.58688C27.6259 2.08879 26.6694 1.82414 25.6836 1.82414C22.6581 1.82414 20.197 4.28532 20.197 7.31075L20.1979 7.30981Z" fill="#5EC4E7"/>
</svg>
