<svg width="8" height="8" viewBox="0 0 8 8" fill="none" xmlns="http://www.w3.org/2000/svg">
<path opacity="0.15" d="M5.97351 0.895585C5.9463 0.931614 5.91689 0.967643 5.88895 1.00367C5.36616 1.6397 4.80733 2.27131 4.18013 2.85734C4.17498 2.86175 4.16984 2.8669 4.16543 2.87131C4.08969 2.9419 4.01249 3.01102 3.93528 3.08014C3.88307 3.12646 3.83013 3.17278 3.77793 3.21837C3.77572 3.22058 3.77351 3.22205 3.77131 3.22425C3.76984 3.22572 3.76837 3.22646 3.7669 3.22793C3.73822 3.25293 3.71028 3.27793 3.6816 3.30219C3.6544 3.32867 3.62131 3.35587 3.5919 3.38308C3.56837 3.40367 3.54631 3.42352 3.52205 3.44411C3.5169 3.44852 3.51102 3.45367 3.50587 3.45881C3.45587 3.50072 3.40366 3.54484 3.34852 3.58969C3.34116 3.59558 3.33455 3.60072 3.32793 3.60734C3.27058 3.65366 3.21175 3.70072 3.15072 3.74852C3.14631 3.75146 3.14264 3.75513 3.13896 3.75881L3.1419 3.75587C3.1419 3.75587 3.13602 3.76028 3.13308 3.76249C3.07205 3.81028 3.01028 3.85881 2.94484 3.90734C2.94117 3.91028 2.93308 3.9169 2.9294 3.91984C2.92499 3.92352 2.92058 3.92646 2.91617 3.9294C2.91396 3.93087 2.91175 3.93308 2.90881 3.93455C2.84631 3.98234 2.78234 4.03013 2.71617 4.07866L2.70072 4.08969C2.68822 4.09852 2.67646 4.10734 2.66837 4.11322C2.60514 4.15954 2.5419 4.20513 2.47646 4.25219L2.39411 4.31028C2.33602 4.35219 2.27793 4.39337 2.21837 4.43454L2.20587 4.44337C2.12205 4.50145 2.03676 4.57793 1.94779 4.63748C1.31323 5.07057 0.656615 5.47425 0 5.84851L0.96176 7.39189C0.973525 7.38527 0.984554 7.37939 0.996319 7.37277C1.17132 7.27424 1.36102 7.15733 1.56985 7.0338C1.77573 6.90586 1.99705 6.76468 2.23087 6.61174C2.69705 6.30071 3.21028 5.93086 3.74778 5.49851C4.28528 5.06616 4.84336 4.56763 5.40513 4.01175C5.96689 3.45514 6.52865 2.83823 7.07645 2.17132C7.38233 1.80293 7.68085 1.41397 7.96468 1.00661L6.60365 0C6.40439 0.30294 6.19483 0.602205 5.97277 0.897057L5.97351 0.895585Z" fill="url(#paint0_linear_1587_26206)"/>
<defs>
<linearGradient id="paint0_linear_1587_26206" x1="6.53527" y1="0.0500001" x2="0.965436" y2="7.43968" gradientUnits="userSpaceOnUse">
<stop stop-color="white" stop-opacity="0"/>
<stop offset="0.06" stop-color="white" stop-opacity="0.2"/>
<stop offset="0.12" stop-color="white" stop-opacity="0.41"/>
<stop offset="0.18" stop-color="white" stop-opacity="0.59"/>
<stop offset="0.25" stop-color="white" stop-opacity="0.74"/>
<stop offset="0.31" stop-color="white" stop-opacity="0.85"/>
<stop offset="0.38" stop-color="white" stop-opacity="0.93"/>
<stop offset="0.44" stop-color="white" stop-opacity="0.98"/>
<stop offset="0.5" stop-color="white"/>
<stop offset="0.6" stop-color="white" stop-opacity="0.99"/>
<stop offset="0.66" stop-color="white" stop-opacity="0.96"/>
<stop offset="0.71" stop-color="white" stop-opacity="0.9"/>
<stop offset="0.75" stop-color="white" stop-opacity="0.82"/>
<stop offset="0.79" stop-color="white" stop-opacity="0.72"/>
<stop offset="0.83" stop-color="white" stop-opacity="0.59"/>
<stop offset="0.87" stop-color="white" stop-opacity="0.44"/>
<stop offset="0.9" stop-color="white" stop-opacity="0.26"/>
<stop offset="0.93" stop-color="white" stop-opacity="0.07"/>
<stop offset="0.94" stop-color="white" stop-opacity="0"/>
</linearGradient>
</defs>
</svg>
