<svg width="7" height="5" viewBox="0 0 7 5" fill="none" xmlns="http://www.w3.org/2000/svg">
<path d="M0 4.68044C0.986874 2.87196 2.0939 1.4108 3.46482 0.103357L3.6752 0L3.84834 0.0503663C4.96585 0.97061 5.92544 2.10806 6.93278 3.70458L6.91757 3.81004L6.7906 3.8221C6.37088 3.60647 5.90551 3.37825 5.41286 3.27542L5.33049 3.1878L5.24392 3.10228C5.17834 2.7749 5.06134 2.49525 4.89555 2.26808C4.6243 1.89715 4.23658 1.69306 3.80374 1.69306C3.33523 1.69306 2.8494 1.9302 2.46955 2.34363C2.13849 2.70407 1.9365 3.14215 1.8961 3.58863L1.82003 3.69776L1.75025 3.80584C1.26652 4.02934 0.733467 4.37089 0.17471 4.75546L0.0320039 4.77068L0.00104953 4.68044H0Z" fill="url(#paint0_linear_3091_44591)"/>
<defs>
<linearGradient id="paint0_linear_3091_44591" x1="2.98056" y1="2.23345" x2="14.6866" y2="0.637455" gradientUnits="userSpaceOnUse">
<stop stop-color="#E30918"/>
<stop offset="0.5" stop-color="#9C1006"/>
<stop offset="1" stop-color="#E30918"/>
</linearGradient>
</defs>
</svg>
