<svg width="25" height="7" viewBox="0 0 25 7" fill="none" xmlns="http://www.w3.org/2000/svg">
<path d="M0.26901 1.0435L1.15567 0L1.67741 0.443328L0.790758 1.48682C0.602296 1.7088 0.57194 1.92952 0.895107 2.20462L0.900167 2.20905C1.22397 2.48415 1.43709 2.41775 1.62555 2.1964L2.51221 1.1529L3.03396 1.59623L2.1473 2.63973C1.70397 3.16147 1.09495 3.13808 0.523244 2.65301L0.518184 2.64858C-0.0535247 2.16288 -0.17495 1.56588 0.268378 1.04413L0.26901 1.0435ZM4.8041 2.58913L5.49218 2.97238C5.08869 3.15515 4.65802 3.31515 4.20457 3.44606L4.41453 5.11566L3.71191 4.72356L3.55191 3.61871C3.36788 3.66109 3.18005 3.70156 2.98842 3.73571L2.73988 4.18157L2.14161 3.84828L3.30906 1.75497L3.90733 2.08826L3.40709 2.98566L3.42226 2.99388C3.91745 2.92875 4.38101 2.7719 4.80474 2.5885L4.8041 2.58913ZM5.083 4.68814C5.20443 4.35359 5.55036 4.31501 5.87353 4.33841L5.87732 4.32893C5.80207 4.15564 5.76791 3.9792 5.82863 3.81224L5.84064 3.77998C5.97535 3.41002 6.41046 3.29492 6.96699 3.49792L6.97647 3.50172C7.53933 3.70662 7.78534 4.03295 7.65063 4.40292L7.64621 4.41557C7.54565 4.69257 7.26549 4.83107 6.73931 4.74506L6.73362 4.76087L6.99798 5.22507C7.14217 5.12831 7.25664 4.98411 7.30027 4.86522L7.91182 5.08783C7.79483 5.40973 7.56526 5.57037 7.22438 5.62476L7.62217 6.32358L6.8658 6.04848L6.7001 5.76262C6.4503 5.8284 6.15875 5.8284 5.84064 5.71203L5.83116 5.70824C5.14877 5.46033 4.93691 5.09162 5.07162 4.72166L5.08364 4.68941L5.083 4.68814ZM6.09994 5.25859L6.10942 5.26238C6.2416 5.31044 6.35543 5.33701 6.45789 5.34523L6.07211 4.68371C5.85266 4.67676 5.77044 4.75265 5.73376 4.85194L5.72934 4.86458C5.67685 5.00941 5.7812 5.14222 6.09994 5.25795V5.25859ZM6.40919 4.02663L6.40476 4.03928C6.37694 4.11643 6.40476 4.18094 6.5186 4.38711C6.88034 4.42379 7.01695 4.38964 7.05742 4.27707L7.06185 4.26442C7.09726 4.16766 7.04414 4.07216 6.80003 3.98299L6.79054 3.97919C6.5654 3.89698 6.44397 3.92987 6.40919 4.02599V4.02663ZM8.98947 4.14679L9.6592 4.29035L9.1558 6.63347L8.48606 6.48991L8.98947 4.14679ZM9.97921 4.38901L11.3427 4.51865C11.8879 4.57051 12.2015 4.89241 12.156 5.36989L12.1528 5.40404C12.1219 5.72784 11.9435 5.94476 11.6627 6.03836L11.6608 6.05544C11.9188 6.3103 12.0947 6.66446 12.2066 7.00849L11.4565 6.93703C11.3516 6.59363 11.1505 6.28564 10.9278 6.06113L10.5123 6.02129L10.4346 6.83964L9.7528 6.7745L9.97984 4.38837L9.97921 4.38901ZM11.1941 5.53622C11.3307 5.5495 11.4395 5.49068 11.4534 5.3408V5.33384C11.4686 5.18396 11.3724 5.10617 11.2365 5.09289L10.6059 5.03281L10.5636 5.47614L11.1941 5.53622ZM14.6496 6.30334L14.6737 6.88517L12.5867 6.97245L12.4868 4.5781L14.5738 4.49083L14.5978 5.07265L13.1951 5.13147L13.2077 5.43946L14.5763 5.38254L14.6003 5.96437L13.2318 6.02129L13.2463 6.36342L14.649 6.30461L14.6496 6.30334ZM17.0484 5.99978L17.1249 6.57655L15.1562 6.83711L14.8413 4.4611L15.5199 4.3713L15.7583 6.1699L17.0478 5.99915L17.0484 5.99978ZM17.6682 4.00955L18.5327 3.79769L20.0341 5.89733L19.3359 6.06872L19.0639 5.67725L18.066 5.92136L18.0059 6.39441L17.3077 6.56517L17.6688 4.00955H17.6682ZM18.7092 5.16498L18.2608 4.49968L18.2443 4.50347L18.1444 5.30349L18.7098 5.16498H18.7092ZM19.4472 3.57318L20.0948 3.30314L21.5753 4.13983L21.5911 4.13351L21.0744 2.89523L21.6904 2.63846L22.6131 4.85004L21.9655 5.12009L20.485 4.28339L20.4692 4.28972L20.9859 5.52799L20.3699 5.78476L19.4472 3.57318ZM21.9124 2.5436L22.842 1.84288C23.5257 1.32809 24.1897 1.46975 24.5812 1.9896L24.6223 2.04462C25.0138 2.56384 24.9676 3.24179 24.284 3.75721L23.3543 4.45794L21.9124 2.54423V2.5436ZM22.8091 2.59609L23.551 3.58014L23.9336 3.29175C24.2618 3.04448 24.2574 2.72637 24.0512 2.45253L24.0303 2.42533C23.8242 2.15213 23.5194 2.06043 23.1911 2.30771L22.8085 2.59609H22.8091Z" fill="white"/>
</svg>
