<svg width="6" height="5" viewBox="0 0 6 5" fill="none" xmlns="http://www.w3.org/2000/svg">
<path d="M5.33259 4.02567L5.18411 4.07446C4.78537 4.01151 4.38978 3.91812 3.97583 3.79063L3.90238 3.69461L3.82316 3.59598C3.78538 3.25338 3.67205 2.9134 3.4921 2.60543C2.96377 1.7025 2.36986 1.38194 2.02149 1.38194C1.84521 1.38194 1.68414 1.45224 1.54143 1.59023C1.35256 1.77386 1.27806 2.09022 1.33157 2.48634L1.26756 2.53146L1.20461 2.57815C1.02045 2.48056 0.838922 2.38245 0.659491 2.28592C0.497897 2.19882 0.344174 2.11278 0.189926 2.03094L0 1.85518L0.0152154 1.74972C0.742386 1.16263 1.42024 0.67523 2.07658 0.201467C2.16735 0.135885 2.25549 0.0713522 2.34573 0.00577043L2.47479 0L2.66682 0.179431C3.35359 1.27701 4.25495 2.64163 5.33783 3.92441L5.33259 4.0262V4.02567Z" fill="url(#paint0_linear_3091_44616)"/>
<defs>
<linearGradient id="paint0_linear_3091_44616" x1="-4.40919" y1="3.28433" x2="7.2056" y2="1.51573" gradientUnits="userSpaceOnUse">
<stop stop-color="#AF1923"/>
<stop offset="0.5" stop-color="#780D0B"/>
<stop offset="1" stop-color="#AF1923"/>
</linearGradient>
</defs>
</svg>
