<svg width="5" height="2" viewBox="0 0 5 2" fill="none" xmlns="http://www.w3.org/2000/svg">
<path d="M4.49487 0.333286C4.3589 0.32127 4.04522 0.282061 4.04016 0.339611C4.03573 0.392734 4.59859 0.496451 4.50309 0.593844C4.37155 0.727917 4.32665 0.965708 4.32159 1.16619C4.3121 1.49125 4.43732 1.55449 4.39115 1.62659C4.3589 1.67718 4.13882 1.65947 3.66387 1.62785C3.35145 1.58232 3.02196 1.55007 2.695 1.55007C2.18906 1.55007 1.59648 1.6209 1.1247 1.71702C0.657337 1.81315 0.260176 1.8979 0.224128 1.84288C0.178594 1.77268 0.302549 1.72651 0.293695 1.41409C0.288003 1.22121 0.298121 0.999226 0.167843 0.868947C0.0653904 0.765863 0.592198 0.580563 0.589669 0.52491C0.586507 0.462933 0.308873 0.521748 0.172902 0.533764C0.0970116 0.54072 -0.014294 0.572341 0.0015165 0.507834C0.625716 0.203007 1.68882 0 2.695 0C3.41975 0 4.13313 0.092966 4.74784 0.268779C4.76934 0.285854 4.55748 0.338978 4.4955 0.333286H4.49487Z" fill="url(#paint0_linear_3091_43977)"/>
<defs>
<linearGradient id="paint0_linear_3091_43977" x1="-0.000380774" y1="0.930924" x2="4.7491" y2="0.930924" gradientUnits="userSpaceOnUse">
<stop offset="0.16" stop-color="#D2DEF4"/>
<stop offset="0.49" stop-color="#E4ECFA"/>
</linearGradient>
</defs>
</svg>
