<svg width="6" height="1" viewBox="0 0 6 1" fill="none" xmlns="http://www.w3.org/2000/svg">
<path d="M1.59522 0.0917009C1.98226 0.0328857 2.41041 0 2.8822 0C2.91002 0 2.93722 0 2.96441 0C3.40711 0.00379453 3.81122 0.0366799 4.17803 0.092333C4.2008 0.0954951 4.22356 0.0992905 4.24633 0.103085C4.30325 0.111939 4.3589 0.122057 4.41455 0.132176C4.43036 0.135338 4.44618 0.138501 4.46135 0.141663C4.46199 0.141663 4.46262 0.141663 4.46325 0.141663C5.31955 0.373761 5.89379 0.698193 4.68966 0.434473C4.63211 0.421825 4.57456 0.409809 4.51701 0.398426C4.44365 0.38388 4.37028 0.371231 4.29692 0.359215C2.93785 0.137235 1.47127 0.247277 0.239941 0.662777C-0.0636216 0.76523 -0.0806968 0.707047 0.197569 0.547044C0.581448 0.327594 1.1032 0.184667 1.59585 0.092333L1.59522 0.0917009Z" fill="url(#paint0_linear_1587_25635)"/>
<defs>
<linearGradient id="paint0_linear_1587_25635" x1="-0.00101176" y1="0.356686" x2="5.37647" y2="0.356686" gradientUnits="userSpaceOnUse">
<stop offset="0.16" stop-color="#FCFDFE"/>
<stop offset="0.49" stop-color="#FDFEFF"/>
</linearGradient>
</defs>
</svg>
