<svg width="7" height="5" viewBox="0 0 7 5" fill="none" xmlns="http://www.w3.org/2000/svg">
<path d="M0.0624338 3.94802C1.47008 2.68833 2.42967 1.43073 3.34624 0.147953L3.53722 0L3.69409 0.0115425C4.75651 0.634307 5.85252 1.19884 6.80004 1.61384L6.831 1.70408L6.62953 1.92968C6.15104 2.26178 5.71034 2.55559 5.27487 2.78906L5.20404 2.74814L5.13322 2.70669C5.11643 2.29536 4.94749 1.99264 4.63322 1.80481C4.44434 1.69201 4.23606 1.63535 4.01413 1.63535C3.46324 1.63535 2.84887 1.99159 2.32841 2.61278C2.03251 2.96587 1.83996 3.41445 1.79222 3.85568L1.71404 3.94068L1.64059 4.02357C1.14532 4.1028 0.703037 4.13637 0.149002 4.16156L0 4.0986L0.0624338 3.94907V3.94802Z" fill="url(#paint0_linear_1587_26250)"/>
<defs>
<linearGradient id="paint0_linear_1587_26250" x1="11.3703" y1="0.540394" x2="22.8046" y2="-1.37512" gradientUnits="userSpaceOnUse">
<stop stop-color="#144391"/>
<stop offset="0.5" stop-color="#212A72"/>
<stop offset="1" stop-color="#144391"/>
</linearGradient>
</defs>
</svg>
