<svg width="1" height="2" viewBox="0 0 1 2" fill="none" xmlns="http://www.w3.org/2000/svg">
<path d="M0.7712 0.949564C0.7275 0.839464 0.4169 0.797764 0.3365 0.779364C0.3384 0.750964 0.3511 0.710464 0.2979 0.684464C0.341 0.676864 0.556701 0.678165 0.571201 0.646565C0.581401 0.625665 0.551601 0.612964 0.556101 0.573164C0.573801 0.426964 0.552301 0.271365 0.540201 0.130965C0.536401 0.0872646 0.540201 -0.0462354 0.508001 0.0164646C0.420701 0.182165 0.441501 0.566165 0.409901 0.619965C0.372601 0.683865 0.0038 0.602865 0 0.698365C0 0.712965 0.0568999 0.728165 0.0764999 0.747765C0.117 0.785065 0.0904003 0.817965 0.1126 0.820465C0.1777 0.827465 0.297899 0.839466 0.366899 0.858466C0.449799 0.881866 0.513701 0.923664 0.544001 0.951464C0.626301 1.02616 0.617401 1.23806 0.652201 1.25576C0.730701 1.29566 0.8186 1.06846 0.7712 0.949564ZM0.6478 1.00906C0.6351 1.01406 0.5978 0.959065 0.5567 0.924265C0.5276 0.900265 0.4264 0.848364 0.4466 0.848364C0.47 0.848964 0.556101 0.859765 0.607901 0.899565C0.664901 0.943265 0.6693 1.00086 0.6478 1.00906Z" fill="url(#paint0_linear_1591_40259)"/>
<defs>
<linearGradient id="paint0_linear_1591_40259" x1="0" y1="0.630064" x2="0.7844" y2="0.630064" gradientUnits="userSpaceOnUse">
<stop stop-color="#E30D5A"/>
<stop offset="0.1" stop-color="#DE0C57"/>
<stop offset="0.65" stop-color="#C60A4A"/>
<stop offset="1" stop-color="#BE0A46"/>
</linearGradient>
</defs>
</svg>
