<svg width="3" height="4" viewBox="0 0 3 4" fill="none" xmlns="http://www.w3.org/2000/svg">
<path d="M1.9253 0.00202503L0.219573 0.348231C0.141626 0.364428 0.0798747 0.402895 0.0414073 0.461609C0.00293995 0.51931 -0.00920728 0.591183 0.00698952 0.66913L0.347122 2.34449C0.402799 2.6168 0.524274 2.81318 0.710538 2.92757C0.833026 3.00349 0.980821 3.04095 1.14988 3.04095C1.23592 3.04095 1.32905 3.03083 1.42623 3.01058L2.49219 2.79395L2.36362 2.16126L1.32602 2.37182C1.11343 2.41535 1.0446 2.39105 0.996007 2.15316L0.959564 1.97297L2.15914 1.72901L2.0326 1.10341L0.833027 1.34737L0.741919 0.898923L2.05285 0.632688L1.92429 0L1.9253 0.00202503Z" fill="white"/>
</svg>
