<svg width="3" height="3" viewBox="0 0 3 3" fill="none" xmlns="http://www.w3.org/2000/svg">
<path d="M0.339103 0.3587C0.558003 0.1714 0.820503 0.0853988 1.0767 0.0847988C0.816103 0.0828988 0.548503 0.1683 0.325203 0.3587C-0.288497 0.8831 -0.0296965 2.0346 1.0685 2.0586C1.0793 2.0586 1.0881 2.0586 1.0818 2.0586C-0.0164965 2.0352 -0.274597 0.8831 0.339103 0.3587ZM1.9409 0.349199C1.7227 0.127099 1.4057 0 1.0774 0C1.0748 0 1.0799 0 1.0774 0C1.4032 0.0019 1.7106 0.128399 1.927 0.349199C2.1307 0.556699 2.2351 0.825599 2.2288 1.1267C2.2161 1.6936 1.7227 2.1383 1.1027 2.1427H1.1071C1.7309 2.1427 2.2294 1.6967 2.2421 1.1267C2.2484 0.824899 2.1452 0.556099 1.9409 0.349199Z" fill="#2B4688"/>
</svg>
