<svg width="8" height="6" viewBox="0 0 8 6" fill="none" xmlns="http://www.w3.org/2000/svg">
<path d="M0.0314788 5.21401L0 5.1201C0.830527 3.46586 1.65633 1.87459 3.1857 0.117522L3.38087 0L3.54876 0.0346274C4.81632 0.939131 5.98001 1.99683 7.01358 3.17731L7.012 3.27699L6.87979 3.30899C6.45482 3.20144 5.95797 3.14478 5.40289 3.12851L5.32576 3.05559L5.24654 2.98476C5.19355 2.61435 5.02409 2.26021 4.75442 2.02202C4.47845 1.7791 4.17362 1.65633 3.84834 1.65633C3.26545 1.65633 2.6579 2.06924 2.22296 2.76125C1.98844 3.13428 1.81373 3.55611 1.78172 3.92336L1.70565 4.04403L1.63797 4.16366C1.11646 4.45641 0.63693 4.84885 0.160544 5.19722L0.0314788 5.21506V5.21401Z" fill="url(#paint0_linear_3091_44617)"/>
<defs>
<linearGradient id="paint0_linear_3091_44617" x1="3.41078" y1="2.34835" x2="15.1064" y2="0.567151" gradientUnits="userSpaceOnUse">
<stop stop-color="#AF1923"/>
<stop offset="0.4" stop-color="#780D0B"/>
<stop offset="1" stop-color="#AF1923"/>
</linearGradient>
</defs>
</svg>
