<svg width="1" height="3" viewBox="0 0 1 3" fill="none" xmlns="http://www.w3.org/2000/svg">
<path d="M0.208139 0.648456C0.199282 0.792698 0.173344 1.5253 0.171446 1.58793C0.165119 1.79417 0.135385 2.50589 0.135385 2.85763H0.127161C0.127161 2.50589 0.156895 1.79417 0.163221 1.58793C0.165119 1.5253 0.191058 0.792698 0.199915 0.648456C0.215731 0.371992 0.141712 0.11514 0.04302 0.0234074C0.027204 0.00948929 0.0139181 0.00252987 0 0.00126459C0.00126528 0.000631945 0.00316366 0 0.00442894 0C0.0196123 0 0.0341634 0.00822401 0.0512447 0.0234074C0.149937 0.11514 0.223955 0.371992 0.208139 0.648456Z" fill="url(#paint0_linear_1587_25837)"/>
<defs>
<linearGradient id="paint0_linear_1587_25837" x1="0" y1="1.42913" x2="0.210037" y2="1.42913" gradientUnits="userSpaceOnUse">
<stop stop-color="#6476A0"/>
<stop offset="1" stop-color="#C6D4EA"/>
</linearGradient>
</defs>
</svg>
