<svg width="6" height="1" viewBox="0 0 6 1" fill="none" xmlns="http://www.w3.org/2000/svg">
<path d="M1.59585 0.0917009C1.98353 0.0328857 2.41231 0 2.88473 0C2.91255 0 2.93975 0 2.96757 0C3.4109 0.00379453 3.81565 0.0366805 4.18309 0.092966C4.20586 0.0961281 4.22862 0.0999225 4.25139 0.103717C4.30831 0.113203 4.36459 0.122689 4.41961 0.132808C4.43542 0.13597 4.45123 0.139133 4.46641 0.142295C4.46705 0.142295 4.46768 0.142295 4.46831 0.142295C5.33093 0.376291 5.91719 0.705783 4.69661 0.435106C4.63906 0.422458 4.58151 0.410441 4.52333 0.399058C4.4506 0.384512 4.37661 0.371864 4.30325 0.359848C2.94291 0.135971 1.47379 0.246012 0.239941 0.662145C-0.0636215 0.764598 -0.0806968 0.706415 0.197569 0.546412C0.581448 0.326962 1.1032 0.184034 1.59585 0.0917009Z" fill="url(#paint0_linear_3091_43990)"/>
<defs>
<linearGradient id="paint0_linear_3091_43990" x1="-0.000379343" y1="0.356686" x2="5.39165" y2="0.356686" gradientUnits="userSpaceOnUse">
<stop offset="0.16" stop-color="#FEFEFF"/>
<stop offset="0.49" stop-color="#FEFEFF"/>
</linearGradient>
</defs>
</svg>
