<svg width="17" height="5" viewBox="0 0 17 5" fill="none" xmlns="http://www.w3.org/2000/svg">
<path d="M16.9985 0.718704C16.6183 0.592234 16.2249 0.534145 15.8308 0.488557C15.6338 0.467234 15.436 0.448852 15.2404 0.442234C15.1433 0.439293 15.0441 0.443705 14.9455 0.443705C14.847 0.446646 14.7492 0.454734 14.6507 0.459881C13.8654 0.528263 13.1 0.765027 12.3978 1.12164C11.6933 1.47532 11.0433 1.93561 10.4485 2.45693C10.1514 2.71796 9.86541 2.99296 9.58967 3.27825C9.31688 3.56575 9.036 3.85546 8.75732 4.14222L8.68159 4.2209L8.60218 4.14222C8.45071 3.99149 8.30953 3.82458 8.1713 3.66722C8.03159 3.51134 7.88968 3.35472 7.74336 3.20252C7.45218 2.89664 7.15071 2.60031 6.83527 2.31943C6.20586 1.75694 5.52866 1.24444 4.78969 0.83488C4.41984 0.631939 4.03602 0.453263 3.63602 0.318705C3.23749 0.182676 2.82205 0.0892942 2.40146 0.0628237C1.98088 0.0348826 1.55514 0.0834117 1.14926 0.202529C0.742645 0.320911 0.356616 0.507675 0 0.737821C0.350734 0.498852 0.733822 0.302529 1.14044 0.173853C1.54705 0.0444413 1.97646 -0.0151173 2.4044 0.00326497C2.83234 0.0201767 3.25587 0.10547 3.66396 0.234146C4.07278 0.361352 4.46616 0.53341 4.84557 0.730469C5.60366 1.12826 6.30145 1.6312 6.95145 2.18561C7.27718 2.46282 7.58821 2.75546 7.89041 3.05767C8.04188 3.2084 8.18894 3.36281 8.336 3.5209C8.40953 3.60178 8.47424 3.68193 8.5463 3.75913L8.75806 3.99296H8.60291L9.4257 3.12164C9.70364 2.8312 9.99188 2.54811 10.2978 2.28487C10.9081 1.75841 11.5735 1.28488 12.3044 0.933409C13.033 0.579733 13.8272 0.350323 14.6375 0.29444C14.7389 0.290764 14.8404 0.284146 14.9411 0.283411C15.0426 0.284882 15.1433 0.28194 15.2455 0.287823C15.4492 0.299587 15.6492 0.323117 15.8477 0.357675C16.0463 0.391499 16.2441 0.434146 16.4374 0.491499C16.6308 0.548851 16.822 0.619439 16.9963 0.718704H16.9985Z" fill="url(#paint0_linear_1587_26109)"/>
<defs>
<linearGradient id="paint0_linear_1587_26109" x1="-0.0897056" y1="1.98929" x2="17.0066" y2="2.35914" gradientUnits="userSpaceOnUse">
<stop offset="0.51" stop-color="#E8EBED"/>
<stop offset="0.52" stop-color="#BBC3C8"/>
<stop offset="0.58" stop-color="#5D686E"/>
<stop offset="0.99" stop-color="#232A2C"/>
</linearGradient>
</defs>
</svg>
