<svg width="1" height="3" viewBox="0 0 1 3" fill="none" xmlns="http://www.w3.org/2000/svg">
<path d="M0.609233 0.00189784C0.609233 0.00189784 0.604805 0.00189784 0.602907 0.00189784C0.581397 0.00695896 0.555458 0.026571 0.526357 0.0613662C0.439053 0.167017 0.375156 0.30177 0.331504 0.473216C0.301137 0.595315 0.0246733 2.21487 0.00822463 2.81778C0.00822463 2.81778 0 2.81778 0 2.81715C0.015816 2.21361 0.292912 0.595315 0.323279 0.473216C0.366931 0.30177 0.430828 0.167017 0.518132 0.0613662C0.549764 0.0227751 0.579499 0.0012659 0.602274 0.000633258C0.603539 0.000633258 0.604172 0 0.604805 0C0.60607 0 0.607967 -6.95011e-07 0.609233 0.00126459V0.00189784Z" fill="url(#paint0_linear_3091_44191)"/>
<defs>
<linearGradient id="paint0_linear_3091_44191" x1="0" y1="1.40952" x2="0.609233" y2="1.40952" gradientUnits="userSpaceOnUse">
<stop stop-color="#CFDAED"/>
<stop offset="0.19" stop-color="#C6D3E9"/>
<stop offset="0.62" stop-color="#B8C8E4"/>
<stop offset="1" stop-color="#B4C5E3"/>
</linearGradient>
</defs>
</svg>
