<svg width="8" height="16" viewBox="0 0 8 16" fill="none" xmlns="http://www.w3.org/2000/svg">
<path d="M5.4183 11.8714C4.89149 13.0249 4.83458 14.6464 4.80359 15.5508C4.59931 15.5508 4.19646 15.5483 3.79108 15.5432C3.47613 15.5394 2.77478 15.5489 2.71154 15.5464C2.61857 15.5426 2.60529 15.5211 2.5996 15.473C2.58505 15.3529 2.66031 13.7623 1.93998 12.1832C1.49033 11.1978 0.951507 10.523 0.528417 9.15639C-0.126772 7.04094 -0.0325408 3.02 0.0382904 2.3294C0.122402 1.50219 0.278611 0.399247 2.71343 0.042561C3.13842 -0.0200488 4.13132 -0.0624213 4.88707 0.0412959C5.05909 0.0659603 5.21972 0.0950517 5.36834 0.127305C7.42877 0.564941 7.01706 4.12547 6.97469 4.91221C6.79888 8.14767 6.24551 10.0607 5.41893 11.8714H5.4183Z" fill="url(#paint0_linear_1587_25510)"/>
<defs>
<linearGradient id="paint0_linear_1587_25510" x1="-0.0116709" y1="7.76443" x2="7.0354" y2="7.76443" gradientUnits="userSpaceOnUse">
<stop offset="0.16" stop-color="#F9FBFE"/>
<stop offset="0.52" stop-color="#FCFDFE"/>
</linearGradient>
</defs>
</svg>
