<svg width="3" height="1" viewBox="0 0 3 1" fill="none" xmlns="http://www.w3.org/2000/svg">
<path d="M0.00141432 0.1215C-0.0143857 0.119 0.103914 0.0924003 0.270214 0.0620003C0.276614 0.0608003 0.283514 0.0600999 0.290514 0.0588999C0.528414 0.0252999 0.818114 0 1.19961 0C1.40201 0 1.58991 0.00759963 1.76961 0.0214996C1.84681 0.0271996 1.97581 0.0430996 2.08851 0.0607996C2.03471 0.2088 2.19731 0.5625 1.98091 0.8908C1.97651 0.8902 1.97081 0.8889 1.96451 0.8883C1.91451 0.8788 1.67721 0.8301 1.30971 0.8231C1.29071 0.8231 1.27111 0.8225 1.25151 0.8225C1.23191 0.8225 1.21101 0.8225 1.19011 0.8225C0.700414 0.8225 0.425914 0.8857 0.221514 0.9275C0.199414 0.93 0.200714 0.9104 0.207614 0.9015C0.224114 0.8807 0.241114 0.8693 0.241114 0.8693C0.241114 0.8693 0.224714 0.8649 0.219614 0.8414C0.213914 0.8168 0.237314 0.7902 0.237314 0.7902C0.236714 0.7902 0.227914 0.7864 0.208914 0.7263C0.177214 0.6263 0.139314 0.3682 0.141814 0.2626C0.144314 0.1569 0.201914 0.1057 0.201914 0.1057C0.201914 0.1057 0.0236143 0.126 0.00141432 0.1215Z" fill="url(#paint0_linear_1591_39796)"/>
<defs>
<linearGradient id="paint0_linear_1591_39796" x1="0.000114319" y1="0.4631" x2="2.09731" y2="0.4631" gradientUnits="userSpaceOnUse">
<stop offset="0.16" stop-color="#D3DDEA"/>
<stop offset="0.49" stop-color="#DAE1ED"/>
</linearGradient>
</defs>
</svg>
