<svg width="5" height="2" viewBox="0 0 5 2" fill="none" xmlns="http://www.w3.org/2000/svg">
<path d="M4.59732 0.369966C4.46135 0.357318 4.11415 0.299135 4.11036 0.356686C4.1072 0.404117 4.68839 0.516056 4.5929 0.613449C4.46135 0.747522 4.41645 0.995431 4.41139 1.19591C4.40191 1.52097 4.52712 1.58358 4.48096 1.65631C4.45123 1.70374 4.23621 1.68224 3.80996 1.65125C3.4558 1.59433 3.07382 1.55006 2.695 1.55006C2.18906 1.55006 1.59648 1.6209 1.1247 1.71702C0.657337 1.81315 0.260176 1.8979 0.224128 1.84288C0.178594 1.77268 0.302549 1.72651 0.293695 1.41409C0.288003 1.22121 0.298121 0.999225 0.167843 0.868946C0.0653904 0.765862 0.592198 0.580562 0.589669 0.524909C0.586507 0.462932 0.308873 0.521748 0.172902 0.533764C0.0970116 0.54072 -0.014294 0.572341 0.0015165 0.507834C0.625716 0.203007 1.68882 0 2.695 0C3.45201 0 4.19637 0.101819 4.82816 0.29281C4.83954 0.321902 4.6612 0.375025 4.59732 0.369966Z" fill="url(#paint0_linear_1587_25612)"/>
<defs>
<linearGradient id="paint0_linear_1587_25612" x1="-0.000380774" y1="0.930292" x2="4.82879" y2="0.930292" gradientUnits="userSpaceOnUse">
<stop offset="0.16" stop-color="#DFE8F7"/>
<stop offset="0.49" stop-color="#ECF2FC"/>
</linearGradient>
</defs>
</svg>
