<svg width="3" height="4" viewBox="0 0 3 4" fill="none" xmlns="http://www.w3.org/2000/svg">
<path d="M1.86636 2.0845C1.85876 2.5841 1.91446 2.9382 1.83726 3.1077C1.66276 3.0862 1.49636 3.0742 1.25486 3.0742C0.809564 3.0742 0.590164 3.109 0.438364 3.1374C0.307464 3.1507 0.266964 3.0938 0.261964 3.0204C0.249264 2.8421 0.270764 2.5259 0.274564 2.3286C0.285364 1.7657 0.232164 1.3799 0.158864 0.965099C0.0626642 0.418699 -0.0327356 0.2163 0.0108644 0.1979C0.428264 0.0239998 0.927264 0 1.24596 0C1.48946 0 1.76266 0.00189991 2.11116 0.0834999C1.96376 1.0245 1.87526 1.3401 1.86636 2.0845Z" fill="url(#paint0_linear_1591_39904)"/>
<defs>
<linearGradient id="paint0_linear_1591_39904" x1="6.44013e-05" y1="1.5697" x2="2.11176" y2="1.5697" gradientUnits="userSpaceOnUse">
<stop offset="0.16" stop-color="#CCDAF2"/>
<stop offset="0.49" stop-color="#E1EAF9"/>
</linearGradient>
</defs>
</svg>
