<svg width="3" height="1" viewBox="0 0 3 1" fill="none" xmlns="http://www.w3.org/2000/svg">
<path d="M2.06683 0.3618C1.70693 0.272 1.45953 0.2378 0.993231 0.2378C0.527031 0.2378 0.300531 0.2733 0.0025311 0.3397C-0.0031689 0.3346 0.0019315 0.3201 0.0063315 0.3157C0.0152315 0.3049 0.0417309 0.284 0.0417309 0.284C0.0417309 0.284 0.026631 0.272 0.022831 0.248C0.019631 0.2302 0.0335312 0.2106 0.0335312 0.2106C0.0778312 0.186 0.416331 0 0.993231 0C1.53103 0 1.79613 0.1233 2.02763 0.2372C2.02763 0.2372 2.04223 0.2568 2.04093 0.2733C2.03903 0.2979 2.02763 0.3062 2.02763 0.3062C2.02763 0.3062 2.05993 0.3346 2.06563 0.3416C2.07133 0.3485 2.07193 0.3574 2.06683 0.3618Z" fill="#8298B4"/>
</svg>
