<svg width="3" height="1" viewBox="0 0 3 1" fill="none" xmlns="http://www.w3.org/2000/svg">
<path d="M0.00142414 0.1215C-0.0144759 0.119 0.104524 0.0930003 0.270224 0.0620003C0.276624 0.0608003 0.283524 0.0600999 0.290524 0.0588999C0.528324 0.0252999 0.818124 0 1.19962 0C1.43682 0 1.65382 0.0113996 1.84802 0.0284996C1.91952 0.0347996 2.08082 0.0562995 2.20992 0.0796995C2.16122 0.256299 2.32882 0.4619 2.08912 0.9136C2.08462 0.9129 2.07892 0.9117 2.07142 0.9104C1.98152 0.8933 1.64872 0.8332 1.32612 0.8244C1.30462 0.8244 1.28182 0.8237 1.25972 0.8231C1.23752 0.8225 1.21412 0.8231 1.19072 0.8231C0.701124 0.8231 0.426524 0.8864 0.222124 0.9281C0.200024 0.9306 0.201325 0.911 0.208225 0.9022C0.224725 0.8813 0.241824 0.8699 0.241824 0.8699C0.241824 0.8699 0.225324 0.8655 0.220224 0.8421C0.214624 0.8174 0.240525 0.7883 0.240525 0.7883C0.240525 0.7883 0.228524 0.787 0.209524 0.7269C0.177924 0.627 0.139924 0.3689 0.142424 0.2632C0.145024 0.1576 0.202524 0.1063 0.202524 0.1063C0.202524 0.1063 0.0235241 0.1272 0.00142414 0.1228V0.1215Z" fill="url(#paint0_linear_1591_39780)"/>
<defs>
<linearGradient id="paint0_linear_1591_39780" x1="-0.000475864" y1="0.4631" x2="2.22262" y2="0.4631" gradientUnits="userSpaceOnUse">
<stop offset="0.16" stop-color="#FAFBFD"/>
<stop offset="0.49" stop-color="#FBFCFD"/>
</linearGradient>
</defs>
</svg>
