<svg width="6" height="16" viewBox="0 0 6 16" fill="none" xmlns="http://www.w3.org/2000/svg">
<path d="M4.18822 0C4.20807 0.0727939 4.38381 0.608822 4.56101 1.48676C4.73822 2.3647 4.7316 3.25514 4.68601 4.30513C4.63013 5.12131 4.57572 5.93013 4.2816 7.27424C4.27204 7.3235 4.25513 7.3735 4.24631 7.42277C3.98896 8.61247 3.72205 9.79114 3.13822 10.9088C3.08381 11.0183 3.02572 11.125 2.96837 11.2323C2.94925 11.2661 2.9294 11.3 2.91028 11.3338C2.87058 11.4066 2.83087 11.4772 2.78896 11.5485C2.7669 11.586 2.74558 11.6228 2.72278 11.661C2.68234 11.7264 2.64264 11.7904 2.60367 11.8544C2.58161 11.8904 2.56028 11.9264 2.53823 11.9625C2.49778 12.0257 2.45882 12.0845 2.41984 12.1455C2.39852 12.1779 2.37573 12.2132 2.3544 12.2448C2.33234 12.2786 2.31102 12.3088 2.28896 12.3419C1.7647 13.2639 0.71544 14.5772 0.474264 14.883C0.233088 15.1889 0.040441 15.4242 0 15.4713C0.0889703 15.3838 0.728674 14.8264 0.994849 14.5161C1.26102 14.2058 2.25293 13.0169 2.95881 11.8279C3.03822 11.6955 3.13675 11.5235 3.24484 11.3272C3.25293 11.3125 3.26102 11.2985 3.26911 11.2845C3.30955 11.2095 3.35146 11.133 3.39484 11.0507C3.43014 10.9823 3.4669 10.9139 3.50366 10.8411C3.52205 10.8058 3.54043 10.7698 3.55807 10.7338C3.59043 10.6706 3.62278 10.6058 3.6544 10.5389C3.67425 10.5 3.69264 10.4625 3.70955 10.4228C3.7419 10.3551 3.77425 10.2867 3.80587 10.2161C3.82425 10.1772 3.84116 10.1367 3.85954 10.097C3.89337 10.022 3.92572 9.94629 3.95807 9.86908C3.97351 9.83305 3.98822 9.79702 4.0044 9.76026C4.05072 9.64776 4.09631 9.53305 4.13822 9.41761C4.59778 8.23674 4.89042 7.02277 5.01836 5.8066C5.02425 5.75586 5.03454 5.70586 5.03895 5.65439C5.04778 5.43822 5.05954 5.29189 5.07131 5.15439C5.08086 5.03969 5.08895 4.92719 5.0941 4.79557V4.79042C5.09778 4.71395 5.09998 4.6316 5.09998 4.53454C5.11616 2.88308 4.75513 1.31691 4.18749 0.00147034L4.18822 0Z" fill="url(#paint0_linear_1587_26094)"/>
<defs>
<linearGradient id="paint0_linear_1587_26094" x1="0.55989" y1="15.782" x2="5.26209" y2="0.474388" gradientUnits="userSpaceOnUse">
<stop stop-color="#F29E82"/>
<stop offset="0.69" stop-color="#E89787"/>
<stop offset="0.94" stop-color="#E3948B"/>
</linearGradient>
</defs>
</svg>
