<svg width="7" height="1" viewBox="0 0 7 1" fill="none" xmlns="http://www.w3.org/2000/svg">
<path d="M6.913 0.722301C6.8896 0.722301 6.8731 0.7242 6.8731 0.7242C6.8731 0.7242 6.7479 0.6242 6.5209 0.623C6.2945 0.6217 6.137 0.6394 6.0978 0.6502C5.9934 0.6793 6.0801 0.6236 5.9966 0.64C5.9201 0.6552 5.638 0.7615 5.4445 0.7204C5.251 0.6793 5.1991 0.6761 5.1397 0.7324C5.1321 0.7425 5.1239 0.7532 5.1175 0.7634C5.0967 0.5692 5.2503 0.143 5.3332 0C5.416 0.1063 5.4394 0.1879 5.4458 0.2555C5.4609 0.4168 5.3547 0.5496 5.337 0.6533C5.4388 0.6679 5.5419 0.739301 5.8233 0.651401C5.9846 0.601501 6.3381 0.6008 6.4241 0.5983C6.5114 0.5958 6.6689 0.6078 6.7321 0.6293C6.77 0.6419 6.875 0.693201 6.913 0.722301ZM1.7379 0.6919C1.7195 0.499 1.6082 0.216301 1.5399 0.0588007C1.4931 0.121501 1.4729 0.1961 1.4678 0.2555C1.4545 0.4168 1.5589 0.5496 1.5766 0.6533C1.4748 0.6679 1.3717 0.739301 1.0903 0.651401C0.929 0.601501 0.5755 0.6008 0.4895 0.5983C0.4022 0.5958 0.244699 0.6078 0.181499 0.6293C0.143499 0.6419 0.0316 0.688701 0 0.721001C0.0234 0.721001 0.0379 0.7235 0.0379 0.7235C0.0379 0.7235 0.1663 0.6242 0.3927 0.623C0.6191 0.6217 0.8335 0.6318 0.9164 0.6483C0.9929 0.6634 1.2756 0.7615 1.4691 0.7204C1.6626 0.6793 1.7145 0.6761 1.7739 0.7324C1.7708 0.7191 1.7575 0.7052 1.7379 0.6919Z" fill="#556684"/>
</svg>
