<svg width="2" height="2" viewBox="0 0 2 2" fill="none" xmlns="http://www.w3.org/2000/svg">
<path d="M1.1581 1.3956C1.1625 1.3986 1.1699 1.4 1.1802 1.4H1.2743C1.2839 1.4 1.2912 1.3986 1.2956 1.3956C1.3008 1.3927 1.3022 1.3853 1.3022 1.3743V0.0874996C1.3022 0.0610996 1.2964 0.0396996 1.2853 0.0242996C1.2736 0.00809962 1.2515 0 1.2169 0H1.1706C1.1456 0 1.1265 0.00439994 1.1133 0.0132999C1.0993 0.0220999 1.0868 0.0418997 1.0743 0.0720997C1.0662 0.0918997 1.0552 0.119901 1.0397 0.155901C1.0243 0.191901 1.0074 0.232401 0.9897 0.277201C0.9714 0.321401 0.952201 0.369101 0.931601 0.419901C0.911101 0.470601 0.8905 0.5199 0.8706 0.5669C0.8508 0.614 0.8309 0.6588 0.8155 0.7008C0.7993 0.7427 0.7846 0.778001 0.7728 0.805901C0.7669 0.817701 0.7589 0.8368 0.7486 0.864C0.7383 0.8905 0.727201 0.919101 0.713301 0.950001C0.700801 0.980901 0.688999 1.0096 0.678699 1.0361C0.6677 1.0625 0.6596 1.0816 0.6544 1.0934H0.6464C0.6412 1.0816 0.633101 1.0618 0.622101 1.0338C0.610301 1.0059 0.5993 0.976501 0.5875 0.945601C0.5743 0.915501 0.5625 0.886101 0.5508 0.858101C0.5397 0.829401 0.530901 0.8096 0.525801 0.7978C0.519101 0.7831 0.508099 0.7559 0.491899 0.7162C0.4758 0.6758 0.4566 0.630201 0.4361 0.578001C0.4147 0.526501 0.391901 0.471301 0.368401 0.415501C0.345601 0.358801 0.324299 0.305901 0.304399 0.257401C0.285299 0.208901 0.266901 0.166901 0.252201 0.133101C0.238301 0.0993005 0.2294 0.0786997 0.2265 0.0720997C0.2147 0.0418997 0.201501 0.0220999 0.189001 0.0132999C0.175801 0.00439994 0.157401 0 0.130201 0H0.0846004C0.0493004 0 0.027201 0.00809962 0.016201 0.0242996C0.00590102 0.0404996 0 0.0610996 0 0.0874996V1.3743C0 1.3846 0.00220134 1.3919 0.00590134 1.3956C0.00960134 1.3986 0.0177007 1.4 0.0272007 1.4H0.118401C0.128701 1.4 0.1361 1.3986 0.1397 1.3956C0.1441 1.3927 0.145601 1.3853 0.145601 1.3743V0.285301H0.156601L0.2493 0.5089C0.2655 0.5434 0.2861 0.590501 0.3111 0.650801C0.3361 0.710301 0.362501 0.772801 0.390501 0.838301C0.417701 0.903701 0.444101 0.966201 0.469101 1.0265C0.494901 1.0861 0.514701 1.1331 0.530201 1.1677C0.540501 1.1949 0.551501 1.2125 0.564001 1.2228C0.576501 1.2331 0.595601 1.2383 0.622101 1.2383H0.6758C0.703 1.2383 0.722101 1.2331 0.732401 1.2228C0.744101 1.2125 0.755201 1.1949 0.766201 1.1677C0.780901 1.1346 0.8008 1.0883 0.8265 1.028C0.8515 0.9684 0.878 0.9059 0.9044 0.8412C0.9316 0.7765 0.957401 0.714701 0.982401 0.655201C1.0074 0.596301 1.0265 0.5493 1.0405 0.5147L1.1405 0.2684H1.1508V1.3736C1.1508 1.3838 1.1522 1.3912 1.1559 1.3949L1.1581 1.3956Z" fill="white"/>
</svg>
