<svg width="12" height="28" viewBox="0 0 12 28" fill="none" xmlns="http://www.w3.org/2000/svg">
<path d="M9.94104 26.7672C9.86262 26.5421 9.63431 26.1064 9.23715 25.7509C9.07588 25.6074 9.00126 25.6061 8.97533 25.5631C8.92853 25.4859 8.95889 25.2431 8.92157 25.1274C8.90007 25.0616 8.68568 24.9718 8.4599 24.7947C8.18164 24.5753 8.08045 23.9802 7.89958 23.6045C7.84582 23.4919 7.79713 23.4034 7.6346 23.3382C7.73578 23.1985 7.74717 22.8785 7.65799 22.7343C7.60424 22.647 7.46827 22.5768 7.4689 22.5009C7.47459 21.8685 7.73768 21.4258 8.06654 20.8781C8.61169 19.9693 9.37059 19.053 9.86957 18.1315C11.13 15.8042 11.1199 13.6344 11.1199 10.7322C11.1199 9.94419 11.0117 8.8305 10.3496 8.14749C10.3521 8.021 10.3129 7.62321 10.3401 7.46827C10.3875 7.19949 10.4274 7.06984 10.4021 6.94462C10.4615 6.78146 10.4267 6.39758 10.3812 6.2869C10.4255 6.17054 10.3983 5.80247 10.2155 5.56721C10.2022 5.32372 9.9638 4.95692 9.72854 4.87976C9.57866 4.67865 9.25865 4.50664 9.0158 4.52118C9.00379 4.50917 8.98924 4.50284 8.96901 4.49082C9.08221 4.34853 9.31304 4.10568 9.28964 3.53713C9.35921 3.48085 9.88855 3.0312 9.73613 2.39308C9.78799 2.16921 9.78673 2.01173 9.70894 1.74295C9.50593 1.04286 8.20504 0 5.55962 0C2.9142 0 1.61078 1.05172 1.40777 1.75181C1.32999 2.02059 1.33125 2.16921 1.38311 2.39308C1.2307 3.0312 1.76003 3.48085 1.8296 3.53713C1.8062 4.10568 2.03703 4.34853 2.15024 4.49082C2.13 4.50284 2.11545 4.50917 2.10407 4.52118C1.86059 4.50664 1.54058 4.67865 1.39133 4.87976C1.15544 4.95692 0.917015 5.32372 0.903735 5.56721C0.720965 5.80247 0.694402 6.17054 0.73804 6.2869C0.684916 6.39252 0.657722 6.78146 0.717169 6.94462C0.691873 7.06984 0.731716 7.19949 0.779147 7.46827C0.806342 7.62321 0.767132 8.02163 0.770294 8.14812C0.107516 8.83113 3.80382e-06 9.94419 3.80382e-06 10.7322C3.80382e-06 11.9022 -0.00189346 12.9533 0.0790565 13.9443C0.197952 15.4102 0.49772 16.7427 1.24967 18.1315C1.74865 19.053 2.50945 19.9864 3.0527 20.8781C3.38536 21.4233 3.64528 21.8685 3.65034 22.5009C3.65097 22.5768 3.515 22.647 3.46125 22.7343C3.37208 22.8785 3.38346 23.1985 3.48528 23.3382C3.32211 23.4034 3.27405 23.4919 3.21966 23.6045C3.03879 23.9802 2.93823 24.5753 2.65934 24.7947C2.43356 24.9718 2.21917 25.0616 2.19767 25.1274C2.16036 25.2431 2.19071 25.4859 2.14391 25.5631C2.11798 25.6061 2.04336 25.6074 1.88209 25.7509C1.48493 26.1064 1.25726 26.5421 1.17884 26.7672C1.13963 26.8779 1.03718 26.8235 0.995436 26.9304C0.956225 27.031 0.970138 27.1024 0.985317 27.1163C1.15986 27.2776 3.91975 27.3516 5.55962 27.3402C7.20012 27.3516 9.95938 27.2776 10.1339 27.1163C10.1491 27.1024 10.163 27.031 10.1238 26.9304C10.0821 26.8235 9.97961 26.8779 9.94104 26.7672ZM7.56946 5.9163C7.59475 5.6412 7.83065 5.34902 7.99065 5.32372C8.05832 5.31297 8.16836 5.33827 8.23413 5.31677C8.3935 5.37242 8.66228 5.40214 8.77042 5.37305C8.80584 5.42491 9.05944 5.5729 9.18403 5.56721C9.20616 5.69369 9.35984 5.86634 9.41802 5.90998C9.39336 6.02065 9.42119 6.2616 9.5287 6.38746C9.50783 6.4507 9.4566 6.79157 9.53818 6.95158C9.47431 7.07553 9.5015 7.1451 9.51858 7.22225C9.5268 7.26146 9.52996 7.41451 9.5306 7.48028C9.00379 7.12612 8.30686 6.85608 7.63143 6.70114C7.69278 6.46461 7.541 6.22682 7.56946 5.9163ZM3.48781 6.70114C2.81238 6.85608 2.11545 7.12612 1.58865 7.48028C1.58991 7.41451 1.59244 7.26146 1.60066 7.22225C1.61774 7.1451 1.64493 7.07553 1.58106 6.95158C1.66327 6.79157 1.61141 6.4507 1.59054 6.38746C1.69806 6.2616 1.72588 6.02065 1.70122 5.90998C1.7594 5.86634 1.91371 5.69369 1.93521 5.56721C2.06043 5.5729 2.3134 5.42491 2.34882 5.37305C2.45696 5.40214 2.72574 5.37242 2.88511 5.31677C2.95088 5.33827 3.06092 5.31297 3.12859 5.32372C3.2886 5.34902 3.52512 5.6412 3.54979 5.9163C3.57824 6.22682 3.4271 6.46461 3.48781 6.70114Z" fill="#9DB4DB"/>
</svg>
