<svg width="5" height="2" viewBox="0 0 5 2" fill="none" xmlns="http://www.w3.org/2000/svg">
<path d="M4.73461 0.418651C4.59861 0.406651 4.20591 0.32185 4.20401 0.37945C4.20271 0.41865 4.80791 0.54195 4.71241 0.63935C4.58091 0.77345 4.53601 1.03595 4.53091 1.23635C4.52141 1.56145 4.64671 1.62405 4.60051 1.69675C4.57331 1.73975 4.36591 1.71385 4.00411 1.68285C3.59431 1.61015 3.14281 1.55005 2.69501 1.55005C2.18911 1.55005 1.59651 1.62085 1.12471 1.71705C0.657314 1.81315 0.260215 1.89785 0.224115 1.84285C0.178615 1.77265 0.302615 1.72655 0.293715 1.41405C0.288015 1.22125 0.298115 0.99925 0.167915 0.86895C0.0654146 0.76585 0.592214 0.58055 0.589714 0.52495C0.586514 0.46295 0.308915 0.521751 0.172915 0.533751C0.0970147 0.540751 -0.0142854 0.572351 0.00151464 0.507851C0.625715 0.203051 1.68881 0 2.69501 0C3.49441 0 4.28051 0.1132 4.93571 0.32565C4.93381 0.37055 4.79981 0.424951 4.73461 0.418651Z" fill="url(#paint0_linear_1591_39919)"/>
<defs>
<linearGradient id="paint0_linear_1591_39919" x1="0.000314643" y1="0.93025" x2="4.93571" y2="0.93025" gradientUnits="userSpaceOnUse">
<stop offset="0.16" stop-color="#F1F4FB"/>
<stop offset="0.49" stop-color="#F6F9FD"/>
</linearGradient>
</defs>
</svg>
