<svg width="1" height="3" viewBox="0 0 1 3" fill="none" xmlns="http://www.w3.org/2000/svg">
<path d="M0.178808 0.0234074C0.070626 0.117671 -0.00402538 0.322647 0.0098927 0.635171C0.0193823 0.835086 0.051014 1.43672 0.0560752 1.56072C0.0611363 1.69358 0.0915035 2.74629 0.0921361 2.85827H0.0839115C0.0832788 2.74503 0.0529117 1.69421 0.0478505 1.56136C0.0427894 1.43736 0.0111577 0.835717 0.00166807 0.635803C-0.01225 0.323278 0.0624014 0.118304 0.170583 0.0240406C0.188297 0.00759199 0.20348 0 0.218031 0C0.219296 0 0.220561 0.00126459 0.221827 0.00126459C0.208541 0.00252987 0.194624 0.00948929 0.178808 0.0234074Z" fill="url(#paint0_linear_3091_44207)"/>
<defs>
<linearGradient id="paint0_linear_3091_44207" x1="-0.0837382" y1="1.42913" x2="0.138318" y2="1.42913" gradientUnits="userSpaceOnUse">
<stop stop-color="#C6D4EA"/>
<stop offset="1" stop-color="#6476A0"/>
</linearGradient>
</defs>
</svg>
