<svg width="5" height="2" viewBox="0 0 5 2" fill="none" xmlns="http://www.w3.org/2000/svg">
<path d="M4.65491 0.39025C4.51891 0.37815 4.15271 0.30865 4.14961 0.36615C4.14701 0.40985 4.73841 0.52685 4.64291 0.62415C4.51131 0.75825 4.46641 1.01255 4.46141 1.21295C4.45191 1.53805 4.57711 1.60065 4.53091 1.67335C4.50251 1.71895 4.29061 1.69555 3.89091 1.66455C3.51341 1.60065 3.10231 1.55005 2.69501 1.55005C2.18911 1.55005 1.59651 1.62085 1.12471 1.71705C0.657314 1.81315 0.260215 1.89785 0.224115 1.84285C0.178615 1.77265 0.302615 1.72655 0.293715 1.41405C0.288015 1.22125 0.298115 0.99925 0.167915 0.86895C0.0654146 0.76585 0.592214 0.58055 0.589714 0.52495C0.586514 0.46295 0.308915 0.521751 0.172915 0.533751C0.0970147 0.540751 -0.0142854 0.572351 0.00151464 0.507851C0.625715 0.203051 1.68881 0 2.69501 0C3.46971 0 4.23121 0.10624 4.87311 0.30675C4.87881 0.34215 4.71881 0.39585 4.65491 0.39025Z" fill="url(#paint0_linear_1591_39926)"/>
<defs>
<linearGradient id="paint0_linear_1591_39926" x1="0.000314643" y1="0.93025" x2="4.87371" y2="0.93025" gradientUnits="userSpaceOnUse">
<stop offset="0.16" stop-color="#E6EDF9"/>
<stop offset="0.49" stop-color="#F0F5FC"/>
</linearGradient>
</defs>
</svg>
