<svg width="2" height="1" viewBox="0 0 2 1" fill="none" xmlns="http://www.w3.org/2000/svg">
<path d="M0.00141698 0.121467C-0.014399 0.118936 0.103905 0.0910999 0.270289 0.0619985C0.276615 0.0607332 0.282942 0.0601003 0.290534 0.0588351C0.528407 0.0253051 0.818156 0 1.19964 0C1.36476 0 1.52165 0.00316293 1.68614 0.0145505C1.76965 0.0202442 1.86391 0.0291011 1.95944 0.0411212C1.89997 0.159425 2.05813 0.669333 1.86644 0.867349C1.86138 0.866716 1.85695 0.866084 1.85126 0.865451C1.84367 0.864186 1.70828 0.828126 1.29264 0.823064C1.27682 0.823064 1.26037 0.823064 1.24392 0.823064C1.22684 0.823064 1.20913 0.823064 1.19078 0.823064C0.701117 0.823064 0.426551 0.886329 0.222209 0.928083C0.200066 0.930614 0.201332 0.911001 0.208291 0.902144C0.224739 0.881267 0.24182 0.86988 0.24182 0.86988C0.24182 0.86988 0.225372 0.865452 0.220311 0.842044C0.214617 0.817371 0.236127 0.79333 0.236127 0.79333C0.235494 0.79333 0.228535 0.787004 0.209556 0.726903C0.177924 0.626946 0.139965 0.368829 0.142495 0.263179C0.145026 0.157528 0.202597 0.106283 0.202597 0.106283C0.202597 0.106283 0.0235594 0.127161 0.00141698 0.122732V0.121467Z" fill="url(#paint0_linear_3091_43842)"/>
<defs>
<linearGradient id="paint0_linear_3091_43842" x1="-0.000480942" y1="0.463093" x2="1.9645" y2="0.463093" gradientUnits="userSpaceOnUse">
<stop offset="0.16" stop-color="#A9BDD6"/>
<stop offset="0.49" stop-color="#B7C5DC"/>
</linearGradient>
</defs>
</svg>
