<svg width="6" height="1" viewBox="0 0 6 1" fill="none" xmlns="http://www.w3.org/2000/svg">
<path d="M1.59648 0.0916996C1.98288 0.0328896 2.41038 0 2.88098 0C2.90878 0 2.93598 0 2.96318 0C3.40518 0.00317 3.80868 0.0360496 4.17488 0.0916996C4.19768 0.0948696 4.22038 0.0986599 4.24258 0.10246C4.29948 0.11131 4.35508 0.1208 4.41018 0.13155C4.42598 0.13471 4.44178 0.13787 4.45698 0.1404C4.45758 0.1404 4.45818 0.1404 4.45878 0.1404C5.30948 0.37123 5.87098 0.68997 4.68398 0.43258C4.62638 0.41993 4.56888 0.40792 4.51128 0.39653C4.43798 0.38262 4.36458 0.36934 4.29128 0.35732C2.93408 0.13661 1.46998 0.24665 0.239983 0.66152C-0.0636171 0.76397 -0.0807174 0.70579 0.197583 0.54578C0.581483 0.32633 1.10378 0.18404 1.59648 0.0916996Z" fill="url(#paint0_linear_1591_39953)"/>
<defs>
<linearGradient id="paint0_linear_1591_39953" x1="0.000282722" y1="0.35669" x2="5.36378" y2="0.35669" gradientUnits="userSpaceOnUse">
<stop offset="0.16" stop-color="#FBFCFE"/>
<stop offset="0.49" stop-color="#FCFDFF"/>
</linearGradient>
</defs>
</svg>
