<svg width="3" height="4" viewBox="0 0 3 4" fill="none" xmlns="http://www.w3.org/2000/svg">
<path d="M1.94545 2.04146C1.92458 2.61949 1.98846 2.93696 1.9094 3.1172C1.73232 3.09254 1.53121 3.0742 1.25485 3.0742C0.809621 3.0742 0.590171 3.10898 0.43839 3.13744C0.307479 3.15072 0.267004 3.09381 0.261945 3.02044C0.249296 2.8421 0.270798 2.52589 0.274593 2.32858C0.285344 1.76572 0.232221 1.37994 0.15886 0.965075C0.0627316 0.418663 -0.0327638 0.216288 0.0108733 0.197948C0.428271 0.0240323 0.927252 0 1.24599 0C1.5154 0 1.82023 0.00252953 2.22561 0.114468C2.06245 0.953059 1.96885 1.3869 1.94545 2.04146Z" fill="url(#paint0_linear_1587_25568)"/>
<defs>
<linearGradient id="paint0_linear_1587_25568" x1="-0.000510303" y1="1.5703" x2="2.22561" y2="1.5703" gradientUnits="userSpaceOnUse">
<stop offset="0.16" stop-color="#E2EAF8"/>
<stop offset="0.49" stop-color="#EEF3FC"/>
</linearGradient>
</defs>
</svg>
