<svg width="3" height="2" viewBox="0 0 3 2" fill="none" xmlns="http://www.w3.org/2000/svg">
<path d="M1.519 1.52754C1.519 1.52754 2.1301 1.47504 2.2984 1.45104C2.3338 1.44594 2.5148 1.40044 2.5148 1.37444C2.5148 1.35864 2.4635 1.34474 2.4711 1.32764C2.5097 1.24164 2.4439 1.12904 2.3402 0.970243C2.008 0.459643 1.5918 0.233243 0.8041 0.213643C0.8041 0.213643 1.054 0.207241 1.135 0.202241C1.2862 0.192041 1.5026 0.171841 1.5026 0.149041C1.5026 0.129441 1.3824 0.121244 1.2881 0.114244C1.3754 0.111744 1.6126 0.0997408 1.6373 0.0763408C1.662 0.0529408 1.605 0.0117414 1.562 0.00164145C1.519 -0.00905856 1.4937 0.0351434 1.4127 0.0592434C1.3393 0.0820434 1.1609 0.101642 1.0553 0.104142C0.9022 0.108542 0.444201 0.123143 0.444201 0.123143C0.444201 0.123143 0.5916 0.147844 0.7092 0.147844C0.7687 0.147844 0.9098 0.154742 0.9167 0.166742C0.9243 0.180742 0.850301 0.183843 0.813601 0.185743C0.668101 0.195243 0.4764 0.199642 0.2784 0.207242C0.1076 0.213642 0 0.218042 0 0.218042C0.4581 0.305942 1.0287 0.449544 1.4032 0.722844C1.5766 0.849444 1.8138 1.02084 2.0137 1.16764C2.108 1.23654 2.1991 1.29284 2.3035 1.32954C2.3231 1.33714 2.3395 1.35234 2.2953 1.36054C1.7468 1.46184 1.0692 1.50864 0.485901 1.55484C0.441001 1.55854 0.4372 1.56684 0.4935 1.56684C0.682 1.56684 1.9366 1.57444 2.4452 1.57444C2.6002 1.57504 2.6843 1.56174 2.6767 1.54214C2.6489 1.47574 1.7904 1.52754 1.519 1.52754ZM2.0118 0.970243C1.9827 1.01264 1.724 0.821543 1.6443 0.760843C1.562 0.698242 1.3229 0.511542 1.159 0.447042C1.0901 0.419842 1.0262 0.387544 1.061 0.376844C1.1565 0.347044 1.4893 0.447641 1.6443 0.555841C1.7588 0.636241 1.9239 0.804444 1.9625 0.859544C1.9846 0.890544 2.0277 0.946143 2.0118 0.970243Z" fill="url(#paint0_linear_1591_40256)"/>
<defs>
<linearGradient id="paint0_linear_1591_40256" x1="2.0637" y1="1.26754" x2="0.6377" y2="0.610941" gradientUnits="userSpaceOnUse">
<stop stop-color="#BE0A46"/>
<stop offset="0.35" stop-color="#C60A4A"/>
<stop offset="0.9" stop-color="#DE0C57"/>
<stop offset="1" stop-color="#E30D5A"/>
</linearGradient>
</defs>
</svg>
