<svg width="1" height="3" viewBox="0 0 1 3" fill="none" xmlns="http://www.w3.org/2000/svg">
<path d="M0.6124 2.819C0.5997 2.2496 0.4384 1.3285 0.3416 0.778099C0.3271 0.693299 0.3131 0.6168 0.3017 0.5504C0.2619 0.3163 0.179 0.139799 0.0563002 0.0264988C0.0373002 0.00879879 0.0202001 0 0.00570011 0C0.00380011 0 0.0019 0.000599722 0 0.00119972C0.0139 0.00189972 0.0297005 0.0106988 0.0481005 0.0271988C0.1708 0.140399 0.2537 0.316899 0.2935 0.550999C0.3049 0.617399 0.3182 0.694 0.3334 0.7787C0.4302 1.3291 0.5915 2.2503 0.6042 2.8196C0.6042 2.8203 0.6124 2.819 0.6124 2.819Z" fill="url(#paint0_linear_1591_40122)"/>
<defs>
<linearGradient id="paint0_linear_1591_40122" x1="0.0006" y1="1.4101" x2="0.6124" y2="1.4101" gradientUnits="userSpaceOnUse">
<stop stop-color="white"/>
<stop offset="0.45" stop-color="#C5D2E9"/>
<stop offset="0.79" stop-color="#9DB4DB"/>
<stop offset="0.87" stop-color="#B6C7E4"/>
<stop offset="0.94" stop-color="#C5D2EA"/>
<stop offset="1" stop-color="#CBD7EC"/>
</linearGradient>
</defs>
</svg>
