<svg width="2" height="2" viewBox="0 0 2 2" fill="none" xmlns="http://www.w3.org/2000/svg">
<path d="M0.556614 1.39779C0.566173 1.39779 0.572056 1.39632 0.575732 1.39338C0.578673 1.39044 0.58088 1.38308 0.58088 1.37205V0.135293H0.994849C1.00514 0.135293 1.0125 0.133824 1.01544 0.130148C1.01838 0.127207 1.02058 0.119854 1.02058 0.10956V0.0279414C1.02058 0.0176474 1.01838 0.00956005 1.01544 0.00588359C1.01176 0.00220713 1.00514 0 0.994849 0H0.0235276C0.0124983 0 0.00588215 0.00220713 0.00441157 0.00588359C0.000735112 0.0102953 0 0.0176474 0 0.0279414V0.10956C0 0.119854 0.000735112 0.127207 0.00441157 0.130148C0.00661744 0.133824 0.0124983 0.135293 0.0235276 0.135293H0.423526V1.37205C0.423526 1.38235 0.424998 1.3897 0.428674 1.39338C0.433086 1.39632 0.440438 1.39779 0.450732 1.39779H0.55735H0.556614Z" fill="white"/>
</svg>
