<svg width="9" height="4" viewBox="0 0 9 4" fill="none" xmlns="http://www.w3.org/2000/svg">
<path d="M8.53551 0.264911C8.53551 0.264911 8.49875 0.256087 8.42963 0.239176C8.36051 0.223735 8.2583 0.20094 8.12816 0.176676C7.99801 0.151676 7.83919 0.125941 7.65684 0.100941C7.47448 0.0788821 7.26787 0.0560881 7.04287 0.0524117C6.59214 0.0377058 6.05169 0.130353 5.50611 0.261234C4.95979 0.390646 4.37964 0.60388 3.83773 0.861232C3.29656 1.11932 2.80685 1.37741 2.34141 1.69579C2.10759 1.85388 1.887 2.0149 1.68186 2.17299C1.47671 2.33108 1.28554 2.48549 1.11348 2.63181C1.02671 2.70387 0.945095 2.77593 0.867154 2.84431C0.789213 2.91196 0.765684 2.95755 0.670096 3.03181C0.589949 3.09431 0.000980389 3.75019 0.000980389 3.74725C-0.00122549 3.68255 0.000980389 3.49431 0.000980389 3.49946C0.000980389 3.50461 0.126715 3.37299 0.20098 3.30387C0.298774 3.21343 0.431861 3.07152 0.570831 2.94872C0.639949 2.88696 0.704654 2.82152 0.784065 2.75461C0.862742 2.68696 0.970829 2.58623 1.0598 2.51417C1.23553 2.36858 1.40318 2.23035 1.612 2.07373C1.82083 1.91711 2.04509 1.75755 2.28259 1.60167C2.75612 1.28623 3.28332 0.986232 3.83259 0.733291C4.38185 0.480351 4.95464 0.280352 5.50684 0.156823C5.78331 0.0943231 6.0539 0.050941 6.31199 0.0259411C6.57081 0.00241178 6.8164 -0.00788246 7.0436 0.00682337C7.27081 0.0178527 7.47743 0.0472646 7.65978 0.0744703C7.84213 0.104617 8.00022 0.1355 8.12963 0.164911C8.25904 0.192852 8.36051 0.219323 8.42963 0.23697C8.49801 0.255352 8.53477 0.265646 8.53477 0.265646L8.53551 0.264911Z" fill="url(#paint0_linear_1587_26074)"/>
<defs>
<linearGradient id="paint0_linear_1587_26074" x1="-0.113466" y1="1.79493" x2="8.41512" y2="1.98549" gradientUnits="userSpaceOnUse">
<stop stop-color="white" stop-opacity="0"/>
<stop offset="1"/>
</linearGradient>
</defs>
</svg>
