<svg width="2" height="1" viewBox="0 0 2 1" fill="none" xmlns="http://www.w3.org/2000/svg">
<path d="M0.00141432 0.1215C-0.0143857 0.119 0.103914 0.0911003 0.270214 0.0620003C0.276614 0.0608003 0.282914 0.0600999 0.290514 0.0588999C0.528414 0.0252999 0.818114 0 1.19961 0C1.36471 0 1.52161 0.0031998 1.68611 0.0145998C1.76961 0.0202998 1.86391 0.0290997 1.95941 0.0411997C1.89991 0.1595 2.05811 0.6694 1.86641 0.8674C1.86131 0.8668 1.85691 0.866099 1.85121 0.865499C1.84361 0.8642 1.70821 0.8282 1.29261 0.8231C1.27681 0.8231 1.26031 0.8231 1.24391 0.8231C1.22681 0.8231 1.20911 0.8231 1.19071 0.8231C0.701114 0.8231 0.426514 0.8864 0.222214 0.9281C0.200014 0.9306 0.201314 0.911 0.208214 0.9022C0.224714 0.8813 0.241814 0.8699 0.241814 0.8699C0.241814 0.8699 0.225314 0.8655 0.220314 0.8421C0.214614 0.8174 0.236114 0.7934 0.236114 0.7934C0.236114 0.7934 0.228514 0.787 0.209514 0.7269C0.177914 0.627 0.139914 0.3689 0.142514 0.2632C0.145014 0.1576 0.202614 0.1063 0.202614 0.1063C0.202614 0.1063 0.0235143 0.1272 0.00141432 0.1228V0.1215Z" fill="url(#paint0_linear_1591_39813)"/>
<defs>
<linearGradient id="paint0_linear_1591_39813" x1="-0.00048568" y1="0.4631" x2="1.96451" y2="0.4631" gradientUnits="userSpaceOnUse">
<stop offset="0.16" stop-color="#A9BDD6"/>
<stop offset="0.49" stop-color="#B7C5DC"/>
</linearGradient>
</defs>
</svg>
