<svg width="7" height="16" viewBox="0 0 7 16" fill="none" xmlns="http://www.w3.org/2000/svg">
<path d="M5.09119 11.6926C4.54478 12.8904 4.55869 14.6219 4.52834 15.5497C4.31964 15.5484 4.05592 15.5465 3.79157 15.5434C3.47662 15.5396 2.77527 15.5491 2.71202 15.5465C2.61906 15.5427 2.60578 15.5212 2.60009 15.4732C2.58554 15.353 2.6608 13.7625 1.94047 12.1833C1.49082 11.198 0.951995 10.5232 0.528905 9.15656C-0.126283 7.04111 -0.0320525 3.02017 0.0387787 2.32957C0.122891 1.50236 0.279099 0.399416 2.71392 0.0427308C3.03266 -0.00406843 3.66825 -0.0394841 4.28612 -0.0116575C4.29181 -0.0110251 4.29624 -0.00976069 4.3013 -0.00912827C5.86085 0.233089 6.08536 1.18741 6.20995 1.6573C6.52299 2.83993 6.67414 8.22626 5.09183 11.6926H5.09119Z" fill="url(#paint0_linear_1587_25543)"/>
<defs>
<linearGradient id="paint0_linear_1587_25543" x1="-0.011815" y1="7.76396" x2="6.41106" y2="7.76396" gradientUnits="userSpaceOnUse">
<stop offset="0.16" stop-color="#C9D8F1"/>
<stop offset="0.52" stop-color="#DFE9F9"/>
</linearGradient>
</defs>
</svg>
