<svg width="7" height="16" viewBox="0 0 7 16" fill="none" xmlns="http://www.w3.org/2000/svg">
<path d="M5.24944 11.7794C4.71252 12.9557 4.69228 14.6341 4.66129 15.5505C4.45512 15.5499 4.12373 15.5473 3.79108 15.5435C3.47613 15.5397 2.77478 15.5492 2.71154 15.5467C2.61857 15.5429 2.60529 15.5214 2.5996 15.4733C2.58505 15.3532 2.66031 13.7626 1.93998 12.1835C1.49033 11.1982 0.951507 10.5234 0.528417 9.15672C-0.126772 7.04127 -0.0325408 3.02033 0.0382904 2.32973C0.122402 1.50252 0.278611 0.399579 2.71343 0.0428929C3.0834 -0.0114953 3.89227 -0.0507052 4.57718 0.0144342C4.66319 0.0270826 4.74351 0.0416278 4.81876 0.0574384C6.62117 0.394519 6.54844 2.61179 6.58069 3.23599C6.69453 5.41215 6.46622 9.11624 5.25071 11.78L5.24944 11.7794Z" fill="url(#paint0_linear_3091_43883)"/>
<defs>
<linearGradient id="paint0_linear_3091_43883" x1="-0.0116709" y1="7.76539" x2="6.60599" y2="7.76539" gradientUnits="userSpaceOnUse">
<stop offset="0.16" stop-color="#E1E9F7"/>
<stop offset="0.52" stop-color="#EDF2FC"/>
</linearGradient>
</defs>
</svg>
