<svg width="2" height="2" viewBox="0 0 2 2" fill="none" xmlns="http://www.w3.org/2000/svg">
<path d="M1.86344 1.88202C1.83554 1.83012 1.63884 1.83392 1.63884 1.83392L0.476036 1.82952C0.427336 1.83012 0.439335 1.77062 0.412735 1.74792C0.379835 1.71882 0.197035 1.71372 0.320435 1.64792C0.457035 1.57452 0.664535 1.57962 0.815735 1.55242C0.929635 1.53212 1.26303 1.44802 1.23713 1.28542C1.21873 1.17282 1.15294 0.976723 1.09544 0.740723C1.03724 0.499023 0.984036 0.345924 0.832836 0.218124C0.750636 0.148624 0.722136 0.130224 0.480436 0.118824C0.650036 0.118824 0.736637 0.118823 0.734837 0.0783235C0.731637 0.0132235 0.690536 -0.0203782 0.568436 0.0132218C0.583636 0.0340218 0.598736 0.0625226 0.551336 0.0910226C0.520936 0.108723 0.171736 0.0998225 0.0768356 0.103623C0.0863356 0.110023 0.0996358 0.119523 0.119836 0.131523C0.119836 0.131523 0.280536 0.125821 0.348236 0.144821C0.512136 0.189721 0.708836 0.425721 0.775236 0.695221C0.798636 0.790721 0.875235 1.12412 0.865135 1.20322C0.838535 1.41322 0.426035 1.45942 0.269135 1.52462C0.241335 1.53592 -0.0174645 1.66882 0.0009355 1.69472C0.0211355 1.72382 0.136936 1.73592 0.146436 1.75232C0.157236 1.76372 0.136936 1.79342 0.154036 1.81242C0.177436 1.83772 0.257736 1.84532 0.284336 1.84592C0.415336 1.85102 0.827836 1.84852 0.955536 1.84852C1.05994 1.84782 1.41294 1.84782 1.46614 1.85612C1.56484 1.87122 1.74954 1.98012 1.82544 1.95922C1.86154 1.94912 1.87604 1.90542 1.86344 1.88202ZM0.968836 1.24112C0.983436 1.14122 0.887237 0.699623 0.848637 0.588223C0.781637 0.395923 0.660735 0.289023 0.526035 0.163723C0.787935 0.232123 0.863837 0.404123 0.918837 0.619923C0.979637 0.857123 1.08784 1.19372 1.07324 1.29242C1.05614 1.40182 0.895435 1.43342 0.800535 1.42782C0.879635 1.37212 0.953036 1.35182 0.968836 1.24112Z" fill="url(#paint0_linear_1591_40263)"/>
<defs>
<linearGradient id="paint0_linear_1591_40263" x1="1.15294" y1="0.980522" x2="0.172336" y2="0.980522" gradientUnits="userSpaceOnUse">
<stop stop-color="#BE0A46"/>
<stop offset="0.35" stop-color="#C60A4A"/>
<stop offset="0.9" stop-color="#DE0C57"/>
<stop offset="1" stop-color="#E30D5A"/>
</linearGradient>
</defs>
</svg>
