<svg width="3" height="1" viewBox="0 0 3 1" fill="none" xmlns="http://www.w3.org/2000/svg">
<path d="M0.00142414 0.1215C-0.0144759 0.119 0.104524 0.0930003 0.270224 0.0620003C0.276624 0.0608003 0.283524 0.0600999 0.290524 0.0588999C0.528324 0.0252999 0.818124 0 1.19962 0C1.43932 0 1.65822 0.0113996 1.85312 0.0284996C1.92392 0.0347996 2.08782 0.0562995 2.21752 0.0803995C2.16942 0.258799 2.33712 0.4555 2.09602 0.9142C2.09162 0.9136 2.08592 0.9123 2.07832 0.911C1.98592 0.8933 1.64692 0.8326 1.32742 0.8237C1.30522 0.8237 1.28312 0.8231 1.26032 0.8225C1.23752 0.8218 1.21482 0.8225 1.19072 0.8225C0.701124 0.8225 0.426524 0.8857 0.222124 0.9275C0.200024 0.93 0.201325 0.9104 0.208225 0.9015C0.224725 0.8807 0.241824 0.8693 0.241824 0.8693C0.241824 0.8693 0.225324 0.8649 0.220224 0.8414C0.214624 0.8168 0.240525 0.787 0.240525 0.787C0.239925 0.787 0.228524 0.7864 0.209524 0.7263C0.177924 0.6263 0.139924 0.3682 0.142424 0.2626C0.145024 0.1569 0.202524 0.1057 0.202524 0.1057C0.202524 0.1057 0.0235241 0.126 0.00142414 0.1215Z" fill="url(#paint0_linear_1591_39779)"/>
<defs>
<linearGradient id="paint0_linear_1591_39779" x1="0.000124136" y1="0.4631" x2="2.23012" y2="0.4631" gradientUnits="userSpaceOnUse">
<stop offset="0.16" stop-color="#FDFDFE"/>
<stop offset="0.49" stop-color="#FDFDFE"/>
</linearGradient>
</defs>
</svg>
