<svg width="3" height="3" viewBox="0 0 3 3" fill="none" xmlns="http://www.w3.org/2000/svg">
<path d="M2.0219 2.2453C2.0219 2.2453 1.8707 1.6322 1.7486 1.4412C1.7429 1.154 1.7188 1.0742 1.5999 0.928699C1.4272 0.716799 0.964101 0.4751 0.928001 0.4751C0.895801 0.4751 0.973 0.5314 0.99 0.5473C1.0685 0.6225 1.2241 0.747199 1.3146 0.919899C1.1646 0.788299 0.873602 0.6377 0.704102 0.5441C0.555402 0.3328 0.2593 0.119 0 0C0.3574 0.0848 0.699001 0.2322 0.961601 0.3657C1.2829 0.5283 1.6182 0.649699 2.0288 1.1312C2.3047 1.4545 2.1345 1.9043 2.0219 2.2453Z" fill="#BE0A46"/>
</svg>
