<svg width="15" height="33" viewBox="0 0 15 33" fill="none" xmlns="http://www.w3.org/2000/svg">
<path d="M9.03224 23.8695C6.19583 23.5545 3.81666 24.7821 3.32907 26.2265C2.71498 28.0441 3.89319 30.3613 5.93022 31.8899C8.97532 34.1748 11.5973 32.6007 12.718 29.9053C13.1626 28.8359 14.0935 24.4323 9.03287 23.8701L9.03224 23.8695ZM9.97582 28.8492C9.51352 29.9888 8.50164 30.2791 7.18114 29.5398C6.52975 29.1749 5.40151 28.3445 5.85559 27.2504C6.12247 26.6079 6.89972 26.0203 8.4814 26.4782C10.4419 27.0461 10.2142 28.2617 9.97582 28.8492ZM13.9196 16.0565L3.80907 17.021C3.87927 17.6812 3.91659 18.3548 3.93429 19.0492L7.38985 18.8873C7.40313 19.1965 7.42083 19.433 7.42526 19.7442C6.35331 20.5366 4.81905 21.0691 3.93998 21.1716C3.92987 21.9899 3.909 22.6932 3.83058 23.3699C4.73367 23.3148 6.90414 23.0556 7.77562 22.358C8.50733 23.2832 9.92079 23.5084 10.7132 23.5786C12.0072 23.6943 13.9892 23.4831 14.0878 21.4296C14.11 20.9667 14.1884 18.0518 13.9202 16.0559L13.9196 16.0565ZM10.6727 20.813C10.0353 20.7795 9.74751 20.5619 9.74688 20.2425C9.74625 19.7499 9.74561 19.2414 9.72791 18.7405L11.6119 18.6836C11.6226 18.948 11.6321 20.2457 11.6321 20.2457C11.6321 20.5682 11.2647 20.8446 10.6727 20.813ZM13.2941 12.2209L8.57564 13.3213C7.39617 13.5914 6.5228 13.4725 6.34256 12.6693C6.12627 11.7049 7.02178 11.3615 7.84961 10.9428C9.1075 10.3066 12.3423 9.12774 12.3423 9.12774C11.9313 8.07982 11.4626 6.90857 10.829 6.01939C7.34051 8.20124 5.61464 9.5268 4.73937 10.17C4.36434 10.4451 2.42407 11.7485 3.27911 14.0878C3.93113 15.8731 6.199 15.8712 7.12107 15.8656C9.26244 15.8523 13.8007 15.0542 13.8007 15.0542C13.6831 14.1251 13.5205 13.1809 13.2948 12.2209H13.2941ZM8.02353 6.7745L10.1693 5.16119C8.42196 2.77949 5.27882 0.295973 0.622935 0L0 9.5717C0.605227 9.7064 1.76699 10.2636 2.37727 11.0212L4.24924 9.61344C3.58836 8.735 2.76368 8.15507 1.83465 7.80471L2.22612 6.7726C3.36195 7.19885 4.37952 7.92867 5.13906 8.94434L7.22921 7.37277C6.40833 6.25465 4.9898 4.90949 3.17855 4.26315L3.53081 3.33413C4.43644 3.67627 6.32232 4.53003 8.0229 6.77513L8.02353 6.7745Z" fill="#FC0064"/>
</svg>
