<svg width="16" height="8" viewBox="0 0 16 8" fill="none" xmlns="http://www.w3.org/2000/svg">
<path d="M3.28956 5.05991C3.15776 5.16702 3.00456 5.2192 2.86886 5.20327C2.69746 5.1835 2.59316 5.11319 2.4223 4.90282L1.4391 3.69387L0.90905 4.12505L1.98014 5.44276C2.20809 5.72179 2.46734 5.87119 2.77326 5.8992C2.80956 5.9025 2.84526 5.9047 2.88036 5.9047C3.17696 5.90744 3.45216 5.80253 3.71916 5.58667C4.01626 5.34389 4.17946 5.06211 4.21786 4.72486C4.25306 4.41946 4.15966 4.13493 3.93276 3.85535L2.86226 2.5382L2.33222 2.96938L3.31486 4.17888C3.48626 4.38925 3.53346 4.5057 3.51756 4.67762C3.50546 4.81329 3.42246 4.95225 3.28956 5.05991ZM7.97986 5.32082C9.83966 5.32082 11.554 6.18318 12.5619 7.43717L12.914 7.0027C11.8045 5.67565 9.98526 4.77868 7.97986 4.77868C5.97446 4.77868 4.15586 5.67565 3.04576 7.0027L3.39786 7.43717C4.40576 6.18318 6.12006 5.32082 7.97986 5.32082ZM0.93926 3.15613C2.86836 1.49073 5.36856 0.573992 7.97986 0.573992C10.5911 0.573992 13.0914 1.49128 15.0205 3.15613C15.221 3.32915 15.4127 3.50931 15.5961 3.69497L15.9598 3.24621C15.7796 3.0655 15.5912 2.89028 15.3956 2.72165C13.3622 0.966174 10.729 0 7.97986 0C5.23076 0 2.59756 0.966723 0.56411 2.72165C0.36857 2.89028 0.18071 3.0655 0 3.24621L0.36307 3.69497C0.54653 3.50931 0.73878 3.32915 0.93926 3.15613ZM14.1938 3.64114C14.2262 3.54282 14.2493 3.39781 14.0845 3.27093L13.9802 3.19073C13.817 3.06495 13.688 3.11878 13.594 3.1803L11.1492 4.76221L11.788 5.12363L13.3463 4.11571L13.0777 5.02147L12.841 4.8435L12.4329 5.13626L12.9398 5.51526L12.8218 5.92227L13.3815 6.43475L14.1927 3.64224L14.1938 3.64114ZM6.91596 1.25125L5.19836 1.60004C5.11976 1.61596 5.05776 1.65551 5.01926 1.71374C4.98026 1.77251 4.96816 1.84446 4.98416 1.92301L5.32636 3.60983C5.38176 3.88392 5.50486 4.08166 5.69216 4.197C5.81576 4.27335 5.96406 4.31125 6.13486 4.31125C6.22166 4.31125 6.31496 4.30136 6.41336 4.28104L7.48666 4.06298L7.35756 3.42637L6.31336 3.63839C6.09966 3.68179 6.02996 3.65817 5.98156 3.41813L5.94476 3.23687L7.15266 2.9919L7.02466 2.36243L5.81686 2.6074L5.72506 2.1559L7.04496 1.88786L6.91596 1.25125ZM10.2555 2.17183L11.2849 2.43878L11.4475 1.81096L10.389 1.53687C9.80896 1.38637 9.41186 1.60388 9.27066 2.14821L8.83836 3.81636C8.81806 3.89381 8.82626 3.96631 8.86196 4.02673C8.89766 4.08715 8.95706 4.12944 9.03446 4.14977L9.42716 4.25138L9.70566 3.17261L10.8971 3.4813L11.058 2.86062L9.86666 2.55193L9.91276 2.37341C9.97426 2.13668 10.0446 2.1169 10.2555 2.17183Z" fill="white"/>
</svg>
