<svg width="6" height="1" viewBox="0 0 6 1" fill="none" xmlns="http://www.w3.org/2000/svg">
<path d="M1.59648 0.0916996C1.97788 0.0341496 2.39908 0.00064 2.86258 0C2.88978 0 2.91698 0 2.94358 0C3.37868 0.00253 3.77578 0.0335194 4.13818 0.0866394C4.16098 0.0898094 4.18308 0.0929698 4.20518 0.0967598C4.26088 0.10562 4.31658 0.11447 4.37028 0.12459C4.38608 0.12775 4.40128 0.13028 4.41648 0.13344C4.41708 0.13344 4.41768 0.13344 4.41838 0.13344C5.21648 0.34973 5.66488 0.62167 4.63018 0.42183C4.57328 0.40918 4.51638 0.39843 4.45948 0.38768C4.38608 0.37376 4.31208 0.36175 4.23808 0.35036C2.89608 0.1423 1.45358 0.25297 0.239983 0.66278C-0.0636171 0.76523 -0.0807174 0.707049 0.197583 0.54705C0.581483 0.3276 1.10378 0.18403 1.59648 0.0916996Z" fill="url(#paint0_linear_1591_39962)"/>
<defs>
<linearGradient id="paint0_linear_1591_39962" x1="0.000282722" y1="0.35669" x2="5.23418" y2="0.35669" gradientUnits="userSpaceOnUse">
<stop offset="0.16" stop-color="#EEF2FB"/>
<stop offset="0.49" stop-color="#F5F8FD"/>
</linearGradient>
</defs>
</svg>
