<svg width="3" height="4" viewBox="0 0 3 4" fill="none" xmlns="http://www.w3.org/2000/svg">
<path d="M1.87146 2.0813C1.8626 2.5866 1.91889 2.93823 1.84173 3.10835C1.66718 3.08685 1.49833 3.0742 1.25485 3.0742C0.809621 3.0742 0.590171 3.10898 0.43839 3.13744C0.307479 3.15072 0.267004 3.09381 0.261945 3.02044C0.249296 2.8421 0.270798 2.52589 0.274593 2.32858C0.285344 1.76572 0.232221 1.37994 0.15886 0.965075C0.0627316 0.418663 -0.0327638 0.216287 0.0108733 0.197947C0.428271 0.0240314 0.927252 0 1.24599 0C1.49137 0 1.76648 0.00189668 2.11873 0.0853763C1.97075 1.01946 1.88158 1.3439 1.87146 2.08193V2.0813Z" fill="url(#paint0_linear_3091_43938)"/>
<defs>
<linearGradient id="paint0_linear_3091_43938" x1="-0.000510303" y1="1.56904" x2="2.11873" y2="1.56904" gradientUnits="userSpaceOnUse">
<stop offset="0.16" stop-color="#CEDBF2"/>
<stop offset="0.49" stop-color="#E1EAFA"/>
</linearGradient>
</defs>
</svg>
