<svg width="3" height="1" viewBox="0 0 3 1" fill="none" xmlns="http://www.w3.org/2000/svg">
<path d="M0.00142414 0.1215C-0.0144759 0.119 0.104524 0.0930003 0.270224 0.0620003C0.276624 0.0608003 0.283524 0.0600999 0.290524 0.0588999C0.528324 0.0252999 0.818124 0 1.19962 0C1.43492 0 1.65002 0.0113997 1.84362 0.0278997C1.91512 0.0341997 2.07512 0.0550998 2.20292 0.0784998C2.15422 0.2531 2.32122 0.4682 2.08342 0.9117C2.07892 0.911 2.07332 0.9098 2.06572 0.9085C1.97842 0.8921 1.65132 0.8326 1.32612 0.8237C1.30462 0.8237 1.28252 0.8231 1.26032 0.8225C1.23822 0.8218 1.21542 0.8225 1.19142 0.8225C0.701724 0.8225 0.427124 0.8857 0.222824 0.9275C0.200624 0.93 0.201925 0.9104 0.208925 0.9015C0.225325 0.8807 0.242424 0.8693 0.242424 0.8693C0.242424 0.8693 0.225924 0.8649 0.220924 0.8414C0.215224 0.8168 0.240525 0.7877 0.240525 0.7877C0.239925 0.7877 0.229124 0.7864 0.210124 0.7263C0.178524 0.6263 0.140524 0.3682 0.143124 0.2626C0.145624 0.1569 0.203224 0.1057 0.203224 0.1057C0.203224 0.1057 0.0235241 0.126 0.00142414 0.1215Z" fill="url(#paint0_linear_1591_39781)"/>
<defs>
<linearGradient id="paint0_linear_1591_39781" x1="-0.000475864" y1="0.4631" x2="2.21432" y2="0.4631" gradientUnits="userSpaceOnUse">
<stop offset="0.16" stop-color="#F8F9FC"/>
<stop offset="0.49" stop-color="#F9FAFC"/>
</linearGradient>
</defs>
</svg>
