<svg width="3" height="4" viewBox="0 0 3 4" fill="none" xmlns="http://www.w3.org/2000/svg">
<path d="M1.93526 2.0471C1.91696 2.6144 1.97896 2.937 1.89986 3.1159C1.72346 3.0919 1.52676 3.0742 1.25486 3.0742C0.809564 3.0742 0.590164 3.109 0.438364 3.1374C0.307464 3.1507 0.266964 3.0938 0.261964 3.0204C0.249264 2.8421 0.270764 2.5259 0.274564 2.3286C0.285364 1.7657 0.232164 1.3799 0.158864 0.965099C0.0626642 0.418699 -0.0327356 0.2163 0.0108644 0.1979C0.428264 0.0239998 0.927264 0 1.24596 0C1.51156 0 1.81266 0.00249965 2.21036 0.11C2.04916 0.9625 1.95736 1.3812 1.93526 2.0471Z" fill="url(#paint0_linear_1591_39891)"/>
<defs>
<linearGradient id="paint0_linear_1591_39891" x1="6.44013e-05" y1="1.5703" x2="2.21106" y2="1.5703" gradientUnits="userSpaceOnUse">
<stop offset="0.16" stop-color="#DFE8F7"/>
<stop offset="0.49" stop-color="#ECF2FC"/>
</linearGradient>
</defs>
</svg>
