<svg width="11" height="16" viewBox="0 0 11 16" fill="none" xmlns="http://www.w3.org/2000/svg">
<path d="M0.992309 12.7679C0.962162 12.64 0.934956 12.5326 0.908486 12.4267C0.816574 12.0657 0.735692 11.7525 0.59084 10.8326C0.348929 9.08777 0.473193 7.55763 0.802604 6.25028C0.815104 6.19954 0.827603 6.14881 0.841574 6.09807C0.85775 6.03851 0.873927 5.97969 0.890839 5.92087C0.934956 5.76572 0.98275 5.61499 1.03201 5.46646C1.03349 5.46131 1.03569 5.45543 1.03716 5.45028C1.18863 5.00175 1.36363 4.58411 1.55407 4.19808C1.55554 4.19514 1.55701 4.19146 1.55922 4.18852C1.7504 3.80323 1.95628 3.44882 2.17025 3.12676C2.17319 3.12235 2.17613 3.11794 2.17907 3.11352C2.24598 3.01279 2.31436 2.915 2.38275 2.82014C2.38789 2.81353 2.39304 2.80617 2.39745 2.79956C2.54083 2.60323 2.68569 2.42014 2.83054 2.25176C2.83642 2.24515 2.8423 2.23853 2.84819 2.23117C2.91142 2.15838 2.97392 2.08853 3.03715 2.02088C3.05113 2.00618 3.06436 1.99147 3.07833 1.9775C3.13862 1.91353 3.19818 1.8525 3.25774 1.79294C3.26657 1.78412 3.27612 1.77456 3.28495 1.76574C3.35333 1.69882 3.42171 1.63485 3.48862 1.57382C3.49745 1.56574 3.50554 1.55912 3.51436 1.55103C3.57024 1.50103 3.62539 1.45397 3.6798 1.40838C3.69892 1.39294 3.7173 1.3775 3.73568 1.3628C3.78127 1.32603 3.82612 1.29074 3.87024 1.25765C3.88789 1.24441 3.90553 1.23044 3.92318 1.21721C3.98274 1.17383 4.04083 1.13191 4.09671 1.09515C4.88494 0.572357 5.61362 0.294417 6.5092 0.295888C7.20773 0.297358 8.95772 0.398093 10.4246 1.05986C8.86361 0.129712 7.0114 -0.0607288 5.99523 0.0150062C5.10553 0.104712 4.04671 0.491475 3.28936 1.05912C1.81216 2.16794 -0.802538 5.50396 0.238635 10.8282C0.434223 11.7392 0.589369 12.0606 0.701869 12.4164C0.734222 12.5201 0.76731 12.626 0.804809 12.7525C1.04378 13.4605 1.34231 14.1878 1.69231 14.915C1.7776 15.0907 2.00481 15.4164 2.00186 15.4091C1.93128 15.262 1.19304 13.4878 0.993044 12.7679H0.992309Z" fill="url(#paint0_linear_1587_26100)"/>
<defs>
<linearGradient id="paint0_linear_1587_26100" x1="-1.09259" y1="13.7155" x2="7.46531" y2="-0.65921" gradientUnits="userSpaceOnUse">
<stop offset="0.48" stop-color="#A6B1B7"/>
<stop offset="0.52" stop-color="#A7ADB2"/>
<stop offset="0.56" stop-color="#ACA2A6"/>
<stop offset="0.6" stop-color="#B49091"/>
<stop offset="0.64" stop-color="#C07774"/>
<stop offset="0.68" stop-color="#CF574F"/>
<stop offset="0.72" stop-color="#E02F22"/>
<stop offset="0.73" stop-color="#E4291B"/>
</linearGradient>
</defs>
</svg>
