<svg width="1" height="3" viewBox="0 0 1 3" fill="none" xmlns="http://www.w3.org/2000/svg">
<path d="M0.189799 0.628201C0.180899 0.771201 0.155 1.495 0.1531 1.5683C0.1512 1.6171 0.148699 1.6942 0.144899 1.7879C0.134099 2.0998 0.117 2.5704 0.117 2.8393H0.1088C0.1088 2.5711 0.1259 2.1004 0.1373 1.7885C0.1404 1.6949 0.142999 1.6177 0.144899 1.569C0.146799 1.495 0.1727 0.771201 0.1816 0.628901C0.198 0.339101 0.115799 0.0980991 0.0303993 0.0189991C0.0201993 0.0094991 0.0119993 0.00449972 0.0043993 0.00259972L0 0.0012989L0.0043993 0L0.00879955 0.0012989C0.0170996 0.0025989 0.0266 0.00760019 0.0386 0.0184002C0.124 0.0981002 0.206199 0.338501 0.189799 0.628201Z" fill="url(#paint0_linear_1591_40113)"/>
<defs>
<linearGradient id="paint0_linear_1591_40113" x1="0" y1="1.4197" x2="0.191699" y2="1.4197" gradientUnits="userSpaceOnUse">
<stop stop-color="#C6D4EA"/>
<stop offset="1" stop-color="#6476A0"/>
</linearGradient>
</defs>
</svg>
