<svg width="3" height="1" viewBox="0 0 3 1" fill="none" xmlns="http://www.w3.org/2000/svg">
<path d="M0.00141432 0.1215C-0.0143857 0.119 0.103914 0.0924003 0.270214 0.0620003C0.276614 0.0608003 0.283514 0.0600999 0.290514 0.0588999C0.528414 0.0252999 0.818114 0 1.19961 0C1.41721 0 1.61781 0.00950016 1.80441 0.0247002C1.87901 0.0304002 2.02201 0.0487002 2.14221 0.0690002C2.09031 0.2297 2.25551 0.5182 2.02901 0.9009C2.02461 0.9003 2.01891 0.899 2.01191 0.897799C1.94481 0.885099 1.66521 0.8313 1.31791 0.8237C1.29771 0.8237 1.27681 0.8231 1.25591 0.8225C1.23501 0.8218 1.21351 0.8225 1.19141 0.8225C0.701714 0.8225 0.427114 0.8857 0.222814 0.9275C0.200714 0.93 0.201914 0.9104 0.208914 0.9015C0.225314 0.8807 0.242415 0.8693 0.242415 0.8693C0.242415 0.8693 0.226014 0.8649 0.220914 0.8414C0.215214 0.8168 0.239914 0.7889 0.239914 0.7889C0.239214 0.7889 0.229115 0.7864 0.210115 0.7263C0.178515 0.6263 0.140614 0.3682 0.143114 0.2626C0.145614 0.1569 0.203214 0.1057 0.203214 0.1057C0.203214 0.1057 0.0235143 0.126 0.00141432 0.1215Z" fill="url(#paint0_linear_1591_39789)"/>
<defs>
<linearGradient id="paint0_linear_1591_39789" x1="0.000114319" y1="0.4631" x2="2.15231" y2="0.4631" gradientUnits="userSpaceOnUse">
<stop offset="0.16" stop-color="#E4EAF2"/>
<stop offset="0.49" stop-color="#E8EDF4"/>
</linearGradient>
</defs>
</svg>
