<svg width="3" height="4" viewBox="0 0 3 4" fill="none" xmlns="http://www.w3.org/2000/svg">
<path d="M1.3008 0.5021C1.6592 0.5021 1.8687 0.615501 1.9608 0.682301C2.0033 0.713701 2.057 0.731901 2.1086 0.731901C2.2473 0.731901 2.3597 0.6225 2.3597 0.4869C2.3597 0.4019 2.3222 0.327001 2.2584 0.281401C2.0519 0.133601 1.8232 0 1.3008 0C0.5892 0 0.0729008 0.3968 0.0729008 0.9445C0.0729008 1.4921 0.485901 1.8829 1.1247 1.8829H1.4871C1.7108 1.8829 1.977 1.9557 1.977 2.3009C1.977 2.5763 1.7037 2.7686 1.314 2.7686C0.950601 2.7686 0.648901 2.6674 0.392801 2.4578L0.357302 2.4285L0 2.8091L0.0405006 2.8425C0.379601 3.1179 0.832101 3.2697 1.314 3.2697C2.0408 3.2697 2.5297 2.88 2.5297 2.2999C2.5297 1.7503 2.1106 1.3808 1.4871 1.3808H1.1247C0.811901 1.3808 0.625601 1.2178 0.625601 0.9445C0.625601 0.6711 0.896902 0.5021 1.3018 0.5021H1.3008Z" fill="white"/>
</svg>
