<svg width="5" height="27" viewBox="0 0 5 27" fill="none" xmlns="http://www.w3.org/2000/svg">
<path d="M2.64357 17.8994C2.64227 17.9905 2.62517 18.3263 2.62397 18.4079C2.61637 18.8651 1.93397 18.5293 1.76957 18.368C1.61337 18.1385 1.44957 17.8811 1.25097 17.5149C0.745662 16.5827 0.445901 15.6992 0.265661 14.7386C0.265661 14.7379 0.254271 14.6798 0.254271 14.6791C0.252371 14.5084 0.292221 14.3623 0.400361 14.208C0.569851 13.967 0.760211 13.9809 1.05117 13.9329C1.09667 14.2971 1.46537 15.5923 1.46537 15.5923C1.32307 15.6069 1.09037 15.5582 1.06317 15.6771C1.01827 15.8719 1.13457 16.2273 1.21617 16.4082C1.28767 16.5663 1.47867 16.9641 1.67217 16.9691C1.79297 16.9723 1.90107 16.8445 1.97317 16.7788C2.07187 16.9982 2.54487 17.7659 2.64357 17.8994ZM0.877212 12.3613C0.824082 11.3323 0.790571 10.2832 0.822191 9.24731C0.828511 9.04491 0.844321 8.95381 0.856341 8.83301C0.850011 8.82801 0.788041 8.69891 0.760841 8.65091C0.683691 8.92031 0.682422 9.18021 0.677361 9.28331C0.634362 10.1605 0.686852 11.5891 0.690012 11.7042C0.664712 11.6663 0.645111 11.6384 0.619811 11.6112C0.616021 11.1761 0.497752 9.16571 0.721002 8.56041C0.687482 8.45931 0.650802 8.33721 0.608432 8.16771C0.232142 9.05121 0.324472 10.4198 0.346612 11.3558C0.327002 11.3425 0.218861 11.2773 0.192931 11.2615C0.192931 11.1957 0.105021 9.74501 0.289051 8.85831C0.362421 8.50291 0.425032 8.28791 0.585662 7.97741C0.595782 7.71811 0.741871 7.59161 0.771591 7.52961C0.116401 8.19681 4.19389e-05 9.29471 4.19389e-05 10.1137C4.19389e-05 11.2925 -0.00438876 12.3297 0.0778312 13.327C0.366211 13.3232 0.667241 13.4225 0.946141 13.4845C0.899971 13.1088 0.896812 12.7395 0.877212 12.3613ZM1.52477 7.09011C1.61017 7.01041 1.86247 6.84151 1.98327 6.76251C1.89347 6.80041 1.71707 6.87381 1.68097 6.89211C1.64497 6.91051 1.24587 7.13941 1.22187 7.15651C1.18647 7.18111 0.953731 7.38791 0.880371 7.54731C0.741871 7.84901 0.871521 8.18981 0.943611 8.49151C1.09797 7.88761 1.29587 7.37211 2.14587 6.95851C2.20217 6.90101 2.26597 6.87251 2.30707 6.83331C2.14327 6.89531 1.55897 7.18301 1.27497 7.51001C1.28327 7.46321 1.30787 7.41321 1.32177 7.37401C1.42357 7.26971 1.56337 7.17991 1.63107 7.13371C1.87647 6.96741 2.08447 6.86371 2.35077 6.75801C2.44437 6.69991 2.73527 6.55311 2.73527 6.55311C2.34567 6.66701 1.80937 6.89911 1.52477 7.09011ZM4.14557 22.7691C4.06527 22.7754 3.91477 22.788 3.86987 22.807C3.71617 22.874 3.61367 23.0752 3.57827 23.2288C3.53847 23.4027 3.40497 23.8157 3.40497 23.9258C3.40497 24.0282 3.47207 24.0668 3.55677 24.1009C3.81037 24.2028 3.93437 24.1888 4.11587 24.2293C4.14747 24.2363 4.36947 24.3109 4.32077 24.3482C4.29097 24.371 4.22647 24.3811 4.19867 24.4001C4.18537 24.4089 4.19997 24.4285 4.19677 24.4462C4.19367 24.464 4.14367 24.4791 4.10507 24.4791C4.03427 24.4791 3.11917 24.4911 3.11917 24.4911C3.02937 24.4911 2.79087 24.4867 2.77197 24.5436C2.75617 24.5911 2.78397 24.5822 2.80037 24.6366C2.80927 24.6651 2.81747 24.7068 2.81747 24.7068C2.81747 24.7068 2.82377 24.6094 2.89337 24.5569C2.95787 24.5082 3.06537 24.5114 3.11917 24.5114C3.11917 24.5114 4.19427 24.5025 4.32197 24.5025C4.36437 24.5025 4.40237 24.4753 4.41177 24.4526C4.42197 24.4279 4.40487 24.4077 4.42257 24.3956C4.44977 24.3767 4.56167 24.3577 4.52947 24.3248C4.49717 24.2919 4.25247 24.1585 4.28347 24.1281C4.29797 24.1142 4.36877 24.1047 4.36877 24.1047C4.18037 24.0567 3.71867 24.0858 3.72307 23.8657C3.72497 23.7721 3.77117 23.5229 3.81857 23.3186C3.86607 23.1144 4.02287 22.857 4.27707 22.807C4.37767 22.7874 4.50417 22.7526 4.50417 22.7526C4.50417 22.7526 4.13357 22.7564 4.04947 22.7558C3.96537 22.7551 3.96407 22.7488 3.96977 22.7273C3.97547 22.7058 3.98687 22.6609 3.95837 22.6578C3.92987 22.6546 3.88567 22.6552 3.88687 22.6831C3.88817 22.7109 3.89197 22.7058 3.89197 22.7172C3.89197 22.7248 3.87047 22.7425 3.88947 22.7551C3.90457 22.7659 4.08167 22.7691 4.14497 22.7703L4.14557 22.7691ZM3.81927 23.053C3.75667 23.1669 3.61877 23.748 3.61247 23.8745C3.60737 23.9764 3.66367 24.0137 3.74397 24.0573C3.58457 24.0484 3.50307 23.9953 3.54157 23.8334C3.57697 23.6848 3.68007 23.182 3.74717 23.0587C3.79267 22.9752 3.90777 22.8639 4.00327 22.8399C3.94007 22.905 3.86097 22.9758 3.81927 23.053ZM4.19107 5.21431C4.27137 4.36371 4.20117 3.72941 3.96407 2.94391C3.91917 2.97051 3.88187 2.99391 3.85147 3.01921C4.03867 3.49161 4.11587 4.01901 4.12277 4.49271C4.13227 5.13901 4.02477 5.72781 4.01907 5.87521C4.01657 5.95301 4.03547 5.97451 4.18917 5.95041C4.08547 5.94661 4.15877 5.55901 4.19107 5.21431ZM3.14637 0C2.60627 0.22514 2.04907 0.61091 2.02697 0.70321C2.01687 0.74501 1.96247 0.78931 1.94097 0.80891C1.93087 0.81831 1.88217 0.86961 1.93337 0.76591C1.84227 0.85191 1.83727 0.931511 1.81887 0.953711C1.74177 1.04411 1.68987 1.21681 1.66707 1.25911C1.64497 1.03591 1.75757 0.860111 1.86627 0.730411C1.71007 0.839811 1.58427 0.982811 1.45147 1.20791C1.43567 1.23511 1.39267 1.26611 1.39767 1.20481C1.39957 1.17951 1.40017 1.17571 1.40147 1.16051C1.40277 1.15541 1.41037 1.12891 1.41227 1.12381C1.51157 0.781711 1.84927 0.37561 2.50257 0.03162C2.33997 0.15621 1.91567 0.42561 1.89537 0.57361C1.89287 0.59321 1.95047 0.56471 1.96367 0.55651C2.10407 0.47051 2.31217 0.36241 2.47347 0.27447C2.62207 0.19289 2.86617 0.08158 3.14637 0ZM1.85687 0.519811C1.77207 0.590011 1.65007 0.739311 1.68037 0.78231C1.70057 0.810111 1.80497 0.71781 1.83657 0.67541C1.83657 0.67541 1.78977 0.70391 1.77717 0.69631C1.75117 0.67981 1.83027 0.567911 1.85687 0.519811ZM1.47927 4.21441C1.45527 4.25621 1.43567 4.30361 1.40527 4.33781C1.39837 4.32701 1.39197 4.31181 1.39197 4.31181C1.39197 4.31181 1.16307 4.45291 1.05677 4.62551C0.989771 4.73431 0.957522 4.88171 0.949302 4.98661C0.949302 4.98661 0.925272 4.90001 0.929702 4.81901C0.911992 4.86901 0.893651 5.00241 0.894281 5.05811C0.782341 5.17131 0.748191 5.33951 0.737441 5.44201C0.719731 5.60891 0.756411 5.67411 0.769061 5.72661C0.758311 5.74811 0.723531 5.80691 0.715941 5.87331C0.700761 6.00291 0.693172 6.27171 0.750722 6.33941C0.724792 6.41211 0.739342 6.51771 0.743772 6.56261C0.812702 6.52531 0.852542 6.60881 0.860762 6.67081C0.884162 6.85861 0.870252 7.22981 0.858232 7.43981C0.875942 7.42211 0.884802 7.41321 0.898082 7.40191C0.904402 7.17101 0.922742 6.90161 0.903142 6.67141C0.897442 6.60631 0.868981 6.55381 0.860131 6.52851C0.844321 6.48041 0.839891 6.40201 0.839261 6.37991C0.808271 6.36471 0.767801 6.34571 0.765271 6.28371C0.762741 6.22871 0.784242 6.20971 0.812072 6.20091C0.793732 6.12371 0.806381 5.98331 0.822191 5.88211C0.828511 5.84171 0.840532 5.75821 0.876572 5.77341C0.865192 5.73101 0.812701 5.54061 0.839891 5.40341C0.867091 5.26621 0.868351 5.22891 0.953101 5.11821C0.969571 5.12641 0.986571 5.14031 0.986571 5.12641C0.988471 5.03471 0.986572 4.93791 1.00247 4.85381C1.04547 4.62171 1.23077 4.47561 1.29777 4.41681C1.36477 4.35801 1.40147 4.34161 1.40147 4.34161C1.40147 4.34161 1.41227 4.36751 1.42297 4.37261C1.46477 4.32391 1.46097 4.25111 1.52857 4.18791C1.63607 4.08671 1.81127 4.03291 1.92827 3.98111C1.99977 3.94951 2.06807 3.94951 2.08637 3.95011C2.08637 3.95891 2.08637 3.99821 2.08827 4.00451C2.09457 4.02281 2.16227 3.93181 2.22427 3.89191C2.28627 3.85211 2.36277 3.82301 2.36787 3.81541C2.32477 3.81921 2.24067 3.84321 2.16737 3.91531C2.12627 3.95581 2.10157 3.98051 2.10157 3.98051C2.10157 3.98051 2.10027 3.93811 2.09837 3.93741C2.08897 3.93491 2.00477 3.92671 1.93587 3.95831C1.84667 3.99881 1.55197 4.09051 1.48177 4.21381L1.47927 4.21441ZM3.90457 22.174C3.91477 22.1303 3.97167 22.0759 4.08297 22.0664C4.04817 22.0879 3.96907 22.1132 3.95897 22.1834C4.00517 22.1328 4.06777 22.0949 4.12597 22.0791C4.18417 22.0633 4.36627 22.0184 4.41557 22.0203C4.42387 22.0203 4.40487 22.0007 4.42577 21.9684C4.44467 21.9387 4.53957 21.9172 4.50157 21.8849C4.45667 21.847 4.27777 21.8653 4.18917 21.8622C4.18287 21.8622 4.10887 21.8584 4.09937 21.8514C4.07407 21.8318 4.10697 21.8147 4.10697 21.7774C4.10697 21.7528 4.08547 21.3923 4.07157 21.2867C4.05517 21.4359 4.00647 21.6383 4.02917 21.7622C4.03927 21.816 3.98877 21.8312 4.00577 21.8584C4.02857 21.8944 4.25877 21.8906 4.25877 21.8906C4.20757 21.9077 4.22717 21.9804 4.22147 21.9874C4.20307 22.0127 3.88877 22.0304 3.82497 22.1328C3.77687 22.21 3.81417 22.4155 3.91287 22.4794C3.89957 22.3928 3.88937 22.2385 3.90457 22.174ZM2.88447 0.54261C2.83017 0.55721 2.76367 0.55151 2.71127 0.55021C2.65237 0.57301 2.45257 0.66911 2.43047 0.68431C2.43617 0.73801 2.52717 0.807011 2.58287 0.781711C2.63277 0.758911 2.85287 0.65141 3.07807 0.54701C3.24437 0.47051 3.49097 0.387011 3.62637 0.329491C3.40497 0.357911 3.10267 0.48441 2.88447 0.54261ZM3.90147 1.97191C2.68787 2.25461 2.20597 2.76371 2.10287 2.86421C2.08007 2.79591 2.15157 2.67391 2.15157 2.67391C2.15157 2.67391 2.09837 2.69161 2.09017 2.67131C2.07057 2.62261 2.09967 2.54361 2.09587 2.46711C2.08897 2.28681 2.07687 2.06111 2.04147 1.90801C2.02067 1.81951 1.96367 1.82521 1.94727 1.76511C1.92707 1.69361 2.02567 1.53111 2.02507 1.50391C2.02257 1.41221 1.79107 1.60511 1.74807 1.60511C1.72777 1.60511 1.75947 1.56711 1.75757 1.55571C1.75567 1.54371 1.74047 1.54881 1.73797 1.53231C1.73097 1.48681 1.96177 1.18701 2.13067 1.05491C2.09837 1.01251 2.07247 0.985911 2.06677 0.915111C2.03897 0.934111 2.00097 0.96191 2.00097 0.96191C2.00037 0.92841 2.00547 0.871511 2.00547 0.871511C2.00547 0.871511 2.08957 0.75641 2.12497 0.69441C2.13067 0.75571 2.12627 0.822111 2.12687 0.870811C2.18567 0.825911 2.31277 0.74811 2.36717 0.71911C2.40137 0.786111 2.42597 0.81461 2.51077 0.82091C2.38867 0.88601 2.24387 0.99161 2.16357 1.05041C2.10917 1.09031 2.11677 1.13271 2.13887 1.13521C2.22297 1.14471 2.53287 0.97831 2.59677 1.03021C2.63087 1.05801 2.51517 1.12511 2.41337 1.23701C2.22937 1.43871 2.36717 1.39571 2.41907 1.56331C2.45887 1.68981 2.46077 2.02061 2.44817 2.15841C2.44307 2.21351 2.37287 2.33491 2.42477 2.37351C2.47027 2.40701 2.86617 2.22671 2.94337 2.20081C3.18487 2.11921 3.68267 1.97501 3.90147 1.97191ZM2.31347 1.61141C2.28877 1.52921 2.19957 1.50071 2.22677 1.43811C2.15597 1.45961 2.14137 1.54691 2.17877 1.57161C2.20847 1.59181 2.24387 1.64561 2.26027 1.72141C2.29387 1.87891 2.30707 2.24191 2.27737 2.35261C2.24137 2.48411 2.26217 2.51831 2.32547 2.42091C2.30647 2.36971 2.34377 2.31781 2.35327 2.22611C2.37537 2.01491 2.36217 1.77201 2.31347 1.61141ZM4.29357 1.94471C4.22777 2.00981 4.22337 2.03071 4.22207 2.05731C4.21577 2.18561 4.22077 2.68341 4.28537 2.74661C4.27017 2.76681 4.24607 2.79661 4.25117 2.79471C4.28907 2.78141 4.30047 2.77701 4.34537 2.76111C4.34987 2.71941 4.37577 2.70681 4.38837 2.69161C4.35997 2.63021 4.30997 2.47911 4.29547 2.40071C4.28157 2.32791 4.25557 2.07431 4.27207 2.02061C4.27587 2.00791 4.32077 1.96561 4.32457 1.94151C4.32707 1.92571 4.30937 1.91751 4.26257 1.93271C4.27327 1.93391 4.28417 1.93651 4.29357 1.94471ZM4.10067 2.10221C4.10067 2.07691 4.10827 2.02311 4.18227 1.96371C4.16707 1.96491 4.15377 1.96871 4.13357 1.97311C4.09437 1.99721 4.04057 2.06291 4.03677 2.09581C4.02477 2.20841 4.03547 2.60051 4.03547 2.71121C4.03547 2.76621 4.03997 2.85411 4.10067 2.85411L4.18727 2.81871C4.10067 2.82311 4.10447 2.73141 4.10197 2.61191C4.09817 2.44051 4.10067 2.28561 4.10067 2.10221ZM3.20517 4.51421C3.17737 4.49331 3.12737 4.51861 3.13307 4.53821C3.29747 4.62551 3.38667 4.72921 3.44737 4.81461C3.60167 5.03031 3.59597 5.29081 3.64527 5.37051C3.66807 5.40721 3.67887 5.36801 3.68577 5.34841C3.70287 5.30221 3.74967 5.22701 3.74147 5.16811C3.73767 5.14031 3.68387 5.30661 3.66117 5.31421C3.65097 5.31741 3.63587 5.19911 3.62447 5.11441C3.58907 4.85381 3.40507 4.66471 3.20517 4.51421ZM4.06207 25.2646C3.63017 25.2943 2.96487 25.5182 2.34067 26.0501C2.39127 25.9444 2.52907 25.8129 2.54867 25.7901C2.65497 25.6662 2.80547 25.5625 2.94077 25.4682C3.01917 25.4138 3.11347 25.3696 3.20387 25.3272C3.20447 25.2918 3.08187 25.3228 3.06157 25.3272C2.87567 25.3652 2.52657 25.6289 2.34637 25.8369C2.29827 25.8926 2.08387 26.1974 2.06047 26.2461C2.03957 26.2904 2.29767 26.3264 2.42787 26.3441C2.61067 26.3688 3.15707 26.4036 3.70417 26.4245C3.79517 26.4282 3.91597 26.4339 3.96537 26.4396C4.00267 26.4441 3.98047 26.451 3.96657 26.451C3.37967 26.4599 2.79217 26.4415 2.20527 26.4592C2.08577 26.463 1.72337 26.5035 1.70887 26.4687C1.69367 26.4327 1.85687 26.415 1.87897 26.4124C2.09277 26.3922 2.29577 26.396 2.51007 26.3966L2.00857 26.3201C1.83467 26.279 1.89347 26.2202 1.94857 26.1196C2.14327 25.7629 2.42347 25.4771 2.66377 25.3468C3.02107 25.152 3.56437 25.1141 3.78127 25.1046C3.58017 25.1033 3.43287 25.0964 3.30697 25.0919C3.11407 25.0863 2.92307 25.0666 2.92497 25.0413C2.92627 25.0249 3.02997 25.0154 3.02997 25.0154C3.02997 25.0154 2.93767 25.0085 2.84407 24.9927C2.74977 24.9775 2.74977 24.949 2.77007 24.9155C2.78967 24.8832 2.80987 24.7998 2.81937 24.7783C2.81617 24.8953 2.86867 24.9515 2.93197 24.9749C2.99077 24.9971 3.53527 24.9939 3.75287 25.0097C3.73137 25.0211 3.69147 25.0413 3.69147 25.0413C3.69147 25.0413 3.22537 25.0432 3.41767 25.0704C3.50867 25.0837 3.85847 25.0926 4.00457 25.0964C4.15057 25.1002 4.26887 25.1021 4.34347 25.1052C4.18727 25.1425 4.04187 25.1628 4.06207 25.2646ZM3.34177 25.0799C3.34177 25.0799 3.22097 25.0685 3.22537 25.0515C3.22917 25.0369 3.34937 25.0306 3.39427 25.0198C3.33097 25.0091 3.23927 25.0255 3.20707 25.03C3.16977 25.035 3.09507 25.0382 3.11157 25.054C3.13247 25.0749 3.34177 25.0799 3.34177 25.0799Z" fill="#EAEEF6"/>
</svg>
