<svg width="6" height="1" viewBox="0 0 6 1" fill="none" xmlns="http://www.w3.org/2000/svg">
<path d="M1.59585 0.0917009C1.9791 0.0335181 2.40219 0.000632421 2.86829 0C2.89548 0 2.92267 0 2.94987 0C3.38687 0.00252969 3.78656 0.0341504 4.1502 0.0885386C4.17297 0.0917007 4.1951 0.0954955 4.21787 0.0986576C4.27416 0.107511 4.32918 0.116366 4.38357 0.126484C4.39938 0.129646 4.41455 0.132176 4.42973 0.135338C4.43037 0.135338 4.431 0.135338 4.43163 0.135338C5.24745 0.356686 5.73315 0.643805 4.64792 0.424987C4.591 0.412339 4.53408 0.400955 4.47653 0.390204C4.40317 0.376291 4.32981 0.363642 4.25582 0.352258C2.90876 0.139765 1.45862 0.250439 0.239941 0.662145C-0.0636216 0.764598 -0.0806968 0.706415 0.197569 0.546412C0.581448 0.326962 1.1032 0.184034 1.59585 0.0917009Z" fill="url(#paint0_linear_1587_25642)"/>
<defs>
<linearGradient id="paint0_linear_1587_25642" x1="-0.000379343" y1="0.356686" x2="5.27655" y2="0.356686" gradientUnits="userSpaceOnUse">
<stop offset="0.16" stop-color="#F2F6FC"/>
<stop offset="0.49" stop-color="#F7FAFE"/>
</linearGradient>
</defs>
</svg>
