<svg width="1" height="3" viewBox="0 0 1 3" fill="none" xmlns="http://www.w3.org/2000/svg">
<path d="M0.203488 0.00126652C0.203488 0.00126652 0.200325 0.00189846 0.19906 0.0025311C0.191468 0.00442902 0.182611 0.00949076 0.172489 0.0189804C0.0567156 0.11957 -0.00275302 0.337198 0.00989978 0.61556C0.0136956 0.700966 0.0219204 0.860391 0.0301447 1.02424C0.0415323 1.24314 0.05292 1.47026 0.0560832 1.54111C0.0605117 1.66574 0.0921432 2.72478 0.0921432 2.83866H0.0839186C0.0832859 2.72352 0.0522871 1.66574 0.0478586 1.54111C0.0446954 1.47026 0.0333076 1.24314 0.0219201 1.02424C0.0136958 0.860391 0.00547196 0.700966 0.00167612 0.61556C-0.0109767 0.337198 0.0484913 0.11957 0.163632 0.0189804C0.176285 0.00759284 0.186406 0.0025318 0.194631 0.00126652C0.195263 0.00126652 0.195896 0.0012659 0.197162 0.000633258C0.197794 6.17827e-07 0.198427 0 0.19906 0C0.200325 0 0.202222 0.000633876 0.203488 0.00126652Z" fill="url(#paint0_linear_1587_25833)"/>
<defs>
<linearGradient id="paint0_linear_1587_25833" x1="-0.000221805" y1="1.41964" x2="0.203488" y2="1.41964" gradientUnits="userSpaceOnUse">
<stop stop-color="#C6D4EA"/>
<stop offset="1" stop-color="#6476A0"/>
</linearGradient>
</defs>
</svg>
