<svg width="2" height="2" viewBox="0 0 2 2" fill="none" xmlns="http://www.w3.org/2000/svg">
<path d="M0.556601 1.3978C0.566201 1.3978 0.572101 1.3963 0.575701 1.3934C0.578701 1.3904 0.5809 1.3831 0.5809 1.372V0.1353H0.9949C1.0051 0.1353 1.0125 0.1338 1.0154 0.1301C1.0184 0.1272 1.0206 0.119799 1.0206 0.109499V0.0278988C1.0206 0.0175988 1.0184 0.00949943 1.0154 0.00589943C1.0118 0.00219943 1.0051 0 0.9949 0H0.0235004C0.0125004 0 0.00590025 0.00219943 0.00440025 0.00589943C0.000700253 0.0102994 0 0.0175988 0 0.0278988V0.109499C0 0.119799 0.000700253 0.1272 0.00440025 0.1301C0.00660025 0.1338 0.0125004 0.1353 0.0235004 0.1353H0.4235V1.372C0.4235 1.3823 0.425 1.3897 0.428699 1.3934C0.4331 1.3963 0.440401 1.3978 0.450701 1.3978H0.556601Z" fill="white"/>
</svg>
