<svg width="26" height="5" viewBox="0 0 26 5" fill="none" xmlns="http://www.w3.org/2000/svg">
<path d="M14.9095 3.02375H15.8537V3.35277C15.6236 3.60873 15.2566 3.80482 14.804 3.80482C14.0103 3.80482 13.4133 3.33904 13.4133 2.37451C13.4133 1.40999 14.062 0.944202 14.6848 0.944202C15.2484 0.944202 15.6126 1.21225 15.7664 1.71044L16.7776 1.43635C16.5414 0.577285 15.8729 0 14.6986 0C13.4391 0 12.3636 0.904654 12.3636 2.37451C12.3636 3.84437 13.4254 4.74902 14.7107 4.74902C15.7081 4.74902 16.325 4.35629 16.8309 3.73946V2.20424H14.4366L14.9089 3.02375H14.9095ZM1.03923 0.0944736H0V4.64082H2.67771L3.21765 3.7054H1.03923V0.0944736ZM4.89788 2.81558H6.1288L6.66874 1.88016H4.89788V1.02934H6.46221L7.00215 0.0939237H3.85865V4.64027H6.51384L7.05378 3.70486H4.89733V2.81503L4.89788 2.81558ZM23.4568 3.7054V2.81558H24.6877L25.2276 1.88016H23.4568V1.02934H25.0211L25.561 0.0939237H22.4175V4.64027H25.0727L25.6127 3.70486H23.4562L23.4568 3.7054ZM20.483 2.82547C20.483 3.43681 20.171 3.81361 19.5992 3.81361C19.0274 3.81361 18.7154 3.43626 18.7154 2.82547V0.0944736H17.6756V2.88424C17.6756 4.15196 18.5528 4.75012 19.5992 4.75012C20.6456 4.75012 21.5228 4.15196 21.5228 2.88424V0.0944736H20.483V2.82547ZM9.24209 0.0944736L7.39762 4.64082H8.57307L9.79411 1.44514L10.395 3.07923H9.31294L9.85288 4.01464H10.7526L11.0151 4.64082H12.1906L10.3461 0.0944736H9.24209Z" fill="white"/>
</svg>
