<svg width="7" height="16" viewBox="0 0 7 16" fill="none" xmlns="http://www.w3.org/2000/svg">
<path d="M5.10082 11.6975C4.55504 12.894 4.56706 14.6224 4.5367 15.5495C4.32864 15.5483 4.06049 15.5464 3.79108 15.5432C3.47613 15.5394 2.77478 15.5489 2.71154 15.5464C2.61857 15.5426 2.60529 15.5211 2.5996 15.473C2.58505 15.3529 2.66031 13.7623 1.93998 12.1832C1.49033 11.1978 0.951507 10.523 0.528417 9.15639C-0.126772 7.04094 -0.0325408 3.02 0.0382904 2.3294C0.122402 1.50219 0.278611 0.399247 2.71343 0.0425611C3.03534 -0.00487047 3.68167 -0.0409186 4.30334 -0.00992996C4.31409 -0.00866511 4.32358 -0.00676773 4.33306 -0.00487047C5.90779 0.243671 6.11523 1.27578 6.23223 1.75642C6.53579 2.99976 6.65974 8.28238 5.10082 11.6987V11.6975Z" fill="url(#paint0_linear_3091_43898)"/>
<defs>
<linearGradient id="paint0_linear_3091_43898" x1="-0.0116709" y1="7.76379" x2="6.42069" y2="7.76379" gradientUnits="userSpaceOnUse">
<stop offset="0.16" stop-color="#CBD9F2"/>
<stop offset="0.52" stop-color="#E0E9F9"/>
</linearGradient>
</defs>
</svg>
