<svg width="2" height="1" viewBox="0 0 2 1" fill="none" xmlns="http://www.w3.org/2000/svg">
<path d="M0.00141698 0.121467C-0.014399 0.118936 0.103905 0.0917325 0.270289 0.0619985C0.276615 0.0607332 0.283575 0.0601003 0.290534 0.0588351C0.528407 0.0253051 0.818156 0 1.19964 0C1.37551 0 1.5419 0.00442813 1.71081 0.0164483C1.79242 0.0221421 1.89681 0.0328967 1.9974 0.0468148C1.93919 0.173975 2.09862 0.637701 1.89997 0.874308C1.89491 0.873676 1.89048 0.873043 1.88415 0.871778C1.86391 0.867982 1.69879 0.828126 1.2977 0.822432C1.28125 0.822432 1.26353 0.822432 1.24645 0.822432C1.22937 0.822432 1.20976 0.822432 1.19078 0.822432C0.701117 0.822432 0.426551 0.885696 0.222209 0.927451C0.200066 0.929981 0.201332 0.910369 0.208291 0.901512C0.224739 0.880635 0.24182 0.869247 0.24182 0.869247C0.24182 0.869247 0.225372 0.864819 0.220311 0.841412C0.214617 0.816739 0.236759 0.792065 0.236759 0.792065C0.236127 0.792065 0.228535 0.786371 0.209556 0.726271C0.177924 0.626313 0.139965 0.368196 0.142495 0.262545C0.145026 0.156894 0.202597 0.105651 0.202597 0.105651C0.202597 0.105651 0.0235594 0.126528 0.00141698 0.122099V0.121467Z" fill="url(#paint0_linear_1587_25481)"/>
<defs>
<linearGradient id="paint0_linear_1587_25481" x1="0.000151698" y1="0.463093" x2="2.00372" y2="0.463093" gradientUnits="userSpaceOnUse">
<stop offset="0.16" stop-color="#B6C6DC"/>
<stop offset="0.49" stop-color="#C1CDE1"/>
</linearGradient>
</defs>
</svg>
