<svg width="5" height="2" viewBox="0 0 5 2" fill="none" xmlns="http://www.w3.org/2000/svg">
<path d="M4.66562 0.393366C4.52965 0.38135 4.15969 0.309886 4.15653 0.367437C4.15463 0.410441 4.74784 0.528704 4.65234 0.626097C4.5208 0.76017 4.4759 1.01567 4.47084 1.21615C4.46135 1.54121 4.58657 1.60382 4.5404 1.67655C4.51195 1.72145 4.30072 1.69805 3.90672 1.66706C3.52474 1.60192 3.10797 1.55006 2.695 1.55006C2.18906 1.55006 1.59648 1.6209 1.1247 1.71702C0.657337 1.81315 0.260176 1.8979 0.224128 1.84288C0.178594 1.77268 0.302549 1.72651 0.293695 1.41409C0.288003 1.22121 0.298121 0.999226 0.167843 0.868947C0.0653904 0.765863 0.592198 0.580563 0.589669 0.52491C0.586507 0.462933 0.308873 0.521748 0.172902 0.533764C0.0970116 0.54072 -0.014294 0.572341 0.0015165 0.507834C0.625716 0.203007 1.68882 0 2.695 0C3.47351 0 4.23811 0.107512 4.88191 0.309254C4.88634 0.346567 4.73013 0.400323 4.66562 0.393998V0.393366Z" fill="url(#paint0_linear_3091_43962)"/>
<defs>
<linearGradient id="paint0_linear_3091_43962" x1="-0.000380774" y1="0.92966" x2="4.88191" y2="0.92966" gradientUnits="userSpaceOnUse">
<stop offset="0.16" stop-color="#E8EEF9"/>
<stop offset="0.49" stop-color="#F1F5FC"/>
</linearGradient>
</defs>
</svg>
