<svg width="6" height="1" viewBox="0 0 6 1" fill="none" xmlns="http://www.w3.org/2000/svg">
<path d="M1.59522 0.0917009C1.9791 0.0335181 2.40282 0.000632421 2.86955 0C2.89674 0 2.92394 0 2.95113 0C3.3894 0.00316211 3.78909 0.0347828 4.15336 0.0885386C4.17613 0.0917007 4.19827 0.0954955 4.22103 0.0986576C4.27732 0.107511 4.33297 0.116998 4.38736 0.127116C4.40317 0.130278 4.41835 0.132808 4.43416 0.13597C4.43479 0.13597 4.43542 0.13597 4.43606 0.13597C5.25757 0.358583 5.75592 0.651394 4.65361 0.426252C4.59669 0.413604 4.53914 0.40222 4.48222 0.391469C4.40886 0.377556 4.3355 0.364907 4.26151 0.353523C2.91255 0.139765 1.46051 0.250439 0.239941 0.662145C-0.0636216 0.764598 -0.0806968 0.706415 0.197569 0.546412C0.581448 0.326962 1.1032 0.184034 1.59585 0.0917009H1.59522Z" fill="url(#paint0_linear_3091_43997)"/>
<defs>
<linearGradient id="paint0_linear_3091_43997" x1="-0.00101176" y1="0.356686" x2="5.29046" y2="0.356686" gradientUnits="userSpaceOnUse">
<stop offset="0.16" stop-color="#F3F7FC"/>
<stop offset="0.49" stop-color="#F8FAFE"/>
</linearGradient>
</defs>
</svg>
