<svg width="3" height="4" viewBox="0 0 3 4" fill="none" xmlns="http://www.w3.org/2000/svg">
<path d="M2.03589 1.9915C1.99478 2.65744 2.0732 2.9338 1.99162 3.12732C1.81201 3.0995 1.57106 3.0742 1.25485 3.0742C0.809621 3.0742 0.590171 3.10898 0.43839 3.13744C0.307479 3.15072 0.267004 3.09381 0.261945 3.02045C0.249296 2.8421 0.270798 2.52589 0.274593 2.32858C0.285344 1.76572 0.232221 1.37994 0.15886 0.965076C0.0627316 0.418664 -0.0327638 0.216288 0.0108733 0.197948C0.428271 0.0240323 0.927252 0 1.24599 0C1.5445 0 1.886 0.00316215 2.35589 0.149252C2.17375 0.871477 2.06877 1.43813 2.03589 1.9915Z" fill="url(#paint0_linear_3091_43907)"/>
<defs>
<linearGradient id="paint0_linear_3091_43907" x1="-0.000510303" y1="1.56967" x2="2.35526" y2="1.56967" gradientUnits="userSpaceOnUse">
<stop offset="0.16" stop-color="#FBFCFE"/>
<stop offset="0.49" stop-color="#FCFDFF"/>
</linearGradient>
</defs>
</svg>
