<svg width="3" height="4" viewBox="0 0 3 4" fill="none" xmlns="http://www.w3.org/2000/svg">
<path d="M1.8873 2.0731C1.8772 2.5936 1.9341 2.9382 1.8563 3.1102C1.6811 3.0881 1.5053 3.0742 1.2548 3.0742C0.8096 3.0742 0.5902 3.109 0.4384 3.1374C0.3075 3.1507 0.267 3.0938 0.2619 3.0204C0.2493 2.8421 0.2708 2.5259 0.2746 2.3286C0.2853 1.7657 0.232199 1.3799 0.1589 0.965099C0.0626995 0.418699 -0.0328003 0.2163 0.0108997 0.1979C0.4283 0.0239998 0.9273 0 1.246 0C1.4964 0 1.7785 0.0018996 2.1421 0.0916996C1.991 1.0055 1.9012 1.3534 1.8873 2.0731Z" fill="url(#paint0_linear_1591_39900)"/>
<defs>
<linearGradient id="paint0_linear_1591_39900" x1="-0.000500279" y1="1.5697" x2="2.1415" y2="1.5697" gradientUnits="userSpaceOnUse">
<stop offset="0.16" stop-color="#D2DEF4"/>
<stop offset="0.49" stop-color="#E4ECFA"/>
</linearGradient>
</defs>
</svg>
