<svg width="3" height="1" viewBox="0 0 3 1" fill="none" xmlns="http://www.w3.org/2000/svg">
<path d="M0.00141432 0.1215C-0.0143857 0.119 0.103914 0.0918003 0.270214 0.0620003C0.276614 0.0608003 0.283514 0.0600999 0.290514 0.0588999C0.528414 0.0252999 0.818114 0 1.19961 0C1.38431 0 1.55771 0.00570019 1.73041 0.0184002C1.81071 0.0241002 1.92331 0.0367 2.02771 0.0513C1.97081 0.1854 2.13151 0.6124 1.92711 0.8794C1.92211 0.8788 1.91761 0.8781 1.91131 0.8769C1.88161 0.8712 1.69181 0.8282 1.30211 0.8225C1.28441 0.8225 1.26671 0.8225 1.24831 0.8218C1.23001 0.8212 1.21031 0.8218 1.19071 0.8218C0.701114 0.8218 0.426514 0.8851 0.222214 0.9269C0.200014 0.9294 0.201314 0.9098 0.208214 0.9009C0.224714 0.88 0.241814 0.8686 0.241814 0.8686C0.241814 0.8686 0.225314 0.8642 0.220314 0.8408C0.214614 0.8161 0.237314 0.7908 0.237314 0.7908C0.237314 0.7908 0.228514 0.7858 0.209514 0.7257C0.177914 0.6257 0.139914 0.3676 0.142514 0.2619C0.145014 0.1563 0.202614 0.1051 0.202614 0.1051C0.202614 0.1051 0.0235143 0.1259 0.00141432 0.1215Z" fill="url(#paint0_linear_1591_39804)"/>
<defs>
<linearGradient id="paint0_linear_1591_39804" x1="0.000114319" y1="0.4631" x2="2.03531" y2="0.4631" gradientUnits="userSpaceOnUse">
<stop offset="0.16" stop-color="#BFCEE1"/>
<stop offset="0.49" stop-color="#CAD4E5"/>
</linearGradient>
</defs>
</svg>
