<svg width="3" height="1" viewBox="0 0 3 1" fill="none" xmlns="http://www.w3.org/2000/svg">
<path d="M0.00141698 0.121467C-0.014399 0.118936 0.103905 0.0917325 0.270289 0.0619985C0.276615 0.0607332 0.283575 0.0601003 0.290534 0.0588351C0.528407 0.0253051 0.818156 0 1.19964 0C1.39765 0 1.58175 0.00695916 1.76016 0.0208772C1.83797 0.026571 1.9626 0.0411211 2.07395 0.0588351C2.01954 0.20371 2.18149 0.575069 1.96829 0.888226C1.96387 0.887594 1.95817 0.886329 1.95185 0.885696C1.90693 0.877472 1.68171 0.830023 1.30845 0.823064C1.29011 0.823064 1.27113 0.823065 1.25151 0.822432C1.2319 0.8218 1.21166 0.822432 1.19141 0.822432C0.701749 0.822432 0.427184 0.885696 0.222841 0.927451C0.200699 0.929981 0.201964 0.910369 0.208923 0.901512C0.225371 0.880635 0.242453 0.869247 0.242453 0.869247C0.242453 0.869247 0.226004 0.864819 0.220943 0.841412C0.215249 0.816739 0.238657 0.790167 0.238657 0.790167C0.238024 0.790167 0.229168 0.786371 0.210188 0.726271C0.178556 0.626313 0.140598 0.368196 0.143129 0.262545C0.145659 0.156894 0.203229 0.105651 0.203229 0.105651C0.203229 0.105651 0.0241926 0.126528 0.00205024 0.122099L0.00141698 0.121467Z" fill="url(#paint0_linear_1587_25471)"/>
<defs>
<linearGradient id="paint0_linear_1587_25471" x1="0.000151698" y1="0.463093" x2="2.08217" y2="0.463093" gradientUnits="userSpaceOnUse">
<stop offset="0.16" stop-color="#CED9E8"/>
<stop offset="0.49" stop-color="#D6DEEB"/>
</linearGradient>
</defs>
</svg>
