<svg width="10" height="16" viewBox="0 0 10 16" fill="none" xmlns="http://www.w3.org/2000/svg">
<path d="M6.09858 0.00715966C5.33388 0.0439242 4.15521 0.507893 3.39859 1.07554C1.92139 2.18436 -0.810216 5.3417 0.230957 10.6667C0.426545 11.5777 0.524339 11.8858 0.636103 12.2417C0.668456 12.3454 0.701544 12.4512 0.739044 12.5777C0.978014 13.2858 1.27654 14.0137 1.62728 14.7402C1.71257 14.9159 1.80522 15.0917 1.90301 15.2659C1.81992 15.0953 1.74125 14.924 1.66919 14.752C1.35963 14.0071 1.10154 13.2645 0.901543 12.5446C0.871397 12.4167 0.844191 12.3093 0.81772 12.2034C0.725809 11.8424 0.644927 11.5292 0.500074 10.6093C-0.244776 5.24023 2.68021 2.18951 4.21844 1.16819C5.00668 0.645393 6.06844 0.188777 6.96402 0.207894C7.73755 0.224806 8.55299 0.454952 9.38387 0.876274C8.23608 0.216718 7.12211 -0.0428402 6.09932 0.00568904L6.09858 0.00715966Z" fill="url(#paint0_linear_3091_44435)"/>
<defs>
<linearGradient id="paint0_linear_3091_44435" x1="5.51403" y1="1.29613" x2="1.94786" y2="12.2152" gradientUnits="userSpaceOnUse">
<stop offset="0.18" stop-color="#EF807B"/>
<stop offset="1" stop-color="#EE9074"/>
</linearGradient>
</defs>
</svg>
