<svg width="2" height="3" viewBox="0 0 2 3" fill="none" xmlns="http://www.w3.org/2000/svg">
<path d="M1.02551 0C1.02551 0 1.02298 0.000631945 1.02108 0.00126459C0.997673 0.00885627 0.94896 0.0423865 0.850901 0.167649C0.738291 0.310626 0.632008 0.606701 0.537745 0.868614C0.510542 0.943898 0.485236 1.01475 0.461195 1.07802C0.352381 1.36081 0.0379587 2.2775 0.00822463 2.77033H0C0.0291014 2.2775 0.344156 1.36144 0.452971 1.07865C0.477011 1.01539 0.502317 0.944531 0.52952 0.869247C0.623151 0.607334 0.730068 0.311259 0.842045 0.168283C0.947063 0.0347954 0.995776 0.00505981 1.01729 0.000631327C1.01982 0.000631327 1.02108 0.000631327 1.02298 0.000631327C1.02424 0.000631327 1.02488 0.000631327 1.02551 0.000631327V0Z" fill="url(#paint0_linear_1587_25836)"/>
<defs>
<linearGradient id="paint0_linear_1587_25836" x1="0" y1="1.38485" x2="1.02551" y2="1.38485" gradientUnits="userSpaceOnUse">
<stop stop-color="#E3E9F5"/>
<stop offset="0.07" stop-color="#DDE4F2"/>
<stop offset="0.4" stop-color="#C6D3EA"/>
<stop offset="0.72" stop-color="#B8C8E4"/>
<stop offset="1" stop-color="#B4C5E3"/>
</linearGradient>
</defs>
</svg>
