<svg width="5" height="2" viewBox="0 0 5 2" fill="none" xmlns="http://www.w3.org/2000/svg">
<path d="M4.71116 0.410441C4.57519 0.398425 4.19004 0.318108 4.18815 0.375658C4.18688 0.416133 4.78831 0.537558 4.69282 0.634951C4.56127 0.769024 4.51637 1.02895 4.51131 1.22943C4.50183 1.55449 4.62705 1.6171 4.58088 1.68983C4.55305 1.73347 4.34499 1.70817 3.97186 1.67718C3.57154 1.60698 3.13137 1.55006 2.695 1.55006C2.18906 1.55006 1.59648 1.6209 1.1247 1.71702C0.657337 1.81315 0.260176 1.8979 0.224128 1.84288C0.178594 1.77268 0.302549 1.72651 0.293695 1.41409C0.288003 1.22121 0.298121 0.999225 0.167843 0.868946C0.0653904 0.765862 0.592198 0.580562 0.589669 0.524909C0.586507 0.462932 0.308873 0.521748 0.172902 0.533764C0.0970116 0.54072 -0.014294 0.572341 0.0015165 0.507834C0.625716 0.203007 1.68882 0 2.695 0C3.48742 0 4.26657 0.111306 4.91733 0.320005C4.91733 0.362377 4.77567 0.416133 4.71116 0.410441Z" fill="url(#paint0_linear_1587_25602)"/>
<defs>
<linearGradient id="paint0_linear_1587_25602" x1="-0.000380774" y1="0.930292" x2="4.91733" y2="0.930292" gradientUnits="userSpaceOnUse">
<stop offset="0.16" stop-color="#EEF2FB"/>
<stop offset="0.49" stop-color="#F5F8FD"/>
</linearGradient>
</defs>
</svg>
