<svg width="3" height="1" viewBox="0 0 3 1" fill="none" xmlns="http://www.w3.org/2000/svg">
<path d="M0.00141432 0.1215C-0.0143857 0.119 0.103914 0.0924003 0.270214 0.0620003C0.276614 0.0608003 0.283514 0.0600999 0.290514 0.0588999C0.528414 0.0252999 0.818114 0 1.19961 0C1.41281 0 1.61021 0.00890031 1.79431 0.0234003C1.86961 0.0291003 2.00871 0.0467997 2.12641 0.0664997C2.07391 0.2234 2.23841 0.5308 2.01511 0.897799C2.01061 0.897099 2.00491 0.8959 1.99801 0.8946C1.93601 0.8826 1.66841 0.8307 1.31541 0.8231C1.29581 0.8231 1.27491 0.8225 1.25461 0.8218C1.23441 0.8212 1.21291 0.8218 1.19071 0.8218C0.701114 0.8218 0.426514 0.8851 0.222214 0.9269C0.200014 0.9294 0.201314 0.9098 0.208214 0.9009C0.224714 0.88 0.241814 0.8686 0.241814 0.8686C0.241814 0.8686 0.225314 0.8642 0.220314 0.8408C0.214614 0.8161 0.238614 0.7883 0.238614 0.7883C0.238614 0.7883 0.228514 0.7858 0.209514 0.7257C0.177914 0.6257 0.139914 0.3676 0.142514 0.2619C0.145014 0.1563 0.202614 0.1051 0.202614 0.1051C0.202614 0.1051 0.0235143 0.1259 0.00141432 0.1215Z" fill="url(#paint0_linear_1591_39791)"/>
<defs>
<linearGradient id="paint0_linear_1591_39791" x1="0.000114319" y1="0.4631" x2="2.13651" y2="0.4631" gradientUnits="userSpaceOnUse">
<stop offset="0.16" stop-color="#DFE6F0"/>
<stop offset="0.49" stop-color="#E4E9F2"/>
</linearGradient>
</defs>
</svg>
