<svg width="2" height="2" viewBox="0 0 2 2" fill="none" xmlns="http://www.w3.org/2000/svg">
<path d="M1.1581 1.3956C1.1625 1.3986 1.1698 1.4 1.1801 1.4H1.2742C1.2838 1.4 1.2911 1.3986 1.2956 1.3956C1.3007 1.3927 1.3022 1.3853 1.3022 1.3743V0.0874996C1.3022 0.0610996 1.2963 0.0396996 1.2853 0.0242996C1.2735 0.00809962 1.2514 0 1.2169 0H1.1706C1.1456 0 1.1264 0.00439994 1.1132 0.0132999C1.0992 0.0220999 1.0867 0.0418997 1.0742 0.0720997C1.0661 0.0918997 1.0551 0.119901 1.0397 0.155901C1.0242 0.191901 1.0073 0.232401 0.9897 0.277201C0.9713 0.321401 0.952201 0.369101 0.931601 0.419901C0.911001 0.470601 0.8904 0.5199 0.8706 0.5669C0.8507 0.614 0.830899 0.6588 0.815399 0.7008C0.799199 0.7427 0.7845 0.778001 0.7728 0.805901C0.7669 0.817701 0.758799 0.8368 0.748499 0.864C0.738199 0.8905 0.7272 0.919101 0.7132 0.950001C0.7007 0.980901 0.6889 1.0096 0.6786 1.0361C0.6676 1.0625 0.6595 1.0816 0.6544 1.0934H0.646299C0.641099 1.0816 0.6331 1.0618 0.622 1.0338C0.6103 1.0059 0.5992 0.976501 0.5875 0.945601C0.5742 0.915501 0.562499 0.886101 0.550699 0.858101C0.539699 0.829401 0.5309 0.8096 0.5257 0.7978C0.5191 0.7831 0.508099 0.7559 0.491899 0.7162C0.475699 0.6758 0.456599 0.630201 0.435999 0.578001C0.414699 0.526501 0.391901 0.471301 0.368401 0.415501C0.345601 0.358801 0.324199 0.305901 0.304399 0.257401C0.285299 0.208901 0.266899 0.166901 0.252199 0.133101C0.238199 0.0993005 0.2294 0.0786997 0.2264 0.0720997C0.2147 0.0418997 0.2014 0.0220999 0.1889 0.0132999C0.1757 0.00439994 0.1573 0 0.1301 0H0.0844994C0.0491994 0 0.0271999 0.00809962 0.0160999 0.0242996C0.00589993 0.0404996 0 0.0610996 0 0.0874996V1.3743C0 1.3846 0.00219943 1.3919 0.00589943 1.3956C0.00949943 1.3986 0.0176007 1.4 0.0272007 1.4H0.118401C0.128601 1.4 0.136 1.3986 0.1397 1.3956C0.1441 1.3927 0.145599 1.3853 0.145599 1.3743V0.285301H0.156599L0.249199 0.5089C0.265399 0.5434 0.285999 0.590501 0.310999 0.650801C0.335999 0.710301 0.3625 0.772801 0.3904 0.838301C0.4176 0.903701 0.444099 0.966201 0.469099 1.0265C0.494799 1.0861 0.5147 1.1331 0.5301 1.1677C0.5404 1.1949 0.5514 1.2125 0.5639 1.2228C0.5764 1.2331 0.5956 1.2383 0.622 1.2383H0.675699C0.702899 1.2383 0.722 1.2331 0.7323 1.2228C0.7441 1.2125 0.7551 1.1949 0.7661 1.1677C0.7809 1.1346 0.800701 1.0883 0.826401 1.028C0.851401 0.9684 0.8779 0.9059 0.9044 0.8412C0.9316 0.7765 0.9573 0.714701 0.9823 0.655201C1.0073 0.596301 1.0264 0.5493 1.0404 0.5147L1.1404 0.2684H1.1507V1.3736C1.1507 1.3838 1.1522 1.3912 1.1559 1.3949L1.1581 1.3956Z" fill="white"/>
</svg>
