<svg width="1" height="1" viewBox="0 0 1 1" fill="none" xmlns="http://www.w3.org/2000/svg">
<path d="M0.0126536 0C0.0126536 0 0.0113864 0.00253041 0.0107538 0.00379569H0.0120203C0.440318 0.0708555 0.778148 0.136016 0.850902 0.275197C0.852167 0.273932 0.852799 0.272668 0.854064 0.27077C0.778147 0.131589 0.440318 0.0670598 0.0126536 0ZM0.00885596 0.0227741C0.00885596 0.0227741 0.0044284 0.0221422 0.00189784 0.0215095C0.0012652 0.0227748 0.00063264 0.0240399 0 0.0253052C0.0031632 0.0259379 0.00569276 0.0259372 0.00885596 0.0265698C0.348584 0.0797116 0.775617 0.149935 0.836984 0.296075C0.837616 0.29481 0.83888 0.293545 0.839513 0.292913C0.774351 0.14614 0.349217 0.0765491 0.00948922 0.0234074L0.00885596 0.0227741Z" fill="url(#paint0_linear_3091_44392)"/>
<defs>
<linearGradient id="paint0_linear_3091_44392" x1="0" y1="0.148038" x2="0.854064" y2="0.148038" gradientUnits="userSpaceOnUse">
<stop stop-color="#FC0064"/>
<stop offset="1" stop-color="#FD619F"/>
</linearGradient>
</defs>
</svg>
