<svg width="5" height="2" viewBox="0 0 5 2" fill="none" xmlns="http://www.w3.org/2000/svg">
<path d="M4.67701 0.398425C4.54104 0.386409 4.16728 0.312416 4.16475 0.369966C4.16285 0.412338 4.75796 0.531234 4.66246 0.628627C4.53092 0.7627 4.48602 1.01883 4.48096 1.21931C4.47147 1.54437 4.59669 1.60698 4.55052 1.67971C4.52206 1.72461 4.3121 1.70058 3.92316 1.66959C3.53675 1.60319 3.11366 1.55006 2.695 1.55006C2.18906 1.55006 1.59648 1.6209 1.1247 1.71702C0.657337 1.81315 0.260176 1.8979 0.224128 1.84288C0.178594 1.77268 0.302549 1.72651 0.293695 1.41409C0.288003 1.22121 0.298121 0.999225 0.167843 0.868946C0.0653904 0.765862 0.592198 0.580562 0.589669 0.524909C0.586507 0.462932 0.308873 0.521748 0.172902 0.533764C0.0970116 0.54072 -0.014294 0.572341 0.0015165 0.507834C0.625716 0.203007 1.68882 0 2.695 0C3.47667 0 4.24506 0.108144 4.89077 0.311783C4.89456 0.350361 4.74151 0.404117 4.67701 0.398425Z" fill="url(#paint0_linear_3091_43961)"/>
<defs>
<linearGradient id="paint0_linear_3091_43961" x1="-0.000380774" y1="0.930292" x2="4.89077" y2="0.930292" gradientUnits="userSpaceOnUse">
<stop offset="0.16" stop-color="#E9EFF9"/>
<stop offset="0.49" stop-color="#F2F6FD"/>
</linearGradient>
</defs>
</svg>
