<svg width="7" height="16" viewBox="0 0 7 16" fill="none" xmlns="http://www.w3.org/2000/svg">
<path d="M5.37846 11.8494C4.84912 13.0086 4.80106 14.6428 4.77007 15.5503C4.56516 15.5503 4.17939 15.5478 3.79108 15.5427C3.47613 15.5389 2.77478 15.5484 2.71154 15.5459C2.61857 15.5421 2.60529 15.5206 2.5996 15.4725C2.58505 15.3524 2.66031 13.7618 1.93998 12.1827C1.49033 11.1973 0.951507 10.5226 0.528417 9.15589C-0.126772 7.04044 -0.0325408 3.0195 0.0382904 2.3289C0.122402 1.50169 0.278611 0.39875 2.71343 0.0420639C3.12577 -0.0186486 4.07504 -0.060389 4.81371 0.0344742C4.96549 0.0566089 5.10715 0.0819065 5.23869 0.110366C7.23841 0.524602 6.90765 3.76892 6.88172 4.51708C6.77864 7.50464 6.29737 9.83764 5.37909 11.8494H5.37846Z" fill="url(#paint0_linear_1587_25514)"/>
<defs>
<linearGradient id="paint0_linear_1587_25514" x1="-0.0116709" y1="7.76456" x2="6.91714" y2="7.76456" gradientUnits="userSpaceOnUse">
<stop offset="0.16" stop-color="#F3F7FC"/>
<stop offset="0.52" stop-color="#F8FAFE"/>
</linearGradient>
</defs>
</svg>
