<svg width="5" height="2" viewBox="0 0 5 2" fill="none" xmlns="http://www.w3.org/2000/svg">
<path d="M4.80291 0.4427C4.66691 0.43 4.25141 0.3333 4.25081 0.3908C4.25081 0.4263 4.86801 0.5546 4.77251 0.652C4.64101 0.7861 4.59611 1.0555 4.59101 1.256C4.58151 1.5811 4.70672 1.6437 4.66061 1.7164C4.63461 1.7569 4.43161 1.729 4.10151 1.6981C3.66391 1.6171 3.17691 1.5501 2.69501 1.5501C2.18911 1.5501 1.59651 1.6209 1.12471 1.717C0.657314 1.8132 0.260215 1.8979 0.224115 1.8429C0.178615 1.7727 0.302615 1.7265 0.293715 1.4141C0.288015 1.2212 0.298115 0.9992 0.167915 0.8689C0.0654146 0.7659 0.592214 0.5806 0.589714 0.5249C0.586514 0.4629 0.308915 0.5217 0.172915 0.5338C0.0970147 0.5407 -0.0142854 0.5723 0.00151464 0.5078C0.625715 0.203 1.68881 0 2.69501 0C3.51591 0 4.32291 0.1189 4.98881 0.3421C4.97991 0.3953 4.86871 0.4491 4.80291 0.4427Z" fill="url(#paint0_linear_1591_39913)"/>
<defs>
<linearGradient id="paint0_linear_1591_39913" x1="0.000314643" y1="0.9297" x2="4.98941" y2="0.9297" gradientUnits="userSpaceOnUse">
<stop offset="0.16" stop-color="#F9FBFE"/>
<stop offset="0.49" stop-color="#FCFDFE"/>
</linearGradient>
</defs>
</svg>
