<svg width="3" height="4" viewBox="0 0 3 4" fill="none" xmlns="http://www.w3.org/2000/svg">
<path d="M1.898 2.0674C1.886 2.5986 1.9442 2.9376 1.8664 3.1115C1.6912 3.0887 1.5103 3.0742 1.2548 3.0742C0.8096 3.0742 0.5902 3.109 0.4384 3.1374C0.3075 3.1507 0.267 3.0938 0.2619 3.0204C0.2493 2.8421 0.2708 2.5259 0.2746 2.3286C0.2853 1.7657 0.232199 1.3799 0.1589 0.965099C0.0626995 0.418699 -0.0328003 0.2163 0.0108997 0.1979C0.4283 0.0239998 0.9273 0 1.246 0C1.4996 0 1.7861 0.00189999 2.1573 0.0955C2.0036 0.9954 1.9145 1.3598 1.898 2.0674Z" fill="url(#paint0_linear_1591_39898)"/>
<defs>
<linearGradient id="paint0_linear_1591_39898" x1="-0.000500279" y1="1.5697" x2="2.1567" y2="1.5697" gradientUnits="userSpaceOnUse">
<stop offset="0.16" stop-color="#D5E0F4"/>
<stop offset="0.49" stop-color="#E6EDFA"/>
</linearGradient>
</defs>
</svg>
