<svg width="3" height="4" viewBox="0 0 3 4" fill="none" xmlns="http://www.w3.org/2000/svg">
<path d="M2.41344 0.966973C2.34008 1.38247 2.28696 1.76762 2.29771 2.33047C2.3015 2.52779 2.32364 2.84463 2.31036 3.02234C2.3053 3.0957 2.26482 3.16274 2.13391 3.14946C1.97138 3.11974 1.62671 3.0742 1.25485 3.0742C0.809621 3.0742 0.590171 3.10898 0.43839 3.13744C0.307479 3.15072 0.267004 3.09381 0.261945 3.02045C0.248664 2.8421 0.270798 2.52589 0.274593 2.32858C0.285344 1.76572 0.232221 1.37994 0.15886 0.965076C0.0627316 0.418664 -0.0327638 0.216288 0.0108733 0.197948C0.428271 0.0240323 0.927252 0 1.24599 0C1.5894 0 1.99035 0.00442749 2.57597 0.223878C2.62088 0.240321 2.50957 0.420561 2.41344 0.966973Z" fill="white"/>
</svg>
