<svg width="3" height="4" viewBox="0 0 3 4" fill="none" xmlns="http://www.w3.org/2000/svg">
<path d="M1.89802 2.06739C1.886 2.59862 1.94419 2.9376 1.8664 3.11151C1.69122 3.08875 1.51034 3.0742 1.25485 3.0742C0.809621 3.0742 0.590171 3.10898 0.43839 3.13744C0.307479 3.15072 0.267004 3.09381 0.261945 3.02045C0.249296 2.8421 0.270798 2.52589 0.274593 2.32858C0.285344 1.76572 0.232221 1.37994 0.15886 0.965076C0.0627316 0.418664 -0.0327638 0.216288 0.0108733 0.197948C0.428271 0.0240323 0.927252 0 1.24599 0C1.49959 0 1.78608 0.00189788 2.15731 0.0954963C2.00363 0.995432 1.91446 1.35907 1.89802 2.06675V2.06739Z" fill="url(#paint0_linear_3091_43933)"/>
<defs>
<linearGradient id="paint0_linear_3091_43933" x1="-0.000510303" y1="1.56967" x2="2.15668" y2="1.56967" gradientUnits="userSpaceOnUse">
<stop offset="0.16" stop-color="#D5E0F4"/>
<stop offset="0.49" stop-color="#E6EDFA"/>
</linearGradient>
</defs>
</svg>
