<svg width="6" height="1" viewBox="0 0 6 1" fill="none" xmlns="http://www.w3.org/2000/svg">
<path d="M1.59585 0.0917009C1.97088 0.034783 2.38385 0.00189726 2.8373 0C2.86386 0 2.89042 0 2.91698 0C3.3426 0.00126484 3.73217 0.0303559 4.08886 0.0796847C4.11099 0.0828469 4.13313 0.0860095 4.15526 0.0891716C4.21028 0.0973931 4.26404 0.105614 4.31716 0.1151C4.33234 0.11763 4.34815 0.120792 4.3627 0.123322C4.36333 0.123322 4.36396 0.123322 4.36459 0.123322C5.09314 0.320637 5.39038 0.529337 4.55811 0.40728C4.50246 0.395264 4.44554 0.385144 4.38989 0.375025C4.31653 0.361745 4.2419 0.350361 4.16728 0.33961C2.84488 0.147986 1.43206 0.259925 0.239941 0.662145C-0.0636216 0.764598 -0.0806968 0.706415 0.197569 0.546412C0.581448 0.326962 1.1032 0.184034 1.59585 0.0917009Z" fill="url(#paint0_linear_3091_44013)"/>
<defs>
<linearGradient id="paint0_linear_3091_44013" x1="-0.000379343" y1="0.356686" x2="5.06089" y2="0.356686" gradientUnits="userSpaceOnUse">
<stop offset="0.16" stop-color="#DCE6F6"/>
<stop offset="0.49" stop-color="#EAF0FB"/>
</linearGradient>
</defs>
</svg>
