<svg width="3" height="4" viewBox="0 0 3 4" fill="none" xmlns="http://www.w3.org/2000/svg">
<path d="M0.188939 0.208853C0.228739 0.196253 0.308438 0.181652 0.369138 0.174752C0.441238 0.166452 0.634137 0.131752 0.713137 0.104552C0.753637 0.0906523 0.797939 0.0355524 0.807439 0.0147524C0.816939 -0.00614762 0.825739 -0.00364762 0.825139 0.0147524C0.825139 0.0147524 0.788438 0.105153 0.806138 0.113353C0.823838 0.121553 0.871939 0.0709524 0.917439 0.0653524C1.13054 0.0406524 1.26024 0.0779531 1.35124 0.0665531C1.41774 0.0589531 1.45884 0.0140524 1.45884 0.0140524C1.45884 0.0140524 1.49674 0.0185531 1.49674 0.0419531C1.49674 0.0653531 1.46514 0.0773523 1.42334 0.104552C1.37344 0.136752 1.25514 0.172853 1.10334 0.182353C1.03384 0.186753 0.949739 0.203153 0.923739 0.198153C0.897839 0.193053 0.883938 0.153852 0.851638 0.154452C0.819438 0.155152 0.787138 0.204452 0.716338 0.205752C0.326138 0.213252 0.176238 0.395453 0.00293805 0.678153C-0.00146195 0.609853 -0.00206198 0.509253 0.00923802 0.438453C0.032638 0.365053 0.145939 0.256953 0.190139 0.208253L0.188939 0.208853ZM1.41834 0.371353C1.56184 0.249953 1.57644 0.259453 1.84904 0.145653C1.98754 0.0880528 1.79714 0.0672529 1.67694 0.0621529C1.54164 0.0564529 1.39174 0.271452 1.33864 0.363153C1.32784 0.440352 1.36834 0.414453 1.41834 0.371353ZM2.12034 0.409953C2.10324 0.415653 2.08424 0.424553 2.06404 0.435253L2.06214 0.435953C1.98244 0.488353 1.91354 0.553553 1.84584 0.619953C1.83954 0.629453 1.83504 0.638253 1.83194 0.647153C1.81864 0.681953 1.85404 0.657853 1.91284 0.614253C1.97234 0.570653 2.04194 0.515553 2.14944 0.456153C2.25884 0.396053 2.20824 0.378953 2.12034 0.409953ZM0.937039 0.563653C0.887739 0.585753 0.816239 0.557952 0.767539 0.554752C0.767539 0.554752 0.842838 0.400453 0.882638 0.396653C0.911138 0.394153 0.940239 0.402353 0.945939 0.432753C0.951639 0.463053 0.957939 0.480853 0.980639 0.457453C1.00344 0.433353 1.05594 0.430253 1.09764 0.463053C1.12104 0.481453 1.16414 0.504853 1.15964 0.559253C1.09264 0.655353 0.985739 0.541553 0.937039 0.563653ZM1.82754 0.607253C1.79334 0.605353 1.70034 0.585153 1.56504 0.559853C1.41074 0.531353 1.33614 0.609152 1.22354 0.529552C1.20904 0.551652 1.19764 0.578153 1.18564 0.600953C1.17164 0.626853 1.15844 0.652153 1.14514 0.674353C1.14514 0.674353 1.25074 0.737552 1.36264 0.670552C1.42714 0.631352 1.70164 0.662953 1.75284 0.686953C1.75984 0.679353 1.80534 0.628753 1.82754 0.607253ZM2.45104 2.33565C2.43024 2.15735 2.63134 2.08655 2.57254 1.98975C2.52824 1.97835 2.48394 1.96695 2.43904 1.95495C2.42954 1.95245 2.42004 1.94995 2.41064 1.94735C2.40804 1.94675 2.40494 1.94675 2.40174 1.94615C2.37264 2.01445 2.37264 2.12255 2.37264 2.15545C2.37264 2.41345 2.43714 2.39005 2.45044 2.53555C2.42834 2.52605 2.40614 2.51845 2.38534 2.51155C2.36754 2.50515 2.34544 2.58745 2.36634 2.64745C2.42324 2.81445 2.41124 2.99085 2.38534 3.11235C2.40874 3.12875 2.43904 3.15025 2.43904 3.15025C2.45174 3.01555 2.49534 2.90865 2.46874 2.74805C2.45614 2.66965 2.56554 2.61145 2.53264 2.57605C2.55604 2.58805 2.57754 2.60005 2.58454 2.60635C2.60854 2.50515 2.45864 2.39265 2.45234 2.33635L2.45104 2.33565ZM2.43584 1.94925H2.44034C2.47824 1.95185 2.51624 1.95625 2.55354 1.96385C2.57124 1.95815 2.57754 1.94485 2.57314 1.93475C2.55984 1.90435 2.52574 1.90755 2.46564 1.81075C2.44914 1.78425 2.42004 1.68935 2.42574 1.60145C2.42954 1.54205 2.48834 1.55655 2.53134 1.46865C2.54084 1.44965 2.52884 1.41365 2.47064 1.41425C2.43714 1.41295 2.38914 1.41045 2.34164 1.41295C2.34414 1.41295 2.34674 1.41235 2.34924 1.41175C2.39224 1.40545 2.43524 1.40095 2.47824 1.39975C2.48454 1.39405 2.48644 1.38705 2.48454 1.37885C2.47384 1.33835 2.37074 1.35165 2.29364 1.22575C2.23924 1.13725 2.17534 1.06455 2.30494 0.999352C2.34414 0.979752 2.45424 0.908353 2.36314 0.896953C2.29044 0.913353 2.22084 0.937452 2.15324 0.968452C2.13234 0.976652 2.11144 0.986753 2.09124 0.996853C2.06654 1.03855 2.09694 1.07525 2.12034 1.12085C2.13174 1.14355 2.18294 1.22325 2.21074 1.26565C2.23854 1.30735 2.32524 1.36425 2.33534 1.38765C2.34104 1.40165 2.33724 1.40985 2.33534 1.41295C2.31384 1.41425 2.29234 1.41675 2.27334 1.42055C2.24494 1.44715 2.30184 1.50975 2.30304 1.53755C2.30434 1.57995 2.31514 1.61285 2.32204 1.67485C2.32904 1.74055 2.35244 1.78865 2.37644 1.82655C2.42764 1.90625 2.44724 1.91385 2.43584 1.94925ZM2.13044 0.957653C2.13614 0.955153 2.14184 0.951952 2.14754 0.949452C2.18414 0.930452 2.22274 0.914653 2.26264 0.902653C2.14754 0.763453 1.96914 0.910853 1.76554 0.697053C1.75474 0.707253 1.74404 0.717352 1.73324 0.726852C1.71364 0.743852 1.68264 0.770452 1.67444 0.778052L1.67194 0.780553C1.71624 0.772353 1.82684 0.925353 1.95844 0.929852C1.99634 0.931053 2.07794 0.924153 2.11274 0.941253C2.11844 0.944353 2.12474 0.950653 2.13044 0.957653Z" fill="#B6C8DB"/>
</svg>
