<svg width="6" height="2" viewBox="0 0 6 2" fill="none" xmlns="http://www.w3.org/2000/svg">
<path d="M3.98768 1.30342C3.98768 1.30342 4.25013 1.21109 4.23622 1.182C4.20523 1.11496 4.00729 1.06626 3.97883 1.03591C3.95037 1.00555 4.04144 0.947999 4.17108 0.943572C4.33045 0.937247 5.64209 0.918276 5.8704 0.937249C6.04242 0.951795 5.79957 0.99227 5.64146 1.00049C5.49348 1.00871 4.63465 1.02642 4.63465 1.02642C4.63465 1.02642 4.73394 1.0201 4.67133 1.08397C4.5948 1.16239 4.24444 1.27117 3.98642 1.30279M1.78243 1.18073C1.81089 1.11243 1.97531 1.06816 2.00377 1.03781C2.03223 1.00745 2.0101 0.947999 1.87982 0.943572C1.72045 0.937247 0.288014 0.918909 0.0590777 0.937249C-0.112941 0.951795 0.12991 0.99227 0.288015 1.00049C0.436002 1.00871 1.15759 1.03085 1.29483 1.02642C1.23791 1.03338 1.21767 1.03907 1.25815 1.08397C1.33088 1.16619 1.7293 1.28255 2.0082 1.30279C2.0082 1.30279 1.75966 1.23386 1.78243 1.1801V1.18073ZM3.95163 0C3.95163 0 4.05029 0.0126489 4.05155 0.0360485C4.05408 0.0727289 3.84412 0.235895 3.73471 0.242852V0.287122C3.73471 0.287122 3.80997 0.294076 3.86626 0.307989C3.92254 0.321902 3.91369 0.33898 3.90736 0.373763C3.90104 0.408546 4.02436 0.428151 4.16982 0.428151C4.24571 0.428151 4.71433 0.415501 4.71433 0.415501C4.71433 0.415501 4.55243 0.405383 4.52334 0.376925C4.5069 0.361114 4.52714 0.337713 4.51259 0.323799C4.48729 0.299767 4.38927 0.290916 4.38611 0.263089C4.38358 0.23716 4.48413 0.201112 4.51133 0.163799C4.54168 0.121427 4.43986 0.0777871 4.22168 0.0347824C4.12239 0.0151773 3.95163 0.000633039 3.95163 0.000633039V0ZM1.73563 0.0347824C1.51744 0.0777871 1.41499 0.121427 1.44598 0.163799C1.47317 0.201112 1.57373 0.237793 1.5712 0.263089C1.56804 0.290916 1.47001 0.299767 1.44471 0.323799C1.42954 0.338345 1.44977 0.361746 1.43396 0.376925C1.40487 0.404751 1.24297 0.415501 1.24297 0.415501C1.24297 0.415501 1.735 0.428151 1.81089 0.428151C1.95634 0.428151 2.11129 0.408546 2.10496 0.373763C2.09864 0.33898 2.08978 0.321902 2.14607 0.307989C2.20235 0.294076 2.27761 0.287122 2.27761 0.287122V0.242852C2.1682 0.235895 1.95824 0.0727289 1.96077 0.0360485C1.96203 0.0126489 2.05879 0.000633039 2.05879 0.000633039C2.05879 0.000633039 1.83555 0.0151773 1.73626 0.0347824H1.73563Z" fill="#8FA4BC"/>
</svg>
