<svg width="2" height="1" viewBox="0 0 2 1" fill="none" xmlns="http://www.w3.org/2000/svg">
<path d="M0.23367 0.0703334C0.23367 0.0703334 0.27477 0.114633 0.34127 0.122233C0.44567 0.134233 0.925169 0.141833 0.978969 0.160133C1.05807 0.187333 1.25097 0.222133 1.32307 0.230433C1.38387 0.237333 1.46797 0.241834 1.50337 0.264534C1.55717 0.298734 1.65647 0.429634 1.69387 0.494834C1.68557 0.396134 1.65717 0.280333 1.63307 0.200633C1.58877 0.053233 1.56347 0.0450334 1.56347 0.0450334C1.56347 0.0450334 0.677769 0.00893343 0.299469 0.000133433C0.172969 -0.00306657 -0.00793078 0.0520331 0.00026922 0.0855331C0.0786692 0.0709331 0.23367 0.0703334 0.23367 0.0703334Z" fill="#98ADBE"/>
</svg>
