<svg width="4" height="2" viewBox="0 0 4 2" fill="none" xmlns="http://www.w3.org/2000/svg">
<path d="M3.01925 0.958116C3.02494 1.268 2.49876 1.28634 2.39568 1.27812C2.20595 1.26484 1.85306 1.25409 1.45527 1.25409C1.05748 1.25409 0.783006 1.26358 0.624268 1.27623C0.519286 1.28445 -0.00688829 1.2718 6.83484e-05 0.958116C0.00323046 0.815821 0.0297914 0.553367 0.0664718 0.417397C0.125919 0.195417 0.440866 0.0505936 0.672965 0.00379437C0.93542 0.0145455 1.16625 0.0278228 1.45527 0.0278228C1.74429 0.0278228 2.04152 0.0088539 2.34509 0C2.57719 0.0467992 2.89403 0.195417 2.95348 0.417397C2.99016 0.553367 3.01672 0.815821 3.01925 0.958116Z" fill="url(#paint0_radial_3091_43853)"/>
<defs>
<radialGradient id="paint0_radial_3091_43853" cx="0" cy="0" r="1" gradientUnits="userSpaceOnUse" gradientTransform="translate(-0.00878569 0.780533) scale(2.7504 1.95278)">
<stop stop-color="#C8D7F1"/>
<stop offset="0.74" stop-color="#DEE8F9"/>
<stop offset="1" stop-color="white"/>
</radialGradient>
</defs>
</svg>
