<svg width="22" height="24" viewBox="0 0 22 24" fill="none" xmlns="http://www.w3.org/2000/svg">
<path d="M7.38185 21.1814L6.64746 23.1871H14.7548L14.0221 21.1814H7.38185ZM9.3954 14.5652C9.0324 12.2955 8.30025 9.64043 8.30025 9.64043C9.26228 15.5239 7.67773 20.2088 7.67773 20.2088H13.7251C10.9201 9.90666 13.0595 0.614692 13.1417 0.220372C12.6758 0.115779 11.7155 0.012305 11.0862 0.00335592C11.0208 8.78411 12.612 14.5652 12.612 14.5652H11.9649C10.5565 8.84228 10.4162 1.63992 10.4603 0C9.31877 0.00838979 8.41267 0.192406 8.41267 0.192406L11.3195 14.5652H10.6768C10.6768 14.5652 7.9434 1.0532 7.79518 0.32049C6.70955 0.578336 6.01599 0.907216 5.6748 1.07557C8.7712 6.71743 10.0364 14.5658 10.0364 14.5658H9.3954V14.5652ZM12.8643 11.6501C13.3168 6.28395 15.5518 1.48555 15.728 1.07557C14.9013 0.651607 13.9969 0.420608 13.6854 0.339507C12.5231 5.71289 12.8285 10.8021 12.8637 11.6501H12.8643Z" fill="white"/>
<path d="M1.94531 12.4727C1.94531 9.57323 3.36319 6.99925 5.54118 5.40519L4.9634 3.43862C1.97943 5.33807 0 8.67441 0 12.4733C0 16.4948 2.21882 19.9978 5.49811 21.8262L6.16538 19.9604C3.63725 18.4228 1.94587 15.6418 1.94587 12.4733L1.94531 12.4727ZM16.4401 3.43806L15.8623 5.40463C18.0403 6.99925 19.4582 9.57267 19.4582 12.4722C19.4582 15.6407 17.7662 18.4217 15.2387 19.9592L15.9059 21.8251C19.1858 19.9967 21.404 16.4937 21.404 12.4722C21.404 8.67329 19.424 5.33695 16.4406 3.4375L16.4401 3.43806Z" fill="#00BE14"/>
</svg>
