<svg width="3" height="4" viewBox="0 0 3 4" fill="none" xmlns="http://www.w3.org/2000/svg">
<path d="M1.9246 2.0528C1.9081 2.61 1.9689 2.937 1.8904 3.1147C1.714 3.0913 1.5224 3.0742 1.2548 3.0742C0.8096 3.0742 0.5902 3.109 0.4384 3.1374C0.3075 3.1507 0.267 3.0938 0.2619 3.0204C0.2493 2.8421 0.2708 2.5259 0.2746 2.3286C0.2853 1.7657 0.232199 1.3799 0.1589 0.965099C0.0626995 0.418699 -0.0328003 0.2163 0.0108997 0.1979C0.4283 0.0239998 0.9273 0 1.246 0C1.5085 0 1.8051 0.00249927 2.1953 0.106199C2.0359 0.971999 1.9448 1.3742 1.9246 2.0528Z" fill="url(#paint0_linear_1591_39893)"/>
<defs>
<linearGradient id="paint0_linear_1591_39893" x1="-0.000500279" y1="1.5697" x2="2.1953" y2="1.5697" gradientUnits="userSpaceOnUse">
<stop offset="0.16" stop-color="#DCE6F6"/>
<stop offset="0.49" stop-color="#EAF0FB"/>
</linearGradient>
</defs>
</svg>
