<svg width="6" height="1" viewBox="0 0 6 1" fill="none" xmlns="http://www.w3.org/2000/svg">
<path d="M1.59585 0.0917009C1.97594 0.0341506 2.39523 0.00126484 2.85564 0C2.88283 0 2.90939 0 2.93659 0C3.36916 0.00252969 3.76506 0.0322533 4.12554 0.0847442C4.14831 0.0879063 4.17044 0.0910687 4.19257 0.0948632C4.24823 0.103085 4.30325 0.112571 4.357 0.122057C4.37282 0.124587 4.38799 0.127749 4.40317 0.130911C4.4038 0.130911 4.40444 0.130911 4.40507 0.130911C5.18611 0.342139 5.59592 0.59827 4.61187 0.418663C4.55558 0.406647 4.49867 0.395263 4.44175 0.385144C4.36839 0.371231 4.29439 0.359215 4.2204 0.347832C2.88283 0.14356 1.44787 0.254866 0.239941 0.662777C-0.0636216 0.76523 -0.0806968 0.707047 0.197569 0.547044C0.581448 0.327594 1.1032 0.184667 1.59585 0.092333V0.0917009Z" fill="url(#paint0_linear_1587_25648)"/>
<defs>
<linearGradient id="paint0_linear_1587_25648" x1="-0.000379343" y1="0.356686" x2="5.1899" y2="0.356686" gradientUnits="userSpaceOnUse">
<stop offset="0.16" stop-color="#E9EFF9"/>
<stop offset="0.49" stop-color="#F2F6FD"/>
</linearGradient>
</defs>
</svg>
