<svg width="3" height="1" viewBox="0 0 3 1" fill="none" xmlns="http://www.w3.org/2000/svg">
<path d="M0.00141698 0.121467C-0.014399 0.118936 0.103905 0.0917325 0.270289 0.0619985C0.276615 0.0607332 0.283575 0.0601003 0.290534 0.0588351C0.528407 0.0253051 0.818156 0 1.19964 0C1.38437 0 1.55771 0.00569334 1.73042 0.0183461C1.81077 0.0240399 1.92338 0.036693 2.02776 0.0512437C1.97083 0.185363 2.13152 0.612395 1.92717 0.879369C1.92211 0.878737 1.91768 0.878105 1.91136 0.876839C1.88162 0.871145 1.69183 0.828126 1.30212 0.822432C1.28441 0.822432 1.2667 0.822432 1.24835 0.821799C1.23 0.821166 1.21039 0.821799 1.19078 0.821799C0.701117 0.821799 0.426551 0.885063 0.222209 0.926817C0.200066 0.929348 0.201332 0.909736 0.208291 0.900879C0.224739 0.880002 0.24182 0.868615 0.24182 0.868615C0.24182 0.868615 0.225372 0.864186 0.220311 0.840778C0.214617 0.816105 0.237391 0.7908 0.237391 0.7908C0.236759 0.7908 0.228535 0.785739 0.209556 0.725638C0.177924 0.625681 0.139965 0.367564 0.142495 0.261913C0.145026 0.156262 0.202597 0.105018 0.202597 0.105018C0.202597 0.105018 0.0235594 0.125895 0.00141698 0.121467Z" fill="url(#paint0_linear_1587_25477)"/>
<defs>
<linearGradient id="paint0_linear_1587_25477" x1="0.000151698" y1="0.463092" x2="2.03536" y2="0.463092" gradientUnits="userSpaceOnUse">
<stop offset="0.16" stop-color="#BFCEE1"/>
<stop offset="0.49" stop-color="#CAD4E5"/>
</linearGradient>
</defs>
</svg>
