<svg width="12" height="26" viewBox="0 0 12 26" fill="none" xmlns="http://www.w3.org/2000/svg">
<path d="M7.29311 5.28388C7.41327 5.30855 7.49232 5.32246 7.56631 5.3389C7.52141 5.27882 7.32473 4.42695 7.32473 4.42695C7.28172 4.30236 7.23556 4.13667 7.23113 4.19295C7.22734 4.24545 7.20647 4.33651 7.21026 4.4592C7.21342 4.58 7.35509 5.23392 7.32283 5.2687C7.3184 5.27313 7.30196 5.28262 7.29311 5.28388ZM0.791815 6.7998C0.79055 6.75742 0.794345 6.68216 0.798772 6.59552C0.807626 6.42793 0.818377 6.21986 0.800037 6.11488C0.789286 6.0529 0.783594 5.99978 0.774107 5.95109C0.743119 5.79172 0.734265 5.67788 0.747546 5.62412C0.758297 5.58175 0.734264 5.58681 0.722248 5.5514C0.696319 5.47361 0.703909 5.05811 0.754502 4.96514C0.765253 4.94554 0.751972 4.93289 0.745015 4.90443C0.705173 4.74506 0.782961 4.44276 0.884781 4.29667C0.923991 4.23975 0.923991 4.23975 0.925256 4.18916C0.942331 3.98362 1.15988 3.6282 1.39072 3.57508C1.41475 3.56939 1.40906 3.54472 1.44005 3.50741C1.58171 3.33476 1.74424 3.2829 1.88148 3.23294C1.93334 3.21397 2.05476 3.16274 2.11547 3.20385C2.13824 3.17792 2.14014 3.17412 2.14014 3.17412C2.12622 3.17159 2.11484 3.17033 2.10219 3.17159C1.85871 3.15705 1.53997 3.33033 1.39072 3.53144C1.15482 3.6086 0.916402 3.9754 0.903121 4.21888C0.720983 4.45414 0.69379 4.82221 0.737427 4.93858C0.684303 5.04419 0.657109 5.43313 0.716557 5.5963C0.69126 5.72152 0.731102 5.85116 0.778534 6.11994C0.805728 6.27489 0.766518 6.67268 0.76968 6.7998H0.791815ZM7.68774 5.40973C8.03557 5.50586 8.52506 5.70887 8.67874 5.76768C8.91211 5.85685 9.12334 5.93274 9.52998 6.13259C9.00318 5.77843 8.30625 5.50839 7.63082 5.35345C7.69153 5.11692 7.54038 4.87913 7.56884 4.56861C7.59287 4.29857 7.82118 4.01208 7.98118 3.97793C8.05138 3.94694 8.07541 3.91595 8.1045 3.87105C8.1045 3.87105 8.06656 3.84765 8.04506 3.8116C7.64979 3.97856 7.4841 4.33841 7.52584 4.76024C7.54987 5.00182 7.65612 5.20862 7.58212 5.34333C7.62007 5.36293 7.68774 5.41037 7.68774 5.41037V5.40973ZM9.01582 3.17349C9.00381 3.16211 8.98926 3.15578 8.96902 3.14377L8.95132 3.13871C8.95132 3.13871 8.97282 3.15768 8.99559 3.18424C9.05756 3.15958 9.18468 3.2146 9.23717 3.23357C9.37441 3.28353 9.5401 3.33349 9.6786 3.50804C9.62358 3.49033 9.52239 3.4897 9.53251 3.50045C9.53757 3.50614 9.55401 3.50172 9.62548 3.51816C9.65963 3.52575 9.72287 3.55041 9.73615 3.55484C9.9594 3.63326 10.1839 3.99184 10.201 4.19738C10.1586 4.14299 10.1124 4.09177 10.0922 4.08608C10.077 4.08165 10.1156 4.11833 10.1434 4.14869C10.1744 4.1822 10.2124 4.23596 10.2345 4.26821C10.3363 4.41557 10.4173 4.74696 10.3717 4.90443C10.3471 4.83613 10.3224 4.79059 10.2984 4.77352C10.268 4.75265 10.3009 4.783 10.3192 4.81779C10.3502 4.87534 10.3553 4.91455 10.3673 4.9487C10.4015 5.04293 10.4356 5.36546 10.3951 5.5514C10.3812 5.49385 10.3407 5.40467 10.3211 5.39835C10.3142 5.39645 10.3641 5.45716 10.3825 5.57922C10.404 5.72278 10.3743 5.79172 10.3433 5.95109C10.3338 5.99978 10.3281 6.0529 10.3173 6.11488C10.299 6.21986 10.3098 6.42793 10.3186 6.59552C10.323 6.68216 10.3268 6.73402 10.3256 6.7764L10.3483 6.7998C10.3515 6.67331 10.3117 6.27552 10.3388 6.12058C10.3863 5.8518 10.4261 5.72215 10.4008 5.59693C10.4603 5.43377 10.4268 5.04672 10.38 4.93921C10.4236 4.82285 10.3964 4.45478 10.2143 4.21952C10.201 3.97603 9.96256 3.60923 9.72667 3.53207C9.57741 3.33096 9.25741 3.16021 9.01456 3.17349H9.01582ZM9.94106 25.4189C9.86264 25.1938 9.63433 24.758 9.23717 24.4026C9.22199 24.3893 9.20808 24.3773 9.1948 24.3666C9.15369 24.3375 9.09108 24.2964 9.05377 24.2704C9.00191 24.2401 8.98989 24.2382 8.97598 24.2148C8.92792 24.1376 8.95954 23.8948 8.92223 23.779C8.90072 23.7133 8.68633 23.6235 8.46056 23.4464C8.18166 23.2269 8.08111 22.6318 7.90023 22.2562C7.84584 22.1436 7.79778 22.0544 7.63461 21.9899C7.73643 21.8502 7.74782 21.5302 7.65865 21.386C7.60489 21.2987 7.46892 21.2285 7.46955 21.1526C7.47461 20.5202 7.73454 20.075 8.06656 19.5298C8.61044 18.6381 9.36935 17.7002 9.87023 16.7832C11.1395 14.4603 11.1199 12.2861 11.1199 9.38387C11.1199 8.59587 11.0124 7.48344 10.3502 6.80043C10.3604 6.81308 10.5691 7.14889 10.7702 7.72756C11.0794 8.61737 10.9789 9.85376 10.9529 10.8631C10.9276 11.875 10.9004 12.9039 10.6842 13.8968C10.3604 15.3799 9.85694 16.3766 9.29725 17.2227C8.99812 17.6749 8.35874 18.602 7.93881 19.3331C7.65169 19.8327 7.48473 20.264 7.41706 20.5897C7.35192 20.9015 7.37785 21.0995 7.34876 21.1393C7.32093 21.1773 7.00219 21.1722 6.94275 21.1709C7.00662 21.188 7.00409 21.231 6.96678 21.2626C7.08188 21.2715 7.41263 21.3164 7.52331 21.4252C7.63019 21.5302 7.62197 21.8356 7.49675 21.9248C7.55114 21.9659 7.51193 22.0329 7.44362 22.0329C7.38671 22.0329 6.94401 22.0405 6.94401 22.0405C7.10465 22.0487 7.40821 22.038 7.54797 22.1253C7.63904 22.1822 7.75857 22.3169 7.8079 22.4484C7.89517 22.6786 7.97928 22.9885 8.02608 23.1492C8.05075 23.2333 8.00964 23.2883 7.97422 23.3142C7.84078 23.4122 7.36963 23.4546 7.08188 23.459C7.1622 23.5153 7.04836 23.54 6.99207 23.5887C6.94338 23.6311 7.05152 23.6488 7.07808 23.6576C7.14133 23.6791 7.09263 23.7013 7.11982 23.7285C7.13374 23.743 7.21595 23.7626 7.28236 23.762C7.74908 23.7601 8.31131 23.762 8.59906 23.7594C8.63827 23.7594 8.74768 23.7556 8.76792 23.8233C8.79195 23.9043 8.81408 24.1686 8.77487 24.2154C8.73376 24.2641 8.25565 24.2698 8.16775 24.2774C8.16775 24.2774 8.51937 24.2812 8.52 24.3008C8.52 24.3236 8.33724 24.3368 8.26008 24.3425C8.00585 24.3615 7.45564 24.3697 7.2324 24.3742C7.29627 24.3824 7.26908 24.4323 7.26908 24.4323C7.76426 24.4355 8.28032 24.4469 8.73882 24.5866C9.01456 24.6708 9.22452 24.8219 9.42374 25.0452C9.46358 25.0901 9.73931 25.4278 9.74374 25.4537C9.75449 25.5182 9.5654 25.5562 9.49899 25.5694C9.20618 25.627 8.81788 25.6472 8.51495 25.6649C8.20316 25.6833 7.89264 25.6833 7.59794 25.706C7.57137 25.7079 7.4803 25.713 7.44868 25.7212C7.44868 25.7212 8.37139 25.7073 8.67621 25.6978C9.0329 25.6864 9.62168 25.6447 9.80382 25.6529C9.86327 25.6554 9.92145 25.6611 9.9594 25.6801C9.99418 25.6978 9.99608 25.787 9.98659 25.8009C9.97331 25.8205 9.69821 25.8547 9.64382 25.8679C9.91702 25.8401 10.0966 25.8072 10.1371 25.7699C10.1523 25.756 10.1656 25.6845 10.1264 25.584C10.084 25.4771 9.9828 25.5315 9.94359 25.4208L9.94106 25.4189ZM3.88752 4.19295C3.88309 4.13667 3.83692 4.30236 3.79392 4.42695C3.79392 4.42695 3.59724 5.27819 3.5517 5.3389C3.6434 5.31866 3.73574 5.30285 3.82428 5.28578C3.81542 5.28451 3.80088 5.27629 3.79518 5.26934C3.76546 5.23266 3.90459 4.58 3.90776 4.4592C3.91155 4.33651 3.89068 4.24545 3.88689 4.19295H3.88752ZM7.51319 2.57775C7.5796 2.71625 7.54861 2.85222 7.47208 2.99515C7.54544 2.9123 7.63019 2.69601 7.5056 2.51198C7.48283 2.47846 7.4588 2.44684 7.43287 2.41711C7.43034 2.33237 7.37406 2.11988 7.34876 1.98517C7.33548 1.91371 7.31587 1.73473 7.31587 1.58611C7.31587 1.44572 7.32916 1.39892 7.25137 1.34326C7.65928 1.41409 8.07731 1.58042 8.41249 1.8239C8.86404 2.15213 9.04808 2.52589 8.81977 3.07736C8.87543 3.09381 8.93045 3.11784 8.97029 3.14124C9.08349 2.99894 9.31243 2.75799 9.28966 2.18944C9.35923 2.13316 9.88857 1.68351 9.73615 1.04539C9.78675 0.826575 9.78611 0.671632 9.71402 0.414236C9.79433 0.803175 9.7469 0.755744 9.70326 0.635584C9.62864 0.430047 9.45536 0.216289 9.44144 0.203008C9.48951 0.285855 9.71402 0.622935 9.68619 0.893612C9.60081 0.64507 9.31053 0.373762 9.24855 0.329492C9.21061 0.392102 9.18215 0.421192 9.12966 0.464197C9.25425 0.596373 9.44208 0.790527 9.5167 1.06563C9.48635 1.07259 9.4971 1.12128 9.50279 1.16492C9.46801 1.18389 9.41109 1.13646 9.37757 1.16745C9.35164 1.19085 9.35733 1.29393 9.31875 1.30089C9.27765 1.30848 9.25488 1.24524 9.22958 1.22563C9.12839 1.14595 9.19543 1.35022 9.20745 1.4084C9.19606 1.47291 9.18911 1.54943 9.18531 1.84224C9.18341 1.98391 9.2416 2.27229 9.17836 2.28114C9.1265 2.2881 8.99685 2.056 8.65155 1.81884C8.48143 1.70248 8.04885 1.4571 7.63019 1.3439C7.44046 1.29267 7.06291 1.20034 6.97121 1.19211C7.11224 1.25852 7.19761 1.31417 7.19635 1.41789C7.19571 1.47038 7.19761 1.8277 7.20204 1.9156C7.20647 2.01742 7.22734 2.1926 7.17232 2.20019C7.11919 2.16921 7.06417 2.14201 7.00536 2.11798C6.79982 2.03576 6.39001 1.85869 5.55964 1.85869C4.72927 1.85869 4.31883 2.03576 4.11329 2.11798C4.05511 2.14201 3.99882 2.16857 3.94633 2.20019C3.89447 2.19134 3.91218 2.01869 3.91724 1.9156C3.92104 1.8277 3.92293 1.47038 3.92293 1.41789C3.92293 1.31417 4.00641 1.25852 4.14808 1.19211C4.05637 1.20034 3.67882 1.29267 3.48909 1.3439C3.07043 1.4571 2.63722 1.70248 2.46773 1.81884C2.12243 2.056 1.99278 2.2881 1.94092 2.28114C1.87768 2.27229 1.93587 1.98391 1.93397 1.84224C1.92954 1.54943 1.92322 1.47291 1.91183 1.4084C1.92385 1.35022 1.99089 1.14595 1.88907 1.22563C1.8644 1.24524 1.841 1.30848 1.80053 1.30089C1.76195 1.29393 1.76764 1.19085 1.74171 1.16745C1.70819 1.13646 1.65064 1.18389 1.61649 1.16492C1.62218 1.12128 1.63293 1.07259 1.60258 1.06563C1.6772 0.790527 1.86503 0.596373 1.98962 0.464197C1.93713 0.421192 1.90867 0.392102 1.87073 0.329492C1.80875 0.373762 1.51784 0.64507 1.43246 0.893612C1.40463 0.622935 1.80242 0.137868 1.86503 0C1.66709 0.177078 1.49001 0.430047 1.41601 0.635584C1.37175 0.755744 1.32684 0.793056 1.40779 0.404117C1.3319 0.662778 1.32811 0.819618 1.38313 1.04539C1.23072 1.68351 1.76005 2.13316 1.82962 2.18944C1.80685 2.75799 2.03516 2.99831 2.14836 3.14061C2.18947 3.1191 2.24385 3.09317 2.29951 3.07547C2.07057 2.52399 2.25524 2.1515 2.70679 1.82327C3.04197 1.57979 3.46 1.41346 3.86791 1.34263C3.79012 1.39828 3.80341 1.44508 3.80341 1.58548C3.80341 1.7341 3.7838 1.91308 3.77052 1.98454C3.74459 2.11924 3.68894 2.33111 3.68641 2.41648C3.66048 2.44621 3.63645 2.47783 3.61368 2.51135C3.48909 2.69538 3.5732 2.91167 3.6472 2.99452C3.57067 2.85159 3.53905 2.71562 3.60546 2.57712C3.69716 2.38676 3.88942 2.20083 4.32768 2.04968C4.56231 1.96936 4.95441 1.86564 5.55964 1.86564C6.16487 1.86564 6.55697 1.96936 6.79096 2.04968C7.22987 2.20083 7.42149 2.38676 7.51319 2.57712V2.57775ZM2.4399 5.76705C2.59358 5.70824 3.08371 5.50523 3.43091 5.4091C3.43091 5.4091 3.49858 5.36104 3.53652 5.34206C3.44798 5.18143 3.58269 4.85763 3.59281 4.75897C3.63455 4.33715 3.48909 3.99501 3.13177 3.80781C3.12798 3.92797 3.15644 3.98173 3.16782 3.98678C3.32466 4.0475 3.52641 4.31501 3.54917 4.56861C3.57763 4.87913 3.42648 5.11692 3.48719 5.35345C2.81177 5.50839 2.11484 5.77843 1.58803 6.13259C1.99531 5.93211 2.20654 5.85685 2.43927 5.76768L2.4399 5.76705ZM4.17653 21.1703C4.11709 21.1716 3.79835 21.1766 3.77115 21.1387C3.74206 21.0988 3.76799 20.9009 3.70285 20.5891C3.63455 20.2634 3.46822 19.8327 3.1811 19.3325C2.76118 18.6014 2.1218 17.6743 1.82266 17.2221C1.26297 16.3759 0.759561 15.3792 0.435761 13.8962C0.219473 12.9039 0.192279 11.875 0.166982 10.8625C0.141685 9.85313 0.0411303 8.61738 0.349752 7.72693C0.550862 7.14826 0.760194 6.81118 0.770313 6.79853C0.108168 7.48155 2.30238e-05 8.59587 2.30238e-05 9.38324C2.30238e-05 12.2854 -0.0214787 14.4047 1.24969 16.7826C1.74298 17.7053 2.50947 18.6375 3.05335 19.5292C3.38537 20.0743 3.6453 20.5195 3.65036 21.152C3.65099 21.2279 3.51502 21.2981 3.46127 21.3853C3.37209 21.5295 3.38348 21.8495 3.4853 21.9893C3.32213 22.0538 3.27407 22.143 3.21968 22.2555C3.03881 22.6312 2.93825 23.2263 2.65936 23.4458C2.43358 23.6228 2.21919 23.7126 2.19769 23.7784C2.16037 23.8941 2.19136 24.137 2.14393 24.2142C2.13002 24.2382 2.09966 24.2489 2.0478 24.2787C2.01049 24.3052 1.96559 24.3356 1.92448 24.3647C1.9112 24.3754 1.89666 24.3881 1.88211 24.4013C1.48495 24.7568 1.25728 25.1925 1.17886 25.4176C1.13965 25.5283 1.03783 25.4739 0.995455 25.5808C0.956245 25.6814 0.970158 25.7528 0.985336 25.7667C1.02581 25.8041 1.20605 25.8369 1.47862 25.8648C1.42424 25.8515 1.14913 25.8173 1.13585 25.7977C1.12637 25.7838 1.12826 25.6947 1.16305 25.6769C1.20099 25.658 1.25917 25.6523 1.31862 25.6497C1.50013 25.6409 2.08954 25.6833 2.44623 25.6946C2.75106 25.7048 3.67376 25.718 3.67376 25.718C3.64214 25.7098 3.55107 25.7048 3.52451 25.7029C3.2298 25.6795 2.91865 25.6801 2.6075 25.6618C2.30457 25.6434 1.91563 25.6238 1.62345 25.5663C1.55704 25.553 1.36858 25.515 1.3787 25.4505C1.38313 25.4246 1.65886 25.0869 1.69871 25.042C1.89792 24.8187 2.10788 24.6676 2.38362 24.5835C2.84213 24.4437 3.35818 24.4323 3.85337 24.4292C3.85337 24.4292 3.82554 24.3798 3.89005 24.371C3.6668 24.3659 3.1166 24.3577 2.86236 24.3394C2.78458 24.3337 2.60181 24.3204 2.60244 24.2976C2.60244 24.2787 2.95406 24.2761 2.95406 24.2761C2.86552 24.2685 2.38868 24.2616 2.34757 24.2123C2.30836 24.1661 2.3305 23.9017 2.35453 23.8202C2.37477 23.7525 2.48354 23.7563 2.52339 23.7563C2.81114 23.7588 3.37399 23.7563 3.84009 23.7588C3.90649 23.7588 4.01274 23.7392 4.02665 23.7253C4.05384 23.6981 4.00515 23.676 4.06839 23.6545C4.09432 23.6456 4.20246 23.6273 4.1544 23.5855C4.09811 23.5368 3.98428 23.5122 4.0646 23.4559C3.77748 23.4515 3.28166 23.4091 3.14822 23.3111C3.1128 23.2851 3.07169 23.2301 3.09636 23.146C3.14316 22.9854 3.22727 22.6755 3.31454 22.4453C3.36451 22.3137 3.4834 22.1797 3.57447 22.1221C3.7136 22.0342 4.0178 22.0456 4.17843 22.0374C4.17843 22.0374 3.73574 22.0298 3.67882 22.0298C3.60988 22.0298 3.57131 21.9627 3.6257 21.9216C3.50048 21.8325 3.49225 21.5276 3.59913 21.422C3.70917 21.3132 4.03993 21.2683 4.15566 21.2595C4.11772 21.2279 4.11519 21.1849 4.17906 21.1678L4.17653 21.1703Z" fill="#6476A0"/>
</svg>
