<svg width="3" height="4" viewBox="0 0 3 4" fill="none" xmlns="http://www.w3.org/2000/svg">
<path d="M1.23456 0.646838C1.23456 0.646838 1.23393 0.650001 1.23393 0.651266V0.647471H1.23456V0.646838ZM0.0563626 1.53918C0.0841892 1.5961 0.213203 1.74346 0.24103 1.79215C0.279607 1.85982 0.242294 2.01224 0.259369 2.06852C0.27265 2.11089 0.299844 2.20512 0.262532 2.28544C0.262532 2.28544 0.297315 2.31706 0.325142 2.34805C0.351071 2.28797 0.334627 2.17287 0.315655 2.109C0.296682 2.04512 0.317552 1.96164 0.315655 1.87121C0.313758 1.78077 0.210673 1.63405 0.27518 1.65365C0.199289 1.58472 0.0765996 1.49871 0.0765996 1.49871C0.0765996 1.49871 0.027903 1.48163 0.0557296 1.53855L0.0563626 1.53918ZM0.219527 2.25066C0.219527 2.25066 0.11834 2.17603 0.0209472 2.14441C-0.0252196 2.152 0.0127248 2.17856 0.059524 2.23169C0.115809 2.29619 0.228381 2.35944 0.231543 2.44102C0.234705 2.5226 0.207511 2.58774 0.22016 2.68007C0.232176 2.77241 0.234073 2.92482 0.221425 3.0064C0.209409 3.08799 0.25684 3.18158 0.254943 3.23155L0.296682 3.20245C0.263164 3.09937 0.271385 2.99692 0.287196 2.90901C0.299212 2.84387 0.239764 2.74079 0.294153 2.64656C0.371308 2.51311 0.226484 2.35374 0.219527 2.25003V2.25066ZM0.727362 0.744864C0.703962 0.77016 0.671076 1.07309 0.570521 1.07499C0.502219 1.07688 0.444036 1.12685 0.445933 1.17365L0.524986 1.30203C0.628071 1.28495 0.606569 1.15847 0.697005 1.08384C0.753923 1.03641 0.727993 0.889056 0.75329 0.857435C0.769101 0.837829 0.784912 0.85364 0.795663 0.868819C0.799458 0.826446 0.765939 0.703124 0.727362 0.743598V0.744864ZM1.95299 0.520354C1.89228 0.52731 1.85434 0.54818 1.83473 0.612055C1.84042 0.582331 1.83916 0.558932 1.83789 0.544386C1.83473 0.499484 1.79046 0.520986 1.69497 0.557034C1.59884 0.593082 1.43441 0.587391 1.34208 0.620277C1.31551 0.629763 1.25733 0.622806 1.23456 0.646838C1.24089 0.585493 1.23583 0.535532 1.14855 0.594347C1.08341 0.637984 1.06065 0.683519 0.975271 0.706286C0.889261 0.729053 0.795663 0.870083 0.795663 0.870083C0.807047 0.899174 0.805149 0.918147 0.807046 0.949135C0.934796 0.876407 0.998038 0.902336 1.05622 0.843521C1.13717 0.762571 1.14729 0.651898 1.23393 0.651266C1.23393 0.666444 1.23203 0.674032 1.2333 0.692373C1.31172 0.768263 1.43504 0.718302 1.54635 0.697432C1.61718 0.684151 1.73481 0.677827 1.82714 0.642412C1.84401 0.638195 1.85982 0.633979 1.87457 0.629762C1.93718 0.612687 1.99157 0.60826 2.03711 0.612055C2.04343 0.546283 2.02572 0.512765 1.95299 0.520354ZM0.35107 0.926368C0.282769 0.870083 0.31186 0.947239 0.344114 1.01997C0.386486 1.11483 0.394076 1.22867 0.399135 1.30203C0.404194 1.37602 0.322611 1.39373 0.33526 1.47405C0.347276 1.55373 0.350438 1.58788 0.341584 1.58662C0.320082 1.58345 0.287196 1.56448 0.259369 1.56828C0.227116 1.57334 0.244191 1.6195 0.276445 1.65365C0.309963 1.69033 0.342849 1.72448 0.363086 1.758C0.424431 1.69919 0.398502 1.59547 0.396605 1.55626C0.393443 1.49175 0.456685 1.40511 0.46048 1.38551C0.470599 1.33302 0.406724 1.18187 0.404194 1.15847C0.401665 1.13443 0.43455 1.17112 0.446566 1.17491C0.441507 1.09143 0.446566 1.00416 0.352335 0.927001L0.35107 0.926368ZM0.970211 0.131415C1.00373 0.247781 1.1144 0.19023 1.15361 0.256634C1.19282 0.323038 1.27694 0.364146 1.31488 0.339481C1.33512 0.238926 1.4401 0.222483 1.52105 0.248412C1.602 0.274342 1.76517 0.324936 1.87078 0.309757C1.97639 0.294579 2.35521 0.291417 2.46273 0.39387C2.57024 0.496322 2.73783 0.725259 2.73783 0.725259C2.73783 0.725259 2.75364 0.442566 2.70494 0.285093C2.65688 0.12762 2.61577 0.0637455 2.61577 0.0637455C2.61577 0.0637455 2.46526 0.089043 2.35585 0.104853C2.24644 0.120664 1.62603 -0.0659009 1.22128 0.0251678C1.10745 0.0504646 1.04863 0.082718 0.969579 0.130782L0.970211 0.131415Z" fill="#B6C8DB"/>
</svg>
