<svg width="2" height="3" viewBox="0 0 2 3" fill="none" xmlns="http://www.w3.org/2000/svg">
<path d="M1.33044 0.000633258C1.31842 0.00316382 1.30261 0.0126527 1.28046 0.0335298C1.16912 0.13665 1.09194 0.262545 1.00969 0.389073C0.794595 0.719311 0.443481 1.46393 0.338463 1.69041C0.229016 1.92765 0.0442851 2.41732 0.00822463 2.72478C0.00506143 2.72478 0.00253056 2.72415 0 2.72415C0.0360605 2.41669 0.220791 1.92829 0.330238 1.69105C0.435256 1.46456 0.786373 0.719945 1.00147 0.389707C1.08371 0.263179 1.1609 0.137283 1.27224 0.0341631C1.29818 0.00949014 1.31652 0 1.32854 0C1.32918 0 1.32981 0.000633258 1.33044 0.000633258Z" fill="url(#paint0_linear_1587_25852)"/>
<defs>
<linearGradient id="paint0_linear_1587_25852" x1="0" y1="1.36207" x2="1.33044" y2="1.36207" gradientUnits="userSpaceOnUse">
<stop stop-color="#9DB4DB"/>
<stop offset="0.66" stop-color="#788CB4"/>
<stop offset="1" stop-color="#6476A0"/>
</linearGradient>
</defs>
</svg>
