<svg width="3" height="4" viewBox="0 0 3 4" fill="none" xmlns="http://www.w3.org/2000/svg">
<path d="M0.0712694 3.44423C0.0896694 3.27543 0.113669 2.94843 0.0909695 2.83273C0.0681695 2.71703 0.0491795 2.53292 0.0491795 2.53292C0.0491795 2.53292 0.0491798 2.52413 0.12067 2.56713C0.12067 2.56713 0.0675701 2.42862 0.0257801 2.34192C-0.0159599 2.25532 -0.0254406 1.95112 0.142169 1.94862C0.142169 1.94862 0.0757695 1.92012 0.0270495 1.88982C0.0624695 1.77462 -0.0115306 1.55962 0.0712694 1.43252C0.137769 1.33012 0.19277 1.37882 0.20667 1.32312C0.17947 1.30292 0.15227 1.28012 0.15227 1.28012C0.15227 1.28012 0.13267 1.12332 0.22247 0.900024C0.25217 0.826724 0.452069 0.616725 0.478569 0.628125C0.484269 0.630625 0.50707 0.665425 0.52097 0.685625C0.52097 0.685625 0.56267 0.646424 0.56457 0.588924C0.56647 0.531324 0.58607 0.448524 0.70497 0.353624C0.82327 0.258724 1.01297 0.174025 1.01297 0.174025C0.999069 0.272625 1.01297 0.294825 1.01297 0.294825C1.01297 0.294825 1.05857 0.310625 1.08007 0.271425C1.10157 0.232225 1.07937 0.119625 1.27287 0.0779247C1.46647 0.0361247 1.57327 0.0779247 1.57327 0.0779247C1.57327 0.0779247 1.72387 -0.0118753 1.93637 0.00132466C2.14887 0.0146247 2.50737 0.112025 2.61367 0.0855246C2.71987 0.0589246 2.89187 0.0349245 2.89187 0.0349245C2.89187 0.0349245 2.98617 0.444724 2.95957 0.684424C2.92417 1.00562 2.84197 1.15612 2.80527 1.20362C2.76857 1.25102 2.74777 1.05372 2.72877 0.943025C2.68767 0.703325 2.46247 0.466824 2.23487 0.474424C2.02237 0.482024 1.83517 0.684424 1.49107 0.619824C1.46457 0.614824 1.45567 0.497225 1.42347 0.547825C1.39117 0.598325 1.34117 0.675525 1.20147 0.741925C1.06167 0.808325 1.01617 0.783025 0.975069 0.723625C0.933969 0.664125 0.961169 0.819724 0.924469 0.913324C0.887769 1.00692 0.81507 1.18082 0.76447 1.18272C0.71387 1.18462 0.663869 1.04552 0.663869 1.08912C0.663869 1.13272 0.68917 1.29022 0.67277 1.40912C0.65697 1.52802 0.68417 1.61023 0.64047 1.66523C0.64047 1.66523 0.58547 1.59192 0.53297 1.56032C0.48047 1.52862 0.58797 1.67922 0.60127 1.78412C0.61517 1.88912 0.66577 2.15032 0.59687 2.22812C0.59687 2.22812 0.49247 2.14973 0.43627 2.12253C0.37997 2.09533 0.575969 2.23252 0.580369 2.35082C0.584869 2.46902 0.51847 2.49943 0.54187 2.60443C0.56457 2.70943 0.53237 2.99273 0.57157 3.04963C0.57157 3.04963 0.22437 3.27923 0.0693697 3.44423H0.0712694Z" fill="#DEE8F9"/>
</svg>
