<svg width="2" height="3" viewBox="0 0 2 3" fill="none" xmlns="http://www.w3.org/2000/svg">
<path d="M1.65892 0.0189585C1.64412 0.0232585 1.62832 0.0274586 1.61142 0.0316586C1.53112 0.0512586 1.41532 0.0733588 1.34322 0.0809588C1.25332 0.0904588 1.09142 0.144259 1.01932 0.0828585C1.01992 0.0651585 1.02052 0.0404584 1.01552 0.0132584C1.00532 -0.0392416 0.751722 0.211959 0.684022 0.236659C0.616922 0.260659 0.579622 0.259359 0.579622 0.259359C0.579622 0.259359 0.564423 0.203759 0.539123 0.196759C0.514423 0.189159 0.405022 0.497259 0.361922 0.555459C0.296822 0.642759 0.232323 0.553558 0.194323 0.538358C0.160123 0.523858 0.239222 0.720558 0.183522 0.792758C0.152522 0.832558 0.172822 1.03696 0.166522 1.07166C0.160822 1.10646 0.123422 1.10836 0.107622 1.08686C0.0918223 1.06606 0.0475227 1.03376 0.0475227 1.03376C-0.0131773 1.04196 0.0867222 1.27356 0.0703222 1.31656C0.0539222 1.35956 0.0735228 1.45766 0.0918228 1.55696C0.110223 1.65626 0.0665227 1.69356 0.0665227 1.69356C0.0292227 1.65566 0.00322261 1.64046 0.00322261 1.64046C-0.0207774 1.67586 0.0975227 1.92326 0.0861227 1.97826C0.0741227 2.03336 0.0469226 2.07636 0.0425226 2.12256C0.0380226 2.16866 0.0602225 2.27246 0.0488225 2.32436C0.0374225 2.37686 0.0355226 2.54706 0.0608226 2.60586L0.183522 2.52106C0.183522 2.52106 0.187323 2.44646 0.181023 2.38756C0.175323 2.32936 0.188622 2.23006 0.217122 2.14716C0.245522 2.06436 0.220922 1.99916 0.185422 1.90936C0.153822 1.82646 0.119622 1.77266 0.119622 1.77266C0.164622 1.78916 0.215822 1.92136 0.215822 1.92136C0.245522 1.87576 0.233522 1.75056 0.208822 1.66446C0.184222 1.57906 0.235422 1.46336 0.208822 1.35196C0.182322 1.24066 0.163323 1.18876 0.163323 1.18876C0.194923 1.20076 0.232323 1.35066 0.232323 1.35066C0.262023 1.32536 0.245523 1.31396 0.269623 1.22856C0.293623 1.14316 0.316423 1.00466 0.320823 0.933758C0.325323 0.863558 0.299922 0.720559 0.299922 0.720559C0.327122 0.744659 0.344922 0.881258 0.344922 0.881258C0.408122 0.857258 0.502422 0.649758 0.542922 0.601658C0.583422 0.553558 0.588423 0.390958 0.588423 0.390958C0.604923 0.376458 0.597922 0.495359 0.597922 0.495359C0.748522 0.462459 0.831422 0.457458 0.950322 0.315658C0.996522 0.260658 1.01552 0.109458 1.01552 0.109458C1.01552 0.109458 1.01672 0.103759 1.01802 0.0936589C1.01992 0.170859 1.04522 0.201158 1.07942 0.225858C1.19582 0.309958 1.55642 0.222058 1.56902 0.199958C1.57092 0.196158 1.56972 0.211958 1.56972 0.211958C1.72782 0.157558 1.73602 0.214459 1.77082 0.175859C1.78792 0.157559 1.81582 0.0632583 1.82142 0.00125834C1.77152 -0.00254166 1.72152 0.00195854 1.65892 0.0189585Z" fill="#7592BC"/>
</svg>
