<svg width="5" height="2" viewBox="0 0 5 2" fill="none" xmlns="http://www.w3.org/2000/svg">
<path d="M4.77952 0.43515C4.64352 0.42245 4.23561 0.329451 4.23431 0.387051C4.23372 0.423751 4.84711 0.550851 4.75161 0.648251C4.62011 0.782351 4.57521 1.04915 4.57012 1.24965C4.56062 1.57475 4.68591 1.63735 4.63971 1.71005C4.61381 1.75115 4.40891 1.72395 4.06861 1.69295C3.64051 1.61455 3.16491 1.55005 2.69501 1.55005C2.18911 1.55005 1.59652 1.62085 1.12472 1.71705C0.657315 1.81315 0.260215 1.89785 0.224115 1.84285C0.178615 1.77265 0.302515 1.72655 0.293715 1.41405C0.288015 1.22125 0.298114 0.99925 0.167814 0.86895C0.0654145 0.76585 0.592214 0.58055 0.589714 0.52495C0.586514 0.46295 0.308915 0.521751 0.172915 0.533751C0.0970147 0.540751 -0.0142854 0.572351 0.00151464 0.507851C0.625715 0.203051 1.68881 0 2.69501 0C3.50891 0 4.30831 0.116991 4.97111 0.336451C4.96481 0.386451 4.84522 0.44145 4.77952 0.43515Z" fill="url(#paint0_linear_1591_39915)"/>
<defs>
<linearGradient id="paint0_linear_1591_39915" x1="-0.000385357" y1="0.93025" x2="4.97111" y2="0.93025" gradientUnits="userSpaceOnUse">
<stop offset="0.16" stop-color="#F6F9FD"/>
<stop offset="0.49" stop-color="#FAFBFE"/>
</linearGradient>
</defs>
</svg>
