<svg width="2" height="3" viewBox="0 0 2 3" fill="none" xmlns="http://www.w3.org/2000/svg">
<path d="M1.3305 0.000699997C1.3185 0.0032 1.3026 0.0126999 1.2805 0.0335999C1.1692 0.1367 1.092 0.262599 1.0097 0.389099C0.794601 0.719299 0.443499 1.464 0.338499 1.6904C0.229099 1.9277 0.0443008 2.4173 0.00830078 2.7248C0.00510078 2.7248 0.0026 2.7242 0 2.7242C0.0361 2.4167 0.220799 1.9283 0.330299 1.6911C0.435299 1.4646 0.786399 0.72 1.0015 0.3897C1.0837 0.2632 1.1609 0.137299 1.2723 0.0341988C1.2982 0.00949876 1.3166 0 1.3286 0L1.3305 0.000699997Z" fill="url(#paint0_linear_1591_40117)"/>
<defs>
<linearGradient id="paint0_linear_1591_40117" x1="0" y1="1.3621" x2="1.3305" y2="1.3621" gradientUnits="userSpaceOnUse">
<stop stop-color="#9DB4DB"/>
<stop offset="0.66" stop-color="#788CB4"/>
<stop offset="1" stop-color="#6476A0"/>
</linearGradient>
</defs>
</svg>
