<svg width="7" height="16" viewBox="0 0 7 16" fill="none" xmlns="http://www.w3.org/2000/svg">
<path d="M5.22984 11.7687C4.69165 12.9482 4.67584 14.6329 4.64485 15.5506C4.43805 15.55 4.11551 15.5474 3.79108 15.5436C3.47613 15.5398 2.77478 15.5493 2.71154 15.5468C2.61857 15.543 2.60529 15.5215 2.5996 15.4734C2.58505 15.3533 2.66031 13.7627 1.93998 12.1836C1.49033 11.1983 0.951507 10.5235 0.528417 9.1568C-0.126772 7.04135 -0.0325408 3.02042 0.0382904 2.32982C0.122402 1.50261 0.278611 0.399665 2.71343 0.0429798C3.07708 -0.0107761 3.86444 -0.0493538 4.5405 0.0113587C4.61702 0.0221099 4.68785 0.0353911 4.75363 0.0493044C6.52567 0.374369 6.49152 2.43353 6.53389 3.03876C6.67745 5.09033 6.49152 9.00502 5.22984 11.7693V11.7687Z" fill="url(#paint0_linear_1587_25529)"/>
<defs>
<linearGradient id="paint0_linear_1587_25529" x1="-0.0116709" y1="7.76548" x2="6.575" y2="7.76548" gradientUnits="userSpaceOnUse">
<stop offset="0.16" stop-color="#DEE7F7"/>
<stop offset="0.52" stop-color="#EBF1FB"/>
</linearGradient>
</defs>
</svg>
