<svg width="5" height="2" viewBox="0 0 5 2" fill="none" xmlns="http://www.w3.org/2000/svg">
<path d="M4.60934 0.37376C4.47337 0.361112 4.12238 0.301032 4.11858 0.358583C4.11605 0.405382 4.69851 0.517953 4.60302 0.615346C4.47147 0.749419 4.42657 0.998593 4.42151 1.19907C4.41202 1.52414 4.53724 1.58674 4.49108 1.65947C4.46135 1.70627 4.24696 1.68477 3.82577 1.65378C3.46719 1.5956 3.07951 1.55006 2.695 1.55006C2.18906 1.55006 1.59648 1.6209 1.1247 1.71702C0.657338 1.81315 0.260177 1.8979 0.224129 1.84288C0.178595 1.77268 0.30255 1.72651 0.293696 1.41409C0.288004 1.22121 0.298122 0.999225 0.167844 0.868946C0.0653914 0.765862 0.592198 0.580562 0.589669 0.524909C0.586507 0.462932 0.308874 0.521748 0.172903 0.533764C0.0970125 0.54072 -0.0142941 0.572341 0.00151649 0.507834C0.625716 0.203007 1.68882 0 2.695 0C3.45517 0 4.20332 0.102452 4.83701 0.295973C4.84713 0.326329 4.67258 0.380085 4.60871 0.374393L4.60934 0.37376Z" fill="url(#paint0_linear_1587_25611)"/>
<defs>
<linearGradient id="paint0_linear_1587_25611" x1="0.000251648" y1="0.930292" x2="4.83828" y2="0.930292" gradientUnits="userSpaceOnUse">
<stop offset="0.16" stop-color="#E1E9F7"/>
<stop offset="0.49" stop-color="#EDF2FC"/>
</linearGradient>
</defs>
</svg>
