<svg width="3" height="4" viewBox="0 0 3 4" fill="none" xmlns="http://www.w3.org/2000/svg">
<path d="M1.97266 2.0263C1.94666 2.6302 2.01436 2.9351 1.93406 3.1197C1.75636 3.0944 1.54316 3.0742 1.25486 3.0742C0.809564 3.0742 0.590164 3.109 0.438364 3.1374C0.307464 3.1507 0.266964 3.0938 0.261964 3.0204C0.249264 2.8421 0.270764 2.5259 0.274564 2.3286C0.285364 1.7657 0.232164 1.3799 0.158864 0.965099C0.0626642 0.418699 -0.0327356 0.2163 0.0108644 0.1979C0.428264 0.0239998 0.927264 0 1.24596 0C1.52356 0 1.83986 0.00249945 2.26416 0.124599C2.09526 0.928999 1.99916 1.4014 1.97266 2.0263Z" fill="url(#paint0_linear_1591_39884)"/>
<defs>
<linearGradient id="paint0_linear_1591_39884" x1="6.44013e-05" y1="1.5697" x2="2.26416" y2="1.5697" gradientUnits="userSpaceOnUse">
<stop offset="0.16" stop-color="#E9EFF9"/>
<stop offset="0.49" stop-color="#F2F6FD"/>
</linearGradient>
</defs>
</svg>
