<svg width="5" height="2" viewBox="0 0 5 2" fill="none" xmlns="http://www.w3.org/2000/svg">
<path d="M4.75671 0.42755C4.62071 0.41545 4.22042 0.32635 4.21912 0.38385C4.21792 0.42185 4.82751 0.54705 4.73201 0.64445C4.60051 0.77855 4.55561 1.04285 4.55052 1.24335C4.54102 1.56845 4.66631 1.63105 4.62011 1.70375C4.59351 1.74615 4.38741 1.71955 4.03641 1.68795C3.61771 1.61265 3.15351 1.55005 2.69501 1.55005C2.18911 1.55005 1.59652 1.62085 1.12472 1.71705C0.657315 1.81315 0.260215 1.89785 0.224115 1.84285C0.178615 1.77265 0.302515 1.72655 0.293715 1.41405C0.288015 1.22125 0.298114 0.99925 0.167814 0.86895C0.0654145 0.76585 0.592214 0.58055 0.589714 0.52495C0.586514 0.46295 0.308915 0.521751 0.172915 0.533751C0.0970147 0.540751 -0.0142854 0.572351 0.00151464 0.507851C0.625715 0.203051 1.68881 0 2.69501 0C3.50201 0 4.29441 0.1151 4.95341 0.33135C4.94891 0.37885 4.82252 0.43325 4.75671 0.42755Z" fill="url(#paint0_linear_1591_39917)"/>
<defs>
<linearGradient id="paint0_linear_1591_39917" x1="-0.000385357" y1="0.93095" x2="4.95341" y2="0.93095" gradientUnits="userSpaceOnUse">
<stop offset="0.16" stop-color="#F3F7FC"/>
<stop offset="0.49" stop-color="#F8FAFE"/>
</linearGradient>
</defs>
</svg>
