<svg width="3" height="1" viewBox="0 0 3 1" fill="none" xmlns="http://www.w3.org/2000/svg">
<path d="M0.00141432 0.1215C-0.0143857 0.119 0.103914 0.0924003 0.270214 0.0620003C0.276614 0.0608003 0.283514 0.0600999 0.290514 0.0588999C0.528414 0.0252999 0.818114 0 1.19961 0C1.41911 0 1.62221 0.00950016 1.80881 0.0247002C1.88351 0.0304002 2.02841 0.0494001 2.14921 0.0696001C2.09791 0.2322 2.26311 0.5118 2.03531 0.9015C2.03091 0.9009 2.02521 0.8996 2.01821 0.8984C1.94861 0.8851 1.66331 0.8307 1.31851 0.8231C1.29831 0.8231 1.27741 0.8225 1.25651 0.8218C1.23571 0.8212 1.21351 0.8218 1.19141 0.8218C0.701714 0.8218 0.427114 0.8851 0.222814 0.9269C0.200714 0.9294 0.201914 0.9098 0.208914 0.9009C0.225314 0.88 0.242415 0.8686 0.242415 0.8686C0.242415 0.8686 0.226014 0.8642 0.220914 0.8408C0.215214 0.8161 0.239914 0.7883 0.239914 0.7883C0.239214 0.7883 0.229115 0.7858 0.210115 0.7257C0.178515 0.6257 0.140614 0.3676 0.143114 0.2619C0.145614 0.1563 0.203214 0.1051 0.203214 0.1051C0.203214 0.1051 0.0235143 0.1259 0.00141432 0.1215Z" fill="url(#paint0_linear_1591_39788)"/>
<defs>
<linearGradient id="paint0_linear_1591_39788" x1="0.000114319" y1="0.4631" x2="2.15991" y2="0.4631" gradientUnits="userSpaceOnUse">
<stop offset="0.16" stop-color="#E7ECF3"/>
<stop offset="0.49" stop-color="#EAEEF5"/>
</linearGradient>
</defs>
</svg>
