<svg width="5" height="2" viewBox="0 0 5 2" fill="none" xmlns="http://www.w3.org/2000/svg">
<path d="M4.73456 0.418663C4.59859 0.406647 4.20586 0.321903 4.20396 0.379453C4.20269 0.418663 4.80792 0.541985 4.71243 0.639378C4.58088 0.773451 4.53598 1.03591 4.53092 1.23638C4.52143 1.56145 4.64665 1.62406 4.60049 1.69679C4.57329 1.73979 4.36586 1.71386 4.00411 1.68287C3.5943 1.61015 3.14275 1.55006 2.695 1.55006C2.18906 1.55006 1.59648 1.6209 1.1247 1.71702C0.657338 1.81315 0.260177 1.8979 0.224129 1.84288C0.178595 1.77268 0.30255 1.72651 0.293696 1.41409C0.288004 1.22121 0.298122 0.999225 0.167844 0.868946C0.0653914 0.765862 0.592198 0.580562 0.589669 0.524909C0.586507 0.462932 0.308874 0.521748 0.172903 0.533764C0.0970125 0.54072 -0.0142941 0.572341 0.00151649 0.507834C0.625716 0.203007 1.68882 0 2.695 0C3.49438 0 4.28048 0.113203 4.93567 0.325697C4.93377 0.370599 4.79907 0.424987 4.73393 0.418663H4.73456Z" fill="url(#paint0_linear_1587_25600)"/>
<defs>
<linearGradient id="paint0_linear_1587_25600" x1="0.000251648" y1="0.930292" x2="4.93567" y2="0.930292" gradientUnits="userSpaceOnUse">
<stop offset="0.16" stop-color="#F1F4FB"/>
<stop offset="0.49" stop-color="#F6F9FD"/>
</linearGradient>
</defs>
</svg>
