<svg width="8" height="16" viewBox="0 0 8 16" fill="none" xmlns="http://www.w3.org/2000/svg">
<path d="M5.43791 11.8825C4.91236 13.0335 4.85102 14.6481 4.82003 15.5512C4.61639 15.5512 4.20468 15.5487 3.79108 15.5436C3.47613 15.5398 2.77478 15.5493 2.71154 15.5468C2.61857 15.543 2.60529 15.5215 2.5996 15.4734C2.58505 15.3532 2.66031 13.7627 1.93998 12.1835C1.49033 11.1982 0.951507 10.5234 0.528417 9.15677C-0.126772 7.04132 -0.0325408 3.02038 0.0382904 2.32978C0.122402 1.50257 0.278611 0.399628 2.71343 0.0429422C3.14538 -0.0209324 4.15915 -0.0633047 4.92311 0.0448394C5.10525 0.0714011 5.27537 0.101757 5.43285 0.135908C7.52363 0.58556 7.07208 4.30357 7.02086 5.1099C6.80773 8.46933 6.21958 10.1724 5.43854 11.8831L5.43791 11.8825Z" fill="url(#paint0_linear_1587_25508)"/>
<defs>
<linearGradient id="paint0_linear_1587_25508" x1="-0.0116709" y1="7.76481" x2="7.09611" y2="7.76481" gradientUnits="userSpaceOnUse">
<stop offset="0.16" stop-color="#FCFDFE"/>
<stop offset="0.52" stop-color="#FDFEFF"/>
</linearGradient>
</defs>
</svg>
