<svg width="6" height="2" viewBox="0 0 6 2" fill="none" xmlns="http://www.w3.org/2000/svg">
<path d="M5.38342 0.597006C5.24745 0.58499 5.00081 0.525542 4.99512 0.580562C4.98942 0.636216 5.47892 0.829736 5.38342 0.923335C5.25188 1.05235 5.2386 1.27876 5.23354 1.47164C5.22405 1.78406 5.36255 1.83149 5.31639 1.90106C5.28034 1.95608 4.87875 1.85236 4.41139 1.75687C3.89787 1.65188 3.29201 1.55006 2.695 1.55006C2.18906 1.55006 1.59648 1.6209 1.1247 1.71702C0.657337 1.81315 0.260176 1.8979 0.224128 1.84288C0.178594 1.77268 0.303181 1.72651 0.293695 1.41409C0.288636 1.22121 0.298121 0.999225 0.167843 0.868946C0.0653904 0.765862 0.592198 0.580562 0.589669 0.524909C0.586507 0.462932 0.308873 0.52238 0.172902 0.533764C0.0970116 0.54072 -0.014294 0.572341 0.0015165 0.507834C0.625716 0.203007 1.68882 0 2.695 0C3.76442 0 4.80918 0.201109 5.55481 0.570443C5.57125 0.635583 5.45995 0.60333 5.38342 0.597006Z" fill="white"/>
</svg>
