<svg width="7" height="16" viewBox="0 0 7 16" fill="none" xmlns="http://www.w3.org/2000/svg">
<path d="M5.40818 11.8656C4.88074 13.021 4.82635 14.645 4.79536 15.5507C4.59109 15.5507 4.19267 15.5481 3.79108 15.5431C3.47613 15.5393 2.77478 15.5488 2.71154 15.5462C2.61857 15.5425 2.60529 15.521 2.5996 15.4729C2.58505 15.3527 2.66031 13.7622 1.93998 12.183C1.49033 11.1977 0.951507 10.5229 0.528417 9.15626C-0.126772 7.04081 -0.0325408 3.01988 0.0382904 2.32927C0.122402 1.50206 0.278611 0.399121 2.71343 0.0424358C3.13526 -0.0195415 4.11678 -0.0619139 4.86873 0.0392735C5.03568 0.0633055 5.19126 0.091765 5.33609 0.122754C7.38134 0.554697 6.98987 4.03618 6.95129 4.81342C6.79382 7.98691 6.25816 10.005 5.40881 11.8662L5.40818 11.8656Z" fill="url(#paint0_linear_3091_43867)"/>
<defs>
<linearGradient id="paint0_linear_3091_43867" x1="-0.0116709" y1="7.7643" x2="7.00568" y2="7.7643" gradientUnits="userSpaceOnUse">
<stop offset="0.16" stop-color="#F8FAFD"/>
<stop offset="0.52" stop-color="#FBFCFE"/>
</linearGradient>
</defs>
</svg>
