<svg width="24" height="5" viewBox="0 0 24 5" fill="none" xmlns="http://www.w3.org/2000/svg">
<path d="M11.4118 1.08409C11.0573 1.08409 10.7133 1.25611 10.4969 1.53587C10.2738 1.25138 9.9345 1.08409 9.57723 1.08409C8.92696 1.08409 8.39768 1.61338 8.39768 2.26364V4.16434H8.91562V2.26364C8.91562 1.88842 9.2124 1.58408 9.57723 1.58408C9.94206 1.58408 10.2388 1.89503 10.2388 2.26364L10.2332 3.49895C10.2332 3.64073 10.3466 3.75226 10.4921 3.75226C10.6377 3.75226 10.7511 3.64073 10.7511 3.49895V2.26364C10.7511 1.88842 11.0479 1.58408 11.4127 1.58408C11.7775 1.58408 12.0743 1.89503 12.0743 2.26364V3.94129C12.0743 4.08306 12.1877 4.19459 12.3333 4.19459C12.4788 4.19459 12.5923 4.08306 12.5923 3.94129V2.26364C12.5923 1.61338 12.063 1.08409 11.4127 1.08409H11.4118ZM7.7701 1.91015L7.29752 2.13888L7.31926 2.18141C7.38731 2.31752 7.42323 2.48008 7.42323 2.65115C7.42323 3.25321 6.95727 3.7239 6.36182 3.7239C5.76637 3.7239 5.29474 3.25227 5.29474 2.65115C5.29474 2.05003 5.76354 1.57746 6.36182 1.57746C6.66521 1.57746 6.88921 1.70033 7.02343 1.80335C7.08297 1.84966 7.14724 1.87424 7.20962 1.87424C7.35707 1.87424 7.45631 1.74381 7.45631 1.62094C7.45631 1.54816 7.42134 1.47444 7.36085 1.42151C7.16993 1.26272 6.7947 1.07747 6.36182 1.07747C5.47716 1.07747 4.7579 1.7835 4.7579 2.65115C4.7579 3.5188 5.47716 4.22483 6.36182 4.22483C7.24648 4.22483 7.95913 3.5188 7.95913 2.65115C7.95913 2.41014 7.90242 2.17574 7.79089 1.95174L7.7701 1.91015ZM4.20498 1.14458L3.30803 3.37325L2.61996 1.85533C2.57743 1.76933 2.48953 1.71451 2.39596 1.71451C2.30239 1.71451 2.21638 1.76176 2.17763 1.83927L1.49618 3.37325L0.581269 1.14458H0L1.27596 4.09251C1.3062 4.16812 1.40072 4.22483 1.49523 4.22483C1.57746 4.22483 1.68143 4.18324 1.71451 4.09345L2.39218 2.52734L3.0812 4.0944C3.11239 4.16434 3.21163 4.22578 3.29386 4.22578C3.3931 4.22578 3.47533 4.17663 3.51313 4.0944L4.78909 1.14552H4.20687L4.20498 1.14458ZM18.1157 1.08409C17.2604 1.08409 16.6148 1.73719 16.6148 2.60295V4.16434H17.1328V2.60295C17.1328 1.99333 17.542 1.58408 18.1516 1.58408C18.7093 1.58408 19.1459 2.02924 19.1459 2.59728V3.47532C19.1459 3.61615 19.265 3.7343 19.4049 3.7343C19.5448 3.7343 19.6639 3.61521 19.6639 3.47532V2.59728C19.6639 1.70695 19.0269 1.08409 18.1148 1.08409H18.1157ZM22.1137 2.41014H21.7659C21.4654 2.41014 21.2858 2.25324 21.2858 1.99144C21.2858 1.72963 21.5466 1.56612 21.9351 1.56612C22.2791 1.56612 22.4804 1.67481 22.5693 1.73908C22.6099 1.76932 22.6619 1.78634 22.7111 1.78634C22.8443 1.78634 22.9521 1.68048 22.9521 1.551C22.9521 1.46971 22.9162 1.39788 22.8547 1.35346C22.6562 1.21169 22.437 1.08314 21.9351 1.08314C21.2517 1.08314 20.7555 1.46499 20.7555 1.99049C20.7555 2.516 21.1525 2.89122 21.7659 2.89122H22.1137C22.3283 2.89122 22.5844 2.96116 22.5844 3.29197C22.5844 3.55661 22.3226 3.74186 21.9474 3.74186C21.5986 3.74186 21.3085 3.64451 21.0627 3.44319L21.0287 3.41578L20.6856 3.78156L20.7253 3.81369C21.0514 4.07833 21.4852 4.22389 21.9483 4.22389C22.6468 4.22389 23.1156 3.84961 23.1156 3.29291C23.1156 2.76457 22.713 2.41014 22.1147 2.41014H22.1137ZM20.8907 0.241013C20.8907 0.105856 20.7792 0 20.6374 0C20.54 0 20.4559 0.0604899 20.4125 0.162566L19.9021 1.42056H20.4342L20.8699 0.348761C20.8831 0.316626 20.8916 0.274095 20.8916 0.24007L20.8907 0.241013ZM14.6338 1.08409C13.7491 1.08409 13.0299 1.78728 13.0299 2.65115C13.0299 3.51502 13.7491 4.22483 14.6338 4.22483C15.1555 4.22483 15.6413 3.94979 15.9334 3.48856L15.9589 3.44886L15.5128 3.16626L15.4892 3.21163C15.3238 3.52353 14.9892 3.72579 14.6347 3.72579C14.0459 3.72579 13.5677 3.24471 13.5677 2.65304C13.5677 2.06138 14.0459 1.58597 14.6347 1.58597C15.1026 1.58597 15.4977 1.91772 15.612 2.39974H14.6045C14.4674 2.39974 14.3635 2.5056 14.3635 2.64643C14.3635 2.78725 14.4693 2.88744 14.6045 2.88744H16.1782V2.6521C16.1782 1.78823 15.4863 1.08504 14.6347 1.08504L14.6338 1.08409Z" fill="#5EC4E7"/>
</svg>
