<svg width="7" height="16" viewBox="0 0 7 16" fill="none" xmlns="http://www.w3.org/2000/svg">
<path d="M5.20011 11.7521C4.66003 12.9353 4.65054 14.6302 4.62018 15.5504C4.41338 15.5498 4.10286 15.5472 3.79108 15.5434C3.47613 15.5396 2.77478 15.5491 2.71154 15.5466C2.61857 15.5428 2.60529 15.5213 2.5996 15.4732C2.58505 15.3531 2.66031 13.7625 1.93998 12.1834C1.49033 11.1981 0.951507 10.5233 0.528417 9.15661C-0.126772 7.04116 -0.0325408 3.02023 0.0382904 2.32962C0.122402 1.50241 0.278611 0.399471 2.71343 0.0427852C3.06759 -0.00907336 3.82207 -0.0470188 4.48611 0.00610464C4.54746 0.0149585 4.60374 0.025077 4.65686 0.0364606C6.38337 0.343817 6.40677 2.16582 6.46496 2.74259C6.65089 4.60634 6.53136 8.83787 5.20075 11.7527L5.20011 11.7521Z" fill="url(#paint0_linear_3091_43888)"/>
<defs>
<linearGradient id="paint0_linear_3091_43888" x1="-0.0116709" y1="7.76528" x2="6.53326" y2="7.76528" gradientUnits="userSpaceOnUse">
<stop offset="0.16" stop-color="#D9E4F5"/>
<stop offset="0.52" stop-color="#E8EFFB"/>
</linearGradient>
</defs>
</svg>
