<svg width="5" height="2" viewBox="0 0 5 2" fill="none" xmlns="http://www.w3.org/2000/svg">
<path d="M4.63147 0.381982C4.4955 0.369334 4.13692 0.304827 4.13376 0.362377C4.13123 0.407912 4.71812 0.522379 4.62262 0.619772C4.49108 0.753846 4.44617 1.00555 4.44111 1.20603C4.43163 1.53109 4.55685 1.5937 4.51068 1.66643C4.48159 1.7126 4.26846 1.69046 3.85802 1.65884C3.48995 1.59813 3.0909 1.55006 2.695 1.55006C2.18906 1.55006 1.59648 1.6209 1.1247 1.71702C0.657337 1.81315 0.260176 1.8979 0.224128 1.84288C0.178594 1.77268 0.302549 1.72651 0.293695 1.41409C0.288003 1.22121 0.298121 0.999225 0.167843 0.868946C0.0653904 0.765862 0.592198 0.580562 0.589669 0.524909C0.586507 0.462932 0.308873 0.521748 0.172902 0.533764C0.0970116 0.54072 -0.014294 0.572341 0.0015165 0.507834C0.625716 0.203007 1.68882 0 2.695 0C3.46276 0 4.21724 0.104349 4.85535 0.301032C4.86357 0.333918 4.69598 0.387674 4.63211 0.381982H4.63147Z" fill="url(#paint0_linear_3091_43965)"/>
<defs>
<linearGradient id="paint0_linear_3091_43965" x1="-0.000380774" y1="0.930292" x2="4.85535" y2="0.930292" gradientUnits="userSpaceOnUse">
<stop offset="0.16" stop-color="#E4EBF8"/>
<stop offset="0.49" stop-color="#EFF4FC"/>
</linearGradient>
</defs>
</svg>
