<svg width="6" height="5" viewBox="0 0 6 5" fill="none" xmlns="http://www.w3.org/2000/svg">
<path d="M5.0706 4.35694C5.1961 4.51486 5.3541 4.58774 5.3611 4.58774L5.3541 4.61406H4.3053C4.1403 4.61406 3.9956 4.51486 3.9429 4.37718L3.62 3.55925H1.7412L1.4182 4.37718C1.3656 4.51587 1.2208 4.61406 1.0558 4.61406H0.00710011L0 4.58774C0.0071 4.58774 0.165 4.51486 0.2905 4.35694C0.3897 4.2385 0.514301 3.98745 0.560801 3.8761L2.1764 0H3.1847L4.8003 3.8761C4.8469 3.98846 4.9714 4.2385 5.0706 4.35694ZM3.2971 2.73524L2.6836 1.18642H2.6765L2.0631 2.73524H3.2961H3.2971Z" fill="white"/>
</svg>
