<svg width="5" height="2" viewBox="0 0 5 2" fill="none" xmlns="http://www.w3.org/2000/svg">
<path d="M4.65487 0.390204C4.5189 0.378188 4.15273 0.308621 4.14957 0.366172C4.14704 0.409809 4.73835 0.526807 4.64286 0.6242C4.51131 0.758273 4.46641 1.01251 4.46135 1.21298C4.45187 1.53805 4.57708 1.60066 4.53092 1.67339C4.50246 1.71892 4.2906 1.69552 3.89091 1.66453C3.51335 1.60066 3.10228 1.55006 2.695 1.55006C2.18906 1.55006 1.59648 1.6209 1.1247 1.71702C0.657338 1.81315 0.260177 1.8979 0.224129 1.84288C0.178595 1.77268 0.30255 1.72651 0.293696 1.41409C0.288004 1.22121 0.298122 0.999225 0.167844 0.868946C0.0653913 0.765862 0.592198 0.580562 0.589669 0.524909C0.586506 0.462932 0.308874 0.521748 0.172903 0.533764C0.0970125 0.54072 -0.014294 0.572341 0.00151649 0.507834C0.625716 0.203007 1.68882 0 2.695 0C3.46972 0 4.23115 0.106246 4.87306 0.306724C4.87875 0.342139 4.71875 0.395896 4.65487 0.390204Z" fill="url(#paint0_linear_3091_43963)"/>
<defs>
<linearGradient id="paint0_linear_3091_43963" x1="0.000251648" y1="0.930292" x2="4.87369" y2="0.930292" gradientUnits="userSpaceOnUse">
<stop offset="0.16" stop-color="#E6EDF9"/>
<stop offset="0.49" stop-color="#F0F5FC"/>
</linearGradient>
</defs>
</svg>
