<svg width="3" height="1" viewBox="0 0 3 1" fill="none" xmlns="http://www.w3.org/2000/svg">
<path d="M0.00141698 0.121467C-0.014399 0.118936 0.103905 0.0923652 0.270289 0.0619985C0.276615 0.0607332 0.283575 0.0601003 0.290534 0.0588351C0.528407 0.0253051 0.818155 0 1.19964 0C1.41727 0 1.61781 0.00948956 1.80444 0.0246729C1.87909 0.0303667 2.02207 0.0487131 2.14227 0.0689575C2.09039 0.229648 2.25551 0.518132 2.02903 0.900879C2.0246 0.900246 2.01891 0.898982 2.01195 0.897716C1.94489 0.885064 1.66526 0.831288 1.31794 0.823697C1.2977 0.823697 1.27682 0.823065 1.25594 0.822432C1.23507 0.8218 1.21356 0.822432 1.19141 0.822432C0.701749 0.822432 0.427184 0.885696 0.222841 0.927451C0.200699 0.929981 0.201964 0.910369 0.208923 0.901512C0.225371 0.880635 0.242453 0.869247 0.242453 0.869247C0.242453 0.869247 0.226004 0.864819 0.220943 0.841412C0.215249 0.816739 0.239923 0.788902 0.239923 0.788902C0.23929 0.788902 0.229168 0.786371 0.210188 0.726271C0.178556 0.626313 0.140598 0.368196 0.143129 0.262545C0.145659 0.156894 0.203229 0.105651 0.203229 0.105651C0.203229 0.105651 0.0241926 0.126528 0.00205024 0.122099L0.00141698 0.121467Z" fill="url(#paint0_linear_3091_43818)"/>
<defs>
<linearGradient id="paint0_linear_3091_43818" x1="0.000151698" y1="0.463093" x2="2.15239" y2="0.463093" gradientUnits="userSpaceOnUse">
<stop offset="0.16" stop-color="#E4EAF2"/>
<stop offset="0.49" stop-color="#E8EDF4"/>
</linearGradient>
</defs>
</svg>
