<svg width="5" height="1" viewBox="0 0 5 1" fill="none" xmlns="http://www.w3.org/2000/svg">
<path d="M1.59522 0.0917009C1.96455 0.0360478 2.37057 0.00316211 2.81643 0C2.84235 0 2.86828 0 2.89485 0C3.31288 0 3.69612 0.0278261 4.04775 0.0746253C4.06988 0.0777874 4.09139 0.080317 4.11352 0.0834791C4.16728 0.0910682 4.2204 0.09929 4.27289 0.107511C4.28807 0.110041 4.30325 0.112571 4.31779 0.1151C4.31843 0.1151 4.31906 0.1151 4.31969 0.1151C4.99006 0.295973 5.16081 0.452181 4.49803 0.395263C4.44301 0.38388 4.38673 0.374394 4.33171 0.364907C4.25771 0.352259 4.18309 0.340875 4.10846 0.330756C2.80314 0.152413 1.41435 0.266249 0.239941 0.662145C-0.0636216 0.764598 -0.0806968 0.706415 0.197569 0.546412C0.581448 0.326962 1.1032 0.184034 1.59585 0.0917009H1.59522Z" fill="url(#paint0_linear_1587_25667)"/>
<defs>
<linearGradient id="paint0_linear_1587_25667" x1="-0.00101176" y1="0.356686" x2="4.9167" y2="0.356686" gradientUnits="userSpaceOnUse">
<stop offset="0.16" stop-color="#CEDBF2"/>
<stop offset="0.49" stop-color="#E1EAFA"/>
</linearGradient>
</defs>
</svg>
