<svg width="6" height="1" viewBox="0 0 6 1" fill="none" xmlns="http://www.w3.org/2000/svg">
<path d="M1.59648 0.0916996C1.97598 0.0341496 2.39458 0.00127 2.85438 0C2.88158 0 2.90818 0 2.93528 0C3.36728 0.0019 3.76188 0.0322598 4.12238 0.0841198C4.14448 0.0872798 4.16728 0.0904397 4.18938 0.0942297C4.24508 0.10246 4.29948 0.111309 4.35318 0.121429C4.36898 0.123959 4.38418 0.12712 4.39938 0.13028C4.39998 0.13028 4.40068 0.13028 4.40128 0.13028C5.17658 0.34025 5.57378 0.590679 4.60678 0.417399C4.55058 0.405379 4.49358 0.394 4.43668 0.38388C4.36338 0.36997 4.28938 0.357949 4.21468 0.347199C2.87908 0.144829 1.44658 0.2555 0.239983 0.66278C-0.0636171 0.76523 -0.0807174 0.707049 0.197583 0.54705C0.581483 0.3276 1.10378 0.18403 1.59648 0.0916996Z" fill="url(#paint0_linear_1591_39966)"/>
<defs>
<linearGradient id="paint0_linear_1591_39966" x1="0.000282722" y1="0.35669" x2="5.17598" y2="0.35669" gradientUnits="userSpaceOnUse">
<stop offset="0.16" stop-color="#E8EEF9"/>
<stop offset="0.49" stop-color="#F1F5FC"/>
</linearGradient>
</defs>
</svg>
