<svg width="2" height="1" viewBox="0 0 2 1" fill="none" xmlns="http://www.w3.org/2000/svg">
<path d="M0.00141698 0.121467C-0.014399 0.118936 0.103905 0.0910999 0.270289 0.0619985C0.276615 0.0607332 0.282942 0.0601003 0.290534 0.0588351C0.528407 0.0253051 0.818156 0 1.19964 0C1.36286 0 1.51786 0.00316328 1.68108 0.0139182C1.76522 0.0196119 1.85695 0.0278355 1.95185 0.0398557C1.89175 0.156261 2.04991 0.67566 1.85948 0.866084C1.85442 0.865452 1.84999 0.864819 1.8443 0.864187C1.83924 0.862921 1.70955 0.827493 1.29137 0.823064C1.27555 0.823064 1.25974 0.823064 1.24329 0.823064C1.22621 0.823064 1.20849 0.823064 1.19078 0.823064C0.701117 0.823064 0.426551 0.886329 0.222209 0.928083C0.200066 0.930614 0.201332 0.911001 0.208291 0.902144C0.224739 0.881267 0.24182 0.86988 0.24182 0.86988C0.24182 0.86988 0.225372 0.865452 0.220311 0.842044C0.214617 0.817371 0.236127 0.79333 0.236127 0.79333C0.235494 0.79333 0.228535 0.787004 0.209556 0.726903C0.177924 0.626946 0.139965 0.368829 0.142495 0.263179C0.145026 0.157528 0.202597 0.106283 0.202597 0.106283C0.202597 0.106283 0.0235594 0.127161 0.00141698 0.122732V0.121467Z" fill="url(#paint0_linear_1587_25487)"/>
<defs>
<linearGradient id="paint0_linear_1587_25487" x1="-0.000480943" y1="0.463092" x2="1.95691" y2="0.463092" gradientUnits="userSpaceOnUse">
<stop offset="0.16" stop-color="#A7BBD5"/>
<stop offset="0.49" stop-color="#B5C3DB"/>
</linearGradient>
</defs>
</svg>
