<svg width="5" height="2" viewBox="0 0 5 2" fill="none" xmlns="http://www.w3.org/2000/svg">
<path d="M4.50752 0.337081C4.37155 0.325065 4.05407 0.283325 4.04901 0.340875C4.04459 0.393366 4.60934 0.498348 4.51384 0.595741C4.3823 0.729814 4.3374 0.968869 4.33234 1.16935C4.32285 1.49441 4.44807 1.55765 4.40191 1.62975C4.37028 1.67971 4.1502 1.662 3.68031 1.63038C3.36284 1.58358 3.02829 1.55006 2.695 1.55006C2.18906 1.55006 1.59648 1.6209 1.1247 1.71702C0.657337 1.81315 0.260177 1.8979 0.224129 1.84288C0.178595 1.77268 0.302549 1.72651 0.293695 1.41409C0.288003 1.22121 0.298122 0.999225 0.167844 0.868946C0.0653914 0.765862 0.592198 0.580562 0.589669 0.524909C0.586507 0.462932 0.308874 0.521748 0.172903 0.533764C0.0970125 0.54072 -0.0142941 0.572341 0.00151649 0.507834C0.625716 0.203007 1.68882 0 2.695 0C3.42292 0 4.14008 0.0942304 4.75669 0.271308C4.77693 0.289649 4.56886 0.342773 4.50625 0.337081H4.50752Z" fill="url(#paint0_linear_1587_25620)"/>
<defs>
<linearGradient id="paint0_linear_1587_25620" x1="0.000884069" y1="0.930292" x2="4.75922" y2="0.930292" gradientUnits="userSpaceOnUse">
<stop offset="0.16" stop-color="#D4DFF4"/>
<stop offset="0.49" stop-color="#E5EDFA"/>
</linearGradient>
</defs>
</svg>
