<svg width="15" height="33" viewBox="0 0 15 33" fill="none" xmlns="http://www.w3.org/2000/svg">
<path d="M9.0323 23.8695C6.1959 23.5545 3.8167 24.7821 3.3291 26.2265C2.715 28.0441 3.8932 30.3613 5.9302 31.8899C8.9753 34.1748 11.5974 32.6007 12.718 29.9053C13.1626 28.8359 14.0929 24.4317 9.0323 23.8695ZM9.9758 28.8492C9.5135 29.9888 8.5017 30.2791 7.1812 29.5398C6.5298 29.1749 5.4015 28.3445 5.8556 27.2504C6.1225 26.6079 6.8997 26.0203 8.4814 26.4782C10.4419 27.0461 10.2143 28.2617 9.9758 28.8492ZM13.9196 16.0565L3.8091 17.021C3.8793 17.6812 3.9166 18.3548 3.9343 19.0492L7.3899 18.8873C7.4031 19.1965 7.4209 19.433 7.4253 19.7442C6.3533 20.5366 4.8191 21.0691 3.94 21.1716C3.9299 21.9899 3.909 22.6932 3.8306 23.3699C4.7337 23.3148 6.9042 23.0556 7.7756 22.358C8.5074 23.2832 9.9208 23.5084 10.7132 23.5786C12.0072 23.6943 13.9892 23.4831 14.0878 21.4296C14.11 20.9667 14.1877 18.0524 13.9196 16.0565ZM10.6728 20.813C10.0353 20.7795 9.7475 20.5619 9.7469 20.2425C9.7463 19.7499 9.7456 19.2414 9.7279 18.7405L11.6119 18.6836C11.6227 18.948 11.6321 20.2457 11.6321 20.2457C11.6321 20.5682 11.2647 20.8446 10.6728 20.813ZM13.2942 12.2209L8.5757 13.3213C7.3962 13.5914 6.5228 13.4725 6.3426 12.6693C6.1263 11.7049 7.0218 11.3615 7.8496 10.9428C9.1075 10.3066 12.3424 9.12774 12.3424 9.12774C11.9313 8.07982 11.4627 6.90857 10.829 6.01939C7.3405 8.20124 5.6147 9.5268 4.7394 10.17C4.3644 10.4451 2.4241 11.7485 3.2791 14.0878C3.9312 15.8731 6.199 15.8712 7.1211 15.8656C9.2625 15.8523 13.8007 15.0542 13.8007 15.0542C13.6831 14.1251 13.52 13.1809 13.2942 12.2209ZM8.0236 6.7745L10.1694 5.16119C8.422 2.77949 5.2788 0.295973 0.623 0L0 9.5717C0.6052 9.7064 1.767 10.2636 2.3773 11.0212L4.2493 9.61344C3.5884 8.735 2.7637 8.15507 1.8347 7.80471L2.2261 6.7726C3.362 7.19885 4.3795 7.92867 5.1391 8.94434L7.2292 7.37277C6.4083 6.25465 4.9898 4.90949 3.1786 4.26315L3.5308 3.33413C4.4365 3.67627 6.323 4.5294 8.0236 6.7745Z" fill="#FC0064"/>
</svg>
