<svg width="2" height="1" viewBox="0 0 2 1" fill="none" xmlns="http://www.w3.org/2000/svg">
<path d="M0.233715 0.0703537C0.233715 0.0703537 0.274837 0.114638 0.341264 0.12223C0.445649 0.13425 0.925191 0.141842 0.978965 0.160188C1.05805 0.187392 1.251 0.222187 1.32312 0.230412C1.38385 0.237371 1.468 0.241799 1.50342 0.264574C1.5572 0.298736 1.65652 0.429693 1.69385 0.494855C1.68562 0.396163 1.65716 0.28039 1.63311 0.200677C1.58883 0.0532722 1.56352 0.0450475 1.56352 0.0450475C1.56352 0.0450475 0.677828 0.00898754 0.299509 0.00013058C0.172981 -0.00303262 -0.00795358 0.0520075 0.000270741 0.0855374C0.0787181 0.0709867 0.233715 0.0703537 0.233715 0.0703537Z" fill="#98ADBE"/>
</svg>
