<svg width="1" height="3" viewBox="0 0 1 3" fill="none" xmlns="http://www.w3.org/2000/svg">
<path d="M0.6092 0.00189972C0.6092 0.00189972 0.6048 0.00189972 0.6029 0.00189972C0.5814 0.00689972 0.555399 0.0265003 0.526299 0.0613003C0.438999 0.167 0.3751 0.3017 0.3315 0.4732C0.3011 0.5953 0.0246997 2.2148 0.00819969 2.8177C0.00819969 2.8177 0 2.8177 0 2.8171C0.0158 2.2136 0.2929 0.5953 0.3233 0.4732C0.3669 0.3017 0.4308 0.167 0.5181 0.0613003C0.5498 0.0227003 0.5795 0.00119891 0.6023 0.000598907C0.6035 0.000598907 0.6042 0 0.6048 0C0.6061 0 0.608 0.000699719 0.6092 0.00189972Z" fill="url(#paint0_linear_1591_40100)"/>
<defs>
<linearGradient id="paint0_linear_1591_40100" x1="0" y1="1.4095" x2="0.6092" y2="1.4095" gradientUnits="userSpaceOnUse">
<stop stop-color="#CFDAED"/>
<stop offset="0.19" stop-color="#C6D3E9"/>
<stop offset="0.62" stop-color="#B8C8E4"/>
<stop offset="1" stop-color="#B4C5E3"/>
</linearGradient>
</defs>
</svg>
