<svg width="3" height="4" viewBox="0 0 3 4" fill="none" xmlns="http://www.w3.org/2000/svg">
<path d="M0.188897 0.208872C0.22874 0.196224 0.308425 0.181678 0.369138 0.174722C0.441234 0.1665 0.634123 0.131717 0.713175 0.104523C0.75365 0.0906095 0.797919 0.035589 0.807405 0.0147191C0.816892 -0.00615084 0.825746 -0.00362115 0.825113 0.0147191C0.825113 0.0147191 0.788433 0.105155 0.806141 0.113377C0.823849 0.121598 0.871912 0.0710048 0.917446 0.065313C1.13057 0.0406485 1.26022 0.0779607 1.35129 0.0665771C1.41769 0.0589881 1.4588 0.014087 1.4588 0.014087C1.4588 0.014087 1.49674 0.0185131 1.49674 0.0419127C1.49674 0.0653123 1.46512 0.0773287 1.42338 0.104523C1.37342 0.136776 1.25516 0.172824 1.10338 0.18231C1.03381 0.186737 0.9497 0.20318 0.923771 0.198121C0.897841 0.193062 0.883929 0.153851 0.851676 0.154484C0.819422 0.155116 0.787168 0.204446 0.716337 0.205711C0.326133 0.2133 0.176249 0.395437 0.00296526 0.67813C-0.00146169 0.609828 -0.00209372 0.509272 0.00928986 0.438441C0.0326895 0.36508 0.145892 0.256936 0.190161 0.20824L0.188897 0.208872ZM1.41832 0.371405C1.56188 0.24998 1.57643 0.259466 1.849 0.14563C1.9875 0.0880794 1.79715 0.06721 1.67698 0.0621507C1.54165 0.0564589 1.39176 0.271482 1.33864 0.363183C1.32789 0.440338 1.36836 0.414409 1.41832 0.371405ZM2.12031 0.409982C2.10324 0.415674 2.08426 0.424528 2.06403 0.435279C2.06339 0.435279 2.06276 0.435912 2.06213 0.435912C1.98244 0.488403 1.91351 0.553542 1.84584 0.619946C1.83952 0.629432 1.83509 0.638287 1.83193 0.647141C1.81865 0.681924 1.85406 0.657891 1.91288 0.614254C1.97233 0.570617 2.04189 0.515597 2.1494 0.456149C2.25881 0.396069 2.20822 0.378994 2.12031 0.409982ZM0.937051 0.56366C0.887722 0.585795 0.816259 0.557969 0.767563 0.554807C0.768195 0.553542 0.842821 0.400496 0.882664 0.396701C0.911123 0.394172 0.940214 0.402393 0.945906 0.43275C0.951598 0.463106 0.957921 0.480814 0.980688 0.457414C1.00346 0.433382 1.05595 0.43022 1.09769 0.463106C1.12109 0.481446 1.16409 0.504846 1.15966 0.559234C1.09263 0.655362 0.985747 0.541526 0.937051 0.56366ZM1.8275 0.607298C1.79335 0.6054 1.70039 0.585163 1.56505 0.559866C1.41074 0.531407 1.33611 0.609195 1.22354 0.52951C1.20899 0.551645 1.19761 0.578207 1.18559 0.600974C1.17168 0.626903 1.1584 0.652199 1.14512 0.674334C1.14512 0.674334 1.25073 0.737576 1.36267 0.67054C1.42718 0.63133 1.70165 0.662951 1.75288 0.686983C1.75983 0.679394 1.80537 0.6288 1.8275 0.607298ZM2.45107 2.33571C2.4302 2.15736 2.63131 2.08653 2.57249 1.98977C2.52822 1.97839 2.48395 1.967 2.43905 1.95499C2.42957 1.95246 2.42008 1.94993 2.41059 1.9474C2.40806 1.94677 2.4049 1.94677 2.40174 1.94613C2.37265 2.01444 2.37265 2.12258 2.37265 2.15547C2.37265 2.41349 2.43716 2.39009 2.45044 2.53555C2.4283 2.52606 2.40617 2.51848 2.3853 2.51152C2.36759 2.50519 2.34545 2.58741 2.36632 2.64749C2.42324 2.81445 2.41123 2.99089 2.3853 3.11232C2.4087 3.12876 2.43905 3.15026 2.43905 3.15026C2.4517 3.01556 2.49534 2.90868 2.46878 2.74804C2.45613 2.66962 2.56554 2.61144 2.53265 2.57603C2.55605 2.58804 2.57755 2.60006 2.58451 2.60638C2.60854 2.50519 2.45866 2.39262 2.45233 2.33634L2.45107 2.33571ZM2.43589 1.9493C2.43589 1.9493 2.43905 1.94866 2.44032 1.9493C2.47826 1.95183 2.51621 1.95625 2.55352 1.96384C2.57123 1.95815 2.57755 1.94487 2.57312 1.93475C2.55984 1.90439 2.52569 1.90756 2.46561 1.8108C2.44917 1.78423 2.42008 1.68937 2.42577 1.60146C2.42957 1.54202 2.48838 1.55656 2.53139 1.46866C2.54087 1.44968 2.52886 1.41364 2.47067 1.41427C2.43715 1.413 2.38909 1.41047 2.34166 1.413C2.34419 1.413 2.34672 1.41237 2.34925 1.41174C2.39225 1.40541 2.43526 1.40099 2.47826 1.39972C2.48459 1.39403 2.48648 1.38707 2.48459 1.37885C2.47384 1.33838 2.37075 1.35166 2.2936 1.22581C2.23921 1.13727 2.17533 1.06454 2.30498 0.999399C2.34419 0.979794 2.45423 0.90833 2.36316 0.896947C2.29043 0.91339 2.22087 0.937422 2.1532 0.968411C2.13233 0.976632 2.11146 0.986751 2.09122 0.996869C2.06656 1.03861 2.09691 1.07529 2.12031 1.12082C2.1317 1.14359 2.18292 1.22328 2.21075 1.26565C2.23858 1.30739 2.32522 1.36431 2.33534 1.38771C2.34103 1.40162 2.33723 1.40984 2.33534 1.413C2.31383 1.41427 2.29233 1.4168 2.27336 1.42059C2.2449 1.44715 2.30182 1.50976 2.30308 1.53759C2.30435 1.57996 2.3151 1.61285 2.32206 1.67483C2.32901 1.7406 2.35241 1.78866 2.37644 1.82661C2.42767 1.90629 2.44727 1.91388 2.43589 1.9493ZM2.13043 0.95766C2.13612 0.95513 2.14181 0.951968 2.14751 0.949438C2.18419 0.930465 2.22277 0.914654 2.26261 0.902638C2.14751 0.763506 1.96916 0.91086 1.76552 0.697101C1.75477 0.70722 1.74402 0.717339 1.73327 0.726825C1.71366 0.743901 1.68268 0.770462 1.67445 0.778051C1.67319 0.779316 1.67192 0.779949 1.67192 0.780581C1.71619 0.77236 1.82687 0.925406 1.95841 0.929833C1.99636 0.931098 2.07794 0.924141 2.11272 0.941216C2.11841 0.944378 2.12474 0.950703 2.13043 0.95766Z" fill="#B6C8DB"/>
</svg>
