<svg width="21" height="24" viewBox="0 0 21 24" fill="none" xmlns="http://www.w3.org/2000/svg">
<path d="M11.8171 0L7.33882 1.25894L9.93744 12.2746L11.8171 0ZM6.82415 21.6189L6.18754 23.5886H14.6222L13.9966 21.6189H6.82415ZM7.13284 20.6631H13.6928L11.906 15.0364L15.4763 1.79063L12.8821 0.133474L10.0599 16.4332L6.46273 1.84336L5.93213 3.59555L8.88942 15.227L7.13284 20.6631Z" fill="white"/>
<path d="M1.90818 16.5276V9.49909L5.37135 6.03536L4.75891 3.94922L0 8.70868V17.318L5.20547 22.524L5.91678 20.5362L1.90818 16.5276Z" fill="#FF6900"/>
<path d="M18.8777 16.5276V9.49909L15.4145 6.03536L16.0275 3.94922L20.7859 8.70868V17.318L15.5804 22.524L14.8696 20.5362L18.8777 16.5276Z" fill="#FF6900"/>
</svg>
