<svg width="2" height="1" viewBox="0 0 2 1" fill="none" xmlns="http://www.w3.org/2000/svg">
<path d="M1.84621 0.863C1.84111 0.8623 1.83671 0.8617 1.83101 0.8611C1.83101 0.8611 1.69561 0.8218 1.19071 0.8218C0.685914 0.8218 0.426514 0.8851 0.222214 0.9269C0.200014 0.9294 0.201314 0.9098 0.208214 0.9009C0.224714 0.88 0.241814 0.8686 0.241814 0.8686C0.241814 0.8686 0.225314 0.8642 0.220314 0.8408C0.214614 0.8161 0.236114 0.7927 0.236114 0.7927C0.236114 0.7927 0.228514 0.7858 0.209514 0.7257C0.177914 0.6257 0.139914 0.3676 0.142514 0.2619C0.145614 0.1544 0.202614 0.1051 0.202614 0.1051C0.202614 0.1051 0.0235143 0.1259 0.00141432 0.1215C-0.0143857 0.119 0.103914 0.0911003 0.270214 0.0620003C0.276614 0.0608003 0.282914 0.0600999 0.290514 0.0588999C0.528414 0.0252999 0.818114 0 1.19961 0C1.44131 0 1.66651 0.00570025 1.93661 0.0374002C1.87591 0.1506 2.03341 0.6883 1.84621 0.863Z" fill="url(#paint0_linear_1591_39816)"/>
<defs>
<linearGradient id="paint0_linear_1591_39816" x1="-0.000485681" y1="0.4631" x2="1.94101" y2="0.4631" gradientUnits="userSpaceOnUse">
<stop offset="0.16" stop-color="#A2B7D3"/>
<stop offset="0.49" stop-color="#B1C0D9"/>
</linearGradient>
</defs>
</svg>
