<svg width="4" height="4" viewBox="0 0 4 4" fill="none" xmlns="http://www.w3.org/2000/svg">
<path d="M1.66929 0.5203C1.98513 0.5203 2.21795 0.648899 2.35765 0.756199C2.4194 0.804799 2.48621 0.830099 2.55201 0.830099C2.70588 0.830099 2.80914 0.6935 2.80914 0.5669C2.80914 0.491 2.7727 0.4141 2.70993 0.3584C2.51152 0.1934 2.11976 0 1.66929 0C0.74911 0 0 0.734999 0 1.6379C0 2.5409 0.74911 3.2758 1.66929 3.2758C2.58947 3.2758 3.3325 2.5409 3.3325 1.6379C3.3325 1.3879 3.27378 1.1429 3.15737 0.910099L3.13611 0.8666L2.64413 1.1044L2.6664 1.149C2.73726 1.2907 2.77472 1.4598 2.77472 1.6379C2.77472 2.2645 2.28983 2.7555 1.6703 2.7555C1.05077 2.7555 0.55879 2.2645 0.55879 1.6379C0.55879 1.0113 1.04672 0.5203 1.6703 0.5203H1.66929Z" fill="white"/>
</svg>
