<svg width="5" height="2" viewBox="0 0 5 2" fill="none" xmlns="http://www.w3.org/2000/svg">
<path d="M4.76812 0.431351C4.63211 0.419251 4.22801 0.32825 4.22671 0.38575C4.22611 0.42305 4.83761 0.54895 4.74211 0.64635C4.61061 0.78045 4.56571 1.04605 4.56061 1.24645C4.55121 1.57155 4.67641 1.63415 4.63021 1.70695C4.60361 1.74865 4.39811 1.72145 4.05281 1.69045C3.62911 1.61395 3.15981 1.55005 2.69501 1.55005C2.18911 1.55005 1.59652 1.62085 1.12472 1.71705C0.657315 1.81315 0.260215 1.89785 0.224115 1.84285C0.178615 1.77265 0.302515 1.72655 0.293715 1.41405C0.288015 1.22125 0.298114 0.99925 0.167814 0.86895C0.0654145 0.76585 0.592214 0.58055 0.589714 0.52495C0.586514 0.46295 0.308915 0.521751 0.172915 0.533751C0.0970147 0.540751 -0.0142854 0.572351 0.00151464 0.507851C0.625715 0.203051 1.68881 0 2.69501 0C3.50511 0 4.30131 0.11573 4.96221 0.33395C4.95651 0.38265 4.83382 0.437651 4.76812 0.431351Z" fill="url(#paint0_linear_1591_39916)"/>
<defs>
<linearGradient id="paint0_linear_1591_39916" x1="-0.000385357" y1="0.93025" x2="4.96221" y2="0.93025" gradientUnits="userSpaceOnUse">
<stop offset="0.16" stop-color="#F5F8FC"/>
<stop offset="0.49" stop-color="#F9FBFE"/>
</linearGradient>
</defs>
</svg>
