<svg width="5" height="2" viewBox="0 0 5 2" fill="none" xmlns="http://www.w3.org/2000/svg">
<path d="M4.80286 0.442695C4.66689 0.430047 4.25139 0.333287 4.25076 0.390837C4.25076 0.426253 4.868 0.554633 4.7725 0.652026C4.64096 0.7861 4.59606 1.05551 4.591 1.25599C4.58151 1.58105 4.70673 1.64366 4.66057 1.71639C4.63464 1.75687 4.43163 1.72904 4.1015 1.69805C3.66387 1.6171 3.17691 1.55006 2.695 1.55006C2.18906 1.55006 1.59648 1.6209 1.1247 1.71702C0.657338 1.81315 0.260177 1.8979 0.224129 1.84288C0.178595 1.77268 0.30255 1.72651 0.293696 1.41409C0.288004 1.22121 0.298122 0.999226 0.167844 0.868947C0.0653914 0.765863 0.592198 0.580563 0.589669 0.52491C0.586507 0.462933 0.308874 0.521748 0.172903 0.533764C0.0970125 0.54072 -0.0142941 0.572341 0.00151649 0.507834C0.625716 0.203007 1.68882 0 2.695 0C3.51588 0 4.32285 0.118895 4.98879 0.34214C4.97994 0.395264 4.868 0.449651 4.80223 0.443327L4.80286 0.442695Z" fill="url(#paint0_linear_3091_43950)"/>
<defs>
<linearGradient id="paint0_linear_3091_43950" x1="0.000251648" y1="0.92966" x2="4.98943" y2="0.92966" gradientUnits="userSpaceOnUse">
<stop offset="0.16" stop-color="#F9FBFE"/>
<stop offset="0.49" stop-color="#FCFDFE"/>
</linearGradient>
</defs>
</svg>
