<svg width="2" height="2" viewBox="0 0 2 2" fill="none" xmlns="http://www.w3.org/2000/svg">
<path d="M1.86342 1.88201C1.83559 1.83013 1.63884 1.83393 1.63884 1.83393L0.476044 1.8295C0.42733 1.83013 0.439351 1.77066 0.41278 1.74789C0.379882 1.71879 0.197049 1.71373 0.320414 1.64793C0.457064 1.57455 0.664571 1.57961 0.815772 1.55241C0.929647 1.53216 1.26305 1.44802 1.23711 1.28543C1.21876 1.17282 1.15297 0.976702 1.0954 0.740727C1.0372 0.499058 0.984054 0.345959 0.832853 0.218166C0.750609 0.148575 0.72214 0.130228 0.480472 0.118841C0.650019 0.118841 0.73669 0.118842 0.734792 0.0783526C0.731629 0.0131906 0.690508 -0.0203392 0.568409 0.0131907C0.583592 0.0340678 0.598776 0.0625354 0.551328 0.0910042C0.520961 0.108718 0.171744 0.099862 0.076848 0.103658C0.0863376 0.109984 0.0996225 0.119474 0.119867 0.131494C0.119867 0.131494 0.280558 0.125802 0.34825 0.144781C0.512104 0.189698 0.708855 0.42567 0.775282 0.695175C0.79869 0.790703 0.87524 1.12411 0.865118 1.20319C0.838547 1.41322 0.426065 1.45941 0.26917 1.52457C0.241334 1.53596 -0.0174162 1.66881 0.000930369 1.69475C0.0211749 1.72385 0.136948 1.73587 0.146438 1.75232C0.157193 1.76371 0.136948 1.79344 0.154029 1.81242C0.177437 1.83772 0.257783 1.84531 0.284354 1.84595C0.41531 1.85101 0.827792 1.84848 0.955585 1.84848C1.05997 1.84785 1.41298 1.84785 1.46613 1.85607C1.56482 1.87126 1.74955 1.98007 1.82547 1.95919C1.86153 1.94907 1.87608 1.90542 1.86342 1.88201ZM0.96887 1.24114C0.983421 1.14119 0.88726 0.699607 0.848669 0.588262C0.781609 0.39594 0.660774 0.289022 0.526022 0.163759C0.787935 0.232085 0.863851 0.404164 0.918891 0.619894C0.979624 0.857134 1.08781 1.1937 1.07326 1.29239C1.05617 1.40183 0.895483 1.43347 0.800587 1.42777C0.879667 1.3721 0.953054 1.35186 0.96887 1.24114Z" fill="url(#paint0_linear_3091_44371)"/>
<defs>
<linearGradient id="paint0_linear_3091_44371" x1="1.15297" y1="0.980498" x2="0.172376" y2="0.980498" gradientUnits="userSpaceOnUse">
<stop stop-color="#BE0A46"/>
<stop offset="0.35" stop-color="#C60A4A"/>
<stop offset="0.9" stop-color="#DE0C57"/>
<stop offset="1" stop-color="#E30D5A"/>
</linearGradient>
</defs>
</svg>
