<svg width="3" height="4" viewBox="0 0 3 4" fill="none" xmlns="http://www.w3.org/2000/svg">
<path d="M1.95683 2.03576C1.93407 2.62392 1.99921 2.93633 1.91952 3.11847C1.74244 3.09381 1.53627 3.0742 1.25485 3.0742C0.809621 3.0742 0.590171 3.10898 0.43839 3.13744C0.307479 3.15072 0.267003 3.09381 0.261944 3.02044C0.249295 2.8421 0.270798 2.52589 0.274593 2.32858C0.285344 1.76572 0.232221 1.37994 0.15886 0.965075C0.0627316 0.418663 -0.0327638 0.216288 0.0108733 0.197948C0.428271 0.0240323 0.927252 0 1.24599 0C1.51857 0 1.82845 0.00252937 2.24142 0.118263C2.07573 0.94294 1.9815 1.39259 1.95683 2.03513V2.03576Z" fill="url(#paint0_linear_3091_43922)"/>
<defs>
<linearGradient id="paint0_linear_3091_43922" x1="0.000122118" y1="1.5703" x2="2.24142" y2="1.5703" gradientUnits="userSpaceOnUse">
<stop offset="0.16" stop-color="#E5ECF8"/>
<stop offset="0.49" stop-color="#EFF4FC"/>
</linearGradient>
</defs>
</svg>
