<svg width="2" height="2" viewBox="0 0 2 2" fill="none" xmlns="http://www.w3.org/2000/svg">
<path d="M1.15808 1.39558C1.1625 1.39853 1.16985 1.4 1.18014 1.4H1.27426C1.28382 1.4 1.29117 1.39853 1.29558 1.39558C1.30073 1.39264 1.3022 1.38529 1.3022 1.37426V0.0874999C1.3022 0.0610294 1.29632 0.039707 1.28529 0.0242659C1.27353 0.00808946 1.25147 0 1.21691 0H1.17059C1.14559 0 1.12647 0.00441121 1.11323 0.0132347C1.09926 0.0220582 1.08676 0.0419124 1.07426 0.0720594C1.06617 0.0919123 1.05514 0.119852 1.0397 0.155881C1.02426 0.191911 1.00735 0.232354 0.989702 0.277206C0.971319 0.321324 0.952204 0.369116 0.931615 0.419851C0.911027 0.470586 0.890438 0.519851 0.870585 0.566909C0.850732 0.613968 0.830879 0.658821 0.815438 0.700733C0.799262 0.742644 0.784557 0.777938 0.772792 0.805879C0.76691 0.817644 0.75882 0.836762 0.748526 0.863968C0.738232 0.890438 0.727204 0.919116 0.713234 0.949998C0.700734 0.98088 0.688969 1.00956 0.678675 1.03603C0.667646 1.0625 0.659556 1.08161 0.654409 1.09338H0.646322C0.641175 1.08161 0.633085 1.06176 0.622056 1.03382C0.610291 1.00588 0.599262 0.976468 0.587497 0.945586C0.574262 0.915439 0.562497 0.886027 0.550733 0.858086C0.539703 0.82941 0.53088 0.809557 0.525733 0.797792C0.519115 0.783086 0.508087 0.755881 0.49191 0.716176C0.475734 0.675735 0.456616 0.630146 0.436027 0.57794C0.414704 0.52647 0.391911 0.471321 0.368382 0.415439C0.345588 0.358822 0.324262 0.305881 0.30441 0.257352C0.285292 0.208823 0.26691 0.166911 0.252204 0.133088C0.238234 0.0992642 0.22941 0.078677 0.226469 0.0720594C0.214704 0.0419124 0.20147 0.0220582 0.18897 0.0132347C0.175735 0.00441121 0.157352 0 0.130146 0H0.0845581C0.0492641 0 0.0272059 0.00808946 0.0161765 0.0242659C0.00588242 0.0404423 0 0.0610294 0 0.0874999V1.37426C0 1.38455 0.00220489 1.39191 0.00588134 1.39558C0.0095578 1.39853 0.0176466 1.4 0.0272054 1.4H0.118381C0.128675 1.4 0.136028 1.39853 0.139705 1.39558C0.144117 1.39264 0.145589 1.38529 0.145589 1.37426V0.285294H0.156617L0.249263 0.508823C0.265439 0.543381 0.286029 0.59044 0.311029 0.650734C0.336029 0.710292 0.362499 0.772791 0.39044 0.838232C0.417645 0.903673 0.444116 0.966173 0.469116 1.02647C0.494852 1.08603 0.514703 1.13308 0.530145 1.16764C0.540439 1.19485 0.55147 1.2125 0.56397 1.22279C0.57647 1.23308 0.595586 1.23823 0.622056 1.23823H0.675733C0.702939 1.23823 0.722056 1.23308 0.73235 1.22279C0.744114 1.2125 0.755145 1.19485 0.766175 1.16764C0.780881 1.13456 0.800732 1.08823 0.826467 1.02794C0.851467 0.96838 0.877937 0.905879 0.904408 0.841174C0.931613 0.776468 0.957349 0.714704 0.982348 0.655145C1.00735 0.596322 1.02647 0.549263 1.04044 0.514704L1.14044 0.268381H1.15073V1.37352C1.15073 1.38382 1.1522 1.39117 1.15588 1.39485L1.15808 1.39558Z" fill="white"/>
</svg>
