<svg width="12" height="28" viewBox="0 0 12 28" fill="none" xmlns="http://www.w3.org/2000/svg">
<path d="M9.94107 26.7672C9.86257 26.5421 9.63427 26.1064 9.23717 25.7509C9.07587 25.6074 9.00127 25.6061 8.97537 25.5631C8.92857 25.486 8.95887 25.2431 8.92157 25.1274C8.90007 25.0616 8.68567 24.9718 8.45987 24.7947C8.18167 24.5753 8.08047 23.9802 7.89957 23.6045C7.84587 23.4919 7.79717 23.4034 7.63457 23.3382C7.73577 23.1985 7.74717 22.8785 7.65797 22.7343C7.60427 22.647 7.46827 22.5768 7.46887 22.5009C7.47457 21.8685 7.73767 21.4258 8.06657 20.8781C8.61167 19.9693 9.37057 19.053 9.86957 18.1315C11.13 15.8042 11.1199 13.6344 11.1199 10.7322C11.1199 9.9442 11.0118 8.8305 10.3496 8.1475C10.3521 8.021 10.3129 7.6232 10.3401 7.4683C10.3876 7.1995 10.4274 7.0698 10.4021 6.9446C10.4615 6.7815 10.4268 6.3976 10.3812 6.2869C10.4255 6.1705 10.3983 5.8025 10.2155 5.5672C10.2023 5.3237 9.96377 4.9569 9.72857 4.8798C9.57867 4.6787 9.25867 4.5066 9.01577 4.5212C9.00377 4.5092 8.98927 4.5028 8.96897 4.4908C9.08217 4.3485 9.31307 4.1057 9.28967 3.5371C9.35917 3.4809 9.88857 3.0312 9.73617 2.3931C9.78797 2.1692 9.78677 2.0117 9.70897 1.743C9.50597 1.0429 8.20507 0 5.55957 0C2.91417 0 1.61077 1.0517 1.40777 1.7518C1.32997 2.0206 1.33127 2.1692 1.38307 2.3931C1.23067 3.0312 1.76007 3.4809 1.82957 3.5371C1.80617 4.1057 2.03707 4.3485 2.15027 4.4908C2.12997 4.5028 2.11547 4.5092 2.10407 4.5212C1.86057 4.5066 1.54057 4.6787 1.39137 4.8798C1.15547 4.9569 0.917013 5.3237 0.903733 5.5672C0.720963 5.8025 0.694404 6.1705 0.738044 6.2869C0.684914 6.3925 0.657724 6.7815 0.717174 6.9446C0.691874 7.0698 0.731713 7.1995 0.779143 7.4683C0.806343 7.6232 0.767133 8.0216 0.770293 8.1481C0.107513 8.8311 3.81943e-06 9.9442 3.81943e-06 10.7322C3.81943e-06 11.9022 -0.00189611 12.9533 0.0790539 13.9443C0.197954 15.4102 0.497724 16.7427 1.24967 18.1315C1.74867 19.053 2.50947 19.9864 3.05267 20.8781C3.38537 21.4233 3.64527 21.8685 3.65037 22.5009C3.65097 22.5768 3.51497 22.647 3.46127 22.7343C3.37207 22.8785 3.38347 23.1985 3.48527 23.3382C3.32207 23.4034 3.27407 23.4919 3.21967 23.6045C3.03877 23.9802 2.93827 24.5753 2.65937 24.7947C2.43357 24.9718 2.21917 25.0616 2.19767 25.1274C2.16037 25.2431 2.19067 25.486 2.14387 25.5631C2.11797 25.6061 2.04337 25.6074 1.88207 25.7509C1.48497 26.1064 1.25727 26.5421 1.17887 26.7672C1.13967 26.8779 1.03717 26.8235 0.995474 26.9304C0.956224 27.031 0.970173 27.1024 0.985273 27.1163C1.15987 27.2776 3.91977 27.3516 5.55957 27.3402C7.20007 27.3516 9.95937 27.2776 10.134 27.1163C10.1491 27.1024 10.163 27.031 10.1238 26.9304C10.0821 26.8235 9.97957 26.8779 9.94107 26.7672ZM7.56947 5.9163C7.59477 5.6412 7.83067 5.349 7.99067 5.3237C8.05827 5.313 8.16837 5.3383 8.23417 5.3168C8.39347 5.3724 8.66227 5.4021 8.77047 5.3731C8.80587 5.4249 9.05947 5.5729 9.18407 5.5672C9.20617 5.6937 9.35987 5.8663 9.41807 5.91C9.39337 6.0207 9.42117 6.2616 9.52867 6.3875C9.50787 6.4507 9.45657 6.7916 9.53817 6.9516C9.47427 7.0755 9.50147 7.1451 9.51857 7.2223C9.52677 7.2615 9.52997 7.4145 9.53057 7.4803C9.00377 7.1261 8.30687 6.8561 7.63147 6.7011C7.69277 6.4646 7.54097 6.2268 7.56947 5.9163ZM3.48777 6.7011C2.81237 6.8561 2.11547 7.1261 1.58867 7.4803C1.58987 7.4145 1.59247 7.2615 1.60067 7.2223C1.61777 7.1451 1.64497 7.0755 1.58107 6.9516C1.66327 6.7916 1.61137 6.4507 1.59057 6.3875C1.69807 6.2616 1.72587 6.0207 1.70117 5.91C1.75937 5.8663 1.91367 5.6937 1.93517 5.5672C2.06047 5.5729 2.31337 5.4249 2.34877 5.3731C2.45697 5.4021 2.72577 5.3724 2.88507 5.3168C2.95087 5.3383 3.06097 5.313 3.12857 5.3237C3.28857 5.349 3.52507 5.6412 3.54977 5.9163C3.57827 6.2268 3.42707 6.4646 3.48777 6.7011Z" fill="#9DB4DB"/>
</svg>
