<svg width="5" height="1" viewBox="0 0 5 1" fill="none" xmlns="http://www.w3.org/2000/svg">
<path d="M1.59648 0.0916996C1.96838 0.0354196 2.37818 0.00253 2.82778 0C2.85438 0 2.88028 0 2.90688 0C3.32868 0.00064 3.71508 0.0290899 4.06928 0.0771599C4.09138 0.0803199 4.11348 0.08285 4.13498 0.08601C4.18938 0.0936 4.24318 0.10182 4.29568 0.11131C4.31088 0.11384 4.32598 0.11637 4.34118 0.11953C4.34188 0.11953 4.34248 0.11953 4.34308 0.11953C5.04258 0.30862 5.27658 0.491389 4.52898 0.401589C4.47338 0.389569 4.41708 0.380089 4.36148 0.369969C4.28748 0.357319 4.21348 0.34531 4.13818 0.33519C2.82398 0.15052 1.42318 0.263089 0.239983 0.662149C-0.0636171 0.764599 -0.0807174 0.70642 0.197583 0.54642C0.581483 0.32696 1.10378 0.18404 1.59648 0.0916996Z" fill="url(#paint0_linear_1591_39979)"/>
<defs>
<linearGradient id="paint0_linear_1591_39979" x1="0.000282722" y1="0.35669" x2="4.98948" y2="0.35669" gradientUnits="userSpaceOnUse">
<stop offset="0.16" stop-color="#D5E0F4"/>
<stop offset="0.49" stop-color="#E6EDFA"/>
</linearGradient>
</defs>
</svg>
