<svg width="26" height="23" viewBox="0 0 26 23" fill="none" xmlns="http://www.w3.org/2000/svg">
<path d="M9.40967 21.3007C11.2494 20.6154 14.653 19.3477 17.6655 17.3514C18.1442 14.2558 18.6523 10.1022 17.528 10.4242C16.2501 10.7889 14.1802 10.6213 15.0383 10.4529C17.9832 9.87571 19.2508 8.22351 19.7868 6.23454C20.6861 2.90294 21.7611 2.19044 21.7405 2.30294C21.5876 3.08749 20.7802 4.47867 20.7905 6.39925C20.7949 6.98895 21.8567 9.96688 22.7758 9.65291C23.2515 9.49041 24.0831 8.78747 24.7721 7.96689C25.0434 6.90586 25.1633 5.83675 25.1368 4.78602C24.0081 3.52205 22.5787 1.74853 22.2508 1.54706C21.803 1.27206 18.1692 0.0301514 16.6155 4.39619e-06C16.4074 -0.00440735 13.3354 3.31323 12.092 3.07058C11.4722 2.95147 9.14791 0.346327 8.76041 0.32868C8.54791 0.321327 4.37072 1.7522 4.08616 2.2375C2.48102 4.98602 0.681759 7.06616 0.0170554 7.98968C0.0170554 7.98968 -0.0270623 8.11027 0.026614 8.17498C0.248672 8.43968 0.921464 9.05292 1.21705 9.24262C2.92734 10.3411 4.10895 10.6419 4.54057 9.88527C5.61998 7.99189 4.11851 6.01763 4.48028 3.64999C4.59719 2.87352 4.78027 5.84116 6.2038 8.26762C6.8413 9.35953 7.58321 10.1081 8.7457 10.6456C9.26555 10.8845 7.68909 10.7309 7.1413 10.5757C6.70821 10.4551 6.79056 12.8169 6.93835 14.1C7.07585 15.2882 6.78689 21.1691 6.57365 22.222C8.00012 21.7793 9.15085 21.3985 9.41114 21.3007H9.40967Z" fill="white"/>
</svg>
