<svg width="3" height="1" viewBox="0 0 3 1" fill="none" xmlns="http://www.w3.org/2000/svg">
<path d="M2.79127 0.448599C2.76027 0.536499 2.66037 0.564398 2.64707 0.583998C2.43637 0.582098 1.57787 0.563699 1.35897 0.567499C1.05537 0.567499 0.347366 0.582098 0.158866 0.583998C0.145566 0.564398 0.0456661 0.536499 0.0146661 0.448599C-0.0119339 0.371399 -0.00433315 0.2354 0.0538669 0.1614C0.143667 0.0474998 0.441666 0.014 0.556766 0.000699997C0.652366 0.000699997 1.15847 0.00699997 1.35897 0.00699997C1.71387 0.00699997 2.11247 0.0013 2.24977 0C2.36487 0.0133 2.66227 0.0474998 2.75207 0.1614C2.81087 0.2354 2.81787 0.371399 2.79127 0.448599Z" fill="url(#paint0_radial_1591_39823)"/>
<defs>
<radialGradient id="paint0_radial_1591_39823" cx="0" cy="0" r="1" gradientUnits="userSpaceOnUse" gradientTransform="translate(-0.0119337 0.201499) scale(2.46666 1.06066)">
<stop stop-color="#C8D7F1"/>
<stop offset="0.86" stop-color="#DEE8F9"/>
<stop offset="1" stop-color="white"/>
</radialGradient>
</defs>
</svg>
