<svg width="6" height="1" viewBox="0 0 6 1" fill="none" xmlns="http://www.w3.org/2000/svg">
<path d="M1.59648 0.0916996C1.97528 0.0341496 2.39338 0.00127 2.85248 0C2.87908 0 2.90628 0 2.93278 0C3.36408 0.0019 3.75808 0.0316199 4.11798 0.0834799C4.14008 0.0866399 4.16288 0.0898099 4.18498 0.0929699C4.24068 0.10119 4.29508 0.11004 4.34878 0.12016C4.36398 0.12269 4.37978 0.12585 4.39498 0.12838C4.39558 0.12838 4.39618 0.12838 4.39688 0.12838C5.16588 0.33645 5.55098 0.582459 4.60108 0.414869C4.54488 0.402859 4.48788 0.39147 4.43098 0.38135C4.35768 0.36807 4.28368 0.356059 4.20898 0.344669C2.87528 0.143559 1.44468 0.25487 0.239983 0.66152C-0.0636171 0.76397 -0.0807174 0.70579 0.197583 0.54578C0.581483 0.32633 1.10378 0.18404 1.59648 0.0916996Z" fill="url(#paint0_linear_1591_39967)"/>
<defs>
<linearGradient id="paint0_linear_1591_39967" x1="0.000282722" y1="0.35669" x2="5.16208" y2="0.35669" gradientUnits="userSpaceOnUse">
<stop offset="0.16" stop-color="#E6EDF9"/>
<stop offset="0.49" stop-color="#F0F5FC"/>
</linearGradient>
</defs>
</svg>
