<svg width="3" height="1" viewBox="0 0 3 1" fill="none" xmlns="http://www.w3.org/2000/svg">
<path d="M0.00141432 0.1215C-0.0143857 0.119 0.103914 0.0918003 0.270214 0.0620003C0.276614 0.0608003 0.283514 0.0600999 0.290514 0.0588999C0.528414 0.0252999 0.818114 0 1.19961 0C1.39071 0 1.56971 0.00639991 1.74491 0.0195999C1.82401 0.0252999 1.94231 0.0385995 2.05051 0.0550995C1.99481 0.194899 2.15611 0.5941 1.94741 0.8838C1.94291 0.8832 1.93731 0.8826 1.93091 0.8813C1.89361 0.8743 1.68611 0.8294 1.30461 0.8231C1.28691 0.8231 1.26791 0.8231 1.24961 0.8225C1.23121 0.8218 1.21101 0.8225 1.19071 0.8225C0.701114 0.8225 0.426514 0.8857 0.222214 0.9275C0.200014 0.93 0.201314 0.9104 0.208214 0.9015C0.224714 0.8807 0.241814 0.8693 0.241814 0.8693C0.241814 0.8693 0.225314 0.8649 0.220314 0.8414C0.214614 0.8168 0.238014 0.7908 0.238014 0.7908C0.237314 0.7908 0.228514 0.7864 0.209514 0.7263C0.177914 0.6263 0.139914 0.3682 0.142514 0.2626C0.145014 0.1569 0.202614 0.1057 0.202614 0.1057C0.202614 0.1057 0.0235143 0.126 0.00141432 0.1215Z" fill="url(#paint0_linear_1591_39801)"/>
<defs>
<linearGradient id="paint0_linear_1591_39801" x1="0.000114319" y1="0.4631" x2="2.05871" y2="0.4631" gradientUnits="userSpaceOnUse">
<stop offset="0.16" stop-color="#C7D3E4"/>
<stop offset="0.49" stop-color="#D0D9E8"/>
</linearGradient>
</defs>
</svg>
