<svg width="3" height="4" viewBox="0 0 3 4" fill="none" xmlns="http://www.w3.org/2000/svg">
<path d="M1.85565 2.09079C1.84995 2.58028 1.90434 2.9395 1.82719 3.10709C1.65327 3.08622 1.49074 3.0742 1.25485 3.0742C0.809621 3.0742 0.590171 3.10898 0.43839 3.13744C0.307479 3.15072 0.267004 3.09381 0.261945 3.02044C0.249296 2.8421 0.270798 2.52589 0.274593 2.32858C0.285344 1.76572 0.232221 1.37994 0.15886 0.965075C0.0627316 0.418663 -0.0327638 0.216288 0.0108733 0.197948C0.428271 0.0240323 0.927252 0 1.24599 0C1.48631 0 1.75509 0.00189726 2.09597 0.0790527C1.95114 1.03401 1.86324 1.33441 1.85565 2.09015V2.09079Z" fill="url(#paint0_linear_3091_43941)"/>
<defs>
<linearGradient id="paint0_linear_3091_43941" x1="-0.000510303" y1="1.5703" x2="2.09597" y2="1.5703" gradientUnits="userSpaceOnUse">
<stop offset="0.16" stop-color="#C9D8F1"/>
<stop offset="0.49" stop-color="#DFE9F9"/>
</linearGradient>
</defs>
</svg>
