<svg width="5" height="2" viewBox="0 0 5 2" fill="none" xmlns="http://www.w3.org/2000/svg">
<path d="M4.51764 0.340875C4.38167 0.328859 4.0604 0.285222 4.05597 0.342772C4.05154 0.394631 4.61882 0.500245 4.52333 0.597638C4.39179 0.731711 4.34688 0.972031 4.34182 1.17251C4.33234 1.49757 4.45756 1.56082 4.41139 1.63291C4.37977 1.68287 4.16095 1.66453 3.69612 1.63291C3.37422 1.58485 3.03334 1.55006 2.695 1.55006C2.18906 1.55006 1.59648 1.6209 1.1247 1.71702C0.657337 1.81315 0.260176 1.8979 0.224128 1.84288C0.178594 1.77268 0.302549 1.72651 0.293695 1.41409C0.288003 1.22121 0.298121 0.999225 0.167843 0.868946C0.0653904 0.765862 0.592198 0.580562 0.589669 0.524909C0.586506 0.462932 0.308873 0.521748 0.172902 0.533764C0.0970116 0.54072 -0.014294 0.572341 0.0015165 0.507834C0.625716 0.203007 1.68882 0 2.695 0C3.42671 0 4.14704 0.0948633 4.76555 0.273839C4.78452 0.293444 4.58025 0.346567 4.51764 0.340875Z" fill="url(#paint0_linear_1587_25619)"/>
<defs>
<linearGradient id="paint0_linear_1587_25619" x1="-0.000380774" y1="0.930292" x2="4.76681" y2="0.930292" gradientUnits="userSpaceOnUse">
<stop offset="0.16" stop-color="#D5E0F4"/>
<stop offset="0.49" stop-color="#E6EDFA"/>
</linearGradient>
</defs>
</svg>
