<svg width="1" height="3" viewBox="0 0 1 3" fill="none" xmlns="http://www.w3.org/2000/svg">
<path d="M0.49654 2.8437C0.49334 2.8437 0.48824 2.8437 0.48824 2.8437C0.44904 2.3136 0.33264 1.822 0.25864 1.5044C0.18524 1.1856 0.0593405 0.670599 0.0207405 0.503599C-0.0121595 0.359399 -0.00396009 0.184099 0.0315399 0.0866985C0.0403399 0.0626985 0.0631404 0 0.11054 0L0.11374 0.000699997C0.07014 0.0051 0.0479406 0.0632996 0.0397406 0.0860996C0.00434056 0.1835 -0.00395981 0.358698 0.0289402 0.502998C0.0675402 0.669998 0.19344 1.185 0.26684 1.5038C0.34084 1.822 0.45724 2.3136 0.49654 2.8437Z" fill="url(#paint0_linear_1591_40123)"/>
<defs>
<linearGradient id="paint0_linear_1591_40123" x1="-0.000159735" y1="1.4216" x2="0.49654" y2="1.4216" gradientUnits="userSpaceOnUse">
<stop stop-color="#9DB4DB"/>
<stop offset="0.43" stop-color="#C5D2E9"/>
<stop offset="1" stop-color="white"/>
</linearGradient>
</defs>
</svg>
