<svg width="5" height="1" viewBox="0 0 5 1" fill="none" xmlns="http://www.w3.org/2000/svg">
<path d="M1.59589 0.0916996C1.96459 0.0360496 2.36989 0.00317 2.81519 0C2.84109 0 2.86699 0 2.89359 0C3.31099 0 3.69299 0.0278294 4.04459 0.0739994C4.06669 0.0771594 4.08819 0.0796895 4.11039 0.0828495C4.16409 0.0904395 4.21719 0.0980302 4.26909 0.10688C4.28429 0.10941 4.29949 0.11194 4.31399 0.11447H4.31589C4.98059 0.29408 5.13869 0.44523 4.49299 0.394C4.43799 0.38262 4.38169 0.373129 4.32669 0.363649C4.25269 0.350999 4.17799 0.33961 4.10279 0.32949C2.79869 0.15305 1.41249 0.266249 0.239894 0.662149C-0.0636065 0.764599 -0.0807067 0.70642 0.197593 0.54642C0.581493 0.32696 1.10319 0.18404 1.59589 0.0916996Z" fill="url(#paint0_linear_1591_39985)"/>
<defs>
<linearGradient id="paint0_linear_1591_39985" x1="-0.000406597" y1="0.35669" x2="4.90279" y2="0.35669" gradientUnits="userSpaceOnUse">
<stop offset="0.16" stop-color="#CCDAF2"/>
<stop offset="0.49" stop-color="#E1EAF9"/>
</linearGradient>
</defs>
</svg>
