<svg width="6" height="2" viewBox="0 0 6 2" fill="none" xmlns="http://www.w3.org/2000/svg">
<path d="M4.83571 0.455951C4.69971 0.443351 4.27291 0.33965 4.27291 0.39715C4.27291 0.43065 4.89711 0.56225 4.80161 0.65965C4.67001 0.79365 4.62511 1.06625 4.62011 1.26675C4.61061 1.59185 4.73581 1.65445 4.68961 1.72715C4.66501 1.76635 4.46321 1.73725 4.14951 1.70625C3.69801 1.62155 3.19401 1.55005 2.69501 1.55005C2.19601 1.55005 1.59651 1.62085 1.12471 1.71705C0.657314 1.81315 0.260115 1.89785 0.224115 1.84285C0.178615 1.77265 0.302514 1.72655 0.293714 1.41405C0.288014 1.22125 0.298114 0.99925 0.167814 0.86895C0.0654145 0.76585 0.592214 0.58055 0.589614 0.52495C0.586514 0.46295 0.308814 0.521751 0.172914 0.533751C0.0970138 0.540751 -0.0142853 0.572351 0.00151465 0.507851C0.625715 0.203051 1.68881 0 2.69501 0C3.52661 0 4.34371 0.12142 5.01601 0.35035C5.00391 0.40725 4.90211 0.461651 4.83571 0.455951Z" fill="url(#paint0_linear_1591_39910)"/>
<defs>
<linearGradient id="paint0_linear_1591_39910" x1="-0.000985357" y1="0.93095" x2="5.01471" y2="0.93095" gradientUnits="userSpaceOnUse">
<stop offset="0.16" stop-color="#FEFEFF"/>
<stop offset="0.49" stop-color="#FEFEFF"/>
</linearGradient>
</defs>
</svg>
