<svg width="1" height="3" viewBox="0 0 1 3" fill="none" xmlns="http://www.w3.org/2000/svg">
<path d="M0.263628 0.9018C0.139628 1.0403 0.115628 1.6007 0.122528 1.9536C0.129528 2.297 0.218728 2.7207 0.221228 2.8801C0.223128 2.9914 0.0909273 2.9452 0.000527251 2.9332C0.0960272 2.9129 0.0909276 2.8371 0.0808276 2.7447C0.0467276 2.4418 -0.032372 1.595 0.014428 1.268C0.094728 0.702601 0.336329 0.1322 0.360329 0C0.436929 0.0544 0.510227 0.1322 0.536827 0.1695C0.468527 0.3346 0.378027 0.5679 0.336927 0.764C0.331927 0.7893 0.299027 0.905 0.365427 0.8835C0.354627 0.9031 0.328127 0.9461 0.299627 0.9347C0.289527 0.9309 0.283228 0.881 0.264828 0.9012L0.263628 0.9018Z" fill="url(#paint0_linear_1591_40258)"/>
<defs>
<linearGradient id="paint0_linear_1591_40258" x1="-7.20437e-05" y1="1.4761" x2="0.536227" y2="1.4761" gradientUnits="userSpaceOnUse">
<stop stop-color="#BE0A46"/>
<stop offset="0.35" stop-color="#C00A47"/>
<stop offset="0.62" stop-color="#CA0B4C"/>
<stop offset="0.85" stop-color="#DA0C55"/>
<stop offset="0.94" stop-color="#E30D5A"/>
</linearGradient>
</defs>
</svg>
