<svg width="2" height="10" viewBox="0 0 2 10" fill="none" xmlns="http://www.w3.org/2000/svg">
<path d="M1.61287 9.5007C1.51802 9.31982 1.43713 9.13232 1.35625 8.94556C1.27537 8.75806 1.19669 8.57056 1.11875 8.38159C0.965812 8.00365 0.817284 7.62424 0.676108 7.24042C0.641549 7.14409 0.60699 7.04851 0.573902 6.95071C0.539344 6.85218 0.515814 6.75218 0.491549 6.65365C0.44302 6.45586 0.388609 6.25954 0.343021 6.05954C0.25258 5.65954 0.182727 5.25807 0.119492 4.85366C0.0121395 4.0419 -0.0305072 3.22131 0.0231691 2.4044C0.0511101 1.99632 0.0996391 1.5897 0.171698 1.1875C0.247433 0.786026 0.34155 0.388234 0.465814 0C0.36655 0.395587 0.282727 0.794114 0.225374 1.19632C0.164345 1.59852 0.125374 2.00293 0.107727 2.40881C0.0716979 3.21984 0.114345 4.03454 0.228315 4.83748C0.288609 5.23895 0.35405 5.64116 0.440814 6.03674C0.484196 6.23454 0.536402 6.43159 0.583461 6.62939L0.61949 6.77792C0.63199 6.82718 0.646696 6.87351 0.661402 6.92204C0.691549 7.01836 0.723167 7.11542 0.755519 7.21174C0.886401 7.59703 1.02611 7.97938 1.16875 8.361C1.30993 8.74262 1.44963 9.1257 1.61287 9.49923V9.5007Z" fill="url(#paint0_linear_3091_44470)"/>
<defs>
<linearGradient id="paint0_linear_3091_44470" x1="0.806254" y1="9.5257" x2="0.806254" y2="-0.0147059" gradientUnits="userSpaceOnUse">
<stop stop-color="#3A4145"/>
<stop offset="0.32" stop-color="#677177"/>
<stop offset="0.62" stop-color="#8B979E"/>
<stop offset="0.85" stop-color="#A1AEB6"/>
<stop offset="1" stop-color="#A9B7BF"/>
</linearGradient>
</defs>
</svg>
