<svg width="6" height="2" viewBox="0 0 6 2" fill="none" xmlns="http://www.w3.org/2000/svg">
<path d="M5.02484 0.352891C5.01156 0.411074 4.91417 0.466094 4.84776 0.45977C4.71179 0.447754 4.28111 0.341507 4.28111 0.399058C4.28111 0.431944 4.90721 0.564119 4.81171 0.661512C4.68017 0.795586 4.63527 1.06942 4.63021 1.2699C4.62072 1.59497 4.74594 1.65758 4.69978 1.73031C4.67511 1.76952 4.474 1.73979 4.16601 1.7088C3.71004 1.62279 3.19967 1.55006 2.695 1.55006C2.19033 1.55006 1.59648 1.6209 1.1247 1.71702C0.657337 1.81315 0.260176 1.8979 0.224128 1.84288C0.178594 1.77268 0.303181 1.72651 0.293695 1.41409C0.288636 1.22121 0.298121 0.999225 0.167843 0.868946C0.0653904 0.765862 0.592198 0.580562 0.589669 0.524909C0.586507 0.462932 0.308873 0.52238 0.172902 0.533764C0.0970116 0.54072 -0.014294 0.572341 0.0015165 0.507834C0.625716 0.203007 1.68882 0 2.695 0C3.53043 0 4.35068 0.12269 5.02484 0.352891Z" fill="white"/>
</svg>
