<svg width="29" height="29" viewBox="0 0 29 29" fill="none" xmlns="http://www.w3.org/2000/svg">
<path d="M27.578 4.95628C26.8545 3.13643 25.2641 0.849677 21.795 0.294532C21.5178 0.249679 21.2325 0.223209 20.9501 0.217327C19.4332 0.184238 17.0435 0.696737 14.2766 3.32246C14.1281 3.46364 14.1156 3.47614 14.0524 3.47834C13.9862 3.47687 13.9649 3.45482 13.7649 3.24746C11.7266 1.13497 9.71561 0.0430626 7.78473 0.00115098C7.33106 -0.00840781 6.87812 0.0415919 6.44062 0.150415L6.40533 0.155562C4.44945 0.480561 -0.506413 3.08276 0.0421146 11.1092C0.373731 15.9511 3.16122 19.4121 4.47372 20.8173C2.72446 18.6158 0.354613 14.9004 0.289907 10.5643C0.276672 9.55038 0.455348 8.54377 0.682553 7.57392C0.682553 7.57392 0.708289 7.52392 0.743583 7.5298C0.781818 7.53642 0.767847 7.60848 0.767847 7.60848C0.505348 10.0864 1.04726 12.8768 2.14799 15.6467C3.72445 19.6099 7.1215 22.5981 7.92665 23.2768C7.94282 23.0562 7.97076 22.6672 8.00091 22.1996C7.02003 21.5143 4.11931 18.6871 2.92225 15.8246C2.61343 15.0798 2.35681 14.3371 2.15755 13.6173C2.1274 13.4893 2.1002 13.382 2.07372 13.2761C1.98181 12.9151 1.90167 12.6018 1.75755 11.682C1.01491 6.31289 3.71931 2.96511 5.25239 1.94379C6.03842 1.421 6.88915 1.16438 7.78179 1.18424C9.71561 1.22615 11.9075 2.58938 13.9538 5.02099C13.9538 5.02099 14.0737 5.17319 14.0965 5.17393C14.1156 5.17393 14.3347 4.93716 14.481 4.77981C15.3303 3.87246 17.5854 1.46144 20.6148 1.52762C21.0215 1.53644 21.4332 1.59085 21.8391 1.68717C24.2464 2.26364 26.22 4.84599 26.6244 8.11436C26.6354 8.19671 26.6611 8.33789 26.667 8.40333L26.6729 8.557C26.6839 8.6695 26.5803 8.5445 26.5854 8.6423C26.5913 8.76068 26.5972 8.88568 26.6141 9.0695C26.6163 9.11288 26.6133 9.157 26.6141 9.20112C26.6398 10.2452 26.5236 11.3085 26.2575 12.3643C26.2332 12.4673 26.2067 12.5688 26.1795 12.6702C26.1707 12.7033 26.1611 12.7357 26.1516 12.7673C26.1325 12.8364 26.1126 12.9048 26.0928 12.9724C26.0817 13.0085 26.0707 13.0445 26.0589 13.0798C26.0398 13.1438 26.0192 13.2048 25.9986 13.2665C25.9876 13.3018 25.9758 13.3364 25.9641 13.3717C25.9435 13.4327 25.9229 13.4908 25.9016 13.5489C25.8898 13.582 25.8781 13.6143 25.867 13.646C25.8435 13.7121 25.8192 13.7746 25.7957 13.8371C25.7678 13.9114 25.7398 13.982 25.7126 14.0504C25.7075 14.0629 25.7016 14.0761 25.6964 14.0893C25.6244 14.2687 25.5582 14.4261 25.5045 14.5482C25.0251 15.6401 24.3928 16.7099 23.6244 17.729C22.9582 18.6077 22.1714 19.4386 21.2862 20.1967C21.2582 20.2231 21.2251 20.2511 21.195 20.279C21.195 20.279 21.1928 20.282 21.1913 20.2827C21.142 20.3268 21.0906 20.3724 21.0354 20.4187C21.0332 20.4217 21.0303 20.4239 21.0273 20.4268C20.9722 20.4731 20.9156 20.5209 20.8553 20.5702C20.8509 20.5739 20.8465 20.5775 20.8428 20.5805C20.7832 20.629 20.7215 20.6783 20.6575 20.7283C20.6516 20.7334 20.645 20.7386 20.6391 20.7423C20.5759 20.7915 20.5119 20.8423 20.4442 20.8923C20.434 20.9003 20.4237 20.9084 20.4126 20.9165C20.3487 20.9658 20.2825 21.015 20.2148 21.065C20.1994 21.0768 20.1825 21.0878 20.167 21.0996C20.1031 21.1467 20.0384 21.1937 19.9707 21.2415C19.9443 21.2599 19.9163 21.2798 19.8898 21.2981C19.831 21.34 19.7715 21.3827 19.7104 21.4253C19.6222 21.4864 19.5318 21.5496 19.4391 21.6121C16.4781 23.6349 13.1038 24.9165 11.2899 25.6055C10.698 25.8327 3.94063 27.9518 3.23328 28.0805C3.11784 28.1011 3.0171 28.1452 3.02666 28.1444C3.05387 28.1444 3.08255 28.1459 3.11343 28.1459C3.94872 28.1599 6.18548 28.129 10.0928 27.2136C15.5156 25.9437 20.6435 23.8393 24.9472 18.2709C28.0633 14.2357 29.1663 8.95333 27.5766 4.95407L27.578 4.95628Z" fill="url(#paint0_radial_1587_26077)" style="mix-blend-mode:multiply"/>
<defs>
<radialGradient id="paint0_radial_1587_26077" cx="0" cy="0" r="1" gradientUnits="userSpaceOnUse" gradientTransform="translate(10.4752 15.4777) rotate(1.24) scale(18.6332 19.0174)">
<stop offset="0.6" stop-color="#FBFBFC"/>
<stop offset="0.67" stop-color="#F7F8F9"/>
<stop offset="0.73" stop-color="#EEEEEF"/>
<stop offset="0.78" stop-color="#DDDEE0"/>
<stop offset="0.83" stop-color="#C6C8CA"/>
<stop offset="0.88" stop-color="#A9ABAD"/>
<stop offset="0.92" stop-color="#84888A"/>
<stop offset="0.96" stop-color="#5A5F62"/>
<stop offset="1" stop-color="#30373A"/>
</radialGradient>
</defs>
</svg>
