<svg width="1" height="3" viewBox="0 0 1 3" fill="none" xmlns="http://www.w3.org/2000/svg">
<path d="M0.496526 2.82411C0.493362 2.82411 0.489567 2.82411 0.487669 2.82411C0.450343 2.30724 0.338366 1.8258 0.264347 1.50822L0.25802 1.48038C0.214368 1.29185 0.151736 1.0312 0.101758 0.821168C0.06633 0.674395 0.0359637 0.547867 0.0201477 0.479542C-0.010219 0.347321 -0.0057913 0.172711 0.0302692 0.0733865C0.0365956 0.0556726 0.0574728 0 0.0916354 0C0.0929006 0 0.0935335 6.17827e-07 0.0947988 0.000633258C0.0929008 0.000633258 0.0916361 0.0012652 0.0903708 0.00189784C0.061902 0.0113874 0.0441876 0.0569378 0.0384938 0.0733865C0.00243333 0.172711 -0.00199538 0.347321 0.0283713 0.479542C0.0441874 0.547867 0.0745546 0.674395 0.109982 0.821168C0.160594 1.0312 0.223225 1.29185 0.266245 1.48038L0.27257 1.50822C0.347222 1.82643 0.458567 2.30787 0.496526 2.82411Z" fill="url(#paint0_linear_3091_44199)"/>
<defs>
<linearGradient id="paint0_linear_3091_44199" x1="-9.71081e-05" y1="1.41205" x2="0.496526" y2="1.41205" gradientUnits="userSpaceOnUse">
<stop stop-color="#6476A0"/>
<stop offset="0.34" stop-color="#788CB4"/>
<stop offset="1" stop-color="#9DB4DB"/>
</linearGradient>
</defs>
</svg>
