<svg width="3" height="1" viewBox="0 0 3 1" fill="none" xmlns="http://www.w3.org/2000/svg">
<path d="M0.00143131 0.1215C-0.0144687 0.119 0.103831 0.0930003 0.270231 0.0620003C0.276631 0.0608003 0.283531 0.0600999 0.290531 0.0588999C0.528331 0.0252999 0.818132 0 1.19963 0C1.43053 0 1.64183 0.0107997 1.83353 0.0271997C1.90623 0.0335997 2.06123 0.0538002 2.18713 0.0760002C2.13783 0.2474 2.30423 0.4808 2.06883 0.9091C2.06443 0.9085 2.05873 0.9072 2.05113 0.906C1.96893 0.8902 1.65383 0.8326 1.32293 0.8237C1.30143 0.8237 1.27993 0.8231 1.25783 0.8225C1.23563 0.8218 1.21353 0.8225 1.19013 0.8225C0.700431 0.8225 0.425932 0.8857 0.221532 0.9275C0.199432 0.93 0.200631 0.9104 0.207631 0.9015C0.224031 0.8807 0.241132 0.8693 0.241132 0.8693C0.241132 0.8693 0.224731 0.8649 0.219631 0.8414C0.213931 0.8168 0.239231 0.7877 0.239231 0.7877C0.238631 0.7877 0.227832 0.7864 0.208932 0.7263C0.177232 0.6263 0.139331 0.3682 0.141831 0.2626C0.144331 0.1569 0.201931 0.1057 0.201931 0.1057C0.201931 0.1057 0.0236313 0.126 0.00143131 0.1215Z" fill="url(#paint0_linear_1591_39783)"/>
<defs>
<linearGradient id="paint0_linear_1591_39783" x1="-0.000468697" y1="0.4631" x2="2.19853" y2="0.4631" gradientUnits="userSpaceOnUse">
<stop offset="0.16" stop-color="#F3F6F9"/>
<stop offset="0.49" stop-color="#F5F7FA"/>
</linearGradient>
</defs>
</svg>
