<svg width="5" height="1" viewBox="0 0 5 1" fill="none" xmlns="http://www.w3.org/2000/svg">
<path d="M4.47464 0.390836C4.41961 0.379452 4.36396 0.369966 4.30894 0.361112C4.23495 0.348464 4.16032 0.33708 4.08506 0.327594C2.78733 0.146089 1.40739 0.268779 0.239941 0.662777C-0.0636216 0.76523 -0.0806968 0.707047 0.197569 0.547044C0.581448 0.327594 1.1032 0.184667 1.59585 0.092333C1.98416 0.0335178 2.41357 0 2.88663 0C3.30149 0 3.68221 0.0252968 4.03194 0.072096C4.10783 0.0815823 4.18246 0.0923331 4.25518 0.104349C4.27036 0.106879 4.28554 0.109409 4.30009 0.111939C4.30072 0.111939 4.30135 0.111939 4.30198 0.112571C4.94895 0.287119 5.06974 0.422457 4.47464 0.390836Z" fill="url(#paint0_linear_3091_44027)"/>
<defs>
<linearGradient id="paint0_linear_3091_44027" x1="-0.000379343" y1="0.356686" x2="4.86041" y2="0.356686" gradientUnits="userSpaceOnUse">
<stop offset="0.16" stop-color="#C8D7F1"/>
<stop offset="0.49" stop-color="#DEE8F9"/>
</linearGradient>
</defs>
</svg>
