<svg width="3" height="4" viewBox="0 0 3 4" fill="none" xmlns="http://www.w3.org/2000/svg">
<path d="M1.93533 2.04715C1.91699 2.61443 1.97897 2.93697 1.89992 3.11594C1.72347 3.09191 1.52679 3.0742 1.25485 3.0742C0.809621 3.0742 0.590171 3.10898 0.43839 3.13744C0.307479 3.15072 0.267003 3.09381 0.261944 3.02044C0.249295 2.8421 0.270798 2.52589 0.274593 2.32858C0.285344 1.76572 0.232221 1.37994 0.15886 0.965075C0.0627316 0.418663 -0.0327638 0.216288 0.0108733 0.197948C0.428271 0.0240323 0.927252 0 1.24599 0C1.51161 0 1.81264 0.00253003 2.21043 0.110042C2.04917 0.962546 1.95683 1.38058 1.9347 2.04652L1.93533 2.04715Z" fill="url(#paint0_linear_1587_25570)"/>
<defs>
<linearGradient id="paint0_linear_1587_25570" x1="0.000122118" y1="1.5703" x2="2.21107" y2="1.5703" gradientUnits="userSpaceOnUse">
<stop offset="0.16" stop-color="#DFE8F7"/>
<stop offset="0.49" stop-color="#ECF2FC"/>
</linearGradient>
</defs>
</svg>
