<svg width="3" height="1" viewBox="0 0 3 1" fill="none" xmlns="http://www.w3.org/2000/svg">
<path d="M0.00141698 0.121467C-0.014399 0.118936 0.103905 0.0917325 0.270289 0.0619985C0.276615 0.0607332 0.283575 0.0601003 0.290534 0.0588351C0.528407 0.0253051 0.818156 0 1.19964 0C1.37804 0 1.54569 0.00442779 1.71587 0.0170806C1.79748 0.0227743 1.90377 0.0341622 2.00562 0.0480803C1.94805 0.177139 2.10748 0.632007 1.90756 0.875574C1.9025 0.874941 1.89807 0.874309 1.89175 0.873044C1.86897 0.868615 1.69816 0.828126 1.29959 0.822432C1.28251 0.822432 1.26543 0.822432 1.24772 0.822432C1.23 0.822432 1.21103 0.822432 1.19205 0.822432C0.702383 0.822432 0.427817 0.885696 0.223474 0.927451C0.201332 0.929981 0.202597 0.910369 0.209556 0.901512C0.226005 0.880635 0.243086 0.869247 0.243086 0.869247C0.243086 0.869247 0.226637 0.864819 0.221575 0.841412C0.215882 0.816739 0.238025 0.791432 0.238025 0.791432C0.237392 0.791432 0.2298 0.786371 0.210821 0.726271C0.179189 0.626313 0.14123 0.368196 0.143761 0.262545C0.146292 0.156894 0.203862 0.105651 0.203862 0.105651C0.203862 0.105651 0.0248249 0.126528 0.00268253 0.122099L0.00141698 0.121467Z" fill="url(#paint0_linear_3091_43836)"/>
<defs>
<linearGradient id="paint0_linear_3091_43836" x1="0.000151698" y1="0.463093" x2="2.01132" y2="0.463093" gradientUnits="userSpaceOnUse">
<stop offset="0.16" stop-color="#B8C8DD"/>
<stop offset="0.49" stop-color="#C3CFE2"/>
</linearGradient>
</defs>
</svg>
