<svg width="4" height="1" viewBox="0 0 4 1" fill="none" xmlns="http://www.w3.org/2000/svg">
<path d="M3.27539 0.0595235C3.23049 0.0746235 2.76629 0.0930237 2.64359 0.0898237C2.73149 0.113224 0.559189 0.113224 0.647089 0.0898237C0.524389 0.0930237 0.0601894 0.0746235 0.0152894 0.0595235C-0.108711 0.0177235 0.562289 0.0247237 0.561689 0.0133238C0.561089 0.00322375 0.489589 2.46228e-05 0.552889 0.000624623C0.874789 0.00252462 1.50149 0.00952431 1.61279 0.00952431C1.74559 0.00952431 2.61709 -0.000574285 2.82009 2.57153e-05C2.80169 0.00132572 2.78849 0.00702375 2.78089 0.0133238C2.78529 0.0183237 2.79979 0.0228251 2.82449 0.0234251C3.10529 0.0329251 3.35639 0.0310235 3.27539 0.0595235Z" fill="url(#paint0_linear_1591_39759)"/>
<defs>
<linearGradient id="paint0_linear_1591_39759" x1="8.93938e-05" y1="0.0538247" x2="3.29059" y2="0.0538247" gradientUnits="userSpaceOnUse">
<stop offset="0.06" stop-color="#A3B7D4"/>
<stop offset="0.32" stop-color="#ADBFD9"/>
<stop offset="0.75" stop-color="#C7D5E7"/>
<stop offset="0.79" stop-color="#D6E0ED"/>
<stop offset="0.87" stop-color="#ECF1F7"/>
<stop offset="0.94" stop-color="#FAFBFD"/>
<stop offset="1" stop-color="white"/>
</linearGradient>
</defs>
</svg>
