<svg width="3" height="1" viewBox="0 0 3 1" fill="none" xmlns="http://www.w3.org/2000/svg">
<path d="M0.00141432 0.1215C-0.0143857 0.119 0.103914 0.0924003 0.270214 0.0620003C0.276614 0.0608003 0.283514 0.0600999 0.290514 0.0588999C0.528414 0.0252999 0.818114 0 1.19961 0C1.40651 0 1.59821 0.00829963 1.77971 0.0221996C1.85631 0.0278996 1.98911 0.0443003 2.10431 0.0627003C2.05111 0.2145 2.21431 0.5492 1.99551 0.8933C1.99101 0.8927 1.98531 0.8914 1.97841 0.8908C1.92331 0.8807 1.67411 0.8307 1.31221 0.8231C1.29321 0.8231 1.27301 0.8225 1.25341 0.8225C1.23381 0.8225 1.21221 0.8225 1.19071 0.8225C0.701114 0.8225 0.426514 0.8857 0.222214 0.9275C0.200014 0.93 0.201314 0.9104 0.208214 0.9015C0.224714 0.8807 0.241814 0.8693 0.241814 0.8693C0.241814 0.8693 0.225314 0.8649 0.220314 0.8414C0.214614 0.8168 0.238614 0.7896 0.238614 0.7896C0.238014 0.7896 0.228514 0.7864 0.209514 0.7263C0.177914 0.6263 0.139914 0.3682 0.142514 0.2626C0.145014 0.1569 0.202614 0.1057 0.202614 0.1057C0.202614 0.1057 0.0235143 0.126 0.00141432 0.1215Z" fill="url(#paint0_linear_1591_39794)"/>
<defs>
<linearGradient id="paint0_linear_1591_39794" x1="0.000114319" y1="0.4631" x2="2.11311" y2="0.4631" gradientUnits="userSpaceOnUse">
<stop offset="0.16" stop-color="#D8E1EC"/>
<stop offset="0.49" stop-color="#DEE4EF"/>
</linearGradient>
</defs>
</svg>
