<svg width="3" height="1" viewBox="0 0 3 1" fill="none" xmlns="http://www.w3.org/2000/svg">
<path d="M2.2832 0.0265708C2.37177 0.0733861 2.44452 0.12716 2.49766 0.203077C2.44199 0.185996 2.38379 0.16765 2.32305 0.150569C2.32748 0.14614 2.32685 0.137915 2.32116 0.130956C2.31863 0.12716 2.2832 0.094896 2.2832 0.094896C2.2832 0.094896 2.29395 0.0866714 2.29648 0.0619985C2.29775 0.0499783 2.28636 0.0297343 2.2832 0.0259385V0.0265708ZM0.261913 0.105018C0.27077 0.0942636 0.297342 0.0733865 0.297342 0.0733865C0.297342 0.0733865 0.282158 0.0613659 0.278362 0.0373255C0.275199 0.0196116 0.289117 0 0.289117 0C0.168915 0.0544071 0.0645293 0.110079 0 0.203077C0.0797126 0.178404 0.165752 0.151834 0.257485 0.128426C0.253056 0.122732 0.257484 0.109447 0.261913 0.105018Z" fill="#617DA2"/>
</svg>
