<svg width="3" height="4" viewBox="0 0 3 4" fill="none" xmlns="http://www.w3.org/2000/svg">
<path d="M1.30081 0.5021C1.65916 0.5021 1.86871 0.615477 1.96083 0.682289C2.00334 0.713671 2.057 0.731891 2.10862 0.731891C2.24731 0.731891 2.35967 0.622564 2.35967 0.486916C2.35967 0.401883 2.32222 0.326973 2.25844 0.281419C2.05193 0.133623 1.82315 0 1.30081 0C0.589159 0 0.0728857 0.39682 0.0728857 0.944475C0.0728857 1.49213 0.485906 1.88288 1.12467 1.88288H1.48707C1.71079 1.88288 1.97702 1.95576 1.97702 2.30096C1.97702 2.5763 1.7037 2.76864 1.31397 2.76864C0.950551 2.76864 0.648885 2.66741 0.392773 2.45786L0.357342 2.42851L0 2.80913L0.0404945 2.84254C0.379615 3.11788 0.832112 3.26973 1.31397 3.26973C2.0408 3.26973 2.52974 2.87999 2.52974 2.29995C2.52974 1.75027 2.11065 1.38078 1.48707 1.38078H1.12467C0.811866 1.38078 0.625604 1.2178 0.625604 0.944475C0.625604 0.671154 0.896899 0.5021 1.30182 0.5021H1.30081Z" fill="white"/>
</svg>
