<svg width="5" height="2" viewBox="0 0 5 2" fill="none" xmlns="http://www.w3.org/2000/svg">
<path d="M4.58657 0.36554C4.4506 0.352891 4.10656 0.296605 4.10277 0.354155C4.09961 0.402219 4.67827 0.513525 4.58278 0.610918C4.45123 0.744992 4.40633 0.992269 4.40127 1.19275C4.39179 1.51781 4.51701 1.58042 4.47084 1.65315C4.44048 1.70058 4.22546 1.67971 3.79352 1.64872C3.44379 1.59307 3.06813 1.55006 2.695 1.55006C2.18906 1.55006 1.59648 1.6209 1.1247 1.71702C0.657338 1.81315 0.260177 1.8979 0.224129 1.84288C0.178595 1.77268 0.30255 1.72651 0.293696 1.41409C0.288004 1.22121 0.298122 0.999225 0.167844 0.868946C0.0653914 0.765862 0.592198 0.580562 0.589669 0.524909C0.586507 0.462932 0.308874 0.521748 0.172903 0.533764C0.0970125 0.54072 -0.0142941 0.572341 0.00151649 0.507834C0.625716 0.203007 1.68882 0 2.695 0C3.44821 0 4.18941 0.100555 4.8193 0.290281C4.83195 0.318108 4.64982 0.371231 4.58594 0.36554H4.58657Z" fill="url(#paint0_linear_3091_43969)"/>
<defs>
<linearGradient id="paint0_linear_3091_43969" x1="0.000251648" y1="0.930292" x2="4.82057" y2="0.930292" gradientUnits="userSpaceOnUse">
<stop offset="0.16" stop-color="#DEE7F7"/>
<stop offset="0.49" stop-color="#EBF1FB"/>
</linearGradient>
</defs>
</svg>
