<svg width="6" height="1" viewBox="0 0 6 1" fill="none" xmlns="http://www.w3.org/2000/svg">
<path d="M1.59585 0.0917009C1.97278 0.034783 2.38891 0.00189726 2.84552 0C2.87208 0 2.89864 0 2.92583 0C3.35462 0.00189726 3.74672 0.0316213 4.1053 0.082215C4.12744 0.0853771 4.14957 0.0885388 4.17171 0.0917009C4.22673 0.0999224 4.28111 0.108776 4.33487 0.118262C4.35005 0.120792 4.36586 0.123955 4.38104 0.126484C4.38167 0.126484 4.3823 0.126484 4.38293 0.126484C5.13488 0.330124 5.48208 0.559693 4.58278 0.411706C4.52649 0.39969 4.47021 0.388939 4.41329 0.378821C4.33993 0.36554 4.26594 0.353523 4.19131 0.342772C2.86259 0.145457 1.43964 0.257396 0.239941 0.662145C-0.0636216 0.764598 -0.0806968 0.706415 0.197569 0.546412C0.581448 0.326962 1.1032 0.184034 1.59585 0.0917009Z" fill="url(#paint0_linear_3091_44009)"/>
<defs>
<linearGradient id="paint0_linear_3091_44009" x1="-0.000379343" y1="0.356686" x2="5.11844" y2="0.356686" gradientUnits="userSpaceOnUse">
<stop offset="0.16" stop-color="#E2EAF8"/>
<stop offset="0.49" stop-color="#EEF3FC"/>
</linearGradient>
</defs>
</svg>
