<svg width="3" height="1" viewBox="0 0 3 1" fill="none" xmlns="http://www.w3.org/2000/svg">
<path d="M2.06684 0.36187C1.70687 0.272035 1.45951 0.237872 0.99325 0.237872C0.526994 0.237872 0.300509 0.2733 0.00253535 0.339727C-0.00315841 0.334666 0.00190256 0.320116 0.00633104 0.315688C0.015188 0.304933 0.0417597 0.284056 0.0417597 0.284056C0.0417597 0.284056 0.0265761 0.272035 0.0227803 0.247995C0.0196171 0.230281 0.0335351 0.210669 0.0335351 0.210669C0.0778199 0.185996 0.416282 0 0.99325 0C1.53099 0 1.79607 0.123365 2.02762 0.23724C2.02762 0.23724 2.04217 0.256852 2.0409 0.273301C2.039 0.297974 2.02762 0.306198 2.02762 0.306198C2.02762 0.306198 2.05988 0.334666 2.06557 0.341625C2.07127 0.348584 2.0719 0.357442 2.06684 0.36187Z" fill="#8298B4"/>
</svg>
