<svg width="7" height="16" viewBox="0 0 7 16" fill="none" xmlns="http://www.w3.org/2000/svg">
<path d="M5.11094 11.7029C4.56516 12.8982 4.57528 14.6234 4.54493 15.5493C4.33686 15.548 4.06492 15.5461 3.79108 15.543C3.47613 15.5392 2.77478 15.5487 2.71154 15.5461C2.61857 15.5423 2.60529 15.5208 2.5996 15.4728C2.58505 15.3526 2.66031 13.7621 1.93998 12.1829C1.49033 11.1976 0.951507 10.5228 0.528417 9.15615C-0.126772 7.0407 -0.0325408 3.01977 0.0382904 2.32916C0.122402 1.50195 0.278611 0.399011 2.71343 0.0423249C3.0385 -0.00510674 3.69622 -0.041787 4.32168 -0.00890111C4.33749 -0.00700385 4.3514 -0.00384205 4.36532 -0.00131236C5.95523 0.252921 6.14495 1.36409 6.25562 1.85421C6.5497 3.1589 6.64709 8.33717 5.11094 11.7029Z" fill="url(#paint0_linear_1587_25541)"/>
<defs>
<linearGradient id="paint0_linear_1587_25541" x1="-0.0116709" y1="7.76356" x2="6.43081" y2="7.76356" gradientUnits="userSpaceOnUse">
<stop offset="0.16" stop-color="#CCDAF2"/>
<stop offset="0.52" stop-color="#E1EAF9"/>
</linearGradient>
</defs>
</svg>
