<svg width="5" height="2" viewBox="0 0 5 2" fill="none" xmlns="http://www.w3.org/2000/svg">
<path d="M4.69978 0.406647C4.56381 0.394631 4.18245 0.31621 4.17992 0.37376C4.17803 0.414868 4.77756 0.535661 4.68207 0.633054C4.55052 0.767127 4.50562 1.02579 4.50056 1.22627C4.49108 1.55133 4.6163 1.61394 4.57013 1.68667C4.5423 1.7303 4.33297 1.70627 3.95541 1.67465C3.55952 1.60572 3.12505 1.55006 2.695 1.55006C2.18906 1.55006 1.59648 1.6209 1.1247 1.71702C0.657337 1.81315 0.260176 1.8979 0.224128 1.84288C0.178594 1.77268 0.302549 1.72651 0.293695 1.41409C0.288003 1.22121 0.298121 0.999225 0.167843 0.868946C0.0653904 0.765862 0.592198 0.580562 0.589669 0.524909C0.586507 0.462932 0.308873 0.521748 0.172902 0.533764C0.0970116 0.54072 -0.014294 0.572341 0.0015165 0.507834C0.625716 0.203007 1.68882 0 2.695 0C3.48426 0 4.25961 0.110041 4.90847 0.317475C4.90974 0.358582 4.76428 0.412338 4.69978 0.406647Z" fill="url(#paint0_linear_3091_43959)"/>
<defs>
<linearGradient id="paint0_linear_3091_43959" x1="-0.000380774" y1="0.930292" x2="4.90847" y2="0.930292" gradientUnits="userSpaceOnUse">
<stop offset="0.16" stop-color="#ECF1FA"/>
<stop offset="0.49" stop-color="#F4F7FD"/>
</linearGradient>
</defs>
</svg>
