<svg width="6" height="5" viewBox="0 0 6 5" fill="none" xmlns="http://www.w3.org/2000/svg">
<path d="M5.07058 4.35694C5.19618 4.51486 5.35408 4.58774 5.36118 4.58774L5.35408 4.61406H4.30528C4.14028 4.61406 3.99558 4.51486 3.94288 4.37718L3.61998 3.55925H1.74115L1.41823 4.37718C1.36559 4.51587 1.22083 4.61406 1.05583 4.61406H0.0070796L0 4.58774C0.00708 4.58774 0.165 4.51486 0.29053 4.35694C0.38973 4.2385 0.51425 3.98745 0.56081 3.8761L2.17644 0H3.18468L4.80028 3.8761C4.84688 3.98846 4.97138 4.2385 5.07058 4.35694ZM3.29708 2.73523L2.68358 1.18642H2.67648L2.06307 2.73523H3.29708Z" fill="white"/>
</svg>
