<svg width="5" height="2" viewBox="0 0 5 2" fill="none" xmlns="http://www.w3.org/2000/svg">
<path d="M4.51762 0.34085C4.38172 0.32885 4.06041 0.285251 4.05601 0.342751C4.05151 0.394651 4.61881 0.500251 4.52331 0.597651C4.39181 0.731751 4.34691 0.97205 4.34181 1.17255C4.33231 1.49755 4.45761 1.56085 4.41141 1.63295C4.37981 1.68285 4.16091 1.66455 3.69611 1.63295C3.37421 1.58485 3.03331 1.55005 2.69501 1.55005C2.18911 1.55005 1.59652 1.62085 1.12472 1.71705C0.657315 1.81315 0.260215 1.89785 0.224115 1.84285C0.178615 1.77265 0.302515 1.72655 0.293715 1.41405C0.288015 1.22125 0.298114 0.99925 0.167814 0.86895C0.0654145 0.76585 0.592214 0.58055 0.589714 0.52495C0.586514 0.46295 0.308915 0.521751 0.172915 0.533751C0.0970147 0.540751 -0.0142854 0.572351 0.00151464 0.507851C0.625715 0.203051 1.68881 0 2.69501 0C3.42671 0 4.14702 0.0948604 4.76552 0.27385C4.78452 0.29345 4.58022 0.34655 4.51762 0.34085Z" fill="url(#paint0_linear_1591_39938)"/>
<defs>
<linearGradient id="paint0_linear_1591_39938" x1="-0.000385357" y1="0.93025" x2="4.76682" y2="0.93025" gradientUnits="userSpaceOnUse">
<stop offset="0.16" stop-color="#D5E0F4"/>
<stop offset="0.49" stop-color="#E6EDFA"/>
</linearGradient>
</defs>
</svg>
