<svg width="4" height="4" viewBox="0 0 4 4" fill="none" xmlns="http://www.w3.org/2000/svg">
<path d="M2.90126 3.45681C2.76465 3.34235 2.64829 3.25381 2.53635 3.17412C2.5471 3.0723 2.55026 3.0527 2.56924 2.91167C2.57682 2.85538 2.52939 2.65048 2.52433 2.61949C2.52876 2.62012 2.60275 2.59672 2.60275 2.55055C2.60275 2.47087 2.53951 2.37158 2.53888 2.36589C2.5275 2.19007 2.49904 1.96999 2.49904 1.96999C2.46995 1.92762 2.45919 1.6171 2.46425 1.58738C2.34915 1.41852 2.09239 1.108 2.0886 1.07259C2.05318 0.759538 1.77744 0.813293 1.76353 0.802542C1.79136 0.766494 1.87041 0.677323 1.90456 0.644437C1.88496 0.61408 1.29997 0.621037 1.28732 0.621669C1.30566 0.591946 1.29301 0.590049 1.35182 0.508466C1.39862 0.443327 1.34613 0.456608 1.26771 0.507201C1.23356 0.529336 1.1874 0.573606 1.1406 0.568546C1.12858 0.567281 1.06724 0.49898 1.05206 0.49898C1.0236 0.49898 1.0021 0.514791 0.986918 0.526174C0.984388 0.528071 0.980592 0.530601 0.97743 0.533131C0.958458 0.52238 0.932528 0.511629 0.894583 0.511629C0.819325 0.511629 0.717506 0.528071 0.66628 0.551471C0.605567 0.579297 0.494262 0.698193 0.445565 0.701355C0.343113 0.707047 0.322242 0.793689 0.305799 0.894244C0.287459 1.00302 0.28746 1.18516 0.253309 1.18263C0.229277 1.18073 -0.017367 0.633054 0.00097327 0.337713C0.00919475 0.25613 0.0174151 0.216287 0.0294311 0.15937C0.0376526 0.151148 0.350702 0 0.700431 0C0.89079 0 1.09127 0.0177076 1.28036 0.0354154C1.37206 0.0442693 1.47704 0.150516 1.54471 0.184667C1.66487 0.244747 1.878 0.25866 2.05192 0.325065C2.1999 0.38135 2.13856 0.473051 2.19042 0.498347C2.24986 0.527439 2.39279 0.536293 2.44781 0.590048C2.50789 0.648231 2.75264 0.822147 2.7596 0.916378C2.70457 0.892978 2.61856 0.88539 2.46552 0.920805C2.46362 0.94294 2.52054 0.942307 2.59453 0.969501C2.7792 1.03717 2.78679 1.17504 2.83422 1.2503C2.86015 1.2914 2.99043 1.42927 3.00561 1.56208C2.82726 1.44192 2.58884 1.44129 2.58884 1.44129C2.58884 1.44129 2.6388 1.47291 2.62679 1.48619C2.80956 1.54754 2.95944 1.63101 2.93857 1.83402C2.92972 1.92003 3.09668 2.02881 3.03596 2.17806C2.9879 2.12241 2.89873 2.08509 2.81651 2.05727C2.75264 2.03576 2.67738 2.02754 2.67232 2.04146C2.6641 2.06359 2.76971 2.12051 2.80323 2.14897C2.94869 2.27103 2.98347 2.33996 2.97335 2.41585C2.95059 2.58977 2.99992 2.66376 2.9158 2.78329C2.88608 2.82629 2.92402 3.1406 2.90062 3.45745L2.90126 3.45681Z" fill="#DEE8F9"/>
</svg>
