<svg width="2" height="1" viewBox="0 0 2 1" fill="none" xmlns="http://www.w3.org/2000/svg">
<path d="M0.00141698 0.121467C-0.014399 0.118936 0.103905 0.0910999 0.270289 0.0619985C0.276615 0.0607332 0.282942 0.0601003 0.290534 0.0588351C0.528407 0.0253051 0.818156 0 1.19964 0C1.36919 0 1.52988 0.00379522 1.69626 0.0151827C1.77914 0.0208765 1.87719 0.0303663 1.97525 0.0430191C1.91642 0.165119 2.07521 0.65668 1.88036 0.86988C1.8753 0.869248 1.87087 0.868615 1.86454 0.867982C1.85189 0.865452 1.70448 0.828126 1.29453 0.822432C1.27808 0.822432 1.26164 0.822432 1.24456 0.822432C1.22747 0.822432 1.20913 0.822432 1.19078 0.822432C0.701117 0.822432 0.426551 0.885696 0.222209 0.927451C0.200066 0.929981 0.201332 0.910369 0.208291 0.901512C0.224739 0.880635 0.24182 0.869247 0.24182 0.869247C0.24182 0.869247 0.225372 0.864819 0.220311 0.841412C0.214617 0.816739 0.236759 0.792065 0.236759 0.792065C0.236127 0.792065 0.228535 0.786371 0.209556 0.726271C0.177924 0.626313 0.139965 0.368196 0.142495 0.262545C0.145026 0.156894 0.202597 0.105651 0.202597 0.105651C0.202597 0.105651 0.0235594 0.126528 0.00141698 0.122099V0.121467Z" fill="url(#paint0_linear_3091_43840)"/>
<defs>
<linearGradient id="paint0_linear_3091_43840" x1="-0.000480942" y1="0.463093" x2="1.98031" y2="0.463093" gradientUnits="userSpaceOnUse">
<stop offset="0.16" stop-color="#AEC0D9"/>
<stop offset="0.49" stop-color="#BBC8DE"/>
</linearGradient>
</defs>
</svg>
