<svg width="6" height="1" viewBox="0 0 6 1" fill="none" xmlns="http://www.w3.org/2000/svg">
<path d="M1.59648 0.0916996C1.98228 0.0335196 2.40918 0 2.87908 0C2.90688 0 2.93408 0 2.96128 0C3.40268 0.00317 3.80488 0.0360502 4.17108 0.0910702C4.19388 0.0942302 4.21658 0.09803 4.23878 0.10182C4.29568 0.11068 4.35128 0.12016 4.40638 0.13091C4.42218 0.13408 4.43728 0.13661 4.45318 0.13977C4.45378 0.13977 4.45438 0.13977 4.45508 0.13977C5.29998 0.3687 5.84888 0.68239 4.67888 0.43131C4.62198 0.41867 4.56448 0.40665 4.50628 0.3959C4.43288 0.38199 4.35958 0.3687 4.28558 0.35732C2.93028 0.13787 1.46808 0.24791 0.239983 0.66278C-0.0636171 0.76523 -0.0807174 0.707049 0.197583 0.54705C0.581483 0.3276 1.10378 0.18403 1.59648 0.0916996Z" fill="url(#paint0_linear_1591_39954)"/>
<defs>
<linearGradient id="paint0_linear_1591_39954" x1="0.000282722" y1="0.35669" x2="5.34928" y2="0.35669" gradientUnits="userSpaceOnUse">
<stop offset="0.16" stop-color="#F9FBFE"/>
<stop offset="0.49" stop-color="#FCFDFE"/>
</linearGradient>
</defs>
</svg>
