<svg width="3" height="1" viewBox="0 0 3 1" fill="none" xmlns="http://www.w3.org/2000/svg">
<path d="M0.00141432 0.1215C-0.0143857 0.119 0.103914 0.0918003 0.270214 0.0620003C0.276614 0.0608003 0.283514 0.0600999 0.290514 0.0588999C0.528414 0.0252999 0.818114 0 1.19961 0C1.38241 0 1.55391 0.0051002 1.72531 0.0177002C1.80631 0.0234002 1.91641 0.0355002 2.02011 0.0500002C1.96321 0.1822 2.12321 0.6188 1.92021 0.8781C1.91511 0.8775 1.91071 0.8769 1.90441 0.8756C1.87721 0.8705 1.69371 0.8282 1.30081 0.8225C1.28371 0.8225 1.26601 0.8225 1.24771 0.8218C1.22931 0.8212 1.21031 0.8218 1.19071 0.8218C0.701114 0.8218 0.426514 0.8851 0.222214 0.9269C0.200014 0.9294 0.201314 0.9098 0.208214 0.9009C0.224714 0.88 0.241814 0.8686 0.241814 0.8686C0.241814 0.8686 0.225314 0.8642 0.220314 0.8408C0.214614 0.8161 0.237314 0.7908 0.237314 0.7908C0.237314 0.7908 0.228514 0.7858 0.209514 0.7257C0.177914 0.6257 0.139914 0.3676 0.142514 0.2619C0.145014 0.1563 0.202614 0.1051 0.202614 0.1051C0.202614 0.1051 0.0235143 0.1259 0.00141432 0.1215Z" fill="url(#paint0_linear_1591_39805)"/>
<defs>
<linearGradient id="paint0_linear_1591_39805" x1="0.000114319" y1="0.4631" x2="2.02711" y2="0.4631" gradientUnits="userSpaceOnUse">
<stop offset="0.16" stop-color="#BDCCE0"/>
<stop offset="0.49" stop-color="#C8D2E4"/>
</linearGradient>
</defs>
</svg>
