<svg width="50" height="48" viewBox="0 0 50 48" fill="none" xmlns="http://www.w3.org/2000/svg">
<path d="M12.8691 40.1161H11.1736V40.0992L11.5739 39.6427L13.1332 35.5154L12.8368 35.0603V35.0448H14.5563L16.1086 39.6441L16.5244 40.1006V40.1175H14.3568V40.1006L14.7726 39.6441L14.5408 38.8518H12.7497L12.4772 39.6441L12.8691 40.1006V40.1175V40.1161ZM13.0124 38.0918H14.3161L13.7162 36.0759L13.0124 38.0918ZM48.1304 36.9961C47.2103 36.7404 46.9307 36.628 46.9307 36.2038C46.9307 35.7163 47.5629 35.6194 47.9632 35.6194C48.299 35.6194 48.6108 35.6587 48.8918 35.7472L49.6602 36.5789H49.6757L49.6124 35.1474C49.132 34.9634 48.6291 34.8678 48.0531 34.8678C46.845 34.8678 45.6847 35.2837 45.6847 36.4847C45.6847 37.2602 46.2199 37.7237 47.3803 38.044C48.2765 38.2913 48.7162 38.4514 48.7162 38.908C48.7162 39.4362 48.0447 39.5471 47.5966 39.5471C47.2201 39.5471 46.8844 39.491 46.5964 39.4039L45.821 38.4444H45.8041L45.8603 39.9644C46.3885 40.2046 47.0291 40.2917 47.6275 40.2917C48.9227 40.2917 50.0114 39.748 50.0114 38.6523C50.0114 37.6198 49.2992 37.3248 48.1318 36.9961H48.1304ZM42.9721 35.0603L43.4595 35.5154V38.2028L41.4043 35.0434H39.5571V35.0589L39.9335 35.514V39.6413L39.5571 40.0978V40.1147H41.2442V40.0978L40.7483 39.6413V36.281L43.3162 40.1133H44.2757V35.514L44.6522 35.0589V35.0434H42.9721V35.0603ZM43.305 43.0661L43.5537 43.4538H43.4061L43.1744 43.0717H43.0198V43.4538H42.8878V42.5744H43.2221C43.43 42.5744 43.5326 42.6517 43.5326 42.8245C43.5326 42.9818 43.4342 43.0507 43.305 43.0661ZM43.18 42.9593C43.2924 42.9593 43.3935 42.9537 43.3935 42.8175C43.3935 42.7079 43.2952 42.6882 43.2011 42.6882H43.0198V42.9593H43.18ZM43.9526 43.0113C43.9526 43.4538 43.5958 43.7769 43.1814 43.7769C42.767 43.7769 42.4059 43.4538 42.4059 43.0113C42.4059 42.5688 42.7614 42.2513 43.1814 42.2513C43.6014 42.2513 43.9526 42.5744 43.9526 43.0113ZM43.7995 43.0113C43.7995 42.6503 43.5256 42.3778 43.1814 42.3778C42.8372 42.3778 42.5605 42.6503 42.5605 43.0113C42.5605 43.3723 42.833 43.6505 43.1814 43.6505C43.5298 43.6505 43.7995 43.3794 43.7995 43.0113ZM34.1388 42.389L34.5547 42.8456V45.7338C34.5547 46.5654 34.1473 46.7733 33.4828 46.7733C32.8184 46.7733 32.4025 46.5809 32.4025 45.7338V42.8456L32.8184 42.389V42.3722H30.7309V42.389L31.1073 42.8456V45.7338C31.1073 47.1175 31.8111 47.6218 33.3142 47.6218C34.6825 47.6218 35.3779 47.1498 35.3779 45.7745V42.847L35.7459 42.3904V42.3736H34.1388V42.3904V42.389ZM35.8302 40.2917C34.247 40.2917 33.2229 38.988 33.2229 37.5088C33.2229 36.0296 34.3987 34.8692 35.8709 34.8692C37.4949 34.8692 38.5344 36.142 38.5344 37.5973C38.5344 39.2606 37.2785 40.2931 35.8302 40.2931V40.2917ZM37.1746 37.9471C37.1746 37.0677 36.8473 35.6672 35.7262 35.6672C34.83 35.6672 34.5743 36.5634 34.5743 37.1703C34.5743 38.0581 34.9424 39.4895 36.0227 39.4895C36.7981 39.4895 37.1746 38.7534 37.1746 37.9457V37.9471ZM25.0893 35.5168L24.7128 35.0617V35.0462H27.1122C28.5675 35.0462 29.232 35.7093 29.232 36.7179C29.232 37.7266 28.4397 38.4135 27.3608 38.4135C27.0096 38.4135 26.6486 38.3896 26.3845 38.3264V39.6455L26.9127 40.102V40.1189H24.7128V40.102L25.0893 39.6455V35.5168ZM26.3845 37.6521C26.5446 37.6999 26.7287 37.7237 26.9197 37.7237C27.6235 37.7237 27.9283 37.3402 27.9283 36.7713C27.9283 36.0998 27.5364 35.7795 26.8087 35.7795H26.3845V37.6521ZM27.7078 45.0679L28.2121 45.5245V46.4769C28.052 46.6609 27.7724 46.8126 27.3959 46.8126C26.4997 46.8126 26.0277 45.7169 26.0277 44.7968C26.0277 43.7966 26.532 42.9565 27.5715 42.9565C27.8595 42.9565 28.1629 42.9804 28.4116 43.0689L29.2109 43.9329H29.2263L29.1786 42.5407C28.715 42.3005 28.1545 42.1966 27.587 42.1966C25.883 42.1966 24.6749 43.2445 24.6749 44.9724C24.6749 46.4193 25.6034 47.6204 27.0504 47.6204C27.6825 47.6204 28.2585 47.4757 28.7937 47.0852L29.4258 47.6204H29.4427V45.5245L29.843 45.0679V45.0525H27.7078V45.0679ZM32.1834 40.0992L31.8153 39.6427V35.5154L32.1834 35.0603V35.0448H30.1437V35.0603L30.5201 35.5154V39.6427L30.1437 40.0992V40.1161H32.1834V40.0992ZM3.05539 39.4432C2.01585 39.4432 1.35139 38.3868 1.35139 37.4751C1.35139 36.3555 1.95966 35.6278 2.83062 35.6278C3.06241 35.6278 3.28717 35.6517 3.48665 35.7079L4.27052 36.6758H4.28737L4.23118 35.0757C4.00642 34.9887 3.51896 34.8678 2.91912 34.8678C1.06341 34.8678 0 36.1321 0 37.5875C0 39.0428 1.02408 40.2903 2.78286 40.2903C3.25486 40.2903 3.95163 40.1301 4.43066 39.7705L4.5023 38.9305H4.48685C4.07947 39.2507 3.49508 39.4418 3.05539 39.4418V39.4432ZM23.8348 46.9714L24.2506 47.4265V47.442H22.0831V47.4265L22.4989 46.9714L22.2671 46.1791H20.476L20.2035 46.9714L20.5954 47.4265V47.442H18.8998V47.4265L19.3002 46.9714L20.8595 42.8442L20.5631 42.3876V42.3707H22.2825L23.8348 46.97V46.9714ZM22.0437 45.4191L21.4439 43.4033L20.7401 45.4191H22.0437ZM40.4013 46.7073H38.4009V45.1719H39.5922L40.0796 45.5877H40.0965V44.0199H40.0796L39.5922 44.4358H38.4009V43.0998H40.3283L40.8888 43.6997H40.9042L40.841 42.3722H36.7293V42.389L37.1057 42.8456V46.9728L36.7293 47.4279V47.4434H41.0166L41.1206 45.9164H41.1037L40.3999 46.7087L40.4013 46.7073ZM8.54244 40.0992V40.1161H10.5822V40.0992L10.2057 39.6427V35.5154L10.5822 35.0603V35.0448H8.54244V35.0603L8.91049 35.5154V37.0509H7.09411V35.5154L7.46217 35.0603V35.0448H5.42243V35.0603L5.79891 35.5154V39.6427L5.42243 40.0992V40.1161H7.46217V40.0992L7.09411 39.6427V37.8586H8.91049V39.6427L8.54244 40.0992ZM12.4168 46.7003H10.6805V42.8456L11.1525 42.389V42.3722H9.00882V42.389L9.3853 42.8456V46.9728L9.00882 47.4209V47.4448H13.0321L13.2246 45.8532H13.2077L12.4154 46.7003H12.4168ZM18.3702 36.5002L19.7863 40.1161H20.5786L21.8906 36.4609L22.114 39.6441L21.6181 40.1006V40.1175H23.7702V40.1006L23.3544 39.6441L23.0496 35.5168L23.3783 35.0617V35.0462H21.5872L20.3706 38.4289L19.0586 35.0462H17.2422V35.0617L17.6103 35.5168L17.3939 39.6441L16.9542 40.1006V40.1175H18.7214V40.1006L18.2817 39.6441L18.3688 36.5002H18.3702ZM17.6159 46.7073H15.6155V45.1719H16.8067L17.2942 45.5877H17.311V44.0199H17.2942L16.8067 44.4358H15.6155V43.0998H17.5428L18.1033 43.6997H18.1188L18.0556 42.3722H13.9438V42.389L14.3203 42.8456V46.9728L13.9438 47.4279V47.4434H18.2312L18.3351 45.9164H18.3183L17.6145 46.7087L17.6159 46.7073ZM30.3769 32.0372L30.5075 31.5863L29.9456 31.1663L30.3979 30.8418L30.6606 31.0384L30.9584 30.034L29.2292 31.1522L28.5212 30.7518L31.2324 28.9973C31.3363 28.9299 31.4796 28.8695 31.6608 29.0085L31.776 29.0984C31.9586 29.2389 31.9334 29.4005 31.8968 29.5086L30.9964 32.6062L30.3755 32.0372H30.3769ZM33.4533 29.5676L33.8565 29.0703C33.657 28.8695 33.4477 28.6756 33.2314 28.4888C30.9767 26.5417 28.0548 25.4699 25.0064 25.4699C21.958 25.4699 19.0361 26.5417 16.78 28.4888C16.5637 28.6756 16.3544 28.8709 16.1549 29.0703L16.5581 29.5676C16.7618 29.3611 16.9739 29.1616 17.1973 28.9706C19.3367 27.1233 22.1112 26.1063 25.0064 26.1063C27.9016 26.1063 30.6761 27.1233 32.8156 28.9706C33.0375 29.163 33.251 29.3625 33.4547 29.5676H33.4533ZM27.5294 27.8777L28.6715 28.1741L28.8513 27.4773L27.6769 27.1725C27.0335 27.0053 26.5924 27.2469 26.4365 27.851L25.9574 29.7011C25.935 29.7868 25.9448 29.8682 25.9841 29.9343C26.0235 30.0017 26.0895 30.0481 26.1752 30.0705L26.6107 30.1829L26.9197 28.986L28.2416 29.3288L28.42 28.6405L27.0981 28.2977L27.1501 28.0996C27.2175 27.8369 27.2962 27.8159 27.5308 27.8763L27.5294 27.8777ZM23.825 26.8564L21.9201 27.2427C21.833 27.261 21.7642 27.3045 21.722 27.3692C21.6785 27.4338 21.6658 27.5138 21.6827 27.6009L22.062 29.4721C22.1238 29.7769 22.2601 29.9961 22.468 30.1239C22.6056 30.2082 22.77 30.2503 22.9582 30.2503C23.0552 30.2503 23.1577 30.2391 23.2673 30.2166L24.4585 29.975L24.3153 29.2684L23.1563 29.503C22.9189 29.5508 22.8416 29.5255 22.7883 29.2586L22.7475 29.0577L24.0877 28.7852L23.9458 28.087L22.6056 28.3595L22.5045 27.858L23.9683 27.5602L23.825 26.8536V26.8564ZM19.8031 31.082C19.657 31.2014 19.487 31.259 19.3367 31.2407C19.1471 31.2196 19.0305 31.141 18.8423 30.9078L17.7521 29.5662L17.1635 30.0438L18.352 31.5048C18.6048 31.8139 18.8928 31.9796 19.2314 32.0105C19.2721 32.0147 19.3114 32.0161 19.3508 32.0161C19.6795 32.019 19.9843 31.9038 20.2807 31.6635C20.6109 31.3938 20.7921 31.082 20.8342 30.7069C20.8736 30.3683 20.7696 30.0523 20.5181 29.7418L19.3311 28.2809L18.7425 28.7585L19.8326 30.1C20.0223 30.3332 20.0756 30.4625 20.0574 30.6535C20.0447 30.8038 19.952 30.9584 19.8059 31.0778L19.8031 31.082ZM25.005 30.7687C22.7812 30.7687 20.7626 31.7633 19.532 33.2355L19.9225 33.7173C21.0407 32.3266 22.9414 31.3699 25.005 31.3699C27.0686 31.3699 28.9693 32.3266 30.0875 33.7173L30.478 33.2355C29.2474 31.7633 27.2288 30.7687 25.005 30.7687ZM35.2711 13.5813C35.2416 13.5953 35.2065 13.5743 35.2051 13.5405C35.1348 12.1653 35.0084 10.8279 34.9424 10.3391C34.948 9.15062 34.7513 7.91723 34.5547 7.00834C34.5476 6.97603 34.5771 6.94653 34.6094 6.95215C35.7319 7.18113 36.0915 7.60256 36.0915 7.60256C35.4973 6.26802 34.6418 5.2622 33.7118 4.50222C32.9167 2.83335 32.0008 2.06212 32.0008 2.06212C32.0752 2.43158 32.0233 2.8488 31.8926 3.27866C31.8842 3.30676 31.8533 3.3194 31.828 3.30676C30.3038 2.55942 28.7291 2.21946 28.1208 2.13377C27.2105 1.69126 26.2173 1.39767 25.4096 1.17571C25.3885 1.17009 25.3815 1.142 25.3997 1.12795C26.4716 0.237322 27.4591 0.00974823 27.4591 0.00974823C25.713 -0.0604905 24.2085 0.255584 22.9526 0.740231C21.0744 0.58992 19.8776 0.917233 19.8776 0.917233C19.8776 0.917233 20.3959 1.53955 20.5982 1.88512C20.6221 1.92727 20.6095 1.98065 20.5701 2.00874C19.3887 2.82913 18.5416 3.72959 18.2073 4.10607C17.835 4.15664 17.1902 4.24515 16.6269 4.38422C16.6044 4.38984 16.5862 4.36736 16.5946 4.34629C17.1593 3.00051 17.7732 2.25598 17.7732 2.25598C17.7732 2.25598 14.1489 4.83375 13.462 9.46529C13.462 9.46529 13.7598 8.6449 14.7698 7.40027C14.7824 7.38341 14.8091 7.38763 14.8176 7.40589C15.1041 8.03944 15.4301 8.60276 15.5944 8.86124C15.0395 9.75608 14.656 10.7324 14.42 11.5303C14.4116 11.5584 14.3905 11.5809 14.3638 11.5907C13.5238 11.9096 13.3102 12.2144 13.3102 12.2144C13.4409 12.6612 13.6966 13.0966 14.0211 13.5068C14.0492 13.5419 14.0632 13.5869 14.0618 13.6319C13.9733 15.6084 14.6097 16.9092 14.6097 16.9092C14.7529 16.2195 15.0353 15.548 15.3907 14.9186C15.4048 14.8933 15.4385 14.8877 15.461 14.9046C16.2898 15.5634 17.1481 16.1394 17.488 16.3445C17.6636 16.794 18.1666 17.9586 18.8394 19.1554C18.8535 19.1807 18.8423 19.213 18.8156 19.2229C18.0106 19.5165 17.1846 19.6499 16.4288 19.4645C16.4288 19.4645 17.342 20.6038 20.1571 21.0884C20.9382 22.0127 21.8892 22.7783 22.999 23.0438C22.999 23.0438 22.6731 22.6856 22.593 21.3511C22.5916 21.3244 22.6127 21.3005 22.6408 21.3019C23.3361 21.3118 24.2787 21.3272 25.1427 21.2654C25.4489 21.507 26.1162 22.0366 26.768 22.3752C26.8003 22.392 26.8017 22.437 26.7708 22.4567C25.6259 23.1492 24.8645 23.2096 24.8645 23.2096C30.0495 23.3206 33.1639 19.9351 33.1639 19.9351C32.3098 20.497 31.3237 20.8468 30.3417 21.0561C30.308 21.0631 30.2799 21.0336 30.287 20.9999C30.4696 20.1163 30.4176 19.2636 30.405 18.9616C31.6355 18.6567 32.7088 18.1061 33.5025 17.5427C33.5179 17.5315 33.5404 17.5315 33.5559 17.5427C33.886 17.7731 34.1698 18.0316 34.4521 18.4615C34.4521 18.4615 34.9901 17.7001 35.1756 15.9343C36.5073 14.1938 36.7054 12.4125 36.7054 12.4125C36.371 12.9351 35.8667 13.313 35.2753 13.5827L35.2711 13.5813ZM24.1059 2.57768C24.1509 2.50884 24.2239 2.46249 24.3054 2.45125C25.9771 2.2307 27.5055 2.19698 28.0941 2.21384C29.1631 2.92606 30.2083 3.86726 31.0427 4.75929C31.1017 4.82251 31.1102 4.91663 31.0638 4.98827C30.4682 5.92104 29.6028 6.81729 29.2221 7.20641C27.8117 7.54075 26.3171 8.02821 25.1033 8.42716C24.9853 8.4665 24.8561 8.42154 24.7844 8.31899C23.8643 6.97884 23.2785 5.82973 23.0496 5.40268C23.2982 4.28588 23.6466 3.2899 24.1059 2.57627V2.57768ZM15.9133 11.0808C15.777 10.2028 15.6871 9.28267 15.6773 8.85983C15.6548 7.88492 15.8093 7.02239 15.9892 6.22307C16.0187 6.09242 16.0861 5.97302 16.1844 5.88311C16.7056 5.40549 17.6482 4.56122 18.2424 4.17912C18.8029 3.8195 20.3608 3.31518 21.0028 3.12835C21.1278 3.09183 21.2599 3.14802 21.3245 3.2604C21.4018 3.39666 21.4832 3.53152 21.5675 3.66357C22.0732 4.45305 22.6309 5.13156 22.8655 5.42656C22.5551 6.66417 22.4216 8.05349 22.3626 9.22367C22.357 9.33324 22.2868 9.43017 22.1842 9.46951C20.5589 10.1045 19.3297 10.6018 18.9181 10.7928C17.8013 10.8406 16.7379 11.0302 16.0201 11.1566C15.9695 11.1651 15.9217 11.1314 15.9133 11.0794V11.0808ZM20.4816 18.394C20.3861 18.453 20.2639 18.4502 20.1726 18.3856C19.3508 17.8026 18.3688 17.0567 17.5513 16.2911C17.0694 15.4651 16.6972 14.4087 16.4373 13.5082C16.4204 13.4506 16.4331 13.3874 16.471 13.3411C17.3883 12.2116 18.4897 11.3168 18.949 10.9768C19.9871 11.425 21.1784 11.8211 22.2207 12.1695C22.3275 12.2046 22.4019 12.3001 22.4118 12.4125C22.5593 14.271 22.8992 15.7741 22.9891 16.3487C22.6 16.7659 21.583 17.7099 20.4802 18.3954L20.4816 18.394ZM31.9095 16.5524C31.12 17.8771 30.5201 18.675 30.3277 18.918C30.0664 19.2875 29.4019 20.2483 28.3694 21.2204C28.3034 21.2823 28.2177 21.3188 28.1264 21.3216C26.8326 21.375 25.6301 21.2851 25.1623 21.1825C24.7662 21.0182 23.8433 20.6023 22.7517 19.9983C22.6562 19.9463 22.6 19.8424 22.6085 19.7342C22.6646 18.8871 22.933 17.679 23.1704 16.4035C23.7576 15.371 24.3658 14.1924 24.9966 13.2245C25.0626 13.1219 25.1876 13.0756 25.3042 13.1079C27.1936 13.6248 28.833 14.0168 29.4975 14.1671C30.4092 15.2263 31.2914 15.9708 31.8856 16.4316C31.9221 16.4597 31.9319 16.5116 31.9081 16.5524H31.9095ZM33.2763 14.0294C33.2482 14.087 33.1934 14.1249 33.1316 14.1334C31.7002 14.3005 30.1774 14.0996 29.5916 14.0083C28.6125 13.0278 27.5519 11.9377 26.7708 10.9839C26.6907 10.8855 26.6865 10.7464 26.761 10.6439C27.875 9.086 28.8962 7.8512 29.3275 7.36094C30.5609 7.09122 31.7901 6.85381 32.6203 6.81869C32.6835 6.81588 32.7425 6.84538 32.779 6.89596C33.8495 8.38783 34.6151 9.81789 34.8609 10.3391C34.3692 11.6624 33.7778 12.9983 33.2777 14.0294H33.2763Z" fill="white"/>
</svg>
