<svg width="9" height="2" viewBox="0 0 9 2" fill="none" xmlns="http://www.w3.org/2000/svg">
<path d="M8.29075 1.8302L8.28885 1.8884C8.22695 1.6051 8.09785 1.4021 7.57865 0.9727C6.92035 0.42751 5.47655 0.0727301 4.17685 0.0727301C2.87725 0.0727301 1.41325 0.4174 0.74915 0.9727C0.23245 1.4046 0.0952502 1.5905 0.0383502 1.8871V1.8302C0.0383502 1.8302 -0.0407492 1.9877 0.0282508 1.7379C0.0971508 1.4875 0.350751 1.1637 0.720751 0.893001C1.59095 0.251701 2.96575 0 4.16425 0C5.36265 0 6.73755 0.251701 7.60715 0.893001C7.97775 1.1637 8.23075 1.4875 8.30025 1.7379C8.36925 1.9877 8.29075 1.8302 8.29075 1.8302Z" fill="url(#paint0_linear_1591_40203)"/>
<defs>
<linearGradient id="paint0_linear_1591_40203" x1="-0.000249345" y1="0.9442" x2="8.32875" y2="0.9442" gradientUnits="userSpaceOnUse">
<stop stop-color="#8298B4"/>
<stop offset="0.4" stop-color="#7F95B2"/>
<stop offset="0.64" stop-color="#788DAD"/>
<stop offset="0.84" stop-color="#6B7EA5"/>
<stop offset="0.92" stop-color="#6476A0"/>
</linearGradient>
</defs>
</svg>
