<svg width="24" height="15" viewBox="0 0 24 15" fill="none" xmlns="http://www.w3.org/2000/svg">
<path d="M16.522 8.77203C16.6146 8.70953 16.583 8.48379 16.6713 8.42276C16.7323 8.38012 16.7919 8.33821 16.8514 8.29556C16.8779 8.27718 16.9058 8.25732 16.9323 8.23894C16.9999 8.19115 17.0646 8.14409 17.1294 8.09703C17.1448 8.08527 17.1617 8.0735 17.1771 8.06247C17.2455 8.01247 17.3117 7.96321 17.3757 7.91394C17.3867 7.90585 17.397 7.8985 17.4073 7.88968C17.4749 7.83968 17.5396 7.78894 17.6029 7.73968C17.6088 7.73527 17.6154 7.73085 17.6213 7.72571C17.6852 7.67497 17.7477 7.62644 17.8073 7.57791C17.8117 7.57424 17.8154 7.57056 17.8198 7.56762C17.8801 7.51836 17.9374 7.47056 17.9926 7.42424C17.9955 7.4213 17.9985 7.41983 18.0007 7.41615C18.0558 7.36983 18.108 7.32424 18.1573 7.28012C18.1588 7.27939 18.1595 7.27792 18.161 7.27645C18.1918 7.2485 18.2249 7.21983 18.2529 7.19336C19.1411 6.43527 19.9301 5.60513 20.5985 4.72572C21.369 3.7066 22.0036 2.63676 22.4845 1.54485C22.5382 1.42352 22.6051 1.26544 22.6771 1.08602C22.6823 1.07279 22.6882 1.05955 22.6933 1.04705C22.7198 0.978672 22.7485 0.908085 22.7764 0.83382C22.7999 0.772056 22.8242 0.709556 22.8477 0.642644C22.8595 0.611027 22.8712 0.578674 22.883 0.545586C22.9036 0.487498 22.9249 0.428675 22.9455 0.368381C22.9573 0.333087 22.969 0.298528 22.9801 0.263235C23.0007 0.20147 23.0212 0.139705 23.0404 0.0764698C23.0484 0.0514699 23.0565 0.0257352 23.0646 0C23.058 0.0191176 23.0514 0.0389704 23.044 0.0573527C23.0323 0.0904408 23.0205 0.122793 23.0087 0.154411C22.9845 0.220587 22.9602 0.283087 22.9374 0.345587C22.9095 0.419851 22.8808 0.490439 22.8543 0.558821C22.8492 0.571321 22.8433 0.584556 22.8382 0.597791C22.7661 0.777202 22.6992 0.934555 22.6455 1.05661C22.1646 2.14852 21.5301 3.21837 20.7595 4.23748C20.0911 5.11616 19.3021 5.94704 18.4139 6.70512C18.386 6.73159 18.3529 6.75953 18.322 6.78747C18.322 6.78747 18.3198 6.79042 18.3183 6.79115C18.2691 6.83527 18.2168 6.88086 18.1617 6.92718C18.1595 6.93012 18.1566 6.93233 18.1536 6.93527C18.0985 6.98159 18.0411 7.02939 17.9808 7.07865C17.9764 7.08233 17.972 7.086 17.9683 7.08894C17.9088 7.13747 17.8463 7.18674 17.7823 7.23674C17.7764 7.24189 17.7698 7.24703 17.7639 7.25071C17.7007 7.29997 17.636 7.35071 17.5683 7.40071C17.558 7.4088 17.5477 7.41689 17.5367 7.42497C17.4727 7.47424 17.4066 7.5235 17.3382 7.5735C17.3227 7.58527 17.3058 7.5963 17.2904 7.60806C17.2264 7.65512 17.161 7.70218 17.0933 7.74997C17.0669 7.76836 17.0389 7.78821 17.0124 7.80659C16.9529 7.8485 16.8941 7.89115 16.8323 7.9338C16.7441 7.99483 16.6529 8.05806 16.5602 8.12056C13.5904 10.1433 11.1441 11.4654 8.76394 12.3323C6.37571 13.2029 1.55147 14.558 0 14.8316C1.69264 14.6529 7.71247 13.0948 9.611 12.3919C11.5455 11.6963 13.5529 10.7941 16.5227 8.77129L16.522 8.77203Z" fill="url(#paint0_linear_3091_44441)"/>
<defs>
<linearGradient id="paint0_linear_3091_44441" x1="-0.495381" y1="7.16222" x2="22.583" y2="7.66176" gradientUnits="userSpaceOnUse">
<stop offset="0.09" stop-color="#E3E9EC"/>
<stop offset="0.2" stop-color="#DD646A"/>
<stop offset="0.26" stop-color="#DA2128"/>
<stop offset="0.41" stop-color="#D63437"/>
<stop offset="0.52" stop-color="#D43F40"/>
<stop offset="0.58" stop-color="#DC5C58"/>
<stop offset="0.65" stop-color="#E68075"/>
<stop offset="0.73" stop-color="#EE9C8B"/>
<stop offset="0.8" stop-color="#F3B09C"/>
<stop offset="0.88" stop-color="#F6BCA5"/>
<stop offset="0.96" stop-color="#F8C0A9"/>
</linearGradient>
</defs>
</svg>
