<svg width="5" height="2" viewBox="0 0 5 2" fill="none" xmlns="http://www.w3.org/2000/svg">
<path d="M4.48412 0.329492C4.34815 0.317476 4.03826 0.280163 4.0332 0.337714C4.02878 0.39147 4.5891 0.494554 4.49361 0.591947C4.36206 0.72602 4.31716 0.962545 4.3121 1.16302C4.30261 1.48809 4.42783 1.55133 4.38167 1.62343C4.34941 1.67402 4.1287 1.65694 3.64806 1.62532C3.34007 1.58169 3.0169 1.55007 2.695 1.55007C2.18906 1.55007 1.59648 1.6209 1.1247 1.71702C0.657338 1.81315 0.260177 1.8979 0.224129 1.84288C0.178595 1.77268 0.30255 1.72651 0.293696 1.41409C0.288004 1.22121 0.298122 0.999226 0.167844 0.868947C0.0653913 0.765863 0.592198 0.580563 0.589669 0.52491C0.586506 0.462933 0.308874 0.521748 0.172903 0.533764C0.0970125 0.54072 -0.014294 0.572341 0.00151649 0.507834C0.625716 0.203007 1.68882 0 2.695 0C3.41596 0 4.12617 0.0917019 4.73899 0.265618C4.76175 0.281428 4.5461 0.334552 4.48412 0.32886V0.329492Z" fill="url(#paint0_linear_1587_25622)"/>
<defs>
<linearGradient id="paint0_linear_1587_25622" x1="0.000251648" y1="0.930924" x2="4.74088" y2="0.930924" gradientUnits="userSpaceOnUse">
<stop offset="0.16" stop-color="#D1DDF3"/>
<stop offset="0.49" stop-color="#E3ECFA"/>
</linearGradient>
</defs>
</svg>
