<svg width="5" height="1" viewBox="0 0 5 1" fill="none" xmlns="http://www.w3.org/2000/svg">
<path d="M1.59585 0.0917009C1.96455 0.0360478 2.36994 0.00316211 2.81516 0C2.84109 0 2.86702 0 2.89358 0C3.31098 0 3.69296 0.0278264 4.04459 0.0739932C4.06672 0.0771553 4.08823 0.0796849 4.11036 0.082847C4.16412 0.0904361 4.21724 0.0980255 4.2691 0.106879C4.28428 0.109409 4.29945 0.111938 4.314 0.114468C4.31463 0.114468 4.31527 0.114468 4.3159 0.114468C4.98057 0.294076 5.13868 0.445224 4.49297 0.393998C4.43795 0.382615 4.38167 0.373129 4.32665 0.363642C4.25266 0.350994 4.17803 0.33961 4.10277 0.329491C2.79872 0.153045 1.41245 0.266249 0.239941 0.662145C-0.0636216 0.764598 -0.0806968 0.706415 0.197569 0.546412C0.581448 0.326962 1.1032 0.184034 1.59585 0.0917009Z" fill="url(#paint0_linear_1587_25668)"/>
<defs>
<linearGradient id="paint0_linear_1587_25668" x1="-0.000379343" y1="0.356686" x2="4.90278" y2="0.356686" gradientUnits="userSpaceOnUse">
<stop offset="0.16" stop-color="#CCDAF2"/>
<stop offset="0.49" stop-color="#E1EAF9"/>
</linearGradient>
</defs>
</svg>
