<svg width="6" height="1" viewBox="0 0 6 1" fill="none" xmlns="http://www.w3.org/2000/svg">
<path d="M1.59648 0.0916996C1.97028 0.0354196 2.38198 0.00253 2.83418 0C2.86068 0 2.88728 0 2.91318 0C3.33758 0.00127 3.72588 0.0297296 4.08128 0.0790596C4.10338 0.0822196 4.12558 0.0853801 4.14768 0.0885401C4.20208 0.0961301 4.25578 0.10499 4.30898 0.11384C4.32408 0.11637 4.33998 0.11953 4.35448 0.12206C4.35508 0.12206 4.35578 0.12206 4.35638 0.12206C5.07288 0.31558 5.34488 0.51416 4.54678 0.40539C4.49108 0.39337 4.43478 0.383249 4.37848 0.373759C4.30448 0.361119 4.23048 0.349099 4.15588 0.338349C2.83668 0.149249 1.42888 0.26183 0.239983 0.66278C-0.0636171 0.76523 -0.0807174 0.707049 0.197583 0.54705C0.581483 0.3276 1.10378 0.18403 1.59648 0.0916996Z" fill="url(#paint0_linear_1591_39976)"/>
<defs>
<linearGradient id="paint0_linear_1591_39976" x1="0.000282722" y1="0.35669" x2="5.03248" y2="0.35669" gradientUnits="userSpaceOnUse">
<stop offset="0.16" stop-color="#D9E4F5"/>
<stop offset="0.49" stop-color="#E8EFFB"/>
</linearGradient>
</defs>
</svg>
