<svg width="5" height="1" viewBox="0 0 5 1" fill="none" xmlns="http://www.w3.org/2000/svg">
<path d="M1.59519 0.0916996C1.96449 0.0360496 2.37059 0.00317 2.81639 0C2.84229 0 2.86829 0 2.89479 0C3.31289 0 3.69609 0.0278298 4.04769 0.0746298C4.06989 0.0777898 4.09139 0.0803199 4.11349 0.0834799C4.16729 0.0910699 4.22039 0.0992896 4.27289 0.10751C4.28809 0.11004 4.30319 0.11257 4.31779 0.1151C4.31839 0.1151 4.31899 0.1151 4.31969 0.1151C4.98999 0.29598 5.16079 0.452179 4.49799 0.395269C4.44299 0.383879 4.38669 0.3744 4.33169 0.36491C4.25769 0.35226 4.18309 0.34088 4.10849 0.33076C2.80309 0.15242 1.41429 0.266249 0.239894 0.662149C-0.0636065 0.764599 -0.0807067 0.70642 0.197593 0.54642C0.581393 0.32696 1.10259 0.18404 1.59519 0.0916996Z" fill="url(#paint0_linear_1591_39984)"/>
<defs>
<linearGradient id="paint0_linear_1591_39984" x1="-0.0010066" y1="0.35669" x2="4.91669" y2="0.35669" gradientUnits="userSpaceOnUse">
<stop offset="0.16" stop-color="#CEDBF2"/>
<stop offset="0.49" stop-color="#E1EAFA"/>
</linearGradient>
</defs>
</svg>
