<svg width="7" height="2" viewBox="0 0 7 2" fill="none" xmlns="http://www.w3.org/2000/svg">
<path d="M3.97161 1.72525C3.92607 1.72398 3.8818 1.72208 3.83627 1.72082C3.83627 1.71766 3.83627 1.71576 3.83627 1.7126C3.87611 1.69742 3.89003 1.66896 3.89508 1.63797C3.90078 1.67276 3.91848 1.71576 3.97161 1.72525ZM4.15438 1.34643C4.19612 1.35654 4.21635 1.37235 4.22458 1.40714C4.22963 1.37299 4.24165 1.35465 4.27517 1.34263C4.23533 1.34073 4.19485 1.33884 4.15438 1.33694C4.15438 1.33947 4.15438 1.34326 4.15438 1.34579V1.34643ZM3.86979 0.253602C3.92544 0.38388 3.92607 0.385778 3.85587 0.390205C3.85587 0.393367 3.85587 0.395896 3.85587 0.399058C3.91216 0.400955 3.96718 0.403486 4.02347 0.404751C3.98805 0.39653 3.98109 0.376923 3.96718 0.347832L3.95453 0.320638L3.95074 0.313049C3.91089 0.221348 3.8584 0.101189 3.81666 0.00759068C3.80338 0.0366821 3.78821 0.0695667 3.78821 0.0695667L3.8641 0.241585C3.85651 0.241585 3.76354 0.238423 3.71105 0.237158C3.70915 0.240953 3.70662 0.246013 3.70472 0.249807C3.71042 0.249807 3.80275 0.251704 3.86915 0.253602H3.86979ZM3.46251 0.660881C3.46251 0.660881 3.46251 0.666573 3.46251 0.669103C3.52006 0.681119 3.52006 0.710843 3.52006 0.748156C3.52006 0.819619 3.52006 0.891083 3.52006 0.961914C3.52006 0.99986 3.52006 1.03085 3.46188 1.03907V1.04729C3.52196 1.04729 3.58204 1.04919 3.64212 1.04982C3.57761 1.03907 3.57255 0.996696 3.57192 0.962546C3.57192 0.922703 3.57192 0.882861 3.57192 0.842386C3.58899 0.842386 3.58457 0.842386 3.61302 0.842386C3.66488 0.843018 3.69081 0.854402 3.70283 0.891715C3.70283 0.859461 3.70283 0.827841 3.70283 0.795587C3.68891 0.822149 3.66299 0.832901 3.61492 0.831636C3.59279 0.831636 3.58836 0.831636 3.57128 0.831636C3.57128 0.799382 3.57128 0.766496 3.57128 0.734242C3.57255 0.687443 3.58962 0.672897 3.64275 0.672897C3.64591 0.672897 3.66551 0.672897 3.66804 0.672897C3.72623 0.676059 3.75911 0.697561 3.78188 0.74689L3.77366 0.665309C3.66994 0.662779 3.56622 0.661513 3.46061 0.660248L3.46251 0.660881ZM3.60291 0.384513C3.60291 0.384513 3.60291 0.390204 3.60291 0.393366C3.64781 0.393999 3.69208 0.395264 3.73698 0.395896C3.68765 0.38894 3.66235 0.346568 3.68259 0.293444C3.64275 0.371232 3.63073 0.374395 3.60291 0.384513ZM3.6086 1.72398C3.60543 1.72398 3.54536 1.73537 3.48275 1.69932C3.43152 1.66959 3.3784 1.62026 3.37397 1.53805C3.36385 1.35149 3.53081 1.31291 3.58393 1.31164H3.58773C3.83817 1.32492 3.84386 1.6873 3.6086 1.72398ZM3.72307 1.54501C3.73002 1.37995 3.66172 1.32176 3.57824 1.32176H3.57634C3.39231 1.32176 3.37081 1.70248 3.57951 1.7088C3.60733 1.70944 3.71611 1.70564 3.72307 1.54501ZM6.4937 1.21299C6.44058 1.2737 6.40516 1.28508 6.35331 1.27623C6.3084 1.26864 6.30398 1.2465 6.30524 1.1997C6.30777 1.12824 6.30967 1.05614 6.3122 0.983417C6.31346 0.948633 6.31789 0.913217 6.36912 0.901834C6.32295 0.894245 6.27362 0.887288 6.22682 0.880332C6.22682 0.882229 6.22682 0.887287 6.22682 0.889184C6.27425 0.907525 6.27362 0.938514 6.27299 0.974562C6.27109 1.04603 6.26856 1.11749 6.26603 1.18832C6.26477 1.225 6.2635 1.25662 6.21544 1.25852C6.21544 1.26168 6.21544 1.26421 6.21544 1.26674C6.30081 1.27939 6.38429 1.29267 6.46651 1.30658L6.49434 1.21362L6.4937 1.21299ZM5.81006 1.1548C5.81006 1.1548 5.74681 0.981519 5.68484 0.810765C5.67219 0.838591 5.65954 0.866418 5.65954 0.866418L5.72341 1.04097C5.71646 1.04033 5.63804 1.03085 5.58681 1.02516C5.58491 1.02895 5.58302 1.03275 5.58175 1.03654C5.58744 1.03717 5.67662 1.04792 5.72784 1.05361C5.77401 1.18389 5.77148 1.18642 5.71266 1.18579C5.71266 1.18832 5.71266 1.19148 5.71266 1.19401C5.76136 1.1997 5.80942 1.20603 5.85812 1.21235C5.83029 1.20034 5.82144 1.18389 5.81006 1.1548ZM5.51219 1.64177C5.51219 1.64177 5.49511 1.64177 5.48309 1.6405C5.47993 1.6405 5.41037 1.63228 5.40278 1.63102C5.40151 1.66517 5.40088 1.70121 5.40025 1.73536C5.39962 1.77015 5.40278 1.81062 5.46096 1.82707C5.4072 1.82074 5.35408 1.81505 5.30032 1.80936V1.80114C5.35281 1.79608 5.35408 1.76446 5.35471 1.72841C5.35661 1.65631 5.35787 1.58358 5.35977 1.50959C5.3604 1.47165 5.36104 1.44192 5.30855 1.42421V1.41473C5.36799 1.42674 5.46792 1.42674 5.48183 1.42864C5.52863 1.43433 5.56341 1.45141 5.58555 1.47734C5.60705 1.50137 5.65575 1.63355 5.51219 1.64177ZM5.53748 1.46595C5.50207 1.43054 5.45147 1.43686 5.43629 1.44192C5.41163 1.45014 5.40657 1.46785 5.40531 1.5039C5.40467 1.54311 5.40467 1.57979 5.40341 1.61837C5.42238 1.6209 5.47614 1.62659 5.48942 1.62659C5.58555 1.62532 5.57669 1.50516 5.53748 1.46595ZM6.18824 1.16113C6.11678 1.24334 6.06682 1.23006 6.04279 1.2269C5.99536 1.22057 5.99093 1.19717 5.99156 1.15101C5.99346 1.07954 5.99599 1.00745 5.99788 0.934719C5.99915 0.899936 6.00864 0.858197 6.0567 0.853138C6.00801 0.846181 5.95741 0.839857 5.90808 0.8329C5.90808 0.834797 5.90808 0.838591 5.90808 0.841753C5.95741 0.859461 5.95678 0.888554 5.95614 0.926499C5.95425 0.997963 5.95172 1.06942 5.94982 1.14026C5.94856 1.1782 5.94729 1.20793 5.89796 1.21109C5.89796 1.21425 5.89796 1.21678 5.89796 1.21931C5.98713 1.23069 6.07441 1.24271 6.16105 1.25536L6.18888 1.16113H6.18824ZM5.48815 1.16935C5.528 1.17378 5.56657 1.1782 5.60578 1.18263C5.56278 1.16998 5.54254 1.1333 5.55772 1.08777C5.52547 1.14974 5.51408 1.1529 5.48815 1.16049C5.48815 1.16366 5.48815 1.16619 5.48815 1.16935ZM5.10617 1.40651C5.15803 1.42295 5.15803 1.4533 5.1574 1.49188C5.15613 1.56524 5.15424 1.63797 5.15297 1.7107C5.15297 1.74675 5.15044 1.77837 5.09921 1.78406C5.09921 1.78722 5.09921 1.78975 5.09921 1.79292C5.14918 1.79797 5.1985 1.80303 5.24846 1.80746C5.20103 1.78912 5.19787 1.75244 5.19851 1.71766C5.19977 1.64556 5.20167 1.57283 5.20293 1.49884C5.20356 1.46342 5.21052 1.42168 5.25669 1.41283C5.20673 1.40777 5.15676 1.40271 5.10617 1.39828C5.10617 1.40081 5.10617 1.40524 5.10617 1.40714V1.40651ZM4.23469 0.876537C4.23343 0.994168 4.13098 1.07702 4.03801 1.07259C3.99943 1.07069 3.94315 1.05678 3.89698 1.00492C3.85587 0.959384 3.835 0.891716 3.84006 0.833533C3.85461 0.681752 4.00829 0.660881 4.03928 0.660881C4.14426 0.659616 4.23596 0.764599 4.23469 0.876537ZM4.17841 0.895509C4.18537 0.803175 4.15627 0.73614 4.12529 0.708946C4.08291 0.671633 4.05066 0.671633 4.03358 0.671633C4.00386 0.671633 3.97161 0.684282 3.94821 0.705151C3.91216 0.736773 3.89192 0.800014 3.89192 0.868315C3.89192 1.05172 4.02283 1.05678 4.04054 1.05678C4.05635 1.05678 4.16639 1.05804 4.17841 0.895509ZM4.49778 1.09093C4.34157 1.10041 4.22774 0.891716 4.33209 0.758275C4.38458 0.691238 4.45098 0.682383 4.48513 0.679853C4.51928 0.677323 4.54964 0.688708 4.56735 0.69693C4.75391 0.782307 4.71407 1.07765 4.49778 1.09093ZM4.3675 0.999858C4.39027 1.04476 4.43138 1.0631 4.46237 1.07132C4.67043 1.12445 4.70142 0.684913 4.48387 0.690605C4.45414 0.690605 4.42379 0.70515 4.40165 0.725387C4.33398 0.781041 4.32513 0.916379 4.3675 1.00049V0.999858ZM4.90063 1.38817C4.95376 1.40398 4.95313 1.43433 4.95313 1.47291C4.95313 1.50516 4.95186 1.53742 4.95123 1.56967C4.91265 1.56588 4.82285 1.55892 4.74 1.5526C4.74 1.52034 4.74126 1.48935 4.74126 1.4571C4.7419 1.42105 4.74885 1.37805 4.79755 1.37046C4.74569 1.36666 4.69257 1.36287 4.64008 1.35908C4.64008 1.3616 4.64008 1.36603 4.64008 1.36856C4.69447 1.38374 4.69383 1.41599 4.69383 1.45267C4.69383 1.52667 4.69193 1.5994 4.69067 1.67149C4.69004 1.70754 4.68941 1.73853 4.63502 1.74548C4.63502 1.74865 4.63502 1.75118 4.63502 1.75434C4.68751 1.75813 4.73937 1.76129 4.79123 1.76572C4.74126 1.74928 4.7381 1.71133 4.73873 1.67592C4.73873 1.63987 4.74 1.60192 4.74063 1.56588C4.74759 1.56588 4.86901 1.57599 4.95123 1.58295C4.9506 1.61963 4.94996 1.65505 4.94933 1.6911C4.9487 1.72588 4.9468 1.75876 4.89494 1.76509C4.89494 1.76825 4.89494 1.77078 4.89431 1.77394C4.94554 1.77837 4.99613 1.7828 5.04736 1.78722C5.00372 1.77205 4.9955 1.7322 4.9955 1.69742C4.99676 1.62532 4.99803 1.55259 4.99929 1.4786C4.99993 1.44445 5.00182 1.40081 5.05368 1.39259C5.00309 1.38817 4.95249 1.38311 4.90127 1.37931C4.90127 1.38184 4.90127 1.38564 4.90127 1.38817H4.90063ZM4.57747 1.60003C4.55913 1.55196 4.51992 1.53236 4.46553 1.5058C4.40671 1.47734 4.35928 1.45457 4.36308 1.4084C4.37003 1.32809 4.46932 1.34832 4.49083 1.35844C4.52118 1.37236 4.53762 1.39765 4.54837 1.41852L4.54015 1.35781C4.49146 1.35148 4.48893 1.33504 4.44086 1.33757C4.33335 1.34263 4.30742 1.44951 4.36244 1.50706C4.38205 1.5273 4.38964 1.53109 4.44972 1.56208C4.47438 1.57473 4.52624 1.60066 4.54079 1.63355C4.56292 1.68224 4.53509 1.73853 4.46743 1.74106C4.45731 1.74106 4.37066 1.74548 4.3245 1.63797L4.32956 1.71766C4.38268 1.74295 4.43327 1.7556 4.46996 1.75497C4.58695 1.75497 4.59138 1.63481 4.57747 1.59939V1.60003ZM3.2165 0.65772C3.1912 0.65772 3.10835 0.65772 3.09064 0.65772C3.09064 0.660882 3.09064 0.664043 3.09064 0.666573C3.13491 0.673529 3.15642 0.691238 3.16464 0.726654C3.16906 0.689341 3.18424 0.665308 3.2165 0.657087V0.65772ZM2.74914 0.0145464C2.79151 0.02593 2.80985 0.0493291 2.81744 0.0733611C2.82186 0.0392104 2.84273 0.0107523 2.86993 0.00316327C2.82945 0.00379569 2.79024 0.00442672 2.74914 0.00569156C2.74914 0.00885367 2.74914 0.0113843 2.74914 0.0145464ZM1.72335 0.91385C1.71892 0.91385 1.67718 0.917012 1.66011 0.918277C1.66074 0.951796 1.66074 0.984681 1.66137 1.0182C1.662 1.05235 1.67339 1.09978 1.72904 1.10168C1.67276 1.10547 1.6171 1.10927 1.56145 1.1137V1.10547C1.61457 1.09156 1.61457 1.05994 1.61394 1.02263C1.61267 0.951163 1.61141 0.879066 1.61015 0.806337C1.60951 0.767127 1.60888 0.738668 1.55513 0.731079V0.722226H1.56208L1.58611 0.720962C1.65252 0.714638 1.63038 0.720328 1.75244 0.701988C1.75876 0.700723 1.77078 0.700724 1.77205 0.700724C1.90738 0.71021 1.939 0.898672 1.72335 0.91385ZM1.72208 0.901201C1.77584 0.896774 1.8005 0.883494 1.81695 0.84871C1.82833 0.825311 1.83466 0.772188 1.80114 0.73867C1.76509 0.702622 1.70185 0.715902 1.69173 0.720329C1.662 0.732977 1.65758 0.750684 1.65821 0.78863C1.65884 0.82784 1.65884 0.867683 1.65947 0.905628C1.66517 0.905628 1.67276 0.904996 1.67718 0.904364C1.69173 0.903099 1.70691 0.902465 1.72208 0.901201ZM2.69285 0.390838C2.64732 0.390838 2.61506 0.377557 2.59483 0.356687C2.57016 0.330757 2.56637 0.299137 2.56573 0.268148C2.56573 0.264353 2.5651 0.166959 2.5651 0.0986576C2.5651 0.0645068 2.57079 0.019606 2.62581 0.00885483C2.5689 0.0101197 2.51261 0.0120161 2.45696 0.0139133V0.0227682C2.51324 0.0322545 2.51388 0.0638743 2.51388 0.100555C2.51451 0.147354 2.51451 0.193522 2.51451 0.239688C2.51577 0.3472 2.5632 0.393368 2.61886 0.408546C2.64795 0.416135 2.69854 0.417399 2.75736 0.378822C2.73459 0.387043 2.71182 0.390206 2.69222 0.390838H2.69285ZM0.950529 1.79734C0.970767 1.81315 1.00682 1.82643 1.04792 1.82833C1.09472 1.82643 1.14595 1.80746 1.18579 1.76129C1.15417 1.78722 1.11622 1.8062 1.08144 1.80367C1.02136 1.80746 0.963178 1.76699 0.939778 1.69995C0.884758 1.54311 0.992902 1.42927 1.09029 1.42611C1.11243 1.42548 1.15227 1.42295 1.20097 1.49062L1.1763 1.41789C1.14658 1.41915 1.10674 1.41156 1.07891 1.41536C0.860725 1.44445 0.8329 1.70564 0.951162 1.79734H0.950529ZM1.9175 0.709577C1.97252 0.717798 1.97316 0.747523 1.97379 0.785468C1.97442 0.857564 1.97568 0.929661 1.97632 1.00112C1.97632 1.0397 1.97632 1.06943 1.92256 1.08207C1.92256 1.0846 1.92256 1.0884 1.92256 1.09093C2.02881 1.0846 2.13569 1.07891 2.24383 1.07385L2.27229 0.972664C2.24889 1.00302 2.19703 1.06057 2.13189 1.065C2.12304 1.065 2.11419 1.06563 2.10533 1.06626C2.09964 1.06626 2.09458 1.06626 2.09015 1.06626C2.08952 1.06626 2.08889 1.06626 2.08826 1.06626C2.03893 1.06753 2.02754 1.05614 2.02628 0.999858C2.02628 0.958751 2.02501 0.918909 2.02501 0.877801C2.03829 0.877169 2.07877 0.87464 2.08509 0.87464C2.13126 0.873375 2.15023 0.882229 2.16288 0.91385C2.16288 0.882861 2.16288 0.851872 2.16225 0.820884C2.15023 0.849975 2.12873 0.860095 2.08067 0.863257C2.06739 0.863889 2.03324 0.865786 2.02501 0.866418C2.02501 0.834165 2.02438 0.800647 2.02375 0.768394C2.02438 0.720962 2.04019 0.706416 2.09205 0.702621C2.09711 0.702621 2.12304 0.701988 2.12557 0.701988C2.18185 0.700723 2.21348 0.718431 2.23751 0.76523L2.22929 0.685545C2.12494 0.690604 2.02122 0.695664 1.91877 0.701988C1.91877 0.70515 1.91877 0.708313 1.91877 0.710843L1.9175 0.709577ZM2.55688 1.05298C2.55688 1.05298 2.55688 1.05867 2.55688 1.0612C2.6138 1.05931 2.67008 1.05804 2.72763 1.05678C2.69348 1.04856 2.684 1.03148 2.66882 1.00365L2.65554 0.977725L2.65174 0.970134C2.61064 0.882228 2.55562 0.765864 2.51324 0.675428C2.49996 0.705784 2.48542 0.739934 2.48542 0.739934L2.5632 0.905628C2.51324 0.906893 2.41522 0.91132 2.41016 0.91132C2.40826 0.915114 2.40636 0.919541 2.40447 0.923336C2.45633 0.921438 2.5632 0.918277 2.5689 0.917644C2.62581 1.04033 2.62771 1.04476 2.55688 1.05298ZM0.672896 0.821517C0.638746 0.825944 0.605228 0.829737 0.57171 0.834164C0.57171 0.837326 0.57171 0.839857 0.57171 0.843019C0.60839 0.844916 0.622936 0.867683 0.629892 0.88792C0.633687 0.856299 0.643805 0.8329 0.672264 0.820884L0.672896 0.821517ZM4.22394 1.662L3.96528 1.37299C3.95833 1.36603 3.93999 1.34073 3.93303 1.32809C3.90078 1.32682 3.86662 1.32619 3.83627 1.32556C3.83627 1.32809 3.83627 1.33188 3.83627 1.33441C3.85904 1.34326 3.86789 1.34959 3.89888 1.38247C3.91026 1.39512 4.12971 1.63924 4.22394 1.74106C4.22394 1.7088 4.22394 1.66643 4.22394 1.662ZM0.486332 1.24144C0.525542 1.23891 0.560326 1.22121 0.581829 1.2016C0.560959 1.21298 0.544515 1.21615 0.521748 1.21551C0.493289 1.21804 0.465462 1.20856 0.449652 1.19401C0.421825 1.16808 0.420561 1.12698 0.419296 1.10737V1.09725C0.417398 1.04539 0.416133 0.992902 0.414868 0.941043C0.414236 0.904363 0.419929 0.865786 0.464198 0.849343C0.416766 0.855668 0.369967 0.862624 0.3238 0.868948V0.877801C0.371232 0.882228 0.372496 0.915747 0.373761 0.95306C0.375026 0.998594 0.376291 1.04033 0.377556 1.08524C0.381983 1.1997 0.428782 1.23891 0.4857 1.24144H0.486332ZM2.46455 1.63481C2.46138 1.62912 2.31846 1.37109 2.33237 1.3401L2.33427 1.33631C2.29316 1.3382 2.25205 1.3401 2.21095 1.342C2.21095 1.34516 2.21095 1.34769 2.21095 1.35085C2.24067 1.35085 2.25522 1.36034 2.27292 1.38817C2.27925 1.39786 2.28241 1.40271 2.28241 1.40271C2.32921 1.49125 2.39055 1.60762 2.43862 1.69805C2.44937 1.67276 2.45316 1.66327 2.46518 1.63481H2.46455ZM2.30454 1.07069C2.34881 1.06879 2.39308 1.0669 2.43735 1.06563C2.38992 1.05804 2.36399 1.02199 2.3817 0.9714C2.34502 1.04539 2.333 1.04982 2.30454 1.06184C2.30454 1.06437 2.30454 1.06816 2.30454 1.07069ZM2.77317 1.04603C2.77317 1.04603 2.77317 1.05235 2.77317 1.05488C2.8187 1.05425 2.86613 1.05235 2.91167 1.05172C2.86424 1.04666 2.83831 1.00365 2.83198 0.965709C2.82756 0.99733 2.81301 1.02579 2.77317 1.04603ZM3.16464 1.05298C3.16464 1.02073 3.16464 0.978356 3.16464 0.972664L2.89902 0.701988C2.87309 0.671632 2.87246 0.671 2.86677 0.660881C2.83451 0.660881 2.80163 0.662146 2.76937 0.662778C2.76937 0.66594 2.76937 0.668471 2.76937 0.671633C2.79277 0.67859 2.80226 0.685545 2.83262 0.715902C2.844 0.727285 3.06724 0.954326 3.16464 1.05298ZM2.66502 1.62659C2.6587 1.57157 2.64479 1.46089 2.63783 1.40587C2.63404 1.37678 2.64732 1.33378 2.69285 1.32492C2.65111 1.32619 2.60937 1.32682 2.56826 1.32809C2.57838 1.34643 2.57965 1.35844 2.57965 1.35844C2.57965 1.35844 2.60684 1.56904 2.61506 1.64683C2.62075 1.69489 2.58787 1.70627 2.55625 1.71576C2.55625 1.71829 2.55625 1.72145 2.55625 1.72398C2.61317 1.72208 2.67072 1.72082 2.72827 1.71955C2.70613 1.71323 2.67388 1.69932 2.66566 1.62722L2.66502 1.62659ZM2.88258 1.5273C2.88258 1.56145 2.88321 1.5956 2.88321 1.62912C2.88321 1.66453 2.88953 1.70817 2.95278 1.71513C2.89333 1.71576 2.83325 1.71703 2.7738 1.71829V1.71007C2.83135 1.69805 2.83135 1.66706 2.83135 1.63038C2.83072 1.55829 2.83072 1.48556 2.83009 1.41157C2.83009 1.37236 2.82945 1.34326 2.7719 1.33251V1.32366C2.7719 1.32366 2.80605 1.32366 2.81807 1.32366C2.86487 1.32492 2.90598 1.3205 2.94329 1.31607C2.94772 1.31607 2.96859 1.31354 2.97681 1.31354C3.02993 1.31228 3.06851 1.32935 3.09128 1.35528C3.12227 1.38943 3.12226 1.44445 3.09191 1.48113C3.06218 1.51655 3.01728 1.52477 2.94961 1.52603C2.94582 1.52603 2.8908 1.52603 2.88258 1.52667V1.5273ZM2.88258 1.51465C2.88258 1.51465 2.93064 1.51465 2.94772 1.51402C3.01033 1.51275 3.03183 1.49758 3.04637 1.47165C3.06408 1.44192 3.06535 1.38817 3.03879 1.35781C3.00337 1.31733 2.93444 1.32556 2.91863 1.33062C2.88321 1.342 2.88258 1.37109 2.88195 1.39765C2.88258 1.43686 2.88258 1.47607 2.88258 1.51465ZM3.15136 1.32682C3.20954 1.33757 3.21017 1.36856 3.2108 1.40714C3.2108 1.48113 3.2108 1.55386 3.2108 1.62596C3.2108 1.662 3.2108 1.69362 3.15136 1.70374C3.15136 1.70691 3.15136 1.71007 3.15136 1.7126C3.20827 1.7126 3.26582 1.7126 3.32337 1.7126C3.27468 1.70311 3.26456 1.66074 3.26456 1.62596C3.26456 1.55386 3.26456 1.4805 3.26456 1.40714C3.26456 1.37109 3.27278 1.32682 3.32274 1.31797C3.26582 1.31797 3.20891 1.31733 3.15136 1.31797C3.15136 1.32113 3.15136 1.32429 3.15136 1.32745V1.32682ZM1.63734 1.68287C1.63607 1.61078 1.63481 1.53805 1.63354 1.46406C1.63354 1.42991 1.63987 1.38437 1.6873 1.37172C1.63544 1.37552 1.58358 1.38058 1.53172 1.385C1.53172 1.38817 1.53172 1.3907 1.53172 1.39386C1.58485 1.40081 1.58548 1.43054 1.58675 1.46912C1.58675 1.50137 1.58801 1.53362 1.58864 1.56588C1.52414 1.57094 1.385 1.58358 1.37931 1.58422C1.37931 1.55196 1.37805 1.51845 1.37741 1.48556C1.37741 1.44951 1.3869 1.40587 1.42927 1.39322C1.37868 1.39765 1.32809 1.40271 1.27749 1.40777C1.27749 1.41093 1.27749 1.41346 1.27749 1.41663C1.32935 1.42295 1.33061 1.4533 1.33125 1.49188C1.33251 1.56524 1.33441 1.63861 1.33567 1.7107C1.33567 1.74865 1.33631 1.77774 1.28508 1.79355C1.28508 1.79608 1.28508 1.79987 1.28508 1.8024C1.33504 1.79734 1.38564 1.79292 1.43623 1.78786C1.38564 1.77521 1.38247 1.73789 1.38184 1.70438C1.38121 1.66833 1.38058 1.63354 1.37994 1.59686C1.44382 1.59117 1.58358 1.57916 1.58928 1.57853C1.58928 1.61521 1.59054 1.65125 1.59117 1.6873C1.59117 1.72335 1.59117 1.75497 1.53931 1.77015C1.53931 1.77268 1.53931 1.77584 1.53995 1.77837C1.59117 1.77394 1.6424 1.77015 1.69426 1.76635C1.64303 1.75624 1.6386 1.71576 1.63797 1.68224L1.63734 1.68287ZM1.80683 1.67086C1.77458 1.74042 1.75876 1.74928 1.736 1.75813C1.736 1.76066 1.736 1.76446 1.736 1.76699C1.77837 1.76382 1.82074 1.76066 1.86375 1.75813C1.81758 1.75371 1.79608 1.71133 1.80683 1.67149V1.67086ZM2.24952 1.63418C2.23814 1.70501 2.22043 1.7126 2.18185 1.73031C2.18185 1.73284 2.18185 1.73663 2.18185 1.73916C2.22865 1.73726 2.27419 1.73473 2.32288 1.7322C2.28431 1.72714 2.25142 1.6892 2.24952 1.63418ZM2.08826 1.68793C2.08826 1.68793 1.98833 1.47734 1.93521 1.3616C1.92256 1.39259 1.90802 1.42674 1.90802 1.42674L1.98517 1.5937C1.93078 1.59686 1.84161 1.60319 1.83466 1.60382C1.83276 1.60825 1.83086 1.61204 1.8296 1.61584C1.87703 1.61268 1.9858 1.60572 1.99086 1.60509C2.04652 1.72778 2.04715 1.73031 1.97948 1.74169C1.97948 1.74422 1.97948 1.74801 1.97948 1.75054C2.0345 1.74738 2.08952 1.74359 2.14517 1.74043C2.11671 1.73284 2.1028 1.71513 2.08762 1.68793H2.08826ZM2.97744 0.0910688V0.308622C2.97744 0.345302 2.97744 0.376924 2.92052 0.388308V0.396529C2.93697 0.396529 2.96163 0.396529 2.99009 0.396529C3.10203 0.395897 3.2108 0.395263 3.25128 0.395263L3.281 0.292811C3.22851 0.357951 3.17665 0.377556 3.13997 0.380086C3.13681 0.380086 3.1014 0.379453 3.09317 0.379453C3.04258 0.378188 3.02867 0.346568 3.02867 0.307358C3.02867 0.265618 3.02867 0.227672 3.02867 0.185932C3.04005 0.185932 3.04005 0.185932 3.04574 0.185932C3.06092 0.185932 3.07483 0.185932 3.09001 0.185932C3.13049 0.185932 3.15642 0.196051 3.17033 0.227672C3.17033 0.197948 3.17033 0.168857 3.17033 0.139133C3.15515 0.167592 3.1229 0.173917 3.08938 0.174549C3.07483 0.174549 3.05966 0.174549 3.04574 0.174549C3.04574 0.174549 3.03626 0.174549 3.02867 0.174549C3.02867 0.141663 3.02867 0.10941 3.02867 0.0765244C3.02993 0.0290928 3.04637 0.0145471 3.0995 0.0132822C3.14819 0.0120174 3.20575 0.00948748 3.24685 0.0822159L3.23863 0.00189719C3.1912 0.00189719 3.0508 0.00189773 2.91926 0.00442741V0.0132822C2.97618 0.023401 2.97681 0.0550214 2.97744 0.0917019V0.0910688ZM3.43215 0.304828C3.43215 0.264353 3.43215 0.223246 3.43215 0.182771C3.43784 0.182771 3.44354 0.182771 3.44923 0.182771C3.45871 0.182771 3.4682 0.182771 3.47769 0.183404C3.53018 0.183404 3.55105 0.197949 3.56306 0.232733C3.56306 0.201111 3.56306 0.16696 3.56306 0.135339C3.54789 0.16696 3.52385 0.172019 3.47895 0.172019H3.44923C3.43974 0.172019 3.43848 0.172019 3.43215 0.172019C3.43215 0.139765 3.43215 0.106881 3.43215 0.0746272C3.43215 0.0328874 3.4682 0.0189733 3.49666 0.0145464C3.50172 0.0132815 3.50614 0.0126492 3.5112 0.0126492C3.58962 0.00948709 3.62125 0.0417403 3.64212 0.0834801L3.63389 0.00379437C3.59785 0.00316195 3.56117 0.00252961 3.52449 0.00189719C3.47073 0.00126477 3.40685 0.000632421 3.34677 0C3.33855 0 3.33033 0 3.32274 0V0.00885483C3.38029 0.0202384 3.38093 0.0518601 3.38093 0.0885405V0.304195C3.38093 0.362377 3.35879 0.373129 3.32274 0.381983V0.390838C3.34741 0.390838 3.37207 0.390838 3.3961 0.390838C3.42962 0.390838 3.46314 0.390837 3.49666 0.392102C3.49856 0.392102 3.49982 0.392102 3.50172 0.392102C3.4429 0.385778 3.43278 0.338978 3.43278 0.304195L3.43215 0.304828ZM0.721593 0.822148V0.813295L0.750685 0.811398C0.798749 0.808868 0.833532 0.800645 0.870213 0.792424C0.882229 0.789894 0.911952 0.786101 0.918908 0.785468C0.939146 0.786101 0.963178 0.789895 0.983416 0.803176C1.02516 0.83037 1.0612 0.937881 0.926498 0.968237C0.968238 0.98215 0.986578 0.999859 1.02642 1.06184C1.07196 1.1333 1.09346 1.15796 1.12381 1.16682C1.05994 1.16872 1.02642 1.14215 0.997329 1.108C0.951162 1.05488 0.943573 0.995432 0.915114 0.982783C0.90373 0.978357 0.858196 0.981519 0.836061 0.985314C0.829737 0.985946 0.826575 0.986579 0.818354 0.987844C0.819618 1.02642 0.820251 1.06247 0.821516 1.10105C0.822781 1.13646 0.833532 1.1782 0.879066 1.182C0.829738 1.18769 0.779775 1.19338 0.731079 1.1997V1.19085C0.779775 1.1763 0.779143 1.14595 0.778511 1.108C0.776613 1.03717 0.774716 0.966341 0.772819 0.894245C0.772187 0.855667 0.770922 0.82784 0.721593 0.822148ZM0.815824 0.875271C0.817089 0.908157 0.817721 0.942942 0.818354 0.975828C0.820251 0.975828 0.827208 0.974563 0.835429 0.973931C0.843018 0.973298 0.879066 0.96887 0.881596 0.96887C0.932189 0.962546 0.95053 0.951795 0.963811 0.921439C0.977091 0.89045 0.975827 0.843652 0.947368 0.817722C0.936617 0.807604 0.917644 0.80128 0.90626 0.800015C0.886655 0.79622 0.864521 0.798116 0.845548 0.806337C0.814559 0.820883 0.815824 0.845547 0.815824 0.875271ZM1.29393 1.14342C1.28508 1.14279 1.27686 1.14215 1.26864 1.14089C1.23132 1.13456 1.20223 1.11369 1.19528 1.10863C1.06437 1.01061 1.11433 0.762701 1.31164 0.734242C1.31417 0.734242 1.3205 0.734242 1.32176 0.734242C1.40904 0.739934 1.4824 0.808867 1.49315 0.903098C1.50833 1.03274 1.40398 1.13773 1.2933 1.14405L1.29393 1.14342ZM1.44192 0.932191C1.44192 0.923337 1.44192 0.915114 1.44066 0.905628C1.43623 0.840489 1.41599 0.798748 1.39006 0.772819C1.35402 0.736771 1.27749 0.734874 1.22247 0.790527C1.14089 0.874006 1.14279 1.12761 1.29836 1.12761C1.29836 1.12761 1.30658 1.12887 1.31923 1.12761C1.38311 1.12255 1.44319 1.06057 1.44192 0.932191ZM4.9683 1.12065C4.98095 1.12192 4.9917 1.12255 5.00056 1.12318C4.94111 1.10737 4.93542 1.06626 4.93605 1.03148C4.93732 0.954956 4.93858 0.877803 4.93984 0.800015C4.94111 0.748156 4.96704 0.734243 4.99487 0.73867C5.01257 0.736772 5.0423 0.740566 5.06886 0.769658C5.07771 0.779144 5.0872 0.794322 5.09542 0.813295L5.09099 0.736139V0.734875C4.97589 0.724757 4.85826 0.715901 4.73937 0.70768L4.73557 0.748787L4.73178 0.790527C4.75771 0.737403 4.79565 0.722225 4.82411 0.725387C4.8513 0.722225 4.87597 0.735507 4.88609 0.755744C4.89178 0.767128 4.89178 0.784202 4.89115 0.794321C4.88988 0.872109 4.88862 0.949265 4.88735 1.02579C4.88672 1.0612 4.88609 1.09535 4.81905 1.09978C4.81905 1.10231 4.81905 1.10547 4.81842 1.10863C4.82348 1.10863 4.82854 1.10927 4.83423 1.1099C4.87913 1.11306 4.92403 1.11623 4.9683 1.12002V1.12065ZM5.41479 1.14468C5.39645 1.15417 5.37811 1.15796 5.3604 1.1586C5.35282 1.1586 5.34523 1.15733 5.33764 1.1567C5.32689 1.15543 5.31677 1.15291 5.30665 1.15101C5.2238 1.13583 5.19091 1.13456 5.13589 1.13267C5.134 1.13267 5.1321 1.13267 5.1302 1.13267V1.12381C5.18269 1.11939 5.18459 1.08271 5.18459 1.05045C5.18649 0.978989 5.18775 0.906893 5.18902 0.834164C5.18965 0.798116 5.18965 0.766496 5.13716 0.750686V0.741831C5.13716 0.741831 5.14095 0.74183 5.14601 0.743095L5.17637 0.747523C5.19977 0.750685 5.24151 0.751949 5.27629 0.753214C5.28894 0.753214 5.29843 0.753847 5.30032 0.753847C5.30096 0.753847 5.30159 0.753847 5.30222 0.753847C5.31171 0.753847 5.35535 0.758274 5.3857 0.77788C5.44831 0.81709 5.46855 0.924601 5.35471 0.947368C5.36863 0.95053 5.39898 0.958119 5.42428 0.982783C5.47867 1.03527 5.46412 1.12065 5.41353 1.14532L5.41479 1.14468ZM5.23329 0.930924C5.23961 0.930924 5.2453 0.932191 5.251 0.932191C5.26744 0.933455 5.29273 0.936616 5.30412 0.936616C5.40657 0.939146 5.39898 0.829738 5.36167 0.787999C5.34965 0.774085 5.31487 0.760803 5.29274 0.763333C5.2725 0.760803 5.23708 0.772187 5.23582 0.826575C5.23519 0.861358 5.23455 0.894877 5.23329 0.92966V0.930924ZM5.2978 0.948632C5.28072 0.946735 5.24024 0.943574 5.23329 0.94231C5.23266 0.982152 5.23139 1.02452 5.23076 1.06437C5.22886 1.14658 5.31234 1.13899 5.31803 1.13836C5.31803 1.13836 5.35661 1.14215 5.38001 1.12445C5.41226 1.10041 5.45653 0.965075 5.2978 0.948632ZM0.291546 1.16935C0.251071 1.23006 0.22451 1.25978 0.182138 1.26737C0.174549 1.26864 0.145458 1.27307 0.139133 1.2718C0.103718 1.27686 0.094231 1.25852 0.0910688 1.20982C0.0885392 1.16935 0.0885393 1.1314 0.0872745 1.0903C0.10435 1.08777 0.12522 1.08397 0.149885 1.08081C0.176446 1.07891 0.190992 1.0865 0.201111 1.10611C0.200478 1.08081 0.20111 1.05551 0.199845 1.03022C0.187829 1.05361 0.170754 1.06437 0.135338 1.07132C0.125219 1.07322 0.10435 1.07638 0.10435 1.07638C0.10435 1.07638 0.0929663 1.07828 0.0872745 1.07891C0.0860096 1.04666 0.085377 1.01188 0.0841122 0.979622C0.0841122 0.932823 0.0961282 0.915747 0.1385 0.908158C0.142927 0.907526 0.147355 0.906893 0.151782 0.906261C0.211229 0.896775 0.240321 0.917012 0.259293 0.953693L0.251071 0.882862C0.165694 0.896143 0.0822148 0.909423 0 0.923969C0 0.927131 0 0.92966 0 0.932822C0.0449019 0.936616 0.0461668 0.965709 0.0474316 1.00365C0.0493289 1.07512 0.0518586 1.14658 0.0543883 1.21678C0.0556531 1.25473 0.0543884 1.28508 0.0120162 1.30152C0.0120162 1.30342 0.0120162 1.30785 0.0120162 1.30975C0.0967606 1.2952 0.184668 1.28065 0.273207 1.26737L0.292179 1.16935H0.291546Z" fill="#9DB4DB"/>
</svg>
