<svg width="2" height="3" viewBox="0 0 2 3" fill="none" xmlns="http://www.w3.org/2000/svg">
<path d="M1.21297 2.71213C1.16426 2.43187 1.05798 2.15224 0.978264 1.96624C0.830859 1.62715 0.477846 0.986285 0.365236 0.787636C0.155199 0.44601 0.0330997 0.189159 0.0122226 0.0455502V0.0392234C0.00779409 0.017081 0.00842689 0.00695765 0.00842689 0.00252917C0.00336576 0.00063125 0.000834895 0 0.000202255 0C0.000202255 0.00189792 -0.00106249 0.0107546 0.00273336 0.0392234V0.0455502C0.0242431 0.189159 0.146342 0.44601 0.356379 0.787636C0.468989 0.986285 0.822002 1.62715 0.969407 1.96624C1.04975 2.15224 1.1554 2.4325 1.20412 2.71276C1.20412 2.71276 1.21234 2.71276 1.21234 2.71213H1.21297Z" fill="url(#paint0_linear_3091_44194)"/>
<defs>
<linearGradient id="paint0_linear_3091_44194" x1="0.0482831" y1="1.35701" x2="1.26105" y2="1.35701" gradientUnits="userSpaceOnUse">
<stop stop-color="#6476A0"/>
<stop offset="0.34" stop-color="#788CB4"/>
<stop offset="1" stop-color="#9DB4DB"/>
</linearGradient>
</defs>
</svg>
