<svg width="5" height="2" viewBox="0 0 5 2" fill="none" xmlns="http://www.w3.org/2000/svg">
<path d="M4.76808 0.431311C4.63211 0.419295 4.22799 0.328226 4.22672 0.385777C4.22609 0.423089 4.83764 0.548942 4.74215 0.646335C4.6106 0.780408 4.5657 1.04602 4.56064 1.2465C4.55116 1.57157 4.67638 1.63418 4.63021 1.7069C4.60365 1.74864 4.39811 1.72145 4.05281 1.69046C3.62909 1.61394 3.15983 1.55006 2.695 1.55006C2.18906 1.55006 1.59648 1.6209 1.1247 1.71702C0.657337 1.81315 0.260176 1.8979 0.224128 1.84288C0.178594 1.77268 0.302549 1.72651 0.293695 1.41409C0.288003 1.22121 0.298121 0.999225 0.167843 0.868946C0.0653904 0.765862 0.592198 0.580562 0.589669 0.524909C0.586507 0.462932 0.308873 0.521748 0.172902 0.533764C0.0970116 0.54072 -0.014294 0.572341 0.0015165 0.507834C0.625716 0.203007 1.68882 0 2.695 0C3.50513 0 4.30135 0.115733 4.96223 0.333918C4.95654 0.382615 4.83385 0.437635 4.76808 0.431311Z" fill="url(#paint0_linear_3091_43953)"/>
<defs>
<linearGradient id="paint0_linear_3091_43953" x1="-0.000380774" y1="0.930292" x2="4.96223" y2="0.930292" gradientUnits="userSpaceOnUse">
<stop offset="0.16" stop-color="#F5F8FC"/>
<stop offset="0.49" stop-color="#F9FBFE"/>
</linearGradient>
</defs>
</svg>
