<svg width="3" height="4" viewBox="0 0 3 4" fill="none" xmlns="http://www.w3.org/2000/svg">
<path d="M2.0194 2.0003C1.9834 2.6505 2.058 2.9344 1.9771 3.1254C1.7981 3.0982 1.5641 3.0742 1.2548 3.0742C0.8096 3.0742 0.5902 3.109 0.4384 3.1374C0.3075 3.1507 0.267 3.0938 0.2619 3.0204C0.2493 2.8421 0.2708 2.5259 0.2746 2.3286C0.2853 1.7657 0.232199 1.3799 0.1589 0.965099C0.0626995 0.418699 -0.0328003 0.2163 0.0108997 0.1979C0.4283 0.0239998 0.9273 0 1.246 0C1.5394 0 1.8746 0.00319952 2.3331 0.1429C2.1542 0.886 2.0516 1.4286 2.0194 2.0003Z" fill="url(#paint0_linear_1591_39875)"/>
<defs>
<linearGradient id="paint0_linear_1591_39875" x1="-0.000500279" y1="1.5697" x2="2.3325" y2="1.5697" gradientUnits="userSpaceOnUse">
<stop offset="0.16" stop-color="#F6F9FD"/>
<stop offset="0.49" stop-color="#FAFBFE"/>
</linearGradient>
</defs>
</svg>
