<svg width="5" height="1" viewBox="0 0 5 1" fill="none" xmlns="http://www.w3.org/2000/svg">
<path d="M1.59648 0.0916996C1.96388 0.0360496 2.36808 0.00317 2.81138 0C2.83728 0 2.86318 0 2.88918 0C3.30468 0 3.68598 0.0272001 4.03638 0.0727301C4.05848 0.0758901 4.07998 0.0784197 4.10148 0.0815897C4.15528 0.0891697 4.20778 0.0967594 4.25958 0.105619C4.27478 0.108149 4.28998 0.11068 4.30448 0.11321H4.30638C4.95908 0.28965 5.09248 0.430049 4.48038 0.392099C4.42528 0.380719 4.36968 0.37123 4.31468 0.36238C4.24068 0.34973 4.16598 0.338979 4.09078 0.328859C2.78988 0.154949 1.40868 0.26878 0.239983 0.66341C-0.0636171 0.76587 -0.0807174 0.70768 0.197583 0.54768C0.581483 0.32823 1.10318 0.1853 1.59588 0.0929699L1.59648 0.0916996Z" fill="url(#paint0_linear_1591_39987)"/>
<defs>
<linearGradient id="paint0_linear_1591_39987" x1="0.000282722" y1="0.35669" x2="4.87498" y2="0.35669" gradientUnits="userSpaceOnUse">
<stop offset="0.16" stop-color="#C9D8F1"/>
<stop offset="0.49" stop-color="#DFE9F9"/>
</linearGradient>
</defs>
</svg>
