<svg width="2" height="3" viewBox="0 0 2 3" fill="none" xmlns="http://www.w3.org/2000/svg">
<path d="M1.18936 0.129059C1.11218 0.351748 0.963512 0.603538 0.84331 0.805983C0.812944 0.856594 0.784474 0.904676 0.759168 0.949593C0.645926 1.14634 0.079713 2.15351 0.00822463 2.71656C0.00569407 2.71656 0.00253056 2.71656 0 2.71656C0.0727536 2.15351 0.637701 1.14698 0.750944 0.950858C0.776249 0.905941 0.805352 0.85786 0.835086 0.806616C0.955287 0.604171 1.10459 0.353013 1.18114 0.130324C1.19759 0.084141 1.20581 0.0278359 1.20138 0.00759137C1.20138 0.00569345 1.20138 0.00442771 1.20012 0.00316243C1.20455 0.00126451 1.20708 0 1.20708 0C1.21657 0.0107549 1.20771 0.0771813 1.18936 0.12969V0.129059Z" fill="url(#paint0_linear_3091_44206)"/>
<defs>
<linearGradient id="paint0_linear_3091_44206" x1="0" y1="1.35765" x2="1.21087" y2="1.35765" gradientUnits="userSpaceOnUse">
<stop stop-color="#9DB4DB"/>
<stop offset="0.66" stop-color="#788CB4"/>
<stop offset="1" stop-color="#6476A0"/>
</linearGradient>
</defs>
</svg>
