<svg width="6" height="1" viewBox="0 0 6 1" fill="none" xmlns="http://www.w3.org/2000/svg">
<path d="M1.59648 0.0917009C1.9772 0.0341506 2.39713 0.00126484 2.8588 0C2.88599 0 2.91255 0 2.93975 0C3.37296 0.00252969 3.76948 0.0328853 4.1306 0.0853763C4.15336 0.0885384 4.1755 0.0917008 4.19763 0.0954953C4.25329 0.103717 4.30831 0.113204 4.36206 0.12269C4.37787 0.12522 4.39305 0.128382 4.40823 0.131544C4.40886 0.131544 4.4095 0.131544 4.41013 0.131544C5.19686 0.34467 5.61995 0.60586 4.61883 0.419296C4.56254 0.406647 4.50499 0.395896 4.44807 0.385144C4.37471 0.371231 4.30072 0.359215 4.22673 0.347832C2.88789 0.142295 1.4504 0.253601 0.239941 0.662145C-0.0636216 0.764598 -0.0806968 0.706415 0.197569 0.546412C0.581448 0.326962 1.1032 0.184034 1.59585 0.0917009H1.59648Z" fill="url(#paint0_linear_3091_44003)"/>
<defs>
<linearGradient id="paint0_linear_3091_44003" x1="0.000253079" y1="0.356686" x2="5.20508" y2="0.356686" gradientUnits="userSpaceOnUse">
<stop offset="0.16" stop-color="#EBF0FA"/>
<stop offset="0.49" stop-color="#F3F7FD"/>
</linearGradient>
</defs>
</svg>
