<svg width="5" height="27" viewBox="0 0 5 27" fill="none" xmlns="http://www.w3.org/2000/svg">
<path d="M2.64356 17.8994C2.6423 17.9905 2.62522 18.3263 2.62396 18.4079C2.61637 18.8651 1.93399 18.5293 1.76956 18.368C1.61335 18.1385 1.44955 17.8811 1.25097 17.5149C0.745667 16.5827 0.445899 15.6992 0.265659 14.7386C0.265659 14.738 0.254275 14.6798 0.254275 14.6791C0.252377 14.5084 0.29222 14.3623 0.400364 14.208C0.569853 13.967 0.760212 13.9809 1.05113 13.9329C1.09666 14.2972 1.46536 15.5924 1.46536 15.5924C1.32307 15.6069 1.09034 15.5582 1.06314 15.6771C1.01824 15.8719 1.13461 16.2273 1.21619 16.4082C1.28765 16.5663 1.47864 16.9641 1.67216 16.9691C1.79296 16.9723 1.9011 16.8445 1.9732 16.7788C2.07185 16.9982 2.5449 17.7654 2.64356 17.8988V17.8994ZM0.87721 12.3613C0.824087 11.3324 0.790569 10.2832 0.82219 9.24727C0.828514 9.04489 0.844324 8.95382 0.85634 8.83303C0.850016 8.82797 0.788039 8.69896 0.760845 8.65089C0.683689 8.92031 0.682424 9.18023 0.677365 9.28331C0.63436 10.1605 0.686851 11.5891 0.690013 11.7042C0.664716 11.6663 0.645111 11.6385 0.619814 11.6113C0.61602 11.1762 0.497757 9.16569 0.721002 8.56046C0.687484 8.45927 0.650803 8.33721 0.608431 8.16772C0.23214 9.05122 0.324474 10.4198 0.346609 11.3558C0.327003 11.3425 0.218859 11.2773 0.19293 11.2615C0.19293 11.1958 0.105023 9.74498 0.289058 8.85833C0.362419 8.50291 0.425029 8.28788 0.585664 7.97737C0.595783 7.71807 0.741872 7.59159 0.771596 7.52961C0.116407 8.19681 4.18513e-05 9.2947 4.18513e-05 10.1137C4.18513e-05 11.2925 -0.00438537 12.3297 0.0778294 13.327C0.366214 13.3232 0.667246 13.4225 0.946144 13.4845C0.899977 13.1088 0.896815 12.7395 0.87721 12.3613ZM1.52481 7.09008C1.61019 7.01039 1.86252 6.84153 1.98331 6.76248C1.89351 6.80043 1.71707 6.87379 1.68102 6.89213C1.64497 6.91047 1.24591 7.13941 1.22188 7.15648C1.18646 7.18115 0.953733 7.38795 0.880372 7.54732C0.741872 7.84898 0.871518 8.18986 0.943615 8.49152C1.09793 7.88756 1.29587 7.37214 2.14585 6.95853C2.20213 6.90098 2.26601 6.87253 2.30711 6.83331C2.14332 6.89529 1.55896 7.18304 1.275 7.51C1.28322 7.46321 1.30789 7.41324 1.3218 7.37403C1.42362 7.26968 1.56339 7.17988 1.63106 7.13372C1.87644 6.96739 2.0845 6.86367 2.35075 6.75806C2.44435 6.69987 2.73526 6.55315 2.73526 6.55315C2.34569 6.66699 1.80877 6.89909 1.52418 7.09008H1.52481ZM4.14556 22.7691C4.06525 22.7754 3.91473 22.788 3.86983 22.807C3.71615 22.874 3.6137 23.0752 3.57828 23.2288C3.53844 23.4028 3.405 23.8157 3.405 23.9258C3.405 24.0282 3.47203 24.0668 3.55678 24.1009C3.81038 24.2028 3.93433 24.1889 4.11584 24.2293C4.14746 24.2363 4.36944 24.3109 4.32074 24.3482C4.29102 24.371 4.22651 24.3811 4.19869 24.4001C4.18541 24.4089 4.19995 24.4285 4.19679 24.4463C4.19363 24.464 4.14367 24.4791 4.10509 24.4791C4.03426 24.4791 3.11914 24.4912 3.11914 24.4912C3.02934 24.4912 2.79092 24.4867 2.77194 24.5436C2.75613 24.5911 2.78396 24.5822 2.8004 24.6366C2.80926 24.6651 2.81748 24.7068 2.81748 24.7068C2.81748 24.7068 2.8238 24.6094 2.89337 24.5569C2.95788 24.5082 3.06539 24.5114 3.11914 24.5114C3.11914 24.5114 4.19426 24.5025 4.32201 24.5025C4.36438 24.5025 4.40233 24.4753 4.41181 24.4526C4.42193 24.4279 4.40486 24.4077 4.42256 24.3957C4.44976 24.3767 4.5617 24.3577 4.52944 24.3248C4.49719 24.2919 4.25244 24.1585 4.28343 24.1281C4.29798 24.1142 4.36881 24.1047 4.36881 24.1047C4.18035 24.0567 3.71868 24.0858 3.72311 23.8657C3.725 23.7721 3.77117 23.5229 3.8186 23.3186C3.86603 23.1144 4.02287 22.857 4.27711 22.807C4.37766 22.7874 4.50415 22.7526 4.50415 22.7526C4.50415 22.7526 4.13355 22.7564 4.04944 22.7558C3.96532 22.7552 3.96406 22.7488 3.96975 22.7273C3.97544 22.7058 3.98683 22.6609 3.95837 22.6578C3.92991 22.6546 3.88564 22.6552 3.8869 22.6831C3.88817 22.7109 3.89196 22.7058 3.89196 22.7172C3.89196 22.7248 3.87046 22.7425 3.88943 22.7552C3.90461 22.7659 4.08169 22.7691 4.14493 22.7703L4.14556 22.7691ZM3.81923 23.053C3.75663 23.1669 3.61876 23.7481 3.61243 23.8745C3.60737 23.9764 3.66366 24.0137 3.74398 24.0573C3.58461 24.0485 3.50302 23.9953 3.5416 23.8334C3.57702 23.6848 3.6801 23.182 3.74714 23.0587C3.79267 22.9752 3.90777 22.8639 4.00327 22.8399C3.94003 22.905 3.86097 22.9752 3.81923 23.0524V23.053ZM4.1911 5.21431C4.27142 4.36371 4.20122 3.72939 3.96406 2.94392C3.91916 2.97048 3.88184 2.99388 3.85149 3.01918C4.03868 3.4916 4.11584 4.01904 4.1228 4.49272C4.13228 5.13906 4.02477 5.72784 4.01908 5.8752C4.01655 5.95298 4.03552 5.97449 4.1892 5.95045C4.08548 5.94666 4.15821 5.55898 4.19047 5.21431H4.1911ZM3.14634 0C2.60625 0.225142 2.04909 0.61092 2.02695 0.703253C2.01683 0.744993 1.96244 0.789263 1.94094 0.808868C1.93082 0.818354 1.88213 0.86958 1.93335 0.765862C1.84229 0.851872 1.83723 0.931557 1.81889 0.953692C1.74173 1.04413 1.68987 1.21678 1.6671 1.25915C1.64497 1.03591 1.75754 0.860093 1.86632 0.730447C1.71011 0.839856 1.58426 0.982783 1.45145 1.20793C1.43564 1.23512 1.39263 1.26611 1.39769 1.20476C1.39959 1.17947 1.40022 1.17567 1.40149 1.16049C1.40275 1.15543 1.41034 1.12887 1.41224 1.12381C1.51153 0.781673 1.84924 0.375658 2.50253 0.0316211C2.34 0.156208 1.91565 0.42562 1.89541 0.573607C1.89288 0.593212 1.95043 0.564753 1.96371 0.556531C2.10411 0.470522 2.31217 0.362377 2.47344 0.274471C2.62206 0.192888 2.86681 0.0815824 3.14697 0H3.14634ZM1.85683 0.519851C1.77209 0.590049 1.65003 0.739301 1.68039 0.782306C1.70062 0.810133 1.80497 0.717799 1.83659 0.675427C1.83659 0.675427 1.78979 0.703886 1.77715 0.696297C1.75122 0.679854 1.83027 0.567915 1.85683 0.519851ZM1.47928 4.21446C1.45524 4.2562 1.43564 4.30363 1.40528 4.33778C1.39832 4.32703 1.392 4.31185 1.392 4.31185C1.392 4.31185 1.16306 4.45288 1.05682 4.62553C0.989781 4.73431 0.957528 4.88166 0.949306 4.98664C0.949306 4.98664 0.925274 4.9 0.929701 4.81905C0.911993 4.86901 0.893653 5.00245 0.894286 5.05811C0.782347 5.17131 0.748196 5.33953 0.737445 5.44199C0.719737 5.60895 0.756417 5.67409 0.769066 5.72658C0.758314 5.74808 0.723531 5.80689 0.715942 5.8733C0.700764 6.00295 0.693175 6.27172 0.750726 6.33939C0.724797 6.41212 0.739342 6.51773 0.743769 6.56264C0.812703 6.52532 0.852545 6.6088 0.860767 6.67078C0.884166 6.85861 0.870253 7.22984 0.858237 7.43981C0.875945 7.4221 0.884799 7.41324 0.89808 7.40186C0.904404 7.17103 0.922745 6.90161 0.90314 6.67141C0.897448 6.60627 0.868988 6.55378 0.860134 6.52849C0.844324 6.48042 0.839897 6.402 0.839264 6.37987C0.808276 6.36469 0.767801 6.34572 0.765271 6.28374C0.762742 6.22872 0.784244 6.20975 0.812071 6.20089C0.793731 6.12374 0.806379 5.98334 0.82219 5.88215C0.828514 5.84168 0.840529 5.7582 0.876577 5.77338C0.865193 5.731 0.812703 5.54064 0.839897 5.40341C0.867092 5.26617 0.868356 5.22886 0.9531 5.11819C0.969543 5.12641 0.986619 5.14032 0.986619 5.12641C0.988516 5.03471 0.986619 4.93795 1.00243 4.85383C1.04543 4.62174 1.23073 4.47565 1.29777 4.41683C1.36481 4.35802 1.40149 4.34157 1.40149 4.34157C1.40149 4.34157 1.41224 4.3675 1.42299 4.37256C1.46473 4.32387 1.46094 4.25114 1.5286 4.18789C1.63612 4.08671 1.8113 4.03295 1.92829 3.98109C1.99976 3.94947 2.06806 3.94947 2.0864 3.9501C2.0864 3.95896 2.0864 3.99817 2.0883 4.00449C2.09462 4.02283 2.16229 3.93176 2.22427 3.89192C2.28625 3.85208 2.36277 3.82299 2.36783 3.8154C2.32482 3.81919 2.24071 3.84323 2.16735 3.91532C2.12624 3.9558 2.10158 3.98046 2.10158 3.98046C2.10158 3.98046 2.10031 3.93809 2.09842 3.93746C2.08893 3.93493 2.00482 3.9267 1.93588 3.95833C1.84671 3.9988 1.552 4.0905 1.4818 4.21382L1.47928 4.21446ZM3.90461 22.174C3.91473 22.1303 3.97165 22.0759 4.08295 22.0665C4.04817 22.088 3.96912 22.1132 3.959 22.1834C4.00517 22.1329 4.06778 22.0949 4.12596 22.0791C4.18414 22.0633 4.36628 22.0184 4.41561 22.0203C4.42383 22.0203 4.40486 22.0007 4.42573 21.9684C4.4447 21.9387 4.53956 21.9172 4.50162 21.8849C4.45672 21.847 4.27774 21.8653 4.1892 21.8622C4.18288 21.8622 4.10888 21.8584 4.0994 21.8514C4.0741 21.8318 4.10699 21.8147 4.10699 21.7774C4.10699 21.7528 4.08548 21.3923 4.07157 21.2867C4.05513 21.4359 4.00643 21.6383 4.0292 21.7623C4.03932 21.816 3.98872 21.8312 4.0058 21.8584C4.02857 21.8944 4.25877 21.8906 4.25877 21.8906C4.20754 21.9077 4.22715 21.9804 4.22146 21.9874C4.20311 22.0127 3.8888 22.0304 3.82493 22.1329C3.77686 22.21 3.81418 22.4155 3.91283 22.4794C3.89955 22.3928 3.8888 22.2378 3.90398 22.1733L3.90461 22.174ZM2.88452 0.542618C2.83013 0.557163 2.76372 0.551471 2.71123 0.550206C2.65242 0.572974 2.45257 0.669102 2.43044 0.68428C2.43613 0.738036 2.5272 0.80697 2.58285 0.781673C2.63281 0.758906 2.85289 0.651395 3.07804 0.547045C3.24436 0.470522 3.49101 0.387042 3.62635 0.329492C3.405 0.357951 3.1027 0.484435 2.88452 0.542618ZM3.90145 1.97189C2.68783 2.25458 2.20593 2.76368 2.10284 2.86424C2.08008 2.79594 2.15154 2.67388 2.15154 2.67388C2.15154 2.67388 2.09842 2.69159 2.09019 2.67135C2.07059 2.62265 2.09968 2.5436 2.09589 2.46708C2.08893 2.28684 2.07691 2.06106 2.0415 1.90802C2.02063 1.81948 1.96371 1.82517 1.94727 1.76509C1.92703 1.69362 2.02569 1.53109 2.02505 1.5039C2.02252 1.4122 1.79106 1.60509 1.74805 1.60509C1.72782 1.60509 1.75944 1.56714 1.75754 1.55576C1.75564 1.54374 1.74047 1.5488 1.73794 1.53236C1.73098 1.48682 1.96181 1.18706 2.13067 1.05488C2.09842 1.01251 2.07249 0.985945 2.06679 0.915114C2.03897 0.934087 2.00102 0.961913 2.00102 0.961913C2.00039 0.928395 2.00545 0.871477 2.00545 0.871477C2.00545 0.871477 2.08956 0.756377 2.12498 0.694399C2.13067 0.755744 2.12624 0.822148 2.12687 0.870845C2.18569 0.825943 2.31281 0.748155 2.36719 0.719064C2.40135 0.786101 2.42601 0.81456 2.51075 0.820884C2.3887 0.886023 2.24387 0.991637 2.16355 1.05045C2.10917 1.09029 2.11676 1.13267 2.13889 1.1352C2.223 1.14468 2.53289 0.978357 2.59676 1.03022C2.63091 1.05804 2.51518 1.12508 2.41336 1.23702C2.22933 1.43876 2.3672 1.39575 2.41905 1.56335C2.4589 1.68983 2.46079 2.02059 2.44814 2.15845C2.44309 2.21348 2.37289 2.3349 2.42475 2.37348C2.47028 2.407 2.86618 2.22676 2.94333 2.20083C3.18492 2.11924 3.68326 1.97505 3.90208 1.97189H3.90145ZM2.31344 1.61141C2.28877 1.5292 2.1996 1.50074 2.2268 1.43813C2.15597 1.45963 2.14142 1.5469 2.17873 1.57157C2.20846 1.59181 2.24387 1.64556 2.26032 1.72145C2.29383 1.87892 2.30711 2.24193 2.27739 2.35261C2.24134 2.48415 2.26221 2.5183 2.32545 2.42091C2.30648 2.36968 2.3438 2.31782 2.35328 2.22612C2.37542 2.01489 2.36213 1.77205 2.31344 1.61141ZM4.29355 1.9447C4.22778 2.00984 4.22335 2.03071 4.22209 2.05727C4.21576 2.18565 4.22082 2.68336 4.28533 2.74661C4.27015 2.76684 4.24612 2.79657 4.25118 2.79467C4.28912 2.78139 4.30051 2.77696 4.34541 2.76115C4.34984 2.71941 4.37577 2.70676 4.38841 2.69159C4.35996 2.63024 4.30999 2.47909 4.29545 2.40067C4.28154 2.32794 4.25561 2.07434 4.27205 2.02059C4.27584 2.00794 4.32074 1.96557 4.32454 1.94153C4.32707 1.92572 4.30936 1.9175 4.26256 1.93268C4.27331 1.93394 4.28343 1.93711 4.29292 1.94533L4.29355 1.9447ZM4.10066 2.10217C4.10066 2.07687 4.10825 2.02312 4.18224 1.96367C4.16707 1.96493 4.15379 1.96873 4.13355 1.97315C4.09434 1.99719 4.04058 2.06296 4.03679 2.09584C4.02477 2.20842 4.03552 2.60052 4.03552 2.71119C4.03552 2.76621 4.03995 2.85412 4.10066 2.85412L4.1873 2.8187C4.10066 2.82313 4.10446 2.73143 4.10193 2.6119C4.09813 2.44051 4.10066 2.28494 4.10066 2.10154V2.10217ZM3.20515 4.51422C3.17733 4.49335 3.12737 4.51865 3.13306 4.53826C3.29749 4.62553 3.38666 4.72925 3.44737 4.81462C3.60168 5.03028 3.59599 5.29084 3.64532 5.37052C3.66809 5.4072 3.67884 5.36799 3.68579 5.34839C3.70287 5.30222 3.74967 5.22696 3.74145 5.16815C3.73765 5.14032 3.6839 5.30665 3.66113 5.31424C3.65101 5.3174 3.63583 5.19914 3.62445 5.11439C3.58903 4.85384 3.40563 4.66411 3.20579 4.51359L3.20515 4.51422ZM4.06208 25.2646C3.63014 25.2943 2.96483 25.5182 2.34063 26.0501C2.39123 25.9445 2.52909 25.8129 2.5487 25.7901C2.65495 25.6662 2.80546 25.5625 2.9408 25.4682C3.01922 25.4139 3.11345 25.3696 3.20389 25.3272C3.20452 25.2918 3.08183 25.3228 3.06159 25.3272C2.87566 25.3652 2.52656 25.6289 2.34632 25.8369C2.29826 25.8926 2.08387 26.1974 2.06047 26.2461C2.0396 26.2904 2.29763 26.3264 2.42791 26.3441C2.61068 26.3688 3.15709 26.4036 3.70413 26.4245C3.7952 26.4283 3.916 26.434 3.96532 26.4396C4.00264 26.4441 3.9805 26.451 3.96659 26.451C3.3797 26.4599 2.79218 26.4415 2.2053 26.4592C2.08577 26.463 1.72339 26.5035 1.70884 26.4687C1.69367 26.4327 1.85683 26.415 1.87897 26.4124C2.09272 26.3922 2.29573 26.396 2.51012 26.3966L2.00861 26.3201C1.8347 26.279 1.89351 26.2202 1.94853 26.1196C2.14332 25.763 2.42348 25.4771 2.6638 25.3468C3.02112 25.152 3.56437 25.1141 3.78129 25.1046C3.58018 25.1033 3.43282 25.0964 3.30697 25.092C3.11408 25.0863 2.92309 25.0667 2.92499 25.0414C2.92626 25.0249 3.02997 25.0154 3.02997 25.0154C3.02997 25.0154 2.93764 25.0085 2.84404 24.9927C2.74981 24.9775 2.74981 24.949 2.77005 24.9155C2.78965 24.8833 2.80989 24.7998 2.81938 24.7783C2.81621 24.8953 2.8687 24.9516 2.93195 24.975C2.99076 24.9971 3.53528 24.9939 3.75283 25.0097C3.73133 25.0211 3.69149 25.0414 3.69149 25.0414C3.69149 25.0414 3.22539 25.0433 3.41765 25.0705C3.50872 25.0837 3.85844 25.0926 4.00453 25.0964C4.15062 25.1002 4.26889 25.1021 4.34351 25.1052C4.1873 25.1425 4.04185 25.1628 4.06208 25.2646ZM3.34176 25.0799C3.34176 25.0799 3.22096 25.0686 3.22539 25.0515C3.22919 25.0369 3.34935 25.0306 3.39425 25.0199C3.33101 25.0091 3.2393 25.0255 3.20705 25.03C3.16974 25.035 3.09511 25.0382 3.11156 25.054C3.13242 25.0749 3.34176 25.0799 3.34176 25.0799Z" fill="#EAEEF6"/>
</svg>
