<svg width="3" height="4" viewBox="0 0 3 4" fill="none" xmlns="http://www.w3.org/2000/svg">
<path d="M1.99921 2.01173C1.96758 2.64163 2.03905 2.93444 1.9581 3.1229C1.77976 3.09634 1.55525 3.0742 1.25485 3.0742C0.809621 3.0742 0.590171 3.10898 0.43839 3.13744C0.307479 3.15072 0.267003 3.09381 0.261944 3.02045C0.249295 2.8421 0.270798 2.52589 0.274593 2.32858C0.285344 1.76572 0.232221 1.37994 0.15886 0.965076C0.0627316 0.418664 -0.0327638 0.216288 0.0108733 0.197948C0.428271 0.0240323 0.927252 0 1.24599 0C1.53248 0 1.85881 0.00253 2.30214 0.134706C2.12759 0.904995 2.0283 1.41662 1.99857 2.01173H1.99921Z" fill="url(#paint0_linear_3091_43914)"/>
<defs>
<linearGradient id="paint0_linear_3091_43914" x1="0.000122118" y1="1.56967" x2="2.30277" y2="1.56967" gradientUnits="userSpaceOnUse">
<stop offset="0.16" stop-color="#F1F4FB"/>
<stop offset="0.49" stop-color="#F6F9FD"/>
</linearGradient>
</defs>
</svg>
