<svg width="4" height="4" viewBox="0 0 4 4" fill="none" xmlns="http://www.w3.org/2000/svg">
<path d="M3.1261 2.312C3.121 2.312 3.028 2.224 2.9477 2.1791C2.8839 2.1437 2.8238 2.1469 2.8497 2.169C2.9294 2.2361 3.0647 2.3739 3.0843 2.4416C3.1096 2.5301 3.0723 2.5263 3.0711 2.6029C3.0679 2.8008 3.0249 2.8501 3.0135 2.8875C2.9749 3.0165 3.0103 3.4098 3.023 3.6116C2.8371 3.4402 2.6499 3.3023 2.4993 3.198C2.4987 3.1423 2.5139 3.1139 2.5227 2.9716C2.5297 2.8678 2.4437 2.6383 2.4848 2.5984C2.5019 2.5814 2.5563 2.6395 2.5563 2.6149C2.5575 2.5244 2.4962 2.4795 2.493 2.4365C2.4785 2.2114 2.5152 2.1051 2.6012 2.0786C2.5733 2.0387 2.5316 1.9761 2.5006 1.9287C2.4102 1.7877 2.4057 1.6384 2.4291 1.6157C2.4652 1.5796 2.457 1.4847 2.4348 1.462C2.4057 1.4323 2.1977 1.2021 2.2192 1.1432C2.2318 1.1085 2.2432 1.0667 2.2451 1.0439C2.2464 1.0345 2.2451 1.0281 2.2426 1.0281C2.2382 1.0275 2.1104 1.0174 2.0725 1.0161C2.0301 1.0149 1.9808 0.958603 1.9612 0.943403C1.9447 0.930103 1.92 0.947804 1.8998 0.939604C1.8796 0.931404 1.8125 0.861803 1.7872 0.866903C1.7872 0.866903 1.7872 0.866903 1.7872 0.865603C1.7993 0.853003 1.8593 0.779603 1.8657 0.764403C1.8688 0.756803 1.8815 0.734104 1.8467 0.743504C1.8189 0.751104 1.3515 0.785904 1.3148 0.787204C1.2712 0.788404 1.2617 0.780904 1.2617 0.766304C1.2617 0.743504 1.3224 0.676504 1.337 0.623404C1.3566 0.551904 1.2661 0.660704 1.2219 0.680304C1.17 0.703104 1.1068 0.706203 1.0852 0.643003C1.0694 0.596803 0.965101 0.638603 0.912601 0.638603C0.849401 0.638603 0.757002 0.676503 0.714602 0.696103C0.618502 0.740403 0.583701 0.822004 0.507801 0.857404C0.437001 0.890304 0.401601 0.874503 0.385801 0.968703C0.326301 1.3178 0.311202 1.4082 0.269402 1.3728C0.233402 1.3424 0.145501 0.979404 0.113201 0.952904C0.0860011 0.930704 0.1967 1.4354 0.1082 1.1951C0.0557001 1.0528 0.0165 0.878904 0 0.697404C0 0.586104 0.0196011 0.286904 0.0563011 0.188904C0.0867011 0.162304 0.0917008 0.145903 0.134701 0.116203C0.370001 -0.0469967 0.9044 -0.00209609 1.3034 0.0359039C1.4666 0.0510039 1.6936 0.0972032 1.576 0.167403C1.6038 0.182603 1.6253 0.198403 1.6468 0.212303C1.743 0.144603 2.2015 0.166803 1.8726 0.255303C2.0117 0.300803 2.4209 0.436804 2.3027 0.470304C2.2293 0.491204 2.2072 0.505103 2.1446 0.543103C2.2059 0.530403 2.3849 0.529803 2.4981 0.600003C2.5531 0.634103 2.586 0.687304 2.6442 0.737904C2.758 0.837104 2.9363 1.0452 2.832 1.006C2.6587 0.940203 2.5816 0.987704 2.6043 0.990804C2.7991 1.0193 2.8529 1.1388 2.9541 1.3355C3.0034 1.4316 3.0432 1.4519 3.078 1.5651C3.1027 1.6441 3.0913 1.677 3.0717 1.665C2.9914 1.6157 2.8889 1.5429 2.7865 1.5537C2.8016 1.5739 2.9104 1.6144 3.0065 1.7402C3.0881 1.8459 3.0578 1.9249 3.0774 2.0084C3.0982 2.0988 3.1774 2.2823 3.1261 2.312Z" fill="white"/>
</svg>
