<svg width="4" height="2" viewBox="0 0 4 2" fill="none" xmlns="http://www.w3.org/2000/svg">
<path d="M0.270043 0.000633039C0.249173 0.0297244 0.235893 0.0607126 0.236525 0.0999227C0.236525 0.151781 0.234628 0.510364 0.230833 0.597638C0.225774 0.700723 0.208699 0.873374 0.260557 0.882228C0.194785 0.919541 0.0739933 1.01504 0 1.09915C0.00252969 1.01377 0.0588153 0.801911 0.0841122 0.667205C0.097393 0.595109 0.116997 0.416766 0.116997 0.268147C0.116997 0.127749 0.103717 0.0803181 0.181505 0.0252974L0.270043 0.000633039ZM3.47642 0.000633039C3.49856 0.029092 3.51057 0.061345 3.50994 0.0999227C3.50994 0.151781 3.5112 0.509732 3.51563 0.597006C3.52069 0.700091 3.54093 0.873374 3.48591 0.881596C3.55168 0.918909 3.67247 1.0144 3.74646 1.09852C3.74393 1.01314 3.68765 0.801279 3.66235 0.666573C3.64907 0.594477 3.62947 0.416134 3.62947 0.267515C3.62947 0.127117 3.64275 0.0803175 3.56496 0.0246644L3.47642 0V0.000633039Z" fill="#556684"/>
</svg>
