<svg width="3" height="4" viewBox="0 0 3 4" fill="none" xmlns="http://www.w3.org/2000/svg">
<path d="M1.9828 2.0206C1.9549 2.6347 2.0232 2.9351 1.9436 3.121C1.7652 3.0951 1.5483 3.0742 1.2548 3.0742C0.8096 3.0742 0.5902 3.109 0.4384 3.1374C0.3075 3.1507 0.267 3.0938 0.2619 3.0204C0.2493 2.8421 0.2708 2.5259 0.2746 2.3286C0.2853 1.7657 0.232199 1.3799 0.1589 0.965099C0.0626995 0.418699 -0.0328003 0.2163 0.0108997 0.1979C0.4283 0.0239998 0.9273 0 1.246 0C1.5274 0 1.8474 0.00249971 2.2794 0.129C2.108 0.9195 2.0106 1.4072 1.9828 2.0206Z" fill="url(#paint0_linear_1591_39882)"/>
<defs>
<linearGradient id="paint0_linear_1591_39882" x1="-0.000500279" y1="1.5697" x2="2.2794" y2="1.5697" gradientUnits="userSpaceOnUse">
<stop offset="0.16" stop-color="#ECF1FA"/>
<stop offset="0.49" stop-color="#F4F7FD"/>
</linearGradient>
</defs>
</svg>
