<svg width="1" height="2" viewBox="0 0 1 2" fill="none" xmlns="http://www.w3.org/2000/svg">
<path d="M0.295191 0.0347004C0.279391 0.1385 0.23629 0.2454 0.24079 0.3435C0.17809 0.4118 0.0458907 0.6187 0.00729067 0.7091C-0.0408093 0.5472 0.159791 0.1828 0.295191 0.0347004ZM0.639991 0C0.607691 0.0227 0.50899 0.0923003 0.43749 0.1512C0.47299 0.2366 0.55139 0.2941 0.55139 0.2941C0.59249 0.2505 0.687391 0.1771 0.735491 0.1372C0.694991 0.11 0.646891 0.0436 0.639991 0ZM0.39959 1.9415C0.39959 1.6999 0.42359 1.4582 0.47609 1.2735C0.51469 1.1381 0.54439 1.0356 0.50769 1.0179C0.47739 1.0033 0.35779 1.1482 0.34769 1.3317C0.33759 1.5151 0.38689 1.6518 0.38689 1.6518C0.38689 1.6518 0.39069 1.7207 0.39129 1.7467C0.319191 1.6537 0.24009 1.5088 0.19839 1.3139C0.16039 1.1362 0.19139 1.0172 0.20089 0.9603C0.21039 0.9034 0.194591 0.8515 0.180691 0.897C0.166791 0.9426 0.144591 1.0539 0.154091 1.2096C0.162291 1.3399 0.24959 1.5885 0.39449 1.7764C0.39259 1.839 0.40079 1.9415 0.40079 1.9415H0.39959Z" fill="#556684"/>
</svg>
