<svg width="5" height="1" viewBox="0 0 5 1" fill="none" xmlns="http://www.w3.org/2000/svg">
<path d="M1.59648 0.0916996C1.96648 0.0354196 2.37308 0.00317 2.81958 0C2.84548 0 2.87208 0 2.89798 0C3.31668 0 3.70058 0.0284598 4.05278 0.0746298C4.07498 0.0777898 4.09648 0.0803199 4.11858 0.0834799C4.17238 0.0910699 4.22548 0.0992895 4.27798 0.10815C4.29318 0.11068 4.30828 0.11321 4.32288 0.11574C4.32348 0.11574 4.32408 0.11574 4.32478 0.11574C5.00078 0.29851 5.18488 0.45977 4.50498 0.3959C4.44938 0.38451 4.39368 0.3744 4.33808 0.36554C4.26408 0.35289 4.18938 0.341509 4.11478 0.331389C2.80758 0.151779 1.41628 0.264989 0.239983 0.662149C-0.0636171 0.764599 -0.0807174 0.70642 0.197583 0.54642C0.581483 0.32696 1.10378 0.18404 1.59648 0.0916996Z" fill="url(#paint0_linear_1591_39983)"/>
<defs>
<linearGradient id="paint0_linear_1591_39983" x1="0.000282722" y1="0.35669" x2="4.93248" y2="0.35669" gradientUnits="userSpaceOnUse">
<stop offset="0.16" stop-color="#CFDCF3"/>
<stop offset="0.49" stop-color="#E2EBFA"/>
</linearGradient>
</defs>
</svg>
