<svg width="6" height="1" viewBox="0 0 6 1" fill="none" xmlns="http://www.w3.org/2000/svg">
<path d="M1.59648 0.0916996C1.97718 0.0341496 2.39778 0.00127 2.86068 0C2.88788 0 2.91508 0 2.94168 0C3.37608 0.00253 3.77268 0.03289 4.13438 0.08601C4.15718 0.08917 4.17928 0.0923394 4.20148 0.0961294C4.25708 0.104989 4.31208 0.11384 4.36648 0.12396C4.38228 0.12712 4.39748 0.12965 4.41268 0.13281C4.41328 0.13281 4.41388 0.13281 4.41458 0.13281C5.20698 0.3472 5.64268 0.61408 4.62448 0.4212C4.56758 0.40855 4.51068 0.3978 4.45378 0.38704C4.38038 0.37313 4.30638 0.36112 4.23238 0.34973C2.89168 0.14293 1.45168 0.2536 0.239983 0.66278C-0.0636171 0.76523 -0.0807174 0.707049 0.197583 0.54705C0.581483 0.3276 1.10378 0.18403 1.59648 0.0916996Z" fill="url(#paint0_linear_1591_39963)"/>
<defs>
<linearGradient id="paint0_linear_1591_39963" x1="0.000282722" y1="0.35669" x2="5.21968" y2="0.35669" gradientUnits="userSpaceOnUse">
<stop offset="0.16" stop-color="#ECF1FA"/>
<stop offset="0.49" stop-color="#F4F7FD"/>
</linearGradient>
</defs>
</svg>
