<svg width="1" height="3" viewBox="0 0 1 3" fill="none" xmlns="http://www.w3.org/2000/svg">
<path d="M0.496479 2.84372C0.493316 2.84372 0.488255 2.84372 0.488255 2.84372C0.449032 2.31357 0.332625 1.822 0.258607 1.50442C0.18522 1.18557 0.0593253 0.670598 0.0207342 0.503581C-0.0121631 0.359339 -0.00393887 0.184098 0.031489 0.0866714C0.0403459 0.0626311 0.063121 0 0.110569 0C0.111834 0 0.113099 0.000633258 0.113731 0.000633258C0.0700793 0.00506174 0.047937 0.063265 0.0397126 0.0860401C0.0042848 0.183467 -0.00393941 0.358708 0.0289579 0.50295C0.0675489 0.669967 0.193445 1.18493 0.266831 1.50378C0.34085 1.822 0.457255 2.31357 0.496479 2.84372Z" fill="url(#paint0_linear_3091_44214)"/>
<defs>
<linearGradient id="paint0_linear_3091_44214" x1="-0.000142955" y1="1.42154" x2="0.496479" y2="1.42154" gradientUnits="userSpaceOnUse">
<stop stop-color="#9DB4DB"/>
<stop offset="0.43" stop-color="#C5D2E9"/>
<stop offset="1" stop-color="white"/>
</linearGradient>
</defs>
</svg>
