<svg width="2" height="1" viewBox="0 0 2 1" fill="none" xmlns="http://www.w3.org/2000/svg">
<path d="M0.124701 0.258099L0.1917 0.1961L0.1955 0.198L0.1297 0.258099C0.209 0.323099 0.249901 0.357899 0.252501 0.362499C0.267001 0.388399 0.2506 0.4157 0.2196 0.4188C0.217 0.4188 0.2145 0.4188 0.212 0.4188C0.2126 0.4188 0.2132 0.4188 0.2145 0.4188C0.2455 0.4157 0.2619 0.387799 0.2474 0.362499C0.2449 0.357899 0.203901 0.323099 0.124701 0.258099ZM0.00450039 0.375799L0.0702 0.3132L0.0677004 0.3106L0 0.375799C0.0991 0.458499 0.1632 0.4998 0.1923 0.4998C0.1538 0.4998 0.1468 0.494099 0.00450039 0.375799ZM1.4867 0.326399L1.4798 0.329599L1.4431 0.390299L1.4462 0.393499L1.4867 0.326399ZM0.9193 0.234699L0.9869 0.0177002L0.9825 0.0100994L0.9129 0.232199L0.9193 0.234699ZM1.2368 0.3473L1.3058 0.4093L1.3096 0.4074L1.2419 0.3454L1.2368 0.3473ZM0.4675 0.0537987L0.6959 0.00249863V0L0.4619 0.0524998L0.5302 0.2796L0.534 0.275799L0.4675 0.0537987ZM1.3912 0.4827L1.4127 0.447899L1.3488 0.389099L1.345 0.390999L1.4077 0.447899L1.3861 0.4827L1.457 0.550999L1.4595 0.5466L1.3912 0.4827Z" fill="white"/>
</svg>
