<svg width="6" height="4" viewBox="0 0 6 4" fill="none" xmlns="http://www.w3.org/2000/svg">
<path d="M4.88978 3.80322C4.56764 3.7602 4.27121 3.63323 3.92179 3.51413L3.82525 3.405L3.71927 3.28958C3.60542 2.92127 3.39294 2.51257 3.11277 2.12275C2.72086 1.57763 2.14531 0.995269 1.70618 0.995269C1.5918 0.995269 1.49579 1.03514 1.41184 1.11699C1.26861 1.25707 1.26599 1.60334 1.40555 2.04825L1.34574 2.09494L1.28645 2.14216C1.07764 2.01047 0.427069 1.60911 0.264426 1.50576L0 1.26966L0.0167893 1.17365C0.173661 1.07082 0.334206 0.962216 0.488455 0.857285C0.920245 0.562954 1.33 0.259704 1.81898 0.00629579L1.98739 0L2.21194 0.133787C2.82211 0.789604 3.39346 1.52255 3.8709 2.17574C4.27278 2.72558 4.65368 3.24394 5.01517 3.63113L5.02934 3.75023L4.89083 3.80322H4.88978Z" fill="url(#paint0_linear_3091_44666)"/>
<defs>
<linearGradient id="paint0_linear_3091_44666" x1="-3.23607" y1="2.80375" x2="8.39499" y2="1.21772" gradientUnits="userSpaceOnUse">
<stop stop-color="#E30918"/>
<stop offset="0.5" stop-color="#9C1006"/>
<stop offset="1" stop-color="#E30918"/>
</linearGradient>
</defs>
</svg>
