<svg width="6" height="1" viewBox="0 0 6 1" fill="none" xmlns="http://www.w3.org/2000/svg">
<path d="M1.59589 0.0916996C1.98159 0.0335196 2.40729 0 2.87649 0C2.90369 0 2.93149 0 2.95869 0C3.39889 0.00317 3.80109 0.0354198 4.16659 0.0904398C4.18939 0.0935998 4.21219 0.0973996 4.23429 0.10119C4.29059 0.11004 4.34689 0.11953 4.40129 0.12965C4.41709 0.13281 4.43229 0.135339 4.44809 0.138499H4.44999C5.28919 0.366179 5.82549 0.6748 4.67199 0.43005C4.61499 0.4174 4.55749 0.405389 4.49989 0.394629C4.42659 0.380719 4.35319 0.36807 4.27919 0.35606C2.92519 0.13787 1.46559 0.248539 0.239894 0.662149C-0.0636065 0.764599 -0.0807067 0.70642 0.197593 0.54642C0.581493 0.32696 1.10319 0.18404 1.59589 0.0916996Z" fill="url(#paint0_linear_1591_39955)"/>
<defs>
<linearGradient id="paint0_linear_1591_39955" x1="-0.000406597" y1="0.35669" x2="5.33409" y2="0.35669" gradientUnits="userSpaceOnUse">
<stop offset="0.16" stop-color="#F8FAFD"/>
<stop offset="0.49" stop-color="#FBFCFE"/>
</linearGradient>
</defs>
</svg>
