<svg width="6" height="4" viewBox="0 0 6 4" fill="none" xmlns="http://www.w3.org/2000/svg">
<path d="M0.426021 3.21456C0.34365 3.21456 0.260229 3.21193 0.177859 3.20931L0.00577203 3.13953L0 3.04247C0.788031 2.1941 1.5598 1.2088 2.29589 0.101783L2.44437 0L2.60334 0.0304292C3.55506 0.713004 4.58863 1.29275 5.67938 1.76021L5.79113 1.88403L5.68043 1.98791C5.42335 2.06766 5.17519 2.16 4.86827 2.2686C4.74287 2.3132 4.60961 2.35989 4.47583 2.40659L4.38873 2.36147L4.29954 2.31845C4.18307 1.99159 3.96953 1.73293 3.67993 1.56872C3.42862 1.42653 3.17101 1.35413 2.91498 1.35413C2.4748 1.35413 2.07448 1.57396 1.8174 1.95696C1.61541 2.25759 1.51678 2.64583 1.54773 3.00889L1.48372 3.08916L1.42391 3.16839C1.07397 3.20721 0.756553 3.21456 0.426021 3.21456Z" fill="url(#paint0_linear_1587_26268)"/>
<defs>
<linearGradient id="paint0_linear_1587_26268" x1="-7.92071" y1="2.93701" x2="3.62326" y2="1.35256" gradientUnits="userSpaceOnUse">
<stop stop-color="#3FA3DC"/>
<stop offset="0.5" stop-color="#2A78AA"/>
<stop offset="1" stop-color="#3FA3DC"/>
</linearGradient>
</defs>
</svg>
