<svg width="2" height="1" viewBox="0 0 2 1" fill="none" xmlns="http://www.w3.org/2000/svg">
<path d="M1.48101 0.133083C1.50568 0.0951248 1.45064 0.087534 1.45064 0.087534C1.45064 0.087534 1.40952 0.131818 1.3431 0.13941C1.24187 0.150797 1.11598 0.114737 0.909104 0.138144C0.864186 0.143206 0.815473 0.193817 0.798392 0.185592C0.780678 0.178001 0.817372 0.0869007 0.817372 0.0869007C0.818005 0.0685542 0.809148 0.0660236 0.799658 0.0869007C0.790168 0.107778 0.746515 0.161552 0.705393 0.176735C0.626946 0.205204 0.433358 0.238734 0.361237 0.246959C0.300504 0.253918 0.220792 0.268469 0.180936 0.281122C0.137917 0.327937 0.0373258 0.446241 0 0.511403C0.00822432 0.412711 0.0272034 0.296937 0.0512437 0.217224C0.0955285 0.0698193 0.0904679 0.0641261 0.0537748 0.0774115C0.306198 -0.0560756 1.00653 0.0255346 1.38485 0.0166776C1.51138 0.0135144 1.6689 0.0818394 1.66068 0.115369C1.58476 0.0856352 1.50821 0.118533 1.48101 0.131819V0.133083Z" fill="#98ADBE"/>
</svg>
