<svg width="5" height="1" viewBox="0 0 5 1" fill="none" xmlns="http://www.w3.org/2000/svg">
<path d="M1.59648 0.0917009C1.96835 0.0354154 2.37816 0.00252969 2.82781 0C2.85437 0 2.8803 0 2.90686 0C3.32869 0.000632421 3.7151 0.0290915 4.06925 0.0771555C4.09139 0.0803176 4.11352 0.0828472 4.13502 0.0860093C4.18941 0.0935984 4.24317 0.101819 4.29566 0.111306C4.31084 0.113835 4.32602 0.116365 4.34119 0.119528C4.34183 0.119528 4.34246 0.119528 4.34309 0.119528C5.04255 0.308622 5.27654 0.491391 4.52902 0.401587C4.47337 0.389571 4.41708 0.380085 4.36143 0.369966C4.28744 0.357317 4.21344 0.345302 4.13819 0.335184C2.82401 0.150516 1.4232 0.263087 0.239941 0.662145C-0.0636215 0.764598 -0.0806968 0.706415 0.197569 0.546412C0.581448 0.326962 1.1032 0.184034 1.59585 0.0917009H1.59648Z" fill="url(#paint0_linear_1587_25662)"/>
<defs>
<linearGradient id="paint0_linear_1587_25662" x1="0.000253079" y1="0.356686" x2="4.98943" y2="0.356686" gradientUnits="userSpaceOnUse">
<stop offset="0.16" stop-color="#D5E0F4"/>
<stop offset="0.49" stop-color="#E6EDFA"/>
</linearGradient>
</defs>
</svg>
