<svg width="13" height="5" viewBox="0 0 13 5" fill="none" xmlns="http://www.w3.org/2000/svg">
<path d="M0.538773 4.27719C0.607155 4.25807 0.681419 4.23675 0.760096 4.21469C0.918183 4.16984 1.09686 4.11984 1.29098 4.06469C1.67995 3.95513 2.13436 3.82646 2.62038 3.68969C2.86303 3.6191 4.04905 3.24631 5.97258 2.65955C9.79021 1.49558 12.8108 0 12.8108 0C12.8108 0 10.752 1.17647 8.06301 2.13235C7.78433 2.23161 6.68507 2.60587 5.82552 2.86764C4.96596 3.1294 1.49686 4.08381 1.29906 4.12646C1.10201 4.17131 0.940978 4.22719 0.779949 4.25954C0.699067 4.27572 0.611567 4.31616 0.540979 4.32866C0.466715 4.3419 0.421126 4.35734 0.361568 4.36543C0.244656 4.38234 0.15348 4.40734 0.0924507 4.4191C0.0623038 4.42498 -0.0104905 4.45293 0.0012742 4.43234C0.0130389 4.41175 0.471126 4.29484 0.538773 4.27646V4.27719Z" fill="#131A1C"/>
</svg>
