<svg width="7" height="5" viewBox="0 0 7 5" fill="none" xmlns="http://www.w3.org/2000/svg">
<path d="M0.056138 4.33364C0.914997 3.47321 2.07553 1.70145 2.91865 0.20409L3.1028 0.0183629L3.24289 0C4.28485 0.430216 5.34675 0.992646 6.40393 1.67207L6.42439 1.76808L6.26332 1.88928C5.84465 2.02097 5.43489 2.18781 4.98999 2.40606L4.91706 2.36409L4.84308 2.32159C4.80478 1.9748 4.66627 1.71982 4.45169 1.60124C4.30111 1.51835 4.1285 1.47585 3.9391 1.47585C3.30899 1.47585 2.6238 1.92286 2.15108 2.64268C1.88403 3.04981 1.71929 3.50259 1.68309 3.92966L1.60754 4.03197L1.53724 4.13113C1.10125 4.2901 0.70566 4.43018 0.153724 4.53196L0 4.48632L0.0571873 4.33312L0.056138 4.33364Z" fill="url(#paint0_linear_3091_44664)"/>
<defs>
<linearGradient id="paint0_linear_3091_44664" x1="9.25437" y1="1.23556" x2="20.8797" y2="-0.34942" gradientUnits="userSpaceOnUse">
<stop stop-color="#144391"/>
<stop offset="0.5" stop-color="#212A72"/>
<stop offset="1" stop-color="#144391"/>
</linearGradient>
</defs>
</svg>
