<svg width="3" height="4" viewBox="0 0 3 4" fill="none" xmlns="http://www.w3.org/2000/svg">
<path d="M1.92964 2.04968C1.91193 2.6119 1.97391 2.93697 1.89486 3.11531C1.71841 3.09128 1.52426 3.0742 1.25485 3.0742C0.809621 3.0742 0.590171 3.10898 0.43839 3.13744C0.307479 3.15072 0.267004 3.09381 0.261945 3.02045C0.249296 2.8421 0.270798 2.52589 0.274593 2.32858C0.285344 1.76572 0.232221 1.37994 0.15886 0.965076C0.0627316 0.418664 -0.0327638 0.216288 0.0108733 0.197948C0.428271 0.0240323 0.927252 0 1.24599 0C1.51034 0 1.80885 0.00253011 2.20285 0.108144C2.04284 0.966973 1.95051 1.37741 1.92964 2.04968Z" fill="url(#paint0_linear_3091_43927)"/>
<defs>
<linearGradient id="paint0_linear_3091_43927" x1="-0.000510303" y1="1.56967" x2="2.20285" y2="1.56967" gradientUnits="userSpaceOnUse">
<stop offset="0.16" stop-color="#DEE7F7"/>
<stop offset="0.49" stop-color="#EBF1FB"/>
</linearGradient>
</defs>
</svg>
