<svg width="11" height="24" viewBox="0 0 11 24" fill="none" xmlns="http://www.w3.org/2000/svg">
<path d="M1.70704 21.1814L0.972657 23.1871H9.07999L8.34728 21.1814H1.70704ZM3.72059 14.5652C3.35759 12.2955 2.62544 9.64043 2.62544 9.64043C3.58747 15.5239 2.00292 20.2088 2.00292 20.2088H8.05028C5.2453 9.90666 7.38469 0.614692 7.46691 0.220372C7.001 0.115779 6.04065 0.012305 5.41141 0.00335592C5.34597 8.78411 6.93724 14.5652 6.93724 14.5652H6.29011C4.88174 8.84228 4.74135 1.63992 4.78554 0C3.64397 0.00838979 2.73787 0.192406 2.73787 0.192406L5.64465 14.5652H5.00199C5.00199 14.5652 2.2686 1.0532 2.12038 0.32049C1.03474 0.578336 0.341185 0.907216 0 1.07557C3.09639 6.71743 4.36157 14.5658 4.36157 14.5658H3.72059V14.5652ZM7.18949 11.6501C7.64198 6.28395 9.87702 1.48555 10.0532 1.07557C9.22653 0.651607 8.32211 0.420608 8.01057 0.339507C6.84831 5.71289 7.15369 10.8021 7.18893 11.6501H7.18949Z" fill="white"/>
</svg>
