<svg width="1" height="1" viewBox="0 0 1 1" fill="none" xmlns="http://www.w3.org/2000/svg">
<path d="M0.4251 0.00249863C0.4251 0.00249863 0.421301 0.00439888 0.418201 0.00689888C0.411901 0.0106989 0.403002 0.0176985 0.389702 0.0290985C0.289802 0.121399 0.2189 0.231498 0.1436 0.347898L0.122101 0.380798C0.0854008 0.437698 0.0437008 0.507299 0.000600815 0.584499C8.14791e-07 0.580099 0 0.575 0 0.57C0.0405 0.4985 0.0791011 0.433898 0.113901 0.380798L0.135401 0.347898C0.210701 0.231498 0.2815 0.121399 0.3815 0.0290985C0.3992 0.0125985 0.410601 0.00499863 0.416901 0.00249863C0.418801 0.00189863 0.420701 0.0012 0.421301 0C0.423201 0 0.423901 0 0.423901 0C0.424501 0 0.4245 0.00129863 0.4251 0.00249863Z" fill="url(#paint0_linear_1591_40274)"/>
<defs>
<linearGradient id="paint0_linear_1591_40274" x1="0.0222" y1="0.539599" x2="0.404299" y2="-0.00570068" gradientUnits="userSpaceOnUse">
<stop stop-color="#FD2B7E"/>
<stop offset="0.14" stop-color="#FD3986"/>
<stop offset="0.57" stop-color="#FD619F"/>
<stop offset="1" stop-color="#FD458E"/>
</linearGradient>
</defs>
</svg>
