<svg width="26" height="5" viewBox="0 0 26 5" fill="none" xmlns="http://www.w3.org/2000/svg">
<path d="M14.9095 3.0238H15.8537V3.3528C15.6236 3.6088 15.2567 3.8049 14.8041 3.8049C14.0104 3.8049 13.4133 3.3391 13.4133 2.3746C13.4133 1.41 14.062 0.9442 14.6849 0.9442C15.2484 0.9442 15.6126 1.2123 15.7664 1.7105L16.7776 1.4364C16.5414 0.5773 15.8729 0 14.6986 0C13.4391 0 12.3636 0.9047 12.3636 2.3746C12.3636 3.8444 13.4254 4.7491 14.7107 4.7491C15.7082 4.7491 16.325 4.3563 16.8309 3.7395V2.2043H14.4366L14.9095 3.0238ZM1.03923 0.0945005H0V4.6409H2.67772L3.21765 3.7054H1.03923V0.0945005ZM4.89788 2.8156H6.12881L6.66874 1.8802H4.89788V1.0294H6.46222L7.00215 0.0940008H3.85866V4.6403H6.51385L7.05378 3.7049H4.89733L4.89788 2.8156ZM23.4568 3.7054V2.8156H24.6877L25.2276 1.8802H23.4568V1.0294H25.0211L25.561 0.0940008H22.4176V4.6403H25.0727L25.6127 3.7049L23.4568 3.7054ZM20.483 2.8255C20.483 3.4368 20.171 3.8137 19.5992 3.8137C19.0274 3.8137 18.7154 3.4363 18.7154 2.8255V0.0945005H17.6757V2.8843C17.6757 4.152 18.5529 4.7502 19.5992 4.7502C20.6456 4.7502 21.5228 4.152 21.5228 2.8843V0.0945005H20.483V2.8255ZM9.24208 0.0945005L7.39758 4.6409H8.57308L9.79408 1.4452L10.395 3.0793H9.31298L9.85288 4.0147H10.7526L11.0152 4.6409H12.1906L10.3462 0.0945005H9.24208Z" fill="white"/>
</svg>
