<svg width="5" height="1" viewBox="0 0 5 1" fill="none" xmlns="http://www.w3.org/2000/svg">
<path d="M1.59648 0.0916996C1.96768 0.0354196 2.37688 0.00253 2.82588 0C2.85188 0 2.87838 0 2.90498 0C3.32618 0.00064 3.71198 0.0290895 4.06548 0.0765295C4.08758 0.0796895 4.10978 0.0822196 4.13128 0.0853796C4.18558 0.0929696 4.23878 0.10119 4.29128 0.11004C4.30638 0.11257 4.32158 0.1151 4.33678 0.11827C4.33738 0.11827 4.33808 0.11827 4.33868 0.11827C5.03248 0.30546 5.25378 0.48317 4.52338 0.39969C4.46768 0.38831 4.41138 0.37819 4.35578 0.3687C4.28178 0.35606 4.20778 0.34467 4.13248 0.33392C2.82018 0.15052 1.42198 0.263089 0.239983 0.662149C-0.0636171 0.764599 -0.0807174 0.70642 0.197583 0.54642C0.581483 0.32696 1.10378 0.18404 1.59648 0.0916996Z" fill="url(#paint0_linear_1591_39980)"/>
<defs>
<linearGradient id="paint0_linear_1591_39980" x1="0.000282722" y1="0.35669" x2="4.97548" y2="0.35669" gradientUnits="userSpaceOnUse">
<stop offset="0.16" stop-color="#D4DFF4"/>
<stop offset="0.49" stop-color="#E5EDFA"/>
</linearGradient>
</defs>
</svg>
