<svg width="3" height="1" viewBox="0 0 3 1" fill="none" xmlns="http://www.w3.org/2000/svg">
<path d="M0.00141432 0.1215C-0.0143857 0.119 0.103914 0.0924003 0.270214 0.0620003C0.276614 0.0608003 0.283514 0.0600999 0.290514 0.0588999C0.528414 0.0252999 0.818114 0 1.19961 0C1.42161 0 1.62601 0.00950003 1.81391 0.0253C1.88791 0.0317 2.03531 0.0499998 2.15681 0.0714998C2.10621 0.2354 2.27131 0.5061 2.04231 0.9034C2.03781 0.9028 2.03211 0.9015 2.02461 0.9003C1.95241 0.8864 1.66141 0.8313 1.31921 0.8237C1.29891 0.8237 1.27741 0.8231 1.25651 0.8225C1.23571 0.8218 1.21351 0.8225 1.19071 0.8225C0.701114 0.8225 0.426514 0.8857 0.222214 0.9275C0.200014 0.93 0.201314 0.9104 0.208214 0.9015C0.224714 0.8807 0.241814 0.8693 0.241814 0.8693C0.241814 0.8693 0.225314 0.8649 0.220314 0.8414C0.214614 0.8168 0.239214 0.7883 0.239214 0.7883C0.238614 0.7883 0.228514 0.7864 0.209514 0.7263C0.177914 0.6263 0.139914 0.3682 0.142514 0.2626C0.145014 0.1569 0.202614 0.1057 0.202614 0.1057C0.202614 0.1057 0.0235143 0.126 0.00141432 0.1215Z" fill="url(#paint0_linear_1591_39787)"/>
<defs>
<linearGradient id="paint0_linear_1591_39787" x1="0.000114319" y1="0.4631" x2="2.16821" y2="0.4631" gradientUnits="userSpaceOnUse">
<stop offset="0.16" stop-color="#E9EEF5"/>
<stop offset="0.49" stop-color="#EDF0F6"/>
</linearGradient>
</defs>
</svg>
