<svg width="1" height="3" viewBox="0 0 1 3" fill="none" xmlns="http://www.w3.org/2000/svg">
<path d="M0.8844 2.7969C0.8844 2.7969 0.879401 2.7976 0.876801 2.7976C0.858501 2.6192 0.824301 2.4344 0.775001 2.2465C0.725601 2.0574 0.4574 1.3577 0.3669 1.1559C0.2942 0.994501 0.2056 0.7649 0.1246 0.5884C0.0449004 0.4138 0 0.234701 0 0.135401C0 0.0722008 0.00570019 0 0.0500002 0C0.0513002 0 0.0525006 0 0.0538006 0C0.0139006 0.0051 0.00820065 0.073401 0.00820065 0.134201C0.00820065 0.233501 0.0532002 0.412501 0.1329 0.587101C0.2138 0.763601 0.3024 0.9933 0.3752 1.1546C0.4656 1.3564 0.7339 2.0561 0.7832 2.2453C0.8326 2.4332 0.8667 2.6191 0.8844 2.7969Z" fill="url(#paint0_linear_1591_40121)"/>
<defs>
<linearGradient id="paint0_linear_1591_40121" x1="-0.0051" y1="1.3988" x2="0.8794" y2="1.3988" gradientUnits="userSpaceOnUse">
<stop stop-color="#6476A0"/>
<stop offset="0.01" stop-color="#6879A3"/>
<stop offset="0.03" stop-color="#7485AC"/>
<stop offset="0.04" stop-color="#8999BC"/>
<stop offset="0.05" stop-color="#A6B5D2"/>
<stop offset="0.07" stop-color="#C5D3EA"/>
<stop offset="0.1" stop-color="#C1D0E8"/>
<stop offset="0.33" stop-color="#B2C4E3"/>
<stop offset="0.6" stop-color="#A9BEE0"/>
<stop offset="1" stop-color="#A7BCDF"/>
</linearGradient>
</defs>
</svg>
