<svg width="6" height="1" viewBox="0 0 6 1" fill="none" xmlns="http://www.w3.org/2000/svg">
<path d="M1.59589 0.0916996C1.98349 0.0328896 2.41229 0 2.88469 0C2.91259 0 2.93969 0 2.96759 0C3.41089 0.0038 3.81569 0.0366799 4.18309 0.0929699C4.20589 0.0961299 4.22859 0.0999297 4.25139 0.10372C4.30829 0.11321 4.36459 0.12269 4.41959 0.13281C4.43539 0.13597 4.45119 0.13914 4.46639 0.1423H4.46829C5.33089 0.37629 5.91719 0.70579 4.69659 0.43511C4.63909 0.42246 4.58149 0.410439 4.52329 0.399059C4.45059 0.384519 4.37659 0.37187 4.30319 0.35985C2.94289 0.13597 1.47379 0.246019 0.239894 0.662149C-0.0636065 0.764599 -0.0807067 0.70642 0.197593 0.54642C0.581393 0.32696 1.10319 0.18404 1.59589 0.0916996Z" fill="url(#paint0_linear_1591_39951)"/>
<defs>
<linearGradient id="paint0_linear_1591_39951" x1="-0.000406597" y1="0.35669" x2="5.39159" y2="0.35669" gradientUnits="userSpaceOnUse">
<stop offset="0.16" stop-color="#FEFEFF"/>
<stop offset="0.49" stop-color="#FEFEFF"/>
</linearGradient>
</defs>
</svg>
