<svg width="3" height="4" viewBox="0 0 3 4" fill="none" xmlns="http://www.w3.org/2000/svg">
<path d="M1.8556 2.0908C1.85 2.5803 1.9043 2.9395 1.8272 3.1071C1.6533 3.0862 1.4907 3.0742 1.2548 3.0742C0.8096 3.0742 0.5902 3.109 0.4384 3.1374C0.3075 3.1507 0.267 3.0938 0.2619 3.0204C0.2493 2.8421 0.2708 2.5259 0.2746 2.3286C0.2853 1.7657 0.232199 1.3799 0.1589 0.965099C0.0626995 0.418699 -0.0328003 0.2163 0.0108997 0.1979C0.4283 0.0239998 0.9273 0 1.246 0C1.4863 0 1.7551 0.00189952 2.096 0.0789995C1.9511 1.034 1.8632 1.3351 1.8556 2.0908Z" fill="url(#paint0_linear_1591_39906)"/>
<defs>
<linearGradient id="paint0_linear_1591_39906" x1="-0.000500279" y1="1.5703" x2="2.096" y2="1.5703" gradientUnits="userSpaceOnUse">
<stop offset="0.16" stop-color="#C9D8F1"/>
<stop offset="0.49" stop-color="#DFE9F9"/>
</linearGradient>
</defs>
</svg>
