<svg width="3" height="1" viewBox="0 0 3 1" fill="none" xmlns="http://www.w3.org/2000/svg">
<path d="M0.00141698 0.121467C-0.014399 0.118936 0.103905 0.0923652 0.270289 0.0619985C0.276615 0.0607332 0.283575 0.0601003 0.290534 0.0588351C0.528407 0.0253051 0.818156 0 1.19964 0C1.41094 0 1.60579 0.00822401 1.78926 0.0234074C1.86518 0.0291011 2.00183 0.0461823 2.11886 0.0657941C2.06635 0.221424 2.23021 0.537744 2.00815 0.897083C2.00372 0.896451 1.99803 0.895185 1.99107 0.89392C1.93097 0.882532 1.67032 0.831288 1.31351 0.823697C1.2939 0.823697 1.27366 0.823064 1.25341 0.823064C1.23317 0.823064 1.21166 0.823064 1.19015 0.823064C0.700485 0.823064 0.425918 0.886329 0.221575 0.928083C0.199433 0.930614 0.200699 0.911001 0.207658 0.902144C0.224107 0.881267 0.241188 0.86988 0.241188 0.86988C0.241188 0.86988 0.224739 0.865452 0.219678 0.842044C0.213984 0.817371 0.238025 0.790167 0.238025 0.790167C0.237392 0.790167 0.227902 0.787004 0.208923 0.726903C0.177291 0.626946 0.139333 0.368829 0.141863 0.263179C0.144394 0.157528 0.201964 0.106283 0.201964 0.106283C0.201964 0.106283 0.0229271 0.127161 0.000784685 0.122732L0.00141698 0.121467Z" fill="url(#paint0_linear_3091_43821)"/>
<defs>
<linearGradient id="paint0_linear_3091_43821" x1="0.000151698" y1="0.463093" x2="2.12899" y2="0.463093" gradientUnits="userSpaceOnUse">
<stop offset="0.16" stop-color="#DDE4EF"/>
<stop offset="0.49" stop-color="#E2E8F1"/>
</linearGradient>
</defs>
</svg>
