<svg width="3" height="4" viewBox="0 0 3 4" fill="none" xmlns="http://www.w3.org/2000/svg">
<path d="M1.98276 2.02059C1.95494 2.63467 2.02324 2.93507 1.94355 3.121C1.76521 3.09507 1.54829 3.0742 1.25485 3.0742C0.809621 3.0742 0.590171 3.10898 0.43839 3.13744C0.307479 3.15072 0.267004 3.09381 0.261945 3.02045C0.249296 2.8421 0.270798 2.52589 0.274593 2.32858C0.285344 1.76572 0.232221 1.37994 0.15886 0.965076C0.0627316 0.418664 -0.0327638 0.216288 0.0108733 0.197948C0.428271 0.0240323 0.927252 0 1.24599 0C1.52742 0 1.84742 0.00253023 2.27937 0.129015C2.10798 0.919541 2.01059 1.40777 1.98276 2.02122V2.02059Z" fill="url(#paint0_linear_1587_25561)"/>
<defs>
<linearGradient id="paint0_linear_1587_25561" x1="-0.000510303" y1="1.56967" x2="2.27937" y2="1.56967" gradientUnits="userSpaceOnUse">
<stop offset="0.16" stop-color="#ECF1FA"/>
<stop offset="0.49" stop-color="#F4F7FD"/>
</linearGradient>
</defs>
</svg>
