<svg width="3" height="6" viewBox="0 0 3 6" fill="none" xmlns="http://www.w3.org/2000/svg">
<path d="M2.20943 0.236874C1.93686 0.656802 1.87299 1.22598 1.70666 1.68891C1.39488 2.55343 0.963562 3.29526 0.523397 4.10287C0.381102 4.36342 -0.0343979 5.16217 0.00228254 5.42399C0.0256821 5.59222 0.323554 5.39807 0.406401 5.34494C0.697947 5.15522 0.918028 5.07174 1.10839 4.83205L1.18238 4.72391C1.42776 4.36469 1.68199 3.97701 1.87615 3.61653C1.96279 3.45527 2.0488 3.29084 2.12532 3.12831C2.46493 2.40545 2.68881 1.76038 2.85008 0.915463C2.84944 0.545497 2.65655 -0.452465 2.20943 0.236874ZM2.01971 2.50474C1.92674 2.79881 1.58334 3.44262 1.3114 3.60895C1.2159 3.66776 1.13432 3.66017 1.12483 3.528C1.11218 3.33953 1.54919 2.48197 1.68705 2.19232C1.73259 2.09746 1.9122 1.67184 2.04437 1.78315C2.17465 1.89319 2.06651 2.35549 2.01971 2.50474Z" fill="url(#paint0_linear_3091_44349)"/>
<defs>
<linearGradient id="paint0_linear_3091_44349" x1="1.22792" y1="2.71597" x2="2.12532" y2="3.13463" gradientUnits="userSpaceOnUse">
<stop stop-color="#BE0A46"/>
<stop offset="0.35" stop-color="#C00A47"/>
<stop offset="0.62" stop-color="#CA0B4C"/>
<stop offset="0.85" stop-color="#DA0C55"/>
<stop offset="0.94" stop-color="#E30D5A"/>
</linearGradient>
</defs>
</svg>
