<svg width="3" height="4" viewBox="0 0 3 4" fill="none" xmlns="http://www.w3.org/2000/svg">
<path d="M2.04095 1.98897C1.99857 2.65996 2.07826 2.9338 1.99668 3.12796C1.81707 3.10013 1.57422 3.0742 1.25485 3.0742C0.809621 3.0742 0.590171 3.10898 0.43839 3.13744C0.307479 3.15072 0.267004 3.09381 0.261945 3.02044C0.249296 2.8421 0.270798 2.52589 0.274593 2.32858C0.285344 1.76572 0.232221 1.37994 0.15886 0.965075C0.0627316 0.418663 -0.0327638 0.216288 0.0108733 0.197948C0.428271 0.0240323 0.927252 0 1.24599 0C1.54639 0 1.8898 0.00316207 2.36348 0.151149C2.18008 0.86705 2.07446 1.44066 2.04158 1.98833L2.04095 1.98897Z" fill="url(#paint0_linear_1587_25550)"/>
<defs>
<linearGradient id="paint0_linear_1587_25550" x1="-0.000510303" y1="1.5703" x2="2.36285" y2="1.5703" gradientUnits="userSpaceOnUse">
<stop offset="0.16" stop-color="#FCFDFE"/>
<stop offset="0.49" stop-color="#FDFEFF"/>
</linearGradient>
</defs>
</svg>
