<svg width="2" height="3" viewBox="0 0 2 3" fill="none" xmlns="http://www.w3.org/2000/svg">
<path d="M0.324545 0.625057C0.299872 0.668709 0.257485 0.747158 0.194221 0.800932L0.180303 0.701607C0.213833 0.702872 0.24673 0.662384 0.314422 0.586467C0.381482 0.509917 0.417543 0.422613 0.440318 0.301146C0.442849 0.318227 0.433992 0.37896 0.431461 0.401735C0.420074 0.502958 0.371992 0.542814 0.325177 0.62569L0.324545 0.625057ZM1.34056 0.242311C1.36207 0.235984 1.37156 0.233453 1.38801 0.227127C1.44368 0.1297 1.46266 -0.0695811 1.43673 0.0246822C1.42534 0.0651712 1.4032 0.116415 1.38801 0.164495C1.3665 0.233453 1.34056 0.242311 1.34056 0.242311ZM0.852166 0.284064C0.85786 0.286595 0.877472 0.289758 0.899614 0.292289C0.919226 0.258126 0.961613 0.188536 0.964776 0.15374C0.950225 0.148047 0.942634 0.144884 0.930614 0.136027C0.933145 0.218902 0.852166 0.284064 0.852166 0.284064ZM0.000633258 1.73787C0.0575709 1.87326 0.0461827 1.97827 0.0335298 2.02129C-0.001898 2.1396 0.00949022 2.31294 0.000633258 2.45528C0.0158166 2.44643 0.0379588 2.43314 0.0379588 2.43314C0.0360609 2.40467 0.0499791 2.28131 0.0499791 2.20033C0.0499791 2.11935 0.118937 2.05609 0.0657951 1.87199C0.0556729 1.83593 0 1.73787 0 1.73787H0.000633258ZM0.0708564 1.5038C0.0708564 1.48735 0.0676932 1.41206 0.0689585 1.37727C0.0702238 1.34247 0.0430196 1.29249 0.0366932 1.28427C0.00632652 1.27162 0.02151 1.31147 0.0347954 1.33994C0.0480808 1.36841 0.0246731 1.40384 0.0278363 1.46014C0.0328974 1.53669 0.0873048 1.67334 0.027204 1.74863C0.0411221 1.77203 0.0487141 1.79038 0.0670607 1.8315C0.108182 1.74673 0.0727537 1.59869 0.0702231 1.50443L0.0708564 1.5038ZM0.175242 0.782585C0.165119 0.757279 0.158161 0.764871 0.139182 0.75728C0.120202 0.749688 0.142977 0.83889 0.134753 0.890133C0.130957 0.913541 0.0980591 1.15711 0.0582028 1.17798L0.0854068 1.26592C0.137283 1.20203 0.153732 1.05778 0.158793 0.999581C0.162589 0.961622 0.185364 0.80789 0.175242 0.782585ZM0.45044 0.37643C0.449175 0.395409 0.449175 0.398572 0.449175 0.418817C0.535847 0.415021 0.715516 0.368838 0.797127 0.248636C0.80978 0.23029 0.878105 0.0790895 0.869248 0.00317271C0.837616 0.10566 0.785739 0.244841 0.695904 0.310003C0.635171 0.353655 0.542806 0.394144 0.451073 0.37643H0.45044Z" fill="#6476A0"/>
</svg>
