<svg width="5" height="2" viewBox="0 0 5 2" fill="none" xmlns="http://www.w3.org/2000/svg">
<path d="M4.72254 0.413604C4.58657 0.401588 4.19763 0.319373 4.19574 0.376924C4.19447 0.416766 4.7978 0.539456 4.7023 0.636849C4.57076 0.770922 4.52586 1.03211 4.5208 1.23259C4.51131 1.55765 4.63653 1.62026 4.59037 1.69299C4.56317 1.736 4.35511 1.7107 3.98767 1.67971C3.58229 1.60825 3.13643 1.55007 2.695 1.55007C2.18906 1.55007 1.59648 1.6209 1.1247 1.71702C0.657337 1.81315 0.260176 1.8979 0.224128 1.84288C0.178594 1.77268 0.302549 1.72651 0.293695 1.41409C0.288003 1.22121 0.298121 0.999226 0.167843 0.868947C0.0653904 0.765863 0.592198 0.580563 0.589669 0.52491C0.586507 0.462933 0.308873 0.521748 0.172902 0.533764C0.0970116 0.54072 -0.014294 0.572341 0.0015165 0.507834C0.625716 0.203007 1.68882 0 2.695 0C3.49122 0 4.27352 0.111939 4.92682 0.323167C4.92555 0.366804 4.78768 0.421193 4.72318 0.414869L4.72254 0.413604Z" fill="url(#paint0_linear_1587_25601)"/>
<defs>
<linearGradient id="paint0_linear_1587_25601" x1="-0.000380774" y1="0.929027" x2="4.92618" y2="0.929027" gradientUnits="userSpaceOnUse">
<stop offset="0.16" stop-color="#EFF3FB"/>
<stop offset="0.49" stop-color="#F5F8FD"/>
</linearGradient>
</defs>
</svg>
