<svg width="1" height="3" viewBox="0 0 1 3" fill="none" xmlns="http://www.w3.org/2000/svg">
<path d="M0.496584 2.8241C0.493384 2.8241 0.487683 2.8241 0.487683 2.8241C0.450383 2.3072 0.338383 1.8258 0.264383 1.5082L0.257983 1.4803C0.214383 1.2918 0.151783 1.0312 0.101783 0.8211C0.0663834 0.6744 0.0359832 0.5478 0.0201833 0.4795C-0.0102167 0.3473 -0.00581638 0.172699 0.0302836 0.0732994C0.0365836 0.0555994 0.0574831 0 0.0916831 0L0.0947835 0.000598907L0.0903832 0.00189972C0.0618832 0.0112997 0.0441833 0.0568994 0.0384833 0.0732994C0.00248331 0.172699 -0.00201706 0.3473 0.0283829 0.4795C0.0441829 0.5478 0.0745831 0.6744 0.109983 0.8211C0.160583 1.0312 0.223284 1.2918 0.266284 1.4803L0.272584 1.5082C0.347284 1.8264 0.458584 2.3078 0.496584 2.8241Z" fill="url(#paint0_linear_1591_40108)"/>
<defs>
<linearGradient id="paint0_linear_1591_40108" x1="-0.000116595" y1="1.412" x2="0.496584" y2="1.412" gradientUnits="userSpaceOnUse">
<stop stop-color="#6476A0"/>
<stop offset="0.34" stop-color="#788CB4"/>
<stop offset="1" stop-color="#9DB4DB"/>
</linearGradient>
</defs>
</svg>
