<svg width="7" height="2" viewBox="0 0 7 2" fill="none" xmlns="http://www.w3.org/2000/svg">
<path d="M5.5198 1.4818C5.5413 1.5071 5.5938 1.6481 5.4287 1.6462C5.5723 1.638 5.5236 1.5058 5.5021 1.4818C5.4799 1.4559 5.4452 1.4388 5.3984 1.4331C5.4059 1.4331 5.4123 1.4337 5.4154 1.4344C5.4622 1.4407 5.497 1.4559 5.5198 1.4818ZM5.3699 1.4464C5.3788 1.4432 5.3876 1.4426 5.3971 1.4432C5.3775 1.4407 5.361 1.4432 5.3528 1.4464C5.3282 1.4546 5.3231 1.4723 5.3218 1.5084C5.3212 1.5476 5.3212 1.5843 5.3199 1.6228C5.3244 1.6228 5.3301 1.6241 5.3364 1.6247C5.3376 1.5862 5.3383 1.5469 5.3389 1.5084C5.3402 1.4723 5.3452 1.4546 5.3699 1.4464ZM5.3946 1.8334C5.3946 1.8334 5.3946 1.8277 5.3952 1.8246C5.3332 1.8075 5.3332 1.7746 5.3338 1.7398C5.3345 1.6994 5.3364 1.6374 5.3364 1.6374C5.3282 1.6361 5.3212 1.6355 5.3193 1.6355C5.318 1.6696 5.3174 1.7057 5.3168 1.7398C5.3161 1.7746 5.3193 1.8151 5.3775 1.8315L5.3946 1.8334ZM5.1821 1.8132V1.805C5.1308 1.7898 5.1315 1.7563 5.1321 1.7215C5.1334 1.6494 5.1346 1.5767 5.1365 1.5027C5.1365 1.4673 5.1378 1.4331 5.1903 1.4274V1.4186C5.1846 1.4186 5.1789 1.4173 5.1732 1.4167C5.127 1.4255 5.1201 1.4666 5.1195 1.5027C5.1182 1.576 5.1163 1.6494 5.115 1.7215C5.115 1.7563 5.1176 1.7936 5.165 1.8113L5.1821 1.8132ZM4.9696 1.3971C4.9171 1.4053 4.9158 1.4489 4.9152 1.4831C4.9139 1.5571 4.9127 1.6298 4.9114 1.7019C4.9114 1.7367 4.919 1.7771 4.9633 1.7917C4.9633 1.7917 4.9765 1.793 4.9803 1.793V1.7841C4.9278 1.7696 4.9278 1.7367 4.9285 1.7013C4.9297 1.6292 4.931 1.5564 4.9323 1.4824C4.9329 1.4483 4.9342 1.4135 4.9873 1.4072V1.3983L4.9696 1.3971ZM4.6578 1.4622C4.6578 1.4944 4.6565 1.5254 4.6565 1.5577C4.6622 1.5577 4.6679 1.5583 4.6736 1.559C4.6736 1.5267 4.6749 1.4944 4.6755 1.4616C4.6761 1.4261 4.6768 1.392 4.7305 1.3857C4.7305 1.3825 4.7305 1.3793 4.7312 1.3762C4.7255 1.3762 4.7198 1.3756 4.7141 1.3749C4.666 1.3825 4.6591 1.4267 4.6578 1.4622ZM4.6546 1.681C4.6546 1.7158 4.6572 1.7537 4.7071 1.7708C4.7166 1.7714 4.7229 1.7721 4.7242 1.7721V1.7632C4.6704 1.7493 4.6711 1.7164 4.6711 1.681C4.6711 1.6355 4.673 1.5741 4.673 1.5722C4.6635 1.5716 4.6572 1.571 4.6559 1.571C4.6559 1.6077 4.6552 1.645 4.6546 1.681ZM4.4567 1.3623L4.4649 1.423C4.4693 1.4331 4.4738 1.4464 4.4782 1.4647C4.4813 1.4647 4.4845 1.4647 4.4883 1.4647L4.4725 1.3635L4.4567 1.3623ZM4.3998 1.5109C4.3409 1.4818 4.2941 1.459 4.2973 1.4135C4.2992 1.3711 4.3302 1.3547 4.3637 1.354C4.3637 1.354 4.3643 1.354 4.365 1.354C4.3289 1.3515 4.2847 1.3604 4.2802 1.4135C4.2764 1.459 4.3239 1.4818 4.3827 1.5109C4.4371 1.5375 4.4763 1.5564 4.4946 1.6051C4.5079 1.6399 4.5041 1.7575 4.3909 1.7607C4.5199 1.7632 4.5262 1.6418 4.5123 1.6051C4.494 1.5571 4.4542 1.5375 4.3998 1.5109ZM4.3789 1.7462C4.3789 1.7462 4.3745 1.7462 4.3719 1.7462C4.2891 1.7398 4.2556 1.6437 4.2473 1.6133C4.2442 1.6133 4.2423 1.6133 4.2391 1.6133L4.241 1.6443C4.2821 1.7411 4.3568 1.7474 4.3789 1.7474V1.7462ZM4.1917 1.3477C4.1582 1.3597 4.1462 1.3781 4.1411 1.4122C4.1436 1.423 4.1449 1.4363 4.1449 1.4514C4.1449 1.5185 4.1436 1.5849 4.143 1.6507L3.8989 1.3787C3.8926 1.3718 3.8736 1.3471 3.8666 1.3344C3.8609 1.3344 3.8552 1.3344 3.8496 1.3344C3.8565 1.3471 3.8749 1.3718 3.8818 1.3793L4.1405 1.6684C4.1405 1.6728 4.1405 1.7152 4.1405 1.7474C4.1424 1.7493 4.143 1.7506 4.1436 1.7506C4.1462 1.7506 4.1481 1.7506 4.1519 1.7512C4.1531 1.6532 4.1544 1.5533 4.155 1.4521C4.1569 1.3863 4.1658 1.3699 4.2081 1.3585V1.3496C4.2005 1.3496 4.1892 1.349 4.1917 1.349V1.3477ZM3.8141 1.5956C3.8141 1.6114 3.8141 1.6279 3.8116 1.6424C3.8173 1.6772 3.8356 1.7202 3.8881 1.7297C3.8976 1.7297 3.9039 1.7297 3.9058 1.7297V1.7215C3.8268 1.7006 3.8262 1.6462 3.8262 1.5937C3.8262 1.5292 3.8268 1.4654 3.8274 1.4002C3.8243 1.3971 3.8167 1.3882 3.8154 1.3869C3.8154 1.4571 3.8148 1.5267 3.8141 1.5956ZM3.4929 1.3262C3.3101 1.3262 3.2873 1.7019 3.4922 1.7133C3.4745 1.7101 3.4499 1.7019 3.4328 1.6892C3.3341 1.619 3.3518 1.4205 3.4233 1.3559C3.4435 1.3382 3.467 1.3262 3.4929 1.3262ZM3.5043 1.3161C3.7503 1.3294 3.7598 1.6785 3.5378 1.7259C3.6048 1.7139 3.73 1.669 3.7148 1.5077C3.7047 1.4015 3.6124 1.3167 3.5043 1.3161ZM3.2393 1.3224C3.1893 1.3313 3.1811 1.3756 3.1811 1.4116C3.1811 1.4856 3.1811 1.5583 3.1811 1.6304C3.1811 1.6652 3.1912 1.7076 3.2399 1.7171H3.257V1.7088C3.1982 1.6987 3.1982 1.6652 3.1982 1.6304V1.4116C3.1982 1.3756 3.1982 1.342 3.257 1.3313V1.3224C3.257 1.3224 3.2361 1.3224 3.2393 1.3224ZM2.8529 1.3351C2.8655 1.3313 2.8807 1.3307 2.8933 1.3319C2.8674 1.3281 2.8434 1.3319 2.8352 1.3351C2.7997 1.3465 2.7991 1.3756 2.7985 1.4021C2.7991 1.4413 2.7991 1.4805 2.7991 1.5191C2.7991 1.5191 2.8061 1.5191 2.8162 1.5191V1.4021C2.8162 1.3756 2.8162 1.3465 2.8529 1.3351ZM2.7991 1.5318C2.7991 1.5659 2.7997 1.6001 2.7997 1.6336C2.7997 1.669 2.8061 1.7126 2.8693 1.7196H2.887V1.7107C2.8174 1.7019 2.8168 1.669 2.8168 1.6336C2.8168 1.6001 2.8168 1.5659 2.8162 1.5318H2.7991ZM2.9066 1.3186C2.9528 1.3205 2.9869 1.3363 3.0072 1.3604C3.0382 1.3945 3.0382 1.4495 3.0078 1.4862C2.9812 1.5178 2.9433 1.528 2.8876 1.5305C2.9521 1.5292 2.9958 1.521 3.0249 1.4862C3.0552 1.4495 3.0552 1.3945 3.0249 1.3604C3.0008 1.3338 2.961 1.3199 2.9066 1.3186ZM2.5986 1.6311C2.5942 1.5773 2.5778 1.4704 2.5714 1.4167C2.5689 1.3926 2.5651 1.3477 2.6265 1.3376V1.3288C2.6265 1.3288 2.6119 1.3288 2.6087 1.3288C2.5632 1.3376 2.5499 1.38 2.5537 1.4097C2.5607 1.4647 2.5746 1.5754 2.5809 1.6304C2.5891 1.7025 2.6214 1.7164 2.6435 1.7228C2.6492 1.7228 2.6511 1.7228 2.6606 1.7228V1.7139C2.6353 1.7101 2.6043 1.7044 2.5986 1.6311ZM2.1894 1.3933C2.1793 1.5166 2.1736 1.5906 2.166 1.638C2.1679 1.6937 2.2008 1.7316 2.2394 1.7367C2.2451 1.7367 2.2508 1.7367 2.2565 1.736V1.7278C2.1958 1.7152 2.1781 1.6854 2.1838 1.6045L2.1989 1.4072C2.1989 1.4072 2.1977 1.4046 2.1894 1.3933ZM2.2508 1.3414L2.2489 1.3452C2.235 1.3762 2.3779 1.6342 2.3811 1.6399C2.3691 1.6684 2.3653 1.6779 2.3545 1.7031C2.3583 1.7101 2.3602 1.7139 2.3602 1.7145H2.3665C2.4064 1.6197 2.4595 1.4944 2.4993 1.399C2.4968 1.3775 2.4962 1.3749 2.4949 1.3661C2.4962 1.3768 2.4911 1.3888 2.4835 1.4084L2.3906 1.6285C2.2546 1.3705 2.254 1.3705 2.2653 1.3452L2.2672 1.3414H2.2508ZM1.7461 1.6203C1.7335 1.6513 1.724 1.6734 1.7234 1.6753C1.7126 1.7152 1.7341 1.7582 1.7803 1.762C1.7853 1.762 1.7885 1.762 1.7973 1.7607V1.7518C1.7297 1.7417 1.7278 1.7063 1.7468 1.6557L1.7626 1.6184C1.7569 1.6184 1.7512 1.6196 1.7461 1.6203ZM1.7512 1.6077C1.7512 1.6077 1.7588 1.6077 1.767 1.6064L1.8315 1.4439L1.8252 1.4306C1.8106 1.4647 1.7765 1.5476 1.7512 1.6077ZM2.0219 1.6924C2.0219 1.6924 1.9175 1.471 1.8644 1.3547C1.8619 1.3547 1.8593 1.3547 1.8568 1.3547C1.8568 1.3559 1.8536 1.3616 1.8524 1.3661C1.9055 1.4818 2.0054 1.6924 2.0054 1.6924C2.02 1.7196 2.0339 1.7379 2.063 1.7449C2.068 1.7449 2.0706 1.7449 2.08 1.7443V1.736C2.0509 1.7303 2.0364 1.7196 2.0219 1.6924ZM1.5716 1.6873C1.5703 1.6152 1.569 1.5425 1.5678 1.4685C1.5671 1.4344 1.5671 1.399 1.6215 1.3838V1.3749C1.6215 1.3749 1.6133 1.3756 1.6038 1.3762C1.557 1.3888 1.5501 1.4344 1.5507 1.4685C1.552 1.5425 1.5532 1.6152 1.5545 1.6873C1.5551 1.7209 1.5596 1.7607 1.6108 1.7714C1.6165 1.7714 1.619 1.7714 1.6279 1.7702V1.7613C1.5735 1.7556 1.5722 1.7209 1.5716 1.6873ZM1.2958 1.602C1.2965 1.6386 1.2971 1.6734 1.2977 1.7095C1.2984 1.743 1.3015 1.7803 1.3521 1.793C1.3547 1.793 1.3616 1.7923 1.3692 1.7917V1.7828C1.3161 1.7778 1.3154 1.7436 1.3148 1.7101C1.3148 1.6741 1.3135 1.6374 1.3123 1.6013L1.2958 1.602ZM1.3129 1.5874L1.311 1.4907C1.311 1.4546 1.311 1.4211 1.3629 1.4053V1.3964C1.3629 1.3964 1.3547 1.3971 1.3452 1.3983C1.3034 1.4116 1.2939 1.4552 1.2939 1.4907C1.2939 1.5229 1.2952 1.5571 1.2958 1.5893L1.3129 1.5874ZM1.1017 1.7651C1.0618 1.8119 1.0106 1.8309 0.9638 1.8322C0.9651 1.8322 0.9663 1.8322 0.967 1.8322C1.0378 1.8347 1.1219 1.8012 1.1643 1.6835C1.1605 1.6835 1.1567 1.6842 1.1535 1.6842C1.1251 1.7449 1.101 1.7664 1.1017 1.7651ZM0.9973 1.8075C0.9436 1.8056 0.894301 1.7645 0.873401 1.7038C0.822201 1.5596 0.925201 1.4413 0.999901 1.4306C1.0005 1.4306 1.0018 1.4306 1.0024 1.4306C0.9063 1.4369 0.801901 1.5495 0.8557 1.7044C0.879101 1.7714 0.9373 1.8113 0.9973 1.8075ZM1.1169 1.4944C1.1257 1.5071 1.1308 1.5178 1.1333 1.5223C1.1371 1.5223 1.139 1.5216 1.1422 1.5216L1.1086 1.4205C1.1029 1.4217 1.0973 1.4217 1.0916 1.4224L1.1169 1.4944ZM6.4305 1.2016C6.4305 1.2016 6.426 1.201 6.4235 1.2004C6.4191 1.2067 6.4102 1.2174 6.4102 1.2174L6.3824 1.3104C6.3919 1.3117 6.3976 1.3129 6.3988 1.3129L6.4305 1.2016ZM6.2287 0.9879C6.2262 1.06 6.2243 1.1321 6.2218 1.2042C6.2205 1.2516 6.2249 1.2731 6.2698 1.2807C6.2875 1.2839 6.3034 1.2845 6.3185 1.2813C6.3141 1.2813 6.3103 1.282 6.3059 1.2813C6.2774 1.2801 6.2376 1.2706 6.2388 1.2054C6.2407 1.134 6.2433 1.0593 6.2458 0.9872C6.2471 0.9525 6.2483 0.9196 6.3002 0.917C6.3002 0.9145 6.3002 0.911401 6.3008 0.908201C6.2958 0.907601 6.2907 0.906301 6.2856 0.905701C6.235 0.916401 6.23 0.9532 6.2287 0.9879ZM5.977 1.2307C5.9296 1.2231 5.9252 1.201 5.9258 1.1548C5.9283 1.0834 5.9302 1.0113 5.9321 0.938601C5.9334 0.903801 5.9346 0.870901 5.989 0.867701V0.859501C5.984 0.858901 5.9789 0.858201 5.9739 0.857601C5.9258 0.862701 5.9163 0.904401 5.915 0.939201C5.9131 1.0119 5.9112 1.084 5.9087 1.1555C5.9075 1.2016 5.9125 1.225 5.9599 1.2314C5.9701 1.2326 5.9852 1.2358 6.0048 1.2326C5.9941 1.2339 5.9839 1.2326 5.977 1.2307ZM6.1048 1.1656L6.0769 1.2598L6.0934 1.2624L6.1263 1.1504C6.1263 1.1504 6.1212 1.1504 6.1187 1.1491L6.1048 1.1656ZM5.7437 1.1593C5.7437 1.1593 5.6589 0.9265 5.6146 0.8032C5.6121 0.8032 5.6102 0.803201 5.6077 0.802601C5.6077 0.803201 5.6052 0.808301 5.602 0.815901C5.6633 0.986601 5.7266 1.1599 5.7272 1.1599C5.7392 1.1896 5.7475 1.2061 5.7753 1.2174C5.7848 1.2187 5.7911 1.2193 5.7924 1.2193C5.793 1.2168 5.793 1.2137 5.793 1.2111C5.7683 1.2016 5.7557 1.189 5.7437 1.1593ZM5.4989 1.0416C5.4894 1.0619 5.4812 1.0783 5.4742 1.0922C5.4591 1.1378 5.4793 1.1744 5.5223 1.1871C5.5318 1.1884 5.5375 1.189 5.5394 1.189C5.5394 1.1858 5.5394 1.1833 5.54 1.1801C5.4856 1.1612 5.473 1.1327 5.4964 1.0777L5.5122 1.0429C5.5052 1.0423 5.5002 1.0416 5.4989 1.0416ZM5.504 1.0303C5.5084 1.0303 5.5128 1.0315 5.5173 1.0315L5.5811 0.8848L5.5761 0.870901C5.5761 0.870901 5.521 0.9929 5.504 1.0303ZM5.2725 0.9512C5.2864 0.9544 5.3168 0.961901 5.3421 0.986601C5.3965 1.0391 5.3819 1.1245 5.3313 1.1491C5.313 1.1586 5.2946 1.1624 5.2769 1.1631C5.3003 1.1643 5.3244 1.1618 5.349 1.1491C5.399 1.1245 5.4135 1.0391 5.3591 0.986601C5.3338 0.961901 5.3041 0.9544 5.2896 0.9512C5.404 0.9284 5.3832 0.8209 5.3206 0.7817C5.2921 0.764 5.2611 0.760202 5.2497 0.758902C5.2459 0.758902 5.2346 0.7583 5.22 0.7577C5.2295 0.7577 5.2731 0.7621 5.3035 0.7817C5.3661 0.8209 5.3863 0.9284 5.2725 0.9512ZM5.1498 0.9468C5.1492 0.9866 5.1479 1.029 5.1473 1.0688C5.1454 1.151 5.2289 1.1435 5.2346 1.1428C5.1814 1.1365 5.165 1.1194 5.1644 1.0688C5.1637 1.0144 5.1669 0.9582 5.1669 0.9487L5.1498 0.9468ZM5.1523 0.8323C5.1517 0.8671 5.1511 0.9006 5.1498 0.9354C5.1561 0.9354 5.1618 0.936701 5.1675 0.936701C5.1682 0.901901 5.1688 0.865801 5.1694 0.831001C5.1707 0.788001 5.1903 0.769701 5.2086 0.767801C5.1884 0.765301 5.153 0.776601 5.1517 0.831001L5.1523 0.8323ZM4.7406 0.730501C4.7406 0.730501 4.685 0.7197 4.6483 0.795L4.6458 0.8197C4.6489 0.8197 4.6527 0.819701 4.6553 0.820301C4.6761 0.758901 4.7096 0.733601 4.7406 0.730501ZM5.0075 0.7393L5.0119 0.818401C5.0119 0.818401 5.0195 0.838001 5.0227 0.849401C5.0252 0.849401 5.0284 0.849401 5.0309 0.849401L5.0246 0.740601L5.0075 0.7393ZM4.8564 0.804501C4.8551 0.882301 4.8538 0.9594 4.8526 1.0359C4.8526 1.0701 4.8576 1.1118 4.9171 1.1276C4.9152 1.1276 4.9335 1.1289 4.9348 1.1289V1.1201C4.869 1.1061 4.869 1.0701 4.8697 1.0359C4.8709 0.9594 4.8722 0.882301 4.8734 0.804501C4.8747 0.764001 4.8937 0.745001 4.9114 0.743101C4.8836 0.739301 4.8576 0.752601 4.8564 0.804501ZM3.4884 0.8475C3.4884 0.888 3.4884 0.9278 3.4884 0.9676C3.4884 1.0012 3.4941 1.0442 3.5586 1.0549H3.5757V1.0467C3.5055 1.0372 3.5055 1.0024 3.5055 0.9683C3.5055 0.9284 3.5055 0.888601 3.5062 0.848101L3.4884 0.8475ZM3.6282 0.9284H3.6371C3.6371 0.8778 3.6377 0.827201 3.6377 0.776701H3.6295C3.6269 0.786801 3.6238 0.795001 3.62 0.801901C3.62 0.834201 3.62 0.8652 3.62 0.8974C3.6225 0.9044 3.6238 0.9081 3.6282 0.9284ZM3.5605 0.678001C3.5068 0.678001 3.4903 0.6925 3.4891 0.7393C3.4891 0.7716 3.4891 0.8045 3.4891 0.8367C3.4967 0.8367 3.5017 0.8367 3.5068 0.8367V0.7393C3.5087 0.6906 3.5346 0.676701 3.5865 0.678001C3.5789 0.678001 3.5636 0.678001 3.5605 0.678001ZM3.6921 0.670401L3.7003 0.752001C3.7041 0.759601 3.7073 0.767801 3.7111 0.776701H3.7205L3.7098 0.670401C3.7041 0.670401 3.6978 0.670401 3.6921 0.670401ZM3.0812 0.9771C3.0812 0.9828 3.0812 1.0252 3.0812 1.0574C3.085 1.0619 3.0875 1.0638 3.0875 1.0638H3.0963V0.765301C3.097 0.700101 3.1065 0.683101 3.1501 0.671001V0.662201C3.1501 0.662201 3.1324 0.662201 3.133 0.662201C3.1008 0.669101 3.0856 0.693801 3.0812 0.731701C3.0805 0.728601 3.085 0.7551 3.085 0.7665C3.085 0.8329 3.0856 0.8987 3.0856 0.9638L2.8326 0.706501C2.8149 0.685801 2.8042 0.6721 2.8004 0.6653H2.7833C2.789 0.6755 2.7896 0.676101 2.8155 0.706501L3.0812 0.9771ZM2.7498 0.7204C2.7498 0.7893 2.7498 0.857601 2.7504 0.925901C2.7504 0.940401 2.7485 0.970801 2.7485 0.970201C2.7548 1.0081 2.7808 1.0511 2.8282 1.0562C2.832 1.0562 2.8345 1.0562 2.844 1.0562V1.048C2.7694 1.034 2.7631 0.987901 2.7612 0.924601C2.7612 0.860801 2.7612 0.796301 2.7605 0.731701L2.7498 0.7204ZM2.321 0.927801C2.3134 0.944201 2.3008 0.971401 2.2982 0.976501C2.2812 1.0271 2.3071 1.0625 2.3539 1.0707C2.3596 1.0707 2.3653 1.0707 2.3716 1.0707V1.0619C2.3102 1.0511 2.2957 1.0239 2.3197 0.9657L2.3362 0.9284L2.321 0.927801ZM2.4304 0.679901C2.481 0.788001 2.586 1.0075 2.586 1.0075C2.6012 1.0353 2.6106 1.0524 2.6448 1.0606H2.6619V1.0518C2.6328 1.0461 2.6182 1.0353 2.6037 1.0075C2.6037 1.0075 2.4974 0.7849 2.4431 0.6691H2.4355L2.4304 0.679901ZM2.4019 0.7444C2.3703 0.8171 2.3457 0.872801 2.3267 0.915201H2.3406L2.4083 0.7577L2.4019 0.7444ZM2.1642 0.794401C2.1642 0.794401 2.1698 0.794401 2.173 0.794401L2.1616 0.688101C2.1616 0.688101 2.1547 0.6881 2.1445 0.6887L2.1528 0.767801C2.1566 0.775401 2.1604 0.784201 2.1642 0.794401ZM2.087 0.944201C2.087 0.944201 2.0933 0.944201 2.0965 0.944201C2.0959 0.896201 2.0952 0.8481 2.0952 0.7994C2.0914 0.7994 2.0883 0.7994 2.0857 0.7994C2.0838 0.8089 2.0813 0.8171 2.0781 0.8241C2.0781 0.855101 2.0781 0.8861 2.0788 0.917C2.0819 0.9246 2.0845 0.933501 2.087 0.944201ZM1.9422 1.0043C1.9441 1.0606 1.9548 1.072 2.0041 1.0707H2.0054C1.9732 1.0695 1.9605 1.0543 1.9586 1.0043C1.9586 0.963201 1.9586 0.922101 1.9574 0.881001C1.9504 0.881001 1.9441 0.881601 1.9403 0.882301C1.9403 0.923401 1.9422 0.963801 1.9422 1.0043ZM2.1781 1.0777L2.2103 0.960701C2.2065 0.960701 2.2034 0.9607 2.2002 0.9613C2.1983 0.9645 2.1945 0.9702 2.1888 0.9771L2.1604 1.0783L2.1781 1.0777ZM1.9396 0.771601C1.9396 0.804501 1.9403 0.8374 1.9409 0.8696C1.9441 0.8696 1.9504 0.869601 1.958 0.869001C1.958 0.864601 1.9561 0.813301 1.9567 0.771601C1.9567 0.726101 1.9719 0.710201 2.0193 0.705801C2.0143 0.705801 2.0098 0.705801 2.0079 0.705801C1.9561 0.709601 1.9403 0.724201 1.9396 0.771601ZM1.6886 0.7052C1.822 0.7147 1.8543 0.8968 1.65 0.9177C1.6525 0.9177 1.6544 0.9177 1.657 0.9177C1.8821 0.9019 1.8385 0.6989 1.6886 0.7052ZM1.6083 0.7248C1.5785 0.7374 1.5741 0.7551 1.5747 0.7931C1.5754 0.8323 1.5754 0.872101 1.576 0.910101C1.5817 0.910101 1.5893 0.9095 1.5937 0.9088C1.5937 0.9088 1.5931 0.8506 1.5918 0.7931C1.5918 0.7551 1.5975 0.7368 1.6253 0.7248C1.6317 0.7223 1.6468 0.7185 1.6639 0.7197C1.638 0.7166 1.6139 0.7223 1.6083 0.7248ZM1.5766 0.922701C1.5773 0.956301 1.5773 0.989101 1.5779 1.0227C1.5779 1.0568 1.5899 1.1036 1.6443 1.1061C1.6506 1.1061 1.6563 1.1055 1.6626 1.1049V1.096C1.5969 1.0922 1.5962 1.0568 1.595 1.0227C1.595 0.989101 1.5943 0.955001 1.5937 0.921501L1.5766 0.922701ZM1.2358 1.1321C1.2307 1.1321 1.2263 1.1321 1.2212 1.1314C1.0764 1.1201 1.0821 0.8677 1.1554 0.7868C1.1668 0.7741 1.1814 0.764601 1.1972 0.758301C1.1769 0.765301 1.1573 0.7773 1.1396 0.795C1.058 0.8785 1.0599 1.1321 1.2155 1.1321C1.2155 1.1321 1.2231 1.1333 1.2358 1.1321ZM1.4103 0.9069C1.4255 1.0366 1.3211 1.1416 1.2105 1.1479C1.3268 1.1529 1.4438 1.0435 1.4274 0.9069C1.416 0.807 1.3344 0.7349 1.2389 0.7381C1.3262 0.7438 1.3996 0.8127 1.4103 0.9069ZM0.7349 0.980301C0.7349 0.980301 0.743701 0.979001 0.752001 0.978401C0.751301 0.945501 0.7507 0.9126 0.7494 0.8797C0.7494 0.85 0.7488 0.826601 0.7798 0.810801C0.788 0.807001 0.808201 0.802601 0.822801 0.804501C0.803201 0.800701 0.781 0.802601 0.7621 0.810801C0.7311 0.825301 0.732401 0.85 0.732401 0.8797C0.733601 0.9126 0.7342 0.947401 0.7349 0.980301ZM0.843 0.9727C0.8848 0.9866 0.903101 1.0043 0.942901 1.0663C0.988501 1.1378 1.01 1.1624 1.0403 1.1713C1.0435 1.1713 1.046 1.1713 1.0543 1.1706V1.1631C1.0245 1.1542 1.0062 1.1384 0.96 1.0663C0.9202 1.0043 0.901801 0.9866 0.860101 0.9727C0.994801 0.9423 0.958801 0.8348 0.917001 0.8076C0.890501 0.7899 0.856901 0.7887 0.835401 0.7899C0.855701 0.7906 0.8797 0.7944 0.8999 0.8076C0.9417 0.8348 0.9777 0.9423 0.843 0.9727ZM0.810801 1.1763C0.757001 1.1744 0.7564 1.1409 0.7551 1.1055C0.7545 1.0669 0.753201 1.0284 0.752601 0.989801C0.746301 0.990401 0.7431 0.991 0.7349 0.9923C0.7361 1.0309 0.736801 1.0669 0.738001 1.1055C0.739301 1.1409 0.750101 1.1827 0.795601 1.1865C0.793701 1.1865 0.803801 1.1852 0.810801 1.1846V1.1763ZM0.3807 0.8538C0.3365 0.8702 0.330101 0.909501 0.331401 0.945501C0.332701 0.998001 0.3346 1.0499 0.3358 1.1017V1.1118C0.3371 1.1314 0.3384 1.1725 0.3662 1.1985C0.382 1.213 0.4098 1.2225 0.4383 1.22C0.4206 1.2193 0.402201 1.2149 0.383301 1.1985C0.354801 1.1738 0.354201 1.1314 0.352901 1.1118C0.352901 1.1118 0.3497 1.0125 0.3485 0.945501C0.3478 0.908801 0.3472 0.8778 0.3984 0.8601V0.851301L0.3807 0.8538ZM0.397201 1.2459C0.454101 1.2503 0.5047 1.2193 0.5255 1.1966C0.5673 1.151 0.5667 1.0973 0.566 1.0619C0.5648 1.0157 0.563501 0.969501 0.562201 0.923401C0.561601 0.870201 0.5723 0.849401 0.6071 0.832901C0.6071 0.829801 0.606501 0.8272 0.606501 0.8241C0.602701 0.8241 0.5957 0.8253 0.5894 0.826C0.5603 0.838 0.5508 0.861402 0.5471 0.893002C0.5534 0.915202 0.554001 1.0132 0.555301 1.0631C0.557201 1.1422 0.531201 1.1858 0.498401 1.2061C0.498401 1.2061 0.460401 1.2427 0.402901 1.2459M0.0715008 0.912601C0.0797008 0.911401 0.0917005 0.9088 0.105 0.9088C0.0942005 0.9082 0.0816004 0.9088 0.0677004 0.9107C0.0632004 0.9114 0.0588004 0.912001 0.0544004 0.912601C0.0127004 0.920801 0 0.9373 0 0.9841C0.0013 1.0163 0.00190053 1.0518 0.00320053 1.0834C0.00890053 1.0827 0.0202007 1.0808 0.0202007 1.0808C0.0196007 1.0555 0.0183002 1.0163 0.0177002 0.9841C0.0171002 0.9373 0.0380008 0.918301 0.0715008 0.912601ZM0.1954 0.989101L0.184 0.8848C0.1783 0.8854 0.172701 0.886701 0.167001 0.8873L0.1752 0.9582C0.1796 0.967 0.184 0.978401 0.1878 0.991001C0.1904 0.991001 0.1935 0.989701 0.1954 0.989101ZM0.205501 1.2693L0.230201 1.151C0.230201 1.151 0.2245 1.1517 0.222 1.1517C0.2169 1.1599 0.2125 1.1669 0.2081 1.1738L0.1891 1.2718L0.205501 1.2693ZM0.135301 1.1441C0.134101 1.0967 0.1322 1.0486 0.1309 1.0012C0.129 1.0012 0.126501 1.0012 0.124001 1.0018C0.122701 1.0151 0.115701 1.0353 0.116401 1.0353C0.117001 1.0606 0.1164 1.0859 0.1176 1.1112C0.1176 1.1112 0.125901 1.1302 0.128401 1.146C0.130301 1.146 0.132801 1.1441 0.135301 1.1441ZM3.6712 0.401001V0.392101C3.6092 0.377601 3.5953 0.349101 3.62 0.290901L3.6371 0.254301C3.6282 0.254301 3.6231 0.254301 3.6219 0.254301C3.6175 0.263101 3.608 0.2815 3.5997 0.2985C3.5789 0.3517 3.6042 0.394701 3.6541 0.401001H3.6712ZM3.8711 0.3251L3.8837 0.352301C3.8983 0.381401 3.9046 0.401001 3.94 0.409201C3.9501 0.409201 3.9564 0.409201 3.9577 0.409201V0.4004C3.9077 0.3871 3.8995 0.347901 3.8881 0.324501C3.8502 0.245401 3.8053 0.1341 3.7458 0H3.7389C3.7389 0 3.737 0.00510022 3.7338 0.0114002C3.7749 0.105 3.8274 0.2252 3.8673 0.3169L3.8711 0.3251ZM3.6276 0.2416C3.632 0.2416 3.6371 0.2416 3.6421 0.2416L3.7111 0.0867004L3.7054 0.0740013C3.6775 0.135401 3.6409 0.2157 3.6276 0.2416ZM3.4796 0.2372C3.4828 0.246 3.4853 0.2562 3.4872 0.2682H3.4967C3.4967 0.2176 3.4967 0.166401 3.4967 0.115801H3.4878C3.4853 0.125301 3.4828 0.1335 3.479 0.1404C3.479 0.1721 3.4796 0.2056 3.4796 0.2372ZM3.4353 0.3883C3.3664 0.3776 3.3658 0.344101 3.3658 0.309301V0.187201C3.3601 0.187201 3.3544 0.187201 3.3487 0.187201C3.3487 0.227701 3.3487 0.268801 3.3487 0.309301C3.3487 0.344701 3.3588 0.390902 3.4176 0.397202H3.4353V0.3883ZM3.3487 0.0791016C3.3487 0.111302 3.3487 0.1442 3.3487 0.1765C3.355 0.1765 3.3556 0.1765 3.3658 0.1765C3.3658 0.1442 3.3658 0.111302 3.3658 0.0791016C3.367 0.0424016 3.3885 0.024701 3.4126 0.019001C3.3847 0.023401 3.3487 0.0374016 3.3487 0.0791016ZM3.5504 0.00830078L3.5586 0.0879002C3.5631 0.0968002 3.5662 0.106301 3.5694 0.115801H3.5789L3.5675 0.0089016L3.5504 0.00830078ZM3.1634 0.0854015C3.1634 0.0854015 3.171 0.1025 3.1748 0.1126H3.1836L3.1722 0.00510025C3.1722 0.00510025 3.1659 0.00510025 3.1552 0.00510025L3.1634 0.0854015ZM3.0862 0.231501C3.0862 0.231501 3.0919 0.248601 3.0944 0.260601H3.1039C3.1039 0.211901 3.1039 0.163201 3.1033 0.115101H3.0944C3.0925 0.128401 3.0881 0.137902 3.0862 0.143002C3.0862 0.172702 3.0862 0.202401 3.0862 0.231501ZM2.9452 0.1898C2.9452 0.2315 2.9452 0.269401 2.9452 0.311201C2.9452 0.351001 2.9591 0.382001 3.0097 0.383301C3.0135 0.383301 3.023 0.383301 3.0325 0.383301C2.9964 0.380801 2.9623 0.3681 2.9623 0.3144C2.9623 0.2726 2.9623 0.2309 2.9616 0.1891C2.9559 0.1891 2.9565 0.1898 2.9452 0.1898ZM3.016 0.0171013C2.9629 0.0184013 2.9465 0.0336005 2.9452 0.0804005C2.9452 0.1132 2.9452 0.1455 2.9452 0.1784C2.9528 0.1784 2.9623 0.1784 2.9623 0.1784V0.0804005C2.9635 0.0336005 2.9964 0.0190013 3.0325 0.0171013C3.0369 0.0171013 3.0407 0.0171013 3.0445 0.0171013C3.035 0.0171013 3.0249 0.0171013 3.016 0.0171013ZM3.1659 0.399101C3.1779 0.399101 3.1849 0.399101 3.1849 0.399101L3.2197 0.282101H3.2095C3.2058 0.287201 3.202 0.2922 3.1982 0.2973L3.1684 0.3997C3.1684 0.3997 3.1672 0.399101 3.1659 0.399101ZM2.7865 0.00760078C2.7593 0.0152008 2.739 0.0437008 2.734 0.0778008C2.7359 0.0860007 2.7371 0.0949014 2.7371 0.105001C2.7371 0.149901 2.7371 0.200501 2.7378 0.245401C2.739 0.322601 2.7112 0.364301 2.6745 0.383301C2.6334 0.409801 2.5967 0.4174 2.5683 0.4174C2.5683 0.4174 2.5695 0.4174 2.5702 0.4174C2.6378 0.4212 2.6884 0.392801 2.7131 0.364901C2.7491 0.324501 2.7498 0.280201 2.7498 0.244801C2.7498 0.198001 2.7498 0.1512 2.7498 0.1038C2.751 0.0499998 2.7637 0.0298005 2.8048 0.0165005V0.00760078H2.7865ZM2.4823 0.1031C2.4823 0.1714 2.4829 0.2688 2.4829 0.2726C2.4835 0.3036 2.4873 0.335201 2.512 0.361101C2.5316 0.381401 2.5619 0.3947 2.6056 0.3953C2.5746 0.3921 2.5461 0.378901 2.5291 0.361101C2.5044 0.335201 2.5006 0.3036 2.5 0.2726C2.5 0.2726 2.4993 0.1714 2.4993 0.1031C2.4993 0.0689998 2.4993 0.0336015 2.56 0.0215015V0.012701C2.5563 0.012701 2.5512 0.0126999 2.543 0.0132999C2.488 0.0240999 2.4823 0.0689998 2.4823 0.1031ZM4.1512 0.881001C4.15 0.979701 4.0785 1.0537 4.0001 1.0726C4.057 1.0612 4.1613 1.0208 4.1651 0.885401C4.1683 0.762101 4.0772 0.6723 3.9653 0.6653C4.0639 0.671 4.1525 0.769101 4.1512 0.881001ZM3.8869 0.702702C3.9058 0.687502 3.9267 0.678001 3.9495 0.676701C3.9198 0.676701 3.8875 0.689401 3.8641 0.710201C3.8281 0.741901 3.8078 0.8051 3.8078 0.8734C3.8078 1.0113 3.8818 1.0486 3.9261 1.0581C3.7914 1.0214 3.8059 0.769102 3.8869 0.702702ZM0.0247002 1.2149C0.0228002 1.1738 0.0221007 1.1333 0.0209007 1.0922L0.00380039 1.0948C0.00510039 1.1359 0.00510078 1.1738 0.00760078 1.2143C0.0101008 1.263 0.0202003 1.2813 0.0557003 1.2763C0.0411003 1.2737 0.0266002 1.2617 0.0247002 1.2149ZM4.284 1.0043C4.3068 1.0492 4.3479 1.0676 4.3789 1.0758C4.3789 1.0758 4.3776 1.0758 4.377 1.0752C4.2448 1.0366 4.2594 0.788001 4.3397 0.721001C4.358 0.706501 4.3783 0.697001 4.4004 0.695101C4.3707 0.695101 4.3403 0.7096 4.3182 0.7299C4.2505 0.7855 4.2417 0.920101 4.284 1.0043ZM4.4478 0.688101C4.4478 0.688101 4.4421 0.686801 4.439 0.686201C4.4573 0.690001 4.4725 0.696301 4.4839 0.701401C4.6704 0.786801 4.6306 1.0821 4.4143 1.0954C4.4308 1.0954 4.6097 1.0821 4.6179 0.903801C4.623 0.791801 4.5459 0.707101 4.4478 0.688101Z" fill="#2B4688"/>
</svg>
