<svg width="2" height="1" viewBox="0 0 2 1" fill="none" xmlns="http://www.w3.org/2000/svg">
<path d="M1.8462 0.862921C1.84113 0.862288 1.83671 0.861656 1.83101 0.861023C1.83101 0.861023 1.69563 0.821799 1.19078 0.821799C0.685934 0.821799 0.426551 0.885063 0.222209 0.926817C0.200066 0.929348 0.201332 0.909736 0.208291 0.900879C0.224739 0.880002 0.24182 0.868615 0.24182 0.868615C0.24182 0.868615 0.225372 0.864186 0.220311 0.840778C0.214617 0.816105 0.236127 0.792698 0.236127 0.792698C0.235494 0.792698 0.228535 0.785739 0.209556 0.725638C0.177924 0.625681 0.139965 0.367564 0.142495 0.261913C0.145659 0.154364 0.202597 0.105018 0.202597 0.105018C0.202597 0.105018 0.0235594 0.125895 0.00141698 0.121467C-0.014399 0.118936 0.103905 0.0910999 0.270289 0.0619985C0.276615 0.0607332 0.282942 0.0601003 0.290534 0.0588351C0.528407 0.0253051 0.818156 0 1.19964 0C1.44131 0 1.66653 0.00569353 1.93666 0.0373255C1.87593 0.150568 2.03346 0.688312 1.8462 0.862921Z" fill="url(#paint0_linear_3091_43845)"/>
<defs>
<linearGradient id="paint0_linear_3091_43845" x1="-0.000480942" y1="0.463092" x2="1.94109" y2="0.463092" gradientUnits="userSpaceOnUse">
<stop offset="0.16" stop-color="#A2B7D3"/>
<stop offset="0.49" stop-color="#B1C0D9"/>
</linearGradient>
</defs>
</svg>
