<svg width="46" height="6" viewBox="0 0 46 6" fill="none" xmlns="http://www.w3.org/2000/svg">
<path d="M15.5905 1.00118V5.08925H16.7282V3.0908H17.7277C18.2193 3.0908 18.6176 2.69201 18.6176 2.20092V2.06669H16.7282V1.58008C16.7282 1.33454 16.9273 1.13486 17.1734 1.13486H19.0326V0.110748H16.481C15.9893 0.110748 15.5911 0.509541 15.5911 1.00118H15.5905ZM7.43958 0C5.97584 0 5.03115 0.987198 5.03115 2.60028C5.03115 4.21335 5.97584 5.20055 7.43958 5.20055C8.90332 5.20055 9.84801 4.21279 9.84801 2.60028C9.84801 0.987757 8.90276 0 7.43958 0ZM7.43958 4.17756C6.72924 4.17756 6.16769 3.66634 6.16769 2.60028C6.16769 1.53421 6.72868 1.023 7.43958 1.023C8.15047 1.023 8.71147 1.53421 8.71147 2.60028C8.71147 3.66634 8.15047 4.17756 7.43958 4.17756ZM13.5473 3.20826L11.9611 0.621406C11.767 0.304832 11.4219 0.111304 11.0505 0.111304H10.418V5.08981H11.5556V1.99286L13.1939 4.66528C13.3555 4.92928 13.643 5.09037 13.9529 5.09037H14.685V0.111864H13.5473V3.20881V3.20826ZM35.5141 3.20826L33.9278 0.621406C33.7337 0.304832 33.3886 0.111304 33.0173 0.111304H32.3847V5.08981H33.5223V1.99286L35.1606 4.66528C35.3222 4.92928 35.6097 5.09037 35.9196 5.09037H36.6517V0.111864H35.5141V3.20881V3.20826ZM2.42919 1.03754C2.82911 1.03754 3.12946 1.20589 3.31124 1.5275C3.43205 1.74116 3.67592 1.85359 3.91642 1.80604L4.60327 1.67013C4.39744 0.604627 3.58027 0.000559866 2.43647 0.000559866C1.03705 0.000559866 -0.000488281 0.988317 -0.000488281 2.60083C-0.000488281 4.21335 1.02251 5.20111 2.40794 5.20111C3.55175 5.20111 4.36891 4.53328 4.60327 3.42527L4.17819 3.34193C3.83085 3.2737 3.47177 3.41464 3.27545 3.70885C3.09255 3.98291 2.80618 4.16413 2.40794 4.16413C1.69033 4.16413 1.15003 3.60314 1.15003 2.60139C1.15003 1.59965 1.7183 1.03866 2.42864 1.03866L2.42919 1.03754ZM39.7078 1.03754C40.1077 1.03754 40.4081 1.20589 40.5899 1.5275C40.7107 1.74116 40.9546 1.85359 41.1951 1.80604L41.8819 1.67013C41.6761 0.604627 40.8589 0.000559866 39.7151 0.000559866C38.3157 0.000559866 37.2781 0.988317 37.2781 2.60083C37.2781 4.21335 38.3011 5.20111 39.6866 5.20111C40.8304 5.20111 41.6475 4.53328 41.8819 3.42527L41.4568 3.34193C41.1095 3.2737 40.7504 3.41464 40.5541 3.70885C40.3712 3.98291 40.0848 4.16413 39.6866 4.16413C38.969 4.16413 38.4287 3.60314 38.4287 2.60139C38.4287 1.59965 38.9969 1.03866 39.7073 1.03866L39.7078 1.03754ZM26.4922 3.55503C26.9369 3.35592 27.593 2.91573 27.593 1.90393C27.593 1.19695 27.2775 0.769624 27.013 0.535829C26.7076 0.265678 26.3065 0.110748 25.9122 0.110748H23.5608V5.08925H24.6985V1.2305H25.8361C25.8361 1.2305 25.9173 1.22883 25.9698 1.23889C26.1158 1.26574 26.4357 1.38208 26.4357 1.87987C26.4357 2.24175 26.2954 2.39557 25.8093 2.56448C25.4972 2.67355 25.274 2.94649 25.2237 3.29607C25.1851 3.56566 25.2668 3.83861 25.4295 4.05674L26.1964 5.08925H27.6165L26.4883 3.57014C26.4844 3.56454 26.4861 3.55727 26.4922 3.55447V3.55503ZM20.4566 3.13387V3.09136H21.6854C22.1771 3.09136 22.5753 2.69257 22.5753 2.20148V2.06725H20.4561C20.4561 1.55267 20.8733 1.13542 21.3879 1.13542H22.7605V0.111304H21.2503C20.1831 0.111304 19.3184 0.976014 19.3184 2.0432V3.15792C19.3184 4.2251 20.1831 5.08981 21.2503 5.08981H22.8175V4.06569H21.3879C20.8733 4.06569 20.4561 3.64844 20.4561 3.13387H20.4566ZM29.2346 3.13387V3.09136H30.4634C30.955 3.09136 31.3533 2.69257 31.3533 2.20148V2.06725H29.234C29.234 1.55267 29.6513 1.13542 30.1658 1.13542H31.5384V0.111304H30.0282C28.9611 0.111304 28.0964 0.976014 28.0964 2.0432V3.15792C28.0964 4.2251 28.9611 5.08981 30.0282 5.08981H31.5955V4.06569H30.1658C29.6513 4.06569 29.234 3.64844 29.234 3.13387H29.2346ZM44.3899 4.06513C43.8753 4.06513 43.4581 3.64788 43.4581 3.13331V3.0908H44.6869C45.1785 3.0908 45.5768 2.69201 45.5768 2.20092V2.06669H43.4575C43.4575 1.55211 43.8748 1.13486 44.3893 1.13486H45.7619V0.110748H44.2517C43.1846 0.110748 42.3199 0.975454 42.3199 2.04264V3.15736C42.3199 4.22454 43.1846 5.08925 44.2517 5.08925H45.819V4.06513H44.3893H44.3899Z" fill="white"/>
</svg>
