<svg width="2" height="1" viewBox="0 0 2 1" fill="none" xmlns="http://www.w3.org/2000/svg">
<path d="M0.00141432 0.1215C-0.0143857 0.119 0.103914 0.0918003 0.270214 0.0620003C0.276614 0.0608003 0.282914 0.0600999 0.290514 0.0588999C0.528414 0.0252999 0.818114 0 1.19961 0C1.37361 0 1.53741 0.00449966 1.70571 0.0158997C1.78791 0.0214997 1.88981 0.0316999 1.98981 0.0455999C1.93161 0.1708 2.09041 0.6441 1.89301 0.8724C1.88791 0.8718 1.88351 0.8712 1.87721 0.8705C1.85941 0.8674 1.70001 0.8282 1.29581 0.8225C1.27931 0.8225 1.26221 0.8225 1.24451 0.8225C1.22681 0.8225 1.20841 0.8225 1.18951 0.8225C0.699814 0.8225 0.425214 0.8857 0.220914 0.9275C0.198814 0.93 0.200014 0.9104 0.207014 0.9015C0.223414 0.8807 0.240514 0.8693 0.240514 0.8693C0.240514 0.8693 0.224114 0.8649 0.219014 0.8414C0.213314 0.8168 0.235414 0.7921 0.235414 0.7921C0.235414 0.7921 0.227214 0.7864 0.208214 0.7263C0.176614 0.6263 0.138714 0.3682 0.141214 0.2626C0.143714 0.1569 0.201314 0.1057 0.201314 0.1057C0.201314 0.1057 0.0222145 0.1266 0.000114464 0.1221L0.00141432 0.1215Z" fill="url(#paint0_linear_1591_39809)"/>
<defs>
<linearGradient id="paint0_linear_1591_39809" x1="0.000114319" y1="0.4631" x2="1.99611" y2="0.4631" gradientUnits="userSpaceOnUse">
<stop offset="0.16" stop-color="#B3C4DB"/>
<stop offset="0.49" stop-color="#BFCCE0"/>
</linearGradient>
</defs>
</svg>
