<svg width="3" height="4" viewBox="0 0 3 4" fill="none" xmlns="http://www.w3.org/2000/svg">
<path d="M2.04664 1.9858C2.00363 2.66186 2.08332 2.93317 2.00174 3.12859C1.8215 3.10013 1.57675 3.0742 1.25485 3.0742C0.809621 3.0742 0.590171 3.10898 0.43839 3.13744C0.307479 3.15072 0.267003 3.09381 0.261944 3.02045C0.249295 2.8421 0.270798 2.52589 0.274593 2.32858C0.285344 1.76572 0.232221 1.37994 0.15886 0.965076C0.0627316 0.418664 -0.0327638 0.216288 0.0108733 0.197948C0.428271 0.0240323 0.927252 0 1.24599 0C1.54766 0 1.89359 0.0031626 2.37107 0.153679C2.18704 0.862623 2.08079 1.44445 2.04664 1.9858Z" fill="url(#paint0_linear_3091_43905)"/>
<defs>
<linearGradient id="paint0_linear_3091_43905" x1="0.000122118" y1="1.56967" x2="2.37107" y2="1.56967" gradientUnits="userSpaceOnUse">
<stop offset="0.16" stop-color="#FEFEFF"/>
<stop offset="0.49" stop-color="#FEFEFF"/>
</linearGradient>
</defs>
</svg>
