<svg width="4" height="3" viewBox="0 0 4 3" fill="none" xmlns="http://www.w3.org/2000/svg">
<path d="M3.06424 2.26533C3.06298 2.24952 2.99341 2.23498 2.96369 2.22929C2.96685 2.22929 3.14014 2.24573 3.23373 2.26407C3.36338 2.28936 3.45192 2.3153 3.49619 2.34123C3.41714 2.34123 3.12053 2.34122 3.00416 2.33933C3.04085 2.30707 3.06488 2.27861 3.06424 2.26533ZM0.965871 2.26533C0.967136 2.24952 1.04113 2.23561 1.07085 2.22992C1.06769 2.22992 0.897569 2.23498 0.747053 2.26407C0.617406 2.28936 0.528868 2.3153 0.484598 2.34123C0.563651 2.34123 0.910218 2.34122 1.02658 2.33933C1.02658 2.33933 0.96587 2.27861 0.966503 2.26533H0.965871ZM2.85681 0.906894L2.91246 0.945471C2.91246 0.945471 3.25207 0.923969 3.36401 0.922705C3.47595 0.92144 3.7909 0.920173 3.8845 0.916378C3.97809 0.912584 3.96924 0.812662 3.91359 0.80697C3.85793 0.801279 3.43548 0.770291 3.33429 0.768394L2.85681 0.906894ZM0.686973 0.767761C0.585785 0.769658 0.0975561 0.801912 0.041903 0.807603C-0.0137501 0.813295 -0.023236 0.913217 0.0709948 0.917011C0.164593 0.920806 0.479539 0.922073 0.591477 0.923338C0.703416 0.924602 1.04366 0.945471 1.04366 0.945471L1.09868 0.906894L0.686973 0.767761ZM1.18532 0.115101C1.21947 0.0645075 1.22643 0 1.18026 0C1.10121 0 0.685708 0.0411078 0.59464 0.0537562C0.503571 0.0664046 0.536457 0.124588 0.57377 0.147355C0.611083 0.170122 0.967136 0.180874 1.09172 0.183404C1.09172 0.183404 1.15244 0.16443 1.18532 0.115101ZM2.76701 0.0904377C2.76701 0.0904377 2.72716 0.00632406 2.80685 0.00379437C2.90045 0.000632267 3.26725 0.037947 3.36022 0.0531251C3.45318 0.0683032 3.4184 0.123955 3.38109 0.146722C3.34378 0.169489 2.98772 0.180241 2.86314 0.182771L2.76701 0.0904377Z" fill="#8399B8"/>
</svg>
