<svg width="6" height="1" viewBox="0 0 6 1" fill="none" xmlns="http://www.w3.org/2000/svg">
<path d="M1.59585 0.0917009C1.97214 0.034783 2.38764 0.00189726 2.84362 0C2.87018 0 2.89674 0 2.92394 0C3.35209 0.00189726 3.74356 0.0316206 4.10151 0.0815819C4.12364 0.084744 4.14578 0.0879067 4.16791 0.0910688C4.22293 0.0992903 4.27732 0.108144 4.33044 0.11763C4.34562 0.12016 4.36143 0.123323 4.37598 0.125852C4.37661 0.125852 4.37724 0.125852 4.37787 0.125852C5.1235 0.327595 5.45868 0.552104 4.57582 0.411074C4.51954 0.399058 4.46325 0.388306 4.40696 0.378188C4.3336 0.364907 4.25898 0.352891 4.18499 0.34214C2.85753 0.146722 1.43711 0.258028 0.239941 0.662145C-0.0636215 0.764598 -0.0806968 0.706415 0.197569 0.546412C0.581448 0.326962 1.1032 0.184034 1.59585 0.0917009Z" fill="url(#paint0_linear_1587_25654)"/>
<defs>
<linearGradient id="paint0_linear_1587_25654" x1="-0.000379343" y1="0.356686" x2="5.10389" y2="0.356686" gradientUnits="userSpaceOnUse">
<stop offset="0.16" stop-color="#E1E9F7"/>
<stop offset="0.49" stop-color="#EDF2FC"/>
</linearGradient>
</defs>
</svg>
