<svg width="6" height="1" viewBox="0 0 6 1" fill="none" xmlns="http://www.w3.org/2000/svg">
<path d="M1.59648 0.0917009C1.9791 0.0335181 2.40156 0.000632421 2.86702 0C2.89421 0 2.92141 0 2.9486 0C3.38497 0.00252969 3.78403 0.0341507 4.14704 0.0879065C4.16981 0.0910686 4.19194 0.0948634 4.21471 0.0980255C4.271 0.106879 4.32602 0.115733 4.3804 0.125852C4.39621 0.129014 4.41139 0.131544 4.42657 0.134706C4.4272 0.134706 4.42784 0.134706 4.42847 0.134706C5.2386 0.354156 5.71165 0.636215 4.64286 0.424354C4.58594 0.411706 4.52902 0.400323 4.47147 0.389572C4.39811 0.375659 4.32412 0.36301 4.25013 0.351626C2.90433 0.140397 1.45735 0.251071 0.239941 0.662145C-0.0636216 0.764598 -0.0806968 0.706415 0.197569 0.546412C0.581448 0.326962 1.1032 0.184034 1.59585 0.0917009H1.59648Z" fill="url(#paint0_linear_1587_25643)"/>
<defs>
<linearGradient id="paint0_linear_1587_25643" x1="0.000253079" y1="0.356686" x2="5.26263" y2="0.356686" gradientUnits="userSpaceOnUse">
<stop offset="0.16" stop-color="#F1F4FB"/>
<stop offset="0.49" stop-color="#F6F9FD"/>
</linearGradient>
</defs>
</svg>
