<svg width="3" height="4" viewBox="0 0 3 4" fill="none" xmlns="http://www.w3.org/2000/svg">
<path d="M1.8607 2.0876C1.8544 2.5822 1.9088 2.9389 1.8323 3.1071C1.6577 3.0856 1.4933 3.0742 1.2548 3.0742C0.8096 3.0742 0.5902 3.109 0.4384 3.1374C0.3075 3.1507 0.267 3.0938 0.2619 3.0204C0.2493 2.8421 0.2708 2.5259 0.2746 2.3286C0.2853 1.7657 0.232199 1.3799 0.1589 0.965099C0.0626995 0.418699 -0.0328003 0.2163 0.0108997 0.1979C0.4283 0.0239998 0.9273 0 1.246 0C1.4876 0 1.7589 0.00189923 2.1036 0.0815992C1.9575 1.0296 1.8696 1.3382 1.8607 2.0876Z" fill="url(#paint0_linear_1591_39905)"/>
<defs>
<linearGradient id="paint0_linear_1591_39905" x1="-0.000500279" y1="1.5697" x2="2.1036" y2="1.5697" gradientUnits="userSpaceOnUse">
<stop offset="0.16" stop-color="#CBD9F2"/>
<stop offset="0.49" stop-color="#E0E9F9"/>
</linearGradient>
</defs>
</svg>
