<svg width="2" height="3" viewBox="0 0 2 3" fill="none" xmlns="http://www.w3.org/2000/svg">
<path d="M1.3425 2.7204C1.3425 2.7204 1.3368 2.721 1.3343 2.721C1.2564 2.237 1.066 1.8303 0.918 1.512C0.8756 1.4209 0.560499 0.7737 0.335299 0.3916C0.255599 0.2562 0.1449 0.1025 0.0410995 0.0228004C0.0227995 0.00890045 0.0095 0.0026 0 0.000699997L0.00319958 0C0.0132996 0 0.0278994 0.00640045 0.0493994 0.0228004C0.153099 0.1025 0.2638 0.2562 0.3435 0.3916C0.5688 0.7737 0.8838 1.4209 0.9262 1.512C1.0742 1.8303 1.2647 2.2364 1.3425 2.7204Z" fill="url(#paint0_linear_1591_40104)"/>
<defs>
<linearGradient id="paint0_linear_1591_40104" x1="0.508" y1="1.3602" x2="1.0591" y2="1.3602" gradientUnits="userSpaceOnUse">
<stop stop-color="#6476A0"/>
<stop offset="0.4" stop-color="#7E93BB"/>
<stop offset="0.75" stop-color="#8FA5CC"/>
<stop offset="1" stop-color="#95ACD2"/>
</linearGradient>
</defs>
</svg>
