<svg width="3" height="3" viewBox="0 0 3 3" fill="none" xmlns="http://www.w3.org/2000/svg">
<path d="M1.16192 0C0.867746 0 0.579894 0.105018 0.35594 0.294811C0.0345586 0.568111 -0.0837453 1.02361 0.0611292 1.4285C0.217391 1.86376 0.627975 2.13073 1.15876 2.14212C0.627975 2.13073 0.229412 1.86376 0.0731495 1.4285C-0.0723577 1.02361 0.0459463 0.568111 0.36796 0.294811C0.590017 0.106284 0.870276 0.00126528 1.16192 0ZM2.23994 1.1242C2.22855 1.65182 1.75534 2.06051 1.19166 2.05798C1.75028 2.05482 2.21653 1.64803 2.22792 1.1242C2.24184 0.489032 1.72181 0.0885707 1.16888 0.0841422C1.72624 0.0835096 2.25386 0.484604 2.23994 1.1242Z" fill="white"/>
</svg>
