<svg width="32" height="6" viewBox="0 0 32 6" fill="none" xmlns="http://www.w3.org/2000/svg">
<path d="M17.7948 0C16.2481 0 15.2495 1.04362 15.2495 2.74802C15.2495 4.45242 16.2481 5.49602 17.7948 5.49602C19.3416 5.49602 20.3402 4.45242 20.3402 2.74802C20.3402 1.04362 19.3416 0 17.7948 0ZM17.7948 4.41502C17.044 4.41502 16.4508 3.87462 16.4508 2.74802C16.4508 1.62142 17.044 1.08097 17.7948 1.08097C18.5457 1.08097 19.1389 1.62142 19.1389 2.74802C19.1389 3.87462 18.5457 4.41502 17.7948 4.41502ZM1.19907 3.26542H2.61949L3.24291 2.18612H1.19907V1.20401H3.00453L3.62796 0.12468H0V5.37192H3.0644L3.68783 4.29262H1.19907V3.26542ZM7.82661 3.27582C7.82661 3.98112 7.46628 4.41612 6.80661 4.41612C6.14693 4.41612 5.7866 3.98112 5.7866 3.27582V0.12468H4.58644V3.34342C4.58644 4.80612 5.59875 5.49602 6.80661 5.49602C8.01446 5.49602 9.02677 4.80612 9.02677 3.34342V0.12468H7.82661V3.27582ZM14.3102 1.58632C14.1861 0.73108 13.5083 0.12413 12.3114 0.12413H10.2275V5.37132H11.4271V1.20346H12.1862C12.3153 1.20346 12.5224 1.22158 12.6415 1.27212C13.5121 1.63902 13.198 2.86612 11.8649 2.90622L13.1211 5.37082H14.4701L13.4781 3.38022C14.0598 2.97052 14.4437 2.50472 14.3097 1.58522L14.3102 1.58632ZM25.6209 1.58632C25.4803 0.73383 24.819 0.12413 23.6221 0.12413H21.5381V5.37132H22.7378V1.20346H23.4969C23.6259 1.20346 23.833 1.22158 23.9522 1.27212C24.8228 1.63902 24.5086 2.86612 23.1755 2.90622L23.7105 3.86912C25.1271 3.68182 25.8126 2.74802 25.6209 1.58632ZM29.011 0.12468H27.7367L25.6077 5.37192H26.9644L28.3739 1.68412L29.0676 3.57032H27.8185L28.4414 4.64962H29.4795L29.7827 5.37192H31.1394L29.011 0.12468Z" fill="white"/>
</svg>
