<svg width="1" height="3" viewBox="0 0 1 3" fill="none" xmlns="http://www.w3.org/2000/svg">
<path d="M0.399196 0.798393C0.377053 0.899616 0.344156 1.01602 0.320748 1.11534L0.315687 1.13939C0.0765488 2.17122 0.016448 2.62293 0.00822367 2.82031H0C0.00885696 2.62293 0.0689578 2.17122 0.307463 1.14002L0.312523 1.11598C0.335931 1.01665 0.368828 0.898982 0.391603 0.799025C0.452337 0.531418 0.521295 0.335932 0.478276 0.134753C0.460562 0.0544074 0.433359 0.00696028 0.402359 0.00126652H0.401726C0.401726 0.00126652 0.399828 0.00126652 0.399196 0.00126652C0.401094 0.00126652 0.402992 0 0.404257 0C0.405522 0 0.40742 1.23565e-06 0.408685 0.00126652C0.440317 0.00442972 0.468153 0.0531421 0.486499 0.134753C0.529519 0.335932 0.457399 0.530785 0.399196 0.799025V0.798393Z" fill="url(#paint0_linear_1587_25846)"/>
<defs>
<linearGradient id="paint0_linear_1587_25846" x1="0" y1="1.40952" x2="0.499785" y2="1.40952" gradientUnits="userSpaceOnUse">
<stop stop-color="#C6D4EA"/>
<stop offset="0.61" stop-color="#9DB4DB"/>
<stop offset="0.69" stop-color="#8FA5CC"/>
<stop offset="0.89" stop-color="#6F82AC"/>
<stop offset="1" stop-color="#6476A0"/>
</linearGradient>
</defs>
</svg>
