<svg width="3" height="3" viewBox="0 0 3 3" fill="none" xmlns="http://www.w3.org/2000/svg">
<path d="M0.0351525 2.7621C0.0281525 2.7786 0.0117526 2.7925 0.00855262 2.7552C-0.00724738 2.5692 -0.0129467 2.3066 0.100353 2.0738C0.130653 2.0966 0.199652 2.1655 0.226852 2.2041C0.165452 2.3534 0.0889525 2.5495 0.0351525 2.7621ZM2.10135 1.5601C2.17155 1.388 2.15575 1.0888 2.01845 0.972401C1.89825 0.870501 2.00645 1.1755 2.02295 1.252C2.03995 1.3298 2.05955 1.4456 2.05955 1.4456C2.05955 1.4456 2.08495 1.4285 2.09185 1.4323C2.10195 1.4791 2.10135 1.5601 2.10135 1.5601ZM2.24745 0C2.24745 0.0955 2.23545 0.169601 2.23045 0.268201C2.35445 0.389101 2.48285 0.638301 2.48285 0.638301C2.48855 0.436501 2.38285 0.1474 2.24745 0ZM2.26715 1.4032C2.41895 1.0084 2.30885 0.639 2.09625 0.4264V0.459901C2.28735 0.716201 2.35695 0.9426 2.26715 1.4032Z" fill="#AE0A3F"/>
</svg>
