<svg width="7" height="16" viewBox="0 0 7 16" fill="none" xmlns="http://www.w3.org/2000/svg">
<path d="M5.21023 11.7577C4.67078 12.9397 4.65939 14.6307 4.6284 15.5503C4.4216 15.5497 4.10729 15.5471 3.79108 15.5433C3.47613 15.5395 2.77478 15.549 2.71154 15.5465C2.61857 15.5427 2.60529 15.5212 2.5996 15.4731C2.58505 15.353 2.66031 13.7624 1.93998 12.1833C1.49033 11.198 0.951507 10.5232 0.528417 9.1565C-0.126772 7.04106 -0.0325408 3.02012 0.0382904 2.32952C0.122402 1.50231 0.278611 0.399366 2.71343 0.0426802C3.07075 -0.00981081 3.83661 -0.0477563 4.50382 0.00789679C4.57022 0.0173831 4.63157 0.028767 4.68848 0.040783C6.43017 0.354464 6.4346 2.25489 6.48709 2.84115C6.65911 4.7675 6.51682 8.89342 5.2096 11.7577H5.21023Z" fill="url(#paint0_linear_1587_25531)"/>
<defs>
<linearGradient id="paint0_linear_1587_25531" x1="-0.0116709" y1="7.76518" x2="6.54654" y2="7.76518" gradientUnits="userSpaceOnUse">
<stop offset="0.16" stop-color="#DBE5F6"/>
<stop offset="0.52" stop-color="#E9F0FB"/>
</linearGradient>
</defs>
</svg>
