<svg width="8" height="16" viewBox="0 0 8 16" fill="none" xmlns="http://www.w3.org/2000/svg">
<mask id="mask0_1591_39867" style="mask-type:luminance" maskUnits="userSpaceOnUse" x="0" y="0" width="8" height="16">
<path d="M7.24186 9.15266C6.82006 10.5156 6.25777 11.1885 5.80937 12.1713C4.99237 13.9617 5.08406 15.3277 5.06946 15.4523C5.06376 15.5003 5.04856 15.525 4.95566 15.5288C4.89306 15.5313 4.34476 15.5288 3.79256 15.5225C3.47826 15.5187 2.77886 15.5282 2.71626 15.5256C2.62326 15.5218 2.60996 15.5003 2.60426 15.4523C2.59036 15.3328 2.66496 13.7466 1.94656 12.1713C1.49816 11.1885 0.960664 10.5156 0.538764 9.15266C-0.114536 7.04296 -0.0209362 3.03336 0.0499638 2.34466C0.134064 1.52066 0.290264 0.420258 2.71816 0.0641582C3.15516 0.000258163 4.18726 -0.0427416 4.95756 0.0692584C7.17356 0.392358 7.62006 1.26446 7.73066 2.34466C7.82116 3.22626 7.86666 7.13466 7.24186 9.15266Z" fill="white"/>
</mask>
<g mask="url(#mask0_1591_39867)">
<path d="M7.25012 9.15634C6.82702 10.5229 6.26352 11.1977 5.81392 12.1831C4.99492 13.9785 5.08662 15.3483 5.07202 15.4729C5.06642 15.521 5.05122 15.5463 4.95762 15.5501C4.89502 15.5526 4.34542 15.5501 3.79142 15.5437C3.47642 15.5399 2.77452 15.5494 2.71182 15.5469C2.61892 15.5431 2.60562 15.5216 2.59992 15.4735C2.58602 15.354 2.66132 13.7628 1.94032 12.1837C1.49062 11.1984 0.951818 10.5236 0.528718 9.15694C-0.125782 7.04154 -0.0321819 3.02124 0.0386181 2.32994C0.123318 1.50344 0.279618 0.399836 2.71372 0.0431364C3.15202 -0.0213636 4.18732 -0.0643644 4.95952 0.0481355C7.18182 0.371936 7.62962 1.24664 7.74022 2.32994C7.83072 3.21344 7.87622 7.13264 7.25012 9.15634Z" fill="white"/>
<path d="M7.06703 5.30674C6.81653 8.79014 6.19303 10.2833 5.45813 11.8934C4.93383 13.0419 4.86813 14.6495 4.83713 15.5513C4.63343 15.5513 4.21353 15.5488 3.79103 15.5437C3.47613 15.5399 2.77473 15.5494 2.71153 15.5469C2.61853 15.5431 2.60533 15.5216 2.59963 15.4735C2.58503 15.3534 2.66033 13.7628 1.93993 12.1837C1.49033 11.1984 0.95153 10.5236 0.52843 9.15694C-0.12677 7.04154 -0.0325695 3.02054 0.0383305 2.32994C0.12243 1.50274 0.278631 0.399836 2.71343 0.0431364C3.15173 -0.0213636 4.18693 -0.0643644 4.95983 0.0481355C5.15203 0.0760355 5.33163 0.108236 5.49733 0.144336C7.61853 0.605937 7.12643 4.48144 7.06703 5.30674Z" fill="white"/>
<path d="M5.44785 11.8878C4.92295 13.0375 4.85975 14.6483 4.82875 15.5514C4.62515 15.5514 4.20965 15.5489 3.79155 15.5438C3.47665 15.54 2.77525 15.5495 2.71205 15.547C2.61905 15.5432 2.60575 15.5217 2.60005 15.4736C2.58555 15.3534 2.66085 13.7629 1.94045 12.1837C1.49085 11.1984 0.952048 10.5236 0.528948 9.15704C-0.126252 7.04154 -0.0320518 3.02064 0.0387482 2.33004C0.122948 1.50284 0.279149 0.399844 2.71395 0.0432444C3.14905 -0.0213556 4.17355 -0.0636562 4.94195 0.0463438C5.12915 0.0735438 5.30375 0.105145 5.46565 0.139945C7.57155 0.595345 7.09855 4.39234 7.04415 5.20814C6.80885 8.62954 6.20545 10.2277 5.44785 11.8878Z" fill="url(#paint0_linear_1591_39867)"/>
<path d="M5.43793 11.8825C4.91233 13.0335 4.85103 14.648 4.82003 15.5511C4.61643 15.5511 4.20463 15.5486 3.79103 15.5435C3.47613 15.5398 2.77473 15.5492 2.71153 15.5467C2.61853 15.5429 2.60533 15.5214 2.59963 15.4733C2.58503 15.3532 2.66033 13.7626 1.93993 12.1835C1.49033 11.1982 0.95153 10.5234 0.52843 9.15673C-0.12677 7.04133 -0.0325695 3.02033 0.0383305 2.32973C0.12243 1.50253 0.278631 0.399631 2.71343 0.0429309C3.14533 -0.0209691 4.15913 -0.0632694 4.92313 0.0448306C5.10523 0.0714306 5.27533 0.101731 5.43283 0.135931C7.52363 0.585531 7.07203 4.30353 7.02083 5.10993C6.80773 8.46933 6.21893 10.1718 5.43793 11.8825Z" fill="url(#paint1_linear_1591_39867)"/>
<path d="M5.42825 11.8767C4.90215 13.029 4.84325 14.6467 4.81235 15.5511C4.60805 15.5511 4.20135 15.5486 3.79155 15.5435C3.47665 15.5397 2.77525 15.5492 2.71205 15.5467C2.61905 15.5429 2.60575 15.5214 2.60005 15.4733C2.58555 15.3532 2.66085 13.7626 1.94045 12.1835C1.49085 11.1981 0.952048 10.5233 0.528948 9.15666C-0.126252 7.04116 -0.0320518 3.02026 0.0387482 2.32966C0.122948 1.50246 0.279149 0.399459 2.71395 0.0428585C3.14275 -0.0204415 4.14575 -0.0628415 4.90525 0.0428585C5.08235 0.0687585 5.24745 0.0984595 5.40045 0.13136C7.47605 0.57536 7.04475 4.21426 6.99735 5.01046C6.80315 8.30796 6.23205 10.1161 5.42825 11.8767Z" fill="url(#paint2_linear_1591_39867)"/>
<path d="M5.41833 11.8714C4.89153 13.025 4.83453 14.6465 4.80353 15.5509C4.59933 15.5509 4.19643 15.5483 3.79103 15.5433C3.47613 15.5395 2.77473 15.549 2.71153 15.5464C2.61853 15.5426 2.60533 15.5211 2.59963 15.4731C2.58503 15.3529 2.66033 13.7624 1.93993 12.1832C1.49033 11.1979 0.95153 10.5231 0.52843 9.15635C-0.12677 7.04095 -0.0325695 3.02005 0.0383305 2.32945C0.12243 1.50215 0.278631 0.399253 2.71343 0.0425534C3.13843 -0.0200466 4.13133 -0.0624463 4.88703 0.0413537C5.05903 0.0659537 5.21973 0.0950542 5.36833 0.127354C7.42873 0.564954 7.01703 4.12545 6.97473 4.91225C6.79883 8.14765 6.24493 10.0608 5.41833 11.8714Z" fill="url(#paint3_linear_1591_39867)"/>
<path d="M5.40813 11.8656C4.88073 13.021 4.82633 14.6451 4.79533 15.5507C4.59113 15.5507 4.19263 15.5482 3.79103 15.5431C3.47613 15.5393 2.77473 15.5488 2.71153 15.5463C2.61853 15.5425 2.60533 15.521 2.59963 15.4729C2.58503 15.3528 2.66033 13.7622 1.93993 12.1831C1.49033 11.1978 0.95153 10.523 0.52843 9.15627C-0.12677 7.04087 -0.0325695 3.01987 0.0383305 2.32927C0.12243 1.50207 0.278631 0.399171 2.71343 0.0424712C3.13523 -0.0195288 4.11673 -0.0619293 4.86873 0.0392707C5.03563 0.0633707 5.19123 0.0917706 5.33603 0.122771C7.38133 0.554771 6.98983 4.03617 6.95133 4.81347C6.79383 7.98697 6.25743 10.0044 5.40813 11.8656Z" fill="url(#paint4_linear_1591_39867)"/>
<path d="M5.39855 11.8605C4.87045 13.0172 4.81805 14.6451 4.78705 15.5507C4.58275 15.5507 4.18815 15.5482 3.79155 15.5431C3.47665 15.5393 2.77525 15.5488 2.71205 15.5463C2.61905 15.5425 2.60575 15.521 2.60005 15.4729C2.58555 15.3527 2.66085 13.7622 1.94045 12.1831C1.49085 11.1977 0.952048 10.5229 0.528948 9.15626C-0.126252 7.04076 -0.0320518 3.01986 0.0387482 2.32926C0.122948 1.50206 0.279149 0.399058 2.71395 0.0424585C3.13255 -0.0195415 4.10335 -0.0613429 4.85085 0.0379571C5.01275 0.0613571 5.16395 0.0885584 5.30375 0.118958C7.33375 0.545158 6.96255 3.94766 6.92835 4.71476C6.78925 7.82626 6.27075 9.94926 5.39855 11.8605Z" fill="url(#paint5_linear_1591_39867)"/>
<path d="M5.38845 11.8546C4.85975 13.0126 4.80975 14.6436 4.77875 15.5505C4.57455 15.5505 4.18435 15.548 3.79155 15.5429C3.47665 15.5391 2.77525 15.5486 2.71205 15.5461C2.61905 15.5423 2.60575 15.5208 2.60005 15.4727C2.58555 15.3525 2.66085 13.762 1.94045 12.1828C1.49085 11.1975 0.952048 10.5227 0.528948 9.15613C-0.126252 7.04063 -0.0320518 3.01973 0.0387482 2.32913C0.122948 1.50193 0.279149 0.398935 2.71395 0.0422347C3.12945 -0.0190653 4.08945 -0.0607653 4.83255 0.0359347C4.98935 0.0587347 5.13615 0.0853343 5.27145 0.114334C7.28635 0.534334 6.93535 3.85763 6.90495 4.61593C6.78415 7.66553 6.28335 9.89353 5.38845 11.8546Z" fill="url(#paint6_linear_1591_39867)"/>
<path d="M5.37843 11.8493C4.84913 13.0086 4.80103 14.6427 4.77003 15.5503C4.56513 15.5503 4.17943 15.5477 3.79103 15.5427C3.47613 15.5389 2.77473 15.5484 2.71153 15.5458C2.61853 15.542 2.60533 15.5205 2.59963 15.4725C2.58503 15.3523 2.66033 13.7618 1.93993 12.1826C1.49033 11.1973 0.95153 10.5225 0.52843 9.15584C-0.12677 7.04044 -0.0325695 3.01954 0.0383305 2.32894C0.12243 1.50164 0.278631 0.39874 2.71343 0.0420401C3.12573 -0.0186599 4.07503 -0.0603607 4.81373 0.0344393C4.96543 0.0566393 5.10713 0.0819404 5.23873 0.11034C7.23843 0.52464 6.90763 3.76894 6.88173 4.51704C6.77863 7.50464 6.29663 9.83764 5.37843 11.8493Z" fill="url(#paint7_linear_1591_39867)"/>
<path d="M5.36885 11.8436C4.83885 13.0041 4.79335 14.6421 4.76235 15.5503C4.55745 15.5503 4.17545 15.5477 3.79155 15.5427C3.47665 15.5389 2.77525 15.5484 2.71205 15.5458C2.61905 15.542 2.60575 15.5205 2.60005 15.4725C2.58555 15.3523 2.66085 13.7618 1.94045 12.1826C1.49085 11.1973 0.952048 10.5225 0.528948 9.15577C-0.126252 7.04037 -0.0320518 3.01947 0.0387482 2.32887C0.122948 1.50167 0.279149 0.398666 2.71395 0.0419659C3.12315 -0.0181341 4.06165 -0.0598346 4.79585 0.0324654C4.94255 0.0539654 5.07985 0.0786659 5.20635 0.105866C7.19085 0.514366 6.87965 3.67967 6.85815 4.41837C6.77285 7.34327 6.30985 9.78187 5.36885 11.8436Z" fill="url(#paint8_linear_1591_39867)"/>
<path d="M5.35883 11.8386C4.82823 13.0003 4.78463 14.6414 4.75363 15.5502C4.54873 15.5502 4.17113 15.5477 3.79103 15.5426C3.47613 15.5389 2.77473 15.5483 2.71153 15.5458C2.61853 15.542 2.60533 15.5205 2.59963 15.4725C2.58503 15.3523 2.66033 13.7618 1.93993 12.1826C1.49033 11.1973 0.95153 10.5225 0.52843 9.15577C-0.12677 7.04037 -0.0325695 3.01936 0.0383305 2.32876C0.12243 1.50156 0.278631 0.398666 2.71343 0.041966C3.11943 -0.018134 4.04723 -0.0592354 4.77763 0.0311646C4.91933 0.0520646 5.05153 0.0754646 5.17413 0.102065C7.14353 0.504265 6.85263 3.59106 6.83553 4.31966C6.76793 7.18266 6.32273 9.72626 5.35883 11.8386Z" fill="url(#paint9_linear_1591_39867)"/>
<path d="M5.34865 11.8341C4.81735 12.9971 4.77565 14.6421 4.74525 15.5515C4.54035 15.5515 4.16665 15.5489 3.79155 15.5445C3.47665 15.5407 2.77525 15.5502 2.71205 15.5477C2.61905 15.5439 2.60575 15.5224 2.60005 15.4743C2.58555 15.3542 2.66085 13.7636 1.94045 12.1845C1.49085 11.1992 0.952048 10.5244 0.528948 9.15766C-0.126252 7.04216 -0.0320518 3.02126 0.0387482 2.33066C0.122948 1.50346 0.279149 0.400559 2.71395 0.0438589C3.11675 -0.0156411 4.03315 -0.0567421 4.75985 0.0311579C4.89645 0.0507579 5.02415 0.0741581 5.14245 0.0994581C7.09665 0.496058 6.82595 3.50316 6.81265 4.22286C6.76265 7.02386 6.33645 9.67246 5.34985 11.8347L5.34865 11.8341Z" fill="url(#paint10_linear_1591_39867)"/>
<path d="M5.33915 11.8285C4.80725 12.9928 4.76805 14.6408 4.73705 15.5509C4.53215 15.5509 4.16285 15.5484 3.79155 15.5439C3.47665 15.5402 2.77525 15.5496 2.71205 15.5471C2.61905 15.5433 2.60575 15.5218 2.60005 15.4737C2.58555 15.3536 2.66085 13.763 1.94045 12.1839C1.49085 11.1986 0.952048 10.5238 0.528948 9.15714C-0.126252 7.04174 -0.0320518 3.02073 0.0387482 2.33013C0.122948 1.50293 0.279149 0.400036 2.71395 0.0433363C3.11295 -0.0154637 4.01925 -0.0559644 4.74145 0.0294356C4.87305 0.0484356 4.99575 0.0705353 5.10955 0.0952353C7.04855 0.485435 6.79745 3.41414 6.78925 4.12434C6.75635 6.86274 6.34845 9.61634 5.33915 11.8285Z" fill="url(#paint11_linear_1591_39867)"/>
<path d="M5.32895 11.8228C4.79645 12.9884 4.75915 14.6396 4.72885 15.5509C4.52325 15.5509 4.15835 15.5484 3.79155 15.544C3.47665 15.5401 2.77525 15.5496 2.71205 15.547C2.61905 15.5432 2.60575 15.5218 2.60005 15.4738C2.58555 15.3535 2.66085 13.7631 1.94045 12.1839C1.49085 11.1986 0.952048 10.5238 0.528948 9.15715C-0.126252 7.04165 -0.0320518 3.02075 0.0387482 2.33015C0.122948 1.50295 0.279149 0.39995 2.71395 0.04325C3.10985 -0.01495 4.00535 -0.0553505 4.72315 0.0274495C4.84965 0.0458495 4.96785 0.0673506 5.07725 0.0907506C7.00115 0.475251 6.77025 3.32495 6.76585 4.02505C6.75005 6.70145 6.36105 9.56065 5.32895 11.8228Z" fill="url(#paint12_linear_1591_39867)"/>
<path d="M5.31903 11.8177C4.78583 12.9852 4.75113 14.6396 4.72013 15.5509C4.51453 15.5509 4.15413 15.5484 3.79103 15.544C3.47613 15.5402 2.77473 15.5497 2.71153 15.5471C2.61853 15.5433 2.60533 15.5218 2.59963 15.4738C2.58503 15.3536 2.66033 13.7631 1.93993 12.1839C1.49033 11.1986 0.95153 10.5238 0.52843 9.15706C-0.12677 7.04166 -0.0325695 3.02076 0.0383305 2.33016C0.12243 1.50296 0.278631 0.399964 2.71343 0.0432643C3.10613 -0.0149357 3.99093 -0.0547351 4.70433 0.0261649C4.82573 0.0439649 4.93953 0.0641655 5.04453 0.0869654C6.95323 0.465765 6.74193 3.23636 6.74263 3.92696C6.74383 6.54076 6.37453 9.50546 5.31903 11.8177Z" fill="url(#paint13_linear_1591_39867)"/>
<path d="M5.30904 11.8119C4.77524 12.9806 4.74234 14.6382 4.71144 15.5508C4.50584 15.5508 4.14914 15.5482 3.79064 15.5438C3.47564 15.54 2.77434 15.5495 2.71104 15.547C2.61804 15.5432 2.60484 15.5217 2.59914 15.4736C2.58454 15.3535 2.65984 13.7629 1.93954 12.1838C1.48984 11.1985 0.951042 10.5237 0.527942 9.15704C-0.127258 7.04154 -0.0330578 3.02064 0.0378422 2.33004C0.121942 1.50284 0.278142 0.399938 2.71294 0.0432385C3.10254 -0.0143615 3.97654 -0.0541616 4.68614 0.0242384C4.80244 0.0413384 4.91124 0.0609383 5.01184 0.0824383C6.90524 0.454938 6.71424 3.14654 6.71874 3.82764C6.73644 6.37884 6.38734 9.44924 5.30904 11.8119Z" fill="url(#paint14_linear_1591_39867)"/>
<path d="M5.29925 11.8068C4.76555 12.9768 4.73455 14.6382 4.70355 15.5507C4.49795 15.5507 4.14575 15.5482 3.79155 15.5438C3.47665 15.54 2.77525 15.5495 2.71205 15.5469C2.61905 15.5432 2.60575 15.5216 2.60005 15.4736C2.58555 15.3534 2.66085 13.7629 1.94045 12.1837C1.49085 11.1984 0.952048 10.5236 0.528948 9.15703C-0.126252 7.04153 -0.0320518 3.02063 0.0387482 2.33003C0.122948 1.50283 0.279149 0.399831 2.71395 0.0431312C3.10035 -0.0137688 3.96295 -0.0535694 4.66875 0.0223306C4.78005 0.0387306 4.88445 0.0570308 4.98055 0.0779308C6.85885 0.444731 6.68745 3.05733 6.69695 3.72893C6.73175 6.21813 6.40155 9.39413 5.30055 11.8068H5.29925Z" fill="url(#paint15_linear_1591_39867)"/>
<path d="M5.28923 11.801C4.75493 12.9723 4.72583 14.6368 4.69483 15.5507C4.48923 15.5507 4.14083 15.5481 3.79103 15.5437C3.47613 15.5399 2.77473 15.5494 2.71153 15.5469C2.61853 15.5431 2.60533 15.5216 2.59963 15.4735C2.58503 15.3534 2.66033 13.7628 1.93993 12.1837C1.49033 11.1983 0.95153 10.5236 0.52843 9.15686C-0.12677 7.04136 -0.0325695 3.02046 0.0383305 2.32986C0.12243 1.50266 0.278631 0.39976 2.71343 0.0430595C3.09663 -0.0132405 3.94853 -0.0531401 4.64993 0.0208599C4.75613 0.0360599 4.85543 0.0544597 4.94773 0.0740597C6.81093 0.43516 6.65913 2.96856 6.67303 3.63076C6.72363 6.05736 6.41303 9.33826 5.28923 11.801Z" fill="url(#paint16_linear_1591_39867)"/>
<path d="M5.27913 11.7961C4.74413 12.9687 4.71753 14.637 4.68663 15.5508C4.48043 15.5508 4.13703 15.5483 3.79103 15.5439C3.47613 15.5401 2.77473 15.5496 2.71153 15.547C2.61853 15.5432 2.60533 15.5217 2.59963 15.4737C2.58503 15.3535 2.66033 13.763 1.93993 12.1838C1.49033 11.1985 0.95153 10.5237 0.52843 9.15707C-0.12677 7.04157 -0.0325695 3.02067 0.0383305 2.33007C0.12243 1.50287 0.278631 0.399867 2.71343 0.0431675C3.09353 -0.0131325 3.93463 -0.0523327 4.63153 0.0191673C4.73273 0.0336673 4.82763 0.0507673 4.91553 0.0697673C6.76343 0.424567 6.63123 2.87897 6.65023 3.53167C6.71733 5.89567 6.42703 9.28287 5.28043 11.7961H5.27913Z" fill="url(#paint17_linear_1591_39867)"/>
<path d="M5.26963 11.7902C4.73403 12.964 4.70933 14.6355 4.67833 15.5506C4.47223 15.5499 4.13263 15.5474 3.79103 15.5436C3.47613 15.5398 2.77473 15.5493 2.71153 15.5468C2.61853 15.543 2.60533 15.5215 2.59963 15.4734C2.58503 15.3533 2.66033 13.7627 1.93993 12.1836C1.49033 11.1983 0.95153 10.5235 0.52843 9.15685C-0.12677 7.04135 -0.0325695 3.02045 0.0383305 2.32985C0.12243 1.50265 0.278631 0.399745 2.71343 0.0430452C3.09033 -0.0126548 3.92073 -0.0518538 4.61323 0.0177462C4.70933 0.0316462 4.79913 0.0480465 4.88263 0.0657465C6.71543 0.414846 6.60343 2.79025 6.62623 3.43345C6.70903 5.73485 6.43903 9.22705 5.26963 11.7902Z" fill="url(#paint18_linear_1591_39867)"/>
<path d="M5.25953 11.7851C4.72323 12.9602 4.70113 14.6348 4.67013 15.5506C4.46393 15.55 4.12883 15.5474 3.79103 15.5436C3.47613 15.5398 2.77473 15.5493 2.71153 15.5468C2.61853 15.543 2.60533 15.5215 2.59963 15.4734C2.58503 15.3533 2.66033 13.7627 1.93993 12.1836C1.49033 11.1983 0.95153 10.5235 0.52843 9.15681C-0.12677 7.04141 -0.0325695 3.02041 0.0383305 2.32981C0.12243 1.50261 0.278631 0.399708 2.71343 0.0430077C3.08723 -0.0119923 3.90683 -0.0511921 4.59493 0.0158079C4.68593 0.0291079 4.77133 0.0442087 4.85033 0.0613087C6.66793 0.404709 6.57563 2.70041 6.60343 3.33411C6.70213 5.57291 6.45223 9.17201 5.25953 11.7851Z" fill="url(#paint19_linear_1591_39867)"/>
<path d="M5.24943 11.7793C4.71253 12.9556 4.69223 14.6341 4.66133 15.5505C4.45513 15.5498 4.12373 15.5473 3.79103 15.5435C3.47613 15.5397 2.77473 15.5492 2.71153 15.5467C2.61853 15.5429 2.60533 15.5214 2.59963 15.4733C2.58503 15.3531 2.66033 13.7626 1.93993 12.1834C1.49033 11.1981 0.95153 10.5233 0.52843 9.15671C-0.12677 7.04121 -0.0325695 3.02031 0.0383305 2.32971C0.12243 1.50251 0.278631 0.399512 2.71343 0.0428118C3.08343 -0.0114882 3.89223 -0.0506877 4.57713 0.0144123C4.66323 0.0270123 4.74353 0.0416126 4.81873 0.0574125C6.62113 0.394513 6.54843 2.61171 6.58073 3.23591C6.69453 5.41211 6.46623 9.11621 5.25073 11.78L5.24943 11.7793Z" fill="url(#paint20_linear_1591_39867)"/>
<path d="M5.23985 11.7738C4.70225 12.9513 4.68395 14.6329 4.65355 15.5506C4.44675 15.55 4.12045 15.5474 3.79155 15.5436C3.47665 15.5398 2.77525 15.5493 2.71205 15.5468C2.61905 15.543 2.60575 15.5215 2.60005 15.4734C2.58555 15.3533 2.66085 13.7627 1.94045 12.1836C1.49085 11.1983 0.952048 10.5235 0.528948 9.15677C-0.126252 7.04137 -0.0320518 3.02037 0.0387482 2.32977C0.122948 1.50257 0.279149 0.399669 2.71395 0.0429694C3.08075 -0.0108306 3.87885 -0.0500309 4.55935 0.0125691C4.64095 0.0245691 4.71615 0.0378688 4.78635 0.0530688C6.57365 0.384469 6.51985 2.52267 6.55775 3.13677C6.68685 5.25097 6.47935 9.06007 5.24105 11.7738H5.23985Z" fill="url(#paint21_linear_1591_39867)"/>
<path d="M5.22983 11.7687C4.69163 12.9481 4.67583 14.6329 4.64483 15.5505C4.43803 15.5499 4.11553 15.5474 3.79103 15.5436C3.47613 15.5398 2.77473 15.5493 2.71153 15.5467C2.61853 15.543 2.60533 15.5215 2.59963 15.4734C2.58503 15.3532 2.66033 13.7627 1.93993 12.1835C1.49033 11.1982 0.95153 10.5234 0.52843 9.15685C-0.12677 7.04135 -0.0325695 3.02044 0.0383305 2.32984C0.12243 1.50265 0.278631 0.399646 2.71343 0.0429455C3.07703 -0.0107545 3.86443 -0.0493545 4.54053 0.0113455C4.61703 0.0221455 4.68783 0.0353446 4.75363 0.0493446C6.52563 0.374345 6.49153 2.43355 6.53393 3.03875C6.67743 5.09035 6.49153 9.00445 5.22983 11.7687Z" fill="url(#paint22_linear_1591_39867)"/>
<path d="M5.21973 11.763C4.68093 12.9438 4.66693 14.6317 4.63663 15.5506C4.42983 15.55 4.11103 15.5474 3.79103 15.5437C3.47613 15.5399 2.77473 15.5493 2.71153 15.5468C2.61853 15.543 2.60533 15.5215 2.59963 15.4735C2.58503 15.3533 2.66033 13.7628 1.93993 12.1836C1.49033 11.1983 0.95153 10.5235 0.52843 9.15684C-0.12677 7.04144 -0.0325695 3.02044 0.0383305 2.32984C0.12243 1.50264 0.278631 0.399736 2.71343 0.0430362C3.07393 -0.0100638 3.85053 -0.0486635 4.52213 0.00953645C4.59363 0.0196365 4.65943 0.0316359 4.72133 0.0449359C6.47823 0.364336 6.46373 2.34444 6.51113 2.94014C6.66923 4.92914 6.50423 8.94874 5.21973 11.763Z" fill="url(#paint23_linear_1591_39867)"/>
<path d="M5.21023 11.7576C4.67073 12.9396 4.65943 14.6307 4.62843 15.5502C4.42163 15.5496 4.10733 15.5471 3.79103 15.5433C3.47613 15.5395 2.77473 15.549 2.71153 15.5464C2.61853 15.5427 2.60533 15.5212 2.59963 15.4731C2.58503 15.3529 2.66033 13.7624 1.93993 12.1832C1.49033 11.1979 0.95153 10.5231 0.52843 9.15654C-0.12677 7.04104 -0.0325695 3.02014 0.0383305 2.32954C0.12243 1.50234 0.278631 0.399343 2.71343 0.0426434C3.07073 -0.00985661 3.83663 -0.047757 4.50383 0.007943C4.57023 0.017343 4.63153 0.0287418 4.68843 0.0407418C6.43013 0.354442 6.43463 2.25484 6.48713 2.84114C6.65913 4.76754 6.51743 8.89344 5.21023 11.7576Z" fill="url(#paint24_linear_1591_39867)"/>
<path d="M5.20013 11.752C4.66003 12.9353 4.65053 14.6302 4.62013 15.5503C4.41333 15.5497 4.10283 15.5472 3.79103 15.5434C3.47613 15.5396 2.77473 15.5491 2.71153 15.5466C2.61853 15.5428 2.60533 15.5213 2.59963 15.4732C2.58503 15.353 2.66033 13.7625 1.93993 12.1833C1.49033 11.198 0.95153 10.5232 0.52843 9.15665C-0.12677 7.04115 -0.0325695 3.02025 0.0383305 2.32965C0.12243 1.50245 0.278631 0.399447 2.71343 0.042747C3.06763 -0.009053 3.82203 -0.0470531 4.48613 0.00614689C4.54743 0.0149469 4.60373 0.025047 4.65683 0.036447C6.38333 0.343847 6.40673 2.16585 6.46493 2.74255C6.65093 4.60635 6.53073 8.83715 5.20013 11.752Z" fill="url(#paint25_linear_1591_39867)"/>
<path d="M5.19003 11.747C4.64923 12.9316 4.64233 14.6296 4.61133 15.5504C4.40393 15.5498 4.09843 15.5473 3.79103 15.5435C3.47613 15.5397 2.77473 15.5492 2.71153 15.5466C2.61853 15.5428 2.60533 15.5213 2.59963 15.4733C2.58503 15.3531 2.66033 13.7626 1.93993 12.1834C1.49033 11.1981 0.95153 10.5233 0.52843 9.15671C-0.12677 7.04121 -0.0325695 3.02031 0.0383305 2.32971C0.12243 1.50251 0.278631 0.399511 2.71343 0.0428109C3.06443 -0.00898914 3.80813 -0.0462882 4.46773 0.00491185C4.52403 0.0131118 4.57593 0.0226115 4.62463 0.0327115C6.33593 0.334411 6.37893 2.07671 6.44153 2.64401C6.64143 4.44511 6.54343 8.78231 5.19003 11.747Z" fill="url(#paint26_linear_1591_39867)"/>
<path d="M5.18035 11.7416C4.63905 12.9274 4.63395 14.6292 4.60365 15.5507C4.39615 15.55 4.09455 15.5475 3.79155 15.5437C3.47665 15.5399 2.77525 15.5494 2.71205 15.5469C2.61905 15.5431 2.60575 15.5216 2.60005 15.4735C2.58555 15.3534 2.66085 13.7628 1.94045 12.1837C1.49085 11.1984 0.952048 10.5236 0.528948 9.15687C-0.126252 7.04137 -0.0320518 3.02047 0.0387482 2.32987C0.122948 1.50267 0.279149 0.399773 2.71395 0.0430735C3.06175 -0.00822654 3.79475 -0.0455264 4.44995 0.00317364C4.50115 0.0107736 4.54795 0.0189746 4.59225 0.0284746C6.28835 0.324475 6.35035 1.98777 6.41865 2.54557C6.63175 4.28407 6.55645 8.72677 5.18035 11.7416Z" fill="url(#paint27_linear_1591_39867)"/>
<path d="M5.17043 11.7365C4.62843 12.9236 4.62583 14.6286 4.59493 15.5506C4.38743 15.5494 4.09023 15.5475 3.79103 15.5437C3.47613 15.5399 2.77473 15.5494 2.71153 15.5469C2.61853 15.5431 2.60533 15.5216 2.59963 15.4735C2.58503 15.3533 2.66033 13.7628 1.93993 12.1836C1.49033 11.1983 0.95153 10.5235 0.52843 9.15688C-0.12677 7.04138 -0.0325695 3.02048 0.0383305 2.32988C0.12243 1.50268 0.278631 0.399682 2.71343 0.0429822C3.05743 -0.00761779 3.78033 -0.0449183 4.43113 0.00188171C4.47723 0.00828171 4.51963 0.0164821 4.55943 0.0246821C6.24043 0.314382 6.32073 1.89918 6.39473 2.44748C6.62053 4.12408 6.56933 8.67118 5.17043 11.7365Z" fill="url(#paint28_linear_1591_39867)"/>
<path d="M5.16023 11.7303C4.61763 12.9186 4.61703 14.6274 4.58663 15.5501C4.37923 15.5488 4.08583 15.5469 3.79103 15.5438C3.47613 15.54 2.77473 15.5495 2.71153 15.5469C2.61853 15.5432 2.60533 15.5216 2.59963 15.4736C2.58503 15.3534 2.66033 13.7629 1.93993 12.1837C1.49033 11.1984 0.95153 10.5236 0.52843 9.15703C-0.12677 7.04153 -0.0325695 3.02063 0.0383305 2.33003C0.12243 1.50283 0.278631 0.399832 2.71343 0.0431321C3.05433 -0.00676787 3.76643 -0.0440681 4.41273 0.000131907C4.45383 0.00583191 4.49183 0.0128318 4.52723 0.0204318C6.19303 0.304332 6.29233 1.80953 6.37133 2.34833C6.60913 3.96233 6.58193 8.61563 5.16023 11.7303Z" fill="url(#paint29_linear_1591_39867)"/>
<path d="M5.15073 11.7257C4.60753 12.9153 4.60943 14.6272 4.57843 15.5506C4.37103 15.5493 4.08203 15.5474 3.79103 15.5442C3.47613 15.5404 2.77473 15.5499 2.71153 15.5474C2.61853 15.5436 2.60533 15.5221 2.59963 15.474C2.58503 15.3539 2.66033 13.7633 1.93993 12.1842C1.49033 11.1989 0.95153 10.5241 0.52843 9.15736C-0.12677 7.04196 -0.0325695 3.02096 0.0383305 2.33036C0.12243 1.50316 0.278631 0.400257 2.71343 0.0435575C3.05113 -0.00644253 3.75183 -0.0431415 4.39503 -0.00134151C4.43113 0.00365849 4.46393 0.0100587 4.49493 0.0163587C6.14553 0.294659 6.26323 1.72076 6.34863 2.25006C6.59843 3.80206 6.59583 8.56036 5.15073 11.7257Z" fill="url(#paint30_linear_1591_39867)"/>
<path d="M5.14055 11.72C4.59665 12.9115 4.60045 14.626 4.57005 15.5506C4.36205 15.5493 4.07745 15.5474 3.79155 15.5443C3.47665 15.5405 2.77525 15.55 2.71205 15.5474C2.61905 15.5436 2.60575 15.5221 2.60005 15.4741C2.58555 15.3539 2.66085 13.7634 1.94045 12.1842C1.49085 11.1989 0.952048 10.5241 0.528948 9.15736C-0.126252 7.04196 -0.0320518 3.02106 0.0387482 2.33046C0.122948 1.50316 0.279149 0.40026 2.71395 0.0435597C3.04845 -0.00574027 3.73845 -0.0424391 4.37725 -0.00263911C4.40815 0.00186089 4.43665 0.00686055 4.46325 0.0125605C6.09865 0.284561 6.23465 1.63226 6.32565 2.15146C6.58755 3.64146 6.60845 8.50476 5.14055 11.72Z" fill="url(#paint31_linear_1591_39867)"/>
<path d="M5.13053 11.7152C4.58603 12.908 4.59173 14.6263 4.56133 15.5509C4.35333 15.5496 4.07313 15.5477 3.79103 15.5445C3.47613 15.5408 2.77473 15.5502 2.71153 15.5477C2.61853 15.5439 2.60533 15.5224 2.59963 15.4743C2.58503 15.3542 2.66033 13.7636 1.93993 12.1845C1.49033 11.1992 0.95153 10.5244 0.52843 9.15766C-0.12677 7.04226 -0.0325695 3.02126 0.0383305 2.33066C0.12243 1.50346 0.278631 0.400564 2.71343 0.0438643C3.04483 -0.00483575 3.72403 -0.0415362 4.35833 -0.00423622C4.38433 -0.000436224 4.40773 0.00406386 4.43043 0.00846386C6.05073 0.274664 6.20503 1.54336 6.30243 2.05306C6.57503 3.48106 6.62123 8.44996 5.13053 11.7152Z" fill="url(#paint32_linear_1591_39867)"/>
<path d="M5.12095 11.7076C4.57575 12.9016 4.58405 14.623 4.55365 15.5489C4.34555 15.5476 4.06925 15.5457 3.79155 15.5426C3.47665 15.5388 2.77525 15.5483 2.71205 15.5457C2.61905 15.5419 2.60575 15.5204 2.60005 15.4724C2.58555 15.3522 2.66085 13.7617 1.94045 12.1825C1.49085 11.1972 0.952048 10.5224 0.528948 9.15583C-0.126252 7.04033 -0.0320518 3.01943 0.0387482 2.32883C0.122948 1.50163 0.279149 0.39863 2.71395 0.0419299C3.04215 -0.00607008 3.71065 -0.0427712 4.34055 -0.00737123C4.36135 -0.00417124 4.38035 -0.00107087 4.39805 0.00272913C6.00315 0.262629 6.17515 1.45293 6.27885 1.95313C6.56225 3.31913 6.63435 8.39313 5.12095 11.7088V11.7076Z" fill="url(#paint33_linear_1591_39867)"/>
<path d="M5.11093 11.7029C4.56513 12.8981 4.57523 14.6234 4.54493 15.5493C4.33683 15.548 4.06493 15.5461 3.79103 15.5429C3.47613 15.5391 2.77473 15.5486 2.71153 15.5461C2.61853 15.5423 2.60533 15.5208 2.59963 15.4727C2.58503 15.3526 2.66033 13.762 1.93993 12.1829C1.49033 11.1976 0.95153 10.5228 0.52843 9.15612C-0.12677 7.04072 -0.0325695 3.01972 0.0383305 2.32912C0.12243 1.50192 0.278631 0.399019 2.71343 0.0423193C3.03853 -0.00518067 3.69623 -0.0417796 4.32163 -0.00887963C4.33753 -0.00697963 4.35143 -0.00387993 4.36533 -0.00137993C5.95523 0.25292 6.14493 1.36402 6.25563 1.85422C6.54973 3.15892 6.64713 8.33712 5.11093 11.7029Z" fill="url(#paint34_linear_1591_39867)"/>
<path d="M5.10083 11.6975C4.55503 12.8941 4.56703 14.6225 4.53673 15.5496C4.32863 15.5483 4.06053 15.5464 3.79103 15.5433C3.47613 15.5395 2.77473 15.549 2.71153 15.5464C2.61853 15.5426 2.60533 15.5211 2.59963 15.4731C2.58503 15.3529 2.66033 13.7624 1.93993 12.1832C1.49033 11.1979 0.95153 10.5231 0.52843 9.15637C-0.12677 7.04097 -0.0325695 3.02007 0.0383305 2.32947C0.12243 1.50217 0.278631 0.399269 2.71343 0.0425685C3.03533 -0.0048315 3.68163 -0.0409313 4.30333 -0.00993127C4.31413 -0.00863127 4.32353 -0.00673102 4.33303 -0.00483102C5.90783 0.243669 6.11523 1.27577 6.23223 1.75647C6.53583 2.99977 6.65973 8.28237 5.10083 11.6988V11.6975Z" fill="url(#paint35_linear_1591_39867)"/>
<path d="M5.09125 11.6925C4.54475 12.8903 4.55875 14.6219 4.52835 15.5497C4.31965 15.5484 4.05595 15.5465 3.79155 15.5433C3.47665 15.5395 2.77525 15.549 2.71205 15.5465C2.61905 15.5427 2.60575 15.5212 2.60005 15.4731C2.58555 15.353 2.66085 13.7624 1.94045 12.1833C1.49085 11.198 0.952048 10.5232 0.528948 9.15653C-0.126252 7.04113 -0.0320518 3.02013 0.0387482 2.32953C0.122948 1.50233 0.279149 0.399429 2.71395 0.0427293C3.03265 -0.00407072 3.66825 -0.0394702 4.28615 -0.0116702C4.29185 -0.0110702 4.29625 -0.00977063 4.30135 -0.00917063C5.86085 0.233029 6.08535 1.18743 6.20995 1.65733C6.52305 2.83993 6.67355 8.22623 5.09125 11.6925Z" fill="url(#paint36_linear_1591_39867)"/>
<path d="M5.08105 11.6871C4.53405 12.8862 4.55045 14.6216 4.52015 15.55C4.31145 15.5487 4.05215 15.5468 3.79155 15.5436C3.47665 15.5399 2.77525 15.5493 2.71205 15.5468C2.61905 15.543 2.60575 15.5215 2.60005 15.4734C2.58555 15.3533 2.66085 13.7627 1.94045 12.1836C1.49085 11.1983 0.952048 10.5235 0.528948 9.15678C-0.126252 7.04138 -0.0320518 3.02038 0.0387482 2.32978C0.122948 1.50258 0.279149 0.399675 2.71395 0.0429751C3.02885 -0.00322488 3.65435 -0.0386252 4.26775 -0.0127252H4.26905C5.81345 0.223875 6.05505 1.09978 6.18655 1.55948C6.50845 2.68148 6.68615 8.17078 5.08105 11.6871Z" fill="url(#paint37_linear_1591_39867)"/>
</g>
<defs>
<linearGradient id="paint0_linear_1591_39867" x1="-0.0118518" y1="7.76504" x2="7.12635" y2="7.76504" gradientUnits="userSpaceOnUse">
<stop offset="0.16" stop-color="#FEFEFF"/>
<stop offset="0.52" stop-color="#FEFEFF"/>
</linearGradient>
<linearGradient id="paint1_linear_1591_39867" x1="-0.0116695" y1="7.76483" x2="7.09613" y2="7.76483" gradientUnits="userSpaceOnUse">
<stop offset="0.16" stop-color="#FCFDFE"/>
<stop offset="0.52" stop-color="#FDFEFF"/>
</linearGradient>
<linearGradient id="paint2_linear_1591_39867" x1="-0.0118518" y1="7.76466" x2="7.06565" y2="7.76466" gradientUnits="userSpaceOnUse">
<stop offset="0.16" stop-color="#FBFCFE"/>
<stop offset="0.52" stop-color="#FCFDFF"/>
</linearGradient>
<linearGradient id="paint3_linear_1591_39867" x1="-0.0116695" y1="7.76445" x2="7.03543" y2="7.76445" gradientUnits="userSpaceOnUse">
<stop offset="0.16" stop-color="#F9FBFE"/>
<stop offset="0.52" stop-color="#FCFDFE"/>
</linearGradient>
<linearGradient id="paint4_linear_1591_39867" x1="-0.0116695" y1="7.76437" x2="7.00563" y2="7.76437" gradientUnits="userSpaceOnUse">
<stop offset="0.16" stop-color="#F8FAFD"/>
<stop offset="0.52" stop-color="#FBFCFE"/>
</linearGradient>
<linearGradient id="paint5_linear_1591_39867" x1="-0.0118518" y1="7.76426" x2="6.97585" y2="7.76426" gradientUnits="userSpaceOnUse">
<stop offset="0.16" stop-color="#F6F9FD"/>
<stop offset="0.52" stop-color="#FAFBFE"/>
</linearGradient>
<linearGradient id="paint6_linear_1591_39867" x1="-0.0118518" y1="7.76413" x2="6.94605" y2="7.76413" gradientUnits="userSpaceOnUse">
<stop offset="0.16" stop-color="#F5F8FC"/>
<stop offset="0.52" stop-color="#F9FBFE"/>
</linearGradient>
<linearGradient id="paint7_linear_1591_39867" x1="-0.0116695" y1="7.76454" x2="6.91713" y2="7.76454" gradientUnits="userSpaceOnUse">
<stop offset="0.16" stop-color="#F3F7FC"/>
<stop offset="0.52" stop-color="#F8FAFE"/>
</linearGradient>
<linearGradient id="paint8_linear_1591_39867" x1="-0.0118518" y1="7.76387" x2="6.88795" y2="7.76387" gradientUnits="userSpaceOnUse">
<stop offset="0.16" stop-color="#F2F6FC"/>
<stop offset="0.52" stop-color="#F7FAFE"/>
</linearGradient>
<linearGradient id="paint9_linear_1591_39867" x1="-0.0116695" y1="7.76447" x2="6.85963" y2="7.76447" gradientUnits="userSpaceOnUse">
<stop offset="0.16" stop-color="#F1F4FB"/>
<stop offset="0.52" stop-color="#F6F9FD"/>
</linearGradient>
<linearGradient id="paint10_linear_1591_39867" x1="-0.0118518" y1="7.76506" x2="6.83165" y2="7.76506" gradientUnits="userSpaceOnUse">
<stop offset="0.16" stop-color="#EFF3FB"/>
<stop offset="0.52" stop-color="#F5F8FD"/>
</linearGradient>
<linearGradient id="paint11_linear_1591_39867" x1="-0.0118518" y1="7.76524" x2="6.80315" y2="7.76524" gradientUnits="userSpaceOnUse">
<stop offset="0.16" stop-color="#EEF2FB"/>
<stop offset="0.52" stop-color="#F5F8FD"/>
</linearGradient>
<linearGradient id="paint12_linear_1591_39867" x1="-0.0118518" y1="7.76515" x2="6.77595" y2="7.76515" gradientUnits="userSpaceOnUse">
<stop offset="0.16" stop-color="#ECF1FA"/>
<stop offset="0.52" stop-color="#F4F7FD"/>
</linearGradient>
<linearGradient id="paint13_linear_1591_39867" x1="-0.0116695" y1="7.76576" x2="6.74893" y2="7.76576" gradientUnits="userSpaceOnUse">
<stop offset="0.16" stop-color="#EBF0FA"/>
<stop offset="0.52" stop-color="#F3F7FD"/>
</linearGradient>
<linearGradient id="paint14_linear_1591_39867" x1="-0.0115578" y1="7.76574" x2="6.72254" y2="7.76574" gradientUnits="userSpaceOnUse">
<stop offset="0.16" stop-color="#E9EFF9"/>
<stop offset="0.52" stop-color="#F2F6FD"/>
</linearGradient>
<linearGradient id="paint15_linear_1591_39867" x1="-0.0118518" y1="7.76563" x2="6.69815" y2="7.76563" gradientUnits="userSpaceOnUse">
<stop offset="0.16" stop-color="#E8EEF9"/>
<stop offset="0.52" stop-color="#F1F5FC"/>
</linearGradient>
<linearGradient id="paint16_linear_1591_39867" x1="-0.0116695" y1="7.76556" x2="6.67803" y2="7.76556" gradientUnits="userSpaceOnUse">
<stop offset="0.16" stop-color="#E6EDF9"/>
<stop offset="0.52" stop-color="#F0F5FC"/>
</linearGradient>
<linearGradient id="paint17_linear_1591_39867" x1="-0.0116695" y1="7.76567" x2="6.65843" y2="7.76567" gradientUnits="userSpaceOnUse">
<stop offset="0.16" stop-color="#E5ECF8"/>
<stop offset="0.52" stop-color="#EFF4FC"/>
</linearGradient>
<linearGradient id="paint18_linear_1591_39867" x1="-0.0116695" y1="7.76555" x2="6.64013" y2="7.76555" gradientUnits="userSpaceOnUse">
<stop offset="0.16" stop-color="#E4EBF8"/>
<stop offset="0.52" stop-color="#EFF4FC"/>
</linearGradient>
<linearGradient id="paint19_linear_1591_39867" x1="-0.0116695" y1="7.76551" x2="6.62243" y2="7.76551" gradientUnits="userSpaceOnUse">
<stop offset="0.16" stop-color="#E2EAF8"/>
<stop offset="0.52" stop-color="#EEF3FC"/>
</linearGradient>
<linearGradient id="paint20_linear_1591_39867" x1="-0.0116695" y1="7.76531" x2="6.60603" y2="7.76531" gradientUnits="userSpaceOnUse">
<stop offset="0.16" stop-color="#E1E9F7"/>
<stop offset="0.52" stop-color="#EDF2FC"/>
</linearGradient>
<linearGradient id="paint21_linear_1591_39867" x1="-0.0118518" y1="7.76547" x2="6.59005" y2="7.76547" gradientUnits="userSpaceOnUse">
<stop offset="0.16" stop-color="#DFE8F7"/>
<stop offset="0.52" stop-color="#ECF2FC"/>
</linearGradient>
<linearGradient id="paint22_linear_1591_39867" x1="-0.0116695" y1="7.76545" x2="6.57503" y2="7.76545" gradientUnits="userSpaceOnUse">
<stop offset="0.16" stop-color="#DEE7F7"/>
<stop offset="0.52" stop-color="#EBF1FB"/>
</linearGradient>
<linearGradient id="paint23_linear_1591_39867" x1="-0.0116695" y1="7.76554" x2="6.56043" y2="7.76554" gradientUnits="userSpaceOnUse">
<stop offset="0.16" stop-color="#DCE6F6"/>
<stop offset="0.52" stop-color="#EAF0FB"/>
</linearGradient>
<linearGradient id="paint24_linear_1591_39867" x1="-0.0116695" y1="7.76514" x2="6.54653" y2="7.76514" gradientUnits="userSpaceOnUse">
<stop offset="0.16" stop-color="#DBE5F6"/>
<stop offset="0.52" stop-color="#E9F0FB"/>
</linearGradient>
<linearGradient id="paint25_linear_1591_39867" x1="-0.0116695" y1="7.76525" x2="6.53323" y2="7.76525" gradientUnits="userSpaceOnUse">
<stop offset="0.16" stop-color="#D9E4F5"/>
<stop offset="0.52" stop-color="#E8EFFB"/>
</linearGradient>
<linearGradient id="paint26_linear_1591_39867" x1="-0.0116695" y1="7.76601" x2="6.51993" y2="7.76601" gradientUnits="userSpaceOnUse">
<stop offset="0.16" stop-color="#D8E3F5"/>
<stop offset="0.52" stop-color="#E8EFFB"/>
</linearGradient>
<linearGradient id="paint27_linear_1591_39867" x1="-0.0118518" y1="7.76487" x2="6.50785" y2="7.76487" gradientUnits="userSpaceOnUse">
<stop offset="0.16" stop-color="#D6E2F5"/>
<stop offset="0.52" stop-color="#E7EEFB"/>
</linearGradient>
<linearGradient id="paint28_linear_1591_39867" x1="-0.0116695" y1="7.76548" x2="6.49593" y2="7.76548" gradientUnits="userSpaceOnUse">
<stop offset="0.16" stop-color="#D5E0F4"/>
<stop offset="0.52" stop-color="#E6EDFA"/>
</linearGradient>
<linearGradient id="paint29_linear_1591_39867" x1="-0.0116695" y1="7.76443" x2="6.48393" y2="7.76443" gradientUnits="userSpaceOnUse">
<stop offset="0.16" stop-color="#D4DFF4"/>
<stop offset="0.52" stop-color="#E5EDFA"/>
</linearGradient>
<linearGradient id="paint30_linear_1591_39867" x1="-0.0116695" y1="7.76536" x2="6.47313" y2="7.76536" gradientUnits="userSpaceOnUse">
<stop offset="0.16" stop-color="#D2DEF4"/>
<stop offset="0.52" stop-color="#E4ECFA"/>
</linearGradient>
<linearGradient id="paint31_linear_1591_39867" x1="-0.0118518" y1="7.76476" x2="6.46165" y2="7.76476" gradientUnits="userSpaceOnUse">
<stop offset="0.16" stop-color="#D1DDF3"/>
<stop offset="0.52" stop-color="#E3ECFA"/>
</linearGradient>
<linearGradient id="paint32_linear_1591_39867" x1="-0.0116695" y1="7.76576" x2="6.45103" y2="7.76576" gradientUnits="userSpaceOnUse">
<stop offset="0.16" stop-color="#CFDCF3"/>
<stop offset="0.52" stop-color="#E2EBFA"/>
</linearGradient>
<linearGradient id="paint33_linear_1591_39867" x1="-0.0118518" y1="7.76383" x2="6.44075" y2="7.76383" gradientUnits="userSpaceOnUse">
<stop offset="0.16" stop-color="#CEDBF2"/>
<stop offset="0.52" stop-color="#E1EAFA"/>
</linearGradient>
<linearGradient id="paint34_linear_1591_39867" x1="-0.0116695" y1="7.76352" x2="6.43083" y2="7.76352" gradientUnits="userSpaceOnUse">
<stop offset="0.16" stop-color="#CCDAF2"/>
<stop offset="0.52" stop-color="#E1EAF9"/>
</linearGradient>
<linearGradient id="paint35_linear_1591_39867" x1="-0.0116695" y1="7.76387" x2="6.42073" y2="7.76387" gradientUnits="userSpaceOnUse">
<stop offset="0.16" stop-color="#CBD9F2"/>
<stop offset="0.52" stop-color="#E0E9F9"/>
</linearGradient>
<linearGradient id="paint36_linear_1591_39867" x1="-0.0118518" y1="7.76393" x2="6.41105" y2="7.76393" gradientUnits="userSpaceOnUse">
<stop offset="0.16" stop-color="#C9D8F1"/>
<stop offset="0.52" stop-color="#DFE9F9"/>
</linearGradient>
<linearGradient id="paint37_linear_1591_39867" x1="-0.0118518" y1="7.76418" x2="6.40095" y2="7.76418" gradientUnits="userSpaceOnUse">
<stop offset="0.16" stop-color="#C8D7F1"/>
<stop offset="0.52" stop-color="#DEE8F9"/>
</linearGradient>
</defs>
</svg>
