<svg width="5" height="1" viewBox="0 0 5 1" fill="none" xmlns="http://www.w3.org/2000/svg">
<path d="M1.59522 0.0917009C1.96582 0.0354154 2.37436 0.00252969 2.82275 0C2.84868 0 2.87524 0 2.90117 0C3.32173 0.000632421 3.70624 0.0284588 4.05977 0.0758904C4.0819 0.0790525 4.10404 0.0815821 4.12554 0.0847442C4.17993 0.0923333 4.23305 0.100555 4.28554 0.109409C4.30072 0.111938 4.3159 0.114468 4.33108 0.116997C4.33171 0.116997 4.33234 0.116997 4.33297 0.116997C5.02041 0.302929 5.22975 0.474948 4.51637 0.397793C4.46072 0.386409 4.40507 0.376291 4.34941 0.366805C4.27542 0.354156 4.20143 0.342772 4.12617 0.332021C2.81579 0.149884 1.41941 0.263087 0.239941 0.66088C-0.0636216 0.763332 -0.0806968 0.70515 0.197569 0.545147C0.581448 0.325697 1.1032 0.182769 1.59585 0.0904358L1.59522 0.0917009Z" fill="url(#paint0_linear_1587_25664)"/>
<defs>
<linearGradient id="paint0_linear_1587_25664" x1="-0.00101176" y1="0.356686" x2="4.9597" y2="0.356686" gradientUnits="userSpaceOnUse">
<stop offset="0.16" stop-color="#D2DEF4"/>
<stop offset="0.49" stop-color="#E4ECFA"/>
</linearGradient>
</defs>
</svg>
