<svg width="5" height="1" viewBox="0 0 5 1" fill="none" xmlns="http://www.w3.org/2000/svg">
<path d="M1.59648 0.0917009C1.96392 0.0360478 2.36804 0.00316211 2.81137 0C2.8373 0 2.86322 0 2.88915 0C3.30466 0 3.68601 0.0271937 4.03637 0.0727281C4.0585 0.0758902 4.08 0.0784198 4.10151 0.0815819C4.15526 0.089171 4.20775 0.0967604 4.25961 0.105614C4.27479 0.108144 4.28997 0.110673 4.30451 0.113203C4.30515 0.113203 4.30578 0.113203 4.30641 0.113203C4.95907 0.289649 5.09251 0.430046 4.48033 0.392101C4.42531 0.380717 4.36965 0.371231 4.31463 0.362377C4.24064 0.349729 4.16601 0.338978 4.09075 0.328859C2.78986 0.154943 1.40866 0.268779 0.239941 0.66341C-0.0636216 0.765863 -0.0806968 0.70768 0.197569 0.547677C0.581448 0.328227 1.1032 0.1853 1.59585 0.092966L1.59648 0.0917009Z" fill="url(#paint0_linear_3091_44026)"/>
<defs>
<linearGradient id="paint0_linear_3091_44026" x1="0.000253079" y1="0.356686" x2="4.87496" y2="0.356686" gradientUnits="userSpaceOnUse">
<stop offset="0.16" stop-color="#C9D8F1"/>
<stop offset="0.49" stop-color="#DFE9F9"/>
</linearGradient>
</defs>
</svg>
