<svg width="4" height="5" viewBox="0 0 4 5" fill="none" xmlns="http://www.w3.org/2000/svg">
<path d="M3.79215 0.745863C3.67597 0.374541 2.40686 0.0113073 1.77892 0.000277882C1.07157 -0.00854562 0.524514 0.19366 0.125986 0.478217C-0.0254842 0.58557 -0.0835724 0.614982 0.201721 0.58557C0.864218 0.515718 1.01716 0.4091 1.75907 0.458364C2.40098 0.498805 3.24215 0.773069 3.32965 1.0613C3.512 2.94071 1.80686 3.80468 1.67524 3.79512C1.62451 3.79218 1.0576 3.55541 0.770836 3.35835C0.602454 3.24365 0.687014 3.42453 0.836278 3.64659C1.08481 4.00762 1.59657 4.49291 1.66274 4.49806C1.83701 4.50761 4.09288 3.35394 3.79215 0.745863Z" fill="#811205"/>
</svg>
