<svg width="29" height="28" viewBox="0 0 29 28" fill="none" xmlns="http://www.w3.org/2000/svg">
<path d="M28.1564 9.30742C28.3086 18.9081 20.2116 25.2022 11.3425 27.4691C8.59543 28.1713 7.38808 27.6993 7.77631 27.5794C8.07778 25.9493 8.08367 24.2978 8.14396 23.4861C5.47264 21.1478 3.00942 15.0103 1.66089 11.6846C1.48001 11.2383 0.774132 13.0515 0.637368 12.5912C0.687368 13.1868 0.806485 13.8059 1.01972 14.4986C1.32192 15.4802 1.41898 15.8552 1.00722 14.7096C-0.0663059 11.7221 -0.326599 8.53316 0.814573 5.59347C2.52192 1.19422 7.1197 -1.40871 11.5138 0.983189C12.5984 1.57363 13.6579 2.60083 14.5278 3.47289C15.3807 2.67804 16.3616 2.04421 17.3711 1.46333C18.8983 0.607455 20.5711 0.246427 22.3219 0.53172C25.2123 0.996424 26.6807 2.53539 27.6895 5.16406C28.2218 6.55082 28.1726 7.81919 28.1549 9.30595L28.1564 9.30742ZM28.1564 9.30742C28.1579 9.19934 28.1579 9.41551 28.1564 9.30742Z" stroke="white" stroke-width="0.147058" stroke-miterlimit="10"/>
</svg>
