<svg width="5" height="2" viewBox="0 0 5 2" fill="none" xmlns="http://www.w3.org/2000/svg">
<path d="M4.52971 0.3447C4.39371 0.3327 4.06861 0.2871 4.06421 0.3447C4.06041 0.3959 4.62901 0.5028 4.53351 0.6002C4.40192 0.7342 4.35701 0.9752 4.35201 1.1757C4.34251 1.5007 4.46771 1.564 4.42151 1.6361C4.38991 1.6854 4.17171 1.6664 3.71261 1.6354C3.38621 1.5861 3.03971 1.5501 2.69501 1.5501C2.18911 1.5501 1.59651 1.6209 1.12471 1.717C0.657314 1.8132 0.260215 1.8979 0.224115 1.8429C0.178615 1.7727 0.302615 1.7265 0.293715 1.4141C0.288015 1.2212 0.298115 0.9992 0.167915 0.8689C0.0654146 0.7659 0.592214 0.5806 0.589714 0.5249C0.586514 0.4629 0.308915 0.5217 0.172915 0.5338C0.0970147 0.5407 -0.0142854 0.5723 0.00151464 0.5078C0.625715 0.203 1.68881 0 2.69501 0C3.43051 0 4.15402 0.0961304 4.77442 0.277C4.79272 0.2979 4.59161 0.351 4.52901 0.3459L4.52971 0.3447Z" fill="url(#paint0_linear_1591_39937)"/>
<defs>
<linearGradient id="paint0_linear_1591_39937" x1="0.000314643" y1="0.9297" x2="4.77632" y2="0.9297" gradientUnits="userSpaceOnUse">
<stop offset="0.16" stop-color="#D6E2F5"/>
<stop offset="0.49" stop-color="#E7EEFB"/>
</linearGradient>
</defs>
</svg>
