<svg width="10" height="10" viewBox="0 0 10 10" fill="none" xmlns="http://www.w3.org/2000/svg">
<path d="M9.46467 0.00073601C8.98894 1.01764 8.44703 2.00661 7.81394 2.94043C7.65438 3.17278 7.48968 3.4022 7.32277 3.6294C7.14703 3.84999 6.97718 4.07646 6.79704 4.29337L6.51983 4.61395C6.42645 4.71984 6.33674 4.8294 6.23674 4.9294L5.9441 5.23601C5.84557 5.33748 5.75145 5.44263 5.64704 5.53822L5.33748 5.82792C5.23307 5.92351 5.13454 6.02424 5.02425 6.11321C4.80734 6.29483 4.59557 6.48233 4.37572 6.6588L3.69925 7.16836C3.46763 7.33012 3.2316 7.48453 2.99705 7.64115C2.04631 8.2485 1.0397 8.76247 0 9.186C0.988232 8.65144 1.95293 8.086 2.86911 7.44997L3.54631 6.96027L4.20072 6.44189C4.41396 6.26321 4.62278 6.07939 4.83381 5.89851C4.94116 5.81027 5.03748 5.70954 5.13969 5.61469L5.44189 5.32719C5.54557 5.23454 5.63969 5.1316 5.73674 5.03234L6.02718 4.73307C6.12645 4.63528 6.21468 4.52792 6.30806 4.42498L6.58527 4.11322C6.76836 3.90366 6.94115 3.68528 7.11983 3.47205C7.20586 3.36249 7.28821 3.25073 7.37424 3.14043C7.4588 3.0294 7.5463 2.92131 7.62791 2.80808C8.28894 1.90955 8.88232 0.959555 9.46541 0L9.46467 0.00073601Z" fill="url(#paint0_linear_1587_26097)"/>
<defs>
<linearGradient id="paint0_linear_1587_26097" x1="4.73234" y1="9.31982" x2="4.73234" y2="-0.0683818" gradientUnits="userSpaceOnUse">
<stop stop-color="#485156"/>
<stop offset="0.68" stop-color="white"/>
</linearGradient>
</defs>
</svg>
