<svg width="26" height="24" viewBox="0 0 26 24" fill="none" xmlns="http://www.w3.org/2000/svg">
<path d="M23.5477 10.3103C22.6286 10.6243 21.5668 7.64633 21.5624 7.05663C21.5521 5.13605 22.3595 3.74488 22.5124 2.96032C22.533 2.84782 21.458 3.56105 20.5588 6.89192C20.0227 8.88015 18.7551 10.5331 15.8102 11.1103C14.9522 11.2794 17.022 11.4471 18.2999 11.0816C19.4249 10.7596 18.9161 14.9037 18.4374 17.9992C18.4727 17.9764 18.5095 17.9544 18.5448 17.9301C18.9124 17.6838 19.3117 17.3875 19.4742 17.2595C19.6367 17.1316 20.0742 16.7809 20.3529 16.522C20.3529 16.4595 20.3514 16.4772 20.3499 16.4154C20.2676 14.8632 20.044 12.5676 20.8705 9.81912C21.0249 9.29559 22.0889 10.1118 22.8462 11.6154C22.9146 11.7522 23.7095 11.4316 24.6484 10.7699C24.7315 10.6978 24.8124 10.6213 24.8918 10.5456C25.0933 10.0706 25.3668 9.36103 25.5418 8.62868L25.5433 8.62427C24.8551 9.44412 24.0227 10.1471 23.547 10.3103H23.5477ZM25.8793 4.8809C25.8742 4.78164 25.869 4.68384 25.858 4.56914C25.8058 4.50149 25.7529 4.43237 25.7021 4.36473C24.8264 3.34708 23.7602 1.989 23.4896 1.79635C22.8727 1.35665 18.9132 -0.00805241 17.2264 3.57996e-05C16.5382 0.00665342 13.7794 2.86473 13.0161 2.71694C12.2764 2.57429 10.4808 0.564739 9.75144 0.405916C9.2132 0.286799 4.6544 1.86326 4.29484 2.56841C3.31911 4.48311 1.04779 7.28163 0 8.56986C0.350734 9.32059 0.74338 9.61324 0.752939 9.65221C2.4419 11.2934 5.41836 12.5919 5.44778 12.2853C5.48454 11.9154 6.36321 10.3191 6.53527 10.7272C6.70954 11.1368 6.81615 12.2926 6.94704 14.9206C7.00439 16.0338 6.72204 19.747 6.71542 19.8073C6.52424 21.4191 6.28968 22.7176 6.21248 23.1242C6.21101 23.1352 6.20586 23.1661 6.19924 23.2029L7.34556 22.8698C7.42203 22.3735 7.51836 21.3323 7.59042 20.147C7.71909 18.0419 7.79409 15.4867 7.71027 14.7573C7.56247 13.4743 7.48012 11.1118 7.91321 11.2331C8.461 11.3882 10.0375 11.5419 9.51761 11.3029C8.35512 10.7654 7.61395 10.0169 6.97571 8.925C5.55219 6.49854 5.3691 3.53091 5.25219 4.30737C4.89043 6.67501 6.39189 8.64927 5.31248 10.5426C4.88087 11.2985 3.69925 10.9978 1.98896 9.9C1.69338 9.7103 1.02058 9.09706 0.798527 8.83236C0.745586 8.76839 0.788968 8.64706 0.788968 8.64706C1.45367 7.72354 3.25293 5.6434 4.85807 2.89488C5.14263 2.41032 9.31982 0.979444 9.53232 0.986062C9.91982 1.00371 12.2441 3.60885 12.8639 3.72796C14.1073 3.97061 17.1786 0.652975 17.3874 0.657387C18.9411 0.687534 22.5757 1.92944 23.0227 2.20444C23.3507 2.40665 24.7801 4.17943 25.9087 5.4434C25.908 5.39928 25.9109 5.35516 25.9087 5.31105C25.8918 5.12575 25.8852 5.00002 25.8793 4.8809Z" fill="black"/>
</svg>
