<svg width="6" height="1" viewBox="0 0 6 1" fill="none" xmlns="http://www.w3.org/2000/svg">
<path d="M1.59461 0.0916996C1.96771 0.0354196 2.37881 0.00253 2.83031 0C2.85691 0 2.88281 0 2.90941 0C3.33251 0.00127 3.72011 0.0297297 4.07561 0.0784197C4.09771 0.0815897 4.11981 0.0847493 4.14201 0.0872793C4.19631 0.0948693 4.25011 0.10372 4.30321 0.11257C4.31841 0.1151 4.33361 0.11763 4.34881 0.1208H4.35071C5.06151 0.31305 5.32081 0.50594 4.53981 0.40349C4.48411 0.39147 4.42781 0.38135 4.37221 0.37187C4.29821 0.35922 4.22421 0.3472 4.14951 0.33645C2.83221 0.14925 1.42631 0.261189 0.239908 0.662149C-0.0635924 0.764599 -0.0806918 0.70642 0.197508 0.54642C0.581408 0.32696 1.10321 0.18404 1.59581 0.0916996H1.59461Z" fill="url(#paint0_linear_1591_39977)"/>
<defs>
<linearGradient id="paint0_linear_1591_39977" x1="-0.00169208" y1="0.35669" x2="5.01661" y2="0.35669" gradientUnits="userSpaceOnUse">
<stop offset="0.16" stop-color="#D8E3F5"/>
<stop offset="0.49" stop-color="#E8EFFB"/>
</linearGradient>
</defs>
</svg>
