<svg width="7" height="16" viewBox="0 0 7 16" fill="none" xmlns="http://www.w3.org/2000/svg">
<path d="M5.28929 11.801C4.75489 12.9722 4.7258 14.6368 4.69481 15.5506C4.48927 15.5506 4.14081 15.5481 3.79108 15.5437C3.47613 15.5399 2.77478 15.5494 2.71154 15.5468C2.61857 15.543 2.60529 15.5215 2.5996 15.4735C2.58505 15.3533 2.66031 13.7628 1.93998 12.1836C1.49033 11.1983 0.951507 10.5235 0.528417 9.15683C-0.126772 7.04139 -0.0325408 3.02045 0.0382904 2.32985C0.122402 1.50264 0.278611 0.399696 2.71343 0.0430099C3.09668 -0.0132756 3.94855 -0.0531186 4.64991 0.0208747C4.75616 0.0360529 4.85544 0.0543938 4.94778 0.0739989C6.81089 0.435112 6.65911 2.96859 6.67302 3.63074C6.72362 6.05734 6.41373 9.33897 5.28992 11.8016L5.28929 11.801Z" fill="url(#paint0_linear_3091_43879)"/>
<defs>
<linearGradient id="paint0_linear_3091_43879" x1="-0.0116709" y1="7.76551" x2="6.67808" y2="7.76551" gradientUnits="userSpaceOnUse">
<stop offset="0.16" stop-color="#E6EDF9"/>
<stop offset="0.52" stop-color="#F0F5FC"/>
</linearGradient>
</defs>
</svg>
