<svg width="6" height="2" viewBox="0 0 6 2" fill="none" xmlns="http://www.w3.org/2000/svg">
<path d="M5.02481 0.35285C5.01161 0.41105 4.91421 0.46605 4.84781 0.45975C4.71181 0.44775 4.28111 0.341551 4.28111 0.399051C4.28111 0.431951 4.90722 0.564151 4.81172 0.661551C4.68021 0.795551 4.63531 1.06945 4.63021 1.26985C4.62071 1.59495 4.74591 1.65755 4.69981 1.73035C4.67511 1.76955 4.47401 1.73975 4.16601 1.70875C3.71001 1.62275 3.19971 1.55005 2.69501 1.55005C2.19031 1.55005 1.59652 1.62085 1.12472 1.71705C0.657315 1.81315 0.260215 1.89785 0.224115 1.84285C0.178615 1.77265 0.303215 1.72655 0.293715 1.41405C0.288615 1.22125 0.298114 0.99925 0.167814 0.86895C0.0654145 0.76585 0.592214 0.58055 0.589714 0.52495C0.586514 0.46295 0.308915 0.522351 0.172915 0.533751C0.0970147 0.540751 -0.0142854 0.572351 0.00151464 0.507851C0.625715 0.203051 1.68881 0 2.69501 0C3.53041 0 4.35071 0.12269 5.02481 0.35285Z" fill="white"/>
</svg>
