<svg width="6" height="1" viewBox="0 0 6 1" fill="none" xmlns="http://www.w3.org/2000/svg">
<path d="M1.59589 0.0916996C1.97089 0.0347896 2.38389 0.0019 2.83729 0C2.86389 0 2.89039 0 2.91699 0C3.34259 0.00127 3.73219 0.03036 4.08889 0.07969C4.11099 0.08285 4.13309 0.0860095 4.15529 0.0891695C4.21029 0.0973995 4.26399 0.10562 4.31719 0.1151C4.33229 0.11763 4.34819 0.1208 4.36269 0.12333H4.36459C5.09309 0.32064 5.39039 0.52934 4.55809 0.40728C4.50249 0.39527 4.44549 0.38515 4.38989 0.37503C4.31649 0.36175 4.24189 0.35036 4.16729 0.33961C2.84489 0.14799 1.43209 0.259929 0.239894 0.662149C-0.0636065 0.764599 -0.0807067 0.70642 0.197593 0.54642C0.581493 0.32696 1.10319 0.18404 1.59589 0.0916996Z" fill="url(#paint0_linear_1591_39974)"/>
<defs>
<linearGradient id="paint0_linear_1591_39974" x1="-0.000406597" y1="0.35669" x2="5.06089" y2="0.35669" gradientUnits="userSpaceOnUse">
<stop offset="0.16" stop-color="#DCE6F6"/>
<stop offset="0.49" stop-color="#EAF0FB"/>
</linearGradient>
</defs>
</svg>
