<svg width="3" height="4" viewBox="0 0 3 4" fill="none" xmlns="http://www.w3.org/2000/svg">
<path d="M2.00933 2.00604C1.97581 2.64605 2.04854 2.93444 1.96759 3.12416C1.78861 3.0976 1.55967 3.0742 1.25485 3.0742C0.809621 3.0742 0.590171 3.10898 0.43839 3.13744C0.307479 3.15072 0.267004 3.09381 0.261945 3.02045C0.249296 2.8421 0.270798 2.52589 0.274593 2.32858C0.285344 1.76572 0.232221 1.37994 0.15886 0.965076C0.0627316 0.418664 -0.0327638 0.216288 0.0108733 0.197948C0.428271 0.0240323 0.927252 0 1.24599 0C1.53564 0 1.8664 0.00316287 2.31731 0.139133C2.14087 0.89551 2.04031 1.42295 2.00933 2.00604Z" fill="url(#paint0_linear_3091_43912)"/>
<defs>
<linearGradient id="paint0_linear_3091_43912" x1="-0.000510303" y1="1.56967" x2="2.31731" y2="1.56967" gradientUnits="userSpaceOnUse">
<stop offset="0.16" stop-color="#F3F7FC"/>
<stop offset="0.49" stop-color="#F8FAFE"/>
</linearGradient>
</defs>
</svg>
