<svg width="8" height="16" viewBox="0 0 8 16" fill="none" xmlns="http://www.w3.org/2000/svg">
<path d="M7.06702 5.30678C6.81658 8.79015 6.19302 10.2833 5.45814 11.8934C4.93387 13.0419 4.86809 14.6495 4.8371 15.5514C4.63346 15.5514 4.21354 15.5488 3.79108 15.5438C3.47613 15.54 2.77478 15.5495 2.71154 15.5469C2.61857 15.5431 2.60529 15.5216 2.5996 15.4736C2.58505 15.3534 2.66031 13.7629 1.93998 12.1837C1.49033 11.1984 0.951507 10.5236 0.528417 9.15696C-0.126772 7.04151 -0.0325408 3.02057 0.0382904 2.32997C0.122402 1.50276 0.278611 0.399819 2.71343 0.043133C3.1517 -0.021374 4.18698 -0.0643786 4.95979 0.0481925C5.15205 0.076019 5.33166 0.108273 5.49735 0.144321C7.61849 0.605988 7.12647 4.4821 7.06702 5.30741V5.30678Z" fill="white"/>
</svg>
