<svg width="7" height="2" viewBox="0 0 7 2" fill="none" xmlns="http://www.w3.org/2000/svg">
<path d="M3.9716 1.7252C3.9261 1.724 3.8818 1.7221 3.8363 1.7208C3.8363 1.7177 3.8363 1.7158 3.8363 1.7126C3.8761 1.6974 3.89 1.669 3.8951 1.638C3.9008 1.6728 3.9185 1.7158 3.9716 1.7252ZM4.1544 1.3464C4.1961 1.3565 4.2164 1.3724 4.2246 1.4071C4.2296 1.373 4.2417 1.3546 4.2752 1.3426C4.2353 1.3407 4.1949 1.3388 4.1544 1.3369C4.1544 1.3395 4.1544 1.3439 4.1544 1.3464ZM3.8698 0.253599C3.9255 0.383899 3.9261 0.3858 3.8559 0.3902C3.8559 0.3934 3.8559 0.395899 3.8559 0.399099C3.9122 0.400999 3.9672 0.403499 4.0235 0.404699C3.9881 0.396499 3.9811 0.376899 3.9672 0.347799L3.9545 0.320599L3.9507 0.313C3.9109 0.2213 3.8584 0.101199 3.8167 0.00759888C3.8034 0.0366989 3.7882 0.0695992 3.7882 0.0695992L3.8641 0.2416C3.8565 0.2416 3.7636 0.2384 3.7111 0.2372C3.7092 0.2409 3.7066 0.246 3.7047 0.2498C3.7104 0.2498 3.8034 0.251699 3.8698 0.253599ZM3.4625 0.6609C3.4625 0.6609 3.4625 0.6666 3.4625 0.6691C3.5201 0.6811 3.5201 0.710799 3.5201 0.748199C3.5201 0.819599 3.5201 0.891099 3.5201 0.961899C3.5201 0.999899 3.5201 1.0308 3.4619 1.0391V1.0473C3.522 1.0473 3.582 1.0492 3.6421 1.0498C3.5776 1.0391 3.5726 0.9967 3.5719 0.9625C3.5719 0.9227 3.5719 0.8829 3.5719 0.8424C3.589 0.8424 3.5846 0.8424 3.613 0.8424C3.6649 0.843 3.6908 0.854399 3.7028 0.891699C3.7028 0.859499 3.7028 0.827799 3.7028 0.795599C3.6889 0.822099 3.663 0.8329 3.6149 0.8316C3.5928 0.8316 3.5884 0.8316 3.5713 0.8316C3.5713 0.7994 3.5713 0.7665 3.5713 0.7342C3.5726 0.6874 3.5896 0.672899 3.6428 0.672899C3.6459 0.672899 3.6655 0.672899 3.6681 0.672899C3.7262 0.676099 3.7591 0.697599 3.7819 0.746899L3.7737 0.665298C3.67 0.662798 3.5662 0.6615 3.4606 0.6602L3.4625 0.6609ZM3.6029 0.384499C3.6029 0.384499 3.6029 0.3902 3.6029 0.3934C3.6478 0.394 3.6921 0.395299 3.737 0.395899C3.6877 0.388899 3.6624 0.3466 3.6826 0.2934C3.6428 0.3712 3.6307 0.374399 3.6029 0.384499ZM3.6086 1.724C3.6054 1.724 3.5454 1.7354 3.4828 1.6993C3.4315 1.6696 3.3784 1.6203 3.374 1.538C3.3639 1.3515 3.5308 1.3129 3.5839 1.3116H3.5877C3.8382 1.3249 3.8439 1.6873 3.6086 1.724ZM3.7231 1.545C3.73 1.3799 3.6617 1.3218 3.5783 1.3218H3.5764C3.3923 1.3218 3.3708 1.7025 3.5795 1.7088C3.6073 1.7094 3.7161 1.7056 3.7231 1.545ZM6.4937 1.213C6.4406 1.2737 6.4052 1.2851 6.3533 1.2762C6.3084 1.2686 6.304 1.2465 6.3053 1.1997C6.3078 1.1282 6.3097 1.0561 6.3122 0.983398C6.3135 0.948598 6.3179 0.9132 6.3691 0.9018C6.323 0.8942 6.2736 0.887299 6.2268 0.880299C6.2268 0.882199 6.2268 0.8873 6.2268 0.8892C6.2743 0.9075 6.2736 0.9385 6.273 0.9746C6.2711 1.046 6.2686 1.1175 6.266 1.1883C6.2648 1.225 6.2635 1.2566 6.2154 1.2585C6.2154 1.2617 6.2154 1.2642 6.2154 1.2667C6.3008 1.2794 6.3843 1.2927 6.4665 1.3066L6.4937 1.213ZM5.8101 1.1548C5.8101 1.1548 5.7468 0.981499 5.6848 0.810799C5.6722 0.838599 5.6595 0.8664 5.6595 0.8664L5.7234 1.041C5.7165 1.0403 5.638 1.0308 5.5868 1.0252C5.5849 1.0289 5.583 1.0327 5.5818 1.0365C5.5875 1.0372 5.6766 1.0479 5.7279 1.0536C5.774 1.1839 5.7715 1.1864 5.7127 1.1858C5.7127 1.1883 5.7127 1.1915 5.7127 1.194C5.7614 1.1997 5.8094 1.206 5.8581 1.2123C5.8303 1.2003 5.8214 1.1839 5.8101 1.1548ZM5.5122 1.6418C5.5122 1.6418 5.4951 1.6418 5.4831 1.6405C5.4799 1.6405 5.4104 1.6323 5.4028 1.631C5.4015 1.6652 5.4009 1.7012 5.4003 1.7354C5.3996 1.7701 5.4028 1.8106 5.461 1.8271C5.4072 1.8207 5.3541 1.815 5.3003 1.8094V1.8011C5.3528 1.7961 5.3541 1.7645 5.3547 1.7284C5.3566 1.6563 5.3579 1.5836 5.3598 1.5096C5.3604 1.4716 5.361 1.4419 5.3086 1.4242V1.4147C5.368 1.4267 5.4679 1.4267 5.4818 1.4286C5.5286 1.4343 5.5634 1.4514 5.5856 1.4773C5.6071 1.5014 5.6558 1.6335 5.5122 1.6418ZM5.5375 1.466C5.5021 1.4305 5.4515 1.4369 5.4363 1.4419C5.4116 1.4501 5.4066 1.4678 5.4053 1.5039C5.4047 1.5431 5.4047 1.5798 5.4034 1.6184C5.4224 1.6209 5.4761 1.6266 5.4894 1.6266C5.5856 1.6253 5.5767 1.5052 5.5375 1.466ZM6.1883 1.1611C6.1168 1.2433 6.0668 1.2301 6.0428 1.2269C5.9954 1.2206 5.9909 1.1972 5.9916 1.151C5.9935 1.0795 5.996 1.0074 5.9979 0.9347C5.9992 0.8999 6.0086 0.8582 6.0567 0.8531C6.008 0.8462 5.9574 0.839899 5.9081 0.832899C5.9081 0.834799 5.9081 0.8386 5.9081 0.8417C5.9574 0.8595 5.9568 0.888598 5.9562 0.926498C5.9543 0.997998 5.9517 1.0694 5.9498 1.1403C5.9486 1.1782 5.9473 1.2079 5.898 1.2111C5.898 1.2142 5.898 1.2168 5.898 1.2193C5.9871 1.2307 6.0744 1.2427 6.1611 1.2554L6.1883 1.1611ZM5.4882 1.1693C5.528 1.1738 5.5666 1.1782 5.6058 1.1826C5.5628 1.17 5.5426 1.1333 5.5577 1.0878C5.5255 1.1497 5.5141 1.1529 5.4882 1.1605C5.4882 1.1637 5.4882 1.1662 5.4882 1.1693ZM5.1062 1.4065C5.158 1.4229 5.158 1.4533 5.1574 1.4919C5.1561 1.5652 5.1542 1.638 5.153 1.7107C5.153 1.7467 5.1505 1.7784 5.0992 1.7841C5.0992 1.7872 5.0992 1.7897 5.0992 1.7929C5.1492 1.798 5.1985 1.803 5.2485 1.8075C5.201 1.7891 5.1979 1.7524 5.1985 1.7177C5.1998 1.6456 5.2017 1.5728 5.2029 1.4988C5.2036 1.4634 5.2105 1.4217 5.2567 1.4128C5.2067 1.4078 5.1568 1.4027 5.1062 1.3983C5.1062 1.4008 5.1062 1.4046 5.1062 1.4065ZM4.2347 0.876499C4.2334 0.994199 4.131 1.077 4.038 1.0726C3.9994 1.0707 3.9432 1.0568 3.897 1.0049C3.8559 0.9594 3.835 0.8917 3.8401 0.8335C3.8546 0.6817 4.0083 0.6609 4.0393 0.6609C4.1443 0.6596 4.236 0.764599 4.2347 0.876499ZM4.1784 0.8955C4.1854 0.8032 4.1563 0.736099 4.1253 0.708899C4.0829 0.671599 4.0507 0.671598 4.0336 0.671598C4.0039 0.671598 3.9716 0.684299 3.9482 0.705099C3.9122 0.736799 3.8919 0.799999 3.8919 0.868299C3.8919 1.0517 4.0228 1.0568 4.0406 1.0568C4.0564 1.0568 4.1664 1.058 4.1784 0.8955ZM4.4978 1.0909C4.3416 1.1004 4.2277 0.891699 4.3321 0.758299C4.3846 0.691199 4.451 0.6824 4.4851 0.6798C4.5193 0.6773 4.5497 0.688699 4.5674 0.696899C4.7539 0.782299 4.7141 1.0776 4.4978 1.0909ZM4.3675 0.999899C4.3903 1.0448 4.4314 1.0631 4.4624 1.0713C4.6704 1.1244 4.7014 0.684899 4.4839 0.690599C4.4542 0.690599 4.4238 0.705099 4.4017 0.725399C4.334 0.780999 4.3251 0.915799 4.3675 0.999899ZM4.9006 1.3882C4.9538 1.404 4.9531 1.4343 4.9531 1.4729C4.9531 1.5052 4.9519 1.5374 4.9512 1.5697C4.9127 1.5659 4.8229 1.5589 4.74 1.5526C4.74 1.5203 4.7413 1.4893 4.7413 1.4571C4.7419 1.421 4.7489 1.378 4.7976 1.3705C4.7457 1.3667 4.6926 1.3629 4.6401 1.3591C4.6401 1.3616 4.6401 1.366 4.6401 1.3686C4.6945 1.3837 4.6938 1.416 4.6938 1.4527C4.6938 1.5267 4.6919 1.5994 4.6907 1.6715C4.69 1.7075 4.6894 1.7385 4.635 1.7455C4.635 1.7486 4.635 1.7512 4.635 1.7543C4.6875 1.7581 4.7394 1.7613 4.7912 1.7657C4.7413 1.7493 4.7381 1.7113 4.7387 1.6759C4.7387 1.6399 4.74 1.6019 4.7406 1.5659C4.7476 1.5659 4.869 1.576 4.9512 1.5829C4.9506 1.6196 4.95 1.655 4.9493 1.6911C4.9487 1.7259 4.9468 1.7588 4.895 1.7651C4.895 1.7682 4.895 1.7708 4.8943 1.7739C4.9455 1.7784 4.9961 1.7828 5.0474 1.7872C5.0037 1.772 4.9955 1.7322 4.9955 1.6974C4.9968 1.6253 4.998 1.5526 4.9993 1.4786C4.9999 1.4444 5.0018 1.4008 5.0537 1.3926C5.0031 1.3882 4.9525 1.3831 4.9013 1.3793C4.9013 1.3818 4.9006 1.3856 4.9006 1.3882ZM4.5775 1.6C4.5591 1.552 4.5199 1.5324 4.4655 1.5058C4.4067 1.4773 4.3593 1.4546 4.3631 1.4084C4.37 1.3281 4.4693 1.3483 4.4908 1.3584C4.5212 1.3724 4.5376 1.3976 4.5484 1.4185L4.5402 1.3578C4.4915 1.3515 4.4889 1.335 4.4409 1.3376C4.3334 1.3426 4.3074 1.4495 4.3625 1.5071C4.3821 1.5273 4.3896 1.5311 4.4497 1.5621C4.4744 1.5747 4.5263 1.6007 4.5408 1.6335C4.5629 1.6822 4.5351 1.7385 4.4674 1.7411C4.4573 1.7411 4.3707 1.7455 4.3245 1.638L4.3296 1.7177C4.3827 1.743 4.4333 1.7556 4.47 1.755C4.587 1.755 4.5914 1.6354 4.5775 1.6ZM3.2165 0.6577C3.1912 0.6577 3.1084 0.6577 3.0907 0.6577C3.0907 0.6609 3.0907 0.663999 3.0907 0.666599C3.1349 0.673499 3.1564 0.6912 3.1646 0.7267C3.1691 0.6893 3.1843 0.6659 3.2165 0.6577ZM2.7491 0.0144997C2.7915 0.0258997 2.8099 0.0492986 2.8174 0.0733986C2.8219 0.0391986 2.8427 0.0106986 2.8699 0.00319862C2.8295 0.00379862 2.7903 0.00439916 2.7491 0.00569916C2.7491 0.00889916 2.7491 0.0113997 2.7491 0.0144997ZM1.7234 0.913799C1.7189 0.913799 1.6772 0.916999 1.6601 0.918299C1.6607 0.951799 1.6607 0.9847 1.6614 1.0182C1.662 1.0523 1.6734 1.0998 1.7291 1.1017C1.6728 1.1055 1.6171 1.1093 1.5615 1.1137V1.1055C1.6146 1.0916 1.6146 1.0599 1.6139 1.0226C1.6127 0.9512 1.6114 0.879099 1.6102 0.806299C1.6095 0.767099 1.6089 0.7387 1.5551 0.7311V0.722198H1.5621L1.5861 0.720999C1.6525 0.714599 1.6304 0.7203 1.7525 0.702C1.7588 0.7007 1.7708 0.700699 1.7721 0.700699C1.9074 0.710199 1.939 0.898699 1.7234 0.913799ZM1.7221 0.901199C1.7759 0.896799 1.8005 0.8835 1.817 0.8487C1.8283 0.8253 1.8347 0.772199 1.8011 0.738699C1.7651 0.702599 1.7019 0.715899 1.6917 0.720299C1.662 0.732999 1.6576 0.750699 1.6582 0.788599C1.6589 0.827799 1.6589 0.8677 1.6595 0.9056C1.6652 0.9056 1.6728 0.905 1.6772 0.9044C1.6917 0.9031 1.7069 0.902499 1.7221 0.901199ZM2.6929 0.390799C2.6473 0.390799 2.6151 0.377599 2.5948 0.356699C2.5702 0.330799 2.5664 0.299099 2.5657 0.268099C2.5657 0.264399 2.5651 0.167 2.5651 0.0986996C2.5651 0.0644996 2.5708 0.0195997 2.6258 0.00889969C2.5689 0.0100997 2.5126 0.0119988 2.457 0.0138988V0.0227985C2.5133 0.0322985 2.5139 0.0638993 2.5139 0.100599C2.5145 0.147399 2.5145 0.193498 2.5145 0.239698C2.5158 0.347198 2.5632 0.393399 2.6189 0.408499C2.648 0.416099 2.6986 0.417399 2.7574 0.378799C2.7346 0.386999 2.7125 0.390199 2.6929 0.390799ZM0.9505 1.7973C0.970801 1.8132 1.0068 1.8264 1.0479 1.8283C1.0947 1.8264 1.146 1.8075 1.1858 1.7613C1.1542 1.7872 1.1162 1.8062 1.0815 1.8037C1.0214 1.8075 0.9632 1.767 0.9398 1.6999C0.8848 1.5431 0.992901 1.4293 1.0903 1.4261C1.1124 1.4255 1.1523 1.4229 1.201 1.4906L1.1763 1.4179C1.1466 1.4192 1.1067 1.4116 1.0789 1.4154C0.8607 1.4444 0.8322 1.7056 0.9505 1.7973ZM1.9175 0.709599C1.9725 0.717799 1.9732 0.7475 1.9738 0.7855C1.9744 0.8576 1.9757 0.929699 1.9763 1.0011C1.9763 1.0397 1.9763 1.0694 1.9226 1.0821C1.9226 1.0846 1.9226 1.0884 1.9226 1.0909C2.0288 1.0846 2.1357 1.0789 2.2438 1.0738L2.2723 0.9727C2.2489 1.003 2.197 1.0606 2.1319 1.065C2.123 1.065 2.1142 1.0656 2.1053 1.0663C2.0996 1.0663 2.0946 1.0663 2.0902 1.0663C2.0895 1.0663 2.0889 1.0663 2.0883 1.0663C2.0389 1.0675 2.0276 1.0561 2.0263 0.999899C2.0263 0.958699 2.025 0.9189 2.025 0.8778C2.0383 0.8772 2.0788 0.874599 2.0851 0.874599C2.1313 0.873399 2.1502 0.882199 2.1629 0.913799C2.1629 0.882899 2.1629 0.8519 2.1623 0.8209C2.1502 0.85 2.1287 0.860098 2.0807 0.863298C2.0674 0.863898 2.0332 0.8658 2.025 0.8664C2.025 0.8342 2.0244 0.8006 2.0238 0.7684C2.0244 0.721 2.0402 0.706399 2.0921 0.702599C2.0971 0.702599 2.123 0.702 2.1256 0.702C2.1819 0.7007 2.2135 0.7184 2.2375 0.7652L2.2293 0.685499C2.1249 0.690599 2.0212 0.6957 1.9188 0.702C1.9188 0.7051 1.9188 0.7083 1.9188 0.7108L1.9175 0.709599ZM2.5569 1.053C2.5569 1.053 2.5569 1.0587 2.5569 1.0612C2.6138 1.0593 2.6701 1.058 2.7276 1.0568C2.6935 1.0486 2.684 1.0315 2.6688 1.0037L2.6555 0.977699L2.6518 0.970098C2.6106 0.882199 2.5556 0.7659 2.5133 0.6754C2.5 0.7058 2.4854 0.739899 2.4854 0.739899L2.5632 0.9056C2.5133 0.9069 2.4152 0.911299 2.4102 0.911299C2.4083 0.915099 2.4064 0.9195 2.4045 0.9233C2.4563 0.9214 2.5632 0.918299 2.5689 0.917599C2.6258 1.0403 2.6277 1.0448 2.5569 1.053ZM0.6729 0.821499C0.6388 0.825899 0.6052 0.8297 0.5717 0.8342C0.5717 0.8373 0.5717 0.839899 0.5717 0.842999C0.6084 0.844899 0.6229 0.867699 0.6299 0.887899C0.6337 0.856299 0.6444 0.833499 0.6729 0.821499ZM4.224 1.662L3.9653 1.373C3.9583 1.366 3.94 1.3407 3.933 1.3281C3.9008 1.3268 3.8666 1.3262 3.8363 1.3256C3.8363 1.3281 3.8363 1.3319 3.8363 1.3344C3.859 1.3433 3.8679 1.3496 3.8989 1.3825C3.9103 1.3951 4.1297 1.6392 4.224 1.7411C4.224 1.7088 4.224 1.6664 4.224 1.662ZM0.4863 1.2414C0.5256 1.2389 0.5603 1.2212 0.5818 1.2016C0.561 1.213 0.5445 1.2161 0.5218 1.2155C0.4933 1.218 0.4655 1.2086 0.4497 1.194C0.4218 1.1681 0.4206 1.127 0.4193 1.1074V1.0972C0.4174 1.0454 0.416101 0.9929 0.414901 0.941C0.414201 0.9044 0.4199 0.865798 0.4642 0.849298C0.4168 0.855698 0.37 0.862598 0.3238 0.868898V0.8778C0.3712 0.8822 0.3725 0.9157 0.3738 0.9531C0.375 0.9986 0.376301 1.0403 0.377601 1.0852C0.382001 1.1997 0.4294 1.2389 0.4863 1.2414ZM2.4646 1.6348C2.4614 1.6291 2.3185 1.3711 2.3324 1.3401L2.3343 1.3363C2.2932 1.3382 2.2521 1.3401 2.211 1.342C2.211 1.3452 2.211 1.3477 2.211 1.3509C2.2407 1.3509 2.2552 1.3603 2.2729 1.3882C2.2793 1.3979 2.2824 1.4027 2.2824 1.4027C2.3292 1.4912 2.3906 1.6076 2.4386 1.698C2.4494 1.6728 2.4526 1.6633 2.4646 1.6348ZM2.3046 1.0707C2.3488 1.0688 2.3931 1.0669 2.4374 1.0656C2.3899 1.058 2.364 1.022 2.3817 0.971399C2.345 1.0454 2.333 1.0498 2.3046 1.0618C2.3046 1.0644 2.3046 1.0682 2.3046 1.0707ZM2.7732 1.046C2.7732 1.046 2.7732 1.0523 2.7732 1.0549C2.8187 1.0542 2.8661 1.0523 2.9117 1.0517C2.8642 1.0467 2.8383 1.0037 2.832 0.9657C2.8276 0.9973 2.813 1.0258 2.7732 1.046ZM3.1646 1.053C3.1646 1.0207 3.1646 0.9784 3.1646 0.9727L2.899 0.702C2.8731 0.6716 2.8725 0.671 2.8668 0.6609C2.8345 0.6609 2.8016 0.6621 2.7694 0.6628C2.7694 0.6659 2.7694 0.668498 2.7694 0.671598C2.7928 0.678598 2.8023 0.685499 2.8326 0.715899C2.844 0.727298 3.0673 0.9543 3.1646 1.053ZM2.665 1.6266C2.6587 1.5716 2.6448 1.4609 2.6378 1.4059C2.634 1.3768 2.6473 1.3338 2.6929 1.3249C2.6511 1.3262 2.6094 1.3268 2.5683 1.3281C2.5784 1.3464 2.5797 1.3584 2.5797 1.3584C2.5797 1.3584 2.6069 1.569 2.6151 1.6468C2.6208 1.6949 2.5879 1.7063 2.5563 1.7158C2.5563 1.7183 2.5563 1.7214 2.5563 1.724C2.6132 1.7221 2.6707 1.7208 2.7283 1.7196C2.7061 1.7132 2.6732 1.6987 2.665 1.6266ZM2.8826 1.5273C2.8826 1.5614 2.8832 1.5956 2.8832 1.6291C2.8832 1.6645 2.8895 1.7082 2.9528 1.7151C2.8933 1.7158 2.8333 1.717 2.7738 1.7183V1.7101C2.8314 1.698 2.8314 1.6671 2.8314 1.6304C2.8307 1.5583 2.8307 1.4856 2.8301 1.4116C2.8301 1.3724 2.8295 1.3433 2.7719 1.3325V1.3237C2.7719 1.3237 2.8061 1.3237 2.8181 1.3237C2.8649 1.3249 2.906 1.3205 2.9433 1.3161C2.9477 1.3161 2.9686 1.3135 2.9768 1.3135C3.0299 1.3123 3.0685 1.3293 3.0913 1.3553C3.1223 1.3894 3.1223 1.4444 3.0919 1.4811C3.0622 1.5165 3.0173 1.5248 2.9496 1.526C2.9458 1.526 2.8908 1.5266 2.8826 1.5273ZM2.8826 1.5146C2.8826 1.5146 2.9307 1.5146 2.9477 1.514C3.0103 1.5127 3.0318 1.4976 3.0464 1.4716C3.0641 1.4419 3.0654 1.3882 3.0388 1.3578C3.0034 1.3173 2.9344 1.3256 2.9186 1.3306C2.8832 1.342 2.8826 1.3711 2.882 1.3976C2.8826 1.4369 2.8826 1.4761 2.8826 1.5146ZM3.1514 1.3268C3.2095 1.3376 3.2102 1.3686 3.2108 1.4071C3.2108 1.4811 3.2108 1.5539 3.2108 1.626C3.2108 1.662 3.2108 1.6936 3.1514 1.7037C3.1514 1.7069 3.1514 1.7101 3.1514 1.7126C3.2083 1.7126 3.2658 1.7126 3.3234 1.7126C3.2747 1.7031 3.2646 1.6607 3.2646 1.626C3.2646 1.5539 3.2646 1.4805 3.2646 1.4071C3.2646 1.3711 3.2728 1.3268 3.3228 1.318C3.2658 1.318 3.2089 1.3173 3.1514 1.318C3.1514 1.3211 3.1514 1.3236 3.1514 1.3268ZM1.6373 1.6829C1.6361 1.6108 1.6348 1.538 1.6336 1.4641C1.6336 1.4299 1.6399 1.3844 1.6873 1.3717C1.6355 1.3755 1.5836 1.3806 1.5317 1.385C1.5317 1.3882 1.5317 1.3907 1.5317 1.3939C1.5849 1.4008 1.5855 1.4305 1.5868 1.4691C1.5868 1.5014 1.588 1.5336 1.5887 1.5659C1.5241 1.5709 1.385 1.5836 1.3793 1.5842C1.3793 1.552 1.3781 1.5184 1.3774 1.4856C1.3774 1.4495 1.3869 1.4059 1.4293 1.3932C1.3787 1.3976 1.3281 1.4027 1.2775 1.4078C1.2775 1.4109 1.2775 1.4135 1.2775 1.4166C1.3294 1.4229 1.3306 1.4533 1.3313 1.4919C1.3325 1.5652 1.3344 1.6386 1.3357 1.7107C1.3357 1.7486 1.3363 1.7777 1.2851 1.7935C1.2851 1.7961 1.2851 1.7999 1.2851 1.8024C1.3351 1.7973 1.3856 1.7929 1.4362 1.7879C1.3856 1.7752 1.3825 1.7379 1.3819 1.7044C1.3812 1.6683 1.3806 1.6335 1.38 1.5969C1.4438 1.5912 1.5836 1.5792 1.5893 1.5785C1.5893 1.6152 1.5906 1.6513 1.5912 1.6873C1.5912 1.7233 1.5912 1.755 1.5393 1.7701C1.5393 1.7727 1.5393 1.7758 1.54 1.7784C1.5912 1.7739 1.6424 1.7701 1.6943 1.7664C1.643 1.7562 1.6379 1.7165 1.6373 1.6829ZM1.8068 1.6709C1.7746 1.7404 1.7588 1.7493 1.736 1.7581C1.736 1.7607 1.736 1.7645 1.736 1.767C1.7784 1.7638 1.8208 1.7607 1.8638 1.7581C1.8176 1.7537 1.7961 1.7107 1.8068 1.6709ZM2.2495 1.6342C2.2382 1.705 2.2204 1.7126 2.1819 1.7303C2.1819 1.7328 2.1819 1.7366 2.1819 1.7392C2.2287 1.7373 2.2742 1.7347 2.3229 1.7322C2.2843 1.7271 2.2514 1.6892 2.2495 1.6342ZM2.0883 1.6879C2.0883 1.6879 1.9883 1.4773 1.9352 1.3616C1.9226 1.3926 1.908 1.4267 1.908 1.4267L1.9852 1.5937C1.9308 1.5969 1.8416 1.6032 1.8347 1.6038C1.8328 1.6082 1.8309 1.612 1.8296 1.6158C1.877 1.6127 1.9858 1.6057 1.9909 1.6051C2.0465 1.7278 2.0472 1.7303 1.9795 1.7417C1.9795 1.7442 1.9795 1.748 1.9795 1.7505C2.0345 1.7474 2.0895 1.7436 2.1452 1.7404C2.1167 1.7328 2.1035 1.7151 2.0883 1.6879ZM2.9775 0.0910988V0.308599C2.9775 0.345299 2.9775 0.3769 2.9205 0.3883V0.3965C2.937 0.3965 2.9616 0.3965 2.9901 0.3965C3.102 0.3959 3.2108 0.3953 3.2513 0.3953L3.281 0.292799C3.2285 0.357899 3.1767 0.3776 3.14 0.3801C3.1368 0.3801 3.1014 0.3794 3.0932 0.3794C3.0426 0.3782 3.0287 0.3466 3.0287 0.3074C3.0287 0.2656 3.0287 0.2277 3.0287 0.1859C3.0401 0.1859 3.0401 0.1859 3.0458 0.1859C3.0609 0.1859 3.0748 0.1859 3.09 0.1859C3.1305 0.1859 3.1564 0.195999 3.1703 0.227699C3.1703 0.197899 3.1703 0.168899 3.1703 0.139099C3.1552 0.167599 3.1229 0.1739 3.0894 0.1745C3.0748 0.1745 3.0597 0.1745 3.0458 0.1745C3.0458 0.1745 3.0363 0.1745 3.0287 0.1745C3.0287 0.1417 3.0287 0.1094 3.0287 0.0764999C3.0299 0.0290999 3.0464 0.0144999 3.0995 0.0132999C3.1482 0.0119999 3.2058 0.0094991 3.2469 0.0821991L3.2386 0.00189972C3.1912 0.00189972 3.0508 0.00190025 2.9193 0.00440025V0.0132999C2.9762 0.0233999 2.9768 0.0543988 2.9775 0.0910988ZM3.4322 0.3048C3.4322 0.2643 3.4322 0.223198 3.4322 0.182798C3.4379 0.182798 3.4435 0.182798 3.4492 0.182798C3.4587 0.182798 3.4682 0.182799 3.4777 0.183399C3.5302 0.183399 3.5511 0.197898 3.5631 0.232698C3.5631 0.201098 3.5631 0.167 3.5631 0.1353C3.5479 0.167 3.5239 0.171999 3.479 0.171999H3.4492C3.4398 0.171999 3.4385 0.171999 3.4322 0.171999C3.4322 0.139799 3.4322 0.1069 3.4322 0.0746002C3.4322 0.0329002 3.4682 0.0189997 3.4967 0.0144997C3.5017 0.0132997 3.5062 0.0125999 3.5112 0.0125999C3.5896 0.00949994 3.6213 0.0416999 3.6421 0.0834999L3.6339 0.00379944C3.5979 0.00319944 3.5612 0.00249972 3.5245 0.00189972C3.4707 0.00129972 3.4069 0.0006 3.3468 0C3.3386 0 3.3303 0 3.3228 0V0.00889969C3.3803 0.0201997 3.3809 0.0518991 3.3809 0.0884991V0.304199C3.3809 0.362399 3.3588 0.3731 3.3228 0.382V0.390799C3.3474 0.390799 3.3721 0.390799 3.3961 0.390799C3.4296 0.390799 3.4632 0.390799 3.4967 0.392099C3.4986 0.392099 3.4998 0.392099 3.5017 0.392099C3.4429 0.385799 3.4322 0.3396 3.4322 0.3048ZM0.721601 0.8221V0.813299L0.7507 0.811399C0.7988 0.808899 0.8335 0.800598 0.8702 0.792398C0.8822 0.789898 0.912 0.7861 0.9189 0.7855C0.939201 0.7861 0.9632 0.7899 0.9834 0.8032C1.0252 0.8304 1.0612 0.937899 0.9265 0.968199C0.9682 0.982099 0.986601 0.9999 1.0264 1.0618C1.072 1.1333 1.0935 1.158 1.1238 1.1668C1.0599 1.1687 1.0264 1.1422 0.9973 1.108C0.9512 1.0549 0.9436 0.9954 0.9151 0.9828C0.9037 0.9784 0.858201 0.9815 0.836101 0.9853C0.829701 0.9859 0.8266 0.986599 0.8184 0.987799C0.8196 1.0264 0.820301 1.0625 0.821501 1.101C0.822801 1.1365 0.833501 1.1782 0.879101 1.182C0.829701 1.1877 0.7798 1.1934 0.7311 1.1997V1.1908C0.7798 1.1763 0.779201 1.1459 0.778501 1.108C0.776601 1.0372 0.7747 0.966299 0.7728 0.894199C0.7722 0.855699 0.770901 0.8278 0.721601 0.8221ZM0.815801 0.875299C0.817101 0.908199 0.8177 0.9429 0.8184 0.9758C0.8203 0.9758 0.827201 0.9746 0.835401 0.9739C0.843001 0.9733 0.8791 0.968899 0.8816 0.968899C0.9322 0.962499 0.9505 0.9518 0.9638 0.9214C0.9771 0.8904 0.9758 0.843599 0.9474 0.817699C0.9366 0.807599 0.917701 0.801299 0.906301 0.799999C0.886701 0.796199 0.8645 0.798099 0.8456 0.806299C0.8146 0.820899 0.815801 0.845499 0.815801 0.875299ZM1.2939 1.1434C1.2851 1.1428 1.2769 1.1422 1.2686 1.1409C1.2313 1.1346 1.2022 1.1137 1.1953 1.1086C1.0644 1.0106 1.1143 0.7627 1.3117 0.7342C1.3142 0.7342 1.3205 0.7342 1.3218 0.7342C1.409 0.7399 1.4824 0.808899 1.4932 0.903099C1.5083 1.0327 1.4046 1.1371 1.2939 1.1434ZM1.4419 0.932199C1.4419 0.923299 1.4419 0.9151 1.4407 0.9056C1.4362 0.8405 1.416 0.798699 1.3901 0.772799C1.354 0.736799 1.2775 0.734899 1.2225 0.790499C1.1409 0.873999 1.1428 1.1276 1.2984 1.1276C1.2984 1.1276 1.3066 1.1289 1.3192 1.1276C1.3831 1.1225 1.4432 1.0606 1.4419 0.932199ZM4.9683 1.1206C4.981 1.1219 4.9917 1.1225 5.0006 1.1232C4.9411 1.1074 4.9354 1.0663 4.9361 1.0315C4.9373 0.955 4.9386 0.877799 4.9399 0.799999C4.9411 0.748199 4.967 0.734199 4.9949 0.738699C5.0126 0.736799 5.0423 0.740599 5.0689 0.769699C5.0777 0.779099 5.0872 0.794299 5.0954 0.813299L5.091 0.736099V0.7349C4.9759 0.7248 4.8583 0.715899 4.7394 0.707699L4.7356 0.748798L4.7318 0.790499C4.7577 0.737399 4.7957 0.722199 4.8241 0.725399C4.8513 0.722199 4.876 0.735499 4.8861 0.755699C4.8918 0.767099 4.8918 0.7842 4.8912 0.7943C4.8899 0.8721 4.8886 0.949299 4.8874 1.0258C4.8867 1.0612 4.8861 1.0954 4.8191 1.0998C4.8191 1.1023 4.8191 1.1055 4.8184 1.1086C4.8235 1.1086 4.8285 1.1093 4.8342 1.1099C4.8791 1.1131 4.924 1.1168 4.9683 1.1206ZM5.4148 1.1447C5.3965 1.1542 5.3781 1.158 5.3604 1.1586C5.3528 1.1586 5.3452 1.1573 5.3376 1.1567C5.3269 1.1554 5.3168 1.1529 5.3067 1.151C5.2238 1.1358 5.1909 1.1346 5.1359 1.1327C5.134 1.1327 5.1321 1.1327 5.1302 1.1327V1.1238C5.1827 1.1194 5.1846 1.0827 5.1846 1.0504C5.1865 0.979 5.1878 0.9069 5.189 0.8342C5.1897 0.7981 5.1897 0.7665 5.1372 0.7507V0.741798C5.1372 0.741798 5.141 0.741799 5.146 0.743099L5.1764 0.747499C5.1998 0.750699 5.2415 0.751899 5.2763 0.753199C5.289 0.753199 5.2984 0.753799 5.3003 0.753799C5.301 0.753799 5.3016 0.753799 5.3022 0.753799C5.3117 0.753799 5.3554 0.758299 5.3857 0.777899C5.4483 0.817099 5.4686 0.924599 5.3547 0.947399C5.3686 0.950499 5.399 0.9581 5.4243 0.9828C5.4787 1.0353 5.4641 1.1206 5.4135 1.1453L5.4148 1.1447ZM5.2333 0.930899C5.2396 0.930899 5.2453 0.932199 5.251 0.932199C5.2674 0.933499 5.2927 0.9366 5.3041 0.9366C5.4066 0.9391 5.399 0.8297 5.3617 0.788C5.3497 0.7741 5.3149 0.7608 5.2927 0.7633C5.2725 0.7608 5.2371 0.772199 5.2358 0.826599C5.2352 0.861399 5.2346 0.894899 5.2333 0.929699V0.930899ZM5.2978 0.948599C5.2807 0.946699 5.2403 0.943599 5.2333 0.942299C5.2327 0.982099 5.2314 1.0245 5.2308 1.0644C5.2289 1.1466 5.3124 1.139 5.318 1.1384C5.318 1.1384 5.3566 1.1421 5.38 1.1244C5.4123 1.1004 5.4565 0.965099 5.2978 0.948599ZM0.2916 1.1693C0.2511 1.2301 0.2245 1.2598 0.1821 1.2674C0.1746 1.2686 0.1455 1.2731 0.1391 1.2718C0.1037 1.2769 0.0942007 1.2585 0.0911007 1.2098C0.0885007 1.1693 0.0885003 1.1314 0.0873003 1.0903C0.1044 1.0878 0.1252 1.084 0.1499 1.0808C0.1765 1.0789 0.191 1.0865 0.2011 1.1061C0.2005 1.0808 0.201101 1.0555 0.199901 1.0302C0.187801 1.0536 0.170801 1.0644 0.135301 1.0713C0.125201 1.0732 0.104401 1.0764 0.104401 1.0764C0.104401 1.0764 0.0930003 1.0783 0.0873003 1.0789C0.0860003 1.0467 0.0854007 1.0119 0.0841007 0.979599C0.0841007 0.932799 0.0961002 0.915699 0.1385 0.908199C0.1429 0.907499 0.1474 0.9069 0.1518 0.9063C0.2112 0.8968 0.2403 0.916999 0.2593 0.953699L0.251101 0.8829C0.165701 0.8961 0.0822 0.9094 0 0.924C0 0.9271 0 0.929698 0 0.932798C0.0449 0.936598 0.0462005 0.9657 0.0474005 1.0037C0.0493005 1.0751 0.0519004 1.1466 0.0544004 1.2168C0.0557004 1.2547 0.0544001 1.2851 0.0120001 1.3015C0.0120001 1.3034 0.0120001 1.3078 0.0120001 1.3097C0.0968001 1.2952 0.1847 1.2807 0.2732 1.2674L0.2916 1.1693Z" fill="#9DB4DB"/>
</svg>
