<svg width="8" height="2" viewBox="0 0 8 2" fill="none" xmlns="http://www.w3.org/2000/svg">
<path d="M0.00220578 0.83404C0.294117 0.672276 0.603674 0.545071 0.918378 0.434042C1.07573 0.376689 1.23602 0.331101 1.39632 0.283307L1.63896 0.217131L1.88382 0.161249L2.13087 0.111249L2.38014 0.0678667L2.63161 0.0369843L2.88528 0.0141905C2.97058 0.00830814 3.05587 0.00536695 3.14117 0.000955201C3.22719 -0.00125067 3.31322 0.000955078 3.39925 0.00169037C3.48602 0.0075727 3.57352 0.0127197 3.65881 0.0200727C3.74337 0.0303667 3.82866 0.0377198 3.91322 0.0509551C4.25219 0.0950726 4.58381 0.182572 4.90734 0.284778C4.98822 0.310513 5.0691 0.336248 5.14777 0.368601C5.22719 0.399483 5.3066 0.428895 5.3838 0.463453C5.46175 0.497277 5.53969 0.528895 5.61616 0.565659C5.69263 0.601688 5.76983 0.635512 5.84336 0.676688C5.99336 0.754629 6.13895 0.838452 6.2838 0.923011L6.49557 1.05977L6.70292 1.20242C6.97351 1.40022 7.23306 1.60977 7.46983 1.8458L7.45439 1.86639C6.91983 1.48257 6.35586 1.13772 5.75586 0.868599C5.15733 0.597277 4.52425 0.400954 3.87499 0.300954C3.7941 0.286984 3.71249 0.278895 3.63087 0.267866C3.54925 0.259042 3.46763 0.254631 3.38602 0.247278L3.14043 0.241396L2.89411 0.246543C2.56617 0.259778 2.23896 0.297278 1.91396 0.350954C1.26544 0.459777 0.623528 0.620806 0.00955915 0.85757L0 0.83404H0.00220578Z" fill="url(#paint0_linear_1587_26071)"/>
<defs>
<linearGradient id="paint0_linear_1587_26071" x1="-0.0426469" y1="0.816394" x2="7.55659" y2="0.981099" gradientUnits="userSpaceOnUse">
<stop stop-color="#C8D3D9"/>
<stop offset="0.17" stop-color="#B6C2C8"/>
<stop offset="0.5" stop-color="#9AA7AF"/>
<stop offset="0.79" stop-color="#8997A0"/>
<stop offset="1" stop-color="#83929B"/>
</linearGradient>
</defs>
</svg>
