<svg width="3" height="1" viewBox="0 0 3 1" fill="none" xmlns="http://www.w3.org/2000/svg">
<path d="M0.00141698 0.121467C-0.014399 0.118936 0.103905 0.0923652 0.270289 0.0619985C0.276615 0.0607332 0.283575 0.0601003 0.290534 0.0588351C0.528407 0.0253051 0.818155 0 1.19964 0C1.42169 0 1.62604 0.00948922 1.81393 0.0253052C1.88795 0.0316316 2.03536 0.0499779 2.15682 0.0714877C2.10621 0.235341 2.27133 0.506112 2.04231 0.90341C2.03789 0.902777 2.03219 0.901512 2.0246 0.900247C1.95248 0.886329 1.66146 0.831288 1.31921 0.823697C1.29896 0.823697 1.27745 0.823065 1.25657 0.822432C1.2357 0.8218 1.21356 0.822432 1.19078 0.822432C0.701117 0.822432 0.426551 0.885696 0.222209 0.927451C0.200066 0.929981 0.201331 0.910369 0.208291 0.901512C0.224739 0.880635 0.24182 0.869247 0.24182 0.869247C0.24182 0.869247 0.225372 0.864819 0.220311 0.841412C0.214617 0.816739 0.23929 0.788269 0.23929 0.788269C0.238658 0.788269 0.228535 0.786371 0.209556 0.726271C0.177924 0.626313 0.139965 0.368196 0.142495 0.262545C0.145026 0.156894 0.202597 0.105651 0.202597 0.105651C0.202597 0.105651 0.0235594 0.126528 0.00141698 0.122099V0.121467Z" fill="url(#paint0_linear_1587_25460)"/>
<defs>
<linearGradient id="paint0_linear_1587_25460" x1="0.000151698" y1="0.463093" x2="2.16821" y2="0.463093" gradientUnits="userSpaceOnUse">
<stop offset="0.16" stop-color="#E9EEF5"/>
<stop offset="0.49" stop-color="#EDF0F6"/>
</linearGradient>
</defs>
</svg>
