<svg width="7" height="16" viewBox="0 0 7 16" fill="none" xmlns="http://www.w3.org/2000/svg">
<path d="M5.08107 11.6871C4.53403 12.8862 4.55047 14.6215 4.52012 15.5499C4.31142 15.5487 4.05212 15.5468 3.79157 15.5436C3.47662 15.5398 2.77527 15.5493 2.71202 15.5468C2.61906 15.543 2.60578 15.5215 2.60009 15.4734C2.58554 15.3532 2.6608 13.7627 1.94047 12.1835C1.49082 11.1982 0.951995 10.5234 0.528905 9.15677C-0.126283 7.04132 -0.0320525 3.02038 0.0387787 2.32978C0.122891 1.50257 0.279099 0.399628 2.71392 0.0429426C3.02887 -0.00322418 3.65433 -0.0386401 4.26778 -0.0127108H4.26905C5.81342 0.223815 6.055 1.09972 6.18655 1.55949C6.50845 2.68141 6.68679 8.17146 5.08171 11.6877L5.08107 11.6871Z" fill="url(#paint0_linear_1587_25544)"/>
<defs>
<linearGradient id="paint0_linear_1587_25544" x1="-0.011815" y1="7.76418" x2="6.40094" y2="7.76418" gradientUnits="userSpaceOnUse">
<stop offset="0.16" stop-color="#C8D7F1"/>
<stop offset="0.52" stop-color="#DEE8F9"/>
</linearGradient>
</defs>
</svg>
