<svg width="7" height="5" viewBox="0 0 7 5" fill="none" xmlns="http://www.w3.org/2000/svg">
<path d="M0.0267579 4.15159L0 4.06292C0.981628 2.45905 1.96588 1.15162 3.0026 0.0708282L3.16576 0L3.341 0.0671557C4.64476 1.27438 5.76805 2.52988 6.77748 3.91339L6.76069 4.01308L6.63005 4.02252C6.13321 3.72977 5.74129 3.50312 5.26805 3.341L5.18673 3.23869L5.09859 3.13638C5.03825 2.79955 4.88033 2.48161 4.63899 2.21037C4.26177 1.78697 3.80164 1.5535 3.34415 1.5535C2.93439 1.5535 2.54877 1.73346 2.24605 2.0834C1.9748 2.39715 1.81006 2.79378 1.77123 3.17626L1.69201 3.27856L1.61856 3.37982C1.11227 3.56293 0.695167 3.81424 0.171562 4.14214L0.0262327 4.15054L0.0267579 4.15159Z" fill="url(#paint0_linear_3091_44623)"/>
<defs>
<linearGradient id="paint0_linear_3091_44623" x1="2.3473" y1="2.36567" x2="13.9684" y2="0.770717" gradientUnits="userSpaceOnUse">
<stop stop-color="#3FA3DC"/>
<stop offset="0.5" stop-color="#2A78AA"/>
<stop offset="1" stop-color="#3FA3DC"/>
</linearGradient>
</defs>
</svg>
