<svg width="16" height="8" viewBox="0 0 16 8" fill="none" xmlns="http://www.w3.org/2000/svg">
<path d="M14.6848 2.59633C12.7454 0.922469 10.2332 0 7.61131 0C4.98946 0 2.47724 0.922469 0.53779 2.59633C0.351595 2.75701 0.172018 2.9243 0 3.09632L0.346871 3.52447C0.521724 3.34678 0.705083 3.17571 0.896004 3.01031C2.73622 1.42151 5.12178 0.547243 7.61226 0.547243C10.1027 0.547243 12.4883 1.42245 14.3285 3.01031C14.5194 3.17571 14.7028 3.34678 14.8776 3.52447L15.2245 3.09632C15.0525 2.9243 14.8729 2.75701 14.6867 2.59633H14.6848ZM7.61131 4.55847C5.69832 4.55847 3.96302 5.41383 2.90445 6.68034L3.23998 7.09526C4.2012 5.8987 5.83631 5.07641 7.61037 5.07641C9.38442 5.07641 11.0195 5.8987 11.9807 7.09526L12.3163 6.68034C11.2577 5.41478 9.52241 4.55847 7.60942 4.55847H7.61131ZM13.4344 3.11995L13.3352 3.04339C13.1792 2.92336 13.0563 2.97534 12.9665 3.03299L10.6349 4.5424L11.2445 4.88738L12.7312 3.92616L12.4751 4.79003L12.2492 4.62085L11.8598 4.89967L12.3437 5.26072L12.2312 5.64823L12.7652 6.13687L13.5393 3.47343C13.5696 3.37986 13.5913 3.24093 13.4344 3.11995ZM9.78233 2.07177L10.7643 2.32602L10.9193 1.72774L9.90992 1.46593C9.35701 1.32227 8.978 1.52926 8.84285 2.04909L8.43076 3.63978C8.41186 3.7135 8.41942 3.78344 8.45344 3.84015C8.48747 3.89781 8.54418 3.93845 8.6179 3.95735L8.99312 4.0547L9.25871 3.02543L10.3948 3.31937L10.5479 2.72771L9.41183 2.43282L9.45625 2.26269C9.51485 2.0368 9.58195 2.0179 9.78327 2.06988L9.78233 2.07177ZM6.59622 1.19373L4.95827 1.52642C4.8836 1.54154 4.82406 1.57935 4.7872 1.63511C4.75034 1.69088 4.73899 1.75987 4.75412 1.83454L5.08114 3.44319C5.13407 3.705 5.25127 3.89308 5.4299 4.00366C5.54804 4.07644 5.68887 4.11236 5.85238 4.11236C5.93556 4.11236 6.0244 4.10291 6.11797 4.084L7.14157 3.87607L7.0187 3.26928L6.02251 3.47154C5.81836 3.51313 5.7522 3.49045 5.70588 3.26172L5.67091 3.08876L6.82305 2.8553L6.70113 2.25513L5.54899 2.48858L5.46109 2.0576L6.72003 1.8024L6.59716 1.19467L6.59622 1.19373ZM4.02257 4.50743C4.05565 4.21632 3.9668 3.94507 3.75036 3.67759L2.72865 2.42148L2.223 2.83262L3.16059 3.98665C3.3241 4.18702 3.36947 4.29855 3.35434 4.46206C3.343 4.59155 3.26361 4.72482 3.13791 4.82689C3.0122 4.92897 2.8657 4.97906 2.73622 4.96394C2.5727 4.94504 2.47346 4.87793 2.3109 4.67756L1.37331 3.52447L0.867649 3.93561L1.88936 5.19267C2.10674 5.4592 2.35437 5.60097 2.64548 5.62838C2.67951 5.63122 2.71353 5.63311 2.74756 5.63405C3.03016 5.63689 3.29291 5.5367 3.54716 5.33066C3.8307 5.0991 3.98665 4.82879 4.02257 4.50743Z" fill="#F2365A"/>
</svg>
