<svg width="5" height="2" viewBox="0 0 5 2" fill="none" xmlns="http://www.w3.org/2000/svg">
<path d="M4.54101 0.349051C4.40511 0.337051 4.07621 0.28905 4.07181 0.34655C4.06801 0.39715 4.63911 0.50465 4.54361 0.60205C4.41201 0.73615 4.36712 0.97835 4.36211 1.17885C4.35261 1.50385 4.47781 1.56655 4.43161 1.63925C4.40061 1.68795 4.18251 1.66895 3.72901 1.63795C3.39831 1.58735 3.04541 1.55005 2.69501 1.55005C2.18911 1.55005 1.59651 1.62085 1.12471 1.71705C0.657314 1.81315 0.260215 1.89785 0.224115 1.84285C0.178615 1.77265 0.302615 1.72655 0.293715 1.41405C0.288015 1.22125 0.298115 0.99925 0.167915 0.86895C0.0654146 0.76585 0.592214 0.58055 0.589714 0.52495C0.586514 0.46295 0.308915 0.521751 0.172915 0.533751C0.0970147 0.540751 -0.0142854 0.572351 0.00151464 0.507851C0.625715 0.203051 1.68881 0 2.69501 0C3.43371 0 4.16101 0.0967606 4.78391 0.279551C4.80101 0.302251 4.60371 0.354751 4.54101 0.349051Z" fill="url(#paint0_linear_1591_39936)"/>
<defs>
<linearGradient id="paint0_linear_1591_39936" x1="0.000314643" y1="0.93025" x2="4.78521" y2="0.93025" gradientUnits="userSpaceOnUse">
<stop offset="0.16" stop-color="#D8E3F5"/>
<stop offset="0.49" stop-color="#E8EFFB"/>
</linearGradient>
</defs>
</svg>
