<svg width="2" height="1" viewBox="0 0 2 1" fill="none" xmlns="http://www.w3.org/2000/svg">
<path d="M0 0.319484L0.00948922 0.310626L0.120834 0.403625C0.130957 0.411849 0.140446 0.416278 0.154364 0.416278C0.137283 0.423237 0.115773 0.416278 0.103753 0.406156L0 0.319484ZM0.61809 0.00316436L0.634538 0.054408L0.496623 0.0854068L0.50548 0.114508L0.52256 0.110712L0.514337 0.0835089L0.652252 0.0525102L0.635804 0L0.618722 0.00379569L0.61809 0.00316436ZM0.674395 0.170814L0.690843 0.222691L0.473215 0.273301L0.469419 0.277097L0.708557 0.222057L0.691475 0.167018L0.674395 0.170814ZM0.65415 0.13665L0.521296 0.166385L0.532683 0.203079L0.549764 0.199281L0.538376 0.164487L0.671231 0.134753L0.65415 0.0809778L0.637068 0.0847735L0.653517 0.137284L0.65415 0.13665ZM1.37789 0.40236L1.38485 0.39034L1.34879 0.35681L1.42597 0.322647L1.42977 0.315689L1.33171 0.359339L1.37789 0.401727V0.40236ZM0.245465 0.284688L0.135385 0.194854L0.125896 0.20371L0.228383 0.287852C0.228383 0.287852 0.235342 0.294178 0.238506 0.296708C0.318218 0.37389 0.222057 0.478277 0.138548 0.497256C0.22522 0.490297 0.341626 0.375789 0.256219 0.293546C0.253056 0.291015 0.24926 0.287219 0.246097 0.284688H0.245465ZM1.28489 0.382115L1.24504 0.401094L1.24883 0.404889L1.28869 0.385911L1.28489 0.382115ZM0.960981 0.162589L0.93441 0.24926L0.949592 0.253056L0.976163 0.166385L0.960981 0.162589ZM1.45064 0.242934L1.43609 0.247996L1.50062 0.306198L1.38675 0.532684L1.3975 0.542806L1.5177 0.303035L1.45064 0.242302V0.242934ZM1.0021 0.0816111L0.986919 0.0778154L0.974899 0.115141L1.07739 0.139182L1.06347 0.185363L1.07865 0.189161L1.09447 0.13665L0.991979 0.11261L1.00147 0.0816111H1.0021ZM0.926185 0.0151847L1.12357 0.0601016L1.10965 0.106916L1.12483 0.110712L1.14065 0.0575705L0.921756 0.00759137L0.926185 0.0151847Z" fill="#2B4688"/>
</svg>
