<svg width="2" height="3" viewBox="0 0 2 3" fill="none" xmlns="http://www.w3.org/2000/svg">
<path d="M1.3096 0.00189972C1.3096 0.00189972 1.3058 0.00369997 1.3026 0.00629997C1.2963 0.0101 1.2874 0.0169985 1.2741 0.0283985C1.1742 0.120799 1.1033 0.2309 1.028 0.3473L1.0065 0.380199C0.7832 0.723099 0.409301 1.5227 0.336601 1.6796C0.220801 1.9301 0.0430008 2.4141 0.00760078 2.7077C0.00510078 2.7077 0.0025 2.7077 0 2.7077C0.0348 2.4141 0.2126 1.9308 0.3283 1.6802C0.4011 1.5234 0.775001 0.723698 0.998301 0.380798L1.0198 0.347898C1.0951 0.231498 1.1659 0.121399 1.2659 0.0290985C1.2836 0.0125985 1.295 0.00499863 1.3013 0.00249863C1.3032 0.00179863 1.3058 0 1.3058 0H1.3083L1.3096 0.00309944V0.00189972Z" fill="url(#paint0_linear_1591_40097)"/>
<defs>
<linearGradient id="paint0_linear_1591_40097" x1="0" y1="1.3532" x2="1.3096" y2="1.3532" gradientUnits="userSpaceOnUse">
<stop stop-color="#BACBE6"/>
<stop offset="0.69" stop-color="#9AB0D8"/>
<stop offset="0.72" stop-color="#869BC3"/>
<stop offset="0.75" stop-color="#768AB3"/>
<stop offset="0.79" stop-color="#6B7EA8"/>
<stop offset="0.84" stop-color="#6577A1"/>
<stop offset="1" stop-color="#6476A0"/>
</linearGradient>
</defs>
</svg>
