<svg width="7" height="16" viewBox="0 0 7 16" fill="none" xmlns="http://www.w3.org/2000/svg">
<path d="M5.39855 11.8605C4.87048 13.0172 4.81799 14.645 4.787 15.5506C4.58273 15.5506 4.1881 15.5481 3.79157 15.5431C3.47662 15.5393 2.77527 15.5487 2.71202 15.5462C2.61906 15.5424 2.60578 15.5209 2.60009 15.4729C2.58554 15.3527 2.6608 13.7622 1.94047 12.183C1.49082 11.1977 0.951995 10.5229 0.528905 9.15623C-0.126283 7.04078 -0.0320525 3.01984 0.0387787 2.32924C0.122891 1.50203 0.279099 0.399088 2.71392 0.0424027C3.13258 -0.0195746 4.10335 -0.0613149 4.85087 0.0379752C5.01277 0.0613748 5.16392 0.0885699 5.30369 0.118926C7.33376 0.545178 6.96253 3.94761 6.92838 4.71473C6.78925 7.82625 6.27129 9.94928 5.39918 11.8605H5.39855Z" fill="url(#paint0_linear_1587_25512)"/>
<defs>
<linearGradient id="paint0_linear_1587_25512" x1="-0.011815" y1="7.76427" x2="6.97581" y2="7.76427" gradientUnits="userSpaceOnUse">
<stop offset="0.16" stop-color="#F6F9FD"/>
<stop offset="0.52" stop-color="#FAFBFE"/>
</linearGradient>
</defs>
</svg>
