<svg width="5" height="2" viewBox="0 0 5 2" fill="none" xmlns="http://www.w3.org/2000/svg">
<path d="M4.42783 0.308621C4.29186 0.296605 4.00032 0.270043 3.99463 0.327594C3.98893 0.384512 4.53977 0.48317 4.44428 0.580562C4.31273 0.714636 4.26783 0.94547 4.26277 1.14595C4.25329 1.47101 4.37851 1.53425 4.33234 1.60635C4.29882 1.65884 4.07494 1.64366 3.56711 1.61204C3.28252 1.57473 2.98844 1.55006 2.695 1.55006C2.18906 1.55006 1.59648 1.6209 1.1247 1.71702C0.657337 1.81315 0.260177 1.8979 0.224129 1.84288C0.178595 1.77268 0.302549 1.72651 0.293695 1.41409C0.288003 1.22121 0.298122 0.999225 0.167844 0.868946C0.0653914 0.765862 0.592198 0.580562 0.589669 0.524909C0.586507 0.462932 0.308874 0.521748 0.172903 0.533764C0.0970125 0.54072 -0.0142941 0.572341 0.00151649 0.507834C0.625716 0.203007 1.68882 0 2.695 0C3.39825 0 4.09075 0.0872735 4.69408 0.252336C4.72254 0.261822 4.48855 0.314313 4.42657 0.308621H4.42783Z" fill="url(#paint0_linear_1587_25627)"/>
<defs>
<linearGradient id="paint0_linear_1587_25627" x1="0.000884069" y1="0.930292" x2="4.69788" y2="0.930292" gradientUnits="userSpaceOnUse">
<stop offset="0.16" stop-color="#C9D8F1"/>
<stop offset="0.49" stop-color="#DFE9F9"/>
</linearGradient>
</defs>
</svg>
