<svg width="5" height="4" viewBox="0 0 5 4" fill="none" xmlns="http://www.w3.org/2000/svg">
<path d="M3.44486 2.3202L2.72815 0.739C2.68361 0.6499 2.5925 0.592201 2.49532 0.592201C2.39814 0.592201 2.30805 0.641801 2.26755 0.722801L1.55793 2.3202L0.60536 0H0L1.32814 3.0693C1.35952 3.1472 1.45771 3.207 1.55591 3.207C1.64195 3.207 1.75027 3.1634 1.78367 3.0703L2.48925 1.4395L3.20697 3.0713C3.23936 3.1442 3.34262 3.208 3.42866 3.208C3.53192 3.208 3.61796 3.1573 3.65643 3.0713L4.98457 0.000999451H4.3782L3.44385 2.3212L3.44486 2.3202Z" fill="white"/>
</svg>
