<svg width="6" height="1" viewBox="0 0 6 1" fill="none" xmlns="http://www.w3.org/2000/svg">
<path d="M1.59712 0.0917009C1.98163 0.0335181 2.40598 0.000632421 2.87334 0C2.90054 0 2.92773 0 2.95493 0C3.39383 0.00316211 3.79478 0.0347834 4.15906 0.0891717C4.18182 0.0923338 4.20459 0.0961276 4.22673 0.0992897C4.28301 0.108144 4.33866 0.117631 4.39305 0.127749C4.40886 0.130912 4.42404 0.133441 4.43985 0.136603C4.44048 0.136603 4.44112 0.136603 4.44175 0.136603C5.26896 0.361113 5.77995 0.658983 4.66057 0.427517C4.60365 0.414868 4.5461 0.403485 4.48855 0.392101C4.41519 0.378188 4.34183 0.365539 4.26783 0.353523C2.91698 0.1385 1.46241 0.248541 0.239941 0.661512C-0.0636216 0.763965 -0.0806968 0.705783 0.197569 0.54578C0.581448 0.32633 1.1032 0.183402 1.59585 0.0910688L1.59712 0.0917009Z" fill="url(#paint0_linear_3091_43996)"/>
<defs>
<linearGradient id="paint0_linear_3091_43996" x1="0.0008855" y1="0.356686" x2="5.30627" y2="0.356686" gradientUnits="userSpaceOnUse">
<stop offset="0.16" stop-color="#F5F8FC"/>
<stop offset="0.49" stop-color="#F9FBFE"/>
</linearGradient>
</defs>
</svg>
