<svg width="3" height="4" viewBox="0 0 3 4" fill="none" xmlns="http://www.w3.org/2000/svg">
<path d="M1.86071 2.08762C1.85438 2.58218 1.90877 2.93886 1.83225 3.10709C1.6577 3.08558 1.49327 3.0742 1.25485 3.0742C0.809621 3.0742 0.590171 3.10898 0.43839 3.13744C0.307479 3.15072 0.267004 3.09381 0.261945 3.02045C0.249296 2.8421 0.270798 2.52589 0.274593 2.32858C0.285344 1.76572 0.232221 1.37994 0.15886 0.965076C0.0627316 0.418664 -0.0327638 0.216288 0.0108733 0.197948C0.428271 0.0240323 0.927252 0 1.24599 0C1.48758 0 1.75889 0.00189781 2.10356 0.0815829C1.95747 1.02958 1.86956 1.3382 1.86071 2.08762Z" fill="url(#paint0_linear_3091_43940)"/>
<defs>
<linearGradient id="paint0_linear_3091_43940" x1="-0.000510303" y1="1.56967" x2="2.10356" y2="1.56967" gradientUnits="userSpaceOnUse">
<stop offset="0.16" stop-color="#CBD9F2"/>
<stop offset="0.49" stop-color="#E0E9F9"/>
</linearGradient>
</defs>
</svg>
