<svg width="2" height="3" viewBox="0 0 2 3" fill="none" xmlns="http://www.w3.org/2000/svg">
<path d="M0.324112 0.625097C0.299412 0.668697 0.257012 0.747198 0.193812 0.800898L0.179812 0.701597C0.213412 0.702897 0.246313 0.662397 0.314013 0.586497C0.381013 0.509897 0.417112 0.422597 0.439812 0.301097C0.442412 0.318197 0.433512 0.378997 0.431012 0.401697C0.419612 0.502997 0.370912 0.542197 0.324112 0.625097ZM1.34011 0.242297C1.36161 0.235997 1.37111 0.233498 1.38751 0.227098C1.44321 0.129698 1.46221 -0.0696026 1.43631 0.0246974C1.42491 0.0651974 1.40271 0.116397 1.38751 0.164497C1.36601 0.233497 1.34011 0.242297 1.34011 0.242297ZM0.851712 0.284097C0.857412 0.286597 0.877012 0.289797 0.899112 0.292297C0.918812 0.258097 0.961113 0.188497 0.964313 0.153697C0.949813 0.147997 0.942212 0.144897 0.930112 0.135997C0.932712 0.218897 0.851712 0.284097 0.851712 0.284097ZM0.000211716 1.7379C0.0571117 1.8733 0.0457125 1.9783 0.0331125 2.0213C-0.00238748 2.1396 0.00901172 2.3129 0.000211716 2.4553C0.0153117 2.4464 0.0375118 2.4331 0.0375118 2.4331C0.0356118 2.4047 0.0495119 2.2813 0.0495119 2.2003C0.0495119 2.1194 0.118512 2.0561 0.0653124 1.872C0.0552124 1.8359 0.000211716 1.7379 0.000211716 1.7379ZM0.0704117 1.5038C0.0704117 1.4873 0.067212 1.4121 0.068512 1.3773C0.069812 1.3425 0.042612 1.2925 0.036212 1.2843C0.00591197 1.2716 0.0210122 1.3115 0.0343122 1.3399C0.0476122 1.3684 0.0242124 1.4038 0.0274124 1.4601C0.0324124 1.5367 0.0868124 1.6733 0.0267124 1.7486C0.0407124 1.772 0.0482122 1.7904 0.0666122 1.8315C0.107712 1.7467 0.0729117 1.5981 0.0704117 1.5038ZM0.174812 0.782598C0.164712 0.757298 0.157712 0.764898 0.138712 0.757298C0.119712 0.749698 0.142512 0.838897 0.134312 0.890097C0.130512 0.913497 0.0976126 1.1571 0.0577126 1.178L0.0849123 1.2659C0.136812 1.202 0.153312 1.0578 0.158312 0.999598C0.162112 0.961598 0.184912 0.807898 0.174812 0.782598ZM0.450012 0.376397C0.448712 0.395397 0.448712 0.398598 0.448712 0.418798C0.535412 0.414998 0.715012 0.368797 0.796712 0.248597C0.809312 0.230297 0.877613 0.0790968 0.868813 0.00319683C0.837113 0.105697 0.785312 0.244798 0.695412 0.309998C0.634712 0.353698 0.541712 0.394097 0.450012 0.376397Z" fill="#6476A0"/>
</svg>
