<svg width="29" height="29" viewBox="0 0 29 29" fill="none" xmlns="http://www.w3.org/2000/svg">
<path opacity="0.3" d="M3.05819 28.537C3.02584 28.5032 3.42731 28.4267 3.58245 28.387C6.04715 27.7532 10.7368 26.2297 11.292 26.0164C13.1001 25.3312 16.7162 23.9665 19.6508 21.9657C19.739 21.9062 19.825 21.8466 19.9089 21.7885L19.9214 21.7797C19.9809 21.7385 20.039 21.6966 20.0971 21.6554L20.1795 21.5973C20.2449 21.551 20.3089 21.5047 20.3714 21.4584C20.3795 21.4525 20.392 21.4437 20.4037 21.4348L20.4192 21.4238C20.4853 21.3753 20.5493 21.3275 20.6118 21.2797C20.614 21.2782 20.6162 21.276 20.6192 21.2745C20.6236 21.2716 20.628 21.2679 20.6324 21.265C20.6361 21.2621 20.6442 21.2554 20.6478 21.2525C20.7133 21.204 20.775 21.1554 20.8361 21.1076C20.839 21.1054 20.842 21.1032 20.8449 21.101L20.842 21.104C20.8456 21.1003 20.85 21.0973 20.8537 21.0937C20.9147 21.0451 20.9743 20.9988 21.0309 20.9525C21.0375 20.9466 21.0449 20.9407 21.0515 20.9348C21.1059 20.89 21.1581 20.8466 21.2089 20.804C21.214 20.7988 21.2192 20.7944 21.225 20.7893C21.275 20.7473 21.3228 20.7054 21.3677 20.665C21.3699 20.6628 21.3728 20.6606 21.375 20.6576C21.3883 20.6459 21.4015 20.6334 21.4155 20.6216C21.4309 20.6076 21.4471 20.5944 21.4603 20.5804C21.4647 20.576 21.4692 20.5716 21.4743 20.5679C22.3434 19.8253 23.1162 19.0113 23.7706 18.1496C24.525 17.1503 25.2611 16.0474 25.7309 14.979C25.7713 14.8885 25.8361 14.7378 25.9191 14.5305C25.9221 14.5231 25.9265 14.5121 25.9309 14.501L25.9588 14.4305C25.9772 14.3834 25.9963 14.3356 26.0147 14.2856L26.0346 14.2334C26.0515 14.1893 26.0684 14.1452 26.0846 14.0988C26.0963 14.0657 26.1081 14.0349 26.1191 14.0032C26.1405 13.9422 26.1603 13.8871 26.1802 13.8297L26.1883 13.8062C26.1963 13.7827 26.2044 13.7591 26.2111 13.7356C26.2118 13.7327 26.2133 13.7297 26.214 13.726C26.2338 13.6672 26.253 13.6084 26.2721 13.5474C26.2816 13.518 26.289 13.4944 26.2963 13.4709L26.3066 13.4378C26.325 13.376 26.3441 13.3106 26.3625 13.2437C26.3728 13.2084 26.3816 13.1783 26.3905 13.1466C26.4162 13.051 26.4419 12.9518 26.4655 12.8525C26.7228 11.8334 26.7875 10.6356 26.7618 9.61135C26.7618 9.58709 26.7618 9.56356 26.7618 9.54003C26.7618 9.52459 26.7625 9.50915 26.7618 9.49371C26.7456 9.31356 26.739 9.19003 26.7331 9.05988V9.05106C26.728 8.95841 26.7236 8.87091 26.7133 8.77018C26.7133 8.7643 26.7125 8.75768 26.7118 8.7518C26.7074 8.70253 26.7008 8.63856 26.6905 8.56209C26.3022 5.42828 24.1574 2.88343 21.8787 2.33858C21.492 2.24667 21.1015 2.19594 20.7199 2.18785C17.8258 2.12535 15.6324 4.44078 14.8082 5.32019C14.5817 5.56284 14.1699 5.96945 14.1699 5.96945L13.8008 5.56063C11.8148 3.20549 9.70523 1.88491 7.86332 1.84447C7.03538 1.82682 6.24347 2.06432 5.50965 2.55182C4.03172 3.53417 1.42658 6.76724 2.14716 11.9738C2.28761 12.868 2.36555 13.1731 2.45599 13.526L2.4729 13.5922C2.49496 13.6783 2.51702 13.7687 2.54128 13.8709C2.73834 14.5797 2.98246 15.365 3.28393 16.09C4.29054 18.4929 6.54127 20.8871 7.76479 21.9326C7.88906 22.0385 7.75597 23.6304 7.65891 23.5451C5.77068 21.8907 3.24422 19.3635 1.56187 15.1371C1.14864 14.0988 0.796434 12.9525 0.57364 11.9033C0.538346 11.7378 0.448641 12.6187 0.375112 12.4922C0.212612 12.2099 0.0332011 10.968 0.00746585 10.654C-0.0226811 10.2841 0.0442306 8.80327 0.10526 8.1665C0.165554 7.56209 0.325112 5.89739 1.28614 3.99152C2.24716 2.08564 4.9023 0.534913 6.42509 0.16065C6.4273 0.16065 6.4295 0.159914 6.43244 0.159914L6.4523 0.156973C6.91333 0.0437382 7.38832 -0.00846752 7.86553 0.00182657C9.88758 0.0459441 12.0221 1.17241 14.1265 3.34961C14.1479 3.37167 14.1677 3.39226 14.1868 3.41211C17.0383 0.711383 19.5478 -0.0327323 21.1272 0.00109112C21.4258 0.00770874 21.725 0.0349146 22.0177 0.0827085C25.6441 0.662118 26.8603 3.09152 27.6177 4.99299C29.253 9.09812 28.3544 14.6893 25.164 18.8128C23.2294 21.312 20.8317 23.5216 17.5846 25.1547C14.5008 26.7061 11.6383 27.4334 10.2067 27.7289C6.82141 28.4458 4.33025 28.6356 3.05746 28.5356L3.05819 28.537ZM21.2052 20.8084C21.1986 20.815 21.1905 20.8238 21.1817 20.8348C21.189 20.8253 21.1971 20.8172 21.2052 20.8084Z" fill="url(#paint0_linear_3091_44525)" style="mix-blend-mode:overlay"/>
<defs>
<linearGradient id="paint0_linear_3091_44525" x1="2.74636" y1="18.5468" x2="26.7667" y2="2.30327" gradientUnits="userSpaceOnUse">
<stop offset="0.33"/>
<stop offset="0.34" stop-color="#131313"/>
<stop offset="0.37" stop-color="#494949"/>
<stop offset="0.4" stop-color="#7A7A7A"/>
<stop offset="0.43" stop-color="#A3A3A3"/>
<stop offset="0.46" stop-color="#C4C4C4"/>
<stop offset="0.5" stop-color="#DEDEDE"/>
<stop offset="0.53" stop-color="#F0F0F0"/>
<stop offset="0.56" stop-color="#FBFBFB"/>
<stop offset="0.6" stop-color="white"/>
<stop offset="0.63" stop-color="#F6F6F6"/>
<stop offset="0.67" stop-color="#DFE0E0"/>
<stop offset="0.72" stop-color="#B9BBBB"/>
<stop offset="0.78" stop-color="#848889"/>
<stop offset="0.84" stop-color="#414749"/>
<stop offset="0.87" stop-color="#232A2C"/>
</linearGradient>
</defs>
</svg>
