<svg width="3" height="1" viewBox="0 0 3 1" fill="none" xmlns="http://www.w3.org/2000/svg">
<path d="M0.00143131 0.1215C-0.0144687 0.119 0.103831 0.0930003 0.270231 0.0620003C0.276631 0.0608003 0.283531 0.0600999 0.290531 0.0588999C0.528331 0.0252999 0.818132 0 1.19963 0C1.43243 0 1.64623 0.0107997 1.83853 0.0271997C1.91073 0.0335997 2.06823 0.0537999 2.19543 0.0771999C2.14603 0.2499 2.31303 0.4745 2.07643 0.9104C2.07203 0.9098 2.06633 0.9085 2.05873 0.9072C1.97393 0.8914 1.65323 0.8326 1.32483 0.8237C1.30333 0.8237 1.28123 0.8231 1.25903 0.8225C1.23693 0.8218 1.21413 0.8225 1.19073 0.8225C0.701131 0.8225 0.426532 0.8857 0.222232 0.9275C0.200032 0.93 0.201332 0.9104 0.208232 0.9015C0.224732 0.8807 0.241832 0.8693 0.241832 0.8693C0.241832 0.8693 0.225331 0.8649 0.220331 0.8414C0.214631 0.8168 0.239931 0.7877 0.239931 0.7877C0.239231 0.7877 0.228532 0.7864 0.209532 0.7263C0.177932 0.6263 0.139931 0.3682 0.142431 0.2626C0.145031 0.1569 0.202532 0.1057 0.202532 0.1057C0.202532 0.1057 0.0235313 0.126 0.00143131 0.1215Z" fill="url(#paint0_linear_1591_39782)"/>
<defs>
<linearGradient id="paint0_linear_1591_39782" x1="-0.000468697" y1="0.4631" x2="2.20673" y2="0.4631" gradientUnits="userSpaceOnUse">
<stop offset="0.16" stop-color="#F5F7FA"/>
<stop offset="0.49" stop-color="#F7F8FB"/>
</linearGradient>
</defs>
</svg>
