<svg width="6" height="5" viewBox="0 0 6 5" fill="none" xmlns="http://www.w3.org/2000/svg">
<path d="M5.90778 4.58167L5.9007 4.61508H4.55535V1.38483L3.2505 3.98239H2.57124L1.26639 1.38483V3.94898C1.26639 4.21319 1.42431 4.45615 1.64195 4.58167L1.63486 4.61508H0.375562V0.666095C0.375562 0.401885 0.217645 0.158933 0 0.0334076L0.0070853 0H1.26639C1.41115 0 1.54983 0.0334061 1.61563 0.171079L2.76257 2.45179L2.90733 2.74839H2.91441L3.05917 2.45179L4.23951 0.171079C4.3124 0.0323938 4.444 0 4.58876 0H5.53121V3.94898C5.53121 4.21319 5.68913 4.45615 5.90677 4.58167H5.90778Z" fill="white"/>
</svg>
