<svg width="6" height="1" viewBox="0 0 6 1" fill="none" xmlns="http://www.w3.org/2000/svg">
<path d="M1.59589 0.0916996C1.97019 0.0347896 2.38259 0.0019 2.83539 0C2.86199 0 2.88849 0 2.91509 0C3.34009 0.00127 3.72899 0.0303596 4.08509 0.0790596C4.10719 0.0822196 4.12929 0.0853801 4.15149 0.0885401C4.20589 0.0967601 4.26019 0.10498 4.31269 0.11447C4.32789 0.117 4.34369 0.12016 4.35829 0.12269H4.36019C5.08299 0.31811 5.36699 0.52175 4.55239 0.40602C4.49679 0.394 4.43989 0.383879 4.38419 0.373759C4.31019 0.360479 4.23619 0.349099 4.16159 0.338349C2.84109 0.147989 1.43019 0.260559 0.239894 0.662149C-0.0636065 0.764599 -0.0807067 0.70642 0.197593 0.54642C0.581493 0.32696 1.10319 0.18404 1.59589 0.0916996Z" fill="url(#paint0_linear_1591_39975)"/>
<defs>
<linearGradient id="paint0_linear_1591_39975" x1="-0.000406597" y1="0.35669" x2="5.04629" y2="0.35669" gradientUnits="userSpaceOnUse">
<stop offset="0.16" stop-color="#DBE5F6"/>
<stop offset="0.49" stop-color="#E9F0FB"/>
</linearGradient>
</defs>
</svg>
