<svg width="3" height="3" viewBox="0 0 3 3" fill="none" xmlns="http://www.w3.org/2000/svg">
<path d="M2.02192 2.24524C2.02192 2.24524 1.87072 1.63221 1.74862 1.44115C1.74292 1.15393 1.71888 1.07422 1.59995 0.928716C1.42723 0.716782 0.964142 0.475112 0.928082 0.475112C0.895817 0.475112 0.973 0.531418 0.990081 0.547234C1.06853 0.622518 1.22416 0.747147 1.31463 0.919858C1.16469 0.788269 0.873674 0.637701 0.704127 0.54407C0.555456 0.332768 0.259382 0.118936 0 0C0.357442 0.0847738 0.699066 0.232178 0.961612 0.365665C1.28299 0.528253 1.61829 0.649721 2.02888 1.13116C2.30471 1.45444 2.13453 1.90488 2.02192 2.24587V2.24524Z" fill="#BE0A46"/>
</svg>
