<svg width="6" height="1" viewBox="0 0 6 1" fill="none" xmlns="http://www.w3.org/2000/svg">
<path d="M1.59585 0.0917009C1.97151 0.034783 2.38638 0.00189726 2.84172 0C2.86828 0 2.89485 0 2.92141 0C3.34893 0.00126484 3.73976 0.0309886 4.09708 0.0809499C4.11921 0.084112 4.14135 0.0872737 4.16348 0.0904358C4.2185 0.0986573 4.27289 0.106879 4.32602 0.116365C4.34119 0.118895 4.357 0.122057 4.37155 0.124587C4.37218 0.124587 4.37281 0.124587 4.37345 0.124587C5.11338 0.325065 5.43592 0.543882 4.57013 0.409177C4.51384 0.397161 4.45756 0.386409 4.40127 0.376923C4.32791 0.363642 4.25329 0.351626 4.17929 0.340875C2.85374 0.146722 1.43585 0.25866 0.239941 0.662145C-0.0636216 0.764598 -0.0806968 0.706415 0.197569 0.546412C0.581448 0.326962 1.1032 0.184034 1.59585 0.0917009Z" fill="url(#paint0_linear_3091_44011)"/>
<defs>
<linearGradient id="paint0_linear_3091_44011" x1="-0.000379343" y1="0.356686" x2="5.08935" y2="0.356686" gradientUnits="userSpaceOnUse">
<stop offset="0.16" stop-color="#DFE8F7"/>
<stop offset="0.49" stop-color="#ECF2FC"/>
</linearGradient>
</defs>
</svg>
