<svg width="5" height="2" viewBox="0 0 5 2" fill="none" xmlns="http://www.w3.org/2000/svg">
<path d="M4.54104 0.349096C4.40507 0.33708 4.07621 0.289016 4.07178 0.346567C4.06799 0.39716 4.63906 0.504672 4.54357 0.602065C4.41202 0.736138 4.36712 0.978356 4.36206 1.17883C4.35258 1.5039 4.4778 1.56651 4.43163 1.63924C4.40064 1.68793 4.18245 1.66896 3.72901 1.63797C3.39825 1.58738 3.04536 1.55006 2.695 1.55006C2.18906 1.55006 1.59648 1.6209 1.1247 1.71702C0.657338 1.81315 0.260177 1.8979 0.224129 1.84288C0.178595 1.77268 0.30255 1.72651 0.293696 1.41409C0.288004 1.22121 0.298122 0.999225 0.167844 0.868946C0.0653914 0.765862 0.592198 0.580562 0.589669 0.524909C0.586507 0.462932 0.308874 0.521748 0.172903 0.533764C0.0970125 0.54072 -0.0142941 0.572341 0.00151649 0.507834C0.625716 0.203007 1.68882 0 2.695 0C3.43367 0 4.16095 0.0967604 4.78389 0.27953C4.80096 0.302297 4.60365 0.355421 4.54104 0.349729V0.349096Z" fill="url(#paint0_linear_1587_25617)"/>
<defs>
<linearGradient id="paint0_linear_1587_25617" x1="0.000251648" y1="0.930292" x2="4.78515" y2="0.930292" gradientUnits="userSpaceOnUse">
<stop offset="0.16" stop-color="#D8E3F5"/>
<stop offset="0.49" stop-color="#E8EFFB"/>
</linearGradient>
</defs>
</svg>
