<svg width="6" height="1" viewBox="0 0 6 1" fill="none" xmlns="http://www.w3.org/2000/svg">
<path d="M1.59648 0.0917009C1.9753 0.0341506 2.39334 0.00126484 2.85247 0C2.87904 0 2.90623 0 2.93279 0C3.3641 0.00189726 3.7581 0.0316206 4.11795 0.0834791C4.14008 0.0866412 4.16285 0.0898039 4.18499 0.092966C4.24064 0.101188 4.29503 0.110041 4.34878 0.12016C4.36396 0.122689 4.37977 0.125852 4.39495 0.128381C4.39558 0.128381 4.39621 0.128381 4.39685 0.128381C5.16587 0.336448 5.55102 0.58246 4.60112 0.414868C4.54483 0.402852 4.48792 0.391469 4.431 0.38135C4.35764 0.368069 4.28364 0.356053 4.20902 0.344669C2.87524 0.143559 1.4447 0.254865 0.239941 0.661512C-0.0636216 0.763965 -0.0806968 0.705783 0.197569 0.54578C0.581448 0.32633 1.1032 0.183402 1.59585 0.0910688L1.59648 0.0917009Z" fill="url(#paint0_linear_3091_44006)"/>
<defs>
<linearGradient id="paint0_linear_3091_44006" x1="0.000253079" y1="0.356686" x2="5.16208" y2="0.356686" gradientUnits="userSpaceOnUse">
<stop offset="0.16" stop-color="#E6EDF9"/>
<stop offset="0.49" stop-color="#F0F5FC"/>
</linearGradient>
</defs>
</svg>
