<svg width="1" height="7" viewBox="0 0 1 7" fill="none" xmlns="http://www.w3.org/2000/svg">
<path d="M0.909674 3.63263C0.767379 3.42519 0.642792 3.02424 0.605479 2.91357C0.605479 2.74281 0.605479 2.25964 0.601685 2.08636C0.74398 1.93141 0.810384 1.86754 0.870464 1.80177C0.799 1.1782 0.63204 0.502775 0.141913 0C0.298121 0.192256 0.376541 0.376922 0.307607 0.653291C0.238041 0.933453 0.182389 1.06373 0.0521104 1.32429C0.152665 2.71625 0.0729792 3.9267 0.0173261 5.30791C0.00910461 5.51724 -0.0250455 5.83346 0.0337697 6.03773C0.0755095 6.18192 0.205156 6.08516 0.27915 5.93717C0.425239 5.6431 0.464448 5.27439 0.479626 5.27439C0.492907 5.27439 0.499865 5.36293 0.548562 5.50902C0.635203 5.77337 0.745243 5.88278 0.816075 6.02381C0.887538 5.27376 0.904615 4.67107 0.910307 3.82868C0.910307 3.82425 0.910307 3.63769 0.910307 3.63263H0.909674ZM0.342392 3.77366C0.338597 3.87295 0.293695 4.27264 0.225393 4.25936C0.191243 4.2524 0.197567 4.01208 0.1982 3.89319C0.200097 3.56496 0.217173 3.01981 0.214643 2.71372C0.257648 2.61886 0.290534 2.54423 0.356938 2.4304C0.356938 2.8636 0.356305 3.35816 0.342392 3.77366Z" fill="url(#paint0_linear_1587_25994)"/>
<defs>
<linearGradient id="paint0_linear_1587_25994" x1="0.0932172" y1="3.0546" x2="0.819238" y2="3.04068" gradientUnits="userSpaceOnUse">
<stop stop-color="#BE0A46"/>
<stop offset="0.35" stop-color="#C00A47"/>
<stop offset="0.62" stop-color="#CA0B4C"/>
<stop offset="0.85" stop-color="#DA0C55"/>
<stop offset="0.94" stop-color="#E30D5A"/>
</linearGradient>
</defs>
</svg>
