<svg width="3" height="1" viewBox="0 0 3 1" fill="none" xmlns="http://www.w3.org/2000/svg">
<path d="M0.00141698 0.121467C-0.014399 0.118936 0.103905 0.0929978 0.270289 0.0619985C0.276615 0.0607332 0.283574 0.0601003 0.290533 0.0588351C0.528406 0.0253051 0.818155 0 1.19964 0C1.42802 0 1.63806 0.0101221 1.82848 0.0265708C1.90123 0.0328972 2.05497 0.0525087 2.1796 0.0746511C2.12962 0.244199 2.296 0.4865 2.06256 0.907206C2.05813 0.906573 2.05244 0.905308 2.04484 0.904042C1.96513 0.888859 1.65577 0.831921 1.32237 0.823064C1.30149 0.823064 1.27935 0.822432 1.25784 0.821799C1.23633 0.821166 1.21355 0.821799 1.19078 0.821799C0.701116 0.821799 0.426551 0.885063 0.222208 0.926817C0.200065 0.929348 0.201331 0.909736 0.20829 0.900879C0.224738 0.880002 0.241819 0.868615 0.241819 0.868615C0.241819 0.868615 0.225371 0.864186 0.22031 0.840778C0.214616 0.816105 0.239922 0.787637 0.239922 0.787637C0.239289 0.787637 0.228534 0.785739 0.209555 0.725638C0.177923 0.625681 0.139965 0.367564 0.142495 0.261913C0.145026 0.156262 0.202596 0.105018 0.202596 0.105018C0.202596 0.105018 0.0235594 0.125895 0.00141698 0.121467Z" fill="url(#paint0_linear_1587_25457)"/>
<defs>
<linearGradient id="paint0_linear_1587_25457" x1="-0.000480942" y1="0.463092" x2="2.19098" y2="0.463092" gradientUnits="userSpaceOnUse">
<stop offset="0.16" stop-color="#F0F4F8"/>
<stop offset="0.49" stop-color="#F3F5F9"/>
</linearGradient>
</defs>
</svg>
