<svg width="3" height="4" viewBox="0 0 3 4" fill="none" xmlns="http://www.w3.org/2000/svg">
<path d="M1.85059 2.09395C1.84616 2.57838 1.89928 2.93949 1.82276 3.10645C1.64884 3.08558 1.48884 3.0742 1.25485 3.0742C0.809621 3.0742 0.590171 3.10898 0.43839 3.13744C0.307479 3.15072 0.267003 3.09381 0.261944 3.02044C0.248663 2.8421 0.270798 2.52589 0.274593 2.32858C0.285344 1.76572 0.232221 1.37994 0.15886 0.965075C0.0627316 0.418663 -0.0327638 0.216288 0.0108733 0.197948C0.428271 0.0240323 0.927252 0 1.24599 0C1.48442 0 1.7513 0.00189734 2.08838 0.0771555C1.94482 1.03844 1.85754 1.33188 1.85059 2.09332V2.09395Z" fill="url(#paint0_linear_3091_43942)"/>
<defs>
<linearGradient id="paint0_linear_3091_43942" x1="0.000122118" y1="1.5703" x2="2.08901" y2="1.5703" gradientUnits="userSpaceOnUse">
<stop offset="0.16" stop-color="#C8D7F1"/>
<stop offset="0.49" stop-color="#DEE8F9"/>
</linearGradient>
</defs>
</svg>
