<svg width="3" height="4" viewBox="0 0 3 4" fill="none" xmlns="http://www.w3.org/2000/svg">
<path d="M1.91383 2.05853C1.89928 2.60494 1.95873 2.9376 1.88031 3.11341C1.7045 3.09001 1.51667 3.0742 1.25485 3.0742C0.809621 3.0742 0.590171 3.10898 0.43839 3.13744C0.307479 3.15072 0.267004 3.09381 0.261945 3.02045C0.249296 2.8421 0.270798 2.52589 0.274593 2.32858C0.285344 1.76572 0.232221 1.37994 0.15886 0.965076C0.0627316 0.418664 -0.0327638 0.216288 0.0108733 0.197948C0.428271 0.0240323 0.927252 0 1.24599 0C1.50528 0 1.79746 0.00252972 2.18008 0.10182C2.02324 0.981518 1.9328 1.36793 1.91383 2.05853Z" fill="url(#paint0_linear_1587_25574)"/>
<defs>
<linearGradient id="paint0_linear_1587_25574" x1="-0.000510303" y1="1.56967" x2="2.17945" y2="1.56967" gradientUnits="userSpaceOnUse">
<stop offset="0.16" stop-color="#D9E4F5"/>
<stop offset="0.49" stop-color="#E8EFFB"/>
</linearGradient>
</defs>
</svg>
