<svg width="26" height="5" viewBox="0 0 26 5" fill="none" xmlns="http://www.w3.org/2000/svg">
<path d="M4.5238 2.9063V2.8665H5.6665C6.1235 2.8665 6.4943 2.4957 6.4943 2.0387V1.914H4.5238C4.5238 1.4358 4.912 1.0476 5.3902 1.0476H6.6666V0.0951004H5.2621C4.2699 0.0951004 3.4656 0.899401 3.4656 1.8916V2.9281C3.4656 3.9203 4.2699 4.7246 5.2621 4.7246H6.7197V3.7721H5.3902C4.912 3.7721 4.5238 3.3851 4.5238 2.9063ZM23.7213 3.7726C23.2431 3.7726 22.8549 3.385 22.8549 2.9063V2.8665H23.9976C24.4546 2.8665 24.8254 2.4957 24.8254 2.0387V1.914H22.8549C22.8549 1.4358 23.2431 1.0476 23.7213 1.0476H24.9977V0.0951004H23.5932C22.601 0.0951004 21.7967 0.899401 21.7967 1.8916V2.9281C21.7967 3.9203 22.601 4.7246 23.5932 4.7246H25.0508V3.7721L23.7213 3.7726ZM1.0583 3.4751V0.0951004H0V3.8918C0 4.3515 0.3731 4.7246 0.8329 4.7246H3.1714V3.7721H1.3553C1.1914 3.7721 1.0583 3.639 1.0583 3.4751ZM20.0472 2.8788C20.0472 3.5008 19.73 3.8839 19.1478 3.8839C18.5655 3.8839 18.2484 3.5002 18.2484 2.8788V0.0957003H17.1901V2.9381C17.1901 4.2279 18.0828 4.8359 19.1478 4.8359C20.2127 4.8359 21.1054 4.2279 21.1054 2.9381V0.0957003H20.0472V2.8788ZM16.1369 2.2446H14.1424V2.4141C14.1424 2.7815 14.44 3.0791 14.8074 3.0791H15.5855V3.1652C15.5855 3.3481 15.496 3.5193 15.3455 3.6227C15.1251 3.7738 14.8427 3.8739 14.5166 3.8739C13.7084 3.8739 13.1004 3.3996 13.1004 2.418C13.1004 1.4364 13.7621 0.961501 14.3963 0.961501C14.9775 0.961501 15.3517 1.2423 15.5049 1.763L16.5268 1.4626C16.2863 0.5879 15.605 0 14.4092 0C13.1267 0 12.0315 0.9218 12.0315 2.418C12.0315 3.9141 13.1138 4.8353 14.4226 4.8353C15.0496 4.8353 15.529 4.6827 15.9255 4.4175C16.3417 4.139 16.5805 3.6619 16.5805 3.1613V2.6876C16.5805 2.4426 16.3819 2.2446 16.1369 2.2446ZM8.9475 0.0951004L7.0693 4.7246H8.2662L9.5096 1.4705L10.1461 3.1356H9.1924C9.1924 3.6613 9.6186 4.0881 10.145 4.0881H10.5102L10.7535 4.7246H11.9504L10.0722 0.0951004H8.9475Z" fill="white"/>
</svg>
