<svg width="3" height="1" viewBox="0 0 3 1" fill="none" xmlns="http://www.w3.org/2000/svg">
<path d="M0.00143131 0.1215C-0.0144687 0.119 0.103831 0.0924003 0.270231 0.0620003C0.276631 0.0608003 0.283531 0.0600999 0.290531 0.0588999C0.528331 0.0252999 0.818132 0 1.19963 0C1.42353 0 1.62983 0.0102 1.81893 0.026C1.89233 0.0323 2.04163 0.0512997 2.16503 0.0727997C2.11443 0.2385 2.28013 0.4998 2.04923 0.9053C2.04483 0.9047 2.03913 0.9034 2.03153 0.9022C1.95693 0.8883 1.65953 0.832 1.32043 0.8244C1.29953 0.8244 1.27873 0.8237 1.25723 0.8231C1.23563 0.8225 1.21353 0.8231 1.19073 0.8231C0.701131 0.8231 0.426532 0.8864 0.222232 0.9281C0.200032 0.9306 0.201332 0.911 0.208232 0.9022C0.224732 0.8813 0.241832 0.8699 0.241832 0.8699C0.241832 0.8699 0.225331 0.8655 0.220331 0.8421C0.214631 0.8174 0.239231 0.7889 0.239231 0.7889C0.239231 0.7889 0.228532 0.787 0.209532 0.7269C0.177932 0.627 0.139931 0.3689 0.142431 0.2632C0.145031 0.1576 0.202532 0.1063 0.202532 0.1063C0.202532 0.1063 0.0235313 0.1272 0.00143131 0.1228V0.1215Z" fill="url(#paint0_linear_1591_39786)"/>
<defs>
<linearGradient id="paint0_linear_1591_39786" x1="-0.000468697" y1="0.4631" x2="2.17513" y2="0.4631" gradientUnits="userSpaceOnUse">
<stop offset="0.16" stop-color="#EBF0F6"/>
<stop offset="0.49" stop-color="#EFF2F7"/>
</linearGradient>
</defs>
</svg>
