<svg width="5" height="2" viewBox="0 0 5 2" fill="none" xmlns="http://www.w3.org/2000/svg">
<path d="M4.4721 0.324432C4.33613 0.312416 4.03004 0.277632 4.02498 0.335183C4.01992 0.389571 4.57898 0.492023 4.48349 0.589416C4.35194 0.72349 4.30704 0.958751 4.30198 1.15923C4.2925 1.48429 4.41772 1.54754 4.37155 1.61963C4.3393 1.67086 4.11731 1.65378 3.63162 1.62279C3.32805 1.58042 3.01058 1.55006 2.695 1.55006C2.18906 1.55006 1.59648 1.6209 1.1247 1.71702C0.657337 1.81315 0.260176 1.8979 0.224128 1.84288C0.178594 1.77268 0.302549 1.72651 0.293695 1.41409C0.288003 1.22121 0.298121 0.999225 0.167843 0.868946C0.0653904 0.765862 0.592198 0.580562 0.589669 0.524909C0.586507 0.462932 0.308873 0.521748 0.172902 0.533764C0.0970116 0.54072 -0.014294 0.572341 0.0015165 0.507834C0.625716 0.203007 1.68882 0 2.695 0C3.41217 0 4.11921 0.091068 4.73013 0.263087C4.75353 0.277632 4.53471 0.330124 4.47273 0.325065L4.4721 0.324432Z" fill="url(#paint0_linear_3091_43979)"/>
<defs>
<linearGradient id="paint0_linear_3091_43979" x1="-0.000380774" y1="0.930292" x2="4.7314" y2="0.930292" gradientUnits="userSpaceOnUse">
<stop offset="0.16" stop-color="#CFDCF3"/>
<stop offset="0.49" stop-color="#E2EBFA"/>
</linearGradient>
</defs>
</svg>
