<svg width="3" height="4" viewBox="0 0 3 4" fill="none" xmlns="http://www.w3.org/2000/svg">
<path d="M2.0409 1.989C1.9986 2.66 2.0783 2.9338 1.9967 3.128C1.8171 3.1001 1.5742 3.0742 1.2548 3.0742C0.8096 3.0742 0.5902 3.109 0.4384 3.1374C0.3075 3.1507 0.267 3.0938 0.2619 3.0204C0.2493 2.8421 0.2708 2.5259 0.2746 2.3286C0.2853 1.7657 0.232199 1.3799 0.1589 0.965099C0.0626995 0.418699 -0.0328003 0.2163 0.0108997 0.1979C0.4283 0.0239998 0.9273 0 1.246 0C1.5464 0 1.8898 0.0031992 2.3635 0.151099C2.1801 0.866999 2.0738 1.4413 2.0409 1.989Z" fill="url(#paint0_linear_1591_39871)"/>
<defs>
<linearGradient id="paint0_linear_1591_39871" x1="-0.000500279" y1="1.5703" x2="2.3629" y2="1.5703" gradientUnits="userSpaceOnUse">
<stop offset="0.16" stop-color="#FCFDFE"/>
<stop offset="0.49" stop-color="#FDFEFF"/>
</linearGradient>
</defs>
</svg>
