<svg width="3" height="4" viewBox="0 0 3 4" fill="none" xmlns="http://www.w3.org/2000/svg">
<path d="M1.99916 2.0117C1.96756 2.6416 2.03906 2.9344 1.95806 3.1229C1.77976 3.0963 1.55526 3.0742 1.25486 3.0742C0.809564 3.0742 0.590164 3.109 0.438364 3.1374C0.307464 3.1507 0.266964 3.0938 0.261964 3.0204C0.249264 2.8421 0.270764 2.5259 0.274564 2.3286C0.285364 1.7657 0.232164 1.3799 0.158864 0.965099C0.0626642 0.418699 -0.0327356 0.2163 0.0108644 0.1979C0.428264 0.0239998 0.927264 0 1.24596 0C1.53246 0 1.85876 0.00249982 2.30216 0.1347C2.12756 0.905 2.02886 1.4166 1.99916 2.0117Z" fill="url(#paint0_linear_1591_39879)"/>
<defs>
<linearGradient id="paint0_linear_1591_39879" x1="6.44013e-05" y1="1.5697" x2="2.30276" y2="1.5697" gradientUnits="userSpaceOnUse">
<stop offset="0.16" stop-color="#F1F4FB"/>
<stop offset="0.49" stop-color="#F6F9FD"/>
</linearGradient>
</defs>
</svg>
