<svg width="5" height="2" viewBox="0 0 5 2" fill="none" xmlns="http://www.w3.org/2000/svg">
<path d="M4.81361 0.44775C4.67761 0.43515 4.25831 0.335851 4.25771 0.393351C4.25771 0.428151 4.87751 0.55775 4.78201 0.65515C4.65041 0.78925 4.60551 1.05935 4.60051 1.25975C4.59101 1.58485 4.71621 1.64745 4.67001 1.72015C4.64481 1.76065 4.44171 1.73215 4.11731 1.70125C3.67521 1.61895 3.18261 1.55005 2.69501 1.55005C2.20741 1.55005 1.59652 1.62085 1.12472 1.71705C0.657315 1.81315 0.260215 1.89785 0.224115 1.84285C0.178615 1.77265 0.302515 1.72655 0.293715 1.41405C0.288015 1.22125 0.298114 0.99925 0.167814 0.86895C0.0654145 0.76585 0.592214 0.58055 0.589714 0.52495C0.586514 0.46295 0.308915 0.521751 0.172915 0.533751C0.0970147 0.540751 -0.0142854 0.572351 0.00151464 0.507851C0.625715 0.203051 1.68881 0 2.69501 0C3.51971 0 4.32981 0.11953 4.99831 0.34465C4.98821 0.39905 4.88001 0.45345 4.81361 0.44775Z" fill="url(#paint0_linear_1591_39912)"/>
<defs>
<linearGradient id="paint0_linear_1591_39912" x1="-0.000385357" y1="0.93095" x2="4.99761" y2="0.93095" gradientUnits="userSpaceOnUse">
<stop offset="0.16" stop-color="#FBFCFE"/>
<stop offset="0.49" stop-color="#FCFDFF"/>
</linearGradient>
</defs>
</svg>
