<svg width="5" height="4" viewBox="0 0 5 4" fill="none" xmlns="http://www.w3.org/2000/svg">
<path d="M4.09577 3.23734C4.2466 3.23734 4.36605 3.12193 4.36605 2.97414V1.22792C4.36605 0.550692 3.81536 0 3.13813 0C2.76965 0 2.41029 0.179176 2.18556 0.470719C1.95273 0.175127 1.59943 0 1.22792 0C0.550692 0 0 0.550692 0 1.22792V3.20697H0.539556V1.22792C0.539556 0.837173 0.848308 0.520324 1.22792 0.520324C1.60753 0.520324 1.91628 0.844259 1.91628 1.22792L1.91021 2.51455C1.91021 2.66235 2.02865 2.77775 2.17948 2.77775C2.33031 2.77775 2.44977 2.66235 2.44977 2.51455V1.22792C2.44977 0.837173 2.75852 0.520324 3.13813 0.520324C3.51774 0.520324 3.82649 0.844259 3.82649 1.22792V2.97414C3.82649 3.12193 3.94493 3.23734 4.09577 3.23734Z" fill="white"/>
</svg>
