<svg width="7" height="16" viewBox="0 0 7 16" fill="none" xmlns="http://www.w3.org/2000/svg">
<path d="M5.34859 11.834C4.81735 12.9971 4.77562 14.642 4.74526 15.5514C4.54035 15.5514 4.16659 15.5489 3.79157 15.5445C3.47662 15.5407 2.77527 15.5502 2.71202 15.5476C2.61906 15.5438 2.60578 15.5223 2.60009 15.4743C2.58554 15.3541 2.6608 13.7636 1.94047 12.1844C1.49082 11.1991 0.951995 10.5243 0.528905 9.15764C-0.126283 7.04219 -0.0320525 3.02125 0.0387787 2.33065C0.122891 1.50344 0.279099 0.400498 2.71392 0.0438128C3.11677 -0.0156348 4.03315 -0.056742 4.7598 0.0311646C4.89641 0.0507696 5.02416 0.0741693 5.14242 0.0994662C7.0966 0.495994 6.82592 3.50316 6.81264 4.22285C6.76268 7.02385 6.33643 9.67243 5.34985 11.8347L5.34859 11.834Z" fill="url(#paint0_linear_3091_43873)"/>
<defs>
<linearGradient id="paint0_linear_3091_43873" x1="-0.011815" y1="7.76505" x2="6.83162" y2="7.76505" gradientUnits="userSpaceOnUse">
<stop offset="0.16" stop-color="#EFF3FB"/>
<stop offset="0.52" stop-color="#F5F8FD"/>
</linearGradient>
</defs>
</svg>
