<svg width="6" height="1" viewBox="0 0 6 1" fill="none" xmlns="http://www.w3.org/2000/svg">
<path d="M1.59585 0.0917009C1.97025 0.034783 2.38259 0.00189726 2.8354 0C2.86196 0 2.88852 0 2.91508 0C3.34007 0.00126484 3.72901 0.0303562 4.08506 0.0790527C4.1072 0.0822148 4.12933 0.0853765 4.15147 0.0885386C4.20586 0.0967601 4.26024 0.104982 4.31274 0.114468C4.32791 0.116998 4.34372 0.12016 4.35827 0.12269C4.3589 0.12269 4.35953 0.12269 4.36017 0.12269C5.08302 0.318108 5.36698 0.521748 4.55242 0.406014C4.49677 0.393998 4.43985 0.38388 4.3842 0.373761C4.3102 0.36048 4.23621 0.349096 4.16159 0.338345C2.84109 0.147986 1.43016 0.260558 0.239941 0.662145C-0.0636216 0.764598 -0.0806968 0.706415 0.197569 0.546412C0.581448 0.326962 1.1032 0.184034 1.59585 0.0917009Z" fill="url(#paint0_linear_1587_25658)"/>
<defs>
<linearGradient id="paint0_linear_1587_25658" x1="-0.000379343" y1="0.356686" x2="5.04634" y2="0.356686" gradientUnits="userSpaceOnUse">
<stop offset="0.16" stop-color="#DBE5F6"/>
<stop offset="0.49" stop-color="#E9F0FB"/>
</linearGradient>
</defs>
</svg>
