<svg width="3" height="1" viewBox="0 0 3 1" fill="none" xmlns="http://www.w3.org/2000/svg">
<path d="M0.00141698 0.121467C-0.014399 0.118936 0.103905 0.0923652 0.270289 0.0619985C0.276615 0.0607332 0.283575 0.0601003 0.290534 0.0588351C0.528407 0.0253051 0.818156 0 1.19964 0C1.40651 0 1.5982 0.00822374 1.77977 0.0221418C1.85632 0.0278356 1.98917 0.0442842 2.10431 0.0626308C2.05117 0.214464 2.21439 0.549131 1.9955 0.893288C1.99107 0.892655 1.98538 0.89139 1.97842 0.890757C1.92338 0.880635 1.67412 0.830656 1.31225 0.823064C1.29327 0.823064 1.27302 0.822432 1.25341 0.822432C1.2338 0.822432 1.21229 0.822432 1.19078 0.822432C0.701117 0.822432 0.426551 0.885696 0.222209 0.927451C0.200066 0.929981 0.201332 0.910369 0.208291 0.901512C0.224739 0.880635 0.24182 0.869247 0.24182 0.869247C0.24182 0.869247 0.225372 0.864819 0.220311 0.841412C0.214617 0.816739 0.238657 0.789535 0.238657 0.789535C0.238024 0.789535 0.228535 0.786371 0.209556 0.726271C0.177924 0.626313 0.139965 0.368196 0.142495 0.262545C0.145026 0.156894 0.202597 0.105651 0.202597 0.105651C0.202597 0.105651 0.0235594 0.126528 0.00141698 0.122099V0.121467Z" fill="url(#paint0_linear_3091_43823)"/>
<defs>
<linearGradient id="paint0_linear_3091_43823" x1="0.000151698" y1="0.463093" x2="2.11317" y2="0.463093" gradientUnits="userSpaceOnUse">
<stop offset="0.16" stop-color="#D8E1EC"/>
<stop offset="0.49" stop-color="#DEE4EF"/>
</linearGradient>
</defs>
</svg>
