<svg width="2" height="1" viewBox="0 0 2 1" fill="none" xmlns="http://www.w3.org/2000/svg">
<path d="M0.00141432 0.1215C-0.0143857 0.119 0.103914 0.0911003 0.270214 0.0620003C0.276614 0.0608003 0.282914 0.0600999 0.290514 0.0588999C0.528414 0.0252999 0.818114 0 1.19961 0C1.37101 0 1.53361 0.00379966 1.70061 0.0158997C1.78351 0.0214997 1.88351 0.0317001 1.98221 0.0443001C1.92331 0.1683 2.08211 0.6504 1.88661 0.8712C1.88161 0.8705 1.87721 0.8699 1.87081 0.8693C1.85561 0.8661 1.70251 0.8282 1.29511 0.8225C1.27871 0.8225 1.26161 0.8225 1.24451 0.8225C1.22741 0.8225 1.20851 0.8225 1.19011 0.8225C0.700414 0.8225 0.425914 0.8857 0.221514 0.9275C0.199414 0.93 0.200714 0.9104 0.207614 0.9015C0.224114 0.8807 0.241114 0.8693 0.241114 0.8693C0.241114 0.8693 0.224714 0.8649 0.219614 0.8414C0.213914 0.8168 0.236114 0.7921 0.236114 0.7921C0.235414 0.7921 0.227914 0.7864 0.208914 0.7263C0.177214 0.6263 0.139314 0.3682 0.141814 0.2626C0.144314 0.1569 0.201914 0.1057 0.201914 0.1057C0.201914 0.1057 0.0236143 0.126 0.00141432 0.1215Z" fill="url(#paint0_linear_1591_39810)"/>
<defs>
<linearGradient id="paint0_linear_1591_39810" x1="-0.00048568" y1="0.4631" x2="1.98791" y2="0.4631" gradientUnits="userSpaceOnUse">
<stop offset="0.16" stop-color="#B1C2DA"/>
<stop offset="0.49" stop-color="#BDCADF"/>
</linearGradient>
</defs>
</svg>
