<svg width="1" height="3" viewBox="0 0 1 3" fill="none" xmlns="http://www.w3.org/2000/svg">
<path d="M0.263607 0.901833C0.139652 1.04033 0.11562 1.60066 0.122576 1.95355C0.129533 2.29695 0.218704 2.72068 0.221234 2.88005C0.223131 2.99135 0.0909557 2.94519 0.000519408 2.93317C0.096015 2.91293 0.0909559 2.83704 0.0808372 2.74471C0.0466864 2.44178 -0.0323664 1.59497 0.0144328 1.26801C0.0947503 0.70262 0.336335 0.132176 0.360367 0C0.43689 0.0543882 0.510252 0.132176 0.536813 0.169488C0.468512 0.33455 0.378075 0.567915 0.336968 0.763965C0.331909 0.789262 0.299022 0.904995 0.365426 0.883493C0.354675 0.903098 0.328114 0.946102 0.299655 0.934719C0.289537 0.930924 0.283211 0.880963 0.264871 0.901201L0.263607 0.901833Z" fill="url(#paint0_linear_3091_44366)"/>
<defs>
<linearGradient id="paint0_linear_3091_44366" x1="-0.000112913" y1="1.47607" x2="0.536181" y2="1.47607" gradientUnits="userSpaceOnUse">
<stop stop-color="#BE0A46"/>
<stop offset="0.35" stop-color="#C00A47"/>
<stop offset="0.62" stop-color="#CA0B4C"/>
<stop offset="0.85" stop-color="#DA0C55"/>
<stop offset="0.94" stop-color="#E30D5A"/>
</linearGradient>
</defs>
</svg>
