<svg width="5" height="2" viewBox="0 0 5 2" fill="none" xmlns="http://www.w3.org/2000/svg">
<path d="M4.74531 0.42309C4.60934 0.411074 4.21281 0.324432 4.21091 0.381982C4.20965 0.42056 4.8174 0.544514 4.72191 0.641907C4.59036 0.775981 4.54546 1.03907 4.5404 1.23955C4.53092 1.56461 4.65614 1.62722 4.60997 1.69995C4.58341 1.74232 4.37661 1.71639 4.01992 1.6854C3.60569 1.61141 3.14781 1.55006 2.695 1.55006C2.18906 1.55006 1.59648 1.6209 1.1247 1.71702C0.657337 1.81315 0.260176 1.8979 0.224128 1.84288C0.178594 1.77268 0.302549 1.72651 0.293695 1.41409C0.288003 1.22121 0.298121 0.999225 0.167843 0.868946C0.0653904 0.765862 0.592198 0.580562 0.589669 0.524909C0.586506 0.462932 0.308873 0.521748 0.172902 0.533764C0.0970116 0.54072 -0.014294 0.572341 0.0015165 0.507834C0.625716 0.203007 1.68882 0 2.695 0C3.49817 0 4.28744 0.113836 4.94452 0.328227C4.94136 0.374394 4.81045 0.428782 4.74531 0.42309Z" fill="url(#paint0_linear_1587_25599)"/>
<defs>
<linearGradient id="paint0_linear_1587_25599" x1="-0.000380774" y1="0.930292" x2="4.94389" y2="0.930292" gradientUnits="userSpaceOnUse">
<stop offset="0.16" stop-color="#F2F6FC"/>
<stop offset="0.49" stop-color="#F7FAFE"/>
</linearGradient>
</defs>
</svg>
