<svg width="6" height="2" viewBox="0 0 6 2" fill="none" xmlns="http://www.w3.org/2000/svg">
<path d="M5.30415 0.950531C4.71726 1.0163 3.74207 1.03211 2.7068 1.03211C1.80813 1.03211 0.652691 0.989741 0.299168 0.950531C0.168889 0.935986 -0.0625768 0.922706 0.0158434 0.868317C0.280196 0.685547 0.586288 0.487599 0.820283 0.354158C1.14851 0.167594 1.54947 0.0202392 1.78156 0.00569349C1.9637 0.0411091 2.43675 0.0619805 2.7068 0.062613C2.96293 0.0632454 3.49796 0.0449019 3.72942 0C3.96152 0.0145457 4.45481 0.167594 4.78304 0.354158C5.01703 0.487599 5.32312 0.685547 5.58748 0.868317C5.6659 0.922706 5.43443 0.935986 5.30415 0.950531Z" fill="url(#paint0_radial_1587_25495)"/>
<defs>
<radialGradient id="paint0_radial_1587_25495" cx="0" cy="0" r="1" gradientUnits="userSpaceOnUse" gradientTransform="translate(0.901233 2.94392) scale(4.5528 4.5528)">
<stop stop-color="#C8D7F1"/>
<stop offset="0.9" stop-color="#DEE8F9"/>
<stop offset="1" stop-color="white"/>
</radialGradient>
</defs>
</svg>
