<svg width="7" height="16" viewBox="0 0 7 16" fill="none" xmlns="http://www.w3.org/2000/svg">
<path d="M5.27917 11.7961C4.74414 12.9686 4.71758 14.6369 4.68659 15.5508C4.48042 15.5508 4.13701 15.5482 3.79108 15.5438C3.47613 15.54 2.77478 15.5495 2.71154 15.547C2.61857 15.5432 2.60529 15.5217 2.5996 15.4736C2.58505 15.3535 2.66031 13.7629 1.93998 12.1838C1.49033 11.1985 0.951507 10.5237 0.528417 9.15699C-0.126772 7.04154 -0.0325408 3.02061 0.0382904 2.33001C0.122402 1.5028 0.278611 0.399855 2.71343 0.0431691C3.09352 -0.0131164 3.93464 -0.0523269 4.63157 0.0191368C4.73276 0.0336825 4.82762 0.050758 4.91553 0.0697307C6.76346 0.424519 6.63129 2.87895 6.65026 3.53161C6.71729 5.8956 6.42701 9.28285 5.28043 11.7961H5.27917Z" fill="url(#paint0_linear_3091_43880)"/>
<defs>
<linearGradient id="paint0_linear_3091_43880" x1="-0.0116709" y1="7.76567" x2="6.65848" y2="7.76567" gradientUnits="userSpaceOnUse">
<stop offset="0.16" stop-color="#E5ECF8"/>
<stop offset="0.52" stop-color="#EFF4FC"/>
</linearGradient>
</defs>
</svg>
