<svg width="29" height="28" viewBox="0 0 29 28" fill="none" xmlns="http://www.w3.org/2000/svg">
<path d="M28.1564 9.30645C28.3086 18.9072 20.2116 25.2012 11.3425 27.4681C8.59543 28.1704 7.38808 27.6983 7.77631 27.5784C8.07778 25.9483 8.08367 24.2968 8.14396 23.4851C5.47264 21.1468 3.00942 15.0094 1.66089 11.6836C1.48001 11.2373 0.774132 13.0506 0.637368 12.5903C0.687368 13.1858 0.806485 13.805 1.01972 14.4976C1.32192 15.4792 1.41898 15.8542 1.00722 14.7086C-0.0663059 11.7211 -0.326599 8.53219 0.814573 5.59249C2.52192 1.19324 7.1197 -1.40969 11.5138 0.982212C12.5984 1.57265 13.6579 2.59985 14.5278 3.47191C15.3807 2.67706 16.3616 2.04324 17.3711 1.46236C18.8983 0.606478 20.5711 0.24545 22.3219 0.530743C25.2123 0.995448 26.6807 2.53441 27.6895 5.16308C28.2218 6.54984 28.1726 7.81822 28.1549 9.30498L28.1564 9.30645ZM28.1564 9.30645C28.1579 9.19836 28.1579 9.41454 28.1564 9.30645Z" stroke="white" stroke-width="0.147058" stroke-miterlimit="10"/>
</svg>
