<svg width="5" height="1" viewBox="0 0 5 1" fill="none" xmlns="http://www.w3.org/2000/svg">
<path d="M1.59589 0.0916996C1.96839 0.0354196 2.37879 0.00253 2.82909 0C2.85559 0 2.88159 0 2.90809 0C3.33059 0.00127 3.71759 0.0297293 4.07239 0.0777893C4.09459 0.0809493 4.11669 0.0834794 4.13819 0.0866394C4.19259 0.0942294 4.24629 0.103089 4.29879 0.111939C4.31399 0.114469 4.32919 0.117 4.34439 0.12016H4.34629C5.05139 0.31052 5.29799 0.49835 4.53409 0.40222C4.47839 0.39021 4.42209 0.38072 4.36649 0.3706C4.29249 0.35795 4.21849 0.34594 4.14389 0.33582C2.82839 0.14989 1.42509 0.262459 0.239894 0.662149C-0.0636065 0.764599 -0.0807067 0.70642 0.197593 0.54642C0.581493 0.32696 1.10319 0.18404 1.59589 0.0916996Z" fill="url(#paint0_linear_1591_39978)"/>
<defs>
<linearGradient id="paint0_linear_1591_39978" x1="-0.000406597" y1="0.35669" x2="5.00329" y2="0.35669" gradientUnits="userSpaceOnUse">
<stop offset="0.16" stop-color="#D6E2F5"/>
<stop offset="0.49" stop-color="#E7EEFB"/>
</linearGradient>
</defs>
</svg>
