<svg width="7" height="2" viewBox="0 0 7 2" fill="none" xmlns="http://www.w3.org/2000/svg">
<path d="M2.75925 0.00948594C2.75925 0.00948594 2.75925 0.0151787 2.75925 0.0183408C2.80163 0.0297243 2.81997 0.0531235 2.82756 0.0771555C2.82945 0.085377 2.83072 0.0942304 2.83072 0.104349C2.83072 0.149251 2.83072 0.199845 2.83135 0.244747C2.83261 0.321902 2.80479 0.363643 2.76811 0.382616C2.75356 0.387676 2.73902 0.390838 2.72574 0.392735C2.7757 0.383881 2.82186 0.342773 2.82186 0.244116C2.82186 0.199214 2.82186 0.154312 2.82186 0.110043C2.82186 0.0815837 2.8206 0.0290919 2.7504 0.0183408C2.7504 0.0151787 2.7504 0.012648 2.7504 0.00948594H2.75925ZM2.45822 0.0177077C2.45822 0.0177077 2.45822 0.0234004 2.45822 0.0265626C2.51451 0.0360489 2.51514 0.0676687 2.51514 0.104349C2.51514 0.150516 2.51514 0.197316 2.51577 0.243483C2.51767 0.373761 2.5866 0.415501 2.65743 0.416766C2.64668 0.416766 2.6372 0.41487 2.62961 0.41234C2.57395 0.397162 2.52652 0.350994 2.52526 0.243483C2.52526 0.197316 2.52526 0.151148 2.52463 0.104349C2.52463 0.0676687 2.52399 0.0360489 2.46771 0.0265626V0.0177077H2.45822ZM3.09887 0.17771C3.13238 0.176445 3.16464 0.170754 3.17981 0.142295C3.18171 0.137235 3.18614 0.128383 3.1874 0.115734V0.114468C3.1874 0.114468 3.18171 0.114468 3.17855 0.114468C3.16717 0.162532 3.14756 0.176445 3.08558 0.17771C3.08116 0.17771 3.07673 0.17771 3.07167 0.17771C3.08052 0.17771 3.08938 0.17771 3.09887 0.17771ZM2.92052 0.0164436C2.97744 0.0271947 2.97807 0.0588158 2.97807 0.0954963C2.97807 0.168225 2.97807 0.24032 2.97807 0.312416C2.97807 0.349097 2.97807 0.380718 2.92115 0.392102C2.92115 0.395264 2.92115 0.400955 2.92115 0.400955C2.92115 0.400955 2.92621 0.400955 2.93064 0.400955V0.392735C2.98756 0.381352 2.98756 0.34973 2.98756 0.313049V0.0954963C2.98693 0.0588158 2.98629 0.0271954 2.92938 0.0170766V0.00822179C2.92495 0.00822179 2.92242 0.00822179 2.91989 0.00822179C2.91989 0.0113839 2.91989 0.0139145 2.91989 0.0170766L2.92052 0.0164436ZM3.29175 0.295975C3.29555 0.291548 3.29934 0.286488 3.30314 0.281428C3.29997 0.281428 3.29681 0.281428 3.29365 0.281428C3.23863 0.346568 3.20132 0.378821 3.1463 0.38388C3.14883 0.38388 3.15009 0.38388 3.15072 0.38388C3.1874 0.381351 3.23863 0.361745 3.29175 0.296606M3.10392 0.189095C3.15199 0.192257 3.16717 0.208068 3.17918 0.259926C3.18234 0.259926 3.18487 0.259926 3.18804 0.259926C3.18614 0.247278 3.17981 0.230201 3.18045 0.230833C3.16717 0.200477 3.14187 0.189728 3.10392 0.189095ZM3.25697 0.0847442C3.22408 0.025929 3.17981 0.016443 3.13807 0.0158105C3.13491 0.0158105 3.13112 0.0158105 3.12732 0.0158105C3.12922 0.0158105 3.13112 0.0158105 3.13302 0.0158105C3.20068 0.0177078 3.23484 0.0436383 3.25823 0.11194C3.2614 0.11194 3.26456 0.11194 3.26709 0.11194V0.110043C3.26266 0.0999239 3.25571 0.0828483 3.25634 0.0841131L3.25697 0.0847442ZM3.57128 0.267515C3.57128 0.267515 3.57761 0.267515 3.58077 0.267515C3.57887 0.256131 3.57634 0.245381 3.57318 0.236527C3.56117 0.201744 3.54029 0.187198 3.4878 0.187198C3.47832 0.186566 3.46883 0.186565 3.45935 0.186565C3.46567 0.186565 3.47199 0.186565 3.47832 0.186565C3.54156 0.188462 3.55927 0.20364 3.57128 0.266882V0.267515ZM3.65223 0.0866414C3.63136 0.045534 3.59974 0.0132815 3.52132 0.0164436C3.52132 0.0164436 3.52069 0.0164436 3.52006 0.0164436C3.52006 0.0164436 3.52069 0.0164436 3.52132 0.0164436C3.52385 0.0164436 3.52638 0.0164436 3.52954 0.0164436C3.59721 0.0196057 3.63073 0.0461666 3.65413 0.114468C3.65729 0.114468 3.66045 0.114468 3.66362 0.114468C3.66045 0.104982 3.65666 0.0954953 3.65287 0.0866414H3.65223ZM3.57318 0.139133C3.57634 0.132177 3.57951 0.123954 3.58204 0.114468C3.57951 0.114468 3.57634 0.114468 3.57381 0.114468C3.56243 0.15937 3.54472 0.173285 3.4935 0.175182C3.5365 0.175182 3.55927 0.169489 3.57381 0.1385M3.33223 0.394632V0.385777C3.36828 0.376924 3.39041 0.366172 3.39041 0.307989V0.0923349C3.39041 0.0556545 3.38978 0.0240328 3.33223 0.0126492V0.00379437C3.33223 0.00379437 3.3259 0.00379437 3.32274 0.00379437C3.32274 0.00695648 3.32274 0.0101195 3.32274 0.0126492C3.38029 0.0240328 3.38092 0.0556539 3.38092 0.0917019C3.38092 0.163798 3.38092 0.235894 3.38092 0.307358C3.38092 0.343406 3.38092 0.375026 3.32274 0.385144C3.32274 0.388307 3.32274 0.390837 3.32274 0.393999C3.3278 0.393999 3.32907 0.393999 3.33223 0.393999V0.394632ZM3.87991 0.257396C3.87991 0.257396 3.87485 0.257396 3.87105 0.257396C3.9267 0.387042 3.92734 0.389572 3.85714 0.393999C3.85714 0.397161 3.85714 0.399691 3.85651 0.402221C3.85967 0.402221 3.86283 0.402221 3.86599 0.402221C3.86599 0.399691 3.86599 0.396528 3.86599 0.393366C3.93619 0.388939 3.93556 0.387042 3.87991 0.256763V0.257396ZM3.87485 0.24538L3.80465 0.0866414L3.80022 0.0961293L3.86536 0.24538C3.87042 0.24538 3.87358 0.24538 3.87485 0.24538ZM3.61302 0.397161C3.61302 0.397161 3.61302 0.39147 3.61302 0.388308C3.64148 0.378189 3.6535 0.375027 3.69271 0.297239C3.69271 0.297239 3.71927 0.244747 3.72117 0.240952C3.73445 0.213758 3.8135 0.0411089 3.82678 0.0113851C3.82994 0.00506084 3.83184 0 3.83184 0H3.82488C3.6554 0.370599 3.6535 0.3706 3.6029 0.388308V0.397161H3.61239H3.61302ZM0.191624 1.27117C0.234628 1.26358 0.260557 1.23386 0.301032 1.17314C0.305459 1.16619 0.310519 1.15923 0.314946 1.15101C0.314946 1.15101 0.309254 1.15164 0.306724 1.15227C0.259925 1.22816 0.229568 1.26231 0.182137 1.27117C0.174548 1.27243 0.167592 1.2737 0.160003 1.27496C0.156208 1.27496 0.152414 1.2756 0.149252 1.27623C0.157473 1.27623 0.184035 1.27307 0.191624 1.2718V1.27117ZM0.209331 1.03464C0.209331 1.03464 0.216288 1.01504 0.21692 1.00112C0.21439 1.00112 0.211861 1.00176 0.209963 1.00239C0.202374 1.05045 0.184667 1.06753 0.137235 1.07638C0.139765 1.07638 0.142295 1.07575 0.144192 1.07512C0.179608 1.06879 0.196682 1.05804 0.208698 1.03401L0.209331 1.03464ZM0.0215021 1.31354C0.0215021 1.31354 0.0215021 1.30722 0.0215021 1.30532C0.0638743 1.28888 0.0645066 1.25852 0.0638742 1.22057C0.0613445 1.14974 0.0594472 1.07891 0.0569175 1.00745C0.0556527 0.970136 0.0543879 0.940411 0.00948594 0.936616C0.00948594 0.933454 0.00948594 0.930925 0.00948594 0.927763C0.00632383 0.927763 0.00316211 0.929028 0 0.92966C0 0.932822 0 0.934087 0 0.937249C0.0449019 0.941044 0.0455343 0.970136 0.0474316 1.00745C0.0493289 1.07891 0.0518586 1.15038 0.0543883 1.22057C0.0556531 1.25852 0.0575495 1.28951 0.0139124 1.30658C0.0139124 1.30975 0.0139124 1.31228 0.0139124 1.31544L0.0215021 1.31417V1.31354ZM0.268779 0.957487C0.254233 0.92966 0.233996 0.91132 0.19858 0.908158C0.192889 0.908158 0.187829 0.908157 0.183402 0.908789C0.228304 0.907524 0.254866 0.931557 0.274471 0.990372C0.277 0.990372 0.27953 0.98974 0.282059 0.989108C0.278265 0.97646 0.273838 0.965707 0.269411 0.956221L0.268779 0.957487ZM0.160003 1.0846C0.154943 1.0846 0.150516 1.08587 0.146089 1.0865C0.188461 1.08207 0.203007 1.09535 0.214391 1.14595C0.216921 1.14595 0.21945 1.14468 0.22198 1.14405C0.218817 1.12887 0.210596 1.10864 0.211229 1.10927C0.20111 1.0903 0.187197 1.08207 0.160003 1.08397V1.0846ZM0.49645 1.24524C0.4389 1.24271 0.392734 1.2035 0.388307 1.08903C0.387042 1.0435 0.385776 1.00239 0.384511 0.956854C0.383247 0.919541 0.381982 0.886023 0.334551 0.881596V0.872743C0.334551 0.872743 0.328859 0.873374 0.325697 0.874007V0.882862C0.373128 0.887289 0.374393 0.915747 0.375658 0.95306C0.376922 0.998594 0.378188 1.04413 0.379453 1.08903C0.38388 1.21551 0.44143 1.2484 0.49898 1.24524C0.496451 1.24524 0.494553 1.24524 0.492024 1.24524H0.497715H0.49645ZM0.573606 0.839856C0.573606 0.839856 0.573606 0.845548 0.573606 0.84871C0.633686 0.851873 0.635583 0.906892 0.636216 0.930924C0.637481 0.975194 0.638746 1.01883 0.639378 1.06247C0.641908 1.17441 0.589417 1.21551 0.539455 1.21994C0.569812 1.21994 0.591313 1.20603 0.591313 1.20603C0.624199 1.18579 0.650129 1.14215 0.648232 1.0631C0.646967 1.01314 0.646334 0.915114 0.64001 0.892979C0.632421 0.872109 0.618508 0.849975 0.581828 0.848077C0.581828 0.844915 0.581828 0.842387 0.581828 0.839224L0.572974 0.840489L0.573606 0.839856ZM0.741197 1.2035V1.19465C0.789894 1.1801 0.789261 1.14974 0.788629 1.1118C0.786731 1.04097 0.784834 0.970135 0.782937 0.898039C0.782305 0.859462 0.78104 0.831634 0.731711 0.825942V0.817089C0.731711 0.817089 0.726652 0.817089 0.722857 0.817089V0.825942C0.771554 0.830369 0.772818 0.859462 0.774083 0.898039C0.775981 0.970135 0.777245 1.04097 0.779143 1.1118C0.780408 1.14974 0.780408 1.18073 0.731711 1.19591C0.731711 1.19907 0.731711 1.2016 0.732343 1.20476L0.741197 1.2035ZM0.891714 0.972664C0.942307 0.96634 0.960648 0.955589 0.973929 0.925233C0.987209 0.894244 0.985945 0.847446 0.957486 0.821517C0.946735 0.811398 0.927762 0.805074 0.916378 0.803809C0.911951 0.803809 0.907525 0.803809 0.903098 0.803809C0.918276 0.804441 0.935351 0.809501 0.948632 0.821517C0.977091 0.847446 0.978356 0.894244 0.964443 0.925233C0.951162 0.955589 0.942307 0.96634 0.891714 0.972664ZM1.00745 1.1118C0.96128 1.05867 0.953691 0.999226 0.925232 0.986578C0.92207 0.985313 0.915746 0.984681 0.908789 0.984681C0.923967 0.987843 0.932189 0.999227 0.946102 1.02642C0.997961 1.13393 1.04602 1.17314 1.12508 1.17061C1.06689 1.16998 1.03464 1.14405 1.00745 1.1118ZM1.19654 1.11243C1.23449 1.14089 1.27812 1.15101 1.31986 1.14721C1.3148 1.14721 1.30911 1.14721 1.30405 1.14721C1.2952 1.14658 1.28698 1.14595 1.27876 1.14468C1.24144 1.13836 1.21235 1.11749 1.2054 1.11243C1.07448 1.0144 1.12444 0.766496 1.32176 0.738037C1.32429 0.738037 1.33061 0.738037 1.33188 0.738037C1.33188 0.738037 1.33314 0.738037 1.33378 0.738037C1.32682 0.738037 1.31923 0.738037 1.31164 0.73867C1.11369 0.767129 1.06373 1.01504 1.19528 1.11306L1.19654 1.11243ZM1.44192 0.909422C1.45267 1.05425 1.38943 1.12508 1.32176 1.1314C1.32429 1.1314 1.32682 1.1314 1.32935 1.1314C1.39322 1.12634 1.4533 1.06437 1.45204 0.935985C1.45204 0.927131 1.45204 0.918909 1.45077 0.909422C1.44635 0.844283 1.42611 0.802543 1.40018 0.776613C1.3869 0.763333 1.36856 0.755112 1.34769 0.75195C1.39322 0.763966 1.43496 0.811397 1.44192 0.909422ZM1.61141 0.810132C1.61267 0.882228 1.61394 0.954957 1.6152 1.02642C1.6152 1.06373 1.61584 1.09662 1.56208 1.1099C1.56208 1.11306 1.56208 1.11559 1.56208 1.11812C1.56524 1.11812 1.56777 1.11812 1.57093 1.11749V1.10927C1.62406 1.09535 1.62406 1.06373 1.62343 1.02642C1.62216 0.954957 1.6209 0.88286 1.61963 0.810132C1.619 0.770922 1.61837 0.742462 1.56461 0.734873V0.726021H1.55512V0.734873C1.60951 0.742462 1.61014 0.770922 1.61078 0.810132H1.61141ZM1.81758 0.852505C1.80177 0.887288 1.77647 0.900568 1.72272 0.904995C1.71133 0.90626 1.69932 0.906893 1.6873 0.907525C1.70185 0.90626 1.71702 0.905629 1.7322 0.904364C1.78596 0.899937 1.81062 0.886655 1.82707 0.851872C1.83845 0.828472 1.84477 0.775349 1.81125 0.741831C1.78786 0.717799 1.7537 0.717799 1.75117 0.718432C1.76825 0.719697 1.78722 0.725388 1.80177 0.739301C1.83592 0.771554 1.82896 0.829105 1.81758 0.852505ZM2.09015 0.866418C2.13822 0.863256 2.15972 0.853136 2.17174 0.824045C2.1749 0.817088 2.17743 0.808868 2.17932 0.799382C2.17616 0.799382 2.173 0.799382 2.16984 0.799382C2.15972 0.848078 2.14011 0.862624 2.08067 0.866418C2.07118 0.866418 2.06106 0.867682 2.05157 0.867682C2.06486 0.86705 2.08193 0.865785 2.09015 0.865785V0.866418ZM2.11482 1.07006C2.12367 1.07006 2.13253 1.06942 2.14138 1.06879C2.20652 1.06436 2.25838 1.00682 2.28178 0.976459C2.28747 0.969502 2.29126 0.96381 2.29316 0.960648C2.29 0.960648 2.28684 0.960648 2.28367 0.960648C2.27229 0.977724 2.21221 1.06247 2.13189 1.06816C2.12304 1.06816 2.11418 1.06879 2.10533 1.06942C2.10533 1.06942 2.10407 1.06942 2.10343 1.06942C2.1066 1.06942 2.11039 1.06942 2.11418 1.06942L2.11482 1.07006ZM2.24636 0.768392C2.22549 0.727284 2.1983 0.708944 2.15466 0.70515C2.20146 0.711474 2.22929 0.738036 2.24952 0.794321C2.25268 0.794321 2.25521 0.794321 2.25838 0.794321C2.25458 0.784202 2.24699 0.768392 2.24699 0.768392H2.24636ZM1.93268 1.09472C1.93268 1.09472 1.93268 1.0884 1.93268 1.08587C1.98707 1.07322 1.98707 1.0435 1.98644 1.00492C1.9858 0.933455 1.98454 0.861359 1.98391 0.789263C1.98327 0.751317 1.98264 0.721593 1.92762 0.713371C1.92762 0.710209 1.92762 0.707048 1.92762 0.704518H1.91813C1.91813 0.707681 1.91813 0.710842 1.91813 0.714004C1.97315 0.722226 1.97379 0.75195 1.97442 0.789263C1.97505 0.861359 1.97632 0.933455 1.97695 1.00492C1.97695 1.0435 1.97695 1.07449 1.92256 1.0865C1.92256 1.08966 1.92256 1.09219 1.92256 1.09535H1.93205L1.93268 1.09472ZM2.17237 0.917011C2.16035 0.886655 2.14201 0.877801 2.1009 0.877801C2.14581 0.879066 2.16035 0.894878 2.17174 0.944207C2.1749 0.944207 2.17806 0.944207 2.18122 0.944207C2.17869 0.933456 2.17616 0.925233 2.173 0.917011H2.17237ZM2.57585 0.908158L2.50186 0.757009L2.49743 0.767128L2.56384 0.909422L2.57585 0.908158ZM2.41458 0.92713C2.41648 0.922703 2.45 0.848078 2.49301 0.750053C2.49301 0.750053 2.50882 0.714004 2.52399 0.679853L2.52842 0.669734H2.52083C2.3564 1.04602 2.35514 1.04666 2.30581 1.06689V1.07512C2.30581 1.07512 2.3115 1.07512 2.31466 1.07512C2.31466 1.07259 2.31466 1.06943 2.31466 1.06626C2.34312 1.05488 2.35514 1.04982 2.39182 0.975828C2.39435 0.970768 2.407 0.944205 2.41458 0.92713ZM2.57901 0.921439C2.57901 0.921439 2.57459 0.921439 2.56953 0.921439C2.62581 1.0435 2.62961 1.04856 2.55814 1.05678V1.065C2.55814 1.065 2.56384 1.065 2.567 1.065C2.567 1.06247 2.567 1.05994 2.567 1.05678C2.63783 1.04856 2.63593 1.04413 2.57901 0.921439ZM3.09191 0.662145C3.09191 0.662145 3.09191 0.667838 3.09191 0.671C3.14883 0.680486 3.16843 0.704518 3.1697 0.765863C3.1697 0.828473 3.1697 0.891082 3.1697 0.95306L3.17918 0.962546C3.17918 0.897406 3.17855 0.831635 3.17855 0.76523C3.17855 0.753847 3.17412 0.727286 3.17476 0.730448C3.16653 0.695032 3.14503 0.677956 3.10076 0.670367C3.10076 0.667205 3.10076 0.664044 3.10076 0.661514H3.09191V0.662145ZM2.78329 1.05867C2.78329 1.05867 2.78329 1.05235 2.78329 1.04982C2.82313 1.03021 2.83767 1.00112 2.8421 0.969503C2.8421 0.969503 2.844 0.939779 2.844 0.925233C2.84337 0.856931 2.84337 0.78863 2.84337 0.719696C2.81301 0.68934 2.80289 0.681751 2.78012 0.674795C2.78012 0.671632 2.78012 0.669102 2.78012 0.66594C2.77696 0.66594 2.7738 0.66594 2.77064 0.66594C2.77064 0.669102 2.77064 0.671632 2.77064 0.674795C2.79404 0.681751 2.80352 0.688707 2.83388 0.719063C2.83388 0.787997 2.83388 0.856298 2.83451 0.9246C2.83451 0.968869 2.83451 1.02516 2.7738 1.04982C2.7738 1.05298 2.7738 1.05551 2.7738 1.05867H2.78265H2.78329ZM3.18108 1.0631C3.08432 0.965707 2.85412 0.731079 2.85412 0.731079C2.85412 0.734241 2.85412 0.737405 2.85412 0.740567C2.95088 0.839225 3.07673 0.966972 3.17223 1.0631C3.17539 1.0631 3.17855 1.0631 3.18108 1.0631ZM3.71358 0.801279C3.71737 0.794322 3.72054 0.786101 3.72306 0.775982C3.72054 0.775982 3.71737 0.775982 3.71484 0.775982C3.70283 0.823414 3.68196 0.836694 3.61998 0.836061C3.61935 0.836061 3.61808 0.836061 3.61745 0.836061C3.61998 0.836061 3.62314 0.836061 3.6263 0.836061C3.67437 0.837326 3.7003 0.827207 3.71421 0.800646L3.71358 0.801279ZM3.46314 0.664676C3.46314 0.664676 3.46314 0.670366 3.46314 0.673528C3.52069 0.685544 3.52069 0.715268 3.52069 0.752581C3.52069 0.824045 3.52069 0.895509 3.52069 0.96634C3.52069 1.00429 3.52069 1.03464 3.46251 1.04286C3.46251 1.04603 3.46251 1.04855 3.46251 1.05108H3.47136V1.04286C3.52891 1.03464 3.52891 1.00365 3.52954 0.965709C3.52954 0.894878 3.52954 0.823414 3.53018 0.75195C3.53018 0.714637 3.53018 0.684913 3.47263 0.672897C3.47263 0.670368 3.47263 0.667205 3.47263 0.664676H3.46314ZM3.62314 0.846813C3.68702 0.849343 3.7003 0.863888 3.71295 0.92713C3.71548 0.92713 3.71864 0.92713 3.72117 0.92713C3.71674 0.906893 3.71548 0.902466 3.71295 0.895509C3.70093 0.858196 3.675 0.847445 3.62314 0.84618V0.846813ZM3.79326 0.75195C3.77176 0.702621 3.73761 0.680486 3.67943 0.677956C3.73824 0.685545 3.77176 0.709577 3.79453 0.777247C3.79769 0.777247 3.80085 0.777247 3.80401 0.777247C3.80401 0.777247 3.80338 0.774716 3.79326 0.752581V0.75195ZM4.04813 1.07638C4.00955 1.07449 3.95327 1.06057 3.9071 1.00871C3.86599 0.963179 3.84512 0.89551 3.85018 0.837327C3.86409 0.693768 4.00196 0.667205 4.04307 0.664676C3.84133 0.671 3.78125 0.889185 3.89825 1.01187C3.96212 1.07891 4.04939 1.09093 4.12212 1.06437C4.112 1.06753 4.10252 1.07006 4.0943 1.07196C4.07912 1.07575 4.06394 1.07701 4.04876 1.07638H4.04813ZM4.1354 0.71274C4.09493 0.677325 4.06394 0.675428 4.04623 0.675428C4.04876 0.675428 4.05192 0.675428 4.05509 0.675428C4.05319 0.675428 4.05066 0.675428 4.04876 0.675428C4.11896 0.67859 4.18979 0.74689 4.17904 0.899303C4.16766 1.04919 4.07975 1.05994 4.05129 1.06057C4.06963 1.06057 4.17651 1.05931 4.18853 0.899303C4.19548 0.80697 4.16639 0.739934 4.1354 0.71274ZM4.82854 1.11306C4.82917 1.1099 4.82917 1.10674 4.82917 1.10421C4.89621 1.09978 4.89684 1.06563 4.89747 1.03022C4.89874 0.953692 4.9 0.876536 4.90127 0.798749C4.9019 0.78863 4.9019 0.771555 4.89621 0.760172C4.88672 0.741832 4.86585 0.729182 4.84182 0.729182C4.86205 0.732344 4.87913 0.744361 4.88672 0.759539C4.89241 0.770922 4.89241 0.787997 4.89241 0.798116C4.89115 0.875903 4.88988 0.953059 4.88862 1.02958C4.88799 1.065 4.88672 1.09852 4.81968 1.10294C4.81968 1.10611 4.81968 1.10864 4.81968 1.1118H4.82854V1.11306ZM4.74063 0.710843L4.73051 0.818354C4.73051 0.818354 4.73684 0.818354 4.74 0.818354L4.74253 0.794321L4.74632 0.75195L4.75012 0.710843H4.74063ZM5.10554 0.817089C5.09732 0.798117 5.0872 0.782938 5.07898 0.773452C5.05494 0.74689 5.02838 0.741199 5.01067 0.741831C5.03281 0.744361 5.05621 0.757642 5.07012 0.773452C5.09352 0.799381 5.10364 0.831634 5.10807 0.847444C5.1106 0.847444 5.11376 0.847445 5.11629 0.848077C5.11376 0.837326 5.10554 0.817089 5.10554 0.817089ZM5.13906 0.743728V0.752581C5.19155 0.768392 5.19092 0.80191 5.19092 0.837958C5.18902 0.910687 5.18775 0.982784 5.18649 1.05425C5.18522 1.0865 5.18459 1.12255 5.13147 1.12761V1.13583C5.13147 1.13583 5.13589 1.13583 5.14095 1.13583V1.12761C5.19344 1.12318 5.19534 1.0865 5.19534 1.05425C5.19724 0.982784 5.1985 0.910687 5.19977 0.837958C5.2004 0.80191 5.2004 0.770291 5.14791 0.75448V0.745625L5.13906 0.743728ZM5.30538 0.94041C5.30538 0.94041 5.29274 0.939778 5.28009 0.938513C5.29337 0.939778 5.30665 0.941676 5.31424 0.941676C5.41669 0.944206 5.4091 0.834797 5.37179 0.793057C5.3604 0.780409 5.32942 0.767759 5.30728 0.768392C5.33005 0.770289 5.35345 0.783571 5.36293 0.79369C5.40151 0.833533 5.40784 0.944206 5.30538 0.941043V0.94041ZM5.38127 1.12824C5.37115 1.13583 5.35914 1.14089 5.34459 1.14215C5.35787 1.14152 5.37685 1.13836 5.39013 1.12824C5.42238 1.10421 5.46665 0.96887 5.30791 0.952427C5.29527 0.951162 5.26048 0.948001 5.26048 0.948001C5.27313 0.949266 5.28641 0.949898 5.29906 0.951795C5.45716 0.967606 5.41226 1.10358 5.38127 1.12824ZM5.73859 1.05804C5.73543 1.05804 5.73227 1.05741 5.72847 1.05678C5.77401 1.18516 5.77654 1.19022 5.71393 1.18895V1.19718C5.71393 1.19718 5.72025 1.19781 5.72341 1.19844C5.72341 1.19591 5.72341 1.19275 5.72341 1.19022C5.78223 1.19085 5.78476 1.18832 5.73859 1.05804ZM5.73417 1.04539L5.67535 0.884759L5.67092 0.895509L5.72405 1.04413C5.72847 1.04413 5.7329 1.04539 5.7348 1.04539H5.73417ZM5.69496 0.814559C5.69812 0.807602 5.70001 0.802544 5.70065 0.801912C5.69812 0.801912 5.69622 0.801911 5.69369 0.800646C5.53622 1.15037 5.53432 1.15037 5.48815 1.16366V1.17188C5.49131 1.17188 5.49448 1.17251 5.49764 1.17314C5.49764 1.17061 5.49764 1.16745 5.49764 1.16429C5.52357 1.1567 5.53495 1.15354 5.5672 1.09156C5.57416 1.07765 5.58238 1.0612 5.59187 1.04097C5.59377 1.03717 5.59503 1.03338 5.59693 1.02958C5.614 0.992902 5.66903 0.870213 5.66903 0.870213C5.66903 0.870213 5.68167 0.842386 5.69432 0.814559H5.69496ZM5.90808 1.22247C5.90808 1.22247 5.90808 1.21678 5.90808 1.21425C5.95741 1.21172 5.95868 1.18136 5.95994 1.14342C5.96184 1.07259 5.96437 1.00112 5.96626 0.92966C5.9669 0.892347 5.96753 0.862624 5.9182 0.844916C5.9182 0.841754 5.9182 0.837958 5.9182 0.836061C5.91504 0.836061 5.91251 0.83543 5.90935 0.834797C5.90935 0.837959 5.90935 0.841754 5.90935 0.844916C5.95867 0.862624 5.95741 0.891715 5.95678 0.92966C5.95488 1.00112 5.95298 1.07259 5.95109 1.14342C5.94982 1.18136 5.94919 1.20982 5.89986 1.21299C5.89986 1.21615 5.89986 1.21868 5.89986 1.22184L5.90871 1.2231L5.90808 1.22247ZM6.09781 1.23196C6.12374 1.22753 6.15725 1.21172 6.19836 1.16492L6.21038 1.15037V1.14911L6.20342 1.14784C6.15536 1.20729 6.12184 1.23069 6.0801 1.23132C6.08516 1.23132 6.09085 1.23196 6.09781 1.23132V1.23196ZM6.27552 1.19148C6.27805 1.12065 6.27994 1.04982 6.28247 0.977725C6.28311 0.941677 6.28374 0.910688 6.23631 0.892348C6.23631 0.89045 6.23631 0.88539 6.23631 0.883493C6.23315 0.883493 6.23062 0.882861 6.22745 0.882229C6.22745 0.885391 6.22745 0.887288 6.22745 0.89045C6.27488 0.908791 6.27362 0.941677 6.27299 0.977725C6.27109 1.04919 6.26856 1.12065 6.26603 1.19148C6.26477 1.22816 6.26413 1.25789 6.21607 1.25978C6.21607 1.26231 6.21607 1.26548 6.21607 1.26864C6.21923 1.26864 6.22176 1.26927 6.22492 1.2699C6.22492 1.26737 6.22492 1.26484 6.22492 1.26168C6.27299 1.25978 6.27425 1.22816 6.27552 1.19148ZM6.41149 1.28065C6.44121 1.27496 6.46841 1.25662 6.50319 1.21678C6.50319 1.21678 6.51204 1.20603 6.51647 1.1997C6.51394 1.1997 6.51141 1.19907 6.50951 1.19844C6.46651 1.25346 6.43362 1.27812 6.39694 1.28129C6.39757 1.28129 6.39821 1.28129 6.39947 1.28129C6.40327 1.28129 6.40769 1.28129 6.41212 1.28129L6.41149 1.28065ZM1.21045 1.49378C1.16239 1.42611 1.12192 1.42864 1.09978 1.42927C1.09852 1.42927 1.09725 1.42927 1.09599 1.42927C1.11116 1.42927 1.12634 1.4318 1.14089 1.43813C1.17883 1.45457 1.2035 1.49757 1.21741 1.52224H1.22627C1.22374 1.51718 1.21868 1.50643 1.20982 1.49378M1.24777 1.68414C1.24777 1.68414 1.24144 1.68414 1.23828 1.68477C1.20856 1.75687 1.18705 1.76888 1.14658 1.79545C1.16365 1.78786 1.1801 1.7771 1.19528 1.76446C1.19528 1.76446 1.21994 1.74295 1.24777 1.68414ZM1.05678 1.83213C1.0163 1.83023 0.980253 1.81632 0.960015 1.80114C0.841752 1.70944 0.869579 1.44825 1.08776 1.41915C1.09409 1.41852 1.10041 1.41789 1.10737 1.41789C1.09788 1.41789 1.08776 1.41789 1.07828 1.41915C0.862622 1.45394 0.831634 1.70944 0.949896 1.8005C0.974561 1.81948 1.02326 1.83465 1.05614 1.83213H1.05678ZM1.2952 1.8062C1.2952 1.8062 1.2952 1.79987 1.2952 1.79734C1.34642 1.78153 1.34643 1.75244 1.34579 1.7145C1.34453 1.6424 1.34326 1.56967 1.34137 1.49568C1.34073 1.4571 1.33947 1.42674 1.28761 1.42042C1.28761 1.41726 1.28761 1.41473 1.28761 1.41157C1.28445 1.41157 1.28129 1.41157 1.27812 1.4122C1.27812 1.41536 1.27812 1.41852 1.27812 1.42168C1.32998 1.42801 1.33125 1.4571 1.33188 1.49568C1.33314 1.56904 1.33504 1.6424 1.33631 1.7145C1.33631 1.75244 1.33757 1.7828 1.28571 1.79861C1.28571 1.80177 1.28571 1.8043 1.28571 1.80746H1.29457L1.2952 1.8062ZM1.58991 1.58358C1.58991 1.62026 1.59117 1.65568 1.5918 1.69173C1.5918 1.72778 1.59244 1.76003 1.53995 1.77521C1.53995 1.77837 1.53995 1.7809 1.53995 1.78406H1.54943C1.54943 1.7809 1.54943 1.7771 1.5488 1.77521C1.60129 1.76003 1.60129 1.72904 1.60066 1.69236C1.60066 1.65631 1.59939 1.62026 1.59876 1.58358H1.58927H1.58991ZM1.5975 1.47291C1.59686 1.43433 1.59623 1.40461 1.54248 1.39765C1.54248 1.39449 1.54248 1.39196 1.54248 1.3888C1.53931 1.3888 1.53615 1.3888 1.53299 1.38943C1.53299 1.39259 1.53299 1.39512 1.53299 1.39828C1.58611 1.40524 1.58675 1.43433 1.58801 1.47291C1.58801 1.50516 1.58928 1.53868 1.58991 1.57093C1.59307 1.57093 1.59623 1.57094 1.59939 1.5703C1.59939 1.53805 1.59813 1.5058 1.5975 1.47354V1.47291ZM1.99276 1.60951C2.04968 1.7341 2.04904 1.7341 1.98074 1.74612V1.75497H1.99023C1.99023 1.75181 1.99023 1.74801 1.99023 1.74548C2.05853 1.7341 2.05727 1.73157 2.00161 1.60888H1.99276V1.60951ZM1.84477 1.60698C1.87007 1.5469 1.90422 1.46406 1.91877 1.42991C1.91877 1.42991 1.93268 1.39639 1.94596 1.36477C1.94786 1.36034 1.94976 1.35465 1.95039 1.35338C1.94786 1.35338 1.94533 1.35338 1.9428 1.35338C1.78659 1.73916 1.78469 1.73979 1.73663 1.76129V1.77015C1.73663 1.77015 1.74295 1.77015 1.74612 1.76952C1.74612 1.76699 1.74612 1.76319 1.74612 1.76066C1.76952 1.75181 1.78469 1.74295 1.81695 1.67339C1.81821 1.67086 1.83971 1.61837 1.83971 1.61837C1.84161 1.61457 1.84288 1.61014 1.84477 1.60635V1.60698ZM1.92066 1.45457L1.98644 1.59813C1.98644 1.59813 1.99276 1.59813 1.99529 1.59813L1.92446 1.44445L1.92003 1.4552L1.92066 1.45457ZM2.62455 1.64999C2.61822 1.59244 2.60115 1.46089 2.59356 1.39702C2.59103 1.40271 2.58913 1.4084 2.5866 1.4141C2.60726 1.58063 2.61738 1.66601 2.61696 1.67023C2.61443 1.70121 2.57522 1.7126 2.55688 1.71829V1.72714C2.55688 1.72714 2.5632 1.72714 2.56637 1.72714C2.56637 1.72461 2.56637 1.72145 2.56637 1.71892C2.59799 1.70944 2.63087 1.69805 2.62518 1.64999H2.62455ZM2.21158 1.34706C2.21158 1.34706 2.21158 1.35275 2.21158 1.35591C2.2413 1.35591 2.25711 1.36477 2.27355 1.39259C2.24889 1.70438 2.24889 1.70501 2.18249 1.73536C2.18249 1.73853 2.18249 1.74106 2.18249 1.74422H2.19197C2.19197 1.74422 2.19197 1.73726 2.19197 1.73473C2.22992 1.71703 2.24763 1.70944 2.25964 1.6386C2.25964 1.6386 2.25964 1.6386 2.25964 1.63797C2.26723 1.59054 2.27292 1.51655 2.28304 1.39322C2.26533 1.36603 2.25079 1.35654 2.22106 1.35591C2.22106 1.35275 2.22106 1.35022 2.22106 1.34706H2.21158ZM2.29253 1.40651L2.29126 1.42232C2.33869 1.51212 2.4013 1.62659 2.44747 1.71323C2.45 1.71323 2.4519 1.71323 2.45443 1.71323C2.45443 1.71323 2.4519 1.7088 2.44873 1.70185C2.40067 1.61141 2.33933 1.49505 2.29253 1.40651ZM2.56763 1.33188C2.58091 1.35654 2.58471 1.36603 2.56826 1.40714L2.47909 1.61774C2.48099 1.6209 2.48225 1.62406 2.48415 1.62722L2.57712 1.40714C2.58471 1.38753 2.58977 1.37552 2.5885 1.36477V1.36224C2.5885 1.36224 2.58724 1.35022 2.57712 1.33188H2.56763ZM3.05649 1.47544C3.0742 1.44572 3.07546 1.39196 3.0489 1.3616C3.03246 1.34263 3.00906 1.33441 2.98693 1.33125C2.98503 1.33125 2.98313 1.33125 2.98123 1.33125C3.00274 1.33378 3.02424 1.34326 3.04005 1.36097C3.06724 1.39323 3.06471 1.44572 3.04764 1.47544C3.03246 1.50137 3.01159 1.51655 2.94898 1.51781C2.93949 1.51781 2.94961 1.51781 2.95783 1.51781C3.02044 1.51655 3.04195 1.50137 3.05649 1.47544ZM2.84147 1.63418C2.84084 1.56208 2.84084 1.48935 2.8402 1.41536C2.8402 1.37615 2.83957 1.34706 2.78202 1.33631V1.32745H2.78012H2.77317V1.33631C2.83072 1.34706 2.83072 1.37615 2.83135 1.41536C2.83135 1.48935 2.83198 1.56208 2.83198 1.63418C2.83198 1.67086 2.83198 1.70185 2.77506 1.71386V1.72208H2.78392V1.71386C2.84147 1.70185 2.84147 1.67086 2.84147 1.63418ZM3.22092 1.62975C3.22092 1.55766 3.22092 1.48429 3.22092 1.41093C3.22092 1.37235 3.21966 1.34137 3.16147 1.33062C3.16147 1.32745 3.16147 1.32429 3.16147 1.32113C3.15831 1.32113 3.15515 1.32113 3.15199 1.32113C3.15199 1.32429 3.15199 1.32682 3.15199 1.32998C3.2108 1.34137 3.21144 1.37172 3.21144 1.4103C3.21144 1.48429 3.21144 1.55702 3.21144 1.62912C3.21144 1.66517 3.21144 1.69679 3.15199 1.70754C3.15199 1.7107 3.15199 1.71323 3.15199 1.71639C3.15515 1.71639 3.15831 1.71639 3.16084 1.71639C3.16084 1.71323 3.16084 1.7107 3.16084 1.70754C3.21966 1.69742 3.22029 1.6658 3.22029 1.62975H3.22092ZM3.63136 1.72525C3.62694 1.72588 3.62251 1.72714 3.61808 1.72778C3.61492 1.72778 3.55484 1.73916 3.49223 1.70311C3.441 1.67339 3.38788 1.62406 3.38345 1.54184C3.37334 1.35528 3.54029 1.3167 3.59342 1.31544H3.59721C3.59721 1.31544 3.59785 1.31544 3.59848 1.31544C3.59532 1.31544 3.59152 1.31544 3.58836 1.31544C3.38029 1.32239 3.31073 1.54943 3.43468 1.66833C3.50488 1.73536 3.59721 1.74548 3.67184 1.71576C3.65729 1.72082 3.64338 1.72398 3.63073 1.72588L3.63136 1.72525ZM3.60037 1.32556C3.66868 1.33378 3.73445 1.40271 3.72433 1.5488C3.71484 1.67782 3.64528 1.70627 3.60733 1.71197C3.64844 1.7088 3.72749 1.6854 3.73318 1.5488C3.73951 1.39196 3.67816 1.33125 3.60037 1.32619V1.32556ZM4.23849 1.45014C4.23849 1.43497 4.23722 1.42232 4.23469 1.41093C4.22647 1.37615 4.20623 1.35971 4.16449 1.35022C4.16449 1.34769 4.16449 1.3439 4.16449 1.34137C4.16133 1.34137 4.15817 1.34137 4.15501 1.34137C4.15501 1.34453 4.15501 1.34706 4.15501 1.35022C4.2094 1.36224 4.22837 1.38817 4.229 1.45077C4.22837 1.51402 4.22774 1.57726 4.2271 1.63924L4.23659 1.64999C4.23722 1.58422 4.23849 1.51781 4.23849 1.45077V1.45014ZM3.84639 1.71639C3.88623 1.70121 3.90014 1.67276 3.9052 1.64177C3.90773 1.62722 3.90773 1.61078 3.90773 1.59497C3.90836 1.52603 3.909 1.4571 3.909 1.3869C3.87801 1.35402 3.86915 1.34769 3.84639 1.33884C3.84639 1.33631 3.84639 1.33314 3.84639 1.32998C3.84322 1.32998 3.84006 1.32998 3.8369 1.32998V1.33884C3.85967 1.34769 3.86915 1.35402 3.90014 1.3869C3.90014 1.4571 3.89888 1.52603 3.89888 1.59434C3.89888 1.63861 3.89761 1.69299 3.83753 1.71513C3.83753 1.71829 3.83753 1.72082 3.83753 1.72335C3.84259 1.72335 3.84702 1.72335 3.85208 1.72335C3.85018 1.72335 3.84828 1.72335 3.84702 1.72335C3.84702 1.72019 3.84702 1.71829 3.84702 1.71513L3.84639 1.71639ZM4.23406 1.74548C4.13983 1.64366 3.91785 1.39702 3.92101 1.40018C3.92101 1.40334 3.92101 1.40651 3.92101 1.40967C4.01461 1.51339 4.1373 1.64683 4.229 1.74801C4.23216 1.74801 4.23469 1.74801 4.23786 1.74801C4.23786 1.74801 4.23659 1.74675 4.23469 1.74485L4.23406 1.74548ZM4.47754 1.74485C4.54521 1.74232 4.57304 1.68604 4.5509 1.63734C4.53636 1.60445 4.4845 1.57852 4.45984 1.56588C4.39976 1.53552 4.39217 1.53173 4.37256 1.51086C4.31817 1.45267 4.34347 1.34643 4.45098 1.34137C4.45225 1.34137 4.45414 1.34137 4.45541 1.34137C4.45414 1.34137 4.45288 1.34137 4.45161 1.34137C4.33525 1.33947 4.30742 1.45267 4.36371 1.51149C4.38331 1.53172 4.3909 1.53552 4.45098 1.56651C4.47565 1.57916 4.5275 1.60509 4.54205 1.63797C4.56355 1.68667 4.53699 1.74359 4.46995 1.74548C4.47059 1.74548 4.47185 1.74548 4.47248 1.74548C4.47501 1.74548 4.47691 1.74548 4.47754 1.74548V1.74485ZM4.33462 1.6424L4.33272 1.61141C4.33019 1.61141 4.32703 1.61141 4.3245 1.61141L4.32956 1.71829C4.33272 1.71955 4.33588 1.72082 4.33904 1.72272L4.33398 1.64303L4.33462 1.6424ZM4.55849 1.42232C4.54774 1.40145 4.5313 1.37615 4.50094 1.36224C4.49399 1.35907 4.47754 1.35402 4.45857 1.35275C4.45857 1.35275 4.45794 1.35275 4.45731 1.35275C4.46932 1.35402 4.48134 1.35718 4.49209 1.36224C4.54079 1.385 4.55343 1.43054 4.56229 1.46406C4.56545 1.46406 4.56861 1.46406 4.57177 1.46406C4.56671 1.44572 4.56292 1.43244 4.55849 1.42232ZM4.64071 1.36287V1.37172C4.69446 1.3869 4.69446 1.41852 4.69446 1.4571C4.6932 1.53109 4.69257 1.60382 4.6913 1.67592C4.69067 1.71196 4.69004 1.74295 4.63565 1.74991C4.63565 1.75307 4.63565 1.7556 4.63565 1.75876H4.6445C4.6445 1.75876 4.6445 1.75307 4.6445 1.75054C4.69889 1.74359 4.69952 1.7126 4.70016 1.67655C4.70142 1.60445 4.70332 1.53173 4.70332 1.45773C4.70332 1.42168 4.70332 1.3888 4.64956 1.37362C4.64956 1.37109 4.64956 1.36666 4.64956 1.36413H4.64071V1.36287ZM4.9038 1.77837C4.9038 1.77521 4.9038 1.77268 4.90443 1.76952C4.95629 1.76319 4.95818 1.7303 4.95882 1.69552C4.95882 1.65947 4.96008 1.62406 4.96071 1.58738C4.95755 1.58738 4.95439 1.58738 4.95123 1.58675C4.95059 1.62343 4.94996 1.66011 4.94933 1.69615C4.9487 1.73094 4.94806 1.76319 4.89494 1.76952C4.89494 1.77268 4.89494 1.77521 4.89494 1.77837H4.9038ZM4.96261 1.47734C4.96261 1.43876 4.96324 1.4084 4.91012 1.39259C4.91012 1.39006 4.91012 1.38627 4.91012 1.38374C4.90696 1.38374 4.9038 1.38374 4.90063 1.38311C4.90063 1.38627 4.90063 1.3888 4.90063 1.39196C4.95376 1.40777 4.95312 1.43939 4.95249 1.47797C4.95249 1.51022 4.95123 1.54184 4.95059 1.5741C4.95376 1.5741 4.95755 1.5741 4.96008 1.57473C4.96008 1.54248 4.96135 1.51022 4.96198 1.47797L4.96261 1.47734ZM5.1068 1.40081C5.1068 1.40081 5.1068 1.40651 5.1068 1.40967C5.15866 1.42611 5.15866 1.45773 5.15803 1.49631C5.15676 1.56967 5.15487 1.64303 5.1536 1.71513C5.15297 1.75117 5.15234 1.78216 5.09985 1.78722C5.09985 1.79039 5.09985 1.79291 5.09985 1.79608H5.1087C5.1087 1.79608 5.1087 1.79102 5.1087 1.78849C5.16056 1.7828 5.16246 1.75181 5.16246 1.71513C5.16372 1.64303 5.16499 1.5703 5.16688 1.49631C5.16688 1.45773 5.16815 1.42738 5.11566 1.41093C5.11566 1.4084 5.11566 1.40398 5.11566 1.40208H5.10617L5.1068 1.40081ZM5.36483 1.7322C5.36673 1.66011 5.36799 1.58738 5.36989 1.51339C5.37052 1.47544 5.37115 1.44572 5.31866 1.42801V1.41852C5.31297 1.41726 5.30918 1.41662 5.30918 1.41662V1.42611C5.36104 1.44382 5.36104 1.47544 5.3604 1.51339C5.35914 1.58738 5.35724 1.66011 5.35598 1.7322C5.35471 1.76825 5.35408 1.79861 5.30159 1.80367C5.30159 1.8062 5.30096 1.80936 5.30096 1.81189C5.30412 1.81189 5.30728 1.81252 5.31044 1.81315V1.80493C5.36293 1.79987 5.3642 1.76825 5.36483 1.7322ZM5.48879 1.62912C5.48246 1.62912 5.46602 1.62785 5.45021 1.62659C5.47045 1.62849 5.49195 1.63102 5.49954 1.63102C5.59567 1.62975 5.58681 1.50959 5.5476 1.47038C5.52989 1.45267 5.50902 1.44572 5.49005 1.44319C5.48436 1.44319 5.47867 1.44319 5.47297 1.44319C5.49195 1.44319 5.51788 1.44951 5.53811 1.46975C5.57732 1.50959 5.58744 1.62849 5.48815 1.62912H5.48879ZM4.5079 1.09472C4.35169 1.10421 4.23786 0.89551 4.3422 0.762069C4.39027 0.700724 4.44972 0.688707 4.48576 0.68428C4.29288 0.698194 4.23659 0.910054 4.35106 1.02958C4.39596 1.07701 4.45288 1.09599 4.5079 1.09409V1.09472ZM4.51675 1.07891C4.68371 1.06373 4.6951 0.688708 4.49399 0.694399H4.49715C4.56861 0.694399 4.64324 0.762068 4.63185 0.917644C4.623 1.0435 4.55407 1.07259 4.51675 1.07891ZM4.50537 0.683016H4.5041H4.50158C4.50158 0.683016 4.49715 0.683015 4.49525 0.683647C4.49905 0.683647 4.50221 0.683647 4.50537 0.683647V0.683016ZM4.48829 0.68428C4.48829 0.68428 4.48829 0.68428 4.48766 0.68428C4.49019 0.68428 4.49272 0.68428 4.49525 0.683647C4.49272 0.683647 4.49082 0.683648 4.48829 0.68428ZM6.49244 1.31227L6.52406 1.20097C6.52406 1.20097 6.51963 1.20034 6.5171 1.1997L6.48358 1.31101L6.49244 1.31227ZM4.48766 0.68428C4.48766 0.68428 4.4864 0.68428 4.48576 0.68428C4.48576 0.68428 4.4864 0.68428 4.48703 0.68428H4.48766Z" fill="white"/>
</svg>
