<svg width="3" height="3" viewBox="0 0 3 3" fill="none" xmlns="http://www.w3.org/2000/svg">
<path d="M0.035135 2.76211C0.028176 2.77856 0.0117265 2.79247 0.0085633 2.75515C-0.00725271 2.56915 -0.0129457 2.30661 0.100297 2.07379C0.130664 2.09657 0.199621 2.16553 0.226825 2.20412C0.165459 2.35342 0.0889094 2.54891 0.035135 2.76147V2.76211ZM2.10134 1.56009C2.17156 1.38801 2.15575 1.08877 2.01846 0.972368C1.89826 0.870512 2.00644 1.17544 2.02289 1.25199C2.03997 1.32981 2.05958 1.44558 2.05958 1.44558C2.05958 1.44558 2.08489 1.4285 2.09185 1.4323C2.10197 1.47911 2.10134 1.56072 2.10134 1.56072V1.56009ZM2.24748 0C2.24748 0.0955287 2.23546 0.169547 2.2304 0.268239C2.35439 0.389073 2.48282 0.638334 2.48282 0.638334C2.48851 0.436521 2.38223 0.148037 2.24684 0.000632293L2.24748 0ZM2.26709 1.4032C2.41892 1.00843 2.30884 0.638966 2.09628 0.426399V0.45993C2.28733 0.716149 2.35692 0.942633 2.26709 1.4032Z" fill="#AE0A3F"/>
</svg>
