<svg width="7" height="16" viewBox="0 0 7 16" fill="none" xmlns="http://www.w3.org/2000/svg">
<path d="M5.29926 11.8069C4.7655 12.9768 4.73451 14.6382 4.70352 15.5508C4.49798 15.5508 4.14572 15.5483 3.79157 15.5438C3.47662 15.54 2.77527 15.5495 2.71202 15.547C2.61906 15.5432 2.60578 15.5217 2.60009 15.4736C2.58554 15.3535 2.6608 13.7629 1.94047 12.1838C1.49082 11.1985 0.951995 10.5237 0.528905 9.157C-0.126283 7.04155 -0.0320525 3.02062 0.0387787 2.33001C0.122891 1.50281 0.279099 0.399863 2.71392 0.0431778C3.10033 -0.0137402 3.96295 -0.0535828 4.66874 0.0223077C4.78004 0.0387507 4.88439 0.0570912 4.98052 0.0779611C6.85881 0.444766 6.68743 3.0573 6.69691 3.72893C6.73169 6.21814 6.40157 9.39416 5.30052 11.8069H5.29926Z" fill="url(#paint0_linear_1587_25522)"/>
<defs>
<linearGradient id="paint0_linear_1587_25522" x1="-0.011815" y1="7.76568" x2="6.69818" y2="7.76568" gradientUnits="userSpaceOnUse">
<stop offset="0.16" stop-color="#E8EEF9"/>
<stop offset="0.52" stop-color="#F1F5FC"/>
</linearGradient>
</defs>
</svg>
