<svg width="3" height="4" viewBox="0 0 3 4" fill="none" xmlns="http://www.w3.org/2000/svg">
<path d="M1.967 2.0294C1.9423 2.6277 2.0087 2.9357 1.929 3.1191C1.7513 3.0938 1.5407 3.0742 1.2548 3.0742C0.8096 3.0742 0.5902 3.109 0.4384 3.1374C0.3075 3.1507 0.267 3.0938 0.2619 3.0204C0.2493 2.8421 0.2708 2.5259 0.2746 2.3286C0.2853 1.7657 0.232199 1.3799 0.1589 0.965099C0.0626995 0.418699 -0.0328003 0.2163 0.0108997 0.1979C0.4283 0.0239998 0.9273 0 1.246 0C1.5224 0 1.836 0.00249974 2.2566 0.1227C2.089 0.9341 1.9935 1.3989 1.967 2.0294Z" fill="url(#paint0_linear_1591_39885)"/>
<defs>
<linearGradient id="paint0_linear_1591_39885" x1="-0.000500279" y1="1.5697" x2="2.256" y2="1.5697" gradientUnits="userSpaceOnUse">
<stop offset="0.16" stop-color="#E8EEF9"/>
<stop offset="0.49" stop-color="#F1F5FC"/>
</linearGradient>
</defs>
</svg>
