<svg width="4" height="1" viewBox="0 0 4 1" fill="none" xmlns="http://www.w3.org/2000/svg">
<path d="M3.27541 0.0594762C3.23051 0.0746543 2.76631 0.0929972 2.64362 0.0898351C2.73153 0.113235 0.559161 0.113235 0.647067 0.0898351C0.524377 0.0929972 0.0601808 0.0746543 0.0152789 0.0594762C-0.108676 0.0177364 0.562323 0.0246943 0.561691 0.0133107C0.561058 0.00319195 0.489595 2.90695e-05 0.552837 0.000661491C0.87474 0.00255876 1.50147 0.00951632 1.61277 0.00951632C1.74558 0.00951632 2.61706 -0.00060397 2.82007 2.84519e-05C2.80173 0.00129329 2.78845 0.00698648 2.78086 0.0133107C2.78528 0.0183701 2.79983 0.0227992 2.82449 0.0234316C3.10529 0.0329179 3.35636 0.0310173 3.27541 0.0594762Z" fill="url(#paint0_linear_3091_43784)"/>
<defs>
<linearGradient id="paint0_linear_3091_43784" x1="0.000100744" y1="0.0537857" x2="3.29059" y2="0.0537857" gradientUnits="userSpaceOnUse">
<stop offset="0.06" stop-color="#A3B7D4"/>
<stop offset="0.32" stop-color="#ADBFD9"/>
<stop offset="0.75" stop-color="#C7D5E7"/>
<stop offset="0.79" stop-color="#D6E0ED"/>
<stop offset="0.87" stop-color="#ECF1F7"/>
<stop offset="0.94" stop-color="#FAFBFD"/>
<stop offset="1" stop-color="white"/>
</linearGradient>
</defs>
</svg>
