<svg width="1" height="3" viewBox="0 0 1 3" fill="none" xmlns="http://www.w3.org/2000/svg">
<path d="M0.612395 2.81905C0.599742 2.24967 0.438419 1.32855 0.341625 0.778149C0.327075 0.693375 0.313156 0.616825 0.301769 0.550398C0.261912 0.316321 0.179037 0.139814 0.0563049 0.0265717C0.0373257 0.00885781 0.0202443 0 0.00569353 0C0.00379561 0 0.00189792 0.000633876 0 0.00126652C0.0139181 0.00189916 0.0297337 0.0107564 0.0480803 0.027205C0.170812 0.140448 0.253689 0.316954 0.293545 0.551031C0.304933 0.617458 0.318217 0.694008 0.333401 0.778782C0.430195 1.32918 0.591519 2.2503 0.604172 2.81968C0.604172 2.82031 0.612395 2.81968 0.612395 2.81968V2.81905Z" fill="url(#paint0_linear_3091_44213)"/>
<defs>
<linearGradient id="paint0_linear_3091_44213" x1="0.00063264" y1="1.41016" x2="0.612395" y2="1.41016" gradientUnits="userSpaceOnUse">
<stop stop-color="white"/>
<stop offset="0.45" stop-color="#C5D2E9"/>
<stop offset="0.79" stop-color="#9DB4DB"/>
<stop offset="0.87" stop-color="#B6C7E4"/>
<stop offset="0.94" stop-color="#C5D2EA"/>
<stop offset="1" stop-color="#CBD7EC"/>
</linearGradient>
</defs>
</svg>
