<svg width="6" height="1" viewBox="0 0 6 1" fill="none" xmlns="http://www.w3.org/2000/svg">
<path d="M1.59589 0.0916996C1.97909 0.0335196 2.40219 0.00064 2.86829 0C2.89549 0 2.92269 0 2.94989 0C3.38689 0.00253 3.78659 0.0341501 4.15019 0.0885401C4.17299 0.0917001 4.19509 0.0954995 4.21789 0.0986595C4.27419 0.10751 4.32919 0.11637 4.38359 0.12649C4.39939 0.12965 4.41459 0.13218 4.42969 0.13534H4.43159C5.24749 0.35669 5.73319 0.64381 4.64789 0.42499C4.59099 0.41234 4.53409 0.40096 4.47649 0.39021C4.40319 0.37629 4.32979 0.36364 4.25579 0.35226C2.90879 0.13977 1.45859 0.250439 0.239894 0.662149C-0.0636065 0.764599 -0.0807067 0.70642 0.197593 0.54642C0.581493 0.32696 1.10319 0.18404 1.59589 0.0916996Z" fill="url(#paint0_linear_1591_39959)"/>
<defs>
<linearGradient id="paint0_linear_1591_39959" x1="-0.000406597" y1="0.35669" x2="5.27649" y2="0.35669" gradientUnits="userSpaceOnUse">
<stop offset="0.16" stop-color="#F2F6FC"/>
<stop offset="0.49" stop-color="#F7FAFE"/>
</linearGradient>
</defs>
</svg>
