<svg width="1" height="3" viewBox="0 0 1 3" fill="none" xmlns="http://www.w3.org/2000/svg">
<path d="M0.393801 0.410061C0.472248 0.355021 0.493757 0.129801 0.505145 0.084884C0.545001 -0.075174 0.599409 0.0140286 0.61649 0.163332C0.626612 0.253167 0.579796 0.670709 0.401392 0.700443C0.401392 0.700443 0.301435 0.412592 0.393801 0.410694V0.410061ZM0.200213 2.51359C0.170479 2.42249 0.179969 2.33582 0.194519 2.25547C0.202111 2.21435 0.15403 2.08213 0.193886 2.01317C0.260313 1.89866 0.180601 1.80567 0.140112 1.71583C0.123031 1.67787 0.00156388 1.5931 0.00156388 1.5931C0.00282916 1.61081 0.00978774 1.70571 0.0129509 1.77846C0.0142162 1.81009 -0.00666079 1.9594 0.00219618 2.02393C0.0142163 2.11313 0.0148489 2.2599 0.00409402 2.33265C-0.0129873 2.444 0.0407878 2.47816 0.0502774 2.59267L0.200845 2.51422L0.200213 2.51359ZM0.153397 1.70761C0.188825 1.62473 0.241334 1.49124 0.222355 1.42608C0.21413 1.39761 0.217294 1.35523 0.220457 1.30968C0.222987 1.27804 0.149601 1.02182 0.0180122 0.950336C-0.0136198 1.00538 0.00915502 1.10976 0.0306648 1.15658C0.0559704 1.21098 0.0249713 1.34004 0.0477463 1.43051C0.0547054 1.45835 0.100255 1.54818 0.0730516 1.60765L0.153397 1.70761ZM0.3027 0.875684C0.307129 0.85544 0.247028 0.466366 0.204009 0.470162C0.228049 0.603016 0.178703 0.674505 0.145806 0.717524C0.124296 0.745993 0.114174 0.824441 0.165417 0.921868C0.186295 0.961724 0.322312 0.932622 0.3027 0.876317V0.875684Z" fill="white"/>
</svg>
