<svg width="2" height="3" viewBox="0 0 2 3" fill="none" xmlns="http://www.w3.org/2000/svg">
<path d="M0.210935 2.02761C0.311525 1.98965 0.77525 2.02634 0.77525 2.02634C0.77525 2.02634 0.450072 1.99471 0.419706 1.92892C0.372258 1.82706 0.556989 1.49556 0.748679 1.24567C0.953022 0.979327 1.12004 0.886961 1.14851 0.861656C1.19089 0.824962 1.19532 0.802819 1.25859 0.742086C1.32438 0.680087 1.35158 0.685146 1.35918 0.661106C1.3655 0.640861 1.35728 0.619985 1.36993 0.594679C1.38258 0.569374 1.41485 0.495987 1.40726 0.400458C1.39903 0.301767 1.37689 0.268236 1.37689 0.225849C1.37689 0.183462 1.37373 0.173342 1.35475 0.164485C1.33577 0.155628 1.30477 0.154362 1.3111 0.136649C1.31742 0.118935 1.45977 0 1.45977 0C1.45977 0 1.43889 0.0126505 1.41928 0.0253033C1.32501 0.0841388 1.25542 0.126528 1.23391 0.161956C1.22632 0.173976 1.22316 0.194219 1.21936 0.211933C1.19722 0.336563 1.21746 0.539009 1.17508 0.608599C1.14914 0.650986 1.07449 0.65225 0.913165 0.796492C0.515867 1.1514 0.288117 1.58793 0.209037 1.81314C0.170446 1.92386 0.067958 1.86945 0.0255711 1.97637C-0.00163246 2.04659 -0.0035298 2.101 0.00342924 2.13516C0.009123 2.15287 0.0173472 2.15351 0.0230409 2.15351C0.0793459 2.14971 0.104019 2.06683 0.20967 2.02698L0.210935 2.02761Z" fill="#3387E0"/>
</svg>
