<svg width="11" height="22" viewBox="0 0 11 22" fill="none" xmlns="http://www.w3.org/2000/svg">
<path d="M4.48758 11.6055C4.17663 11.9732 3.86567 12.5762 3.75225 12.9221H3.74942C3.92144 13.5922 4.01312 14.2935 4.01312 15.0166C4.01312 16.6073 3.25227 18.5751 2.19275 20.0694C2.96116 19.9144 3.75603 19.8331 4.56981 19.8331C4.94504 19.8331 5.31554 19.851 5.68131 19.8851C6.14065 18.9201 6.43271 17.8936 6.43271 16.8993C6.43271 16.0648 6.30133 15.2604 6.05843 14.5053L6.22855 14.3455C6.80132 15.458 7.12456 16.7207 7.12456 18.0581C7.12456 18.7471 7.0376 19.4163 6.87598 20.0552C7.9251 20.2603 8.89861 20.592 9.85605 21.0618C9.99026 17.0534 7.66991 13.4561 4.48475 11.6046L4.48758 11.6055ZM2.87232 12.2151L2.67289 11.7085C3.41484 9.57912 4.49231 8.15288 4.96583 7.59241C4.43276 7.03949 4.10385 6.2881 4.10385 5.46014C4.10385 4.36377 4.67945 3.40255 5.54426 2.85909C5.35429 3.21446 5.24654 3.61993 5.24654 4.05092C5.24654 5.45258 6.38261 6.58866 7.78427 6.58866C9.18594 6.58866 10.322 5.45258 10.322 4.05092C10.322 2.64926 9.22469 1.55572 7.858 1.51602L8.32868 0L8.2956 0.00945152C3.47343 1.45175 0 5.98092 0 11.1802C0 14.4022 1.13607 17.3294 2.53584 18.9437C2.65399 18.6998 2.77024 18.4295 2.84018 18.2367C2.56042 17.1564 2.48102 15.9872 2.67951 14.819C3.29291 11.0819 6.17752 8.33435 9.87306 7.61037L9.06023 6.74272C6.18224 7.67086 3.90254 9.60842 2.87232 12.2151Z" fill="#5EC4E7"/>
</svg>
