<svg width="3" height="1" viewBox="0 0 3 1" fill="none" xmlns="http://www.w3.org/2000/svg">
<path d="M2.10303 0.915999C2.04733 0.905299 1.67153 0.8338 1.32863 0.8237C1.30653 0.823 1.28373 0.8224 1.26093 0.8224C1.23823 0.8218 1.21483 0.821799 1.19073 0.821799C0.701131 0.821799 0.426532 0.885 0.222232 0.9268C0.200032 0.9293 0.201332 0.9097 0.208232 0.9009C0.224732 0.88 0.241832 0.8686 0.241832 0.8686C0.241832 0.8686 0.225331 0.864199 0.220331 0.840799C0.214631 0.816099 0.240532 0.7864 0.240532 0.7864C0.239932 0.7864 0.228532 0.785699 0.209532 0.725599C0.177932 0.625699 0.139931 0.3675 0.142431 0.2619C0.145631 0.1543 0.202532 0.105 0.202532 0.105C0.202532 0.105 0.0235313 0.1259 0.00143131 0.1214C-0.0144687 0.1189 0.103831 0.0910993 0.270231 0.0619993C0.276631 0.0606993 0.283531 0.0600997 0.290531 0.0587997C0.528331 0.0252997 0.818132 0 1.19963 0C1.44123 0 1.66203 0.0119995 1.85823 0.0290995C1.92903 0.0353995 2.09483 0.0575992 2.22513 0.0815992C2.17703 0.261299 2.34533 0.449799 2.10303 0.915999Z" fill="white"/>
</svg>
