<svg width="2" height="1" viewBox="0 0 2 1" fill="none" xmlns="http://www.w3.org/2000/svg">
<path d="M0.690843 0L0.707292 0.0525083L0.569376 0.083507L0.577601 0.110712L0.710456 0.0809779L0.727536 0.134751L0.594682 0.164485L0.606069 0.199281L0.747781 0.167016L0.764863 0.222055L0.530153 0.276463L0.463093 0.0512437L0.691476 0H0.690843ZM0.191058 0.195486L0.125263 0.255585C0.204554 0.320536 0.245464 0.355331 0.247995 0.35997C0.262546 0.385909 0.246098 0.413113 0.215098 0.416276C0.201813 0.417542 0.18916 0.413745 0.177139 0.403623L0.0657951 0.310625L0 0.373257C0.0991136 0.456344 0.163432 0.497676 0.192955 0.497254C0.279627 0.490928 0.397299 0.37642 0.311892 0.293544C0.308729 0.291013 0.304933 0.287219 0.30177 0.284688L0.19169 0.194852L0.191058 0.195486ZM1.44115 0.390971L1.48164 0.323911L1.40446 0.358073L1.44052 0.391602L1.44115 0.390971ZM1.50632 0.243565L1.57338 0.3043L1.45317 0.544069L1.38548 0.480174L1.40699 0.445377L1.3431 0.386542L1.30324 0.405521L1.23555 0.343523L1.50505 0.243565H1.50632ZM0.983756 0.00948922L0.914165 0.232178L1.00527 0.253056L1.03184 0.166383L1.13496 0.189792L1.15077 0.137282L1.04829 0.113241L1.05777 0.0822424L1.18114 0.110712L1.19695 0.0575686L0.983756 0.00885596V0.00948922Z" fill="#9DB4DB"/>
</svg>
