<svg width="10" height="4" viewBox="0 0 10 4" fill="none" xmlns="http://www.w3.org/2000/svg">
<path d="M0.9083 0.380146C1.21051 0.392646 1.90609 1.06691 2.4355 1.51911C3.15682 2.13529 3.77961 2.6669 4.22814 2.75367C4.25976 2.75955 4.29285 2.76323 4.32888 2.76396C4.83402 2.77499 5.6002 2.1897 6.8024 1.225C7.38401 0.758821 8.26122 0.0117647 8.4943 0C8.5193 0 10.37 0.18897 8.78768 0.154412C8.62004 0.150735 8.39504 0.167647 7.73916 0.766174C6.87446 1.55514 5.0752 3.23749 4.24505 3.21911C4.22005 3.21911 4.19579 3.21617 4.17299 3.21175C3.92152 3.16322 2.97373 2.26617 2.4083 1.73014C1.40903 0.783821 1.06051 0.561028 0.799478 0.526469C0.615655 0.502204 0.0641858 0.661027 0.00315663 0.636763C-0.0578726 0.612498 0.784772 0.374264 0.909771 0.379411L0.9083 0.380146Z" fill="#711000"/>
</svg>
