<svg width="25" height="7" viewBox="0 0 25 7" fill="none" xmlns="http://www.w3.org/2000/svg">
<path d="M0.268523 1.0435L1.15517 0L1.67692 0.443401L0.790273 1.4869C0.601813 1.7088 0.571453 1.9296 0.894623 2.2047L0.899683 2.2091C1.22348 2.4842 1.4366 2.4178 1.62506 2.1964L2.51172 1.1529L3.03347 1.5963L2.14681 2.6398C1.70348 3.1615 1.09446 3.1381 0.522753 2.653L0.517693 2.6486C-0.0540167 2.1629 -0.174807 1.5652 0.268523 1.0435ZM4.80361 2.5892L5.49169 2.9724C5.0882 3.1552 4.65752 3.3152 4.20408 3.4461L4.41404 5.1157L3.71142 4.7236L3.55142 3.6187C3.36738 3.6611 3.17955 3.7016 2.98793 3.7357L2.73939 4.1816L2.14112 3.8483L3.30857 1.755L3.90684 2.0883L3.40659 2.9857L3.42177 2.9939C3.91696 2.9288 4.37988 2.7726 4.80361 2.5892ZM5.08251 4.6882C5.20394 4.3536 5.54987 4.315 5.87304 4.3384L5.87683 4.329C5.80157 4.1557 5.76742 3.9792 5.82814 3.8123L5.84015 3.78C5.97486 3.4101 6.40996 3.2949 6.96649 3.498L6.97598 3.5018C7.53884 3.7067 7.78485 4.033 7.65014 4.403L7.64572 4.4156C7.54516 4.6926 7.265 4.8311 6.73882 4.7451L6.73313 4.7609L6.99748 5.2251C7.14168 5.1283 7.25614 4.9841 7.29978 4.8653L7.91134 5.0879C7.79433 5.4098 7.56476 5.5704 7.22389 5.6248L7.62168 6.3236L6.86531 6.0485L6.69961 5.7627C6.44981 5.8284 6.15826 5.8284 5.84015 5.7121L5.83067 5.7083C5.14828 5.4604 4.93642 5.0917 5.07113 4.7217L5.08314 4.6894L5.08251 4.6882ZM6.09944 5.2586L6.10893 5.2624C6.24111 5.3105 6.35494 5.337 6.4574 5.3453L6.07162 4.6837C5.85217 4.6768 5.76995 4.7527 5.73327 4.852L5.72885 4.8646C5.67636 5.0094 5.7807 5.1429 6.09944 5.2586ZM6.4087 4.0267L6.40427 4.0393C6.37645 4.1165 6.40427 4.181 6.51811 4.3871C6.87985 4.4238 7.01646 4.3897 7.05693 4.2771L7.06136 4.2645C7.09677 4.1677 7.04365 4.0722 6.79954 3.983L6.79005 3.9792C6.56491 3.897 6.44348 3.9306 6.4087 4.0267ZM8.98894 4.1468L9.65874 4.2904L9.15534 6.6335L8.48554 6.4899L8.98894 4.1468ZM9.97874 4.389L11.3422 4.5187C11.8873 4.5705 12.201 4.8924 12.1555 5.3699L12.1523 5.4041C12.1213 5.7279 11.943 5.9448 11.6622 6.0384L11.6603 6.0555C11.9183 6.3103 12.0941 6.6645 12.2061 7.0085L11.456 6.9371C11.351 6.5937 11.1499 6.2857 10.9273 6.0612L10.5118 6.0213L10.434 6.8397L9.75234 6.7745L9.97874 4.389ZM11.1936 5.5363C11.3302 5.5495 11.4389 5.4907 11.4529 5.3408V5.3339C11.468 5.184 11.3719 5.1062 11.2359 5.0929L10.6054 5.0328L10.563 5.4762L11.1936 5.5363ZM14.6491 6.3034L14.6731 6.8852L12.5862 6.9725L12.4862 4.5781L14.5732 4.4909L14.5973 5.0727L13.1945 5.1315L13.2072 5.4395L14.5757 5.3826L14.5998 5.9644L13.2312 6.0213L13.2458 6.3635L14.6485 6.3046L14.6491 6.3034ZM17.0479 5.9998L17.1244 6.5766L15.1557 6.8371L14.8407 4.4611L15.5193 4.3713L15.7577 6.1699L17.0479 5.9998ZM17.6677 4.0096L18.5322 3.7977L20.0335 5.8974L19.3354 6.0688L19.0634 5.6773L18.0655 5.9214L18.0054 6.3944L17.3072 6.5652L17.6677 4.0096ZM18.7086 5.165L18.2602 4.4997L18.2438 4.5035L18.1439 5.3035L18.7086 5.165ZM19.4467 3.5732L20.0943 3.3032L21.5748 4.1399L21.5906 4.1335L21.0739 2.8953L21.6899 2.6385L22.6126 4.8501L21.965 5.1201L20.4845 4.2834L20.4687 4.2898L20.9853 5.528L20.3694 5.7848L19.4467 3.5732ZM21.9118 2.5436L22.8415 1.8429C23.5251 1.3281 24.1892 1.4698 24.5807 1.9896L24.6218 2.0447C25.0132 2.5639 24.9671 3.2418 24.2834 3.7572L23.3538 4.458L21.9118 2.5436ZM22.8086 2.5961L23.5504 3.5802L23.9331 3.2918C24.2613 3.0445 24.2569 2.7264 24.0507 2.4526L24.0298 2.4254C23.8236 2.1522 23.5188 2.0605 23.1906 2.3077L22.8086 2.5961Z" fill="white"/>
</svg>
