<svg width="3" height="1" viewBox="0 0 3 1" fill="none" xmlns="http://www.w3.org/2000/svg">
<path d="M0.00141698 0.121467C-0.014399 0.118936 0.103905 0.0923652 0.270289 0.0619985C0.276615 0.0607332 0.283575 0.0601003 0.290534 0.0588351C0.528407 0.0253051 0.818156 0 1.19964 0C1.41537 0 1.61402 0.00885631 1.79938 0.0240397C1.87466 0.0297334 2.01574 0.0474475 2.13468 0.067692C2.0828 0.226485 2.24729 0.524458 2.0227 0.898981C2.01827 0.898348 2.01258 0.897084 2.00562 0.895819C1.94109 0.883798 1.66779 0.830656 1.31731 0.823064C1.29706 0.823064 1.27682 0.822432 1.25594 0.821799C1.23507 0.821166 1.21356 0.821799 1.19141 0.821799C0.701749 0.821799 0.427184 0.885063 0.222841 0.926817C0.200699 0.929348 0.201964 0.909736 0.208923 0.900879C0.225371 0.880002 0.242453 0.868615 0.242453 0.868615C0.242453 0.868615 0.226004 0.864186 0.220943 0.840778C0.215249 0.816105 0.239923 0.788269 0.239923 0.788269C0.23929 0.788269 0.229168 0.785739 0.210188 0.725638C0.178556 0.625681 0.140598 0.367564 0.143129 0.261913C0.145659 0.156262 0.203229 0.105018 0.203229 0.105018C0.203229 0.105018 0.0241926 0.125895 0.00205024 0.121467H0.00141698Z" fill="url(#paint0_linear_3091_43819)"/>
<defs>
<linearGradient id="paint0_linear_3091_43819" x1="0.000151698" y1="0.463092" x2="2.1448" y2="0.463092" gradientUnits="userSpaceOnUse">
<stop offset="0.16" stop-color="#E2E8F1"/>
<stop offset="0.49" stop-color="#E6EBF3"/>
</linearGradient>
</defs>
</svg>
