<svg width="1" height="3" viewBox="0 0 1 3" fill="none" xmlns="http://www.w3.org/2000/svg">
<path d="M0.884431 2.7969C0.884431 2.7969 0.87937 2.79753 0.876839 2.79753C0.858493 2.61913 0.82433 2.4344 0.774984 2.24651C0.725638 2.05735 0.457399 1.35765 0.366931 1.15583C0.294178 0.99451 0.205608 0.764861 0.12463 0.588355C0.0449175 0.413746 0 0.23471 0 0.135386C0 0.0721219 0.0056943 0 0.0499791 0C0.0512444 0 0.0525095 0 0.0537748 0C0.0139185 0.00506112 0.00822463 0.0733859 0.00822463 0.134119C0.00822463 0.233444 0.0531422 0.412481 0.132855 0.58709C0.213833 0.763597 0.302402 0.993245 0.375156 1.15457C0.465624 1.35638 0.733863 2.05608 0.783209 2.24524C0.832555 2.43313 0.866717 2.6185 0.884431 2.79627V2.7969Z" fill="url(#paint0_linear_3091_44212)"/>
<defs>
<linearGradient id="paint0_linear_3091_44212" x1="-0.00506112" y1="1.39877" x2="0.879369" y2="1.39877" gradientUnits="userSpaceOnUse">
<stop stop-color="#6476A0"/>
<stop offset="0.01" stop-color="#6879A3"/>
<stop offset="0.03" stop-color="#7485AC"/>
<stop offset="0.04" stop-color="#8999BC"/>
<stop offset="0.05" stop-color="#A6B5D2"/>
<stop offset="0.07" stop-color="#C5D3EA"/>
<stop offset="0.1" stop-color="#C1D0E8"/>
<stop offset="0.33" stop-color="#B2C4E3"/>
<stop offset="0.6" stop-color="#A9BEE0"/>
<stop offset="1" stop-color="#A7BCDF"/>
</linearGradient>
</defs>
</svg>
