<svg width="12" height="11" viewBox="0 0 12 11" fill="none" xmlns="http://www.w3.org/2000/svg">
<path d="M7.57945 3.51832L7.53135 3.46272C8.22575 2.30222 7.65025 1.06082 6.58655 0.416919C5.43365 -0.280581 4.11695 -0.00928062 2.89705 0.546019C1.67705 1.10122 0.60705 1.91642 0.37615 3.24452C0.16305 4.46952 0.721449 5.71852 2.05335 5.95702L2.06345 6.02972C0.58865 6.63302 -0.79445 8.08382 0.53875 9.87042C1.26475 10.8437 2.90455 11.0315 4.10685 10.9335C5.16805 10.8468 6.24065 10.5426 7.24115 10.0873C8.24165 9.63202 9.17445 9.02292 9.93645 8.27922C10.7997 7.43682 11.7344 6.07652 11.477 4.89012C11.0046 2.71072 9.00305 2.80242 7.57945 3.51832ZM3.06645 3.86302C2.97225 3.53102 3.03295 3.10092 3.88355 2.71332C4.73415 2.32622 5.09845 2.56282 5.28695 2.85182C5.61385 3.35262 5.14085 3.89722 4.55015 4.17802C3.95065 4.43852 3.22965 4.43852 3.06645 3.86302ZM6.26905 7.95292C5.13135 8.47082 3.82355 8.63912 3.69765 7.88142C3.56675 7.09472 4.82775 6.48762 5.46975 6.19542C6.11165 5.90322 7.39605 5.35112 7.90385 5.96642C8.39275 6.55842 7.40745 7.43492 6.26905 7.95292Z" fill="#00C878"/>
</svg>
