<svg width="7" height="1" viewBox="0 0 7 1" fill="none" xmlns="http://www.w3.org/2000/svg">
<path d="M6.913 0.722226C6.8896 0.722226 6.87316 0.724123 6.87316 0.724123C6.87316 0.724123 6.74794 0.6242 6.5209 0.622936C6.29449 0.621671 6.13702 0.639378 6.09781 0.650129C5.99346 0.679221 6.0801 0.623568 5.99662 0.640011C5.9201 0.655189 5.63804 0.761435 5.44452 0.720328C5.251 0.679221 5.19914 0.676059 5.13969 0.732344C5.1321 0.742463 5.12388 0.753214 5.11756 0.763333C5.09669 0.56918 5.25036 0.142927 5.33321 0C5.41606 0.106247 5.43946 0.18783 5.44578 0.255499C5.46096 0.416766 5.35471 0.549574 5.33701 0.653291C5.43883 0.667837 5.54191 0.739301 5.82334 0.651394C5.98461 0.601433 6.33813 0.600801 6.42414 0.598271C6.51141 0.595741 6.66888 0.607758 6.73213 0.62926C6.77007 0.641909 6.87505 0.693135 6.913 0.722226ZM1.73789 0.691869C1.71955 0.498981 1.60825 0.216289 1.53995 0.0588157C1.49315 0.121425 1.47291 0.196051 1.46785 0.255499C1.45457 0.416766 1.55892 0.549574 1.57663 0.653291C1.47481 0.667837 1.37172 0.739301 1.09029 0.651394C0.929027 0.601433 0.575504 0.600801 0.489495 0.598271C0.40222 0.595741 0.244748 0.607758 0.181506 0.62926C0.14356 0.641909 0.0316211 0.688708 0 0.720961C0.0233996 0.720961 0.0379457 0.72349 0.0379457 0.72349C0.0379457 0.72349 0.166327 0.6242 0.392734 0.622936C0.619141 0.621671 0.833532 0.631789 0.916379 0.648232C0.992902 0.66341 1.27559 0.761435 1.46912 0.720328C1.66264 0.679221 1.71449 0.676059 1.77394 0.732344C1.77078 0.719063 1.7575 0.70515 1.73789 0.691869Z" fill="#556684"/>
</svg>
