<svg width="6" height="1" viewBox="0 0 6 1" fill="none" xmlns="http://www.w3.org/2000/svg">
<path d="M1.59648 0.0917009C1.98226 0.0335181 2.40915 0 2.87904 0C2.90686 0 2.93406 0 2.96125 0C3.40268 0.00316211 3.8049 0.0360482 4.17107 0.0910688C4.19384 0.094231 4.21661 0.0980254 4.23874 0.10182C4.29566 0.110674 4.35131 0.12016 4.40633 0.130911C4.42214 0.134073 4.43732 0.136602 4.45313 0.139765C4.45376 0.139765 4.4544 0.139765 4.45503 0.139765C5.29994 0.368701 5.84889 0.682382 4.67891 0.431311C4.62199 0.418662 4.56444 0.406647 4.50626 0.395895C4.4329 0.381982 4.35953 0.368701 4.28554 0.357318C2.93026 0.137867 1.4681 0.247909 0.239941 0.662777C-0.0636216 0.76523 -0.0806968 0.707047 0.197569 0.547044C0.581448 0.327594 1.1032 0.184667 1.59585 0.092333L1.59648 0.0917009Z" fill="url(#paint0_linear_3091_43993)"/>
<defs>
<linearGradient id="paint0_linear_3091_43993" x1="0.000253079" y1="0.356686" x2="5.34927" y2="0.356686" gradientUnits="userSpaceOnUse">
<stop offset="0.16" stop-color="#F9FBFE"/>
<stop offset="0.49" stop-color="#FCFDFE"/>
</linearGradient>
</defs>
</svg>
