<svg width="5" height="2" viewBox="0 0 5 2" fill="none" xmlns="http://www.w3.org/2000/svg">
<path d="M4.41582 0.304195C4.27985 0.291546 3.9921 0.268146 3.9864 0.325697C3.98071 0.383247 4.52965 0.481272 4.43416 0.578665C4.30261 0.712739 4.25771 0.942307 4.25265 1.14279C4.24317 1.46785 4.36839 1.53109 4.32222 1.60319C4.2887 1.65631 4.06356 1.64113 3.55067 1.60951C3.2705 1.57346 2.98212 1.55006 2.695 1.55006C2.18906 1.55006 1.59648 1.6209 1.1247 1.71702C0.657338 1.81315 0.260177 1.8979 0.224129 1.84288C0.178595 1.77268 0.303182 1.72651 0.293696 1.41409C0.288636 1.22121 0.298122 0.999225 0.167844 0.868946C0.0653914 0.765862 0.592198 0.580562 0.589669 0.524909C0.586507 0.462932 0.308874 0.52238 0.172903 0.533764C0.0970125 0.54072 -0.0142941 0.572341 0.00151649 0.507834C0.625716 0.203007 1.68882 0 2.695 0C3.39446 0 4.0838 0.0860095 4.68523 0.249174C4.71432 0.257396 4.47716 0.309254 4.41582 0.304195Z" fill="url(#paint0_linear_1587_25628)"/>
<defs>
<linearGradient id="paint0_linear_1587_25628" x1="0.000251648" y1="0.929659" x2="4.68839" y2="0.929659" gradientUnits="userSpaceOnUse">
<stop offset="0.16" stop-color="#C8D7F1"/>
<stop offset="0.49" stop-color="#DEE8F9"/>
</linearGradient>
</defs>
</svg>
