<svg width="7" height="16" viewBox="0 0 7 16" fill="none" xmlns="http://www.w3.org/2000/svg">
<path d="M5.14052 11.72C4.59664 12.9114 4.60043 14.6259 4.57008 15.5505C4.36201 15.5493 4.07742 15.5474 3.79157 15.5442C3.47662 15.5404 2.77527 15.5499 2.71202 15.5474C2.61906 15.5436 2.60578 15.5221 2.60009 15.474C2.58554 15.3538 2.6608 13.7633 1.94047 12.1842C1.49082 11.1988 0.951995 10.524 0.528905 9.15738C-0.126283 7.04193 -0.0320525 3.021 0.0387787 2.3304C0.122891 1.50319 0.279099 0.400244 2.71392 0.0435584C3.04847 -0.00577051 3.73844 -0.0424507 4.37719 -0.00260813C4.40818 0.00181882 4.43664 0.00687853 4.4632 0.0125703C6.09864 0.284512 6.23461 1.6322 6.32568 2.15142C6.5875 3.6414 6.609 8.50536 5.14115 11.7206L5.14052 11.72Z" fill="url(#paint0_linear_3091_43894)"/>
<defs>
<linearGradient id="paint0_linear_3091_43894" x1="-0.011815" y1="7.76479" x2="6.46165" y2="7.76479" gradientUnits="userSpaceOnUse">
<stop offset="0.16" stop-color="#D1DDF3"/>
<stop offset="0.52" stop-color="#E3ECFA"/>
</linearGradient>
</defs>
</svg>
