<svg width="22" height="19" viewBox="0 0 22 19" fill="none" xmlns="http://www.w3.org/2000/svg">
<path d="M1.94531 9.03524C1.94531 6.13573 3.36319 3.56175 5.54118 1.96769L4.9634 0.00111866C1.97943 1.90057 0 5.23691 0 9.0358C0 13.0573 2.21882 16.5603 5.49811 18.3887L6.16538 16.5229C3.63725 14.9853 1.94587 12.2043 1.94587 9.0358L1.94531 9.03524ZM16.4401 0.000559225L15.8623 1.96713C18.0403 3.56175 19.4582 6.13517 19.4582 9.03469C19.4582 12.2032 17.7662 14.9842 15.2387 16.5217L15.9059 18.3876C19.1858 16.5592 21.404 13.0562 21.404 9.03469C21.404 5.23579 19.424 1.89945 16.4406 0L16.4401 0.000559225Z" fill="#00BE14"/>
</svg>
