<svg width="7" height="16" viewBox="0 0 7 16" fill="none" xmlns="http://www.w3.org/2000/svg">
<path d="M5.13055 11.7142C4.58603 12.9069 4.59173 14.6252 4.56137 15.5498C4.3533 15.5486 4.07314 15.5467 3.79108 15.5435C3.47613 15.5397 2.77478 15.5492 2.71154 15.5467C2.61857 15.5429 2.60529 15.5214 2.5996 15.4733C2.58505 15.3532 2.66031 13.7626 1.93998 12.1835C1.49033 11.1981 0.951507 10.5234 0.528417 9.15669C-0.126772 7.04124 -0.0325408 3.0203 0.0382904 2.3297C0.122402 1.50249 0.278611 0.399549 2.71343 0.0428632C3.04482 -0.00583322 3.72404 -0.0425133 4.35836 -0.00520046C4.38429 -0.00140593 4.40769 0.00302083 4.43046 0.00744778C6.05072 0.273697 6.20503 1.54233 6.30243 2.05207C6.575 3.48007 6.6218 8.44901 5.13118 11.7142H5.13055Z" fill="url(#paint0_linear_3091_43895)"/>
<defs>
<linearGradient id="paint0_linear_3091_43895" x1="-0.0116709" y1="7.76473" x2="6.45104" y2="7.76473" gradientUnits="userSpaceOnUse">
<stop offset="0.16" stop-color="#CFDCF3"/>
<stop offset="0.52" stop-color="#E2EBFA"/>
</linearGradient>
</defs>
</svg>
