<svg width="3" height="1" viewBox="0 0 3 1" fill="none" xmlns="http://www.w3.org/2000/svg">
<path d="M0.00141432 0.1215C-0.0143857 0.119 0.103914 0.0918003 0.270214 0.0620003C0.276614 0.0608003 0.283514 0.0600999 0.290514 0.0588999C0.528414 0.0252999 0.818114 0 1.19961 0C1.37991 0 1.54941 0.00510033 1.72091 0.0171003C1.80191 0.0228003 1.91001 0.0342003 2.01321 0.0487003C1.95561 0.1797 2.11571 0.6251 1.91451 0.8769C1.90941 0.8762 1.90501 0.8756 1.89871 0.8743C1.87401 0.8699 1.69621 0.8282 1.30081 0.8225C1.28371 0.8225 1.26601 0.8225 1.24831 0.8225C1.23061 0.8225 1.21101 0.8225 1.19201 0.8225C0.702314 0.8225 0.427814 0.8857 0.223414 0.9275C0.201314 0.93 0.202614 0.9104 0.209514 0.9015C0.226014 0.8807 0.243014 0.8693 0.243014 0.8693C0.243014 0.8693 0.226614 0.8649 0.221514 0.8414C0.215814 0.8168 0.238614 0.7915 0.238614 0.7915C0.238614 0.7915 0.229814 0.7864 0.210815 0.7263C0.179115 0.6263 0.141214 0.3682 0.143714 0.2626C0.146214 0.1569 0.203814 0.1057 0.203814 0.1057C0.203814 0.1057 0.024814 0.1266 0.00261404 0.1221L0.00141432 0.1215Z" fill="url(#paint0_linear_1591_39806)"/>
<defs>
<linearGradient id="paint0_linear_1591_39806" x1="0.000114319" y1="0.4631" x2="2.01951" y2="0.4631" gradientUnits="userSpaceOnUse">
<stop offset="0.16" stop-color="#BACADF"/>
<stop offset="0.49" stop-color="#C6D1E3"/>
</linearGradient>
</defs>
</svg>
