<svg width="5" height="1" viewBox="0 0 5 1" fill="none" xmlns="http://www.w3.org/2000/svg">
<path d="M1.59648 0.0916996C1.96708 0.0354196 2.37438 0.00253 2.82148 0C2.84738 0 2.87398 0 2.89988 0C3.31918 0 3.70368 0.0284602 4.05658 0.0752602C4.07878 0.0784202 4.10028 0.0809498 4.12238 0.0841198C4.17618 0.0916998 4.22988 0.0999299 4.28178 0.10878C4.29688 0.11131 4.31208 0.11384 4.32728 0.11637C4.32788 0.11637 4.32858 0.11637 4.32918 0.11637C5.01098 0.3004 5.20758 0.46736 4.51068 0.39716C4.45508 0.38578 4.39938 0.37566 4.34368 0.36617C4.26978 0.35353 4.19508 0.34214 4.12048 0.33202C2.81138 0.15115 1.41818 0.264359 0.239983 0.662149C-0.0636171 0.764599 -0.0807174 0.70642 0.197583 0.54642C0.581483 0.32696 1.10378 0.18404 1.59648 0.0916996Z" fill="url(#paint0_linear_1591_39982)"/>
<defs>
<linearGradient id="paint0_linear_1591_39982" x1="0.000282722" y1="0.35669" x2="4.94638" y2="0.35669" gradientUnits="userSpaceOnUse">
<stop offset="0.16" stop-color="#D1DDF3"/>
<stop offset="0.49" stop-color="#E3ECFA"/>
</linearGradient>
</defs>
</svg>
