<svg width="5" height="2" viewBox="0 0 5 2" fill="none" xmlns="http://www.w3.org/2000/svg">
<path d="M4.75669 0.427518C4.62072 0.415502 4.2204 0.32633 4.21913 0.38388C4.21787 0.421826 4.82752 0.547045 4.73203 0.644438C4.60048 0.778511 4.55558 1.04286 4.55052 1.24334C4.54104 1.56841 4.66626 1.63102 4.62009 1.70374C4.59353 1.74612 4.38736 1.71955 4.03637 1.68793C3.6177 1.61267 3.1535 1.55007 2.695 1.55007C2.18906 1.55007 1.59648 1.6209 1.1247 1.71702C0.657337 1.81315 0.260176 1.8979 0.224128 1.84288C0.178594 1.77268 0.302549 1.72651 0.293695 1.41409C0.288003 1.22121 0.298121 0.999226 0.167843 0.868947C0.0653904 0.765863 0.592198 0.580563 0.589669 0.52491C0.586506 0.462933 0.308873 0.521748 0.172902 0.533764C0.0970116 0.54072 -0.014294 0.572341 0.0015165 0.507834C0.625716 0.203007 1.68882 0 2.695 0C3.50197 0 4.29439 0.115101 4.95338 0.331389C4.94895 0.378821 4.82246 0.433209 4.75669 0.427518Z" fill="url(#paint0_linear_1587_25598)"/>
<defs>
<linearGradient id="paint0_linear_1587_25598" x1="-0.000380774" y1="0.930924" x2="4.95338" y2="0.930924" gradientUnits="userSpaceOnUse">
<stop offset="0.16" stop-color="#F3F7FC"/>
<stop offset="0.49" stop-color="#F8FAFE"/>
</linearGradient>
</defs>
</svg>
