<svg width="3" height="4" viewBox="0 0 3 4" fill="none" xmlns="http://www.w3.org/2000/svg">
<path d="M1.94039 2.04399C1.92079 2.61633 1.98403 2.93633 1.90498 3.11657C1.72853 3.09254 1.52932 3.0742 1.25485 3.0742C0.809621 3.0742 0.590171 3.10898 0.43839 3.13744C0.307479 3.15072 0.267004 3.09381 0.261945 3.02045C0.249296 2.8421 0.270798 2.52589 0.274593 2.32858C0.285344 1.76572 0.232221 1.37994 0.15886 0.965076C0.0627316 0.418664 -0.0327638 0.216288 0.0108733 0.197948C0.428271 0.0240323 0.927252 0 1.24599 0C1.51351 0 1.81644 0.00252995 2.21802 0.111939C2.05549 0.957486 1.96253 1.38311 1.94039 2.04399Z" fill="url(#paint0_linear_1587_25569)"/>
<defs>
<linearGradient id="paint0_linear_1587_25569" x1="-0.000510303" y1="1.56967" x2="2.21802" y2="1.56967" gradientUnits="userSpaceOnUse">
<stop offset="0.16" stop-color="#E1E9F7"/>
<stop offset="0.49" stop-color="#EDF2FC"/>
</linearGradient>
</defs>
</svg>
