<svg width="4" height="3" viewBox="0 0 4 3" fill="none" xmlns="http://www.w3.org/2000/svg">
<path d="M3.06424 2.2654C3.06294 2.2496 2.99344 2.235 2.96364 2.2293C2.96684 2.2293 3.14014 2.2458 3.23374 2.2641C3.36334 2.2894 3.45194 2.3153 3.49614 2.3413C3.41714 2.3413 3.12054 2.3413 3.00414 2.3394C3.04084 2.3071 3.06484 2.2787 3.06424 2.2654ZM0.965842 2.2654C0.967142 2.2496 1.04114 2.2357 1.07084 2.23C1.06764 2.23 0.897542 2.235 0.747042 2.2641C0.617442 2.2894 0.528842 2.3153 0.484642 2.3413C0.563642 2.3413 0.910242 2.3413 1.02654 2.3394C1.02654 2.3394 0.965142 2.2787 0.965842 2.2654ZM2.85684 0.9069L2.91244 0.945501C2.91244 0.945501 3.25204 0.924 3.36404 0.9228C3.47594 0.9215 3.79094 0.920199 3.88454 0.916399C3.97814 0.912599 3.96924 0.812701 3.91354 0.807001C3.85794 0.801301 3.43544 0.7703 3.33424 0.7684L2.85684 0.9069ZM0.686942 0.767801C0.585742 0.769701 0.0975424 0.801999 0.0419424 0.807699C-0.0137576 0.813299 -0.0232581 0.913301 0.0710419 0.917101C0.164642 0.920901 0.479542 0.922099 0.591442 0.923399C0.703442 0.924599 1.04364 0.945501 1.04364 0.945501L1.09864 0.9069L0.686942 0.767801ZM1.18534 0.115101C1.21944 0.0646009 1.22644 0 1.18024 0C1.10124 0 0.685742 0.0412006 0.594642 0.0538006C0.503542 0.0665006 0.536442 0.1246 0.573742 0.1474C0.611042 0.1702 0.967142 0.1809 1.09174 0.1835C1.09174 0.1835 1.15244 0.164501 1.18534 0.115101ZM2.76704 0.0904999C2.76704 0.0904999 2.72714 0.00640135 2.80684 0.00380135C2.90044 0.000701346 3.26724 0.0380017 3.36024 0.0532017C3.45314 0.0684017 3.41844 0.124001 3.38104 0.146801C3.34374 0.169501 2.98774 0.1803 2.86314 0.1828L2.76704 0.0904999Z" fill="#8399B8"/>
</svg>
