<svg width="29" height="29" viewBox="0 0 29 29" fill="none" xmlns="http://www.w3.org/2000/svg">
<path d="M2.78687 28.501C2.7332 28.4635 3.13614 28.4267 3.29128 28.387C5.75598 27.7532 10.6758 26.1084 11.2302 25.8959C13.0383 25.2106 16.4251 23.8267 19.3596 21.8253C19.4478 21.7657 19.5339 21.6892 19.6177 21.6312L19.6302 21.6223C19.6898 21.5812 19.7478 21.5392 19.8059 21.4981L19.8883 21.44C19.9537 21.3937 20.0177 21.3473 20.0802 21.301C20.0883 21.2951 20.1008 21.2863 20.1126 21.2775L20.128 21.2665C20.1942 21.2179 20.2581 21.1701 20.3206 21.1223C20.3228 21.1209 20.3251 21.1187 20.328 21.1172C20.3324 21.1143 20.3368 21.1106 20.3412 21.1076C20.3449 21.1047 20.353 21.0981 20.3567 21.0951C20.4221 21.0466 20.4839 20.9981 20.5449 20.9503C20.5478 20.9481 20.5508 20.9459 20.5537 20.9437L20.5508 20.9466C20.5545 20.9429 20.5589 20.94 20.5625 20.9363C20.6236 20.8878 20.6831 20.8415 20.7398 20.7951C20.7464 20.7893 20.7537 20.7834 20.7603 20.7775C20.8148 20.7326 20.867 20.6893 20.9177 20.6466C20.9228 20.6415 20.928 20.637 20.9339 20.6319C20.9839 20.59 21.0317 20.5481 21.0765 20.5076C21.0787 20.5054 21.0817 20.5032 21.0839 20.5003C21.0971 20.4885 21.1103 20.476 21.1243 20.4643C21.1398 20.4503 21.1559 20.437 21.1692 20.4231C21.1736 20.4187 21.178 20.4143 21.1831 20.4106C22.0522 19.6679 22.825 19.0113 23.4795 18.1496C24.2339 17.1503 24.9699 16.0474 25.4397 14.979C25.4802 14.8885 25.5449 14.7378 25.628 14.5305C25.6309 14.5231 25.6353 14.5121 25.6397 14.501L25.6677 14.4305C25.6861 14.3834 25.7052 14.3356 25.7236 14.2856L25.7434 14.2334C25.7603 14.1893 25.7772 14.1452 25.7934 14.0988C25.8052 14.0657 25.8169 14.0349 25.828 14.0032C25.8493 13.9422 25.8691 13.8871 25.889 13.8297L25.8971 13.8062C25.9052 13.7827 25.9133 13.7591 25.9199 13.7356C25.9206 13.7327 25.9221 13.7297 25.9228 13.726C25.9427 13.6672 25.9618 13.6084 25.9809 13.5474C25.9905 13.518 25.9978 13.4944 26.0052 13.4709L26.0155 13.4378C26.0339 13.376 26.053 13.3106 26.0714 13.2437C26.0816 13.2084 26.0905 13.1783 26.0993 13.1466C26.125 13.051 26.1508 12.9518 26.1743 12.8525C26.4316 11.8334 26.4964 10.6356 26.4706 9.61135C26.4706 9.58709 26.4706 9.56356 26.4706 9.54003C26.4706 9.52459 26.4714 9.50915 26.4706 9.4937C26.4544 9.31356 26.4478 9.19003 26.4419 9.05988V9.05106C26.4368 8.95841 26.4324 8.87091 26.4221 8.77018C26.4221 8.7643 26.4214 8.75768 26.4206 8.7518C26.4162 8.70253 26.4096 8.63856 26.3993 8.56209C26.0111 5.42828 23.8662 2.88343 21.5875 2.33858C21.2008 2.24667 20.8103 2.19594 20.4287 2.18785C17.5346 2.12535 15.3442 4.46063 14.5199 5.34004C14.2935 5.58269 13.9243 5.9496 13.8957 5.94372C13.867 5.93784 13.5096 5.56063 13.5096 5.56063C11.5236 3.20549 9.41406 1.88491 7.57215 1.84447C6.74421 1.82682 5.9523 2.06432 5.21848 2.55182C3.74055 3.53417 1.13541 6.76724 1.85599 11.9738C1.99644 12.868 2.07438 13.1731 2.16482 13.526L2.18173 13.5922C2.20379 13.6782 2.22585 13.7687 2.25011 13.8709C2.44717 14.5797 2.69938 15.3069 3.00084 16.0319C4.16481 18.8091 6.98907 21.5745 7.97068 22.2598C8.067 22.3267 8.12215 22.4407 8.11406 22.5584C8.08318 23.0275 8.05597 23.4172 8.03906 23.6385C8.03024 23.7598 8.31259 23.8569 8.20303 23.9032C8.09274 23.9495 7.74568 23.8738 7.65303 23.7937C5.74054 22.1459 3.03908 19.5804 1.26997 15.1371C0.663352 13.6128 0.192765 11.6988 0.0648245 10.4047C0.0258541 10.0062 0.0111482 9.01209 0.00158942 8.47238C-0.00796937 7.93268 0.019972 6.23048 0.24203 5.5746C1.1207 2.97535 4.61187 0.534913 6.13392 0.16065C6.13613 0.16065 6.13833 0.159914 6.14127 0.159914L6.16113 0.156973C6.62216 0.0437382 7.09715 -0.00846752 7.57436 0.00182657C9.59641 0.0459441 11.731 1.17241 13.8354 3.34961C13.8567 3.37167 13.8765 3.39226 13.8957 3.41211C16.7471 0.711383 19.2567 -0.0327323 20.8361 0.00109112C21.1346 0.00770874 21.4339 0.0349146 21.7265 0.0827085C25.353 0.662118 26.5691 3.09152 27.3265 4.99299C28.9618 9.09812 28.0633 14.6893 24.8728 18.8128C22.9383 21.312 20.5405 23.5216 17.2934 25.1547C14.2096 26.7061 11.3471 27.4333 9.91553 27.7289C6.53024 28.4458 4.05966 28.5995 2.78614 28.4988L2.78687 28.501ZM20.9133 20.6518C20.9067 20.6584 20.8986 20.6672 20.8898 20.6782C20.8971 20.6687 20.9052 20.6606 20.9133 20.6518Z" fill="url(#paint0_linear_3091_44461)"/>
<defs>
<linearGradient id="paint0_linear_3091_44461" x1="-0.352558" y1="13.9998" x2="27.7908" y2="14.609" gradientUnits="userSpaceOnUse">
<stop stop-opacity="0.4"/>
<stop offset="0.14" stop-color="#4B4B4B" stop-opacity="0.43"/>
<stop offset="0.48" stop-color="white" stop-opacity="0.5"/>
<stop offset="0.57" stop-color="#F5F5F5" stop-opacity="0.5"/>
<stop offset="0.66" stop-color="#D9D9D9" stop-opacity="0.5"/>
<stop offset="0.76" stop-color="#AAAAAA" stop-opacity="0.5"/>
<stop offset="0.87" stop-color="#696969" stop-opacity="0.5"/>
<stop offset="0.97" stop-color="#161616" stop-opacity="0.5"/>
<stop offset="1" stop-opacity="0.5"/>
</linearGradient>
</defs>
</svg>
