<svg width="7" height="16" viewBox="0 0 7 16" fill="none" xmlns="http://www.w3.org/2000/svg">
<path d="M5.15079 11.7246C4.60754 12.9142 4.60943 14.6262 4.57844 15.5495C4.37101 15.5483 4.08199 15.5464 3.79108 15.5432C3.47613 15.5394 2.77478 15.5489 2.71154 15.5464C2.61857 15.5426 2.60529 15.5211 2.5996 15.473C2.58505 15.3528 2.66031 13.7623 1.93998 12.1831C1.49033 11.1978 0.951507 10.523 0.528417 9.15637C-0.126772 7.04092 -0.0325408 3.01999 0.0382904 2.32939C0.122402 1.50218 0.278611 0.399235 2.71343 0.0425494C3.05115 -0.00741186 3.75187 -0.0440927 4.39504 -0.00235291C4.43109 0.00270646 4.46398 0.00903156 4.49496 0.0153558C6.14558 0.293621 6.26321 1.71973 6.34859 2.24907C6.5984 3.80103 6.59587 8.56 5.15079 11.7253V11.7246Z" fill="url(#paint0_linear_3091_43893)"/>
<defs>
<linearGradient id="paint0_linear_3091_43893" x1="-0.0116709" y1="7.76442" x2="6.47318" y2="7.76442" gradientUnits="userSpaceOnUse">
<stop offset="0.16" stop-color="#D2DEF4"/>
<stop offset="0.52" stop-color="#E4ECFA"/>
</linearGradient>
</defs>
</svg>
