<svg width="6" height="1" viewBox="0 0 6 1" fill="none" xmlns="http://www.w3.org/2000/svg">
<path d="M1.59589 0.0916996C1.97149 0.0347896 2.38639 0.0019 2.84169 0C2.86829 0 2.89479 0 2.92139 0C3.34889 0.00127 3.73979 0.0309898 4.09709 0.0809498C4.11919 0.0841198 4.14139 0.0872798 4.16349 0.0904398C4.21849 0.0986598 4.27289 0.10688 4.32599 0.11637C4.34119 0.1189 4.35699 0.12206 4.37159 0.12459H4.37339C5.11339 0.32507 5.43589 0.54389 4.57009 0.40918C4.51379 0.39716 4.45759 0.386409 4.40129 0.376929C4.32789 0.363639 4.25329 0.351629 4.17929 0.340879C2.85369 0.146719 1.43589 0.258659 0.239894 0.662149C-0.0636065 0.764599 -0.0807067 0.70642 0.197593 0.54642C0.581493 0.32696 1.10319 0.18404 1.59589 0.0916996Z" fill="url(#paint0_linear_1591_39972)"/>
<defs>
<linearGradient id="paint0_linear_1591_39972" x1="-0.000406597" y1="0.35669" x2="5.08929" y2="0.35669" gradientUnits="userSpaceOnUse">
<stop offset="0.16" stop-color="#DFE8F7"/>
<stop offset="0.49" stop-color="#ECF2FC"/>
</linearGradient>
</defs>
</svg>
