<svg width="7" height="16" viewBox="0 0 7 16" fill="none" xmlns="http://www.w3.org/2000/svg">
<path d="M5.36883 11.8446C4.83886 13.0051 4.79332 14.643 4.76233 15.5512C4.55743 15.5512 4.17545 15.5487 3.79157 15.5436C3.47662 15.5398 2.77527 15.5493 2.71202 15.5468C2.61906 15.543 2.60578 15.5215 2.60009 15.4734C2.58554 15.3532 2.6608 13.7627 1.94047 12.1835C1.49082 11.1982 0.951995 10.5234 0.528905 9.15677C-0.126283 7.04132 -0.0320525 3.02038 0.0387787 2.32978C0.122891 1.50257 0.279099 0.399627 2.71392 0.0429415C3.1231 -0.0171386 4.06161 -0.058878 4.79585 0.0334555C4.94257 0.0549579 5.07981 0.0796216 5.20629 0.106816C7.19083 0.51536 6.87968 3.68063 6.85818 4.4193C6.7728 7.34425 6.30987 9.78286 5.36883 11.8446Z" fill="url(#paint0_linear_3091_43871)"/>
<defs>
<linearGradient id="paint0_linear_3091_43871" x1="-0.011815" y1="7.76481" x2="6.8879" y2="7.76481" gradientUnits="userSpaceOnUse">
<stop offset="0.16" stop-color="#F2F6FC"/>
<stop offset="0.52" stop-color="#F7FAFE"/>
</linearGradient>
</defs>
</svg>
