<svg width="7" height="16" viewBox="0 0 7 16" fill="none" xmlns="http://www.w3.org/2000/svg">
<path d="M5.25956 11.7852C4.72327 12.9602 4.70113 14.6349 4.67015 15.5506C4.46398 15.55 4.12879 15.5475 3.79108 15.5437C3.47613 15.5399 2.77478 15.5494 2.71154 15.5468C2.61857 15.543 2.60529 15.5215 2.5996 15.4735C2.58505 15.3533 2.66031 13.7628 1.93998 12.1836C1.49033 11.1983 0.951507 10.5235 0.528417 9.15685C-0.126772 7.0414 -0.0325408 3.02047 0.0382904 2.32986C0.122402 1.50265 0.278611 0.399711 2.71343 0.0430251C3.08719 -0.0119956 3.90681 -0.0512052 4.59489 0.0158314C4.68596 0.0291123 4.77133 0.0442895 4.85039 0.0613649C6.66797 0.40477 6.57563 2.70046 6.60346 3.33415C6.70212 5.57292 6.45294 9.1714 5.26019 11.7846L5.25956 11.7852Z" fill="url(#paint0_linear_3091_43882)"/>
<defs>
<linearGradient id="paint0_linear_3091_43882" x1="-0.0116709" y1="7.76552" x2="6.62243" y2="7.76552" gradientUnits="userSpaceOnUse">
<stop offset="0.16" stop-color="#E2EAF8"/>
<stop offset="0.52" stop-color="#EEF3FC"/>
</linearGradient>
</defs>
</svg>
