<svg width="7" height="16" viewBox="0 0 7 16" fill="none" xmlns="http://www.w3.org/2000/svg">
<path d="M5.12092 11.7086C4.57577 12.9026 4.58399 14.6241 4.55363 15.5499C4.34557 15.5487 4.0692 15.5468 3.79157 15.5436C3.47662 15.5398 2.77527 15.5493 2.71202 15.5468C2.61906 15.543 2.60578 15.5215 2.60009 15.4734C2.58554 15.3532 2.6608 13.7627 1.94047 12.1835C1.49082 11.1982 0.951995 10.5234 0.528905 9.15677C-0.126283 7.04132 -0.0320525 3.02039 0.0387787 2.32978C0.122891 1.50258 0.279099 0.399632 2.71392 0.0429464C3.04215 -0.00511762 3.71062 -0.041798 4.34051 -0.00638239C4.36138 -0.00322028 4.38035 -5.79419e-05 4.39806 0.00373659C6.00314 0.263662 6.17516 1.45388 6.27888 1.95412C6.5622 3.32015 6.6343 8.39407 5.12092 11.7099V11.7086Z" fill="url(#paint0_linear_3091_43896)"/>
<defs>
<linearGradient id="paint0_linear_3091_43896" x1="-0.011815" y1="7.76481" x2="6.44078" y2="7.76481" gradientUnits="userSpaceOnUse">
<stop offset="0.16" stop-color="#CEDBF2"/>
<stop offset="0.52" stop-color="#E1EAFA"/>
</linearGradient>
</defs>
</svg>
