<svg width="3" height="1" viewBox="0 0 3 1" fill="none" xmlns="http://www.w3.org/2000/svg">
<path d="M2.32938 0.459931C2.12377 0.465624 1.3121 0.465625 1.12483 0.464993C0.937572 0.465625 0.206873 0.462461 0 0.459297C0.0746515 0.456767 0.189159 0.448544 0.234077 0.428932C0.264443 0.415014 0.263178 0.394137 0.255586 0.381484C0.247994 0.368831 0.251158 0.352382 0.285954 0.341627C0.298606 0.337831 0.390339 0.320751 0.390339 0.298608C0.390339 0.274568 0.194853 0.205608 0.114508 0.0752843C0.0923653 0.0398565 0.251791 0.0291036 0.293545 0.0259404C0.470684 0.012655 0.771821 0.00063264 1.12483 0C1.47785 0.00063264 1.8878 0.0145509 2.06557 0.0278363C2.10669 0.0309995 2.23702 0.0398565 2.21551 0.0752843C2.13516 0.205608 1.90551 0.274568 1.90551 0.298608C1.90551 0.320751 2.03141 0.337831 2.04406 0.341627C2.11745 0.36377 2.03394 0.401728 2.09594 0.428932C2.14085 0.448544 2.25473 0.4574 2.32938 0.459931Z" fill="black"/>
</svg>
