<svg width="29" height="29" viewBox="0 0 29 29" fill="none" xmlns="http://www.w3.org/2000/svg">
<path d="M27.6621 4.95775C26.9363 3.1379 25.3408 0.851148 21.8614 0.295268C21.5827 0.250415 21.2974 0.223944 21.0136 0.218062C19.4915 0.184974 17.0945 0.697472 14.3195 3.32246C14.1702 3.46364 14.1577 3.49084 14.0945 3.49379C14.0283 3.49232 14.007 3.45555 13.8062 3.24746C11.7621 1.13497 9.74449 0.0430626 7.80773 0.00115098C7.35259 -0.00840781 6.89891 0.0415919 6.45994 0.150415L6.42465 0.155562C4.46289 0.480561 -0.508414 3.08202 0.0423193 11.1092C0.375406 15.9511 3.1754 19.4746 4.4923 20.8798C2.73716 18.6783 0.355553 14.9004 0.290848 10.5643C0.277612 9.55038 0.457024 8.54377 0.684964 7.57392C0.684964 7.57392 0.711434 7.52392 0.746728 7.5298C0.784963 7.53642 0.770993 7.60848 0.770993 7.60848C0.507759 10.0857 1.05114 12.8768 2.15555 15.6467C3.73716 19.6099 7.1445 22.5989 7.95185 23.2775C7.96803 23.057 7.99597 22.668 8.02611 22.2003C7.04229 21.515 4.13275 18.6871 2.93201 15.8254C2.62246 15.0805 2.36437 14.3379 2.16437 13.618C2.13422 13.4901 2.10702 13.3827 2.08055 13.2768C1.98864 12.9158 1.90775 12.6026 1.7629 11.6827C1.01805 6.31363 3.73054 2.96585 5.26877 1.94526C6.057 1.42247 6.91068 1.16659 7.80626 1.18571C9.74596 1.22762 11.9445 2.59085 13.9974 5.02246L14.1401 5.1901C14.1401 5.1901 14.379 4.9379 14.5261 4.78055C15.3783 3.8732 17.6401 1.46291 20.679 1.52835C21.0871 1.53718 21.4996 1.59159 21.9069 1.68791C24.3224 2.26438 26.218 4.84746 26.6231 8.11583C26.6341 8.19818 26.6415 8.2673 26.6474 8.33274V8.33715C26.6584 8.44965 26.6628 8.54524 26.668 8.64303C26.6738 8.76142 26.6797 8.88641 26.6966 9.07024C26.6988 9.11362 26.6959 9.15774 26.6966 9.20185C26.7231 10.246 26.6055 11.3092 26.3393 12.3651C26.315 12.468 26.2886 12.5695 26.2613 12.671C26.2525 12.704 26.243 12.7364 26.2334 12.768C26.2143 12.8371 26.1944 12.9055 26.1738 12.9732C26.1628 13.0092 26.1518 13.0452 26.14 13.0805C26.1202 13.1445 26.1003 13.2055 26.0797 13.2673C26.0687 13.3026 26.0569 13.3371 26.0452 13.3724C26.0246 13.4335 26.0033 13.4915 25.9827 13.5496C25.9709 13.5827 25.9591 13.6151 25.9474 13.6467C25.9231 13.7129 25.8988 13.7754 25.8761 13.8379C25.8481 13.9121 25.8194 13.9827 25.793 14.0511C25.7878 14.0636 25.7819 14.0768 25.7768 14.0901C25.7047 14.2695 25.6834 14.4401 25.6297 14.5614C25.1488 15.6533 24.4694 16.7107 23.6981 17.7298C23.0297 18.6084 22.2408 19.4393 21.3525 20.1974C21.3246 20.2239 21.2915 20.2518 21.2606 20.2798C21.2606 20.2798 21.2584 20.2827 21.257 20.2834C21.2077 20.3276 21.1555 20.3731 21.1003 20.4195C21.0981 20.4224 21.0952 20.4246 21.0922 20.4276C21.0371 20.4739 20.9797 20.5217 20.9195 20.5709C20.915 20.5746 20.9106 20.5783 20.907 20.5812C20.8474 20.6298 20.7849 20.679 20.7209 20.729C20.715 20.7342 20.7084 20.7393 20.7025 20.743C20.6393 20.7923 20.5746 20.843 20.507 20.893C20.4967 20.9011 20.4864 20.9092 20.4753 20.9173C20.4114 20.9665 20.3452 21.0158 20.2768 21.0658C20.2614 21.0775 20.2445 21.0886 20.229 21.1003C20.165 21.1474 20.0996 21.1945 20.032 21.2423C20.0055 21.2606 19.9775 21.2805 19.9511 21.2989C19.8915 21.3408 19.8327 21.3834 19.7709 21.4261C19.6827 21.4871 19.5915 21.5503 19.4989 21.6128C16.529 23.6356 13.1467 24.979 11.3268 25.668C10.7327 25.8952 5.51509 27.5724 3.04525 28.2062C3.09672 28.2077 2.98422 28.2047 3.04525 28.2062C3.80628 28.2224 5.99597 27.94 10.0805 27.0761C12.8107 26.5128 17.1481 25.1908 20.9695 22.3378C21.2937 22.0959 21.6217 21.865 21.9569 21.532C22.3092 21.182 22.679 20.8143 23.0437 20.465C23.7444 19.7945 24.4099 19.0651 25.0246 18.2724C28.1503 14.2371 29.2569 8.9548 27.6621 4.95555V4.95775Z" fill="url(#paint0_radial_1587_26076)"/>
<defs>
<radialGradient id="paint0_radial_1587_26076" cx="0" cy="0" r="1" gradientUnits="userSpaceOnUse" gradientTransform="translate(12.5502 14.1055) rotate(1.24) scale(19.1373 19.3326)">
<stop offset="0.6" stop-color="#E3E9EC"/>
<stop offset="0.67" stop-color="#DFE5E8"/>
<stop offset="0.73" stop-color="#D5DBDF"/>
<stop offset="0.79" stop-color="#C3CBCF"/>
<stop offset="0.85" stop-color="#AAB4B8"/>
<stop offset="0.9" stop-color="#8B969B"/>
<stop offset="0.95" stop-color="#6B787E"/>
</radialGradient>
</defs>
</svg>
