<svg width="15" height="34" viewBox="0 0 15 34" fill="none" xmlns="http://www.w3.org/2000/svg">
<path d="M14.4028 9.10434C14.3888 9.02466 14.3035 8.58639 14.2889 8.51935C13.6458 5.44768 12.3303 2.61886 10.1649 0C8.36697 0.600167 6.63856 1.65948 4.88991 3.63896C6.33183 6.27299 8.21961 8.47192 10.4097 10.2894C10.4267 10.304 11.3697 11.073 11.7308 11.3159C11.892 10.9902 12.4018 10.3818 12.5479 10.2249C12.3651 10.0118 11.5588 9.25423 11.2577 8.84442C11.6056 8.50797 12.1634 8.09879 12.5719 7.9097C12.7939 8.2354 13.1967 9.18972 13.3555 9.53565C13.5635 9.37375 14.0973 9.14798 14.4021 9.10624H14.4034L14.4028 9.10434ZM9.90691 6.74731C9.37441 5.79362 8.90896 4.52435 8.53899 3.47136C8.5529 3.46061 8.56808 3.45113 8.58263 3.44164C9.42881 4.1645 10.404 5.05811 11.1009 5.89733C10.7847 6.05544 10.1421 6.52343 9.90691 6.74731ZM7.47208 12.8495C7.78641 11.5986 8.22721 10.4033 8.82864 9.36237L6.50449 8.01974C5.74116 9.34466 5.23143 10.7625 4.87031 12.1899L3.52642 11.849C3.92674 10.2743 4.49402 8.68188 5.40028 7.16091L3.09574 5.78603C1.73034 7.84519 0.591977 11.8692 0.354186 14.077L10.3951 15.5512C10.4343 15.2084 10.6601 13.9935 10.7619 13.683L7.47208 12.8495ZM10.1447 22.4357L0.0133113 22.8089C-0.024634 22.0411 -0.0113532 17.3953 0.22201 15.2274L2.8921 15.5C2.77067 17.1164 2.69921 20.0888 2.69921 20.0888L3.83188 20.1116C3.86982 18.3813 3.93433 16.7591 4.00706 15.6144L6.40836 15.8592C6.33563 17.1379 6.2433 19.4064 6.25215 20.1597L7.47842 20.1843C7.47842 20.1843 7.53091 17.1139 7.6302 15.9838L10.318 16.2582L10.1447 22.4357ZM10.6411 25.2114C10.292 24.4399 9.80319 24.0263 9.26943 23.8207C7.56189 23.1624 5.04802 23.5697 0.068332 24.0307C0.211259 25.343 0.385807 26.2948 0.714034 27.3699C0.714034 27.3699 4.19172 26.3169 5.35094 25.9665C5.92899 25.792 7.22418 25.4138 7.61818 26.4156C7.91605 27.1726 7.39178 27.767 6.31413 28.3185L1.9928 30.5086C2.47533 31.4775 3.03882 32.4925 3.53907 33.1667C5.05182 32.3015 9.94549 29.3709 10.7954 27.5217C11.2704 26.4877 10.9251 25.8382 10.6411 25.2114Z" fill="white"/>
</svg>
