<svg width="4" height="3" viewBox="0 0 4 3" fill="none" xmlns="http://www.w3.org/2000/svg">
<path d="M3.68602 0C3.50366 0.0602939 3.32205 0.122058 3.14705 0.200735L3.0147 0.256617L2.88455 0.317646C2.79705 0.357352 2.71323 0.402204 2.62793 0.446322C2.2897 0.624263 1.96249 0.823527 1.65294 1.04779C1.34044 1.26764 1.04558 1.51176 0.767645 1.77499C0.627939 1.90514 0.495586 2.04411 0.36691 2.18602C0.304411 2.25808 0.239705 2.3294 0.178676 2.40293L0 2.62867L0.163235 2.39117C0.220588 2.31396 0.280881 2.23896 0.339704 2.16249C0.463233 2.0147 0.591909 1.87132 0.727938 1.73455C0.999996 1.46102 1.29779 1.2147 1.61029 0.988232C1.92573 0.766909 2.25587 0.564704 2.60293 0.396322C2.94925 0.227941 3.31028 0.0867644 3.68528 0H3.68602Z" fill="url(#paint0_linear_1587_26119)"/>
<defs>
<linearGradient id="paint0_linear_1587_26119" x1="-0.030147" y1="1.3147" x2="3.69558" y2="1.3147" gradientUnits="userSpaceOnUse">
<stop stop-color="#1D1D1B"/>
<stop offset="1" stop-color="#58666D"/>
</linearGradient>
</defs>
</svg>
