<svg width="29" height="29" viewBox="0 0 29 29" fill="none" xmlns="http://www.w3.org/2000/svg">
<path d="M3.24307 28.5032C3.1894 28.4657 3.59234 28.4282 3.74748 28.3878C6.21218 27.7539 10.9019 26.2304 11.457 26.0172C13.2651 25.3319 16.8813 23.9672 19.8158 21.9665C19.904 21.9069 19.9901 21.8473 20.0739 21.7893L20.0864 21.7804C20.146 21.7392 20.204 21.6973 20.2621 21.6562L20.3445 21.5981C20.4099 21.5518 20.4739 21.5054 20.5364 21.4591C20.5445 21.4532 20.557 21.4444 20.5687 21.4356L20.5842 21.4245C20.6504 21.376 20.7143 21.3282 20.7768 21.2804C20.779 21.279 20.7812 21.2768 20.7842 21.2753C20.7886 21.2723 20.793 21.2687 20.7974 21.2657C20.8011 21.2628 20.8092 21.2562 20.8129 21.2532C20.8783 21.2047 20.9401 21.1562 21.0011 21.1084C21.004 21.1062 21.007 21.104 21.0099 21.1018L21.007 21.1047C21.0107 21.101 21.0151 21.0981 21.0187 21.0944C21.0798 21.0459 21.1393 20.9995 21.196 20.9532C21.2026 20.9473 21.2099 20.9415 21.2165 20.9356C21.271 20.8907 21.3232 20.8473 21.3739 20.8047C21.379 20.7995 21.3842 20.7951 21.3901 20.79C21.4401 20.7481 21.4879 20.7062 21.5327 20.6657C21.5349 20.6635 21.5379 20.6613 21.5401 20.6584C21.5533 20.6466 21.5665 20.6341 21.5805 20.6223C21.596 20.6084 21.6121 20.5951 21.6254 20.5812C21.6298 20.5768 21.6342 20.5723 21.6393 20.5687C22.5084 19.826 23.2812 19.0121 23.9356 18.1503C24.6901 17.151 25.4261 16.0481 25.8959 14.9797C25.9364 14.8893 26.0011 14.7385 26.0842 14.5312C26.0871 14.5238 26.0915 14.5128 26.0959 14.5018L26.1239 14.4312C26.1423 14.3841 26.1614 14.3363 26.1798 14.2863L26.1996 14.2341C26.2165 14.19 26.2334 14.1459 26.2496 14.0996C26.2614 14.0665 26.2731 14.0356 26.2842 14.004C26.3055 13.943 26.3253 13.8878 26.3452 13.8305L26.3533 13.8069C26.3614 13.7834 26.3695 13.7599 26.3761 13.7363C26.3768 13.7334 26.3783 13.7305 26.379 13.7268C26.3989 13.668 26.418 13.6091 26.4371 13.5481C26.4467 13.5187 26.454 13.4952 26.4614 13.4716L26.4717 13.4385C26.4901 13.3768 26.5092 13.3113 26.5276 13.2444C26.5378 13.2091 26.5467 13.179 26.5555 13.1474C26.5812 13.0518 26.607 12.9525 26.6305 12.8533C26.8878 11.8341 26.9525 10.6363 26.9268 9.61209C26.9268 9.58782 26.9268 9.56429 26.9268 9.54076C26.9268 9.52532 26.9275 9.50988 26.9268 9.49444C26.9106 9.31429 26.904 9.19076 26.8981 9.06062V9.05179C26.893 8.95915 26.8886 8.87165 26.8783 8.77091C26.8783 8.76503 26.8776 8.75841 26.8768 8.75253C26.8724 8.70327 26.8658 8.6393 26.8555 8.56283C26.4673 5.42901 24.3224 2.88417 22.0437 2.33932C21.657 2.24741 21.2665 2.19667 20.8849 2.18858C17.9908 2.12608 15.8004 4.46137 14.9761 5.34078C14.7497 5.58342 14.3798 5.97828 14.3511 5.97166C14.3224 5.96504 13.9658 5.56137 13.9658 5.56137C11.9798 3.20623 9.87026 1.88564 8.02835 1.8452C7.20041 1.82756 6.4085 2.06505 5.67468 2.55255C4.19675 3.5349 1.59161 6.76798 2.31219 11.9746C2.45264 12.8687 2.53058 13.1738 2.62102 13.5268L2.63793 13.593C2.65999 13.679 2.68205 13.7694 2.70631 13.8716C2.90337 14.5805 3.15557 15.3077 3.45704 16.0327C4.62101 18.8098 7.44527 21.5753 8.42688 22.2606C8.5232 22.3275 8.57835 22.4415 8.57026 22.5591C8.53938 23.0282 8.51217 23.4179 8.49526 23.6392C8.48644 23.7606 8.76879 23.8576 8.65923 23.9039C8.54894 23.9503 8.22394 24.0576 8.13129 23.9775C6.2188 22.3297 3.49528 19.8488 1.72617 15.4054C0.932788 13.4121 0.363673 10.7518 0.507055 9.4165C0.387202 9.43856 0.0769089 11.1106 1.4394 16.2268C-0.520883 12.29 -0.177502 8.02827 0.69823 5.5746C2.03352 1.83491 5.06807 0.534913 6.59012 0.16065C6.59233 0.16065 6.59453 0.159914 6.59747 0.159914L6.61733 0.156973C7.07835 0.0437379 7.55335 -0.0084678 8.03056 0.00182629C10.0526 0.0459438 12.1872 1.17241 14.2916 3.34961C14.3129 3.37167 14.3327 3.39226 14.3519 3.41211C17.2033 0.711383 19.7129 -0.0327323 21.2923 0.00109112C21.5908 0.00770874 21.8901 0.0349146 22.1827 0.0827085C25.8092 0.662118 27.0253 3.09152 27.7827 4.99299C29.418 9.09812 28.5195 14.6893 25.329 18.8128C23.3945 21.312 20.9967 23.5216 17.7496 25.1547C14.6658 26.7061 11.8033 27.4333 10.3717 27.7289C6.98644 28.4458 4.51586 28.601 3.24234 28.5003L3.24307 28.5032ZM21.3695 20.8098C21.3629 20.8165 21.3548 20.8253 21.346 20.8363C21.3533 20.8268 21.3614 20.8187 21.3695 20.8098Z" fill="#1D1D1B"/>
</svg>
