<svg width="5" height="2" viewBox="0 0 5 2" fill="none" xmlns="http://www.w3.org/2000/svg">
<path d="M4.42792 0.30865C4.29192 0.29665 4.00031 0.27005 3.99461 0.32755C3.98901 0.38455 4.53981 0.48315 4.44431 0.58055C4.31281 0.71465 4.26792 0.94545 4.26282 1.14595C4.25332 1.47105 4.37851 1.53425 4.33241 1.60635C4.29881 1.65885 4.07502 1.64365 3.56712 1.61205C3.28252 1.57475 2.98852 1.55005 2.69502 1.55005C2.18912 1.55005 1.59652 1.62085 1.12472 1.71705C0.657415 1.81315 0.260215 1.89785 0.224115 1.84285C0.178615 1.77265 0.302615 1.72655 0.293715 1.41405C0.288015 1.22125 0.298115 0.99925 0.167915 0.86895C0.0654146 0.76585 0.592215 0.58055 0.589715 0.52495C0.586515 0.46295 0.308915 0.521751 0.172915 0.533751C0.0970147 0.540751 -0.0142854 0.572351 0.00151464 0.507851C0.625715 0.203051 1.68882 0 2.69502 0C3.39832 0 4.09081 0.0872699 4.69411 0.25235C4.72261 0.26185 4.48861 0.31435 4.42661 0.30865H4.42792Z" fill="url(#paint0_linear_1591_39946)"/>
<defs>
<linearGradient id="paint0_linear_1591_39946" x1="0.000914643" y1="0.93025" x2="4.69791" y2="0.93025" gradientUnits="userSpaceOnUse">
<stop offset="0.16" stop-color="#C9D8F1"/>
<stop offset="0.49" stop-color="#DFE9F9"/>
</linearGradient>
</defs>
</svg>
