<svg width="2" height="2" viewBox="0 0 2 2" fill="none" xmlns="http://www.w3.org/2000/svg">
<path d="M0.680677 1.26212C0.498476 1.26212 0.320072 1.19569 0.190381 1.07106C0.00754753 0.895185 -0.0493903 0.630109 0.0448731 0.397298C0.145463 0.14867 0.383968 0 0.682574 0C1.00459 0 1.36456 0.261913 1.36456 0.612395C1.3614 0.880635 1.21336 1.10206 0.968527 1.20455C0.876162 1.24314 0.778103 1.26212 0.680677 1.26212ZM0.682574 0.0126516C0.389029 0.0126516 0.154952 0.15816 0.0562602 0.401727C-0.0361053 0.63011 0.0202003 0.889492 0.199237 1.06157C0.395356 1.24946 0.702186 1.30197 0.963467 1.19253C1.20387 1.09194 1.34874 0.87494 1.35191 0.611762C1.35191 0.268871 0.998262 0.0120203 0.682574 0.0120203V0.0126516Z" fill="#617EB3"/>
</svg>
