<svg width="4" height="18" viewBox="0 0 4 18" fill="none" xmlns="http://www.w3.org/2000/svg">
<path d="M0 17.2867C0.22794 16.9492 0.427939 16.597 0.616908 16.2374C0.808084 15.8801 0.991909 15.5183 1.17941 15.158C1.3647 14.7963 1.55294 14.436 1.74852 14.0779C1.94558 13.7235 2.13749 13.3669 2.32205 13.0073C2.69264 12.2904 3.00881 11.55 3.20955 10.775C3.31175 10.3875 3.38969 9.99408 3.45366 9.59629C3.48381 9.39703 3.51322 9.19776 3.53528 8.99776L3.57131 8.69776L3.59705 8.39703C3.66322 7.59483 3.67499 6.78748 3.59484 5.98748C3.57866 5.78748 3.54778 5.58895 3.52058 5.38969C3.50587 5.29042 3.48528 5.19189 3.46837 5.09336L3.4419 4.94557L3.40955 4.79851C3.36984 4.60145 3.31616 4.40881 3.26396 4.21469L3.17425 3.92793C3.14558 3.8316 3.10734 3.73896 3.07425 3.6441C2.93381 3.26837 2.76911 2.90146 2.57205 2.55146C2.37573 2.20146 2.14852 1.86838 1.89558 1.55441C1.39044 0.927203 0.762497 0.394852 0.0522051 0C0.420586 0.172794 0.771321 0.386028 1.09411 0.636763C1.41911 0.885291 1.71911 1.16617 1.9919 1.47279C2.53896 2.08529 2.96469 2.8044 3.27058 3.56837C3.3066 3.66469 3.34778 3.75955 3.38014 3.85734L3.4794 4.14999C3.53749 4.34778 3.59705 4.54484 3.64337 4.74557C3.74116 5.14557 3.81102 5.55219 3.85513 5.96101C3.9044 6.36983 3.92278 6.78086 3.93087 7.19115L3.92866 7.49924L3.92719 7.65291L3.92058 7.80659L3.9066 8.11394C3.90219 8.21615 3.89116 8.31835 3.88381 8.42056C3.81469 9.23673 3.70734 10.0522 3.49116 10.8507C3.38455 11.2492 3.25146 11.6411 3.09558 12.022C2.9397 12.4036 2.76102 12.7742 2.57352 13.1375C2.38529 13.5007 2.18529 13.8566 1.98455 14.211C1.78161 14.5617 1.58088 14.9147 1.37352 15.2654C1.16911 15.6169 0.956614 15.9654 0.734556 16.3073C0.620585 16.4771 0.507351 16.6463 0.386028 16.811C0.266176 16.9764 0.139705 17.1374 0.00146978 17.2867H0Z" fill="url(#paint0_linear_1587_26095)"/>
<defs>
<linearGradient id="paint0_linear_1587_26095" x1="1.96543" y1="17.3786" x2="1.96543" y2="-0.132353" gradientUnits="userSpaceOnUse">
<stop stop-color="#5D686E"/>
<stop offset="0.19" stop-color="#768086"/>
<stop offset="0.55" stop-color="#A1A9AF"/>
<stop offset="0.83" stop-color="#BBC2C8"/>
<stop offset="1" stop-color="#C5CCD2"/>
</linearGradient>
</defs>
</svg>
