<svg width="3" height="4" viewBox="0 0 3 4" fill="none" xmlns="http://www.w3.org/2000/svg">
<path d="M2.03076 1.9947C1.99096 2.6549 2.06876 2.9338 1.98716 3.1267C1.80756 3.0989 1.56916 3.0742 1.25486 3.0742C0.809564 3.0742 0.590164 3.109 0.438364 3.1374C0.307464 3.1507 0.266964 3.0938 0.261964 3.0204C0.249264 2.8421 0.270764 2.5259 0.274564 2.3286C0.285364 1.7657 0.232164 1.3799 0.158864 0.965099C0.0626642 0.418699 -0.0327356 0.2163 0.0108644 0.1979C0.428264 0.0239998 0.927264 0 1.24596 0C1.54256 0 1.88216 0.00319977 2.34826 0.1473C2.16736 0.8765 2.06246 1.435 2.03076 1.9947Z" fill="url(#paint0_linear_1591_39873)"/>
<defs>
<linearGradient id="paint0_linear_1591_39873" x1="6.44013e-05" y1="1.5697" x2="2.34826" y2="1.5697" gradientUnits="userSpaceOnUse">
<stop offset="0.16" stop-color="#F9FBFE"/>
<stop offset="0.49" stop-color="#FCFDFE"/>
</linearGradient>
</defs>
</svg>
