<svg width="2" height="3" viewBox="0 0 2 3" fill="none" xmlns="http://www.w3.org/2000/svg">
<path d="M1.70456 2.02157C1.70326 2.03107 1.70196 2.03677 1.70196 2.03677C1.70196 2.03677 1.63996 1.99697 1.62666 2.02157C1.61346 2.04627 1.64826 2.22027 1.66906 2.32717C1.68996 2.43407 1.63936 2.59857 1.63936 2.59857L1.57986 2.55747C1.57986 2.55747 1.57986 2.45247 1.56406 2.37207C1.54886 2.29177 1.54006 2.16397 1.54006 2.12787C1.54006 2.09187 1.59826 1.97667 1.56916 1.92227C1.54006 1.86727 1.53686 1.75467 1.53056 1.59397C1.52486 1.43257 1.54886 1.41047 1.59196 1.41997C1.60136 1.39787 1.51916 1.32317 1.48306 1.19097C1.45466 1.08657 1.47176 0.94167 1.46536 0.88857C1.41036 0.85687 1.31796 0.72977 1.28066 0.64557C1.24336 0.56207 1.24336 0.537469 1.24336 0.537469C1.24336 0.537469 1.18136 0.535569 1.10036 0.517169C0.986459 0.491269 0.894159 0.388769 0.862459 0.343169C0.830859 0.297669 0.88526 0.27107 0.81696 0.30147C0.74856 0.33187 0.61826 0.343869 0.55126 0.324869C0.48416 0.305869 0.384859 0.32737 0.331059 0.30907C0.276659 0.29137 0.293759 0.226769 0.293759 0.226769C0.246259 0.297069 0.119759 0.29067 0.0469591 0.21857C-0.0219409 0.15027 -0.00554 0.0793693 0.03566 0.0180693C0.03566 0.0180693 0.13996 0.0275698 0.18306 0.00856976C0.22666 -0.0110302 0.258959 0.00216928 0.307059 0.0566693C0.346259 0.100869 0.418959 0.0819694 0.439259 0.0869694C0.445559 0.0882694 0.65876 0.111669 0.75746 0.127469C0.85296 0.142669 0.92006 0.15597 0.98016 0.13567C1.01246 0.12497 1.02886 0.131869 1.02446 0.153369C1.02446 0.153369 0.960559 0.22617 0.928259 0.26417C0.935859 0.25967 0.959258 0.243269 0.971258 0.243269C1.02566 0.243869 1.05606 0.311569 1.12436 0.355869C1.19276 0.400169 1.32246 0.394469 1.37176 0.414669C1.38696 0.420369 1.39646 0.42797 1.40146 0.43557C1.39576 0.43807 1.39006 0.441269 1.38436 0.443769C1.33566 0.470369 1.29016 0.501369 1.24836 0.535569C1.28006 0.516569 1.31226 0.499469 1.34516 0.483069C1.36546 0.472869 1.38626 0.46277 1.40716 0.45457C1.40716 0.48687 1.37236 0.52917 1.38316 0.58427C1.39896 0.66587 1.51726 0.80567 1.57986 0.84617C1.60136 0.86007 1.59446 0.896169 1.59006 0.899269C1.59006 0.899269 1.56596 0.970769 1.56596 0.994169C1.56596 1.03027 1.57226 1.19727 1.64826 1.31427C1.68746 1.37567 1.69816 1.41177 1.69506 1.43577C1.69376 1.43517 1.69186 1.43517 1.69056 1.43577C1.68236 1.43447 1.67356 1.43447 1.66526 1.43387C1.67476 1.43637 1.68426 1.43897 1.69376 1.44147C1.68746 1.47497 1.65456 1.48577 1.64696 1.51617C1.63366 1.56927 1.64066 1.83057 1.68116 1.89317C1.71086 1.93937 1.70776 1.99507 1.70456 2.02157Z" fill="#7592BC"/>
</svg>
