<svg width="2" height="1" viewBox="0 0 2 1" fill="none" xmlns="http://www.w3.org/2000/svg">
<path d="M0.00141698 0.121467C-0.014399 0.118936 0.103905 0.0910999 0.270289 0.0619985C0.276615 0.0607332 0.282942 0.0601003 0.290534 0.0588351C0.528407 0.0253051 0.818156 0 1.19964 0C1.37108 0 1.53367 0.00379584 1.70069 0.015816C1.78356 0.0215098 1.88352 0.0316318 1.98221 0.0442846C1.92338 0.168282 2.08217 0.650353 1.88668 0.871145C1.88162 0.870512 1.8772 0.86988 1.87087 0.869247C1.85569 0.866084 1.70259 0.828126 1.29517 0.822432C1.27872 0.822432 1.26164 0.822432 1.24456 0.822432C1.22747 0.822432 1.20849 0.822432 1.19015 0.822432C0.700485 0.822432 0.425918 0.885696 0.221575 0.927451C0.199433 0.929981 0.200699 0.910369 0.207658 0.901512C0.224107 0.880635 0.241188 0.869247 0.241188 0.869247C0.241188 0.869247 0.224739 0.864819 0.219678 0.841412C0.213984 0.816739 0.236127 0.792065 0.236127 0.792065C0.235494 0.792065 0.227902 0.786371 0.208923 0.726271C0.177291 0.626313 0.139333 0.368196 0.141863 0.262545C0.144394 0.156894 0.201964 0.105651 0.201964 0.105651C0.201964 0.105651 0.0229271 0.126528 0.000784685 0.122099L0.00141698 0.121467Z" fill="url(#paint0_linear_1587_25483)"/>
<defs>
<linearGradient id="paint0_linear_1587_25483" x1="-0.000480942" y1="0.463093" x2="1.98791" y2="0.463093" gradientUnits="userSpaceOnUse">
<stop offset="0.16" stop-color="#B1C2DA"/>
<stop offset="0.49" stop-color="#BDCADF"/>
</linearGradient>
</defs>
</svg>
