<svg width="3" height="4" viewBox="0 0 3 4" fill="none" xmlns="http://www.w3.org/2000/svg">
<path d="M1.8664 2.08446C1.85881 2.58407 1.91446 2.93823 1.83731 3.10772C1.66276 3.08622 1.49643 3.0742 1.25485 3.0742C0.809621 3.0742 0.590171 3.10898 0.43839 3.13744C0.307479 3.15072 0.267003 3.09381 0.261944 3.02045C0.249295 2.8421 0.270798 2.52589 0.274593 2.32858C0.285344 1.76572 0.232221 1.37994 0.15886 0.965076C0.0627316 0.418664 -0.0327638 0.216288 0.0108733 0.197948C0.428271 0.0240323 0.927252 0 1.24599 0C1.48947 0 1.76268 0.00189773 2.11114 0.0834801C1.96379 1.02452 1.87525 1.34073 1.8664 2.08509V2.08446Z" fill="url(#paint0_linear_1587_25583)"/>
<defs>
<linearGradient id="paint0_linear_1587_25583" x1="0.000122118" y1="1.56967" x2="2.11178" y2="1.56967" gradientUnits="userSpaceOnUse">
<stop offset="0.16" stop-color="#CCDAF2"/>
<stop offset="0.49" stop-color="#E1EAF9"/>
</linearGradient>
</defs>
</svg>
