<svg width="2" height="1" viewBox="0 0 2 1" fill="none" xmlns="http://www.w3.org/2000/svg">
<path d="M0.12463 0.258116L0.19169 0.196119H0.192323L0.195487 0.198017L0.129691 0.258116C0.208982 0.323067 0.249893 0.357862 0.252424 0.362502C0.266974 0.38844 0.250526 0.415644 0.219526 0.418807C0.216996 0.418807 0.214465 0.418807 0.211935 0.418807C0.212567 0.418807 0.2132 0.418807 0.214465 0.418807C0.245464 0.415644 0.261913 0.387807 0.247363 0.362502C0.244832 0.357862 0.203921 0.323067 0.12463 0.258116ZM0.00442894 0.375788L0.0702231 0.313156L0.067693 0.310626L0 0.375788C0.0991136 0.458453 0.163222 0.499785 0.192323 0.499785C0.153732 0.499785 0.147405 0.494092 0.00506124 0.375788H0.00442894ZM1.4867 0.326442L1.47975 0.329605L1.44305 0.390338L1.44622 0.393502L1.4867 0.326442ZM0.919226 0.234709L0.986919 0.0177138L0.98249 0.0101225L0.9129 0.232178L0.919226 0.234076M1.23681 0.347319L1.30577 0.409318L1.30957 0.40742L1.24187 0.345421L1.23681 0.347319ZM0.467521 0.0537748L0.695904 0.0025311V0L0.461827 0.0525083L0.530153 0.279626L0.533948 0.27583L0.468154 0.0537748H0.467521ZM1.39118 0.482705L1.41269 0.447908L1.34879 0.389073L1.34499 0.390971L1.40762 0.447908L1.38611 0.482705L1.45697 0.551029L1.4595 0.5466L1.39181 0.482705H1.39118Z" fill="white"/>
</svg>
