<svg width="6" height="1" viewBox="0 0 6 1" fill="none" xmlns="http://www.w3.org/2000/svg">
<path d="M1.59589 0.0916996C1.97279 0.0347896 2.38889 0.0019 2.84549 0C2.87209 0 2.89859 0 2.92579 0C3.35459 0.0019 3.74669 0.0316201 4.10529 0.0822201C4.12739 0.0853801 4.14959 0.0885396 4.17169 0.0916996C4.22669 0.0999296 4.28109 0.10878 4.33489 0.11827C4.34999 0.1208 4.36589 0.12396 4.38099 0.12649H4.38289C5.13489 0.33013 5.48209 0.5597 4.58279 0.41171C4.52649 0.39969 4.47019 0.388939 4.41329 0.378819C4.33989 0.365539 4.26589 0.35353 4.19129 0.34278C2.86259 0.14546 1.43959 0.257399 0.239894 0.662149C-0.0636065 0.764599 -0.0807067 0.70642 0.197593 0.54642C0.581493 0.32696 1.10319 0.18404 1.59589 0.0916996Z" fill="url(#paint0_linear_1591_39970)"/>
<defs>
<linearGradient id="paint0_linear_1591_39970" x1="-0.000406597" y1="0.35669" x2="5.11839" y2="0.35669" gradientUnits="userSpaceOnUse">
<stop offset="0.16" stop-color="#E2EAF8"/>
<stop offset="0.49" stop-color="#EEF3FC"/>
</linearGradient>
</defs>
</svg>
