<svg width="6" height="5" viewBox="0 0 6 5" fill="none" xmlns="http://www.w3.org/2000/svg">
<path d="M5.9078 4.58167L5.9007 4.61507H4.5553V1.38483L3.2505 3.98239H2.5712L1.2664 1.38483V3.94898C1.2664 4.21319 1.4243 4.45615 1.6419 4.58167L1.6348 4.61507H0.3755V0.666096C0.3755 0.401885 0.2176 0.158933 0 0.0334076L0.00710011 0H1.2664C1.4111 0 1.5498 0.0334066 1.6156 0.171079L2.7625 2.45179L2.9073 2.74839H2.9144L3.0591 2.45179L4.2395 0.171079C4.3124 0.0323936 4.444 0 4.5887 0H5.5312V3.94898C5.5312 4.21319 5.6891 4.45615 5.9068 4.58167H5.9078Z" fill="white"/>
</svg>
