<svg width="5" height="2" viewBox="0 0 5 2" fill="none" xmlns="http://www.w3.org/2000/svg">
<path d="M4.59731 0.36995C4.46131 0.35735 4.11411 0.29915 4.11041 0.35665C4.10721 0.40415 4.68841 0.51605 4.59291 0.61345C4.46131 0.74755 4.41641 0.99545 4.41141 1.19595C4.40191 1.52095 4.52712 1.58355 4.48102 1.65635C4.45122 1.70375 4.23622 1.68225 3.81001 1.65125C3.45581 1.59435 3.07381 1.55005 2.69501 1.55005C2.18911 1.55005 1.59652 1.62085 1.12472 1.71705C0.657315 1.81315 0.260215 1.89785 0.224115 1.84285C0.178615 1.77265 0.302515 1.72655 0.293715 1.41405C0.288015 1.22125 0.298114 0.99925 0.167814 0.86895C0.0654145 0.76585 0.592214 0.58055 0.589714 0.52495C0.586514 0.46295 0.308915 0.521751 0.172915 0.533751C0.0970147 0.540751 -0.0142854 0.572351 0.00151464 0.507851C0.625715 0.203051 1.68881 0 2.69501 0C3.45201 0 4.19641 0.10182 4.82821 0.29285C4.83951 0.32185 4.66121 0.37505 4.59731 0.36995Z" fill="url(#paint0_linear_1591_39931)"/>
<defs>
<linearGradient id="paint0_linear_1591_39931" x1="-0.000385357" y1="0.93025" x2="4.82881" y2="0.93025" gradientUnits="userSpaceOnUse">
<stop offset="0.16" stop-color="#DFE8F7"/>
<stop offset="0.49" stop-color="#ECF2FC"/>
</linearGradient>
</defs>
</svg>
