<svg width="7" height="16" viewBox="0 0 7 16" fill="none" xmlns="http://www.w3.org/2000/svg">
<path d="M5.35885 11.8385C4.82825 13.0003 4.78461 14.6414 4.75362 15.5502C4.54872 15.5502 4.17116 15.5477 3.79108 15.5426C3.47613 15.5388 2.77478 15.5483 2.71154 15.5458C2.61857 15.542 2.60529 15.5205 2.5996 15.4724C2.58505 15.3522 2.66031 13.7617 1.93998 12.1825C1.49033 11.1972 0.951507 10.5224 0.528417 9.15577C-0.126772 7.04032 -0.0325408 3.01938 0.0382904 2.32878C0.122402 1.50157 0.278611 0.39863 2.71343 0.041944C3.11945 -0.018136 4.04721 -0.0592433 4.77766 0.031193C4.91932 0.0520629 5.0515 0.0754622 5.17418 0.102024C7.14354 0.504244 6.85263 3.59109 6.83556 4.31964C6.76789 7.18261 6.32329 9.72621 5.35948 11.8385H5.35885Z" fill="url(#paint0_linear_3091_43872)"/>
<defs>
<linearGradient id="paint0_linear_3091_43872" x1="-0.0116709" y1="7.76444" x2="6.85959" y2="7.76444" gradientUnits="userSpaceOnUse">
<stop offset="0.16" stop-color="#F1F4FB"/>
<stop offset="0.52" stop-color="#F6F9FD"/>
</linearGradient>
</defs>
</svg>
