<svg width="3" height="4" viewBox="0 0 3 4" fill="none" xmlns="http://www.w3.org/2000/svg">
<path d="M1.91889 2.056C1.90308 2.60811 1.96379 2.9376 1.88537 3.11404C1.70956 3.09064 1.5192 3.0742 1.25485 3.0742C0.809621 3.0742 0.590171 3.10898 0.43839 3.13744C0.307479 3.15072 0.267004 3.09381 0.261945 3.02044C0.249296 2.8421 0.270798 2.52589 0.274593 2.32858C0.285344 1.76572 0.232221 1.37994 0.15886 0.965075C0.0627316 0.418663 -0.0327638 0.216288 0.0108733 0.197948C0.428271 0.0240323 0.927252 0 1.24599 0C1.50655 0 1.80126 0.00252965 2.18767 0.103717C2.02956 0.976459 1.93849 1.37109 1.91952 2.05537L1.91889 2.056Z" fill="url(#paint0_linear_3091_43929)"/>
<defs>
<linearGradient id="paint0_linear_3091_43929" x1="-0.000510303" y1="1.5703" x2="2.18767" y2="1.5703" gradientUnits="userSpaceOnUse">
<stop offset="0.16" stop-color="#DBE5F6"/>
<stop offset="0.49" stop-color="#E9F0FB"/>
</linearGradient>
</defs>
</svg>
