<svg width="2" height="3" viewBox="0 0 2 3" fill="none" xmlns="http://www.w3.org/2000/svg">
<path d="M1.2126 2.733C1.2126 2.733 1.2069 2.7343 1.2044 2.7343C1.155 2.4515 1.0481 2.1712 0.970904 1.9928C0.822904 1.6519 0.463504 1.0009 0.359204 0.816801C0.164304 0.499801 0.0264044 0.225201 0.00360441 0.0671005C0.00170441 0.0519005 -0.00899593 0 0.0188041 0L0.0232043 0.000699997C0.000404319 0.0057 0.0099041 0.0524997 0.0118041 0.0664997C0.0346041 0.2246 0.172504 0.499201 0.367404 0.816101C0.471804 1.0002 0.831104 1.6512 0.979104 1.9922C1.0557 2.1706 1.1626 2.4502 1.2126 2.733Z" fill="url(#paint0_linear_1591_40119)"/>
<defs>
<linearGradient id="paint0_linear_1591_40119" x1="-0.0292957" y1="1.3672" x2="1.1829" y2="1.3672" gradientUnits="userSpaceOnUse">
<stop stop-color="#6476A0"/>
<stop offset="0.01" stop-color="#6879A3"/>
<stop offset="0.03" stop-color="#7485AC"/>
<stop offset="0.04" stop-color="#8999BC"/>
<stop offset="0.05" stop-color="#A6B5D2"/>
<stop offset="0.06" stop-color="#C5D3EA"/>
<stop offset="0.1" stop-color="#C1D0E8"/>
<stop offset="0.33" stop-color="#B2C4E3"/>
<stop offset="0.6" stop-color="#A9BEE0"/>
<stop offset="1" stop-color="#A7BCDF"/>
</linearGradient>
</defs>
</svg>
