<svg width="5" height="2" viewBox="0 0 5 2" fill="none" xmlns="http://www.w3.org/2000/svg">
<path d="M4.63151 0.38195C4.49551 0.36935 4.13691 0.30485 4.13381 0.36235C4.13121 0.40795 4.71811 0.52235 4.62261 0.61975C4.49111 0.75385 4.44621 1.00555 4.44111 1.20605C4.43161 1.53105 4.55681 1.59365 4.51071 1.66645C4.48161 1.71255 4.26851 1.69045 3.85801 1.65885C3.48991 1.59815 3.09091 1.55005 2.69501 1.55005C2.18911 1.55005 1.59652 1.62085 1.12472 1.71705C0.657315 1.81315 0.260215 1.89785 0.224115 1.84285C0.178615 1.77265 0.302515 1.72655 0.293715 1.41405C0.288015 1.22125 0.298114 0.99925 0.167814 0.86895C0.0654145 0.76585 0.592214 0.58055 0.589714 0.52495C0.586514 0.46295 0.308915 0.521751 0.172915 0.533751C0.0970147 0.540751 -0.0142854 0.572351 0.00151464 0.507851C0.625715 0.203051 1.68881 0 2.69501 0C3.46281 0 4.21722 0.10435 4.85532 0.30105C4.86362 0.33395 4.69541 0.38765 4.63151 0.38195Z" fill="url(#paint0_linear_1591_39928)"/>
<defs>
<linearGradient id="paint0_linear_1591_39928" x1="-0.000385357" y1="0.93025" x2="4.85532" y2="0.93025" gradientUnits="userSpaceOnUse">
<stop offset="0.16" stop-color="#E4EBF8"/>
<stop offset="0.49" stop-color="#EFF4FC"/>
</linearGradient>
</defs>
</svg>
