<svg width="3" height="4" viewBox="0 0 3 4" fill="none" xmlns="http://www.w3.org/2000/svg">
<path d="M1.98846 2.0174C1.95936 2.6366 2.02886 2.9351 1.94856 3.1216C1.77026 3.0957 1.55076 3.0742 1.25486 3.0742C0.809564 3.0742 0.590164 3.109 0.438364 3.1374C0.307464 3.1507 0.266964 3.0938 0.261964 3.0204C0.249264 2.8421 0.270764 2.5259 0.274564 2.3286C0.285364 1.7657 0.232164 1.3799 0.158864 0.965099C0.0626642 0.418699 -0.0327356 0.2163 0.0108644 0.1979C0.428264 0.0239998 0.927264 0 1.24596 0C1.52866 0 1.85116 0.00249943 2.28696 0.130899C2.11496 0.915099 2.01686 1.4102 1.98846 2.0174Z" fill="url(#paint0_linear_1591_39881)"/>
<defs>
<linearGradient id="paint0_linear_1591_39881" x1="6.44013e-05" y1="1.5697" x2="2.28756" y2="1.5697" gradientUnits="userSpaceOnUse">
<stop offset="0.16" stop-color="#EEF2FB"/>
<stop offset="0.49" stop-color="#F5F8FD"/>
</linearGradient>
</defs>
</svg>
