<svg width="6" height="1" viewBox="0 0 6 1" fill="none" xmlns="http://www.w3.org/2000/svg">
<path d="M1.59519 0.0916996C1.97339 0.0341496 2.39079 0.00127 2.84929 0C2.87589 0 2.90309 0 2.92959 0C3.35969 0.0019 3.75369 0.0322599 4.11289 0.0834799C4.13499 0.0866399 4.15779 0.0898099 4.17989 0.0929699C4.23489 0.10119 4.28999 0.11004 4.34369 0.11953C4.35889 0.12206 4.37469 0.125219 4.38989 0.127749C4.39049 0.127749 4.39109 0.127749 4.39179 0.127749C5.15509 0.334549 5.52759 0.57487 4.59419 0.41424C4.53789 0.40222 4.48089 0.39147 4.42469 0.38072C4.35129 0.36744 4.27729 0.35542 4.20269 0.34404C2.87019 0.1442 1.44279 0.2555 0.239894 0.66152C-0.0636065 0.76397 -0.0807067 0.70579 0.197593 0.54578C0.581393 0.32633 1.10259 0.18404 1.59519 0.0916996Z" fill="url(#paint0_linear_1591_39968)"/>
<defs>
<linearGradient id="paint0_linear_1591_39968" x1="-0.0010066" y1="0.35669" x2="5.14629" y2="0.35669" gradientUnits="userSpaceOnUse">
<stop offset="0.16" stop-color="#E5ECF8"/>
<stop offset="0.49" stop-color="#EFF4FC"/>
</linearGradient>
</defs>
</svg>
