<svg width="6" height="1" viewBox="0 0 6 1" fill="none" xmlns="http://www.w3.org/2000/svg">
<path d="M1.59648 0.0916996C1.97218 0.0347896 2.38578 0.0019 2.84048 0C2.86698 0 2.89358 0 2.92018 0C3.34638 0.00127 3.73658 0.0309894 4.09388 0.0803194C4.11608 0.0834794 4.13818 0.0866394 4.16028 0.0898094C4.21538 0.0980294 4.26908 0.10625 4.32218 0.11574C4.33738 0.11827 4.35318 0.12143 4.36778 0.12396C4.36838 0.12396 4.36898 0.12396 4.36968 0.12396C5.10388 0.32254 5.41378 0.536929 4.56508 0.407909C4.50878 0.395899 4.45248 0.38578 4.39618 0.37566C4.32288 0.36238 4.24828 0.35036 4.17358 0.33961C2.84928 0.14672 1.43398 0.25866 0.239983 0.66152C-0.0636171 0.76397 -0.0807174 0.70579 0.197583 0.54578C0.581483 0.32633 1.10378 0.18404 1.59648 0.0916996Z" fill="url(#paint0_linear_1591_39973)"/>
<defs>
<linearGradient id="paint0_linear_1591_39973" x1="0.000282722" y1="0.35669" x2="5.07548" y2="0.35669" gradientUnits="userSpaceOnUse">
<stop offset="0.16" stop-color="#DEE7F7"/>
<stop offset="0.49" stop-color="#EBF1FB"/>
</linearGradient>
</defs>
</svg>
