<svg width="5" height="2" viewBox="0 0 5 2" fill="none" xmlns="http://www.w3.org/2000/svg">
<path d="M4.82563 0.452182C4.68966 0.439533 4.26657 0.338346 4.26593 0.395896C4.26593 0.430047 4.8876 0.560326 4.79211 0.657719C4.66056 0.791792 4.61566 1.0631 4.6106 1.26358C4.60112 1.58864 4.72634 1.65125 4.68017 1.72398C4.65487 1.76382 4.4525 1.73473 4.13376 1.70374C3.68727 1.62026 3.18829 1.55007 2.695 1.55007C2.20171 1.55007 1.59648 1.6209 1.1247 1.71702C0.657338 1.81315 0.260177 1.8979 0.224129 1.84288C0.178595 1.77268 0.30255 1.72651 0.293696 1.41409C0.288004 1.22121 0.298122 0.999226 0.167844 0.868947C0.0653913 0.765863 0.592198 0.580563 0.589669 0.52491C0.586506 0.462933 0.308874 0.521748 0.172903 0.533764C0.0970125 0.54072 -0.014294 0.572341 0.00151649 0.507834C0.625716 0.203007 1.68882 0 2.695 0C3.52347 0 4.33676 0.120793 5.00713 0.3472C4.99638 0.402853 4.8914 0.457241 4.825 0.451549L4.82563 0.452182Z" fill="url(#paint0_linear_3091_43948)"/>
<defs>
<linearGradient id="paint0_linear_3091_43948" x1="0.000251648" y1="0.930924" x2="5.00713" y2="0.930924" gradientUnits="userSpaceOnUse">
<stop offset="0.16" stop-color="#FCFDFE"/>
<stop offset="0.49" stop-color="#FDFEFF"/>
</linearGradient>
</defs>
</svg>
