<svg width="5" height="1" viewBox="0 0 5 1" fill="none" xmlns="http://www.w3.org/2000/svg">
<path d="M4.47459 0.39084C4.41959 0.37946 4.36399 0.369969 4.30889 0.361119C4.23489 0.348469 4.16029 0.33708 4.08509 0.3276C2.78729 0.14609 1.40739 0.26878 0.239894 0.66278C-0.0636065 0.76523 -0.0807067 0.707049 0.197593 0.54705C0.581493 0.3276 1.10319 0.18467 1.59589 0.0923395C1.98419 0.0335195 2.41359 0 2.88659 0C3.30149 0 3.68219 0.0252997 4.03189 0.0720997C4.10779 0.0815897 4.18249 0.0923401 4.25519 0.10435C4.27039 0.10688 4.28549 0.109409 4.30009 0.111939L4.30199 0.11257C4.94899 0.28712 5.06969 0.42246 4.47459 0.39084Z" fill="url(#paint0_linear_1591_39988)"/>
<defs>
<linearGradient id="paint0_linear_1591_39988" x1="-0.000406597" y1="0.35669" x2="4.86039" y2="0.35669" gradientUnits="userSpaceOnUse">
<stop offset="0.16" stop-color="#C8D7F1"/>
<stop offset="0.49" stop-color="#DEE8F9"/>
</linearGradient>
</defs>
</svg>
