<svg width="1" height="1" viewBox="0 0 1 1" fill="none" xmlns="http://www.w3.org/2000/svg">
<path d="M0.012701 0C0.012701 0 0.0114013 0.00249835 0.0108013 0.00369835H0.0121002C0.4404 0.0707984 0.778201 0.136 0.850901 0.2752C0.852201 0.2739 0.852801 0.272599 0.854101 0.270699C0.778201 0.131499 0.440401 0.067 0.012701 0ZM0.0089016 0.0226994C0.0089016 0.0226994 0.00450163 0.0220996 0.00190163 0.0214996C0.00130163 0.0226996 0.0007 0.0239991 0 0.0252991C0.0032 0.0258991 0.0057016 0.0258988 0.0089016 0.0264988C0.348602 0.0796988 0.7757 0.1499 0.837 0.296C0.8376 0.2948 0.8389 0.2935 0.8395 0.2929C0.7744 0.1461 0.348702 0.0757994 0.0089016 0.0226994Z" fill="url(#paint0_linear_1591_40276)"/>
<defs>
<linearGradient id="paint0_linear_1591_40276" x1="0" y1="0.148" x2="0.854101" y2="0.148" gradientUnits="userSpaceOnUse">
<stop stop-color="#FC0064"/>
<stop offset="1" stop-color="#FD619F"/>
</linearGradient>
</defs>
</svg>
