<svg width="1" height="3" viewBox="0 0 1 3" fill="none" xmlns="http://www.w3.org/2000/svg">
<path d="M0.468787 0.502316C0.430196 0.669333 0.310626 1.18557 0.23724 1.50442C0.163221 1.822 0.0468157 2.3123 0.00822463 2.84182H0C0.038591 2.31293 0.154997 1.822 0.229016 1.50378C0.302403 1.18493 0.421971 0.6687 0.460562 0.501683C0.493459 0.357441 0.491562 0.183467 0.456134 0.0860401C0.44791 0.063265 0.425767 0.00506174 0.381482 0.000633258C0.382747 0.000633258 0.384012 0 0.385278 0C0.432093 0 0.455501 0.0626311 0.464358 0.0866714C0.499785 0.184098 0.501684 0.358074 0.468787 0.502316Z" fill="url(#paint0_linear_1587_25845)"/>
<defs>
<linearGradient id="paint0_linear_1587_25845" x1="0.379584" y1="1.35259" x2="0.753474" y2="1.21404" gradientUnits="userSpaceOnUse">
<stop offset="0.41" stop-color="#C6D4EA"/>
<stop offset="0.55" stop-color="#C2D0E7"/>
<stop offset="0.66" stop-color="#B8C7DF"/>
<stop offset="0.77" stop-color="#A7B6D3"/>
<stop offset="0.87" stop-color="#8F9FC0"/>
<stop offset="0.97" stop-color="#7082A9"/>
<stop offset="1" stop-color="#6476A0"/>
</linearGradient>
</defs>
</svg>
