<svg width="29" height="29" viewBox="0 0 29 29" fill="none" xmlns="http://www.w3.org/2000/svg">
<path d="M27.9764 5.07572C27.8845 4.84484 27.786 4.6066 27.6772 4.36469C26.8933 2.59117 25.5779 0.611763 22.3661 0.0955878C22.0742 0.0477939 21.7757 0.0205883 21.4779 0.0139707C19.9029 -0.0198527 17.5353 0.472057 14.5198 3.22499C13.9073 2.61102 13.2272 2.03382 12.5029 1.54338C12.189 1.30661 11.8691 1.09264 11.5471 0.917644C10.4279 0.308822 9.26178 0 8.0809 0C6.52723 0 5.00738 0.538233 3.6868 1.55588C2.39268 2.55293 1.37504 3.93969 0.74416 5.56542C-0.272013 8.1838 -0.246278 11.225 0.814012 14.3816C1.00519 14.9926 1.24342 15.6044 1.53533 16.2095C2.40224 18.2786 3.58606 19.861 4.44121 20.844C4.44415 20.8477 4.44782 20.8521 4.4515 20.8558C4.45297 20.8573 4.45444 20.8588 4.45518 20.8602C4.59929 21.0264 4.73459 21.1749 4.85665 21.3051C4.57356 20.9492 4.27429 20.5521 3.97135 20.1205C3.11842 18.9029 2.2346 17.3948 1.59342 15.6911C1.26254 14.6566 1.07504 13.5742 0.977983 12.508C0.977983 12.508 0.977983 12.508 0.977983 12.5073C1.20078 13.5272 1.52283 14.6051 1.89416 15.5374C3.55003 19.697 6.0412 22.1352 7.92208 23.7815C7.90958 23.9477 7.90222 24.0484 7.90075 24.058C7.70958 25.6698 7.47502 26.9683 7.39781 27.3749C7.39487 27.4028 7.39634 27.4308 7.40002 27.4573C6.68679 27.6778 5.98238 27.8925 5.3765 28.0742C4.8537 28.2242 4.36474 28.3595 3.94121 28.4683C3.79121 28.5065 3.41327 28.5793 3.41621 28.6146C3.40959 28.6183 3.40518 28.6212 3.40518 28.6249C3.40518 28.6271 3.40665 28.6293 3.41033 28.6323C3.37283 28.6315 3.40077 28.6323 3.41621 28.6323C4.69047 28.7323 7.15958 28.5778 10.5397 27.8617C11.9713 27.5661 14.8338 26.8381 17.9176 25.2874C19.1264 24.6793 20.2169 23.9918 21.2095 23.2389C22.9206 21.9573 24.3573 20.486 25.5786 18.8977C27.3588 16.5816 28.3999 13.8044 28.6867 11.0853C28.6874 11.0779 28.6882 11.0713 28.6889 11.0639C28.6919 11.0345 28.6941 11.0058 28.697 10.9764C28.9146 8.89115 28.6816 6.84556 27.9764 5.07572Z" fill="black"/>
</svg>
