<svg width="3" height="1" viewBox="0 0 3 1" fill="none" xmlns="http://www.w3.org/2000/svg">
<path d="M0.00141056 0.121467C-0.0144054 0.118936 0.104531 0.0929978 0.270283 0.0619985C0.276609 0.0607332 0.283568 0.0601003 0.290527 0.0588351C0.528399 0.0253051 0.818148 0 1.19963 0C1.43497 0 1.65007 0.0113877 1.84366 0.0278363C1.91515 0.0341627 2.0752 0.0550391 2.203 0.0784468C2.15428 0.253055 2.3213 0.468154 2.08343 0.911635C2.079 0.911002 2.07331 0.909737 2.06571 0.908471C1.97841 0.892023 1.65134 0.832554 1.32616 0.823697C1.30465 0.823697 1.28251 0.823065 1.26036 0.822432C1.23822 0.8218 1.21545 0.822432 1.19141 0.822432C0.701743 0.822432 0.427177 0.885696 0.222835 0.927451C0.200692 0.929981 0.201957 0.910369 0.208916 0.901512C0.225365 0.880635 0.242446 0.869247 0.242446 0.869247C0.242446 0.869247 0.225997 0.864819 0.220936 0.841412C0.215242 0.816739 0.240548 0.787637 0.240548 0.787637C0.239916 0.787637 0.22916 0.786371 0.210181 0.726271C0.178549 0.626313 0.140591 0.368196 0.143121 0.262545C0.145652 0.156894 0.203222 0.105651 0.203222 0.105651C0.203222 0.105651 0.0241853 0.126528 0.00204285 0.122099L0.00141056 0.121467Z" fill="url(#paint0_linear_1587_25454)"/>
<defs>
<linearGradient id="paint0_linear_1587_25454" x1="-0.000487362" y1="0.463093" x2="2.21438" y2="0.463093" gradientUnits="userSpaceOnUse">
<stop offset="0.16" stop-color="#F8F9FC"/>
<stop offset="0.49" stop-color="#F9FAFC"/>
</linearGradient>
</defs>
</svg>
