<svg width="3" height="4" viewBox="0 0 3 4" fill="none" xmlns="http://www.w3.org/2000/svg">
<path d="M2.0517 1.98327C2.00743 2.66439 2.08838 2.9338 2.00616 3.12922C1.82592 3.10076 1.57865 3.0742 1.25485 3.0742C0.809621 3.0742 0.590171 3.10898 0.43839 3.13744C0.307479 3.15072 0.267004 3.09381 0.261945 3.02044C0.248664 2.8421 0.270798 2.52589 0.274593 2.32858C0.285344 1.76572 0.232221 1.37994 0.15886 0.965075C0.0627316 0.418663 -0.0327638 0.216288 0.0108733 0.197948C0.428271 0.0240323 0.927252 0 1.24599 0C1.56473 0 1.89739 0.00316253 2.37866 0.155576C2.19336 0.857564 2.08648 1.44698 2.0517 1.98264V1.98327Z" fill="white"/>
</svg>
