<svg width="10" height="3" viewBox="0 0 10 3" fill="none" xmlns="http://www.w3.org/2000/svg">
<path d="M9.99452 2.06741C9.25142 1.10681 7.95052 0.469909 6.79822 0.323209C6.20632 0.247909 5.43412 0.342209 4.99522 0.342209C4.55632 0.342209 3.88532 0.234709 3.19222 0.323209C2.03992 0.469909 0.715021 1.09351 0.0187108 2.11551C-0.0318892 2.07821 0.0338907 1.89481 0.0547607 1.84291C0.301401 1.53051 0.607521 1.28131 1.02422 1.00051C1.47072 0.699509 2.13352 0.402209 2.92342 0.221409C3.90932 -0.0049908 4.55572 8.9456e-06 4.99522 8.9456e-06C5.43472 8.9456e-06 6.08112 -0.0049908 7.06702 0.221409C7.85692 0.402209 8.51972 0.699509 8.96622 1.00051C9.38302 1.28131 9.68902 1.53051 9.93572 1.84291C9.95662 1.89481 10.0451 2.03011 9.99452 2.06741Z" fill="#8198BA"/>
</svg>
