<svg width="1" height="7" viewBox="0 0 1 7" fill="none" xmlns="http://www.w3.org/2000/svg">
<path d="M0.909639 3.6327C0.767339 3.4252 0.642839 3.0243 0.605439 2.9136C0.605439 2.7429 0.60544 2.2597 0.60164 2.0864C0.74394 1.9315 0.810339 1.8676 0.870439 1.8018C0.799039 1.1782 0.632038 0.5028 0.141938 0C0.298138 0.1923 0.376539 0.376999 0.307639 0.653299C0.238039 0.933499 0.182438 1.0638 0.0521384 1.3243C0.152638 2.7163 0.0729389 3.9267 0.0173389 5.308C0.00913886 5.5173 -0.0250618 5.8335 0.0337382 6.0378C0.0755382 6.182 0.20514 6.0852 0.27914 5.9372C0.42524 5.6431 0.464438 5.2744 0.479638 5.2744C0.492938 5.2744 0.499839 5.363 0.548539 5.5091C0.635239 5.7734 0.745239 5.8828 0.816039 6.0239C0.887539 5.2738 0.904639 4.6711 0.910339 3.8287C0.910339 3.8243 0.909639 3.6377 0.909639 3.6327ZM0.342439 3.7737C0.338639 3.873 0.293738 4.2727 0.225438 4.2594C0.191238 4.2524 0.197539 4.0121 0.198239 3.8932C0.200139 3.565 0.217139 3.0199 0.214639 2.7138C0.257639 2.6189 0.290538 2.5443 0.356938 2.4304C0.356938 2.8636 0.356339 3.3582 0.342439 3.7737Z" fill="url(#paint0_linear_1591_40242)"/>
<defs>
<linearGradient id="paint0_linear_1591_40242" x1="0.0932385" y1="3.0546" x2="0.819239" y2="3.0407" gradientUnits="userSpaceOnUse">
<stop stop-color="#BE0A46"/>
<stop offset="0.35" stop-color="#C00A47"/>
<stop offset="0.62" stop-color="#CA0B4C"/>
<stop offset="0.85" stop-color="#DA0C55"/>
<stop offset="0.94" stop-color="#E30D5A"/>
</linearGradient>
</defs>
</svg>
