<svg width="3" height="4" viewBox="0 0 3 4" fill="none" xmlns="http://www.w3.org/2000/svg">
<path d="M1.8715 2.0813C1.8626 2.5866 1.9189 2.9382 1.8417 3.1083C1.6672 3.0868 1.4983 3.0742 1.2548 3.0742C0.8096 3.0742 0.5902 3.109 0.4384 3.1374C0.3075 3.1507 0.267 3.0938 0.2619 3.0204C0.2493 2.8421 0.2708 2.5259 0.2746 2.3286C0.2853 1.7657 0.232199 1.3799 0.1589 0.965099C0.0626995 0.418699 -0.0328003 0.2163 0.0108997 0.1979C0.4283 0.0239998 0.9273 0 1.246 0C1.4914 0 1.7665 0.00189963 2.1187 0.0853996C1.9708 1.0195 1.8816 1.3433 1.8715 2.0813Z" fill="url(#paint0_linear_1591_39903)"/>
<defs>
<linearGradient id="paint0_linear_1591_39903" x1="-0.000500279" y1="1.569" x2="2.1187" y2="1.569" gradientUnits="userSpaceOnUse">
<stop offset="0.16" stop-color="#CEDBF2"/>
<stop offset="0.49" stop-color="#E1EAFA"/>
</linearGradient>
</defs>
</svg>
