<svg width="6" height="2" viewBox="0 0 6 2" fill="none" xmlns="http://www.w3.org/2000/svg">
<path d="M5.30413 0.9506C4.71723 1.0164 3.74203 1.0322 2.70683 1.0322C1.80813 1.0322 0.652734 0.9898 0.299134 0.9506C0.168934 0.936 -0.0625655 0.922801 0.0158345 0.868401C0.280235 0.685601 0.586334 0.487598 0.820234 0.354198C1.14853 0.167598 1.54943 0.0202992 1.78153 0.00569916C1.96373 0.0411992 2.43673 0.0619984 2.70683 0.0626984C2.96293 0.0632984 3.49793 0.045 3.72943 0C3.96153 0.0146 4.45483 0.167598 4.78303 0.354198C5.01704 0.487598 5.32313 0.685601 5.58743 0.868401C5.66593 0.922801 5.43443 0.936 5.30413 0.9506Z" fill="url(#paint0_radial_1591_39820)"/>
<defs>
<radialGradient id="paint0_radial_1591_39820" cx="0" cy="0" r="1" gradientUnits="userSpaceOnUse" gradientTransform="translate(0.901234 2.944) scale(4.5528)">
<stop stop-color="#C8D7F1"/>
<stop offset="0.9" stop-color="#DEE8F9"/>
<stop offset="1" stop-color="white"/>
</radialGradient>
</defs>
</svg>
