<svg width="6" height="1" viewBox="0 0 6 1" fill="none" xmlns="http://www.w3.org/2000/svg">
<path d="M1.59718 0.0916996C1.98168 0.0335196 2.40598 0.00064 2.87338 0C2.90058 0 2.92778 0 2.95498 0C3.39388 0.00317 3.79478 0.0347895 4.15908 0.0891695C4.18188 0.0923395 4.20458 0.0961299 4.22678 0.0992899C4.28298 0.10815 4.33868 0.117629 4.39308 0.127749C4.40888 0.130909 4.42408 0.13344 4.43988 0.13661H4.44178C5.26898 0.36112 5.77998 0.65899 4.66058 0.42752C4.60368 0.41487 4.54608 0.403489 4.48858 0.392099C4.41518 0.378189 4.34188 0.36554 4.26788 0.35353C2.91698 0.1385 1.46238 0.24854 0.239983 0.66152C-0.0636171 0.76397 -0.0807174 0.70579 0.197583 0.54578C0.581483 0.32633 1.10318 0.18341 1.59588 0.0910702L1.59718 0.0916996Z" fill="url(#paint0_linear_1591_39957)"/>
<defs>
<linearGradient id="paint0_linear_1591_39957" x1="0.000882722" y1="0.35669" x2="5.30628" y2="0.35669" gradientUnits="userSpaceOnUse">
<stop offset="0.16" stop-color="#F5F8FC"/>
<stop offset="0.49" stop-color="#F9FBFE"/>
</linearGradient>
</defs>
</svg>
