<svg width="5" height="2" viewBox="0 0 5 2" fill="none" xmlns="http://www.w3.org/2000/svg">
<path d="M4.8747 0.4921C4.5996 0.3763 4.4098 0.3371 4.289 0.3074C4.0715 0.2536 3.8691 0.2138 3.8489 0.2119C3.8748 0.2239 3.8995 0.235899 3.9216 0.247899C4.019 0.301099 4.0753 0.354199 4.074 0.438299C4.074 0.490199 4.0759 0.848099 4.0797 0.935399C4.0841 1.0385 4.105 1.2117 4.05 1.22C3.5181 0.940399 2.9521 0.8861 2.4285 0.8861C1.9048 0.8861 1.2427 0.999899 0.824 1.22C0.7721 1.2111 0.7905 1.0385 0.7949 0.935399C0.7987 0.848099 0.8006 0.490199 0.8006 0.438299C0.7993 0.354199 0.8556 0.301099 0.953 0.247899C0.9752 0.235899 0.999801 0.2239 1.0257 0.2119C1.0099 0.2138 0.6615 0.2884 0.5856 0.3074C0.5034 0.3276 0.1423 0.432 0 0.4921C0.0942 0.4079 0.6956 0.2024 0.7412 0.1929C1.2528 0.0885997 1.8441 0 2.4373 0C3.0305 0 3.6326 0.1006 4.1442 0.2049C4.1935 0.2151 4.776 0.4041 4.8747 0.4921Z" fill="#8298B4"/>
</svg>
