<svg width="6" height="5" viewBox="0 0 6 5" fill="none" xmlns="http://www.w3.org/2000/svg">
<path d="M5.07061 4.35694C5.19614 4.51486 5.35405 4.58774 5.36114 4.58774L5.35405 4.61406H4.30531C4.14031 4.61406 3.99555 4.51486 3.94291 4.37718L3.61998 3.55925H1.74116L1.41823 4.37718C1.36559 4.51587 1.22083 4.61406 1.05583 4.61406H0.0070853L0 4.58774C0.0070861 4.58774 0.165004 4.51486 0.29053 4.35694C0.389735 4.2385 0.514248 3.98745 0.560814 3.8761L2.17645 0H3.1847L4.80033 3.8761C4.84689 3.98846 4.97141 4.2385 5.07061 4.35694ZM3.29706 2.73523L2.68361 1.18642H2.67652L2.06307 2.73523H3.29605H3.29706Z" fill="white"/>
</svg>
