<svg width="10" height="4" viewBox="0 0 10 4" fill="none" xmlns="http://www.w3.org/2000/svg">
<path d="M9.59048 0.739644C9.59048 0.739644 9.43239 0.689645 9.15592 0.60288C8.87945 0.517586 8.48607 0.393322 8.00372 0.31097C7.76328 0.266852 7.50078 0.239646 7.22211 0.219793C6.94417 0.199205 6.65152 0.196999 6.35152 0.22347C6.05079 0.246999 5.74123 0.295528 5.43167 0.366116C5.12211 0.43744 4.81109 0.560969 4.50594 0.666851C4.18388 0.805821 3.91035 0.927144 3.61991 1.05876C3.33021 1.19111 3.07065 1.30288 2.80595 1.45214C2.53977 1.59994 2.26992 1.76538 2.03683 1.91905C1.80154 2.07052 1.90521 2.09773 1.78242 2.18008C1.65963 2.26243 1.74271 2.18523 1.64786 2.23817C1.52874 2.30582 0.359631 3.33228 0.0044848 3.64405C-0.0624267 3.70213 0.634629 2.86831 1.07727 2.47861C1.51992 2.0889 2.42139 1.41758 2.68609 1.25802C2.95153 1.09994 3.23241 0.947732 3.52433 0.805821C3.81624 0.66391 4.12212 0.537439 4.43315 0.427145C5.05594 0.205087 5.70741 0.057294 6.33167 0.0131766C6.48755 0.00141189 6.64123 -0.00152942 6.79343 0.000676453C6.83167 0.00141174 6.86917 0.0028824 6.9074 0.00361769C6.94417 0.00582356 6.9802 0.00802929 7.01623 0.00949987C7.09196 0.0131763 7.16181 0.0219998 7.23387 0.0278822C7.51843 0.0543527 7.78608 0.102882 8.03093 0.158764C8.5199 0.27347 8.90739 0.433763 9.17431 0.549204C9.30813 0.607292 9.4118 0.655086 9.48239 0.688174C9.55298 0.721262 9.59048 0.738909 9.59048 0.738909V0.739644Z" fill="white"/>
</svg>
