<svg width="12" height="26" viewBox="0 0 12 26" fill="none" xmlns="http://www.w3.org/2000/svg">
<path d="M7.29307 5.2838C7.41327 5.3085 7.49227 5.3224 7.56627 5.3389C7.52137 5.2788 7.32477 4.4269 7.32477 4.4269C7.28177 4.3023 7.23557 4.1366 7.23117 4.1929C7.22737 4.2454 7.20647 4.3365 7.21027 4.4592C7.21337 4.58 7.35507 5.2339 7.32287 5.2687C7.31837 5.2731 7.30197 5.2826 7.29307 5.2838ZM0.791813 6.7998C0.790553 6.7574 0.794343 6.6821 0.798773 6.5955C0.807623 6.4279 0.818373 6.2198 0.800033 6.1148C0.789283 6.0529 0.783592 5.9997 0.774102 5.951C0.743122 5.7917 0.734263 5.6778 0.747543 5.6241C0.758292 5.5817 0.734262 5.5868 0.722242 5.5514C0.696323 5.4736 0.703912 5.0581 0.754502 4.9651C0.765252 4.9455 0.751972 4.9328 0.745012 4.9044C0.705172 4.745 0.782963 4.4427 0.884783 4.2966C0.923993 4.2397 0.923993 4.2397 0.925253 4.1891C0.942333 3.9836 1.15987 3.6282 1.39067 3.575C1.41477 3.5693 1.40907 3.5447 1.44007 3.5074C1.58167 3.3347 1.74427 3.2829 1.88147 3.2329C1.93337 3.2139 2.05477 3.1627 2.11547 3.2038C2.13827 3.1779 2.14017 3.1741 2.14017 3.1741C2.12627 3.1716 2.11487 3.1703 2.10217 3.1716C1.85867 3.157 1.53997 3.3303 1.39067 3.5314C1.15487 3.6086 0.916403 3.9754 0.903123 4.2188C0.720983 4.4541 0.693793 4.8222 0.737423 4.9385C0.684303 5.0442 0.657113 5.4331 0.716553 5.5963C0.691263 5.7215 0.731102 5.8511 0.778532 6.1199C0.805722 6.2748 0.766513 6.6726 0.769683 6.7998H0.791813ZM7.68777 5.4097C8.03557 5.5058 8.52507 5.7088 8.67877 5.7676C8.91207 5.8568 9.12337 5.9327 9.52997 6.1325C9.00317 5.7784 8.30627 5.5083 7.63077 5.3534C7.69157 5.1169 7.54037 4.8791 7.56887 4.5686C7.59287 4.2985 7.82117 4.012 7.98117 3.9779C8.05137 3.9469 8.07537 3.9159 8.10447 3.871C8.10447 3.871 8.06657 3.8476 8.04507 3.8116C7.64977 3.9785 7.48407 4.3384 7.52587 4.7602C7.54987 5.0018 7.65607 5.2086 7.58217 5.3433C7.62007 5.3629 7.68777 5.4097 7.68777 5.4097ZM9.01577 3.1735C9.00377 3.1621 8.98927 3.1557 8.96907 3.1437L8.95127 3.1387C8.95127 3.1387 8.97277 3.1576 8.99557 3.1842C9.05757 3.1595 9.18467 3.2146 9.23717 3.2335C9.37437 3.2835 9.54007 3.3335 9.67857 3.508C9.62357 3.4903 9.52237 3.4897 9.53247 3.5004C9.53757 3.5061 9.55397 3.5017 9.62547 3.5181C9.65967 3.5257 9.72287 3.5504 9.73617 3.5548C9.95937 3.6332 10.1839 3.9918 10.201 4.1973C10.1586 4.143 10.1125 4.0917 10.0922 4.086C10.0771 4.0816 10.1156 4.1183 10.1435 4.1486C10.1744 4.1822 10.2124 4.2359 10.2345 4.2682C10.3363 4.4155 10.4173 4.7469 10.3718 4.9044C10.3471 4.8361 10.3224 4.7906 10.2984 4.7735C10.268 4.7526 10.3009 4.783 10.3193 4.8177C10.3503 4.8753 10.3553 4.9145 10.3673 4.9487C10.4015 5.0429 10.4356 5.3654 10.3952 5.5514C10.3812 5.4938 10.3408 5.4046 10.3212 5.3983C10.3142 5.3964 10.3642 5.4571 10.3825 5.5792C10.404 5.7227 10.3743 5.7917 10.3433 5.951C10.3338 5.9997 10.3281 6.0529 10.3174 6.1148C10.299 6.2198 10.3098 6.4279 10.3186 6.5955C10.3231 6.6821 10.3269 6.734 10.3256 6.7764L10.3484 6.7998C10.3515 6.6733 10.3117 6.2755 10.3389 6.1205C10.3863 5.8518 10.4261 5.7221 10.4009 5.5969C10.4603 5.4337 10.4268 5.0467 10.38 4.9392C10.4236 4.8228 10.3964 4.4547 10.2143 4.2195C10.201 3.976 9.96257 3.6092 9.72667 3.532C9.57737 3.3309 9.25737 3.1602 9.01457 3.1735H9.01577ZM9.94107 25.4189C9.86267 25.1937 9.63437 24.758 9.23717 24.4026C9.22197 24.3893 9.20807 24.3773 9.19477 24.3665C9.15367 24.3374 9.09107 24.2963 9.05377 24.2704C9.00187 24.24 8.98987 24.2381 8.97597 24.2147C8.92787 24.1376 8.95957 23.8947 8.92227 23.779C8.90077 23.7132 8.68637 23.6234 8.46057 23.4464C8.18167 23.2269 8.08107 22.6318 7.90027 22.2561C7.84587 22.1436 7.79777 22.0544 7.63457 21.9899C7.73647 21.8501 7.74777 21.5301 7.65867 21.3859C7.60487 21.2986 7.46887 21.2284 7.46957 21.1526C7.47457 20.5201 7.73457 20.0749 8.06657 19.5298C8.61047 18.6381 9.36937 17.7002 9.87027 16.7832C11.1395 14.4603 11.1199 12.286 11.1199 9.3838C11.1199 8.5958 11.0124 7.4834 10.3503 6.8004C10.3604 6.813 10.5691 7.1489 10.7702 7.7275C11.0794 8.6173 10.9789 9.8537 10.953 10.8631C10.9277 11.8749 10.9005 12.9039 10.6842 13.8968C10.3604 15.3798 9.85697 16.3765 9.29727 17.2227C8.99807 17.6749 8.35877 18.602 7.93877 19.3331C7.65167 19.8327 7.48477 20.264 7.41707 20.5897C7.35187 20.9015 7.37787 21.0994 7.34877 21.1393C7.32097 21.1772 7.00217 21.1722 6.94277 21.1709C7.00657 21.188 7.00407 21.231 6.96677 21.2626C7.08187 21.2715 7.41267 21.3164 7.52327 21.4251C7.63017 21.5301 7.62197 21.8356 7.49677 21.9247C7.55117 21.9659 7.51197 22.0329 7.44367 22.0329C7.38667 22.0329 6.94397 22.0405 6.94397 22.0405C7.10467 22.0487 7.40817 22.0379 7.54797 22.1252C7.63907 22.1821 7.75857 22.3168 7.80787 22.4484C7.89517 22.6786 7.97927 22.9885 8.02607 23.1491C8.05077 23.2332 8.00967 23.2882 7.97427 23.3142C7.84077 23.4122 7.36967 23.4546 7.08187 23.459C7.16217 23.5153 7.04837 23.5399 6.99207 23.5886C6.94337 23.631 7.05147 23.6487 7.07807 23.6576C7.14137 23.6791 7.09267 23.7012 7.11987 23.7284C7.13377 23.743 7.21597 23.7626 7.28237 23.7619C7.74907 23.76 8.31127 23.7619 8.59907 23.7594C8.63827 23.7594 8.74767 23.7556 8.76787 23.8233C8.79197 23.9042 8.81407 24.1686 8.77487 24.2154C8.73377 24.2641 8.25567 24.2698 8.16777 24.2774C8.16777 24.2774 8.51937 24.2811 8.51997 24.3008C8.51997 24.3235 8.33727 24.3368 8.26007 24.3425C8.00587 24.3615 7.45567 24.3697 7.23237 24.3741C7.29627 24.3823 7.26907 24.4323 7.26907 24.4323C7.76427 24.4355 8.28027 24.4468 8.73877 24.5866C9.01457 24.6707 9.22447 24.8219 9.42377 25.0451C9.46357 25.09 9.73927 25.4277 9.74377 25.4537C9.75447 25.5182 9.56537 25.5561 9.49897 25.5694C9.20617 25.6269 8.81787 25.6472 8.51497 25.6649C8.20317 25.6832 7.89267 25.6832 7.59797 25.706C7.57137 25.7079 7.48027 25.7129 7.44867 25.7212C7.44867 25.7212 8.37137 25.7073 8.67617 25.6978C9.03287 25.6864 9.62167 25.6446 9.80377 25.6529C9.86327 25.6554 9.92147 25.6611 9.95937 25.6801C9.99417 25.6978 9.99607 25.7869 9.98657 25.8009C9.97327 25.8205 9.69817 25.8546 9.64377 25.8679C9.91697 25.8401 10.0967 25.8072 10.1371 25.7699C10.1523 25.756 10.1656 25.6845 10.1264 25.5839C10.084 25.4771 9.98277 25.5314 9.94357 25.4208L9.94107 25.4189ZM3.88747 4.1929C3.88307 4.1366 3.83697 4.3023 3.79387 4.4269C3.79387 4.4269 3.59727 5.2781 3.55167 5.3389C3.64337 5.3186 3.73577 5.3028 3.82427 5.2857C3.81537 5.2845 3.80087 5.2763 3.79517 5.2693C3.76547 5.2326 3.90457 4.58 3.90777 4.4592C3.91157 4.3365 3.89127 4.2454 3.88747 4.1929ZM7.51317 2.5777C7.57957 2.7162 7.54857 2.8522 7.47207 2.9951C7.54547 2.9123 7.63017 2.696 7.50557 2.5119C7.48287 2.4784 7.45877 2.4468 7.43287 2.4171C7.43037 2.3323 7.37407 2.1198 7.34877 1.9851C7.33547 1.9137 7.31587 1.7347 7.31587 1.5861C7.31587 1.4457 7.32917 1.3989 7.25137 1.3432C7.65927 1.4141 8.07727 1.5804 8.41247 1.8239C8.86407 2.1521 9.04807 2.5259 8.81977 3.0773C8.87547 3.0938 8.93047 3.1178 8.97027 3.1412C9.08347 2.9989 9.31247 2.7579 9.28967 2.1894C9.35927 2.1331 9.88857 1.6835 9.73617 1.0454C9.78677 0.8265 9.78607 0.6716 9.71397 0.4142C9.79437 0.8031 9.74687 0.7557 9.70327 0.6355C9.62867 0.43 9.45537 0.2162 9.44147 0.203C9.48947 0.2858 9.71397 0.6229 9.68617 0.8936C9.60077 0.645 9.31057 0.373699 9.24857 0.329499C9.21057 0.392099 9.18217 0.4212 9.12967 0.4642C9.25427 0.5963 9.44207 0.790499 9.51667 1.0656C9.48637 1.0725 9.49707 1.1212 9.50277 1.1649C9.46797 1.1839 9.41107 1.1364 9.37757 1.1674C9.35167 1.1908 9.35737 1.2939 9.31877 1.3009C9.27767 1.3084 9.25487 1.2452 9.22957 1.2256C9.12837 1.1459 9.19547 1.3502 9.20747 1.4084C9.19607 1.4729 9.18907 1.5494 9.18527 1.8422C9.18337 1.9839 9.24157 2.2723 9.17837 2.2811C9.12647 2.2881 8.99687 2.056 8.65157 1.8188C8.48147 1.7024 8.04887 1.4571 7.63017 1.3439C7.44047 1.2926 7.06287 1.2003 6.97117 1.1921C7.11227 1.2585 7.19757 1.3141 7.19637 1.4178C7.19567 1.4703 7.19757 1.8277 7.20207 1.9156C7.20647 2.0174 7.22737 2.1926 7.17227 2.2002C7.11917 2.1692 7.06417 2.142 7.00537 2.1179C6.79977 2.0357 6.38997 1.8586 5.55967 1.8586C4.72927 1.8586 4.31887 2.0357 4.11327 2.1179C4.05507 2.142 3.99887 2.1685 3.94637 2.2002C3.89447 2.1913 3.91217 2.0186 3.91727 1.9156C3.92107 1.8277 3.92297 1.4703 3.92297 1.4178C3.92297 1.3141 4.00637 1.2585 4.14807 1.1921C4.05637 1.2003 3.67877 1.2926 3.48907 1.3439C3.07047 1.4571 2.63717 1.7024 2.46777 1.8188C2.12247 2.056 1.99277 2.2881 1.94097 2.2811C1.87767 2.2723 1.93587 1.9839 1.93397 1.8422C1.92957 1.5494 1.92317 1.4729 1.91187 1.4084C1.92387 1.3502 1.99087 1.1459 1.88907 1.2256C1.86437 1.2452 1.84097 1.3084 1.80057 1.3009C1.76197 1.2939 1.76767 1.1908 1.74167 1.1674C1.70817 1.1364 1.65067 1.1839 1.61647 1.1649C1.62217 1.1212 1.63297 1.0725 1.60257 1.0656C1.67717 0.790499 1.86507 0.5963 1.98957 0.4642C1.93717 0.4212 1.90867 0.392099 1.87077 0.329499C1.80877 0.373699 1.51787 0.645 1.43247 0.8936C1.40467 0.6229 1.80247 0.1378 1.86507 0C1.66707 0.177 1.48997 0.43 1.41597 0.6355C1.37177 0.7557 1.32687 0.793 1.40777 0.404099C1.33187 0.662699 1.32807 0.8196 1.38317 1.0454C1.23067 1.6835 1.76007 2.1331 1.82957 2.1894C1.80687 2.7579 2.03517 2.9983 2.14837 3.1406C2.18947 3.1191 2.24387 3.0931 2.29947 3.0754C2.07057 2.524 2.25527 2.1515 2.70677 1.8232C3.04197 1.5797 3.45997 1.4134 3.86787 1.3426C3.79017 1.3982 3.80337 1.445 3.80337 1.5854C3.80337 1.7341 3.78377 1.913 3.77047 1.9845C3.74457 2.1192 3.68897 2.3311 3.68637 2.4164C3.66047 2.4462 3.63647 2.4778 3.61367 2.5113C3.48907 2.6953 3.57317 2.9116 3.64717 2.9945C3.57067 2.8515 3.53907 2.7156 3.60547 2.5771C3.69717 2.3867 3.88937 2.2008 4.32767 2.0496C4.56227 1.9693 4.95437 1.8656 5.55967 1.8656C6.16487 1.8656 6.55697 1.9693 6.79097 2.0496C7.22987 2.2008 7.42147 2.3873 7.51317 2.5777ZM2.43987 5.767C2.59357 5.7082 3.08367 5.5052 3.43087 5.4091C3.43087 5.4091 3.49857 5.361 3.53657 5.342C3.44797 5.1814 3.58267 4.8576 3.59277 4.7589C3.63457 4.3371 3.48907 3.995 3.13177 3.8078C3.12797 3.9279 3.15647 3.9817 3.16777 3.9867C3.32467 4.0475 3.52637 4.315 3.54917 4.5686C3.57767 4.8791 3.42647 5.1169 3.48717 5.3534C2.81177 5.5083 2.11487 5.7784 1.58807 6.1325C1.99527 5.9321 2.20717 5.8562 2.43987 5.767ZM4.17657 21.1703C4.11707 21.1715 3.79837 21.1766 3.77117 21.1386C3.74207 21.0988 3.76797 20.9009 3.70287 20.5891C3.63457 20.2634 3.46817 19.8327 3.18107 19.3325C2.76117 18.6014 2.12177 17.6742 1.82267 17.2221C1.26297 16.3759 0.759562 15.3792 0.435763 13.8962C0.219473 12.9039 0.192283 11.8749 0.166983 10.8624C0.141683 9.8531 0.0411325 8.6173 0.349753 7.7269C0.550863 7.1482 0.760192 6.8111 0.770312 6.7985C0.108162 7.4815 2.30189e-05 8.5958 2.30189e-05 9.3832C2.30189e-05 12.2854 -0.021477 14.4046 1.24967 16.7825C1.74297 17.7052 2.50947 18.6374 3.05337 19.5291C3.38537 20.0743 3.64527 20.5195 3.65037 21.1519C3.65097 21.2278 3.51497 21.298 3.46127 21.3853C3.37207 21.5295 3.38347 21.8495 3.48527 21.9893C3.32217 22.0538 3.27407 22.1429 3.21967 22.2555C3.03877 22.6312 2.93827 23.2263 2.65937 23.4457C2.43357 23.6228 2.21917 23.7126 2.19767 23.7784C2.16037 23.8941 2.19137 24.137 2.14397 24.2141C2.12997 24.2381 2.09967 24.2489 2.04777 24.2786C2.01047 24.3052 1.96557 24.3355 1.92447 24.3646C1.91117 24.3754 1.89667 24.388 1.88207 24.4013C1.48497 24.7567 1.25727 25.1925 1.17887 25.4176C1.13967 25.5283 1.03787 25.4739 0.995473 25.5808C0.956243 25.6813 0.970173 25.7528 0.985373 25.7667C1.02577 25.804 1.20607 25.8369 1.47867 25.8647C1.42427 25.8514 1.14917 25.8173 1.13587 25.7977C1.12637 25.7838 1.12827 25.6946 1.16307 25.6769C1.20097 25.6579 1.25917 25.6522 1.31857 25.6497C1.50017 25.6409 2.08957 25.6832 2.44627 25.6946C2.75107 25.7047 3.67377 25.718 3.67377 25.718C3.64217 25.7098 3.55107 25.7047 3.52447 25.7028C3.22977 25.6794 2.91867 25.6801 2.60747 25.6617C2.30457 25.6434 1.91567 25.6238 1.62347 25.5662C1.55707 25.5529 1.36857 25.515 1.37867 25.4505C1.38317 25.4246 1.65887 25.0869 1.69867 25.0419C1.89787 24.8187 2.10787 24.6676 2.38357 24.5834C2.84217 24.4437 3.35817 24.4323 3.85337 24.4291C3.85337 24.4291 3.82557 24.3798 3.89007 24.371C3.66677 24.3659 3.11657 24.3577 2.86237 24.3393C2.78457 24.3336 2.60177 24.3204 2.60247 24.2976C2.60247 24.2786 2.95407 24.2761 2.95407 24.2761C2.86557 24.2685 2.38867 24.2615 2.34757 24.2122C2.30837 24.166 2.33047 23.9017 2.35457 23.8201C2.37477 23.7524 2.48357 23.7562 2.52337 23.7562C2.81117 23.7588 3.37397 23.7562 3.84007 23.7588C3.90647 23.7588 4.01277 23.7392 4.02667 23.7252C4.05387 23.6981 4.00517 23.6759 4.06837 23.6544C4.09427 23.6456 4.20247 23.6272 4.15437 23.5855C4.09807 23.5368 3.98427 23.5121 4.06457 23.4558C3.77747 23.4514 3.28167 23.409 3.14817 23.311C3.11277 23.2851 3.07167 23.2301 3.09637 23.146C3.14317 22.9853 3.22727 22.6754 3.31457 22.4452C3.36447 22.3137 3.48337 22.1796 3.57447 22.1221C3.71357 22.0342 4.01777 22.0455 4.17847 22.0373C4.17847 22.0373 3.73577 22.0297 3.67877 22.0297C3.60987 22.0297 3.57127 21.9627 3.62567 21.9216C3.50047 21.8324 3.49227 21.5276 3.59917 21.422C3.70917 21.3132 4.03997 21.2683 4.15567 21.2594C4.11767 21.2278 4.11517 21.1848 4.17907 21.1677L4.17657 21.1703Z" fill="#6476A0"/>
</svg>
