<svg width="3" height="4" viewBox="0 0 3 4" fill="none" xmlns="http://www.w3.org/2000/svg">
<path d="M1.90876 2.0617C1.89486 2.603 1.95426 2.9376 1.87586 3.1128C1.70006 3.09 1.51476 3.0742 1.25486 3.0742C0.809564 3.0742 0.590164 3.109 0.438364 3.1374C0.307464 3.1507 0.266964 3.0938 0.261964 3.0204C0.249264 2.8421 0.270764 2.5259 0.274564 2.3286C0.285364 1.7657 0.232164 1.3799 0.158864 0.965099C0.0626642 0.418699 -0.0327356 0.2163 0.0108644 0.1979C0.428264 0.0239998 0.927264 0 1.24596 0C1.50336 0 1.79366 0.00249929 2.17246 0.0998993C2.01686 0.986599 1.92646 1.3654 1.90876 2.0617Z" fill="url(#paint0_linear_1591_39896)"/>
<defs>
<linearGradient id="paint0_linear_1591_39896" x1="6.44013e-05" y1="1.5703" x2="2.17246" y2="1.5703" gradientUnits="userSpaceOnUse">
<stop offset="0.16" stop-color="#D8E3F5"/>
<stop offset="0.49" stop-color="#E8EFFB"/>
</linearGradient>
</defs>
</svg>
