<svg width="1" height="3" viewBox="0 0 1 3" fill="none" xmlns="http://www.w3.org/2000/svg">
<path d="M0.189792 0.628213C0.180935 0.77119 0.154997 1.49493 0.153099 1.56832C0.151201 1.61703 0.148671 1.69421 0.144875 1.78784C0.13412 2.09973 0.117039 2.57042 0.117039 2.83929H0.108814C0.108814 2.57105 0.125895 2.10037 0.137283 1.78847C0.140446 1.69484 0.142977 1.61766 0.144875 1.56895C0.146773 1.49493 0.172711 0.771188 0.181568 0.628844C0.198017 0.339095 0.115774 0.0980604 0.0303674 0.0189804C0.0202452 0.00949076 0.0120206 0.00442902 0.00442894 0.0025311C0.00253102 0.0025311 0.00126528 0.00126652 0 0.00126652C0.00126528 0.00126652 0.00316366 0 0.00442894 0C0.00569422 0 0.00759164 0.000633876 0.00885692 0.00126652C0.0170812 0.0025318 0.0265709 0.00759222 0.0385911 0.0183471C0.123998 0.0980598 0.206241 0.338464 0.189792 0.628213Z" fill="url(#paint0_linear_3091_44204)"/>
<defs>
<linearGradient id="paint0_linear_3091_44204" x1="0" y1="1.41964" x2="0.19169" y2="1.41964" gradientUnits="userSpaceOnUse">
<stop stop-color="#C6D4EA"/>
<stop offset="1" stop-color="#6476A0"/>
</linearGradient>
</defs>
</svg>
