<svg width="3" height="3" viewBox="0 0 3 3" fill="none" xmlns="http://www.w3.org/2000/svg">
<path d="M0.339104 0.358708C0.557998 0.171446 0.820544 0.0854062 1.07676 0.0847735C0.816115 0.0828756 0.548508 0.168283 0.325186 0.358708C-0.288475 0.883166 -0.0297249 2.03457 1.06854 2.05861C1.07929 2.05861 1.08815 2.05861 1.08182 2.05861C-0.016439 2.0352 -0.275189 0.883166 0.338472 0.358708H0.339104ZM1.94095 0.349219C1.72269 0.127162 1.40574 0 1.0774 0C1.07993 0 1.07486 0 1.0774 0C1.40321 0.00189792 1.71067 0.128427 1.92703 0.349219C2.13074 0.556725 2.23513 0.825595 2.2288 1.12673C2.21615 1.69358 1.72269 2.13832 1.1027 2.14275H1.10713C1.73091 2.14275 2.22943 1.69674 2.24209 1.12673C2.24841 0.824963 2.14466 0.556092 1.94032 0.349219H1.94095Z" fill="#2B4688"/>
</svg>
