<svg width="8" height="16" viewBox="0 0 8 16" fill="none" xmlns="http://www.w3.org/2000/svg">
<path d="M7.25014 9.15633C6.82705 10.523 6.26356 11.1978 5.81391 12.1831C4.99493 13.9785 5.08663 15.3484 5.07208 15.473C5.06639 15.521 5.05121 15.5463 4.95761 15.5501C4.895 15.5526 4.34543 15.5501 3.79143 15.5438C3.47648 15.54 2.77449 15.5495 2.71188 15.5469C2.61892 15.5431 2.60564 15.5216 2.59994 15.4736C2.58603 15.3541 2.66129 13.7629 1.94033 12.1837C1.49068 11.1984 0.951854 10.5236 0.528764 9.15696C-0.125792 7.04151 -0.0321937 3.02121 0.0386375 2.32997C0.123382 1.50339 0.27959 0.399819 2.71378 0.043133C3.15205 -0.021374 4.18732 -0.0643786 4.95951 0.0481925C7.18184 0.371992 7.62959 1.24663 7.74027 2.32997C7.8307 3.21346 7.87624 7.13321 7.25014 9.15696V9.15633Z" fill="white"/>
</svg>
