<svg width="5" height="2" viewBox="0 0 5 2" fill="none" xmlns="http://www.w3.org/2000/svg">
<path d="M4.79021 0.438901C4.65424 0.426252 4.24253 0.331388 4.2419 0.388939C4.2419 0.424987 4.85725 0.552736 4.76175 0.650129C4.63021 0.784203 4.58531 1.05235 4.58025 1.25283C4.57076 1.57789 4.69598 1.6405 4.64982 1.71323C4.62389 1.75434 4.41961 1.72651 4.08506 1.69552C3.65249 1.61584 3.17121 1.55006 2.695 1.55006C2.18906 1.55006 1.59648 1.6209 1.1247 1.71702C0.657337 1.81315 0.260177 1.8979 0.224129 1.84288C0.178595 1.77268 0.302549 1.72651 0.293695 1.41409C0.288003 1.22121 0.298122 0.999225 0.167844 0.868946C0.0653914 0.765862 0.592198 0.580562 0.589669 0.524909C0.586507 0.462932 0.308874 0.521748 0.172903 0.533764C0.0970125 0.54072 -0.0142941 0.572341 0.00151649 0.507834C0.625716 0.203007 1.68882 0 2.695 0C3.51272 0 4.31526 0.11763 4.97994 0.338978C4.97235 0.390836 4.85662 0.445225 4.79084 0.438901H4.79021Z" fill="url(#paint0_linear_1587_25595)"/>
<defs>
<linearGradient id="paint0_linear_1587_25595" x1="-0.0010132" y1="0.930292" x2="4.97931" y2="0.930292" gradientUnits="userSpaceOnUse">
<stop offset="0.16" stop-color="#F8FAFD"/>
<stop offset="0.49" stop-color="#FBFCFE"/>
</linearGradient>
</defs>
</svg>
