<svg width="5" height="2" viewBox="0 0 5 2" fill="none" xmlns="http://www.w3.org/2000/svg">
<path d="M4.52965 0.344669C4.39368 0.332653 4.06862 0.287119 4.06419 0.344669C4.0604 0.395896 4.62894 0.502775 4.53345 0.600168C4.40191 0.734242 4.357 0.975194 4.35194 1.17567C4.34246 1.50074 4.46768 1.56398 4.42151 1.63607C4.38989 1.6854 4.1717 1.66643 3.71257 1.63544C3.38624 1.58611 3.03967 1.55006 2.695 1.55006C2.18906 1.55006 1.59648 1.6209 1.1247 1.71702C0.657338 1.81315 0.260177 1.8979 0.224129 1.84288C0.178595 1.77268 0.30255 1.72651 0.293696 1.41409C0.288004 1.22121 0.298122 0.999226 0.167844 0.868947C0.0653914 0.765863 0.592198 0.580563 0.589669 0.52491C0.586507 0.462933 0.308874 0.521748 0.172903 0.533764C0.0970125 0.54072 -0.0142941 0.572341 0.00151649 0.507834C0.625716 0.203007 1.68882 0 2.695 0C3.43051 0 4.154 0.0961284 4.7744 0.277001C4.79274 0.297871 4.59163 0.350994 4.52902 0.345935L4.52965 0.344669Z" fill="url(#paint0_linear_1587_25618)"/>
<defs>
<linearGradient id="paint0_linear_1587_25618" x1="0.000251648" y1="0.929659" x2="4.7763" y2="0.929659" gradientUnits="userSpaceOnUse">
<stop offset="0.16" stop-color="#D6E2F5"/>
<stop offset="0.49" stop-color="#E7EEFB"/>
</linearGradient>
</defs>
</svg>
