<svg width="3" height="1" viewBox="0 0 3 1" fill="none" xmlns="http://www.w3.org/2000/svg">
<path d="M2.10305 0.916064C2.04737 0.905309 1.67159 0.83382 1.3287 0.823698C1.30655 0.823065 1.28378 0.822432 1.261 0.822432C1.23823 0.8218 1.21482 0.8218 1.19078 0.8218C0.701116 0.8218 0.42655 0.885064 0.222208 0.926818C0.200065 0.929349 0.201331 0.909737 0.20829 0.90088C0.224738 0.880003 0.241819 0.868616 0.241819 0.868616C0.241819 0.868616 0.225371 0.864187 0.22031 0.840779C0.214616 0.816106 0.240555 0.786372 0.240555 0.786372C0.239922 0.786372 0.228534 0.785739 0.209555 0.725638C0.177923 0.625681 0.139965 0.367564 0.142495 0.261913C0.145659 0.154364 0.202596 0.105018 0.202596 0.105018C0.202596 0.105018 0.0235594 0.125896 0.00141698 0.121468C-0.014399 0.118937 0.103905 0.0911009 0.270289 0.0619994C0.276615 0.0607341 0.283574 0.0601013 0.290533 0.058836C0.528406 0.0253061 0.818154 0 1.19964 0C1.4413 0 1.6621 0.0120206 1.85821 0.0291019C1.92907 0.0354283 2.09482 0.0575708 2.22515 0.0816111C2.17707 0.261281 2.34535 0.449175 2.10305 0.91543V0.916064Z" fill="white"/>
</svg>
