<svg width="2" height="3" viewBox="0 0 2 3" fill="none" xmlns="http://www.w3.org/2000/svg">
<path d="M1.21298 2.7121C1.16428 2.4318 1.05798 2.1522 0.97828 1.9662C0.83088 1.6271 0.47788 0.986201 0.36528 0.787601C0.15518 0.446001 0.0330801 0.1891 0.0122801 0.0454998V0.0391998C0.00778013 0.0169998 0.00847973 0.00690053 0.00847973 0.00250053C0.00337973 0.000600534 0.000879907 0 0.000179907 0C0.000179907 0.0019 -0.00102038 0.0106998 0.00277962 0.0391998V0.0454998C0.0242796 0.1891 0.14638 0.446001 0.35638 0.787601C0.46898 0.986201 0.82198 1.6271 0.96948 1.9662C1.04978 2.1522 1.15538 2.4325 1.20418 2.7127C1.20418 2.7127 1.21298 2.7127 1.21298 2.7121Z" fill="url(#paint0_linear_1591_40103)"/>
<defs>
<linearGradient id="paint0_linear_1591_40103" x1="0.0482798" y1="1.357" x2="1.26108" y2="1.357" gradientUnits="userSpaceOnUse">
<stop stop-color="#6476A0"/>
<stop offset="0.34" stop-color="#788CB4"/>
<stop offset="1" stop-color="#9DB4DB"/>
</linearGradient>
</defs>
</svg>
