<svg width="3" height="4" viewBox="0 0 3 4" fill="none" xmlns="http://www.w3.org/2000/svg">
<path d="M1.85056 2.0939C1.84616 2.5784 1.89926 2.9395 1.82276 3.1064C1.64886 3.0856 1.48886 3.0742 1.25486 3.0742C0.809564 3.0742 0.590164 3.109 0.438364 3.1374C0.307464 3.1507 0.266964 3.0938 0.261964 3.0204C0.248664 2.8421 0.270764 2.5259 0.274564 2.3286C0.285364 1.7657 0.232164 1.3799 0.158864 0.965099C0.0626642 0.418699 -0.0327356 0.2163 0.0108644 0.1979C0.428264 0.0239998 0.927264 0 1.24596 0C1.48436 0 1.75126 0.0018998 2.08836 0.0770998C1.94476 1.0384 1.85756 1.3325 1.85056 2.0939Z" fill="url(#paint0_linear_1591_39907)"/>
<defs>
<linearGradient id="paint0_linear_1591_39907" x1="6.44013e-05" y1="1.5703" x2="2.08896" y2="1.5703" gradientUnits="userSpaceOnUse">
<stop offset="0.16" stop-color="#C8D7F1"/>
<stop offset="0.49" stop-color="#DEE8F9"/>
</linearGradient>
</defs>
</svg>
