<svg width="2" height="2" viewBox="0 0 2 2" fill="none" xmlns="http://www.w3.org/2000/svg">
<path d="M0.525092 1.59805C0.516868 1.59995 0.512438 1.60248 0.511806 1.60438C0.82686 1.57464 1.0369 1.53985 1.08118 1.49872C1.09763 1.48354 1.10965 1.41332 1.07106 1.31273C1.03943 1.23112 0.966675 1.23555 0.936308 1.21214C0.908472 1.19063 0.901513 1.17735 0.892656 1.16216C0.816739 0.92176 0.580765 0.487768 0.183467 0.132857C0.101857 0.0601031 0.0423869 0.0240403 0 0C0.164486 0.146773 0.261282 0.539646 0.359341 0.814211C0.459931 1.09447 0.529521 1.29185 0.483971 1.32159C0.433993 1.35385 0.390973 1.36397 0.390973 1.36397C0.390973 1.36397 0.618723 1.35449 0.643396 1.39055C0.674395 1.43483 0.637702 1.4614 0.637702 1.49872C0.637702 1.54554 0.635804 1.57148 0.524459 1.59805H0.525092Z" fill="black"/>
</svg>
