<svg width="5" height="2" viewBox="0 0 5 2" fill="none" xmlns="http://www.w3.org/2000/svg">
<path d="M4.56317 0.357951C4.4272 0.345935 4.09075 0.293444 4.08696 0.350994C4.0838 0.400323 4.65867 0.509732 4.56317 0.607125C4.43163 0.741198 4.38673 0.985946 4.38167 1.18642C4.37218 1.51149 4.4974 1.5741 4.45123 1.64683C4.42088 1.69489 4.20396 1.67528 3.76126 1.64366C3.42102 1.59054 3.05674 1.55007 2.695 1.55007C2.18906 1.55007 1.59648 1.6209 1.1247 1.71702C0.657337 1.81315 0.260176 1.8979 0.224128 1.84288C0.178594 1.77268 0.302549 1.72651 0.293695 1.41409C0.288003 1.22121 0.298121 0.999226 0.167843 0.868947C0.0653904 0.765863 0.592198 0.580563 0.589669 0.52491C0.586507 0.462933 0.308873 0.521748 0.172902 0.533764C0.0970116 0.54072 -0.014294 0.572341 0.0015165 0.507834C0.625716 0.203007 1.68882 0 2.695 0C3.44126 0 4.17487 0.0986577 4.80159 0.28459C4.81614 0.309887 4.62641 0.36301 4.5638 0.357319L4.56317 0.357951Z" fill="url(#paint0_linear_1587_25615)"/>
<defs>
<linearGradient id="paint0_linear_1587_25615" x1="-0.000380774" y1="0.930924" x2="4.80223" y2="0.930924" gradientUnits="userSpaceOnUse">
<stop offset="0.16" stop-color="#DBE5F6"/>
<stop offset="0.49" stop-color="#E9F0FB"/>
</linearGradient>
</defs>
</svg>
