<svg width="6" height="1" viewBox="0 0 6 1" fill="none" xmlns="http://www.w3.org/2000/svg">
<path d="M1.59648 0.0916996C1.97718 0.0341496 2.39718 0.00127 2.85878 0C2.88598 0 2.91258 0 2.93978 0C3.37298 0.00253 3.76948 0.0328896 4.13058 0.0853796C4.15338 0.0885396 4.17548 0.0917 4.19768 0.0955C4.25328 0.10372 4.30828 0.11321 4.36208 0.12269C4.37788 0.12522 4.39308 0.12838 4.40828 0.13155C4.40888 0.13155 4.40948 0.13155 4.41018 0.13155C5.19688 0.34467 5.61998 0.60586 4.61888 0.4193C4.56258 0.40665 4.50498 0.3959 4.44808 0.38515C4.37468 0.37123 4.30068 0.35922 4.22678 0.34783C2.88788 0.1423 1.45038 0.253599 0.239983 0.662149C-0.0636171 0.764599 -0.0807174 0.70642 0.197583 0.54642C0.581483 0.32696 1.10378 0.18404 1.59648 0.0916996Z" fill="url(#paint0_linear_1591_39964)"/>
<defs>
<linearGradient id="paint0_linear_1591_39964" x1="0.000282722" y1="0.35669" x2="5.20508" y2="0.35669" gradientUnits="userSpaceOnUse">
<stop offset="0.16" stop-color="#EBF0FA"/>
<stop offset="0.49" stop-color="#F3F7FD"/>
</linearGradient>
</defs>
</svg>
