<svg width="3" height="1" viewBox="0 0 3 1" fill="none" xmlns="http://www.w3.org/2000/svg">
<path d="M0.00141432 0.1215C-0.0143857 0.119 0.103914 0.0918003 0.270214 0.0620003C0.276614 0.0608003 0.283514 0.0600999 0.290514 0.0588999C0.528414 0.0252999 0.818114 0 1.19961 0C1.39761 0 1.58171 0.00699977 1.76011 0.0208998C1.83791 0.0265998 1.96261 0.0411999 2.07391 0.0588999C2.01951 0.2037 2.18151 0.5751 1.96831 0.8883C1.96381 0.8876 1.95811 0.8864 1.95181 0.8857C1.90691 0.8775 1.68171 0.8301 1.30841 0.8231C1.29011 0.8231 1.27111 0.8231 1.25151 0.8225C1.23191 0.8218 1.21161 0.8225 1.19141 0.8225C0.701714 0.8225 0.427114 0.8857 0.222814 0.9275C0.200714 0.93 0.201914 0.9104 0.208914 0.9015C0.225314 0.8807 0.242415 0.8693 0.242415 0.8693C0.242415 0.8693 0.226014 0.8649 0.220914 0.8414C0.215214 0.8168 0.238614 0.7902 0.238614 0.7902C0.238014 0.7902 0.229115 0.7864 0.210115 0.7263C0.178515 0.6263 0.140614 0.3682 0.143114 0.2626C0.145614 0.1569 0.203214 0.1057 0.203214 0.1057C0.203214 0.1057 0.0235143 0.126 0.00141432 0.1215Z" fill="url(#paint0_linear_1591_39798)"/>
<defs>
<linearGradient id="paint0_linear_1591_39798" x1="0.000114319" y1="0.4631" x2="2.08211" y2="0.4631" gradientUnits="userSpaceOnUse">
<stop offset="0.16" stop-color="#CED9E8"/>
<stop offset="0.49" stop-color="#D6DEEB"/>
</linearGradient>
</defs>
</svg>
