<svg width="5" height="2" viewBox="0 0 5 2" fill="none" xmlns="http://www.w3.org/2000/svg">
<path d="M4.57461 0.361751C4.43861 0.349051 4.09831 0.29535 4.09451 0.35285C4.09141 0.40155 4.66821 0.51165 4.57271 0.60905C4.44111 0.74305 4.39622 0.98915 4.39122 1.18955C4.38172 1.51465 4.50692 1.57725 4.46072 1.64995C4.43042 1.69805 4.21412 1.67785 3.77712 1.64615C3.43242 1.59185 3.06181 1.55005 2.69501 1.55005C2.18911 1.55005 1.59652 1.62085 1.12472 1.71705C0.657315 1.81315 0.260215 1.89785 0.224115 1.84285C0.178615 1.77265 0.302515 1.72655 0.293715 1.41405C0.288015 1.22125 0.298114 0.99925 0.167814 0.86895C0.0654145 0.76585 0.592214 0.58055 0.589714 0.52495C0.586514 0.46295 0.308915 0.521751 0.172915 0.533751C0.0970147 0.540751 -0.0142854 0.572351 0.00151464 0.507851C0.625715 0.203051 1.68881 0 2.69501 0C3.44441 0 4.18181 0.0999202 4.81041 0.28775C4.82371 0.31435 4.63781 0.367451 4.57461 0.361751Z" fill="url(#paint0_linear_1591_39933)"/>
<defs>
<linearGradient id="paint0_linear_1591_39933" x1="-0.000385357" y1="0.93025" x2="4.81111" y2="0.93025" gradientUnits="userSpaceOnUse">
<stop offset="0.16" stop-color="#DCE6F6"/>
<stop offset="0.49" stop-color="#EAF0FB"/>
</linearGradient>
</defs>
</svg>
