<svg width="2" height="1" viewBox="0 0 2 1" fill="none" xmlns="http://www.w3.org/2000/svg">
<path d="M0.6909 0L0.7073 0.0524998L0.5694 0.0834999L0.5776 0.110701L0.7105 0.0809002L0.7276 0.134701L0.5947 0.1644L0.6061 0.1992L0.7478 0.167L0.7649 0.222L0.5302 0.276402L0.463099 0.0512009L0.6909 0ZM0.1911 0.1954L0.125299 0.255501C0.204599 0.320501 0.2455 0.355301 0.248 0.359901C0.2626 0.385901 0.2461 0.413101 0.2151 0.416201C0.2018 0.417501 0.1892 0.413701 0.1772 0.403601L0.0657997 0.3106L0 0.373201C0.0991 0.456301 0.1635 0.4976 0.193 0.4972C0.2796 0.4909 0.3973 0.376401 0.3119 0.293501C0.3087 0.291001 0.305 0.287201 0.3018 0.284601L0.1911 0.1954ZM1.4412 0.3909L1.4817 0.3239L1.4045 0.358L1.4412 0.3909ZM1.5063 0.2435L1.5734 0.3043L1.4532 0.544001L1.3855 0.480101L1.407 0.445301L1.3431 0.386501L1.3033 0.4055L1.2356 0.3435L1.5051 0.2435H1.5063ZM0.9838 0.00940132L0.9142 0.232101L1.0053 0.253L1.0319 0.1663L1.135 0.1898L1.1508 0.137201L1.0483 0.113201L1.0578 0.082201L1.1812 0.110701L1.197 0.0575008L0.9838 0.00940132Z" fill="#9DB4DB"/>
</svg>
