<svg width="1" height="3" viewBox="0 0 1 3" fill="none" xmlns="http://www.w3.org/2000/svg">
<path d="M0.393814 0.410041C0.472214 0.355041 0.493714 0.129741 0.505114 0.0848413C0.545014 -0.0751587 0.599414 0.0140411 0.616514 0.163341C0.626614 0.253141 0.579814 0.670742 0.401414 0.700442C0.401414 0.700442 0.301414 0.411941 0.393814 0.410041ZM0.200213 2.51354C0.170413 2.42244 0.179913 2.33584 0.194513 2.25544C0.202113 2.21434 0.154013 2.08214 0.193913 2.01314C0.260313 1.89864 0.180614 1.80564 0.140114 1.71584C0.123014 1.67784 0.00151344 1.59304 0.00151344 1.59304C0.00281344 1.61084 0.00981366 1.70574 0.0129137 1.77844C0.0142137 1.81004 -0.00668656 1.95934 0.00221344 2.02394C0.0142134 2.11314 0.0148141 2.25984 0.00411411 2.33264C-0.0129859 2.44394 0.0408138 2.47814 0.0502138 2.59264L0.200213 2.51354ZM0.153414 1.70764C0.188814 1.62474 0.241314 1.49124 0.222314 1.42604C0.214114 1.39764 0.217314 1.35524 0.220414 1.30964C0.223014 1.27804 0.149614 1.02184 0.0180139 0.950342C-0.0136861 1.00534 0.00911386 1.10974 0.0306139 1.15654C0.0559139 1.21094 0.0249132 1.34004 0.0477132 1.43054C0.0547132 1.45834 0.100213 1.54814 0.0730133 1.60764L0.153414 1.70764ZM0.302713 0.875641C0.307113 0.855441 0.247014 0.466342 0.204014 0.470142C0.228014 0.603042 0.178714 0.674441 0.145814 0.717541C0.124314 0.745941 0.114114 0.824441 0.165414 0.921841C0.186314 0.961741 0.322313 0.931941 0.302713 0.875641Z" fill="white"/>
</svg>
