<svg width="2" height="3" viewBox="0 0 2 3" fill="none" xmlns="http://www.w3.org/2000/svg">
<path d="M1.0255 0C1.0255 0 1.023 0.000599722 1.0211 0.00119972C0.997701 0.00879972 0.949001 0.0422987 0.850901 0.167599C0.738301 0.310599 0.632 0.606699 0.5378 0.868599C0.5105 0.943899 0.485201 1.0147 0.461201 1.078C0.352401 1.3608 0.0380006 2.2775 0.00820065 2.7703H0C0.0291 2.2775 0.344201 1.3614 0.453001 1.0786C0.477001 1.0153 0.502301 0.9445 0.529501 0.8692C0.623201 0.6073 0.7301 0.3112 0.8421 0.1682C0.9471 0.0347995 0.9958 0.00499891 1.0173 0.000598907C1.0198 0.000598907 1.0211 0.000598907 1.023 0.000598907C1.0242 0.000598907 1.0249 0 1.0255 0Z" fill="url(#paint0_linear_1591_40101)"/>
<defs>
<linearGradient id="paint0_linear_1591_40101" x1="0" y1="1.3848" x2="1.0255" y2="1.3848" gradientUnits="userSpaceOnUse">
<stop stop-color="#E3E9F5"/>
<stop offset="0.07" stop-color="#DDE4F2"/>
<stop offset="0.4" stop-color="#C6D3EA"/>
<stop offset="0.72" stop-color="#B8C8E4"/>
<stop offset="1" stop-color="#B4C5E3"/>
</linearGradient>
</defs>
</svg>
