<svg width="3" height="4" viewBox="0 0 3 4" fill="none" xmlns="http://www.w3.org/2000/svg">
<path d="M2.00363 2.0092C1.97075 2.64415 2.04284 2.93507 1.96253 3.12353C1.78355 3.09697 1.55714 3.0742 1.25485 3.0742C0.809621 3.0742 0.590171 3.10898 0.43839 3.13744C0.307479 3.15072 0.267004 3.09381 0.261945 3.02045C0.249296 2.8421 0.270798 2.52589 0.274593 2.32858C0.285344 1.76572 0.232221 1.37994 0.15886 0.965076C0.0627316 0.418664 -0.0327638 0.216288 0.0108733 0.197948C0.428271 0.0240323 0.927252 0 1.24599 0C1.53438 0 1.8626 0.00316296 2.30973 0.137236C2.13454 0.900569 2.03399 1.42042 2.00363 2.0092Z" fill="url(#paint0_linear_1587_25557)"/>
<defs>
<linearGradient id="paint0_linear_1587_25557" x1="-0.000510303" y1="1.56967" x2="2.30973" y2="1.56967" gradientUnits="userSpaceOnUse">
<stop offset="0.16" stop-color="#F2F6FC"/>
<stop offset="0.49" stop-color="#F7FAFE"/>
</linearGradient>
</defs>
</svg>
