<svg width="6" height="1" viewBox="0 0 6 1" fill="none" xmlns="http://www.w3.org/2000/svg">
<path d="M1.59712 0.0917009C1.9791 0.0335181 2.40092 0.000632421 2.86512 0C2.89232 0 2.91951 0 2.9467 0C3.38244 0.00252969 3.78087 0.0335186 4.14325 0.0872745C4.16601 0.0904366 4.18815 0.0942304 4.21028 0.0973925C4.26657 0.106246 4.32159 0.1151 4.37598 0.125219C4.39179 0.128381 4.40696 0.130911 4.42214 0.134073C4.42278 0.134073 4.42341 0.134073 4.42404 0.134073C5.22848 0.351626 5.68888 0.629259 4.63717 0.42309C4.58025 0.410442 4.52333 0.399058 4.46578 0.388307C4.39242 0.374393 4.31843 0.362377 4.24443 0.350361C2.90054 0.14103 1.45545 0.251703 0.239941 0.661512C-0.0636216 0.763965 -0.0806968 0.705783 0.197569 0.54578C0.581448 0.32633 1.1032 0.183402 1.59585 0.0910688L1.59712 0.0917009Z" fill="url(#paint0_linear_3091_44000)"/>
<defs>
<linearGradient id="paint0_linear_3091_44000" x1="0.0008855" y1="0.356686" x2="5.24872" y2="0.356686" gradientUnits="userSpaceOnUse">
<stop offset="0.16" stop-color="#EFF3FB"/>
<stop offset="0.49" stop-color="#F5F8FD"/>
</linearGradient>
</defs>
</svg>
