<svg width="4" height="4" viewBox="0 0 4 4" fill="none" xmlns="http://www.w3.org/2000/svg">
<path d="M3.28694 2.17138C3.32136 1.86769 3.22924 1.58526 3.00349 1.30789L1.93957 0L1.41317 0.428204L2.38903 1.6298C2.5591 1.83834 2.60667 1.95374 2.59048 2.12482C2.57833 2.25945 2.49633 2.39814 2.36473 2.50544C2.23415 2.61174 2.08129 2.66438 1.94665 2.64818C1.77659 2.62895 1.67333 2.5591 1.50327 2.34955L0.526397 1.14896L0 1.57716L1.06393 2.88607C1.28967 3.16344 1.54781 3.31123 1.8515 3.33958C1.88693 3.34262 1.92236 3.34464 1.95779 3.34464C2.25237 3.34768 2.52569 3.24341 2.79091 3.0288C3.0865 2.78787 3.24847 2.50747 3.28593 2.1724L3.28694 2.17138Z" fill="white"/>
</svg>
