<svg width="3" height="4" viewBox="0 0 3 4" fill="none" xmlns="http://www.w3.org/2000/svg">
<path d="M1.95114 2.0383C1.92964 2.62139 1.99415 2.93633 1.91446 3.11784C1.73738 3.09317 1.53374 3.0742 1.25485 3.0742C0.809621 3.0742 0.590171 3.10898 0.43839 3.13744C0.307479 3.15072 0.267003 3.09381 0.261944 3.02045C0.249295 2.8421 0.270798 2.52589 0.274593 2.32858C0.285344 1.76572 0.232221 1.37994 0.15886 0.965076C0.0627316 0.418664 -0.0327638 0.216288 0.0108733 0.197948C0.428271 0.0240323 0.927252 0 1.24599 0C1.5173 0 1.82466 0.00253042 2.23383 0.116366C2.0694 0.948 1.97517 1.38943 1.95114 2.0383Z" fill="url(#paint0_linear_1587_25567)"/>
<defs>
<linearGradient id="paint0_linear_1587_25567" x1="0.000122118" y1="1.56967" x2="2.23383" y2="1.56967" gradientUnits="userSpaceOnUse">
<stop offset="0.16" stop-color="#E4EBF8"/>
<stop offset="0.49" stop-color="#EFF4FC"/>
</linearGradient>
</defs>
</svg>
