<svg width="2" height="2" viewBox="0 0 2 2" fill="none" xmlns="http://www.w3.org/2000/svg">
<path d="M0.556702 1.3978C0.566202 1.3978 0.572102 1.3963 0.575802 1.3934C0.578702 1.3904 0.5809 1.3831 0.5809 1.372V0.1353H0.994902C1.0052 0.1353 1.0125 0.1338 1.0155 0.1301C1.0184 0.1272 1.0206 0.119799 1.0206 0.109499V0.0278988C1.0206 0.0175988 1.0184 0.00949943 1.0155 0.00589943C1.0118 0.00219943 1.0052 0 0.994902 0H0.0236015C0.0125015 0 0.00590134 0.00219943 0.00450134 0.00589943C0.000801343 0.0102994 0 0.0175988 0 0.0278988V0.109499C0 0.119799 0.000801343 0.1272 0.00450134 0.1301C0.00670134 0.1338 0.0125015 0.1353 0.0236015 0.1353H0.423601V1.372C0.423601 1.3823 0.425001 1.3897 0.428701 1.3934C0.433101 1.3963 0.440502 1.3978 0.450802 1.3978H0.556702Z" fill="white"/>
</svg>
