<svg width="7" height="16" viewBox="0 0 7 16" fill="none" xmlns="http://www.w3.org/2000/svg">
<path d="M5.16027 11.7303C4.61765 12.9186 4.61702 14.6274 4.58667 15.5502C4.37923 15.5489 4.08579 15.547 3.79108 15.5438C3.47613 15.54 2.77478 15.5495 2.71154 15.547C2.61857 15.5432 2.60529 15.5217 2.5996 15.4736C2.58505 15.3535 2.66031 13.7629 1.93998 12.1838C1.49033 11.1985 0.951507 10.5237 0.528417 9.157C-0.126772 7.04155 -0.0325408 3.02062 0.0382904 2.33002C0.122402 1.50281 0.278611 0.399864 2.71343 0.0431783C3.05431 -0.00678297 3.76642 -0.0440954 4.41275 0.00017413C4.45386 0.00586592 4.4918 0.0128221 4.52722 0.0204111C6.19302 0.304368 6.29231 1.80953 6.37136 2.34835C6.60915 3.96229 6.58196 8.61628 5.16027 11.731V11.7303Z" fill="url(#paint0_linear_1587_25536)"/>
<defs>
<linearGradient id="paint0_linear_1587_25536" x1="-0.0116709" y1="7.76441" x2="6.48393" y2="7.76441" gradientUnits="userSpaceOnUse">
<stop offset="0.16" stop-color="#D4DFF4"/>
<stop offset="0.52" stop-color="#E5EDFA"/>
</linearGradient>
</defs>
</svg>
