<svg width="3" height="1" viewBox="0 0 3 1" fill="none" xmlns="http://www.w3.org/2000/svg">
<path d="M0.00141432 0.1215C-0.0143857 0.119 0.103914 0.0924003 0.270214 0.0620003C0.276614 0.0608003 0.283514 0.0600999 0.290514 0.0588999C0.528414 0.0252999 0.818114 0 1.19961 0C1.41091 0 1.60571 0.00830031 1.78921 0.0234003C1.86511 0.0291003 2.00181 0.0461997 2.11881 0.0657997C2.06631 0.2215 2.23021 0.537799 2.00811 0.897099C2.00371 0.8965 1.99801 0.8952 1.99101 0.894C1.93091 0.8826 1.67031 0.8313 1.31351 0.8237C1.29391 0.8237 1.27361 0.8231 1.25341 0.8231C1.23311 0.8231 1.21161 0.8231 1.19011 0.8231C0.700414 0.8231 0.425914 0.8864 0.221514 0.9281C0.199414 0.9306 0.200714 0.911 0.207614 0.9022C0.224114 0.8813 0.241114 0.8699 0.241114 0.8699C0.241114 0.8699 0.224714 0.8655 0.219614 0.8421C0.213914 0.8174 0.238014 0.7902 0.238014 0.7902C0.238014 0.7902 0.227914 0.787 0.208914 0.7269C0.177214 0.627 0.139314 0.3689 0.141814 0.2632C0.144314 0.1576 0.201914 0.1063 0.201914 0.1063C0.201914 0.1063 0.0229143 0.1272 0.000714325 0.1228L0.00141432 0.1215Z" fill="url(#paint0_linear_1591_39792)"/>
<defs>
<linearGradient id="paint0_linear_1591_39792" x1="0.000114319" y1="0.4631" x2="2.12891" y2="0.4631" gradientUnits="userSpaceOnUse">
<stop offset="0.16" stop-color="#DDE4EF"/>
<stop offset="0.49" stop-color="#E2E8F1"/>
</linearGradient>
</defs>
</svg>
