<svg width="29" height="26" viewBox="0 0 29 26" fill="none" xmlns="http://www.w3.org/2000/svg">
<path d="M19.5455 22.0508C19.6337 21.9905 19.7198 21.9309 19.8028 21.8728L19.8153 21.864C19.8749 21.8221 19.933 21.7809 19.9911 21.739L20.0734 21.6809C20.1389 21.6339 20.2021 21.5875 20.2653 21.5412C20.2734 21.5353 20.2859 21.5258 20.2977 21.5169L20.3131 21.5059C20.3793 21.4574 20.4433 21.4096 20.505 21.3611C20.5073 21.3596 20.5095 21.3574 20.5124 21.3559C20.5168 21.353 20.5212 21.3493 20.5256 21.3456C20.5293 21.3427 20.5374 21.3361 20.5411 21.3331C20.6058 21.2846 20.6683 21.2361 20.7286 21.1875C20.7315 21.1853 20.7345 21.1831 20.7374 21.1809L20.7345 21.1839C20.7381 21.1802 20.7425 21.1772 20.7462 21.1736C20.8073 21.125 20.8661 21.078 20.9234 21.0317C20.93 21.0258 20.9374 21.0199 20.944 21.014C20.9984 20.9692 21.0506 20.925 21.1006 20.8831C21.1058 20.878 21.1109 20.8736 21.1168 20.8684C21.1668 20.8265 21.2139 20.7846 21.2595 20.7442C21.2617 20.7419 21.2646 20.7397 21.2668 20.7368C21.28 20.725 21.2933 20.7125 21.3073 20.7008C21.3227 20.6868 21.3389 20.6728 21.3521 20.6596C21.3565 20.6552 21.3609 20.6508 21.3661 20.6471C22.233 19.9015 23.2242 19.089 23.8771 18.2236C24.63 17.2199 25.3639 16.1133 25.8322 15.0412C25.8719 14.9501 25.9374 14.7986 26.0197 14.5905C26.0227 14.5831 26.0271 14.5721 26.0315 14.5611L26.0594 14.4905C26.0778 14.4434 26.0969 14.3956 26.1153 14.3449L26.1352 14.2927C26.1521 14.2486 26.169 14.2037 26.1852 14.1574C26.1969 14.1243 26.2087 14.0927 26.2197 14.0611C26.2411 14.0001 26.2609 13.9449 26.2808 13.8868L26.2889 13.8633C26.2969 13.8398 26.305 13.8162 26.3116 13.792C26.3124 13.789 26.3139 13.7861 26.3146 13.7824C26.3344 13.7229 26.3536 13.664 26.3719 13.603C26.3815 13.5736 26.3889 13.5501 26.3962 13.5265L26.4065 13.4934C26.4249 13.4317 26.444 13.3655 26.4624 13.2986C26.4727 13.2633 26.4815 13.2324 26.4903 13.2008C26.5161 13.1045 26.5411 13.0052 26.5653 12.9052C26.8219 11.8824 27.0337 10.4626 27.008 9.4339C27.008 9.40963 27.008 9.3861 27.008 9.36258C27.008 9.34713 27.0087 9.33169 27.008 9.31625C26.9918 9.13537 26.9852 9.01184 26.9793 8.88022V8.8714C26.9741 8.77875 26.9697 8.69052 26.9594 8.58978C26.9594 8.5839 26.9587 8.57728 26.958 8.5714C26.9536 8.52214 26.9469 8.45817 26.9366 8.38096C26.5491 5.23538 24.0425 2.59936 21.7698 2.05304C21.3837 1.96113 20.9948 1.90966 20.6139 1.90157C17.7271 1.83907 15.5426 4.03686 14.7205 4.91994C14.494 5.16333 14.1257 5.55965 14.0977 5.55303C14.0698 5.54641 13.7132 5.14127 13.7132 5.14127C11.7323 2.7773 9.62788 1.51481 7.79039 1.4751C6.96466 1.45746 5.19775 2.01701 4.4654 2.50598C2.99114 3.49201 0.145562 10.7957 0.288944 9.45522C0.169827 9.47728 -0.394142 8.06184 0.479385 5.59935C1.811 1.84495 4.83746 0.539812 6.35657 0.164078C6.35878 0.164078 6.36098 0.163343 6.36392 0.163343L6.38378 0.160401C6.84333 0.0471665 7.3176 -0.00136266 7.79333 0.00451967C10.0588 0.0354019 12.3315 1.47731 14.0624 3.2126C17.0779 0.459665 19.4455 -0.032245 21.0205 0.00157844C21.3183 0.00819607 21.6168 0.0354019 21.9087 0.0831958C25.5256 0.664811 26.7389 3.10304 27.494 5.01112C29.1249 9.13169 28.3021 14.7456 25.1205 18.8853C23.1903 21.3942 20.7256 23.6111 17.4867 25.2508C14.411 26.8081 16.6198 24.0566 19.547 22.0478L19.5455 22.0508ZM21.0764 20.8787C21.0698 20.8853 21.0617 20.8942 21.0528 20.9052C21.0602 20.8956 21.0683 20.8868 21.0764 20.8787Z" fill="white"/>
</svg>
