<svg width="2" height="1" viewBox="0 0 2 1" fill="none" xmlns="http://www.w3.org/2000/svg">
<path d="M1.4811 0.133087C1.5057 0.0950874 1.4507 0.0875866 1.4507 0.0875866C1.4507 0.0875866 1.4096 0.131787 1.3431 0.139387C1.2419 0.150787 1.116 0.114787 0.909201 0.138187C0.864201 0.143187 0.815501 0.193787 0.798401 0.185587C0.780701 0.177987 0.8174 0.0868866 0.8174 0.0868866C0.8181 0.0685866 0.8092 0.0659866 0.7997 0.0868866C0.7902 0.107787 0.7466 0.161587 0.7054 0.176787C0.627 0.205187 0.433399 0.238787 0.3613 0.246987C0.3006 0.253887 0.2208 0.268487 0.181 0.281087C0.138 0.327987 0.0374 0.446287 0 0.511387C0.0083 0.412687 0.0273 0.296987 0.0513 0.217187C0.0956001 0.0697871 0.0905006 0.0640871 0.0538006 0.0773871C0.306201 -0.0561129 1.0066 0.0255867 1.3849 0.0166867C1.5114 0.0134867 1.669 0.0818872 1.6607 0.115387C1.5848 0.0856872 1.5083 0.118587 1.4811 0.131787V0.133087Z" fill="#98ADBE"/>
</svg>
