<svg width="7" height="1" viewBox="0 0 7 1" fill="none" xmlns="http://www.w3.org/2000/svg">
<path d="M6.30996 0.142528C6.29162 0.176679 6.0026 0.188694 5.6554 0.201343C4.79215 0.231699 3.77331 0.241185 3.06058 0.241185C2.34784 0.241185 1.4479 0.229169 0.655476 0.201343C0.308277 0.188694 0.019261 0.176679 0.000920772 0.142528C-0.00603586 0.129247 0.0249521 0.0419743 0.14448 0.0255314C0.360135 -0.00419243 1.3992 0.000232979 1.82546 0.000232979C1.87984 0.000232979 2.74816 0.0135152 3.06058 0.0135152C3.41726 0.0135152 4.41396 0.000232979 4.48605 0.000232979C4.91167 0.000232979 5.95074 -0.00419243 6.16703 0.0255314C6.28656 0.0413419 6.31754 0.129247 6.30996 0.142528Z" fill="url(#paint0_radial_1587_25494)"/>
<defs>
<radialGradient id="paint0_radial_1587_25494" cx="0" cy="0" r="1" gradientUnits="userSpaceOnUse" gradientTransform="translate(-0.155287 1.3865) scale(6.24643 6.24642)">
<stop stop-color="#C8D7F1"/>
<stop offset="0.93" stop-color="#DEE8F9"/>
<stop offset="0.98" stop-color="white"/>
</radialGradient>
</defs>
</svg>
