<svg width="43" height="14" viewBox="0 0 43 14" fill="none" xmlns="http://www.w3.org/2000/svg">
<path d="M8.45365 7.02424V11.047C8.45365 11.047 8.07277 11.3294 7.40659 11.3294C6.63527 11.3294 6.37424 11.0191 6.37424 10.4492L6.37571 6.42203C6.37571 6.42203 5.26763 6.4713 5.26763 7.02497V10.5279C5.26763 11.4419 5.78233 12.2948 7.40659 12.2948C9.03085 12.2948 9.55879 11.7551 9.55879 11.7551V6.41174C9.55879 6.41174 8.45365 6.4713 8.45365 7.02497V7.02424ZM11.411 7.23306C11.1507 8.12865 9.97202 12.1617 9.97202 12.1617H11.1132C11.1132 12.1617 12.0529 8.40585 12.1786 7.88453C12.272 7.48674 12.5404 7.45953 12.5404 7.45953L13.1514 9.886H11.9058L11.6617 10.8625H13.3941L13.7198 12.1625H14.8602L13.1764 6.33233C13.1764 6.33233 11.6683 6.33748 11.4117 7.23454L11.411 7.23306ZM2.20882 6.26983C0.612498 6.26983 0 6.71468 0 9.28673C0 11.675 0.528675 12.2272 1.87867 12.2933L2.14779 12.9294C2.42058 13.5338 3.46984 13.3 3.46984 13.3L3.02278 12.2426H3.02131C4.01543 12.0529 4.41616 11.3647 4.41616 9.28747C4.41616 6.71542 3.80146 6.27056 2.20955 6.27056L2.20882 6.26983ZM2.20882 11.3301C1.37132 11.3301 1.10294 10.9081 1.10294 9.28673C1.10294 7.66541 1.37132 7.23968 2.20882 7.23968C3.04631 7.23968 3.31322 7.66468 3.31322 9.28673C3.31322 10.9088 3.04337 11.3301 2.20882 11.3301ZM40.6852 8.96394C40.3565 8.81762 39.4116 8.39703 39.308 8.35071C38.9668 8.20438 38.8844 7.9088 38.9969 7.65144C39.0903 7.44115 39.3256 7.32865 39.705 7.32865C40.116 7.32865 40.6197 7.46468 40.9212 7.49556C41.2837 7.53159 41.7263 6.7463 41.7263 6.7463C41.7263 6.7463 40.8557 6.29851 39.7234 6.29851C38.6668 6.29851 37.9874 6.74483 37.8116 7.55291C37.6455 8.31615 38.1094 9.0485 38.9947 9.41467C39.2057 9.50364 40.0499 9.86688 40.2403 9.93746C40.2469 9.94261 40.916 10.2081 40.8278 10.7139C40.7528 11.1117 40.4021 11.308 39.7697 11.3139C39.2955 11.3169 38.641 11.0867 38.3572 11.0779C37.8947 11.0588 37.5374 11.7676 37.5374 11.7676C37.5374 11.7676 38.4462 12.3463 39.7918 12.3463C41.1374 12.3463 41.9403 11.7367 42.0212 10.7191C42.0947 9.76099 41.6896 9.41761 40.6844 8.96394H40.6852ZM35.8205 9.95291C36.6896 9.66173 37.0418 8.94041 37.0418 8.24924C37.0418 7.35733 36.4616 6.40954 34.9271 6.40954H32.819V12.1617H33.9271V10.0911H34.6278L35.8131 11.8066C35.8131 11.8066 36.0241 12.1639 36.4859 12.1639H37.3675L35.8315 9.95364H35.8205V9.95291ZM34.9271 9.11173H33.9271V7.38968L34.9271 7.38821C35.6594 7.386 35.9219 7.70953 35.93 8.24924C35.9219 8.79115 35.6594 9.11394 34.9271 9.11173ZM19.6264 12.161H20.7374V6.4088H19.6264V12.161ZM26.2903 12.161H27.4014V6.4088H26.2903V12.161ZM31.6536 7.38747C32.0286 7.38747 32.1844 6.4088 32.1844 6.4088H28.1925V12.161H31.6528C32.0278 12.161 32.1837 11.1845 32.1837 11.1845H29.2992V9.68747H31.1933C31.5697 9.68747 31.7286 8.71247 31.7286 8.71247H29.2992V7.38821H31.6521L31.6536 7.38747ZM16.2558 6.4088H15.1492V12.161H18.6088C18.9838 12.161 19.144 11.1845 19.144 11.1845H16.2558V6.40954V6.4088ZM21.6477 12.161H22.7543V9.68747H24.6499C25.0227 9.68747 25.1845 8.71247 25.1845 8.71247H22.7543V7.38821H25.1029C25.4793 7.38821 25.6381 6.40954 25.6381 6.40954H21.6477V12.1617V12.161ZM10.2426 5.0816C11.6154 5.0816 12.0551 4.62939 12.0551 4.62939V0.118381C12.0551 0.118381 11.1242 0.169117 11.1242 0.636027V4.03234C11.1242 4.03234 10.8029 4.26837 10.2426 4.26837C9.59041 4.26837 9.37129 4.0066 9.37129 3.52866V0.12794C9.37129 0.12794 8.43526 0.168381 8.43526 0.635291V3.5919C8.43526 4.36248 8.86835 5.08086 10.2433 5.08086L10.2426 5.0816ZM31.8352 0.0536749C31.8352 0.0536749 30.5609 0.0566173 30.3433 0.813232C30.1286 1.56838 29.1286 4.97131 29.1286 4.97131H30.0933C30.0933 4.97131 30.8911 1.80146 30.994 1.36176C31.0727 1.02573 31.2999 1.00147 31.2999 1.00147L31.8087 3.05146H30.7602L30.5536 3.87572H32.0183L32.2947 4.97131H33.2521L31.8337 0.0536749H31.8352ZM13.8617 3.22425H14.4529L15.4558 4.67278C15.4558 4.67278 15.6316 4.97572 16.0227 4.97572H16.7683L15.4705 3.10808L15.4639 3.11028C16.1963 2.86322 16.4941 2.25514 16.4941 1.67132C16.4941 0.916907 16.0044 0.116911 14.7066 0.116911H12.925V4.97204H13.8625V3.22499L13.8617 3.22425ZM13.8617 0.94632L14.7058 0.944114C15.3264 0.942644 15.547 1.2147 15.5536 1.67132C15.547 2.12646 15.3264 2.40146 14.7058 2.39926L13.8617 2.39705V0.94632ZM7.88085 4.14778H5.4463V2.88455H7.04336C7.3588 2.88455 7.49703 2.05955 7.49703 2.05955H5.4463V0.941908H7.42865C7.74777 0.941908 7.88085 0.116175 7.88085 0.116175H4.51175V4.97131H7.42865C7.74777 4.97131 7.88085 4.14778 7.88085 4.14778ZM28.8639 4.14778H26.4308V2.88455H28.0256C28.3411 2.88455 28.4771 2.05955 28.4771 2.05955H26.4308V0.941908H28.4124C28.7293 0.941908 28.8639 0.116175 28.8639 0.116175H25.4926V4.97131H28.4124C28.7293 4.97131 28.8639 4.14778 28.8639 4.14778ZM36.5844 3.91322C36.5844 3.91322 35.533 1.33088 35.1734 0.634557C35.0175 0.333823 34.7447 0.118381 34.4668 0.118381H33.7197V4.97498H34.6484V1.52794C34.6484 1.52794 35.4234 3.78381 35.7359 4.42498C35.9293 4.81542 36.2535 4.97498 36.5396 4.97498H37.5205V0.118381H36.5852V3.91322H36.5844ZM18.9279 0C17.5816 0 17.0646 0.374999 17.0646 2.54632C17.0646 4.71763 17.5823 5.09042 18.9279 5.09042C20.2735 5.09042 20.7933 4.7169 20.7933 2.54632C20.7933 0.375734 20.2757 0 18.9279 0ZM18.9279 4.27204C18.2242 4.27204 17.9999 3.91322 17.9999 2.54632C17.9999 1.17941 18.2242 0.820586 18.9279 0.820586C19.6315 0.820586 19.8602 1.175 19.8602 2.54632C19.8602 3.91763 19.636 4.27204 18.9279 4.27204ZM22.4477 3.22425H23.2933C24.5896 3.22425 25.0742 2.42867 25.0742 1.67279C25.0742 0.917644 24.5896 0.118381 23.2933 0.118381H21.5102V4.97498H22.4477V3.22352V3.22425ZM22.4477 0.949262H23.2933C23.9124 0.949262 24.133 1.21617 24.1411 1.67279C24.133 2.12573 23.9117 2.39705 23.2933 2.39705H22.4477V0.949262Z" fill="white"/>
</svg>
