<svg width="23" height="20" viewBox="0 0 23 20" fill="none" xmlns="http://www.w3.org/2000/svg">
<path opacity="0.46" d="M22.2354 5.06139C21.4508 6.46212 19.9854 6.53197 20.0229 5.69521C20.1016 3.93639 21.1119 3.46434 20.9031 3.34963C20.3641 3.05184 19.0567 5.0261 18.7737 4.13639C18.3604 2.82757 19.0597 0.542288 19.0523 0.0842012L19.0516 0.086407C18.8641 0.884198 18.1097 2.24522 18.12 4.10331C18.1244 4.69301 19.1861 7.67094 20.1053 7.35697C20.581 7.19447 21.4126 6.49153 22.1016 5.67095L22.1001 5.67536C22.153 5.47095 22.1935 5.2658 22.2347 5.06139H22.2354ZM1.80974 1.35332C1.81635 1.30993 1.82224 1.28126 1.82959 1.26067C1.684 1.43787 1.00312 2.92463 1.34062 5.53933C1.45312 6.41212 0.581801 5.72977 0.270037 4.95992C0.0428321 4.40478 -0.184373 6.87168 0.231802 7.82903C1.03548 8.12094 1.59944 8.06064 1.87003 7.58785C2.94944 5.69448 1.44797 3.72022 1.80974 1.35258V1.35332ZM5.50972 13.168C5.03399 13.5217 5.01046 9.67534 5.18178 9.12902C5.30237 8.74594 7.31045 8.74741 7.30384 8.19594C7.30089 8.00182 5.06414 7.43197 3.534 4.45698C2.22518 1.91361 1.98032 1.25405 1.86709 1.23934C2.00459 1.41802 2.31341 3.89228 3.53326 5.97095C4.17076 7.06285 4.91267 7.81138 6.07516 8.34888C6.59502 8.58785 5.01855 8.43417 4.47076 8.27903C4.03767 8.15844 4.12002 10.5202 4.26782 11.8033C4.40532 12.9915 4.08399 18.876 3.90311 19.9157C4.55605 19.7135 5.14796 19.526 5.6259 19.3731C5.24208 17.0812 7.81486 14.3717 7.52883 14.4547C6.56928 14.7349 5.36781 16.0459 5.40311 15.5172C5.51267 13.829 8.29133 12.1106 8.13398 11.9672C7.98324 11.832 6.64354 12.3246 5.50972 13.168ZM19.0281 0.00773137C18.8325 -0.126827 17.0435 1.50405 16.259 4.19448C15.4965 6.80477 11.2031 7.92976 10.9825 8.06064C10.4281 8.39594 12.9788 8.70402 13.9266 8.59667C14.0148 8.58785 14.1641 8.60991 14.1251 8.91211C14.0156 9.79226 11.3634 11.9945 11.3994 12.443C11.4126 12.6047 13.7869 10.7577 13.8935 11.054C14.22 11.9518 11.1943 14.0047 11.1943 14.7011C11.1943 14.8871 13.1935 13.4349 13.5009 13.5555C13.7575 13.6562 13.2273 15.9768 11.8818 16.8341C12.9141 16.3202 13.9759 15.7297 14.995 15.054C15.4737 11.9577 15.9817 7.80476 14.8575 8.12682C13.5795 8.49153 11.5097 8.32388 12.3678 8.1555C15.3126 7.57829 16.5803 5.92609 17.1163 3.93713C17.9009 1.02758 18.82 0.115819 19.0273 0.00626047L19.0281 0.00773137Z" fill="url(#paint0_linear_1587_26131)" style="mix-blend-mode:multiply"/>
<defs>
<linearGradient id="paint0_linear_1587_26131" x1="4.62047" y1="5.45266" x2="17.6976" y2="14.5981" gradientUnits="userSpaceOnUse">
<stop stop-color="white"/>
<stop offset="0.03" stop-color="#DDE3E4" stop-opacity="0.97"/>
<stop offset="0.1" stop-color="#A3B4B6" stop-opacity="0.93"/>
<stop offset="0.16" stop-color="#718B8E" stop-opacity="0.89"/>
<stop offset="0.22" stop-color="#48696D" stop-opacity="0.86"/>
<stop offset="0.28" stop-color="#294F53" stop-opacity="0.83"/>
<stop offset="0.34" stop-color="#123D41" stop-opacity="0.81"/>
<stop offset="0.39" stop-color="#043136" stop-opacity="0.8"/>
<stop offset="0.44" stop-color="#002E33" stop-opacity="0.8"/>
<stop offset="0.5" stop-color="#13373C" stop-opacity="0.85"/>
<stop offset="0.61" stop-color="#485256"/>
<stop offset="0.71" stop-color="#415F66"/>
<stop offset="0.79" stop-color="#3F666E"/>
<stop offset="1" stop-color="#414D60"/>
</linearGradient>
</defs>
</svg>
