<svg width="6" height="1" viewBox="0 0 6 1" fill="none" xmlns="http://www.w3.org/2000/svg">
<path d="M1.59522 0.0917009C1.97341 0.0341506 2.39081 0.00126484 2.84931 0C2.87587 0 2.90307 0 2.92963 0C3.35968 0.00189726 3.75367 0.032253 4.11289 0.0834791C4.13502 0.0866412 4.15779 0.0898039 4.17993 0.092966C4.23495 0.101188 4.28997 0.110041 4.34372 0.119528C4.3589 0.122057 4.37471 0.12522 4.38989 0.127749C4.39052 0.127749 4.39115 0.127749 4.39179 0.127749C5.15512 0.334551 5.52762 0.574871 4.59416 0.414236C4.53788 0.40222 4.48096 0.391469 4.42467 0.380718C4.35131 0.367437 4.27732 0.355421 4.20269 0.344037C2.87018 0.144192 1.44281 0.255498 0.239941 0.661512C-0.0636216 0.763965 -0.0806968 0.705783 0.197569 0.54578C0.581448 0.32633 1.1032 0.183402 1.59585 0.0910688L1.59522 0.0917009Z" fill="url(#paint0_linear_3091_44007)"/>
<defs>
<linearGradient id="paint0_linear_3091_44007" x1="-0.00101176" y1="0.356686" x2="5.14627" y2="0.356686" gradientUnits="userSpaceOnUse">
<stop offset="0.16" stop-color="#E5ECF8"/>
<stop offset="0.49" stop-color="#EFF4FC"/>
</linearGradient>
</defs>
</svg>
