<svg width="3" height="1" viewBox="0 0 3 1" fill="none" xmlns="http://www.w3.org/2000/svg">
<path d="M0.00141056 0.121467C-0.0144054 0.118936 0.104531 0.0929978 0.270283 0.0619985C0.276609 0.0607332 0.283568 0.0601003 0.290527 0.0588351C0.528399 0.0253051 0.818148 0 1.19963 0C1.43687 0 1.65387 0.0113873 1.84809 0.0284686C1.91957 0.034795 2.0809 0.0563046 2.20996 0.0797123C2.16124 0.256219 2.32889 0.461827 2.08912 0.913532C2.08469 0.9129 2.079 0.911634 2.07141 0.910369C1.98157 0.893288 1.6488 0.833187 1.32616 0.82433C1.30465 0.82433 1.28187 0.823697 1.25973 0.823064C1.23759 0.822432 1.21418 0.823064 1.19077 0.823064C0.70111 0.823064 0.426544 0.886329 0.222201 0.928083C0.200059 0.930614 0.201324 0.911001 0.208283 0.902144C0.224732 0.881267 0.241813 0.86988 0.241813 0.86988C0.241813 0.86988 0.225365 0.865452 0.220304 0.842044C0.21461 0.817371 0.240548 0.788269 0.240548 0.788269C0.239916 0.788269 0.228528 0.787004 0.209549 0.726903C0.177917 0.626946 0.139958 0.368829 0.142489 0.263179C0.14502 0.157528 0.20259 0.106283 0.20259 0.106283C0.20259 0.106283 0.023553 0.127161 0.00141056 0.122732V0.121467Z" fill="url(#paint0_linear_1587_25453)"/>
<defs>
<linearGradient id="paint0_linear_1587_25453" x1="-0.000487362" y1="0.463093" x2="2.22261" y2="0.463093" gradientUnits="userSpaceOnUse">
<stop offset="0.16" stop-color="#FAFBFD"/>
<stop offset="0.49" stop-color="#FBFCFD"/>
</linearGradient>
</defs>
</svg>
