<svg width="7" height="2" viewBox="0 0 7 2" fill="none" xmlns="http://www.w3.org/2000/svg">
<path d="M5.03611 0C5.67929 0.0891714 6.47487 0.537558 6.65448 0.975194C6.79172 1.30911 6.66903 1.62596 6.61843 1.736C6.35977 1.70374 6.07012 1.7107 5.88419 1.74295C5.66854 1.78027 5.59517 1.80683 5.463 1.81062C5.33082 1.81442 5.3011 1.779 5.23849 1.76635C5.26315 1.62279 5.34284 1.56335 5.36244 1.44255C5.38837 1.28255 5.30489 1.16049 5.23216 1.07638C5.21699 0.875903 5.09809 0.633686 5.11011 0.209963C5.1139 0.084744 5.12845 0.0670367 5.03675 0H5.03611ZM1.68112 0C1.03795 0.0891714 0.24236 0.537558 0.0627524 0.975194C-0.0744831 1.30911 0.0488386 1.62596 0.0987999 1.736C0.35746 1.70374 0.647109 1.7107 0.833041 1.74295C1.0487 1.78027 1.12206 1.80683 1.25423 1.81062C1.38515 1.81378 1.42688 1.779 1.47811 1.76319C1.45408 1.62785 1.36997 1.56335 1.35479 1.44192C1.33392 1.27876 1.40728 1.16302 1.48507 1.07891C1.50025 0.878433 1.61914 0.633053 1.60713 0.209963C1.60333 0.084744 1.58879 0.0670367 1.68049 0H1.68112Z" fill="#8AA0C5"/>
</svg>
