<svg width="3" height="4" viewBox="0 0 3 4" fill="none" xmlns="http://www.w3.org/2000/svg">
<path d="M2.03083 1.99466C1.99098 2.65491 2.06877 2.9338 1.98719 3.12669C1.80758 3.09887 1.56916 3.0742 1.25485 3.0742C0.809621 3.0742 0.590171 3.10898 0.43839 3.13744C0.307479 3.15072 0.267003 3.09381 0.261944 3.02045C0.249295 2.8421 0.270798 2.52589 0.274593 2.32858C0.285344 1.76572 0.232221 1.37994 0.15886 0.965076C0.0627316 0.418664 -0.0327638 0.216288 0.0108733 0.197948C0.428271 0.0240323 0.927252 0 1.24599 0C1.5426 0 1.88221 0.00316222 2.3483 0.147354C2.16743 0.876536 2.06245 1.43496 2.03083 1.99466Z" fill="url(#paint0_linear_3091_43908)"/>
<defs>
<linearGradient id="paint0_linear_3091_43908" x1="0.000122118" y1="1.56967" x2="2.3483" y2="1.56967" gradientUnits="userSpaceOnUse">
<stop offset="0.16" stop-color="#F9FBFE"/>
<stop offset="0.49" stop-color="#FCFDFE"/>
</linearGradient>
</defs>
</svg>
