<svg width="3" height="4" viewBox="0 0 3 4" fill="none" xmlns="http://www.w3.org/2000/svg">
<path d="M1.9777 2.02375C1.95114 2.63277 2.01881 2.9357 1.93849 3.12037C1.76078 3.09444 1.54513 3.0742 1.25485 3.0742C0.809621 3.0742 0.590171 3.10898 0.43839 3.13744C0.307479 3.15072 0.267003 3.09381 0.261944 3.02045C0.249295 2.8421 0.270798 2.52589 0.274593 2.32858C0.285344 1.76572 0.232221 1.37994 0.15886 0.965076C0.0627316 0.418664 -0.0327638 0.216288 0.0108733 0.197948C0.428271 0.0240323 0.927252 0 1.24599 0C1.52552 0 1.84363 0.00252968 2.27178 0.126484C2.10166 0.923968 2.0049 1.40461 1.9777 2.02375Z" fill="url(#paint0_linear_3091_43918)"/>
<defs>
<linearGradient id="paint0_linear_3091_43918" x1="0.000122118" y1="1.56967" x2="2.27178" y2="1.56967" gradientUnits="userSpaceOnUse">
<stop offset="0.16" stop-color="#EBF0FA"/>
<stop offset="0.49" stop-color="#F3F7FD"/>
</linearGradient>
</defs>
</svg>
