<svg width="1" height="1" viewBox="0 0 1 1" fill="none" xmlns="http://www.w3.org/2000/svg">
<path d="M0.425134 0.0025311C0.425134 0.0025311 0.421337 0.00442755 0.418174 0.00695811C0.411848 0.010754 0.402992 0.0177134 0.389707 0.0291009C0.289749 0.121466 0.218893 0.231546 0.143609 0.347952L0.122099 0.380849C0.085406 0.437786 0.0436528 0.507377 0.000633258 0.584559C6.17827e-07 0.58013 0 0.57507 0 0.570009C0.040489 0.498521 0.0790792 0.43399 0.113874 0.380849L0.135386 0.347952C0.21067 0.231546 0.281525 0.121466 0.381482 0.0291009C0.399196 0.0126523 0.410583 0.00506166 0.41691 0.0025311C0.418808 0.00189846 0.420706 0.00126528 0.421339 0C0.423236 0 0.42387 0 0.42387 0C0.424502 0 0.424502 0.00189715 0.425134 0.00316243V0.0025311Z" fill="url(#paint0_linear_1587_26034)"/>
<defs>
<linearGradient id="paint0_linear_1587_26034" x1="0.0221424" y1="0.539641" x2="0.404256" y2="-0.00569419" gradientUnits="userSpaceOnUse">
<stop stop-color="#FD2B7E"/>
<stop offset="0.14" stop-color="#FD3986"/>
<stop offset="0.57" stop-color="#FD619F"/>
<stop offset="1" stop-color="#FD458E"/>
</linearGradient>
</defs>
</svg>
