<svg width="6" height="1" viewBox="0 0 6 1" fill="none" xmlns="http://www.w3.org/2000/svg">
<path d="M1.59522 0.0917009C1.98036 0.0335181 2.40535 0 2.87398 0C2.90117 0 2.929 0 2.95619 0C3.39572 0.00316211 3.79731 0.0354155 4.16222 0.0898037C4.18498 0.0929658 4.20775 0.0967606 4.22989 0.0999227C4.28617 0.108777 4.34183 0.118263 4.39685 0.128381C4.41266 0.131544 4.42784 0.134073 4.44365 0.137235C4.44428 0.137235 4.44491 0.137235 4.44554 0.137235C5.27907 0.36301 5.80209 0.666572 4.66626 0.42815C4.60934 0.415501 4.55179 0.403484 4.49424 0.392733C4.42088 0.37882 4.34752 0.366171 4.27352 0.354155C2.92141 0.137867 1.46431 0.247909 0.239941 0.66088C-0.0636216 0.763332 -0.0806968 0.70515 0.197569 0.545147C0.581448 0.325697 1.1032 0.182769 1.59585 0.0904358L1.59522 0.0917009Z" fill="url(#paint0_linear_1587_25639)"/>
<defs>
<linearGradient id="paint0_linear_1587_25639" x1="-0.00101176" y1="0.356686" x2="5.31892" y2="0.356686" gradientUnits="userSpaceOnUse">
<stop offset="0.16" stop-color="#F6F9FD"/>
<stop offset="0.49" stop-color="#FAFBFE"/>
</linearGradient>
</defs>
</svg>
