<svg width="2" height="3" viewBox="0 0 2 3" fill="none" xmlns="http://www.w3.org/2000/svg">
<path d="M0.911112 1.5132C1.05981 1.8315 1.24321 2.2281 1.31981 2.7032C1.31721 2.7039 1.31471 2.7039 1.31221 2.7039C1.23501 2.2294 1.05151 1.8327 0.902912 1.5132L0.897212 1.5012C0.863012 1.4272 0.545412 0.7718 0.315812 0.3827C0.270212 0.3049 0.150711 0.1145 0.0260115 0.0188999C0.0184115 0.0131999 0.0127122 0.00950078 0.00831223 0.00760078C0.00521223 0.00500078 0.00201158 0.00380053 0.00011158 0.00250053V0C0.00071158 0 0.00331223 5.34113e-07 0.00831223 0.00250053C0.0134122 0.00440053 0.0222122 0.00949992 0.0343122 0.0188999C0.158912 0.1145 0.278512 0.304901 0.324012 0.382101C0.553612 0.771801 0.871212 1.4266 0.905412 1.5012L0.911112 1.5132Z" fill="url(#paint0_linear_1591_40120)"/>
<defs>
<linearGradient id="paint0_linear_1591_40120" x1="-0.000488281" y1="1.3519" x2="1.31981" y2="1.3519" gradientUnits="userSpaceOnUse">
<stop offset="0.01" stop-color="#9DB4DB"/>
<stop offset="0.05" stop-color="#D4DEEF"/>
<stop offset="0.64" stop-color="#B4C6E3"/>
<stop offset="1" stop-color="#A7BCDF"/>
</linearGradient>
</defs>
</svg>
