<svg width="3" height="1" viewBox="0 0 3 1" fill="none" xmlns="http://www.w3.org/2000/svg">
<path d="M0.00141432 0.1215C-0.0143857 0.119 0.103914 0.0924003 0.270214 0.0620003C0.276614 0.0608003 0.283514 0.0600999 0.290514 0.0588999C0.528414 0.0252999 0.818114 0 1.19961 0C1.39951 0 1.58611 0.00699977 1.76451 0.0208998C1.84241 0.0265998 1.96891 0.0417997 2.08091 0.0594997C2.02651 0.2063 2.18901 0.5688 1.97461 0.8895C1.97011 0.8889 1.96451 0.8876 1.95811 0.887C1.91071 0.8781 1.67981 0.8301 1.30901 0.8231C1.29011 0.8231 1.27111 0.8231 1.25151 0.8225C1.23191 0.8218 1.21161 0.8225 1.19071 0.8225C0.701114 0.8225 0.426514 0.8857 0.222214 0.9275C0.200014 0.93 0.201314 0.9104 0.208214 0.9015C0.224714 0.8807 0.241814 0.8693 0.241814 0.8693C0.241814 0.8693 0.225314 0.8649 0.220314 0.8414C0.214614 0.8168 0.238014 0.7902 0.238014 0.7902C0.237314 0.7902 0.228514 0.7864 0.209514 0.7263C0.177914 0.6263 0.139914 0.3682 0.142514 0.2626C0.145014 0.1569 0.202614 0.1057 0.202614 0.1057C0.202614 0.1057 0.0235143 0.126 0.00141432 0.1215Z" fill="url(#paint0_linear_1591_39797)"/>
<defs>
<linearGradient id="paint0_linear_1591_39797" x1="0.000114319" y1="0.4631" x2="2.08971" y2="0.4631" gradientUnits="userSpaceOnUse">
<stop offset="0.16" stop-color="#D1DBE9"/>
<stop offset="0.49" stop-color="#D8E0EC"/>
</linearGradient>
</defs>
</svg>
