<svg width="3" height="1" viewBox="0 0 3 1" fill="none" xmlns="http://www.w3.org/2000/svg">
<path d="M0.00141698 0.121467C-0.014399 0.118936 0.103905 0.0917325 0.270289 0.0619985C0.276615 0.0607332 0.283575 0.0601003 0.290534 0.0588351C0.528407 0.0253051 0.818156 0 1.19964 0C1.3888 0 1.56594 0.00569395 1.74055 0.0189794C1.82026 0.0246732 1.93666 0.0379578 2.04358 0.0537738C1.98791 0.191689 2.1486 0.600375 1.94109 0.882533C1.93603 0.8819 1.9316 0.881268 1.92464 0.880003C1.88985 0.873676 1.68867 0.829391 1.30402 0.823064C1.28631 0.823064 1.26796 0.823065 1.24898 0.822432C1.23 0.8218 1.21039 0.822432 1.19078 0.822432C0.701117 0.822432 0.426551 0.885696 0.222209 0.927451C0.200066 0.929981 0.201332 0.910369 0.208291 0.901512C0.224739 0.880635 0.24182 0.869247 0.24182 0.869247C0.24182 0.869247 0.225372 0.864819 0.220311 0.841412C0.214617 0.816739 0.237391 0.7908 0.237391 0.7908C0.236759 0.7908 0.228535 0.786371 0.209556 0.726271C0.177924 0.626313 0.139965 0.368196 0.142495 0.262545C0.145026 0.156894 0.202597 0.105651 0.202597 0.105651C0.202597 0.105651 0.0235594 0.126528 0.00141698 0.122099V0.121467Z" fill="url(#paint0_linear_1587_25475)"/>
<defs>
<linearGradient id="paint0_linear_1587_25475" x1="0.000151698" y1="0.463093" x2="2.05054" y2="0.463093" gradientUnits="userSpaceOnUse">
<stop offset="0.16" stop-color="#C4D2E3"/>
<stop offset="0.49" stop-color="#CED7E7"/>
</linearGradient>
</defs>
</svg>
