<svg width="5" height="2" viewBox="0 0 5 2" fill="none" xmlns="http://www.w3.org/2000/svg">
<path d="M4.55181 0.35415C4.41581 0.34215 4.08321 0.292151 4.07941 0.349751C4.07561 0.399651 4.64851 0.50785 4.55301 0.60525C4.42151 0.73925 4.37661 0.98275 4.37151 1.18325C4.36211 1.50835 4.48731 1.57095 4.44111 1.64365C4.41011 1.69235 4.19321 1.67275 3.74482 1.64115C3.40902 1.58925 3.05041 1.55005 2.69501 1.55005C2.18911 1.55005 1.59652 1.62085 1.12472 1.71705C0.657315 1.81315 0.260215 1.89785 0.224115 1.84285C0.178615 1.77265 0.302515 1.72655 0.293715 1.41405C0.288015 1.22125 0.298114 0.99925 0.167814 0.86895C0.0654145 0.76585 0.592214 0.58055 0.589714 0.52495C0.586514 0.46295 0.308915 0.521751 0.172915 0.533751C0.0970147 0.540751 -0.0142854 0.572351 0.00151464 0.507851C0.625715 0.203051 1.68881 0 2.69501 0C3.43751 0 4.16791 0.0980201 4.79271 0.28205C4.80851 0.30605 4.61441 0.35985 4.55181 0.35415Z" fill="url(#paint0_linear_1591_39935)"/>
<defs>
<linearGradient id="paint0_linear_1591_39935" x1="-0.000385357" y1="0.93095" x2="4.79341" y2="0.93095" gradientUnits="userSpaceOnUse">
<stop offset="0.16" stop-color="#D9E4F5"/>
<stop offset="0.49" stop-color="#E8EFFB"/>
</linearGradient>
</defs>
</svg>
