<svg width="6" height="1" viewBox="0 0 6 1" fill="none" xmlns="http://www.w3.org/2000/svg">
<path d="M1.59718 0.0916996C1.97908 0.0335196 2.40098 0.00064 2.86518 0C2.89238 0 2.91948 0 2.94668 0C3.38248 0.00253 3.78088 0.0335193 4.14328 0.0872793C4.16598 0.0904393 4.18818 0.0942297 4.21028 0.0973997C4.26658 0.10625 4.32158 0.115099 4.37598 0.125219C4.39178 0.128379 4.40698 0.13091 4.42218 0.13408H4.42408C5.22848 0.35163 5.68888 0.62926 4.63718 0.42309C4.58028 0.41044 4.52338 0.399059 4.46578 0.388309C4.39248 0.374399 4.31848 0.36238 4.24448 0.35036C2.90058 0.14103 1.45548 0.25171 0.239983 0.66152C-0.0636171 0.76397 -0.0807174 0.70579 0.197583 0.54578C0.581483 0.32633 1.10318 0.18341 1.59588 0.0910702L1.59718 0.0916996Z" fill="url(#paint0_linear_1591_39961)"/>
<defs>
<linearGradient id="paint0_linear_1591_39961" x1="0.000882722" y1="0.35669" x2="5.24878" y2="0.35669" gradientUnits="userSpaceOnUse">
<stop offset="0.16" stop-color="#EFF3FB"/>
<stop offset="0.49" stop-color="#F5F8FD"/>
</linearGradient>
</defs>
</svg>
