<svg width="8" height="16" viewBox="0 0 8 16" fill="none" xmlns="http://www.w3.org/2000/svg">
<path d="M5.44788 11.8878C4.92297 13.0376 4.85973 14.6483 4.82874 15.5514C4.6251 15.5514 4.2096 15.5489 3.79157 15.5438C3.47662 15.54 2.77527 15.5495 2.71202 15.547C2.61906 15.5432 2.60578 15.5217 2.60009 15.4736C2.58554 15.3535 2.6608 13.7629 1.94047 12.1838C1.49082 11.1985 0.951995 10.5237 0.528905 9.15702C-0.126283 7.04157 -0.0320525 3.02063 0.0387787 2.33003C0.122891 1.50282 0.279099 0.39988 2.71392 0.0431941C3.14903 -0.0213129 4.17355 -0.0636849 4.94194 0.0463564C5.12914 0.0735505 5.30369 0.105171 5.46559 0.139954C7.57155 0.595298 7.0985 4.39236 7.04411 5.20818C6.80885 8.62958 6.20615 10.2277 5.44851 11.8878H5.44788Z" fill="url(#paint0_linear_1587_25507)"/>
<defs>
<linearGradient id="paint0_linear_1587_25507" x1="-0.011815" y1="7.76506" x2="7.12633" y2="7.76506" gradientUnits="userSpaceOnUse">
<stop offset="0.16" stop-color="#FEFEFF"/>
<stop offset="0.52" stop-color="#FEFEFF"/>
</linearGradient>
</defs>
</svg>
