<svg width="32" height="6" viewBox="0 0 32 6" fill="none" xmlns="http://www.w3.org/2000/svg">
<path d="M17.7948 0C16.2481 0 15.2495 1.04362 15.2495 2.74802C15.2495 4.45241 16.2481 5.49604 17.7948 5.49604C19.3416 5.49604 20.3402 4.45241 20.3402 2.74802C20.3402 1.04362 19.3416 0 17.7948 0ZM17.7948 4.41507C17.044 4.41507 16.4508 3.87458 16.4508 2.74802C16.4508 1.62146 17.044 1.08097 17.7948 1.08097C18.5457 1.08097 19.1389 1.62146 19.1389 2.74802C19.1389 3.87458 18.5457 4.41507 17.7948 4.41507ZM1.19907 3.26543H2.61949L3.24291 2.18611H1.19907V1.20401H3.00453L3.62796 0.124683H0V5.3719H3.0644L3.68783 4.29258H1.19907V3.26543ZM7.82661 3.27587C7.82661 3.98114 7.46628 4.41616 6.80661 4.41616C6.14693 4.41616 5.7866 3.98114 5.7866 3.27587V0.124683H4.58644V3.34343C4.58644 4.80615 5.59875 5.49604 6.80661 5.49604C8.01446 5.49604 9.02677 4.80615 9.02677 3.34343V0.124683H7.82661V3.27587ZM14.3102 1.5863C14.1861 0.731084 13.5083 0.124136 12.3114 0.124136H10.2275V5.37135H11.4271V1.20346H12.1862C12.3153 1.20346 12.5224 1.22158 12.6415 1.27212C13.5121 1.63903 13.198 2.86611 11.8649 2.90621L13.1211 5.3708H14.4701L13.4781 3.38023C14.0598 2.97047 14.4437 2.50469 14.3097 1.5852L14.3102 1.5863ZM25.6209 1.5863C25.4803 0.733831 24.819 0.124136 23.6221 0.124136H21.5381V5.37135H22.7378V1.20346H23.4969C23.6259 1.20346 23.833 1.22158 23.9522 1.27212C24.8228 1.63903 24.5086 2.86611 23.1755 2.90621L23.7105 3.86909C25.1271 3.68178 25.8126 2.74747 25.6209 1.58575V1.5863ZM29.011 0.124683H27.7367L25.6077 5.3719H26.9644L28.3739 1.68407L29.0676 3.57028H27.8185L28.4414 4.6496H29.4795L29.7827 5.3719H31.1394L29.0105 0.124683H29.011Z" fill="white"/>
</svg>
