<svg width="5" height="1" viewBox="0 0 5 1" fill="none" xmlns="http://www.w3.org/2000/svg">
<path d="M1.59648 0.0917009C1.96772 0.0354154 2.37689 0.00252969 2.82591 0C2.85184 0 2.8784 0 2.90496 0C3.32616 0.000632421 3.71193 0.0290908 4.06546 0.0765224C4.08759 0.0796846 4.10973 0.0822142 4.13123 0.0853763C4.18562 0.0929654 4.23874 0.101188 4.29123 0.110042C4.30641 0.112571 4.32159 0.1151 4.33677 0.118262C4.3374 0.118262 4.33803 0.118262 4.33866 0.118262C5.03243 0.305459 5.25378 0.483169 4.52333 0.39969C4.46768 0.388306 4.41139 0.378188 4.35574 0.368702C4.28175 0.356053 4.20775 0.34467 4.13249 0.333918C2.82022 0.150516 1.42194 0.263087 0.239941 0.662145C-0.0636216 0.764598 -0.0806968 0.706415 0.197569 0.546412C0.581448 0.326962 1.1032 0.184034 1.59585 0.0917009H1.59648Z" fill="url(#paint0_linear_3091_44019)"/>
<defs>
<linearGradient id="paint0_linear_3091_44019" x1="0.000253079" y1="0.356686" x2="4.97551" y2="0.356686" gradientUnits="userSpaceOnUse">
<stop offset="0.16" stop-color="#D4DFF4"/>
<stop offset="0.49" stop-color="#E5EDFA"/>
</linearGradient>
</defs>
</svg>
