<svg width="7" height="16" viewBox="0 0 7 16" fill="none" xmlns="http://www.w3.org/2000/svg">
<path d="M5.38843 11.8547C4.85973 13.0126 4.80977 14.6436 4.77878 15.5505C4.57451 15.5505 4.1843 15.548 3.79157 15.5429C3.47662 15.5391 2.77527 15.5486 2.71202 15.5461C2.61906 15.5423 2.60578 15.5208 2.60009 15.4727C2.58554 15.3526 2.6608 13.762 1.94047 12.1829C1.49082 11.1976 0.951995 10.5228 0.528905 9.15611C-0.126283 7.04066 -0.0320525 3.01973 0.0387787 2.32913C0.122891 1.50192 0.279099 0.398975 2.71392 0.0422891C3.12942 -0.0190558 4.08944 -0.0607959 4.83253 0.0359645C4.98937 0.0587317 5.13609 0.0852938 5.27143 0.114385C7.28633 0.534313 6.93534 3.85769 6.90498 4.61596C6.78419 7.6655 6.28394 9.89352 5.38906 11.8547H5.38843Z" fill="url(#paint0_linear_1587_25513)"/>
<defs>
<linearGradient id="paint0_linear_1587_25513" x1="-0.011815" y1="7.76415" x2="6.94609" y2="7.76415" gradientUnits="userSpaceOnUse">
<stop offset="0.16" stop-color="#F5F8FC"/>
<stop offset="0.52" stop-color="#F9FBFE"/>
</linearGradient>
</defs>
</svg>
