<svg width="22" height="20" viewBox="0 0 22 20" fill="none" xmlns="http://www.w3.org/2000/svg">
<path d="M18.1408 11.4638C17.2217 11.7777 16.1599 8.79981 16.1555 8.2101C16.1452 6.28952 16.9526 4.89835 17.1055 4.1138C17.1261 4.0013 16.0511 4.71453 15.1519 8.0454C14.6158 10.0336 13.3482 11.6866 10.4033 12.2638C9.54526 12.4329 11.6151 12.6005 12.893 12.2351C14.018 11.913 13.5092 16.066 13.0305 19.1623C13.0658 19.1395 13.1026 19.1174 13.1379 19.0932C13.8872 18.5946 14.0519 21.7571 2.1872 16.3167C-4.13999 13.4152 4.60116 1.75057 11.407 0.192485C17.3636 -1.17075 24.0798 4.98879 20.1349 9.78289C16.2916 14.4535 18.6158 11.3013 18.1401 11.4638H18.1408Z" fill="black"/>
</svg>
