<svg width="7" height="16" viewBox="0 0 7 16" fill="none" xmlns="http://www.w3.org/2000/svg">
<path d="M5.26968 11.7902C4.73402 12.964 4.70936 14.6355 4.67837 15.5506C4.4722 15.55 4.13259 15.5475 3.79108 15.5437C3.47613 15.5399 2.77478 15.5494 2.71154 15.5468C2.61857 15.543 2.60529 15.5215 2.5996 15.4735C2.58505 15.3533 2.66031 13.7628 1.93998 12.1836C1.49033 11.1983 0.951507 10.5235 0.528417 9.15684C-0.126772 7.04139 -0.0325408 3.02046 0.0382904 2.32985C0.122402 1.50265 0.278611 0.399702 2.71343 0.0430161C3.09036 -0.012637 3.92073 -0.0518467 4.61323 0.0177196C4.70936 0.0316329 4.79916 0.0480755 4.88264 0.0657833C6.7154 0.41488 6.60346 2.79025 6.62623 3.43343C6.70907 5.73481 6.43903 9.22767 5.26968 11.7909V11.7902Z" fill="url(#paint0_linear_3091_43881)"/>
<defs>
<linearGradient id="paint0_linear_3091_43881" x1="-0.0116709" y1="7.76551" x2="6.64014" y2="7.76551" gradientUnits="userSpaceOnUse">
<stop offset="0.16" stop-color="#E4EBF8"/>
<stop offset="0.52" stop-color="#EFF4FC"/>
</linearGradient>
</defs>
</svg>
