<svg width="5" height="2" viewBox="0 0 5 2" fill="none" xmlns="http://www.w3.org/2000/svg">
<path d="M4.68776 0.402853C4.55179 0.390837 4.17423 0.314946 4.1717 0.372496C4.16981 0.414236 4.76744 0.533764 4.67195 0.631157C4.5404 0.765231 4.4955 1.02263 4.49044 1.2231C4.48096 1.54817 4.60618 1.61078 4.56001 1.68351C4.53218 1.72778 4.32222 1.70374 3.93897 1.67212C3.5475 1.60445 3.11935 1.55007 2.695 1.55007C2.18906 1.55007 1.59648 1.6209 1.1247 1.71702C0.657337 1.81315 0.260177 1.8979 0.224129 1.84288C0.178595 1.77268 0.302549 1.72651 0.293695 1.41409C0.288003 1.22121 0.298122 0.999226 0.167844 0.868947C0.0653914 0.765863 0.592198 0.580563 0.589669 0.52491C0.586507 0.462933 0.308874 0.521748 0.172903 0.533764C0.0970125 0.54072 -0.0142941 0.572341 0.00151649 0.507834C0.625716 0.203007 1.68882 0 2.695 0C3.48047 0 4.25265 0.10941 4.89962 0.314947C4.90215 0.354789 4.7529 0.408545 4.68839 0.402853H4.68776Z" fill="url(#paint0_linear_1587_25604)"/>
<defs>
<linearGradient id="paint0_linear_1587_25604" x1="-0.0010132" y1="0.930924" x2="4.89899" y2="0.930924" gradientUnits="userSpaceOnUse">
<stop offset="0.16" stop-color="#EBF0FA"/>
<stop offset="0.49" stop-color="#F3F7FD"/>
</linearGradient>
</defs>
</svg>
