<svg width="4" height="5" viewBox="0 0 4 5" fill="none" xmlns="http://www.w3.org/2000/svg">
<path d="M1.5691 4.74769C0.777499 4.74769 0.244 4.42476 0 4.22028V2.94782L0.0262985 2.94073C0.236899 3.5471 0.9293 3.94291 1.562 3.94291C1.9639 3.94291 2.3465 3.79106 2.3465 3.36286C2.3465 2.99337 1.9973 2.84861 1.4365 2.73625C0.507201 2.55201 0.0121994 2.20175 0.0121994 1.41722C0.0121994 0.527408 0.736998 0 1.7726 0C2.3729 0 2.8345 0.197396 3.1705 0.487926V1.60247L3.1371 1.60956C2.7221 1.00319 2.2342 0.817937 1.7857 0.817937C1.3373 0.817937 1.0214 0.996102 1.0214 1.31194C1.0214 1.67434 1.4628 1.80594 2.0762 1.93147C2.8608 2.08939 3.3224 2.50544 3.3224 3.25657C3.3224 4.13322 2.5976 4.74667 1.5691 4.74667V4.74769Z" fill="white"/>
</svg>
