<svg width="2" height="3" viewBox="0 0 2 3" fill="none" xmlns="http://www.w3.org/2000/svg">
<path d="M0.210948 2.0276C0.311548 1.9897 0.775247 2.0264 0.775247 2.0264C0.775247 2.0264 0.450047 1.9947 0.419747 1.9289C0.372247 1.8271 0.556947 1.4956 0.748647 1.2457C0.953047 0.979397 1.12005 0.886998 1.14855 0.861698C1.19085 0.824998 1.19535 0.8028 1.25855 0.7421C1.32435 0.6801 1.35155 0.685198 1.35915 0.661098C1.36555 0.640898 1.35725 0.62 1.36995 0.5947C1.38255 0.5694 1.41485 0.495997 1.40725 0.400497C1.39905 0.301797 1.37685 0.268299 1.37685 0.225899C1.37685 0.183499 1.37375 0.173397 1.35475 0.164497C1.33575 0.155697 1.30475 0.1544 1.31105 0.1367C1.31745 0.119 1.45975 0 1.45975 0C1.45975 0 1.43885 0.0126991 1.41925 0.0252991C1.32505 0.0841991 1.25545 0.126599 1.23395 0.161999C1.22635 0.173999 1.22315 0.194198 1.21935 0.211998C1.19725 0.336598 1.21745 0.538997 1.17505 0.608597C1.14915 0.650997 1.07445 0.652297 0.913148 0.796497C0.515848 1.1514 0.288148 1.588 0.209048 1.8132C0.170448 1.9239 0.0679475 1.8695 0.0255475 1.9764C-0.00165246 2.0466 -0.00353291 2.101 0.00344709 2.1352C0.00914709 2.1529 0.017347 2.1535 0.023047 2.1535C0.079347 2.1497 0.104048 2.0669 0.209648 2.027L0.210948 2.0276Z" fill="#3387E0"/>
</svg>
