<svg width="12" height="4" viewBox="0 0 12 4" fill="none" xmlns="http://www.w3.org/2000/svg">
<path d="M11.4779 3.55292C10.6661 2.80586 9.81614 2.10145 8.89188 1.5191C8.42791 1.23234 7.9485 0.970576 7.4463 0.7669C6.94556 0.561753 6.42498 0.406607 5.89263 0.336754C5.62645 0.29999 5.36028 0.286754 5.08895 0.288225C4.81984 0.289696 4.55293 0.31249 4.28749 0.355137C4.02131 0.396313 3.75734 0.455136 3.49631 0.528665L3.30146 0.586753L3.10734 0.649253C2.97793 0.692635 2.84852 0.735282 2.72131 0.783811C2.21176 0.972781 1.72205 1.21543 1.26691 1.51616C0.808086 1.81248 0.39044 2.17204 0 2.56248C0.34044 2.12792 0.737497 1.73307 1.18235 1.39631C1.40514 1.2294 1.63897 1.07499 1.88161 0.936017C2.12426 0.797047 2.37793 0.676459 2.63529 0.568371C3.14852 0.352195 3.68528 0.179402 4.24116 0.0786668C4.5191 0.0301375 4.80292 0.00440221 5.08528 0.000725752C5.36469 -0.00295071 5.65145 0.00660828 5.9316 0.046314C6.49262 0.125726 7.03821 0.28896 7.55291 0.511753C8.06762 0.736753 8.55659 1.01249 9.01541 1.32866C9.93452 1.96028 10.7507 2.7213 11.4772 3.55292H11.4779Z" fill="url(#paint0_linear_1587_26111)"/>
<defs>
<linearGradient id="paint0_linear_1587_26111" x1="-0.0911762" y1="1.59337" x2="11.6176" y2="1.84631" gradientUnits="userSpaceOnUse">
<stop stop-color="#BFCAD0"/>
<stop offset="0.09" stop-color="#C5CFD4"/>
<stop offset="0.46" stop-color="#DBE2E5"/>
<stop offset="0.7" stop-color="#E3E9EC"/>
</linearGradient>
</defs>
</svg>
