<svg width="6" height="5" viewBox="0 0 6 5" fill="none" xmlns="http://www.w3.org/2000/svg">
<path d="M5.24654 4.06082C4.8987 4.00101 4.52252 3.9113 4.12431 3.79325L4.04666 3.69619L3.96219 3.5965C3.90395 3.25863 3.74813 2.8877 3.51781 2.54457C3.04614 1.84311 2.4706 1.40712 2.01572 1.40712C1.86515 1.40712 1.73083 1.45592 1.61646 1.55245C1.40817 1.72769 1.33315 2.0918 1.4108 2.55559L1.34836 2.60228L1.28645 2.6495C0.913947 2.4643 0.555085 2.27228 0.23662 2.0834L0 1.86987L0.0167893 1.77018C0.853613 1.15476 1.5598 0.626961 2.25182 0.0194119L2.37878 0L2.57133 0.159495C3.54719 1.58865 4.47373 2.81844 5.39659 3.91025L5.39292 4.01308L5.24707 4.0603L5.24654 4.06082Z" fill="url(#paint0_linear_1587_26229)"/>
<defs>
<linearGradient id="paint0_linear_1587_26229" x1="-4.30794" y1="3.15789" x2="7.53403" y2="1.51363" gradientUnits="userSpaceOnUse">
<stop stop-color="#F39205"/>
<stop offset="0.5" stop-color="#D67A00"/>
<stop offset="1" stop-color="#F39205"/>
</linearGradient>
</defs>
</svg>
