<svg width="5" height="2" viewBox="0 0 5 2" fill="none" xmlns="http://www.w3.org/2000/svg">
<path d="M4.62072 0.378189C4.48475 0.36554 4.12996 0.302931 4.12617 0.360481C4.12364 0.406648 4.70863 0.520483 4.61313 0.617876C4.48159 0.751949 4.43669 1.00239 4.43163 1.20287C4.42214 1.52793 4.54736 1.59054 4.50119 1.66327C4.47147 1.70944 4.25835 1.68793 3.84221 1.65631C3.47857 1.59686 3.0852 1.55007 2.695 1.55007C2.18906 1.55007 1.59648 1.6209 1.1247 1.71702C0.657338 1.81315 0.260177 1.8979 0.224129 1.84288C0.178595 1.77268 0.30255 1.72651 0.293696 1.41409C0.288004 1.22121 0.298122 0.999226 0.167844 0.868947C0.0653914 0.765863 0.592198 0.580563 0.589669 0.52491C0.586507 0.462933 0.308874 0.521748 0.172903 0.533764C0.0970125 0.54072 -0.0142941 0.572341 0.00151649 0.507834C0.625716 0.203007 1.68882 0 2.695 0C3.45897 0 4.21028 0.103717 4.84587 0.298503C4.85472 0.330124 4.68396 0.383881 4.62009 0.378189H4.62072Z" fill="url(#paint0_linear_1587_25610)"/>
<defs>
<linearGradient id="paint0_linear_1587_25610" x1="0.000251648" y1="0.930924" x2="4.84713" y2="0.930924" gradientUnits="userSpaceOnUse">
<stop offset="0.16" stop-color="#E2EAF8"/>
<stop offset="0.49" stop-color="#EEF3FC"/>
</linearGradient>
</defs>
</svg>
