<svg width="9" height="4" viewBox="0 0 9 4" fill="none" xmlns="http://www.w3.org/2000/svg">
<path d="M1.30808 0.133179C2.80367 0.165532 4.45293 0.986852 6.0713 2.47435C6.57351 2.81405 7.03674 3.20376 7.43086 3.65302C7.46689 3.6942 7.49556 3.72655 7.5213 3.75523C7.56174 3.79493 7.60144 3.83464 7.64188 3.87581C7.66541 3.89199 7.6838 3.8964 7.7088 3.89787C7.77277 3.89787 7.78527 3.88684 7.94115 3.75375C8.03674 3.67214 8.13159 3.59346 8.22571 3.51626C6.26248 1.30744 4.27204 0.108914 2.33234 0.0118555C0.866909 -0.0609384 0.231617 0.222149 0 0.299354C0.00735292 0.300825 0.0147061 0.302296 0.022059 0.303766C0.438969 0.181708 0.86838 0.12362 1.30808 0.133179Z" fill="#E3E9EC"/>
</svg>
