<svg width="7" height="2" viewBox="0 0 7 2" fill="none" xmlns="http://www.w3.org/2000/svg">
<path d="M5.0361 0C5.6793 0.0891 6.4749 0.5375 6.6545 0.9752C6.7917 1.3091 6.669 1.6259 6.6184 1.736C6.3598 1.7037 6.0701 1.7107 5.8842 1.7429C5.6685 1.7802 5.5952 1.8068 5.463 1.8106C5.3308 1.8144 5.3011 1.779 5.2385 1.7663C5.2632 1.6227 5.3428 1.5633 5.3624 1.4425C5.3884 1.2825 5.3049 1.1604 5.2322 1.0763C5.217 0.8759 5.0981 0.6336 5.1101 0.2099C5.1139 0.0846999 5.1278 0.067 5.0361 0ZM1.6811 0C1.0379 0.0891 0.242402 0.5375 0.0628022 0.9752C-0.0744978 1.3091 0.0488024 1.6259 0.0988024 1.736C0.357502 1.7037 0.647102 1.7107 0.833002 1.7429C1.0487 1.7802 1.1221 1.8068 1.2542 1.8106C1.3851 1.8137 1.4269 1.779 1.4781 1.7631C1.4541 1.6278 1.37 1.5633 1.3548 1.4419C1.3339 1.2787 1.4073 1.163 1.4851 1.0789C1.5002 0.8784 1.6191 0.633 1.6071 0.2099C1.6033 0.0846999 1.5894 0.067 1.6811 0Z" fill="#8AA0C5"/>
</svg>
