<svg width="5" height="2" viewBox="0 0 5 2" fill="none" xmlns="http://www.w3.org/2000/svg">
<path d="M4.68771 0.40285C4.55181 0.39085 4.17421 0.31495 4.17171 0.37245C4.16981 0.41425 4.76741 0.53375 4.67191 0.63115C4.54041 0.76525 4.49551 1.02265 4.49041 1.22315C4.48091 1.54815 4.60611 1.61075 4.56001 1.68355C4.53221 1.72775 4.32221 1.70375 3.93891 1.67215C3.54751 1.60445 3.11931 1.55005 2.69501 1.55005C2.18901 1.55005 1.59651 1.62085 1.12471 1.71705C0.657314 1.81315 0.260115 1.89785 0.224115 1.84285C0.178615 1.77265 0.302514 1.72655 0.293714 1.41405C0.288014 1.22125 0.298114 0.99925 0.167814 0.86895C0.0654145 0.76585 0.592214 0.58055 0.589614 0.52495C0.586514 0.46295 0.308814 0.521751 0.172914 0.533751C0.0970138 0.540751 -0.0142853 0.572351 0.00151465 0.507851C0.625715 0.203051 1.68881 0 2.69501 0C3.48041 0 4.25261 0.10941 4.89961 0.31495C4.90211 0.35475 4.75221 0.40855 4.68771 0.40285Z" fill="url(#paint0_linear_1591_39923)"/>
<defs>
<linearGradient id="paint0_linear_1591_39923" x1="-0.000985357" y1="0.93095" x2="4.89901" y2="0.93095" gradientUnits="userSpaceOnUse">
<stop offset="0.16" stop-color="#EBF0FA"/>
<stop offset="0.49" stop-color="#F3F7FD"/>
</linearGradient>
</defs>
</svg>
