<svg width="3" height="4" viewBox="0 0 3 4" fill="none" xmlns="http://www.w3.org/2000/svg">
<path d="M1.92458 2.05284C1.90814 2.61 1.96885 2.93697 1.89043 3.11468C1.71398 3.09128 1.52236 3.0742 1.25485 3.0742C0.809621 3.0742 0.590171 3.10898 0.43839 3.13744C0.307479 3.15072 0.267004 3.09381 0.261945 3.02045C0.249296 2.8421 0.270798 2.52589 0.274593 2.32858C0.285344 1.76572 0.232221 1.37994 0.15886 0.965076C0.0627316 0.418664 -0.0327638 0.216288 0.0108733 0.197948C0.428271 0.0240323 0.927252 0 1.24599 0C1.50845 0 1.80505 0.00253019 2.19526 0.106247C2.03589 0.972032 1.94482 1.37425 1.92458 2.05284Z" fill="url(#paint0_linear_1587_25572)"/>
<defs>
<linearGradient id="paint0_linear_1587_25572" x1="-0.000510303" y1="1.56967" x2="2.19526" y2="1.56967" gradientUnits="userSpaceOnUse">
<stop offset="0.16" stop-color="#DCE6F6"/>
<stop offset="0.49" stop-color="#EAF0FB"/>
</linearGradient>
</defs>
</svg>
