<svg width="2" height="3" viewBox="0 0 2 3" fill="none" xmlns="http://www.w3.org/2000/svg">
<path d="M1.1893 0.129101C1.1121 0.351701 0.9635 0.6035 0.8433 0.806C0.8129 0.8566 0.7844 0.9047 0.7591 0.9496C0.6459 1.1463 0.0796997 2.1535 0.00819969 2.7166C0.00559969 2.7166 0.0025 2.7166 0 2.7166C0.0727 2.1535 0.6377 1.147 0.7509 0.950899C0.7762 0.905899 0.805299 0.857901 0.834999 0.806601C0.955199 0.604201 1.1045 0.353001 1.1811 0.130301C1.1975 0.0841005 1.2058 0.0278008 1.2013 0.00760078C1.2013 0.00570078 1.2013 0.00440053 1.2001 0.00320053C1.2045 0.00130053 1.207 0 1.207 0C1.2165 0.0108 1.2077 0.0766008 1.1893 0.129101Z" fill="url(#paint0_linear_1591_40115)"/>
<defs>
<linearGradient id="paint0_linear_1591_40115" x1="0" y1="1.3576" x2="1.2108" y2="1.3576" gradientUnits="userSpaceOnUse">
<stop stop-color="#9DB4DB"/>
<stop offset="0.66" stop-color="#788CB4"/>
<stop offset="1" stop-color="#6476A0"/>
</linearGradient>
</defs>
</svg>
