<svg width="7" height="2" viewBox="0 0 7 2" fill="none" xmlns="http://www.w3.org/2000/svg">
<path d="M2.7592 0.0095005C2.7592 0.0095005 2.7592 0.0151991 2.7592 0.0182991C2.8016 0.0296991 2.8199 0.0531008 2.8275 0.0771008C2.8294 0.0854008 2.8307 0.0941995 2.8307 0.1043C2.8307 0.1492 2.8307 0.199799 2.8313 0.244699C2.8326 0.321899 2.8047 0.363601 2.7681 0.382601C2.7535 0.387701 2.739 0.3908 2.7257 0.3927C2.7757 0.3839 2.8218 0.342801 2.8218 0.244101C2.8218 0.199201 2.8218 0.154301 2.8218 0.110001C2.8218 0.0816006 2.8206 0.0290991 2.7504 0.0182991C2.7504 0.0151991 2.7504 0.0126005 2.7504 0.0095005H2.7592ZM2.4582 0.0177002C2.4582 0.0177002 2.4582 0.0233999 2.4582 0.0265999C2.5145 0.0359999 2.5151 0.0676995 2.5151 0.1043C2.5151 0.1505 2.5151 0.1973 2.5157 0.2435C2.5176 0.3738 2.5866 0.4155 2.6574 0.4168C2.6466 0.4168 2.6372 0.4149 2.6296 0.4123C2.5739 0.3972 2.5265 0.351 2.5252 0.2435C2.5252 0.1973 2.5252 0.1511 2.5246 0.1043C2.5246 0.0676995 2.5239 0.0359999 2.4677 0.0265999V0.0177002H2.4582ZM3.0988 0.1777C3.1323 0.1764 3.1646 0.1707 3.1798 0.1423C3.1817 0.1372 3.1861 0.1284 3.1874 0.1157V0.1145C3.1874 0.1145 3.1817 0.1145 3.1785 0.1145C3.1671 0.1625 3.1475 0.1764 3.0855 0.1777C3.0811 0.1777 3.0767 0.1777 3.0716 0.1777C3.0805 0.1777 3.0893 0.1777 3.0988 0.1777ZM2.9205 0.0163994C2.9774 0.0271994 2.978 0.058799 2.978 0.095499C2.978 0.168199 2.978 0.240299 2.978 0.312399C2.978 0.349099 2.978 0.380699 2.9211 0.392099C2.9211 0.395299 2.9211 0.4009 2.9211 0.4009C2.9211 0.4009 2.9262 0.4009 2.9306 0.4009V0.3927C2.9875 0.3813 2.9875 0.3497 2.9875 0.313V0.095499C2.9869 0.058799 2.9862 0.0271994 2.9293 0.0170994V0.00819969C2.9249 0.00819969 2.9224 0.00819969 2.9198 0.00819969C2.9198 0.0113997 2.9205 0.0131994 2.9205 0.0163994ZM3.2917 0.296C3.2955 0.2915 3.2993 0.286501 3.3031 0.281401C3.2999 0.281401 3.2968 0.281401 3.2936 0.281401C3.2386 0.346601 3.2013 0.3788 3.1463 0.3839C3.1488 0.3839 3.15 0.3839 3.1507 0.3839C3.1874 0.3813 3.2386 0.3611 3.2917 0.296ZM3.1039 0.1891C3.1519 0.1922 3.1671 0.208099 3.1791 0.259899C3.1823 0.259899 3.1848 0.259899 3.188 0.259899C3.1861 0.247299 3.1798 0.230201 3.1804 0.230801C3.1671 0.200501 3.1418 0.1897 3.1039 0.1891ZM3.2569 0.0846996C3.224 0.0258996 3.1798 0.0164005 3.138 0.0158005C3.1349 0.0158005 3.1311 0.0158005 3.1273 0.0158005C3.1292 0.0158005 3.1311 0.0158005 3.133 0.0158005C3.2006 0.0177005 3.2348 0.0436003 3.2582 0.1119C3.2614 0.1119 3.2645 0.1119 3.267 0.1119V0.110001C3.2626 0.0999006 3.2563 0.0833996 3.2569 0.0846996ZM3.5712 0.2675C3.5712 0.2675 3.5776 0.2675 3.5807 0.2675C3.5788 0.2561 3.5763 0.2454 3.5731 0.2365C3.5611 0.2017 3.5403 0.187201 3.4878 0.187201C3.4783 0.186601 3.4688 0.1866 3.4593 0.1866C3.4656 0.1866 3.472 0.1866 3.4783 0.1866C3.5415 0.1885 3.5592 0.2042 3.5712 0.2675ZM3.6522 0.0865993C3.6313 0.0454994 3.5997 0.0132994 3.5213 0.0163994C3.5238 0.0163994 3.5263 0.0163994 3.5295 0.0163994C3.5972 0.0195994 3.6307 0.0462 3.6541 0.1145C3.6572 0.1145 3.6604 0.1145 3.6636 0.1145C3.6604 0.105 3.656 0.0954994 3.6522 0.0865993ZM3.5731 0.139099C3.5763 0.132199 3.5795 0.1239 3.582 0.1145C3.5795 0.1145 3.5763 0.1145 3.5738 0.1145C3.5624 0.1594 3.5447 0.1733 3.4935 0.1752C3.5365 0.1752 3.5585 0.170099 3.5731 0.139099ZM3.3322 0.3946V0.385799C3.3682 0.376899 3.3904 0.366201 3.3904 0.308001V0.0923004C3.3904 0.0556004 3.3897 0.0239999 3.3322 0.0125999V0.00379944C3.3322 0.00379944 3.3259 0.00379944 3.3227 0.00379944C3.3227 0.00689944 3.3227 0.0100999 3.3227 0.0125999C3.3802 0.0239999 3.3809 0.0555996 3.3809 0.0916996C3.3809 0.1638 3.3809 0.235901 3.3809 0.307301C3.3809 0.343401 3.3809 0.374999 3.3227 0.385099C3.3227 0.388299 3.3227 0.390799 3.3227 0.393999C3.3278 0.393999 3.329 0.3946 3.3322 0.3946ZM3.8799 0.257401C3.8799 0.257401 3.8748 0.257401 3.871 0.257401C3.9267 0.387001 3.9273 0.389599 3.8571 0.393999C3.8571 0.397199 3.8571 0.399701 3.8565 0.402201C3.8596 0.402201 3.8628 0.402201 3.8659 0.402201C3.8659 0.399701 3.8659 0.3965 3.8659 0.3934C3.9361 0.3889 3.9355 0.387601 3.8799 0.257401ZM3.8748 0.245399L3.8046 0.0865993L3.8002 0.0960999L3.8653 0.245399C3.8704 0.245399 3.8735 0.245399 3.8748 0.245399ZM3.613 0.3972C3.613 0.3972 3.613 0.3915 3.613 0.3883C3.6414 0.3782 3.6535 0.374999 3.6927 0.297199C3.6927 0.297199 3.7192 0.2447 3.7211 0.2409C3.7344 0.2137 3.8135 0.0411002 3.8267 0.0114002C3.8299 0.00510022 3.8318 0 3.8318 0H3.8248C3.6554 0.3706 3.6535 0.3706 3.6029 0.3883V0.3972H3.613ZM0.1916 1.2712C0.2346 1.2636 0.2605 1.2338 0.301 1.1731C0.3054 1.1662 0.310499 1.1592 0.314899 1.151C0.314899 1.151 0.3092 1.1516 0.3067 1.1523C0.2599 1.2282 0.2295 1.2623 0.1821 1.2712C0.1745 1.2724 0.1675 1.2737 0.16 1.275C0.1562 1.275 0.152399 1.2756 0.149199 1.2762C0.157399 1.2762 0.184 1.2725 0.1916 1.2712ZM0.2093 1.0346C0.2093 1.0346 0.2162 1.015 0.2169 1.0011C0.2143 1.0011 0.2118 1.0017 0.2099 1.0024C0.2023 1.0504 0.1846 1.0675 0.1372 1.0764C0.1397 1.0764 0.1423 1.0757 0.1441 1.0751C0.1796 1.0688 0.1972 1.0586 0.2093 1.0346ZM0.0214996 1.3135C0.0214996 1.3135 0.0214996 1.3072 0.0214996 1.3053C0.0637996 1.2889 0.0644999 1.2585 0.0637999 1.2206C0.0612999 1.1497 0.0594 1.0789 0.0569 1.0074C0.0556 0.970101 0.0542994 0.9404 0.00939941 0.9366C0.00939941 0.9334 0.00939941 0.930899 0.00939941 0.927799C0.00629941 0.927799 0.0031 0.928999 0 0.929699C0 0.932799 0 0.934101 0 0.937201C0.0449 0.941001 0.0454995 0.970101 0.0473995 1.0074C0.0492995 1.0789 0.0518003 1.1504 0.0543003 1.2206C0.0556003 1.2585 0.0574998 1.2895 0.0138998 1.3066C0.0138998 1.3097 0.0138998 1.3123 0.0138998 1.3154L0.0214996 1.3135ZM0.2687 0.9575C0.2542 0.9297 0.234 0.9113 0.1985 0.9081C0.1928 0.9081 0.1878 0.9081 0.1834 0.9088C0.2283 0.9075 0.2548 0.9315 0.2744 0.9904C0.277 0.9904 0.2795 0.989699 0.282 0.9891C0.2782 0.976499 0.2738 0.9657 0.2694 0.9562L0.2687 0.9575ZM0.16 1.0846C0.1549 1.0846 0.1505 1.0859 0.146 1.0865C0.1884 1.0821 0.203 1.0953 0.2143 1.1459C0.2169 1.1459 0.2194 1.1447 0.2219 1.144C0.2188 1.1289 0.2106 1.1086 0.2112 1.1093C0.2011 1.0903 0.1872 1.0827 0.16 1.0846ZM0.4964 1.2452C0.4389 1.2427 0.3927 1.2035 0.3883 1.089C0.387 1.0435 0.3857 1.0024 0.3845 0.9568C0.3832 0.9195 0.3819 0.885999 0.3345 0.881599V0.8727C0.3345 0.8727 0.3288 0.873401 0.3257 0.874001V0.8829C0.3731 0.8873 0.3743 0.9157 0.3756 0.9531C0.3769 0.9986 0.3781 1.0441 0.3794 1.089C0.3838 1.2155 0.441399 1.2484 0.498899 1.2452C0.496399 1.2452 0.4945 1.2452 0.492 1.2452H0.4977H0.4964ZM0.5736 0.8398C0.5736 0.8398 0.5736 0.8455 0.5736 0.8487C0.6336 0.8519 0.6355 0.906901 0.6362 0.930901C0.6374 0.975201 0.6387 1.0188 0.6393 1.0625C0.6419 1.1744 0.5894 1.2155 0.5394 1.2199C0.5698 1.2199 0.5913 1.206 0.5913 1.206C0.6242 1.1858 0.6501 1.1421 0.6482 1.0631C0.6469 1.0131 0.6463 0.9151 0.64 0.893C0.6324 0.8721 0.6185 0.850001 0.5818 0.848101C0.5818 0.844901 0.5818 0.842399 0.5818 0.839199L0.5736 0.8398ZM0.741199 1.2035V1.1946C0.7898 1.1801 0.7892 1.1497 0.7886 1.1118C0.7867 1.041 0.7848 0.970101 0.7829 0.898001C0.7823 0.859501 0.781 0.831599 0.7317 0.825899V0.817101C0.7317 0.817101 0.7266 0.817101 0.7228 0.817101V0.825899C0.7715 0.830399 0.7728 0.859501 0.774 0.898001C0.7759 0.970101 0.777199 1.041 0.779099 1.1118C0.780399 1.1497 0.7804 1.1807 0.7317 1.1959C0.7317 1.1991 0.7317 1.2016 0.7323 1.2048L0.741199 1.2035ZM0.8917 0.9727C0.9423 0.9663 0.9606 0.955599 0.9739 0.9252C0.9872 0.894199 0.9859 0.847401 0.9574 0.821501C0.9467 0.811401 0.9277 0.805101 0.9163 0.803801C0.9119 0.803801 0.9075 0.803801 0.9031 0.803801C0.9182 0.804401 0.9353 0.809501 0.9486 0.821501C0.977 0.847401 0.9783 0.894199 0.9644 0.9252C0.9511 0.955599 0.9423 0.9663 0.8917 0.9727ZM1.0074 1.1118C0.9612 1.0587 0.9536 0.999199 0.9252 0.986599C0.922 0.985299 0.9157 0.984699 0.9087 0.984699C0.9239 0.987799 0.9321 0.9992 0.9461 1.0264C0.9979 1.1339 1.046 1.1731 1.125 1.1706C1.0669 1.17 1.0346 1.144 1.0074 1.1118ZM1.1965 1.1124C1.2344 1.1409 1.2781 1.151 1.3198 1.1472C1.3148 1.1472 1.3091 1.1472 1.304 1.1472C1.2952 1.1466 1.2869 1.1459 1.2787 1.1447C1.2414 1.1383 1.2123 1.1175 1.2054 1.1124C1.0744 1.0144 1.1244 0.766499 1.3217 0.737999C1.3242 0.737999 1.3306 0.737999 1.3318 0.737999C1.3318 0.737999 1.3331 0.737999 1.3337 0.737999C1.3268 0.737999 1.3192 0.737999 1.3116 0.738699C1.1136 0.767099 1.0637 1.015 1.1952 1.1131L1.1965 1.1124ZM1.4419 0.909399C1.4526 1.0542 1.3894 1.1251 1.3217 1.1314C1.3242 1.1314 1.3268 1.1314 1.3293 1.1314C1.3932 1.1263 1.4533 1.0644 1.452 0.935999C1.452 0.927099 1.452 0.918899 1.4507 0.909399C1.4463 0.844299 1.4261 0.8025 1.4001 0.7766C1.3869 0.7633 1.3685 0.7551 1.3476 0.7519C1.3932 0.764 1.4349 0.811399 1.4419 0.909399ZM1.6114 0.810101C1.6126 0.882201 1.6139 0.9549 1.6152 1.0264C1.6152 1.0637 1.6158 1.0966 1.562 1.1099C1.562 1.1131 1.562 1.1156 1.562 1.1181C1.5652 1.1181 1.5677 1.1181 1.5709 1.1175V1.1093C1.624 1.0953 1.624 1.0637 1.6234 1.0264C1.6221 0.9549 1.6209 0.882901 1.6196 0.810101C1.619 0.770901 1.6183 0.7425 1.5646 0.7349V0.726H1.5551V0.7349C1.6095 0.7425 1.6108 0.770901 1.6114 0.810101ZM1.8175 0.852499C1.8017 0.887299 1.7764 0.900601 1.7227 0.905001C1.7113 0.906301 1.6993 0.906899 1.6873 0.907499C1.7018 0.906299 1.717 0.9056 1.7322 0.9044C1.7859 0.8999 1.8106 0.8866 1.827 0.8519C1.8384 0.8285 1.8447 0.7753 1.8112 0.7418C1.7878 0.7178 1.7537 0.717799 1.7511 0.718399C1.7682 0.719699 1.7872 0.7254 1.8017 0.7393C1.8359 0.7715 1.8289 0.829099 1.8175 0.852499ZM2.0901 0.8664C2.1382 0.8632 2.1597 0.853099 2.1717 0.823999C2.1749 0.817099 2.1774 0.8089 2.1793 0.7994C2.1761 0.7994 2.173 0.7994 2.1698 0.7994C2.1597 0.8481 2.1401 0.8626 2.0806 0.8664C2.0711 0.8664 2.061 0.867701 2.0515 0.867701C2.0648 0.867001 2.0819 0.8664 2.0901 0.8664ZM2.1148 1.07C2.1236 1.07 2.1325 1.0694 2.1413 1.0688C2.2065 1.0644 2.2583 1.0068 2.2817 0.9764C2.2874 0.9695 2.2912 0.9638 2.2931 0.9606C2.29 0.9606 2.2868 0.9606 2.2836 0.9606C2.2722 0.9777 2.2122 1.0625 2.1318 1.0682C2.123 1.0682 2.1141 1.0688 2.1053 1.0694C2.1053 1.0694 2.104 1.0694 2.1034 1.0694C2.1066 1.0694 2.111 1.07 2.1148 1.07ZM2.2463 0.7684C2.2254 0.7273 2.1983 0.708899 2.1546 0.705099C2.2014 0.711499 2.2292 0.738 2.2495 0.7943C2.2526 0.7943 2.2552 0.7943 2.2583 0.7943C2.2545 0.7842 2.2463 0.7684 2.2463 0.7684ZM1.9326 1.0947C1.9326 1.0947 1.9326 1.0884 1.9326 1.0859C1.987 1.0732 1.987 1.0435 1.9864 1.0049C1.9858 0.9334 1.9845 0.861299 1.9839 0.789299C1.9832 0.751299 1.9826 0.7216 1.9276 0.7134C1.9276 0.7102 1.9276 0.707 1.9276 0.7045H1.9181C1.9181 0.7077 1.9181 0.710801 1.9181 0.714001C1.9731 0.722201 1.9737 0.751899 1.9744 0.789299C1.975 0.861299 1.9763 0.9334 1.9769 1.0049C1.9769 1.0435 1.9769 1.0745 1.9225 1.0865C1.9225 1.0897 1.9225 1.0922 1.9225 1.0953L1.9326 1.0947ZM2.1723 0.917C2.1603 0.8866 2.142 0.8778 2.1009 0.8778C2.1458 0.8791 2.1603 0.894901 2.1717 0.944201C2.1749 0.944201 2.178 0.944201 2.1812 0.944201C2.1786 0.933401 2.1754 0.9252 2.1723 0.917ZM2.5758 0.9081L2.5018 0.757L2.4974 0.767099L2.5638 0.909399L2.5758 0.9081ZM2.4145 0.927099C2.4164 0.922699 2.45 0.8481 2.493 0.75C2.493 0.75 2.5088 0.714 2.5239 0.6798L2.5284 0.669701H2.5208C2.3564 1.046 2.3551 1.0466 2.3058 1.0669V1.0751C2.3058 1.0751 2.3115 1.0751 2.3146 1.0751C2.3146 1.0726 2.3146 1.0694 2.3146 1.0663C2.3431 1.0549 2.3551 1.0498 2.3918 0.9758C2.3943 0.9708 2.407 0.944199 2.4145 0.927099ZM2.579 0.9214C2.579 0.9214 2.5745 0.9214 2.5695 0.9214C2.6258 1.0435 2.6296 1.0485 2.5581 1.0568V1.065C2.5581 1.065 2.5638 1.065 2.567 1.065C2.567 1.0625 2.567 1.0599 2.567 1.0568C2.6378 1.0485 2.6359 1.0441 2.579 0.9214ZM3.0919 0.6621C3.0919 0.6621 3.0919 0.6678 3.0919 0.671C3.1488 0.6805 3.1684 0.7045 3.1697 0.7659C3.1697 0.8285 3.1697 0.8911 3.1697 0.9531L3.1791 0.9625C3.1791 0.8974 3.1785 0.8316 3.1785 0.7652C3.1785 0.7538 3.1741 0.7273 3.1747 0.7304C3.1665 0.695 3.145 0.677901 3.1007 0.670401C3.1007 0.667201 3.1007 0.663999 3.1007 0.661499L3.0919 0.6621ZM2.7832 1.0587C2.7832 1.0587 2.7832 1.0523 2.7832 1.0498C2.8231 1.0302 2.8376 1.0011 2.8421 0.9695C2.8421 0.9695 2.844 0.939799 2.844 0.9252C2.8433 0.856899 2.8433 0.7886 2.8433 0.7197C2.813 0.6893 2.8028 0.681699 2.7801 0.674799C2.7801 0.671599 2.7801 0.669099 2.7801 0.665899C2.7769 0.665899 2.7738 0.665899 2.7706 0.665899C2.7706 0.669099 2.7706 0.671599 2.7706 0.674799C2.794 0.681699 2.8035 0.688699 2.8338 0.719099C2.8338 0.787999 2.8338 0.856301 2.8345 0.924601C2.8345 0.968901 2.8345 1.0251 2.7738 1.0498C2.7738 1.053 2.7738 1.0555 2.7738 1.0587H2.7832ZM3.181 1.0631C3.0843 0.965699 2.8541 0.7311 2.8541 0.7311C2.8541 0.7342 2.8541 0.737401 2.8541 0.740601C2.9508 0.839201 3.0767 0.966999 3.1722 1.0631C3.1753 1.0631 3.1785 1.0631 3.181 1.0631ZM3.7135 0.8013C3.7173 0.7943 3.7205 0.786099 3.723 0.775999C3.7205 0.775999 3.7173 0.775999 3.7148 0.775999C3.7028 0.823399 3.6819 0.8367 3.6199 0.8361C3.6193 0.8361 3.618 0.8361 3.6174 0.8361C3.6199 0.8361 3.6231 0.8361 3.6263 0.8361C3.6743 0.8373 3.6996 0.8279 3.7135 0.8013ZM3.4631 0.6647C3.4631 0.6647 3.4631 0.6704 3.4631 0.6735C3.5206 0.6855 3.5206 0.7153 3.5206 0.7526C3.5206 0.824 3.5206 0.895499 3.5206 0.966299C3.5206 1.0043 3.5206 1.0346 3.4625 1.0429C3.4625 1.046 3.4625 1.0485 3.4625 1.0511H3.4713V1.0429C3.5289 1.0346 3.5289 1.0036 3.5295 0.9657C3.5295 0.8949 3.5295 0.8234 3.5301 0.7519C3.5301 0.7146 3.5301 0.684899 3.4726 0.672899C3.4726 0.670399 3.4726 0.6672 3.4726 0.6647H3.4631ZM3.6231 0.8468C3.687 0.8493 3.7003 0.863899 3.7129 0.927099C3.7154 0.927099 3.7186 0.927099 3.7211 0.927099C3.7167 0.906899 3.7154 0.9025 3.7129 0.8955C3.7009 0.8582 3.675 0.848 3.6231 0.8468ZM3.7932 0.7519C3.7717 0.7026 3.7376 0.6805 3.6794 0.6779C3.7382 0.6855 3.7717 0.709601 3.7945 0.777201C3.7976 0.777201 3.8008 0.777201 3.804 0.777201C3.804 0.777201 3.8033 0.774 3.7932 0.7519ZM4.0481 1.0764C4.0095 1.0745 3.9532 1.0606 3.9071 1.0087C3.8659 0.963199 3.8451 0.895499 3.8501 0.837299C3.8641 0.693799 4.0019 0.6672 4.043 0.6647C3.8413 0.671 3.7812 0.8892 3.8982 1.0119C3.9621 1.0789 4.0494 1.0909 4.1221 1.0644C4.112 1.0675 4.1025 1.07 4.0943 1.0719C4.0791 1.0757 4.0633 1.077 4.0481 1.0764ZM4.1354 0.7127C4.0949 0.6773 4.0639 0.6754 4.0462 0.6754C4.0487 0.6754 4.0519 0.6754 4.055 0.6754C4.0531 0.6754 4.0506 0.6754 4.0487 0.6754C4.1189 0.6786 4.1897 0.7469 4.179 0.8993C4.1676 1.0492 4.0797 1.0599 4.0512 1.0606C4.0696 1.0606 4.1765 1.0593 4.1885 0.8993C4.1954 0.807 4.1663 0.7399 4.1354 0.7127ZM4.8285 1.1131C4.8291 1.1099 4.8291 1.1067 4.8291 1.1042C4.8962 1.0998 4.8968 1.0656 4.8974 1.0302C4.8987 0.953699 4.9 0.8765 4.9012 0.7987C4.9019 0.7886 4.9019 0.771501 4.8962 0.760201C4.8867 0.7418 4.8658 0.7292 4.8418 0.7292C4.862 0.7323 4.8791 0.744401 4.8867 0.759501C4.8924 0.7709 4.8924 0.788 4.8924 0.7981C4.8911 0.875899 4.8898 0.953 4.8886 1.0296C4.8879 1.065 4.8867 1.0985 4.8196 1.1029C4.8196 1.1061 4.8196 1.1086 4.8196 1.1118H4.8285V1.1131ZM4.7406 0.7108L4.7305 0.8183C4.7305 0.8183 4.7368 0.8183 4.74 0.8183L4.7425 0.7943L4.7463 0.7519L4.7501 0.7108H4.7406ZM5.1055 0.817101C5.0973 0.798101 5.0872 0.782899 5.0789 0.773399C5.0549 0.746899 5.0283 0.7412 5.0106 0.7418C5.0328 0.7444 5.0562 0.757599 5.0701 0.773399C5.0935 0.799399 5.1036 0.831601 5.108 0.847401C5.1106 0.847401 5.1137 0.847401 5.1162 0.848101C5.1137 0.837301 5.1055 0.817101 5.1055 0.817101ZM5.139 0.7437V0.7526C5.1915 0.7684 5.1909 0.8019 5.1909 0.8379C5.189 0.9107 5.1877 0.982799 5.1864 1.0542C5.1852 1.0865 5.1845 1.1225 5.1314 1.1276V1.1358C5.1314 1.1358 5.1359 1.1358 5.1409 1.1358V1.1276C5.1934 1.1232 5.1953 1.0865 5.1953 1.0542C5.1972 0.982799 5.1985 0.9107 5.1997 0.8379C5.2004 0.8019 5.2004 0.770299 5.1479 0.754499V0.7456L5.139 0.7437ZM5.3053 0.940399C5.3053 0.940399 5.2927 0.939799 5.28 0.938499C5.2933 0.939799 5.3066 0.9417 5.3142 0.9417C5.4166 0.9442 5.4091 0.834799 5.3717 0.792999C5.3604 0.780399 5.3294 0.7677 5.3072 0.7684C5.33 0.7703 5.3534 0.783599 5.3629 0.793699C5.4015 0.833499 5.4078 0.943599 5.3053 0.940399ZM5.3812 1.1282C5.3711 1.1358 5.3591 1.1409 5.3445 1.1421C5.3578 1.1415 5.3768 1.1383 5.3901 1.1282C5.4223 1.1042 5.4666 0.9689 5.3079 0.9524C5.2952 0.9512 5.2604 0.948 5.2604 0.948C5.2731 0.9493 5.2864 0.949899 5.299 0.951799C5.4571 0.967599 5.4122 1.1036 5.3812 1.1282ZM5.7385 1.058C5.7354 1.058 5.7322 1.0574 5.7284 1.0568C5.774 1.1851 5.7765 1.1902 5.7139 1.1889V1.1972C5.7139 1.1972 5.7202 1.1978 5.7234 1.1984C5.7234 1.1959 5.7234 1.1927 5.7234 1.1902C5.7822 1.1908 5.7847 1.1883 5.7385 1.058ZM5.7341 1.0454L5.6753 0.884701L5.6709 0.8955L5.724 1.0441C5.7284 1.0441 5.7322 1.0454 5.7341 1.0454ZM5.6949 0.814499C5.6981 0.807599 5.7 0.802499 5.7006 0.801899C5.6981 0.801899 5.6962 0.8019 5.6936 0.8006C5.5362 1.1504 5.5343 1.1504 5.4881 1.1636V1.1719C5.4913 1.1719 5.4944 1.1725 5.4976 1.1731C5.4976 1.1706 5.4976 1.1674 5.4976 1.1643C5.5235 1.1567 5.5349 1.1535 5.5672 1.0916C5.5741 1.0776 5.5823 1.0612 5.5918 1.041C5.5937 1.0372 5.595 1.0334 5.5969 1.0296C5.614 0.9929 5.669 0.870199 5.669 0.870199C5.669 0.870199 5.6822 0.842399 5.6949 0.814499ZM5.908 1.2225C5.908 1.2225 5.908 1.2168 5.908 1.2142C5.9574 1.2117 5.9586 1.1814 5.9599 1.1434C5.9618 1.0726 5.9643 1.0011 5.9662 0.929699C5.9669 0.892299 5.9675 0.8626 5.9182 0.8449C5.9182 0.8417 5.9182 0.8379 5.9182 0.8361C5.915 0.8361 5.9125 0.835401 5.9093 0.834801C5.9093 0.837901 5.9093 0.8417 5.9093 0.8449C5.9586 0.8626 5.9574 0.891699 5.9567 0.929699C5.9548 1.0011 5.9529 1.0726 5.951 1.1434C5.9498 1.1814 5.9491 1.2098 5.8998 1.213C5.8998 1.2161 5.8998 1.2187 5.8998 1.2218L5.908 1.2225ZM6.0978 1.2319C6.1237 1.2275 6.1572 1.2117 6.1983 1.1649L6.2103 1.1504V1.1491L6.2034 1.1478C6.1553 1.2073 6.1218 1.2307 6.0801 1.2313C6.0851 1.2313 6.0908 1.2325 6.0978 1.2319ZM6.2755 1.1915C6.278 1.1206 6.2799 1.0498 6.2824 0.977699C6.2831 0.941699 6.2837 0.9107 6.2363 0.8923C6.2363 0.8904 6.2363 0.885399 6.2363 0.883499C6.2331 0.883499 6.2306 0.8829 6.2274 0.8822C6.2274 0.8854 6.2274 0.8873 6.2274 0.8904C6.2748 0.9088 6.2736 0.941699 6.2729 0.977699C6.271 1.0492 6.2685 1.1206 6.266 1.1915C6.2647 1.2282 6.2641 1.2579 6.216 1.2598C6.216 1.2623 6.216 1.2655 6.216 1.2686C6.2192 1.2686 6.2217 1.2693 6.2249 1.2699C6.2249 1.2674 6.2249 1.2648 6.2249 1.2617C6.2729 1.2598 6.2742 1.2282 6.2755 1.1915ZM6.4114 1.2806C6.4412 1.275 6.4684 1.2566 6.5031 1.2168C6.5031 1.2168 6.512 1.206 6.5164 1.1997C6.5139 1.1997 6.5114 1.1991 6.5095 1.1984C6.4665 1.2535 6.4336 1.2781 6.3969 1.2813C6.3975 1.2813 6.3982 1.2813 6.3994 1.2813C6.4032 1.2813 6.407 1.2806 6.4114 1.2806ZM1.2104 1.4938C1.1623 1.4261 1.1219 1.4286 1.0997 1.4293C1.0985 1.4293 1.0972 1.4293 1.0959 1.4293C1.1111 1.4293 1.1263 1.4318 1.1408 1.4381C1.1788 1.4546 1.2035 1.4976 1.2174 1.5222H1.2262C1.2237 1.5172 1.2192 1.5064 1.2104 1.4938ZM1.2477 1.6841C1.2477 1.6841 1.2414 1.6841 1.2382 1.6848C1.2085 1.7569 1.187 1.7689 1.1465 1.7954C1.1636 1.7878 1.1801 1.7771 1.1952 1.7644C1.1952 1.7644 1.2199 1.7429 1.2477 1.6841ZM1.0567 1.8321C1.0163 1.8302 0.9802 1.8163 0.96 1.8011C0.8417 1.7094 0.8695 1.4482 1.0877 1.4191C1.094 1.4185 1.1004 1.4179 1.1073 1.4179C1.0978 1.4179 1.0877 1.4179 1.0782 1.4191C0.8626 1.4539 0.8316 1.7094 0.9499 1.8005C0.9745 1.8195 1.0238 1.8346 1.0567 1.8321ZM1.2952 1.8062C1.2952 1.8062 1.2952 1.7999 1.2952 1.7973C1.3464 1.7815 1.3464 1.7524 1.3457 1.7145C1.3445 1.6424 1.3432 1.5697 1.3413 1.4957C1.3407 1.4571 1.3394 1.4267 1.2876 1.4204C1.2876 1.4172 1.2876 1.4147 1.2876 1.4116C1.2844 1.4116 1.2812 1.4116 1.2781 1.4122C1.2781 1.4154 1.2781 1.4185 1.2781 1.4217C1.3299 1.428 1.3312 1.4571 1.3318 1.4957C1.3331 1.569 1.335 1.6424 1.3363 1.7145C1.3363 1.7524 1.3375 1.7828 1.2857 1.7986C1.2857 1.8018 1.2857 1.8043 1.2857 1.8075H1.2945L1.2952 1.8062ZM1.5899 1.5836C1.5899 1.6203 1.5911 1.6557 1.5918 1.6917C1.5918 1.7278 1.5924 1.76 1.5399 1.7752C1.5399 1.7784 1.5399 1.7809 1.5399 1.7841H1.5494C1.5494 1.7809 1.5494 1.7771 1.5488 1.7752C1.6012 1.76 1.6012 1.729 1.6006 1.6924C1.6006 1.6563 1.5994 1.6203 1.5987 1.5836H1.5899ZM1.5975 1.4729C1.5968 1.4343 1.5962 1.4046 1.5424 1.3976C1.5424 1.3945 1.5424 1.392 1.5424 1.3888C1.5393 1.3888 1.5361 1.3888 1.5329 1.3894C1.5329 1.3926 1.5329 1.3951 1.5329 1.3983C1.5861 1.4052 1.5867 1.4343 1.588 1.4729C1.588 1.5052 1.5892 1.5387 1.5899 1.5709C1.593 1.5709 1.5962 1.5709 1.5993 1.5703C1.5993 1.538 1.5981 1.5052 1.5975 1.4729ZM1.9927 1.6095C2.0496 1.7341 2.049 1.7341 1.9807 1.7461V1.755H1.9902C1.9902 1.7518 1.9902 1.748 1.9902 1.7455C2.0585 1.7341 2.0572 1.7316 2.0016 1.6089L1.9927 1.6095ZM1.8447 1.607C1.87 1.5469 1.9042 1.464 1.9187 1.4299C1.9187 1.4299 1.9326 1.3964 1.9459 1.3648C1.9478 1.3603 1.9497 1.3546 1.9503 1.3534C1.9478 1.3534 1.9453 1.3534 1.9428 1.3534C1.7865 1.7391 1.7846 1.7398 1.7366 1.7613V1.7701C1.7366 1.7701 1.7429 1.7701 1.7461 1.7695C1.7461 1.767 1.7461 1.7632 1.7461 1.7607C1.7695 1.7518 1.7846 1.7429 1.8169 1.6734C1.8182 1.6708 1.8397 1.6184 1.8397 1.6184C1.8416 1.6146 1.8428 1.6108 1.8447 1.607ZM1.9206 1.4546L1.9864 1.5981C1.9864 1.5981 1.9927 1.5981 1.9952 1.5981L1.9244 1.4444L1.9206 1.4546ZM2.6245 1.65C2.6182 1.5924 2.6011 1.4609 2.5935 1.397C2.591 1.4027 2.5891 1.4084 2.5866 1.4141C2.6072 1.5806 2.6173 1.666 2.6169 1.6702C2.6144 1.7012 2.5752 1.7126 2.5568 1.7183V1.7271C2.5568 1.7271 2.5632 1.7271 2.5663 1.7271C2.5663 1.7246 2.5663 1.7214 2.5663 1.7189C2.5979 1.7094 2.6302 1.698 2.6245 1.65ZM2.2115 1.347C2.2115 1.347 2.2115 1.3527 2.2115 1.3559C2.2413 1.3559 2.2571 1.3648 2.2735 1.3926C2.2488 1.7044 2.2488 1.705 2.1824 1.7354C2.1824 1.7385 2.1824 1.741 2.1824 1.7442H2.1919C2.1919 1.7442 2.1919 1.7373 2.1919 1.7347C2.2299 1.717 2.2476 1.7094 2.2596 1.6386C2.2672 1.5911 2.2729 1.5165 2.283 1.3932C2.2653 1.366 2.2507 1.3565 2.221 1.3559C2.221 1.3527 2.221 1.3502 2.221 1.347H2.2115ZM2.2925 1.4065L2.2912 1.4223C2.3387 1.5121 2.4013 1.6266 2.4474 1.7132C2.45 1.7132 2.4519 1.7132 2.4544 1.7132C2.4544 1.7132 2.4519 1.7088 2.4487 1.7018C2.4006 1.6114 2.3393 1.495 2.2925 1.4065ZM2.5676 1.3319C2.5809 1.3565 2.5847 1.366 2.5682 1.4071L2.479 1.6177C2.4809 1.6209 2.4822 1.624 2.4841 1.6272L2.5771 1.4071C2.5847 1.3875 2.5897 1.3755 2.5885 1.3648V1.3622C2.5885 1.3622 2.5872 1.3502 2.5771 1.3319H2.5676ZM3.0564 1.4754C3.0742 1.4457 3.0754 1.392 3.0489 1.3616C3.0324 1.3426 3.009 1.3344 2.9869 1.3312C2.985 1.3312 2.9831 1.3312 2.9812 1.3312C3.0027 1.3338 3.0242 1.3433 3.04 1.361C3.0672 1.3932 3.0647 1.4457 3.0476 1.4754C3.0324 1.5014 3.0115 1.5165 2.9489 1.5178C2.9395 1.5178 2.9496 1.5178 2.9578 1.5178C3.0204 1.5165 3.0419 1.5014 3.0564 1.4754ZM2.8414 1.6342C2.8408 1.5621 2.8408 1.4893 2.8402 1.4154C2.8402 1.3761 2.8395 1.347 2.782 1.3363V1.3274H2.7801H2.7731V1.3363C2.8307 1.347 2.8307 1.3761 2.8313 1.4154C2.8313 1.4893 2.8319 1.5621 2.8319 1.6342C2.8319 1.6708 2.8319 1.7018 2.775 1.7139V1.7221H2.7839V1.7139C2.8414 1.7018 2.8414 1.6708 2.8414 1.6342ZM3.2209 1.6297C3.2209 1.5576 3.2209 1.4843 3.2209 1.4109C3.2209 1.3723 3.2196 1.3414 3.1614 1.3306C3.1614 1.3274 3.1614 1.3243 3.1614 1.3211C3.1583 1.3211 3.1551 1.3211 3.1519 1.3211C3.1519 1.3243 3.1519 1.3268 3.1519 1.33C3.2108 1.3414 3.2114 1.3717 3.2114 1.4103C3.2114 1.4843 3.2114 1.557 3.2114 1.6291C3.2114 1.6652 3.2114 1.6968 3.1519 1.7075C3.1519 1.7107 3.1519 1.7132 3.1519 1.7164C3.1551 1.7164 3.1583 1.7164 3.1608 1.7164C3.1608 1.7132 3.1608 1.7107 3.1608 1.7075C3.2196 1.6974 3.2209 1.6658 3.2209 1.6297ZM3.6313 1.7252C3.6269 1.7259 3.6225 1.7271 3.618 1.7278C3.6149 1.7278 3.5548 1.7392 3.4922 1.7031C3.441 1.6734 3.3878 1.624 3.3834 1.5418C3.3733 1.3553 3.5403 1.3167 3.5934 1.3154H3.5972C3.5972 1.3154 3.5978 1.3154 3.5984 1.3154C3.5953 1.3154 3.5915 1.3154 3.5883 1.3154C3.3802 1.3224 3.3107 1.5494 3.4346 1.6683C3.5048 1.7354 3.5972 1.7455 3.6718 1.7158C3.6572 1.7208 3.6439 1.7233 3.6313 1.7252ZM3.6003 1.3255C3.6686 1.3338 3.7344 1.4027 3.7243 1.5488C3.7148 1.6778 3.6452 1.7063 3.6073 1.712C3.6484 1.7088 3.7274 1.6854 3.7331 1.5488C3.7395 1.392 3.6781 1.3305 3.6003 1.3255ZM4.2384 1.4501C4.2384 1.435 4.2372 1.4223 4.2346 1.4109C4.2264 1.3761 4.2062 1.3597 4.1645 1.3502C4.1645 1.3477 4.1645 1.3439 4.1645 1.3414C4.1613 1.3414 4.1581 1.3414 4.155 1.3414C4.155 1.3445 4.155 1.347 4.155 1.3502C4.2094 1.3622 4.2283 1.3882 4.229 1.4508C4.2283 1.514 4.2277 1.5773 4.2271 1.6392L4.2365 1.65C4.2372 1.5842 4.2384 1.5171 4.2384 1.4501ZM3.8463 1.7164C3.8862 1.7012 3.9001 1.6727 3.9052 1.6418C3.9077 1.6272 3.9077 1.6108 3.9077 1.595C3.9083 1.526 3.909 1.4571 3.909 1.3869C3.878 1.354 3.8691 1.3477 3.8463 1.3388C3.8463 1.3363 3.8463 1.3331 3.8463 1.33C3.8432 1.33 3.84 1.33 3.8369 1.33V1.3388C3.8596 1.3477 3.8691 1.354 3.9001 1.3869C3.9001 1.4571 3.8988 1.526 3.8988 1.5943C3.8988 1.6386 3.8976 1.693 3.8375 1.7151C3.8375 1.7183 3.8375 1.7208 3.8375 1.7233C3.8425 1.7233 3.847 1.7233 3.852 1.7233C3.8501 1.7233 3.8482 1.7233 3.847 1.7233C3.847 1.7202 3.847 1.7183 3.847 1.7151L3.8463 1.7164ZM4.234 1.7455C4.1398 1.6437 3.9178 1.397 3.921 1.4002C3.921 1.4033 3.921 1.4065 3.921 1.4097C4.0146 1.5134 4.1373 1.6468 4.229 1.748C4.2321 1.748 4.2346 1.748 4.2378 1.748C4.2378 1.748 4.2359 1.7474 4.234 1.7455ZM4.4775 1.7448C4.5452 1.7423 4.573 1.686 4.5509 1.6373C4.5363 1.6044 4.4845 1.5785 4.4598 1.5659C4.3997 1.5355 4.3921 1.5317 4.3725 1.5108C4.3181 1.4527 4.3434 1.3464 4.4509 1.3414C4.3345 1.3395 4.3074 1.4527 4.3637 1.5115C4.3833 1.5317 4.3909 1.5355 4.4509 1.5665C4.4756 1.5791 4.5275 1.6051 4.542 1.638C4.5635 1.6867 4.5369 1.7436 4.4699 1.7455C4.4705 1.7455 4.4718 1.7455 4.4724 1.7455C4.475 1.7455 4.4769 1.7448 4.4775 1.7448ZM4.3346 1.6424L4.3327 1.6114C4.3301 1.6114 4.327 1.6114 4.3245 1.6114L4.3295 1.7183C4.3327 1.7195 4.3358 1.7208 4.339 1.7227L4.3346 1.6424ZM4.5584 1.4223C4.5477 1.4014 4.5313 1.3761 4.5009 1.3622C4.4939 1.3591 4.4775 1.354 4.4585 1.3527C4.4585 1.3527 4.4579 1.3527 4.4573 1.3527C4.4693 1.354 4.4813 1.3572 4.492 1.3622C4.5407 1.385 4.5534 1.4305 4.5622 1.464C4.5654 1.464 4.5686 1.464 4.5717 1.464C4.5667 1.4457 4.5629 1.4324 4.5584 1.4223ZM4.6407 1.3629V1.3717C4.6944 1.3869 4.6944 1.4185 4.6944 1.4571C4.6932 1.5311 4.6925 1.6038 4.6913 1.6759C4.6906 1.712 4.69 1.7429 4.6356 1.7499C4.6356 1.7531 4.6356 1.7556 4.6356 1.7588H4.6445C4.6445 1.7588 4.6445 1.7531 4.6445 1.7505C4.6988 1.7436 4.6995 1.7126 4.7001 1.6765C4.7014 1.6044 4.7033 1.5317 4.7033 1.4577C4.7033 1.4217 4.7033 1.3888 4.6495 1.3736C4.6495 1.3711 4.6495 1.3667 4.6495 1.3641H4.6407V1.3629ZM4.9038 1.7784C4.9038 1.7752 4.9038 1.7727 4.9044 1.7695C4.9562 1.7632 4.9581 1.7303 4.9588 1.6955C4.9588 1.6595 4.96 1.624 4.9607 1.5874C4.9575 1.5874 4.9543 1.5874 4.9512 1.5867C4.9506 1.6234 4.9499 1.6601 4.9493 1.6961C4.9487 1.7309 4.948 1.7632 4.8949 1.7695C4.8949 1.7727 4.8949 1.7752 4.8949 1.7784H4.9038ZM4.9626 1.4773C4.9626 1.4388 4.9632 1.4084 4.9101 1.3926C4.9101 1.3901 4.9101 1.3863 4.9101 1.3837C4.9069 1.3837 4.9038 1.3837 4.9006 1.3831C4.9006 1.3863 4.9006 1.3888 4.9006 1.392C4.9537 1.4078 4.9531 1.4394 4.9524 1.478C4.9524 1.5102 4.9512 1.5418 4.9506 1.5741C4.9537 1.5741 4.9575 1.5741 4.96 1.5747C4.96 1.5425 4.962 1.5095 4.9626 1.4773ZM5.1068 1.4008C5.1068 1.4008 5.1068 1.4065 5.1068 1.4097C5.1586 1.4261 5.1586 1.4577 5.158 1.4963C5.1567 1.5697 5.1548 1.643 5.1536 1.7151C5.1529 1.7512 5.1523 1.7822 5.0998 1.7872C5.0998 1.7904 5.0998 1.7929 5.0998 1.7961H5.1087C5.1087 1.7961 5.1087 1.791 5.1087 1.7885C5.1605 1.7828 5.1624 1.7518 5.1624 1.7151C5.1637 1.643 5.1649 1.5703 5.1668 1.4963C5.1668 1.4577 5.1681 1.4274 5.1156 1.4109C5.1156 1.4084 5.1156 1.404 5.1156 1.4021H5.1061L5.1068 1.4008ZM5.3648 1.7322C5.3667 1.6601 5.3679 1.5874 5.3698 1.5134C5.3705 1.4754 5.3711 1.4457 5.3186 1.428V1.4185C5.3129 1.4172 5.3091 1.4166 5.3091 1.4166V1.4261C5.361 1.4438 5.361 1.4754 5.3604 1.5134C5.3591 1.5874 5.3572 1.6601 5.3559 1.7322C5.3547 1.7682 5.354 1.7986 5.3015 1.8037C5.3015 1.8062 5.3009 1.8093 5.3009 1.8119C5.3041 1.8119 5.3072 1.8125 5.3104 1.8131V1.8049C5.3629 1.7999 5.3642 1.7682 5.3648 1.7322ZM5.4887 1.6291C5.4824 1.6291 5.466 1.6278 5.4502 1.6266C5.4704 1.6285 5.4919 1.631 5.4995 1.631C5.5956 1.6297 5.5868 1.5096 5.5476 1.4704C5.5298 1.4527 5.509 1.4457 5.49 1.4432C5.4843 1.4432 5.4786 1.4432 5.4729 1.4432C5.4919 1.4432 5.5178 1.4495 5.5381 1.4697C5.5773 1.5096 5.588 1.6285 5.4887 1.6291ZM4.5079 1.0947C4.3516 1.1042 4.2378 0.8955 4.3422 0.7621C4.3902 0.7007 4.4497 0.688699 4.4857 0.684299C4.2928 0.698199 4.2365 0.91 4.351 1.0296C4.3959 1.077 4.4528 1.0966 4.5079 1.0947ZM4.5167 1.0789C4.6837 1.0637 4.6951 0.688701 4.4939 0.694401H4.4971C4.5686 0.694401 4.6432 0.762101 4.6318 0.917601C4.623 1.0435 4.554 1.0726 4.5167 1.0789ZM4.5053 0.683001H4.5041H4.5015C4.5015 0.683001 4.4971 0.682999 4.4952 0.683599C4.499 0.683599 4.5022 0.683001 4.5053 0.683001ZM6.4924 1.3123L6.524 1.201C6.524 1.201 6.5189 1.2003 6.5164 1.1997L6.4835 1.311L6.4924 1.3123ZM4.4883 0.684299C4.4883 0.684299 4.4864 0.684299 4.4857 0.684299C4.4857 0.684299 4.4864 0.684299 4.487 0.684299H4.4883Z" fill="white"/>
</svg>
