<svg width="5" height="2" viewBox="0 0 5 2" fill="none" xmlns="http://www.w3.org/2000/svg">
<path d="M4.44997 0.316211C4.314 0.304195 4.01486 0.273206 4.0098 0.330756C4.00474 0.386409 4.55938 0.486965 4.46388 0.584358C4.33234 0.718431 4.28744 0.951794 4.28238 1.15227C4.27289 1.47734 4.39811 1.54058 4.35194 1.61267C4.31906 1.66453 4.09581 1.64872 3.59936 1.6171C3.30529 1.57726 2.99919 1.55006 2.695 1.55006C2.18906 1.55006 1.59648 1.6209 1.1247 1.71702C0.657338 1.81315 0.260177 1.8979 0.224129 1.84288C0.178595 1.77268 0.30255 1.72651 0.293696 1.41409C0.288004 1.22121 0.298122 0.999226 0.167844 0.868947C0.0653914 0.765863 0.592198 0.580563 0.589669 0.52491C0.586507 0.462933 0.308874 0.521748 0.172903 0.533764C0.0970125 0.54072 -0.0142941 0.572341 0.00151649 0.507834C0.625716 0.203007 1.68882 0 2.695 0C3.40521 0 4.10467 0.0891719 4.71243 0.257396C4.73835 0.269412 4.51195 0.321903 4.44997 0.316211Z" fill="url(#paint0_linear_1587_25625)"/>
<defs>
<linearGradient id="paint0_linear_1587_25625" x1="0.000251648" y1="0.929659" x2="4.71432" y2="0.929659" gradientUnits="userSpaceOnUse">
<stop offset="0.16" stop-color="#CCDAF2"/>
<stop offset="0.49" stop-color="#E1EAF9"/>
</linearGradient>
</defs>
</svg>
