<svg width="32" height="6" viewBox="0 0 32 6" fill="none" xmlns="http://www.w3.org/2000/svg">
<path d="M14.4336 0.131557C14.3979 0.131557 14.369 0.160412 14.369 0.196088V5.20234C14.369 5.23802 14.3979 5.26687 14.4336 5.26687H15.6791C15.7148 5.26687 15.7436 5.23802 15.7436 5.20234V0.196088C15.7436 0.160412 15.7148 0.131557 15.6791 0.131557H14.4336ZM16.4157 2.69921C16.4157 1.15096 17.6922 0.0712205 19.1722 0.0712205C20.6523 0.0712205 21.9288 1.15148 21.9288 2.69921C21.9288 4.24694 20.6523 5.33508 19.1722 5.33508C17.6922 5.33508 16.4157 4.24747 16.4157 2.69921ZM20.5243 2.69921C20.5243 1.89072 20.0332 1.26429 19.1722 1.26429C18.3113 1.26429 17.8202 1.89125 17.8202 2.69921C17.8202 3.50718 18.3113 4.14149 19.1722 4.14149C20.0332 4.14149 20.5243 3.50718 20.5243 2.69921ZM10.9855 5.20234C10.9855 5.23802 11.0144 5.26687 11.0501 5.26687H12.2956C12.3313 5.26687 12.3601 5.23802 12.3601 5.20234V1.28685H13.655C13.6907 1.28685 13.7195 1.25799 13.7195 1.22231V0.196088C13.7195 0.160412 13.6907 0.131557 13.655 0.131557H9.15292C9.1057 0.131557 9.07422 0.180875 9.09468 0.223897L9.58313 1.25065C9.59363 1.27321 9.61619 1.28737 9.64137 1.28737H10.9861V5.20286L10.9855 5.20234ZM27.7886 4.45576C27.7645 4.47989 27.7624 4.51976 27.786 4.54495C28.1386 4.93162 28.7697 5.3419 29.7876 5.3419C31.1469 5.3419 31.7361 4.66194 31.7361 3.71809C31.7361 2.99302 31.3888 2.50195 30.3615 2.16249L29.6816 1.93584C29.4324 1.85295 29.3191 1.75484 29.3191 1.55809C29.3191 1.36135 29.4854 1.2029 29.8175 1.2029C30.2136 1.2029 30.4817 1.34508 30.6905 1.55442C30.6957 1.55967 31.2865 0.961034 31.4518 0.793145C31.4759 0.769011 31.4775 0.729662 31.4539 0.704478C31.1448 0.36765 30.6092 0.0701734 29.7419 0.0701734C28.828 0.0701734 27.9896 0.591153 27.9896 1.60321C27.9896 2.44895 28.5184 2.90226 29.2661 3.15147L29.8705 3.35556C30.2104 3.46888 30.3762 3.57486 30.3762 3.79364C30.3762 4.08063 30.1344 4.2013 29.7267 4.2013C29.2435 4.2013 28.9203 3.95524 28.6763 3.66825C28.6517 3.63939 28.6071 3.63677 28.5803 3.66405L27.7881 4.45628L27.7886 4.45576ZM27.0877 5.35659C27.1711 5.42427 27.1932 5.40171 27.1932 5.34137V0.195041C27.1932 0.159365 27.1643 0.129982 27.1281 0.129982H25.9665C25.9303 0.129982 25.9015 0.15884 25.9015 0.195041V2.70551L22.6764 0.0470885C22.5935 -0.0211166 22.5709 0.0166574 22.5709 0.0623023V5.20077C22.5709 5.23644 22.5998 5.26582 22.636 5.26582H23.7976C23.8333 5.26582 23.8626 5.23644 23.8626 5.20077V2.70551L27.0877 5.35659ZM4.51235 5.35659C4.59577 5.42427 4.61781 5.40171 4.61781 5.34137V0.197139C4.61781 0.161462 4.58895 0.132082 4.55275 0.132082H3.39117C3.35497 0.132082 3.32611 0.160938 3.32611 0.197139V2.70551L0.101061 0.0470885C0.0181656 -0.0211166 -0.00439453 0.0166574 -0.00439453 0.0623023V5.20077C-0.00439453 5.23644 0.0244614 5.26582 0.0606626 5.26582H1.22225C1.25792 5.26582 1.2873 5.23644 1.2873 5.20077V2.70551L4.51235 5.35659ZM8.48503 4.64673H6.69544L6.45515 5.22595C6.44518 5.25008 6.42157 5.26582 6.39534 5.26582H5.19703C5.14928 5.26582 5.1178 5.21598 5.13827 5.17296L7.59365 0.0397426C7.61621 -0.0132475 7.66185 -0.0132475 7.68441 0.0397426L10.1324 5.17296C10.1529 5.21598 10.122 5.26582 10.0737 5.26582H8.7993C8.77359 5.26582 8.75051 5.25061 8.74002 5.227L8.48503 4.64621V4.64673ZM7.11831 3.64989H8.04747L7.57896 2.56228L7.11831 3.64989Z" fill="white"/>
</svg>
