<svg width="12" height="11" viewBox="0 0 12 11" fill="none" xmlns="http://www.w3.org/2000/svg">
<path d="M7.57946 3.51836L7.5314 3.46271C8.2258 2.30221 7.65029 1.06077 6.58656 0.416968C5.43365 -0.280593 4.11695 -0.00928564 2.89701 0.54598C1.67707 1.10125 0.607016 1.91644 0.376182 3.24452C0.163056 4.46952 0.721483 5.71856 2.05336 5.95698L2.06348 6.02971C0.588675 6.63304 -0.794431 8.08381 0.538714 9.8704C1.26473 10.8437 2.9046 11.0315 4.10684 10.9335C5.16804 10.8469 6.24062 10.5427 7.24112 10.0873C8.24161 9.63198 9.17443 9.02296 9.93649 8.27923C10.7997 7.43685 11.7345 6.07651 11.4771 4.89008C11.0047 2.71076 9.00241 2.80246 7.57883 3.51836H7.57946ZM3.0665 3.86303C2.97227 3.53101 3.03298 3.10096 3.88359 2.71329C4.7342 2.32625 5.09847 2.56277 5.28693 2.85179C5.6139 3.35267 5.14084 3.89718 4.55016 4.17798C3.95063 4.43853 3.22967 4.43854 3.0665 3.86303ZM6.26908 7.9529C5.13136 8.47085 3.82351 8.63908 3.69766 7.88144C3.56675 7.0947 4.8278 6.48758 5.4697 6.1954C6.11161 5.90322 7.39606 5.35112 7.90389 5.96647C8.39276 6.55841 7.40744 7.43495 6.26908 7.9529Z" fill="#00C878"/>
</svg>
