<svg width="8" height="4" viewBox="0 0 8 4" fill="none" xmlns="http://www.w3.org/2000/svg">
<path d="M1.14217 3.95274C0.820559 3.95274 0.50052 3.92861 0.17366 3.89241L0 3.80689L0.0508913 3.67468C1.48582 2.49525 2.41131 1.34049 3.35359 0.124868L3.53722 0L3.70406 0.0167877C4.64949 0.569773 5.71138 1.18257 7.12952 1.84311L7.161 1.93702L6.96688 2.16945C6.53299 2.4685 6.02933 2.76965 5.51149 3.01361L5.43961 2.97059L5.36459 2.92914C5.32419 2.46535 5.08652 2.09442 4.7051 1.90502C4.48527 1.79589 4.24445 1.7408 3.98947 1.7408C3.31214 1.7408 2.61278 2.12905 2.2067 2.72978C1.97637 3.0708 1.86305 3.45117 1.88036 3.8347L1.81583 3.9092L1.75339 3.98265C1.53724 3.99577 1.33682 3.95274 1.14165 3.95274H1.14217Z" fill="url(#paint0_linear_1587_26279)"/>
<defs>
<linearGradient id="paint0_linear_1587_26279" x1="4.96165" y1="1.37197" x2="16.8167" y2="-2.29116" gradientUnits="userSpaceOnUse">
<stop stop-color="#009E4C"/>
<stop offset="0.5" stop-color="#007E38"/>
<stop offset="1" stop-color="#009E4C"/>
</linearGradient>
</defs>
</svg>
