<svg width="5" height="2" viewBox="0 0 5 2" fill="none" xmlns="http://www.w3.org/2000/svg">
<path d="M4.55179 0.354156C4.41582 0.34214 4.08316 0.292179 4.07937 0.349729C4.07558 0.39969 4.64855 0.507835 4.55305 0.605228C4.42151 0.739301 4.37661 0.982783 4.37155 1.18326C4.36206 1.50833 4.48728 1.57094 4.44111 1.64366C4.41013 1.69236 4.19321 1.67276 3.74482 1.64113C3.409 1.58928 3.05042 1.55007 2.695 1.55007C2.18906 1.55007 1.59648 1.6209 1.1247 1.71702C0.657337 1.81315 0.260176 1.8979 0.224128 1.84288C0.178594 1.77268 0.302549 1.72651 0.293695 1.41409C0.288003 1.22121 0.298121 0.999226 0.167843 0.868947C0.0653904 0.765863 0.592198 0.580563 0.589669 0.52491C0.586507 0.462933 0.308873 0.521748 0.172902 0.533764C0.0970116 0.54072 -0.014294 0.572341 0.0015165 0.507834C0.625716 0.203007 1.68882 0 2.695 0C3.43746 0 4.16791 0.0980257 4.79274 0.28206C4.80855 0.306092 4.61503 0.359216 4.55242 0.353524L4.55179 0.354156Z" fill="url(#paint0_linear_1587_25616)"/>
<defs>
<linearGradient id="paint0_linear_1587_25616" x1="-0.000380774" y1="0.930924" x2="4.79337" y2="0.930924" gradientUnits="userSpaceOnUse">
<stop offset="0.16" stop-color="#D9E4F5"/>
<stop offset="0.49" stop-color="#E8EFFB"/>
</linearGradient>
</defs>
</svg>
