<svg width="14" height="5" viewBox="0 0 14 5" fill="none" xmlns="http://www.w3.org/2000/svg">
<path d="M0.000524566 2.53014C0.000524566 3.59624 0.728744 4.12037 1.71877 4.12037C2.70879 4.12037 3.43701 3.59624 3.43701 2.53014V0.151362C3.43701 0.123555 3.41445 0.101519 3.38717 0.101519H2.42705C2.39924 0.101519 2.37668 0.12408 2.37668 0.151362V2.5186C2.37668 2.97033 2.1642 3.22741 1.70827 3.22321C1.34679 3.22006 1.06033 2.91524 1.06033 2.55375V0.151362C1.06033 0.123555 1.03777 0.101519 1.00996 0.101519H0.0498422C0.0220355 0.101519 0 0.12408 0 0.151362V2.53014M4.1285 0.100994C4.1007 0.100994 4.07866 0.123555 4.07866 0.150837V4.01124C4.07866 4.03905 4.10122 4.06161 4.1285 4.06161H6.88818C6.91599 4.06161 6.93803 4.03905 6.93803 4.01124V3.22059C6.93803 3.19278 6.91547 3.17022 6.88818 3.17022H5.13846V2.4887H6.52145C6.54926 2.4887 6.57129 2.46613 6.57129 2.43833V1.69384C6.57129 1.66604 6.54873 1.644 6.52145 1.644H5.13846V0.991859H6.80686C6.83467 0.991859 6.8567 0.969298 6.8567 0.942016V0.150837C6.8567 0.12303 6.83467 0.100994 6.80686 0.100994H4.1285ZM7.5015 0.100994C7.4737 0.100994 7.45166 0.123555 7.45166 0.150837V4.01124C7.45166 4.03905 7.47422 4.06161 7.5015 4.06161H8.46162C8.48943 4.06161 8.51146 4.03905 8.51146 4.01124V2.68702H9.90022C9.92751 2.68702 9.95007 2.66498 9.95007 2.63717V1.84547C9.95007 1.81819 9.92751 1.79563 9.90022 1.79563H8.51146V0.991859H10.1652C10.1846 0.991859 10.2019 0.980839 10.2098 0.963526L10.5859 0.171824C10.6017 0.138771 10.5776 0.100469 10.5413 0.100469H7.5015M12.5261 3.58417H11.1458L10.9605 4.03118C10.9527 4.04954 10.9348 4.06161 10.9149 4.06161H9.98994C9.95321 4.06161 9.92908 4.02331 9.94534 3.99026L11.8393 0.0306923C11.8567 -0.0102308 11.8918 -0.0102308 11.9091 0.0306923L13.7974 3.99026C13.8131 4.02331 13.789 4.06161 13.7522 4.06161H12.7685C12.7486 4.06161 12.7307 4.05006 12.7229 4.0317L12.5261 3.58365V3.58417ZM11.4721 2.81555H12.1888L11.8278 1.97663L11.4726 2.81555H11.4721Z" fill="white"/>
</svg>
