<svg width="43" height="14" viewBox="0 0 43 14" fill="none" xmlns="http://www.w3.org/2000/svg">
<path d="M8.45365 7.0243V11.047C8.45365 11.047 8.07277 11.3294 7.40659 11.3294C6.63527 11.3294 6.37424 11.0191 6.37424 10.4492L6.37571 6.4221C6.37571 6.4221 5.26763 6.4713 5.26763 7.025V10.5279C5.26763 11.4419 5.78233 12.2948 7.40659 12.2948C9.03085 12.2948 9.55879 11.7551 9.55879 11.7551V6.4118C9.55879 6.4118 8.45365 6.4706 8.45365 7.0243ZM11.411 7.2331C11.1507 8.1287 9.97202 12.1617 9.97202 12.1617H11.1132C11.1132 12.1617 12.0529 8.4059 12.1786 7.8846C12.272 7.4868 12.5404 7.4596 12.5404 7.4596L13.1514 9.886H11.9058L11.6617 10.8625H13.3941L13.7198 12.1625H14.8602L13.1764 6.3324C13.1764 6.3324 11.6683 6.3375 11.4117 7.2346L11.411 7.2331ZM2.20882 6.2699C0.612498 6.2699 0 6.7147 0 9.2868C0 11.675 0.528675 12.2272 1.87867 12.2934L2.14779 12.9294C2.42058 13.5338 3.46984 13.3 3.46984 13.3L3.02278 12.2426H3.02131C4.01543 12.0529 4.41616 11.3647 4.41616 9.2875C4.41616 6.7154 3.80146 6.2706 2.20955 6.2706L2.20882 6.2699ZM2.20882 11.3301C1.37132 11.3301 1.10294 10.9081 1.10294 9.2868C1.10294 7.6654 1.37132 7.2397 2.20882 7.2397C3.04631 7.2397 3.31322 7.6647 3.31322 9.2868C3.31322 10.9088 3.04337 11.3301 2.20882 11.3301ZM40.6852 8.964C40.3565 8.8176 39.4116 8.3971 39.308 8.3507C38.9668 8.2044 38.8844 7.9088 38.9969 7.6515C39.0903 7.4412 39.3256 7.3287 39.705 7.3287C40.116 7.3287 40.6197 7.4647 40.9212 7.4956C41.2837 7.5316 41.7263 6.7463 41.7263 6.7463C41.7263 6.7463 40.8557 6.2985 39.7234 6.2985C38.6668 6.2985 37.9874 6.7448 37.8116 7.5529C37.6455 8.3162 38.1094 9.0485 38.9947 9.4147C39.2057 9.5037 40.0499 9.8669 40.2403 9.9375C40.2469 9.9426 40.916 10.2081 40.8278 10.714C40.7528 11.1117 40.4021 11.3081 39.7697 11.314C39.2955 11.3169 38.641 11.0867 38.3572 11.0779C37.8947 11.0588 37.5374 11.7676 37.5374 11.7676C37.5374 11.7676 38.4462 12.3463 39.7918 12.3463C41.1374 12.3463 41.9403 11.7367 42.0212 10.7191C42.0947 9.761 41.6904 9.4176 40.6852 8.964ZM35.8205 9.9529C36.6896 9.6618 37.0418 8.9404 37.0418 8.2493C37.0418 7.3573 36.4616 6.4096 34.9271 6.4096H32.819V12.1617H33.9271V10.0912H34.6278L35.8131 11.8066C35.8131 11.8066 36.0241 12.164 36.4859 12.164H37.3675L35.8315 9.9537L35.8205 9.9529ZM34.9271 9.1118H33.9271V7.3897L34.9271 7.3882C35.6594 7.386 35.9219 7.7096 35.93 8.2493C35.9219 8.7912 35.6594 9.114 34.9271 9.1118ZM19.6264 12.161H20.7374V6.4088H19.6264V12.161ZM26.2903 12.161H27.4014V6.4088H26.2903V12.161ZM31.6536 7.3875C32.0286 7.3875 32.1844 6.4088 32.1844 6.4088H28.1925V12.161H31.6528C32.0278 12.161 32.1837 11.1845 32.1837 11.1845H29.2992V9.6875H31.1933C31.5697 9.6875 31.7286 8.7125 31.7286 8.7125H29.2992V7.3882H31.6521L31.6536 7.3875ZM16.2558 6.4088H15.1492V12.161H18.6088C18.9838 12.161 19.144 11.1845 19.144 11.1845H16.2558V6.4088ZM21.6477 12.161H22.7543V9.6875H24.6499C25.0227 9.6875 25.1845 8.7125 25.1845 8.7125H22.7543V7.3882H25.1029C25.4793 7.3882 25.6381 6.4096 25.6381 6.4096H21.6477V12.161ZM10.2426 5.0816C11.6154 5.0816 12.0551 4.6294 12.0551 4.6294V0.118399C12.0551 0.118399 11.1242 0.1691 11.1242 0.636V4.0324C11.1242 4.0324 10.8029 4.2684 10.2426 4.2684C9.59041 4.2684 9.37129 4.0066 9.37129 3.5287V0.127998C9.37129 0.127998 8.43526 0.1684 8.43526 0.6353V3.5919C8.43526 4.3625 8.86765 5.0816 10.2426 5.0816ZM31.8352 0.0536995C31.8352 0.0536995 30.5609 0.0565992 30.3433 0.813299C30.1286 1.5684 29.1286 4.9713 29.1286 4.9713H30.0933C30.0933 4.9713 30.8911 1.8015 30.994 1.3618C31.0727 1.0258 31.2999 1.0015 31.2999 1.0015L31.8087 3.0515H30.7602L30.5536 3.8757H32.0183L32.2947 4.9713H33.2521L31.8337 0.0536995H31.8352ZM13.8617 3.2243H14.4529L15.4558 4.6728C15.4558 4.6728 15.6316 4.9757 16.0227 4.9757H16.7683L15.4705 3.1081L15.4639 3.1103C16.1963 2.8632 16.4941 2.2552 16.4941 1.6713C16.4941 0.916901 16.0044 0.116899 14.7066 0.116899H12.925V4.9721H13.8625V3.225L13.8617 3.2243ZM13.8617 0.946299L14.7058 0.944098C15.3264 0.942698 15.547 1.2147 15.5536 1.6713C15.547 2.1265 15.3264 2.4015 14.7058 2.3993L13.8617 2.3971V0.946299ZM7.88085 4.1478H5.4463V2.8846H7.04336C7.3588 2.8846 7.49703 2.0596 7.49703 2.0596H5.4463V0.9419H7.42865C7.74777 0.9419 7.88085 0.116199 7.88085 0.116199H4.51175V4.9713H7.42865C7.74777 4.9713 7.88085 4.1478 7.88085 4.1478ZM28.8639 4.1478H26.4308V2.8846H28.0256C28.3411 2.8846 28.4771 2.0596 28.4771 2.0596H26.4308V0.9419H28.4124C28.7293 0.9419 28.8639 0.116199 28.8639 0.116199H25.4926V4.9713H28.4124C28.7293 4.9713 28.8639 4.1478 28.8639 4.1478ZM36.5844 3.9132C36.5844 3.9132 35.533 1.3309 35.1734 0.6346C35.0175 0.3338 34.7447 0.118399 34.4668 0.118399H33.7197V4.975H34.6484V1.528C34.6484 1.528 35.4234 3.7838 35.7359 4.425C35.9293 4.8154 36.2535 4.975 36.5396 4.975H37.5205V0.118399H36.5852L36.5844 3.9132ZM18.9279 0C17.5816 0 17.0646 0.375001 17.0646 2.5463C17.0646 4.7177 17.5823 5.0904 18.9279 5.0904C20.2735 5.0904 20.7933 4.7169 20.7933 2.5463C20.7933 0.375801 20.2757 0 18.9279 0ZM18.9279 4.2721C18.2242 4.2721 17.9999 3.9132 17.9999 2.5463C17.9999 1.1794 18.2242 0.820601 18.9279 0.820601C19.6315 0.820601 19.8602 1.175 19.8602 2.5463C19.8602 3.9177 19.636 4.2721 18.9279 4.2721ZM22.4477 3.2243H23.2933C24.5896 3.2243 25.0742 2.4287 25.0742 1.6728C25.0742 0.9177 24.5896 0.118399 23.2933 0.118399H21.5102V4.975H22.4477V3.2243ZM22.4477 0.949301H23.2933C23.9124 0.949301 24.133 1.2162 24.1411 1.6728C24.133 2.1257 23.9117 2.3971 23.2933 2.3971H22.4477V0.949301Z" fill="white"/>
</svg>
