<svg width="3" height="4" viewBox="0 0 3 4" fill="none" xmlns="http://www.w3.org/2000/svg">
<path d="M2.01944 2.00035C1.9834 2.65048 2.05802 2.93444 1.97707 3.12543C1.7981 3.09823 1.5641 3.0742 1.25485 3.0742C0.809621 3.0742 0.590171 3.10898 0.43839 3.13744C0.307479 3.15072 0.267004 3.09381 0.261945 3.02045C0.249296 2.8421 0.270798 2.52589 0.274593 2.32858C0.285344 1.76572 0.232221 1.37994 0.15886 0.965076C0.0627316 0.418664 -0.0327638 0.216288 0.0108733 0.197948C0.428271 0.0240323 0.927252 0 1.24599 0C1.53944 0 1.87462 0.00316272 2.33312 0.142928C2.15415 0.886023 2.05233 1.42864 2.02008 2.00035H2.01944Z" fill="url(#paint0_linear_3091_43910)"/>
<defs>
<linearGradient id="paint0_linear_3091_43910" x1="-0.000510303" y1="1.56967" x2="2.33249" y2="1.56967" gradientUnits="userSpaceOnUse">
<stop offset="0.16" stop-color="#F6F9FD"/>
<stop offset="0.49" stop-color="#FAFBFE"/>
</linearGradient>
</defs>
</svg>
