<svg width="3" height="1" viewBox="0 0 3 1" fill="none" xmlns="http://www.w3.org/2000/svg">
<path d="M0.00141698 0.121467C-0.014399 0.118936 0.103905 0.0917325 0.270289 0.0619985C0.276615 0.0607332 0.283575 0.0601003 0.290534 0.0588351C0.528407 0.0253051 0.818156 0 1.19964 0C1.39069 0 1.56973 0.00632625 1.74497 0.0196117C1.82405 0.0253055 1.94236 0.0385907 2.05054 0.0550394C1.99487 0.194853 2.15619 0.594049 1.94742 0.883798C1.94299 0.883166 1.9373 0.882533 1.93097 0.881267C1.89364 0.874308 1.68614 0.829391 1.30466 0.823064C1.28694 0.823064 1.26796 0.823065 1.24962 0.822432C1.23127 0.8218 1.21103 0.822432 1.19078 0.822432C0.701117 0.822432 0.426551 0.885696 0.222209 0.927451C0.200066 0.929981 0.201332 0.910369 0.208291 0.901512C0.224739 0.880635 0.24182 0.869247 0.24182 0.869247C0.24182 0.869247 0.225372 0.864819 0.220311 0.841412C0.214617 0.816739 0.238025 0.7908 0.238025 0.7908C0.237392 0.7908 0.228535 0.786371 0.209556 0.726271C0.177924 0.626313 0.139965 0.368196 0.142495 0.262545C0.145026 0.156894 0.202597 0.105651 0.202597 0.105651C0.202597 0.105651 0.0235594 0.126528 0.00141698 0.122099V0.121467Z" fill="url(#paint0_linear_1587_25474)"/>
<defs>
<linearGradient id="paint0_linear_1587_25474" x1="0.000151698" y1="0.463093" x2="2.05876" y2="0.463093" gradientUnits="userSpaceOnUse">
<stop offset="0.16" stop-color="#C7D3E4"/>
<stop offset="0.49" stop-color="#D0D9E8"/>
</linearGradient>
</defs>
</svg>
