<svg width="4" height="4" viewBox="0 0 4 4" fill="none" xmlns="http://www.w3.org/2000/svg">
<path d="M3.28694 2.1714C3.32136 1.8677 3.22924 1.5853 3.0035 1.3079L1.93957 0L1.41317 0.4282L2.38903 1.6298C2.5591 1.8383 2.60668 1.9537 2.59048 2.1248C2.57833 2.2595 2.49633 2.3981 2.36474 2.5054C2.23415 2.6117 2.08129 2.6644 1.94666 2.6482C1.77659 2.6289 1.67333 2.5591 1.50327 2.3495L0.5264 1.149L0 1.5772L1.06393 2.8861C1.28967 3.1634 1.54781 3.3112 1.8515 3.3396C1.88693 3.3426 1.92236 3.3446 1.95779 3.3446C2.25237 3.3477 2.52569 3.2434 2.79091 3.0288C3.08651 2.7879 3.24847 2.5075 3.28593 2.1724L3.28694 2.1714Z" fill="white"/>
</svg>
