<svg width="3" height="1" viewBox="0 0 3 1" fill="none" xmlns="http://www.w3.org/2000/svg">
<path d="M0.00141698 0.121467C-0.014399 0.118936 0.103905 0.0917325 0.270289 0.0619985C0.276615 0.0607332 0.283575 0.0601003 0.290534 0.0588351C0.528407 0.0253051 0.818156 0 1.19964 0C1.38247 0 1.55392 0.00506104 1.72536 0.0177138C1.80634 0.0234076 1.91642 0.0354274 2.02017 0.0499781C1.96323 0.1822 2.12329 0.618721 1.92021 0.878104C1.91515 0.877471 1.91072 0.876839 1.9044 0.875574C1.8772 0.870513 1.69373 0.828126 1.30086 0.822432C1.28378 0.822432 1.26606 0.822432 1.24772 0.821799C1.22937 0.821166 1.21039 0.821799 1.19078 0.821799C0.701117 0.821799 0.426551 0.885063 0.222209 0.926817C0.200066 0.929348 0.201332 0.909736 0.208291 0.900879C0.224739 0.880002 0.24182 0.868615 0.24182 0.868615C0.24182 0.868615 0.225372 0.864186 0.220311 0.840778C0.214617 0.816105 0.237391 0.7908 0.237391 0.7908C0.236759 0.7908 0.228535 0.785739 0.209556 0.725638C0.177924 0.625681 0.139965 0.367564 0.142495 0.261913C0.145026 0.156262 0.202597 0.105018 0.202597 0.105018C0.202597 0.105018 0.0235594 0.125895 0.00141698 0.121467Z" fill="url(#paint0_linear_3091_43834)"/>
<defs>
<linearGradient id="paint0_linear_3091_43834" x1="0.000151698" y1="0.463092" x2="2.02713" y2="0.463092" gradientUnits="userSpaceOnUse">
<stop offset="0.16" stop-color="#BDCCE0"/>
<stop offset="0.49" stop-color="#C8D2E4"/>
</linearGradient>
</defs>
</svg>
