<svg width="6" height="4" viewBox="0 0 6 4" fill="none" xmlns="http://www.w3.org/2000/svg">
<path d="M5.43279 3.92074C4.99995 3.88716 4.61958 3.82578 4.18097 3.6857L4.1007 3.58391L4.01308 3.47846C3.96743 3.20511 3.84152 2.82736 3.51676 2.41341C2.9984 1.75287 2.426 1.35833 1.98582 1.35833C1.83419 1.35833 1.70355 1.40502 1.5981 1.49736C1.43493 1.63954 1.38246 1.94804 1.45382 2.34835L1.39086 2.39924L1.32737 2.45014C0.933359 2.29169 0.590235 2.1684 0.202516 2.05192L0 1.92548L0.0015739 1.8258C0.786456 1.0981 1.55455 0.520982 2.27438 0.00209906L2.39767 0L2.61383 0.19045C3.61434 1.61016 4.58338 2.78329 5.57392 3.77121L5.5797 3.86828L5.43332 3.92074H5.43279Z" fill="url(#paint0_linear_1587_26253)"/>
<defs>
<linearGradient id="paint0_linear_1587_26253" x1="-2.94961" y1="3.10123" x2="8.59961" y2="1.16683" gradientUnits="userSpaceOnUse">
<stop stop-color="#144391"/>
<stop offset="0.5" stop-color="#212A72"/>
<stop offset="1" stop-color="#144391"/>
</linearGradient>
</defs>
</svg>
