<svg width="5" height="1" viewBox="0 0 5 1" fill="none" xmlns="http://www.w3.org/2000/svg">
<path d="M1.59648 0.0917009C1.96645 0.0354154 2.3731 0.00316211 2.81959 0C2.84552 0 2.87208 0 2.89801 0C3.31667 0 3.70055 0.0284585 4.05281 0.0746253C4.07494 0.0777874 4.09645 0.080317 4.11858 0.0834791C4.17234 0.0910682 4.22546 0.0992896 4.27795 0.108144C4.29313 0.110673 4.30831 0.113204 4.32285 0.115733C4.32349 0.115733 4.32412 0.115733 4.32475 0.115733C5.00081 0.298503 5.18484 0.45977 4.50499 0.395895C4.44934 0.384512 4.39368 0.374393 4.33803 0.365539C4.26404 0.352891 4.18941 0.341508 4.11479 0.331389C2.80757 0.151781 1.41624 0.264985 0.239941 0.662145C-0.0636216 0.764598 -0.0806968 0.706415 0.197569 0.546412C0.581448 0.326962 1.1032 0.184034 1.59585 0.0917009H1.59648Z" fill="url(#paint0_linear_3091_44022)"/>
<defs>
<linearGradient id="paint0_linear_3091_44022" x1="0.000253079" y1="0.356686" x2="4.93251" y2="0.356686" gradientUnits="userSpaceOnUse">
<stop offset="0.16" stop-color="#CFDCF3"/>
<stop offset="0.49" stop-color="#E2EBFA"/>
</linearGradient>
</defs>
</svg>
