<svg width="5" height="2" viewBox="0 0 5 2" fill="none" xmlns="http://www.w3.org/2000/svg">
<path d="M4.74531 0.42305C4.60931 0.41105 4.21281 0.32445 4.21091 0.38195C4.20961 0.42055 4.81742 0.544551 4.72192 0.641951C4.59042 0.775951 4.54551 1.03905 4.54041 1.23955C4.53091 1.56465 4.65612 1.62725 4.61001 1.69995C4.58342 1.74235 4.37661 1.71635 4.01991 1.68535C3.60571 1.61145 3.14781 1.55005 2.69501 1.55005C2.18911 1.55005 1.59652 1.62085 1.12472 1.71705C0.657315 1.81315 0.260215 1.89785 0.224115 1.84285C0.178615 1.77265 0.302515 1.72655 0.293715 1.41405C0.288015 1.22125 0.298114 0.99925 0.167814 0.86895C0.0654145 0.76585 0.592214 0.58055 0.589714 0.52495C0.586514 0.46295 0.308915 0.521751 0.172915 0.533751C0.0970147 0.540751 -0.0142854 0.572351 0.00151464 0.507851C0.625715 0.203051 1.68881 0 2.69501 0C3.49821 0 4.28741 0.11383 4.94451 0.32825C4.94141 0.37435 4.81041 0.42875 4.74531 0.42305Z" fill="url(#paint0_linear_1591_39918)"/>
<defs>
<linearGradient id="paint0_linear_1591_39918" x1="-0.000385357" y1="0.93025" x2="4.94391" y2="0.93025" gradientUnits="userSpaceOnUse">
<stop offset="0.16" stop-color="#F2F6FC"/>
<stop offset="0.49" stop-color="#F7FAFE"/>
</linearGradient>
</defs>
</svg>
