<svg width="3" height="4" viewBox="0 0 3 4" fill="none" xmlns="http://www.w3.org/2000/svg">
<path d="M1.9935 2.0149C1.9632 2.6391 2.0334 2.9351 1.953 3.1223C1.7747 3.0957 1.5527 3.0742 1.2548 3.0742C0.8096 3.0742 0.5902 3.109 0.4384 3.1374C0.3075 3.1507 0.267 3.0938 0.2619 3.0204C0.2493 2.8421 0.2708 2.5259 0.2746 2.3286C0.2853 1.7657 0.232199 1.3799 0.1589 0.965099C0.0626995 0.418699 -0.0328003 0.2163 0.0108997 0.1979C0.4283 0.0239998 0.9273 0 1.246 0C1.5306 0 1.855 0.00249915 2.2946 0.132799C2.1213 0.909999 2.0226 1.4135 1.9935 2.0149Z" fill="url(#paint0_linear_1591_39880)"/>
<defs>
<linearGradient id="paint0_linear_1591_39880" x1="-0.000500279" y1="1.5697" x2="2.2946" y2="1.5697" gradientUnits="userSpaceOnUse">
<stop offset="0.16" stop-color="#EFF3FB"/>
<stop offset="0.49" stop-color="#F5F8FD"/>
</linearGradient>
</defs>
</svg>
