<svg width="6" height="4" viewBox="0 0 6 4" fill="none" xmlns="http://www.w3.org/2000/svg">
<path d="M1.04721 3.26335C0.754452 3.26335 0.45645 3.23869 0.16002 3.20406L0 3.11959L0.00524686 3.01781C0.89611 2.14216 1.74815 1.19201 2.61068 0.110178L2.78487 0L2.93229 0.0346274C3.66471 0.664212 4.44067 1.25287 5.29533 1.82737L5.35724 1.95329L5.20824 2.11331C4.90027 2.28067 4.59177 2.4344 4.28852 2.56451L4.21455 2.51781L4.13952 2.47427C4.10752 2.14111 3.98265 1.86514 3.78328 1.69096C3.57604 1.50943 3.32473 1.41394 3.05664 1.41394C2.62485 1.41394 2.17784 1.66158 1.83052 2.09389C1.59442 2.3877 1.45329 2.75548 1.4407 3.11435L1.37092 3.18727L1.30167 3.25915C1.2172 3.2623 1.13063 3.2644 1.04616 3.2644L1.04721 3.26335Z" fill="url(#paint0_linear_1587_26254)"/>
<defs>
<linearGradient id="paint0_linear_1587_26254" x1="-7.23393" y1="3.18255" x2="4.29272" y2="1.25182" gradientUnits="userSpaceOnUse">
<stop stop-color="#144391"/>
<stop offset="0.5" stop-color="#212A72"/>
<stop offset="1" stop-color="#144391"/>
</linearGradient>
</defs>
</svg>
