<svg width="3" height="1" viewBox="0 0 3 1" fill="none" xmlns="http://www.w3.org/2000/svg">
<path d="M0.00141432 0.1215C-0.0143857 0.119 0.103914 0.0924003 0.270214 0.0620003C0.276614 0.0608003 0.283514 0.0600999 0.290514 0.0588999C0.528414 0.0252999 0.818114 0 1.19961 0C1.40841 0 1.60201 0.00829949 1.78421 0.0227995C1.86011 0.0284995 1.99551 0.045 2.11121 0.0646C2.05811 0.2183 2.22191 0.5441 2.00181 0.8952C1.99741 0.8946 1.99171 0.8933 1.98471 0.8921C1.92711 0.8813 1.67221 0.8307 1.31281 0.8231C1.29321 0.8231 1.27361 0.8225 1.25341 0.8225C1.23311 0.8225 1.21221 0.8225 1.19071 0.8225C0.701114 0.8225 0.426514 0.8857 0.222214 0.9275C0.200014 0.93 0.201314 0.9104 0.208214 0.9015C0.224714 0.8807 0.241814 0.8693 0.241814 0.8693C0.241814 0.8693 0.225314 0.8649 0.220314 0.8414C0.214614 0.8168 0.238614 0.7896 0.238614 0.7896C0.238014 0.7896 0.228514 0.7864 0.209514 0.7263C0.177914 0.6263 0.139914 0.3682 0.142514 0.2626C0.145014 0.1569 0.202614 0.1057 0.202614 0.1057C0.202614 0.1057 0.0235143 0.126 0.00141432 0.1215Z" fill="url(#paint0_linear_1591_39793)"/>
<defs>
<linearGradient id="paint0_linear_1591_39793" x1="0.000114319" y1="0.4631" x2="2.12141" y2="0.4631" gradientUnits="userSpaceOnUse">
<stop offset="0.16" stop-color="#DAE3EE"/>
<stop offset="0.49" stop-color="#E0E6F0"/>
</linearGradient>
</defs>
</svg>
