<svg width="3" height="17" viewBox="0 0 3 17" fill="none" xmlns="http://www.w3.org/2000/svg">
<path d="M0.11104 0.246447C0.990448 3.20011 2.27353 4.17143 2.875 4.57952C2.65662 4.5479 2.45441 4.50967 2.32353 4.47217C2.28971 4.46261 2.25662 4.45746 2.22353 4.45746C2.1103 4.45525 2.00368 4.50231 1.9228 4.59202C1.41618 5.15011 1.76692 8.2626 1.77059 8.29348C1.90074 9.41921 1.61618 15.2214 1.41692 16.5589C1.23971 16.614 1.06545 16.6582 0.881625 16.714C0.985301 16.1317 1.17795 14.6633 1.33236 13.3574C1.33604 13.3258 1.62574 9.58759 1.56618 8.42362C1.42795 5.65599 1.31839 4.5729 1.13162 4.1332C1.06912 3.9854 0.959566 3.75305 0.79339 3.6707C0.627214 3.58835 0.0205991 0.297917 0.0205991 0.297917C0.0205991 0.297917 -0.0639601 -0.336639 0.109569 0.246447H0.11104Z" fill="#5E0C00"/>
</svg>
