<svg width="26" height="5" viewBox="0 0 26 5" fill="none" xmlns="http://www.w3.org/2000/svg">
<path d="M4.52377 2.90622V2.86651H5.66646C6.12343 2.86651 6.49426 2.49568 6.49426 2.03872V1.91399H4.52377C4.52377 1.43577 4.91194 1.0476 5.39016 1.0476H6.66653V0.0950816H5.26208C4.26984 0.0950816 3.46554 0.899386 3.46554 1.89162V2.92804C3.46554 3.92027 4.26984 4.72457 5.26208 4.72457H6.71966V3.77205H5.39016C4.91194 3.77205 4.52377 3.38444 4.52377 2.90566V2.90622ZM23.7213 3.77261C23.2431 3.77261 22.8549 3.385 22.8549 2.90622V2.86651H23.9976C24.4546 2.86651 24.8254 2.49568 24.8254 2.03872V1.91399H22.8549C22.8549 1.43577 23.2431 1.0476 23.7213 1.0476H24.9977V0.0950816H23.5932C22.601 0.0950816 21.7967 0.899386 21.7967 1.89162V2.92804C21.7967 3.92027 22.601 4.72457 23.5932 4.72457H25.0508V3.77205H23.7213V3.77261ZM1.05823 3.47505V0.0950816H0V3.89174C0 4.3515 0.373066 4.72457 0.832826 4.72457H3.17134V3.77205H1.35523C1.19135 3.77205 1.05823 3.63893 1.05823 3.47505ZM20.0471 2.87881C20.0471 3.50078 19.73 3.88391 19.1477 3.88391C18.5655 3.88391 18.2484 3.50022 18.2484 2.87881V0.0956414H17.1901V2.9381C17.1901 4.22789 18.0828 4.83587 19.1477 4.83587C20.2127 4.83587 21.1054 4.22789 21.1054 2.9381V0.0956414H20.0471V2.87881ZM16.1369 2.24455H14.1424V2.41402C14.1424 2.78149 14.4399 3.07905 14.8074 3.07905H15.5854V3.16519C15.5854 3.34808 15.4959 3.51923 15.3455 3.62271C15.1251 3.77373 14.8427 3.87384 14.5166 3.87384C13.7084 3.87384 13.1004 3.39954 13.1004 2.41794C13.1004 1.43633 13.7621 0.96147 14.3963 0.96147C14.9775 0.96147 15.3516 1.24225 15.5049 1.76297L16.5268 1.46262C16.2863 0.587843 15.605 0 14.4092 0C13.1267 0 12.0315 0.921757 12.0315 2.41794C12.0315 3.91412 13.1138 4.83531 14.4226 4.83531C15.0496 4.83531 15.5289 4.68262 15.9255 4.4175C16.3416 4.13896 16.5805 3.66186 16.5805 3.16127V2.68753C16.5805 2.44255 16.3819 2.24399 16.1369 2.24399V2.24455ZM8.94743 0.0950816L7.06924 4.72457H8.26618L9.50955 1.47045L10.1461 3.13554H9.19241C9.19241 3.6613 9.61861 4.08806 10.1449 4.08806H10.5102L10.7535 4.72457H11.9504L10.0722 0.0950816H8.94799H8.94743Z" fill="white"/>
</svg>
