<svg width="5" height="2" viewBox="0 0 5 2" fill="none" xmlns="http://www.w3.org/2000/svg">
<path d="M4.46141 0.32065C4.32541 0.30865 4.02311 0.27575 4.01741 0.33325C4.01171 0.39085 4.56891 0.48945 4.47341 0.58685C4.34181 0.72095 4.29692 0.95495 4.29191 1.15545C4.28241 1.48045 4.40761 1.54375 4.36141 1.61585C4.32861 1.66765 4.10661 1.65125 3.61521 1.61965C3.31671 1.57855 3.00491 1.55005 2.69501 1.55005C2.18911 1.55005 1.59651 1.62085 1.12471 1.71705C0.657314 1.81315 0.260215 1.89785 0.224115 1.84285C0.178615 1.77265 0.302615 1.72655 0.293715 1.41405C0.288015 1.22125 0.298115 0.99925 0.167915 0.86895C0.0654146 0.76585 0.592214 0.58055 0.589714 0.52495C0.586514 0.46295 0.308915 0.521751 0.172915 0.533751C0.0970147 0.540751 -0.0142854 0.572351 0.00151464 0.507851C0.625715 0.203051 1.68881 0 2.69501 0C3.40901 0 4.11161 0.0898005 4.72131 0.26055C4.74601 0.273851 4.52331 0.32575 4.46141 0.32065Z" fill="url(#paint0_linear_1591_39943)"/>
<defs>
<linearGradient id="paint0_linear_1591_39943" x1="0.000314643" y1="0.93025" x2="4.72321" y2="0.93025" gradientUnits="userSpaceOnUse">
<stop offset="0.16" stop-color="#CEDBF2"/>
<stop offset="0.49" stop-color="#E1EAFA"/>
</linearGradient>
</defs>
</svg>
