<svg width="4" height="8" viewBox="0 0 4 8" fill="none" xmlns="http://www.w3.org/2000/svg">
<path d="M1.6171 3.13871C1.68983 3.38156 1.63165 3.62567 1.55512 3.81413C1.55512 3.81413 1.53109 3.80907 1.52287 3.81413C1.51718 3.81793 1.50959 3.83943 1.52287 3.84575C1.55386 3.8603 1.63797 3.91785 1.63797 3.91785C1.63797 3.91785 1.60509 3.9305 1.59244 3.94694C1.61521 3.95643 1.64493 3.95137 1.69679 3.94125C1.85173 3.91216 2.3153 4.13477 2.32225 4.22015C2.23877 4.21762 2.20272 4.24165 2.21031 4.2524C2.21601 4.25936 2.36842 4.25999 2.49617 4.33778C2.56953 4.38268 2.63024 4.46553 2.67577 4.51928C2.73016 4.58379 2.89776 4.70711 2.86993 4.85067C2.81364 4.80387 2.71625 4.73684 2.68969 4.77162C2.68969 4.77794 2.8421 4.86964 2.91736 4.97273C3.01792 5.1106 3.09191 5.51029 3.03879 5.50333C3.02551 5.50143 2.99262 5.44135 2.93444 5.42175C2.9123 5.41416 3.07926 5.51977 3.05776 5.8012C3.0508 5.89417 3.08811 6.04848 3.10266 6.14461C3.11341 6.21797 3.0078 6.02002 2.95657 6.03709C2.94835 6.03962 3.04068 6.14144 3.0546 6.25465C3.06977 6.37987 3.00147 6.50888 2.98503 6.61639C2.94961 6.84849 2.97301 7.2115 2.99325 7.4455C3.00464 7.45688 3.01096 7.46321 3.02361 7.47585C3.01855 7.20265 2.99768 6.80865 3.03689 6.6322C3.07041 6.47979 3.16021 6.39694 3.11784 6.23631C3.11215 6.2148 3.11721 6.1933 3.12732 6.19836C3.14946 6.20975 3.15895 6.1971 3.16021 6.18824C3.17982 6.08895 3.16464 5.85179 3.13428 5.72847C3.12859 5.70823 3.1229 5.69116 3.11594 5.67851C3.16021 5.56215 3.13302 5.19408 2.95025 4.95882C2.93696 4.71533 2.69854 4.34853 2.46328 4.27137C2.3134 4.07026 1.99339 3.89825 1.75054 3.91279C1.73853 3.90077 1.72398 3.89445 1.70374 3.88243C1.81695 3.74014 2.04905 3.50172 2.02438 2.92874C2.09395 2.87246 2.62392 2.42281 2.4715 1.78469C2.52336 1.56082 2.52147 1.40334 2.44368 1.13456C2.34628 0.798115 1.99466 0.379452 1.36287 0.0417391C1.93648 0.396527 2.173 0.742463 2.20146 0.822148C2.23687 0.920806 2.20272 0.9012 2.18691 0.88033C2.13 0.805705 2.07687 0.741198 1.9175 0.615346C1.58422 0.351626 1.20034 0.158738 0.68175 0C1.18453 0.177078 1.70311 0.488861 2.00984 0.784202C2.06106 0.832899 2.15719 0.943572 2.19008 0.986577C2.19008 1.01757 2.18944 1.03844 2.18818 1.05931C2.10913 0.968237 1.88209 0.725387 1.72588 0.624832C1.72272 0.708311 1.71892 0.872109 1.71892 0.872109C1.71892 0.872109 1.51212 0.735506 1.44129 0.708312C1.41789 0.759538 1.36919 0.810763 1.28951 0.800645C1.61268 0.976458 1.93837 1.26105 2.03893 1.41346C2.03893 1.45836 2.03893 1.5039 2.02312 1.51844C2.00414 1.53552 1.90802 1.49504 1.85679 1.41093C1.8005 1.31923 1.80303 1.21235 1.71513 1.14595C1.66896 1.11116 1.26801 0.987842 1.24967 1.01883C1.23196 1.04855 1.35591 1.1567 1.40587 1.20034C1.47481 1.26042 1.50453 1.33314 1.55512 1.37552C1.60509 1.41726 1.72967 1.41979 1.79102 1.4786C1.83339 1.51844 1.896 1.62975 1.87766 1.64493C1.83149 1.68287 1.74106 1.55323 1.49315 1.43813C1.36983 1.64177 1.38627 1.95481 1.4084 2.21284C1.57853 2.33616 1.79418 2.59925 1.74991 2.65111C1.71955 2.68716 1.61963 2.5632 1.51275 2.48921C0.97393 2.11545 0.115101 1.98517 0 1.99213C0.390836 2.08067 0.865152 2.24699 1.2035 2.44873C1.90738 2.86866 1.6658 3.08811 1.61647 3.13934L1.6171 3.13871Z" fill="black"/>
</svg>
