<svg width="1" height="3" viewBox="0 0 1 3" fill="none" xmlns="http://www.w3.org/2000/svg">
<path d="M0.3992 0.798399C0.377 0.899599 0.3441 1.016 0.3207 1.1154L0.315701 1.1394C0.0765005 2.1712 0.0163997 2.6229 0.00819969 2.8203H0C0.0088 2.6229 0.0688998 2.1712 0.3074 1.14L0.3125 1.116C0.3359 1.0167 0.3688 0.899 0.3916 0.799C0.4523 0.5314 0.5213 0.3359 0.4782 0.1348C0.4605 0.0544 0.4333 0.0069989 0.4023 0.0012989C0.4023 0.0012989 0.3998 0.0012989 0.3992 0.0012989C0.4011 0.0012989 0.403001 0 0.404201 0C0.405501 0 0.4074 -1.09558e-06 0.4087 0.0012989C0.4403 0.0043989 0.4681 0.0532 0.4865 0.1348C0.5295 0.3359 0.4574 0.530199 0.3992 0.798399Z" fill="url(#paint0_linear_1591_40111)"/>
<defs>
<linearGradient id="paint0_linear_1591_40111" x1="0" y1="1.4095" x2="0.4998" y2="1.4095" gradientUnits="userSpaceOnUse">
<stop stop-color="#C6D4EA"/>
<stop offset="0.61" stop-color="#9DB4DB"/>
<stop offset="0.69" stop-color="#8FA5CC"/>
<stop offset="0.89" stop-color="#6F82AC"/>
<stop offset="1" stop-color="#6476A0"/>
</linearGradient>
</defs>
</svg>
