<svg width="6" height="1" viewBox="0 0 6 1" fill="none" xmlns="http://www.w3.org/2000/svg">
<path d="M1.59648 0.0917009C1.97594 0.0341506 2.3946 0.00126484 2.85437 0C2.88157 0 2.90813 0 2.93532 0C3.36726 0.00189726 3.7619 0.0322536 4.12238 0.0841122C4.14451 0.0872743 4.16728 0.0904366 4.18941 0.0942311C4.24507 0.102453 4.29945 0.111306 4.35321 0.121425C4.36902 0.123954 4.3842 0.127117 4.39938 0.130279C4.40001 0.130279 4.40064 0.130279 4.40127 0.130279C5.17662 0.340243 5.57378 0.590681 4.60681 0.417398C4.55053 0.405382 4.49361 0.393998 4.43669 0.383879C4.36333 0.369966 4.28934 0.357951 4.21471 0.3472C2.87904 0.144825 1.4466 0.255498 0.239941 0.662777C-0.0636216 0.76523 -0.0806968 0.707047 0.197569 0.547044C0.581448 0.327594 1.1032 0.184667 1.59585 0.092333L1.59648 0.0917009Z" fill="url(#paint0_linear_3091_44005)"/>
<defs>
<linearGradient id="paint0_linear_3091_44005" x1="0.000253079" y1="0.356686" x2="5.17599" y2="0.356686" gradientUnits="userSpaceOnUse">
<stop offset="0.16" stop-color="#E8EEF9"/>
<stop offset="0.49" stop-color="#F1F5FC"/>
</linearGradient>
</defs>
</svg>
