<svg width="3" height="4" viewBox="0 0 3 4" fill="none" xmlns="http://www.w3.org/2000/svg">
<path d="M2.01496 2.0035C1.98016 2.6486 2.05356 2.9344 1.97266 3.1248C1.79366 3.0976 1.56216 3.0742 1.25486 3.0742C0.809564 3.0742 0.590164 3.109 0.438364 3.1374C0.307464 3.1507 0.266964 3.0938 0.261964 3.0204C0.249264 2.8421 0.270764 2.5259 0.274564 2.3286C0.285364 1.7657 0.232164 1.3799 0.158864 0.965099C0.0626642 0.418699 -0.0327356 0.2163 0.0108644 0.1979C0.428264 0.0239998 0.927264 0 1.24596 0C1.53756 0 1.87016 0.0031998 2.32486 0.141C2.14716 0.8911 2.04656 1.4267 2.01496 2.0035Z" fill="url(#paint0_linear_1591_39876)"/>
<defs>
<linearGradient id="paint0_linear_1591_39876" x1="6.44013e-05" y1="1.5703" x2="2.32556" y2="1.5703" gradientUnits="userSpaceOnUse">
<stop offset="0.16" stop-color="#F5F8FC"/>
<stop offset="0.49" stop-color="#F9FBFE"/>
</linearGradient>
</defs>
</svg>
