<svg width="3" height="1" viewBox="0 0 3 1" fill="none" xmlns="http://www.w3.org/2000/svg">
<path d="M0.00141698 0.121467C-0.014399 0.118936 0.103905 0.0929978 0.270289 0.0619985C0.276615 0.0607332 0.283574 0.0601003 0.290533 0.0588351C0.528406 0.0253051 0.818155 0 1.19964 0C1.43055 0 1.64185 0.0107544 1.83354 0.0272031C1.9063 0.0335295 2.06129 0.0537742 2.18719 0.0759166C2.13784 0.247362 2.30423 0.480806 2.06888 0.909104C2.06446 0.908471 2.05876 0.907205 2.05117 0.90594C1.96893 0.890124 1.65387 0.832554 1.323 0.823697C1.30149 0.823697 1.27998 0.823065 1.25784 0.822432C1.2357 0.8218 1.21356 0.822432 1.19015 0.822432C0.700484 0.822432 0.425918 0.885696 0.221575 0.927451C0.199433 0.929981 0.200698 0.910369 0.207657 0.901512C0.224106 0.880635 0.241187 0.869247 0.241187 0.869247C0.241187 0.869247 0.224739 0.864819 0.219678 0.841412C0.213984 0.816739 0.239289 0.787637 0.239289 0.787637C0.238657 0.787637 0.227902 0.786371 0.208923 0.726271C0.177291 0.626313 0.139332 0.368196 0.141862 0.262545C0.144393 0.156894 0.201964 0.105651 0.201964 0.105651C0.201964 0.105651 0.0229261 0.126528 0.00078372 0.122099L0.00141698 0.121467Z" fill="url(#paint0_linear_1587_25456)"/>
<defs>
<linearGradient id="paint0_linear_1587_25456" x1="-0.000480942" y1="0.463093" x2="2.19858" y2="0.463093" gradientUnits="userSpaceOnUse">
<stop offset="0.16" stop-color="#F3F6F9"/>
<stop offset="0.49" stop-color="#F5F7FA"/>
</linearGradient>
</defs>
</svg>
