<svg width="18" height="6" viewBox="0 0 18 6" fill="none" xmlns="http://www.w3.org/2000/svg">
<path d="M0.00146978 2.98932C0.198528 2.81285 0.387498 2.66652 0.560292 2.55108C1.29485 2.06358 2.08676 1.82535 2.91396 1.84373C4.75587 1.88344 6.86542 3.20476 8.85144 5.5599L9.23379 5.96872C9.23379 5.96872 9.63526 5.58269 9.86173 5.34004C10.686 4.46063 12.8764 2.12461 15.7705 2.18785C16.1521 2.19594 16.5426 2.24667 16.9294 2.33858C17.2882 2.42461 17.6426 2.55991 17.9882 2.73858V0.282708C17.6999 0.202561 17.3941 0.134914 17.0676 0.0827085C16.7749 0.0349146 16.4757 0.00770874 16.1772 0.00109112C14.5985 -0.0327323 12.0889 0.711383 9.23673 3.41211C9.21762 3.39299 9.19776 3.37167 9.17644 3.34961C7.07277 1.17241 4.93822 0.0459438 2.91543 0.00182629C2.43823 -0.0084678 1.96323 0.0437379 1.5022 0.156973L1.48235 0.159914C1.48235 0.159914 1.4772 0.159914 1.47499 0.160649C1.07058 0.259914 0.558086 0.42609 0 0.684912V2.98932H0.00146978Z" fill="url(#paint0_linear_1587_26069)"/>
<defs>
<linearGradient id="paint0_linear_1587_26069" x1="-0.102834" y1="2.70948" x2="17.8958" y2="3.09907" gradientUnits="userSpaceOnUse">
<stop offset="0.33" stop-color="#1D1D1B"/>
<stop offset="0.43" stop-color="#2A2F31"/>
<stop offset="0.48" stop-color="#333A3E"/>
<stop offset="0.51" stop-color="#3A4145"/>
<stop offset="0.55" stop-color="#333A3E"/>
<stop offset="0.69" stop-color="#1D1D1B"/>
</linearGradient>
</defs>
</svg>
