<svg width="7" height="16" viewBox="0 0 7 16" fill="none" xmlns="http://www.w3.org/2000/svg">
<path d="M5.21972 11.7631C4.6809 12.9438 4.66698 14.6317 4.63663 15.5507C4.42983 15.55 4.11109 15.5475 3.79108 15.5437C3.47613 15.5399 2.77478 15.5494 2.71154 15.5469C2.61857 15.5431 2.60529 15.5216 2.5996 15.4735C2.58505 15.3533 2.66031 13.7628 1.93998 12.1836C1.49033 11.1983 0.951507 10.5235 0.528417 9.15687C-0.126772 7.04142 -0.0325408 3.02049 0.0382904 2.32988C0.122402 1.50268 0.278611 0.399733 2.71343 0.0430474C3.07391 -0.010076 3.85053 -0.0486536 4.52216 0.00952917C4.59362 0.0196479 4.65939 0.0316638 4.72137 0.0449446C6.47824 0.364317 6.46369 2.34443 6.51112 2.94017C6.66923 4.92914 6.5048 8.94944 5.22035 11.7637L5.21972 11.7631Z" fill="url(#paint0_linear_1587_25530)"/>
<defs>
<linearGradient id="paint0_linear_1587_25530" x1="-0.0116709" y1="7.76555" x2="6.56045" y2="7.76555" gradientUnits="userSpaceOnUse">
<stop offset="0.16" stop-color="#DCE6F6"/>
<stop offset="0.52" stop-color="#EAF0FB"/>
</linearGradient>
</defs>
</svg>
