<svg width="2" height="3" viewBox="0 0 2 3" fill="none" xmlns="http://www.w3.org/2000/svg">
<path d="M1.34246 2.72035C1.34246 2.72035 1.33677 2.72099 1.33424 2.72099C1.25642 2.23702 1.066 1.83023 0.91796 1.51201C0.875574 1.42091 0.560519 0.773719 0.335299 0.391604C0.255587 0.256219 0.144874 0.102487 0.0411212 0.0227741C0.0227747 0.00885604 0.0094896 0.00253118 0 0.000633258C0.00126528 0.000633258 0.00189811 0 0.00316339 0C0.0132856 0 0.0278361 0.00632548 0.0493459 0.0227741C0.153099 0.102487 0.26381 0.256219 0.343523 0.391604C0.568743 0.773719 0.883798 1.42091 0.926185 1.51201C1.07422 1.83023 1.26465 2.23638 1.34246 2.72035Z" fill="url(#paint0_linear_3091_44195)"/>
<defs>
<linearGradient id="paint0_linear_3091_44195" x1="0.50801" y1="1.36018" x2="1.05904" y2="1.36018" gradientUnits="userSpaceOnUse">
<stop stop-color="#6476A0"/>
<stop offset="0.4" stop-color="#7E93BB"/>
<stop offset="0.75" stop-color="#8FA5CC"/>
<stop offset="1" stop-color="#95ACD2"/>
</linearGradient>
</defs>
</svg>
