<svg width="3" height="1" viewBox="0 0 3 1" fill="none" xmlns="http://www.w3.org/2000/svg">
<path d="M0.00141698 0.121467C-0.014399 0.118936 0.103905 0.0917325 0.270289 0.0619985C0.276615 0.0607332 0.283575 0.0601003 0.290534 0.0588351C0.528407 0.0253051 0.818156 0 1.19964 0C1.3869 0 1.56151 0.00569334 1.73548 0.0183461C1.8152 0.0240399 1.9297 0.0366932 2.03599 0.0525092C1.97968 0.188527 2.14037 0.606069 1.93477 0.881267C1.9297 0.880635 1.92528 0.880002 1.91832 0.878737C1.88605 0.872411 1.69057 0.829391 1.30339 0.823064C1.28568 0.823064 1.26733 0.823065 1.24898 0.822432C1.23064 0.8218 1.21103 0.822432 1.19078 0.822432C0.701117 0.822432 0.426551 0.885696 0.222209 0.927451C0.200066 0.929981 0.201332 0.910369 0.208291 0.901512C0.224739 0.880635 0.24182 0.869247 0.24182 0.869247C0.24182 0.869247 0.225372 0.864819 0.220311 0.841412C0.214617 0.816739 0.237391 0.7908 0.237391 0.7908C0.236759 0.7908 0.228535 0.786371 0.209556 0.726271C0.177924 0.626313 0.139965 0.368196 0.142495 0.262545C0.145026 0.156894 0.202597 0.105651 0.202597 0.105651C0.202597 0.105651 0.0235594 0.126528 0.00141698 0.122099V0.121467Z" fill="url(#paint0_linear_1587_25476)"/>
<defs>
<linearGradient id="paint0_linear_1587_25476" x1="0.000151698" y1="0.463093" x2="2.04295" y2="0.463093" gradientUnits="userSpaceOnUse">
<stop offset="0.16" stop-color="#C2D0E2"/>
<stop offset="0.49" stop-color="#CCD6E6"/>
</linearGradient>
</defs>
</svg>
