<svg width="32" height="50" viewBox="0 0 32 50" fill="none" xmlns="http://www.w3.org/2000/svg">
<mask id="mask0_1591_40571" style="mask-type:luminance" maskUnits="userSpaceOnUse" x="-1" y="0" width="33" height="50">
<path d="M31.739 0H-0.000976562V49.6186H31.739V0Z" fill="white"/>
</mask>
<g mask="url(#mask0_1591_40571)">
<path d="M3.25737 35.9442C3.25737 37.0103 3.98559 37.5344 4.97561 37.5344C5.96563 37.5344 6.69385 37.0103 6.69385 35.9442V33.5654C6.69385 33.5376 6.67129 33.5156 6.64401 33.5156H5.68389C5.65609 33.5156 5.63353 33.5381 5.63353 33.5654V35.9327C5.63353 36.3844 5.42104 36.6415 4.96512 36.6373C4.60363 36.6341 4.31717 36.3293 4.31717 35.9678V33.5654C4.31717 33.5376 4.29461 33.5156 4.2668 33.5156H3.30669C3.27888 33.5156 3.25684 33.5381 3.25684 33.5654L3.25737 35.9442ZM7.38535 33.5151C7.35754 33.5151 7.3355 33.5376 7.3355 33.5649V37.4253C7.3355 37.4531 7.35807 37.4757 7.38535 37.4757H10.145C10.1728 37.4757 10.1948 37.4531 10.1948 37.4253V36.6347C10.1948 36.6068 10.1723 36.5843 10.145 36.5843H8.39531V35.9028H9.7783C9.8061 35.9028 9.82814 35.8802 9.82814 35.8524V35.1079C9.82814 35.0801 9.80558 35.0581 9.7783 35.0581H8.39531V34.4059H10.0637C10.0915 34.4059 10.1135 34.3834 10.1135 34.3561V33.5649C10.1135 33.5371 10.0915 33.5151 10.0637 33.5151H7.38535ZM10.7583 33.5151C10.7305 33.5151 10.7085 33.5376 10.7085 33.5649V37.4253C10.7085 37.4531 10.731 37.4757 10.7583 37.4757H11.7184C11.7463 37.4757 11.7683 37.4531 11.7683 37.4253V36.1011H13.157C13.1843 36.1011 13.2069 36.079 13.2069 36.0512V35.2595C13.2069 35.2322 13.1843 35.2097 13.157 35.2097H11.7683V34.4059H13.422C13.4414 34.4059 13.4587 34.3949 13.4666 34.3776L13.8428 33.5859C13.8585 33.5528 13.8344 33.5145 13.7982 33.5145L10.7583 33.5151ZM15.7829 36.9982H14.4026L14.2174 37.4452C14.2095 37.4636 14.1917 37.4757 14.1717 37.4757H13.2468C13.21 37.4757 13.1859 37.4374 13.2022 37.4043L15.0962 33.4448C15.1135 33.4038 15.1486 33.4038 15.1659 33.4448L17.0542 37.4043C17.0699 37.4374 17.0458 37.4757 17.0091 37.4757H16.0253C16.0054 37.4757 15.9876 37.4641 15.9797 37.4458L15.7829 36.9982ZM14.7289 36.2296H15.4456L15.0846 35.3907L14.7289 36.2296Z" fill="white"/>
<path d="M14.4331 38.3659C14.3974 38.3659 14.3685 38.3948 14.3685 38.4305V43.4367C14.3685 43.4724 14.3974 43.5012 14.4331 43.5012H15.6786C15.7143 43.5012 15.7431 43.4724 15.7431 43.4367V38.4305C15.7431 38.3948 15.7143 38.3659 15.6786 38.3659H14.4331ZM16.4152 40.9336C16.4152 39.3853 17.6917 38.3056 19.1717 38.3056C20.6518 38.3056 21.9283 39.3859 21.9283 40.9336C21.9283 42.4813 20.6518 43.5695 19.1717 43.5695C17.6917 43.5695 16.4152 42.4818 16.4152 40.9336ZM20.5238 40.9336C20.5238 40.1251 20.0327 39.4987 19.1717 39.4987C18.3108 39.4987 17.8197 40.1256 17.8197 40.9336C17.8197 41.7416 18.3108 42.3759 19.1717 42.3759C20.0327 42.3759 20.5238 41.7416 20.5238 40.9336ZM10.985 43.4367C10.985 43.4724 11.0139 43.5012 11.0496 43.5012H12.2951C12.3308 43.5012 12.3596 43.4724 12.3596 43.4367V39.5212H13.6545C13.6902 39.5212 13.719 39.4924 13.719 39.4567V38.4305C13.719 38.3948 13.6902 38.3659 13.6545 38.3659H9.15243C9.10521 38.3659 9.07373 38.4153 9.09419 38.4583L9.58264 39.485C9.59314 39.5076 9.6157 39.5217 9.64088 39.5217H10.9856L10.985 43.4367ZM27.7881 42.6901C27.764 42.7143 27.7619 42.7541 27.7855 42.7793C28.1381 43.166 28.7692 43.5763 29.7871 43.5763C31.1464 43.5763 31.7356 42.8963 31.7356 41.9525C31.7356 41.2274 31.3883 40.7363 30.361 40.3969L29.6811 40.1702C29.4319 40.0873 29.3186 39.9892 29.3186 39.7925C29.3186 39.5957 29.4849 39.4373 29.817 39.4373C30.2131 39.4373 30.4812 39.5795 30.69 39.7888C30.6952 39.794 31.286 39.1954 31.4513 39.0275C31.4754 39.0034 31.477 38.964 31.4534 38.9389C31.1443 38.602 30.6087 38.3045 29.7414 38.3045C28.8275 38.3045 27.9891 38.8255 27.9891 39.8376C27.9891 40.6833 28.5179 41.1366 29.2656 41.3858L29.87 41.5899C30.2099 41.7033 30.3757 41.8092 30.3757 42.028C30.3757 42.315 30.1339 42.4357 29.7262 42.4357C29.243 42.4357 28.9198 42.1896 28.6758 41.9026C28.6512 41.8738 28.6066 41.8711 28.5798 41.8984L27.7881 42.6901ZM27.0872 43.591C27.1706 43.6586 27.1927 43.6361 27.1927 43.5757V38.4294C27.1927 38.3937 27.1638 38.3644 27.1276 38.3644H25.966C25.9298 38.3644 25.901 38.3932 25.901 38.4294V40.9399L22.6759 38.2815C22.593 38.2133 22.5704 38.251 22.5704 38.2967V43.4351C22.5704 43.4708 22.5993 43.5002 22.6355 43.5002H23.7971C23.8328 43.5002 23.8621 43.4708 23.8621 43.4351V40.9399L27.0872 43.591ZM4.51186 43.591C4.59528 43.6586 4.61732 43.6361 4.61732 43.5757V38.4315C4.61732 38.3958 4.58846 38.3665 4.55226 38.3665H3.39068C3.35448 38.3665 3.32562 38.3953 3.32562 38.4315V40.9399L0.100573 38.2815C0.0176773 38.2133 -0.00488281 38.251 -0.00488281 38.2967V43.4351C-0.00488281 43.4708 0.0239731 43.5002 0.0601743 43.5002H1.22176C1.25743 43.5002 1.28681 43.4708 1.28681 43.4351V40.9399L4.51186 43.591ZM8.48454 42.8811H6.69495L6.45466 43.4603C6.44469 43.4845 6.42108 43.5002 6.39485 43.5002H5.19654C5.14879 43.5002 5.11731 43.4504 5.13778 43.4073L7.59316 38.2741C7.61572 38.2211 7.66136 38.2211 7.68392 38.2741L10.1319 43.4073C10.1524 43.4504 10.1215 43.5002 10.0732 43.5002H8.79881C8.7731 43.5002 8.75002 43.485 8.73953 43.4614L8.48454 42.8811ZM7.11782 41.8843H8.04698L7.57847 40.7967L7.11782 41.8843Z" fill="white"/>
<path d="M1.37166 2.7103C1.37166 2.62897 1.28877 2.57441 1.21427 2.60746C0.971878 2.71502 0.494967 2.97052 0.113544 3.44271C0.0374687 3.53715 -0.00292969 3.65572 -0.00292969 3.77692V36.7163C-0.00292969 36.8516 0.0595041 36.9802 0.166009 37.0641L1.17492 37.8915C1.25466 37.9545 1.37166 37.8973 1.37166 37.796V2.7103Z" fill="white"/>
<path d="M0.0601743 44.4093C0.0244978 44.4093 -0.00488281 44.4381 -0.00488281 44.4743V49.4801C-0.00488281 49.5163 0.0239731 49.5451 0.0601743 49.5451H3.48774C3.52341 49.5451 3.55279 49.5163 3.55279 49.4801V48.4544C3.55279 48.4182 3.52394 48.3893 3.48774 48.3893H1.36971V44.4738C1.36971 44.4381 1.34085 44.4088 1.30465 44.4088L0.0601743 44.4093ZM4.25163 44.4093C4.21596 44.4093 4.18658 44.4381 4.18658 44.4743V49.4801C4.18658 49.5163 4.21543 49.5451 4.25163 49.5451H7.8303C7.86598 49.5451 7.89536 49.5163 7.89536 49.4801V48.4544C7.89536 48.4182 7.8665 48.3893 7.8303 48.3893H5.5617V47.5058H7.35496C7.39064 47.5058 7.42002 47.4769 7.42002 47.4407V46.4754C7.42002 46.4397 7.39116 46.4103 7.35496 46.4103H5.5617V45.5646H7.72484C7.76052 45.5646 7.7899 45.5357 7.7899 45.4995V44.4738C7.7899 44.4381 7.76105 44.4088 7.72484 44.4088L4.25163 44.4093ZM18.7111 47.5588C18.7111 48.9407 19.6555 49.6207 20.9388 49.6207C22.2221 49.6207 23.167 48.9407 23.167 47.5588V44.4743C23.167 44.4387 23.1381 44.4093 23.1019 44.4093H21.8569C21.8212 44.4093 21.7919 44.4381 21.7919 44.4743V47.5436C21.7919 48.1296 21.5159 48.4622 20.9251 48.4575C20.4566 48.4533 20.0852 48.0577 20.0852 47.5892V44.4743C20.0852 44.4387 20.0558 44.4093 20.0201 44.4093H18.7751C18.7394 44.4093 18.71 44.4381 18.71 44.4743V47.5588M24.0704 44.4093C24.0348 44.4093 24.0054 44.4381 24.0054 44.4743V49.4801C24.0054 49.5163 24.0342 49.5451 24.0704 49.5451H27.6491C27.6848 49.5451 27.7142 49.5163 27.7142 49.4801V48.4544C27.7142 48.4182 27.6853 48.3893 27.6491 48.3893H25.3805V47.5058H27.1738C27.2094 47.5058 27.2388 47.4769 27.2388 47.4407V46.4754C27.2388 46.4397 27.21 46.4103 27.1738 46.4103H25.3805V45.5646H27.5436C27.5793 45.5646 27.6087 45.5357 27.6087 45.4995V44.4738C27.6087 44.4381 27.5798 44.4088 27.5436 44.4088L24.0704 44.4093ZM16.8528 48.2539C16.6335 48.3594 16.3543 48.4575 15.8559 48.4575C14.9498 48.4575 14.4813 47.7854 14.4813 46.9775C14.4813 46.1695 14.942 45.5425 15.7804 45.5425C16.2641 45.5425 16.614 45.7372 16.8675 46.0378C16.8926 46.0672 16.9367 46.0703 16.964 46.0425L17.7683 45.2314C17.7924 45.2073 17.794 45.1679 17.7709 45.1422C17.3223 44.6417 16.6508 44.3495 15.8103 44.3495C14.3297 44.3495 13.0763 45.4292 13.0763 46.9775C13.0763 48.5257 14.3297 49.6133 15.8407 49.6133C16.9813 49.6133 17.6004 49.2964 18.0763 48.9035V46.7482C18.0763 46.7125 18.0469 46.6831 18.0112 46.6831H15.8979C15.8622 46.6831 15.8328 46.712 15.8328 46.7482V47.6758C15.8328 47.7115 15.8622 47.7408 15.8979 47.7408H16.8522L16.8528 48.2539ZM11.6487 48.926H9.85914L9.61885 49.5052C9.60888 49.5294 9.58527 49.5451 9.55904 49.5451H8.36073C8.31298 49.5451 8.2815 49.4953 8.30196 49.4523L10.7573 44.319C10.7799 44.266 10.8255 44.266 10.8481 44.319L13.2961 49.4523C13.3166 49.4953 13.2856 49.5451 13.2374 49.5451H11.963C11.9373 49.5451 11.9142 49.5299 11.9037 49.5063L11.6487 48.926ZM10.282 47.9292H11.2112L10.7426 46.8416L10.282 47.9292Z" fill="white"/>
<path d="M28.0713 44.5776V44.4406C28.0713 44.4312 28.0786 44.4238 28.0881 44.4238H28.7932C28.8026 44.4238 28.81 44.4312 28.81 44.4406V44.5776C28.81 44.587 28.8026 44.5943 28.7932 44.5943H28.5435V45.3777C28.5435 45.3871 28.5361 45.3944 28.5267 45.3944H28.3635C28.3541 45.3944 28.3467 45.3871 28.3467 45.3777V44.5943H28.0881C28.0786 44.5943 28.0713 44.587 28.0713 44.5776Z" fill="white"/>
<path d="M28.9977 44.4102H29.015L29.4693 44.9023C29.4788 44.9123 29.495 44.9123 29.5045 44.9023L29.9588 44.4102H29.9761V45.3698C29.9761 45.3829 29.9656 45.3939 29.952 45.3939H29.8077C29.7946 45.3939 29.7836 45.3834 29.7836 45.3698V44.8257L29.5045 45.1457C29.495 45.1567 29.4777 45.1567 29.4683 45.1457L29.1934 44.8257V45.3698C29.1934 45.3829 29.1823 45.3939 29.1692 45.3939H29.0202C29.0071 45.3939 28.9961 45.3834 28.9961 45.3698V44.4102H28.9977Z" fill="white"/>
<path d="M5.39763 8.48686L5.37402 8.39399C5.88818 7.58235 6.37716 6.7534 6.85092 5.9512C7.35617 5.09549 7.83517 4.28595 8.32205 3.5294L8.48312 3.4082L8.64786 3.43286C9.768 4.1679 10.8635 5.01889 11.9065 5.96904L11.9075 6.06663L11.7444 6.13745C10.2501 6.20304 8.40337 7.10701 6.61483 7.97899C6.26279 8.15055 5.90077 8.32579 5.54768 8.49263L5.39763 8.48686Z" fill="url(#paint0_linear_1591_40571)"/>
<path d="M21.9563 9.29503C20.7952 9.29503 19.5235 8.99178 18.0744 8.37007L17.8818 8.21057L17.8949 8.10564C18.6331 7.44877 19.1887 6.92622 19.7653 6.27565L19.9038 6.22266L20.0796 6.30293C21.0271 7.262 22.0948 8.1303 23.3372 8.95873L23.3587 9.05894L23.2113 9.16387C22.8104 9.24991 22.3892 9.29503 21.9563 9.29503Z" fill="url(#paint1_linear_1591_40571)"/>
<path d="M23.6163 13.9015C23.1982 13.9015 22.832 13.722 22.5854 13.3968C22.3656 13.1066 22.2333 12.7719 22.1987 12.4235L22.2627 12.3569L22.3299 12.2892C22.4458 12.2939 22.5586 12.296 22.6699 12.296C23.5702 12.296 24.4117 12.1413 25.2412 11.8223L25.3136 11.869L25.3844 11.9157C25.3876 12.3301 25.2401 12.7551 24.9547 13.1496C24.6415 13.6192 24.1405 13.9015 23.6163 13.9015Z" fill="url(#paint2_linear_1591_40571)"/>
<path d="M22.2632 12.3575L22.1992 12.4241C21.7994 12.4026 21.4789 12.38 21.066 12.3181L20.896 12.2247L20.8997 12.1219C21.7307 11.283 22.4873 10.3155 23.2102 9.16548L23.3577 9.06055L23.5313 9.09098C24.5848 9.783 25.663 10.4189 26.8146 11.0285L26.8755 11.1398L26.6446 11.3596C26.2784 11.5679 25.8372 11.7368 25.3844 11.9168L25.3136 11.8701L25.2412 11.8234C25.2081 11.337 24.9484 10.9152 24.5067 10.6293C24.3251 10.5117 24.1042 10.4498 23.8676 10.4498C23.3991 10.4498 22.9673 10.6849 22.6835 11.0946C22.4406 11.4451 22.3162 11.8664 22.3304 12.2903L22.2632 12.3575Z" fill="url(#paint3_linear_1591_40571)"/>
<path d="M22.0174 15.6417C20.8815 15.6417 19.8307 15.3279 18.4435 14.5824L18.2515 14.403L18.2724 14.3012C19.1119 13.691 19.9277 13.0803 20.7504 12.2718L20.8962 12.2246L21.0662 12.318C22.0463 13.4612 22.9739 14.4004 23.8915 15.2036L23.8952 15.3101L23.721 15.4203C23.1092 15.5656 22.5494 15.6422 22.0185 15.6422L22.0174 15.6417Z" fill="url(#paint4_linear_1591_40571)"/>
<path d="M20.7504 12.2718C20.4026 12.2119 20.0264 12.1222 19.6282 12.0042L19.5506 11.9071L19.4661 11.8074C19.4078 11.4696 19.252 11.0986 19.0217 10.7555C18.55 10.054 17.9745 9.61806 17.5196 9.61806C17.369 9.61806 17.2347 9.66685 17.1204 9.76339C16.9121 9.93862 16.837 10.3027 16.9147 10.7665L16.8523 10.8132L16.7903 10.8604C16.4178 10.6752 16.059 10.4832 15.7405 10.2943L15.5039 10.0808L15.5207 9.98112C16.3575 9.3657 17.0637 8.8379 17.7557 8.23035L17.8827 8.21094L18.0752 8.37043C19.0511 9.79959 19.9776 11.0294 20.9005 12.1212L20.8968 12.224L20.7504 12.2718Z" fill="url(#paint5_linear_1591_40571)"/>
<path d="M18.8347 13.0956C18.319 13.0956 17.6637 12.6156 17.2031 11.901C17.0095 11.6009 16.8605 11.2236 16.7896 10.8595L16.8514 10.8123L16.9139 10.7656C17.5414 11.0746 18.4742 11.4954 19.4653 11.8071L19.5497 11.9067L19.6274 12.0038C19.65 12.4435 19.501 12.7918 19.2003 12.9912C19.0959 13.0605 18.9732 13.0956 18.8347 13.0956Z" fill="#0B0700"/>
<path d="M2.11117 12.727C3.33728 11.5811 4.25858 10.1562 5.21764 8.64725L5.3976 8.48828L5.54818 8.49405C6.47629 9.00979 7.52035 9.54546 8.74175 10.131L8.7685 10.2196L8.55287 10.4405C8.10901 10.7186 7.66988 10.973 7.24648 11.2002L7.17828 11.1577L7.1085 11.1163C7.11479 10.631 6.92539 10.27 6.57073 10.0969C6.44691 10.0365 6.31102 10.0056 6.16727 10.0056C5.67094 10.0056 4.87924 10.4237 4.23024 11.3571C4.01041 11.6735 3.86613 12.0533 3.81997 12.4368L3.74127 12.5297L3.66572 12.621C3.17674 12.7469 2.7418 12.8513 2.21295 12.9227L2.05713 12.8707L2.10959 12.7264L2.11117 12.727Z" fill="url(#paint6_linear_1591_40571)"/>
<path d="M5.59603 15.5157L5.57715 15.4229C6.52362 14.0839 7.22036 12.8248 7.83683 11.712C8.08552 11.2629 8.32161 10.8342 8.55403 10.4402L8.76967 10.2193L8.915 10.2109C10.5551 11.0011 11.6159 11.6265 12.5335 12.3526L12.5351 12.4486L12.3247 12.5519C10.7744 12.8211 9.25655 13.67 7.90871 14.4223C7.15111 14.8452 6.43338 15.2455 5.75396 15.5273L5.59708 15.5157H5.59603Z" fill="url(#paint7_linear_1591_40571)"/>
<path d="M5.59593 22.5483L5.57861 22.4549C6.84775 20.7996 7.79108 19.0977 8.68876 17.4439L8.89023 17.2183L9.03293 17.2031C10.2874 17.7556 11.4736 18.414 12.5612 19.1727L12.5696 19.2713L12.3744 19.3888C11.2931 19.6742 10.2386 20.2881 9.1258 20.9329C8.05655 21.5525 6.95268 22.1879 5.76277 22.5651L5.59593 22.5483Z" fill="url(#paint8_linear_1591_40571)"/>
<path d="M12.3204 17.7902C11.8681 17.7902 11.4547 17.6507 11.1252 17.3868C10.8052 17.1302 10.62 16.722 10.6079 16.2546L10.6777 16.1465L10.7538 16.0374C11.6126 15.6706 12.4573 15.4844 13.2668 15.4844C13.5465 15.4844 13.8267 15.5069 14.1016 15.551L14.1881 15.6365L14.2705 15.7241C14.3335 16.2866 14.1462 16.8322 13.7464 17.233C13.3991 17.5819 12.8661 17.7902 12.3204 17.7902Z" fill="url(#paint9_linear_1591_40571)"/>
<path d="M8.85889 17.1297C9.84576 15.3212 10.9528 13.86 12.3237 12.5526L12.5341 12.4492L12.7072 12.4996C13.8247 13.4198 14.7843 14.5573 15.7917 16.1538L15.7764 16.2593L15.6495 16.2713C15.2298 16.0557 14.7644 15.8275 14.2717 15.7246L14.1894 15.637L14.1028 15.5515C14.0372 15.2241 13.9202 14.9445 13.7544 14.7173C13.4832 14.3464 13.0955 14.1423 12.6626 14.1423C12.1941 14.1423 11.7083 14.3794 11.3284 14.7928C10.9974 15.1533 10.7954 15.5914 10.755 16.0379L10.6789 16.147L10.6091 16.2551C10.1254 16.4786 9.59235 16.8201 9.03359 17.2047L8.89089 17.2199L8.85993 17.1297H8.85889Z" fill="url(#paint10_linear_1591_40571)"/>
<path d="M19.0041 19.4184C18.5335 19.4184 17.8939 18.888 17.4128 18.0984C17.1941 17.739 17.0419 17.3445 16.981 16.9824L17.044 16.9357L17.108 16.8906C17.8719 17.2936 18.6998 17.7038 19.5996 18.0003L19.6788 18.0989L19.7523 18.1949C19.7638 18.7091 19.6017 19.1367 19.3173 19.3261C19.2255 19.3875 19.1205 19.4184 19.0041 19.4184Z" fill="url(#paint11_linear_1591_40571)"/>
<path d="M5.57898 22.4544C4.29096 21.6848 3.21437 20.7986 2.20808 19.6743L2.05908 19.6113V22.9828L2.11627 23.0625C2.30882 23.0903 2.52183 23.1045 2.75057 23.1045C3.49663 23.1045 4.41268 22.9544 5.41214 22.6727L5.59577 22.5478L5.57898 22.4544Z" fill="url(#paint12_linear_1591_40571)"/>
<path d="M18.4749 20.625C17.3679 19.996 15.8999 19.1702 14.082 19.1702C13.6434 19.1702 13.1917 19.2148 12.7373 19.3061L12.5694 19.2714L12.561 19.1728C13.4141 18.2184 14.4267 17.2678 15.6491 16.2699L15.7761 16.2578L15.966 16.4336C16.9277 17.9682 17.7588 19.2882 18.6145 20.5232L18.5977 20.6229L18.4749 20.625Z" fill="url(#paint13_linear_1591_40571)"/>
<path d="M26.4677 17.2622L26.3187 17.4223C25.7169 18.7302 24.9871 20.0461 24.2012 21.2496L24.2195 21.3519L24.3785 21.3824C25.0847 21.1971 25.9105 20.875 26.6775 20.4805L26.7137 20.3824C26.5144 19.2738 26.4577 18.2108 26.4666 17.2617L26.4677 17.2622Z" fill="url(#paint14_linear_1591_40571)"/>
<path d="M22.2571 21.6626C21.0488 21.6626 19.8904 21.3725 18.8143 20.8142L18.5981 20.6238L18.6149 20.5241C19.478 19.8971 20.2219 19.1999 20.9617 18.4785L21.1102 18.4297L21.2702 18.5142C22.1973 19.5881 23.1584 20.4806 24.2009 21.2508L24.2193 21.3525L24.0708 21.4543C23.4596 21.5897 22.8494 21.6626 22.2571 21.6626Z" fill="url(#paint15_linear_1591_40571)"/>
<path d="M5.49815 28.0311C5.15345 28.0311 4.81453 27.9246 4.5181 27.7237C4.13352 27.4629 3.87382 27.0211 3.81348 26.5301L3.87592 26.4566L3.94045 26.3821C5.13561 26.2961 6.30717 25.9912 7.42468 25.4766L7.4997 25.518L7.57158 25.561C7.58627 26.0028 7.44304 26.486 7.15448 26.964C6.73948 27.6518 6.15134 28.0301 5.49867 28.0301L5.49815 28.0311Z" fill="url(#paint16_linear_1591_40571)"/>
<path d="M19.0801 10.7154C18.4641 9.79886 17.6105 9.25794 17.0754 9.70862C16.8173 9.92635 16.77 10.3576 16.8524 10.8125C17.6667 11.2149 18.6184 11.6215 19.5512 11.9064C19.5098 11.5292 19.344 11.1089 19.0801 10.7154Z" fill="url(#paint17_linear_1591_40571)"/>
<path d="M19.672 25.371C19.2098 25.371 18.5062 25.0064 18.0555 24.3091C17.7995 23.9125 17.6127 23.4754 17.5288 23.0725L17.5923 23.0216L17.6552 22.9707C18.1127 23.1575 18.5125 23.3453 18.8997 23.5284C19.3493 23.7404 19.7769 23.9434 20.2145 24.1008L20.3021 24.2063L20.3824 24.308C20.4002 24.7404 20.2538 25.1176 19.9973 25.2865C19.9118 25.3427 19.8026 25.371 19.672 25.371Z" fill="url(#paint18_linear_1591_40571)"/>
<path d="M23.8087 19.9296C23.4939 19.9296 23.188 19.8204 22.9477 19.6221C22.6203 19.3524 22.4356 18.9894 22.4131 18.5676L22.4823 18.4957L22.5521 18.4228C23.4498 18.3745 24.3338 18.1652 25.2509 17.7832L25.326 17.8268L25.3999 17.8734C25.4172 18.3073 25.2898 18.7821 25.0484 19.1809C24.7604 19.6567 24.3081 19.9296 23.8087 19.9296Z" fill="url(#paint19_linear_1591_40571)"/>
<path d="M18.1229 14.4085C17.9586 14.3156 17.786 14.2175 17.6071 14.1141C16.3501 13.3849 14.7861 12.4772 13.1344 12.4772C12.9912 12.4772 12.8485 12.484 12.7079 12.4982L12.5348 12.4478L12.5332 12.3518C13.477 11.4799 14.445 10.771 15.3726 10.0895L15.5033 10.0801L15.7399 10.2936C16.3647 11.1813 16.9613 12.1567 17.5872 13.1845C17.8091 13.5491 18.0394 13.9247 18.2729 14.3009L18.2519 14.4027L18.1229 14.4085Z" fill="url(#paint20_linear_1591_40571)"/>
<path d="M15.7767 16.2584C15.2636 15.9903 14.7463 15.7364 14.1891 15.6367C14.2846 16.2149 14.1047 16.7757 13.6975 17.1839C13.1041 17.7794 11.9384 17.9483 11.1697 17.3324C10.834 17.0633 10.6635 16.6252 10.6781 16.1467C10.1157 16.3959 9.49507 16.7957 8.89014 17.2196C10.2689 17.8177 11.4914 18.516 12.5695 19.2726C13.3953 18.3424 14.4347 17.347 15.7767 16.2584Z" fill="url(#paint21_linear_1591_40571)"/>
<path d="M2.12151 19.4636C3.52916 18.204 4.48875 16.9464 5.40532 15.6636L5.5963 15.5156L5.75317 15.5272C6.81559 16.1499 7.9116 16.7145 8.85912 17.1295L8.89008 17.2197L8.68861 17.4453C8.21012 17.7774 7.76942 18.0712 7.33395 18.3047L7.26312 18.2638L7.1923 18.2223C7.17551 17.811 7.00657 17.5083 6.6923 17.3204C6.50343 17.2076 6.29514 17.151 6.07321 17.151C5.52232 17.151 4.90795 17.5072 4.3875 18.1284C4.09159 18.4815 3.89904 18.9301 3.8513 19.3713L3.77313 19.4563L3.69967 19.5392C3.2044 19.6184 2.76212 19.652 2.20808 19.6772L2.05908 19.6142L2.12151 19.4647V19.4636Z" fill="url(#paint22_linear_1591_40571)"/>
<path d="M2.39643 16.324C2.30304 16.324 2.21123 16.3214 2.12204 16.3156L2.05908 16.2406V12.8691L2.2149 12.9211C3.09894 13.7647 4.31299 14.6682 5.57741 15.4211L5.5963 15.5139L5.40532 15.6619C4.24426 16.1 3.23273 16.324 2.39643 16.324Z" fill="url(#paint23_linear_1591_40571)"/>
<path d="M20.8817 6.34516C20.6204 6.34516 20.3481 6.32627 20.08 6.30371L19.9043 6.22344L19.8901 6.10434C20.5313 5.36458 21.2689 4.41863 21.962 3.02042L22.1136 2.91602L22.2778 2.94487C23.1225 3.52199 24.4399 4.18673 25.5176 4.57864L25.6015 4.68358L25.4279 4.9055C25.0863 5.16101 24.7217 5.38819 24.3397 5.57654L24.2631 5.53614L24.1844 5.49626C24.0868 5.02408 23.7815 4.64633 23.3193 4.42859C23.1514 4.34937 22.9761 4.3095 22.7988 4.3095C22.2841 4.3095 21.7888 4.65262 21.5375 5.18357C21.3822 5.512 21.3266 5.8588 21.3754 6.19196L21.3161 6.26488L21.26 6.33833C21.1346 6.34358 21.0082 6.34516 20.8817 6.34516Z" fill="url(#paint24_linear_1591_40571)"/>
<path d="M21.6345 24.5438C21.2017 24.5102 20.8213 24.4488 20.3827 24.3087L20.3024 24.207L20.2148 24.1015C20.1692 23.8282 20.0433 23.4504 19.7185 23.0365C19.2001 22.3759 18.6277 21.9814 18.1876 21.9814C18.0359 21.9814 17.9053 22.0281 17.7998 22.1204C17.6367 22.2626 17.5842 22.5711 17.6556 22.9714L17.5926 23.0223L17.5291 23.0732C17.1351 22.9147 16.792 22.7914 16.4043 22.675L16.2017 22.5485L16.2033 22.4488C16.9882 21.7211 17.7563 21.144 18.4761 20.6251L18.5994 20.623L18.8156 20.8135C19.8161 22.2332 20.7851 23.4063 21.7757 24.3943L21.7814 24.4913L21.6345 24.5438Z" fill="url(#paint25_linear_1591_40571)"/>
<path d="M22.1571 18.5739C21.8643 18.5739 21.5663 18.5492 21.2699 18.5146L21.1099 18.4301L21.1151 18.3284C22.006 17.4527 22.858 16.5026 23.7205 15.4207L23.8947 15.3105L24.0421 15.3452C24.7746 15.9748 25.5505 16.5634 26.4052 17.1379L26.4671 17.2638L26.3181 17.4239C26.0101 17.5912 25.7016 17.7449 25.3984 17.8751L25.3244 17.8284L25.2494 17.7848C25.2174 17.4517 25.0925 17.1757 24.8931 17.0015C24.6859 16.82 24.4346 16.7245 24.1665 16.7245C23.7347 16.7245 23.2877 16.9721 22.9404 17.4044C22.7043 17.6982 22.5631 18.066 22.5506 18.4249L22.4808 18.4978L22.4115 18.5697C22.327 18.5728 22.2405 18.5749 22.156 18.5749L22.1571 18.5739Z" fill="url(#paint26_linear_1591_40571)"/>
<path d="M26.8763 11.1387L26.6455 11.3585C25.5547 12.9771 24.677 14.2016 23.8916 15.2026L23.8953 15.3091L24.0427 15.3438C24.9136 15.1061 25.8548 14.7236 26.614 14.3013L26.7037 14.1696C26.8396 13.1995 26.891 12.1938 26.8763 11.1387Z" fill="url(#paint27_linear_1591_40571)"/>
<path d="M4.8262 14.0475C4.57332 14.0475 4.34089 13.9709 4.13628 13.8204C3.82201 13.5895 3.64993 13.1456 3.66776 12.6205L3.74331 12.5292L3.82201 12.4363C4.89493 12.1011 5.98516 11.7133 7.11002 11.1152L7.1798 11.1567L7.248 11.1992C7.22439 11.6352 7.05965 12.1184 6.76952 12.6011C6.22493 13.5071 5.49828 14.0475 4.8262 14.0475Z" fill="url(#paint28_linear_1591_40571)"/>
<path d="M12.3188 11.162C11.791 11.162 11.2768 10.9684 10.9074 10.6305C10.5591 10.3121 10.3718 9.90599 10.3618 9.44796L10.4353 9.3467L10.5145 9.2444C11.1026 9.05237 11.6692 8.95898 12.2443 8.95898C12.7763 8.95898 13.2999 9.03979 13.8418 9.20401L13.93 9.30631L14.0113 9.40862C14.0391 9.89498 13.8791 10.3556 13.5648 10.6877C13.2794 10.9894 12.8251 11.162 12.3188 11.162Z" fill="url(#paint29_linear_1591_40571)"/>
<path d="M2.05908 9.49838V6.12695L2.2128 6.1726C3.07271 6.94489 4.16242 7.71036 5.37489 8.39398L5.3985 8.48685L5.21855 8.64582C3.96095 9.21612 2.84973 9.54822 2.12309 9.56763L2.05908 9.49838Z" fill="url(#paint30_linear_1591_40571)"/>
<path d="M21.1104 18.43L20.9619 18.4788C20.5632 18.4158 20.1676 18.3224 19.7536 18.1949L19.6802 18.0989L19.601 18.0003C19.5632 17.6577 19.4499 17.3177 19.2699 17.0097C18.7416 16.1068 18.1477 15.7862 17.7993 15.7862C17.623 15.7862 17.462 15.8565 17.3193 15.9945C17.1304 16.1782 17.0559 16.4945 17.1094 16.8906L17.0454 16.9358L16.9824 16.9824C16.7983 16.8849 16.6167 16.7868 16.4373 16.6902C16.2757 16.6031 16.122 16.5171 15.9677 16.4352L15.7778 16.2595L15.793 16.154C16.5202 15.5669 17.1981 15.0795 17.8544 14.6058C17.9452 14.5402 18.0333 14.4756 18.1236 14.4101L18.2526 14.4043L18.4446 14.5837C19.1314 15.6813 20.0328 17.0459 21.1157 18.3287L21.1104 18.43Z" fill="url(#paint31_linear_1591_40571)"/>
<path d="M9.22044 24.4875L9.18896 24.3935C10.0195 22.7393 10.8453 21.148 12.3747 19.391L12.5698 19.2734L12.7377 19.3081C14.0053 20.2126 15.169 21.2703 16.2025 22.4507L16.201 22.5504L16.0687 22.5824C15.6438 22.4749 15.1469 22.4182 14.5918 22.402L14.5147 22.329L14.4355 22.2582C14.3825 21.8878 14.213 21.5336 13.9434 21.2955C13.6674 21.0525 13.3626 20.9298 13.0373 20.9298C12.4544 20.9298 11.8469 21.3427 11.4119 22.0347C11.1774 22.4077 11.0027 22.8295 10.9707 23.1968L10.8946 23.3175L10.8269 23.4371C10.3054 23.7299 9.82589 24.1223 9.34951 24.4707L9.22044 24.4885V24.4875Z" fill="url(#paint32_linear_1591_40571)"/>
<path d="M17.755 8.23008C17.3442 8.04383 16.9224 7.83711 16.5137 7.63512C15.0751 6.92526 13.5846 6.18655 12.083 6.13461L11.9078 6.06745L11.9067 5.96987C12.816 5.0533 13.935 4.27524 14.7367 3.75006L14.8752 3.74219L15.1396 3.97828C15.8967 4.99821 16.5552 6.02653 17.1422 6.94468C17.4114 7.36492 17.6653 7.76366 17.8951 8.10626L17.882 8.21119L17.755 8.23008Z" fill="url(#paint33_linear_1591_40571)"/>
<path d="M25.6013 4.68359L25.4276 4.90552C24.7073 6.51883 24.021 7.84673 23.3374 8.96005L23.3589 9.06026L23.5326 9.09069C24.478 8.85145 25.5341 8.53298 26.4234 8.01043L26.4696 7.9013C26.4696 7.9013 26.4701 7.9013 26.4706 7.90077C26.1653 6.5671 25.7823 5.5031 25.6013 4.68359Z" fill="url(#paint34_linear_1591_40571)"/>
<path d="M4.74679 6.98647C4.47292 6.98647 4.22109 6.90253 3.99706 6.73726C3.7447 6.55101 3.60147 6.20316 3.5957 5.77295L3.666 5.67379L3.74156 5.57148C4.53221 5.27243 5.19327 4.90045 5.83493 4.54001C6.1791 4.34641 6.53429 4.14652 6.90155 3.96289L6.97552 4.00539L7.04845 4.04736C7.07626 4.53057 6.93303 5.08722 6.65076 5.5846C6.15969 6.44975 5.43041 6.98647 4.74679 6.98647Z" fill="url(#paint35_linear_1591_40571)"/>
<path d="M24.8036 25.8399C24.4647 25.8399 24.1441 25.7407 23.8771 25.5524C23.5072 25.2922 23.2737 24.9349 23.1992 24.5199L23.259 24.4406L23.323 24.3604C24.3498 24.2282 25.2868 23.9412 26.0748 23.6699L26.164 23.7129L26.2511 23.7581C26.377 24.2292 26.3078 24.7528 26.0622 25.1752C25.8241 25.5849 25.3414 25.8399 24.8036 25.8399Z" fill="url(#paint36_linear_1591_40571)"/>
<path d="M8.76944 10.2199L8.74268 10.1313C9.72431 8.52741 10.7085 7.21998 11.7453 6.13919L11.9084 6.06836L12.0837 6.13552C13.3874 7.34274 14.5107 8.59824 15.5201 9.98175L15.5034 10.0814L15.3727 10.0909C14.8759 9.79813 14.484 9.57148 14.0107 9.40936L13.9294 9.30705L13.8413 9.20474C13.7809 8.86791 13.623 8.54997 13.3817 8.27873C13.0044 7.85533 12.5443 7.62186 12.0868 7.62186C11.6771 7.62186 11.2914 7.80182 10.9887 8.15176C10.7175 8.4655 10.5527 8.86214 10.5139 9.24462L10.4347 9.34692L10.3612 9.44818C9.85495 9.63129 9.43785 9.88259 8.91425 10.2105L8.76892 10.2189L8.76944 10.2199Z" fill="url(#paint37_linear_1591_40571)"/>
<path d="M22.2014 24.5681C22.119 24.5681 22.0356 24.5654 21.9532 24.5628L21.7812 24.493L21.7754 24.396C22.5634 23.5476 23.3352 22.5623 24.0713 21.4553L24.2197 21.3535L24.3787 21.3839C25.3304 22.0665 26.364 22.6463 27.4548 23.1137L27.5665 23.2375L27.4558 23.3414C27.1987 23.4212 26.9506 23.5135 26.6436 23.6221C26.5183 23.6667 26.385 23.7134 26.2512 23.7601L26.1641 23.715L26.0749 23.672C25.9584 23.3451 25.7449 23.0864 25.4553 22.9222C25.204 22.78 24.9464 22.7076 24.6904 22.7076C24.2502 22.7076 23.8499 22.9275 23.5928 23.3105C23.3908 23.6111 23.2922 23.9993 23.3231 24.3624L23.2591 24.4427L23.1993 24.5219C22.8493 24.5607 22.5319 24.5681 22.2014 24.5681Z" fill="url(#paint38_linear_1591_40571)"/>
<path d="M22.8695 7.70804C22.5337 7.70804 22.1911 7.5669 21.8506 7.28884C21.5468 7.04068 21.3438 6.71277 21.2603 6.33816L21.3165 6.26471L21.3758 6.19179C22.3894 6.1346 23.3338 5.9006 24.1848 5.49609L24.2635 5.53597L24.3401 5.57637C24.3852 5.89745 24.3416 6.23795 24.212 6.56586C23.9245 7.29198 23.4351 7.70804 22.8695 7.70804Z" fill="url(#paint39_linear_1591_40571)"/>
<path d="M24.9402 16.9488C24.3552 16.4378 23.4958 16.6025 22.8867 17.3601C22.6291 17.6807 22.4769 18.0925 22.4816 18.4975C23.3667 18.4587 24.3106 18.2573 25.3253 17.8286C25.3011 17.4703 25.1736 17.1523 24.9402 16.9488Z" fill="url(#paint40_linear_1591_40571)"/>
<path d="M19.2789 19.2667C18.812 19.5773 18.014 18.9498 17.4726 18.0605C17.2533 17.7001 17.0995 17.3003 17.0444 16.9346C16.61 16.7053 16.1882 16.4734 15.7764 16.2578C16.7874 17.8711 17.6892 19.315 18.5979 20.6229C19.5009 19.9745 20.2616 19.2578 21.1095 18.4288C20.6147 18.3596 20.1389 18.2442 19.6793 18.0978C19.7134 18.6245 19.5623 19.0783 19.2789 19.2667Z" fill="url(#paint41_linear_1591_40571)"/>
<path d="M10.932 8.10373C10.6303 8.45262 10.4498 8.90225 10.4336 9.34663C11.6539 8.92639 12.7882 8.93793 13.9283 9.30624C13.8858 8.93583 13.7279 8.55808 13.4357 8.23017C12.6843 7.38653 11.6308 7.29576 10.932 8.10373Z" fill="url(#paint42_linear_1591_40571)"/>
<path d="M12.4342 24.8146C12.1945 24.8146 11.9542 24.76 11.7202 24.653C11.1903 24.4101 10.8545 23.9793 10.8262 23.4348L10.8938 23.3151L10.9699 23.1945C12.1451 22.5628 13.301 22.2606 14.4347 22.2559L14.514 22.3267L14.5911 22.3996C14.6199 22.9028 14.4583 23.4075 14.1325 23.8277C13.6399 24.4636 13.0365 24.8146 12.4342 24.8146Z" fill="url(#paint43_linear_1591_40571)"/>
<path d="M25.4894 22.8586C24.7287 22.4278 23.949 22.6482 23.5319 23.2688C23.3305 23.5689 23.1998 24.0049 23.2581 24.4414C24.3504 24.3087 25.3299 24.0028 26.1631 23.7137C26.0545 23.3628 25.8315 23.0522 25.4894 22.8586Z" fill="url(#paint44_linear_1591_40571)"/>
<path d="M25.2931 26.9518C25.0203 26.819 23.4904 26.0457 21.9516 24.562L21.7795 24.4922L21.6331 24.5447C20.7926 25.4292 20.0046 26.1102 19.1463 26.658L19.1211 26.7645C20.8488 27.7172 22.8409 27.8348 25.3036 27.0425L25.2931 26.9518Z" fill="url(#paint45_linear_1591_40571)"/>
<path d="M13.257 26.1366C12.6714 25.8649 12.0487 25.5962 11.3908 25.3087C10.7234 25.017 10.0351 24.7855 9.34883 24.4688L9.21977 24.4866L9.02564 24.719C8.97213 24.8271 8.91861 24.9361 8.86458 25.0452C8.14055 26.5153 7.38715 27.9691 5.93018 29.5646L5.94173 29.6576C9.35513 28.9624 10.4653 27.4871 13.2842 26.2316L13.257 26.1366Z" fill="url(#paint46_linear_1591_40571)"/>
<path d="M3.20125 26.5035C2.87964 26.5035 2.5596 26.4794 2.23274 26.4432L2.05908 26.3577L2.10997 26.2255C3.5449 25.046 4.47039 23.8913 5.41267 22.6756L5.5963 22.5508L5.76314 22.5676C6.70857 23.1206 7.77046 23.7334 9.1886 24.3939L9.22008 24.4878L9.02596 24.7202C8.59207 25.0193 8.08841 25.3204 7.57057 25.5644L7.49869 25.5214L7.42367 25.4799C7.38327 25.0161 7.1456 24.6452 6.76418 24.4558C6.54435 24.3467 6.30353 24.2916 6.04855 24.2916C5.37122 24.2916 4.67186 24.6798 4.26578 25.2806C4.03545 25.6216 3.92213 26.002 3.93944 26.3855L3.87491 26.46L3.81247 26.5334C3.59632 26.5465 3.39642 26.5035 3.20125 26.5035Z" fill="url(#paint47_linear_1591_40571)"/>
<path d="M8.76941 10.2193C8.22324 10.5703 7.69492 10.8819 7.1797 11.1574C7.16554 11.575 7.01129 12.0629 6.70909 12.5655C5.96356 13.8053 4.90428 14.299 4.17763 13.7643C3.84448 13.5192 3.70335 13.0445 3.7427 12.5293C3.13672 12.6862 2.67083 12.798 2.05908 12.8704C2.86495 13.6589 4.10733 14.6347 5.5963 15.515C7.04172 13.4815 7.91894 11.6143 8.76941 10.2193Z" fill="url(#paint48_linear_1591_40571)"/>
<path d="M14.7367 3.75135C14.3631 3.56037 13.935 3.38566 13.3647 3.21725L13.2755 3.11652L13.1785 3.01631C13.0924 2.69364 12.9193 2.36836 12.6937 2.10708C12.3249 1.68001 11.8716 1.435 11.4503 1.435C11.1323 1.435 10.8364 1.56879 10.5715 1.83269C10.3102 2.09344 10.1607 2.49952 10.1643 2.93079L10.0961 3.01578L10.0311 3.10078C9.59614 3.18052 9.1696 3.28703 8.64809 3.43446L8.48335 3.4098L8.46289 3.31379C9.47285 1.77288 10.3978 0.728815 11.285 0.129135L11.4623 0.0976562L11.7047 0.197865C12.6276 0.941825 13.7488 2.1543 14.8915 3.64799L14.8747 3.744L14.7367 3.75135Z" fill="url(#paint49_linear_1591_40571)"/>
<path d="M24.8985 13.1107C24.3303 13.9617 23.1924 14.0818 22.642 13.3557C22.4206 13.0635 22.2868 12.7141 22.2637 12.3583C21.7653 12.3347 21.3671 12.2975 20.8965 12.2256C21.8771 13.3804 22.8524 14.4045 23.8954 15.3111C24.8041 14.1595 25.7689 12.7922 26.8765 11.1406C26.3607 11.4643 25.7863 11.6852 25.3141 11.8704C25.3288 12.2686 25.197 12.6983 24.8985 13.1107Z" fill="url(#paint50_linear_1591_40571)"/>
<path d="M16.4036 22.6753L16.2011 22.5488L16.0689 22.5808C14.9435 23.6464 14.0238 24.808 13.2578 26.1369L13.2846 26.2314C15.8097 25.1065 18.0794 26.1889 19.1219 26.7639L19.147 26.6574C18.422 25.2256 17.4556 23.9124 16.4036 22.6753Z" fill="url(#paint51_linear_1591_40571)"/>
<path d="M5.07745 20.9986C4.72646 20.9986 4.4017 20.8821 4.13832 20.6623C3.84661 20.4183 3.68922 20.0123 3.69971 19.5385L3.77316 19.4556L3.85133 19.3706C5.01764 19.1644 6.11207 18.7888 7.19233 18.2227L7.26316 18.2641L7.33399 18.305C7.33084 18.815 7.11783 19.4204 6.74638 19.9755C6.31144 20.6256 5.70336 20.9986 5.07745 20.9986Z" fill="url(#paint52_linear_1591_40571)"/>
<path d="M11.2763 14.7452C10.8859 15.1702 10.6934 15.678 10.6787 16.1471C11.9452 15.5852 13.112 15.444 14.1897 15.6371C14.1383 15.3239 14.0323 14.9781 13.8114 14.6759C13.1782 13.8103 12.0407 13.9131 11.2763 14.7452Z" fill="url(#paint53_linear_1591_40571)"/>
<path d="M27.5667 23.2363L27.456 23.3402C27.0027 24.5973 26.1307 26.0558 25.2944 26.9514L25.3054 27.0422C27.5247 26.3286 28.9035 26.23 28.9035 26.23C28.9035 26.23 28.2519 24.8134 27.5667 23.2363Z" fill="url(#paint54_linear_1591_40571)"/>
<path d="M5.93103 29.5643C4.6409 28.6881 3.43053 27.6965 2.23274 26.441L2.05908 26.3555V29.5475C2.05908 29.5475 3.75686 30.1015 5.94257 29.6566L5.93103 29.5643Z" fill="url(#paint55_linear_1591_40571)"/>
<path d="M6.79559 24.3924C5.89634 23.9459 4.76203 24.4202 4.20747 25.2407C3.93938 25.6374 3.84179 26.0655 3.87484 26.4595C5.25573 26.3693 6.48868 25.992 7.49864 25.5214C7.4682 25.0052 7.21007 24.5981 6.79559 24.3924Z" fill="#0B0700"/>
<path d="M7.49922 25.5204C7.52388 25.9354 7.40058 26.4213 7.09366 26.9302C6.38066 28.1112 5.2857 28.161 4.55696 27.6673C4.17186 27.4066 3.91793 26.9595 3.87543 26.4585C3.27943 26.4973 2.72014 26.4422 2.05908 26.3562C3.16977 27.5346 4.42055 28.6306 5.94257 29.6573C7.63773 27.8168 8.40058 26.1222 9.22113 24.4863C8.76311 24.8274 8.15557 25.214 7.49922 25.5204Z" fill="url(#paint56_linear_1591_40571)"/>
<path d="M26.0001 25.1403C25.6155 25.8014 24.6035 25.9771 23.9178 25.4944C23.5033 25.2027 23.3092 24.8218 23.2588 24.4415C22.7693 24.5007 22.3024 24.5191 21.7808 24.4918C23.54 26.2321 25.3055 27.0422 25.3055 27.0422C26.1329 26.1728 27.0862 24.6445 27.5667 23.2363C27.1596 23.3539 26.7178 23.5217 26.1643 23.7138C26.3076 24.1765 26.2499 24.7111 26.0001 25.1403Z" fill="url(#paint57_linear_1591_40571)"/>
<path d="M6.72832 17.2597C6.0085 16.83 5.07514 17.1973 4.3338 18.0824C3.99435 18.4874 3.80285 18.99 3.77295 19.4554C4.94135 19.2581 6.07461 18.8919 7.26347 18.2639C7.25665 17.8458 7.09978 17.4811 6.72832 17.2597Z" fill="url(#paint58_linear_1591_40571)"/>
<path d="M12.0107 4.80257C11.548 4.80257 11.0569 4.62052 10.6634 4.3031C10.2998 4.01034 10.0779 3.58485 10.0317 3.09954L10.0968 3.01455L10.165 2.92956C10.666 2.84561 11.1225 2.80469 11.5595 2.80469C12.1214 2.80469 12.6524 2.87394 13.1791 3.01455L13.2762 3.11476L13.3654 3.21549C13.4325 3.68663 13.3113 4.10688 13.017 4.40803C12.7646 4.66616 12.4163 4.80257 12.0107 4.80257Z" fill="url(#paint59_linear_1591_40571)"/>
<path d="M13.9899 21.2428C13.1258 20.482 12.0325 20.9154 11.353 21.9972C11.0739 22.4421 10.9039 22.9201 10.895 23.3173C12.0802 22.6625 13.2806 22.3031 14.5151 22.3288C14.4768 21.9364 14.3126 21.5266 13.9899 21.2428Z" fill="url(#paint60_linear_1591_40571)"/>
<path d="M19.33 16.973C18.8316 16.121 17.9271 15.3046 17.2697 15.9431C17.043 16.1629 16.9832 16.5276 17.0446 16.9342C17.8699 17.3702 18.7408 17.7993 19.6794 18.0979C19.6558 17.7369 19.5451 17.3413 19.33 16.973Z" fill="url(#paint61_linear_1591_40571)"/>
<path d="M20.3014 24.2073C20.3512 24.6863 20.1975 25.0698 19.9577 25.2277C19.5894 25.4701 18.6498 25.0986 18.1151 24.2713C17.8502 23.8615 17.6676 23.414 17.5915 23.0226C17.1639 22.8489 16.7327 22.6989 16.2007 22.5488C17.5118 24.0572 18.5013 25.5257 19.1219 26.7634C20.0852 26.1584 20.931 25.3993 21.7804 24.4911C21.219 24.4617 20.7699 24.3663 20.3014 24.2073Z" fill="url(#paint62_linear_1591_40571)"/>
<path d="M5.39697 8.48664C6.6042 9.16239 7.83399 9.77046 8.7684 10.218C9.76157 8.58842 10.7789 7.22012 11.9074 6.06641C10.0391 6.0706 7.59842 7.45569 5.39697 8.48664Z" fill="url(#paint63_linear_1591_40571)"/>
<path d="M18.251 14.4023C19.0888 15.7518 20.0065 17.1316 21.1093 18.4285C22.0017 17.5555 22.9104 16.5555 23.8941 15.3084C21.7656 15.8588 20.2892 15.5366 18.251 14.4023Z" fill="url(#paint64_linear_1591_40571)"/>
<path d="M26.4691 7.89844C26.4691 7.89844 26.4686 7.89844 26.4681 7.89896C25.5085 8.48395 24.3343 8.81606 23.3574 9.05845C24.4497 9.78247 25.6066 10.4708 26.8752 11.1382C26.8584 9.90419 26.68 8.8213 26.4691 7.89949V7.89844Z" fill="url(#paint65_linear_1591_40571)"/>
<path d="M27.566 23.2359C27.15 22.2789 26.8815 21.3146 26.7136 20.3828C25.9932 20.7585 25.073 21.1462 24.2188 21.3518C25.1993 22.0691 26.3032 22.7091 27.566 23.2359Z" fill="url(#paint66_linear_1591_40571)"/>
<path d="M26.4669 17.2613C26.479 15.9654 26.6033 14.8841 26.7035 14.168C25.8106 14.6837 24.7355 15.0903 23.8945 15.3075C24.7119 16.0179 25.5598 16.6569 26.4669 17.2613Z" fill="url(#paint67_linear_1591_40571)"/>
<path d="M17.8813 8.21094C18.9097 9.72876 19.8992 11.0514 20.8955 12.224C21.7061 11.414 22.5151 10.4213 23.3577 9.0593C21.6903 9.47273 19.8435 9.08501 17.8813 8.21094Z" fill="url(#paint68_linear_1591_40571)"/>
<path d="M15.503 10.0805C14.951 9.7484 14.4836 9.48555 13.929 9.30664C13.9867 9.80978 13.8314 10.3009 13.5109 10.6398C12.9516 11.2305 11.715 11.2736 10.9558 10.5789C10.5723 10.2285 10.4185 9.78722 10.4343 9.34704C9.86347 9.54378 9.36977 9.83287 8.76904 10.219C10.2779 10.9415 11.4783 11.6041 12.5345 12.4483C13.5229 11.5286 14.5276 10.7972 15.503 10.0805Z" fill="url(#paint69_linear_1591_40571)"/>
<path d="M5.59586 22.5487C6.9269 20.8231 7.8823 19.077 8.88964 17.2188C8.32667 17.6132 7.79153 17.9832 7.26268 18.2628C7.27108 18.7953 7.03603 19.415 6.68766 19.9354C5.95 21.0377 4.8414 21.1579 4.18244 20.6075C3.87447 20.3499 3.74225 19.9207 3.77216 19.4548C3.1856 19.554 2.67878 19.5869 2.05811 19.6126C3.0345 20.7234 4.15359 21.6946 5.59586 22.5487Z" fill="url(#paint70_linear_1591_40571)"/>
<path d="M2.11571 5.97427C2.97457 5.11384 4.1351 3.34209 4.97822 1.84473L5.16237 1.659L5.30246 1.64062C6.34442 2.07085 7.40632 2.63328 8.4635 3.31271L8.48396 3.40872L8.32289 3.52991C7.90422 3.6616 7.49446 3.82843 7.04955 4.04669L6.97663 4.00473L6.90265 3.96222C6.86435 3.61542 6.72584 3.36044 6.51126 3.24187C6.36068 3.15897 6.18807 3.11649 5.99867 3.11649C5.36856 3.11649 4.68336 3.56348 4.21065 4.28331C3.9436 4.69044 3.77886 5.14323 3.74266 5.57029L3.66711 5.6726L3.59681 5.77176C3.16082 5.93073 2.76523 6.07082 2.21329 6.1726L2.05957 6.12694L2.11676 5.97375L2.11571 5.97427Z" fill="url(#paint71_linear_1591_40571)"/>
<path d="M19.1619 12.9326C18.6939 13.2432 17.8298 12.7443 17.2621 11.8629C17.0695 11.5638 16.9184 11.1803 16.8518 10.812C16.3329 10.5554 15.8697 10.3004 15.5029 10.0801C16.4342 11.3639 17.2951 12.8628 18.2516 14.4027C19.1687 13.7369 20.0344 13.0848 20.8958 12.2238C20.4646 12.1577 20.0097 12.047 19.5501 11.9064C19.5984 12.3424 19.4814 12.7207 19.1619 12.9326Z" fill="url(#paint72_linear_1591_40571)"/>
<path d="M19.7653 6.27587C19.4431 6.23285 19.1467 6.10589 18.7973 5.98679L18.7007 5.87766L18.5948 5.76224C18.4809 5.39393 18.2684 4.98522 17.9883 4.59541C17.5963 4.05029 17.0208 3.46792 16.5817 3.46792C16.4673 3.46792 16.3713 3.5078 16.2873 3.58964C16.1441 3.72973 16.1415 4.076 16.281 4.52091L16.2212 4.5676L16.1619 4.61482C15.9531 4.48313 15.3025 4.08177 15.1399 3.97841L14.8755 3.74232L14.8923 3.64631C15.0491 3.54348 15.2097 3.43487 15.3639 3.32994C15.7957 3.03561 16.2055 2.73236 16.6945 2.47895L16.8629 2.47266L17.0874 2.60644C17.6976 3.26226 18.2689 3.9952 18.7464 4.6484C19.1483 5.19823 19.5292 5.71659 19.8906 6.10379L19.9048 6.22288L19.7653 6.27587Z" fill="url(#paint73_linear_1591_40571)"/>
<path d="M24.987 19.1461C24.4734 19.9945 23.5411 20.0228 22.9918 19.5695C22.6403 19.2799 22.486 18.8917 22.4813 18.4971C22.0081 18.5181 21.5516 18.4924 21.1099 18.4305C22.0023 19.4809 23.0185 20.4756 24.2195 21.3539C25.1172 19.9872 25.879 18.568 26.4676 17.2637C26.0768 17.4846 25.6964 17.6719 25.3254 17.8282C25.3543 18.2505 25.2393 18.7296 24.987 19.1461Z" fill="url(#paint74_linear_1591_40571)"/>
<path d="M18.3274 7.00257C17.8453 7.00257 17.1643 6.3221 16.7036 5.64739C16.4465 5.27069 16.2645 4.92389 16.1611 4.6154L16.2204 4.56818L16.2802 4.52148C17.0509 5.00312 17.808 5.45904 18.5939 5.76282L18.6999 5.87824L18.7965 5.98737C18.8636 6.33836 18.8264 6.62325 18.6852 6.8179C18.5976 6.93909 18.4743 7.00257 18.3274 7.00257Z" fill="url(#paint75_linear_1591_40571)"/>
<path d="M19.774 22.9926C19.0012 22.0083 18.1916 21.6836 17.752 22.0666C17.5526 22.2408 17.5096 22.5986 17.5914 23.0225C18.6575 23.4548 19.4408 23.9139 20.3013 24.2072C20.263 23.8388 20.105 23.4144 19.774 22.9926Z" fill="url(#paint76_linear_1591_40571)"/>
<path d="M25.3133 11.8693C25.2939 11.3478 25.0232 10.8793 24.5447 10.5697C24.0069 10.2219 23.1271 10.3305 22.6255 11.054C22.359 11.4385 22.2336 11.9044 22.263 12.3567C23.2016 12.4008 24.2021 12.3058 25.3133 11.8693Z" fill="url(#paint77_linear_1591_40571)"/>
<path d="M5.5963 22.5508C4.21226 22.9616 2.93945 23.1316 2.05908 22.9852V26.3577C3.64144 25.0738 4.63251 23.8 5.5963 22.5508Z" fill="url(#paint78_linear_1591_40571)"/>
<path d="M5.39798 8.48828C4.20439 9.04756 2.9043 9.49877 2.05908 9.49981V12.8712C3.39747 11.654 4.37333 10.1006 5.39798 8.48828Z" fill="url(#paint79_linear_1591_40571)"/>
<path d="M5.5963 15.5156C4.02758 16.1342 2.87911 16.3079 2.05908 16.2417V19.6132C3.62675 18.2333 4.65559 16.8393 5.5963 15.5156Z" fill="url(#paint80_linear_1591_40571)"/>
<path d="M5.59619 22.5504C6.7499 23.2335 7.99176 23.9166 9.2205 24.488C10.0237 22.8857 10.8836 21.1722 12.5694 19.2734C10.3029 19.7792 8.14443 21.7944 5.59619 22.5504Z" fill="url(#paint81_linear_1591_40571)"/>
<path d="M12.5347 12.4492C9.98859 12.7992 7.59879 14.7262 5.59619 15.5163C6.71265 16.1764 7.88158 16.7829 8.88997 17.2204C10.0447 15.0909 11.2787 13.6181 12.5347 12.4492Z" fill="url(#paint82_linear_1591_40571)"/>
<path d="M12.5347 12.4468C13.7088 13.3859 14.7062 14.5486 15.7765 16.2568C16.659 15.5407 17.4732 14.9662 18.2518 14.4017C16.7639 13.5732 14.7099 12.1478 12.5347 12.4468Z" fill="url(#paint83_linear_1591_40571)"/>
<path d="M15.5031 10.08C16.3195 9.48034 17.1175 8.88906 17.8824 8.21016C15.9716 7.35864 13.9606 6.0617 11.9082 6.06642C13.2046 7.25371 14.4118 8.57582 15.5031 10.08Z" fill="url(#paint84_linear_1591_40571)"/>
<path d="M12.5693 19.2713C14.0268 20.2944 15.2225 21.4229 16.201 22.5483C17.0299 21.7739 17.8521 21.159 18.5981 20.6228C17.1632 19.8112 15.3038 18.6612 12.5693 19.2713Z" fill="url(#paint85_linear_1591_40571)"/>
<path d="M16.2007 22.5495C15.6388 22.3916 15.0386 22.3391 14.5145 22.3281C14.5664 22.8591 14.4017 23.3685 14.0775 23.7867C13.44 24.6093 12.599 24.9797 11.7501 24.5904C11.2396 24.3564 10.8807 23.9288 10.8944 23.3166C10.3435 23.6209 9.79471 24.0595 9.22021 24.4871C10.6299 25.1424 12.0565 25.6592 13.2847 26.2321C14.1771 24.6686 15.1934 23.4907 16.2007 22.5495Z" fill="url(#paint86_linear_1591_40571)"/>
<path d="M6.6026 10.0339C5.79201 9.6378 4.73221 10.5134 4.17345 11.3177C3.91899 11.6834 3.77367 12.1199 3.74219 12.5302C4.86075 12.2406 5.98561 11.7962 7.1792 11.1582C7.19703 10.6383 6.99924 10.228 6.6026 10.0339Z" fill="url(#paint87_linear_1591_40571)"/>
<path d="M23.3485 4.36431C22.6093 4.01542 21.8165 4.42727 21.4734 5.15287C21.2992 5.52117 21.2494 5.90732 21.316 6.26408C22.3417 6.21372 23.3406 5.98234 24.2625 5.53534C24.178 5.04426 23.8737 4.61195 23.3485 4.36431Z" fill="url(#paint88_linear_1591_40571)"/>
<path d="M13.2759 3.11637C13.1967 2.72865 12.9973 2.34881 12.7486 2.06025C12.1584 1.37715 11.2644 1.04137 10.5214 1.78218C10.2271 2.07546 10.0708 2.5424 10.0965 3.01617C11.2644 2.81103 12.267 2.82677 13.2759 3.11637Z" fill="url(#paint89_linear_1591_40571)"/>
<path d="M18.0456 4.55383C17.5057 3.80305 16.7035 3.08322 16.2366 3.53862C16.0535 3.71753 16.0755 4.11889 16.2203 4.56747C17.0178 5.06589 17.8399 5.56536 18.6998 5.87753C18.5959 5.46358 18.3604 4.99139 18.0456 4.55383Z" fill="url(#paint90_linear_1591_40571)"/>
<path d="M6.54378 3.18076C5.87327 2.81088 4.82344 3.22064 4.15031 4.24581C3.83919 4.71958 3.68074 5.23164 3.66553 5.67392C4.95722 5.20226 5.88586 4.54434 6.97504 4.00552C6.94409 3.6262 6.79981 3.32137 6.54378 3.18076Z" fill="url(#paint91_linear_1591_40571)"/>
<path d="M19.9033 6.22275C19.4856 6.17973 19.1068 6.02496 18.7002 5.87753C18.7921 6.24374 18.7805 6.5643 18.6278 6.77521C18.2658 7.27626 17.3603 6.48193 16.7627 5.60681C16.5408 5.28257 16.333 4.91741 16.2207 4.56747C15.7045 4.24428 15.3655 4.00871 14.875 3.74219C16.1095 5.36232 17.1179 7.08214 17.8818 8.21067C18.6441 7.53439 19.2621 6.95779 19.9033 6.22275Z" fill="url(#paint92_linear_1591_40571)"/>
<path d="M14.8748 3.74281C14.3601 3.46317 13.7756 3.25906 13.2751 3.11583C13.3659 3.56127 13.2982 4.01771 12.9645 4.35874C12.4094 4.92642 11.4063 4.811 10.7074 4.24805C10.3113 3.92853 10.1203 3.46894 10.0957 3.01562C9.57629 3.10691 9.07209 3.23861 8.48291 3.40965C9.63347 4.15413 10.7919 5.04709 11.9073 6.06806C12.7677 5.18822 13.8276 4.4238 14.8748 3.74281Z" fill="url(#paint93_linear_1591_40571)"/>
<path d="M23.3581 9.06026C24.0727 7.90497 24.8098 6.47791 25.601 4.68359C25.1792 5.02672 24.7306 5.30898 24.2626 5.53616C24.3177 5.85725 24.2789 6.20352 24.1461 6.53982C23.7065 7.65051 22.814 7.98524 21.8948 7.23446C21.5816 6.97843 21.3854 6.63741 21.3161 6.26438C20.8492 6.28746 20.377 6.27277 19.9043 6.22398C20.9421 7.29427 22.0884 8.21871 23.3581 9.06026Z" fill="url(#paint94_linear_1591_40571)"/>
<path d="M8.48351 3.4082C7.9258 3.5698 7.4363 3.77651 6.97565 4.00421C7.01343 4.46066 6.88593 5.02624 6.58951 5.54827C5.91165 6.74238 4.81355 7.25287 4.03811 6.67942C3.77736 6.48687 3.64987 6.11437 3.66561 5.67209C3.1525 5.85939 2.71913 6.01731 2.05859 6.12696C2.91115 6.91027 4.06382 7.73975 5.39749 8.48686C6.50294 6.74658 7.48614 4.93809 8.48351 3.4082Z" fill="url(#paint95_linear_1591_40571)"/>
<path d="M5.16214 1.65961C6.22404 2.0893 7.35048 2.67586 8.48321 3.4088C9.41342 1.98174 10.4082 0.756152 11.4622 0.0966614C9.48005 -0.196095 7.50577 0.134961 5.16214 1.65961Z" fill="url(#paint96_linear_1591_40571)"/>
<path d="M25.1836 1.56641C25.1836 1.56641 23.5729 2.50606 22.1128 2.91477C22.948 3.51025 24.3966 4.25841 25.6007 4.6818C25.2166 2.94152 25.1836 1.56641 25.1836 1.56641Z" fill="url(#paint97_linear_1591_40571)"/>
<path d="M16.8618 2.47266C18.0995 3.74022 19.0512 5.34356 19.9033 6.22288C20.7091 5.29897 21.4347 4.31996 22.1126 2.91494C20.653 3.32365 18.9053 3.22816 16.8618 2.47266Z" fill="url(#paint98_linear_1591_40571)"/>
<path d="M14.8747 3.74205C15.5174 3.3239 16.1203 2.83597 16.8616 2.47239C14.796 1.70849 13.4797 0.393707 11.4624 0.0957031C12.5169 0.892128 13.7751 2.29873 14.8747 3.74205Z" fill="url(#paint99_linear_1591_40571)"/>
<path d="M5.16192 1.66016C3.60947 2.67012 2.05859 2.75721 2.05859 2.75721V6.12864C3.03183 5.21364 4.35815 3.11712 5.16192 1.66016Z" fill="url(#paint100_linear_1591_40571)"/>
<path d="M18.5983 20.623C19.5867 22.0454 20.6245 23.3476 21.7803 24.4913C22.6712 23.5391 23.4896 22.4625 24.2189 21.3523C22.4734 21.772 20.5133 21.7065 18.5983 20.623Z" fill="url(#paint101_linear_1591_40571)"/>
</g>
<defs>
<linearGradient id="paint0_linear_1591_40571" x1="11.6583" y1="5.31742" x2="23.323" y2="3.72667" gradientUnits="userSpaceOnUse">
<stop stop-color="#E30918"/>
<stop offset="0.5" stop-color="#9C1006"/>
<stop offset="1" stop-color="#E30918"/>
</linearGradient>
<linearGradient id="paint1_linear_1591_40571" x1="12.1468" y1="8.98496" x2="23.7726" y2="7.39998" gradientUnits="userSpaceOnUse">
<stop stop-color="#E30918"/>
<stop offset="0.5" stop-color="#9C1006"/>
<stop offset="1" stop-color="#E30918"/>
</linearGradient>
<linearGradient id="paint2_linear_1591_40571" x1="12.7628" y1="14.8159" x2="24.78" y2="12.8034" gradientUnits="userSpaceOnUse">
<stop stop-color="#144391"/>
<stop offset="0.5" stop-color="#212A72"/>
<stop offset="1" stop-color="#144391"/>
</linearGradient>
<linearGradient id="paint3_linear_1591_40571" x1="12.7607" y1="12.1172" x2="24.3047" y2="10.5327" gradientUnits="userSpaceOnUse">
<stop stop-color="#3FA3DC"/>
<stop offset="0.5" stop-color="#2A78AA"/>
<stop offset="1" stop-color="#3FA3DC"/>
</linearGradient>
<linearGradient id="paint4_linear_1591_40571" x1="12.6392" y1="15.1254" x2="23.1659" y2="13.7325" gradientUnits="userSpaceOnUse">
<stop stop-color="#087BC0"/>
<stop offset="0.53" stop-color="#005D99"/>
<stop offset="1" stop-color="#087BC0"/>
</linearGradient>
<linearGradient id="paint5_linear_1591_40571" x1="11.196" y1="11.3688" x2="23.0379" y2="9.72456" gradientUnits="userSpaceOnUse">
<stop stop-color="#F39205"/>
<stop offset="0.5" stop-color="#D67A00"/>
<stop offset="1" stop-color="#F39205"/>
</linearGradient>
<linearGradient id="paint6_linear_1591_40571" x1="12.2249" y1="9.55753" x2="23.8507" y2="7.97255" gradientUnits="userSpaceOnUse">
<stop stop-color="#E30918"/>
<stop offset="0.5" stop-color="#9C1006"/>
<stop offset="1" stop-color="#E30918"/>
</linearGradient>
<linearGradient id="paint7_linear_1591_40571" x1="12.5729" y1="12.1705" x2="24.3477" y2="10.6118" gradientUnits="userSpaceOnUse">
<stop stop-color="#087BC0"/>
<stop offset="0.5" stop-color="#005D99"/>
<stop offset="1" stop-color="#087BC0"/>
</linearGradient>
<linearGradient id="paint8_linear_1591_40571" x1="-2.83894" y1="21.3584" x2="8.95266" y2="19.6575" gradientUnits="userSpaceOnUse">
<stop stop-color="#009E4C"/>
<stop offset="0.5" stop-color="#007E38"/>
<stop offset="1" stop-color="#009E4C"/>
</linearGradient>
<linearGradient id="paint9_linear_1591_40571" x1="13.5386" y1="16.4959" x2="25.2872" y2="14.6051" gradientUnits="userSpaceOnUse">
<stop stop-color="white"/>
<stop offset="0.5" stop-color="#D0D0D0"/>
<stop offset="1" stop-color="white"/>
</linearGradient>
<linearGradient id="paint10_linear_1591_40571" x1="11.8394" y1="14.6827" x2="23.5455" y2="13.0867" gradientUnits="userSpaceOnUse">
<stop stop-color="#E30918"/>
<stop offset="0.5" stop-color="#9C1006"/>
<stop offset="1" stop-color="#E30918"/>
</linearGradient>
<linearGradient id="paint11_linear_1591_40571" x1="13.1679" y1="18.804" x2="25.5308" y2="17.1676" gradientUnits="userSpaceOnUse">
<stop stop-color="#087BC0"/>
<stop offset="0.5" stop-color="#005D99"/>
<stop offset="1" stop-color="#087BC0"/>
</linearGradient>
<linearGradient id="paint12_linear_1591_40571" x1="1.26738" y1="21.5384" x2="12.9871" y2="19.9796" gradientUnits="userSpaceOnUse">
<stop stop-color="#008045"/>
<stop offset="0.5" stop-color="#006231"/>
<stop offset="1" stop-color="#008045"/>
</linearGradient>
<linearGradient id="paint13_linear_1591_40571" x1="13.0169" y1="18.9928" x2="24.913" y2="17.4105" gradientUnits="userSpaceOnUse">
<stop stop-color="#008045"/>
<stop offset="0.45" stop-color="#006231"/>
<stop offset="1" stop-color="#008045"/>
</linearGradient>
<linearGradient id="paint14_linear_1591_40571" x1="13.7222" y1="20.8787" x2="25.5794" y2="19.3016" gradientUnits="userSpaceOnUse">
<stop stop-color="#008045"/>
<stop offset="0.5" stop-color="#006231"/>
<stop offset="1" stop-color="#008045"/>
</linearGradient>
<linearGradient id="paint15_linear_1591_40571" x1="13.6879" y1="21.2392" x2="24.2193" y2="19.7198" gradientUnits="userSpaceOnUse">
<stop stop-color="#009E4C"/>
<stop offset="0.5" stop-color="#007E38"/>
<stop offset="1" stop-color="#009E4C"/>
</linearGradient>
<linearGradient id="paint16_linear_1591_40571" x1="15.2703" y1="25.3475" x2="27.1768" y2="23.4315" gradientUnits="userSpaceOnUse">
<stop stop-color="white"/>
<stop offset="0.5" stop-color="#D0D0D0"/>
<stop offset="1" stop-color="white"/>
</linearGradient>
<linearGradient id="paint17_linear_1591_40571" x1="12.7486" y1="11.653" x2="24.2432" y2="9.80306" gradientUnits="userSpaceOnUse">
<stop stop-color="white"/>
<stop offset="0.5" stop-color="#D0D0D0"/>
<stop offset="1" stop-color="white"/>
</linearGradient>
<linearGradient id="paint18_linear_1591_40571" x1="14.5519" y1="24.8379" x2="26.8918" y2="22.8521" gradientUnits="userSpaceOnUse">
<stop stop-color="white"/>
<stop offset="0.5" stop-color="#D0D0D0"/>
<stop offset="1" stop-color="white"/>
</linearGradient>
<linearGradient id="paint19_linear_1591_40571" x1="13.7127" y1="20.6058" x2="25.7467" y2="18.6693" gradientUnits="userSpaceOnUse">
<stop stop-color="white"/>
<stop offset="0.5" stop-color="#D0D0D0"/>
<stop offset="1" stop-color="white"/>
</linearGradient>
<linearGradient id="paint20_linear_1591_40571" x1="12.9319" y1="12.8959" x2="24.5394" y2="10.9515" gradientUnits="userSpaceOnUse">
<stop stop-color="#144391"/>
<stop offset="0.34" stop-color="#1E2E77"/>
<stop offset="0.41" stop-color="#212A72"/>
<stop offset="1" stop-color="#144391"/>
</linearGradient>
<linearGradient id="paint21_linear_1591_40571" x1="10.6173" y1="17.878" x2="22.1439" y2="15.9473" gradientUnits="userSpaceOnUse">
<stop stop-color="#FFDD04"/>
<stop offset="0.5" stop-color="#CA9800"/>
<stop offset="1" stop-color="#FFDD04"/>
</linearGradient>
<linearGradient id="paint22_linear_1591_40571" x1="13.4294" y1="16.056" x2="24.8637" y2="14.1405" gradientUnits="userSpaceOnUse">
<stop stop-color="#144391"/>
<stop offset="0.5" stop-color="#212A72"/>
<stop offset="1" stop-color="#144391"/>
</linearGradient>
<linearGradient id="paint23_linear_1591_40571" x1="12.8108" y1="12.8623" x2="24.1559" y2="10.9615" gradientUnits="userSpaceOnUse">
<stop stop-color="#144391"/>
<stop offset="0.5" stop-color="#212A72"/>
<stop offset="1" stop-color="#144391"/>
</linearGradient>
<linearGradient id="paint24_linear_1591_40571" x1="11.8299" y1="6.278" x2="23.356" y2="4.34727" gradientUnits="userSpaceOnUse">
<stop stop-color="#E30918"/>
<stop offset="0.5" stop-color="#9C1006"/>
<stop offset="1" stop-color="#E30918"/>
</linearGradient>
<linearGradient id="paint25_linear_1591_40571" x1="13.2521" y1="23.7243" x2="24.8014" y2="21.7899" gradientUnits="userSpaceOnUse">
<stop stop-color="#144391"/>
<stop offset="0.5" stop-color="#212A72"/>
<stop offset="1" stop-color="#144391"/>
</linearGradient>
<linearGradient id="paint26_linear_1591_40571" x1="13.8759" y1="18.4931" x2="25.4026" y2="16.5624" gradientUnits="userSpaceOnUse">
<stop stop-color="#144391"/>
<stop offset="0.5" stop-color="#212A72"/>
<stop offset="1" stop-color="#144391"/>
</linearGradient>
<linearGradient id="paint27_linear_1591_40571" x1="13.3366" y1="15.2719" x2="24.8627" y2="13.3412" gradientUnits="userSpaceOnUse">
<stop stop-color="#144391"/>
<stop offset="0.5" stop-color="#212A72"/>
<stop offset="1" stop-color="#144391"/>
</linearGradient>
<linearGradient id="paint28_linear_1591_40571" x1="12.9457" y1="11.4211" x2="24.879" y2="9.42221" gradientUnits="userSpaceOnUse">
<stop stop-color="#144391"/>
<stop offset="0.5" stop-color="#212A72"/>
<stop offset="1" stop-color="#144391"/>
</linearGradient>
<linearGradient id="paint29_linear_1591_40571" x1="12.4615" y1="10.0088" x2="24.8402" y2="7.93486" gradientUnits="userSpaceOnUse">
<stop stop-color="#144391"/>
<stop offset="0.5" stop-color="#212A72"/>
<stop offset="1" stop-color="#144391"/>
</linearGradient>
<linearGradient id="paint30_linear_1591_40571" x1="11.7814" y1="6.38403" x2="23.3485" y2="4.62277" gradientUnits="userSpaceOnUse">
<stop stop-color="#AF1923"/>
<stop offset="0.5" stop-color="#780D0B"/>
<stop offset="1" stop-color="#AF1923"/>
</linearGradient>
<linearGradient id="paint31_linear_1591_40571" x1="11.3686" y1="17.6886" x2="22.9834" y2="15.92" gradientUnits="userSpaceOnUse">
<stop stop-color="#AF1923"/>
<stop offset="0.5" stop-color="#780D0B"/>
<stop offset="1" stop-color="#AF1923"/>
</linearGradient>
<linearGradient id="paint32_linear_1591_40571" x1="12.5997" y1="21.6218" x2="24.2953" y2="19.8406" gradientUnits="userSpaceOnUse">
<stop stop-color="#AF1923"/>
<stop offset="0.4" stop-color="#780D0B"/>
<stop offset="1" stop-color="#AF1923"/>
</linearGradient>
<linearGradient id="paint33_linear_1591_40571" x1="12.2866" y1="6.59316" x2="22.9371" y2="4.97093" gradientUnits="userSpaceOnUse">
<stop stop-color="#AF1923"/>
<stop offset="0.5" stop-color="#780D0B"/>
<stop offset="1" stop-color="#AF1923"/>
</linearGradient>
<linearGradient id="paint34_linear_1591_40571" x1="12.1198" y1="8.78272" x2="23.7078" y2="7.01831" gradientUnits="userSpaceOnUse">
<stop stop-color="#AF1923"/>
<stop offset="0.5" stop-color="#780D0B"/>
<stop offset="1" stop-color="#AF1923"/>
</linearGradient>
<linearGradient id="paint35_linear_1591_40571" x1="11.742" y1="4.58146" x2="23.7487" y2="2.75304" gradientUnits="userSpaceOnUse">
<stop stop-color="white"/>
<stop offset="0.5" stop-color="#D0D0D0"/>
<stop offset="1" stop-color="white"/>
</linearGradient>
<linearGradient id="paint36_linear_1591_40571" x1="14.1536" y1="26.4836" x2="26.4998" y2="24.6033" gradientUnits="userSpaceOnUse">
<stop stop-color="white"/>
<stop offset="0.5" stop-color="#D0D0D0"/>
<stop offset="1" stop-color="white"/>
</linearGradient>
<linearGradient id="paint37_linear_1591_40571" x1="11.09" y1="8.43403" x2="22.7111" y2="6.83908" gradientUnits="userSpaceOnUse">
<stop stop-color="#3FA3DC"/>
<stop offset="0.5" stop-color="#2A78AA"/>
<stop offset="1" stop-color="#3FA3DC"/>
</linearGradient>
<linearGradient id="paint38_linear_1591_40571" x1="13.8547" y1="24.2905" x2="25.3986" y2="22.7061" gradientUnits="userSpaceOnUse">
<stop stop-color="#3FA3DC"/>
<stop offset="0.5" stop-color="#2A78AA"/>
<stop offset="1" stop-color="#3FA3DC"/>
</linearGradient>
<linearGradient id="paint39_linear_1591_40571" x1="11.7415" y1="8.22534" x2="23.8028" y2="6.56954" gradientUnits="userSpaceOnUse">
<stop stop-color="#009E4C"/>
<stop offset="0.5" stop-color="#007E38"/>
<stop offset="1" stop-color="#009E4C"/>
</linearGradient>
<linearGradient id="paint40_linear_1591_40571" x1="13.6931" y1="18.9084" x2="25.2345" y2="17.3239" gradientUnits="userSpaceOnUse">
<stop stop-color="#3FA3DC"/>
<stop offset="0.5" stop-color="#2A78AA"/>
<stop offset="1" stop-color="#3FA3DC"/>
</linearGradient>
<linearGradient id="paint41_linear_1591_40571" x1="11.3079" y1="19.2127" x2="22.8928" y2="17.6917" gradientUnits="userSpaceOnUse">
<stop stop-color="#144391"/>
<stop offset="0.5" stop-color="#212A72"/>
<stop offset="1" stop-color="#144391"/>
</linearGradient>
<linearGradient id="paint42_linear_1591_40571" x1="11.464" y1="8.62156" x2="23.4476" y2="7.04812" gradientUnits="userSpaceOnUse">
<stop stop-color="#FFDD04"/>
<stop offset="0.5" stop-color="#CA9800"/>
<stop offset="1" stop-color="#FFDD04"/>
</linearGradient>
<linearGradient id="paint43_linear_1591_40571" x1="12.0455" y1="23.6987" x2="24.0333" y2="22.1242" gradientUnits="userSpaceOnUse">
<stop stop-color="#FDC301"/>
<stop offset="0.45" stop-color="#C78800"/>
<stop offset="1" stop-color="#FDC301"/>
</linearGradient>
<linearGradient id="paint44_linear_1591_40571" x1="14.1606" y1="24.8208" x2="25.9663" y2="23.2704" gradientUnits="userSpaceOnUse">
<stop stop-color="#FFDD04"/>
<stop offset="0.5" stop-color="#CA9800"/>
<stop offset="1" stop-color="#FFDD04"/>
</linearGradient>
<linearGradient id="paint45_linear_1591_40571" x1="14.7743" y1="27.0163" x2="26.2212" y2="25.5132" gradientUnits="userSpaceOnUse">
<stop stop-color="#FFDD04"/>
<stop offset="0.5" stop-color="#CA9800"/>
<stop offset="1" stop-color="#FFDD04"/>
</linearGradient>
<linearGradient id="paint46_linear_1591_40571" x1="-11.8467" y1="29.6224" x2="11.2895" y2="26.5842" gradientUnits="userSpaceOnUse">
<stop stop-color="#FFDD04"/>
<stop offset="0.5" stop-color="#CA9800"/>
<stop offset="1" stop-color="#FFDD04"/>
</linearGradient>
<linearGradient id="paint47_linear_1591_40571" x1="7.02073" y1="23.9228" x2="18.8758" y2="20.2596" gradientUnits="userSpaceOnUse">
<stop stop-color="#009E4C"/>
<stop offset="0.5" stop-color="#007E38"/>
<stop offset="1" stop-color="#009E4C"/>
</linearGradient>
<linearGradient id="paint48_linear_1591_40571" x1="6.05694" y1="13.2155" x2="17.9839" y2="9.53035" gradientUnits="userSpaceOnUse">
<stop stop-color="#009E4C"/>
<stop offset="0.5" stop-color="#007E38"/>
<stop offset="1" stop-color="#009E4C"/>
</linearGradient>
<linearGradient id="paint49_linear_1591_40571" x1="11.2698" y1="2.1947" x2="23.0577" y2="0.49377" gradientUnits="userSpaceOnUse">
<stop stop-color="#009E4C"/>
<stop offset="0.5" stop-color="#007E38"/>
<stop offset="1" stop-color="#009E4C"/>
</linearGradient>
<linearGradient id="paint50_linear_1591_40571" x1="13.1064" y1="14.9974" x2="24.8256" y2="13.3064" gradientUnits="userSpaceOnUse">
<stop stop-color="#009E4C"/>
<stop offset="0.5" stop-color="#007E38"/>
<stop offset="1" stop-color="#009E4C"/>
</linearGradient>
<linearGradient id="paint51_linear_1591_40571" x1="14.5705" y1="25.1291" x2="26.6816" y2="23.276" gradientUnits="userSpaceOnUse">
<stop stop-color="#FDC301"/>
<stop offset="0.45" stop-color="#C78800"/>
<stop offset="1" stop-color="#FDC301"/>
</linearGradient>
<linearGradient id="paint52_linear_1591_40571" x1="13.8166" y1="18.4441" x2="25.9907" y2="16.581" gradientUnits="userSpaceOnUse">
<stop stop-color="#FDC301"/>
<stop offset="0.5" stop-color="#C78800"/>
<stop offset="1" stop-color="#FDC301"/>
</linearGradient>
<linearGradient id="paint53_linear_1591_40571" x1="9.90957" y1="15.3339" x2="18.8586" y2="14.1592" gradientUnits="userSpaceOnUse">
<stop stop-color="#144391"/>
<stop offset="0.5" stop-color="#212A72"/>
<stop offset="1" stop-color="#144391"/>
</linearGradient>
<linearGradient id="paint54_linear_1591_40571" x1="14.8632" y1="26.91" x2="26.7042" y2="25.0983" gradientUnits="userSpaceOnUse">
<stop stop-color="#FDC301"/>
<stop offset="0.5" stop-color="#C78800"/>
<stop offset="1" stop-color="#FDC301"/>
</linearGradient>
<linearGradient id="paint55_linear_1591_40571" x1="14.7793" y1="26.3623" x2="26.6291" y2="24.5491" gradientUnits="userSpaceOnUse">
<stop stop-color="#FDC301"/>
<stop offset="0.5" stop-color="#C78800"/>
<stop offset="1" stop-color="#FDC301"/>
</linearGradient>
<linearGradient id="paint56_linear_1591_40571" x1="14.5941" y1="26.0823" x2="26.105" y2="24.4569" gradientUnits="userSpaceOnUse">
<stop stop-color="#EA5045"/>
<stop offset="0.5" stop-color="#C53A31"/>
<stop offset="1" stop-color="#EA5045"/>
</linearGradient>
<linearGradient id="paint57_linear_1591_40571" x1="15.6408" y1="26.6639" x2="27.3044" y2="25.017" gradientUnits="userSpaceOnUse">
<stop stop-color="#E30918"/>
<stop offset="0.5" stop-color="#9C1006"/>
<stop offset="1" stop-color="#E30918"/>
</linearGradient>
<linearGradient id="paint58_linear_1591_40571" x1="13.393" y1="17.0651" x2="24.9653" y2="15.4313" gradientUnits="userSpaceOnUse">
<stop stop-color="#EA5045"/>
<stop offset="0.5" stop-color="#C53A31"/>
<stop offset="1" stop-color="#EA5045"/>
</linearGradient>
<linearGradient id="paint59_linear_1591_40571" x1="11.549" y1="3.80783" x2="23.9618" y2="2.05548" gradientUnits="userSpaceOnUse">
<stop stop-color="#EA5045"/>
<stop offset="0.5" stop-color="#C53A31"/>
<stop offset="1" stop-color="#EA5045"/>
</linearGradient>
<linearGradient id="paint60_linear_1591_40571" x1="14.045" y1="21.7879" x2="25.7018" y2="20.142" gradientUnits="userSpaceOnUse">
<stop stop-color="white"/>
<stop offset="0.5" stop-color="#D0D0D0"/>
<stop offset="1" stop-color="white"/>
</linearGradient>
<linearGradient id="paint61_linear_1591_40571" x1="11.4922" y1="17.9258" x2="22.395" y2="16.387" gradientUnits="userSpaceOnUse">
<stop stop-color="#FFDD04"/>
<stop offset="0.5" stop-color="#CA9800"/>
<stop offset="1" stop-color="#FFDD04"/>
</linearGradient>
<linearGradient id="paint62_linear_1591_40571" x1="12.813" y1="25.2985" x2="24.5589" y2="23.744" gradientUnits="userSpaceOnUse">
<stop stop-color="#087BC0"/>
<stop offset="0.5" stop-color="#005D99"/>
<stop offset="1" stop-color="#087BC0"/>
</linearGradient>
<linearGradient id="paint63_linear_1591_40571" x1="11.7526" y1="7.85076" x2="23.8732" y2="5.65245" gradientUnits="userSpaceOnUse">
<stop stop-color="white"/>
<stop offset="0.5" stop-color="#A8A8A7"/>
<stop offset="1" stop-color="white"/>
</linearGradient>
<linearGradient id="paint64_linear_1591_40571" x1="14.124" y1="17.4233" x2="24.3737" y2="15.5645" gradientUnits="userSpaceOnUse">
<stop stop-color="white"/>
<stop offset="0.42" stop-color="#A8A8A7"/>
<stop offset="0.85" stop-color="#E7E7E7"/>
<stop offset="1" stop-color="white"/>
</linearGradient>
<linearGradient id="paint65_linear_1591_40571" x1="32.3626" y1="8.01806" x2="21.9566" y2="10.7609" gradientUnits="userSpaceOnUse">
<stop stop-color="#D0D0D0"/>
<stop offset="0.76" stop-color="#F2F2F2"/>
<stop offset="1" stop-color="white"/>
</linearGradient>
<linearGradient id="paint66_linear_1591_40571" x1="28.1363" y1="21.568" x2="20.4066" y2="23.441" gradientUnits="userSpaceOnUse">
<stop stop-color="white"/>
<stop offset="0.24" stop-color="#F2F2F2"/>
<stop offset="1" stop-color="#D0D0D0"/>
</linearGradient>
<linearGradient id="paint67_linear_1591_40571" x1="27.2114" y1="15.5001" x2="20.4853" y2="17.8059" gradientUnits="userSpaceOnUse">
<stop stop-color="white"/>
<stop offset="0.24" stop-color="#F2F2F2"/>
<stop offset="1" stop-color="#D0D0D0"/>
</linearGradient>
<linearGradient id="paint68_linear_1591_40571" x1="10.6039" y1="11.8106" x2="22.7249" y2="9.61229" gradientUnits="userSpaceOnUse">
<stop stop-color="white"/>
<stop offset="0.5" stop-color="#A8A8A7"/>
<stop offset="1" stop-color="white"/>
</linearGradient>
<linearGradient id="paint69_linear_1591_40571" x1="11.4458" y1="10.9026" x2="23.0716" y2="9.31713" gradientUnits="userSpaceOnUse">
<stop stop-color="#E30918"/>
<stop offset="0.5" stop-color="#9C1006"/>
<stop offset="1" stop-color="#E30918"/>
</linearGradient>
<linearGradient id="paint70_linear_1591_40571" x1="13.5165" y1="19.0283" x2="25.1418" y2="17.4428" gradientUnits="userSpaceOnUse">
<stop stop-color="#E30918"/>
<stop offset="0.5" stop-color="#9C1006"/>
<stop offset="1" stop-color="#E30918"/>
</linearGradient>
<linearGradient id="paint71_linear_1591_40571" x1="11.3139" y1="2.8762" x2="22.9392" y2="1.29121" gradientUnits="userSpaceOnUse">
<stop stop-color="#144391"/>
<stop offset="0.5" stop-color="#212A72"/>
<stop offset="1" stop-color="#144391"/>
</linearGradient>
<linearGradient id="paint72_linear_1591_40571" x1="11.0444" y1="13.0365" x2="22.6702" y2="11.451" gradientUnits="userSpaceOnUse">
<stop stop-color="#E30918"/>
<stop offset="0.5" stop-color="#9C1006"/>
<stop offset="1" stop-color="#E30918"/>
</linearGradient>
<linearGradient id="paint73_linear_1591_40571" x1="11.6394" y1="5.27641" x2="23.2705" y2="3.69038" gradientUnits="userSpaceOnUse">
<stop stop-color="#E30918"/>
<stop offset="0.5" stop-color="#9C1006"/>
<stop offset="1" stop-color="#E30918"/>
</linearGradient>
<linearGradient id="paint74_linear_1591_40571" x1="13.7694" y1="20.8869" x2="25.3952" y2="19.3014" gradientUnits="userSpaceOnUse">
<stop stop-color="#E30918"/>
<stop offset="0.5" stop-color="#9C1006"/>
<stop offset="1" stop-color="#E30918"/>
</linearGradient>
<linearGradient id="paint75_linear_1591_40571" x1="11.3784" y1="6.57183" x2="23.9071" y2="4.86356" gradientUnits="userSpaceOnUse">
<stop stop-color="#E30918"/>
<stop offset="0.5" stop-color="#9C1006"/>
<stop offset="1" stop-color="#E30918"/>
</linearGradient>
<linearGradient id="paint76_linear_1591_40571" x1="14.072" y1="23.7602" x2="25.9135" y2="22.1453" gradientUnits="userSpaceOnUse">
<stop stop-color="#E30918"/>
<stop offset="0.5" stop-color="#9C1006"/>
<stop offset="1" stop-color="#E30918"/>
</linearGradient>
<linearGradient id="paint77_linear_1591_40571" x1="12.6482" y1="12.8499" x2="24.274" y2="11.2649" gradientUnits="userSpaceOnUse">
<stop stop-color="#E30918"/>
<stop offset="0.5" stop-color="#9C1006"/>
<stop offset="1" stop-color="#E30918"/>
</linearGradient>
<linearGradient id="paint78_linear_1591_40571" x1="1.98825" y1="24.6877" x2="9.05639" y2="23.0697" gradientUnits="userSpaceOnUse">
<stop stop-color="white"/>
<stop offset="0.24" stop-color="#F2F2F2"/>
<stop offset="1" stop-color="#D0D0D0"/>
</linearGradient>
<linearGradient id="paint79_linear_1591_40571" x1="-1.49755" y1="11.876" x2="4.84762" y2="10.4237" gradientUnits="userSpaceOnUse">
<stop stop-color="#D0D0D0"/>
<stop offset="0.76" stop-color="#F2F2F2"/>
<stop offset="1" stop-color="white"/>
</linearGradient>
<linearGradient id="paint80_linear_1591_40571" x1="1.32719" y1="18.0854" x2="9.05902" y2="16.4186" gradientUnits="userSpaceOnUse">
<stop stop-color="white"/>
<stop offset="1" stop-color="#D0D0D0"/>
</linearGradient>
<linearGradient id="paint81_linear_1591_40571" x1="2.29874" y1="24.5389" x2="9.53424" y2="22.2928" gradientUnits="userSpaceOnUse">
<stop stop-color="#D0D0D0"/>
<stop offset="0.32" stop-color="#DADADA"/>
<stop offset="0.87" stop-color="#F7F7F7"/>
<stop offset="1" stop-color="white"/>
</linearGradient>
<linearGradient id="paint82_linear_1591_40571" x1="0.328664" y1="18.0085" x2="7.52534" y2="15.775" gradientUnits="userSpaceOnUse">
<stop stop-color="#D0D0D0"/>
<stop offset="0.32" stop-color="#DADADA"/>
<stop offset="0.87" stop-color="#F7F7F7"/>
<stop offset="1" stop-color="white"/>
</linearGradient>
<linearGradient id="paint83_linear_1591_40571" x1="12.2954" y1="14.6037" x2="23.9176" y2="13.0287" gradientUnits="userSpaceOnUse">
<stop stop-color="white"/>
<stop offset="0.49" stop-color="#A8A8A7"/>
<stop offset="1" stop-color="#D0D0D0"/>
</linearGradient>
<linearGradient id="paint84_linear_1591_40571" x1="11.7534" y1="8.33765" x2="23.375" y2="6.76263" gradientUnits="userSpaceOnUse">
<stop stop-color="white"/>
<stop offset="0.09" stop-color="#ECECEC"/>
<stop offset="0.36" stop-color="#BBBBBA"/>
<stop offset="0.49" stop-color="#A8A8A7"/>
<stop offset="1" stop-color="#D0D0D0"/>
</linearGradient>
<linearGradient id="paint85_linear_1591_40571" x1="13.6129" y1="21.0011" x2="24.4753" y2="19.5289" gradientUnits="userSpaceOnUse">
<stop stop-color="white"/>
<stop offset="0.46" stop-color="#A8A8A7"/>
<stop offset="1" stop-color="#D0D0D0"/>
</linearGradient>
<linearGradient id="paint86_linear_1591_40571" x1="14.8083" y1="24.1277" x2="26.411" y2="22.1844" gradientUnits="userSpaceOnUse">
<stop stop-color="#144391"/>
<stop offset="0.5" stop-color="#212A72"/>
<stop offset="1" stop-color="#144391"/>
</linearGradient>
<linearGradient id="paint87_linear_1591_40571" x1="12.484" y1="10.0134" x2="23.9786" y2="8.16405" gradientUnits="userSpaceOnUse">
<stop stop-color="white"/>
<stop offset="0.5" stop-color="#D0D0D0"/>
<stop offset="1" stop-color="white"/>
</linearGradient>
<linearGradient id="paint88_linear_1591_40571" x1="11.9813" y1="6.89052" x2="23.476" y2="5.04059" gradientUnits="userSpaceOnUse">
<stop stop-color="white"/>
<stop offset="0.5" stop-color="#D0D0D0"/>
<stop offset="1" stop-color="white"/>
</linearGradient>
<linearGradient id="paint89_linear_1591_40571" x1="11.1778" y1="2.43013" x2="22.9153" y2="0.464245" gradientUnits="userSpaceOnUse">
<stop stop-color="#144391"/>
<stop offset="0.5" stop-color="#212A72"/>
<stop offset="1" stop-color="#144391"/>
</linearGradient>
<linearGradient id="paint90_linear_1591_40571" x1="11.7214" y1="5.41216" x2="23.5077" y2="3.86443" gradientUnits="userSpaceOnUse">
<stop stop-color="#FFDD04"/>
<stop offset="0.5" stop-color="#CA9800"/>
<stop offset="1" stop-color="#FFDD04"/>
</linearGradient>
<linearGradient id="paint91_linear_1591_40571" x1="11.2604" y1="3.36807" x2="23.1013" y2="1.55644" gradientUnits="userSpaceOnUse">
<stop stop-color="#FDC301"/>
<stop offset="0.5" stop-color="#C78800"/>
<stop offset="1" stop-color="#FDC301"/>
</linearGradient>
<linearGradient id="paint92_linear_1591_40571" x1="11.9044" y1="6.72537" x2="23.431" y2="4.79464" gradientUnits="userSpaceOnUse">
<stop stop-color="#144391"/>
<stop offset="0.5" stop-color="#212A72"/>
<stop offset="1" stop-color="#144391"/>
</linearGradient>
<linearGradient id="paint93_linear_1591_40571" x1="11.0039" y1="4.54133" x2="22.5887" y2="3.01982" gradientUnits="userSpaceOnUse">
<stop stop-color="#FFDD04"/>
<stop offset="0.5" stop-color="#CA9800"/>
<stop offset="1" stop-color="#FFDD04"/>
</linearGradient>
<linearGradient id="paint94_linear_1591_40571" x1="12.0869" y1="8.76855" x2="23.9279" y2="6.95639" gradientUnits="userSpaceOnUse">
<stop stop-color="#FDC301"/>
<stop offset="0.5" stop-color="#C78800"/>
<stop offset="1" stop-color="#FDC301"/>
</linearGradient>
<linearGradient id="paint95_linear_1591_40571" x1="11.6309" y1="5.32686" x2="23.2772" y2="3.78543" gradientUnits="userSpaceOnUse">
<stop stop-color="#009E4C"/>
<stop offset="0.5" stop-color="#007E38"/>
<stop offset="1" stop-color="#009E4C"/>
</linearGradient>
<linearGradient id="paint96_linear_1591_40571" x1="6.10862" y1="2.22623" x2="20.6389" y2="-0.409106" gradientUnits="userSpaceOnUse">
<stop stop-color="white"/>
<stop offset="0.2" stop-color="#F3F3F3"/>
<stop offset="0.57" stop-color="#D3D3D3"/>
<stop offset="1" stop-color="#A8A8A7"/>
</linearGradient>
<linearGradient id="paint97_linear_1591_40571" x1="24.9868" y1="3.28255" x2="16.8967" y2="6.97297" gradientUnits="userSpaceOnUse">
<stop stop-color="white"/>
<stop offset="0.53" stop-color="#E3E3E3"/>
<stop offset="1" stop-color="#D0D0D0"/>
</linearGradient>
<linearGradient id="paint98_linear_1591_40571" x1="9.5377" y1="5.95164" x2="22.4573" y2="3.60853" gradientUnits="userSpaceOnUse">
<stop stop-color="white"/>
<stop offset="0.41" stop-color="#A8A8A7"/>
<stop offset="0.56" stop-color="#BABAB9"/>
<stop offset="0.87" stop-color="#E9E9E9"/>
<stop offset="1" stop-color="white"/>
</linearGradient>
<linearGradient id="paint99_linear_1591_40571" x1="10.5867" y1="2.38739" x2="23.4938" y2="0.0463853" gradientUnits="userSpaceOnUse">
<stop stop-color="white"/>
<stop offset="0.17" stop-color="#E0E0E0"/>
<stop offset="0.42" stop-color="#B7B7B6"/>
<stop offset="0.54" stop-color="#A8A8A7"/>
<stop offset="1" stop-color="white"/>
</linearGradient>
<linearGradient id="paint100_linear_1591_40571" x1="1.48095" y1="4.57199" x2="8.85916" y2="2.22416" gradientUnits="userSpaceOnUse">
<stop stop-color="white"/>
<stop offset="1" stop-color="#D0D0D0"/>
</linearGradient>
<linearGradient id="paint101_linear_1591_40571" x1="14.1329" y1="23.378" x2="25.7546" y2="21.803" gradientUnits="userSpaceOnUse">
<stop stop-color="white"/>
<stop offset="0.46" stop-color="#A8A8A7"/>
<stop offset="1" stop-color="#D0D0D0"/>
</linearGradient>
</defs>
</svg>
