<svg width="5" height="1" viewBox="0 0 5 1" fill="none" xmlns="http://www.w3.org/2000/svg">
<path d="M1.59648 0.0917009C1.96708 0.0354154 2.37436 0.00252969 2.82149 0C2.84741 0 2.87398 0 2.89991 0C3.3192 0 3.70371 0.0284591 4.0566 0.0752583C4.07874 0.0784204 4.10024 0.0809501 4.12238 0.0841122C4.17613 0.0917012 4.22989 0.0999227 4.28175 0.108777C4.29692 0.111306 4.3121 0.113836 4.32728 0.116365C4.32791 0.116365 4.32855 0.116365 4.32918 0.116365C5.01093 0.3004 5.20761 0.467359 4.51068 0.397161C4.45503 0.385777 4.39938 0.375658 4.34372 0.366172C4.26973 0.353523 4.1951 0.34214 4.12048 0.332021C2.81137 0.151149 1.41814 0.264352 0.239941 0.662145C-0.0636216 0.764598 -0.0806968 0.706415 0.197569 0.546412C0.581448 0.326962 1.1032 0.184034 1.59585 0.0917009H1.59648Z" fill="url(#paint0_linear_3091_44021)"/>
<defs>
<linearGradient id="paint0_linear_3091_44021" x1="0.000253079" y1="0.356686" x2="4.94642" y2="0.356686" gradientUnits="userSpaceOnUse">
<stop offset="0.16" stop-color="#D1DDF3"/>
<stop offset="0.49" stop-color="#E3ECFA"/>
</linearGradient>
</defs>
</svg>
