<svg width="3" height="4" viewBox="0 0 3 4" fill="none" xmlns="http://www.w3.org/2000/svg">
<path d="M1.88727 2.07308C1.87715 2.59356 1.93407 2.93823 1.85628 3.11025C1.6811 3.08811 1.50529 3.0742 1.25485 3.0742C0.809621 3.0742 0.590171 3.10898 0.43839 3.13744C0.307479 3.15072 0.267004 3.09381 0.261945 3.02045C0.249296 2.8421 0.270798 2.52589 0.274593 2.32858C0.285344 1.76572 0.232221 1.37994 0.15886 0.965076C0.0627316 0.418664 -0.0327638 0.216288 0.0108733 0.197948C0.428271 0.0240323 0.927252 0 1.24599 0C1.49643 0 1.77849 0.00189804 2.14213 0.0917019C1.99098 1.00555 1.90181 1.35338 1.8879 2.07308H1.88727Z" fill="url(#paint0_linear_1587_25579)"/>
<defs>
<linearGradient id="paint0_linear_1587_25579" x1="-0.000510303" y1="1.56967" x2="2.1415" y2="1.56967" gradientUnits="userSpaceOnUse">
<stop offset="0.16" stop-color="#D2DEF4"/>
<stop offset="0.49" stop-color="#E4ECFA"/>
</linearGradient>
</defs>
</svg>
