<svg width="5" height="2" viewBox="0 0 5 2" fill="none" xmlns="http://www.w3.org/2000/svg">
<path d="M4.45002 0.3162C4.31401 0.3042 4.01491 0.2732 4.00981 0.3308C4.00481 0.3864 4.55941 0.487 4.46391 0.5844C4.33231 0.7184 4.28741 0.9518 4.28241 1.1523C4.27291 1.4773 4.39811 1.5406 4.35201 1.6127C4.31911 1.6645 4.09581 1.6487 3.59941 1.6171C3.30531 1.5773 2.99921 1.5501 2.69501 1.5501C2.18911 1.5501 1.59651 1.6209 1.12471 1.717C0.657314 1.8132 0.260215 1.8979 0.224115 1.8429C0.178615 1.7727 0.302615 1.7265 0.293715 1.4141C0.288015 1.2212 0.298115 0.9992 0.167915 0.8689C0.0654146 0.7659 0.592214 0.5806 0.589714 0.5249C0.586514 0.4629 0.308915 0.5217 0.172915 0.5338C0.0970147 0.5407 -0.0142854 0.5723 0.00151464 0.5078C0.625715 0.203 1.68881 0 2.69501 0C3.40521 0 4.10471 0.0891696 4.71241 0.2574C4.73841 0.2694 4.51201 0.3219 4.45002 0.3162Z" fill="url(#paint0_linear_1591_39944)"/>
<defs>
<linearGradient id="paint0_linear_1591_39944" x1="0.000314643" y1="0.9297" x2="4.71431" y2="0.9297" gradientUnits="userSpaceOnUse">
<stop offset="0.16" stop-color="#CCDAF2"/>
<stop offset="0.49" stop-color="#E1EAF9"/>
</linearGradient>
</defs>
</svg>
