<svg width="3" height="7" viewBox="0 0 3 7" fill="none" xmlns="http://www.w3.org/2000/svg">
<path d="M2.50146 0C2.32132 0.253676 2.13602 0.502939 1.95955 0.75735C1.78455 1.0125 1.61176 1.26911 1.45661 1.53529C1.14264 2.06543 0.874997 2.62131 0.671321 3.20072C0.463234 3.77866 0.318381 4.37866 0.212499 4.98601L0.144853 5.4441C0.122794 5.59704 0.113235 5.75145 0.096323 5.90513L0.0713234 6.13601L0.0580881 6.36762C0.0492646 6.52204 0.0389703 6.67718 0.0279409 6.83306C0.0198527 6.67792 0.0124998 6.52277 0.0073528 6.36689L0 6.13307L0.00588247 5.89924C0.0125001 5.74336 0.0132355 5.58748 0.0250002 5.4316L0.0705879 4.96542C0.0852938 4.80954 0.116911 4.65587 0.141176 4.50145C0.155146 4.42425 0.164706 4.34631 0.182353 4.27057L0.234558 4.04116L0.288234 3.81249C0.306616 3.73602 0.332352 3.66175 0.353675 3.58675C0.399998 3.43675 0.439704 3.28528 0.497792 3.13896C0.604409 2.84411 0.726468 2.5544 0.866173 2.27352C0.938232 2.13455 1.00735 1.99338 1.08897 1.85955L1.20735 1.65661C1.24853 1.59044 1.29264 1.52499 1.33529 1.45955C1.50367 1.19558 1.69411 0.947791 1.88749 0.702939C2.08602 0.462498 2.2897 0.22794 2.50146 0Z" fill="url(#paint0_linear_1587_26120)"/>
<defs>
<linearGradient id="paint0_linear_1587_26120" x1="0.00147059" y1="3.38969" x2="2.49999" y2="3.44337" gradientUnits="userSpaceOnUse">
<stop stop-color="#ADB7BD"/>
<stop offset="0.85" stop-color="#30373A"/>
</linearGradient>
</defs>
</svg>
