<svg width="5" height="2" viewBox="0 0 5 2" fill="none" xmlns="http://www.w3.org/2000/svg">
<path d="M4.49491 0.33325C4.35891 0.32125 4.04521 0.28205 4.04021 0.33965C4.03571 0.39275 4.59861 0.49645 4.50311 0.59385C4.37151 0.72795 4.32661 0.96575 4.32161 1.16615C4.31211 1.49125 4.43732 1.55445 4.39122 1.62655C4.35892 1.67715 4.13881 1.65945 3.66391 1.62785C3.35141 1.58235 3.02201 1.55005 2.69501 1.55005C2.18911 1.55005 1.59652 1.62085 1.12472 1.71705C0.657315 1.81315 0.260215 1.89785 0.224115 1.84285C0.178615 1.77265 0.302515 1.72655 0.293715 1.41405C0.288015 1.22125 0.298114 0.99925 0.167814 0.86895C0.0654145 0.76585 0.592214 0.58055 0.589714 0.52495C0.586514 0.46295 0.308915 0.521751 0.172915 0.533751C0.0970147 0.540751 -0.0142854 0.572351 0.00151464 0.507851C0.625715 0.203051 1.68881 0 2.69501 0C3.41981 0 4.13312 0.0929602 4.74782 0.26875C4.76932 0.28585 4.55691 0.33895 4.49491 0.33325Z" fill="url(#paint0_linear_1591_39940)"/>
<defs>
<linearGradient id="paint0_linear_1591_39940" x1="-0.000385357" y1="0.93095" x2="4.74912" y2="0.93095" gradientUnits="userSpaceOnUse">
<stop offset="0.16" stop-color="#D2DEF4"/>
<stop offset="0.49" stop-color="#E4ECFA"/>
</linearGradient>
</defs>
</svg>
