<svg width="3" height="1" viewBox="0 0 3 1" fill="none" xmlns="http://www.w3.org/2000/svg">
<path d="M2.67748 0.0752983C2.68568 0.106998 2.67688 0.144299 2.61358 0.151199C2.52438 0.161399 0.165278 0.161399 0.0760782 0.151199C0.0127782 0.144299 0.00327822 0.106998 0.0121782 0.0752983C0.0146782 0.0664983 -0.0112218 0.0417983 0.00587825 0.0253983C0.0197782 0.0120983 0.0684784 0.0177975 0.100778 0.0170975C0.311378 0.0139975 1.09338 0 1.30088 0C1.50838 0 2.37638 0.00889747 2.58888 0.0170975C2.62118 0.0183975 2.67308 0.015899 2.68318 0.032299C2.69708 0.055099 2.67498 0.0651983 2.67748 0.0752983Z" fill="url(#paint0_linear_1591_39774)"/>
<defs>
<linearGradient id="paint0_linear_1591_39774" x1="-0.000421758" y1="0.0790997" x2="2.68758" y2="0.0790997" gradientUnits="userSpaceOnUse">
<stop offset="0.06" stop-color="#A3B7D4"/>
<stop offset="0.34" stop-color="#ADBFD9"/>
<stop offset="0.79" stop-color="#C7D5E7"/>
<stop offset="1" stop-color="white"/>
</linearGradient>
</defs>
</svg>
