<svg width="3" height="1" viewBox="0 0 3 1" fill="none" xmlns="http://www.w3.org/2000/svg">
<path d="M0.00141056 0.121467C-0.0144054 0.118936 0.104531 0.0929978 0.270283 0.0619985C0.276609 0.0607332 0.283568 0.0601003 0.290527 0.0588351C0.528399 0.0253051 0.818148 0 1.19963 0C1.4394 0 1.65829 0.0113873 1.85315 0.0284686C1.924 0.034795 2.08786 0.0563043 2.21755 0.0803446C2.16947 0.258749 2.33712 0.455501 2.09608 0.914165C2.09165 0.913532 2.08596 0.912267 2.07837 0.911001C1.986 0.893287 1.64691 0.832554 1.32742 0.823697C1.30528 0.823697 1.28314 0.823065 1.26036 0.822432C1.23759 0.8218 1.21481 0.822432 1.19077 0.822432C0.70111 0.822432 0.426544 0.885696 0.222201 0.927451C0.200059 0.929981 0.201324 0.910369 0.208283 0.901512C0.224732 0.880635 0.241813 0.869247 0.241813 0.869247C0.241813 0.869247 0.225365 0.864819 0.220304 0.841412C0.21461 0.816739 0.240548 0.787004 0.240548 0.787004C0.239916 0.787004 0.228528 0.786371 0.209549 0.726271C0.177917 0.626313 0.139958 0.368196 0.142489 0.262545C0.14502 0.156894 0.20259 0.105651 0.20259 0.105651C0.20259 0.105651 0.023553 0.126528 0.00141056 0.122099V0.121467Z" fill="url(#paint0_linear_3091_43808)"/>
<defs>
<linearGradient id="paint0_linear_3091_43808" x1="0.000145278" y1="0.463093" x2="2.2302" y2="0.463093" gradientUnits="userSpaceOnUse">
<stop offset="0.16" stop-color="#FDFDFE"/>
<stop offset="0.49" stop-color="#FDFDFE"/>
</linearGradient>
</defs>
</svg>
