<svg width="3" height="1" viewBox="0 0 3 1" fill="none" xmlns="http://www.w3.org/2000/svg">
<path d="M0.00141698 0.121467C-0.014399 0.118936 0.103905 0.0923652 0.270289 0.0619985C0.276615 0.0607332 0.283575 0.0601003 0.290534 0.0588351C0.528407 0.0253051 0.818155 0 1.19964 0C1.41284 0 1.61022 0.00885665 1.79432 0.0234074C1.8696 0.0291011 2.00878 0.0468156 2.12645 0.0664274C2.07395 0.223322 2.23843 0.530785 2.01511 0.897716C2.01068 0.897084 2.00499 0.895818 1.99803 0.894553C1.93603 0.882533 1.66842 0.830656 1.31541 0.823064C1.2958 0.823064 1.27492 0.822432 1.25468 0.821799C1.23443 0.821166 1.21292 0.821799 1.19078 0.821799C0.701117 0.821799 0.426551 0.885063 0.222209 0.926817C0.200066 0.929348 0.201331 0.909736 0.208291 0.900879C0.224739 0.880002 0.24182 0.868615 0.24182 0.868615C0.24182 0.868615 0.225372 0.864186 0.220311 0.840778C0.214617 0.816105 0.238657 0.788269 0.238657 0.788269C0.238024 0.788269 0.228535 0.785739 0.209556 0.725638C0.177924 0.625681 0.139965 0.367564 0.142495 0.261913C0.145026 0.156262 0.202597 0.105018 0.202597 0.105018C0.202597 0.105018 0.0235594 0.125895 0.00141698 0.121467Z" fill="url(#paint0_linear_3091_43820)"/>
<defs>
<linearGradient id="paint0_linear_3091_43820" x1="0.000151698" y1="0.463092" x2="2.13658" y2="0.463092" gradientUnits="userSpaceOnUse">
<stop offset="0.16" stop-color="#DFE6F0"/>
<stop offset="0.49" stop-color="#E4E9F2"/>
</linearGradient>
</defs>
</svg>
