<svg width="14" height="13" viewBox="0 0 14 13" fill="none" xmlns="http://www.w3.org/2000/svg">
<path opacity="0.15" d="M6.91174 8.77203C7.00439 8.70953 6.97277 8.48379 7.061 8.42276C7.12203 8.38012 7.18159 8.33821 7.24115 8.29556C7.26762 8.27718 7.29556 8.25732 7.32203 8.23894C7.38968 8.19115 7.45438 8.14409 7.51909 8.09703C7.53453 8.08527 7.55144 8.0735 7.56688 8.06247C7.63527 8.01247 7.70144 7.96321 7.76541 7.91394C7.77644 7.90585 7.78674 7.8985 7.79703 7.88968C7.86468 7.83968 7.92938 7.78894 7.99262 7.73968C7.9985 7.73527 8.00512 7.73085 8.011 7.72571C8.07497 7.67497 8.13747 7.62644 8.19703 7.57791C8.20144 7.57424 8.20512 7.57056 8.20953 7.56762C8.26982 7.51836 8.32718 7.47056 8.38232 7.42424C8.38526 7.4213 8.3882 7.41983 8.39041 7.41615C8.44556 7.36983 8.49776 7.32424 8.54703 7.28012C8.5485 7.27939 8.54923 7.27792 8.5507 7.27645C8.58159 7.2485 8.61467 7.21983 8.64262 7.19336C9.53085 6.43527 10.3198 5.60513 10.9882 4.72572C11.7588 3.7066 12.3933 2.63676 12.8742 1.54485C12.9279 1.42352 12.9948 1.26544 13.0669 1.08602C13.072 1.07279 13.0779 1.05955 13.083 1.04705C13.1095 0.978672 13.1382 0.908085 13.1661 0.83382C13.1897 0.772056 13.2139 0.709556 13.2375 0.642644C13.2492 0.611027 13.261 0.578674 13.2727 0.545586C13.2933 0.487498 13.3147 0.428675 13.3352 0.368381C13.347 0.333087 13.3588 0.298528 13.3698 0.263235C13.3904 0.20147 13.411 0.139705 13.4301 0.0764698C13.4382 0.0514699 13.4463 0.0257352 13.4544 0C13.4477 0.0191176 13.4411 0.0389704 13.4338 0.0573527C13.422 0.0904408 13.4102 0.122793 13.3985 0.154411C13.3742 0.220587 13.35 0.283087 13.3272 0.345587C13.2992 0.419851 13.2705 0.490439 13.2441 0.558821C13.2389 0.571321 13.233 0.584556 13.2279 0.597791C13.1558 0.777202 13.0889 0.934555 13.0352 1.05661C12.5544 2.14852 11.9198 3.21837 11.1492 4.23748C10.4808 5.11616 9.69188 5.94704 8.80364 6.70512C8.7757 6.73159 8.74261 6.75953 8.71173 6.78747C8.71173 6.78747 8.70953 6.79042 8.70806 6.79115C8.65879 6.83527 8.60659 6.88086 8.55144 6.92718C8.54923 6.93012 8.54629 6.93233 8.54335 6.93527C8.4882 6.98159 8.43085 7.02939 8.37056 7.07865C8.36615 7.08233 8.36173 7.086 8.35806 7.08894C8.2985 7.13747 8.236 7.18674 8.17203 7.23674C8.16615 7.24189 8.15953 7.24703 8.15365 7.25071C8.09041 7.29997 8.02571 7.35071 7.95806 7.40071C7.94776 7.4088 7.93747 7.41689 7.92644 7.42497C7.86247 7.47424 7.79629 7.5235 7.72791 7.5735C7.71247 7.58527 7.69556 7.5963 7.68012 7.60806C7.61615 7.65512 7.55071 7.70218 7.48306 7.74997C7.45659 7.76836 7.42865 7.78821 7.40218 7.80659C7.34262 7.8485 7.2838 7.89115 7.22203 7.9338C7.1338 7.99483 7.04262 8.05806 6.94997 8.12056C5.10292 9.37864 3.45881 10.3654 1.90661 11.1404L0 12.3919C1.93455 11.6963 3.9419 10.7941 6.91174 8.77129V8.77203Z" fill="url(#paint0_linear_3091_44442)" style="mix-blend-mode:screen"/>
<defs>
<linearGradient id="paint0_linear_3091_44442" x1="-0.460168" y1="6.04716" x2="13.0013" y2="6.33854" gradientUnits="userSpaceOnUse">
<stop stop-color="#F8D1E4"/>
<stop offset="0.05" stop-color="#EFC9DB"/>
<stop offset="0.13" stop-color="#D7B5C5"/>
<stop offset="0.23" stop-color="#B094A2"/>
<stop offset="0.35" stop-color="#7A6670"/>
<stop offset="0.49" stop-color="#352D31"/>
<stop offset="0.58"/>
</linearGradient>
</defs>
</svg>
