<svg width="7" height="2" viewBox="0 0 7 2" fill="none" xmlns="http://www.w3.org/2000/svg">
<path d="M5.51977 1.48176C5.54128 1.50706 5.59377 1.64809 5.42871 1.64619C5.57227 1.63797 5.52357 1.50579 5.50207 1.48176C5.47993 1.45583 5.44515 1.43876 5.39835 1.43307C5.40594 1.43307 5.41226 1.4337 5.41543 1.43433C5.46222 1.44066 5.49701 1.45583 5.51977 1.48176ZM5.36989 1.44635C5.37874 1.44319 5.3876 1.44255 5.39708 1.44318C5.37748 1.44065 5.36104 1.44319 5.35281 1.44635C5.32815 1.45457 5.32309 1.47228 5.32183 1.50832C5.32119 1.54753 5.32119 1.58421 5.31993 1.62279C5.32436 1.62279 5.33005 1.62406 5.33637 1.62469C5.33764 1.58611 5.33827 1.5469 5.3389 1.50832C5.34017 1.47228 5.34523 1.45457 5.36989 1.44635ZM5.39455 1.83339C5.39455 1.83339 5.39455 1.8277 5.39519 1.82453C5.33321 1.80746 5.33321 1.77457 5.33384 1.73979C5.33447 1.69931 5.33637 1.63734 5.33637 1.63734C5.32815 1.63607 5.32119 1.63544 5.3193 1.63544C5.31803 1.66959 5.3174 1.70564 5.31677 1.73979C5.31614 1.77457 5.3193 1.81505 5.37748 1.83149L5.39455 1.83339ZM5.18206 1.81315V1.80493C5.13084 1.78975 5.13147 1.75623 5.1321 1.72145C5.13336 1.64936 5.13463 1.57663 5.13653 1.50263C5.13653 1.46722 5.13779 1.43307 5.19028 1.42737V1.41852C5.18459 1.41852 5.1789 1.41726 5.17321 1.41662C5.12704 1.42548 5.12008 1.46658 5.11945 1.50263C5.11819 1.57599 5.11629 1.64936 5.11502 1.72145C5.11502 1.75623 5.11755 1.79355 5.16498 1.81125L5.18206 1.81315ZM4.96957 1.39702C4.91708 1.40524 4.91581 1.44888 4.91518 1.48303C4.91391 1.55702 4.91265 1.62975 4.91139 1.70184C4.91139 1.73663 4.91897 1.7771 4.96324 1.79165C4.96324 1.79165 4.97652 1.79291 4.98032 1.79291V1.78406C4.92783 1.76951 4.92783 1.73663 4.92846 1.70121C4.92972 1.62912 4.93099 1.55639 4.93225 1.4824C4.93289 1.44825 4.93415 1.41346 4.98727 1.40714V1.39828L4.96957 1.39639V1.39702ZM4.65778 1.46216C4.65778 1.49441 4.65652 1.5254 4.65652 1.55765C4.66221 1.55765 4.6679 1.55829 4.67359 1.55892C4.67359 1.52666 4.67486 1.49441 4.67549 1.46152C4.67612 1.42611 4.67676 1.39196 4.73051 1.38563C4.73051 1.38247 4.73051 1.37931 4.73114 1.37615C4.72545 1.37615 4.71976 1.37552 4.71407 1.37488C4.66601 1.38247 4.65905 1.42611 4.65778 1.46152V1.46216ZM4.65462 1.68098C4.65462 1.71576 4.65715 1.7537 4.70711 1.77078C4.7166 1.77141 4.72292 1.77204 4.72419 1.77204V1.76319C4.67043 1.74928 4.67106 1.71639 4.67106 1.68098C4.67106 1.63544 4.67296 1.5741 4.67296 1.5722C4.66348 1.57157 4.65715 1.57093 4.65589 1.57093C4.65589 1.60761 4.65462 1.64493 4.65399 1.68098H4.65462ZM4.45667 1.36223L4.46489 1.42295C4.46932 1.43307 4.47375 1.44635 4.47818 1.46469C4.48134 1.46469 4.4845 1.46469 4.4883 1.46469L4.47248 1.3635L4.45667 1.3616V1.36223ZM4.39976 1.51085C4.34094 1.48176 4.29414 1.45899 4.2973 1.41346C4.2992 1.37109 4.33019 1.35464 4.36371 1.35401C4.36371 1.35401 4.36434 1.35401 4.36497 1.35401C4.32893 1.35148 4.28465 1.36034 4.28023 1.41346C4.27643 1.45899 4.32387 1.48176 4.38268 1.51085C4.43707 1.53742 4.47628 1.55639 4.49462 1.60508C4.5079 1.63987 4.50411 1.7575 4.3909 1.76066C4.51992 1.76319 4.52624 1.64176 4.51233 1.60508C4.49399 1.55702 4.45478 1.53805 4.40039 1.51149L4.39976 1.51085ZM4.37889 1.74611C4.37889 1.74611 4.37446 1.74611 4.37193 1.74611C4.28908 1.73979 4.25556 1.64366 4.24734 1.61331C4.24418 1.61331 4.24228 1.61331 4.23912 1.61331L4.24102 1.6443C4.28213 1.74106 4.35675 1.74738 4.37889 1.74738V1.74611ZM4.19169 1.34769C4.15817 1.35971 4.14615 1.37805 4.1411 1.4122C4.14363 1.42295 4.14489 1.43623 4.14489 1.45141C4.14489 1.51844 4.14362 1.58485 4.14299 1.65062L3.89888 1.37868C3.89255 1.37172 3.87358 1.34706 3.86662 1.33441C3.86093 1.33441 3.85524 1.33441 3.84955 1.33441C3.85651 1.34706 3.87485 1.37172 3.8818 1.37931L4.14046 1.66833C4.14046 1.67275 4.14046 1.71513 4.14046 1.74738C4.14236 1.74928 4.14299 1.75054 4.14363 1.75054C4.14616 1.75054 4.14805 1.75054 4.15185 1.75117C4.15311 1.65315 4.15438 1.55323 4.15501 1.45204C4.15691 1.38627 4.16576 1.36982 4.20813 1.35844V1.34959C4.20054 1.34959 4.18916 1.34895 4.19169 1.34895V1.34769ZM3.81413 1.5956C3.81413 1.61141 3.81413 1.62785 3.8116 1.6424C3.8173 1.67718 3.83564 1.72018 3.88813 1.72967C3.89761 1.72967 3.90394 1.72967 3.90583 1.72967V1.72145C3.82678 1.70058 3.82615 1.64619 3.82615 1.5937C3.82615 1.52919 3.82678 1.46532 3.82741 1.40018C3.82425 1.39702 3.81666 1.38816 3.8154 1.3869C3.8154 1.4571 3.81477 1.52603 3.81413 1.59497V1.5956ZM3.49286 1.32619C3.31009 1.32619 3.28733 1.70185 3.49223 1.71323C3.47452 1.71007 3.44986 1.70185 3.43278 1.6892C3.33413 1.619 3.35183 1.42042 3.4233 1.35591C3.44354 1.3382 3.46757 1.32619 3.4935 1.32619H3.49286ZM3.50425 1.31607C3.75026 1.32935 3.75975 1.67844 3.53777 1.72588C3.6048 1.71386 3.73002 1.66896 3.71484 1.50769C3.70472 1.40145 3.61239 1.3167 3.50425 1.31607ZM3.23926 1.32239C3.1893 1.33125 3.18108 1.37552 3.18108 1.41156C3.18108 1.48556 3.18108 1.55829 3.18108 1.63038C3.18108 1.66517 3.1912 1.70754 3.23989 1.71702H3.25697V1.7088C3.19816 1.69868 3.19815 1.66517 3.19815 1.63038V1.41156C3.19815 1.37552 3.19816 1.342 3.25697 1.33125V1.32239C3.25697 1.32239 3.2361 1.32239 3.23926 1.32239ZM2.85285 1.33504C2.8655 1.33125 2.88068 1.33061 2.89333 1.33188C2.8674 1.32808 2.84337 1.33188 2.83515 1.33504C2.79973 1.34642 2.7991 1.37552 2.79846 1.40208C2.7991 1.44129 2.7991 1.4805 2.7991 1.51908C2.7991 1.51908 2.80605 1.51908 2.81617 1.51908V1.40208C2.81617 1.37552 2.81617 1.34642 2.85285 1.33504ZM2.7991 1.53172C2.7991 1.56588 2.79973 1.60003 2.79973 1.63354C2.79973 1.66896 2.80605 1.7126 2.8693 1.71955H2.887V1.7107C2.81744 1.70185 2.8168 1.66896 2.8168 1.63354C2.8168 1.60003 2.81681 1.56588 2.81617 1.53172H2.7991ZM2.90661 1.3186C2.95278 1.32049 2.98693 1.33631 3.00716 1.36034C3.03815 1.39449 3.03815 1.44951 3.0078 1.48619C2.98123 1.51781 2.94329 1.52793 2.88764 1.53046C2.95214 1.52919 2.99578 1.52097 3.02487 1.48619C3.05523 1.44951 3.05523 1.39449 3.02487 1.36034C3.00084 1.33378 2.961 1.31986 2.90661 1.3186ZM2.59862 1.63101C2.59419 1.57726 2.57775 1.47038 2.57143 1.41662C2.5689 1.39259 2.5651 1.34769 2.62645 1.33757V1.32872C2.62645 1.32872 2.6119 1.32872 2.60874 1.32872C2.5632 1.33757 2.54992 1.37994 2.55372 1.40967C2.56067 1.46469 2.57459 1.57536 2.58091 1.63038C2.58913 1.70248 2.62139 1.71639 2.64352 1.72272C2.64921 1.72272 2.65111 1.72272 2.6606 1.72272V1.71386C2.6353 1.71007 2.60368 1.70437 2.59799 1.63101H2.59862ZM2.18944 1.39322C2.17932 1.51655 2.17363 1.59054 2.16604 1.63797C2.16604 1.63797 2.16604 1.63797 2.16604 1.6386C2.16794 1.69426 2.20083 1.73157 2.2394 1.73663C2.2451 1.73663 2.25079 1.73663 2.25648 1.736V1.72777C2.19577 1.71513 2.17806 1.6854 2.18375 1.60445L2.19893 1.40714C2.19893 1.40714 2.19766 1.40461 2.18944 1.39322ZM2.25079 1.34137L2.24889 1.34516C2.23498 1.37615 2.3779 1.63418 2.38107 1.63987C2.36905 1.66833 2.36526 1.67781 2.3545 1.70311C2.3583 1.71007 2.3602 1.71386 2.3602 1.71449H2.36652C2.40636 1.61963 2.45949 1.49441 2.49933 1.39892C2.4968 1.37741 2.49617 1.37488 2.4949 1.36603C2.49617 1.37678 2.49111 1.3888 2.48352 1.4084L2.39055 1.62849C2.25458 1.37046 2.25395 1.37046 2.26533 1.34516L2.26723 1.34137H2.25016H2.25079ZM1.74612 1.62026C1.73347 1.65125 1.72398 1.67339 1.72335 1.67528C1.7126 1.71513 1.7341 1.75813 1.78027 1.76193C1.78533 1.76193 1.78849 1.76193 1.79734 1.76066V1.75181C1.72967 1.74169 1.72778 1.70627 1.74675 1.65568L1.76256 1.61837C1.75687 1.61837 1.75118 1.619 1.74612 1.61963V1.62026ZM1.75118 1.60761C1.75118 1.60761 1.75876 1.60761 1.76699 1.60635L1.83149 1.44382L1.82517 1.43054C1.81062 1.46469 1.77647 1.54753 1.75118 1.60761ZM2.02185 1.69236C2.02185 1.69236 1.9175 1.47101 1.86438 1.35465C1.86185 1.35465 1.85932 1.35465 1.85679 1.35465C1.85679 1.35591 1.85363 1.3616 1.85236 1.36603C1.90549 1.48176 2.00541 1.69236 2.00541 1.69236C2.01995 1.71955 2.03387 1.73789 2.06296 1.74485C2.06802 1.74485 2.07055 1.74485 2.08003 1.74422V1.736C2.05094 1.7303 2.03703 1.71955 2.02248 1.69236H2.02185ZM1.57157 1.6873C1.5703 1.6152 1.56904 1.54248 1.56777 1.46848C1.56714 1.43433 1.56714 1.39891 1.62153 1.38374V1.37488C1.62153 1.37488 1.61331 1.37552 1.60382 1.37615C1.55702 1.3888 1.55007 1.43433 1.5507 1.46848C1.55196 1.54248 1.55323 1.6152 1.55449 1.6873C1.55512 1.72082 1.55955 1.76066 1.61078 1.77141C1.61647 1.77141 1.619 1.77141 1.62785 1.77015V1.76129C1.57346 1.7556 1.57283 1.72082 1.5722 1.6873H1.57157ZM1.29583 1.60192C1.29646 1.6386 1.2971 1.67339 1.29773 1.70943C1.29836 1.74295 1.30152 1.78026 1.35212 1.79291C1.35465 1.79291 1.3616 1.79228 1.36919 1.79165V1.7828C1.31607 1.77774 1.31544 1.74358 1.3148 1.71007C1.3148 1.67402 1.31354 1.63734 1.31227 1.60129L1.2952 1.60256L1.29583 1.60192ZM1.31291 1.58738L1.31101 1.49062C1.31101 1.45457 1.31101 1.42105 1.36287 1.40524V1.39639C1.36287 1.39639 1.35465 1.39702 1.34516 1.39828C1.30342 1.41156 1.29393 1.4552 1.29393 1.49062C1.29393 1.52287 1.2952 1.55702 1.29583 1.58927L1.31291 1.58801V1.58738ZM1.10168 1.76509C1.06184 1.81189 1.01061 1.83086 0.96381 1.83212C0.965075 1.83212 0.96634 1.83212 0.966972 1.83212C1.0378 1.83465 1.12192 1.80114 1.16429 1.68351C1.16049 1.68351 1.1567 1.68414 1.15354 1.68414C1.12508 1.74485 1.10041 1.76572 1.10105 1.76446L1.10168 1.76509ZM0.997329 1.80746C0.943573 1.80556 0.894244 1.76446 0.873374 1.70374C0.822148 1.55955 0.925232 1.44129 0.999858 1.43054C1.00049 1.43054 1.00175 1.43054 1.00239 1.43054C0.906259 1.43686 0.80191 1.54943 0.855666 1.70437C0.879066 1.77141 0.937249 1.81189 0.997329 1.80809V1.80746ZM1.11686 1.49441C1.12571 1.50706 1.13077 1.51781 1.1333 1.52224C1.13709 1.52224 1.13899 1.52161 1.14215 1.52161L1.10863 1.42042C1.10294 1.42168 1.09725 1.42168 1.09156 1.42232L1.11622 1.49504L1.11686 1.49441ZM6.43046 1.2016C6.43046 1.2016 6.42603 1.20097 6.42351 1.20033C6.41908 1.20666 6.41022 1.21741 6.41022 1.21741L6.3824 1.31038C6.39188 1.31164 6.39757 1.31291 6.39884 1.31291L6.43046 1.2016ZM6.22872 0.987842C6.22619 1.05994 6.22429 1.13203 6.22176 1.20413C6.2205 1.25156 6.22492 1.27306 6.26983 1.28065C6.28753 1.28382 6.30334 1.28445 6.31852 1.28128C6.3141 1.28128 6.3103 1.28192 6.30587 1.28128C6.27741 1.28002 6.23757 1.27053 6.23884 1.20539C6.24073 1.13393 6.24327 1.0593 6.24579 0.987209C6.24706 0.952426 6.24832 0.919541 6.30018 0.917011C6.30018 0.914481 6.30018 0.911318 6.30082 0.908156C6.29576 0.907524 6.2907 0.906258 6.28564 0.905626C6.23504 0.916377 6.22998 0.952426 6.22872 0.987209V0.987842ZM5.97702 1.23069C5.92958 1.2231 5.92516 1.20097 5.92579 1.1548C5.92832 1.08334 5.93022 1.01124 5.93211 0.938513C5.93338 0.90373 5.93464 0.870844 5.98903 0.867682V0.85946C5.98397 0.858828 5.97891 0.858196 5.97385 0.857563C5.92579 0.862623 5.9163 0.904361 5.91504 0.939144C5.91314 1.01187 5.91124 1.08397 5.90871 1.15543C5.90745 1.2016 5.91251 1.225 5.95994 1.23132C5.97006 1.23259 5.98524 1.23575 6.00484 1.23259C5.99409 1.23385 5.9846 1.23259 5.97765 1.23069H5.97702ZM6.10476 1.16555L6.07694 1.25978L6.09338 1.26231L6.12627 1.15037C6.12627 1.15037 6.12121 1.15037 6.11868 1.14911L6.10413 1.16619L6.10476 1.16555ZM5.74365 1.15923C5.74365 1.15923 5.65891 0.926496 5.61464 0.803174C5.61211 0.803174 5.61021 0.803175 5.60768 0.802543C5.60768 0.803175 5.60515 0.808234 5.60199 0.815823C5.66333 0.986577 5.72658 1.15986 5.72721 1.15986C5.73922 1.18958 5.74745 1.20603 5.77527 1.21741C5.78476 1.21868 5.79108 1.21931 5.79235 1.21931C5.79298 1.21678 5.79298 1.21362 5.79298 1.21109C5.76832 1.2016 5.7563 1.18895 5.74428 1.15923H5.74365ZM5.49891 1.0416C5.48942 1.06184 5.4812 1.07828 5.47424 1.09219C5.45906 1.13773 5.4793 1.17441 5.5223 1.18705C5.53179 1.18832 5.53748 1.18895 5.53938 1.18895C5.53938 1.18579 5.53938 1.18326 5.54001 1.1801C5.48562 1.16112 5.47298 1.13267 5.49638 1.07764L5.51219 1.04286C5.50523 1.04223 5.50017 1.0416 5.49891 1.0416ZM5.50396 1.03021C5.50839 1.03021 5.51282 1.03148 5.51724 1.03148L5.58112 0.884757L5.57606 0.870844C5.57606 0.870844 5.52104 0.9929 5.50396 1.03021ZM5.2725 0.95116C5.28641 0.954322 5.31677 0.961911 5.34206 0.986576C5.39645 1.03907 5.38191 1.12444 5.33131 1.14911C5.31297 1.15859 5.29463 1.16239 5.27692 1.16302C5.30032 1.16429 5.32436 1.16176 5.34902 1.14911C5.39898 1.12444 5.41353 1.03907 5.35914 0.986576C5.33384 0.961911 5.30412 0.954322 5.28957 0.95116C5.40404 0.928393 5.38317 0.820882 5.32056 0.781672C5.2921 0.763964 5.26111 0.76017 5.24973 0.758906C5.24594 0.758906 5.23455 0.758272 5.22001 0.75764C5.22949 0.75764 5.27313 0.762067 5.30349 0.781672C5.3661 0.820882 5.38633 0.928393 5.2725 0.95116ZM5.14981 0.946735C5.14917 0.986577 5.14791 1.02895 5.14728 1.06879C5.14538 1.15101 5.22886 1.14342 5.23455 1.14278C5.18143 1.13646 5.16499 1.11939 5.16435 1.06879C5.16372 1.0144 5.16688 0.958118 5.16688 0.948632L5.14981 0.946735ZM5.15234 0.832265C5.15171 0.867048 5.15107 0.900567 5.14981 0.93535C5.15613 0.93535 5.16182 0.936616 5.16752 0.936616C5.16815 0.901833 5.16878 0.865784 5.16941 0.831001C5.17068 0.787996 5.19028 0.769656 5.20862 0.767759C5.18838 0.765229 5.15297 0.776612 5.1517 0.831001L5.15234 0.832265ZM4.74063 0.730446C4.74063 0.730446 4.68498 0.719694 4.6483 0.794952L4.64577 0.819618C4.64893 0.819618 4.65272 0.819618 4.65525 0.820251C4.67612 0.758906 4.70964 0.733608 4.74063 0.730446ZM5.00751 0.739301L5.01194 0.818353C5.01194 0.818353 5.01953 0.837958 5.02269 0.849341C5.02522 0.849341 5.02838 0.849341 5.03091 0.849341L5.02459 0.740565L5.00751 0.739301ZM4.85636 0.80444C4.8551 0.882228 4.85384 0.959382 4.85257 1.0359C4.85257 1.07006 4.85763 1.1118 4.91708 1.12761C4.91518 1.12761 4.93352 1.12887 4.93478 1.12887V1.12002C4.86901 1.1061 4.86901 1.07006 4.86965 1.0359C4.87091 0.959382 4.87217 0.882228 4.87344 0.80444C4.8747 0.763965 4.89368 0.744992 4.91139 0.743095C4.88356 0.739301 4.85763 0.752582 4.85636 0.80444ZM3.48844 0.847444C3.48844 0.887919 3.48844 0.927761 3.48844 0.967604C3.48844 1.00112 3.49413 1.04413 3.55864 1.05488H3.57571V1.04666C3.50551 1.03717 3.50551 1.00239 3.50551 0.968237C3.50551 0.928394 3.50551 0.88855 3.50614 0.848075H3.48844V0.847444ZM3.6282 0.928394H3.63706C3.63706 0.8778 3.63769 0.827207 3.63769 0.776613H3.62947C3.62694 0.786732 3.62377 0.794953 3.61998 0.80191C3.61998 0.834163 3.61998 0.865153 3.61998 0.897406C3.62251 0.904363 3.62377 0.90879 3.6282 0.929027V0.928394ZM3.56053 0.677956C3.50678 0.677956 3.49033 0.692502 3.48907 0.739301C3.48907 0.771554 3.48907 0.804439 3.48907 0.836692C3.49666 0.836692 3.50172 0.836692 3.50678 0.836692V0.739301C3.50867 0.690604 3.5346 0.676691 3.58646 0.677956C3.57887 0.677956 3.56433 0.677956 3.56117 0.677956H3.56053ZM3.69208 0.670365L3.7003 0.751948C3.70409 0.759537 3.70725 0.767759 3.71105 0.776613H3.72054L3.70978 0.670365C3.70409 0.670365 3.6984 0.670365 3.69271 0.670365H3.69208ZM3.08116 0.97709C3.08116 0.982782 3.08116 1.02516 3.08116 1.05741C3.08495 1.06184 3.08748 1.06373 3.08748 1.06373H3.09633V0.765228C3.09697 0.700089 3.10645 0.683014 3.15009 0.670998V0.662145C3.15009 0.662145 3.13238 0.662145 3.13302 0.662145C3.10076 0.669102 3.08558 0.693765 3.08116 0.73171C3.08052 0.728548 3.08495 0.755111 3.08495 0.766494C3.08495 0.832899 3.08558 0.89867 3.08558 0.96381L2.83262 0.706414C2.81491 0.685754 2.80416 0.672052 2.80036 0.665307H2.78329C2.78898 0.675425 2.78961 0.676057 2.81554 0.706414L3.08116 0.97709ZM2.74977 0.720327C2.74977 0.789261 2.74977 0.857562 2.7504 0.925864C2.7504 0.94041 2.7485 0.970767 2.7485 0.970134C2.75483 1.00808 2.78076 1.05108 2.82819 1.05614C2.83198 1.05614 2.83451 1.05614 2.844 1.05614V1.04792C2.76937 1.03401 2.76305 0.987842 2.76115 0.9246C2.76115 0.860725 2.76115 0.796217 2.76052 0.73171L2.74977 0.720327ZM2.32099 0.927761C2.3134 0.944204 2.30075 0.971399 2.29822 0.976459C2.28114 1.02705 2.30707 1.06247 2.35387 1.07069C2.35956 1.07069 2.36526 1.07069 2.37158 1.07069V1.06183C2.31024 1.05108 2.29569 1.02389 2.31972 0.965707L2.33616 0.928394H2.32162L2.32099 0.927761ZM2.4304 0.679853C2.48099 0.787997 2.58597 1.00745 2.58597 1.00745C2.60115 1.03527 2.61064 1.05235 2.64479 1.06057H2.66186V1.05172C2.63277 1.04602 2.61822 1.03527 2.60368 1.00745C2.60368 1.00745 2.49743 0.784834 2.44304 0.669101H2.43545L2.43103 0.67922L2.4304 0.679853ZM2.40194 0.744359C2.37032 0.817088 2.34565 0.872742 2.32668 0.915114H2.34059L2.40826 0.75764L2.40194 0.744359ZM2.16415 0.794321C2.16415 0.794321 2.16984 0.794321 2.173 0.794321L2.16162 0.688073C2.16162 0.688073 2.15466 0.688073 2.14454 0.688706L2.15276 0.767759C2.15656 0.775348 2.16035 0.784202 2.16415 0.794321ZM2.08699 0.944205C2.08699 0.944205 2.09331 0.944205 2.09648 0.944205C2.09584 0.896141 2.09521 0.848076 2.09521 0.79938C2.09142 0.79938 2.08826 0.79938 2.08573 0.79938C2.08383 0.808866 2.0813 0.817088 2.07814 0.824045C2.07814 0.855034 2.07814 0.886022 2.07877 0.917011C2.08193 0.9246 2.08446 0.933453 2.08699 0.944205ZM1.94217 1.00428C1.94406 1.06057 1.95481 1.07195 2.00414 1.07069H2.00541C1.97315 1.06942 1.96051 1.05424 1.95861 1.00428C1.95861 0.963176 1.95861 0.92207 1.95734 0.880963C1.95039 0.880963 1.94406 0.881594 1.94027 0.882227C1.94027 0.923334 1.94153 0.963809 1.94153 1.00428H1.94217ZM2.17806 1.07764L2.21031 0.960648C2.20652 0.960648 2.20336 0.960647 2.20019 0.961279C2.1983 0.964441 2.1945 0.970133 2.18881 0.97709L2.16035 1.07828H2.17806V1.07764ZM1.93964 0.771553C1.93964 0.804439 1.94027 0.837326 1.9409 0.869579C1.94406 0.869579 1.95039 0.869579 1.95798 0.868946C1.95798 0.864519 1.95608 0.813293 1.95671 0.771553C1.95671 0.726019 1.97189 0.710208 2.01932 0.705781C2.01426 0.705781 2.00984 0.705781 2.00794 0.705781C1.95608 0.709575 1.94027 0.724121 1.93964 0.771553ZM1.68857 0.705149C1.82201 0.714636 1.85426 0.896772 1.64999 0.917642C1.65252 0.917642 1.65441 0.917642 1.65694 0.917642C1.88209 0.901832 1.83845 0.699456 1.68857 0.705781V0.705149ZM1.60825 0.724754C1.57852 0.737403 1.5741 0.75511 1.57473 0.793055C1.57536 0.832265 1.57536 0.872108 1.57599 0.910053C1.58169 0.910053 1.58927 0.909422 1.5937 0.908789C1.5937 0.908789 1.59307 0.850605 1.5918 0.793055C1.5918 0.75511 1.5975 0.73677 1.62532 0.724754C1.63165 0.722225 1.64683 0.718429 1.6639 0.719694C1.63797 0.716532 1.61394 0.722225 1.60825 0.724754ZM1.57663 0.922703C1.57726 0.956221 1.57726 0.989106 1.57789 1.02262C1.57789 1.05678 1.58991 1.10357 1.6443 1.1061C1.65062 1.1061 1.65631 1.10547 1.66264 1.10484V1.09599C1.59686 1.09219 1.59623 1.05678 1.59497 1.02262C1.59497 0.989106 1.59433 0.954955 1.5937 0.921436L1.57663 0.922703ZM1.23575 1.13203C1.23069 1.13203 1.22627 1.13203 1.22121 1.1314C1.07638 1.12002 1.08207 0.867682 1.15543 0.786732C1.16682 0.774084 1.18136 0.764597 1.19717 0.758273C1.17694 0.765229 1.15733 0.777244 1.13962 0.794952C1.05804 0.878432 1.05994 1.13203 1.21551 1.13203C1.21551 1.13203 1.22374 1.1333 1.23638 1.13203H1.23575ZM1.4103 0.906892C1.42548 1.03654 1.32113 1.14152 1.21045 1.14784C1.32682 1.1529 1.44382 1.0435 1.42737 0.906892C1.41599 0.806969 1.33441 0.734873 1.23891 0.738035C1.32619 0.743726 1.39955 0.812661 1.4103 0.906892ZM0.734873 0.980253C0.734873 0.980253 0.743728 0.978988 0.751949 0.978356C0.751317 0.94547 0.750684 0.912582 0.749419 0.879696C0.749419 0.849973 0.748787 0.826573 0.779776 0.810763C0.787997 0.806968 0.808234 0.802543 0.82278 0.80444C0.803175 0.800646 0.781041 0.802541 0.762068 0.810763C0.731079 0.825308 0.732344 0.849973 0.732344 0.879696C0.733609 0.912582 0.734241 0.947367 0.734873 0.980253ZM0.843018 0.972662C0.884758 0.986576 0.903098 1.00428 0.942941 1.06626C0.988475 1.13773 1.00998 1.16239 1.04033 1.17124C1.0435 1.17124 1.04602 1.17124 1.05425 1.17061V1.16302C1.02452 1.15417 1.00618 1.13836 0.960015 1.06626C0.920173 1.00428 0.901832 0.986576 0.860093 0.972662C0.994798 0.942306 0.958751 0.834796 0.917011 0.807601C0.890449 0.789894 0.856931 0.788629 0.835428 0.789894C0.855666 0.790526 0.879698 0.794321 0.899935 0.807601C0.941675 0.834796 0.977724 0.942306 0.843018 0.972662ZM0.810764 1.1763C0.757008 1.1744 0.756376 1.14089 0.755111 1.10547C0.754479 1.06689 0.753214 1.02832 0.752581 0.989739C0.746257 0.990371 0.743095 0.991004 0.734873 0.992269C0.736138 1.03085 0.736771 1.06689 0.738036 1.10547C0.739301 1.14089 0.750052 1.18263 0.795586 1.18642C0.793689 1.18642 0.803807 1.18516 0.810764 1.18452V1.1763ZM0.380718 0.853769C0.336448 0.870212 0.330123 0.909421 0.331388 0.945469C0.332653 0.99796 0.334551 1.04982 0.335816 1.10168V1.1118C0.33708 1.1314 0.338345 1.17251 0.366172 1.19844C0.381982 1.21298 0.409809 1.22247 0.438268 1.21994C0.42056 1.21931 0.40222 1.21488 0.383247 1.19844C0.354788 1.17377 0.354156 1.1314 0.352891 1.1118C0.352891 1.1118 0.349729 1.01251 0.348464 0.945469C0.347831 0.908788 0.3472 0.877799 0.398426 0.860092V0.851239L0.38135 0.853769H0.380718ZM0.397161 1.24587C0.454079 1.2503 0.504672 1.21931 0.525542 1.19654C0.567282 1.15101 0.566649 1.09725 0.566017 1.06183C0.564752 1.01567 0.563487 0.9695 0.562223 0.923334C0.56159 0.87021 0.572341 0.849341 0.607124 0.832898C0.607124 0.829736 0.606492 0.827207 0.606492 0.824045C0.602697 0.824045 0.595741 0.82531 0.589416 0.825942C0.560325 0.837958 0.550839 0.861358 0.547044 0.892979C0.553368 0.915113 0.554001 1.01314 0.555266 1.0631C0.557163 1.14215 0.531234 1.18579 0.498348 1.20603C0.498348 1.20603 0.460403 1.24271 0.402852 1.24587M0.0714639 0.912584C0.0796854 0.911319 0.0917013 0.908789 0.104982 0.908789C0.094231 0.908157 0.0815819 0.908789 0.0676686 0.910686C0.0632416 0.911319 0.0588152 0.911951 0.0543883 0.912584C0.0126485 0.920805 0 0.937248 0 0.984048C0.00126484 1.0163 0.00189746 1.05172 0.0031623 1.08334C0.00885409 1.0827 0.020237 1.08081 0.020237 1.08081C0.0196046 1.05551 0.0183401 1.0163 0.0177077 0.984048C0.0170753 0.937248 0.0379456 0.918275 0.0714639 0.912584ZM0.195418 0.989106L0.184035 0.884757C0.178343 0.885389 0.172651 0.886655 0.166959 0.887287L0.175181 0.958118C0.179608 0.966972 0.184035 0.978355 0.187829 0.991003C0.190359 0.991003 0.193521 0.990371 0.195418 0.989739V0.989106ZM0.205537 1.26927L0.230201 1.15101C0.230201 1.15101 0.224509 1.15164 0.22198 1.15164C0.21692 1.15986 0.212493 1.16682 0.208066 1.17377L0.189093 1.2718L0.205537 1.26927ZM0.135338 1.14405C0.134073 1.09662 0.132176 1.04855 0.130911 1.00112C0.129013 1.00112 0.126484 1.00112 0.123954 1.00176C0.122689 1.01504 0.115733 1.03527 0.116365 1.03527C0.116998 1.06057 0.116366 1.08587 0.11763 1.11116C0.11763 1.11116 0.125852 1.13014 0.128381 1.14595C0.130279 1.14595 0.132808 1.14468 0.135338 1.14468V1.14405ZM3.67121 0.400955V0.3921C3.60923 0.377554 3.59532 0.349095 3.61998 0.290912L3.63706 0.254233C3.6282 0.254233 3.62314 0.254233 3.62188 0.254233C3.61745 0.263087 3.60796 0.281428 3.59974 0.298503C3.57887 0.351626 3.60417 0.394631 3.65413 0.400955H3.67184H3.67121ZM3.87105 0.325064L3.8837 0.352257C3.89825 0.381349 3.90457 0.400955 3.93999 0.409177C3.9501 0.409177 3.95643 0.409177 3.95769 0.409177V0.400322C3.90773 0.387041 3.89951 0.34783 3.88813 0.324431C3.85018 0.245378 3.80528 0.134073 3.74583 0H3.73888C3.73888 0 3.73698 0.00505891 3.73382 0.0113831C3.77492 0.104981 3.82741 0.225141 3.86726 0.316842L3.87105 0.324431V0.325064ZM3.62757 0.241583C3.632 0.241583 3.63706 0.241583 3.64211 0.241583L3.71105 0.0866414L3.70536 0.0739922C3.67753 0.135337 3.64085 0.215023 3.62757 0.240952V0.241583ZM3.47958 0.237158C3.48275 0.246012 3.48527 0.25613 3.48717 0.268146H3.49666C3.49666 0.217552 3.49666 0.166326 3.49666 0.115732H3.4878C3.48527 0.125219 3.48274 0.133441 3.47895 0.140398C3.47895 0.172019 3.47895 0.206168 3.47895 0.237789L3.47958 0.237158ZM3.43531 0.388306C3.36638 0.377555 3.36575 0.344036 3.36575 0.309253V0.187196C3.36006 0.187196 3.35436 0.187196 3.34867 0.187196C3.34867 0.227671 3.34867 0.268778 3.34867 0.309253C3.34867 0.344669 3.35879 0.390836 3.41761 0.397161H3.43531V0.388306ZM3.34867 0.0790527C3.34867 0.111306 3.34867 0.144191 3.34867 0.176444C3.355 0.176444 3.35563 0.176444 3.36575 0.176444C3.36575 0.144191 3.36575 0.111306 3.36575 0.0790527C3.36701 0.0423722 3.38851 0.0246637 3.41255 0.0189719C3.38472 0.0233988 3.34804 0.0373129 3.34804 0.0790527H3.34867ZM3.55041 0.00821986L3.55864 0.0879056C3.56306 0.0967595 3.56622 0.106246 3.56939 0.115732H3.57887L3.56749 0.0088529H3.55041V0.00821986ZM3.16337 0.0853753C3.16337 0.0853753 3.17096 0.102452 3.17476 0.112571H3.18361L3.17223 0.00505852C3.17223 0.00505852 3.1659 0.00505852 3.15515 0.00505852L3.16337 0.0853753ZM3.08622 0.231465C3.08622 0.231465 3.09191 0.248541 3.09444 0.260557H3.10392C3.10392 0.211861 3.10392 0.163163 3.10329 0.115099H3.09444C3.09254 0.12838 3.08811 0.137867 3.08622 0.142926C3.08622 0.17265 3.08622 0.202373 3.08622 0.231465ZM2.94519 0.189726C2.94519 0.231466 2.94519 0.26941 2.94519 0.31115C2.94519 0.350993 2.9591 0.381982 3.00969 0.383247C3.01349 0.383247 3.02297 0.383247 3.03246 0.383247C2.99641 0.380718 2.96226 0.368069 2.96226 0.314314C2.96226 0.272574 2.96226 0.230833 2.96163 0.189093C2.95594 0.189093 2.95594 0.189093 2.94455 0.189093L2.94519 0.189726ZM3.01602 0.0170747C2.96289 0.0183395 2.94645 0.0335176 2.94519 0.0803168C2.94519 0.113203 2.94519 0.145455 2.94519 0.178341C2.95278 0.178341 2.96226 0.178341 2.96226 0.178341V0.0803168C2.96353 0.0335176 2.99641 0.0189719 3.03246 0.0170747C3.03689 0.0170747 3.04068 0.0170747 3.04448 0.0170747C3.03499 0.0170747 3.02487 0.0170747 3.01602 0.0170747ZM3.1659 0.399058C3.17792 0.399058 3.18487 0.399058 3.18487 0.399058L3.21966 0.282059H3.20954C3.20574 0.287119 3.20195 0.292178 3.19815 0.297237L3.16843 0.399689C3.16843 0.399689 3.16717 0.399689 3.1659 0.399689V0.399058ZM2.78645 0.00758875C2.75925 0.0151778 2.73902 0.0436358 2.73396 0.0777866C2.73585 0.0860081 2.73712 0.0948615 2.73712 0.10498C2.73712 0.149882 2.73712 0.200476 2.73775 0.245378C2.73902 0.322533 2.71119 0.364275 2.67451 0.383247C2.6334 0.409809 2.59672 0.417397 2.56826 0.417397C2.56826 0.417397 2.56953 0.417397 2.57016 0.417397C2.63783 0.421191 2.68842 0.392733 2.71309 0.364906C2.74914 0.324431 2.74977 0.280162 2.74977 0.244747C2.74977 0.197948 2.74977 0.151148 2.74977 0.103716C2.75103 0.0499603 2.76368 0.0297225 2.80479 0.0164416V0.00758875H2.78708H2.78645ZM2.48225 0.103083C2.48225 0.171385 2.48289 0.268779 2.48289 0.272573C2.48352 0.303562 2.48731 0.335183 2.51198 0.361112C2.53158 0.38135 2.56194 0.394631 2.60558 0.395263C2.57459 0.392101 2.54613 0.37882 2.52905 0.361112C2.50439 0.335183 2.50059 0.303562 2.49996 0.272573C2.49996 0.272573 2.49933 0.171385 2.49933 0.103083C2.49933 0.0689323 2.49933 0.0335181 2.56004 0.0215021V0.0126473C2.55625 0.0126473 2.55119 0.0126479 2.54297 0.0132803C2.48795 0.0240315 2.48225 0.0689323 2.48225 0.103083ZM4.15121 0.880963C4.14995 0.97962 4.07849 1.05361 4.00007 1.07259C4.05698 1.0612 4.16133 1.02073 4.16513 0.88539C4.16829 0.762068 4.07722 0.672263 3.96528 0.665307C4.06394 0.670998 4.15248 0.769024 4.15121 0.880963ZM3.88686 0.702619C3.90583 0.687441 3.9267 0.677955 3.94947 0.67669C3.95327 0.67669 3.95769 0.67669 3.96149 0.67669C3.95706 0.67669 3.95327 0.67669 3.94947 0.67669C3.91975 0.67669 3.88749 0.689338 3.86409 0.710208C3.82805 0.741829 3.80781 0.805072 3.80781 0.873374C3.80781 1.01124 3.8818 1.04855 3.92607 1.05804C3.79137 1.02136 3.80591 0.769657 3.88686 0.703252V0.702619ZM1.68857 0.705149C1.68857 0.705149 1.68857 0.705149 1.68793 0.705149C1.68793 0.705149 1.68793 0.705149 1.68857 0.705149ZM0.96381 1.83276C0.96381 1.83276 0.963178 1.83276 0.962546 1.83276C0.962546 1.83276 0.962545 1.83276 0.963178 1.83276H0.96381ZM0.0246644 1.21488C0.0227671 1.17377 0.0221349 1.1333 0.02087 1.09219L0.00379437 1.09472C0.00505922 1.13583 0.00505906 1.17377 0.00758875 1.21425C0.0101184 1.26294 0.0202378 1.28129 0.0556534 1.27623C0.0411077 1.2737 0.0271937 1.26168 0.0252965 1.21488H0.0246644ZM4.28402 1.00428C4.30679 1.04919 4.3479 1.06753 4.37889 1.07575C4.37889 1.07575 4.37762 1.07575 4.37699 1.07512C4.24481 1.03654 4.25936 0.787997 4.33968 0.72096C4.35802 0.706414 4.37825 0.696928 4.40039 0.69503C4.37066 0.69503 4.34031 0.709575 4.31817 0.729813C4.2505 0.785466 4.24165 0.920805 4.28402 1.00492V1.00428ZM4.44782 0.688073C4.44782 0.688073 4.44213 0.686808 4.43897 0.686176C4.45731 0.68997 4.47248 0.696296 4.48387 0.701355C4.67043 0.786732 4.63059 1.08207 4.4143 1.09535C4.43074 1.09535 4.60972 1.08207 4.61794 0.903729C4.623 0.79179 4.54585 0.707045 4.44782 0.688073Z" fill="#2B4688"/>
</svg>
