<svg width="5" height="2" viewBox="0 0 5 2" fill="none" xmlns="http://www.w3.org/2000/svg">
<path d="M4.41581 0.304151C4.27991 0.291551 3.99211 0.26815 3.98641 0.32565C3.98071 0.38325 4.52971 0.48125 4.43421 0.57865C4.30261 0.71275 4.25771 0.942351 4.25271 1.14275C4.24321 1.46785 4.36841 1.53105 4.32221 1.60315C4.28871 1.65635 4.06361 1.64115 3.55071 1.60955C3.27051 1.57345 2.98211 1.55005 2.69501 1.55005C2.18911 1.55005 1.59651 1.62085 1.12471 1.71705C0.657314 1.81315 0.260215 1.89785 0.224115 1.84285C0.178615 1.77265 0.303215 1.72655 0.293715 1.41405C0.288615 1.22125 0.298115 0.99925 0.167915 0.86895C0.0654146 0.76585 0.592214 0.58055 0.589714 0.52495C0.586514 0.46295 0.308915 0.522351 0.172915 0.533751C0.0970147 0.540751 -0.0142854 0.572351 0.00151464 0.507851C0.625715 0.203051 1.68881 0 2.69501 0C3.39451 0 4.08381 0.0860103 4.68521 0.24915C4.71431 0.25735 4.47721 0.309251 4.41581 0.304151Z" fill="url(#paint0_linear_1591_39947)"/>
<defs>
<linearGradient id="paint0_linear_1591_39947" x1="0.000314643" y1="0.92965" x2="4.68841" y2="0.92965" gradientUnits="userSpaceOnUse">
<stop offset="0.16" stop-color="#C8D7F1"/>
<stop offset="0.49" stop-color="#DEE8F9"/>
</linearGradient>
</defs>
</svg>
