<svg width="6" height="4" viewBox="0 0 6 4" fill="none" xmlns="http://www.w3.org/2000/svg">
<path d="M1.36725 3.29693L1.30324 3.36356C0.903456 3.34205 0.582892 3.31949 0.169989 3.25758L0 3.16419L0.00367296 3.06136C0.834725 2.22244 1.59128 1.25497 2.31425 0.104931L2.46168 0L2.63534 0.03043C3.68884 0.722449 4.76701 1.35833 5.91862 1.96798L5.97948 2.0792L5.74864 2.29903C5.38243 2.50732 4.94119 2.67626 4.48842 2.85622L4.41759 2.80952L4.34519 2.76283C4.31213 2.27647 4.05243 1.85465 3.61067 1.56872C3.42914 1.45119 3.20826 1.38928 2.97164 1.38928C2.50313 1.38928 2.07133 1.62433 1.7875 2.03408C1.54458 2.38455 1.42024 2.80585 1.43441 3.22977L1.36725 3.29745V3.29693Z" fill="url(#paint0_linear_1587_26227)"/>
<defs>
<linearGradient id="paint0_linear_1587_26227" x1="-8.13529" y1="3.05664" x2="3.40868" y2="1.47218" gradientUnits="userSpaceOnUse">
<stop stop-color="#3FA3DC"/>
<stop offset="0.5" stop-color="#2A78AA"/>
<stop offset="1" stop-color="#3FA3DC"/>
</linearGradient>
</defs>
</svg>
