<svg width="3" height="1" viewBox="0 0 3 1" fill="none" xmlns="http://www.w3.org/2000/svg">
<path d="M2.2832 0.0265999C2.3718 0.0733999 2.4445 0.1272 2.4977 0.2031C2.442 0.186 2.3838 0.167699 2.3231 0.150599C2.3275 0.146099 2.3269 0.1379 2.3212 0.131C2.3186 0.1272 2.2832 0.0949001 2.2832 0.0949001C2.2832 0.0949001 2.294 0.0866993 2.2965 0.0619993C2.2978 0.0499993 2.2864 0.0303999 2.2832 0.0265999ZM0.2619 0.105C0.2708 0.0942995 0.2974 0.0733995 0.2974 0.0733995C0.2974 0.0733995 0.2822 0.0614001 0.2784 0.0373001C0.2752 0.0196001 0.289101 0 0.289101 0C0.168901 0.0544 0.0645 0.1101 0 0.2031C0.0797 0.1784 0.165801 0.1518 0.257501 0.1284C0.253101 0.1227 0.2575 0.1095 0.2619 0.105Z" fill="#617DA2"/>
</svg>
