<svg width="5" height="4" viewBox="0 0 5 4" fill="none" xmlns="http://www.w3.org/2000/svg">
<path d="M4.0958 3.2374C4.2466 3.2374 4.3661 3.122 4.3661 2.9742V1.228C4.3661 0.550701 3.8154 0 3.1382 0C2.7697 0 2.4103 0.1792 2.1856 0.4708C1.9528 0.1752 1.5995 0 1.228 0C0.5507 0 0 0.550701 0 1.228V3.207H0.5396V1.228C0.5396 0.837201 0.8483 0.520401 1.228 0.520401C1.6076 0.520401 1.9163 0.844301 1.9163 1.228L1.9102 2.5146C1.9102 2.6624 2.0287 2.7778 2.1795 2.7778C2.3303 2.7778 2.4498 2.6624 2.4498 2.5146V1.228C2.4498 0.837201 2.7585 0.520401 3.1382 0.520401C3.5178 0.520401 3.8265 0.844301 3.8265 1.228V2.9742C3.8265 3.122 3.945 3.2374 4.0958 3.2374Z" fill="white"/>
</svg>
