<svg width="4" height="2" viewBox="0 0 4 2" fill="none" xmlns="http://www.w3.org/2000/svg">
<path d="M3.01927 0.958099C3.02497 1.268 2.49877 1.2864 2.39567 1.2781C2.20597 1.2649 1.85307 1.2541 1.45527 1.2541C1.05747 1.2541 0.782969 1.2636 0.624269 1.2762C0.519269 1.2845 -0.0069308 1.2718 6.91958e-05 0.958099C0.0032692 0.815799 0.0297688 0.5534 0.0664688 0.4174C0.125869 0.1954 0.440869 0.0505994 0.672969 0.00379944C0.935369 0.0145994 1.16627 0.0277977 1.45527 0.0277977C1.74427 0.0277977 2.04157 0.0089 2.34507 0C2.57717 0.0468 2.89407 0.1954 2.95347 0.4174C2.99017 0.5534 3.01667 0.815799 3.01927 0.958099Z" fill="url(#paint0_radial_1591_39822)"/>
<defs>
<radialGradient id="paint0_radial_1591_39822" cx="0" cy="0" r="1" gradientUnits="userSpaceOnUse" gradientTransform="translate(-0.00883094 0.780499) scale(2.7504 1.95278)">
<stop stop-color="#C8D7F1"/>
<stop offset="0.74" stop-color="#DEE8F9"/>
<stop offset="1" stop-color="white"/>
</radialGradient>
</defs>
</svg>
