<svg width="2" height="1" viewBox="0 0 2 1" fill="none" xmlns="http://www.w3.org/2000/svg">
<path d="M0.00141698 0.121467C-0.014399 0.118936 0.103905 0.0917325 0.270289 0.0619985C0.276615 0.0607332 0.282942 0.0601003 0.290534 0.0588351C0.528407 0.0253051 0.818156 0 1.19964 0C1.37361 0 1.53747 0.00442848 1.70575 0.015816C1.78799 0.0215098 1.88985 0.0316321 1.98981 0.0455502C1.9316 0.170813 2.0904 0.644027 1.89301 0.87241C1.88795 0.871778 1.88352 0.871145 1.8772 0.870512C1.85948 0.867349 1.70006 0.828126 1.2958 0.822432C1.27935 0.822432 1.26227 0.822432 1.24456 0.822432C1.22684 0.822432 1.20849 0.822432 1.18952 0.822432C0.699852 0.822432 0.425286 0.885696 0.220943 0.927451C0.198801 0.929981 0.200066 0.910369 0.207025 0.901512C0.223474 0.880635 0.240555 0.869247 0.240555 0.869247C0.240555 0.869247 0.224106 0.864819 0.219045 0.841412C0.213352 0.816739 0.235494 0.792065 0.235494 0.792065C0.234861 0.792065 0.22727 0.786371 0.208291 0.726271C0.176659 0.626313 0.1387 0.368196 0.141231 0.262545C0.143761 0.156894 0.201331 0.105651 0.201331 0.105651C0.201331 0.105651 0.0222938 0.126528 0.000151427 0.122099L0.00141698 0.121467Z" fill="url(#paint0_linear_3091_43838)"/>
<defs>
<linearGradient id="paint0_linear_3091_43838" x1="0.000151698" y1="0.463093" x2="1.99613" y2="0.463093" gradientUnits="userSpaceOnUse">
<stop offset="0.16" stop-color="#B3C4DB"/>
<stop offset="0.49" stop-color="#BFCCE0"/>
</linearGradient>
</defs>
</svg>
