<svg width="15" height="34" viewBox="0 0 15 34" fill="none" xmlns="http://www.w3.org/2000/svg">
<path d="M14.4043 9.10434C14.3903 9.02465 14.305 8.58639 14.2904 8.51935C13.6473 5.44768 12.3318 2.61886 10.1664 0C8.36843 0.600168 6.64002 1.65947 4.89138 3.63895C6.3333 6.27299 8.22108 8.47192 10.4112 10.2895C10.4282 10.304 11.3712 11.0731 11.7323 11.3159C11.8935 10.9902 12.4033 10.3818 12.5494 10.225C12.3666 10.0119 11.5603 9.25422 11.2592 8.84441C11.6071 8.50797 12.1649 8.09879 12.5734 7.9097C12.7954 8.23539 13.1982 9.18972 13.357 9.53565C13.565 9.37375 14.0988 9.14798 14.4036 9.10624H14.4049C14.4049 9.10624 14.4049 9.10497 14.4043 9.10434ZM9.90838 6.7473C9.37588 5.79361 8.91042 4.52434 8.54045 3.47136C8.55436 3.46061 8.56954 3.45112 8.58409 3.44164C9.43027 4.1645 10.4055 5.05811 11.1024 5.89733C10.7862 6.05544 10.1436 6.52343 9.90838 6.7473ZM7.47355 12.8495C7.78787 11.5986 8.22867 10.4033 8.8301 9.36237L6.50595 8.01974C5.74262 9.34466 5.23289 10.7625 4.87177 12.1899L3.52788 11.849C3.9282 10.2743 4.49548 8.68188 5.40174 7.16091L3.0972 5.78602C1.7318 7.84519 0.593442 11.8693 0.355651 14.0771L10.3966 15.5512C10.4358 15.2085 10.6616 13.9936 10.7634 13.6831L7.47355 12.8495ZM10.1462 22.4358L0.0147761 22.8089C-0.0231692 22.0412 -0.00988836 17.3954 0.223475 15.2274L2.89356 15.5C2.77213 17.1165 2.70067 20.0889 2.70067 20.0889L3.83334 20.1116C3.87128 18.3813 3.93579 16.7592 4.00852 15.6145L6.40982 15.8592C6.33709 17.138 6.24476 19.4065 6.25361 20.1597L7.47988 20.1844C7.47988 20.1844 7.53237 17.114 7.63166 15.9838L10.3195 16.2583L10.1462 22.4358ZM10.6426 25.2115C10.2935 24.4399 9.80466 24.0263 9.2709 23.8208C7.56336 23.1624 5.04948 23.5697 0.0697968 24.0307C0.212724 25.343 0.387272 26.2948 0.715499 27.3699C0.715499 27.3699 4.19318 26.317 5.35241 25.9666C5.93045 25.792 7.22565 25.4139 7.61964 26.4156C7.91751 27.1726 7.39324 27.7671 6.31559 28.3186L1.99426 30.5086C2.47679 31.4775 3.04028 32.4925 3.54053 33.1667C5.05328 32.3016 9.94696 29.3709 10.7969 27.5217C11.2719 26.4877 10.9266 25.8382 10.6426 25.2115Z" fill="white"/>
</svg>
