<svg width="7" height="16" viewBox="0 0 7 16" fill="none" xmlns="http://www.w3.org/2000/svg">
<path d="M5.30904 11.8119C4.77527 12.9807 4.74238 14.6382 4.7114 15.5508C4.50586 15.5508 4.14917 15.5483 3.79059 15.5439C3.47564 15.5401 2.77429 15.5496 2.71105 15.547C2.61808 15.5432 2.6048 15.5217 2.59911 15.4737C2.58456 15.3535 2.65982 13.763 1.93949 12.1838C1.48984 11.1985 0.951019 10.5237 0.527929 9.15704C-0.12726 7.04159 -0.0330291 3.02066 0.0378021 2.33005C0.121914 1.50284 0.278122 0.399901 2.71295 0.0432153C3.10252 -0.0143351 3.97652 -0.0541778 4.6861 0.0242425C4.80247 0.0413178 4.91124 0.0609228 5.0118 0.0824251C6.90527 0.454921 6.71428 3.14651 6.7187 3.82763C6.73641 6.37881 6.38731 9.44985 5.30904 11.8126V11.8119Z" fill="url(#paint0_linear_1587_25521)"/>
<defs>
<linearGradient id="paint0_linear_1587_25521" x1="-0.0115268" y1="7.76571" x2="6.7225" y2="7.76571" gradientUnits="userSpaceOnUse">
<stop offset="0.16" stop-color="#E9EFF9"/>
<stop offset="0.52" stop-color="#F2F6FD"/>
</linearGradient>
</defs>
</svg>
