<svg width="22" height="23" viewBox="0 0 22 23" fill="none" xmlns="http://www.w3.org/2000/svg">
<path opacity="0.9" d="M5.94734 21.3007C7.78704 20.6154 11.1907 19.3477 14.2032 17.3514C14.6819 14.2558 15.19 10.1022 14.0657 10.4242C12.7878 10.7889 10.7179 10.6213 11.576 10.4529C14.5208 9.8757 15.7885 8.22351 16.3245 6.23454C17.2238 2.90294 18.2988 2.19044 18.2782 2.30294C18.1252 3.08749 17.3179 4.47866 17.3282 6.39925C17.3326 6.98895 18.3944 9.96688 19.3135 9.65291C19.7892 9.49041 20.6208 8.78747 21.3098 7.96689C21.5811 6.90586 21.701 5.83675 21.6745 4.78602C20.5458 3.52205 19.1164 1.74853 18.7885 1.54706C18.3407 1.27206 14.7069 0.0301513 13.1532 4.39619e-06C12.9451 -0.00440735 9.87306 3.31323 8.62968 3.07058C8.00983 2.95146 5.68557 0.346327 5.29807 0.32868C5.08557 0.321327 0.908384 1.7522 0.623826 2.2375C-0.981315 4.98602 1.01794 3.64999 1.01794 3.64999C1.01794 3.64999 1.31794 5.84116 2.74147 8.26762C3.37896 9.35953 4.12087 10.1081 5.28337 10.6456C5.80322 10.8845 4.22675 10.7308 3.67896 10.5757C3.24588 10.4551 3.32823 12.8169 3.47602 14.1C3.61352 15.2882 3.29808 21.1602 3.11132 22.2124C4.53778 21.7698 5.68851 21.3977 5.94881 21.3007H5.94734Z" fill="url(#paint0_linear_3091_44494)" style="mix-blend-mode:multiply"/>
<defs>
<linearGradient id="paint0_linear_3091_44494" x1="10.8385" y1="4.39619e-06" x2="10.8385" y2="22.2124" gradientUnits="userSpaceOnUse">
<stop offset="0.1" stop-color="#577C9C" stop-opacity="0.5"/>
<stop offset="0.44" stop-color="#BDE0F4" stop-opacity="0.7"/>
<stop offset="0.49" stop-color="#A8CADC" stop-opacity="0.71"/>
<stop offset="0.67" stop-color="#607C8A" stop-opacity="0.76"/>
<stop offset="0.8" stop-color="#334C56" stop-opacity="0.79"/>
<stop offset="0.88" stop-color="#233A43" stop-opacity="0.8"/>
<stop offset="0.91" stop-color="#20393E" stop-opacity="0.8"/>
<stop offset="1" stop-color="#1D3838" stop-opacity="0.8"/>
</linearGradient>
</defs>
</svg>
