<svg width="5" height="2" viewBox="0 0 5 2" fill="none" xmlns="http://www.w3.org/2000/svg">
<path d="M4.71122 0.41045C4.57521 0.39845 4.19002 0.31815 4.18812 0.37565C4.18691 0.41615 4.78831 0.537551 4.69281 0.634951C4.56131 0.769051 4.51642 1.02895 4.51132 1.22945C4.50182 1.55445 4.62701 1.61705 4.58091 1.68985C4.55301 1.73345 4.34501 1.70815 3.97191 1.67715C3.57151 1.60695 3.13141 1.55005 2.69501 1.55005C2.18911 1.55005 1.59652 1.62085 1.12472 1.71705C0.657315 1.81315 0.260215 1.89785 0.224115 1.84285C0.178615 1.77265 0.302515 1.72655 0.293715 1.41405C0.288015 1.22125 0.298114 0.99925 0.167814 0.86895C0.0654145 0.76585 0.592214 0.58055 0.589714 0.52495C0.586514 0.46295 0.308915 0.521751 0.172915 0.533751C0.0970147 0.540751 -0.0142854 0.572351 0.00151464 0.507851C0.625715 0.203051 1.68881 0 2.69501 0C3.48741 0 4.26661 0.1113 4.91731 0.32005C4.91731 0.36235 4.77571 0.41615 4.71122 0.41045Z" fill="url(#paint0_linear_1591_39921)"/>
<defs>
<linearGradient id="paint0_linear_1591_39921" x1="-0.000385357" y1="0.93025" x2="4.91731" y2="0.93025" gradientUnits="userSpaceOnUse">
<stop offset="0.16" stop-color="#EEF2FB"/>
<stop offset="0.49" stop-color="#F5F8FD"/>
</linearGradient>
</defs>
</svg>
