<svg width="3" height="2" viewBox="0 0 3 2" fill="none" xmlns="http://www.w3.org/2000/svg">
<path d="M1.51897 1.52759C1.51897 1.52759 2.1301 1.47508 2.29838 1.45103C2.33381 1.44597 2.51475 1.40042 2.51475 1.37448C2.51475 1.35867 2.4635 1.34475 2.47109 1.32767C2.50968 1.24163 2.44389 1.12902 2.34014 0.970226C2.008 0.459686 1.59172 0.233203 0.804086 0.213591C0.804086 0.213591 1.05398 0.207265 1.13496 0.202204C1.28616 0.192082 1.50252 0.171836 1.50252 0.149061C1.50252 0.129449 1.38232 0.121225 1.28806 0.114266C1.37536 0.111736 1.6126 0.099717 1.63727 0.0763094C1.66195 0.0529017 1.60501 0.0117767 1.56199 0.00165445C1.51897 -0.00910044 1.49366 0.0351865 1.41269 0.0592269C1.3393 0.0820019 1.1609 0.101615 1.05524 0.104146C0.902145 0.108574 0.444114 0.123124 0.444114 0.123124C0.444114 0.123124 0.591519 0.147794 0.70919 0.147794C0.768658 0.147794 0.909737 0.154756 0.916696 0.166776C0.924288 0.180695 0.850268 0.183857 0.813575 0.185755C0.668068 0.195244 0.476379 0.199671 0.278362 0.207262C0.107549 0.213589 0 0.21802 0 0.21802C0.458031 0.305957 1.02867 0.449565 1.4032 0.722866C1.57654 0.849394 1.81378 1.02084 2.01369 1.16761C2.10796 1.23657 2.19906 1.29288 2.30344 1.32957C2.32306 1.33716 2.3395 1.35234 2.29522 1.36057C1.74672 1.46179 1.06916 1.50861 0.485868 1.55479C0.440951 1.55858 0.437155 1.56681 0.493459 1.56681C0.681986 1.56681 1.93651 1.5744 2.44515 1.5744C2.60015 1.57503 2.68429 1.56175 2.6767 1.54214C2.64887 1.47571 1.79037 1.52759 1.51897 1.52759ZM2.0118 0.970226C1.98269 1.01261 1.72394 0.821556 1.64423 0.760823C1.56199 0.698191 1.32285 0.511565 1.159 0.447036C1.09004 0.419832 1.02614 0.387568 1.06094 0.376813C1.15647 0.347079 1.48924 0.447666 1.64423 0.555848C1.75874 0.636193 1.92386 0.804475 1.96245 0.859514C1.98459 0.890514 2.02761 0.946186 2.0118 0.970226Z" fill="url(#paint0_linear_1587_26008)"/>
<defs>
<linearGradient id="paint0_linear_1587_26008" x1="2.06367" y1="1.26757" x2="0.637701" y2="0.61089" gradientUnits="userSpaceOnUse">
<stop stop-color="#BE0A46"/>
<stop offset="0.35" stop-color="#C60A4A"/>
<stop offset="0.9" stop-color="#DE0C57"/>
<stop offset="1" stop-color="#E30D5A"/>
</linearGradient>
</defs>
</svg>
