<svg width="5" height="5" viewBox="0 0 5 5" fill="none" xmlns="http://www.w3.org/2000/svg">
<path d="M3.1442 2.32222L3.15129 2.28881H4.48348V4.14132C3.83054 4.62216 3.17862 4.74769 2.55808 4.74769C1.14694 4.74769 0 3.84472 0 2.37384C0 0.902973 1.14694 0 2.55808 0C3.19786 0 3.89027 0.191325 4.36403 0.566889V1.61563L4.33771 1.62272C4.04718 1.12871 3.39526 0.791619 2.70892 0.791619C1.76646 0.791619 1.01433 1.38483 1.01433 2.37384C1.01433 3.36286 1.76545 3.95607 2.70892 3.95607C3.00552 3.95607 3.28896 3.89027 3.51977 3.79106V2.95389C3.51977 2.68968 3.36185 2.44673 3.1442 2.32121V2.32222Z" fill="white"/>
</svg>
