<svg width="28" height="6" viewBox="0 0 28 6" fill="none" xmlns="http://www.w3.org/2000/svg">
<path d="M0.0606626 0.129982C0.0249861 0.129982 -0.00439453 0.15884 -0.00439453 0.195041V5.20076C-0.00439453 5.23697 0.0244614 5.26582 0.0606626 5.26582H3.48823C3.5239 5.26582 3.55328 5.23697 3.55328 5.20076V4.17507C3.55328 4.13887 3.52443 4.11001 3.48823 4.11001H1.3702V0.194516C1.3702 0.15884 1.34134 0.12946 1.30514 0.12946H0.0606626M4.25212 0.129982C4.21645 0.129982 4.18707 0.15884 4.18707 0.195041V5.20076C4.18707 5.23697 4.21592 5.26582 4.25212 5.26582H7.83079C7.86647 5.26582 7.89585 5.23697 7.89585 5.20076V4.17507C7.89585 4.13887 7.86699 4.11001 7.83079 4.11001H5.56219V3.22649H7.35545C7.39113 3.22649 7.42051 3.19764 7.42051 3.16143V2.19607C7.42051 2.16039 7.39165 2.13101 7.35545 2.13101H5.56219V1.28527H7.72533C7.76101 1.28527 7.79039 1.25642 7.79039 1.22021V0.194516C7.79039 0.15884 7.76154 0.12946 7.72533 0.12946H4.25265M18.7116 3.27948C18.7116 4.66142 19.656 5.34137 20.9393 5.34137C22.2226 5.34137 23.1675 4.66142 23.1675 3.27948V0.195041C23.1675 0.159365 23.1386 0.129982 23.1024 0.129982H21.8574C21.8217 0.129982 21.7924 0.15884 21.7924 0.195041V3.26427C21.7924 3.85031 21.5164 4.18294 20.9256 4.17821C20.4571 4.17402 20.0857 3.77843 20.0857 3.30991V0.195041C20.0857 0.159365 20.0563 0.129982 20.0206 0.129982H18.7756C18.7399 0.129982 18.7105 0.15884 18.7105 0.195041V3.27948M24.0709 0.129982C24.0353 0.129982 24.0059 0.15884 24.0059 0.195041V5.20076C24.0059 5.23697 24.0347 5.26582 24.0709 5.26582H27.6496C27.6853 5.26582 27.7147 5.23697 27.7147 5.20076V4.17507C27.7147 4.13887 27.6858 4.11001 27.6496 4.11001H25.381V3.22649H27.1743C27.2099 3.22649 27.2393 3.19764 27.2393 3.16143V2.19607C27.2393 2.16039 27.2105 2.13101 27.1743 2.13101H25.381V1.28527H27.5441C27.5798 1.28527 27.6092 1.25642 27.6092 1.22021V0.194516C27.6092 0.15884 27.5803 0.12946 27.5441 0.12946H24.0715M16.8533 3.97465C16.634 4.0801 16.3548 4.17821 15.8564 4.17821C14.9503 4.17821 14.4818 3.50613 14.4818 2.69816C14.4818 1.8902 14.9425 1.26324 15.7809 1.26324C16.2646 1.26324 16.6145 1.45788 16.868 1.75851C16.8931 1.78789 16.9372 1.79104 16.9645 1.76323L17.7688 0.952117C17.7929 0.927983 17.7945 0.888633 17.7714 0.862925C17.3228 0.362405 16.6513 0.0701734 15.8108 0.0701734C14.3302 0.0701734 13.0768 1.14991 13.0768 2.69816C13.0768 4.24642 14.3302 5.33403 15.8412 5.33403C16.9818 5.33403 17.6009 5.01714 18.0768 4.62417V2.46889C18.0768 2.43321 18.0474 2.40383 18.0117 2.40383H15.8984C15.8627 2.40383 15.8333 2.43269 15.8333 2.46889V3.39648C15.8333 3.43216 15.8627 3.46154 15.8984 3.46154H16.8527V3.97517L16.8533 3.97465ZM11.6492 4.64673H9.85963L9.61934 5.22595C9.60937 5.25008 9.58576 5.26582 9.55953 5.26582H8.36122C8.31347 5.26582 8.28199 5.21598 8.30245 5.17296L10.7578 0.0397425C10.7804 -0.0132475 10.826 -0.0132475 10.8486 0.0397425L13.2966 5.17296C13.3171 5.21598 13.2861 5.26582 13.2379 5.26582H11.9635C11.9378 5.26582 11.9147 5.25061 11.9042 5.227L11.6492 4.64621V4.64673ZM10.2825 3.64989H11.2117L10.7431 2.56228L10.2825 3.64989Z" fill="white"/>
</svg>
