<svg width="3" height="1" viewBox="0 0 3 1" fill="none" xmlns="http://www.w3.org/2000/svg">
<path d="M2.7913 0.448542C2.76031 0.536479 2.66035 0.564314 2.64706 0.583926C2.43639 0.582028 1.5779 0.563682 1.35901 0.567478C1.05534 0.567478 0.347416 0.582028 0.158889 0.583926C0.145604 0.564314 0.0456466 0.536479 0.0146473 0.448542C-0.0119236 0.37136 -0.00433223 0.235341 0.0538707 0.161322C0.143706 0.0474472 0.44168 0.0139168 0.55682 0.000631327C0.652349 0.000631327 1.15846 0.00695811 1.35901 0.00695811C1.71392 0.00695811 2.11248 0.00126528 2.24976 0C2.36491 0.0132854 2.66225 0.0474472 2.75208 0.161322C2.81092 0.235341 2.81788 0.37136 2.7913 0.448542Z" fill="url(#paint0_radial_1587_25498)"/>
<defs>
<radialGradient id="paint0_radial_1587_25498" cx="0" cy="0" r="1" gradientUnits="userSpaceOnUse" gradientTransform="translate(-0.0119237 0.201413) scale(2.46666 1.06066)">
<stop stop-color="#C8D7F1"/>
<stop offset="0.86" stop-color="#DEE8F9"/>
<stop offset="1" stop-color="white"/>
</radialGradient>
</defs>
</svg>
