<svg width="3" height="4" viewBox="0 0 3 4" fill="none" xmlns="http://www.w3.org/2000/svg">
<path d="M1.96126 2.03197C1.93786 2.62518 2.00363 2.9357 1.92395 3.11847C1.74624 3.09317 1.53817 3.0742 1.25485 3.0742C0.809621 3.0742 0.590171 3.10898 0.43839 3.13744C0.307479 3.15072 0.267004 3.09381 0.261945 3.02045C0.249296 2.8421 0.270798 2.52589 0.274593 2.32858C0.285344 1.76572 0.232221 1.37994 0.15886 0.965076C0.0627316 0.418664 -0.0327638 0.216288 0.0108733 0.197948C0.428271 0.0240323 0.927252 0 1.24599 0C1.52046 0 1.83225 0.00252992 2.24901 0.120793C2.08205 0.939146 1.98719 1.39575 1.96189 2.0326L1.96126 2.03197Z" fill="url(#paint0_linear_1587_25565)"/>
<defs>
<linearGradient id="paint0_linear_1587_25565" x1="-0.000510303" y1="1.56967" x2="2.24838" y2="1.56967" gradientUnits="userSpaceOnUse">
<stop offset="0.16" stop-color="#E6EDF9"/>
<stop offset="0.49" stop-color="#F0F5FC"/>
</linearGradient>
</defs>
</svg>
