<svg width="16" height="8" viewBox="0 0 16 8" fill="none" xmlns="http://www.w3.org/2000/svg">
<path d="M3.2896 5.05991C3.15778 5.16702 3.00453 5.2192 2.86886 5.20327C2.69749 5.1835 2.59312 5.11319 2.4223 4.90282L1.4391 3.69387L0.909049 4.12505L1.98013 5.44276C2.20808 5.72179 2.46734 5.87119 2.77328 5.8992C2.80954 5.9025 2.84524 5.9047 2.88039 5.9047C3.177 5.90744 3.45219 5.80253 3.71913 5.58667C4.01629 5.34389 4.17943 5.06211 4.21788 4.72486C4.25303 4.41946 4.15965 4.13493 3.9328 3.85535L2.86227 2.5382L2.33222 2.96938L3.31487 4.17888C3.48624 4.38925 3.53348 4.5057 3.51755 4.67762C3.50547 4.81329 3.42308 4.9528 3.29015 5.06046L3.2896 5.05991ZM7.97985 5.32082C9.8397 5.32082 11.554 6.18318 12.5619 7.43717L12.914 7.0027C11.8045 5.67565 9.98525 4.77868 7.97985 4.77868C5.97445 4.77868 4.15581 5.67565 3.04573 7.0027L3.39781 7.43717C4.40573 6.18318 6.12001 5.32082 7.97985 5.32082ZM0.939258 3.15613C2.86831 1.49073 5.3686 0.573992 7.97985 0.573992C10.5911 0.573992 13.0914 1.49128 15.0205 3.15613C15.2209 3.32915 15.4126 3.50931 15.5961 3.69497L15.9597 3.24621C15.7795 3.0655 15.5911 2.89028 15.3956 2.72165C13.3622 0.966174 10.729 0 7.97985 0C5.23074 0 2.59752 0.966723 0.564105 2.72165C0.368563 2.89028 0.180711 3.0655 0 3.24621L0.36307 3.69497C0.546528 3.50931 0.738224 3.32915 0.938709 3.15613H0.939258ZM14.1938 3.64114C14.2262 3.54282 14.2493 3.39781 14.0845 3.27093L13.9801 3.19073C13.817 3.06495 13.6879 3.11878 13.594 3.1803L11.1492 4.76221L11.788 5.12363L13.3463 4.11571L13.0777 5.02147L12.8409 4.8435L12.4328 5.13626L12.9398 5.51526L12.8217 5.92227L13.3814 6.43475L14.1927 3.64224L14.1938 3.64114ZM6.91591 1.25125L5.19833 1.60004C5.11978 1.61596 5.05772 1.65551 5.01927 1.71374C4.98027 1.77251 4.96818 1.84446 4.98411 1.92301L5.32631 3.60983C5.38179 3.88392 5.50483 4.08166 5.69213 4.197C5.81571 4.27335 5.96402 4.31125 6.13484 4.31125C6.22163 4.31125 6.315 4.30136 6.41332 4.28104L7.48661 4.06298L7.35753 3.42637L6.31336 3.63839C6.09969 3.68179 6.02993 3.65817 5.9816 3.41813L5.94479 3.23687L7.15265 2.9919L7.02467 2.36243L5.81681 2.6074L5.72508 2.1559L7.04499 1.88786L6.91591 1.25125ZM10.2555 2.17183L11.2848 2.43878L11.4474 1.81096L10.389 1.53687C9.80894 1.38637 9.41181 1.60388 9.27065 2.14821L8.83837 3.81636C8.81805 3.89381 8.82629 3.96631 8.86199 4.02673C8.89769 4.08715 8.95701 4.12944 9.03446 4.14977L9.42719 4.25138L9.70567 3.17261L10.8971 3.4813L11.058 2.86062L9.86661 2.55193L9.91275 2.37341C9.97427 2.13668 10.0446 2.1169 10.2555 2.17183Z" fill="white"/>
</svg>
