<svg width="3" height="2" viewBox="0 0 3 2" fill="none" xmlns="http://www.w3.org/2000/svg">
<path d="M0.857254 0.00283678H0.0236288C0.00283546 0.00283678 0 0.0113425 0 0.0302456V0.113419C0 0.134213 0.00378061 0.140828 0.0236288 0.140828H0.355378V1.16443C0.355378 1.18806 0.365775 1.19373 0.387513 1.19373H0.484864C0.506602 1.19373 0.515109 1.189 0.515109 1.16443V0.140828H0.857254C0.878047 0.140828 0.880883 0.134213 0.880883 0.113419V0.0302456C0.880883 0.0113425 0.877102 0.00283678 0.857254 0.00283678ZM2.07178 0.000946075H2.02546C1.97821 0.000946075 1.95363 0.0132332 1.93189 0.0689972C1.91299 0.113419 1.72301 0.592611 1.6956 0.657827C1.6871 0.674839 1.60393 0.889389 1.59731 0.907347H1.59069C1.58219 0.888444 1.49901 0.669168 1.49051 0.650265L1.25611 0.0689972C1.23437 0.0132332 1.21169 0.000946075 1.16254 0.000946075H1.11623C1.05007 0.000946075 1.03305 0.0330807 1.03305 0.0860092V1.16443C1.03305 1.18806 1.04345 1.19373 1.06519 1.19373H1.15025C1.17388 1.19373 1.18239 1.189 1.18239 1.16443V0.294889H1.19278L1.27974 0.512274C1.30337 0.565202 1.45459 0.931921 1.47917 0.98485C1.49807 1.03778 1.51508 1.0529 1.56801 1.0529H1.62377C1.67481 1.0529 1.69182 1.03778 1.71073 0.98485C1.73435 0.933812 1.88463 0.563312 1.90637 0.510383C1.9111 0.497151 1.99144 0.289217 1.99805 0.27693H2.00656V1.16348C2.00656 1.18711 2.01696 1.19278 2.03869 1.19278H2.12376C2.14739 1.19278 2.15589 1.18806 2.15589 1.16348V0.0850646C2.15589 0.032136 2.14077 0 2.07272 0L2.07178 0.000946075Z" fill="#5EC4E7"/>
</svg>
