<svg width="3" height="4" viewBox="0 0 3 4" fill="none" xmlns="http://www.w3.org/2000/svg">
<path d="M0.071317 3.44424C0.0896572 3.27539 0.113689 2.94842 0.0909219 2.83269C0.0681547 2.71696 0.0491818 2.53292 0.0491818 2.53292C0.0491818 2.53292 0.0491821 2.52407 0.120646 2.56707C0.120646 2.56707 0.0675224 2.42857 0.0257825 2.34193C-0.0159573 2.25529 -0.0254438 1.9511 0.142148 1.94857C0.142148 1.94857 0.0757431 1.92011 0.0270467 1.88975C0.0624623 1.77465 -0.0115302 1.55963 0.071317 1.43251C0.137721 1.33006 0.192742 1.37875 0.206655 1.3231C0.179461 1.30286 0.152267 1.2801 0.152267 1.2801C0.152267 1.2801 0.132662 1.12326 0.222466 0.900011C0.252189 0.826651 0.452034 0.616686 0.478596 0.62807C0.484287 0.6306 0.507055 0.665383 0.520969 0.685621C0.520969 0.685621 0.562708 0.646411 0.564605 0.58886C0.566502 0.53131 0.586107 0.448463 0.705003 0.353599C0.823265 0.258736 1.01299 0.173991 1.01299 0.173991C0.999079 0.272649 1.01299 0.294784 1.01299 0.294784C1.01299 0.294784 1.05853 0.310595 1.08003 0.271384C1.10153 0.232174 1.0794 0.119603 1.27292 0.0778636C1.46644 0.0361237 1.57332 0.0778636 1.57332 0.0778636C1.57332 0.0778636 1.72383 -0.0119407 1.93633 0.00134014C2.14882 0.014621 2.5074 0.112014 2.61365 0.0854523C2.7199 0.0588906 2.89192 0.0348584 2.89192 0.0348584C2.89192 0.0348584 2.98615 0.444668 2.95959 0.684355C2.92417 1.00563 2.84196 1.15614 2.80527 1.20357C2.76859 1.251 2.74772 1.05369 2.72875 0.943016C2.68764 0.703328 2.4625 0.466802 2.23483 0.474391C2.02234 0.48198 1.83514 0.684355 1.4911 0.619848C1.46454 0.614789 1.45569 0.497159 1.42343 0.547752C1.39118 0.598346 1.34122 0.675502 1.20145 0.741906C1.06169 0.80831 1.01615 0.783013 0.975047 0.723565C0.933939 0.664118 0.961133 0.819693 0.924453 0.913292C0.887772 1.00689 0.815044 1.18081 0.76445 1.1827C0.713857 1.1846 0.663896 1.04547 0.663896 1.0891C0.663896 1.13274 0.689192 1.29021 0.672749 1.40911C0.656939 1.52801 0.684133 1.61022 0.640496 1.66524C0.640496 1.66524 0.585475 1.59188 0.532984 1.56026C0.480493 1.52864 0.588005 1.67915 0.601285 1.78414C0.615199 1.88912 0.665793 2.15031 0.596859 2.2281C0.596859 2.2281 0.492509 2.14968 0.436223 2.12248C0.379938 2.09529 0.575988 2.23252 0.580415 2.35079C0.584842 2.46905 0.518438 2.49941 0.541838 2.60439C0.564605 2.70937 0.532351 2.99269 0.571562 3.04961C0.571562 3.04961 0.224363 3.27918 0.0694198 3.44424H0.071317Z" fill="#DEE8F9"/>
</svg>
