<svg width="2" height="2" viewBox="0 0 2 2" fill="none" xmlns="http://www.w3.org/2000/svg">
<path d="M0.680685 1.2621C0.498485 1.2621 0.320084 1.1957 0.190384 1.0711C0.00758441 0.8952 -0.0494158 0.630101 0.0448842 0.397301C0.145484 0.148701 0.383984 0 0.682584 0C1.00458 0 1.36458 0.2619 1.36458 0.6124C1.36138 0.8806 1.21338 1.1021 0.968585 1.2045C0.876185 1.2431 0.778085 1.2621 0.680685 1.2621ZM0.682584 0.012701C0.389084 0.012701 0.154984 0.158201 0.0562844 0.401701C-0.0361156 0.630101 0.0201841 0.889502 0.199284 1.0616C0.395384 1.2495 0.702184 1.302 0.963484 1.1925C1.20388 1.0919 1.34878 0.874901 1.35188 0.611801C1.35188 0.268901 0.998284 0.012701 0.682584 0.012701Z" fill="#617EB3"/>
</svg>
