<svg width="1" height="2" viewBox="0 0 1 2" fill="none" xmlns="http://www.w3.org/2000/svg">
<path d="M0.771189 0.949579C0.727537 0.839499 0.41691 0.797745 0.336565 0.779398C0.338463 0.75093 0.351116 0.710441 0.297974 0.684502C0.340993 0.676911 0.556724 0.678178 0.571275 0.646546C0.581397 0.625668 0.551662 0.613015 0.55609 0.573159C0.573804 0.427019 0.552295 0.271388 0.540275 0.130942C0.536479 0.0872902 0.540275 -0.0461967 0.50801 0.0164346C0.420706 0.182186 0.441583 0.566199 0.409951 0.619974C0.372625 0.68387 0.00379584 0.602892 0 0.698421C0 0.712971 0.056938 0.728155 0.0765499 0.747766C0.117039 0.785092 0.0904675 0.817991 0.11261 0.820522C0.177772 0.827481 0.297974 0.839499 0.366931 0.858478C0.449807 0.881886 0.513703 0.92364 0.54407 0.951477C0.626313 1.02613 0.617458 1.23806 0.652253 1.25578C0.7307 1.29563 0.818637 1.06852 0.771189 0.949579ZM0.647824 1.00905C0.635171 1.01411 0.597845 0.959069 0.556724 0.924274C0.527622 0.900233 0.426399 0.848358 0.446644 0.848358C0.470051 0.848991 0.556091 0.859745 0.607967 0.899602C0.664905 0.943254 0.669334 1.00082 0.647824 1.00905Z" fill="url(#paint0_linear_1587_26011)"/>
<defs>
<linearGradient id="paint0_linear_1587_26011" x1="0" y1="0.630095" x2="0.784475" y2="0.630095" gradientUnits="userSpaceOnUse">
<stop stop-color="#E30D5A"/>
<stop offset="0.1" stop-color="#DE0C57"/>
<stop offset="0.65" stop-color="#C60A4A"/>
<stop offset="1" stop-color="#BE0A46"/>
</linearGradient>
</defs>
</svg>
