<svg width="5" height="2" viewBox="0 0 5 2" fill="none" xmlns="http://www.w3.org/2000/svg">
<path d="M4.43795 0.312416C4.30198 0.3004 4.00664 0.271941 4.00158 0.329491C3.99589 0.385777 4.54926 0.485067 4.45376 0.58246C4.32222 0.716533 4.27732 0.948632 4.27226 1.14911C4.26277 1.47417 4.38799 1.53742 4.34183 1.60951C4.30831 1.662 4.08506 1.64619 3.58292 1.61457C3.29327 1.57599 2.9935 1.55006 2.695 1.55006C2.18906 1.55006 1.59648 1.6209 1.1247 1.71702C0.657337 1.81315 0.260176 1.8979 0.224128 1.84288C0.178594 1.77268 0.302549 1.72651 0.293695 1.41409C0.288003 1.22121 0.298121 0.999225 0.167843 0.868946C0.0653904 0.765862 0.592198 0.580562 0.589669 0.524909C0.586507 0.462932 0.308873 0.521748 0.172902 0.533764C0.0970116 0.54072 -0.014294 0.572341 0.0015165 0.507834C0.625716 0.203007 1.68882 0 2.695 0C3.40141 0 4.09771 0.0879065 4.70294 0.254866C4.73013 0.265617 4.49993 0.318108 4.43795 0.312416Z" fill="url(#paint0_linear_1587_25626)"/>
<defs>
<linearGradient id="paint0_linear_1587_25626" x1="-0.000380774" y1="0.930292" x2="4.70483" y2="0.930292" gradientUnits="userSpaceOnUse">
<stop offset="0.16" stop-color="#CBD9F2"/>
<stop offset="0.49" stop-color="#E0E9F9"/>
</linearGradient>
</defs>
</svg>
