<svg width="26" height="26" viewBox="0 0 26 26" fill="none" xmlns="http://www.w3.org/2000/svg">
<path d="M25.6113 7.51795C25.6039 7.36207 25.5965 7.21501 25.5649 6.98707C25.1502 3.6959 23.2105 1.09444 20.7392 0.512827C20.323 0.415769 20.323 0.40768 19.9061 0.370916C16.6348 0.0797404 14.1091 2.64811 13.1966 3.61576C13.0466 3.77458 12.8959 3.9312 12.8459 3.96208C12.8238 3.97605 12.801 3.98267 12.7812 3.98193C12.7576 3.98193 12.7378 3.9709 12.7253 3.96134L12.6466 3.86723C10.5459 1.41797 8.29661 0.0437109 6.31206 0.00106402C5.39588 -0.0187889 4.52309 0.239298 3.71648 0.765032C2.14295 1.79223 -0.632038 5.16281 0.129724 10.5701C0.278253 11.4966 0.35987 11.8113 0.454722 12.1753C0.481928 12.2812 0.501781 12.3929 0.532664 12.5216C0.737075 13.2466 1.00913 13.9915 1.32604 14.7415C2.55471 17.6238 5.53191 20.4723 6.53779 21.1635C6.49 21.8848 6.44808 22.4223 6.44661 22.4451C6.25544 24.0569 6.02088 25.3554 5.94367 25.762C5.94073 25.7936 5.9422 25.8252 5.94662 25.8546C6.26647 25.7569 6.57823 25.6613 6.88117 25.5671C8.39808 25.0988 9.64146 24.6966 9.91351 24.5951C11.7753 23.9017 15.2378 22.6127 18.2767 20.5767C19.0819 20.0407 19.7502 19.4782 20.1672 19.0958C21.076 18.3326 21.8804 17.4826 22.5642 16.5981C23.3532 15.5716 24.0098 14.5642 24.5017 13.4643C24.698 13.0268 25.0605 12.1613 25.2738 11.2665C25.5576 10.1591 25.6804 9.04294 25.6399 7.94883C25.623 7.76354 25.6164 7.6378 25.6105 7.51868L25.6113 7.51795Z" fill="black"/>
</svg>
