<svg width="5" height="2" viewBox="0 0 5 2" fill="none" xmlns="http://www.w3.org/2000/svg">
<path d="M4.50751 0.33705C4.37161 0.32505 4.05411 0.28335 4.04902 0.34085C4.04462 0.39335 4.60941 0.49835 4.51391 0.59575C4.38231 0.72985 4.33741 0.968851 4.33241 1.16935C4.32291 1.49445 4.44811 1.55765 4.40191 1.62975C4.37031 1.67975 4.15022 1.66205 3.68032 1.63035C3.36292 1.58355 3.02832 1.55005 2.69502 1.55005C2.18912 1.55005 1.59652 1.62085 1.12472 1.71705C0.657415 1.81315 0.260215 1.89785 0.224115 1.84285C0.178615 1.77265 0.302615 1.72655 0.293715 1.41405C0.288015 1.22125 0.298115 0.99925 0.167915 0.86895C0.0654146 0.76585 0.592215 0.58055 0.589715 0.52495C0.586515 0.46295 0.308915 0.521751 0.172915 0.533751C0.0970147 0.540751 -0.0142854 0.572351 0.00151464 0.507851C0.625715 0.203051 1.68882 0 2.69502 0C3.42292 0 4.14011 0.0942299 4.75671 0.27135C4.77691 0.28965 4.56892 0.34275 4.50632 0.33705H4.50751Z" fill="url(#paint0_linear_1591_39939)"/>
<defs>
<linearGradient id="paint0_linear_1591_39939" x1="0.000914642" y1="0.93025" x2="4.75921" y2="0.93025" gradientUnits="userSpaceOnUse">
<stop offset="0.16" stop-color="#D4DFF4"/>
<stop offset="0.49" stop-color="#E5EDFA"/>
</linearGradient>
</defs>
</svg>
