<svg width="5" height="1" viewBox="0 0 5 1" fill="none" xmlns="http://www.w3.org/2000/svg">
<path d="M1.59648 0.0916996C1.96458 0.0360496 2.36928 0.00317 2.81388 0C2.83988 0 2.86578 0 2.89168 0C3.30778 0 3.68978 0.0271995 4.04078 0.0733595C4.06298 0.0765295 4.08448 0.0790601 4.10598 0.0822201C4.15968 0.0898101 4.21278 0.0973998 4.26468 0.10625C4.27988 0.10878 4.29508 0.11131 4.30958 0.11384C4.31018 0.11384 4.31088 0.11384 4.31148 0.11384C4.96978 0.29155 5.11588 0.437639 4.48728 0.392739C4.43228 0.381349 4.37658 0.37187 4.32098 0.36238C4.24698 0.34973 4.17238 0.338349 4.09708 0.328859C2.79488 0.153679 1.41118 0.266889 0.239983 0.662149C-0.0636171 0.764599 -0.0807174 0.70642 0.197583 0.54642C0.581483 0.32696 1.10378 0.18404 1.59648 0.0916996Z" fill="url(#paint0_linear_1591_39986)"/>
<defs>
<linearGradient id="paint0_linear_1591_39986" x1="0.000282722" y1="0.35669" x2="4.88948" y2="0.35669" gradientUnits="userSpaceOnUse">
<stop offset="0.16" stop-color="#CBD9F2"/>
<stop offset="0.49" stop-color="#E0E9F9"/>
</linearGradient>
</defs>
</svg>
