<svg width="5" height="2" viewBox="0 0 5 2" fill="none" xmlns="http://www.w3.org/2000/svg">
<path d="M4.81361 0.447755C4.67764 0.435106 4.25834 0.335816 4.25771 0.393366C4.25771 0.428149 4.87749 0.557796 4.78199 0.655189C4.65045 0.789262 4.60554 1.05931 4.60048 1.25978C4.591 1.58485 4.71622 1.64746 4.67005 1.72019C4.64475 1.76066 4.44175 1.7322 4.11731 1.70121C3.67525 1.619 3.1826 1.55007 2.695 1.55007C2.2074 1.55007 1.59648 1.6209 1.1247 1.71702C0.657337 1.81315 0.260176 1.8979 0.224128 1.84288C0.178594 1.77268 0.302549 1.72651 0.293695 1.41409C0.288003 1.22121 0.298121 0.999226 0.167843 0.868947C0.0653904 0.765863 0.592198 0.580563 0.589669 0.52491C0.586506 0.462933 0.308873 0.521748 0.172902 0.533764C0.0970116 0.54072 -0.014294 0.572341 0.0015165 0.507834C0.625716 0.203007 1.68882 0 2.695 0C3.51968 0 4.32981 0.119528 4.99828 0.34467C4.98816 0.399059 4.88001 0.453446 4.81361 0.447755Z" fill="url(#paint0_linear_3091_43949)"/>
<defs>
<linearGradient id="paint0_linear_3091_43949" x1="-0.000380774" y1="0.930924" x2="4.99765" y2="0.930924" gradientUnits="userSpaceOnUse">
<stop offset="0.16" stop-color="#FBFCFE"/>
<stop offset="0.49" stop-color="#FCFDFF"/>
</linearGradient>
</defs>
</svg>
