<svg width="7" height="1" viewBox="0 0 7 1" fill="none" xmlns="http://www.w3.org/2000/svg">
<path d="M6.30993 0.142533C6.29163 0.176633 6.00263 0.188733 5.65543 0.201333C4.79213 0.231733 3.77333 0.241231 3.06063 0.241231C2.34783 0.241231 1.44793 0.229133 0.655531 0.201333C0.308331 0.188733 0.0192308 0.176633 0.000930804 0.142533C-0.0060692 0.129233 0.0249313 0.0419324 0.144531 0.0255324C0.360131 -0.00416762 1.39923 0.000229494 1.82543 0.000229494C1.87983 0.000229494 2.74813 0.0135313 3.06063 0.0135313C3.41723 0.0135313 4.41393 0.000229494 4.48603 0.000229494C4.91173 0.000229494 5.95073 -0.00416762 6.16703 0.0255324C6.28653 0.0413324 6.31753 0.129233 6.30993 0.142533Z" fill="url(#paint0_radial_1591_39819)"/>
<defs>
<radialGradient id="paint0_radial_1591_39819" cx="0" cy="0" r="1" gradientUnits="userSpaceOnUse" gradientTransform="translate(-0.155269 1.38653) scale(6.24643 6.24644)">
<stop stop-color="#C8D7F1"/>
<stop offset="0.93" stop-color="#DEE8F9"/>
<stop offset="0.98" stop-color="white"/>
</radialGradient>
</defs>
</svg>
