<svg width="5" height="2" viewBox="0 0 5 2" fill="none" xmlns="http://www.w3.org/2000/svg">
<path d="M4.56321 0.35795C4.42721 0.34595 4.09071 0.29345 4.08701 0.35095C4.08381 0.40035 4.65871 0.50975 4.56321 0.60715C4.43161 0.74115 4.38671 0.98595 4.38171 1.18645C4.37221 1.51145 4.49741 1.57405 4.45121 1.64685C4.42091 1.69485 4.20401 1.67525 3.76131 1.64365C3.42101 1.59055 3.05671 1.55005 2.69501 1.55005C2.18911 1.55005 1.59652 1.62085 1.12472 1.71705C0.657315 1.81315 0.260215 1.89785 0.224115 1.84285C0.178615 1.77265 0.302515 1.72655 0.293715 1.41405C0.288015 1.22125 0.298114 0.99925 0.167814 0.86895C0.0654145 0.76585 0.592214 0.58055 0.589714 0.52495C0.586514 0.46295 0.308915 0.521751 0.172915 0.533751C0.0970147 0.540751 -0.0142854 0.572351 0.00151464 0.507851C0.625715 0.203051 1.68881 0 2.69501 0C3.44131 0 4.17491 0.0986507 4.80161 0.284551C4.81611 0.309851 4.62581 0.36365 4.56321 0.35795Z" fill="url(#paint0_linear_1591_39934)"/>
<defs>
<linearGradient id="paint0_linear_1591_39934" x1="-0.000385357" y1="0.93095" x2="4.80221" y2="0.93095" gradientUnits="userSpaceOnUse">
<stop offset="0.16" stop-color="#DBE5F6"/>
<stop offset="0.49" stop-color="#E9F0FB"/>
</linearGradient>
</defs>
</svg>
