<svg width="6" height="2" viewBox="0 0 6 2" fill="none" xmlns="http://www.w3.org/2000/svg">
<path d="M3.98766 1.3034C3.98766 1.3034 4.25016 1.211 4.23626 1.182C4.20526 1.1149 4.00736 1.0662 3.97886 1.0359C3.95036 1.0055 4.04146 0.948 4.17106 0.943501C4.33046 0.937201 5.64216 0.918199 5.87046 0.937199C6.04246 0.951799 5.79956 0.9922 5.64146 1.0005C5.49346 1.0087 4.63466 1.0264 4.63466 1.0264C4.63466 1.0264 4.73396 1.0201 4.67136 1.0839C4.59486 1.1624 4.24446 1.2711 3.98646 1.3028M1.78246 1.1807C1.81086 1.1124 1.97536 1.0681 2.00376 1.0378C2.03226 1.0074 2.01016 0.948 1.87986 0.943501C1.72046 0.937201 0.28806 0.918899 0.0590599 0.937199C-0.11294 0.951799 0.12996 0.9922 0.28806 1.0005C0.43606 1.0087 1.15766 1.0308 1.29486 1.0264C1.23796 1.0333 1.21766 1.039 1.25816 1.0839C1.33086 1.1661 1.72936 1.2825 2.00826 1.3028C2.00826 1.3028 1.75966 1.2344 1.78246 1.1807ZM3.95166 0C3.95166 0 4.05036 0.0125993 4.05156 0.0359993C4.05406 0.0726993 3.84416 0.235898 3.73476 0.242798V0.287098C3.73476 0.287098 3.80996 0.293999 3.86626 0.307999C3.92256 0.321899 3.91376 0.338899 3.90736 0.373699C3.90106 0.408499 4.02436 0.428101 4.16986 0.428101C4.24576 0.428101 4.71436 0.415501 4.71436 0.415501C4.71436 0.415501 4.55246 0.4053 4.52336 0.3769C4.50696 0.3611 4.52716 0.337699 4.51266 0.323799C4.48736 0.299699 4.38926 0.2909 4.38616 0.2631C4.38356 0.2371 4.48416 0.201099 4.51136 0.163799C4.54166 0.121399 4.43986 0.0776985 4.22166 0.0346985C4.12246 0.0150985 3.95166 0 3.95166 0ZM1.73566 0.0346985C1.51746 0.0776985 1.41506 0.121399 1.44596 0.163799C1.47316 0.201099 1.57376 0.2378 1.57126 0.2631C1.56806 0.2909 1.47006 0.299699 1.44476 0.323799C1.42956 0.338299 1.44976 0.3617 1.43396 0.3769C1.40486 0.4047 1.24296 0.415501 1.24296 0.415501C1.24296 0.415501 1.73506 0.428101 1.81096 0.428101C1.95636 0.428101 2.11136 0.408499 2.10496 0.373699C2.09866 0.338899 2.08976 0.321899 2.14606 0.307999C2.20236 0.293999 2.27766 0.287098 2.27766 0.287098V0.242798C2.16826 0.235898 1.95826 0.0726993 1.96076 0.0359993C1.96206 0.0125993 2.05886 0.000598907 2.05886 0.000598907C2.05886 0.000598907 1.83496 0.0150985 1.73566 0.0346985Z" fill="#8FA4BC"/>
</svg>
