<svg width="3" height="4" viewBox="0 0 3 4" fill="none" xmlns="http://www.w3.org/2000/svg">
<path d="M1.88216 2.0756C1.87266 2.591 1.92896 2.9376 1.85186 3.1096C1.67666 3.0875 1.50336 3.0742 1.25486 3.0742C0.809564 3.0742 0.590164 3.109 0.438364 3.1374C0.307464 3.1507 0.266964 3.0938 0.261964 3.0204C0.249264 2.8421 0.270764 2.5259 0.274564 2.3286C0.285364 1.7657 0.232164 1.3799 0.158864 0.965099C0.0626642 0.418699 -0.0327356 0.2163 0.0108644 0.1979C0.428264 0.0239998 0.927264 0 1.24596 0C1.49446 0 1.77406 0.00189988 2.13386 0.0897999C1.98336 1.0106 1.89546 1.3496 1.88216 2.0756Z" fill="url(#paint0_linear_1591_39901)"/>
<defs>
<linearGradient id="paint0_linear_1591_39901" x1="6.44013e-05" y1="1.5697" x2="2.13456" y2="1.5697" gradientUnits="userSpaceOnUse">
<stop offset="0.16" stop-color="#D1DDF3"/>
<stop offset="0.49" stop-color="#E3ECFA"/>
</linearGradient>
</defs>
</svg>
