<svg width="3" height="3" viewBox="0 0 3 3" fill="none" xmlns="http://www.w3.org/2000/svg">
<path d="M1.15243 0C0.860786 0.00189792 0.577996 0.106284 0.35594 0.294811C0.0345586 0.568111 -0.0837453 1.02361 0.0611292 1.4285C0.217391 1.86376 0.627975 2.13073 1.15876 2.14212H1.1809C1.80026 2.13832 2.29435 1.69358 2.307 1.12673C2.31333 0.824963 2.20958 0.556092 2.00523 0.349219C1.78824 0.12906 1.47761 0.00189792 1.1518 0H1.15243ZM2.22792 1.1242C2.21653 1.65246 1.74269 2.06177 1.17837 2.05798C1.16762 2.05798 1.15749 2.05798 1.14674 2.05798C0.0484766 2.03457 -0.210273 0.882533 0.403388 0.358075C0.626077 0.16765 0.894317 0.0816117 1.15496 0.0841422C1.71295 0.0822443 2.24184 0.483971 2.22792 1.1242Z" fill="#9DB4DB"/>
</svg>
