<svg width="5" height="1" viewBox="0 0 5 1" fill="none" xmlns="http://www.w3.org/2000/svg">
<path d="M1.59648 0.0917009C1.96455 0.0360478 2.3693 0.00316211 2.8139 0C2.83983 0 2.86576 0 2.89168 0C3.30782 0 3.6898 0.0271943 4.04079 0.0733611C4.06293 0.0765232 4.08443 0.0790529 4.10593 0.082215C4.15969 0.089804 4.21281 0.0973924 4.26467 0.106246C4.27985 0.108776 4.29503 0.111306 4.30957 0.113836C4.31021 0.113836 4.31084 0.113836 4.31147 0.113836C4.96982 0.291546 5.11591 0.437635 4.48728 0.392733C4.43226 0.38135 4.37661 0.371863 4.32096 0.362377C4.24696 0.349729 4.17234 0.338345 4.09708 0.328859C2.79492 0.153678 1.41119 0.266882 0.239941 0.662145C-0.0636216 0.764598 -0.0806968 0.706415 0.197569 0.546412C0.581448 0.326962 1.1032 0.184034 1.59585 0.0917009H1.59648Z" fill="url(#paint0_linear_1587_25669)"/>
<defs>
<linearGradient id="paint0_linear_1587_25669" x1="0.000253079" y1="0.356686" x2="4.8895" y2="0.356686" gradientUnits="userSpaceOnUse">
<stop offset="0.16" stop-color="#CBD9F2"/>
<stop offset="0.49" stop-color="#E0E9F9"/>
</linearGradient>
</defs>
</svg>
