<svg width="5" height="2" viewBox="0 0 5 2" fill="none" xmlns="http://www.w3.org/2000/svg">
<path d="M4.57456 0.361745C4.43859 0.349097 4.09834 0.295341 4.09455 0.352891C4.09139 0.401588 4.66815 0.511628 4.57266 0.609021C4.44111 0.743095 4.39621 0.989107 4.39115 1.18958C4.38167 1.51465 4.50689 1.57726 4.46072 1.64999C4.43036 1.69805 4.21408 1.67781 3.77707 1.64619C3.4324 1.5918 3.0618 1.55006 2.695 1.55006C2.18906 1.55006 1.59648 1.6209 1.1247 1.71702C0.657337 1.81315 0.260176 1.8979 0.224128 1.84288C0.178594 1.77268 0.302549 1.72651 0.293695 1.41409C0.288003 1.22121 0.298121 0.999225 0.167843 0.868946C0.0653904 0.765862 0.592198 0.580562 0.589669 0.524909C0.586507 0.462932 0.308873 0.521748 0.172902 0.533764C0.0970116 0.54072 -0.014294 0.572341 0.0015165 0.507834C0.625716 0.203007 1.68882 0 2.695 0C3.44442 0 4.18182 0.0999218 4.81045 0.287751C4.82373 0.314313 4.63843 0.367437 4.57519 0.361745H4.57456Z" fill="url(#paint0_linear_3091_43970)"/>
<defs>
<linearGradient id="paint0_linear_3091_43970" x1="-0.000380774" y1="0.930292" x2="4.81108" y2="0.930292" gradientUnits="userSpaceOnUse">
<stop offset="0.16" stop-color="#DCE6F6"/>
<stop offset="0.49" stop-color="#EAF0FB"/>
</linearGradient>
</defs>
</svg>
