<svg width="11" height="24" viewBox="0 0 11 24" fill="none" xmlns="http://www.w3.org/2000/svg">
<path d="M1.70705 21.1814L0.97266 23.1871H9.08L8.3473 21.1814H1.70705ZM3.7206 14.5652C3.3576 12.2955 2.62545 9.64043 2.62545 9.64043C3.58748 15.5239 2.00293 20.2088 2.00293 20.2088H8.0503C5.2453 9.90666 7.3847 0.614692 7.4669 0.220372C7.001 0.115779 6.0407 0.012305 5.4114 0.00335592C5.346 8.78411 6.9372 14.5652 6.9372 14.5652H6.2901C4.8817 8.84228 4.7414 1.63992 4.7855 0C3.64397 0.00838979 2.73787 0.192406 2.73787 0.192406L5.6447 14.5652H5.002C5.002 14.5652 2.2686 1.0532 2.12038 0.32049C1.03475 0.578336 0.34119 0.907216 0 1.07557C3.0964 6.71743 4.3616 14.5658 4.3616 14.5658L3.7206 14.5652ZM7.1895 11.6501C7.642 6.28395 9.877 1.48555 10.0532 1.07557C9.2265 0.651607 8.3221 0.420608 8.0106 0.339507C6.8483 5.71289 7.1543 10.8021 7.1895 11.6501Z" fill="white"/>
</svg>
