<svg width="6" height="2" viewBox="0 0 6 2" fill="none" xmlns="http://www.w3.org/2000/svg">
<path d="M5.38341 0.597051C5.24741 0.584951 5.00081 0.52555 4.99511 0.58055C4.98941 0.63625 5.47891 0.82975 5.38341 0.92335C5.25191 1.05235 5.23861 1.27875 5.23351 1.47165C5.22401 1.78405 5.36251 1.83145 5.31641 1.90105C5.28031 1.95605 4.87871 1.85235 4.41141 1.75685C3.89791 1.65185 3.29201 1.55005 2.69501 1.55005C2.18911 1.55005 1.59652 1.62085 1.12472 1.71705C0.657315 1.81315 0.260215 1.89785 0.224115 1.84285C0.178615 1.77265 0.303215 1.72655 0.293715 1.41405C0.288615 1.22125 0.298114 0.99925 0.167814 0.86895C0.0654145 0.76585 0.592214 0.58055 0.589714 0.52495C0.586514 0.46295 0.308915 0.522351 0.172915 0.533751C0.0970147 0.540751 -0.0142854 0.572351 0.00151464 0.507851C0.625715 0.203051 1.68881 0 2.69501 0C3.76441 0 4.80921 0.20115 5.55481 0.57045C5.57121 0.63555 5.45991 0.603351 5.38341 0.597051Z" fill="white"/>
</svg>
