<svg width="4" height="5" viewBox="0 0 4 5" fill="none" xmlns="http://www.w3.org/2000/svg">
<path d="M1.56907 4.74769C0.777446 4.74769 0.243964 4.42476 0 4.22028V2.94782L0.0263208 2.94073C0.236879 3.5471 0.929291 3.94291 1.56198 3.94291C1.96386 3.94291 2.34651 3.79106 2.34651 3.36286C2.34651 2.99337 1.99727 2.84861 1.43645 2.73625C0.507163 2.55201 0.0121471 2.20175 0.0121471 1.41722C0.0121471 0.527408 0.736955 0 1.77254 0C2.37283 0 2.83444 0.197396 3.17052 0.487926V1.60247L3.13712 1.60956C2.72207 1.00319 2.23415 0.817937 1.7857 0.817937C1.33725 0.817937 1.02141 0.996102 1.02141 1.31194C1.02141 1.67434 1.46277 1.80594 2.07623 1.93147C2.86076 2.08939 3.32237 2.50544 3.32237 3.25657C3.32237 4.13322 2.59756 4.74667 1.56907 4.74667V4.74769Z" fill="white"/>
</svg>
