<svg width="3" height="4" viewBox="0 0 3 4" fill="none" xmlns="http://www.w3.org/2000/svg">
<path d="M1.87716 2.0788C1.86826 2.5891 1.92456 2.9382 1.84676 3.109C1.67226 3.0868 1.50086 3.0742 1.25486 3.0742C0.809564 3.0742 0.590164 3.109 0.438364 3.1374C0.307464 3.1507 0.266964 3.0938 0.261964 3.0204C0.249264 2.8421 0.270764 2.5259 0.274564 2.3286C0.285364 1.7657 0.232164 1.3799 0.158864 0.965099C0.0626642 0.418699 -0.0327356 0.2163 0.0108644 0.1979C0.428264 0.0239998 0.927264 0 1.24596 0C1.49326 0 1.77026 0.00189935 2.12626 0.0872993C1.97706 1.0144 1.88986 1.3471 1.87716 2.0788Z" fill="url(#paint0_linear_1591_39902)"/>
<defs>
<linearGradient id="paint0_linear_1591_39902" x1="6.44013e-05" y1="1.5697" x2="2.12696" y2="1.5697" gradientUnits="userSpaceOnUse">
<stop offset="0.16" stop-color="#CFDCF3"/>
<stop offset="0.49" stop-color="#E2EBFA"/>
</linearGradient>
</defs>
</svg>
