<svg width="3" height="1" viewBox="0 0 3 1" fill="none" xmlns="http://www.w3.org/2000/svg">
<path d="M0.00143131 0.1215C-0.0144687 0.119 0.103831 0.0930003 0.270231 0.0620003C0.276631 0.0608003 0.283531 0.0600999 0.290531 0.0588999C0.528331 0.0252999 0.818132 0 1.19963 0C1.42803 0 1.63803 0.0101999 1.82843 0.0265999C1.90123 0.0328999 2.05493 0.0525004 2.17953 0.0747004C2.12963 0.2442 2.29593 0.4865 2.06253 0.9072C2.05813 0.9066 2.05243 0.9053 2.04483 0.9041C1.96513 0.8889 1.65573 0.832 1.32233 0.8231C1.30143 0.8231 1.27933 0.8225 1.25783 0.8218C1.23633 0.8212 1.21353 0.8218 1.19073 0.8218C0.701131 0.8218 0.426532 0.8851 0.222232 0.9269C0.200032 0.9294 0.201332 0.9098 0.208232 0.9009C0.224732 0.88 0.241832 0.8686 0.241832 0.8686C0.241832 0.8686 0.225331 0.8642 0.220331 0.8408C0.214631 0.8161 0.239931 0.7877 0.239931 0.7877C0.239931 0.7877 0.228532 0.7858 0.209532 0.7257C0.177932 0.6257 0.139931 0.3676 0.142431 0.2619C0.145031 0.1563 0.202532 0.1051 0.202532 0.1051C0.202532 0.1051 0.0235313 0.1259 0.00143131 0.1215Z" fill="url(#paint0_linear_1591_39784)"/>
<defs>
<linearGradient id="paint0_linear_1591_39784" x1="-0.000468697" y1="0.4631" x2="2.19093" y2="0.4631" gradientUnits="userSpaceOnUse">
<stop offset="0.16" stop-color="#F0F4F8"/>
<stop offset="0.49" stop-color="#F3F5F9"/>
</linearGradient>
</defs>
</svg>
