<svg width="7" height="16" viewBox="0 0 7 16" fill="none" xmlns="http://www.w3.org/2000/svg">
<path d="M5.31901 11.8177C4.78588 12.9851 4.75109 14.6395 4.72011 15.5509C4.51457 15.5509 4.15409 15.5483 3.79108 15.5439C3.47613 15.5401 2.77478 15.5496 2.71154 15.5471C2.61857 15.5433 2.60529 15.5218 2.5996 15.4737C2.58505 15.3536 2.66031 13.763 1.93998 12.1839C1.49033 11.1985 0.951507 10.5238 0.528417 9.15709C-0.126772 7.04164 -0.0325408 3.02071 0.0382904 2.3301C0.122402 1.50289 0.278611 0.399951 2.71343 0.0432655C3.10617 -0.0149173 3.99092 -0.0547601 4.7043 0.0261899C4.82572 0.0438977 4.93956 0.0641356 5.04454 0.0869027C6.95319 0.465723 6.74196 3.23636 6.74259 3.92697C6.74386 6.54076 6.37515 9.50619 5.31964 11.8183L5.31901 11.8177Z" fill="url(#paint0_linear_1587_25520)"/>
<defs>
<linearGradient id="paint0_linear_1587_25520" x1="-0.0116709" y1="7.76576" x2="6.74891" y2="7.76576" gradientUnits="userSpaceOnUse">
<stop offset="0.16" stop-color="#EBF0FA"/>
<stop offset="0.52" stop-color="#F3F7FD"/>
</linearGradient>
</defs>
</svg>
