<svg width="2" height="1" viewBox="0 0 2 1" fill="none" xmlns="http://www.w3.org/2000/svg">
<path d="M0.00141432 0.1215C-0.0143857 0.119 0.103914 0.0911003 0.270214 0.0620003C0.276614 0.0608003 0.282914 0.0600999 0.290514 0.0588999C0.528414 0.0252999 0.818114 0 1.19961 0C1.36911 0 1.52981 0.00379966 1.69621 0.0151997C1.77911 0.0208997 1.87721 0.0304004 1.97521 0.0431004C1.91641 0.1652 2.07521 0.6567 1.88031 0.8699C1.87531 0.8693 1.87081 0.8686 1.86451 0.868C1.85181 0.8655 1.70441 0.8282 1.29451 0.8225C1.27801 0.8225 1.26161 0.8225 1.24451 0.8225C1.22741 0.8225 1.20911 0.8225 1.19071 0.8225C0.701114 0.8225 0.426514 0.8857 0.222214 0.9275C0.200014 0.93 0.201314 0.9104 0.208214 0.9015C0.224714 0.8807 0.241814 0.8693 0.241814 0.8693C0.241814 0.8693 0.225314 0.8649 0.220314 0.8414C0.214614 0.8168 0.236714 0.7921 0.236714 0.7921C0.236114 0.7921 0.228514 0.7864 0.209514 0.7263C0.177914 0.6263 0.139914 0.3682 0.142514 0.2626C0.145014 0.1569 0.202614 0.1057 0.202614 0.1057C0.202614 0.1057 0.0235143 0.126 0.00141432 0.1215Z" fill="url(#paint0_linear_1591_39811)"/>
<defs>
<linearGradient id="paint0_linear_1591_39811" x1="-0.00048568" y1="0.4631" x2="1.98031" y2="0.4631" gradientUnits="userSpaceOnUse">
<stop offset="0.16" stop-color="#AEC0D9"/>
<stop offset="0.49" stop-color="#BBC8DE"/>
</linearGradient>
</defs>
</svg>
