<svg width="4" height="4" viewBox="0 0 4 4" fill="none" xmlns="http://www.w3.org/2000/svg">
<path d="M2.90128 3.4568C2.76468 3.3423 2.64828 3.2538 2.53638 3.1741C2.54708 3.0723 2.55028 3.0526 2.56918 2.9116C2.57678 2.8553 2.52938 2.6504 2.52428 2.6194C2.52878 2.6201 2.60278 2.5967 2.60278 2.5505C2.60278 2.4708 2.53948 2.3715 2.53888 2.3658C2.52748 2.19 2.49898 1.9699 2.49898 1.9699C2.46988 1.9276 2.45918 1.6171 2.46428 1.5873C2.34918 1.4185 2.09238 1.108 2.08858 1.0725C2.05318 0.7595 1.77738 0.813201 1.76348 0.802501C1.79138 0.766401 1.87038 0.677301 1.90458 0.644401C1.88498 0.614001 1.29998 0.621 1.28728 0.6216C1.30568 0.5919 1.29298 0.59 1.35178 0.5084C1.39858 0.4433 1.34608 0.4566 1.26768 0.5072C1.23358 0.5293 1.18738 0.573601 1.14058 0.568501C1.12858 0.567201 1.06718 0.4989 1.05208 0.4989C1.02358 0.4989 1.00208 0.5147 0.98688 0.5261C0.98438 0.528 0.98058 0.5306 0.97738 0.5331C0.95848 0.5223 0.93248 0.5116 0.89458 0.5116C0.81928 0.5116 0.71748 0.528 0.66628 0.5514C0.60558 0.5792 0.49428 0.698101 0.44558 0.701301C0.34308 0.707001 0.322179 0.7936 0.305779 0.8942C0.287479 1.003 0.28748 1.1851 0.25328 1.1826C0.22928 1.1807 -0.0174207 0.633001 0.000979258 0.337701C0.00917926 0.256101 0.0173797 0.216201 0.0293797 0.159301C0.0376797 0.151101 0.350679 0 0.700379 0C0.890779 0 1.09128 0.0177004 1.28038 0.0354004C1.37208 0.0442004 1.47698 0.150501 1.54468 0.184601C1.66488 0.244701 1.87798 0.258601 2.05188 0.325001C2.19988 0.381301 2.13858 0.473001 2.19038 0.498301C2.24988 0.527401 2.39278 0.5362 2.44778 0.59C2.50788 0.6482 2.75258 0.822101 2.75958 0.916301C2.70458 0.892901 2.61858 0.8853 2.46548 0.9208C2.46358 0.9429 2.52048 0.942301 2.59448 0.969501C2.77918 1.0371 2.78678 1.175 2.83418 1.2502C2.86018 1.2914 2.99038 1.4292 3.00558 1.562C2.82728 1.4419 2.58878 1.4412 2.58878 1.4412C2.58878 1.4412 2.63878 1.4729 2.62678 1.4861C2.80958 1.5475 2.95938 1.631 2.93858 1.834C2.92968 1.92 3.09668 2.0288 3.03598 2.178C2.98788 2.1224 2.89868 2.085 2.81648 2.0572C2.75258 2.0357 2.67738 2.0275 2.67228 2.0414C2.66408 2.0635 2.76968 2.1205 2.80318 2.1489C2.94868 2.271 2.98348 2.3399 2.97338 2.4158C2.95058 2.5897 2.99988 2.6637 2.91578 2.7832C2.88608 2.8262 2.92468 3.14 2.90128 3.4568Z" fill="#DEE8F9"/>
</svg>
