<svg width="1" height="3" viewBox="0 0 1 3" fill="none" xmlns="http://www.w3.org/2000/svg">
<path d="M0.885063 2.77729C0.885063 2.77729 0.878737 2.77792 0.876206 2.77792C0.859125 2.60268 0.824329 2.41605 0.774351 2.22247C0.725638 2.0371 0.458031 1.33614 0.365033 1.12926C0.331503 1.05461 0.29481 0.966041 0.256218 0.873043C0.211934 0.766126 0.166384 0.656048 0.122731 0.561785C0.0379576 0.376421 0 0.204343 0 0.116406C0 0.0917326 0.00126497 0.0556711 0.00759137 0.0303655C0.0132851 0.00885573 0.0208764 0.00252987 0.0259375 0.00126459C0.0278354 0.000631945 0.0297335 0 0.0309987 0C0.032264 0 0.0335292 -1.31284e-06 0.0347944 0.000631327C0.0335292 0.00126397 0.0328973 0.00126582 0.031632 0.0025311C0.0272035 0.00506166 0.0208768 0.0126516 0.0164483 0.0303655C0.00948925 0.0556711 0.00885692 0.0917326 0.00885692 0.116406C0.00885692 0.204343 0.0468149 0.376421 0.130956 0.561785C0.174608 0.656048 0.220158 0.766126 0.264443 0.873043C0.303034 0.966041 0.339727 1.05461 0.373257 1.12926C0.466255 1.33614 0.733862 2.0371 0.782576 2.22247C0.833187 2.41605 0.866716 2.60205 0.885063 2.77729Z" fill="url(#paint0_linear_3091_44197)"/>
<defs>
<linearGradient id="paint0_linear_3091_44197" x1="0" y1="1.38865" x2="0.885063" y2="1.38865" gradientUnits="userSpaceOnUse">
<stop stop-color="#6476A0"/>
<stop offset="0.19" stop-color="#7488B1"/>
<stop offset="0.46" stop-color="#869CC3"/>
<stop offset="0.73" stop-color="#91A8CE"/>
<stop offset="1" stop-color="#95ACD2"/>
</linearGradient>
</defs>
</svg>
