<svg width="6" height="1" viewBox="0 0 6 1" fill="none" xmlns="http://www.w3.org/2000/svg">
<path d="M1.59648 0.0917009C1.98289 0.0328857 2.41041 0 2.88093 0C2.90876 0 2.93595 0 2.96315 0C3.40521 0.00316211 3.80869 0.0360478 4.17487 0.0917009C4.19763 0.094863 4.2204 0.0986574 4.24254 0.102452C4.29945 0.111306 4.35511 0.120793 4.41013 0.131544C4.42594 0.134706 4.44175 0.137868 4.45693 0.140398C4.45756 0.140398 4.45819 0.140398 4.45882 0.140398C5.30943 0.371231 5.87102 0.689972 4.68397 0.432576C4.62642 0.419928 4.56886 0.407912 4.51131 0.396529C4.43795 0.382615 4.36459 0.369334 4.29123 0.357318C2.93406 0.136603 1.47 0.246644 0.239941 0.661512C-0.0636215 0.763965 -0.0806968 0.705783 0.197569 0.54578C0.581448 0.32633 1.1032 0.183402 1.59585 0.0910688L1.59648 0.0917009Z" fill="url(#paint0_linear_1587_25636)"/>
<defs>
<linearGradient id="paint0_linear_1587_25636" x1="0.000253079" y1="0.356686" x2="5.36382" y2="0.356686" gradientUnits="userSpaceOnUse">
<stop offset="0.16" stop-color="#FBFCFE"/>
<stop offset="0.49" stop-color="#FCFDFF"/>
</linearGradient>
</defs>
</svg>
