<svg width="5" height="2" viewBox="0 0 5 2" fill="none" xmlns="http://www.w3.org/2000/svg">
<path d="M4.8747 0.492024C4.5996 0.376291 4.40987 0.337081 4.28908 0.307357C4.07153 0.253601 3.86915 0.213759 3.84892 0.211862C3.87485 0.223878 3.89951 0.235893 3.92165 0.247909C4.01904 0.301032 4.07532 0.354157 4.07406 0.438269C4.07406 0.490127 4.07596 0.848077 4.07975 0.935351C4.08418 1.03844 4.10505 1.21172 4.05003 1.21994C3.51816 0.94041 2.95214 0.886022 2.4285 0.886022C1.90485 0.886022 1.24271 0.999858 0.824045 1.21994C0.772187 1.21109 0.790526 1.03844 0.794953 0.935351C0.798748 0.848077 0.800645 0.490127 0.800645 0.438269C0.79938 0.354157 0.855666 0.301032 0.953059 0.247909C0.975193 0.235893 0.999857 0.223878 1.02579 0.211862C1.00998 0.213759 0.661512 0.288384 0.585622 0.307357C0.503407 0.327594 0.142295 0.431944 0 0.492024C0.0942308 0.407912 0.695663 0.202375 0.741197 0.192889C1.25283 0.0885392 1.84414 0 2.43735 0C3.03056 0 3.63263 0.100555 4.14426 0.204905C4.19359 0.215024 4.77605 0.404117 4.8747 0.492024Z" fill="#8298B4"/>
</svg>
