<svg width="1" height="3" viewBox="0 0 1 3" fill="none" xmlns="http://www.w3.org/2000/svg">
<path d="M0.885 2.7773C0.885 2.7773 0.878701 2.7779 0.876201 2.7779C0.859101 2.6027 0.824301 2.4161 0.774301 2.2225C0.725601 2.0371 0.458001 1.3362 0.365001 1.1293C0.331501 1.0546 0.294801 0.9661 0.256201 0.8731C0.211901 0.7661 0.166301 0.6561 0.122701 0.5618C0.0379007 0.3764 0 0.2044 0 0.1164C0 0.0916998 0.00120065 0.0556993 0.00750065 0.0303993C0.0132006 0.00889932 0.0207999 0.0024989 0.0258999 0.0012989C0.0277999 0.000598904 0.0310001 0 0.0310001 0L0.0347004 0.000598907L0.0316 0.00250053C0.0272 0.00510053 0.0208003 0.0126993 0.0164003 0.0303993C0.00940034 0.0556993 0.00880051 0.0916998 0.00880051 0.1164C0.00880051 0.2044 0.0468004 0.3764 0.1309 0.5618C0.1746 0.6561 0.2201 0.7661 0.2644 0.8731C0.303 0.9661 0.3397 1.0546 0.3732 1.1293C0.4662 1.3362 0.7338 2.0371 0.7825 2.2225C0.8331 2.4161 0.8667 2.6021 0.885 2.7773Z" fill="url(#paint0_linear_1591_40106)"/>
<defs>
<linearGradient id="paint0_linear_1591_40106" x1="0" y1="1.3887" x2="0.885" y2="1.3887" gradientUnits="userSpaceOnUse">
<stop stop-color="#6476A0"/>
<stop offset="0.19" stop-color="#7488B1"/>
<stop offset="0.46" stop-color="#869CC3"/>
<stop offset="0.73" stop-color="#91A8CE"/>
<stop offset="1" stop-color="#95ACD2"/>
</linearGradient>
</defs>
</svg>
