<svg width="6" height="1" viewBox="0 0 6 1" fill="none" xmlns="http://www.w3.org/2000/svg">
<path d="M1.59648 0.0917009C1.97214 0.034783 2.38575 0.00189726 2.84046 0C2.86702 0 2.89358 0 2.92014 0C3.3464 0.00126484 3.7366 0.0309889 4.09392 0.0803178C4.11605 0.0834799 4.13819 0.0866416 4.16032 0.0898037C4.21534 0.0980252 4.2691 0.106247 4.32222 0.115733C4.3374 0.118263 4.35321 0.121424 4.36776 0.123954C4.36839 0.123954 4.36902 0.123954 4.36965 0.123954C5.10389 0.322534 5.41378 0.536926 4.56507 0.407912C4.50879 0.395896 4.4525 0.385777 4.39621 0.375658C4.32285 0.362378 4.24823 0.350361 4.1736 0.33961C2.84931 0.146721 1.43395 0.25866 0.239941 0.661512C-0.0636216 0.763965 -0.0806968 0.705783 0.197569 0.54578C0.581448 0.32633 1.1032 0.183402 1.59585 0.0910688L1.59648 0.0917009Z" fill="url(#paint0_linear_1587_25656)"/>
<defs>
<linearGradient id="paint0_linear_1587_25656" x1="0.000253079" y1="0.356686" x2="5.07543" y2="0.356686" gradientUnits="userSpaceOnUse">
<stop offset="0.16" stop-color="#DEE7F7"/>
<stop offset="0.49" stop-color="#EBF1FB"/>
</linearGradient>
</defs>
</svg>
