<svg width="5" height="2" viewBox="0 0 5 2" fill="none" xmlns="http://www.w3.org/2000/svg">
<path d="M4.62071 0.37815C4.48481 0.36555 4.13001 0.30295 4.12621 0.36045C4.12361 0.40665 4.70861 0.52045 4.61311 0.61785C4.48161 0.75195 4.43671 1.00235 4.43161 1.20285C4.42221 1.52795 4.54741 1.59055 4.50121 1.66325C4.47151 1.70945 4.25841 1.68795 3.84221 1.65635C3.47861 1.59685 3.08521 1.55005 2.69501 1.55005C2.18911 1.55005 1.59651 1.62085 1.12471 1.71705C0.657314 1.81315 0.260215 1.89785 0.224115 1.84285C0.178615 1.77265 0.302615 1.72655 0.293715 1.41405C0.288015 1.22125 0.298115 0.99925 0.167915 0.86895C0.0654146 0.76585 0.592214 0.58055 0.589714 0.52495C0.586514 0.46295 0.308915 0.521751 0.172915 0.533751C0.0970147 0.540751 -0.0142854 0.572351 0.00151464 0.507851C0.625715 0.203051 1.68881 0 2.69501 0C3.45901 0 4.21031 0.10371 4.84591 0.29845C4.85471 0.33015 4.68461 0.38385 4.62071 0.37815Z" fill="url(#paint0_linear_1591_39929)"/>
<defs>
<linearGradient id="paint0_linear_1591_39929" x1="0.000314643" y1="0.93095" x2="4.84711" y2="0.93095" gradientUnits="userSpaceOnUse">
<stop offset="0.16" stop-color="#E2EAF8"/>
<stop offset="0.49" stop-color="#EEF3FC"/>
</linearGradient>
</defs>
</svg>
