<svg width="5" height="2" viewBox="0 0 5 2" fill="none" xmlns="http://www.w3.org/2000/svg">
<path d="M4.58661 0.36555C4.45061 0.35285 4.10661 0.29665 4.10281 0.35415C4.09961 0.40225 4.67831 0.51355 4.58281 0.61095C4.45121 0.74495 4.40631 0.99225 4.40131 1.19275C4.39181 1.51785 4.51701 1.58045 4.47081 1.65315C4.44051 1.70055 4.22551 1.67975 3.79351 1.64875C3.44381 1.59305 3.06811 1.55005 2.69501 1.55005C2.18911 1.55005 1.59651 1.62085 1.12471 1.71705C0.657314 1.81315 0.260215 1.89785 0.224115 1.84285C0.178615 1.77265 0.302615 1.72655 0.293715 1.41405C0.288015 1.22125 0.298115 0.99925 0.167915 0.86895C0.0654146 0.76585 0.592214 0.58055 0.589714 0.52495C0.586514 0.46295 0.308915 0.521751 0.172915 0.533751C0.0970147 0.540751 -0.0142854 0.572351 0.00151464 0.507851C0.625715 0.203051 1.68881 0 2.69501 0C3.44821 0 4.18941 0.10055 4.81931 0.29025C4.83201 0.31815 4.65051 0.37125 4.58661 0.36555Z" fill="url(#paint0_linear_1591_39932)"/>
<defs>
<linearGradient id="paint0_linear_1591_39932" x1="0.000314643" y1="0.93025" x2="4.82061" y2="0.93025" gradientUnits="userSpaceOnUse">
<stop offset="0.16" stop-color="#DEE7F7"/>
<stop offset="0.49" stop-color="#EBF1FB"/>
</linearGradient>
</defs>
</svg>
