<svg width="7" height="16" viewBox="0 0 7 16" fill="none" xmlns="http://www.w3.org/2000/svg">
<path d="M5.32898 11.8228C4.79648 12.9883 4.75917 14.6396 4.72882 15.5509C4.52328 15.5509 4.15837 15.5483 3.79157 15.5439C3.47662 15.5401 2.77527 15.5496 2.71202 15.5471C2.61906 15.5433 2.60578 15.5218 2.60009 15.4737C2.58554 15.3536 2.6608 13.763 1.94047 12.1839C1.49082 11.1986 0.951995 10.5238 0.528905 9.1571C-0.126283 7.04165 -0.0320525 3.02071 0.0387787 2.33011C0.122891 1.5029 0.279099 0.399957 2.71392 0.0432716C3.10982 -0.0149112 4.00533 -0.0553862 4.72312 0.0274611C4.84961 0.0458013 4.96787 0.0673036 5.07728 0.0907032C7.00111 0.475215 6.77027 3.32491 6.76585 4.025C6.75003 6.7014 6.36173 9.56121 5.32962 11.8234L5.32898 11.8228Z" fill="url(#paint0_linear_1587_25519)"/>
<defs>
<linearGradient id="paint0_linear_1587_25519" x1="-0.011815" y1="7.76514" x2="6.77596" y2="7.76514" gradientUnits="userSpaceOnUse">
<stop offset="0.16" stop-color="#ECF1FA"/>
<stop offset="0.52" stop-color="#F4F7FD"/>
</linearGradient>
</defs>
</svg>
