<svg width="5" height="1" viewBox="0 0 5 1" fill="none" xmlns="http://www.w3.org/2000/svg">
<path d="M1.59519 0.0916996C1.96579 0.0354196 2.37439 0.00253 2.82269 0C2.84869 0 2.87519 0 2.90119 0C3.32169 0.00064 3.70619 0.0284596 4.05979 0.0758896C4.08189 0.0790596 4.10399 0.0815902 4.12549 0.0847502C4.17989 0.0923402 4.23299 0.100559 4.28549 0.109409C4.30069 0.111939 4.31589 0.11447 4.33109 0.117H4.33299C5.02039 0.30293 5.22969 0.474949 4.51639 0.397799C4.46069 0.386409 4.40509 0.37629 4.34939 0.36681C4.27539 0.35416 4.20139 0.34278 4.12619 0.33202C2.81579 0.14989 1.41939 0.26309 0.239894 0.66088C-0.0636065 0.76334 -0.0807067 0.70515 0.197593 0.54515C0.581393 0.3257 1.10319 0.18277 1.59579 0.0904398L1.59519 0.0916996Z" fill="url(#paint0_linear_1591_39981)"/>
<defs>
<linearGradient id="paint0_linear_1591_39981" x1="-0.0010066" y1="0.35669" x2="4.95969" y2="0.35669" gradientUnits="userSpaceOnUse">
<stop offset="0.16" stop-color="#D2DEF4"/>
<stop offset="0.49" stop-color="#E4ECFA"/>
</linearGradient>
</defs>
</svg>
