<svg width="17" height="8" viewBox="0 0 17 8" fill="none" xmlns="http://www.w3.org/2000/svg">
<path d="M3.3498 5.15245C3.2156 5.26152 3.0595 5.31465 2.9214 5.29843C2.7468 5.2783 2.6406 5.2067 2.4666 4.99248L1.4654 3.76142L0.9257 4.20049L2.0164 5.5423C2.2485 5.82643 2.5125 5.97856 2.824 6.00709C2.8609 6.01045 2.8973 6.01268 2.9331 6.01268C3.2351 6.01548 3.5154 5.90865 3.7872 5.68884C4.0898 5.44162 4.2559 5.15469 4.295 4.81126C4.3308 4.50028 4.2358 4.21056 4.0048 3.92586L2.9146 2.58461L2.3749 3.02368L3.3755 4.2553C3.55 4.46952 3.5981 4.5881 3.5819 4.76316C3.5696 4.90132 3.4851 5.04282 3.3498 5.15245ZM8.1258 5.41757C10.0197 5.41757 11.7653 6.2957 12.7917 7.57262L13.1502 7.1302C12.0204 5.77889 10.1679 4.86552 8.1258 4.86552C6.0837 4.86552 4.2318 5.77889 3.1015 7.1302L3.46 7.57262C4.4863 6.2957 6.232 5.41757 8.1258 5.41757ZM0.9565 3.21385C2.9208 1.51799 5.4668 0.584489 8.1258 0.584489C10.7848 0.584489 13.3308 1.51855 15.2952 3.21385C15.4993 3.39003 15.6945 3.57349 15.8813 3.76254L16.2516 3.30558C16.0682 3.12156 15.8763 2.94314 15.6772 2.77143C13.6066 0.983844 10.9252 0 8.1258 0C5.3264 0 2.6451 0.984403 0.5745 2.77143C0.3753 2.94314 0.184 3.12156 0 3.30558L0.369699 3.76254C0.556599 3.57349 0.7524 3.39003 0.9565 3.21385ZM14.4534 3.70773C14.4864 3.60761 14.5099 3.45995 14.3421 3.33075L14.2358 3.24909C14.0697 3.121 13.9383 3.17581 13.8426 3.23846L11.3531 4.8493L12.0036 5.21733L13.5904 4.19098L13.3169 5.1133L13.0758 4.93208L12.6602 5.23019L13.1765 5.61613L13.0562 6.03058L13.6262 6.55243L14.4523 3.70885L14.4534 3.70773ZM7.0424 1.27413L5.2934 1.6293C5.2134 1.64552 5.1502 1.68579 5.1111 1.74508C5.0714 1.80492 5.0591 1.87819 5.0753 1.95818L5.4237 3.67585C5.4802 3.95495 5.6055 4.1563 5.7963 4.27376C5.9221 4.3515 6.0731 4.3901 6.2471 4.3901C6.3354 4.3901 6.4305 4.38003 6.5306 4.35934L7.6236 4.13729L7.4921 3.48903L6.4288 3.70493C6.2113 3.74912 6.1402 3.72507 6.091 3.48064L6.0535 3.29607L7.2835 3.04661L7.1532 2.40563L5.9232 2.65509L5.8298 2.19533L7.1739 1.92238L7.0424 1.27413ZM10.4436 2.21099L11.4918 2.48282L11.6574 1.84352L10.5796 1.56442C9.9889 1.41116 9.5845 1.63265 9.4408 2.18694L9.0006 3.88559C8.9799 3.96446 8.9883 4.03829 9.0246 4.09981C9.061 4.16134 9.1214 4.2044 9.2003 4.2251L9.6002 4.32857L9.8838 3.23007L11.0969 3.54441L11.2608 2.91238L10.0476 2.59804L10.0946 2.41626C10.1573 2.17519 10.2289 2.15506 10.4436 2.21099Z" fill="white"/>
</svg>
