<svg width="3" height="4" viewBox="0 0 3 4" fill="none" xmlns="http://www.w3.org/2000/svg">
<path d="M2.4134 0.967C2.3401 1.3825 2.287 1.7676 2.2977 2.3305C2.3015 2.5278 2.3236 2.8446 2.3104 3.0223C2.3053 3.0957 2.2648 3.1627 2.1339 3.1495C1.9714 3.1197 1.6267 3.0742 1.2548 3.0742C0.8096 3.0742 0.5902 3.109 0.4384 3.1374C0.3075 3.1507 0.267 3.0938 0.2619 3.0204C0.2487 2.8421 0.2708 2.5259 0.2746 2.3286C0.2853 1.7657 0.232199 1.3799 0.1589 0.965099C0.0626995 0.418699 -0.0328003 0.2163 0.0108997 0.1979C0.4283 0.0239998 0.9273 0 1.246 0C1.5894 0 1.9904 0.00439984 2.576 0.2239C2.6209 0.2403 2.5096 0.4206 2.4134 0.967Z" fill="white"/>
</svg>
