<svg width="27" height="5" viewBox="0 0 27 5" fill="none" xmlns="http://www.w3.org/2000/svg">
<path d="M3.22316 3.47482L3.24948 3.48798V4.68148H0.375563V0.732501C0.375563 0.468291 0.217645 0.225339 0 0.0998139L0.00708607 0.0664062H1.35243V3.85747H2.58541C2.8557 3.85747 3.09258 3.69955 3.22519 3.47482H3.22316Z" fill="white"/>
<path d="M3.7048 0.0664062H7.06665V0.89042H5.04914V1.9584H6.63845V2.78241H5.04914V3.85747H6.46029C6.73057 3.85747 6.96745 3.69955 7.10006 3.47482L7.12638 3.48798V4.68148H4.07429V0.732501C4.07429 0.468291 3.91637 0.225339 3.69873 0.0998139L3.70582 0.0664062H3.7048Z" fill="white"/>
<path d="M12.6448 4.4253C12.7704 4.58322 12.9283 4.6561 12.9354 4.6561L12.9283 4.68242H11.8795C11.7145 4.68242 11.5698 4.58322 11.5171 4.44554L11.1942 3.62761H9.31537L8.99245 4.44554C8.93981 4.58423 8.79505 4.68242 8.63005 4.68242H7.5813L7.57422 4.6561C7.5813 4.6561 7.73922 4.58322 7.86475 4.4253C7.96395 4.30686 8.08847 4.05581 8.13503 3.94446L9.75066 0.0683594H10.7589L12.3745 3.94446C12.4211 4.05682 12.5456 4.30686 12.6448 4.4253ZM10.8713 2.80359L10.2578 1.25478H10.2507L9.63729 2.80359H10.8703H10.8713Z" fill="white"/>
<path d="M15.9386 2.32222L15.9457 2.28881H17.2779V4.14132C16.625 4.62216 15.9731 4.74769 15.3525 4.74769C13.9414 4.74769 12.7944 3.84472 12.7944 2.37384C12.7944 0.902973 13.9414 0 15.3525 0C15.9923 0 16.6847 0.191325 17.1585 0.566889V1.61563L17.1321 1.62272C16.8416 1.12871 16.1897 0.791619 15.5033 0.791619C14.5609 0.791619 13.8088 1.38483 13.8088 2.37384C13.8088 3.36286 14.5599 3.95607 15.5033 3.95607C15.8 3.95607 16.0834 3.89027 16.3142 3.79106V2.95389C16.3142 2.68968 16.1563 2.44673 15.9386 2.32121V2.32222Z" fill="white"/>
<path d="M20.0881 4.74829C19.0393 4.74829 18.1759 4.18748 18.1759 2.80974V0.733512C18.1759 0.469301 18.0179 0.226349 17.8003 0.100824L17.8074 0.0674164H19.1527V2.90186C19.1527 3.60034 19.5749 3.95667 20.1286 3.95667C20.6823 3.95667 21.1044 3.60034 21.1044 2.90186V0.732498C21.1044 0.468288 20.9465 0.225336 20.7289 0.0998108L20.736 0.0664062H21.9953V2.80873C21.9953 4.18647 21.1318 4.74728 20.0901 4.74728L20.0881 4.74829Z" fill="white"/>
<path d="M22.7414 0.0664062H26.1033V0.89042H24.0858V1.9584H25.6751V2.78241H24.0858V3.85747H25.4969C25.7672 3.85747 26.0041 3.69955 26.1367 3.47482L26.163 3.48798V4.68148H23.1109V0.732501C23.1109 0.468291 22.953 0.225339 22.7354 0.0998139L22.7424 0.0664062H22.7414Z" fill="white"/>
</svg>
