<svg width="3" height="4" viewBox="0 0 3 4" fill="none" xmlns="http://www.w3.org/2000/svg">
<path d="M1.92528 0.00209999L0.219582 0.348299C0.141582 0.364499 0.0798825 0.4029 0.0413825 0.4617C0.00298253 0.5194 -0.00921746 0.591199 0.00698254 0.669199L0.347083 2.3445C0.402783 2.6168 0.524283 2.8132 0.710582 2.9276C0.832982 3.0035 0.980783 3.041 1.14988 3.041C1.23588 3.041 1.32908 3.0309 1.42628 3.0106L2.49218 2.794L2.36358 2.1613L1.32598 2.3719C1.11348 2.4154 1.04458 2.3911 0.995983 2.1532L0.959583 1.973L2.15918 1.7291L2.03258 1.1035L0.832983 1.3474L0.741883 0.899L2.05288 0.6327L1.92428 0L1.92528 0.00209999Z" fill="white"/>
</svg>
