<svg width="5" height="4" viewBox="0 0 5 4" fill="none" xmlns="http://www.w3.org/2000/svg">
<path d="M3.44486 2.32019L2.72815 0.738978C2.68361 0.649895 2.5925 0.592193 2.49532 0.592193C2.39814 0.592193 2.30804 0.641797 2.26755 0.722781L1.55793 2.32019L0.605355 0H0L1.32814 3.06929C1.35952 3.14724 1.45771 3.20697 1.5559 3.20697C1.64195 3.20697 1.75027 3.16344 1.78367 3.0703L2.48925 1.43949L3.20697 3.07132C3.23936 3.1442 3.34261 3.20798 3.42866 3.20798C3.53192 3.20798 3.61796 3.15736 3.65643 3.07132L4.98457 0.0010102H4.3782L3.44384 2.3212L3.44486 2.32019Z" fill="white"/>
</svg>
