<svg width="2" height="3" viewBox="0 0 2 3" fill="none" xmlns="http://www.w3.org/2000/svg">
<path d="M1.0293 2.771C1.0293 2.771 1.0236 2.771 1.0211 2.771C0.9794 2.3307 0.8212 1.7423 0.5643 1.0698C0.5378 1.0015 0.5125 0.927499 0.4853 0.848999C0.403 0.611099 0.31 0.3423 0.174 0.1658C0.0765998 0.0399001 0.0290992 0.00820053 0.00569916 0.00250053C0.00319916 0.00190053 0.0019 0.0012989 0 0.0012989C0.0019 0.000598904 0.0037993 0 0.0050993 0C0.0063993 0 0.00759969 -1.09256e-06 0.00889969 0.000598907C0.0297997 0.00319891 0.0784995 0.0304001 0.182199 0.1651C0.318299 0.3416 0.4112 0.6111 0.4935 0.8484C0.5207 0.9268 0.545999 1.0015 0.572599 1.0698C0.829399 1.7417 0.9876 2.3307 1.0293 2.771Z" fill="url(#paint0_linear_1591_40124)"/>
<defs>
<linearGradient id="paint0_linear_1591_40124" x1="0" y1="1.3861" x2="1.0293" y2="1.3861" gradientUnits="userSpaceOnUse">
<stop stop-color="#E3E9F5"/>
<stop offset="0.07" stop-color="#DDE4F2"/>
<stop offset="0.4" stop-color="#C6D3EA"/>
<stop offset="0.72" stop-color="#B8C8E4"/>
<stop offset="1" stop-color="#B4C5E3"/>
</linearGradient>
</defs>
</svg>
