<svg width="5" height="2" viewBox="0 0 5 2" fill="none" xmlns="http://www.w3.org/2000/svg">
<path d="M4.47211 0.32445C4.33611 0.31245 4.03001 0.277651 4.02501 0.335151C4.01991 0.389551 4.57901 0.49205 4.48351 0.58945C4.35191 0.72345 4.30701 0.95875 4.30201 1.15925C4.29251 1.48425 4.41771 1.54755 4.37151 1.61965C4.33931 1.67085 4.11731 1.65375 3.63161 1.62275C3.32801 1.58045 3.01061 1.55005 2.69501 1.55005C2.18911 1.55005 1.59652 1.62085 1.12472 1.71705C0.657315 1.81315 0.260215 1.89785 0.224115 1.84285C0.178615 1.77265 0.302515 1.72655 0.293715 1.41405C0.288015 1.22125 0.298114 0.99925 0.167814 0.86895C0.0654145 0.76585 0.592214 0.58055 0.589714 0.52495C0.586514 0.46295 0.308915 0.521751 0.172915 0.533751C0.0970147 0.540751 -0.0142854 0.572351 0.00151464 0.507851C0.625715 0.203051 1.68881 0 2.69501 0C3.41221 0 4.11922 0.0910601 4.73011 0.26305C4.75351 0.27765 4.53411 0.329551 4.47211 0.32445Z" fill="url(#paint0_linear_1591_39942)"/>
<defs>
<linearGradient id="paint0_linear_1591_39942" x1="-0.000385357" y1="0.93025" x2="4.73142" y2="0.93025" gradientUnits="userSpaceOnUse">
<stop offset="0.16" stop-color="#CFDCF3"/>
<stop offset="0.49" stop-color="#E2EBFA"/>
</linearGradient>
</defs>
</svg>
