<svg width="6" height="2" viewBox="0 0 6 2" fill="none" xmlns="http://www.w3.org/2000/svg">
<path d="M4.83575 0.455976C4.69977 0.443328 4.27289 0.33961 4.27289 0.397161C4.27289 0.430679 4.89709 0.562223 4.8016 0.659616C4.67005 0.793689 4.62515 1.06626 4.62009 1.26674C4.6106 1.5918 4.73582 1.65441 4.68966 1.72714C4.66499 1.76635 4.46325 1.73726 4.14957 1.70627C3.69802 1.62153 3.19398 1.55007 2.695 1.55007C2.19602 1.55007 1.59648 1.6209 1.1247 1.71702C0.657337 1.81315 0.260177 1.8979 0.224129 1.84288C0.178595 1.77268 0.302549 1.72651 0.293695 1.41409C0.288003 1.22121 0.298122 0.999226 0.167844 0.868947C0.0653914 0.765863 0.592198 0.580563 0.589669 0.52491C0.586507 0.462933 0.308874 0.521748 0.172903 0.533764C0.0970125 0.54072 -0.0142941 0.572341 0.00151649 0.507834C0.625716 0.203007 1.68882 0 2.695 0C3.52663 0 4.34372 0.121425 5.01599 0.350362C5.00397 0.40728 4.90278 0.461668 4.83638 0.455976H4.83575Z" fill="url(#paint0_linear_1587_25591)"/>
<defs>
<linearGradient id="paint0_linear_1587_25591" x1="-0.00101319" y1="0.930924" x2="5.01472" y2="0.930924" gradientUnits="userSpaceOnUse">
<stop offset="0.16" stop-color="#FEFEFF"/>
<stop offset="0.49" stop-color="#FEFEFF"/>
</linearGradient>
</defs>
</svg>
