<svg width="6" height="1" viewBox="0 0 6 1" fill="none" xmlns="http://www.w3.org/2000/svg">
<path d="M1.59519 0.0916996C1.97909 0.0335196 2.40279 0.00064 2.86949 0C2.89669 0 2.92389 0 2.95109 0C3.38939 0.00317 3.78909 0.0347901 4.15339 0.0885401C4.17609 0.0917001 4.19829 0.0954995 4.22099 0.0986595C4.27729 0.10751 4.33299 0.117 4.38739 0.12712C4.40319 0.13028 4.41829 0.13281 4.43409 0.13597C4.43479 0.13597 4.43539 0.13597 4.43599 0.13597C5.25759 0.35859 5.75589 0.6514 4.65359 0.42626C4.59669 0.41361 4.53909 0.40222 4.48219 0.39147C4.40889 0.37756 4.33549 0.36491 4.26149 0.35353C2.91249 0.13977 1.46049 0.250439 0.239894 0.662149C-0.0636065 0.764599 -0.0807067 0.70642 0.197593 0.54642C0.581393 0.32696 1.10259 0.18404 1.59519 0.0916996Z" fill="url(#paint0_linear_1591_39958)"/>
<defs>
<linearGradient id="paint0_linear_1591_39958" x1="-0.0010066" y1="0.35669" x2="5.29039" y2="0.35669" gradientUnits="userSpaceOnUse">
<stop offset="0.16" stop-color="#F3F7FC"/>
<stop offset="0.49" stop-color="#F8FAFE"/>
</linearGradient>
</defs>
</svg>
