<svg width="5" height="2" viewBox="0 0 5 2" fill="none" xmlns="http://www.w3.org/2000/svg">
<path d="M4.43791 0.31245C4.30201 0.30035 4.00661 0.271951 4.00161 0.329451C3.99591 0.385751 4.54931 0.48505 4.45381 0.58245C4.32221 0.71655 4.27732 0.94865 4.27232 1.14915C4.26281 1.47415 4.38801 1.53745 4.34181 1.60955C4.30831 1.66205 4.08511 1.64615 3.58291 1.61455C3.29331 1.57595 2.99351 1.55005 2.69501 1.55005C2.18911 1.55005 1.59652 1.62085 1.12472 1.71705C0.657315 1.81315 0.260215 1.89785 0.224115 1.84285C0.178615 1.77265 0.302515 1.72655 0.293715 1.41405C0.288015 1.22125 0.298114 0.99925 0.167814 0.86895C0.0654145 0.76585 0.592214 0.58055 0.589714 0.52495C0.586514 0.46295 0.308915 0.521751 0.172915 0.533751C0.0970147 0.540751 -0.0142854 0.572351 0.00151464 0.507851C0.625715 0.203051 1.68881 0 2.69501 0C3.40141 0 4.09771 0.0879004 4.70291 0.25485C4.73011 0.26565 4.49991 0.31815 4.43791 0.31245Z" fill="url(#paint0_linear_1591_39945)"/>
<defs>
<linearGradient id="paint0_linear_1591_39945" x1="-0.000385357" y1="0.93025" x2="4.70481" y2="0.93025" gradientUnits="userSpaceOnUse">
<stop offset="0.16" stop-color="#CBD9F2"/>
<stop offset="0.49" stop-color="#E0E9F9"/>
</linearGradient>
</defs>
</svg>
