<svg width="6" height="1" viewBox="0 0 6 1" fill="none" xmlns="http://www.w3.org/2000/svg">
<path d="M1.59589 0.0916996C1.97209 0.0347896 2.38759 0.0019 2.84359 0C2.87019 0 2.89669 0 2.92389 0C3.35209 0.0019 3.74359 0.0316197 4.10149 0.0815897C4.12359 0.0847497 4.14579 0.0879102 4.16789 0.0910702C4.22289 0.0992902 4.27729 0.10815 4.33039 0.11763C4.34559 0.12016 4.36139 0.123329 4.37599 0.125859H4.37789C5.12349 0.327599 5.45869 0.552109 4.57579 0.411079C4.51949 0.399059 4.46329 0.38831 4.40699 0.37819C4.33359 0.36491 4.25899 0.35289 4.18499 0.34214C2.85749 0.14673 1.43709 0.258029 0.239894 0.662149C-0.0636065 0.764599 -0.0807067 0.70642 0.197593 0.54642C0.581393 0.32696 1.10319 0.18404 1.59589 0.0916996Z" fill="url(#paint0_linear_1591_39971)"/>
<defs>
<linearGradient id="paint0_linear_1591_39971" x1="-0.000406597" y1="0.35669" x2="5.10389" y2="0.35669" gradientUnits="userSpaceOnUse">
<stop offset="0.16" stop-color="#E1E9F7"/>
<stop offset="0.49" stop-color="#EDF2FC"/>
</linearGradient>
</defs>
</svg>
