<svg width="3" height="1" viewBox="0 0 3 1" fill="none" xmlns="http://www.w3.org/2000/svg">
<path d="M0.00141698 0.121467C-0.014399 0.118936 0.103905 0.0929978 0.270289 0.0619985C0.276615 0.0607332 0.283574 0.0601003 0.290533 0.0588351C0.528406 0.0253051 0.818155 0 1.19964 0C1.43245 0 1.64628 0.0107544 1.8386 0.0272031C1.91072 0.0335295 2.06825 0.0537745 2.19541 0.0771822C2.14607 0.249893 2.31308 0.47448 2.07648 0.910369C2.07205 0.909736 2.06635 0.908471 2.05876 0.907206C1.97399 0.89139 1.65324 0.832554 1.3249 0.823697C1.30339 0.823697 1.28125 0.823065 1.2591 0.822432C1.23696 0.8218 1.21419 0.822432 1.19078 0.822432C0.701116 0.822432 0.426551 0.885696 0.222208 0.927451C0.200065 0.929981 0.201331 0.910369 0.20829 0.901512C0.224738 0.880635 0.241819 0.869247 0.241819 0.869247C0.241819 0.869247 0.225371 0.864819 0.22031 0.841412C0.214616 0.816739 0.239922 0.787637 0.239922 0.787637C0.239289 0.787637 0.228534 0.786371 0.209555 0.726271C0.177923 0.626313 0.139965 0.368196 0.142495 0.262545C0.145026 0.156894 0.202596 0.105651 0.202596 0.105651C0.202596 0.105651 0.0235594 0.126528 0.00141698 0.122099V0.121467Z" fill="url(#paint0_linear_3091_43811)"/>
<defs>
<linearGradient id="paint0_linear_3091_43811" x1="-0.000480942" y1="0.463093" x2="2.2068" y2="0.463093" gradientUnits="userSpaceOnUse">
<stop offset="0.16" stop-color="#F5F7FA"/>
<stop offset="0.49" stop-color="#F7F8FB"/>
</linearGradient>
</defs>
</svg>
