<svg width="6" height="1" viewBox="0 0 6 1" fill="none" xmlns="http://www.w3.org/2000/svg">
<path d="M1.59648 0.0917009C1.97783 0.0341506 2.39903 0.000632421 2.86259 0C2.88979 0 2.91698 0 2.94354 0C3.37865 0.00252969 3.77581 0.033518 4.13819 0.0866414C4.16095 0.0898035 4.18309 0.0929659 4.20522 0.0967604C4.26088 0.105614 4.31653 0.114468 4.37028 0.124587C4.3861 0.127749 4.40127 0.130279 4.41645 0.133441C4.41708 0.133441 4.41772 0.133441 4.41835 0.133441C5.21647 0.349729 5.66485 0.62167 4.63021 0.421825C4.57329 0.409177 4.51637 0.398426 4.45946 0.387675C4.3861 0.373761 4.3121 0.361745 4.23811 0.350361C2.89611 0.142294 1.45356 0.252968 0.239941 0.662777C-0.0636216 0.76523 -0.0806968 0.707047 0.197569 0.547044C0.581448 0.327594 1.1032 0.184667 1.59585 0.092333L1.59648 0.0917009Z" fill="url(#paint0_linear_1587_25645)"/>
<defs>
<linearGradient id="paint0_linear_1587_25645" x1="0.000253079" y1="0.356685" x2="5.23417" y2="0.356685" gradientUnits="userSpaceOnUse">
<stop offset="0.16" stop-color="#EEF2FB"/>
<stop offset="0.49" stop-color="#F5F8FD"/>
</linearGradient>
</defs>
</svg>
