<svg width="3" height="3" viewBox="0 0 3 3" fill="none" xmlns="http://www.w3.org/2000/svg">
<path d="M1.16195 0C0.867745 0 0.579846 0.105 0.355946 0.2948C0.0345455 0.5681 -0.0837543 1.0236 0.0611457 1.4285C0.217346 1.8637 0.627946 2.1307 1.15875 2.1421C0.627946 2.1307 0.229446 1.8637 0.0731458 1.4285C-0.0723542 1.0236 0.0459456 0.5681 0.367946 0.2948C0.590046 0.1063 0.870245 0.0012 1.16195 0ZM2.23995 1.1242C2.22855 1.6518 1.75535 2.0605 1.19165 2.058C1.75025 2.0548 2.21655 1.648 2.22795 1.1242C2.24185 0.488999 1.72185 0.0885988 1.16885 0.0840988C1.72625 0.0834988 2.25385 0.484599 2.23995 1.1242Z" fill="white"/>
</svg>
