<svg width="4" height="4" viewBox="0 0 4 4" fill="none" xmlns="http://www.w3.org/2000/svg">
<path d="M1.6693 0.00209999C0.7491 0.00209999 0 0.734 0 1.6339C0 2.5338 0.7491 3.2718 1.6693 3.2718C2.2119 3.2718 2.718 2.9853 3.0227 2.5045L3.0491 2.463L2.5844 2.1684L2.5591 2.2149C2.387 2.5399 2.0378 2.7505 1.6693 2.7505C1.0569 2.7505 0.557799 2.2494 0.557799 1.6329C0.557799 1.0164 1.0558 0.521399 1.6693 0.521399C2.1572 0.521399 2.5682 0.8666 2.6867 1.3687H1.6369C1.4942 1.3687 1.3859 1.479 1.3859 1.6258C1.3859 1.7726 1.4962 1.8768 1.6369 1.8768H3.2748V1.6319C3.2748 0.731899 2.5541 0 1.6683 0L1.6693 0.00209999Z" fill="white"/>
</svg>
