<svg width="2" height="1" viewBox="0 0 2 1" fill="none" xmlns="http://www.w3.org/2000/svg">
<path d="M0.00141698 0.121467C-0.014399 0.118936 0.103905 0.0910999 0.270289 0.0619985C0.276615 0.0607332 0.282942 0.0601003 0.290534 0.0588351C0.528407 0.0253051 0.818156 0 1.19964 0C1.36665 0 1.52545 0.00379557 1.6912 0.0145505C1.77471 0.0202442 1.87024 0.0297343 1.96703 0.0417545C1.90756 0.161956 2.06635 0.662374 1.87277 0.867982C1.86771 0.86735 1.86328 0.866717 1.85758 0.866084C1.84746 0.864187 1.70638 0.827493 1.29327 0.822432C1.27745 0.822432 1.261 0.822432 1.24392 0.822432C1.22684 0.822432 1.20849 0.822432 1.19015 0.822432C0.700485 0.822432 0.425918 0.885696 0.221575 0.927451C0.199433 0.929981 0.200699 0.910369 0.207658 0.901512C0.224107 0.880635 0.241188 0.869247 0.241188 0.869247C0.241188 0.869247 0.224739 0.864819 0.219678 0.841412C0.213984 0.816739 0.235494 0.792698 0.235494 0.792698C0.234861 0.792698 0.227902 0.786371 0.208923 0.726271C0.177291 0.626313 0.139333 0.368196 0.141863 0.262545C0.144394 0.156894 0.201964 0.105651 0.201964 0.105651C0.201964 0.105651 0.0229271 0.126528 0.000784685 0.122099L0.00141698 0.121467Z" fill="url(#paint0_linear_3091_43841)"/>
<defs>
<linearGradient id="paint0_linear_3091_43841" x1="-0.000480942" y1="0.463093" x2="1.97272" y2="0.463093" gradientUnits="userSpaceOnUse">
<stop offset="0.16" stop-color="#ACBFD8"/>
<stop offset="0.49" stop-color="#B9C7DD"/>
</linearGradient>
</defs>
</svg>
