<svg width="3" height="4" viewBox="0 0 3 4" fill="none" xmlns="http://www.w3.org/2000/svg">
<path d="M1.89296 2.0699C1.88156 2.5955 1.93906 2.9376 1.86136 3.1109C1.68616 3.0881 1.50776 3.0742 1.25486 3.0742C0.809564 3.0742 0.590164 3.109 0.438364 3.1374C0.307464 3.1507 0.266964 3.0938 0.261964 3.0204C0.249264 2.8421 0.270764 2.5259 0.274564 2.3286C0.285364 1.7657 0.232164 1.3799 0.158864 0.965099C0.0626642 0.418699 -0.0327356 0.2163 0.0108644 0.1979C0.428264 0.0239998 0.927264 0 1.24596 0C1.49826 0 1.78226 0.00189932 2.14966 0.0935993C1.99726 1.0005 1.90816 1.3559 1.89296 2.0699Z" fill="url(#paint0_linear_1591_39899)"/>
<defs>
<linearGradient id="paint0_linear_1591_39899" x1="6.44013e-05" y1="1.5697" x2="2.14966" y2="1.5697" gradientUnits="userSpaceOnUse">
<stop offset="0.16" stop-color="#D4DFF4"/>
<stop offset="0.49" stop-color="#E5EDFA"/>
</linearGradient>
</defs>
</svg>
