<svg width="2" height="1" viewBox="0 0 2 1" fill="none" xmlns="http://www.w3.org/2000/svg">
<path d="M0.00141698 0.121467C-0.014399 0.118936 0.103905 0.0910999 0.270289 0.0619985C0.276615 0.0607332 0.282942 0.0601003 0.290534 0.0588351C0.528407 0.0253051 0.818156 0 1.19964 0C1.36033 0 1.51343 0.00253002 1.67665 0.0132849C1.76079 0.0189787 1.85062 0.0272029 1.94489 0.0379578C1.88479 0.153098 2.04231 0.681353 1.85315 0.863553C1.84809 0.862921 1.84366 0.862288 1.83797 0.861656C1.83544 0.861656 1.71208 0.826227 1.29074 0.821799C1.27492 0.821799 1.25911 0.821799 1.24329 0.821799C1.22621 0.821799 1.20913 0.821799 1.19141 0.821799C0.701749 0.821799 0.427184 0.885063 0.222841 0.926817C0.200699 0.929348 0.201964 0.909736 0.208923 0.900879C0.225371 0.880002 0.242453 0.868615 0.242453 0.868615C0.242453 0.868615 0.226004 0.864186 0.220943 0.840778C0.215249 0.816105 0.236759 0.792065 0.236759 0.792065C0.236127 0.792065 0.229168 0.785739 0.210188 0.725638C0.178556 0.625681 0.140598 0.367564 0.143129 0.261913C0.145659 0.156262 0.203229 0.105018 0.203229 0.105018C0.203229 0.105018 0.0241926 0.125895 0.00205024 0.121467H0.00141698Z" fill="url(#paint0_linear_3091_43844)"/>
<defs>
<linearGradient id="paint0_linear_3091_43844" x1="-0.000480942" y1="0.463092" x2="1.94932" y2="0.463092" gradientUnits="userSpaceOnUse">
<stop offset="0.16" stop-color="#A4B9D4"/>
<stop offset="0.49" stop-color="#B3C2DA"/>
</linearGradient>
</defs>
</svg>
