<svg width="7" height="5" viewBox="0 0 7 5" fill="none" xmlns="http://www.w3.org/2000/svg">
<path d="M0.0540395 4.23868C1.28016 3.09284 2.20145 1.66788 3.16052 0.15897L3.34047 0L3.49105 0.00577123C4.41916 0.521506 5.46322 1.05718 6.68462 1.64269L6.71138 1.73136L6.49574 1.95224C6.05189 2.2303 5.61275 2.48476 5.18935 2.71194L5.12115 2.66944L5.05137 2.62799C5.05767 2.14269 4.86827 1.78172 4.5136 1.60859C4.38978 1.54825 4.2539 1.5173 4.11014 1.5173C3.61382 1.5173 2.82211 1.93545 2.17312 2.86881C1.95329 3.18517 1.80901 3.56502 1.76284 3.94855L1.68414 4.04141L1.60859 4.1327C1.11961 4.25862 0.684674 4.36302 0.155822 4.43438L0 4.38244L0.0524654 4.23816L0.0540395 4.23868Z" fill="url(#paint0_linear_3091_44587)"/>
<defs>
<linearGradient id="paint0_linear_3091_44587" x1="10.1678" y1="1.06925" x2="21.7936" y2="-0.515735" gradientUnits="userSpaceOnUse">
<stop stop-color="#E30918"/>
<stop offset="0.5" stop-color="#9C1006"/>
<stop offset="1" stop-color="#E30918"/>
</linearGradient>
</defs>
</svg>
