<svg width="3" height="1" viewBox="0 0 3 1" fill="none" xmlns="http://www.w3.org/2000/svg">
<path d="M0.00141432 0.1215C-0.0143857 0.119 0.103914 0.0918003 0.270214 0.0620003C0.276614 0.0608003 0.283514 0.0600999 0.290514 0.0588999C0.528414 0.0252999 0.818114 0 1.19961 0C1.37801 0 1.54561 0.00450033 1.71581 0.0171003C1.79741 0.0228003 1.90371 0.0341995 2.00561 0.0480995C1.94801 0.1772 2.10741 0.632 1.90751 0.8756C1.90251 0.875 1.89801 0.8743 1.89171 0.8731C1.86891 0.8686 1.69811 0.8282 1.29961 0.8225C1.28251 0.8225 1.26541 0.8225 1.24771 0.8225C1.23001 0.8225 1.21101 0.8225 1.19201 0.8225C0.702314 0.8225 0.427814 0.8857 0.223414 0.9275C0.201314 0.93 0.202614 0.9104 0.209514 0.9015C0.226014 0.8807 0.243014 0.8693 0.243014 0.8693C0.243014 0.8693 0.226614 0.8649 0.221514 0.8414C0.215814 0.8168 0.238014 0.7915 0.238014 0.7915C0.238014 0.7915 0.229814 0.7864 0.210815 0.7263C0.179115 0.6263 0.141214 0.3682 0.143714 0.2626C0.146214 0.1569 0.203814 0.1057 0.203814 0.1057C0.203814 0.1057 0.024814 0.1266 0.00261404 0.1221L0.00141432 0.1215Z" fill="url(#paint0_linear_1591_39807)"/>
<defs>
<linearGradient id="paint0_linear_1591_39807" x1="0.000114319" y1="0.4631" x2="2.01131" y2="0.4631" gradientUnits="userSpaceOnUse">
<stop offset="0.16" stop-color="#B8C8DD"/>
<stop offset="0.49" stop-color="#C3CFE2"/>
</linearGradient>
</defs>
</svg>
