<svg width="3" height="4" viewBox="0 0 3 4" fill="none" xmlns="http://www.w3.org/2000/svg">
<path d="M2.04666 1.9858C2.00356 2.6619 2.08326 2.9332 2.00176 3.1286C1.82146 3.1001 1.57676 3.0742 1.25486 3.0742C0.809564 3.0742 0.590164 3.109 0.438364 3.1374C0.307464 3.1507 0.266964 3.0938 0.261964 3.0204C0.249264 2.8421 0.270764 2.5259 0.274564 2.3286C0.285364 1.7657 0.232164 1.3799 0.158864 0.965099C0.0626642 0.418699 -0.0327356 0.2163 0.0108644 0.1979C0.428264 0.0239998 0.927264 0 1.24596 0C1.54766 0 1.89356 0.00319988 2.37106 0.1537C2.18696 0.8626 2.08076 1.4444 2.04666 1.9858Z" fill="url(#paint0_linear_1591_39870)"/>
<defs>
<linearGradient id="paint0_linear_1591_39870" x1="6.44013e-05" y1="1.5697" x2="2.37106" y2="1.5697" gradientUnits="userSpaceOnUse">
<stop offset="0.16" stop-color="#FEFEFF"/>
<stop offset="0.49" stop-color="#FEFEFF"/>
</linearGradient>
</defs>
</svg>
