<svg width="4" height="4" viewBox="0 0 4 4" fill="none" xmlns="http://www.w3.org/2000/svg">
<path d="M3.12606 2.31195C3.121 2.31195 3.02803 2.22404 2.94772 2.17914C2.88384 2.14372 2.82376 2.14688 2.84969 2.16902C2.92938 2.23606 3.06472 2.37392 3.08432 2.44159C3.10962 2.53013 3.0723 2.52634 3.07104 2.60286C3.06788 2.80081 3.02487 2.85014 3.01349 2.88745C2.97491 3.01646 3.01033 3.40983 3.02298 3.61157C2.83704 3.44019 2.64985 3.30232 2.49933 3.19797C2.4987 3.14232 2.51388 3.11386 2.52273 2.97156C2.52969 2.86785 2.44368 2.63828 2.48478 2.59843C2.50186 2.58136 2.55625 2.63954 2.55625 2.61488C2.55751 2.52444 2.49617 2.47954 2.49301 2.43653C2.47846 2.21139 2.51514 2.10514 2.60115 2.07858C2.57332 2.03874 2.53158 1.97613 2.50059 1.9287C2.41016 1.78767 2.40573 1.63842 2.42913 1.61565C2.46518 1.5796 2.45696 1.48474 2.43482 1.46197C2.40573 1.43225 2.19767 1.20205 2.21917 1.14323C2.23182 1.10845 2.2432 1.06671 2.2451 1.04394C2.24636 1.03446 2.2451 1.02813 2.24257 1.02813C2.23814 1.0275 2.11039 1.01738 2.07245 1.01612C2.03007 1.01485 1.98074 0.958565 1.96114 0.943387C1.9447 0.930106 1.92003 0.947814 1.89979 0.939593C1.87956 0.931371 1.81252 0.861804 1.78722 0.866864C1.78722 0.866864 1.78722 0.866863 1.78722 0.865599C1.79924 0.85295 1.85932 0.77959 1.86564 0.764412C1.86881 0.756823 1.88145 0.734055 1.84667 0.743542C1.81884 0.751131 1.35149 0.785914 1.3148 0.787179C1.27117 0.788444 1.26168 0.780855 1.26168 0.766309C1.26168 0.743542 1.32239 0.676505 1.33694 0.623382C1.35654 0.551918 1.26611 0.660694 1.22184 0.680299C1.16998 0.703067 1.10674 0.706229 1.08524 0.642987C1.06942 0.59682 0.965076 0.638559 0.912586 0.638559C0.849343 0.638559 0.75701 0.676505 0.714637 0.69611C0.618509 0.74038 0.583727 0.821962 0.507836 0.857378C0.437005 0.890264 0.401588 0.874453 0.385777 0.968684C0.32633 1.31778 0.311152 1.40822 0.269412 1.3728C0.233364 1.34244 0.145457 0.979435 0.113204 0.952873C0.0860098 0.930738 0.196684 1.43541 0.108145 1.19509C0.0556545 1.0528 0.016443 0.87888 0 0.697375C0 0.586069 0.019606 0.286933 0.0562864 0.188908C0.0866427 0.162346 0.0917014 0.145903 0.134706 0.11618C0.369967 -0.0469851 0.904364 -0.00208344 1.30342 0.0358618C1.46659 0.05104 1.69363 0.0972068 1.57599 0.167406C1.60382 0.182584 1.62532 0.198395 1.64683 0.212308C1.74295 0.144639 2.20146 0.166773 1.8726 0.255312C2.01173 0.300847 2.42091 0.436817 2.30265 0.470335C2.22929 0.491205 2.20715 0.505119 2.14454 0.543064C2.20589 0.530416 2.38486 0.529783 2.49806 0.599982C2.55309 0.634132 2.58597 0.687256 2.64416 0.73785C2.75799 0.83714 2.93633 1.04521 2.83198 1.006C2.6587 0.940224 2.58155 0.987657 2.60431 0.990819C2.7991 1.01928 2.85285 1.13881 2.95404 1.33549C3.00337 1.43162 3.04321 1.45185 3.078 1.56506C3.10266 1.64411 3.09128 1.677 3.07167 1.66498C2.99135 1.61565 2.8889 1.54292 2.78645 1.55367C2.80163 1.57391 2.9104 1.61439 3.00653 1.74024C3.08811 1.84585 3.05776 1.9249 3.07736 2.00838C3.09823 2.09882 3.17665 2.28286 3.12543 2.31258L3.12606 2.31195Z" fill="white"/>
</svg>
