<svg width="5" height="2" viewBox="0 0 5 2" fill="none" xmlns="http://www.w3.org/2000/svg">
<path d="M4.69981 0.406651C4.56381 0.394651 4.18251 0.316251 4.17991 0.373751C4.17801 0.414851 4.77761 0.53565 4.68211 0.63305C4.55051 0.76715 4.50562 1.02575 4.50062 1.22625C4.49112 1.55135 4.61631 1.61395 4.57012 1.68665C4.54232 1.73035 4.33301 1.70625 3.95542 1.67465C3.55951 1.60575 3.12501 1.55005 2.69501 1.55005C2.18911 1.55005 1.59652 1.62085 1.12472 1.71705C0.657315 1.81315 0.260215 1.89785 0.224115 1.84285C0.178615 1.77265 0.302515 1.72655 0.293715 1.41405C0.288015 1.22125 0.298114 0.99925 0.167814 0.86895C0.0654145 0.76585 0.592214 0.58055 0.589714 0.52495C0.586514 0.46295 0.308915 0.521751 0.172915 0.533751C0.0970147 0.540751 -0.0142854 0.572351 0.00151464 0.507851C0.625715 0.203051 1.68881 0 2.69501 0C3.48431 0 4.25961 0.110041 4.90851 0.317451C4.90972 0.358551 4.76431 0.412351 4.69981 0.406651Z" fill="url(#paint0_linear_1591_39922)"/>
<defs>
<linearGradient id="paint0_linear_1591_39922" x1="-0.000385357" y1="0.93025" x2="4.90852" y2="0.93025" gradientUnits="userSpaceOnUse">
<stop offset="0.16" stop-color="#ECF1FA"/>
<stop offset="0.49" stop-color="#F4F7FD"/>
</linearGradient>
</defs>
</svg>
