<svg width="2" height="3" viewBox="0 0 2 3" fill="none" xmlns="http://www.w3.org/2000/svg">
<path d="M0.911634 1.51328C1.0603 1.83149 1.24377 2.22816 1.32032 2.70327C1.31779 2.7039 1.31526 2.70391 1.31273 2.70391C1.23555 2.22943 1.05208 1.83276 0.90341 1.51328L0.897716 1.50126C0.863554 1.42724 0.545968 0.771822 0.31632 0.382748C0.27077 0.304934 0.151201 0.114509 0.0265708 0.0189804C0.0189791 0.0132866 0.0132854 0.00949122 0.00885692 0.0075933C0.00569372 0.00506274 0.00253021 0.00379638 0.000632293 0.0025311H0L0.000632293 0C0.00126493 0 0.0037958 5.40643e-07 0.00885692 0.0025311C0.013918 0.00442902 0.0227752 0.00949076 0.0347954 0.0189804C0.159426 0.114509 0.278994 0.304933 0.324544 0.382115C0.554192 0.771821 0.871778 1.4266 0.90594 1.50126L0.911634 1.51328Z" fill="url(#paint0_linear_3091_44211)"/>
<defs>
<linearGradient id="paint0_linear_3091_44211" x1="0" y1="1.35195" x2="1.32032" y2="1.35195" gradientUnits="userSpaceOnUse">
<stop offset="0.01" stop-color="#9DB4DB"/>
<stop offset="0.05" stop-color="#D4DEEF"/>
<stop offset="0.64" stop-color="#B4C6E3"/>
<stop offset="1" stop-color="#A7BCDF"/>
</linearGradient>
</defs>
</svg>
