<svg width="5" height="1" viewBox="0 0 5 1" fill="none" xmlns="http://www.w3.org/2000/svg">
<path d="M1.59585 0.0917009C1.96835 0.0354154 2.37879 0.00252969 2.82907 0C2.85564 0 2.88157 0 2.90813 0C3.33058 0.00126484 3.71763 0.0297235 4.07241 0.0777876C4.09455 0.0809497 4.11668 0.0834793 4.13819 0.0866414C4.19257 0.0942305 4.24633 0.103085 4.29882 0.111939C4.314 0.114469 4.32918 0.116998 4.34436 0.12016C4.34499 0.12016 4.34562 0.12016 4.34625 0.12016C5.0514 0.310519 5.29805 0.498348 4.53408 0.40222C4.47843 0.390204 4.42214 0.380718 4.36649 0.370599C4.2925 0.357951 4.2185 0.345934 4.14388 0.335816C2.82844 0.149884 1.4251 0.262455 0.239941 0.662145C-0.0636216 0.764598 -0.0806968 0.706415 0.197569 0.546412C0.581448 0.326962 1.1032 0.184034 1.59585 0.0917009Z" fill="url(#paint0_linear_1587_25661)"/>
<defs>
<linearGradient id="paint0_linear_1587_25661" x1="-0.000379343" y1="0.356686" x2="5.00334" y2="0.356686" gradientUnits="userSpaceOnUse">
<stop offset="0.16" stop-color="#D6E2F5"/>
<stop offset="0.49" stop-color="#E7EEFB"/>
</linearGradient>
</defs>
</svg>
