<svg width="5" height="2" viewBox="0 0 5 2" fill="none" xmlns="http://www.w3.org/2000/svg">
<path d="M4.67701 0.39845C4.54101 0.38645 4.16731 0.31245 4.16471 0.36995C4.16281 0.41235 4.75801 0.531251 4.66251 0.628651C4.53091 0.762651 4.48602 1.01885 4.48102 1.21935C4.47152 1.54435 4.59671 1.60695 4.55052 1.67975C4.52212 1.72465 4.31211 1.70055 3.92321 1.66955C3.53671 1.60315 3.11371 1.55005 2.69501 1.55005C2.18911 1.55005 1.59652 1.62085 1.12472 1.71705C0.657315 1.81315 0.260215 1.89785 0.224115 1.84285C0.178615 1.77265 0.302515 1.72655 0.293715 1.41405C0.288015 1.22125 0.298114 0.99925 0.167814 0.86895C0.0654145 0.76585 0.592214 0.58055 0.589714 0.52495C0.586514 0.46295 0.308915 0.521751 0.172915 0.533751C0.0970147 0.540751 -0.0142854 0.572351 0.00151464 0.507851C0.625715 0.203051 1.68881 0 2.69501 0C3.47671 0 4.24511 0.10814 4.89081 0.31175C4.89461 0.35035 4.74151 0.40415 4.67701 0.39845Z" fill="url(#paint0_linear_1591_39924)"/>
<defs>
<linearGradient id="paint0_linear_1591_39924" x1="-0.000385357" y1="0.93025" x2="4.89082" y2="0.93025" gradientUnits="userSpaceOnUse">
<stop offset="0.16" stop-color="#E9EFF9"/>
<stop offset="0.49" stop-color="#F2F6FD"/>
</linearGradient>
</defs>
</svg>
