<svg width="7" height="16" viewBox="0 0 7 16" fill="none" xmlns="http://www.w3.org/2000/svg">
<path d="M5.17039 11.7355C4.62841 12.9225 4.62588 14.6275 4.59489 15.5496C4.38745 15.5484 4.09022 15.5465 3.79108 15.5427C3.47613 15.5389 2.77478 15.5484 2.71154 15.5458C2.61857 15.542 2.60529 15.5205 2.5996 15.4725C2.58505 15.3523 2.66031 13.7618 1.93998 12.1826C1.49033 11.1973 0.951507 10.5225 0.528417 9.15584C-0.126772 7.04039 -0.0325408 3.01945 0.0382904 2.32884C0.122402 1.50164 0.278611 0.398695 2.71343 0.0420096C3.05747 -0.00858411 3.78033 -0.0458976 4.43109 0.000901636C4.47726 0.00722585 4.51963 0.0154474 4.55947 0.0236688C6.24045 0.313318 6.32077 1.89817 6.39476 2.44648C6.62053 4.12303 6.56931 8.67077 5.17039 11.7361V11.7355Z" fill="url(#paint0_linear_3091_43891)"/>
<defs>
<linearGradient id="paint0_linear_3091_43891" x1="-0.0116709" y1="7.76451" x2="6.49595" y2="7.76451" gradientUnits="userSpaceOnUse">
<stop offset="0.16" stop-color="#D5E0F4"/>
<stop offset="0.52" stop-color="#E6EDFA"/>
</linearGradient>
</defs>
</svg>
