<svg width="3" height="4" viewBox="0 0 3 4" fill="none" xmlns="http://www.w3.org/2000/svg">
<path d="M1.90877 2.06169C1.89486 2.60305 1.9543 2.9376 1.87588 3.11278C1.70007 3.09001 1.51477 3.0742 1.25485 3.0742C0.809621 3.0742 0.590171 3.10898 0.43839 3.13744C0.307479 3.15072 0.267003 3.09381 0.261944 3.02044C0.249295 2.8421 0.270798 2.52589 0.274593 2.32858C0.285344 1.76572 0.232221 1.37994 0.15886 0.965075C0.0627316 0.418663 -0.0327638 0.216288 0.0108733 0.197948C0.428271 0.0240323 0.927252 0 1.24599 0C1.50339 0 1.79367 0.0025298 2.17249 0.0999227C2.01691 0.986578 1.92648 1.3654 1.90877 2.06169Z" fill="url(#paint0_linear_1587_25575)"/>
<defs>
<linearGradient id="paint0_linear_1587_25575" x1="0.000122118" y1="1.5703" x2="2.17249" y2="1.5703" gradientUnits="userSpaceOnUse">
<stop offset="0.16" stop-color="#D8E3F5"/>
<stop offset="0.49" stop-color="#E8EFFB"/>
</linearGradient>
</defs>
</svg>
