<svg width="3" height="6" viewBox="0 0 3 6" fill="none" xmlns="http://www.w3.org/2000/svg">
<path d="M2.20938 0.236861C1.93688 0.656761 1.87298 1.22596 1.70668 1.68886C1.39488 2.55346 0.963584 3.29526 0.523384 4.10286C0.381084 4.36346 -0.0344151 5.16216 0.00228491 5.42396C0.0256849 5.59216 0.323583 5.39806 0.406383 5.34496C0.697883 5.15516 0.917983 5.07176 1.10838 4.83206L1.18238 4.72386C1.42778 4.36466 1.68198 3.97696 1.87608 3.61656C1.96278 3.45526 2.04878 3.29086 2.12528 3.12826C2.46488 2.40546 2.68878 1.76036 2.85008 0.915461C2.84938 0.545461 2.65658 -0.452439 2.20938 0.236861ZM2.01968 2.50476C1.92668 2.79876 1.58328 3.44256 1.31138 3.60896C1.21588 3.66776 1.13428 3.66016 1.12478 3.52796C1.11218 3.33956 1.54918 2.48196 1.68708 2.19236C1.73258 2.09746 1.91218 1.67186 2.04438 1.78316C2.17458 1.89316 2.06648 2.35546 2.01968 2.50476Z" fill="url(#paint0_linear_1591_40241)"/>
<defs>
<linearGradient id="paint0_linear_1591_40241" x1="1.22788" y1="2.71596" x2="2.12528" y2="3.13466" gradientUnits="userSpaceOnUse">
<stop stop-color="#BE0A46"/>
<stop offset="0.35" stop-color="#C00A47"/>
<stop offset="0.62" stop-color="#CA0B4C"/>
<stop offset="0.85" stop-color="#DA0C55"/>
<stop offset="0.94" stop-color="#E30D5A"/>
</linearGradient>
</defs>
</svg>
