<svg width="5" height="2" viewBox="0 0 5 2" fill="none" xmlns="http://www.w3.org/2000/svg">
<path d="M4.82561 0.45215C4.68971 0.43955 4.26661 0.33835 4.26591 0.39585C4.26591 0.43005 4.88761 0.56035 4.79211 0.65775C4.66061 0.79175 4.61571 1.06305 4.61061 1.26355C4.60111 1.58865 4.72632 1.65125 4.68021 1.72395C4.65491 1.76385 4.45251 1.73475 4.13381 1.70375C3.68731 1.62025 3.18831 1.55005 2.69501 1.55005C2.20171 1.55005 1.59651 1.62085 1.12471 1.71705C0.657314 1.81315 0.260215 1.89785 0.224115 1.84285C0.178615 1.77265 0.302615 1.72655 0.293715 1.41405C0.288015 1.22125 0.298115 0.99925 0.167915 0.86895C0.0654146 0.76585 0.592214 0.58055 0.589714 0.52495C0.586514 0.46295 0.308915 0.521751 0.172915 0.533751C0.0970147 0.540751 -0.0142854 0.572351 0.00151464 0.507851C0.625715 0.203051 1.68881 0 2.69501 0C3.52351 0 4.33681 0.12079 5.00711 0.34715C4.99641 0.40285 4.89201 0.45785 4.82561 0.45215Z" fill="url(#paint0_linear_1591_39911)"/>
<defs>
<linearGradient id="paint0_linear_1591_39911" x1="0.000314643" y1="0.93095" x2="5.00711" y2="0.93095" gradientUnits="userSpaceOnUse">
<stop offset="0.16" stop-color="#FCFDFE"/>
<stop offset="0.49" stop-color="#FDFEFF"/>
</linearGradient>
</defs>
</svg>
