<svg width="4" height="4" viewBox="0 0 4 4" fill="none" xmlns="http://www.w3.org/2000/svg">
<path d="M1.66928 0.00202658C0.749101 0.00202658 0 0.733919 0 1.63385C0 2.53379 0.749101 3.27175 1.66928 3.27175C2.21187 3.27175 2.71803 2.98527 3.02273 2.50443L3.04905 2.46293L2.5844 2.16835L2.55909 2.21491C2.387 2.53986 2.03776 2.75042 1.66928 2.75042C1.05684 2.75042 0.557777 2.24933 0.557777 1.63284C0.557777 1.01635 1.05583 0.521337 1.66928 0.521337C2.15721 0.521337 2.5682 0.866531 2.68664 1.36863H1.63689C1.49415 1.36863 1.38584 1.47897 1.38584 1.62576C1.38584 1.77254 1.49618 1.87681 1.63689 1.87681H3.27479V1.63183C3.27479 0.731895 2.55403 0 1.66827 0L1.66928 0.00202658Z" fill="white"/>
</svg>
