<svg width="6" height="1" viewBox="0 0 6 1" fill="none" xmlns="http://www.w3.org/2000/svg">
<path d="M1.59522 0.0917009C1.97278 0.034783 2.38954 0.00126484 2.84741 0C2.87398 0 2.90117 0 2.92773 0C3.35715 0.00189726 3.74988 0.0316209 4.10909 0.082847C4.13123 0.0860092 4.154 0.0891709 4.17613 0.092333C4.23115 0.100554 4.28554 0.109409 4.3393 0.118896C4.35447 0.121425 4.37029 0.124587 4.38546 0.127116C4.3861 0.127116 4.38673 0.127116 4.38736 0.127116C5.145 0.332021 5.50485 0.567282 4.58847 0.412971C4.53219 0.400955 4.47527 0.390204 4.41898 0.380085C4.34562 0.366804 4.27163 0.354788 4.197 0.343404C2.86639 0.144824 1.44091 0.256131 0.239941 0.662145C-0.0636216 0.764598 -0.0806968 0.706415 0.197569 0.546412C0.581448 0.326962 1.1032 0.184034 1.59585 0.0917009H1.59522Z" fill="url(#paint0_linear_1587_25652)"/>
<defs>
<linearGradient id="paint0_linear_1587_25652" x1="-0.00101176" y1="0.356686" x2="5.13172" y2="0.356686" gradientUnits="userSpaceOnUse">
<stop offset="0.16" stop-color="#E4EBF8"/>
<stop offset="0.49" stop-color="#EFF4FC"/>
</linearGradient>
</defs>
</svg>
