<svg width="26" height="26" viewBox="0 0 26 26" fill="none" xmlns="http://www.w3.org/2000/svg">
<path d="M25.0327 7.45832C25.0253 7.30318 25.018 7.15759 24.9871 6.93112C24.5812 3.66348 22.6856 1.0804 20.2709 0.503201C19.8643 0.406878 19.4511 0.352466 19.043 0.343643C16.004 0.278202 13.7423 2.68849 12.8901 3.59584C12.743 3.75319 12.6048 3.90025 12.5555 3.93187C12.5335 3.94584 12.5114 3.95172 12.4923 3.95172C12.4695 3.95172 12.4504 3.94069 12.4379 3.93113L12.3614 3.83775C10.3085 1.40614 8.10994 0.0429087 6.17024 0.000997113C5.27465 -0.0181205 4.42172 0.237761 3.63275 0.760553C2.09452 1.78114 -0.617972 5.12892 0.126878 10.498C0.27173 11.4179 0.351877 11.7311 0.444524 12.0921C0.470994 12.1973 0.498935 12.3046 0.528347 12.4333C0.728346 13.1532 0.985699 13.8958 1.29599 14.6407C2.49672 17.5024 5.40701 20.3303 6.39009 21.0156C6.34377 21.7318 6.30259 22.2656 6.30039 22.2884C6.11362 23.8891 5.88421 25.1788 5.80921 25.5825C5.80627 25.6141 5.80774 25.645 5.81215 25.6744C6.12465 25.5774 6.42906 25.4825 6.72538 25.3884C8.20847 24.923 9.42317 24.523 9.68934 24.4222C11.5092 23.7333 14.8937 22.4524 17.8636 20.4289C18.6503 19.8965 19.3393 19.4112 19.7474 19.0311C20.6356 18.273 21.3937 17.4245 22.0621 16.5451C22.8327 15.5259 23.4672 14.4561 23.9481 13.3642C24.14 12.9304 24.4944 12.0701 24.7025 11.1811C24.9797 10.0818 25.1003 8.97302 25.0599 7.88626C25.043 7.70244 25.0371 7.57744 25.0312 7.45906L25.0327 7.45832Z" fill="url(#paint0_linear_1587_26065)"/>
<defs>
<linearGradient id="paint0_linear_1587_26065" x1="-0.27733" y1="12.7559" x2="24.8807" y2="13.3004" gradientUnits="userSpaceOnUse">
<stop offset="0.25" stop-color="white"/>
<stop offset="0.35" stop-color="#AAB3B9"/>
<stop offset="0.36" stop-color="#A4AEB4"/>
<stop offset="0.51" stop-color="#83929B"/>
<stop offset="0.66" stop-color="#86939A"/>
<stop offset="0.83" stop-color="#BBC3C8"/>
</linearGradient>
</defs>
</svg>
