<svg width="2" height="3" viewBox="0 0 2 3" fill="none" xmlns="http://www.w3.org/2000/svg">
<path d="M0.0639 0.128831C0.0993 0.0928306 0.100601 0.0257307 0.148001 0.00673069C0.195501 -0.0121693 0.177801 0.00993074 0.144901 0.0580307C0.112001 0.106131 0.0582 0.175031 0 0.179531C0 0.179531 0.0203 0.173131 0.0639 0.128831ZM1.2969 1.09243C1.2248 0.895031 1.2849 0.74383 1.2533 0.75583L1.2893 0.741931C1.2944 0.708331 1.2336 0.69823 1.1666 0.62233C1.0995 0.54583 1.0388 0.39203 1.0325 0.37373C1.0129 0.38823 0.992001 0.41353 0.992001 0.41353C1.0141 0.42563 1.0173 0.43383 1.0141 0.48253C1.0122 0.51863 1.0964 0.622931 1.1261 0.663431C1.1558 0.703331 1.1811 0.705831 1.2254 0.765931C1.2223 0.769131 1.2197 0.77353 1.2166 0.78113C1.2064 0.80643 1.2109 0.86463 1.2166 0.90193C1.2172 0.90643 1.2412 1.06833 1.2583 1.11893C1.2748 1.16703 1.3304 1.21513 1.3336 1.26003C1.3273 1.26823 1.3001 1.31823 1.3013 1.35303C1.3089 1.55863 1.283 1.60353 1.2988 1.68643C1.3184 1.78703 1.3412 1.81933 1.3412 1.81933C1.3412 1.81933 1.3102 1.91613 1.3007 1.95973C1.2912 2.00343 1.326 2.05843 1.326 2.13943C1.326 2.22043 1.3399 2.34623 1.338 2.37473L1.3747 2.40003C1.3747 2.40003 1.383 2.31153 1.3697 2.24313C1.3564 2.17483 1.3564 2.15463 1.3576 2.10393C1.3595 2.01793 1.3248 1.93123 1.3773 1.83953C1.3931 1.81173 1.3886 1.78573 1.3709 1.75923C1.3532 1.73263 1.3317 1.68833 1.3374 1.63073C1.3501 1.49913 1.3146 1.36063 1.3355 1.31633C1.345 1.29613 1.3545 1.27083 1.3494 1.26193L1.4013 1.26573C1.4051 1.23033 1.3159 1.14933 1.2956 1.09433L1.2969 1.09243ZM0.6504 0.172531C0.6839 0.142831 0.7079 0.111831 0.7029 0.102931C0.6978 0.0928307 0.577 0.151031 0.5352 0.197831C0.5048 0.231331 0.446601 0.24023 0.377701 0.24713C0.448501 0.24973 0.4922 0.249031 0.5548 0.231331C0.57 0.226931 0.585801 0.21933 0.602301 0.20923C0.593401 0.22123 0.588401 0.23203 0.594101 0.23893C0.747201 0.40783 0.957201 0.40983 1.0325 0.37373C0.961001 0.36613 0.885699 0.344631 0.821199 0.318631C0.767399 0.297131 0.6795 0.220031 0.6504 0.172531Z" fill="#6476A0"/>
</svg>
