<svg width="3" height="1" viewBox="0 0 3 1" fill="none" xmlns="http://www.w3.org/2000/svg">
<path d="M2.35343 0.11261C2.33066 0.120202 2.26802 0.108181 2.26549 0.117671C2.2636 0.12463 2.31547 0.166384 2.31864 0.273933C2.32117 0.379584 2.28764 0.653517 2.256 0.753475C2.23576 0.814841 2.225 0.821167 2.225 0.821167C2.225 0.821167 2.24145 0.840146 2.23766 0.857228C2.2326 0.880635 2.22437 0.890124 2.22437 0.890124C2.22437 0.890124 2.26423 0.92492 2.26549 0.928083C2.27055 0.938838 2.26739 0.944532 2.25917 0.94896C2.1978 0.933777 1.85618 0.821799 1.19001 0.821799C1.16154 0.821799 1.1318 0.8218 1.1008 0.822432C0.66618 0.829391 0.413124 0.887594 0.221434 0.926817C0.20372 0.928715 0.201189 0.916696 0.204352 0.906573C0.204985 0.904675 0.206251 0.902144 0.207516 0.900879C0.223964 0.880002 0.241046 0.868615 0.241046 0.868615C0.241046 0.868615 0.224597 0.864186 0.219536 0.840778C0.213842 0.816105 0.23978 0.786371 0.23978 0.786371C0.23978 0.786371 0.237882 0.786371 0.234087 0.782576C0.229026 0.776882 0.220169 0.762331 0.208781 0.725638C0.177149 0.625681 0.13919 0.367564 0.141721 0.261913C0.144884 0.154364 0.201822 0.105018 0.201822 0.105018C0.201822 0.105018 0.0227847 0.125895 0.000642292 0.121467C-0.0158063 0.118304 0.289127 0.0588351 0.289759 0.0588351C0.527632 0.0253051 0.817381 0 1.19886 0C1.44053 0 1.66132 0.00885677 1.85744 0.0284686C2.09531 0.0525089 2.37304 0.106916 2.35343 0.11261Z" fill="white"/>
</svg>
