<svg width="1" height="3" viewBox="0 0 1 3" fill="none" xmlns="http://www.w3.org/2000/svg">
<path d="M0.886963 0.127159C0.892656 0.338461 0.742087 0.655415 0.609233 0.935042C0.576968 1.00463 0.545336 1.06979 0.518132 1.13116C0.397931 1.39877 0.108815 2.09467 0.00759234 2.77729H0C0.10059 2.09467 0.390339 1.39877 0.509908 1.13116C0.537744 1.07043 0.568744 1.00463 0.601641 0.935673C0.733863 0.655414 0.884432 0.338461 0.878738 0.127159V0.121466C0.87684 0.0790789 0.874309 0.0120195 0.854064 0.00126459C0.852799 0.000631945 0.851534 0 0.850268 0C0.852799 0 0.854064 0 0.855962 0C0.857227 0 0.85786 0 0.858493 0C0.882533 0.00506112 0.885064 0.0771823 0.886329 0.120834V0.127159H0.886963Z" fill="url(#paint0_linear_3091_44205)"/>
<defs>
<linearGradient id="paint0_linear_3091_44205" x1="0" y1="1.38801" x2="0.886963" y2="1.38801" gradientUnits="userSpaceOnUse">
<stop stop-color="#DCE4F2"/>
<stop offset="0.2" stop-color="#9DB4DB"/>
<stop offset="0.36" stop-color="#8FA5CC"/>
<stop offset="0.77" stop-color="#6F82AC"/>
<stop offset="1" stop-color="#6476A0"/>
</linearGradient>
</defs>
</svg>
