<svg width="2" height="3" viewBox="0 0 2 3" fill="none" xmlns="http://www.w3.org/2000/svg">
<path d="M1.02931 2.77096C1.02931 2.77096 1.02361 2.77096 1.02108 2.77096C0.979327 2.33065 0.821167 1.74229 0.564315 1.06979C0.537744 1.00147 0.512438 0.927451 0.485235 0.849004C0.402992 0.611131 0.309994 0.342258 0.173976 0.165751C0.0765495 0.039856 0.0291022 0.00822486 0.00569449 0.0025311C0.00316393 0.00189846 0.00189792 0.00126459 0 0.00126459C0.00189792 0.000631945 0.00379596 0 0.00506124 0C0.00632652 0 0.00759164 6.17827e-07 0.00885692 0.000633258C0.029734 0.00316382 0.0784477 0.0303677 0.182201 0.16512C0.318218 0.341627 0.411216 0.611131 0.493459 0.848371C0.520663 0.926818 0.545969 1.00147 0.57254 1.06979C0.829391 1.74166 0.987552 2.33001 1.02931 2.77033V2.77096Z" fill="url(#paint0_linear_3091_44215)"/>
<defs>
<linearGradient id="paint0_linear_3091_44215" x1="0" y1="1.38612" x2="1.02931" y2="1.38612" gradientUnits="userSpaceOnUse">
<stop stop-color="#E3E9F5"/>
<stop offset="0.07" stop-color="#DDE4F2"/>
<stop offset="0.4" stop-color="#C6D3EA"/>
<stop offset="0.72" stop-color="#B8C8E4"/>
<stop offset="1" stop-color="#B4C5E3"/>
</linearGradient>
</defs>
</svg>
