<svg width="5" height="2" viewBox="0 0 5 2" fill="none" xmlns="http://www.w3.org/2000/svg">
<path d="M4.72251 0.4136C4.58661 0.4016 4.19761 0.3194 4.19571 0.3769C4.19451 0.4168 4.79782 0.5395 4.70232 0.6368C4.57082 0.7709 4.52591 1.0321 4.52081 1.2326C4.51131 1.5577 4.63652 1.6203 4.59042 1.693C4.56321 1.736 4.35511 1.7107 3.98772 1.6797C3.58231 1.6082 3.13641 1.5501 2.69501 1.5501C2.18911 1.5501 1.59652 1.6209 1.12472 1.717C0.657315 1.8132 0.260215 1.8979 0.224115 1.8429C0.178615 1.7727 0.302515 1.7265 0.293715 1.4141C0.288015 1.2212 0.298114 0.9992 0.167814 0.8689C0.0654145 0.7659 0.592214 0.5806 0.589714 0.5249C0.586514 0.4629 0.308915 0.5217 0.172915 0.5338C0.0970147 0.5407 -0.0142854 0.5723 0.00151464 0.5078C0.625715 0.203 1.68881 0 2.69501 0C3.49121 0 4.27351 0.11194 4.92681 0.3232C4.92551 0.3668 4.78771 0.4212 4.72321 0.4149L4.72251 0.4136Z" fill="url(#paint0_linear_1591_39920)"/>
<defs>
<linearGradient id="paint0_linear_1591_39920" x1="-0.000385357" y1="0.929" x2="4.92621" y2="0.929" gradientUnits="userSpaceOnUse">
<stop offset="0.16" stop-color="#EFF3FB"/>
<stop offset="0.49" stop-color="#F5F8FD"/>
</linearGradient>
</defs>
</svg>
