<svg width="6" height="1" viewBox="0 0 6 1" fill="none" xmlns="http://www.w3.org/2000/svg">
<path d="M1.59519 0.0916996C1.97279 0.0347896 2.38949 0.00127 2.84739 0C2.87399 0 2.90119 0 2.92769 0C3.35709 0.0019 3.74989 0.0316195 4.10909 0.0828495C4.13119 0.0860095 4.15399 0.0891695 4.17609 0.0923395C4.23109 0.10056 4.28549 0.109409 4.33929 0.118899C4.35449 0.121429 4.37029 0.12459 4.38549 0.12712C4.38609 0.12712 4.38669 0.12712 4.38739 0.12712C5.14499 0.33202 5.50479 0.56729 4.58849 0.41297C4.53219 0.40096 4.47529 0.39021 4.41899 0.38009C4.34559 0.36681 4.27159 0.35479 4.19699 0.34341C2.86639 0.14483 1.44089 0.256129 0.239894 0.662149C-0.0636065 0.764599 -0.0807067 0.70642 0.197593 0.54642C0.581393 0.32696 1.10259 0.18404 1.59519 0.0916996Z" fill="url(#paint0_linear_1591_39969)"/>
<defs>
<linearGradient id="paint0_linear_1591_39969" x1="-0.0010066" y1="0.35669" x2="5.13169" y2="0.35669" gradientUnits="userSpaceOnUse">
<stop offset="0.16" stop-color="#E4EBF8"/>
<stop offset="0.49" stop-color="#EFF4FC"/>
</linearGradient>
</defs>
</svg>
