<svg width="9" height="2" viewBox="0 0 9 2" fill="none" xmlns="http://www.w3.org/2000/svg">
<path d="M8.2908 1.83023L8.28891 1.88841C8.22693 1.60509 8.09791 1.40208 7.5787 0.972664C6.92035 0.427517 5.47653 0.072729 4.1769 0.072729C2.87728 0.072729 1.41322 0.417398 0.749178 0.972664C0.232489 1.40461 0.0952534 1.59054 0.0383355 1.88715V1.83023C0.0383355 1.83023 -0.0407164 1.9877 0.0282175 1.73789C0.0971514 1.48746 0.350752 1.16366 0.720719 0.89298C1.59093 0.251704 2.96581 0 4.16425 0C5.36269 0 6.73758 0.251704 7.60716 0.89298C7.97775 1.16366 8.23072 1.48746 8.30029 1.73789C8.36922 1.9877 8.2908 1.83023 8.2908 1.83023Z" fill="url(#paint0_linear_1587_25941)"/>
<defs>
<linearGradient id="paint0_linear_1587_25941" x1="-0.000241626" y1="0.944205" x2="8.32875" y2="0.944205" gradientUnits="userSpaceOnUse">
<stop stop-color="#8298B4"/>
<stop offset="0.4" stop-color="#7F95B2"/>
<stop offset="0.64" stop-color="#788DAD"/>
<stop offset="0.84" stop-color="#6B7EA5"/>
<stop offset="0.92" stop-color="#6476A0"/>
</linearGradient>
</defs>
</svg>
