<svg width="6" height="1" viewBox="0 0 6 1" fill="none" xmlns="http://www.w3.org/2000/svg">
<path d="M1.59459 0.0917009C1.96772 0.0354154 2.37879 0.00252969 2.83034 0C2.8569 0 2.88283 0 2.90939 0C3.33248 0.00126484 3.72016 0.0297242 4.07558 0.0784206C4.09771 0.0815827 4.11985 0.0847448 4.14198 0.0872745C4.19637 0.0948635 4.25013 0.103717 4.30325 0.112571C4.31843 0.115101 4.3336 0.117631 4.34878 0.120793C4.34942 0.120793 4.35005 0.120793 4.35068 0.120793C5.06152 0.313049 5.32081 0.505937 4.53977 0.403485C4.48412 0.391469 4.42784 0.38135 4.37218 0.371864C4.29819 0.359216 4.2242 0.347199 4.14957 0.336448C2.83224 0.149251 1.42636 0.26119 0.239941 0.662145C-0.0636216 0.764598 -0.0806968 0.706415 0.197569 0.546412C0.581448 0.326962 1.1032 0.184034 1.59585 0.0917009H1.59459Z" fill="url(#paint0_linear_1587_25660)"/>
<defs>
<linearGradient id="paint0_linear_1587_25660" x1="-0.00164419" y1="0.356686" x2="5.01662" y2="0.356686" gradientUnits="userSpaceOnUse">
<stop offset="0.16" stop-color="#D8E3F5"/>
<stop offset="0.49" stop-color="#E8EFFB"/>
</linearGradient>
</defs>
</svg>
