<svg width="7" height="16" viewBox="0 0 7 16" fill="none" xmlns="http://www.w3.org/2000/svg">
<path d="M5.19 11.7471C4.64928 12.9316 4.64232 14.6297 4.61133 15.5505C4.4039 15.5498 4.09844 15.5473 3.79108 15.5435C3.47613 15.5397 2.77478 15.5492 2.71154 15.5467C2.61857 15.5429 2.60529 15.5214 2.5996 15.4733C2.58505 15.3532 2.66031 13.7626 1.93998 12.1835C1.49033 11.1982 0.951507 10.5234 0.528417 9.1567C-0.126772 7.04125 -0.0325408 3.02031 0.0382904 2.32971C0.122402 1.5025 0.278611 0.399556 2.71343 0.04287C3.06443 -0.00898852 3.80816 -0.0463018 4.46777 0.00492437C4.52406 0.0131458 4.57591 0.0226323 4.62461 0.0327511C6.33594 0.334416 6.37895 2.07674 6.44156 2.64402C6.6414 4.44516 6.54401 8.7823 5.19063 11.7471H5.19Z" fill="url(#paint0_linear_1587_25533)"/>
<defs>
<linearGradient id="paint0_linear_1587_25533" x1="-0.0116709" y1="7.766" x2="6.51998" y2="7.766" gradientUnits="userSpaceOnUse">
<stop offset="0.16" stop-color="#D8E3F5"/>
<stop offset="0.52" stop-color="#E8EFFB"/>
</linearGradient>
</defs>
</svg>
