<svg width="6" height="1" viewBox="0 0 6 1" fill="none" xmlns="http://www.w3.org/2000/svg">
<path d="M1.59589 0.0916996C1.97589 0.0341496 2.39519 0.00127 2.85559 0C2.88279 0 2.90939 0 2.93659 0C3.36919 0.00253 3.76509 0.0322602 4.12549 0.0847502C4.14829 0.0879102 4.17039 0.0910696 4.19259 0.0948696C4.24819 0.10309 4.30329 0.11257 4.35699 0.12206C4.37279 0.12459 4.38799 0.12775 4.40319 0.13091C4.40379 0.13091 4.40439 0.13091 4.40509 0.13091C5.18609 0.34214 5.59589 0.59827 4.61189 0.41867C4.55559 0.40665 4.49869 0.39527 4.44179 0.38515C4.36839 0.37123 4.29439 0.35922 4.22039 0.34783C2.88279 0.14356 1.44789 0.25487 0.239894 0.66278C-0.0636065 0.76523 -0.0807067 0.707049 0.197593 0.54705C0.581493 0.3276 1.10319 0.18403 1.59589 0.0916996Z" fill="url(#paint0_linear_1591_39965)"/>
<defs>
<linearGradient id="paint0_linear_1591_39965" x1="-0.000406597" y1="0.35669" x2="5.18989" y2="0.35669" gradientUnits="userSpaceOnUse">
<stop offset="0.16" stop-color="#E9EFF9"/>
<stop offset="0.49" stop-color="#F2F6FD"/>
</linearGradient>
</defs>
</svg>
