<svg width="2" height="1" viewBox="0 0 2 1" fill="none" xmlns="http://www.w3.org/2000/svg">
<path d="M0.00141432 0.1215C-0.0143857 0.119 0.103914 0.0918003 0.270214 0.0620003C0.276614 0.0608003 0.283514 0.0600999 0.290514 0.0588999C0.528414 0.0252999 0.818114 0 1.19961 0C1.37551 0 1.54191 0.00449952 1.71081 0.0164995C1.79241 0.0221995 1.89681 0.0328997 1.99741 0.0467997C1.93911 0.174 2.09861 0.6377 1.89991 0.8743C1.89491 0.8737 1.89041 0.8731 1.88411 0.8718C1.86391 0.868 1.69871 0.8282 1.29771 0.8225C1.28121 0.8225 1.26351 0.8225 1.24641 0.8225C1.22931 0.8225 1.20971 0.8225 1.19071 0.8225C0.701114 0.8225 0.426514 0.8857 0.222214 0.9275C0.200014 0.93 0.201314 0.9104 0.208214 0.9015C0.224714 0.8807 0.241814 0.8693 0.241814 0.8693C0.241814 0.8693 0.225314 0.8649 0.220314 0.8414C0.214614 0.8168 0.236714 0.7921 0.236714 0.7921C0.236114 0.7921 0.228514 0.7864 0.209514 0.7263C0.177914 0.6263 0.139914 0.3682 0.142514 0.2626C0.145014 0.1569 0.202614 0.1057 0.202614 0.1057C0.202614 0.1057 0.0235143 0.126 0.00141432 0.1215Z" fill="url(#paint0_linear_1591_39808)"/>
<defs>
<linearGradient id="paint0_linear_1591_39808" x1="0.000114319" y1="0.4631" x2="2.00371" y2="0.4631" gradientUnits="userSpaceOnUse">
<stop offset="0.16" stop-color="#B6C6DC"/>
<stop offset="0.49" stop-color="#C1CDE1"/>
</linearGradient>
</defs>
</svg>
