<svg width="2" height="3" viewBox="0 0 2 3" fill="none" xmlns="http://www.w3.org/2000/svg">
<path d="M1.30956 0.00189784C1.30956 0.00189784 1.30577 0.0037943 1.3026 0.00632486C1.29628 0.0101207 1.28742 0.0170801 1.27414 0.0284676C1.17418 0.120833 1.10332 0.230913 1.02804 0.347319L1.00653 0.380215C0.783208 0.723106 0.409318 1.52276 0.336564 1.67966C0.220791 1.93018 0.0430192 2.41415 0.00759137 2.7077C0.00506081 2.7077 0.00253056 2.7077 0 2.7077C0.0347952 2.41415 0.212566 1.93082 0.328339 1.68029C0.401093 1.5234 0.774983 0.72374 0.998305 0.380849L1.01982 0.347952C1.0951 0.231546 1.16596 0.121466 1.26591 0.0291009C1.28363 0.0126523 1.29501 0.00505973 1.30134 0.00252917C1.30324 0.00189653 1.30514 0.00126528 1.30577 0C1.30767 0 1.3083 0 1.3083 0C1.30893 0 1.30893 0.00189715 1.30956 0.00316243V0.00189784Z" fill="url(#paint0_linear_1587_25832)"/>
<defs>
<linearGradient id="paint0_linear_1587_25832" x1="0" y1="1.35322" x2="1.30956" y2="1.35322" gradientUnits="userSpaceOnUse">
<stop stop-color="#BACBE6"/>
<stop offset="0.69" stop-color="#9AB0D8"/>
<stop offset="0.72" stop-color="#869BC3"/>
<stop offset="0.75" stop-color="#768AB3"/>
<stop offset="0.79" stop-color="#6B7EA8"/>
<stop offset="0.84" stop-color="#6577A1"/>
<stop offset="1" stop-color="#6476A0"/>
</linearGradient>
</defs>
</svg>
