<svg width="3" height="4" viewBox="0 0 3 4" fill="none" xmlns="http://www.w3.org/2000/svg">
<path d="M1.88221 2.07561C1.87272 2.59103 1.92901 2.9376 1.85185 3.10962C1.67667 3.08748 1.50339 3.0742 1.25485 3.0742C0.809621 3.0742 0.590171 3.10898 0.43839 3.13744C0.307479 3.15072 0.267003 3.09381 0.261944 3.02045C0.249295 2.8421 0.270798 2.52589 0.274593 2.32858C0.285344 1.76572 0.232221 1.37994 0.15886 0.965076C0.0627316 0.418664 -0.0327638 0.216288 0.0108733 0.197948C0.428271 0.0240323 0.927252 0 1.24599 0C1.49453 0 1.77406 0.00189811 2.13391 0.0898047C1.9834 1.01061 1.89486 1.35022 1.88158 2.07624L1.88221 2.07561Z" fill="url(#paint0_linear_1587_25580)"/>
<defs>
<linearGradient id="paint0_linear_1587_25580" x1="0.000122118" y1="1.56967" x2="2.13454" y2="1.56967" gradientUnits="userSpaceOnUse">
<stop offset="0.16" stop-color="#D1DDF3"/>
<stop offset="0.49" stop-color="#E3ECFA"/>
</linearGradient>
</defs>
</svg>
