<svg width="3" height="4" viewBox="0 0 3 4" fill="none" xmlns="http://www.w3.org/2000/svg">
<path d="M1.9138 2.0585C1.8993 2.6049 1.9587 2.9376 1.8803 3.1134C1.7045 3.09 1.5167 3.0742 1.2548 3.0742C0.8096 3.0742 0.5902 3.109 0.4384 3.1374C0.3075 3.1507 0.267 3.0938 0.2619 3.0204C0.2493 2.8421 0.2708 2.5259 0.2746 2.3286C0.2853 1.7657 0.232199 1.3799 0.1589 0.965099C0.0626995 0.418699 -0.0328003 0.2163 0.0108997 0.1979C0.4283 0.0239998 0.9273 0 1.246 0C1.5053 0 1.7975 0.00249997 2.1801 0.1018C2.0232 0.9815 1.9328 1.3679 1.9138 2.0585Z" fill="url(#paint0_linear_1591_39895)"/>
<defs>
<linearGradient id="paint0_linear_1591_39895" x1="-0.000500279" y1="1.5697" x2="2.1794" y2="1.5697" gradientUnits="userSpaceOnUse">
<stop offset="0.16" stop-color="#D9E4F5"/>
<stop offset="0.49" stop-color="#E8EFFB"/>
</linearGradient>
</defs>
</svg>
