<svg width="18" height="19.799997329711914" viewBox="0 0 18 19.799997329711914" fill="none" xmlns="http://www.w3.org/2000/svg">
<path fill-rule="evenodd" clip-rule="evenodd" d="M13.5 3.6V2.7C13.5 1.20883 12.2912 0 10.8 0H7.2C5.70883 0 4.5 1.20883 4.5 2.7V3.6H0.9C0.402944 3.6 0 4.00294 0 4.5C0 4.99706 0.402944 5.4 0.9 5.4H1.8V17.1C1.8 18.5912 3.00883 19.8 4.5 19.8H13.5C14.9912 19.8 16.2 18.5912 16.2 17.1V5.4H17.1C17.5971 5.4 18 4.99706 18 4.5C18 4.00294 17.5971 3.6 17.1 3.6H13.5ZM6.3 3.6H11.7V2.7C11.7 2.20294 11.2971 1.8 10.8 1.8H7.2C6.70294 1.8 6.3 2.20294 6.3 2.7V3.6ZM3.6 5.4V17.1C3.6 17.5971 4.00294 18 4.5 18H13.5C13.9971 18 14.4 17.5971 14.4 17.1V5.4H3.6Z" fill="black"/>
</svg>
