<svg width="118.09945678710938" height="19.648025512695312" viewBox="0 0 118.09945678710938 19.648025512695312" fill="none" xmlns="http://www.w3.org/2000/svg">
<path d="M46.3234 1.7996C46.3234 0.8047 47.1264 0 48.1149 0C49.1068 0 49.9129 0.8047 49.9129 1.7996C49.9129 2.79321 49.1068 3.59876 48.1149 3.59876C47.1264 3.59876 46.3234 2.79321 46.3234 1.7996Z" fill="#273B7D"/>
<path d="M74.644 13.7695C74.644 12.7742 75.4466 11.9686 76.4351 11.9686C77.4266 11.9686 78.2326 12.7742 78.2326 13.7695C78.2326 14.7622 77.4266 15.5687 76.4351 15.5687C75.4466 15.5687 74.644 14.7622 74.644 13.7695Z" fill="#499FDD"/>
<path d="M16.8646 12.9916C15.3188 12.9916 14.2445 11.7639 14.2445 10.0095C14.2445 8.25555 15.3188 7.02866 16.8646 7.02866C18.4194 7.02866 19.5055 8.25555 19.5055 10.0095C19.5055 11.7916 18.442 12.9916 16.8646 12.9916ZM16.8646 4.40774C13.5941 4.40774 11.2206 6.76426 11.2206 10.0095C11.2206 13.2548 13.5941 15.6109 16.8646 15.6109C20.1474 15.6109 22.5308 13.2548 22.5308 10.0095C22.5308 6.76426 20.1474 4.40774 16.8646 4.40774Z" fill="#273B7D"/>
<path d="M42.847 10.2897C42.7199 10.0505 42.5741 9.84789 42.4188 9.68713L42.3199 9.58221L42.424 9.48243C42.5741 9.32422 42.7276 9.13658 42.8756 8.9191L45.7617 4.62864H42.2581L40.0896 7.98475C39.9668 8.16471 39.719 8.25555 39.348 8.25555H38.8538V1.91048C38.8538 0.641377 38.0631 0.468665 37.209 0.468665H35.7468L35.7492 15.4458H38.8538V10.9532H39.1446C39.4985 10.9532 39.7395 10.9942 39.85 11.1865L41.5626 14.419C42.041 15.2962 42.5177 15.4458 43.4146 15.4458H45.7938L44.0218 12.5149L42.847 10.2897Z" fill="#273B7D"/>
<path d="M57.9183 4.38385C56.3392 4.38385 55.3316 5.08535 54.767 5.67854L54.5785 5.86916L54.5119 5.60989C54.3461 4.97448 53.787 4.62479 52.9456 4.62479H51.5543L51.563 15.442H54.6464V10.4564C54.6464 9.969 54.7098 9.54597 54.8386 9.16004C55.1819 7.992 56.1393 7.26576 57.3359 7.26576C58.2984 7.26576 58.6745 7.77366 58.6745 9.08626V13.7976C58.6745 14.9179 59.1926 15.442 60.3137 15.442H61.7811L61.7761 8.56216C61.7761 5.82865 60.4421 4.38385 57.9183 4.38385Z" fill="#273B7D"/>
<path d="M48.1558 4.62949H46.6943L46.7043 12.9934L46.7033 15.4446H48.2633C48.2829 15.4446 48.2987 15.4467 48.3183 15.4467L49.045 15.4446H49.7682V15.4403H49.7733L49.7795 6.27174C49.7795 5.16554 49.2496 4.62949 48.1558 4.62949Z" fill="#273B7D"/>
<path d="M28.976 12.9916C27.4302 12.9916 26.3538 11.7639 26.3538 10.0095C26.3538 8.25555 27.4302 7.02866 28.976 7.02866C30.5275 7.02866 31.6166 8.25555 31.6166 10.0095C31.6166 11.7916 30.5535 12.9916 28.976 12.9916ZM28.976 4.40774C25.7022 4.40774 23.3282 6.76426 23.3282 10.0095C23.3282 13.2548 25.7022 15.6109 28.976 15.6109C32.2554 15.6109 34.6426 13.2548 34.6426 10.0095C34.6426 6.76426 32.2554 4.40774 28.976 4.40774Z" fill="#273B7D"/>
<path d="M95.0692 12.9916C93.524 12.9916 92.4469 11.7639 92.4469 10.0095C92.4469 8.25555 93.524 7.02866 95.0692 7.02866C96.6209 7.02866 97.7105 8.25555 97.7105 10.0095C97.7105 11.7916 96.6469 12.9916 95.0692 12.9916ZM95.0692 4.40774C91.7962 4.40774 89.4221 6.76426 89.4221 10.0095C89.4221 13.2548 91.7962 15.6109 95.0692 15.6109C98.3489 15.6109 100.736 13.2548 100.736 10.0095C100.736 6.76426 98.3489 4.40774 95.0692 4.40774Z" fill="#499FDD"/>
<path d="M68.2776 12.5157C66.5919 12.5157 65.9919 11.0449 65.9919 9.66665C65.9919 9.0594 66.1454 7.08026 68.1156 7.08026C69.0948 7.08026 70.3997 7.36086 70.3997 9.76858C70.3997 12.0394 69.2449 12.5157 68.2776 12.5157ZM72.0005 4.60049C71.4154 4.60049 70.9651 4.83375 70.7395 5.25978L70.6543 5.42523L70.5114 5.30114C70.0136 4.87042 69.1213 4.35955 67.6721 4.35955C64.7889 4.35955 62.8478 6.52504 62.8478 9.74767C62.8478 12.9665 64.8563 15.216 67.7301 15.216C68.7118 15.216 69.4875 14.987 70.1024 14.5213L70.3404 14.3426V14.6433C70.3404 16.0881 69.406 16.8851 67.7123 16.8851C66.8892 16.8851 66.1399 16.6847 65.6389 16.503C64.9847 16.3056 64.6013 16.4689 64.336 17.1252L64.0913 17.7307L63.745 18.6152L63.9595 18.7295C65.0435 19.3047 66.4546 19.648 67.7301 19.648C70.3561 19.648 73.4223 18.3039 73.4223 14.5213L73.4335 4.60049H72.0005Z" fill="#273B7D"/>
<path d="M5.38124 12.8676L2.87125 12.865V9.86416C2.87125 9.22279 3.11988 8.8893 3.66951 8.81255H5.38124C6.60299 8.81255 7.39239 9.58314 7.39326 10.8296C7.39239 12.109 6.62262 12.8667 5.38124 12.8676ZM2.87125 3.98256C2.87125 3.2913 3.16374 2.96251 3.80562 2.92029H5.08995C6.19145 2.92029 6.8512 3.57957 6.8512 4.68236C6.8512 5.52331 6.39959 6.50456 5.13046 6.50456H2.87125V3.98256ZM8.58688 7.76726L8.13309 7.51225L8.52921 7.17365C8.98983 6.77749 9.76212 5.88708 9.76212 4.34846C9.76212 1.99448 7.93614 0.475051 5.11002 0.475051H1.88484L1.51764 0.4742C0.679764 0.504913 0.009375 1.18636 0 2.02945V15.3912H1.4801C1.48385 15.3921 1.48636 15.3921 1.48636 15.3921L5.17372 15.3912C8.31535 15.3912 10.3431 13.6812 10.3431 11.0326C10.3431 9.60653 9.68838 8.38731 8.58688 7.76726Z" fill="#273B7D"/>
<path d="M114.51 4.41883C113.23 4.41883 111.993 5.01798 111.199 6.02268L110.976 6.30584L110.801 5.98899C110.23 4.94761 109.247 4.41883 107.88 4.41883C106.447 4.41883 105.485 5.2184 105.039 5.69389L104.747 6.01031L104.634 5.5941C104.471 4.99495 103.938 4.66488 103.13 4.66488H101.834L101.821 15.4403H104.766V10.6837C104.766 10.2671 104.818 9.85471 104.922 9.42358C105.203 8.27431 105.976 7.03805 107.274 7.16171C108.075 7.23848 108.466 7.85725 108.466 9.05258V15.4403H111.432V10.6837C111.432 10.163 111.48 9.77326 111.598 9.38221C111.836 8.28498 112.643 7.16001 113.896 7.16001C114.802 7.16001 115.137 7.67345 115.137 9.05258V13.865C115.137 14.9537 115.623 15.4403 116.711 15.4403H118.097L118.099 8.56131C118.099 5.8133 116.89 4.41883 114.51 4.41883Z" fill="#499FDD"/>
<path d="M87.7172 11.6991C87.7084 11.7097 86.4412 13.0458 84.773 13.0458C83.2531 13.0458 81.7175 12.1132 81.7175 10.0313C81.7175 8.2338 82.9081 6.97749 84.6122 6.97749C85.1657 6.97749 85.7952 7.17579 85.8937 7.50926L85.9082 7.56556C86.135 8.32165 86.8222 8.36216 86.9573 8.36216L88.5705 8.36391V6.95366C88.5705 5.09351 86.2045 4.41888 84.6122 4.41888C81.2075 4.41888 78.737 6.78948 78.737 10.0539C78.737 13.3171 81.1806 15.6843 84.55 15.6843C87.4732 15.6843 89.063 13.7627 89.0779 13.7435L89.1628 13.6395L87.8852 11.52L87.7172 11.6991Z" fill="#499FDD"/>
</svg>
