<svg width="20.00143051147461" height="20.00143051147461" viewBox="0 0 20.00143051147461 20.00143051147461" fill="none" xmlns="http://www.w3.org/2000/svg">
<path fill-rule="evenodd" clip-rule="evenodd" d="M3.49988 6.75073C3.49988 7.16494 3.83566 7.50073 4.24988 7.50073H15.7516C16.1658 7.50073 16.5016 7.16494 16.5016 6.75073C16.5016 6.33652 16.1658 6.00073 15.7516 6.00073H4.24988C3.83566 6.00073 3.49988 6.33652 3.49988 6.75073ZM6.25122 11.5007C5.837 11.5007 5.50122 11.1649 5.50122 10.7507C5.50122 10.3365 5.837 10.0007 6.25122 10.0007H13.7502C14.1644 10.0007 14.5002 10.3365 14.5002 10.7507C14.5002 11.1649 14.1644 11.5007 13.7502 11.5007H6.25122ZM7.50073 14.7507C7.50073 15.1649 7.83652 15.5007 8.25073 15.5007H11.7478C12.162 15.5007 12.4978 15.1649 12.4978 14.7507C12.4978 14.3365 12.162 14.0007 11.7478 14.0007H8.25073C7.83652 14.0007 7.50073 14.3365 7.50073 14.7507ZM10.0007 20.0014C4.47748 20.0014 0 15.524 0 10.0007C0 4.47748 4.47748 0 10.0007 0C15.524 0 20.0014 4.47748 20.0014 10.0007C20.0014 15.524 15.524 20.0014 10.0007 20.0014ZM10.0007 18.5009C14.6953 18.5009 18.5009 14.6953 18.5009 10.0007C18.5009 5.30617 14.6953 1.50049 10.0007 1.50049C5.30617 1.50049 1.50049 5.30617 1.50049 10.0007C1.50049 14.6953 5.30617 18.5009 10.0007 18.5009Z" fill="black"/>
</svg>
