<svg width="18.734800338745117" height="21.738073348999023" viewBox="0 0 18.734800338745117 21.738073348999023" fill="none" xmlns="http://www.w3.org/2000/svg">
<path d="M6.1837 15.7196V10.3913H4.90435V9.09567H7.56088V15.7196H6.1837ZM9.98588 15.7196C9.67421 15.7196 9.41296 15.6149 9.20213 15.4054C8.99129 15.1959 8.88588 14.9363 8.88588 14.6266V10.1886C8.88588 9.87893 8.99129 9.61937 9.20213 9.4099C9.41296 9.20042 9.67421 9.09567 9.98588 9.09567H12.3294C12.641 9.09567 12.9023 9.20042 13.1131 9.4099C13.324 9.61937 13.4294 9.87893 13.4294 10.1886V14.6266C13.4294 14.9363 13.324 15.1959 13.1131 15.4054C12.9023 15.6149 12.641 15.7196 12.3294 15.7196H9.98588ZM10.2772 14.3989H12.0522V10.3913H10.2772V14.3989ZM9.37218 21.7381C8.07189 21.7381 6.85288 21.4963 5.71513 21.0128C4.57738 20.5293 3.58223 19.8614 2.72968 19.0091C1.87713 18.1567 1.20904 17.1628 0.725425 16.0272C0.241808 14.8917 0 13.6738 0 12.3736C0 11.0694 0.24275 9.84923 0.72825 8.71303C1.21377 7.57681 1.88134 6.58388 2.73098 5.73425C3.58061 4.88462 4.57523 4.21704 5.71483 3.73152C6.85443 3.24602 8.07666 3.00327 9.38153 3.00327H9.90653L8.05545 1.15217L9.1935 0L13.137 3.9435L9.1935 7.90112L8.05545 6.76307L9.82065 4.99785H9.38153C7.32051 4.99785 5.57174 5.71145 4.13523 7.13865C2.69871 8.56583 1.98045 10.3075 1.98045 12.3637C1.98045 14.42 2.69692 16.164 4.12985 17.5958C5.56278 19.0276 7.30779 19.7435 9.36487 19.7435C11.422 19.7435 13.1678 19.0299 14.6024 17.6028C16.037 16.1756 16.7544 14.4316 16.7544 12.3707H18.7348C18.7348 13.6772 18.4932 14.8974 18.01 16.0314C17.5267 17.1653 16.8591 18.1572 16.0072 19.0069C15.1553 19.8567 14.1616 20.5243 13.026 21.0098C11.8904 21.4953 10.6725 21.7381 9.37218 21.7381Z" fill="black"/>
</svg>
