<svg width="18" height="21" viewBox="0 0 18 21" fill="none" xmlns="http://www.w3.org/2000/svg">
<path fill-rule="evenodd" clip-rule="evenodd" d="M10 7.5V13H8V7.5C8 7.22386 8.2239 7 8.5 7H9.5C9.7761 7 10 7.22386 10 7.5ZM11.5 0C11.7761 0 12 0.22386 12 0.5V2H10V3.05545C11.7316 3.24864 13.3171 3.93768 14.62 4.98L15.719 3.88099C15.9011 3.69892 16.1926 3.68397 16.3833 3.85693C16.6499 4.09865 16.9047 4.356 17.1478 4.62419C17.3222 4.81662 17.3089 5.1111 17.1253 5.29474L16.03 6.39C17.26 7.93 18 9.88 18 12C18 16.97 13.98 21 9 21C4.02 21 0 16.97 0 12C0 7.36801 3.50049 3.5525 8 3.05495V2H6V0.5C6 0.22386 6.22386 0 6.5 0H11.5ZM2 12C2 15.87 5.13 19 9 19C12.87 19 16 15.87 16 12C16 8.13 12.87 5 9 5C5.13 5 2 8.13 2 12Z" fill="black"/>
</svg>
