<svg width="22" height="22" viewBox="0 0 22 22" fill="none" xmlns="http://www.w3.org/2000/svg">
<path fill-rule="evenodd" clip-rule="evenodd" d="M11 12C12.933 12 14.5 10.433 14.5 8.5C14.5 6.567 12.933 5 11 5C9.067 5 7.5 6.567 7.5 8.5C7.5 10.433 9.067 12 11 12ZM22 11C22 17.0751 17.0751 22 11 22C4.92487 22 0 17.0751 0 11C0 4.92487 4.92487 0 11 0C17.0751 0 22 4.92487 22 11ZM17.9089 16.7681C16.7577 14.8144 14.0622 13.5 11 13.5C7.94166 13.5 5.24382 14.8117 4.09115 16.7682C2.78569 15.2062 2 13.1949 2 11C2 6.02944 6.02944 2 11 2C15.9706 2 20 6.02944 20 11C20 13.1948 19.2144 15.2061 17.9089 16.7681Z" fill="black"/>
</svg>
