<svg width="9" height="13" viewBox="0 0 9 13" fill="none" xmlns="http://www.w3.org/2000/svg">
<path d="M7.55394 0.000271797H6.28543V0.00340271L6.28113 0.000271797L5.24008 2.98732H5.23765L4.07381 6.32671L2.91007 2.98732H2.90755L1.8665 0.000271797L1.86043 0.00482655V0.000271797H0.591818C0.265002 0.000271797 0 0.269491 0 0.601628V12.127H1.86043V5.33286L1.92495 5.51858C1.9284 5.52845 1.93373 5.53689 1.93727 5.54667L2.96852 8.50562C2.96871 8.50648 2.96917 8.50705 2.96945 8.5078L3.22745 9.24818C3.50973 10.0579 4.6365 10.0581 4.91905 9.24837L5.17481 8.51549C5.17602 8.51217 5.17799 8.50913 5.17911 8.50562L6.21035 5.54667C6.2139 5.53689 6.21922 5.52845 6.22268 5.51858L6.28543 5.33799V12.127H8.14576V0.601628C8.14576 0.269491 7.88085 0.000271797 7.55394 0.000271797Z" fill="white"/>
</svg>
