<svg width="54" height="16" viewBox="0 0 54 16" fill="none" xmlns="http://www.w3.org/2000/svg">
<path d="M46.1711 0.00465012C47.0688 0.00465012 47.3666 0.482832 47.5593 1.03693L53.2857 15.8842L50.0143 15.8853L48.8871 12.9645H45.1586L46.1777 10.0405H47.7597L45.7542 4.84245L41.9064 15.8853L38.8555 15.8842L44.03 1.03693C44.2223 0.483401 44.5198 0.00465012 45.4185 0.00465012H46.1711ZM32.0262 9.3802H39.0927V6.50095H32.0258L32.0262 4.99381C32.0262 3.33152 32.5958 2.92261 34.0637 2.92261H39.7472V0.000284195H33.8915C31.1784 0.000284195 28.9785 1.23773 28.9785 4.66092V14.7166C28.9785 15.4561 29.4582 15.882 30.1246 15.882H32.0316L32.0262 9.3802ZM26.8663 2.92261V0H17.2438C16.5778 0 16.097 0.426179 16.097 1.16457V11.2213C16.097 14.645 18.2969 15.882 21.0106 15.882H26.8663V12.959H21.1822C19.715 12.959 19.1453 12.5508 19.1453 10.889V9.3802H26.2111V6.50095H19.1453V2.92261H26.8663ZM4.06401 11.875C3.29412 11.0771 3.04724 10.2793 3.05041 8.59436L3.04826 0H0V9.39994C0.00317479 11.3633 0.57174 12.8831 1.73847 14.042C3.0547 15.3527 4.66824 15.9657 6.74521 15.9711C8.82105 15.9657 10.4357 15.3527 11.7519 14.042C12.9187 12.8831 13.4868 11.3633 13.4894 9.39889V0H10.4417L10.44 8.59436C10.4433 10.2793 10.1964 11.0771 9.42585 11.875C8.79733 12.5354 7.80269 12.8986 6.74521 12.8963C5.68726 12.8974 4.69317 12.5354 4.06401 11.875Z" fill="white"/>
</svg>
