<svg width="60" height="60" viewBox="0 0 60 60" fill="none" xmlns="http://www.w3.org/2000/svg">
<path fill-rule="evenodd" clip-rule="evenodd" d="M0 30C0 13.44 13.44 0 30 0C46.56 0 60 13.44 60 30C60 46.56 46.56 60 30 60C13.44 60 0 46.56 0 30ZM40.3992 28.7316L25.6272 18.2105C25.3632 18.0226 25.0476 17.9216 24.7236 17.9216C23.8634 17.9216 23.166 18.6189 23.1661 19.4791L23.1663 40.5207C23.1663 40.8447 23.2673 41.1606 23.4552 41.4243C23.9542 42.1251 24.9267 42.2886 25.6275 41.7894L40.3992 31.2687C40.5405 31.1682 40.6638 31.0449 40.7643 30.9036C41.2632 30.2031 41.0997 29.2305 40.3992 28.7316Z" fill="white"/>
</svg>
