<svg width="22" height="22" viewBox="0 0 22 22" fill="none" xmlns="http://www.w3.org/2000/svg">
<path fill-rule="evenodd" clip-rule="evenodd" d="M9.36176 2L8.96406 4.79405L8.43065 5.01017C7.87256 5.23625 7.35976 5.51113 6.9378 5.83934L6.48886 6.18852L3.78499 5.12991L2.16598 7.84526L4.45464 9.5799L4.36372 10.1691C4.3166 10.4746 4.28971 10.7364 4.28971 11C4.28971 11.2585 4.3149 11.5111 4.34832 11.8353L4.41057 12.4405L2.16065 14.1458L3.78499 16.8701L6.47916 15.8153L6.92523 16.151C7.39597 16.5054 7.88362 16.7908 8.42188 17.003L8.96326 17.2164L9.35936 20H12.6455L13.0431 17.2059L13.5766 16.9898C14.1104 16.7736 14.6176 16.4839 15.082 16.1344L15.5281 15.7986L18.2222 16.8534L19.8412 14.1381L17.5483 12.4002L17.6447 11.8064C17.6847 11.5603 17.7004 11.2844 17.7004 11C17.7004 10.7414 17.6752 10.4889 17.6418 10.1646L17.5795 9.5595L19.8412 7.84526L18.2222 5.12991L15.5281 6.18472L15.082 5.84895C14.6113 5.49461 14.1236 5.20917 13.5853 4.997L13.044 4.78363L12.6479 2H9.36176ZM7.4528 1.23185C7.59131 0.55853 8.17361 0 8.94656 0H13.0607C13.8173 0 14.4057 0.53986 14.5515 1.20144L14.5596 1.23835L14.8638 3.37556C15.1997 3.53852 15.5172 3.72196 15.8202 3.92252L17.8911 3.11172L17.9095 3.10533C18.5696 2.87612 19.3209 3.10634 19.7168 3.73185L19.7239 3.74311L21.7826 7.19596C22.211 7.88906 21.9701 8.72068 21.4314 9.1493L21.4222 9.1565L19.6795 10.4774C19.6919 10.6446 19.7004 10.8195 19.7004 11C19.7004 11.1627 19.6963 11.3344 19.6856 11.5106L21.4429 12.8425L21.4711 12.8674C21.9408 13.2826 22.2253 14.0719 21.7826 14.7875L19.7239 18.2402L19.7168 18.2515C19.3209 18.877 18.5696 19.1072 17.9095 18.878L17.8911 18.8716L15.8187 18.0602C15.513 18.2608 15.1942 18.4428 14.8643 18.604L14.5606 20.738L14.5544 20.7682C14.4159 21.4415 13.8336 22 13.0607 22H8.94656C8.18991 22 7.60154 21.4601 7.45573 20.7986L7.4476 20.7616L7.14345 18.6244C6.8075 18.4615 6.49004 18.278 6.18701 18.0775L4.11612 18.8883L4.09771 18.8947C3.43761 19.1239 2.68637 18.8937 2.29046 18.2681L2.28334 18.2569L0.224659 14.8041C-0.187111 14.1384 3.8743e-05 13.3427 0.518979 12.8841L0.547199 12.8591L2.31058 11.5226C2.29822 11.3554 2.28971 11.1805 2.28971 11C2.28971 10.8162 2.29837 10.639 2.31309 10.4663L0.564339 9.1409L0.536119 9.1159C0.0663788 8.70074 -0.218121 7.91138 0.224689 7.1958L2.28334 3.74311L2.29046 3.73186C2.68637 3.10634 3.43761 2.87612 4.09771 3.10533L4.11611 3.11172L6.18658 3.92235C6.49568 3.72193 6.81807 3.54611 7.14353 3.39167L7.44661 1.26198L7.4528 1.23185ZM10.8362 9C9.73156 9 8.83616 9.8954 8.83616 11C8.83616 12.1046 9.73156 13 10.8362 13C11.9407 13 12.8362 12.1046 12.8362 11C12.8362 9.8954 11.9407 9 10.8362 9ZM6.83612 11C6.83612 8.79086 8.62698 7 10.8362 7C13.0453 7 14.8362 8.79086 14.8362 11C14.8362 13.2091 13.0453 15 10.8362 15C8.62698 15 6.83612 13.2091 6.83612 11Z" fill="black"/>
</svg>
