<svg width="19.932737350463867" height="16.039247512817383" viewBox="0 0 19.932737350463867 16.039247512817383" fill="none" xmlns="http://www.w3.org/2000/svg">
<path fill-rule="evenodd" clip-rule="evenodd" d="M13.8579 1.45963C12.7432 1.45963 11.8396 2.36324 11.8396 3.4779C11.8396 4.59256 12.7432 5.49617 13.8579 5.49617C14.9726 5.49617 15.8762 4.59256 15.8762 3.4779C15.8762 2.36324 14.9726 1.45963 13.8579 1.45963ZM10.38 3.4779C10.38 1.55711 11.9371 0 13.8579 0C15.7787 0 17.3358 1.55711 17.3358 3.4779C17.3358 5.39869 15.7787 6.9558 13.8579 6.9558C11.9371 6.9558 10.38 5.39869 10.38 3.4779Z" fill="black"/>
<path fill-rule="evenodd" clip-rule="evenodd" d="M13.8579 9.22762C11.6413 9.22762 9.59208 11.3421 9.24411 14.42C9.24007 14.4557 9.24952 14.4864 9.2791 14.517C9.31212 14.5512 9.36763 14.5796 9.43764 14.5796H18.2789C18.3488 14.5796 18.404 14.5513 18.4368 14.5173C18.4662 14.4868 18.4758 14.4561 18.4717 14.42C18.1237 11.3421 16.0745 9.22762 13.8579 9.22762ZM7.79372 14.256C8.19233 10.7303 10.6394 7.76799 13.8579 7.76799C17.0765 7.76799 19.5235 10.7303 19.9221 14.256C20.0376 15.2774 19.195 16.0392 18.2789 16.0392H9.43764C8.52233 16.0392 7.67816 15.2781 7.79372 14.256Z" fill="black"/>
<path fill-rule="evenodd" clip-rule="evenodd" d="M6.19527 1.45963C5.08061 1.45963 4.177 2.36324 4.177 3.4779C4.177 4.59256 5.08061 5.49617 6.19527 5.49617C7.30993 5.49617 8.21355 4.59256 8.21355 3.4779C8.21355 2.36324 7.30993 1.45963 6.19527 1.45963ZM2.71737 3.4779C2.71737 1.55711 4.27448 0 6.19527 0C8.11607 0 9.67317 1.55711 9.67317 3.4779C9.67317 5.39869 8.11607 6.9558 6.19527 6.9558C4.27448 6.9558 2.71737 5.39869 2.71737 3.4779Z" fill="black"/>
<path fill-rule="evenodd" clip-rule="evenodd" d="M6.07483 9.22765C3.85825 9.22765 1.809 11.3421 1.46102 14.42C1.45701 14.4555 1.46637 14.4861 1.49607 14.5169C1.52923 14.5512 1.58492 14.5796 1.65498 14.5796H6.55361C6.95668 14.5796 7.28343 14.9064 7.28343 15.3094C7.28343 15.7125 6.95668 16.0392 6.55361 16.0392H1.65498C0.740148 16.0392 -0.104974 15.2786 0.0106367 14.256C0.409249 10.7303 2.85627 7.76802 6.07483 7.76802C6.96737 7.76802 7.81231 8.00243 8.56978 8.41738C8.92328 8.61103 9.05286 9.05458 8.85921 9.40808C8.66556 9.76158 8.222 9.89116 7.86851 9.69751C7.31157 9.39241 6.7063 9.22765 6.07483 9.22765Z" fill="black"/>
</svg>
