<svg width="6.100195407867432" height="8.21799373626709" viewBox="0 0 6.100195407867432 8.21799373626709" fill="none" xmlns="http://www.w3.org/2000/svg">
<path d="M4.72097 0.0303111C4.64952 0.0205682 4.4027 0 4.33125 0C3.98808 0 4.1667 0.17429 4.1667 0.17429C4.1667 0.17429 3.8939 0.211097 3.78024 0.313939C3.66549 0.417863 3.45764 0.6636 3.45764 0.6636C3.45764 0.6636 3.36454 0.696076 3.30825 0.729635C3.25196 0.766442 3.0939 0.885521 3.07009 1.02192C3.05385 1.11286 3.04302 1.22219 3.1123 1.33802C3.18159 1.45602 3.30067 1.61407 3.30067 1.61407C3.30067 1.61407 3.33315 1.67145 3.30067 1.73857C3.27252 1.8046 3.22597 1.9724 3.22597 1.9724C3.22597 1.9724 3.06143 2.05467 3.01163 2.11096C2.96291 2.16725 2.728 2.20189 2.67388 2.24953C2.6165 2.30041 2.46603 2.43031 2.3621 2.78214C2.24411 2.88823 2.18024 3.02138 2.18024 3.02138L1.56643 2.40217C1.56643 2.40217 1.48741 2.1521 1.37266 2.11204C1.33477 2.09689 1.06197 2.00595 0.997016 1.97889C0.7686 1.89553 0.729627 1.96157 0.776177 2.02219C0.821643 2.08606 0.962375 2.1521 0.997016 2.17267C1.03166 2.19215 1.04789 2.43464 0.467651 2.34154C0.444917 2.33721 0.287949 2.24087 0.193767 2.20406C-0.0552178 2.12179 -0.0119158 2.35995 0.0400463 2.40325C0.0920084 2.44871 0.340994 2.7042 0.399452 2.7226C0.453579 2.73884 1.15723 2.76807 1.15723 2.76807C1.15723 2.76807 1.64005 3.6774 1.70608 3.76942C1.77536 3.85927 2.04275 4.11367 2.15209 4.1364C2.26034 4.1613 2.58294 4.04114 2.74532 3.74777L2.80595 4.9364C2.80595 4.9364 1.705 5.18214 1.50256 5.34885C1.08687 5.67686 1.82083 6.92936 2.06982 7.2617C2.14668 7.37104 2.0893 7.39486 2.0893 7.39486C2.0893 7.39486 1.31961 7.81922 1.30879 7.8571C1.23626 7.83437 1.17347 7.882 1.17347 7.882C1.17347 7.882 1.13775 7.93288 1.16373 7.95886C1.18971 7.98376 1.31853 8.08011 1.41813 8.07037C1.51664 8.06062 2.06224 8.02815 2.18998 8.03356C2.31664 8.03897 2.47902 8.06171 2.56021 8.07037C2.64357 8.08011 2.82002 8.14939 2.95859 8.07037C3.1004 7.99351 3.07875 7.86035 3.06251 7.7272C3.04844 7.59513 3.01163 7.07984 3.01163 7.07984C3.01163 7.07984 2.99647 6.48336 2.98565 6.41083C3.13612 6.42923 3.37861 6.48768 3.42516 6.45846C3.5031 6.41515 3.58105 6.54723 3.58105 6.54723C3.58105 6.54723 3.83653 6.74533 3.94803 6.72693C4.06386 6.70419 4.08335 6.69553 4.14181 6.52666C4.18186 6.46495 4.2165 6.48119 4.2165 6.63708C4.2165 6.79296 4.1418 8.24574 4.82814 8.21759C5.25358 8.20027 5.55777 7.99783 5.55777 7.99783C5.55777 7.99783 5.67577 8.16022 5.84248 8.10392C6.27658 7.94479 6.0395 7.55183 6.00162 7.4912C5.96589 7.43166 5.76995 6.99432 5.64329 6.98457C5.64979 6.80054 5.62056 6.52666 5.587 6.45196C5.60649 6.41082 5.68227 6.24953 5.68227 6.17158C5.68227 6.09364 5.55669 5.68552 5.32178 5.44303C5.27306 5.05656 5.08145 4.47848 5.08145 4.47848C5.08145 4.47848 5.33369 4.57267 5.41055 4.58133C5.49065 4.59324 5.55236 4.55535 5.60216 4.49472C5.65412 4.43518 5.79918 4.23924 5.79918 4.23924C5.79918 4.23924 5.91393 3.94262 5.84573 3.64493C5.77861 3.34939 5.64005 2.86333 5.64005 2.86333C5.64005 2.86333 5.57401 2.39351 5.3391 2.28742C5.10527 2.18024 5.05872 2.1889 5.05872 2.1889C5.05872 2.1889 4.98403 2.08823 5.03924 2.06766C5.09661 2.04817 5.18321 1.98105 5.2092 1.94966C5.23409 1.91935 5.27739 1.75589 5.27739 1.75589C5.27739 1.75589 5.41271 1.68769 5.41271 1.29472C5.41271 1.29472 5.45601 1.02084 5.35317 0.892017C5.35317 0.77402 5.2709 0.698241 5.2709 0.698241L5.11934 0.535859C5.11934 0.535859 5.14099 0.333424 5.04789 0.309608C4.95588 0.286874 4.88768 0.261975 4.88768 0.261975C4.88768 0.261975 4.88118 0.0530452 4.72205 0.0259816" fill="#BDBBBB"/>
</svg>
