<svg width="4.094274997711182" height="5.156924247741699" viewBox="0 0 4.094274997711182 5.156924247741699" fill="none" xmlns="http://www.w3.org/2000/svg">
<path d="M3.67425 2.91446C3.42418 2.62218 3.24231 2.1307 3.40578 2.04193C3.56924 1.95208 3.72513 2.07657 3.8258 2.1307C3.97303 2.21189 4.04881 2.15668 4.0369 1.96074C4.03149 1.80702 4.01417 1.66196 3.99685 1.52556C3.94813 1.10445 3.72513 0.643286 3.55517 0.459253C3.26829 0.151811 2.44881 -0.204346 1.93676 0.143151C1.78737 0.243827 1.67587 0.407291 1.58169 0.603232C1.54597 0.672515 1.64773 0.76886 1.61741 0.845721C1.42797 1.3058 1.14218 1.83625 0.809836 2.17617C0.793598 2.19349 1.94326 2.28767 3.57032 3.48172C3.71322 3.58564 3.43934 4.16588 3.34407 4.13666C3.29428 4.13124 3.51187 3.64843 3.34948 3.55858C2.60361 3.13963 2.16193 3.08767 1.60226 2.88523C1.46694 2.8376 1.07722 3.0855 0.974383 2.99241C0.835818 2.80946 0.408213 2.60052 0.365993 2.57996C0.382231 2.58862 0.434194 2.62759 0.454762 2.80946C0.508889 3.26954 -0.349568 2.80945 0.377901 3.54667C0.583585 3.75019 0.776277 3.90932 0.929999 3.84329C1.16166 3.84004 1.05666 3.87251 1.08047 3.92664L1.20496 4.22001C1.22878 4.27738 1.25584 4.27089 1.26559 4.21243L1.32296 3.90391C1.3327 3.84545 1.39008 3.79782 1.45178 3.79998C1.45178 3.79998 2.55273 3.82488 2.77465 3.84545C2.99874 3.86927 3.01281 3.94937 3.01281 3.94937C3.02147 4.00891 3.11024 4.13774 2.92621 4.28388C2.78981 4.39105 2.46396 4.16588 2.20091 4.37698C1.94001 4.58916 1.41931 4.6855 1.41931 4.6855C1.36193 4.69416 1.29373 4.66061 1.26883 4.6054L1.13568 4.30661C1.11403 4.24924 1.09022 4.25465 1.08155 4.31527L1.05016 4.70391C1.04475 4.76453 1.02851 4.81325 1.01335 4.81325C0.994951 4.81433 0.96464 4.77103 0.938659 4.71798L0.928916 4.6985C0.901852 4.64437 0.848808 4.63571 0.810919 4.68226L0.741636 4.75912C0.702665 4.80458 0.646372 4.79917 0.614978 4.74721L0.588997 4.70391C0.559768 4.65519 0.507807 4.65519 0.476413 4.70391L0.435276 4.77319C0.404965 4.82407 0.362746 4.81974 0.34326 4.76453L0.328104 4.71906C0.308618 4.66277 0.272895 4.66061 0.250161 4.71473C0.23284 4.75479 0.206859 4.76345 0.187373 4.73963C0.150567 4.77644 0.122421 4.80458 0.111595 4.81325C0.0802015 4.84572 0.00225844 4.91392 9.33554e-05 4.97671C-0.00315428 5.0395 0.0769541 5.07414 0.456927 5.151C0.837983 5.22894 2.60036 4.51013 3.15787 4.62813C3.80199 4.76128 4.04881 4.233 4.09427 3.54667C4.09427 3.53043 4.08886 3.49038 4.08128 3.43733C3.96762 3.25763 3.80524 3.06818 3.67749 2.91446" fill="#BDBBBB"/>
</svg>
