<svg width="2.641406774520874" height="3.9209744930267334" viewBox="0 0 2.641406774520874 3.9209744930267334" fill="none" xmlns="http://www.w3.org/2000/svg">
<path d="M0.00108195 3.84953C0.00108195 3.88958 0.0357243 3.92097 0.0714483 3.92097H2.05467C2.37402 3.92097 2.45521 3.90582 2.49418 3.76725C2.54506 3.59404 2.64141 3.11773 2.64141 3.03653C2.64141 2.98566 2.63708 2.94019 2.60135 2.94019C2.57104 2.94019 2.55589 2.96076 2.54073 3.02138C2.48011 3.2617 2.31231 3.43491 1.96482 3.47605C1.77645 3.50095 1.17997 3.50744 1.09445 3.50744H0.750202C0.724221 3.50744 0.714479 3.4912 0.739378 3.47064C1.39323 2.94344 2.48011 2.08065 2.48011 1.08904C2.48011 0.490392 2.10122 0 1.21028 0C0.765358 0 0.491475 0.0920139 0.294452 0.193773C0.239242 0.230579 0.23383 0.250067 0.23383 0.296616C0.23383 0.443842 0.258728 0.86928 0.264141 0.913664C0.268471 0.975369 0.283627 1.0111 0.309608 1.0111C0.360487 1.0111 0.375643 0.965626 0.375643 0.913664C0.375643 0.780511 0.466576 0.54127 0.586739 0.424355C0.738295 0.280377 0.90609 0.239241 1.12368 0.239241C1.37591 0.239241 1.81651 0.402703 1.81651 1.21136C1.81651 2.28958 0.80866 3.08633 0.100676 3.71421C0.0497962 3.75968 0 3.80622 0 3.84736" fill="#BDBBBB"/>
</svg>
