<svg width="7.384698867797852" height="8.060623168945312" viewBox="0 0 7.384698867797852 8.060623168945312" fill="none" xmlns="http://www.w3.org/2000/svg">
<path d="M7.25246 5.99188C6.94935 5.57294 6.28466 5.55561 6.06491 5.76888C6.053 5.75913 6.04217 5.74723 6.03135 5.73856C5.94042 5.6682 5.6687 5.5069 5.54204 5.43221C5.33852 5.21895 5.253 5.16698 5.20862 5.14641C5.04299 5.04574 4.72364 4.9299 4.45192 4.86603C4.39671 4.28796 4.35341 4.15264 4.3231 4.09093C4.32418 4.07253 4.38697 3.56265 4.37722 3.24005C4.54935 3.27036 4.77885 3.30717 4.96071 3.30717C5.06464 3.30717 5.14691 3.29418 5.21511 3.27036C5.39265 3.22381 5.68602 3.12206 5.80726 2.92936L5.83433 2.88606L5.84515 2.83735C5.85706 2.79729 5.93717 2.4184 5.70983 2.06008C5.55395 1.81434 5.12093 1.35859 4.87952 1.13018C4.88927 0.993776 4.89793 0.860623 4.89793 0.85954C4.90767 0.751286 4.87519 0.635453 4.7507 0.5023C4.70956 0.464411 4.41836 0.132071 4.33609 0.0833564C4.25598 0.0335593 4.12932 0 4.0254 0C3.98859 0 3.95395 0.00433011 3.91931 0.0151555C3.6346 0.0768606 3.66274 0.509878 3.67249 0.547767C3.63785 0.527199 3.59887 0.507712 3.55882 0.491474C3.46031 0.384302 3.31849 0.321515 3.17452 0.293368C3.10307 0.239241 2.99481 0.18728 2.85733 0.18728C2.84759 0.18728 2.83676 0.18728 2.82702 0.18728C2.64299 0.197023 2.64082 0.215426 2.55097 0.286873C2.41241 0.316102 2.28899 0.39621 2.19481 0.513125C2.11471 0.558592 2.01836 0.638701 1.94042 0.772936C1.86031 0.840054 1.76829 0.952639 1.69576 1.14533L1.66762 1.21786C1.60266 1.38674 1.53121 1.57835 1.58209 1.77646C1.58534 1.78079 1.58642 1.7862 1.58751 1.79486C1.43162 1.83708 1.20537 1.92801 1.08304 2.17158C1.02783 2.27767 0.970457 2.42382 0.921742 2.55156C0.853542 2.55805 0.0546241 2.65223 0.0719448 3.03112C0.0795226 3.14587 0.134732 3.26495 0.240821 3.34289C0.169373 3.46955 0.163962 3.60379 0.229997 3.71529C0.287372 3.8138 0.365315 3.88633 0.456248 3.91881C0.484394 4.01624 0.530943 4.11367 0.598061 4.20027C0.674922 4.29986 0.762608 4.37348 0.835139 4.42544C0.684665 4.47524 0.527696 4.5456 0.375057 4.6571C0.154218 4.80758 -0.174874 5.13451 0.112 5.64222C0.157467 5.72341 0.297115 5.87713 0.996438 6.56455C0.97154 6.58945 0.418359 7.60487 1.32228 7.64601C1.52688 7.99134 2.22729 7.49445 2.25219 7.48146C2.30415 7.4912 3.24488 7.4977 2.99698 6.76807C3.05977 6.76049 3.38669 6.66739 3.40077 6.66739C3.50686 6.71286 3.73852 6.80812 3.876 6.82111C3.93879 6.82977 4.03947 6.82977 4.11308 6.82977C4.20835 6.82977 4.44109 6.82652 4.55476 6.80704C4.58291 6.80162 4.61755 6.79188 4.65544 6.7843C4.75286 6.94344 4.90659 7.13938 5.10253 7.25196C5.34069 7.38728 5.88196 7.62761 6.06383 7.7088C6.10063 7.7456 6.47952 8.06062 6.72959 8.06062C7.52742 8.06062 7.28169 7.33532 7.29468 7.29418C7.35963 7.10582 7.47763 6.2885 7.25571 5.98863" fill="black"/>
</svg>
