<svg width="1.5108399391174316" height="0.947907030582428" viewBox="0 0 1.5108399391174316 0.947907030582428" fill="none" xmlns="http://www.w3.org/2000/svg">
<path d="M0.579162 0.0255791C0.212179 -0.0794277 0 0.172805 0 0.172805C0.0952639 -0.0707673 0.532612 0.0786227 0.722058 0.159813C0.825982 0.20528 0.971042 0.446688 1.07605 0.642629C0.958052 0.524632 0.796753 0.401222 0.658187 0.389314C0.383221 0.364415 0.353992 0.730315 0.353992 0.730315L0.212179 0.903522C0.212179 0.903522 0.232747 0.947907 0.444926 0.947907C0.657104 0.947907 1.40298 0.939245 1.50041 0.848312C1.59892 0.759543 0.977537 0.140328 0.576996 0.0244955M0.657104 0.818C0.588904 0.818 0.534777 0.748718 0.534777 0.666445C0.534777 0.584172 0.588904 0.515971 0.657104 0.515971C0.725304 0.515971 0.807578 0.587419 0.807578 0.669692C0.807578 0.751966 0.724222 0.819084 0.657104 0.819084" fill="black"/>
</svg>
