<svg width="2.571042060852051" height="4.037890911102295" viewBox="0 0 2.571042060852051 4.037890911102295" fill="none" xmlns="http://www.w3.org/2000/svg">
<path d="M0 1.18972C0 1.62057 0.303112 2.177 1.03166 2.177C1.29039 2.177 1.55345 2.10014 1.69851 1.94208C1.70825 1.93234 1.72449 1.90095 1.72449 1.88579C1.72449 1.86089 1.70501 1.83924 1.68444 1.83924C1.66387 1.83924 1.63897 1.86523 1.58268 1.89662C1.51773 1.92693 1.41705 1.95724 1.23951 1.95724C1.06198 1.95724 0.567254 1.77429 0.567254 0.991611C0.567254 0.55751 0.810826 0.230582 1.17456 0.230582C1.56428 0.230582 1.94317 0.62896 1.94317 1.53397C1.94317 2.741 1.15399 3.57781 0.627876 3.90041C0.602977 3.92097 0.567254 3.95129 0.567254 3.98701C0.567254 4.01299 0.592152 4.03789 0.61272 4.03789C0.652774 4.03789 0.678755 4.03248 0.703654 4.01624C1.33153 3.71962 2.57104 2.82111 2.57104 1.38999C2.57104 0.612723 2.1207 0 1.29581 0C0.517456 0 0.0010836 0.501218 0.0010836 1.1908" fill="black"/>
</svg>
