<svg width="6.753381729125977" height="8.876860618591309" viewBox="0 0 6.753381729125977 8.876860618591309" fill="none" xmlns="http://www.w3.org/2000/svg">
<path d="M5.15482 8.87578C4.37647 8.87578 4.27471 7.61245 4.2563 7.38512C4.06902 7.37321 3.86659 7.2433 3.72694 7.13288C3.72153 7.12747 3.70745 7.11881 3.69013 7.11015C3.69555 7.20216 3.69879 7.30176 3.69988 7.39377C3.70962 7.53775 3.73668 7.91664 3.74859 8.01624L3.75184 8.02598C3.767 8.16996 3.80813 8.50338 3.47904 8.68633C3.38377 8.74046 3.27552 8.76644 3.1586 8.76644C3.05793 8.76644 2.97024 8.74587 2.90962 8.73288C2.89771 8.72963 2.88472 8.72855 2.87498 8.72855L2.81652 8.71989C2.73316 8.70906 2.62058 8.69716 2.53181 8.69066H2.50799C2.34561 8.69066 1.88337 8.71881 1.80867 8.72855H1.75887C1.4969 8.72855 1.28472 8.51962 1.28147 8.51746C1.1494 8.3908 1.13858 8.18295 1.25441 8.01948L1.28472 7.97402L1.32802 7.94587C1.354 7.9253 1.43519 7.87118 1.55319 7.85277C1.65062 7.78999 1.79893 7.70555 2.02734 7.57672C1.82707 7.18376 0.943718 5.82841 1.71341 5.40081C1.9992 5.24601 2.43871 5.09337 2.85225 4.99486C2.85658 4.96671 2.86415 4.94073 2.86956 4.91475C2.87822 4.88119 2.89013 4.77943 2.87823 4.69391C2.75482 4.75995 2.63465 4.79567 2.53181 4.79567C2.49933 4.79567 2.46794 4.79242 2.43655 4.78376C2.17241 4.72855 1.83249 4.34317 1.79568 4.28904C1.73506 4.20893 1.51314 3.80081 1.30421 3.41651C0.7402 3.39053 0.692568 3.37321 0.651432 3.3613C0.597305 3.34181 0.530188 3.32449 0.165371 3.01813C0.0441256 2.91529 -0.0143318 2.77781 0.00298895 2.63924C0.0203096 2.52449 0.0917564 2.42598 0.194598 2.37402C0.200011 2.37077 0.208672 2.36536 0.217332 2.36319C0.263882 2.29824 0.343989 2.23654 0.474977 2.20839L0.511784 2.19973H0.556167C0.644936 2.19865 0.723963 2.23004 0.787833 2.27009C0.791081 2.22788 0.804071 2.18349 0.825721 2.14344C0.892839 2.01028 1.03141 1.93234 1.19487 1.93234C1.28689 1.93234 1.3854 1.95507 1.49473 2.00379L1.51097 2.01245L1.52829 2.02436C1.5651 2.04601 1.57051 2.04601 1.57376 2.04601C1.63763 2.059 1.80326 2.11204 1.85522 2.13153C1.95157 2.17158 2.01544 2.22463 2.19189 2.5299L2.47336 2.81137C2.60001 2.51367 2.75482 2.38051 2.81002 2.32963C2.89122 2.26035 2.98864 2.23004 3.08932 2.19973C3.11097 2.19215 3.14128 2.18349 3.16077 2.17808C3.2019 2.14019 3.25062 2.1088 3.3015 2.0774C3.30583 2.06333 3.31124 2.04817 3.31774 2.0341C3.27444 1.97456 3.22572 1.90095 3.18458 1.83491C3.06983 1.64438 3.08499 1.47009 3.09365 1.364V1.33261C3.11314 1.03491 3.48445 0.782678 3.48553 0.780513C3.52883 0.754532 3.57538 0.731799 3.61544 0.714478C3.69013 0.628957 3.82112 0.482814 3.91205 0.400541C3.98891 0.329093 4.08851 0.280378 4.18486 0.245736C4.2628 0.0811896 4.43384 0 4.69149 0C4.77484 0 5.04439 0.01732 5.13316 0.031393C5.32477 0.0617043 5.45468 0.185115 5.52072 0.330176C5.68526 0.384303 5.79135 0.534776 5.81192 0.737212L5.8693 0.8C5.91043 0.840054 6.00353 0.950473 6.03384 1.11394C6.13343 1.30771 6.1172 1.54479 6.10529 1.64763C6.10312 1.96373 6.01868 2.14993 5.93208 2.25602C5.92017 2.29391 5.90935 2.3253 5.89961 2.35129C6.20164 2.5364 6.29473 2.96076 6.3218 3.12314C6.34886 3.22057 6.46578 3.6341 6.52856 3.9069C6.61409 4.28796 6.48093 4.64628 6.46578 4.68633L6.4517 4.72855L6.42247 4.76428C6.39649 4.79892 6.26875 4.97104 6.21463 5.03708C6.11287 5.15616 6.00136 5.21028 5.90502 5.23302C5.93858 5.36292 5.97105 5.5004 5.99379 5.62814C6.23736 5.93234 6.36726 6.3502 6.36726 6.50176C6.36726 6.59919 6.33804 6.70419 6.30881 6.78105C6.33479 6.85683 6.34128 6.94885 6.33587 7.15453C6.4398 7.26712 6.52965 7.42842 6.62275 7.61353C6.63249 7.63193 6.64223 7.64817 6.6444 7.65683C7.10773 8.66577 5.94832 8.74263 5.87579 8.71773C5.72532 8.85954 5.23492 8.87686 5.15373 8.87686" fill="black"/>
</svg>
