<svg width="35.34722900390625" height="20.893098831176758" viewBox="0 0 35.34722900390625 20.893098831176758" fill="none" xmlns="http://www.w3.org/2000/svg">
<path d="M34.8977 14.6566C34.783 14.5093 34.6542 14.3545 34.5199 14.1922C33.918 13.4647 32.5865 11.6731 32.5865 11.6731C32.5865 5.85764 31.5429 4.77402 30.4723 3.86035C29.5272 3.05602 28.0225 2.64465 26.4052 2.39567C25.9657 2.32747 25.4818 2.29499 24.9253 2.29499C24.3689 2.29499 23.8439 2.32422 23.3188 2.35345C22.8837 2.37835 15.3004 2.69662 12.8669 2.28525C11.8081 2.10771 10.3359 2.3134 9.46335 2.4184C9.06173 2.46604 6.87282 2.81678 6.6141 2.39892C6.56538 2.32097 6.57079 2.14993 6.58812 1.95724C6.61843 1.65088 6.74508 1.27957 6.50584 0.949391C6.17783 0.492557 5.81951 0 5.62357 0C5.56295 0 5.01951 0.443843 4.88636 0.578078C4.6666 0.798917 4.59732 1.1659 4.60598 1.58917C4.61355 1.85007 4.59515 1.80135 4.57567 1.81867C4.54211 1.85331 3.14779 1.85332 2.7938 1.8793C2.7938 1.80677 2.78189 1.44628 2.54481 1.10203C2.39109 0.880108 2.26443 0.142896 2.26443 0.142896C2.26443 0.142896 1.75889 1.01867 1.58893 1.25359C1.39732 1.51015 1.20462 1.77862 1.08879 2.08714C1.04332 2.20406 1.03791 2.34587 1.02925 2.48552C1.02276 2.58295 1.00868 2.7908 0.968629 2.82219C0.701241 3.01813 0.552932 3.28769 0.526951 3.62652C0.519373 3.72395 0.544272 3.85602 0.575666 4.00758C0.596234 4.10501 0.62438 4.25981 0.62438 4.33342C0.601646 4.34966 0.572418 4.36698 0.544272 4.38539C0.307195 4.53911 -0.0186511 4.7502 0.000834651 5.12693C0.0322284 5.69526 0.163216 5.91827 0.344001 6.22463C0.395963 6.31123 0.444677 6.39784 0.504217 6.50501C0.584326 6.65873 0.618967 6.87415 0.651443 7.08525C0.699075 7.38187 0.423027 7.70555 0.612472 7.89066C0.859292 8.13315 1.49691 8.14939 1.77512 8.14939C1.85199 8.14939 2.14319 8.13965 2.21464 8.13965C2.32181 8.13965 2.40625 8.14506 2.47553 8.15805C3.01031 8.26197 3.544 8.30853 4.06146 8.34858C4.77269 8.40704 5.44603 8.46116 6.11829 8.65927C7.36863 9.02517 8.59732 9.53505 9.87797 10.2214C9.94941 10.2582 10.0122 10.2928 10.0772 10.3253C10.5513 10.5678 10.6531 10.5342 10.875 11.1892C11.098 11.8419 10.6866 16.9483 10.5935 17.4733C10.4528 18.3242 10.1832 18.8417 9.73832 19.0019C9.14725 19.2162 8.90368 19.6806 8.66876 20.1299C8.59407 20.276 8.60598 20.4493 8.51288 20.5976C8.51288 20.5976 8.3191 20.8076 8.38622 20.8628C8.45009 20.9191 9.0509 20.7719 9.0509 20.7719C9.2555 20.7848 9.0325 20.8931 9.24143 20.8931C9.74373 20.8931 10.3597 20.8909 10.9789 20.5294C11.2409 20.5294 11.0677 20.865 11.3069 20.8195C12.0506 20.682 12.121 20.1115 12.2108 19.5659C12.3646 18.6425 12.3408 18.4812 12.4425 18.3968C12.5464 18.3156 12.8755 18.4509 12.9632 18.3502C13.0314 18.2755 12.9567 17.6065 12.9935 16.9981C13.0487 16.1332 13.2891 15.1221 13.5467 14.2842L13.5597 14.2409C13.616 14.0557 13.7015 13.8338 13.7924 13.5968C14.0349 12.9581 14.3294 12.1862 14.2947 11.5627C14.5611 11.6081 14.6044 11.6254 14.7548 11.8344C14.7786 11.8679 14.8187 11.934 14.862 12.0054C15.1554 12.485 15.3102 12.6192 15.4996 12.6192C15.5202 12.6192 15.5397 12.6149 15.557 12.6106C15.872 12.5283 16.0431 12.2609 16.2217 11.9101C16.3981 11.5637 16.5832 11.2054 16.8777 11.1383C16.8907 11.135 16.9037 11.134 16.921 11.134C17.1613 11.134 17.5846 11.3483 17.8282 11.724C18.3608 12.5499 18.8165 11.9719 18.8598 11.9026C18.9205 11.8073 19.3459 11.1026 19.4542 10.9402C19.5819 10.7442 19.6631 10.7215 19.6891 10.7215C19.6945 10.7215 19.6977 10.7215 19.7021 10.7215C19.9597 10.7605 21.092 12.1223 21.4947 12.0303C21.8877 11.987 22.3218 10.4953 22.5611 10.4953C22.574 10.4953 22.5849 10.4985 22.5989 10.5018C22.6563 10.5505 22.7906 10.7529 22.8793 10.8904C23.1824 11.3451 23.2463 11.6493 23.4855 11.6493C23.5613 11.6493 23.6945 11.5832 23.7746 11.3851C23.7962 11.3332 23.8883 11.108 23.9012 11.0852C23.9142 11.1015 24.1123 11.7781 24.6071 11.1794C24.6016 11.1697 24.5995 11.161 24.5962 11.1513C24.6623 10.9976 25.5684 11.8907 26.0014 12.2436C26.3965 12.6051 26.7288 12.9223 26.757 12.9472C27.6901 13.7808 28.8506 14.8157 29.078 15.9426C29.2046 16.5889 29.1754 17.3359 28.9914 18.0482C28.9524 18.1997 28.9145 18.2863 28.8809 18.3091C28.842 18.334 28.7391 18.3383 28.6114 18.3448C28.554 18.3448 28.488 18.347 28.4144 18.3502C28.0972 18.3719 27.8785 18.7107 27.6858 19.0116C27.597 19.1535 27.4845 19.266 27.4238 19.3689C27.3632 19.4728 27.4606 19.6449 27.5169 19.6796C27.5765 19.7164 28.1513 19.8517 28.3245 19.8517C28.3754 19.8517 28.4219 19.8463 28.4642 19.8355C28.5865 19.8809 28.737 19.9047 28.9048 19.9047C29.4081 19.9047 30.0349 19.6958 30.2136 19.3461C30.5145 18.7551 30.7191 18.1099 30.9215 17.4874C30.9421 17.416 30.9648 17.3467 30.9876 17.2774C31.032 17.1388 31.0904 16.9851 31.1521 16.8271C31.3719 16.2555 31.7443 15.6428 31.5797 15.082C31.491 14.7843 31.19 14.4953 30.9984 14.2409C30.8306 14.0146 30.1952 13.1832 30.0003 12.8942C30.5968 13.4679 32.2466 14.3221 32.6655 15.3212C32.8127 15.6731 32.6623 17.1356 32.633 17.5296C32.6211 17.7147 32.6114 17.9042 32.606 18.0947C32.5897 18.6955 32.4133 18.8038 31.8125 18.8644C31.2864 18.9185 31.0482 19.6926 30.9194 20.1061C30.9118 20.1288 30.9053 20.1516 30.8999 20.1721L30.8382 20.3648L31.0406 20.4005C31.1186 20.4135 31.2052 20.4298 31.2983 20.4471C31.6761 20.5185 32.3083 20.7524 32.7532 20.7524C33.2804 20.7524 33.6506 20.6279 33.8866 20.3702C34.1887 20.0422 34.3056 19.4468 34.4095 18.9272C34.4506 18.7302 34.6639 18.0309 34.744 17.7765C35.2409 16.1819 35.7334 15.5691 34.8945 14.6544M1.24035 6.9705C1.05848 7.08417 0.991362 6.76698 0.991362 6.76698C0.941565 6.64249 0.936153 6.50717 1.00977 6.45521C1.14508 6.54181 1.31288 6.53857 1.35835 6.61976C1.41247 6.70853 1.33669 6.91313 1.24035 6.97158" fill="black"/>
</svg>
