<svg width="2.640324831008911" height="3.92205810546875" viewBox="0 0 2.640324831008911 3.92205810546875" fill="none" xmlns="http://www.w3.org/2000/svg">
<path d="M0 3.85061C0 3.89175 0.0346424 3.92206 0.0703664 3.92206H2.05359C2.37294 3.92206 2.45413 3.90582 2.49418 3.76834C2.54398 3.59405 2.64032 3.11881 2.64032 3.03762C2.64032 2.98674 2.636 2.94019 2.60027 2.94019C2.56996 2.94019 2.5548 2.96076 2.53965 3.02246C2.47903 3.26279 2.31123 3.436 1.96373 3.47713C1.77537 3.50203 1.17889 3.50745 1.09337 3.50745H0.749122C0.723141 3.50745 0.713397 3.4912 0.738296 3.47064C1.39215 2.94344 2.47903 2.08065 2.47903 1.08904C2.47903 0.490392 2.10014 0 1.2092 0C0.764278 0 0.490393 0.0920172 0.29337 0.193776C0.23816 0.230583 0.232748 0.251152 0.232748 0.296619C0.232748 0.444928 0.257646 0.869284 0.263059 0.914751C0.267389 0.975374 0.282545 1.01218 0.308526 1.01218C0.359405 1.01218 0.374561 0.966713 0.374561 0.914751C0.374561 0.781598 0.464412 0.542356 0.585657 0.424359C0.737213 0.281463 0.905007 0.240325 1.12368 0.240325C1.37591 0.240325 1.81651 0.402707 1.81651 1.21137C1.81651 2.28958 0.808661 3.08633 0.100677 3.71529C0.0508804 3.76076 0 3.80731 0 3.84845" fill="black"/>
</svg>
