<svg width="10.088794708251953" height="17.59109878540039" viewBox="0 0 10.088794708251953 17.59109878540039" fill="none" xmlns="http://www.w3.org/2000/svg">
<path d="M9.90279 12.2602C9.66138 11.9083 9.05299 11.2837 8.80942 10.9893C8.48466 10.5876 7.00157 8.85015 7.00157 8.85015C7.00157 8.85015 6.57722 6.22065 6.39535 5.62417C6.27952 5.23987 5.95908 2.46964 3.81132 0.962738C3.92931 0.76788 5.32038 1.86017 5.82052 2.70888C6.73202 4.24609 7.11957 8.26883 7.11957 8.26883C7.11957 8.26883 7.7009 2.12756 4.44785 0.82742C2.11822 -0.145787 0.953402 0.00901735 0.953402 0.00901735C0.953402 0.00901735 -0.660674 0.978977 0.311451 2.82255C0.503061 3.17979 2.62377 6.43392 2.76017 6.69156C3.96829 8.95408 7.80915 11.5922 8.50739 12.3121C8.5442 12.3489 9.20672 12.783 9.25327 13.2626C9.26193 13.3514 8.35476 12.7451 8.36558 12.8556C8.48899 13.9912 8.35692 16.1725 8.33743 16.4215C8.31578 16.7094 8.30171 16.7516 8.12526 16.8144C7.9488 16.8783 7.77126 16.7127 7.66301 17.0093C7.54501 17.3405 7.58831 17.583 7.89251 17.583C8.1967 17.583 8.66003 17.7443 8.95123 16.6239C9.2446 15.4926 9.88764 13.4856 10.0792 12.7473C10.1269 12.5698 9.98506 12.3782 9.90171 12.2591" fill="#BDBBBB"/>
</svg>
