<svg width="7.350473880767822" height="7.041947364807129" viewBox="0 0 7.350473880767822 7.041947364807129" fill="none" xmlns="http://www.w3.org/2000/svg">
<path d="M0.940731 2.70095C0.940731 1.2839 0.940731 1.02409 0.922328 0.726386C0.903925 0.410283 0.829229 0.260892 0.521786 0.194857C0.447091 0.176453 0.289039 0.166713 0.159134 0.166713C0.0552099 0.166713 0 0.148307 0 0.0833547C0 0.0184021 0.0660354 0 0.205684 0C0.699324 0 1.28715 0.0281472 1.482 0.0281472C1.79811 0.0281472 2.50609 0 2.79513 0C3.38187 0 4.0065 0.0562914 4.5088 0.401623C4.76969 0.578078 5.14208 1.05331 5.14208 1.67686C5.14208 2.36644 4.85413 2.99973 3.9134 3.76292C4.74263 4.8065 5.38566 5.63573 5.93451 6.21272C6.45629 6.75291 6.83843 6.81786 6.97808 6.84601C7.07984 6.86441 7.16428 6.87415 7.23897 6.87415C7.31367 6.87415 7.35047 6.9023 7.35047 6.94885C7.35047 7.02246 7.28552 7.04195 7.17402 7.04195H6.28958C5.76888 7.04195 5.53505 6.9954 5.29256 6.8655C4.8931 6.65115 4.53802 6.2138 4.01732 5.49499C3.64493 4.98295 3.21624 4.34966 3.09499 4.21002C3.04736 4.15372 2.99215 4.14398 2.9272 4.14398L2.11746 4.12558C2.06982 4.12558 2.04276 4.14398 2.04276 4.20027V4.33018C2.04276 5.19621 2.04276 5.93234 2.08931 6.32422C2.11746 6.59378 2.17267 6.79838 2.45305 6.83627C2.59269 6.85467 2.79729 6.87415 2.90988 6.87415C2.98457 6.87415 3.02138 6.9023 3.02138 6.94885C3.02138 7.01489 2.95643 7.04195 2.83627 7.04195C2.29499 7.04195 1.6065 7.0138 1.46576 7.0138C1.28931 7.0138 0.702571 7.04195 0.329093 7.04195C0.207849 7.04195 0.142896 7.0138 0.142896 6.94885C0.142896 6.9023 0.179703 6.87415 0.292287 6.87415C0.433018 6.87415 0.54452 6.85467 0.627876 6.83627C0.814073 6.79946 0.85954 6.59378 0.897429 6.32422C0.942896 5.93234 0.942896 5.19621 0.942896 4.33992V2.70095H0.940731ZM2.0406 3.43708C2.0406 3.53884 2.059 3.57672 2.12395 3.60487C2.31989 3.67091 2.59919 3.69797 2.83194 3.69797C3.20433 3.69797 3.32449 3.66008 3.49337 3.53884C3.77267 3.33424 4.0433 2.90555 4.0433 2.14236C4.0433 0.819487 3.16752 0.436265 2.61759 0.436265C2.38484 0.436265 2.21705 0.446008 2.12395 0.473071C2.05792 0.491474 2.0406 0.529364 2.0406 0.605142V3.43599V3.43708Z" fill="#FFB300"/>
</svg>
