<svg width="6.779384136199951" height="7.44683313369751" viewBox="0 0 6.779384136199951 7.44683313369751" fill="none" xmlns="http://www.w3.org/2000/svg">
<path d="M4.15706 1.83926C4.1235 1.80029 3.81389 1.71801 3.68615 1.70502C3.64176 1.6628 3.50103 1.61842 3.50103 1.61842C3.50103 1.61842 3.69481 1.47444 3.6894 1.37268C3.55408 0.682018 3.32025 0.630056 3.32025 0.630056C3.32025 0.630056 3.2488 0.470921 3.04853 0.448187C3.01497 0.300961 2.72918 0.274981 2.72918 0.274981C2.72918 0.274981 2.65557 0.178634 2.54082 0.186212C2.45421 0.191625 2.42823 0.225183 2.38493 0.277145C2.38493 0.277145 2.21497 0.250083 2.09589 0.449271C2.09589 0.449271 1.96057 0.4785 1.87613 0.680935C1.87613 0.680935 1.77546 0.703668 1.68236 0.940745C1.62174 1.10854 1.54596 1.26767 1.57843 1.38892C1.60983 1.51233 1.70942 1.64115 1.70942 1.64115C1.70942 1.64115 1.61741 1.71585 1.51348 1.74724C1.41064 1.77863 1.15624 1.7992 1.05557 2.00272C0.949477 2.20949 0.820654 2.60137 0.820654 2.60137C0.820654 2.60137 0.757867 2.56348 0.682089 2.5559C0.616053 2.54941 0.311859 2.56131 0.242576 2.61219C0.20577 2.64034 0.0747819 2.65549 0.0769469 2.70637C0.0856073 2.8536 0.319436 2.79839 0.319436 2.79839L0.265309 3.11666C0.265309 3.11666 0.16788 3.21192 0.191696 3.25522C0.219842 3.30069 0.265309 3.31801 0.294538 3.3061C0.335674 3.30069 0.40171 3.22383 0.40171 3.22383C0.40171 3.22383 0.401709 3.52911 0.535945 3.70123C0.671263 3.87335 0.826067 3.93939 0.826067 3.93939C0.826067 3.93939 0.931073 3.9762 1.01984 3.93939C1.11186 3.90042 1.27857 3.76618 1.29264 3.7153C1.30455 3.66334 1.3511 3.49122 1.3511 3.49122C1.3511 3.49122 1.42147 3.21733 1.45503 3.21192C1.48425 3.20326 1.51889 3.24873 1.51889 3.24873V3.80407C1.51889 3.80407 1.29806 4.21977 1.29806 4.33019C1.18222 4.3421 0.677758 4.29122 0.243658 4.60407C-0.113582 4.84765 0.00874621 5.06957 0.0747814 5.18648C0.139734 5.30123 1.22553 6.34914 1.26017 6.38702C1.24501 6.426 1.27857 6.4693 1.22661 6.4693H1.11186C1.11186 6.4693 0.945146 6.40759 0.914835 6.4693C0.846635 6.6306 1.02092 6.61327 1.0285 6.64467C1.03283 6.67281 0.888855 6.61869 0.865039 6.70529C0.836893 6.80488 0.869369 6.90448 0.936487 6.98892C0.983037 7.04629 1.09562 7.01923 1.1281 7.03114C1.16166 7.04413 1.17356 7.09826 1.25908 7.11666C1.45178 7.19135 1.8718 6.84927 1.92701 6.85252C2.13378 6.95861 2.36869 6.77241 2.38385 6.65549C2.40117 6.54183 2.38277 6.48229 2.34055 6.39352C2.30049 6.30692 2.16734 6.1651 2.16734 6.1651C2.16734 6.1651 2.33189 6.11314 2.36761 6.09907C2.36761 6.09907 2.38926 6.08066 2.44555 6.10664C2.49751 6.13479 2.74001 6.17809 2.81037 6.17484C2.88182 6.17484 3.15245 6.04494 3.19359 6.06659C3.23581 6.08932 3.5032 6.19974 3.60063 6.2084C3.69806 6.22031 4.07911 6.21707 4.1852 6.19758C4.29021 6.17701 4.50239 6.11422 4.50239 6.11422C4.50239 6.11422 4.68101 6.52559 4.94948 6.68039C5.21795 6.83087 5.93892 7.14589 5.93892 7.14589C5.93892 7.14589 6.22904 7.44683 6.41957 7.44683C6.6101 7.44683 6.6599 7.28662 6.65773 7.24548C6.65557 7.20651 6.65015 7.00191 6.68804 6.89149C6.72593 6.78215 6.76166 6.45198 6.7714 6.3015C6.78223 6.14886 6.83419 5.72234 6.42498 5.66172C6.35895 5.65198 6.2193 5.62383 6.19332 5.62491C6.13595 5.63033 6.16409 5.77214 6.14352 5.71693C6.12079 5.65414 6.05151 5.63682 6.02553 5.64765C5.94758 5.68229 5.91511 5.74616 5.91944 5.77755C5.92377 5.84142 5.94975 6.00921 5.94975 6.00921C5.94975 6.00921 5.61849 5.74616 5.52539 5.67146C5.43229 5.59677 5.03608 5.36835 5.03608 5.36835C5.03608 5.36835 4.81957 5.13885 4.7557 5.1107C4.7189 5.06957 4.15814 4.81192 3.85178 4.81625C3.84636 4.58784 3.83446 4.04765 3.7013 3.78134C3.70239 3.70881 3.78358 2.94778 3.73703 2.74968C3.71538 2.66307 3.84853 2.59379 3.91781 2.59379C3.9871 2.59379 4.63446 2.74426 4.81091 2.66849C4.81091 2.66849 5.15408 2.58296 5.23202 2.45739C5.23202 2.45739 5.29806 2.17376 5.13459 1.91503C4.96896 1.65631 4.39088 1.0674 4.24041 0.941827C4.26098 0.794601 4.27397 0.526131 4.27397 0.526131C4.27397 0.526131 4.27397 0.468756 4.235 0.429784C4.19278 0.387565 3.92972 0.0866171 3.89508 0.0552234C3.86369 0.0292423 3.74461 -0.0118939 3.69481 0.00326172C3.64718 0.0173348 3.66341 0.123424 3.69048 0.150488C3.72079 0.180799 3.79873 0.246834 3.79873 0.246834L3.84095 0.361584C3.84095 0.361584 3.78791 0.38973 3.77708 0.415711C3.76734 0.438444 3.76734 0.574845 3.78791 0.604074C3.80739 0.63222 3.87126 0.646293 3.87126 0.646293C3.87126 0.646293 3.81064 0.775116 3.75327 0.780529C3.70455 0.709081 3.62228 0.494738 3.54975 0.56402C3.51619 0.597579 3.49887 0.658201 3.51619 0.717741C3.53351 0.771869 3.62877 1.04575 3.67857 1.09555C3.72945 1.14751 3.76409 1.17349 3.76409 1.17349C3.76409 1.17349 4.12891 1.74075 4.14948 1.8425" fill="#BDBBBB"/>
</svg>
