<svg width="46.064422607421875" height="59.99891662597656" viewBox="0 0 46.064422607421875 59.99891662597656" fill="none" xmlns="http://www.w3.org/2000/svg">
<path d="M22.3664 59.5995C16.8152 56.2706 12.1321 51.9968 8.44601 46.8958C5.04898 42.1932 2.63599 36.9851 1.27199 31.4089L1.15074 30.9175L0.716642 28.8C-0.253317 23.4836 -0.239244 18.0687 0.756696 12.6917L0.91583 11.829L1.76996 11.6514C1.8295 11.6395 7.47497 10.4487 12.4893 7.6341C19.6395 3.61353 22.0536 1.06631 22.0785 1.04249L23.0344 0L23.9903 1.04574C24.0097 1.06739 26.4216 3.6092 33.5729 7.63302C38.5938 10.4498 44.2338 11.6384 44.2901 11.6503L45.1464 11.8279L45.3055 12.6885C46.3026 18.0666 46.3166 23.4815 45.3456 28.7978L45.2103 29.5599L44.7913 31.4078C43.4273 36.9851 41.0143 42.1932 37.6162 46.8947C33.9313 51.9957 29.2482 56.2696 23.698 59.5984L23.0333 59.9989L22.3675 59.5984L22.3664 59.5995Z" fill="black"/>
</svg>
