<svg width="2.5504751205444336" height="3.9696903228759766" viewBox="0 0 2.5504751205444336 3.9696903228759766" fill="none" xmlns="http://www.w3.org/2000/svg">
<path d="M0 0.908256C0 0.959136 0.0043313 0.985116 0.0400553 0.985116C0.0703665 0.985116 0.0855222 0.960219 0.090935 0.919082C0.100678 0.836809 0.165629 0.673345 0.258728 0.61164C0.379973 0.530449 0.593235 0.519623 0.732883 0.519623H2.04493C1.3456 1.6996 0.698241 3.20758 0.558593 3.69905C0.532612 3.78133 0.522869 3.85711 0.522869 3.90798C0.522869 3.95345 0.538026 3.96969 0.593235 3.96969C0.82057 3.96969 1.23085 3.75968 1.23085 3.65792C1.23085 3.59188 1.22111 3.55508 1.23085 3.46956C1.30555 2.81462 2.09581 0.785927 2.51583 0.18295C2.53099 0.163464 2.55048 0.122327 2.55048 0.0909333C2.55048 0.0660348 2.52558 0.0508797 2.42923 0.0508797H0.810826C0.274967 0.0508797 0.158051 0 0.126657 0C0.0952637 0 0.0768614 0.0205687 0.0768614 0.0714483C0.0768614 0.122328 0.0010836 0.720977 0.0010836 0.90934" fill="#BDBBBB"/>
</svg>
