<svg width="1.7283265590667725" height="2.0665760040283203" viewBox="0 0 1.7283265590667725 2.0665760040283203" fill="none" xmlns="http://www.w3.org/2000/svg">
<path d="M0.947792 2.06549C0.829795 2.06549 0.681487 1.99621 0.643597 1.79053C0.631689 1.75047 0.531015 1.5134 0.438998 1.3023C-0.061137 0.134235 -0.0210826 0.560757 0.0265494 0.374559C0.11207 0.0378881 0.572151 0 0.91207 0C0.992178 0 1.0528 0.00108241 1.07229 0.0032475C1.23683 0.00433004 1.38298 0.0671181 1.4934 0.179703C1.68176 0.36157 1.72939 0.63004 1.72831 0.761028C1.72831 0.775101 1.47716 1.52963 1.35158 1.75697L1.34509 1.76888C1.16214 2.06549 1.003 2.06658 0.947792 2.06658" fill="black"/>
</svg>
