<svg width="7.665493965148926" height="7.171854019165039" viewBox="0 0 7.665493965148926 7.171854019165039" fill="none" xmlns="http://www.w3.org/2000/svg">
<path d="M2.49635 4.79567C2.44871 4.79567 2.43139 4.81407 2.41191 4.87036L1.90853 6.14668C1.81651 6.37943 1.76996 6.60352 1.76996 6.71502C1.76996 6.88281 1.85332 7.00406 2.14236 7.00406H2.282C2.3935 7.00406 2.42165 7.02246 2.42165 7.07876C2.42165 7.15237 2.36644 7.17185 2.2636 7.17185C1.96482 7.17185 1.56428 7.14371 1.27632 7.14371C1.17348 7.14371 0.662515 7.17185 0.177536 7.17185C0.0562906 7.17185 0 7.15237 0 7.07876C0 7.02246 0.03789 7.00406 0.112586 7.00406C0.195941 7.00406 0.32693 6.99432 0.400543 6.98566C0.828148 6.92936 1.00568 6.61326 1.19296 6.14668L3.53126 0.372395C3.64384 0.101759 3.69905 0 3.79215 0C3.87551 0 3.93072 0.0833559 4.02381 0.2977C4.24682 0.809743 5.73748 4.53586 6.33397 5.95074C6.68796 6.78972 6.95751 6.91962 7.15345 6.96617C7.2931 6.99432 7.43275 7.00406 7.54425 7.00406C7.61895 7.00406 7.66549 7.01272 7.66549 7.07876C7.66549 7.15237 7.58214 7.17185 7.23789 7.17185C6.89364 7.17185 6.22246 7.17185 5.47659 7.15237C5.3088 7.14479 5.19838 7.14479 5.19838 7.07876C5.19838 7.02246 5.23518 7.00406 5.32828 6.9954C5.39323 6.97591 5.45819 6.89256 5.41164 6.78106L4.66577 4.86171C4.64736 4.81516 4.6203 4.79675 4.57266 4.79675H2.49635V4.79567ZM4.39621 4.33018C4.44276 4.33018 4.4525 4.30203 4.44276 4.27389L3.60487 1.98214C3.59513 1.94533 3.58539 1.89878 3.55832 1.89878C3.53126 1.89878 3.51177 1.94533 3.50203 1.98214L2.64574 4.26522C2.63599 4.30203 2.64574 4.33018 2.68254 4.33018H4.39621Z" fill="#FFB300"/>
</svg>
