<svg width="1.547949194908142" height="1.276883602142334" viewBox="0 0 1.547949194908142 1.276883602142334" fill="none" xmlns="http://www.w3.org/2000/svg">
<path d="M1.51057 0.516152C1.60908 0.41331 1.41747 0.295314 1.41206 0.280158C1.41206 0.280158 1.54846 0.456612 1.4402 0.406815C1.3471 0.261755 0.987697 0.1535 0.974707 0.139427C0.955221 0.117776 1.02017 0.0571541 1.21828 0.207628C1.23452 0.179482 1.11002 0.0614848 0.938983 0.0744753C0.934653 0.0484942 0.919497 0.0225118 0.902177 0.0138514C0.898929 0.0106038 0.895681 0.0106039 0.893516 0.0106039C0.889186 0.0106039 0.880526 0.0106038 0.883774 0.0138514C0.900012 0.0311721 0.925992 0.0744741 0.896764 0.0766392C0.864287 0.0809694 0.842637 0.0203468 0.836141 0.0106039C0.816656 -0.0207898 0.734382 0.0235945 0.782014 0.0647311C0.795005 0.074474 0.816656 0.0820517 0.838307 0.0950422C0.86537 0.112363 0.851297 0.117776 0.830728 0.112363C0.802582 0.103703 0.771188 0.0982897 0.734382 0.0982897C0.697575 0.0982897 0.659687 0.103703 0.625046 0.117776C0.610972 0.124272 0.596899 0.117777 0.614219 0.101539C0.630458 0.091796 0.651027 0.083135 0.666183 0.0755572C0.734383 0.0290078 0.619633 -0.0543486 0.597982 0.0614836C0.588239 0.0809694 0.573084 0.0982912 0.561176 0.101539C0.510296 0.103704 0.566588 0.02143 0.562258 0.02143C0.55901 0.02143 0.55468 0.029008 0.552515 0.0300906C0.538442 0.0419986 0.514626 0.0614832 0.510296 0.0863817C0.497306 0.0842166 0.29487 0.0982908 0.266724 0.207628C0.417197 0.0982908 0.495141 0.103704 0.485398 0.147006C0.481068 0.164326 0.304612 0.263919 0.234247 0.33212C0.173625 0.375421 0.0902686 0.478263 0.075113 0.482593C0.0458843 0.488006 0.0404713 0.429549 0.081608 0.354854C-0.0136559 0.444705 0.00474844 0.516152 0.0285644 0.557289C-0.0169024 0.669874 -0.00824208 0.811687 0.055628 0.924271C0.108673 1.01954 0.433435 1.29342 0.459416 1.2761C0.488645 1.25661 0.123828 0.932932 0.0956816 0.797614C0.0383068 0.466355 0.484315 0.175151 0.627211 0.159996C0.634789 0.159996 0.653192 0.201132 0.735466 0.19572C0.838307 0.192472 0.846967 0.159996 0.850215 0.159996C0.962799 0.145922 1.50624 0.348359 1.45103 0.751065C1.43046 0.877723 1.37958 1.02928 1.40231 1.04443C1.42505 1.05851 1.44778 0.993555 1.50191 0.884218C1.55928 0.767303 1.56361 0.625489 1.51165 0.51507" fill="black"/>
</svg>
