<svg width="1.9853852987289429" height="3.936131715774536" viewBox="0 0 1.9853852987289429 3.936131715774536" fill="none" xmlns="http://www.w3.org/2000/svg">
<path d="M0.0010836 0.926657C0.0010836 0.956969 0.025981 0.982949 0.0422192 0.982949C0.0617049 0.982949 0.087687 0.973206 0.112586 0.963464C0.224088 0.916914 0.60406 0.717727 0.700406 0.717727C0.776184 0.717727 0.776184 0.77835 0.776184 0.900677V1.57077L0.781597 2.38376C0.785927 2.87415 0.776185 3.30826 0.756699 3.53343C0.740461 3.69689 0.71448 3.76834 0.554264 3.80406C0.462247 3.82463 0.203519 3.8387 0.14831 3.8387C0.127741 3.8387 0.108254 3.85494 0.108254 3.89066C0.108254 3.92639 0.138566 3.93613 0.194858 3.93613C0.518539 3.93613 0.943979 3.92097 1.05981 3.92097C1.19621 3.92097 1.51989 3.93613 1.90528 3.93613C1.95941 3.93613 1.98539 3.92639 1.98539 3.89066C1.98539 3.85494 1.9594 3.8387 1.93992 3.8387C1.89986 3.8387 1.68119 3.82463 1.60541 3.80839C1.44303 3.77267 1.41813 3.69581 1.40298 3.53234C1.38241 3.30717 1.38241 2.87307 1.38241 2.38268V1.43653C1.38241 0.654938 1.41272 0.148309 1.41272 0.108254C1.41272 0.0573748 1.39756 0 1.3521 0C1.31204 0 1.26549 0.036806 1.22003 0.0671172C1.04357 0.20027 0.071448 0.843303 0.0508797 0.854129C0.0259812 0.869284 0 0.89418 0 0.925574" fill="black"/>
</svg>
