<svg width="2.1262013912200928" height="3.570840358734131" viewBox="0 0 2.1262013912200928 3.570840358734131" fill="none" xmlns="http://www.w3.org/2000/svg">
<path d="M1.62165 3.57084L1.55345 3.24283L1.51556 3.127L0.924493 2.02064L0.900677 1.98058C0.881192 1.95893 0.86712 1.9362 0.817323 1.89398C0.804332 1.87883 0.815157 1.8615 0.830313 1.86367C1.03924 1.88857 1.39757 1.78897 1.48309 1.75974C1.5069 1.79006 2.08065 2.46123 2.12395 2.43201C2.16833 2.40386 1.54154 1.58112 1.53938 1.58004C1.53938 1.57571 1.59892 1.24012 1.58485 1.20007C1.55886 1.12213 1.38999 0.997635 1.32395 0.997635C1.31962 0.997635 1.31638 0.998717 1.31421 1.00088C1.29905 0.978149 1.29148 0.958662 1.28606 0.952166L1.27632 0.934847C1.23085 0.860151 1.1973 0.801694 1.1724 0.763805C1.28823 0.800611 1.40189 0.8385 1.41055 0.841748L1.47442 0.84716L1.54046 0.755144L1.05981 0.591681C1.01543 0.57869 0.967795 0.485591 0.964547 0.408731C0.963464 0.354603 1.30122 0.0244268 1.2341 0.00385846C1.10636 -0.0394433 0.794588 0.293981 0.789175 0.390327C0.783763 0.45528 0.81732 0.596009 0.875778 0.654467C0.855209 0.680448 0.837891 0.711842 0.837891 0.746484C0.242492 0.786538 0.0248985 1.00305 0 1.11238C0 1.11238 0.477403 0.920773 0.647362 0.894792C0.53586 0.998716 0.715563 1.20224 0.715563 1.20224C0.691747 1.19466 0.635455 1.15677 0.576998 1.20224C0.463331 1.28884 0.578078 1.47395 0.601894 1.51401C0.555345 1.51725 0.523954 1.527 0.506633 1.54324C0.449258 1.61144 0.561841 1.75433 0.643031 1.84418C0.683086 1.88424 0.506632 1.87233 0.0010836 1.49669C0.0151567 1.86259 0.623546 2.08343 0.816239 2.08667C0.821652 2.09209 1.6 3.51996 1.62382 3.57084M0.615968 1.61144C0.650609 1.57138 0.749121 1.6634 0.775102 1.63958C0.8 1.61468 0.572668 1.35379 0.645199 1.30183C0.728554 1.24337 0.830312 1.44581 0.876861 1.41117C0.922328 1.37652 0.903925 1.35163 0.890935 1.32131C0.88877 1.30724 0.790259 1.12754 0.787012 1.12754C0.779434 1.1178 0.674424 0.954332 0.743707 0.918608C0.815155 0.895874 0.887688 1.01387 0.905008 1.03444C0.911504 1.03985 1.04357 1.28018 1.10203 1.24987C1.15724 1.21955 1.00135 0.862317 1.00135 0.862317C0.989445 0.828758 0.924493 0.737823 0.958052 0.71076C0.989446 0.684779 1.02734 0.691274 1.11827 0.814685C1.12801 0.826592 1.37375 1.27477 1.40406 1.25961C1.40406 1.25961 1.40839 1.16759 1.37158 1.09939C1.42138 1.13836 1.51556 1.16435 1.51015 1.23363C1.51015 1.25636 1.50041 1.44905 1.46468 1.49669C1.35643 1.62984 0.849796 1.80088 0.68958 1.77273C0.677672 1.7565 0.576997 1.65799 0.617051 1.61035" fill="black"/>
</svg>
