<svg width="16.51875877380371" height="17.78257179260254" viewBox="0 0 16.51875877380371 17.78257179260254" fill="none" xmlns="http://www.w3.org/2000/svg">
<path d="M14.4468 0.00790261C14.2184 0.0208931 12.3142 0.236319 11.0454 0.239567C10.0343 0.242815 8.96152 0.194101 8.39102 0.214669C8.34555 0.207091 8.2741 0.213586 8.21132 0.222246H8.21023C7.35935 0.184357 4.64 0.144303 4.64 0.144303C4.43757 0.101001 1.67816 0.817646 1.2787 3.88666C1.03188 5.77894 1.14988 6.38084 1.57857 7.27935C1.8308 7.81413 2.34285 8.80249 2.32661 9.5711C2.32011 9.89369 1.74745 8.22333 1.75611 8.41169C1.8373 10.3538 1.49846 14.7305 1.30793 15.6561C1.07735 16.7624 0.856513 16.2049 0.594537 16.6672C0.554483 16.7397 -0.0127708 17.7703 0.000219703 17.7811C0.0132102 17.7909 0.28493 17.7497 0.572886 17.7216C0.907393 17.7107 1.18344 16.7982 1.41186 16.7982C1.44866 16.7982 1.15962 17.5332 1.20293 17.5202C1.44109 17.4607 1.82972 17.3632 1.80266 17.5505C1.89143 17.5798 1.95854 17.5343 2.00942 17.4726C2.0787 17.3892 2.39373 15.9733 2.58534 15.2393C2.6308 15.1159 2.94582 15.1873 3.03243 15.2187C3.20347 14.8734 2.9285 13.7162 3.42539 12.1129C3.91362 10.5324 4.43107 9.16514 4.19941 8.75594C4.17343 8.71156 3.3377 9.82116 3.32038 9.77786C3.26625 9.6512 6.04515 4.98003 5.50496 2.56271C5.49738 2.4761 5.45949 2.37759 5.45949 2.30831C5.45624 2.29099 5.77884 2.42522 6.18155 2.53131C6.70117 2.69478 7.15908 2.77813 7.31605 3.37894C7.50442 4.54376 8.04352 6.18923 9.13797 6.28666C8.64325 5.83307 8.00455 3.51643 8.08141 2.56162C8.38885 4.11616 9.335 6.3646 10.1166 6.26501C9.95746 6.01602 9.30469 4.59897 9.30469 3.70696C9.58615 4.44525 10.2573 6.0669 10.765 6.07664C12.0922 6.10479 12.4311 5.50181 13.4129 5.28097C15.6083 4.783 16.1832 5.62414 16.5188 5.79951C16.2503 5.54078 15.3323 3.93862 14.7228 2.69369C14.24 1.701 15.0562 0.715887 16.4484 0.0999195C16.7223 -0.0213254 14.8776 -0.00292283 14.4446 0.00790261" fill="#BDBBBB"/>
</svg>
