<svg width="2.5721256732940674" height="4.037890911102295" viewBox="0 0 2.5721256732940674 4.037890911102295" fill="none" xmlns="http://www.w3.org/2000/svg">
<path d="M0 1.1908C0 1.62165 0.304195 2.177 1.03166 2.177C1.29039 2.177 1.55345 2.10014 1.69851 1.94208C1.70825 1.93234 1.72449 1.90095 1.72449 1.88579C1.72449 1.86089 1.70501 1.83924 1.68444 1.83924C1.66387 1.83924 1.63789 1.86414 1.58268 1.89662C1.51773 1.92693 1.41705 1.95724 1.23951 1.95724C1.06198 1.95724 0.567254 1.77321 0.567254 0.991611C0.567254 0.55751 0.810826 0.230582 1.17456 0.230582C1.56428 0.230582 1.94317 0.62896 1.94317 1.53397C1.94317 2.741 1.15399 3.57781 0.628958 3.89933C0.604059 3.92098 0.568336 3.95129 0.568336 3.98701C0.568336 4.01191 0.593234 4.03789 0.613802 4.03789C0.653856 4.03789 0.679839 4.03248 0.704737 4.01624C1.33261 3.71962 2.57213 2.82111 2.57213 1.38999C2.57213 0.612719 2.12179 0 1.29689 0C0.51854 0 0.00216555 0.501218 0.00216555 1.1908" fill="#BDBBBB"/>
</svg>
