<svg width="0.9726243615150452" height="1.2102850675582886" viewBox="0 0 0.9726243615150452 1.2102850675582886" fill="none" xmlns="http://www.w3.org/2000/svg">
<path d="M0.625673 0.846549C0.691709 0.847631 0.70903 0.785927 0.711195 0.715562L0.724185 0.703655C0.724185 0.703655 0.790221 0.647361 0.82811 0.518538C0.859504 0.687415 0.94286 1.02192 0.882237 1.10961L0.784808 1.21029L0.885485 1.15291C0.925539 1.13775 0.986161 1.06956 0.969923 0.950475C0.958015 0.885523 0.857338 0.351827 0.857338 0.351827L0.85409 0.326929C0.84976 0.255481 0.831357 0.192693 0.791303 0.138566C0.725267 0.0497969 0.620261 0.00324763 0.552061 0C0.552061 0 0.828109 0.186198 0.793468 0.377808C0.759909 0.567254 0.725267 0.580245 0.725267 0.581327L0.684132 0.538026V0.647361C0.674389 0.702571 0.660315 0.725304 0.622426 0.722057C0.517419 0.719892 0.437311 0.864955 0.324726 0.832478C0.218637 0.800002 0.163427 0.710149 0.0963094 0.661434C0.0335219 0.614885 0.127704 0.522869 0.127704 0.522869C0.127704 0.522869 0.125538 0.486064 0.0963094 0.466578C0.0681633 0.448175 0.0226972 0.562923 0.0226972 0.562923C0.0226972 0.562923 -0.0422559 0.726386 0.0475953 0.785926C0.206729 0.889851 0.153684 0.886604 0.324726 0.939649C0.497933 0.990529 0.48386 0.84222 0.625673 0.844385" fill="black"/>
</svg>
