<svg width="9.620569229125977" height="7.191342353820801" viewBox="0 0 9.620569229125977 7.191342353820801" fill="none" xmlns="http://www.w3.org/2000/svg">
<path d="M1.73099 0.242492C1.75913 0.0844407 1.81434 0 1.88904 0C1.96373 0 2.01894 0.0465508 2.14019 0.289041L4.68309 5.46685L7.21624 0.224087C7.29093 0.0746963 7.33748 0 7.42192 0C7.50636 0 7.56157 0.0931002 7.58972 0.289041L8.43627 5.98972C8.51962 6.57646 8.6138 6.84601 8.8931 6.93045C9.16374 7.0138 9.34993 7.02355 9.47118 7.02355C9.55453 7.02355 9.62057 7.03329 9.62057 7.0885C9.62057 7.1632 9.50798 7.19134 9.37808 7.19134C9.14533 7.19134 7.86035 7.17185 7.48687 7.14479C7.27253 7.1253 7.21732 7.09824 7.21732 7.04195C7.21732 6.9954 7.25521 6.96726 7.32016 6.94019C7.37646 6.92071 7.4046 6.80054 7.36671 6.53857L6.80812 2.4866H6.77023L4.74046 6.64032C4.52612 7.07875 4.47957 7.16211 4.39513 7.16211C4.31069 7.16211 4.21759 6.97591 4.06928 6.69554C3.84628 6.26793 3.11015 4.84222 2.99756 4.58133C2.91421 4.38647 2.35453 3.2866 2.02977 2.58836H1.99296L1.50907 6.2203C1.48958 6.38809 1.48092 6.50934 1.48092 6.65873C1.48092 6.83518 1.60217 6.91962 1.76022 6.95643C1.92801 6.99324 2.05792 7.00298 2.1521 7.00298C2.22571 7.00298 2.29175 7.02138 2.29175 7.06901C2.29175 7.15237 2.20623 7.17077 2.06766 7.17077C1.67686 7.17077 1.25792 7.14263 1.09012 7.14263C0.912585 7.14263 0.465494 7.17077 0.167795 7.17077C0.0757784 7.17077 0 7.15237 0 7.06901C0 7.02247 0.0552109 7.00298 0.14831 7.00298C0.223005 7.00298 0.286874 7.00298 0.427605 6.97483C0.688498 6.91854 0.763194 6.5548 0.80866 6.2387L1.73207 0.240325L1.73099 0.242492Z" fill="#1D1D1B"/>
</svg>
