<svg width="7.350472927093506" height="7.044111251831055" viewBox="0 0 7.350472927093506 7.044111251831055" fill="none" xmlns="http://www.w3.org/2000/svg">
<path d="M0.941813 2.70095C0.941813 1.28606 0.941813 1.02409 0.92341 0.726386C0.905007 0.410283 0.830311 0.260892 0.522868 0.194857C0.448173 0.176453 0.290122 0.167793 0.159134 0.167793C0.0562924 0.167793 0 0.149391 0 0.0844383C0 0.0194857 0.0660345 0 0.205683 0C0.700405 0 1.28498 0.0281439 1.482 0.0281439C1.79811 0.0281439 2.50717 0 2.79513 0C3.38187 0 4.00649 0.0562903 4.50879 0.400539C4.76969 0.578077 5.14208 1.05223 5.14208 1.67686C5.14208 2.36644 4.85304 2.99973 3.9134 3.764C4.74154 4.80758 5.38566 5.63572 5.93451 6.2138C6.45629 6.75507 6.83735 6.81894 6.97808 6.84709C7.08092 6.86549 7.16319 6.87524 7.23897 6.87524C7.31475 6.87524 7.35047 6.90338 7.35047 6.94993C7.35047 7.02463 7.28444 7.04303 7.17402 7.04303H6.28958C5.76888 7.04303 5.53505 6.9954 5.29256 6.86658C4.89202 6.65223 4.53802 6.21489 4.01624 5.49716C3.64384 4.98512 3.21516 4.35183 3.09499 4.21218C3.04736 4.15589 2.99215 4.14723 2.9272 4.14723L2.11746 4.12882C2.06982 4.12882 2.04276 4.14722 2.04276 4.20352V4.33342C2.04276 5.19946 2.04276 5.93559 2.08931 6.32639C2.11746 6.59702 2.17267 6.80162 2.45304 6.83951C2.59269 6.85792 2.79729 6.87632 2.90988 6.87632C2.98457 6.87632 3.02138 6.90446 3.02138 6.95101C3.02138 7.01705 2.95643 7.04411 2.83518 7.04411C2.29499 7.04411 1.60541 7.01597 1.46576 7.01597C1.28823 7.01597 0.702571 7.04411 0.329093 7.04411C0.207849 7.04411 0.142896 7.01597 0.142896 6.95101C0.142896 6.90446 0.180785 6.87632 0.292287 6.87632C0.431935 6.87632 0.544519 6.85683 0.627875 6.83951C0.81299 6.80162 0.85954 6.59702 0.897429 6.32639C0.942896 5.93559 0.942896 5.19946 0.942896 4.34317V2.70419L0.941813 2.70095ZM2.04168 3.43708C2.04168 3.53884 2.06116 3.57672 2.12503 3.60487C2.32097 3.67091 2.59919 3.69797 2.83302 3.69797C3.20541 3.69797 3.32666 3.66116 3.49445 3.53884C3.77375 3.33424 4.04438 2.90555 4.04438 2.14235C4.04438 0.819483 3.16969 0.436265 2.61867 0.436265C2.38701 0.436265 2.21705 0.446008 2.12503 0.473071C2.06008 0.491474 2.04168 0.529363 2.04168 0.604058V3.43599V3.43708Z" fill="#1D1D1B"/>
</svg>
