<svg width="0.3702315092086792" height="1.6855201721191406" viewBox="0 0 0.3702315092086792 1.6855201721191406" fill="none" xmlns="http://www.w3.org/2000/svg">
<path d="M0.0368061 0.908254L0.111502 1.68552L0.244656 1.60866L0.211097 1.03816C0.211097 1.03816 0.274966 1.06847 0.2977 1.04899C0.322598 1.02733 0.191612 0.913666 0.184034 0.768605C0.178621 0.664681 0.297699 0.531529 0.277131 0.517456C0.256563 0.504465 0.214345 0.543436 0.214345 0.543436C0.221923 0.449255 0.230582 0.346414 0.237077 0.279297C0.24682 0.18728 0.370232 0 0.370232 0C0.0931002 0.0952639 0.0443847 0.412449 0.0443847 0.412449L0.0248997 0.658187C0.0248997 0.658187 0 0.735047 0 0.784844C0 0.840054 0.0346421 0.906089 0.0378897 0.906089" fill="black"/>
</svg>
