<svg width="2.5504751205444336" height="3.969686985015869" viewBox="0 0 2.5504751205444336 3.969686985015869" fill="none" xmlns="http://www.w3.org/2000/svg">
<path d="M0 0.909336C0 0.960216 0.0043313 0.986196 0.0400553 0.986196C0.0703665 0.986196 0.0855222 0.961299 0.090935 0.920162C0.100678 0.837889 0.165629 0.674425 0.258728 0.61272C0.379973 0.531529 0.593235 0.520703 0.732883 0.520703H2.04493C1.3456 1.70068 0.698241 3.20866 0.558593 3.69905C0.532612 3.78132 0.522869 3.85819 0.522869 3.90907C0.522869 3.95453 0.538026 3.96969 0.593235 3.96969C0.82057 3.96969 1.23085 3.76076 1.23085 3.659C1.23085 3.59296 1.22111 3.55616 1.23085 3.47064C1.30555 2.8157 2.09581 0.787008 2.51583 0.184031C2.53099 0.164545 2.55048 0.123411 2.55048 0.0920169C2.55048 0.0660358 2.52558 0.0508797 2.42923 0.0508797H0.810826C0.274967 0.0508797 0.158053 0 0.126659 0C0.0952653 0 0.0768614 0.0205687 0.0768614 0.0714483C0.0768614 0.122328 0.0010836 0.720974 0.0010836 0.909336" fill="black"/>
</svg>
