<svg width="0.9880154132843018" height="1.6663919687271118" viewBox="0 0 0.9880154132843018 1.6663919687271118" fill="none" xmlns="http://www.w3.org/2000/svg">
<path d="M0.46658 0.302359C0.476322 0.314267 0.473075 0.37922 0.463332 0.429017C0.463332 0.431182 0.436267 0.527528 0.567255 0.591398C0.650611 0.631452 0.699323 0.700735 0.730717 0.747285C0.738295 0.759193 0.744791 0.770018 0.751286 0.778678C0.770772 0.804659 0.779434 0.827392 0.763196 0.884767C0.755618 0.913995 0.742625 0.930235 0.730717 0.942143C0.719892 0.955134 0.704739 0.972453 0.713399 0.998434V1.00277C0.723142 1.03091 0.744793 1.09586 0.80758 1.12293C0.816241 1.13267 0.849798 1.17381 0.816239 1.27557L0.806497 1.30588C0.76536 1.41521 0.800001 1.68585 0.863871 1.66528C0.929906 1.64796 0.914751 1.4163 0.93532 1.38815C0.973209 1.33944 0.998109 1.19762 0.984035 1.12293C0.980788 1.0937 0.969961 1.07638 0.955888 1.06447C0.895266 1.02658 0.875781 0.998434 0.875781 0.989774C0.875781 0.985443 0.885521 0.972454 0.893099 0.963794C0.902842 0.947555 0.917998 0.929152 0.930989 0.903171C0.952639 0.850127 0.938567 0.778678 0.914751 0.729964C0.89743 0.68991 0.781599 0.538354 0.712316 0.51562C0.653858 0.499382 0.621381 0.466906 0.620299 0.43443C0.620299 0.418192 0.623547 0.394375 0.62463 0.372724C0.632208 0.318597 0.635456 0.269882 0.614888 0.240653C0.417865 -0.0332302 0.126659 0.0014121 0.126659 0.0014121L0 0.139978C0 0.139978 0.226255 0.027393 0.46658 0.302359Z" fill="black"/>
</svg>
