<svg width="7.665493965148926" height="7.172934055328369" viewBox="0 0 7.665493965148926 7.172934055328369" fill="none" xmlns="http://www.w3.org/2000/svg">
<path d="M2.49635 4.79567C2.4498 4.79567 2.43031 4.81407 2.41299 4.87036L1.90961 6.14668C1.81542 6.37943 1.76888 6.60352 1.76888 6.71502C1.76888 6.88281 1.85331 7.00406 2.14235 7.00406H2.282C2.3935 7.00406 2.42165 7.02246 2.42165 7.07875C2.42165 7.15345 2.36536 7.17185 2.2636 7.17185C1.96481 7.17185 1.56536 7.14371 1.27632 7.14371C1.17239 7.14371 0.662514 7.17185 0.176452 7.17185C0.055207 7.17185 0 7.15237 0 7.07875C0 7.02246 0.0368064 7.00406 0.111502 7.00406C0.194858 7.00406 0.325844 6.99432 0.400539 6.98566C0.828144 6.92936 1.00568 6.61326 1.19188 6.14668L3.53017 0.372395C3.64276 0.101759 3.69797 0 3.79107 0C3.87442 0 3.92963 0.0833536 4.02273 0.29878C4.24573 0.810823 5.73748 4.53694 6.33288 5.95291C6.68796 6.7908 6.95751 6.9207 7.15129 6.96833C7.29093 6.99648 7.43166 7.00514 7.54317 7.00514C7.61786 7.00514 7.66549 7.01488 7.66549 7.07984C7.66549 7.15453 7.57997 7.17293 7.2368 7.17293C6.89364 7.17293 6.2203 7.17294 5.47551 7.15345C5.30771 7.14479 5.19621 7.14479 5.19621 7.07875C5.19621 7.02246 5.23302 7.00406 5.3272 6.9954C5.39215 6.97591 5.4571 6.89256 5.41055 6.78105L4.66468 4.86171C4.64628 4.81624 4.61705 4.79675 4.57158 4.79675H2.49418L2.49635 4.79567ZM4.39621 4.33018C4.44168 4.33018 4.4525 4.30203 4.44168 4.27496L3.60487 1.98322C3.59513 1.94533 3.58539 1.89878 3.55832 1.89878C3.53018 1.89878 3.51177 1.94533 3.50311 1.98322L2.64465 4.26522C2.63599 4.30203 2.64465 4.33018 2.68146 4.33018H4.39621Z" fill="#1D1D1B"/>
</svg>
