<svg width="1.98430335521698" height="3.935044765472412" viewBox="0 0 1.98430335521698 3.935044765472412" fill="none" xmlns="http://www.w3.org/2000/svg">
<path d="M0 0.925574C0 0.955885 0.024899 0.981865 0.0411372 0.981865C0.060623 0.981865 0.086605 0.972123 0.111504 0.96238C0.221923 0.91583 0.602978 0.716644 0.698242 0.716644C0.775103 0.716644 0.775102 0.778349 0.775102 0.899594V1.56969L0.780515 2.3816C0.784845 2.87307 0.775103 3.30717 0.755617 3.53126C0.740461 3.6958 0.714479 3.76725 0.55318 3.80297C0.461164 3.82354 0.202436 3.83762 0.147226 3.83762C0.126658 3.83762 0.107172 3.85386 0.107172 3.88958C0.107172 3.9253 0.137484 3.93504 0.193776 3.93504C0.516374 3.93504 0.942897 3.91989 1.05873 3.91989C1.19513 3.91989 1.51881 3.93504 1.9042 3.93504C1.95832 3.93504 1.9843 3.9253 1.9843 3.88958C1.9843 3.85386 1.95832 3.83762 1.93884 3.83762C1.89878 3.83762 1.68011 3.82354 1.60433 3.80731C1.44195 3.77158 1.41705 3.69472 1.4019 3.53126C1.38241 3.30717 1.38241 2.87307 1.38241 2.3816V1.43653C1.38241 0.654938 1.41272 0.148309 1.41272 0.108254C1.41272 0.0573748 1.39756 0 1.3521 0C1.31204 0 1.26549 0.036806 1.22003 0.0671172C1.04357 0.20027 0.0703655 0.843299 0.0508797 0.853042C0.0248986 0.86928 0 0.894179 0 0.92449" fill="#BDBBBB"/>
</svg>
