<svg width="9.621651649475098" height="7.190255165100098" viewBox="0 0 9.621651649475098 7.190255165100098" fill="none" xmlns="http://www.w3.org/2000/svg">
<path d="M1.7299 0.242489C1.75805 0.0844374 1.81326 0 1.88904 0C1.96482 0 2.01894 0.0465475 2.14019 0.289037L4.68308 5.46685L7.21732 0.223004C7.29202 0.0746953 7.33857 0 7.42192 0C7.50528 0 7.56157 0.0930969 7.58971 0.289037L8.43735 5.98971C8.52179 6.57645 8.6138 6.84709 8.89418 6.93045C9.16374 7.0138 9.35101 7.02355 9.47118 7.02355C9.55453 7.02355 9.62165 7.03329 9.62165 7.0885C9.62165 7.16319 9.50906 7.19026 9.37916 7.19026C9.14533 7.19026 7.86035 7.17185 7.48904 7.14479C7.27469 7.12639 7.2184 7.09824 7.2184 7.04195C7.2184 6.9954 7.25521 6.96725 7.32125 6.94019C7.37646 6.9207 7.4046 6.79946 7.36779 6.53856L6.8092 2.4866H6.77131L4.74046 6.64032C4.52612 7.07875 4.47957 7.16211 4.39621 7.16211C4.31286 7.16211 4.21867 6.97483 4.07037 6.69662C3.84736 6.26901 3.11123 4.84222 2.99865 4.58241C2.91529 4.38647 2.3567 3.28769 2.03085 2.58836H1.99405L1.50907 6.22246C1.48958 6.38917 1.48092 6.51042 1.48092 6.65981C1.48092 6.83626 1.60216 6.9207 1.76022 6.95859C1.92801 6.9954 2.059 7.00514 2.15101 7.00514C2.22571 7.00514 2.29175 7.02354 2.29175 7.07009C2.29175 7.15345 2.20839 7.17185 2.06766 7.17185C1.67578 7.17185 1.25683 7.14371 1.09012 7.14371C0.912584 7.14371 0.464412 7.17185 0.167795 7.17185C0.0746959 7.17185 0 7.15345 0 7.07009C0 7.02354 0.0552092 7.00514 0.148308 7.00514C0.223004 7.00514 0.286874 7.00514 0.427605 6.97591C0.688498 6.9207 0.762111 6.55697 0.808661 6.23978L1.73099 0.241405L1.7299 0.242489Z" fill="#FFB300"/>
</svg>
