<svg width="11.438159942626953" height="7.759206771850586" viewBox="0 0 11.438159942626953 7.759206771850586" fill="none" xmlns="http://www.w3.org/2000/svg">
<path d="M8.89743 2.22524C7.75643 2.445 6.15859 2.53701 5.29147 2.4201C4.60406 2.32592 4.57158 1.90156 4.69608 1.52917C4.05954 2.15921 3.72287 1.91347 3.70771 1.83553C3.68498 1.73593 3.94263 1.83553 4.1115 1.66773C4.28254 1.50102 4.38105 0.907785 4.24574 0.621993C4.11258 0.336202 4.25981 0.388164 4.25981 0.388164C4.25981 0.388164 4.6138 0.423888 4.76644 0.848246C4.8682 0.423888 4.28363 -0.104393 4.0931 0.0179346C3.90257 0.13918 3.51827 0.4542 3.57348 0.914281C3.6406 1.48262 3.59838 1.76624 3.41434 1.7565C2.16942 1.70237 0.774019 1.53674 0 2.34107C0 2.34107 0.938565 1.72294 1.65954 1.78898C2.37943 1.85718 3.85819 2.00332 3.94696 3.73647C3.94696 3.73647 3.92964 4.12294 3.96319 4.57653C3.98051 4.81685 3.7521 4.66421 3.7521 4.7703C3.76401 5.24987 4.10501 5.17409 4.07578 5.59087C3.95778 7.29696 3.17077 7.25799 3.17077 7.25799C3.17077 7.25799 4.11908 7.39222 4.58999 5.79872C4.5889 6.7113 4.49148 6.9408 4.12449 7.29804C4.8498 7.34459 5.41922 6.65826 5.43545 6.55866C5.54371 6.72971 5.74939 7.28722 6.2885 7.5178C6.02436 7.07612 6.08606 6.53918 6.14452 6.06719C6.3069 7.13133 6.57645 7.52646 7.12422 7.75921C6.90447 7.53512 6.45738 7.0523 6.59161 6.18843C6.69662 6.92781 7.55832 7.58383 7.55832 7.58383C7.55832 7.58383 7.28336 7.14216 7.21191 6.35948C7.58106 7.15406 7.97835 7.2201 7.97835 7.2201C7.97835 7.2201 7.36563 6.57599 7.25954 5.7381C7.24763 5.72402 7.69256 6.30752 8.0498 6.30752C7.77375 5.97517 7.3364 5.50319 7.2866 4.90562C7.56049 5.26394 7.76076 5.49669 8.08227 5.52917C7.81272 5.22389 7.5908 4.72592 7.50636 4.13268C7.8138 4.51915 7.76076 4.64256 8.34208 4.8017C8.11475 4.58627 7.96319 3.98329 8.07253 3.6975C8.17321 3.89452 8.55859 4.10454 9.01543 4.163C8.8682 4.06773 8.63112 3.4994 8.66576 3.27314C8.87361 3.37382 9.31962 3.52538 9.67578 3.47666C9.50582 3.37707 9.38674 2.87693 9.43979 2.76002C9.53397 2.81956 10.2116 2.80765 10.3524 2.76002C10.1337 2.61929 9.94208 2.41685 9.99513 2.43417C10.1586 2.49155 10.426 2.35406 10.7746 2.29885C11.1405 2.23823 11.2054 2.23498 11.4382 2.24148C11.2119 2.13214 9.78945 2.0044 8.89959 2.22416" fill="#BDBBBB"/>
</svg>
