<svg width="34.40422058105469" height="40.46199035644531" viewBox="0 0 34.40422058105469 40.46199035644531" fill="none" xmlns="http://www.w3.org/2000/svg">
<path fill-rule="evenodd" clip-rule="evenodd" d="M12.8477 4.98233C12.5523 5.27747 12.5674 5.73141 12.2504 5.90929C12.0212 6.03794 11.7598 5.99704 11.6487 5.87864C11.4897 5.70877 11.4347 5.4429 11.6427 5.20961C11.8898 4.93233 12.4082 4.97514 12.8477 4.98234L12.8477 4.98233ZM10.6294 9.28561C10.6203 9.64777 10.6732 9.92716 10.8501 10.1442C10.5926 10.3488 10.6439 10.672 10.763 10.9597C10.8923 11.2723 11.3342 11.7676 11.8805 11.9968C11.9735 11.8354 11.7153 11.4044 11.8082 11.1083C12.1422 11.3645 12.4592 11.5656 12.6761 11.5456C12.5293 11.2489 12.5137 11.0496 12.568 10.9705C13.1546 10.4827 13.8506 9.86575 14.2662 9.72959C14.6028 9.61923 14.9552 9.85348 15.0126 10.2773C15.0781 10.7619 14.8908 11.1699 14.5708 11.5111C14.0032 12.1171 13.2407 12.4087 12.6522 13.0613C11.7138 14.1019 11.5177 15.2519 10.3794 15.3116C11.0083 14.8883 11.3661 14.5257 11.7258 13.8387C9.47987 14.1809 8.11504 12.9701 6.7337 12.2624C6.12841 11.9521 5.52311 11.8871 5.17991 11.813C4.63171 11.2465 4.35156 10.7815 4.22252 10.0211C4.07633 9.15929 4.29472 8.39489 3.50464 8.30164C3.05157 7.6749 2.47525 7.25023 1.62939 7.80471C2.08194 7.88315 2.41067 7.99033 2.63394 8.65946C2.56861 8.75745 2.41671 8.9046 2.41268 9.07638C2.12695 9.09255 2.03784 9.11676 1.85 9.29678C1.09837 8.99298 0.390586 9.11835 0.0315032 9.86359C0.554336 9.72395 0.958468 9.74097 1.31776 10.093C1.35656 10.334 1.38172 10.5102 1.5185 10.6856C1.20782 10.8751 1.01828 11.2529 1.00624 11.5042C0.39936 11.6486 0.0325412 12.0277 0 12.6041C0.434146 12.3004 0.883482 12.2632 1.10562 12.3229C1.24717 12.4677 1.37328 12.7498 1.6644 12.8311C1.9941 12.9231 2.63266 12.7855 3.00148 12.894C3.14598 13.149 3.19948 13.2821 3.18637 13.4444C3.1351 14.0816 2.09853 13.662 2.19312 14.6153C1.8334 14.7185 1.61531 14.5926 1.30096 14.3671C1.51237 15.3106 2.06373 15.7406 2.79707 15.2965C3.41917 15.4321 3.80394 14.7879 4.36434 14.4808C4.90399 14.1853 5.69077 14.5651 6.13604 14.8803C6.81913 15.3638 7.54463 15.9755 7.92065 17.433C8.16462 17.1818 8.32995 16.8139 8.37075 16.4544L10.1427 18.0953L6.32186 21.0581C6.06108 21.2602 5.7671 21.4456 5.49266 21.3367C5.25788 21.2436 5.12395 20.9843 4.91898 20.7908C4.61951 20.5077 4.21664 20.3197 3.78568 20.5558C3.1027 20.5327 2.469 20.6941 2.34004 21.7195C2.56593 21.5158 2.77365 21.3348 3.19768 21.4622C3.19959 21.7196 3.26491 21.9442 3.43045 22.136C3.21808 22.2667 3.07919 22.4711 3.0629 22.6017C2.43256 22.6381 1.97295 22.9952 1.91132 23.7412C2.26883 23.3829 2.56724 23.2252 2.98956 23.398C3.1144 24.1634 3.4662 24.2586 3.87149 24.2066C3.75711 24.5335 3.73227 24.766 3.87932 25.0396C3.65934 25.528 3.89823 26.1577 4.21452 26.3675C4.17361 26.065 4.22276 25.7053 4.39443 25.5463C4.75384 25.635 5.02065 25.4912 5.38006 25.0226C5.46568 25.4168 5.7418 25.635 6.08905 25.6032C6.13588 26.0139 6.32214 26.3447 6.56516 26.5587C6.49571 26.2239 6.45649 25.8521 6.5178 25.5174C7.16918 25.0029 7.03757 24.4423 7.1455 23.8024C7.26558 23.0902 7.62447 22.7732 8.19846 22.3964C9.31284 21.6649 10.6275 21.1099 12.7061 20.9357C13.3555 21.7195 14.0019 22.568 14.8229 23.2904C13.5668 24.3034 12.7155 23.8782 11.697 23.9976C11.2381 24.0512 10.6311 24.2658 10.3026 24.6056C10.0131 24.905 9.86535 25.2861 9.54317 25.4478C9.29274 25.5736 8.95754 25.6082 8.56835 25.2861C8.54931 26.2025 8.92004 26.506 9.85602 26.4529C9.52547 26.8438 9.17821 26.992 8.4674 26.7315C8.76867 27.4606 9.26075 27.7294 10.0245 27.6487C10.2052 28.8982 11.8069 29.5911 11.5217 30.5775C11.1355 31.9131 8.18216 32.2795 7.1095 31.5883C6.3554 31.1023 6.01835 30.2915 5.13211 30.5588C4.64363 30.1143 3.74131 29.9688 3.36931 31.0349C4.01307 30.6752 4.30686 30.8715 4.16795 31.2945C3.01115 31.3098 2.57505 31.8846 2.73613 32.6688C2.96045 32.2576 3.19851 32.1623 3.49171 32.2188C3.39478 32.4412 3.33198 32.7323 3.34477 33.1745C2.77331 33.5199 2.75132 34.1539 3.01063 34.6847C3.16105 34.2518 3.2359 33.8561 3.58981 33.8361C3.80144 34.1226 4.09552 34.3268 4.47181 34.4486C4.33978 35.1272 4.37244 35.744 4.5698 36.2579C4.70024 35.8033 4.83047 35.5136 5.00204 35.3062C5.59782 35.7192 6.22787 35.7275 6.84361 35.5614C8.10135 35.2222 8.87387 34.2416 9.85053 34.2269C10.3935 34.2187 10.6413 34.6452 10.2769 35.1437C11.056 35.0962 11.4757 34.9135 11.8542 34.6951C12.4445 34.3544 12.8168 33.9265 13.3891 33.7896C14.3405 33.5621 15.6818 34.6523 16.3192 33.4352C15.5699 33.5615 15.139 33.2222 15.0078 32.8677C15.9519 33.032 16.5652 33.0041 17.072 32.2152C15.6941 32.447 15.0812 31.2455 14.9965 30.5859C14.917 29.9662 15.1169 28.8057 16.4045 28.4148C16.8193 27.5535 17.0382 27.1022 17.4884 26.3908L17.638 25.6975C17.7291 26.0191 17.7986 26.3262 17.6979 26.675C17.5509 27.1848 17.1954 27.7402 16.9801 28.3246C16.8029 28.8053 16.7495 29.3335 16.7755 29.7328C16.8083 30.2342 16.9813 30.6931 17.2985 31.0707C17.8272 31.6999 18.5992 32.2087 18.0578 33.4684C18.6376 33.4111 18.9704 33.134 19.5504 32.4727C19.9913 32.8091 20.3155 33.2622 20.1523 33.8733C20.8847 33.6483 21.3469 33.0742 21.6057 32.2384C22.655 32.2687 23.2425 32.4775 23.3442 32.8811C23.5136 33.5537 21.835 36.0491 19.7258 36.1342C19.3908 36.0442 19.1262 35.6953 18.8647 35.5711C18.6282 35.4588 18.3028 35.4828 18.0216 35.8814C17.3612 35.7022 16.584 35.8735 16.3804 36.6116C15.9883 36.786 15.6397 37.3676 15.6967 37.88C15.8371 37.7581 16.2875 37.4573 16.4588 37.4338C16.5063 37.5866 16.7706 37.7473 16.9216 37.7912C16.0291 38.5735 16.001 39.2151 16.0793 39.5206C16.4562 38.911 16.8977 38.7974 17.1123 38.8138C17.2638 39.1949 17.565 39.3533 18.0057 39.4028L18.0266 40.462L18.7809 39.627C19.7039 40.0787 20.6748 39.7947 21.3602 39.2802C22.6247 38.3313 23.1524 36.4758 24.0912 36.598C24.2877 36.6237 24.4696 36.8195 24.3757 37.1015C24.6081 37.1578 24.8295 37.0648 24.9973 36.8647C25.3667 36.4247 25.5961 35.5481 26.2854 34.5166C26.7258 33.8574 27.7837 33.1433 28.086 32.4897C27.5941 32.8139 27.0197 32.7117 26.9404 32.4253C27.8058 31.9727 28.5853 31.444 28.9085 30.2008C28.4347 30.4198 28.0021 30.5838 27.5285 30.5283C27.9243 29.6898 28.0586 28.8239 27.6823 28.2613C26.4776 30.0268 25.036 29.7328 24.453 29.3227C23.9987 29.0031 23.5657 28.5217 23.5305 27.3976C23.5213 27.1032 23.5928 26.6347 23.7193 26.1961C23.8457 25.7575 23.9863 25.4109 23.9914 25.0103C25.7724 26.036 27.1694 26.3453 28.1745 26.3009C30.0569 26.2176 31.2769 24.7239 31.2107 22.814C31.1783 21.8792 30.783 20.9756 30.0841 20.0836C29.2936 19.0746 28.175 18.1004 27.4356 17.0911C27.0484 16.5623 26.7891 15.9675 26.6805 15.4265C26.5058 14.5556 26.6372 13.5534 27.5648 12.7121C28.5619 13.2887 29.5009 13.5202 30.3942 13.4525C31.3089 13.383 32.0344 12.8366 32.7389 12.2567C33.0566 11.9952 33.3898 11.7217 34.0647 11.7968C33.8424 11.5382 33.4347 11.2591 32.821 11.289C34.2621 9.54076 34.8417 7.35584 34.0441 5.82853C33.9135 6.70827 33.6203 6.92116 33.3559 7.10264C33.0049 7.34366 32.7228 7.38827 32.2144 7.6555C32.4766 7.14323 32.4504 6.76418 32.2799 6.17971C31.6571 7.79103 30.8488 7.40491 29.7111 8.58373C29.8449 8.04462 29.8618 7.60856 29.6593 7.11077C29.589 7.60147 29.2986 7.97512 29.0106 8.18759C27.9817 8.94649 26.6956 9.12416 26.9454 11.5758C25.6267 12.6222 25.1461 13.8625 25.2394 15.1007C25.3168 16.1277 25.7315 17.0688 26.3977 17.9528C27.1073 18.8939 28.0885 19.7704 28.7846 20.6171C29.5467 21.5441 30.2636 23.1736 29.432 24.3369C28.8899 25.0952 27.3286 25.533 24.0363 23.4683C23.8647 21.7057 22.5133 19.8927 22.2267 18.2797C22.1192 17.6741 22.173 17.1519 22.2831 16.6016C22.3802 16.1161 22.5303 15.6086 22.5222 15.0026C23.0861 15.4723 23.7326 15.5851 24.214 15.4025C23.8308 15.2561 23.5065 14.7813 23.5149 14.182C23.5284 13.2472 24.0601 12.2977 23.5543 11.2427C23.9783 11.5468 24.4434 11.7272 24.9703 11.4957C23.7866 10.7108 24.8681 9.69951 24.302 8.39977C24.7183 8.60495 25.3198 8.60431 25.7565 8.35643C24.3533 8.03665 25.0712 6.23433 23.8737 5.07026C24.3911 5.09236 24.8159 4.84658 25.0656 4.45673C23.8055 4.66571 23.1622 2.96245 22.0909 2.04847C21.0847 1.18991 19.8469 0.880942 18.4009 1.15489C18.3826 0.942523 18.7278 0.627198 19.1487 0.414847C17.8335 -0.145835 16.4797 0.272669 15.3291 1.30468C15.3797 0.862928 15.3065 0.421271 14.9862 0C14.8235 0.922024 13.4175 1.49273 12.9246 2.24548C12.7006 2.58755 12.5671 2.96322 12.5799 3.39134C11.3266 4.2797 10.9792 4.22082 10.6112 5.29461C9.98385 5.81735 9.22241 6.36071 8.75977 6.88341C8.77447 7.04388 8.84053 7.23553 8.87584 7.41682L9.24159 7.05678C9.11178 7.39389 9.13282 7.72359 9.28895 7.99306C9.58684 8.50744 10.1824 8.78471 10.5266 9.0048C10.3137 8.36051 10.3747 8.18965 10.6244 8.02666C11.1719 7.66915 12.446 7.79389 12.5588 7.96905C12.7121 8.20679 12.5206 9.31813 11.826 9.6105C11.3254 9.82118 10.9917 9.66727 10.6296 9.28556" fill="#FFE500"/>
</svg>
