<svg width="42.21882247924805" height="59.92955017089844" viewBox="0 0 42.21882247924805 59.92955017089844" fill="none" xmlns="http://www.w3.org/2000/svg">
<path fill-rule="evenodd" clip-rule="evenodd" d="M42.2188 0H0V45.3183C0 48.8581 2.15181 51.6447 6.45544 53.7C7.88654 54.3885 9.79087 55.0986 12.1794 55.8195L17.5052 57.4442L18.2581 57.7886C18.8174 58.0468 19.2157 58.2619 19.4418 58.4341C19.9904 58.8213 20.5283 59.3162 21.0556 59.9296C21.5612 59.4024 21.9702 59.0149 22.2713 58.7674C22.8633 58.2832 23.6162 57.8636 24.5521 57.5086C25.2193 57.2504 26.9838 56.691 29.8455 55.8195C32.3092 55.0662 34.2462 54.3671 35.6341 53.7215C40.0233 51.688 42.2185 48.8905 42.2185 45.3186L42.2188 0Z" fill="#7B003A"/>
</svg>
