<svg width="39.22737121582031" height="56.410728454589844" viewBox="0 0 39.22737121582031 56.410728454589844" fill="none" xmlns="http://www.w3.org/2000/svg">
<path fill-rule="evenodd" clip-rule="evenodd" d="M18.0749 55.1305C18.5697 55.464 19.0646 55.8837 19.5704 56.4107C20.0332 55.9589 20.4095 55.6253 20.689 55.4104C21.2162 55.0015 21.9158 54.6356 22.8089 54.3237C23.4219 54.0977 25.0684 53.6137 27.7257 52.8604C30.0176 52.2041 31.814 51.6016 33.1163 51.0424C37.1939 49.2887 39.2274 46.857 39.2274 43.7689L39.2273 0H0V43.7689C0 46.8354 2.00139 49.2455 5.99287 51.0205C7.32713 51.6121 9.10221 52.2254 11.3185 52.8602L16.2678 54.2697L18.0749 55.1305Z" fill="#A3C5E9"/>
</svg>
