<svg width="35.05956268310547" height="9.276677131652832" viewBox="0 0 35.05956268310547 9.276677131652832" fill="none" xmlns="http://www.w3.org/2000/svg">
<path fill-rule="evenodd" clip-rule="evenodd" d="M31.8884 0.000528448C30.4468 0.000528448 29.2246 0.398209 28.2192 1.19135C27.9862 1.37898 27.7759 1.59347 27.5909 1.83248C27.3967 2.07381 27.2254 2.34189 27.0792 2.63902C26.9375 2.93617 26.8256 3.25784 26.7433 3.60636C26.6565 3.95267 26.6131 4.3325 26.6131 4.74572C26.6131 5.56794 26.7776 6.26274 27.1066 6.83464C27.4128 7.40663 27.8102 7.8802 28.2968 8.25558C29.3045 8.94587 30.4947 9.28554 31.8677 9.2765C32.3887 9.26752 32.8799 9.20504 33.3369 9.08654C33.7914 8.98157 34.1981 8.88105 34.5615 8.78051C34.7739 8.42311 34.9408 7.71929 35.0596 6.67155C35.0183 6.59343 34.9384 6.53973 34.8265 6.5152C34.71 6.50622 34.6209 6.52863 34.5615 6.58C34.3923 7.06478 34.0976 7.52052 33.6795 7.94949C33.4672 8.15277 33.2112 8.32031 32.9142 8.44547C32.6103 8.59072 32.2562 8.66218 31.8495 8.66218C31.0226 8.66218 30.3051 8.30922 29.6951 7.60096C29.0692 6.90391 28.7448 5.88743 28.7287 4.55592C28.7448 3.21552 29.0715 2.2191 29.7088 1.56446C30.328 0.932216 31.0203 0.614978 31.7856 0.614978C33.0878 0.623857 33.9195 1.26287 34.2827 2.53413C34.3512 2.5854 34.445 2.60326 34.5615 2.5854C34.6733 2.56754 34.7465 2.51838 34.7808 2.43572C34.6693 1.47 34.6192 0.77527 34.6262 0.346306C34.4222 0.321741 34.0869 0.256941 33.614 0.156353C33.1474 0.0603529 32.5721 0.00896471 31.8888 0L31.8884 0.000528448ZM21.4855 1.37619C21.4763 1.11255 21.498 0.950287 21.557 0.889186C21.5993 0.845317 21.7228 0.824387 21.9256 0.824387H23.1064C23.4474 0.824387 23.7227 0.856945 23.929 0.929358C24.1419 1.00431 24.2948 1.12143 24.4012 1.26456C24.5227 1.42746 24.6569 1.77609 24.7906 2.31449C24.8757 2.36597 24.9764 2.37591 25.0948 2.36597C25.1887 2.35814 25.256 2.33235 25.2952 2.26089C25.272 1.2243 25.2628 0.527245 25.2628 0.169787C24.9956 0.196636 24.3919 0.210061 23.452 0.210061H20.4858C20.1633 0.210061 19.8406 0.201075 19.5158 0.196635C19.1979 0.192301 18.8892 0.18765 18.592 0.169786C18.5205 0.205515 18.4859 0.27708 18.4859 0.386492C18.4859 0.504988 18.5113 0.589877 18.5666 0.641252L18.8338 0.681421C19.1402 0.705946 19.3315 0.804252 19.4121 0.97413C19.4813 1.14612 19.5158 1.53492 19.5158 2.14032V7.129C19.5158 7.71653 19.4813 8.09648 19.4121 8.26844C19.3315 8.42932 19.1402 8.52753 18.8338 8.56104L18.3892 8.62806C18.3362 8.67499 18.3085 8.75099 18.3085 8.85596C18.3085 8.96547 18.3362 9.04814 18.3892 9.09941C19.1955 9.07266 19.9005 9.05924 20.5019 9.05924C21.1239 9.05924 21.8404 9.07266 22.656 9.09941C22.709 9.04814 22.7367 8.96547 22.7367 8.85596C22.7367 8.75099 22.709 8.67499 22.656 8.62806L22.163 8.56104C21.8785 8.52716 21.6943 8.42904 21.6068 8.26598C21.5164 8.09586 21.4755 7.7161 21.4846 7.1281V5.32069C21.4846 5.13305 21.5074 5.01413 21.5561 4.96551C21.5901 4.93157 21.692 4.91413 21.8602 4.91413H23.0179C23.3612 4.91413 23.6035 4.95514 23.7344 5.05039C23.8616 5.14277 23.9366 5.3543 23.9993 5.66699L24.0639 5.98866C24.1237 6.04014 24.2112 6.0579 24.3266 6.05357C24.4415 6.04912 24.5224 6.02672 24.5639 5.97534C24.5384 5.55526 24.5269 5.09066 24.5269 4.58122C24.5269 4.06061 24.5384 3.58261 24.5639 3.14694C24.5224 3.0776 24.4417 3.04197 24.3266 3.04197C24.2114 3.04197 24.1237 3.07315 24.0639 3.13352L23.9993 3.45519C23.9367 3.76787 23.8594 3.97432 23.7344 4.06967C23.6014 4.17083 23.3612 4.20805 23.0179 4.20805H21.8602C21.692 4.20805 21.5907 4.18796 21.5561 4.12316C21.5078 4.07855 21.4846 3.97126 21.4846 3.80149L21.4855 1.37619ZM15.4996 3.42035C15.9581 2.34572 16.3291 1.59282 16.6125 1.16619C16.7554 0.902442 17.0018 0.74621 17.3498 0.69473L17.6975 0.62771C17.7506 0.576335 17.7782 0.495893 17.7782 0.386376C17.7598 0.276964 17.7229 0.205402 17.6699 0.169776C17.2875 0.19652 16.8728 0.209946 16.4282 0.209946C15.935 0.209946 15.3868 0.19652 14.7809 0.169776C14.6979 0.2054 14.6564 0.272418 14.6564 0.373056C14.6494 0.482468 14.6702 0.567456 14.7232 0.62771L15.1149 0.719256C15.2762 0.746211 15.3775 0.779615 15.4213 0.817564C15.4559 0.8534 15.4742 0.898007 15.4742 0.949381C15.4742 1.01873 15.4305 1.18183 15.343 1.43427C15.0826 2.17594 14.7301 3.11194 14.2855 4.23796L13.7879 5.49577C13.6174 5.92019 13.4768 6.25085 13.3639 6.4922C13.2718 6.27771 13.1313 5.93363 12.9447 5.45561L11.768 2.43732C11.6063 2.02622 11.4771 1.69114 11.3762 1.43427C11.2816 1.17281 11.2329 1.01412 11.2329 0.962807C11.2237 0.84436 11.3346 0.759512 11.5675 0.705865L11.9708 0.62764C12.0145 0.5584 12.0376 0.473517 12.0376 0.372985C12.0376 0.285773 12.0098 0.216533 11.9593 0.169705C11.1874 0.196449 10.517 0.209875 9.94551 0.209875C9.3305 0.209875 8.72455 0.19645 8.12772 0.169705C8.07476 0.205329 8.03798 0.267908 8.01493 0.359559C7.99643 0.455651 8.01712 0.544974 8.07708 0.62764L8.44802 0.719185C8.74517 0.7639 8.95489 0.857771 9.07699 1.0008C9.19443 1.13705 9.37181 1.53029 9.61145 2.18033L11.7818 7.63828C11.9868 8.1923 12.1734 8.70169 12.3439 9.16419C12.4222 9.23787 12.5421 9.27592 12.7033 9.27592C12.9084 9.27592 13.0651 9.23787 13.1734 9.16419C13.4406 8.4627 13.8921 7.32106 14.5281 5.73932L15.4996 3.42035ZM3.48269 5.32158C3.32149 5.33046 3.21779 5.30149 3.17402 5.23669C3.11863 5.19209 3.12793 5.08479 3.20162 4.91492L3.53344 3.91193C3.74771 3.25727 3.92974 2.76353 4.08407 2.43064C4.21082 2.75464 4.37202 3.22377 4.5679 3.84035L4.91357 4.9284C4.98947 5.09817 5.00332 5.20536 4.9549 5.25007C4.90881 5.29701 4.80743 5.32153 4.64623 5.32153L3.48269 5.32158ZM4.71756 6.02753C4.94801 6.02753 5.107 6.03652 5.19452 6.05438C5.2867 6.08789 5.33966 6.16168 5.35816 6.26886L5.71757 7.42171C5.88807 7.92436 5.97328 8.22818 5.97328 8.33315C5.97328 8.3712 5.95478 8.41359 5.92021 8.45608C5.87645 8.50069 5.77507 8.53653 5.61386 8.56106L5.18067 8.62807C5.12084 8.69287 5.09547 8.77331 5.10234 8.86941C5.10234 8.96994 5.13924 9.04816 5.20836 9.09942C5.78659 9.07268 6.39022 9.05925 7.01916 9.05925C7.73345 9.05925 8.41992 9.07268 9.079 9.09942C9.14115 9.04816 9.1734 8.96094 9.1734 8.84477C9.1642 8.7398 9.13661 8.66601 9.09274 8.62806L8.58122 8.54984C8.35088 8.50523 8.1827 8.39349 8.0791 8.21474C8.0123 8.11421 7.95458 7.9936 7.90162 7.85512C7.84168 7.71876 7.768 7.55343 7.68502 7.35692L5.86807 2.09584C5.55466 1.19993 5.35207 0.590118 5.2596 0.261671C5.21866 0.0873882 5.1149 0.000282063 4.95325 0.000282063C4.93702 0.0181409 4.82478 0.129882 4.61937 0.333106C4.39843 0.538659 4.12172 0.697341 3.78996 0.804494C3.79913 1.14191 3.62407 1.70936 3.26704 2.50694L2.06436 5.77292C1.72334 6.70257 1.44685 7.41974 1.23262 7.92021C1.1244 8.17009 1.00454 8.34021 0.873251 8.43198C0.739627 8.5188 0.58518 8.57033 0.416968 8.58798L0.0553376 8.62825C0.0114684 8.69305 -0.00681872 8.7735 0.00227234 8.86959C0.00227234 8.97012 0.0345126 9.04834 0.0967756 9.09961C0.640439 9.08174 1.10125 9.06842 1.47445 9.05944C2.0458 9.06842 2.56885 9.08174 3.04341 9.09961C3.10567 9.055 3.13559 8.97455 3.13559 8.85616C3.13559 8.75109 3.11487 8.67519 3.07122 8.62825L2.66561 8.56124C2.47671 8.51885 2.35451 8.47857 2.29235 8.44506C2.21867 8.41821 2.18189 8.38027 2.18189 8.33333C2.17259 8.25521 2.20483 8.09433 2.27862 7.85531L2.77619 6.29588C2.81075 6.1685 2.85917 6.08805 2.92132 6.05454C2.96276 6.03668 3.06191 6.02769 3.21392 6.02769L4.71756 6.02753Z" fill="#7B003A"/>
</svg>
