<svg width="3.0932140350341797" height="4.222709655761719" viewBox="0 0 3.0932140350341797 4.222709655761719" fill="none" xmlns="http://www.w3.org/2000/svg">
<path d="M1.24206 4.22123C1.44018 4.22885 1.6383 4.20599 1.79832 4.17551C2.1717 4.11455 2.85751 3.91643 3.05563 3.55067C3.13945 3.40589 3.07849 3.16205 2.91847 3.10108C2.5527 2.9563 2.0574 2.85725 1.65354 2.90297C1.50876 2.91821 1.37922 2.97154 1.24206 2.99441V4.22123ZM1.24206 2.842C1.37922 2.81152 1.50876 2.72771 1.59258 2.59817C1.78308 2.31623 1.95834 2.03428 2.12598 1.75996C2.29362 1.48564 2.46126 1.21132 2.62128 0.936999C2.78131 0.647439 2.80417 0.235963 2.49937 0.0454623C2.48413 0.0378423 2.47651 0.0302177 2.46127 0.0302177C2.35458 -0.0231224 2.00406 -0.023118 2.06502 0.175003C2.10312 0.312163 2.26314 0.388358 2.29362 0.548379C2.30887 0.647439 2.286 0.746503 2.21742 0.906523C2.03454 1.30276 1.81356 1.68376 1.57734 2.04952C1.51638 2.14096 1.39446 2.05715 1.45542 1.96571C1.69164 1.60756 1.905 1.24181 2.08026 0.845564C2.1336 0.716024 2.15646 0.639822 2.14122 0.578861C2.12598 0.487421 2.01168 0.357881 1.93548 0.296921C1.72974 0.15214 1.47066 0.205483 1.24206 0.327403V1.15037C1.2954 1.05893 1.34874 0.975105 1.40208 0.891285C1.45542 0.799845 1.58496 0.876042 1.524 0.967482C1.45542 1.08178 1.38684 1.19608 1.31826 1.31038C1.28778 1.34848 1.26492 1.37896 1.24206 1.41706V2.842ZM0.800103 0.655059C0.304802 1.14274 0 1.8133 0 2.56006C0 3.01726 0.1143 3.45161 0.320041 3.82499C0.502921 4.12217 0.876302 4.21361 1.24206 4.22123V2.99441C1.19634 3.00203 1.15062 3.00965 1.1049 3.00965C0.861062 3.02489 0.609601 2.92583 0.434341 2.75818C0.358141 2.68198 0.457202 2.5753 0.533402 2.65151C0.685802 2.79629 0.899163 2.87248 1.09728 2.86486C1.15062 2.86486 1.19634 2.85724 1.24206 2.842V1.41706C1.18872 1.49326 1.13538 1.56947 1.08204 1.64567C1.01346 1.73711 0.891542 1.64567 0.960122 1.56185C1.03632 1.44755 1.12014 1.34086 1.18872 1.22656C1.20396 1.2037 1.22682 1.17323 1.24206 1.15037V0.327403C1.0668 0.418843 0.906783 0.548378 0.800103 0.655059Z" fill="#FFF704"/>
</svg>
