<svg width="3.062986373901367" height="2.941253662109375" viewBox="0 0 3.062986373901367 2.941253662109375" fill="none" xmlns="http://www.w3.org/2000/svg">
<path d="M2.461 2.19457C2.43814 2.05741 2.43053 1.91263 2.43053 1.77547C2.43053 1.1049 2.66675 0.487682 3.06299 0C2.99441 0.0533402 2.91059 0.0990602 2.81915 0.12954C2.61341 0.205741 2.36956 0.289563 2.1181 0.373383C1.50088 0.579124 0.807461 0.807725 0.4798 1.06681C0.19024 1.29541 0.0378388 1.58497 0.00735875 1.87453C-0.00788128 2.01169 -0.000260244 2.14123 0.0378398 2.27077C0.0683199 2.40031 0.129279 2.51461 0.213099 2.62129C0.4798 2.95657 1.06654 3.12422 1.2799 2.63653C1.2418 2.57557 1.21894 2.50699 1.2037 2.43841C1.18846 2.33935 1.2037 2.24029 1.2418 2.15647C1.27228 2.08027 1.318 2.01169 1.37896 1.95073C1.45516 1.88215 1.5466 1.82881 1.64566 1.79833C1.75996 1.77547 1.87426 1.77547 1.99618 1.80595C2.11048 1.83643 2.22478 1.89739 2.32384 1.99645C2.37718 2.04979 2.4229 2.11837 2.461 2.19457Z" fill="#FFF704"/>
</svg>
