<svg width="2.2610044479370117" height="3.9090652465820312" viewBox="0 0 2.2610044479370117 3.9090652465820312" fill="none" xmlns="http://www.w3.org/2000/svg">
<path d="M0.937262 3.40615C1.27254 3.54331 1.6002 3.71094 1.905 3.90907C1.92024 3.74905 1.93548 3.59665 1.96596 3.45187C1.9812 3.35281 2.01168 3.30708 1.9812 3.20802C1.89738 2.95656 1.80594 2.72796 1.69926 2.50698C1.59258 2.286 1.47066 2.07264 1.3335 1.88214C1.27254 1.79832 1.38684 1.7145 1.45542 1.79832C1.59258 1.99644 1.72212 2.2098 1.83642 2.44603C1.92786 2.62891 2.00406 2.8194 2.08026 3.02514C2.22504 2.61366 2.3622 2.33172 2.15646 1.88976C1.95834 1.45542 1.68402 1.04394 1.32588 0.716279C0.960122 0.388618 0.518161 0.14478 0 0C0.14478 0.266701 0.274321 0.533399 0.388621 0.81534C0.525781 1.15062 0.632461 1.49352 0.731521 1.8669C0.807721 2.18694 0.845822 2.54508 0.876302 2.90322C0.899162 3.07086 0.914402 3.23851 0.937262 3.40615Z" fill="#178358"/>
</svg>
