<svg width="3.2105636596679688" height="3.079395294189453" viewBox="0 0 3.2105636596679688 3.079395294189453" fill="none" xmlns="http://www.w3.org/2000/svg">
<path d="M0.342248 0.708664C0.631809 0.815345 0.928987 0.937264 1.21093 1.08204C1.93483 1.44781 2.55205 1.96597 2.64349 2.65939C2.65111 2.75845 2.65873 2.87275 2.65111 2.99467C2.76541 3.08611 2.79589 3.12421 2.92543 3.00229C3.10069 2.82703 3.25309 2.52223 3.19975 2.26315C3.13117 1.95835 3.00925 1.66879 2.78827 1.40971C2.56729 1.15825 2.25487 0.929645 1.82815 0.739144C1.61479 0.640083 1.40143 0.502921 1.19569 0.365761C1.08139 0.28956 0.967087 0.22098 0.852787 0.137159C0.738486 0.0533392 0.662287 0 0.509887 0C0.433687 0 0.403205 0.0228606 0.418445 0.0990609C0.441305 0.175261 0.509889 0.2667 0.547989 0.3429C0.448929 0.3429 0.372727 0.335282 0.273667 0.304802C0.151747 0.274322 0.0298244 0.23622 0.00696431 0.312421C-0.0463758 0.434341 0.220328 0.670564 0.342248 0.708664Z" fill="#FFF704"/>
</svg>
