<svg width="3.9401230812072754" height="5.113029479980469" viewBox="0 0 3.9401230812072754 5.113029479980469" fill="none" xmlns="http://www.w3.org/2000/svg">
<path d="M2.58483 4.24435C2.90487 4.35865 3.18681 4.51867 3.43827 4.70155C3.27825 4.38151 3.08775 4.05385 2.88201 3.73381C2.62293 3.32233 2.34861 2.91846 2.07429 2.52222C2.07429 2.52222 2.07429 2.51461 2.06667 2.51461C1.89141 2.45364 1.71615 2.36221 1.54089 2.25552C1.35801 2.14122 1.17513 1.99644 0.992249 1.83642C0.916049 1.76784 1.00749 1.65354 1.09131 1.72974C1.26657 1.87452 1.44183 2.01168 1.62471 2.12598C1.73139 2.19456 1.83807 2.25552 1.94475 2.30124C1.88379 2.2098 1.82283 2.11074 1.75425 2.0193C1.64757 1.8669 1.53327 1.7145 1.40373 1.56972C1.33515 1.49352 1.44183 1.39446 1.51803 1.47066C1.64757 1.62306 1.76949 1.77546 1.87617 1.92786C2.26479 2.46126 2.65341 3.09372 3.01155 3.65761C3.27825 4.08433 3.52209 4.51105 3.72021 4.93777C3.78117 4.99111 3.83451 5.05207 3.88785 5.11303C3.9793 5.00635 3.94881 4.77013 3.81165 4.40437C3.57543 3.75667 3.20205 3.10134 2.86677 2.49936C2.56959 1.97358 2.12763 1.45542 1.60185 1.00584C1.11417 0.586741 0.557908 0.23622 0.00164702 0C-0.013593 0.350521 0.0778472 0.701041 0.237867 1.05918C0.413128 1.45542 0.664588 1.85166 0.954149 2.27076C1.15227 2.56032 1.39611 2.79655 1.63995 3.03277C1.99047 3.37567 2.34099 3.72619 2.57721 4.22911C2.57721 4.23673 2.58483 4.23673 2.58483 4.24435Z" fill="#178358"/>
</svg>
