<svg width="20.18410873413086" height="2.2629966735839844" viewBox="0 0 20.18410873413086 2.2629966735839844" fill="none" xmlns="http://www.w3.org/2000/svg">
<path d="M0.330817 1.61544C0.117457 1.68402 0.0183964 1.79832 0.00315634 1.91262C-0.00446367 1.95834 0.0031562 2.00406 0.0107762 2.04216C0.0260162 2.08788 0.0564964 2.12598 0.0869765 2.15646C0.170797 2.2479 0.315577 2.29362 0.467977 2.24028C3.91984 1.15062 7.00595 0.601981 10.0921 0.601981C13.1782 0.601981 16.2643 1.15062 19.7161 2.24028C19.8685 2.29362 20.0133 2.2479 20.0971 2.15646C20.1276 2.12598 20.1581 2.08788 20.1733 2.04216C20.181 2.00406 20.1886 1.95834 20.181 1.91262C20.1657 1.79832 20.0667 1.68402 19.8533 1.61544C16.6757 0.54102 13.3839 0 10.0921 0C6.80021 0 3.50836 0.54102 0.330817 1.61544Z" fill="#FFF704"/>
</svg>
