<svg width="2.2402877807617188" height="3.1106529235839844" viewBox="0 0 2.2402877807617188 3.1106529235839844" fill="none" xmlns="http://www.w3.org/2000/svg">
<path d="M0.32004 0.931326C0.43434 0.984666 0.55626 1.02277 0.6858 1.04563C0.5334 0.839888 0.388619 0.626525 0.251458 0.420784C0.190498 0.329344 0.312419 0.245524 0.37338 0.336965C0.51054 0.535085 0.647701 0.733205 0.784861 0.931326C0.777241 0.862746 0.762002 0.786547 0.754382 0.717966C0.731522 0.573186 0.701042 0.436024 0.670562 0.291244C0.647702 0.184564 0.792481 0.154085 0.815341 0.253145C0.845821 0.397926 0.8763 0.550326 0.89916 0.695106C0.92964 0.855126 0.952501 1.02277 0.967741 1.19041C1.0668 1.32757 1.17348 1.47235 1.27254 1.60951C1.3335 1.68571 1.38684 1.76953 1.4478 1.84573C1.4478 1.81525 1.45542 1.78477 1.45542 1.76191C1.46304 1.66285 1.46304 1.56379 1.46304 1.47235C1.46304 1.36567 1.61544 1.36567 1.61544 1.47235C1.61544 1.57141 1.61544 1.67047 1.60782 1.76953C1.6002 1.85335 1.59258 1.92955 1.57734 2.01337C1.76785 2.25721 1.95834 2.49343 2.15647 2.72965C2.17933 2.60773 2.20219 2.48581 2.24029 2.36389H2.23267C2.0955 2.19625 1.96597 2.02099 1.8669 1.84573C1.56972 1.35043 1.42494 0.839886 1.4097 0.336965C1.04394 -0.0897564 0.701042 -0.0211773 0.259081 0.0626429C0.17526 0.0778829 0.0914403 0.0931237 0 0.108364C0.0990603 0.908466 0.28956 1.51045 0.624841 1.98289C0.952502 2.45533 1.43256 2.80585 2.11837 3.11065C2.11837 3.04969 2.12599 2.98873 2.12599 2.92777C1.905 2.66869 1.69164 2.40199 1.4859 2.13529C1.4097 2.13529 1.3335 2.13529 1.2573 2.13529C1.1811 2.13529 1.1049 2.12767 1.02108 2.11243C0.914401 2.09719 0.937262 1.95241 1.03632 1.96765C1.11252 1.97527 1.18872 1.98289 1.26492 1.98289C1.30302 1.99051 1.3335 1.99051 1.3716 1.99051C1.2954 1.89145 1.22682 1.79239 1.15824 1.70095C1.03632 1.53331 0.914403 1.37329 0.800103 1.20565C0.609602 1.19041 0.426721 1.15231 0.259081 1.06849C0.16002 1.02277 0.228599 0.885606 0.32004 0.931326Z" fill="#178358"/>
</svg>
