<svg width="0.994985818862915" height="2.049783706665039" viewBox="0 0 0.994985818862915 2.049783706665039" fill="none" xmlns="http://www.w3.org/2000/svg">
<path d="M0.179221 2.04978C0.285902 1.89738 0.423061 1.72974 0.590702 1.55448C0.819302 1.32588 1.04028 1.18872 0.986943 0.784863C0.956463 0.594362 0.872642 0.29718 0.666902 0C0.415442 0.2667 0.186841 0.61722 0.0801611 0.982981C-0.00365901 1.28778 -0.026519 1.6383 0.0344411 2.03454C0.0649212 1.77546 0.110641 1.51638 0.179221 1.26492C0.263042 0.922021 0.384962 0.594361 0.537362 0.28194C0.583082 0.18288 0.720242 0.251462 0.674522 0.342903C0.522122 0.655323 0.407822 0.975362 0.324002 1.30302C0.263042 1.54686 0.209701 1.79832 0.179221 2.04978Z" fill="#178358"/>
</svg>
