<svg width="3.7868881225585938" height="3.67535400390625" viewBox="0 0 3.7868881225585938 3.67535400390625" fill="none" xmlns="http://www.w3.org/2000/svg">
<path d="M0 0C0.18288 0.1143 0.35814 0.251459 0.51054 0.403859C1.0287 0.914401 1.35636 1.63068 1.35636 2.41555C1.35636 2.55271 1.34874 2.69749 1.32588 2.83465C1.36398 2.75845 1.4097 2.68987 1.46304 2.63653C1.5621 2.53747 1.6764 2.47651 1.7907 2.44603C1.91262 2.41555 2.02692 2.41555 2.14123 2.43841C2.24029 2.46889 2.33173 2.52223 2.40793 2.59081C2.46889 2.65177 2.51461 2.72035 2.54509 2.79655C2.58319 2.88037 2.59843 2.97943 2.58319 3.07849C2.56795 3.17755 2.52223 3.26899 2.44603 3.35281C2.40031 3.39091 2.34697 3.43664 2.27839 3.47474C2.32411 3.54332 2.38507 3.58903 2.44603 3.61951C2.54509 3.67285 2.65939 3.68047 2.78131 3.67285C3.13183 3.62713 3.39853 3.47473 3.57379 3.26137C3.65761 3.15469 3.71857 3.04039 3.74905 2.91085C3.78715 2.78131 3.79477 2.65177 3.77953 2.51461C3.74905 2.22505 3.59665 1.93549 3.30709 1.70689C2.98705 1.4478 2.28601 1.22683 1.66116 1.02108C1.56972 0.990605 1.4859 0.967743 1.44018 0.952503C1.28016 0.899163 1.16586 0.838204 1.05156 0.762004C0.944881 0.685804 0.845822 0.594363 0.723902 0.480063C0.601981 0.358142 0.487681 0.23622 0.373381 0.10668L0.36576 0.0990576C0.28194 0.0761975 0.1905 0.0533428 0.10668 0.0304827C0.0685797 0.0228627 0.0381001 0.00762003 0 0Z" fill="#FFF704"/>
</svg>
