<svg width="3.270465850830078" height="1.6724929809570312" viewBox="0 0 3.270465850830078 1.6724929809570312" fill="none" xmlns="http://www.w3.org/2000/svg">
<path d="M1.3335 1.66487C1.38684 1.67249 1.4478 1.67249 1.50114 1.67249C1.51638 1.67249 1.53924 1.67249 1.5621 1.67249C1.58496 1.55819 1.59258 1.44389 1.6002 1.32959C1.6002 1.22291 1.74498 1.23053 1.74498 1.33721C1.74498 1.44389 1.73736 1.55819 1.7145 1.66487C1.81356 1.65725 1.91262 1.64201 2.01169 1.62677C2.01931 1.49723 2.0193 1.36769 2.00406 1.23815C1.99644 1.13147 2.14123 1.11623 2.15647 1.22291C2.16409 1.34483 2.16409 1.46675 2.16409 1.58867C2.24791 1.56581 2.33935 1.54295 2.42317 1.51247C2.42317 1.37531 2.41555 1.23053 2.38507 1.09337C2.36221 0.994314 2.51461 0.963833 2.52985 1.07051C2.56033 1.19243 2.56795 1.32197 2.57557 1.45151C2.65939 1.41341 2.75083 1.37531 2.82703 1.32959C2.83465 1.20005 2.84989 1.08575 2.81179 0.963834C2.78893 0.857154 2.93371 0.819049 2.95657 0.925729C2.98705 1.04003 2.98705 1.14671 2.98705 1.23815C3.06325 1.18481 3.12421 1.08575 3.10897 0.99431C3.10135 0.97145 3.09373 0.948593 3.08611 0.918113C3.04039 0.819053 3.17755 0.758094 3.21565 0.857154C3.22327 0.864774 3.22327 0.864772 3.22327 0.872392C3.25375 0.796192 3.27661 0.719988 3.26899 0.643788C3.26137 0.384708 2.96419 0.171347 2.74321 0.079907C2.10313 -0.194413 1.8288 0.30851 1.3335 0.52187C0.922022 0.697131 0.441961 0.803813 0 0.788573C0.0609602 0.925733 0.160021 1.04765 0.281941 1.15433L0.32766 1.09337C0.38862 1.00193 0.510542 1.09337 0.449581 1.17719L0.396241 1.24577C0.434342 1.27625 0.464821 1.29911 0.502921 1.32197C0.533401 1.29149 0.548641 1.24577 0.556261 1.20005C0.579121 1.10099 0.723901 1.13147 0.701041 1.23053C0.693421 1.29149 0.670562 1.35245 0.632462 1.40579C0.685802 1.43627 0.739142 1.46675 0.800102 1.48961C0.830582 1.42865 0.853443 1.36769 0.861063 1.29911C0.876303 1.19243 1.0287 1.21529 1.00584 1.32197C0.998223 1.40579 0.967743 1.48199 0.937263 1.55057C1.02108 1.58867 1.1049 1.61915 1.1811 1.64201C1.21158 1.55057 1.22682 1.46675 1.2192 1.38293C1.21158 1.27625 1.36398 1.26863 1.3716 1.36769C1.3716 1.46675 1.36398 1.56581 1.3335 1.66487Z" fill="#FFF704"/>
</svg>
