<svg width="1.417208194732666" height="3.3909072875976562" viewBox="0 0 1.417208194732666 3.3909072875976562" fill="none" xmlns="http://www.w3.org/2000/svg">
<path d="M0 2.04216C0.16764 2.15647 0.335281 2.28601 0.495301 2.42317C0.594361 2.50699 0.685801 2.59081 0.777242 2.67463C0.784862 2.48413 0.762002 2.30887 0.716282 2.14123C0.662942 1.93548 0.579121 1.73736 0.464821 1.53924C0.411481 1.4478 0.541021 1.3716 0.594361 1.47066C0.708662 1.6764 0.807722 1.88214 0.861062 2.10312C0.922022 2.3241 0.937262 2.55271 0.914402 2.81179C1.1049 3.00229 1.27254 3.19279 1.4097 3.39091C1.43256 3.00229 1.40208 2.63653 1.3335 2.27077C1.24206 1.83642 1.08966 1.4097 0.883922 0.967741C0.731522 0.64008 0.556261 0.320041 0.388621 0C0.365761 0.320041 0.335281 0.66294 0.19812 1.02108C0.13716 1.1811 0.0838204 1.34874 0.0533403 1.524C0.0228602 1.69164 0 1.85928 0 2.04216Z" fill="#178358"/>
</svg>
