<svg width="6.125520706176758" height="6.294286727905273" viewBox="0 0 6.125520706176758 6.294286727905273" fill="none" xmlns="http://www.w3.org/2000/svg">
<path d="M5.20884 3.98584C5.22408 4.1992 5.39934 4.22206 5.56698 4.21444C5.59746 4.45829 5.59746 4.68689 5.50602 4.91549C5.32314 5.41079 4.86594 5.70035 4.3554 5.76131C4.03536 5.80703 3.68483 5.76893 3.36479 5.66987C2.86187 5.51747 2.36657 5.18219 1.94747 4.75547C1.49027 4.30588 1.12451 3.742 0.918765 3.21622C0.766364 2.8276 0.690164 2.42374 0.713024 2.00464C0.743504 1.63888 0.850185 1.2655 1.07117 0.907356C1.21595 0.671136 1.45217 0.663515 1.67315 0.655895C1.84841 0.648275 2.00843 0.640656 2.06177 0.503496C2.10749 0.396816 2.07701 0.282515 2.00843 0.198695C1.91699 0.0767744 1.76459 0.00819481 1.61219 0.000574789C0.873045 -0.0222853 0.309164 0.640656 0.111044 1.28836C-0.125177 2.04274 0.0348417 2.92666 0.408223 3.63532C0.819704 4.42019 1.49027 5.11361 2.16083 5.60129C2.80091 6.06611 3.63911 6.42425 4.44683 6.24899C4.78212 6.17279 5.10978 6.03563 5.3841 5.82227C5.63556 5.62415 5.84892 5.37269 5.9937 5.04503C6.108 4.80119 6.15372 4.48877 6.108 4.22207C6.08514 4.10777 6.05466 4.00108 5.9937 3.91726C5.90226 3.74962 5.65842 3.59722 5.4603 3.64294C5.30028 3.68104 5.1936 3.82582 5.20884 3.98584Z" fill="#FFF704"/>
</svg>
