<svg width="1.7969712018966675" height="5.295906066894531" viewBox="0 0 1.7969712018966675 5.295906066894531" fill="none" xmlns="http://www.w3.org/2000/svg">
<path d="M1.17975 4.57201C1.32453 4.83109 1.46169 5.07493 1.57599 5.29591C1.48455 4.71678 1.35501 4.15291 1.17975 3.58902C0.96639 2.91084 0.692069 2.2479 0.333929 1.6002C0.280589 1.50876 0.417749 1.43256 0.463469 1.524C0.82923 2.18694 1.11117 2.8575 1.32453 3.5433C1.49217 4.10718 1.62171 4.67869 1.72077 5.25781C1.72839 4.96825 1.75887 4.69393 1.79697 4.42723C1.79697 4.41199 1.79697 4.40437 1.79697 4.38913C1.72077 3.24612 1.54551 2.286 1.24071 1.53924C1.00449 0.937262 0.638729 0.358141 0.0824682 0C-0.00897196 0.617221 -0.031832 1.22682 0.0519881 1.83642C0.128188 2.40792 0.288209 2.9718 0.539669 3.53568C0.714929 3.92431 0.97401 4.19862 1.17975 4.57201Z" fill="#178358"/>
</svg>
