<svg width="3.459484100341797" height="4.198631286621094" viewBox="0 0 3.459484100341797 4.198631286621094" fill="none" xmlns="http://www.w3.org/2000/svg">
<path d="M0.54864 2.27838C0.55626 2.49175 0.541019 2.70511 0.502919 2.91847C0.739139 2.66701 0.982979 2.42316 1.22682 2.17932C1.24206 2.0574 1.2573 1.94311 1.28778 1.8288C1.31826 1.70688 1.35636 1.57734 1.4097 1.45542C1.4478 1.34112 1.58496 1.40208 1.54686 1.50114C1.50114 1.63068 1.46304 1.74498 1.43256 1.8669C1.42494 1.91262 1.4097 1.96597 1.40208 2.01169C1.73736 1.69164 2.08788 1.37922 2.4384 1.0668C2.52222 0.998221 2.61366 1.11252 2.53746 1.1811C2.17932 1.49352 1.8288 1.80595 1.4859 2.13361C1.524 2.13361 1.5621 2.13361 1.6002 2.14123C1.69164 2.14123 1.7907 2.14884 1.88214 2.15646C1.98882 2.16408 1.97358 2.31649 1.8669 2.30125C1.78308 2.29363 1.69164 2.286 1.59258 2.286C1.50876 2.286 1.42494 2.286 1.3335 2.286C1.0287 2.58318 0.731521 2.88799 0.44196 3.21565C0.35052 3.55093 0.19812 3.88621 0 4.19863C0.0609601 4.16053 0.12192 4.13005 0.18288 4.09195C0.32766 3.87859 0.48768 3.65761 0.70104 3.49759C1.22682 3.10135 1.64592 2.78131 2.01168 2.40031C2.38506 2.02692 2.7051 1.6002 3.02514 0.99822C3.19278 0.685799 3.2766 0.266701 3.45948 0C2.87274 0.12954 2.43078 0.259079 1.96596 0.55626C1.38684 0.929641 0.906779 1.5621 0.586738 2.17932C0.563878 2.22504 0.54864 2.23266 0.54864 2.27838Z" fill="#178358"/>
</svg>
