<svg width="3.417034149169922" height="3.2285690307617188" viewBox="0 0 3.417034149169922 3.2285690307617188" fill="none" xmlns="http://www.w3.org/2000/svg">
<path d="M0.960122 0.390707C0.807722 0.657407 0.647701 0.931727 0.472441 1.21367C0.335281 1.44227 0.1905 1.67086 0.0381002 1.89946C-0.00761986 1.97566 -0.0228602 2.02901 0.0533399 2.07473C0.16002 2.13569 0.304801 2.14331 0.419101 2.15093C1.07442 2.21189 1.69926 2.53192 2.2479 2.89006C2.4003 2.9815 2.67462 3.21011 2.82702 3.22535C2.90322 3.24059 2.9718 3.20249 3.06324 3.09581H3.05562C3.13944 2.97389 3.24612 2.85959 3.3147 2.73005C3.49758 2.40239 3.2385 2.13568 2.96418 1.98328C2.33934 1.63276 1.66878 1.36607 0.982981 1.17557C0.883921 1.14509 0.922021 1.0003 1.02108 1.03078C1.6383 1.20604 2.24028 1.43464 2.80416 1.7242C3.13182 1.89184 3.33756 1.54895 3.39852 1.28225C3.48234 0.886008 3.2766 0.527865 2.88036 0.405945C2.36982 0.245925 1.85166 0.101145 1.32588 0.0173255C0.952501 -0.0512545 1.13538 0.0859071 0.960122 0.390707Z" fill="#FFF704"/>
</svg>
