<svg width="6.128898620605469" height="6.294286727905273" viewBox="0 0 6.128898620605469 6.294286727905273" fill="none" xmlns="http://www.w3.org/2000/svg">
<path d="M0.916682 3.98584C0.901442 4.1992 0.726181 4.22206 0.558541 4.21444C0.528061 4.45829 0.535681 4.68689 0.619501 4.91549C0.802381 5.41079 1.25958 5.70035 1.77012 5.76131C2.09016 5.80703 2.44068 5.76893 2.76073 5.66987C3.26365 5.51747 3.75895 5.18219 4.17805 4.75547C4.63525 4.30588 5.00863 3.742 5.20675 3.21622C5.35915 2.8276 5.43535 2.42374 5.41249 2.00464C5.38201 1.63888 5.27533 1.2655 5.05435 0.907356C4.90957 0.671136 4.67335 0.663515 4.45237 0.655895C4.27711 0.648275 4.11709 0.640656 4.06375 0.503496C4.01803 0.396816 4.04851 0.282515 4.11709 0.198695C4.20853 0.0767744 4.36855 0.00819481 4.51333 0.000574789C5.25247 -0.0222853 5.81635 0.640656 6.01447 1.28836C6.25831 2.04274 6.09067 2.92666 5.71729 3.63532C5.30581 4.42019 4.63525 5.11361 3.96469 5.60129C3.32461 6.06611 2.4864 6.42425 1.67868 6.24899C1.3434 6.17279 1.01574 6.03563 0.741421 5.82227C0.489961 5.62415 0.276601 5.37269 0.13182 5.04503C0.0175203 4.80119 -0.0282 4.48877 0.0175201 4.22207C0.0403801 4.10777 0.0708604 4.00108 0.13182 3.91726C0.223261 3.74962 0.467101 3.59722 0.665222 3.64294C0.825242 3.68104 0.931922 3.82582 0.916682 3.98584Z" fill="#FFF704"/>
</svg>
