<svg width="4.335787773132324" height="4.3967437744140625" viewBox="0 0 4.335787773132324 4.3967437744140625" fill="none" xmlns="http://www.w3.org/2000/svg">
<path d="M1.97358 3.2004C2.1717 3.24612 2.36982 3.30708 2.56032 3.37566C3.10897 3.59664 3.61951 3.93954 4.16053 4.39674C3.98527 4.17576 3.81001 3.9624 3.62713 3.75666C3.32233 3.40614 2.99467 3.06324 2.68224 2.72796C2.64414 2.68986 2.61366 2.65176 2.58318 2.61366C2.41554 2.58318 2.26314 2.52222 2.10312 2.44602C1.9431 2.3622 1.78308 2.26314 1.61544 2.14884C1.53162 2.08788 1.61544 1.96596 1.69926 2.02692C1.85928 2.1336 2.01168 2.23266 2.1717 2.30886C2.2479 2.34696 2.3241 2.38506 2.40792 2.40792C2.33934 2.33934 2.286 2.26314 2.22504 2.19456C2.08788 2.01168 1.96596 1.84404 1.85166 1.66878C1.7907 1.58496 1.91262 1.50114 1.97358 1.58496C2.08788 1.7526 2.2098 1.92786 2.34696 2.10312C2.48412 2.27838 2.63652 2.45364 2.78893 2.62128C3.10135 2.95656 3.41377 3.29184 3.73381 3.6576C3.93955 3.89382 4.14529 4.13004 4.33579 4.3815C4.18339 4.0005 4.06909 3.59664 3.97765 3.16992C3.89383 2.92608 3.75667 2.667 3.58903 2.40792C3.07849 1.6002 2.53746 0.93726 1.69164 0.4953C1.21158 0.236219 0.655321 0.0685801 0 0C0.21336 0.25908 0.403861 0.541021 0.571501 0.845821C0.769621 1.20396 0.929642 1.58496 1.03632 1.95834C1.11252 2.2479 1.22682 2.49936 1.37922 2.71272C1.53162 2.91846 1.72974 3.0861 1.97358 3.2004Z" fill="#178358"/>
</svg>
