<svg width="1.3346364498138428" height="1.927072525024414" viewBox="0 0 1.3346364498138428 1.927072525024414" fill="none" xmlns="http://www.w3.org/2000/svg">
<path d="M0.0849544 1.53845C0.138295 1.42415 0.176394 1.29461 0.214495 1.17269C0.321175 0.829792 0.511675 0.677389 0.808856 0.448789C0.839336 0.425929 0.869816 0.395451 0.892676 0.380211C0.976496 0.319251 1.06794 0.433549 0.984116 0.494509C0.953636 0.524989 0.923156 0.547851 0.900296 0.563091C0.625975 0.776451 0.443095 0.913611 0.359275 1.21079C0.328795 1.30985 0.298315 1.41653 0.260215 1.50035C0.229735 1.59179 0.191635 1.66799 0.145915 1.72895C0.161155 1.78991 0.184015 1.85849 0.199255 1.92707C0.229735 1.84325 0.267835 1.76705 0.313555 1.69085C0.397375 1.53845 0.511675 1.40891 0.656456 1.28699C0.953636 1.05077 1.15176 0.768831 1.33464 0.48689C1.29654 0.34211 1.27368 0.11351 1.15938 0.0220699C1.12128 -0.0160301 1.04508 -0.000792016 0.961256 0.037308C0.801236 0.105888 0.633596 0.24305 0.572635 0.30401C0.366895 0.517371 0.214495 0.707869 0.115435 0.88313C-0.0598256 1.17269 -0.00648576 1.25651 0.0849544 1.53845Z" fill="#178358"/>
</svg>
