<svg width="1.2118911743164062" height="5.501650333404541" viewBox="0 0 1.2118911743164062 5.501650333404541" fill="none" xmlns="http://www.w3.org/2000/svg">
<path d="M1.02108 5.50165C0.937262 5.46355 0.845822 5.44069 0.746762 5.43307C0.708662 5.24257 0.617221 5.09017 0.495301 4.98349C0.502921 4.95301 0.502921 4.92253 0.502921 4.89205C0.502921 4.63297 0.320041 4.41199 0.0762003 4.35865C0.365761 4.30531 0.579122 4.05385 0.579122 3.75667C0.579122 3.42901 0.320041 3.15469 0 3.13945C0.335281 3.12421 0.601982 2.84226 0.601982 2.50698C0.601982 2.1717 0.342901 1.89738 0.0152397 1.87452C0.320041 1.84404 0.563882 1.59258 0.563882 1.28016C0.563882 0.990602 0.35052 0.746761 0.0685797 0.693421C0.396241 0.632461 0.601982 0.320041 0.541021 0C0.762002 0.14478 0.929642 0.28194 0.982982 0.548641C1.00584 0.655321 1.0287 0.769622 1.04394 0.883922C1.13538 1.42494 1.17348 2.00406 1.18872 2.25552C1.21158 2.72797 1.2192 3.20803 1.20396 3.63475C1.18872 4.00813 1.15062 4.34341 1.08966 4.59487C1.0668 4.70155 1.0287 4.78537 0.998222 4.86919C0.906782 5.09779 0.845822 5.27305 1.02108 5.50165Z" fill="#FFF704"/>
</svg>
