<svg width="4.667604446411133" height="2.3318519592285156" viewBox="0 0 4.667604446411133 2.3318519592285156" fill="none" xmlns="http://www.w3.org/2000/svg">
<path d="M3.31471 1.55355C3.64999 2.00313 4.09957 2.35365 4.38913 2.33079C4.62535 2.29269 4.74727 2.01075 4.61011 1.70595C4.32055 1.04301 3.77191 0.844891 3.75667 0.0905101C3.32233 -0.10761 2.83464 0.0447899 2.31648 0.30387C1.68402 0.768691 1.07442 1.07349 0 0.959192C0.13716 1.43925 0.358141 1.89645 0.617221 2.31555C0.914401 2.32317 1.12776 2.19363 1.17348 1.94217C1.20396 1.81263 1.31064 1.56879 1.51638 1.56879C1.3716 1.67547 1.2573 1.94979 1.40208 2.01075C1.65354 2.12505 1.78308 1.41639 2.01168 1.36305C1.95072 1.50021 1.69164 1.84311 1.96596 1.84311C2.17932 1.80501 2.16408 1.41639 2.38506 1.43925C2.41554 1.56117 2.35458 1.85073 2.52984 1.84311C2.77368 1.78215 2.69748 1.43163 2.84988 1.43163C2.81178 1.78215 3.20803 1.72119 3.31471 1.55355Z" fill="#ED1B24"/>
</svg>
