<svg width="1.3531341552734375" height="6.50557804107666" viewBox="0 0 1.3531341552734375 6.50557804107666" fill="none" xmlns="http://www.w3.org/2000/svg">
<path d="M1.05272 0.0285655C1.57088 -0.131455 1.28894 0.424806 1.1594 0.607687C0.991758 0.851527 0.885079 1.28587 0.808879 1.73545C0.717439 2.29171 0.686958 2.87083 0.671718 3.12229C0.641238 3.59473 0.633619 4.08241 0.656479 4.51675C0.671719 4.89776 0.709819 5.24066 0.770779 5.50736C0.801259 5.61404 0.831739 5.7131 0.869839 5.79692C0.953659 6.01028 1.007 6.16268 0.770779 6.3989C0.755539 6.41414 0.732679 6.42938 0.717439 6.44462C0.664099 6.48272 0.610759 6.50558 0.549799 6.50558C0.496459 6.50558 0.435499 6.4751 0.374539 6.41414C0.359299 6.3989 0.336439 6.37604 0.321199 6.35318C0.214519 6.21602 0.138319 5.98742 0.0773588 5.68262C0.0240188 5.3702 -0.00646129 4.97396 0.00115871 4.50151C0.00115871 3.89191 0.0163985 3.46519 0.0925985 3.06895C0.176418 2.66509 0.313579 2.28409 0.549799 1.75069C0.603139 1.62115 0.648859 1.39255 0.702199 1.14109C0.763159 0.821047 0.839359 0.462906 0.946039 0.211446C0.976519 0.142866 1.01462 0.0819056 1.05272 0.0285655Z" fill="#FFF704"/>
</svg>
