<svg width="2.0513038635253906" height="4.236728668212891" viewBox="0 0 2.0513038635253906 4.236728668212891" fill="none" xmlns="http://www.w3.org/2000/svg">
<path d="M1.56362 3.04039C1.66268 2.81179 1.75412 2.59081 1.80746 2.37744C1.85318 2.16408 1.88366 1.92024 1.83794 1.70688C1.75412 1.24206 1.88366 0.716281 1.99796 0.23622C2.02082 0.1524 2.03606 0.0762002 2.0513 0C1.4798 0.464821 0.976883 0.944882 0.611123 1.4478C0.214883 1.99644 -0.0213386 2.58318 0.0015214 3.20803C0.192022 3.50521 0.329183 3.81001 0.405383 4.13005C0.413003 3.89383 0.413003 3.66523 0.428243 3.45949C0.451103 3.15469 0.489201 2.88036 0.550161 2.64414C0.626361 2.4003 0.717802 2.2098 0.824482 2.0574C0.931162 1.905 1.0607 1.7907 1.19024 1.69926C1.28168 1.6383 1.3655 1.76022 1.28168 1.82118C1.15214 1.905 1.04546 2.01168 0.946403 2.14884C0.847343 2.286 0.763522 2.46127 0.694942 2.68225C0.679702 2.73559 0.67208 2.78892 0.65684 2.84988C0.7178 2.7813 0.778763 2.72034 0.839723 2.667C0.969263 2.5527 1.0988 2.45364 1.24358 2.3622C1.3274 2.30886 1.41122 2.43078 1.31978 2.49174C1.19024 2.57556 1.0607 2.667 0.938781 2.77368C0.824481 2.88798 0.710183 3.00229 0.611123 3.13183C0.595883 3.23851 0.58826 3.35281 0.58064 3.47473C0.5654 3.71095 0.557783 3.96241 0.557783 4.23673C0.870203 3.70333 1.20548 3.32233 1.56362 3.04039Z" fill="#178358"/>
</svg>
