<svg width="7.488122940063477" height="5.733165740966797" viewBox="0 0 7.488122940063477 5.733165740966797" fill="none" xmlns="http://www.w3.org/2000/svg">
<path d="M0.967741 2.20218C1.1811 2.30124 1.39446 2.37744 1.60782 2.46126C1.83642 2.5527 2.06502 2.63652 2.30886 2.7432C2.88036 3.00229 3.34518 3.42139 3.64999 3.90907C3.84049 4.22149 3.96241 4.56439 4.00813 4.89967C4.03861 5.16637 4.01575 5.43307 3.94717 5.69215C4.03099 5.77597 4.17577 5.71501 4.26721 5.65405C4.44247 5.53213 4.57963 5.25019 4.65583 4.95301C4.74727 4.60249 4.76251 4.22149 4.68631 4.00813C4.48057 3.46711 4.16053 3.03277 3.74143 2.71273C3.32233 2.38507 2.80416 2.15646 2.20218 2.01168C2.0955 1.98882 2.1336 1.84405 2.23266 1.86691C2.8575 2.01169 3.39852 2.2479 3.83286 2.5908C4.27483 2.9337 4.61011 3.38329 4.82347 3.95479C4.86157 4.05385 4.87681 4.19101 4.88443 4.33579C4.88443 4.41961 4.93015 4.49581 5.01397 4.54153C5.16637 4.64059 5.25019 4.40437 5.27305 4.29007C5.36449 3.78715 5.21971 3.31471 4.95301 2.92609C4.61011 2.40793 4.04623 2.01931 3.52807 1.84405C3.42139 1.81357 3.47472 1.66878 3.57378 1.70688C4.12243 1.88976 4.70917 2.30125 5.08255 2.84227C5.37973 3.29185 5.53975 3.83287 5.39497 4.41199C5.37211 4.50343 5.36449 4.56439 5.41783 4.65583C5.44069 4.70917 5.49403 4.75489 5.55499 4.73965C5.82931 4.68631 5.88265 4.19863 5.90551 3.99289C5.93599 3.77953 5.95123 3.55855 5.95123 3.32995C5.94361 3.04039 5.90551 2.75083 5.76835 2.51461C5.57023 2.14123 4.96825 1.85166 4.48819 1.60782C4.34341 1.53924 4.20625 1.47066 4.09195 1.40208C4.00051 1.35636 4.06909 1.2192 4.16053 1.27254C4.27483 1.34112 4.41199 1.40208 4.55677 1.47828C5.05207 1.72212 5.67691 2.03454 5.90551 2.44603C6.05029 2.70511 6.09601 3.01753 6.10363 3.32995C6.10363 3.55855 6.08077 3.79477 6.05029 4.01575C6.03505 4.19101 6.17221 4.26721 6.30937 4.15291C6.53035 3.97003 6.67513 3.61951 6.73609 3.25375C6.79705 2.84989 6.76657 2.42316 6.62941 2.17932C6.46939 1.88214 6.24079 1.6383 5.95885 1.43256C5.67691 1.23444 5.34163 1.0668 4.97587 0.922023C4.87681 0.883923 4.93015 0.74676 5.02921 0.78486C5.40259 0.929641 5.75311 1.1049 6.04267 1.31826C6.34747 1.53162 6.59131 1.7907 6.76657 2.11074C6.87325 2.30886 6.92659 2.62129 6.91135 2.94133C6.91135 3.02515 6.88087 3.07087 6.96469 3.13183C7.05613 3.20041 7.16281 3.23851 7.26187 3.14707C7.31521 3.09373 7.36093 3.00991 7.39903 2.91847C7.48285 2.67463 7.50571 2.34696 7.47523 2.11836C7.39903 1.4859 6.81229 1.00584 6.12649 0.65532C5.48641 0.335279 4.79299 0.13716 4.26721 0C4.25959 0 4.25959 0 4.25959 0C4.29007 0.0914402 4.26721 0.175258 4.26721 0.274319C4.25959 0.320039 4.20625 0.358141 4.16053 0.335281C4.04623 0.281941 3.95479 0.228601 3.86335 0.175261C3.90907 0.274321 3.93955 0.381001 3.96241 0.510542C3.97003 0.563882 3.92431 0.609601 3.87097 0.594361C3.71857 0.563881 3.56617 0.51816 3.42139 0.47244C3.39091 0.46482 3.29947 0.40386 3.26899 0.39624C3.35281 0.48006 3.49759 0.6096 3.60427 0.70866C3.64999 0.75438 3.58903 0.853441 3.52807 0.830581C3.28423 0.746761 3.10135 0.647699 2.88799 0.533399C2.97181 0.693419 3.09372 0.868681 3.20802 1.01346C3.24612 1.07442 3.16231 1.16586 3.10135 1.12014C2.88036 0.975361 2.667 0.815341 2.46126 0.647701C2.43078 0.655321 2.40031 0.67056 2.36983 0.678181C2.41555 0.800101 2.46889 0.922021 2.52223 1.03632C2.55271 1.1049 2.44602 1.17348 2.4003 1.12014C2.30124 0.998221 2.20218 0.876302 2.11836 0.746762C1.97358 0.784862 1.8288 0.82296 1.68402 0.861061C1.82118 1.00584 1.96596 1.143 2.11075 1.27254C2.19457 1.34112 2.0955 1.45542 2.01168 1.38684C1.83642 1.23444 1.6764 1.07442 1.524 0.899162C1.4097 0.929642 1.2954 0.952503 1.18872 0.975363L1.59258 1.41732C1.66116 1.49352 1.55448 1.59258 1.47828 1.51638L1.01346 1.01346C0.861062 1.04394 0.701041 1.07442 0.541021 1.1049C0.601981 1.15062 0.662941 1.20396 0.731521 1.24968C0.883922 1.36398 1.03632 1.47066 1.20396 1.57734C1.2954 1.63068 1.21158 1.76022 1.12014 1.70688C0.952502 1.6002 0.792482 1.4859 0.640082 1.3716C0.541021 1.2954 0.44196 1.2192 0.35052 1.13538C0.23622 1.15824 0.1143 1.17348 0 1.18872C0.0990602 1.3716 0.20574 1.53162 0.33528 1.6764C0.502921 1.8669 0.685801 2.02692 0.899162 2.15646C0.922022 2.1717 0.944881 2.18694 0.967741 2.20218Z" fill="#FFF704"/>
</svg>
