<svg width="12.905706405639648" height="3.208026885986328" viewBox="0 0 12.905706405639648 3.208026885986328" fill="none" xmlns="http://www.w3.org/2000/svg">
<path d="M11.0559 0.792482C11.2388 0.883922 11.5589 0.899163 11.8103 0.891543C12.2828 0.876303 12.0008 1.18872 12.298 1.18872C12.7857 1.18872 13.1514 1.76022 12.7019 1.9812C12.5952 2.03454 12.4123 2.02692 12.2142 2.02692C12.0389 2.08026 12.5723 2.30124 12.0694 2.37744C11.8789 2.40792 11.3303 2.2479 11.3303 2.58319C11.3303 2.77369 10.7588 2.88799 10.5987 2.91085C9.17379 3.10897 7.64979 3.20803 6.14102 3.20803C5.15804 3.20803 4.16744 3.16231 3.20732 3.08611C2.87966 3.05563 2.87204 2.79655 2.552 2.71273C2.37674 2.66701 2.14813 2.68987 1.91191 2.66701C1.38613 2.61367 1.44709 2.22504 0.967031 2.30124C0.54031 2.36982 0.121209 2.08788 0.18979 1.87452C0.23551 1.7526 0.50221 1.68402 0.898451 1.64592C0.616511 1.53162 0.69271 1.57734 0.387909 1.56972C0.0297686 1.5621 -0.0616712 1.50114 0.037389 1.39446C0.121209 1.31064 0.662231 1.28016 0.30409 1.21158C-0.236931 1.1049 0.715572 0.853442 0.814632 0.807722C1.20325 0.640082 1.53853 0.396242 1.96525 0.327661C3.38258 0.106681 4.7618 0 6.14102 0C7.29165 0 8.44227 0.0762005 9.60813 0.228601C10.1187 0.289561 10.6064 0.571502 11.0559 0.792482Z" fill="#ED1B24"/>
</svg>
