<svg width="45.447105407714844" height="59.99999237060547" viewBox="0 0 45.447105407714844 59.99999237060547" fill="none" xmlns="http://www.w3.org/2000/svg">
<path d="M39.8845 50.5436V50.4216L39.9683 50.4445L39.8921 50.5359C39.8921 50.5359 39.8921 50.5436 39.8845 50.5436ZM39.8845 49.1262V48.9586C39.9226 48.9357 39.9607 48.9205 39.9912 48.9053C39.9759 48.7681 40.0521 48.6614 40.1588 48.5852C40.3341 48.4557 40.6084 48.4404 40.7837 48.5776C40.8751 48.6462 40.9208 48.7376 40.9208 48.8367C40.9132 49.0119 40.776 49.1339 40.6084 49.1872C40.4941 49.2177 40.3646 49.2253 40.2426 49.1872C40.1588 49.1567 40.0902 49.111 40.0445 49.0424C39.9912 49.0729 39.9378 49.0958 39.8845 49.1262ZM39.8845 47.0993V41.3614C39.9988 41.5672 40.0826 41.7882 40.1588 42.0091C40.1893 42.1082 40.2198 42.2149 40.2426 42.3216C40.2426 42.2454 40.2426 42.1692 40.2426 42.0853C40.235 41.8567 40.2122 41.6205 40.1893 41.3919C40.0979 41.3843 40.014 41.3386 39.9531 41.2624C39.9226 41.2319 39.9074 41.2014 39.8845 41.1633V40.7899C39.9074 40.7595 39.9226 40.729 39.9455 40.6985C40.0902 40.5385 40.3188 40.5385 40.456 40.7061C40.5093 40.7747 40.5474 40.8814 40.5474 40.9881C40.5474 41.0947 40.5093 41.2014 40.456 41.27C40.4255 41.3157 40.3798 41.3462 40.3341 41.3691C40.3646 41.6053 40.3798 41.8415 40.3874 42.0853C40.395 42.2301 40.395 42.3749 40.395 42.5197C40.6008 42.0396 40.8751 41.651 41.218 41.331C41.2561 41.2929 41.3018 41.2624 41.3399 41.2243C41.0046 40.9576 40.7379 40.668 40.5322 40.348C40.3112 40.0051 40.1588 39.6241 40.0902 39.2202C39.9836 38.6563 39.9683 38.0696 40.0293 37.4905C40.0979 36.8885 40.2426 36.2941 40.456 35.7379L40.517 35.5931L40.5932 35.7302C40.7151 35.9589 40.8675 36.2027 41.0427 36.4618C41.2409 36.7513 41.4542 37.0333 41.6676 37.3076C41.6828 37.0333 41.7438 36.7666 41.8428 36.5075C41.8428 36.5075 41.8428 36.5075 41.8428 36.4999C41.6904 36.1417 41.6219 35.7455 41.6295 35.3492C40.8903 35.0216 40.3722 34.6558 40.014 34.1529C39.9683 34.0843 39.9302 34.0157 39.8845 33.9472V31.966C40.0217 31.9431 40.1512 31.9202 40.2731 31.9279C40.0826 31.4097 39.9607 31.0897 39.9378 30.7849C39.915 30.8306 39.8997 30.8687 39.8845 30.9144V23.6297C40.6617 24.605 41.3247 25.588 41.439 26.2891C41.5152 26.8072 41.5228 27.1806 41.3018 27.6683C41.2561 27.7673 41.157 27.9883 41.058 28.2093C40.8599 28.6284 40.6694 29.0475 40.4789 29.4818C40.7303 29.4971 40.9742 29.558 41.1799 29.7028C41.378 29.84 41.538 30.0457 41.6219 30.3581C41.8124 30.1067 42.0333 29.8781 42.2772 29.6723C42.521 29.4666 42.7725 29.2913 43.0544 29.1389C42.9706 29.4742 42.8715 29.7943 42.8487 30.1295C42.8258 30.4039 42.8411 30.6858 42.9249 30.9449C42.9782 31.0973 43.0163 31.2573 43.0392 31.4097C43.1078 31.3411 43.1687 31.2725 43.2221 31.1963C43.2983 31.0897 43.3592 30.983 43.4126 30.8687C43.3516 30.8306 43.3059 30.7772 43.2754 30.7087C43.2297 30.6096 43.2221 30.4877 43.2525 30.3658C43.283 30.2438 43.3516 30.1372 43.4354 30.0762C43.5345 30.0076 43.6412 29.9848 43.7555 30.0076C43.8621 30.0305 43.946 30.1067 43.9917 30.2057C44.0374 30.3048 44.0526 30.4267 44.0222 30.5486C43.9917 30.6706 43.9155 30.7696 43.8317 30.8382C43.7478 30.8992 43.6564 30.9296 43.5573 30.922C43.4964 31.0516 43.4278 31.1659 43.344 31.2802C43.2602 31.3945 43.1687 31.5011 43.062 31.6002C43.0697 31.6612 43.0697 31.7145 43.0697 31.7755C43.0773 31.966 43.062 32.1488 43.0239 32.3393C43.4278 31.9202 43.885 31.5926 44.3803 31.2878C44.2431 31.7069 44.1822 32.126 44.0984 32.5603C44.0222 32.9718 43.9079 33.3833 43.7402 33.7795C43.6412 34.031 43.5269 34.2748 43.3897 34.511C43.6183 34.3129 43.8393 34.1148 44.106 33.9624C44.0526 34.1681 44.0069 34.3739 43.9612 34.572C43.8469 35.0368 43.725 35.5397 43.8012 35.9589C43.8545 35.8826 43.9155 35.8217 43.9917 35.7607C44.1822 35.6159 44.3879 35.4712 44.4717 35.2349C44.5403 35.0521 44.6013 34.8997 44.7994 34.7777C44.9137 34.7015 45.028 34.6634 45.1194 34.6711C45.2337 34.6711 45.3176 34.7396 45.3328 34.8539C45.3404 34.9225 45.3252 35.014 45.2718 35.1206C45.2109 35.2426 45.1194 35.334 44.9899 35.3873C44.8756 35.4407 44.7308 35.4636 44.5403 35.4636C44.4032 35.6236 44.2431 35.7531 44.0831 35.8826C43.9993 35.9436 43.9383 36.0198 43.8698 36.1113C43.8545 36.1265 43.8393 36.1493 43.824 36.1646C43.8317 36.3475 43.8088 36.5303 43.7631 36.7208C43.725 36.8732 43.6793 37.0257 43.6107 37.1781C44.1669 36.8123 44.807 36.6446 45.4471 36.5151C45.2566 36.9418 45.1347 37.3838 44.9137 37.7953C44.586 38.4125 44.2584 38.8468 43.8774 39.2355C43.4964 39.6241 43.0773 39.9517 42.5439 40.3404C42.4143 40.4394 42.3077 40.569 42.2086 40.6985C42.521 40.5613 42.8182 40.4699 43.1459 40.447C43.0468 40.5385 42.9935 40.6071 42.9173 40.7214C42.5667 41.2776 42.0181 42.1463 42.0867 42.794C42.1019 42.8931 42.1324 42.9921 42.1629 43.1064C42.201 43.2283 42.2391 43.3579 42.2619 43.5027C42.4143 43.3274 42.5667 43.1674 42.7191 43.0226C42.8944 42.855 43.062 42.7102 43.2297 42.5654C43.184 42.4816 43.1763 42.3825 43.2068 42.2835C43.2678 42.0777 43.4964 41.9558 43.7097 41.9939C43.9231 42.032 44.0679 42.2377 43.9993 42.4511C43.9307 42.6568 43.7021 42.7788 43.4964 42.7407C43.4354 42.733 43.3821 42.7102 43.3364 42.6797C43.1611 42.8169 42.9935 42.9693 42.8258 43.1293C42.6353 43.3198 42.4524 43.5103 42.2772 43.7084C42.2772 43.7998 42.2619 43.9065 42.2391 44.0132C42.8792 43.7389 43.4888 43.6398 44.1822 43.6779C44.0679 43.7998 43.9536 43.9218 43.8393 44.0513C43.5116 44.3942 43.184 44.7447 42.8563 45.141C42.3229 45.7887 41.7743 46.2764 41.2256 46.6116C40.7837 46.8783 40.3341 47.0384 39.8845 47.0993ZM34.1161 9.6698C34.581 9.76124 34.9924 9.9365 35.282 10.2794C35.3506 10.3556 35.5563 10.4394 35.7621 10.4928C35.8383 10.2413 35.8916 9.98222 35.9068 9.72314C35.983 8.81636 35.6401 7.94006 34.9924 7.23139C34.741 6.95707 34.4514 6.70561 34.1161 6.49225V5.08255C34.1238 5.09779 34.1238 5.11303 34.1314 5.12827C34.1466 5.11303 34.1619 5.09017 34.1847 5.07493C34.3143 4.94539 34.4895 4.86157 34.68 4.86157C35.0686 4.86157 35.3887 5.18161 35.3887 5.57023C35.3887 5.58547 35.3887 5.60071 35.3887 5.61595C35.5106 5.51689 35.663 5.46355 35.8306 5.46355C36.2345 5.46355 36.5622 5.79121 36.5622 6.19507C36.5622 6.35509 36.5164 6.49987 36.425 6.62179C36.5393 6.55321 36.6688 6.51511 36.806 6.51511C37.2251 6.51511 37.5604 6.85801 37.5604 7.26949C37.5604 7.56668 37.3927 7.81814 37.1489 7.94006C37.2175 7.92482 37.2785 7.9172 37.3546 7.9172C37.7585 7.9172 38.0862 8.24486 38.0862 8.64872C38.0862 9.00686 37.8271 9.31166 37.4766 9.37262C37.7661 9.44882 37.9719 9.7079 37.9719 10.0127C37.9719 10.3556 37.7052 10.6452 37.3699 10.6756C37.4918 10.7823 37.5756 10.95 37.5756 11.1252C37.5756 11.4605 37.3013 11.7272 36.9736 11.7272C36.966 11.7272 36.966 11.7272 36.9584 11.7272C37.0575 11.8339 37.1108 11.971 37.1108 12.1311C37.1108 12.4587 36.8441 12.733 36.5088 12.733C36.4174 12.733 36.3336 12.7102 36.2497 12.6721C36.1583 12.7711 36.0745 12.8931 36.0211 13.0531C36.2802 13.4036 36.3793 13.876 36.1964 14.2647C36.0745 14.5314 35.7621 14.6152 35.5258 14.4475C35.3277 14.3104 35.2668 14.0437 35.3811 13.8303C35.3125 13.7008 35.221 13.6246 35.1296 13.5865C35.0305 13.556 34.9162 13.5636 34.8019 13.6093C34.68 13.6551 34.5657 13.7389 34.4514 13.8379C34.3143 13.9675 34.1923 14.1275 34.1161 14.2875V9.6698ZM39.8845 23.6297V30.9144C39.7473 31.2802 39.6178 31.6535 39.5035 32.0345C39.5873 32.0269 39.6711 32.0117 39.7473 31.9964C39.7931 31.9812 39.8388 31.9736 39.8845 31.966V33.9472C39.6407 33.5281 39.4883 33.0251 39.3968 32.4003C39.3816 32.4536 39.3587 32.5146 39.3435 32.5756C38.4977 29.1999 36.646 26.2052 34.1161 23.9497V22.22C34.2381 22.2733 34.3524 22.3266 34.4743 22.3571C34.7791 22.4486 35.1067 22.4867 35.4115 22.4486C35.8611 22.3876 36.2726 22.1361 36.4326 21.7018C36.4936 21.5494 36.5164 21.3894 36.5012 21.1989C36.2955 21.1836 36.1431 21.0312 36.1278 20.8331C36.105 20.5664 36.2955 20.3378 36.5545 20.2921C36.8212 20.2388 37.0498 20.3378 37.248 20.5055C37.4385 20.6579 37.5985 20.8712 37.7356 21.0465C37.9795 21.3665 38.3148 21.7551 38.6805 22.1819C39.0692 22.6391 39.4959 23.1344 39.8845 23.6297ZM39.8845 40.7899V41.1633C39.8616 41.11 39.8464 41.0414 39.8464 40.9804C39.8464 40.9119 39.8616 40.8433 39.8845 40.7899ZM39.8845 41.3614C39.854 41.3005 39.8235 41.2319 39.7854 41.1709C39.6711 40.9804 39.5492 40.7976 39.4044 40.6147C39.092 41.9634 38.6119 43.2512 37.9947 44.4628C38.0023 45.0495 38.0633 45.5905 38.2157 46.0249C38.3757 46.4745 38.6348 46.8021 39.0387 46.9469C38.17 47.3889 37.4537 47.9451 36.8974 48.6157C36.8746 48.4481 36.8746 48.288 36.8822 48.128C36.8898 47.9223 36.9203 47.7165 36.9584 47.5184C37.0575 47.5184 37.1565 47.4879 37.2251 47.4194C37.2861 47.3584 37.3242 47.267 37.347 47.1374C37.347 47.0917 37.347 47.046 37.3394 47.0003C37.3318 46.9164 37.2937 46.8479 37.248 46.7945C37.1946 46.7336 37.126 46.7031 37.0575 46.6878C37.0346 46.6878 37.0117 46.6878 36.9813 46.6954C36.8898 46.7031 36.8136 46.7564 36.7527 46.8326C36.6993 46.9088 36.6612 47.0003 36.6536 47.1069C36.6536 47.206 36.6765 47.3127 36.7298 47.3889C36.7527 47.4194 36.7831 47.4498 36.8212 47.4727C36.7755 47.6861 36.745 47.907 36.7298 48.1204C36.7222 48.3338 36.7298 48.5471 36.7679 48.7681C36.6003 48.9815 36.4479 49.2101 36.3031 49.4463C36.3336 49.0272 36.3183 48.6462 36.2574 48.3033C36.2116 48.0061 36.1278 47.7394 36.0135 47.5032C35.5487 48.0823 35.0382 48.6309 34.4971 49.1415C34.5124 49.4539 34.5581 49.7206 34.6191 49.9644L34.2609 49.3625C34.2152 49.4082 34.1695 49.4463 34.1161 49.492V54.3002C34.4895 53.8354 34.8324 53.363 35.1448 52.8905C36.1202 53.1344 37.0194 52.8981 37.8042 52.4333C38.6196 51.9533 39.3282 51.2217 39.8845 50.5436V50.4216L39.8464 50.414C39.4349 50.3378 39.0082 50.3302 38.5586 50.4064C38.2233 50.4597 37.8804 50.5588 37.5223 50.7036C37.8423 50.3988 38.1319 50.0483 38.391 49.6368C38.6805 49.5682 38.9701 49.492 39.252 49.3853C39.4654 49.3091 39.6788 49.2253 39.8845 49.1262V48.9586C39.6635 49.0653 39.4349 49.1643 39.1987 49.2482C38.9701 49.332 38.7339 49.4006 38.4977 49.4539C38.5967 49.2939 38.6882 49.1186 38.7796 48.9357C38.993 48.5014 39.1911 48.0442 39.3892 47.5946C39.4578 47.4346 39.5264 47.2746 39.5949 47.1222C39.694 47.1145 39.7931 47.1069 39.8845 47.0993V41.3614ZM32.3178 8.54966C32.5845 8.55728 32.8512 8.58776 33.1179 8.64872C33.3084 8.99934 33.3465 9.29642 33.3618 9.58598C33.6208 9.60122 33.8799 9.62408 34.1161 9.6698V14.2875C34.078 14.3866 34.0476 14.478 34.0476 14.5618C34.0476 14.6304 34.0323 14.6914 34.0095 14.7371C33.9637 14.8666 33.8571 14.9581 33.7351 15.019C33.6208 15.0724 33.4837 15.0952 33.3618 15.0952C33.3465 15.0952 33.3313 15.0952 33.316 15.0952C33.2703 15.1867 33.1941 15.2934 33.0798 15.4153C32.9427 15.5601 32.8817 15.7658 32.8207 15.9639C32.9046 16.0401 32.9427 16.124 32.9579 16.2154C32.9731 16.284 32.9655 16.3526 32.9427 16.4135C32.9198 16.4821 32.8893 16.5354 32.836 16.5888C32.7979 16.6269 32.7522 16.6574 32.6988 16.6878C32.8893 16.6955 33.0798 16.7869 33.1941 16.9393C33.3008 17.0688 33.3313 17.2365 33.2703 17.3889C33.1789 17.6175 32.9731 17.6251 32.7522 17.6327C32.5693 17.6403 32.3712 17.6556 32.2721 17.8156C32.0587 18.1585 31.9597 18.5014 31.9368 18.8443C31.9063 19.2405 31.9825 19.6292 32.1273 19.9949C32.3254 20.5055 32.6836 21.0465 33.1179 21.4884C33.4227 21.7932 33.7656 22.0523 34.1161 22.22V23.9497C32.1197 22.159 29.6889 20.8331 27.0143 20.1397V5.75311C27.4105 5.71501 27.8525 5.72263 28.1573 5.82931C28.8126 6.05791 28.9117 6.78181 29.8032 6.86563C29.8413 6.87325 29.887 6.87325 29.9328 6.88087C29.9251 6.52273 29.8718 6.17221 29.7651 5.81407C29.6356 5.35687 29.407 5.04445 29.1022 4.84633C28.7898 4.64059 28.3859 4.55677 27.8906 4.55677C27.5706 4.55677 27.2886 4.54153 27.0143 4.51867V2.99467C27.2276 3.06325 27.3877 3.23851 27.4258 3.45949C27.4486 3.39853 27.4867 3.34519 27.5324 3.29947C27.6391 3.20041 27.7839 3.13183 27.9439 3.13183C28.264 3.13183 28.5307 3.39091 28.5307 3.71857C28.5307 3.72619 28.5307 3.73381 28.5307 3.74905C28.5535 3.63475 28.6145 3.53569 28.6907 3.45187C28.7974 3.34519 28.9498 3.27661 29.1174 3.27661C29.4375 3.27661 29.7042 3.53569 29.7194 3.85573C29.8337 3.74143 29.9861 3.67285 30.1614 3.67285C30.4966 3.67285 30.771 3.94717 30.771 4.28245C30.771 4.30531 30.771 4.33579 30.7633 4.35865C30.8624 4.14529 31.0758 4.00051 31.3196 4.00051C31.6625 4.00051 31.9368 4.27483 31.9368 4.61011C31.9368 4.62535 31.9368 4.63297 31.9368 4.64059C31.9444 4.62535 31.9597 4.61011 31.9749 4.59487C32.0892 4.48057 32.2416 4.41199 32.4169 4.41199C32.6988 4.41199 32.9427 4.60249 33.0189 4.86157C33.0341 4.83871 33.0493 4.82347 33.0646 4.80061C33.1789 4.68631 33.3389 4.61773 33.5142 4.61773C33.8037 4.61773 34.0476 4.81585 34.1161 5.08255V6.49225C33.6208 6.16459 33.0341 5.92075 32.3864 5.77597C32.4169 5.89789 32.4245 6.01981 32.4321 6.14173C32.4321 6.15697 32.4321 6.17221 32.4397 6.20269C32.4855 6.86563 32.5007 7.41427 32.4321 7.94768C32.4093 8.1458 32.3712 8.34392 32.3178 8.54966ZM34.1161 49.492V54.3002C33.377 55.2375 32.5159 56.1747 31.4339 57.112C30.5195 58.0493 28.584 59.7028 27.0143 59.6266V53.302C29.6889 52.6086 32.1197 51.2827 34.1161 49.492ZM27.0143 2.99467V4.51867C26.8466 4.50343 26.679 4.48057 26.519 4.45771C26.0999 4.38913 25.6884 4.28245 25.2007 4.13767C24.9874 4.06909 24.7816 4.02337 24.5835 3.99289C24.4311 3.97003 24.2711 3.95479 24.1034 3.93955C24.1111 3.95479 24.1263 3.97765 24.1339 3.99289C24.3473 4.37389 24.5073 4.82347 24.6216 5.31115C24.9264 5.38735 25.216 5.47879 25.4979 5.57023C25.9246 5.71501 26.237 5.88265 26.6866 5.79883C26.7933 5.78359 26.9 5.76835 27.0143 5.75311V20.1397C25.6427 19.7816 24.2025 19.5911 22.7242 19.5911C21.2688 19.5911 19.8439 19.7739 18.4875 20.1245V6.21793C18.6323 6.21031 18.7694 6.21031 18.9066 6.23317C19.2114 6.27127 19.4781 6.37033 19.6915 6.30937C20.2249 6.15697 20.5601 5.68453 21.0631 5.44069C21.0783 5.41783 21.0859 5.38735 21.1012 5.36449C21.1469 5.25019 21.1926 5.02921 21.2459 4.78537C21.2993 4.49581 21.3679 4.18339 21.4593 3.92431C21.2536 3.94717 21.0554 3.96241 20.8649 3.99289C20.6668 4.02337 20.4611 4.06909 20.2477 4.13767C19.76 4.28245 19.3486 4.38913 18.9295 4.45771C18.7847 4.48057 18.6399 4.49581 18.4875 4.51105V2.98705C18.5256 2.97943 18.5637 2.97181 18.6018 2.97181C18.7618 2.97181 18.9066 3.04039 19.0133 3.14707C19.0514 3.18517 19.0895 3.23089 19.1123 3.27661C19.1657 3.01753 19.4019 2.81179 19.6762 2.81179C19.8362 2.81179 19.981 2.88037 20.0877 2.98705C20.1182 3.01753 20.1487 3.05563 20.1715 3.09373C20.2553 2.88037 20.4535 2.73559 20.6897 2.73559C21.0021 2.73559 21.2536 2.99467 21.2459 3.29947C21.4136 3.29947 21.566 3.26899 21.7184 3.20803C21.6574 3.07087 21.6193 2.91085 21.6193 2.75083C21.6193 2.20218 22.0232 1.73736 22.549 1.65354V1.08204H21.8784V0.716281H22.549V0H22.8995V0.716281H23.57V1.08204H22.8995V1.65354C23.4253 1.73736 23.8291 2.20218 23.8291 2.75083C23.8291 2.91085 23.791 3.07087 23.7301 3.20803C23.8825 3.26899 24.0349 3.29947 24.2025 3.29947C24.1949 2.99467 24.4463 2.73559 24.7588 2.73559C24.995 2.73559 25.1931 2.88037 25.2769 3.09373C25.2998 3.05563 25.3303 3.01753 25.3607 2.98705C25.4674 2.88037 25.6122 2.81179 25.7722 2.81179C26.0465 2.81179 26.2828 3.01753 26.3361 3.27661C26.359 3.23089 26.3971 3.18517 26.4352 3.14707C26.5418 3.04039 26.6866 2.97181 26.8466 2.97181C26.9076 2.97181 26.9609 2.97943 27.0143 2.99467ZM27.0143 53.302V59.6266C26.8847 59.619 26.7552 59.6038 26.6333 59.5733C25.9475 59.398 25.3912 58.8646 25.4293 58.1179C25.2845 58.5141 25.0483 58.8722 24.7588 59.1618C24.233 59.68 23.5091 60 22.7242 60C21.9317 60 21.2078 59.68 20.6897 59.1618C20.3925 58.8722 20.1639 58.5141 20.0115 58.1179C20.0496 58.8646 19.4933 59.398 18.8152 59.5733C18.7085 59.5961 18.6018 59.6114 18.4875 59.619V53.3172C19.8439 53.6678 21.2688 53.8506 22.7242 53.8506C24.2025 53.8506 25.6427 53.6601 27.0143 53.302ZM18.4875 2.98705V4.51105C18.2056 4.54153 17.9008 4.55677 17.5579 4.55677C17.0626 4.55677 16.6587 4.64059 16.3463 4.84633C16.0415 5.04445 15.8129 5.35687 15.6833 5.81407C15.5538 6.24079 15.5081 6.66751 15.5233 7.07899C15.5385 7.40665 15.5919 7.73432 15.6833 8.05436C16.0567 7.90958 16.4072 7.66574 16.8644 7.07137C17.2302 6.59893 17.8703 6.27127 18.4875 6.21793V20.1245C15.7824 20.8179 13.3364 22.1514 11.3171 23.9649V22.2276C11.6676 22.0523 12.0181 21.7932 12.3229 21.4884C12.7649 21.0465 13.123 20.5055 13.3211 19.9949C13.4583 19.6292 13.5345 19.2405 13.5116 18.8443C13.4888 18.5014 13.3821 18.1585 13.1763 17.8156C13.0697 17.6556 12.8792 17.6403 12.6963 17.6327C12.4753 17.6251 12.2696 17.6175 12.1705 17.3889C12.1095 17.2365 12.1476 17.0688 12.2467 16.9393C12.3686 16.7869 12.5591 16.6955 12.7496 16.6878C12.6963 16.6574 12.6506 16.6269 12.6125 16.5888C12.5667 16.5354 12.5286 16.4821 12.5058 16.4135C12.4829 16.3526 12.4753 16.284 12.4905 16.2154C12.5058 16.124 12.5439 16.0401 12.6277 15.9639C12.5667 15.7658 12.5134 15.5601 12.3686 15.4153C12.2543 15.2934 12.1781 15.1867 12.1324 15.0952C12.1172 15.0952 12.0943 15.0952 12.0791 15.0952C11.9571 15.0952 11.82 15.0724 11.7057 15.019C11.5838 14.9581 11.4771 14.8666 11.4237 14.7371C11.4085 14.6914 11.3933 14.6304 11.3933 14.5618C11.3933 14.478 11.3628 14.3713 11.3171 14.2723V8.84684V8.83922C11.8581 8.4506 12.422 8.23724 13.0925 8.4125C13.062 8.25248 13.0316 8.10008 13.0163 7.94768C12.9477 7.41427 12.963 6.86563 13.0087 6.20269C13.0163 6.17221 13.0163 6.15697 13.0163 6.14173C13.0239 6.01981 13.0316 5.89789 13.062 5.77597C12.4067 5.92075 11.82 6.17221 11.3171 6.49987V5.12827C11.3704 4.83871 11.6295 4.61773 11.9343 4.61773C12.1095 4.61773 12.2696 4.68631 12.3839 4.80061C12.3991 4.82347 12.4143 4.83871 12.4296 4.86157C12.5058 4.60249 12.7496 4.41199 13.0316 4.41199C13.2068 4.41199 13.3592 4.48057 13.4735 4.59487C13.4888 4.61011 13.504 4.62535 13.5116 4.64059C13.5116 4.63297 13.5116 4.62535 13.5116 4.61011C13.5116 4.27483 13.7859 4.00051 14.1288 4.00051C14.3727 4.00051 14.586 4.14529 14.6851 4.35865C14.6775 4.33579 14.6775 4.30531 14.6775 4.28245C14.6775 3.94717 14.9518 3.67285 15.2871 3.67285C15.4623 3.67285 15.6147 3.74143 15.729 3.85573C15.7443 3.53569 16.011 3.27661 16.331 3.27661C16.4987 3.27661 16.6511 3.34519 16.7577 3.45187C16.834 3.53569 16.8949 3.63475 16.9178 3.74905C16.9178 3.73381 16.9178 3.72619 16.9178 3.71857C16.9178 3.39091 17.1845 3.13183 17.5045 3.13183C17.6645 3.13183 17.8093 3.20041 17.916 3.29947C17.9617 3.34519 17.9998 3.39853 18.0227 3.45949C18.0684 3.21565 18.2513 3.03277 18.4875 2.98705ZM18.4875 53.3172V59.619C16.9102 59.7485 14.9366 58.0645 14.0069 57.112C12.9249 56.1747 12.0562 55.2299 11.3171 54.285V49.4768C13.3364 51.2903 15.7824 52.6238 18.4875 53.3172ZM11.3171 5.12827V6.49987C10.9894 6.71323 10.6998 6.95707 10.456 7.23139C9.90736 7.83338 9.57208 8.5649 9.53398 9.3269C10.3646 9.54026 10.6694 9.30404 11.3171 8.84684V14.2723C11.2409 14.1199 11.1266 13.9599 10.9818 13.8379H10.9894C10.8751 13.7389 10.7608 13.6551 10.6389 13.6093C10.5246 13.5636 10.4103 13.556 10.3112 13.5865C10.2198 13.6246 10.1283 13.7008 10.0598 13.8303C10.1741 14.0437 10.1131 14.3104 9.91498 14.4475C9.67876 14.6152 9.35872 14.5314 9.24442 14.2647C9.15298 14.0665 9.15298 13.8227 9.17584 13.6093C9.20632 13.396 9.29014 13.1979 9.41968 13.0302C9.36634 12.8778 9.29014 12.7635 9.1987 12.6721C9.1225 12.7102 9.03106 12.733 8.93962 12.733C8.60433 12.733 8.33764 12.4587 8.33764 12.1311C8.33764 11.971 8.39097 11.8339 8.49003 11.7272C8.48241 11.7272 8.48242 11.7272 8.47479 11.7272C8.14713 11.7272 7.87281 11.4605 7.87281 11.1252C7.87281 10.95 7.95663 10.7823 8.07855 10.6756C7.74327 10.6452 7.47657 10.3556 7.47657 10.0127C7.47657 9.7079 7.68993 9.44882 7.97187 9.37262C7.62135 9.31166 7.36227 9.00686 7.36227 8.64872C7.36227 8.24486 7.68993 7.9172 8.09379 7.9172C8.16999 7.9172 8.23095 7.92482 8.29953 7.94006C8.05569 7.81814 7.88805 7.56668 7.88805 7.26949C7.88805 6.85801 8.22333 6.51511 8.64244 6.51511C8.7796 6.51511 8.90914 6.55321 9.02344 6.62179C8.932 6.49987 8.88628 6.35509 8.88628 6.19507C8.88628 5.79121 9.21394 5.46355 9.6178 5.46355C9.78544 5.46355 9.93784 5.51689 10.0674 5.61595C10.0598 5.60071 10.0598 5.58547 10.0598 5.57023C10.0598 5.18161 10.3798 4.86157 10.7684 4.86157C10.9589 4.86157 11.1342 4.94539 11.2637 5.07493C11.279 5.09017 11.3018 5.10541 11.3171 5.12827ZM11.3171 22.2276V23.9649C8.79484 26.2205 6.94317 29.2075 6.09735 32.5832C6.00591 32.2403 5.90685 31.8974 5.79255 31.5697C5.80017 31.745 5.80017 31.9126 5.77731 32.0726C5.73921 32.4155 5.64015 32.7432 5.48013 33.0632C5.29725 33.429 5.03055 33.81 4.69527 34.1758C4.61907 34.252 4.52763 34.3434 4.43619 34.4348V25.2299C4.98483 24.2697 5.94495 23.142 6.76029 22.1819C7.12605 21.7551 7.46133 21.3665 7.71279 21.0465C7.84233 20.8712 8.00997 20.6579 8.20047 20.5055C8.39859 20.3378 8.6272 20.2388 8.88628 20.2921C9.14536 20.3378 9.34348 20.5664 9.32062 20.8331C9.29776 21.0312 9.15298 21.1836 8.93962 21.1989C8.92438 21.3894 8.95486 21.5494 9.0082 21.7018C9.17584 22.1361 9.5797 22.3876 10.0369 22.4486C10.3341 22.4867 10.6617 22.4486 10.9665 22.3571C11.0808 22.3266 11.2028 22.2809 11.3171 22.2276ZM11.3171 49.4768V54.285C10.7227 53.5382 10.2122 52.7915 9.73972 52.0447C9.13774 52.3952 8.55861 52.4638 8.03283 52.3647C7.20225 52.2047 6.50883 51.618 6.07449 51.1074C5.91447 50.9093 5.76207 50.7493 5.60967 50.6045C5.42679 50.4216 5.22867 50.254 5.03055 50.0787C5.64777 49.9644 6.25737 49.8882 6.88221 49.9644C6.76029 49.8654 6.65361 49.7511 6.56217 49.6292C6.47835 49.5072 6.40215 49.3777 6.34119 49.2405C5.80779 49.1491 5.29725 48.9434 4.84767 48.6538C4.80957 48.6843 4.77147 48.6995 4.73337 48.7071C4.63431 48.73 4.52763 48.7148 4.43619 48.6614V48.1509C4.44381 48.1509 4.45905 48.1433 4.46667 48.1433C4.62669 48.1052 4.82481 48.1814 4.90863 48.3338C4.93911 48.3947 4.95435 48.4709 4.93149 48.5319C5.34297 48.791 5.80017 48.9815 6.27261 49.0729C6.24213 48.9891 6.21927 48.9053 6.18879 48.8214C6.08973 48.4557 5.93733 48.0899 5.74683 47.7394C5.55633 47.3965 5.32773 47.0765 5.07627 46.7945C4.85529 46.6574 4.64193 46.5049 4.43619 46.3525V41.4148C4.53525 41.5748 4.61907 41.7424 4.70289 41.9253C4.70289 41.8796 4.71051 41.8339 4.71813 41.7729C4.72575 41.6662 4.72575 41.5596 4.73337 41.4529C4.73337 41.3386 4.73337 41.2243 4.72575 41.11C4.60383 41.0643 4.51239 40.9728 4.46667 40.8738C4.45143 40.8204 4.43619 40.7671 4.43619 40.7137V35.6998C4.44381 35.6845 4.44381 35.6693 4.45143 35.654C4.59621 35.2578 4.73337 34.8692 4.86291 34.4729C5.18295 34.7625 5.41155 35.0749 5.57157 35.4788C5.59443 35.5245 5.60967 35.5779 5.62491 35.6312C5.60967 35.9893 5.59443 36.3551 5.59443 36.7132C5.59443 37.018 5.60205 37.3228 5.61729 37.62C5.46489 38.161 5.22105 38.7706 4.98483 39.3574C4.84767 39.7079 4.71051 40.0432 4.60383 40.3556C4.58859 40.3861 4.58097 40.4166 4.57335 40.4394C4.64193 40.3861 4.74099 40.3556 4.86291 40.3556C5.05341 40.3632 5.16771 40.4699 5.21343 40.5994C5.25153 40.6985 5.24391 40.8128 5.20581 40.9119C5.15247 41.0338 5.03817 41.1328 4.87815 41.1328C4.87815 41.2395 4.87815 41.3462 4.87815 41.4529C4.87815 41.5596 4.87053 41.6662 4.87053 41.7729C4.89339 41.8186 4.92387 41.872 4.95435 41.9253C5.01531 42.0472 5.08389 42.1692 5.15247 42.2911C5.22867 41.7653 5.33535 41.3233 5.47251 40.95C5.60205 40.6071 5.75445 40.3251 5.92971 40.1118C6.12021 41.0414 6.38691 41.9482 6.72219 42.8245C6.79077 43.3884 6.82125 43.9675 6.79839 44.5771C6.78315 44.9962 6.73743 45.3619 6.66123 45.6515C6.57741 45.9411 6.46311 46.162 6.30309 46.2916C6.35643 46.4897 6.37167 46.6878 6.35643 46.8859C6.60789 46.9698 6.84411 47.0688 7.06509 47.1831C7.37751 47.3508 7.65945 47.5489 7.91853 47.7775C7.94901 47.5108 7.94901 47.2212 7.90329 46.9545C7.83471 46.9469 7.76613 46.9164 7.71279 46.8631C7.59087 46.7412 7.57563 46.543 7.67469 46.3983C7.78137 46.2535 7.97187 46.2459 8.10141 46.3678C8.22333 46.4897 8.23857 46.6954 8.13951 46.8326C8.11665 46.8707 8.08617 46.8936 8.04807 46.9164C8.10903 47.2365 8.10141 47.5794 8.04807 47.8994C8.42908 48.2728 8.73388 48.6995 9.01582 49.1491C9.07678 49.2405 9.13012 49.332 9.17584 49.4158C9.06916 48.669 9.03106 47.8613 9.05392 47.0231C9.72448 47.9147 10.4865 48.7376 11.3171 49.4768ZM4.43619 25.2299V34.4348C4.12377 34.7396 3.74277 35.0825 3.41511 35.3035C3.63609 35.9055 3.78087 36.637 3.86469 37.4752C3.92565 37.239 3.98661 37.0104 4.05519 36.7818C4.17711 36.416 4.30665 36.0579 4.43619 35.6998V40.7137C4.39047 40.7366 4.32951 40.7518 4.23045 40.7595C4.23045 40.8661 4.19235 40.95 4.13901 41.0109C4.24569 41.1328 4.34475 41.27 4.43619 41.4148V46.3525C4.10091 46.1011 3.78087 45.8268 3.46845 45.5448C2.95028 45.0724 2.47022 44.5542 2.0054 43.998C1.76156 43.7008 1.46438 43.4874 1.15196 43.2588C1.03766 43.1674 0.930981 43.0912 0.831921 42.9845C1.45676 42.9083 2.52356 43.1979 3.09506 43.396C3.12554 43.4036 3.1484 43.4112 3.17888 43.4188C3.15602 43.2893 3.1484 43.1521 3.13316 43.015C2.9579 42.954 2.79026 42.8702 2.62262 42.7711C2.47022 42.6797 2.3102 42.573 2.1578 42.4587C1.99016 42.474 1.8149 42.4282 1.67012 42.3292C1.53296 42.2301 1.4339 42.0777 1.41866 41.9025C1.41866 41.8491 1.41866 41.8034 1.4339 41.7577C1.46438 41.6815 1.51772 41.6053 1.5863 41.5596C1.65488 41.5062 1.73108 41.4757 1.82252 41.4681C1.87586 41.4681 1.9292 41.4757 1.99016 41.491C2.13494 41.5367 2.24162 41.6662 2.28734 41.8415C2.32544 41.9863 2.32544 42.1615 2.26448 42.352C2.40926 42.4587 2.55404 42.5578 2.69882 42.6416C2.83598 42.7254 2.97314 42.794 3.11792 42.855C3.08744 42.5502 3.04934 42.2454 2.98076 41.9787C2.88932 41.6129 2.78264 41.27 2.64548 40.9423C2.49308 40.5537 2.30258 40.2032 2.08922 39.8451C2.234 39.8832 2.3864 39.9136 2.53118 39.9594C2.3102 39.5403 1.99778 39.2355 1.68536 38.923C1.4339 38.6792 1.19006 38.4354 0.976701 38.1382C0.68714 37.7115 0.42806 37.3076 0.252799 36.9037C0.0546791 36.4618 -0.0291411 36.0503 0.00895899 35.5702C0.69476 35.8369 1.29674 36.2027 1.853 36.6751C1.99016 36.7971 2.12732 36.9266 2.25686 37.0561C2.06636 36.6904 1.853 36.3246 1.6244 35.9817C1.3958 35.6388 1.14434 35.3188 0.877641 35.0521C0.831921 35.0673 0.7862 35.0749 0.74048 35.0749C0.6338 35.0749 0.53474 35.0368 0.46616 34.9682C0.39758 34.8997 0.35186 34.8082 0.35186 34.7092C0.35186 34.6101 0.38996 34.5187 0.45854 34.4501C0.53474 34.3815 0.62618 34.3434 0.73286 34.3434C0.839541 34.3434 0.930981 34.3815 0.999561 34.4501C1.07576 34.511 1.12148 34.6101 1.12148 34.7092C1.12148 34.8082 1.07576 34.8997 1.00718 34.9682C1.27388 35.2426 1.51772 35.555 1.74632 35.8979C1.853 36.0579 1.95968 36.2256 2.05874 36.3932C1.97492 36.096 1.91396 35.7988 1.86824 35.5016C1.78442 34.8539 1.80728 34.2062 1.90634 33.5585C1.41104 32.9108 1.091 32.2708 0.900501 31.6307C0.68714 30.9601 0.6338 30.2819 0.64904 29.5885C1.07576 29.8552 1.472 30.1295 1.80728 30.5029C1.99016 30.7087 2.1578 30.9296 2.28734 31.1659C2.2721 30.9677 2.26448 30.7696 2.26448 30.5791L2.25686 30.5715C2.14256 30.3581 2.02826 30.1524 1.89872 29.9771C1.78442 29.8095 1.6625 29.6495 1.53296 29.5047C1.52534 29.5123 1.51772 29.5199 1.50248 29.5199C1.38818 29.558 1.27388 29.5504 1.1672 29.4971C1.06814 29.4437 0.984321 29.3523 0.938601 29.238C0.892881 29.1237 0.900501 29.0018 0.946221 28.8951C0.991941 28.7884 1.07576 28.7046 1.19006 28.6665C1.30436 28.6284 1.42628 28.6436 1.52534 28.697C1.6244 28.7427 1.71584 28.8341 1.75394 28.9484C1.79966 29.0704 1.79204 29.1923 1.74632 29.2913C1.73108 29.3447 1.7006 29.3828 1.6625 29.4209C1.78442 29.5657 1.90634 29.7257 2.02826 29.8933C2.10446 30.0076 2.18828 30.1372 2.26448 30.2667C2.2721 29.6723 2.32544 29.078 2.40164 28.4836C2.77502 28.857 3.06458 29.238 3.30081 29.7028C3.22461 29.2456 3.23985 28.8494 3.33891 28.4989C3.46083 28.0493 3.70467 27.7064 4.03233 27.3863C3.92565 27.0282 3.94089 26.7082 4.00947 26.2891C4.05519 25.9842 4.20759 25.6185 4.43619 25.2299ZM4.43619 48.1509V48.6614C4.37523 48.6309 4.32189 48.5776 4.29141 48.5166C4.20759 48.3642 4.27617 48.2042 4.43619 48.1509Z" fill="black"/>
</svg>
