<svg width="2.2136573791503906" height="5.823864459991455" viewBox="0 0 2.2136573791503906 5.823864459991455" fill="none" xmlns="http://www.w3.org/2000/svg">
<path d="M1.77663 2.04274C1.73091 2.47708 1.62423 2.89618 1.45659 3.27718C1.27371 3.68867 1.06035 4.09253 0.816507 4.45829C0.587907 4.80881 0.328828 5.12885 0.0697479 5.37269C0.024028 5.42603 -0.00645307 5.46413 0.00116692 5.50985C0.00878691 5.56319 0.0468877 5.63177 0.123088 5.73083C0.145948 5.75369 0.168809 5.77655 0.191669 5.79179C0.275489 5.84513 0.374547 5.82989 0.488847 5.76131C0.618386 5.67749 0.755547 5.53271 0.892707 5.35745C1.18227 4.98407 1.47183 4.45829 1.68519 3.99347C1.95951 3.41435 2.10429 2.91142 2.17287 2.39326C2.24145 1.7989 2.21097 1.20454 2.17287 0.610179C2.15001 0.358719 2.13477 0.0386784 1.87569 0.000578351C1.80711 -0.00704166 1.77663 0.0615383 1.76139 0.152979C1.74615 0.274899 1.76138 0.434919 1.77663 0.541599C1.82996 1.0369 1.83758 1.54744 1.77663 2.04274Z" fill="#FFF704"/>
</svg>
