<svg width="10.084259033203125" height="8.310379028320312" viewBox="0 0 10.084259033203125 8.310379028320312" fill="none" xmlns="http://www.w3.org/2000/svg">
<path d="M6.30168 8.00102C6.3474 7.6886 6.46932 7.36856 6.64458 7.079C6.94938 6.59131 7.41421 6.17221 7.98571 5.91313C8.22955 5.80645 8.46577 5.72263 8.69437 5.63119C9.11347 5.47117 9.51733 5.31116 9.95167 5.0597C9.98215 5.04446 10.0126 5.02921 10.0431 5.01397C10.0888 4.91491 10.0965 4.82347 10.066 4.73203C9.90595 4.73965 9.77641 4.75489 9.66973 4.77013C9.41827 4.80061 9.31921 4.79299 9.29635 4.51867C9.28873 4.45771 9.28873 4.38151 9.28111 4.28245C9.17443 4.32817 9.07537 4.36627 8.99917 4.40437C8.90011 4.45771 8.81629 4.51105 8.74771 4.56439C8.73247 4.57963 8.69437 4.57963 8.67151 4.57201C8.44291 4.47295 8.19145 4.38151 7.93999 4.33579C7.69615 4.28245 7.44469 4.26721 7.20084 4.29769C7.13988 4.31293 7.09417 4.23673 7.13227 4.18339C7.18561 4.09957 7.24657 4.01575 7.31515 3.93193C7.33801 3.90145 7.36087 3.87097 7.39135 3.84049C7.34563 3.84811 7.2999 3.85573 7.25418 3.87097C7.13988 3.89383 7.04082 3.92431 6.93414 3.96241C6.87318 3.97765 6.81984 3.90907 6.85032 3.85573L7.01034 3.56617C6.87318 3.57379 6.73602 3.59665 6.60648 3.62713C6.43884 3.65761 6.26358 3.71095 6.09594 3.77953C6.0426 3.80239 5.97402 3.73381 6.0045 3.68047L6.195 3.23851C6.18738 3.23089 6.17976 3.23089 6.17976 3.23089C5.97402 3.26899 5.76828 3.31471 5.56254 3.36043C5.5092 3.36805 5.46348 3.31471 5.47872 3.26137L5.57016 2.96419C5.5473 2.94895 5.52444 2.94133 5.50158 2.92609C5.30346 3.05563 5.12058 3.13945 4.95294 3.18517C4.80054 3.21565 4.65576 3.21565 4.54146 3.16231C4.41954 3.10897 4.3281 3.00229 4.27476 2.84227C4.22904 2.70511 4.2138 2.51461 4.23666 2.27077C4.22904 2.27077 4.22142 2.26315 4.2138 2.26315L3.9852 2.45365C3.93948 2.49175 3.86328 2.45365 3.86328 2.40031L3.84042 2.04216C3.82518 2.02692 3.80994 2.0193 3.7947 2.01168C3.74898 2.04979 3.69564 2.0955 3.6423 2.14123C3.62706 2.15647 3.61182 2.16408 3.6042 2.1717C3.5661 2.2098 3.4899 2.17932 3.48228 2.12598C3.47466 2.02692 3.47466 1.93549 3.48228 1.85167C3.40608 1.90501 3.32988 1.95073 3.23844 1.98121C3.19272 1.99645 3.13938 1.96596 3.13938 1.92024C3.13176 1.80594 3.12414 1.69164 3.13176 1.58496C3.1089 1.5621 3.07842 1.54686 3.05556 1.53162C2.96412 1.57734 2.87268 1.60782 2.78124 1.60782C2.67456 1.61544 2.56788 1.59258 2.47644 1.53924C2.385 1.4859 2.3088 1.41732 2.25546 1.31826C2.18688 1.19634 2.14878 1.05156 2.17164 0.876302C1.8135 0.594361 1.47059 0.304801 1.13531 0C1.12007 0.0838202 1.09721 0.160019 1.06673 0.243839C0.960053 0.59436 0.807653 0.883922 0.609533 1.18872C0.441893 1.43256 0.304733 1.66878 0.198053 1.9431C0.106612 2.16408 -0.0610284 2.55271 0.0227917 2.78893C0.0913718 2.99467 0.342833 3.00229 0.502853 2.91085C0.571433 2.72797 0.647633 2.55271 0.716213 2.37745C0.807653 2.1717 0.891473 1.9812 0.975293 1.80594C1.02101 1.70688 1.15055 1.77546 1.10483 1.8669C1.02101 2.04978 0.937193 2.24028 0.853373 2.43079C0.777173 2.62891 0.693353 2.82703 0.617153 3.01753C0.579053 3.12421 0.594293 3.34519 0.647633 3.44425C0.693353 3.55093 0.784793 3.59665 0.899093 3.57379C1.02863 3.54331 1.13531 3.46711 1.18103 3.35281C1.24199 3.19279 1.30295 3.04039 1.37153 2.89561C1.43249 2.73559 1.50107 2.57557 1.57727 2.40792C1.61538 2.30886 1.75254 2.36983 1.71444 2.46889C1.64585 2.62129 1.57727 2.78131 1.50869 2.94895C1.44011 3.11659 1.37153 3.28423 1.30295 3.45187C1.24199 3.58903 1.21913 3.76429 1.24961 3.91669C1.27247 4.03861 1.34105 4.14529 1.44773 4.22149C1.56965 4.29769 1.74492 4.15291 1.78302 4.04623C1.82112 3.93955 1.8516 3.83287 1.8897 3.72619L1.9659 3.49759C2.004 3.39853 2.14878 3.44425 2.11068 3.54331L2.02686 3.77953C1.99638 3.87859 1.95828 3.98527 1.92018 4.09195C1.86684 4.25197 1.8516 4.41961 1.87446 4.57963C1.90494 4.72441 1.9659 4.86919 2.07258 4.98349C2.14878 5.07493 2.21736 5.15875 2.33166 5.10541C2.40786 5.07493 2.47644 5.00635 2.4993 4.93777C2.59074 4.68631 2.68218 4.41961 2.766 4.16053C2.81934 4.00813 2.86506 3.86335 2.90316 3.77191C2.93364 3.67285 3.07842 3.71857 3.04032 3.81763C2.98698 3.97765 2.94888 4.09195 2.91078 4.20625C2.81934 4.46533 2.73552 4.71679 2.64408 4.98349C2.58312 5.15113 2.58312 5.30353 2.62122 5.4026C2.66694 5.5169 2.75838 5.57023 2.87268 5.56261C3.02508 5.54737 3.17748 5.42546 3.19272 5.27305C3.20796 5.12827 3.23082 4.95301 3.26892 4.76251C3.31464 4.53391 3.3756 4.27483 3.44418 3.99289C3.47466 3.89383 3.61944 3.93193 3.58896 4.03099C3.52038 4.30531 3.45942 4.56439 3.4137 4.79299C3.3756 5.00635 3.34512 5.19685 3.3375 5.35687C3.32988 5.47117 3.34512 5.54737 3.38322 5.58547C3.42132 5.63881 3.48228 5.64644 3.54324 5.62358C3.66516 5.58548 3.73374 5.46355 3.7947 5.34925C3.88614 5.17399 3.96234 4.97587 4.0233 4.76251C4.09188 4.50343 4.15284 4.22911 4.19856 3.91669C4.2138 3.81763 4.35858 3.84049 4.34334 3.93955C4.29762 4.25959 4.23666 4.54153 4.16808 4.80061C4.0995 5.02921 4.0233 5.23495 3.92424 5.41783C3.80994 5.63881 3.85566 6.10364 4.19094 5.83694C4.41192 5.6693 4.65576 5.23495 4.80054 4.97587C4.83864 4.89967 4.87674 4.83871 4.8996 4.80823C4.95294 4.71679 5.08248 4.79299 5.02152 4.88443C4.99866 4.92253 4.96818 4.97587 4.93008 5.05207C4.80054 5.27305 4.61004 5.62357 4.38906 5.84455C4.2519 5.99695 4.03854 6.25603 4.08426 6.46939C4.10712 6.57607 4.19094 6.63704 4.29762 6.63704C4.49574 6.64466 4.64052 6.45415 4.73958 6.30175C4.87674 6.07315 5.02914 5.86742 5.18154 5.66168C5.34918 5.44069 5.51682 5.22733 5.68446 5.02159C5.75304 4.94539 5.86734 5.03683 5.79876 5.12065C5.6235 5.32639 5.45586 5.53976 5.30346 5.75312C5.15106 5.94362 5.00628 6.14935 4.86912 6.37034C4.77768 6.5075 4.62528 6.62942 4.57956 6.78182C4.53384 6.91898 4.54146 7.02566 4.57956 7.10186C4.61004 7.17044 4.67862 7.20854 4.75482 7.20092C4.88436 7.18568 5.00628 7.06376 5.07486 6.9647C5.28822 6.6599 5.5092 6.37033 5.74542 6.08077C5.97402 5.79883 6.22548 5.52451 6.47694 5.25781C6.55314 5.18161 6.65982 5.2883 6.58362 5.3645C6.33216 5.62358 6.08832 5.8979 5.85972 6.17984C5.6235 6.45416 5.41014 6.75134 5.19678 7.04852C5.13582 7.14758 5.05962 7.21616 4.99104 7.26188C4.8996 7.47524 4.93008 7.71908 5.02152 7.87148C5.05962 7.9172 5.09772 7.9553 5.13582 7.98578C5.3568 8.10008 5.53206 7.70384 5.5854 7.56668C5.72256 7.2314 5.90544 6.94184 6.1188 6.69038C6.33978 6.44653 6.59124 6.23317 6.86556 6.04267C6.89604 6.01981 6.92652 5.99695 6.97224 6.05791C7.01034 6.11887 6.97987 6.14174 6.94939 6.1646C6.6903 6.34748 6.43884 6.55322 6.2331 6.78944C6.02736 7.03328 5.8521 7.29998 5.73018 7.62002C5.65398 7.81814 5.45586 8.00864 5.6616 8.20676C5.6997 8.24486 5.75304 8.27534 5.80638 8.29058C5.85972 8.31344 5.92068 8.31344 5.98164 8.30582C6.10356 8.29058 6.22548 8.19914 6.30168 8.00102Z" fill="#FFF704"/>
</svg>
