<svg width="3.2825775146484375" height="3.0124473571777344" viewBox="0 0 3.2825775146484375 3.0124473571777344" fill="none" xmlns="http://www.w3.org/2000/svg">
<path d="M0.1078 0.426484C0.1459 0.700805 0.1078 0.830345 0.0696999 0.975125C-0.12842 1.60759 0.161139 2.20195 0.138279 2.84203C0.38212 2.98681 0.35926 2.74297 0.43546 2.54485C0.58024 1.91239 1.1746 3.52021 1.85278 2.84203C2.07376 2.55247 2.49286 2.24005 2.9272 2.27815C3.4987 2.62867 3.24724 1.00561 3.08722 0.921785C3.02626 0.891305 2.89672 0.967506 2.89672 0.944646C2.88148 0.807485 2.82814 0.716045 2.75194 0.716045C2.61478 0.685565 2.56144 0.784625 2.53096 0.929405C2.51572 1.02847 2.40904 0.959885 2.41666 0.746525C2.34046 0.815105 2.28712 0.959886 2.25664 0.982746C2.19568 1.02847 2.27188 0.982745 2.21092 0.799865C2.15758 0.624604 2.089 0.525545 2.02042 0.822725C1.9747 1.01323 1.7461 1.32565 1.39558 1.11991C1.23556 1.02085 1.20508 0.540785 0.953621 0.487445C0.824081 0.464585 0.923141 0.624605 0.816461 0.609365C0.785981 0.601745 0.76312 0.517924 0.70216 0.472204C0.59548 0.396004 0.747881 0.510304 0.44308 0.114063C0.17638 -0.213597 0.07732 0.251224 0.1078 0.426484Z" fill="#ED1B24"/>
</svg>
