<svg width="2.0305824279785156" height="2.5067291259765625" viewBox="0 0 2.0305824279785156 2.5067291259765625" fill="none" xmlns="http://www.w3.org/2000/svg">
<path d="M0.323397 0.799238C0.452937 0.921159 0.582476 1.04308 0.719637 1.15738C0.955857 1.36312 1.1616 1.5841 1.32162 1.8508C1.40544 2.0032 1.47402 2.16322 1.51974 2.3461C1.53498 2.4223 1.55022 2.49088 1.66452 2.50612C1.90074 2.52136 2.0379 2.24704 2.03028 2.0413C2.02266 1.83556 1.91598 1.60696 1.8093 1.45456C1.52736 1.03546 1.1997 0.692559 0.879657 0.357278C0.811076 0.281078 0.734879 0.212495 0.704399 0.174395C0.635818 0.0981945 0.529138 0.029616 0.422458 0.00675595C0.346257 -0.00848409 0.270056 -0.000864301 0.201476 0.0600958C0.125276 0.128676 0.0109742 0.197256 0.00335419 0.319176C-0.0271259 0.563017 0.155756 0.646838 0.323397 0.799238Z" fill="#FFF704"/>
</svg>
