<svg width="0.396240234375" height="0.5257835388183594" viewBox="0 0 0.396240234375 0.5257835388183594" fill="none" xmlns="http://www.w3.org/2000/svg">
<path d="M0.205739 0C0.152399 0.00762002 0.106681 0.0381025 0.0685808 0.0838227C0.030481 0.129543 0.00761997 0.198122 0 0.274322C0 0.342902 0.0152397 0.411481 0.0533395 0.464821C0.0761994 0.502921 0.114299 0.525784 0.160019 0.525784C0.220978 0.525784 0.274318 0.510544 0.312418 0.472444C0.350518 0.434343 0.381 0.373381 0.39624 0.281941C0.39624 0.251461 0.396238 0.213364 0.388618 0.182883C0.380998 0.129543 0.358138 0.0838233 0.335278 0.0533432C0.304799 0.0228631 0.274318 0 0.236218 0C0.228598 0 0.213359 0 0.205739 0Z" fill="#178358"/>
</svg>
