<svg width="2.4326915740966797" height="2.105168342590332" viewBox="0 0 2.4326915740966797 2.105168342590332" fill="none" xmlns="http://www.w3.org/2000/svg">
<path d="M0.313191 1.37267C0.153171 1.38791 0.0464901 1.46411 0.00838999 1.60889C-0.0754302 1.94417 0.488452 1.85273 0.823733 1.80701C1.36475 1.73843 1.31903 2.19563 1.63145 2.08895C1.81433 2.02799 1.71527 1.30409 1.95149 1.07549C2.07341 0.961191 2.36298 0.83927 2.4087 0.71735C2.50014 0.473509 2.32488 0.260149 1.97435 0.168708C1.82957 0.138228 1.80671 -0.014172 1.59335 0.00106803C1.31141 0.0163081 1.21997 0.244909 1.08281 0.458269C0.976134 0.61829 0.861833 0.77831 0.671333 0.85451C0.435112 0.94595 0.412252 1.19741 0.313191 1.37267Z" fill="#ED1B24"/>
</svg>
