<svg width="4.580776214599609" height="5.148834228515625" viewBox="0 0 4.580776214599609 5.148834228515625" fill="none" xmlns="http://www.w3.org/2000/svg">
<path d="M0 0.00191228C0.2286 0.253373 0.37338 0.527697 0.632461 0.771537C0.739141 0.878217 0.838202 0.962033 0.937262 1.03823C1.11252 1.16015 1.31064 1.21349 1.50876 1.28207C2.14884 1.48782 2.8575 1.71641 3.2004 1.99073C3.52044 2.24219 3.69571 2.56986 3.73381 2.89752C3.76429 3.20232 3.68047 3.50712 3.48997 3.75096C3.29947 3.9948 2.99467 4.17006 2.60604 4.21578C2.2479 4.25388 2.02692 4.1091 1.87452 3.79668C1.96596 3.75858 2.06502 3.72048 2.14122 3.64428C2.24028 3.5376 2.27076 3.3852 2.2098 3.24804C2.06502 2.90514 1.61544 2.8899 1.3716 3.14136C1.05918 3.46902 1.07442 4.08624 1.30302 4.452C1.50114 4.77966 1.85928 4.99302 2.22504 5.09208C2.67462 5.20638 3.19279 5.15304 3.61951 4.88634C4.02337 4.6425 4.28245 4.3377 4.43485 4.00242C4.70917 3.39282 4.57201 2.6994 4.2291 2.13552C3.94716 1.6707 3.49759 1.27446 2.95656 1.03062C2.72034 0.923937 2.48412 0.840117 2.26314 0.748677C1.83642 0.588656 1.42494 0.428638 0.982982 0.169557C0.693422 0.00191709 0.3429 -0.00570773 0 0.00191228Z" fill="#FFF704"/>
</svg>
