<svg width="1.2118949890136719" height="5.234951019287109" viewBox="0 0 1.2118949890136719 5.234951019287109" fill="none" xmlns="http://www.w3.org/2000/svg">
<path d="M0.678493 0C0.731833 0.22098 0.914714 0.396241 1.14332 0.434341C0.861374 0.487681 0.648012 0.731522 0.648012 1.02108C0.648012 1.3335 0.891854 1.58496 1.19666 1.61544C0.868994 1.6383 0.609912 1.91262 0.609912 2.2479C0.609912 2.58318 0.876613 2.86513 1.21189 2.88037C0.891853 2.89561 0.632772 3.16993 0.632772 3.49759C0.632772 3.79477 0.846133 4.04623 1.13569 4.09957C0.891853 4.15291 0.708973 4.37389 0.708973 4.63297C0.708973 4.66345 0.708973 4.69393 0.716593 4.72441C0.594673 4.83109 0.503232 4.98349 0.465131 5.17399C0.373691 5.18161 0.28225 5.20447 0.19843 5.23495C0.36607 5.00635 0.29749 4.83871 0.213669 4.61011C0.183189 4.52629 0.145089 4.44247 0.122229 4.33579C0.0612689 4.08433 0.0231685 3.74905 0.00792841 3.37567C-0.00731166 2.94895 0.000309689 2.46889 0.0231698 1.99644C0.0384099 1.76784 0.0688902 1.27254 0.137471 0.777242C0.190811 0.457201 0.358452 0.12954 0.678493 0Z" fill="#FFF704"/>
</svg>
