<svg width="1.7681798934936523" height="5.859794616699219" viewBox="0 0 1.7681798934936523 5.859794616699219" fill="none" xmlns="http://www.w3.org/2000/svg">
<path d="M0.327997 5.57785C0.381337 5.10541 0.449917 4.63297 0.526117 4.17577C0.617557 3.62713 0.724238 3.09373 0.846158 2.56795C0.823298 2.43841 0.808058 2.30124 0.800438 2.16408C0.800438 2.02692 0.808058 1.88215 0.823298 1.72975C0.838538 1.62307 0.983318 1.6383 0.975698 1.74498C0.952838 1.88977 0.945218 2.02692 0.952838 2.16408C0.952838 2.23266 0.960458 2.30124 0.968078 2.36983C1.00618 2.33173 1.04428 2.27839 1.07476 2.22505C1.1281 2.13361 1.17382 2.02693 1.21192 1.89739C1.22716 1.86691 1.23478 1.8288 1.31098 1.85166C1.37956 1.87452 1.37194 1.91263 1.3567 1.94311C1.3186 2.08027 1.26526 2.20219 1.2043 2.30125C1.14334 2.40031 1.07476 2.48413 0.998558 2.55271C0.876638 3.09373 0.762338 3.64999 0.670898 4.19863C0.579457 4.73965 0.510877 5.28829 0.457537 5.85979C0.587077 5.83693 0.587077 5.67692 0.625178 5.57023C0.739478 5.25019 0.876638 4.90729 1.0138 4.56439C1.32622 3.77953 1.65388 2.95657 1.76056 2.33173C1.76056 2.20981 1.76056 2.09551 1.76056 1.97359C1.76056 1.79071 1.76056 1.60783 1.76818 1.42495C1.7377 1.19634 1.67674 0.982983 1.60054 0.792482C1.47862 0.472442 1.30336 0.21336 1.09762 0C0.990938 0.327661 0.876638 0.647704 0.762338 0.960124C0.625178 1.34113 0.488017 1.72212 0.366097 2.08788C0.114636 2.88799 -0.00728384 3.70333 0.000336178 4.54915C0.00795619 4.91491 0.228937 5.23495 0.327997 5.57785Z" fill="#178358"/>
</svg>
