<svg width="36.89095687866211" height="14.05130386352539" viewBox="0 0 36.89095687866211 14.05130386352539" fill="none" xmlns="http://www.w3.org/2000/svg">
<path d="M1.89481 14.0513C1.46809 12.5578 0.850866 11.2243 0.248885 9.90602C0.0812442 9.54788 -0.0940161 9.19736 0.0583842 8.7935C0.134584 8.59538 0.302225 8.61062 0.469865 8.67158C0.706086 9.02972 0.934686 9.41834 1.14805 9.82982C1.36903 10.2565 1.57477 10.7061 1.75003 11.1709C1.78813 11.27 1.92529 11.2167 1.88719 11.1176C1.71193 10.6452 1.49857 10.188 1.27759 9.76124C1.05661 9.33452 0.820386 8.93828 0.576545 8.57252C0.431765 8.34391 0.370805 8.10007 0.447005 7.83337C0.485105 7.69621 0.576545 7.56667 0.728945 7.54381C0.759425 7.60477 0.797526 7.66573 0.835626 7.71907C1.07947 8.0315 1.30045 8.35154 1.52143 8.67158C1.73479 8.99924 1.94053 9.3269 2.13103 9.6698C2.18437 9.76124 2.32153 9.69266 2.26057 9.5936C2.07007 9.2507 1.86433 8.91542 1.64335 8.58776C1.42237 8.26009 1.19377 7.94005 0.957546 7.62763C0.866105 7.50571 0.797525 7.36855 0.789905 7.22377C0.774665 6.92659 1.11757 6.52273 1.34617 6.84277C1.62811 7.23901 1.91005 7.65811 2.18437 8.07722C2.48155 8.53442 2.77111 8.99924 3.05305 9.4793C3.10639 9.57074 3.23593 9.49454 3.18259 9.4031C2.89303 8.92304 2.60347 8.4506 2.30629 8.00101C2.01673 7.55143 1.72717 7.11709 1.42999 6.70561C1.37665 6.62941 1.33855 6.55321 1.34617 6.44653C1.34617 6.38557 1.36141 6.33223 1.39189 6.28651C1.48333 6.15697 1.67383 6.12649 1.77289 6.24841C2.09293 6.62941 2.36725 7.01041 2.63395 7.39141C2.90827 7.78765 3.16735 8.19914 3.44167 8.61824C3.49501 8.70968 3.62455 8.62586 3.56359 8.54204C3.28927 8.11532 3.03019 7.71145 2.75587 7.30759C2.47393 6.89611 2.17675 6.49987 1.84147 6.09601C1.75765 5.98933 1.78051 5.84455 1.82623 5.73787C1.84909 5.70739 1.87195 5.67691 1.88719 5.65405C2.03197 5.49403 2.16151 5.47879 2.29105 5.63119C2.79397 6.14935 3.35785 6.74371 3.88363 7.61239C3.93697 7.70383 4.06651 7.62763 4.00555 7.53619C3.47215 6.65227 2.90065 6.05791 2.39773 5.52451C2.29105 5.41783 2.19199 5.34925 2.21485 5.18161C2.23009 5.05969 2.29105 4.96063 2.37487 4.88443C2.54251 4.74727 2.61871 4.72441 2.77111 4.88443C3.03019 5.15113 3.28165 5.46355 3.53311 5.80645C3.78457 6.15697 4.03603 6.53035 4.29511 6.92659C4.31035 6.95707 4.33321 6.98755 4.39417 6.94945C4.45513 6.91135 4.43989 6.88087 4.41703 6.84277C4.16557 6.44653 3.90649 6.06553 3.65503 5.72263C3.39595 5.37211 3.13687 5.05207 2.87779 4.78537C2.74825 4.64821 2.67205 4.54153 2.77873 4.35865C2.97685 4.04623 3.14449 4.24435 3.31975 4.44247C3.57883 4.73203 3.83029 5.02921 4.07413 5.34925C4.31797 5.67691 4.55419 6.01981 4.78279 6.38557C4.80565 6.41605 4.82089 6.44653 4.88947 6.40843C4.95043 6.37033 4.92757 6.33985 4.91233 6.30937C4.67611 5.93599 4.43989 5.58547 4.19605 5.26543C3.94459 4.93777 3.69313 4.63297 3.43405 4.34341C3.31213 4.20625 3.25117 4.10719 3.24355 4.02337C3.22831 3.95479 3.26641 3.88621 3.32737 3.81763C3.47215 3.65761 3.79981 3.32233 3.96745 3.69571C4.12747 4.04623 4.35607 4.32055 4.62277 4.52629C4.91995 4.75489 5.26285 4.90729 5.62099 4.98349C6.47444 5.16637 7.34312 4.80061 8.0213 4.31293C8.71472 3.81001 9.40052 3.10135 9.82724 2.29362C10.1854 1.59258 10.3759 0.777241 10.1778 0C11.4655 0.533401 12.6619 0.800102 13.8125 0.830582C14.6736 0.853442 15.6794 0.739142 16.5557 0.457202C17.7216 0.0838209 19.1694 0.0838209 20.3352 0.457202C21.2115 0.739142 22.225 0.853442 23.0784 0.830582C24.2291 0.800102 25.4254 0.533401 26.7132 0C26.5151 0.777241 26.7056 1.59258 27.0713 2.29362C27.4904 3.10135 28.1762 3.81001 28.8697 4.31293C29.5478 4.80061 30.4165 5.16637 31.27 4.98349C31.6281 4.90729 31.971 4.75489 32.2682 4.52629C32.5349 4.32055 32.7635 4.04623 32.9235 3.69571C33.0911 3.32233 33.4188 3.65761 33.5636 3.81763C33.6245 3.88621 33.6626 3.95479 33.6474 4.02337C33.6398 4.10719 33.5788 4.20625 33.4569 4.34341C33.1978 4.63297 32.9464 4.93777 32.6949 5.26543C32.4511 5.58547 32.2148 5.93599 31.9786 6.30937C31.9634 6.33985 31.9405 6.37033 32.0015 6.40843C32.0701 6.44653 32.0853 6.41605 32.1082 6.38557C32.3368 6.01981 32.573 5.67691 32.8168 5.34925C33.0607 5.02921 33.3121 4.73203 33.5712 4.44247C33.7465 4.24435 33.9141 4.04623 34.1122 4.35865C34.2189 4.54153 34.1427 4.64821 34.0132 4.78537C33.7541 5.05207 33.495 5.37211 33.2359 5.72263C32.9845 6.06553 32.733 6.44653 32.4739 6.84277C32.4511 6.88087 32.4358 6.91135 32.4968 6.94945C32.5577 6.98755 32.5806 6.95707 32.5958 6.92659C32.8549 6.53035 33.1064 6.15697 33.3578 5.80645C33.6093 5.46355 33.8608 5.15113 34.1198 4.88443C34.2722 4.72441 34.3484 4.74727 34.5161 4.88443C34.5999 4.96063 34.6609 5.05969 34.6761 5.18161C34.699 5.34925 34.5999 5.41783 34.4932 5.52451C33.9903 6.05791 33.4188 6.65227 32.8854 7.53619C32.8244 7.62763 32.954 7.70383 33.0073 7.61239C33.5331 6.74371 34.097 6.14935 34.5999 5.63119C34.7295 5.47879 34.859 5.49403 35.0038 5.65405C35.019 5.67691 35.0419 5.70739 35.0647 5.73787C35.1105 5.84455 35.1333 5.98933 35.0495 6.09601C34.7142 6.49987 34.417 6.89611 34.1351 7.30759C33.8608 7.71145 33.6017 8.11532 33.3274 8.54204C33.2664 8.62586 33.3959 8.70968 33.4493 8.61824C33.7236 8.19914 33.9827 7.78765 34.257 7.39141C34.5237 7.01041 34.798 6.62941 35.1181 6.24841C35.2171 6.12649 35.4076 6.15697 35.4991 6.28651C35.5296 6.33223 35.5448 6.38557 35.5448 6.44653C35.5524 6.55321 35.5143 6.62941 35.461 6.70561C35.1638 7.11709 34.8742 7.55143 34.5847 8.00101C34.2875 8.4506 33.9979 8.92304 33.7084 9.4031C33.655 9.49454 33.7846 9.57074 33.8379 9.4793C34.1198 8.99924 34.4094 8.53442 34.7066 8.07722C34.9809 7.65811 35.2628 7.23901 35.5448 6.84277C35.7734 6.52273 36.1163 6.92659 36.1011 7.22377C36.0934 7.36855 36.0325 7.50571 35.9334 7.62763C35.6972 7.94005 35.4686 8.26009 35.2476 8.58776C35.0342 8.91542 34.8209 9.2507 34.6304 9.5936C34.5694 9.69266 34.7066 9.76124 34.7599 9.6698C34.9504 9.3269 35.1562 8.99924 35.3695 8.67158C35.5905 8.35154 35.8115 8.0315 36.0553 7.71907C36.0934 7.66573 36.1315 7.60477 36.162 7.54381C36.3144 7.56667 36.4058 7.69621 36.444 7.83337C36.5202 8.10007 36.4592 8.34391 36.3144 8.57252C36.0706 8.93828 35.8344 9.33452 35.6134 9.76124C35.3924 10.188 35.179 10.6452 35.0038 11.1176C34.9657 11.2167 35.1028 11.27 35.1409 11.1709C35.3162 10.7061 35.5219 10.2565 35.7429 9.82982C35.9563 9.41834 36.1849 9.02972 36.4211 8.67158C36.5887 8.61062 36.7564 8.59538 36.8326 8.7935C36.985 9.19736 36.8097 9.54788 36.6421 9.90602C36.0401 11.2243 35.4229 12.5578 34.9962 14.0513C33.0378 6.75133 26.3474 1.34874 18.4455 1.34874C10.5435 1.34874 3.85315 6.75133 1.89481 14.0513Z" fill="#FFF704"/>
</svg>
