<svg width="1.4870529174804688" height="6.578917980194092" viewBox="0 0 1.4870529174804688 6.578917980194092" fill="none" xmlns="http://www.w3.org/2000/svg">
<path d="M0.815332 3.19563C0.845812 3.66807 0.853433 4.15575 0.830573 4.59009C0.815333 4.9711 0.777233 5.314 0.716272 5.5807C0.685792 5.68738 0.655312 5.78644 0.617212 5.87026C0.533391 6.08362 0.480051 6.23602 0.716272 6.47224C0.731512 6.48748 0.754372 6.50272 0.769612 6.51796C0.822953 6.55606 0.876293 6.57892 0.937253 6.57892C0.990593 6.57892 1.05155 6.54844 1.11251 6.48748C1.13537 6.47224 1.15061 6.44938 1.16585 6.42652C1.27253 6.28936 1.35636 6.06076 1.4097 5.75596C1.46304 5.44354 1.49351 5.0473 1.48589 4.57485C1.48589 3.93477 1.45541 3.18039 1.34111 2.44887C1.22681 1.71735 1.04393 1.00869 0.731512 0.467667C0.662932 0.345746 0.579111 0.200966 0.48005 0.101906C0.38861 0.0180857 0.28193 -0.0276344 0.16763 0.0180857C-0.0838312 0.132386 -0.0304913 0.399086 0.182869 0.536247C0.43433 0.696267 0.586732 1.24491 0.678172 1.80879C0.769613 2.36505 0.800092 2.94417 0.815332 3.19563Z" fill="#FFF704"/>
</svg>
