<svg width="2.349811553955078" height="4.686305999755859" viewBox="0 0 2.349811553955078 4.686305999755859" fill="none" xmlns="http://www.w3.org/2000/svg">
<path d="M0.300025 2.37745C0.124765 2.75845 0.0180828 3.19279 0.00284274 3.61951C-0.0123973 3.98527 0.033324 4.35103 0.147624 4.68631C0.231445 4.51105 0.330505 4.33579 0.452426 4.16053L0.444807 4.15291C0.414327 3.97765 0.391464 3.84049 0.437184 3.66523C0.574345 3.11659 0.772467 2.61366 1.01631 2.12598C1.13061 1.91262 1.24491 1.69164 1.37445 1.4859C1.38969 1.38684 1.40493 1.31064 1.41255 1.23444C1.42779 1.15824 1.42779 1.08966 1.43541 0.998222C1.43541 0.891542 1.58019 0.899161 1.58019 1.00584C1.58019 1.05156 1.58019 1.1049 1.57257 1.15062C1.65639 1.01346 1.74783 0.876301 1.83165 0.746761C1.85451 0.716281 1.86975 0.6858 1.93071 0.723901C1.99929 0.762001 1.97643 0.792483 1.95357 0.830583C1.67163 1.26492 1.38969 1.72974 1.15347 2.19457C1.11537 2.26315 1.08489 2.33173 1.05441 2.40031C1.05441 2.40031 1.05441 2.4003 1.06203 2.39268C1.14585 2.33172 1.23729 2.27076 1.32873 2.22504C1.42017 2.17932 1.48875 2.30886 1.39731 2.3622C1.30587 2.4003 1.22967 2.45364 1.14585 2.5146C1.06965 2.57556 0.993447 2.64414 0.917247 2.72034C0.909627 2.72034 0.909628 2.72796 0.909628 2.72796C0.772467 3.04038 0.665786 3.36042 0.581966 3.70333C0.551486 3.80239 0.551484 3.89382 0.566725 3.99288C0.757225 3.74142 0.978207 3.49759 1.22205 3.25375C1.22205 3.25375 1.22967 3.24612 1.22967 3.2385C1.47351 2.87274 1.67163 2.49174 1.82403 2.10312C1.99167 1.70688 2.10597 1.31064 2.18217 0.906784C2.23551 0.609603 2.27361 0.3048 2.34981 0C1.96119 0.25908 1.60305 0.548643 1.27539 0.906784C0.879147 1.3335 0.543866 1.84404 0.300025 2.37745Z" fill="#178358"/>
</svg>
