<svg width="4.358648300170898" height="2.1756515502929688" viewBox="0 0 4.358648300170898 2.1756515502929688" fill="none" xmlns="http://www.w3.org/2000/svg">
<path d="M0 0.0875395C0.12192 0.194219 0.23622 0.3009 0.350521 0.4152C0.502921 0.55998 0.662941 0.727617 0.830582 0.925736C1.24206 1.42104 1.905 1.98491 2.69749 2.13731C3.19279 2.22875 3.73381 2.1678 4.29769 1.83252C4.28245 1.80204 4.25959 1.77156 4.24435 1.74108C4.23673 1.74108 4.22149 1.73346 4.21387 1.73346C3.83287 1.5582 3.48997 1.4058 3.13945 1.39818C3.13183 1.39818 3.12421 1.39818 3.11659 1.39818C3.04039 1.39818 2.95657 1.4058 2.88037 1.42104C2.72034 1.45152 2.58318 1.47438 2.46126 1.48962C2.33934 1.49724 2.23266 1.49724 2.14122 1.482C2.10312 1.47438 2.06502 1.46676 2.08026 1.39056C2.0955 1.32198 2.1336 1.32198 2.16408 1.3296C2.2479 1.34484 2.33934 1.34484 2.45364 1.33722C2.5527 1.3296 2.667 1.31436 2.79655 1.28388C2.71272 1.2534 2.6289 1.22292 2.54508 1.1772C2.3622 1.09338 2.16408 0.986696 1.95072 0.849536C1.92024 0.826676 1.88976 0.803817 1.92786 0.742857C1.97358 0.681897 2.00406 0.704757 2.03454 0.719997C2.24028 0.857156 2.43078 0.963837 2.61366 1.04766C2.78893 1.13148 2.96419 1.19244 3.13183 1.24578C3.51283 1.2534 3.87097 1.41342 4.27483 1.5963C4.29007 1.60392 4.30531 1.61154 4.32055 1.61154L4.35865 1.56582C3.68809 0.956217 3.09373 0.514259 2.4384 0.2628C1.66116 -0.0496196 0.822962 -0.0496202 0 0.0875395Z" fill="#178358"/>
</svg>
