<svg width="18.120132446289062" height="2.1782360076904297" viewBox="0 0 18.120132446289062 2.1782360076904297" fill="none" xmlns="http://www.w3.org/2000/svg">
<path d="M16.3225 2.17171C13.6631 1.44018 10.9351 1.0668 8.21479 1.0668C5.87544 1.0668 3.52848 1.34112 1.21962 1.88214C1.00626 1.93548 1.10532 1.8669 0.983396 1.82118C0.914816 1.7907 0.846236 1.84404 0.663355 1.85166C0.427135 1.8669 0.472854 1.72212 0.579535 1.6002C0.670975 1.50114 0.785276 1.47066 0.777656 1.41732C0.617636 1.46304 0.549055 1.47066 0.495715 1.46304C0.411895 1.44018 0.472855 1.28778 0.305215 1.32588C0.175674 1.35636 0.000413578 1.43256 0.000413578 1.35636C-0.00720643 1.28778 0.0918534 1.15062 0.183294 1.12776C1.79874 0.655322 3.46752 0.327661 5.16678 0.152401C5.27346 0.205741 5.49444 0.373381 5.50968 0.434341C5.50968 0.381001 5.69256 0.175261 5.79162 0.0990607C6.59172 0.0304806 7.40707 0 8.21479 0C9.02251 0 9.83023 0.0304806 10.6456 0.0990607C10.7446 0.182881 10.9199 0.381001 10.9199 0.434341C10.9351 0.381001 11.1561 0.205741 11.2552 0.152401C13.3583 0.373381 15.4233 0.815342 17.3817 1.49352C16.9778 1.47828 16.5587 1.34874 16.1625 1.24206C16.1244 1.38684 16.993 1.61544 17.1988 1.6002C17.2826 1.59258 17.6331 1.64592 17.9074 1.81356C18.1284 1.95072 18.2656 2.11836 17.8617 2.17171C17.4579 2.22504 16.894 1.93548 16.7797 1.88976C16.5511 1.80594 16.1091 1.85166 16.3225 2.17171Z" fill="#FFF704"/>
</svg>
