<svg width="4.549144744873047" height="2.0966033935546875" viewBox="0 0 4.549144744873047 2.0966033935546875" fill="none" xmlns="http://www.w3.org/2000/svg">
<path d="M2.2479 1.06028C2.08788 1.24316 1.91262 1.4108 1.72974 1.57844C2.0955 1.40318 2.48412 1.19744 2.90322 0.968842C2.99466 0.915502 3.07086 1.04504 2.9718 1.09838C2.4765 1.3727 2.0193 1.60892 1.59258 1.79942C1.76022 1.81466 1.92786 1.84514 2.10312 1.92134C2.16408 1.9442 2.16408 1.9823 2.12598 2.03564C2.286 1.96706 2.4384 1.89086 2.58318 1.79942C3.3528 1.34984 4.01574 0.679282 4.54914 0.0392013C3.6957 -0.0979588 2.56032 0.130641 1.85928 0.633562C1.43256 0.938362 0.96012 1.17458 0.449579 1.34984C0.327659 1.45652 0.228601 1.59368 0.1524 1.73846C0.0990604 1.84514 0.0457201 1.95944 0 2.0966C0.381001 2.08136 0.79248 1.96706 1.24206 1.78418C1.5621 1.54034 1.8669 1.26602 2.1336 0.961223C2.2098 0.877403 2.31648 0.976463 2.2479 1.06028Z" fill="#178358"/>
</svg>
