<svg width="29.931419372558594" height="29.83998680114746" viewBox="0 0 29.931419372558594 29.83998680114746" fill="none" xmlns="http://www.w3.org/2000/svg">
<path d="M18.9281 0.472441C25.2603 2.21743 29.9314 8.0315 29.9314 14.8895C29.9314 21.7628 25.2603 27.5768 18.9281 29.3218V27.6759C24.3764 25.9766 28.3465 20.8865 28.3465 14.8895C28.3465 9.87554 25.5575 5.50165 21.458 3.20803V7.31522C23.5916 9.14402 24.9555 11.8644 24.9555 14.8895C24.9555 18.9891 22.4714 22.5171 18.9281 24.064V22.3038C21.5646 20.8788 23.3706 18.0899 23.3706 14.8895C23.3706 12.8702 22.6543 11.0185 21.458 9.56312V13.8379H19.8425V8.06198C19.553 7.85624 19.2482 7.66574 18.9281 7.49048V5.73025C19.2405 5.86741 19.5453 6.01981 19.8425 6.18745V2.44603C19.5453 2.32411 19.2405 2.21743 18.9281 2.11837V0.472441ZM16.7259 0.0381001C17.4803 0.12954 18.2118 0.274321 18.9281 0.472441V2.11837C18.6309 2.02693 18.3261 1.9431 18.0137 1.8669V5.38735C18.3261 5.48641 18.6309 5.60071 18.9281 5.73025V7.49048C18.6309 7.33046 18.3261 7.1933 18.0137 7.06376V19.492H16.7259V0.0381001ZM18.9281 29.3218C18.2118 29.5199 17.4803 29.6647 16.7259 29.7562V28.156C17.4803 28.0569 18.2195 27.8969 18.9281 27.6759V29.3218ZM18.9281 24.064C18.2347 24.3612 17.4956 24.5898 16.7259 24.727V23.1115C17.5032 22.9439 18.2423 22.6695 18.9281 22.3038V24.064ZM16.3983 0C16.505 0.01524 16.6193 0.0228601 16.7259 0.0381001V19.492H16.3983V6.61418C15.9335 6.53798 15.4534 6.49225 14.9657 6.49225C14.478 6.49225 13.998 6.53798 13.5331 6.61418V13.7999H11.9177V7.06376C11.2624 7.32284 10.6528 7.65812 10.0889 8.06198V21.7323C11.4681 22.7153 13.1521 23.302 14.9657 23.302C15.5677 23.302 16.1544 23.2334 16.7259 23.1115V24.727C16.1544 24.8336 15.5601 24.887 14.9657 24.887C10.066 24.887 5.97409 21.3208 5.13589 16.6574L6.68275 16.3297C6.94183 17.7927 7.57429 19.1186 8.47346 20.2235V9.56312C7.99339 10.1422 7.59715 10.7899 7.28473 11.4834L5.86741 10.7747C7.02565 8.22962 9.22784 6.25603 11.9177 5.38735V1.8669C6.01219 3.26137 1.58496 8.57252 1.58496 14.8895C1.58496 21.9914 7.16281 27.8283 14.1656 28.2474V29.84C6.29413 29.4133 0 22.8677 0 14.8895C0 7.13996 5.95885 0.731522 13.5331 0V5.01397C13.998 4.94539 14.478 4.90729 14.9657 4.90729C15.4534 4.90729 15.9335 4.94539 16.3983 5.01397V0ZM16.7259 29.7562V28.156C16.4059 28.2017 16.0935 28.2322 15.7658 28.2474V29.84C16.0935 29.8171 16.4059 29.7943 16.7259 29.7562Z" fill="#FFF704"/>
</svg>
