<svg width="1.2819976806640625" height="1.9549598693847656" viewBox="0 0 1.2819976806640625 1.9549598693847656" fill="none" xmlns="http://www.w3.org/2000/svg">
<path d="M0.114707 0.518159C0.297588 0.662939 0.465226 0.853439 0.617627 1.05918C0.800507 1.31064 0.960528 1.56972 1.05197 1.77546C1.07483 1.82118 1.09769 1.87452 1.12055 1.93548C1.28819 1.9812 1.27295 1.95072 1.27295 1.79832C1.27295 1.77546 1.27295 1.74498 1.28057 1.7145C1.28819 1.524 1.26533 1.27254 1.21199 1.0287C1.15103 0.76962 1.05959 0.518162 0.922428 0.320042C0.792888 0.137162 0.617628 0.01524 0.396648 0C0.335688 0 0.274726 0.00762036 0.206146 0.0228603C0.122325 0.0381003 0.0461266 0.0838215 0.0156465 0.167641C-0.0300736 0.274321 0.0308871 0.449579 0.114707 0.518159Z" fill="#FFF704"/>
</svg>
