<svg width="1.8468437194824219" height="4.8234710693359375" viewBox="0 0 1.8468437194824219 4.8234710693359375" fill="none" xmlns="http://www.w3.org/2000/svg">
<path d="M0.0856644 2.20981C-0.089596 2.91085 -0.00577687 3.67285 0.428564 4.39675C0.520004 4.54153 0.619065 4.68631 0.733365 4.82347C0.748605 4.77775 0.763843 4.73203 0.779083 4.69393C0.626682 4.05385 0.596203 3.50521 0.672403 2.86513C0.702883 2.63653 0.748603 2.40031 0.801943 2.16409C0.756223 2.0574 0.710503 1.95073 0.672403 1.84405C0.641923 1.72975 0.619064 1.60782 0.611444 1.47828C0.603824 1.3716 0.756225 1.3716 0.763845 1.47828C0.763845 1.58496 0.786704 1.69926 0.817184 1.79833C0.832425 1.84405 0.847664 1.89738 0.870524 1.9431C0.954345 1.64592 1.06864 1.34874 1.2058 1.05156C1.25153 0.960123 1.38868 1.02108 1.34296 1.12014C1.21342 1.38684 1.11436 1.65354 1.03054 1.92787C1.03816 1.91263 1.05341 1.89738 1.06865 1.88214C1.13723 1.81356 1.20581 1.74499 1.25153 1.66878C1.31249 1.57734 1.43441 1.66116 1.38107 1.7526C1.32011 1.83642 1.25153 1.91262 1.17533 1.98882C1.10675 2.0574 1.03054 2.11837 0.954344 2.17933C0.893384 2.41555 0.847664 2.65177 0.824804 2.88799C0.809564 3.01753 0.794325 3.14707 0.786705 3.27661C0.824805 3.23851 0.870523 3.19279 0.908623 3.15469C0.977203 3.07087 1.04578 2.99467 1.07626 2.94133C1.1296 2.84227 1.25914 2.91085 1.21342 3.00991C1.1677 3.07849 1.09913 3.16231 1.01531 3.25375C0.931486 3.34519 0.840045 3.44425 0.786705 3.53569C0.786705 3.84049 0.824803 4.14529 0.878143 4.45009C1.12198 3.93193 1.41155 3.48997 1.73921 3.11659C1.81541 2.84989 1.85351 2.59081 1.84589 2.33173C1.83827 2.06503 1.79255 1.79833 1.70873 1.53924C1.61729 1.2573 1.59442 0.960123 1.6249 0.662943C1.64014 0.449582 1.68587 0.220981 1.73921 0C1.58681 0.10668 1.43441 0.21336 1.29725 0.335281C0.725745 0.815342 0.260925 1.47066 0.0856644 2.20981Z" fill="#178358"/>
</svg>
