<svg width="2.232868194580078" height="6.624499320983887" viewBox="0 0 2.232868194580078 6.624499320983887" fill="none" xmlns="http://www.w3.org/2000/svg">
<path d="M0.168988 5.98442C0.0242083 6.15968 -0.0215111 6.35018 0.00896897 6.48734C0.031829 6.55592 0.0775503 6.61688 0.15375 6.6245C0.260431 6.6245 0.412831 6.5483 0.588091 6.34256C1.25103 5.57294 1.81491 4.67378 2.08161 3.72127C2.29497 2.93641 2.30259 2.12869 1.97493 1.34383C1.75395 0.818049 1.43391 0.391328 1.05291 0.048427C0.831932 -0.134453 0.580469 0.246548 0.73287 0.429428C1.35009 1.15333 1.67775 2.02963 1.60155 2.92879C1.55583 3.43933 1.40343 3.94225 1.17483 4.42232C0.915749 4.9862 0.549989 5.51198 0.168988 5.98442Z" fill="#FFF704"/>
</svg>
