<svg width="4.225465774536133" height="5.078804016113281" viewBox="0 0 4.225465774536133 5.078804016113281" fill="none" xmlns="http://www.w3.org/2000/svg">
<path d="M2.70625 3.72665C2.55385 4.03907 2.33287 4.18385 1.97473 4.14575C1.58611 4.10003 1.28131 3.92477 1.09081 3.68093C0.991752 3.55901 0.923171 3.42185 0.885071 3.27707C0.846971 3.13229 0.831733 2.97989 0.846973 2.82749C0.885073 2.49983 1.06033 2.17217 1.38037 1.9207C1.73089 1.63876 2.43193 1.41017 3.0644 1.19681C3.31586 1.11299 3.5597 1.03679 3.75782 0.960588C4.055 0.846288 4.19978 0.625308 4.22264 0.419567C4.23788 0.282407 4.19216 0.130005 4.07024 0.0461854C3.96356 -0.0223947 3.80354 -0.0223917 3.5978 0.0995285C3.15584 0.358609 2.74436 0.518627 2.31763 0.678648C2.09665 0.770088 1.86043 0.853908 1.62421 0.960588C1.08319 1.20443 0.633612 1.60067 0.351671 2.06549C0.00877078 2.62937 -0.128389 3.32279 0.145931 3.93239C0.298331 4.26767 0.557411 4.57247 0.961272 4.81631C1.38799 5.08301 1.90615 5.13635 2.35573 5.02205C2.7215 4.92299 3.07963 4.70963 3.27776 4.38197C3.50636 4.01621 3.5216 3.39899 3.20918 3.07133C2.96534 2.81987 2.51575 2.83511 2.37097 3.17801C2.31001 3.31517 2.34049 3.46757 2.43955 3.57425C2.51575 3.65045 2.61481 3.68855 2.70625 3.72665Z" fill="#FFF704"/>
</svg>
