<svg width="2.941326141357422" height="5.151130676269531" viewBox="0 0 2.941326141357422 5.151130676269531" fill="none" xmlns="http://www.w3.org/2000/svg">
<path d="M0.510541 2.39269C0.502921 2.39269 0.502922 2.4003 0.502922 2.4003C0.556262 3.36043 0.28956 4.28245 0 5.15113C0.25908 4.71679 0.510541 4.23673 0.746761 3.74143C0.762001 3.71095 0.777242 3.68047 0.792482 3.64999H0.784863C0.800103 3.53569 0.807723 3.42901 0.807723 3.32233C0.800103 3.21565 0.784861 3.10897 0.769621 3.00991C0.746761 2.91085 0.891543 2.88037 0.914403 2.97943C0.937263 3.07849 0.944881 3.18517 0.952501 3.29185C1.17348 2.78893 1.38684 2.27839 1.57734 1.79071C1.61544 1.69165 1.7526 1.74498 1.7145 1.84405C1.524 2.33935 1.31064 2.84989 1.08966 3.35281C1.11252 3.33757 1.12776 3.31471 1.15062 3.29947C1.27254 3.20803 1.39446 3.12421 1.51638 3.04801C1.60782 3.00229 1.66878 3.13183 1.59258 3.17755C1.47066 3.24613 1.35636 3.32995 1.24206 3.41377C1.08966 3.53569 0.960123 3.63475 0.883923 3.80239C0.731523 4.13005 0.571502 4.44247 0.403862 4.73965C0.701042 4.42723 1.04394 4.13767 1.4097 3.88621C1.66878 3.71857 1.93548 3.56617 2.2098 3.43663C2.34696 3.04801 2.25552 2.75083 2.17932 2.49937C2.14122 2.37744 2.11074 2.27077 2.0955 2.15647C2.0193 1.46304 2.57557 0.579121 2.94133 0C2.45365 0.13716 1.96596 0.373381 1.58496 0.693422C1.05918 1.13538 0.716281 1.74498 0.510541 2.39269Z" fill="#178358"/>
</svg>
