<svg width="1.4102661609649658" height="6.347471237182617" viewBox="0 0 1.4102661609649658 6.347471237182617" fill="none" xmlns="http://www.w3.org/2000/svg">
<path d="M0.874454 6.15697C0.904935 6.21793 0.927795 6.28651 0.950655 6.34747C1.06495 6.27127 1.11829 6.01981 1.1945 5.63881C1.21736 5.53213 1.24022 5.41021 1.26308 5.28067C1.48406 4.29769 1.44596 3.21565 1.21736 2.24028C1.01923 1.38684 0.653474 0.594361 0.104833 0C-0.00184747 0.838201 -0.0399475 1.7145 0.0514927 2.66701C0.150553 3.74143 0.409633 4.81585 0.775394 5.83693C0.821114 5.51689 0.843974 5.18923 0.859214 4.86157C0.874454 4.42723 0.859214 3.97765 0.828734 3.52807C0.798254 3.13182 0.577274 2.667 0.379153 2.24028C0.302953 2.0955 0.234373 1.9431 0.173413 1.80594C0.158173 1.76784 0.142933 1.73736 0.211513 1.70688C0.280093 1.6764 0.295333 1.7145 0.310573 1.74498C0.363913 1.88214 0.440113 2.02692 0.508694 2.17932C0.584894 2.33934 0.661094 2.49936 0.729674 2.65938C0.714434 2.52222 0.699194 2.39268 0.683954 2.25552C0.630614 1.93548 0.569654 1.60782 0.501074 1.28016C0.493454 1.24206 0.478214 1.20396 0.554414 1.18872C0.630614 1.1811 0.638234 1.21158 0.645854 1.24968C0.714434 1.58496 0.783014 1.91262 0.828734 2.23266C0.866834 2.5146 0.897314 2.78892 0.920174 3.06324C0.935414 3.22327 0.965895 3.36805 0.973515 3.52045C1.00399 3.97003 1.01923 4.42723 1.00399 4.86919C0.996375 5.30353 0.950655 5.73787 0.874454 6.15697Z" fill="#178358"/>
</svg>
