<svg width="1.7769088745117188" height="2.40020751953125" viewBox="0 0 1.7769088745117188 2.40020751953125" fill="none" xmlns="http://www.w3.org/2000/svg">
<path d="M0.298626 0.747583C0.626287 1.09048 0.961568 1.44101 1.25113 1.86773C1.33495 1.99727 1.42639 2.18015 1.46449 2.36303C1.56355 2.40113 1.69309 2.43923 1.74643 2.31731C1.76929 2.25635 1.77691 2.17253 1.77691 2.08109C1.76167 1.822 1.65499 1.50197 1.57117 1.32671C1.47973 1.12097 1.33495 0.869505 1.15207 0.633284C1.01491 0.435164 0.847265 0.252283 0.679625 0.122743C0.580564 0.038923 0.458644 -0.00679795 0.344344 0.000822058C0.245284 0.0160621 0.146223 0.0617837 0.062403 0.168464C0.0166829 0.221804 -0.00617597 0.282765 0.00144405 0.343725C0.00906407 0.488505 0.207186 0.656143 0.298626 0.747583Z" fill="#FFF704"/>
</svg>
