<svg width="1.5329132080078125" height="3.9700279235839844" viewBox="0 0 1.5329132080078125 3.9700279235839844" fill="none" xmlns="http://www.w3.org/2000/svg">
<path d="M1.13538 1.37922C1.03632 1.50876 0.967741 1.66116 0.906781 1.82118C0.853441 1.98121 0.807721 2.14885 0.777241 2.30887C0.830581 2.60605 0.937261 2.88799 1.08204 3.12421C1.19634 2.78131 1.32588 2.45364 1.4859 2.14122C1.55448 1.59258 1.54686 1.11252 1.47066 0.693422C1.43256 0.441961 1.36398 0.20574 1.27254 0C0.876303 0.480061 0.449581 0.937264 0 1.37161C0.03048 2.35459 0.342901 2.94895 0.662942 3.58141C0.731522 3.70333 0.792483 3.83287 0.861063 3.97003C0.906783 3.74905 0.960123 3.53569 1.02108 3.32995C0.845822 3.10135 0.716282 2.67463 0.640082 2.39269C0.609601 2.26314 0.396242 2.11836 0.274322 2.0574C0.182881 2.01168 0.243839 1.88214 0.3429 1.92786C0.4572 1.9812 0.563883 2.05741 0.655323 2.15647C0.685803 2.02693 0.723902 1.89738 0.769622 1.77546C0.830582 1.6002 0.90678 1.43256 1.01346 1.28778C1.08204 1.20396 1.20396 1.2954 1.13538 1.37922Z" fill="#178358"/>
</svg>
