<svg width="2.010955810546875" height="5.105403900146484" viewBox="0 0 2.010955810546875 5.105403900146484" fill="none" xmlns="http://www.w3.org/2000/svg">
<path d="M1.39246 1.43256C1.16386 1.143 0.958123 0.868683 0.775243 0.601983C0.630463 0.388622 0.508545 0.1905 0.401865 0C0.218985 0.4953 0.0894425 1.0287 0.0361025 1.5621C-0.0248575 2.12598 -0.00961776 2.69748 0.0894422 3.25375C0.165642 3.63475 0.302804 3.99288 0.516164 4.32816C0.691424 4.60248 0.920025 4.86157 1.20196 5.09017C1.15624 4.47295 1.05718 3.86334 0.920025 3.26136C0.805725 3.19278 0.706663 3.11658 0.599983 3.02514C0.493303 2.92608 0.386623 2.81178 0.287563 2.68224C0.218983 2.59842 0.340905 2.50698 0.401865 2.5908C0.500925 2.71272 0.599982 2.8194 0.706662 2.91084C0.760002 2.96418 0.813345 3.00228 0.866685 3.048C0.760005 2.63652 0.638082 2.24028 0.500922 1.83642C0.470442 1.73736 0.607603 1.69164 0.645703 1.7907C0.775243 2.1717 0.897165 2.56032 0.996225 2.94894C1.0267 2.8194 1.04956 2.68224 1.05718 2.5527C1.05718 2.44602 1.20958 2.45364 1.20196 2.56032C1.19434 2.7813 1.141 3.00228 1.05718 3.21564C1.20196 3.83286 1.30102 4.46532 1.34674 5.1054C2.1697 3.98526 2.27638 2.5527 1.39246 1.43256Z" fill="#178358"/>
</svg>
