<svg width="2.0567398071289062" height="6.042671203613281" viewBox="0 0 2.0567398071289062 6.042671203613281" fill="none" xmlns="http://www.w3.org/2000/svg">
<path d="M1.258 3.54331C1.16656 3.65761 1.08274 3.77191 1.00654 3.90145C0.930341 4.02337 0.861761 4.15291 0.800801 4.29007C0.793181 4.63297 0.808422 4.94539 0.846522 5.21971C0.884622 5.49403 0.960824 5.79883 1.11322 6.04267C1.2961 5.95885 1.43326 5.31877 1.51708 5.08255C1.92094 3.88621 2.29432 2.5908 1.8676 1.24968C1.78378 0.97536 1.66186 0.70866 1.50946 0.44958C1.42564 0.297179 1.32658 0.14478 1.21228 0C0.930341 1.15062 0.534101 2.25552 0.0311812 3.30709L0.000701834 3.36043C-0.00691816 4.03861 0.0464241 4.70155 0.214064 5.17399C0.351224 5.57785 0.572203 5.86741 0.915103 5.99695C0.816043 5.79883 0.747464 5.53975 0.701744 5.23495C0.648404 4.85395 0.633162 4.40437 0.663643 3.91669C0.686503 3.52807 0.732221 3.13945 0.800801 2.73559C0.869381 2.33172 0.968442 1.92024 1.1056 1.50876C1.13608 1.40208 1.28086 1.4478 1.24276 1.55448C1.11322 1.95834 1.01416 2.3622 0.945583 2.75845C0.877003 3.15469 0.838903 3.54331 0.816043 3.92431V3.93193C0.838903 3.89383 0.854142 3.85573 0.877002 3.82525C0.960822 3.69571 1.04464 3.56617 1.1437 3.44425C1.21228 3.36805 1.32658 3.45949 1.258 3.54331Z" fill="#178358"/>
</svg>
