<svg width="24.59953498840332" height="5.255697250366211" viewBox="0 0 24.59953498840332 5.255697250366211" fill="none" xmlns="http://www.w3.org/2000/svg">
<path d="M13.3274 1.85156C12.954 2.38496 12.5349 2.64404 12.0777 2.69738C11.6205 2.7431 11.1252 2.57546 10.5994 2.26304C10.5461 2.23256 10.5537 2.14874 10.6147 2.12588C10.7823 2.08016 10.889 1.95824 10.9347 1.82108C10.9652 1.74488 10.9728 1.66106 10.9576 1.57724C10.9423 1.49342 10.9119 1.41722 10.8661 1.34864C10.7823 1.23434 10.6528 1.15052 10.4699 1.15052C10.2489 1.15052 10.1041 1.26482 10.0279 1.41722C9.99746 1.4858 9.98222 1.55438 9.98222 1.63058C9.9746 1.70678 9.98984 1.78298 10.0127 1.85156C10.0737 2.00396 10.2108 2.1335 10.4318 2.14874C10.4851 2.14874 10.5232 2.22494 10.4851 2.27066C10.1422 2.69738 9.7079 2.91836 9.26594 2.97932C8.7554 3.0479 8.23724 2.91074 7.81051 2.63642C7.75717 2.59832 7.78765 2.49164 7.86385 2.49926C8.2601 2.53736 8.51156 2.36972 8.63348 2.1335C8.70206 2.00396 8.73254 1.84394 8.72492 1.69916C8.70968 1.54676 8.66396 1.40198 8.58776 1.28768C8.45822 1.1048 8.22962 0.998116 7.92482 1.07432C7.89433 1.08194 7.84862 1.05908 7.841 1.0286C7.74956 0.784756 7.58191 0.655216 7.39141 0.601876C7.29235 0.579016 7.18567 0.579016 7.07899 0.601876C6.97993 0.624736 6.88849 0.670456 6.80467 0.739036C6.65989 0.868576 6.56845 1.05908 6.59131 1.31816C6.59131 1.34864 6.56083 1.38674 6.53035 1.39436C6.22555 1.45532 6.07315 1.66106 6.03505 1.88966C6.01219 2.01158 6.02743 2.14874 6.07315 2.27828C6.11887 2.4002 6.19507 2.52212 6.29413 2.61356C6.49225 2.78882 6.79705 2.8574 7.16281 2.68214C7.22377 2.65166 7.29235 2.73548 7.25425 2.78882C6.91897 3.23078 6.56083 3.51272 6.14173 3.63464C5.72263 3.76418 5.25019 3.74132 4.67107 3.56606C4.62535 3.55844 4.61011 3.49748 4.63297 3.45938C4.68631 3.37556 4.70917 3.28412 4.70917 3.19268C4.70917 3.10886 4.69393 3.02504 4.64821 2.94884C4.61011 2.87264 4.55677 2.81168 4.48057 2.76585C4.41199 2.72013 4.32055 2.68965 4.21387 2.68965C4.03861 2.68965 3.90145 2.76585 3.81763 2.88015C3.77191 2.94873 3.74143 3.02494 3.72619 3.10876C3.71857 3.19258 3.71857 3.2764 3.74905 3.36022C3.79477 3.48976 3.89383 3.61168 4.06909 3.66502C4.10719 3.67264 4.13005 3.7336 4.10719 3.7717C3.96241 3.99268 3.77953 4.13746 3.58903 4.2289C3.35281 4.3432 3.10135 4.3813 2.87275 4.37368C2.81179 4.37368 2.77369 4.3051 2.81179 4.25938C2.93371 4.10698 3.00229 3.91648 3.00229 3.7336C3.00229 3.64216 2.98705 3.55834 2.95657 3.48214C2.91847 3.40594 2.87275 3.33736 2.81179 3.28402C2.71273 3.21544 2.5908 3.16971 2.42316 3.16971C2.29362 3.1621 2.19456 3.19258 2.10312 3.24592C2.01168 3.29926 1.92786 3.38308 1.85166 3.48214C1.82118 3.52024 1.7526 3.51262 1.72974 3.4669C1.60782 3.26116 1.46304 3.13162 1.30302 3.06304C1.143 2.99446 0.975362 2.98683 0.807722 3.03255C0.640082 3.07066 0.480061 3.1621 0.350521 3.29164C0.175261 3.45166 0.0457206 3.68026 0.0152405 3.93172C0.00762053 4.0003 0 4.06888 0 4.1527C0 4.27462 0.0152405 4.40416 0.0609605 4.51084C0.106681 4.60228 0.17526 4.67086 0.281941 4.6861C0.297181 4.6861 0.320041 4.69372 0.335281 4.69372C0.403861 4.69372 0.464821 4.67086 0.518161 4.63276C0.563881 4.60228 0.594361 4.56418 0.617221 4.51846C0.640081 4.47274 0.655321 4.4194 0.655321 4.36606C0.655321 4.3051 0.640082 4.24414 0.601982 4.1908C0.586742 4.17556 0.586742 4.12984 0.594362 4.1146C0.685802 3.91648 0.807722 3.80218 0.952502 3.75646C1.08204 3.71074 1.23444 3.71836 1.37922 3.77932C1.49352 3.81742 1.60782 3.89362 1.70688 3.97744C1.87452 4.1146 1.96596 4.35082 2.18694 4.14508C2.25552 4.08412 2.30886 4.00792 2.33934 3.9241C2.38506 3.82504 2.52223 3.87838 2.47651 3.97744C2.4384 4.08412 2.36982 4.17556 2.29362 4.25176C1.99644 4.48798 2.23266 4.48798 2.23266 4.86898C2.23266 4.9147 2.24028 4.9528 2.25552 4.9909C2.34696 5.22712 2.73558 5.31094 2.95657 5.2195C6.20269 3.91648 9.80696 3.26116 13.4112 3.26116C17.0079 3.26116 20.6121 3.91648 23.8583 5.2195C24.0716 5.31094 24.4679 5.22712 24.5593 4.9909C24.8336 4.42702 23.6297 4.50322 23.2258 4.2289C23.0353 4.13746 22.8524 3.99268 22.7076 3.7717C22.6848 3.7336 22.7 3.67264 22.7457 3.66502C22.921 3.61168 23.0201 3.48976 23.0658 3.36022C23.0886 3.2764 23.0963 3.19258 23.0886 3.10876C23.0734 3.02494 23.0429 2.94873 22.9896 2.88015C22.9134 2.76585 22.7762 2.68965 22.601 2.68965C22.4943 2.68965 22.4028 2.72013 22.3266 2.76585C22.2581 2.81157 22.2047 2.87253 22.159 2.94884C22.1209 3.02504 22.098 3.10886 22.098 3.19268C22.098 3.28412 22.1285 3.37556 22.1819 3.45938C22.2047 3.49748 22.1819 3.55844 22.1361 3.56606C21.5646 3.74132 21.0846 3.76418 20.6655 3.63464C20.2464 3.51272 19.8882 3.23078 19.553 2.78131C19.5149 2.72797 19.5834 2.64415 19.652 2.67463C20.0102 2.85751 20.315 2.78893 20.5131 2.62129C20.6198 2.52985 20.696 2.41555 20.7417 2.286C20.795 2.15646 20.8103 2.0193 20.7874 1.89738C20.7569 1.66878 20.5969 1.46304 20.2921 1.39446C20.2616 1.38684 20.2311 1.34874 20.2311 1.31826C20.254 1.05918 20.1626 0.868682 20.0178 0.739142C19.934 0.670562 19.8425 0.624842 19.7435 0.601982C19.6368 0.579122 19.5301 0.579122 19.431 0.601982C19.2405 0.655322 19.0729 0.784862 18.9815 1.0287C18.9738 1.05918 18.9281 1.08204 18.8976 1.07442C18.5852 0.998222 18.3566 1.11252 18.2271 1.2954C18.1509 1.4097 18.1052 1.55448 18.0975 1.69926C18.0899 1.84404 18.1128 1.98882 18.1814 2.11836C18.2957 2.35459 18.5471 2.52985 18.951 2.49937C19.0196 2.49175 19.0577 2.59843 18.9967 2.63653C18.5776 2.91085 18.0594 3.04801 17.5489 2.97943C17.1069 2.91847 16.6726 2.69749 16.3297 2.27077C16.2916 2.22504 16.3221 2.14884 16.383 2.14884C16.604 2.1336 16.7412 2.00406 16.8021 1.85166C16.825 1.78308 16.8326 1.70688 16.8326 1.63068C16.8326 1.55448 16.8098 1.4859 16.7793 1.41732C16.7107 1.26492 16.5659 1.15062 16.3449 1.15062C16.1621 1.15062 16.0249 1.23444 15.9487 1.34874C15.8954 1.41732 15.8649 1.49352 15.8573 1.57734C15.842 1.66116 15.8496 1.74498 15.8725 1.82118C15.9182 1.95834 16.0249 2.08026 16.2001 2.12598C16.2611 2.14884 16.2687 2.23266 16.2154 2.26314C15.682 2.58319 15.1867 2.74321 14.7295 2.68987C14.2723 2.64415 13.8532 2.37744 13.4798 1.83642C13.4341 1.77546 13.5255 1.68402 13.5865 1.72974C13.6779 1.81356 13.8227 1.85166 13.9827 1.85166C14.1046 1.85166 14.2342 1.8288 14.3485 1.77546C14.4628 1.72974 14.5695 1.66116 14.6457 1.5621C14.7371 1.45542 14.7905 1.31064 14.7905 1.12776C14.7905 0.944776 14.7142 0.762001 14.5923 0.632461C14.4704 0.510541 14.3104 0.434341 14.1199 0.441961C14.0894 0.441961 14.0513 0.403861 14.0513 0.373381C14.0284 0.21336 13.9675 0.0914402 13.8837 0C13.7922 0.16764 13.6246 0.281941 13.4188 0.289561C13.5636 0.883922 13.556 0.838202 14.1885 0.982982C13.8913 0.975362 13.6093 0.990602 13.4112 1.2192C13.2131 0.990602 12.9312 0.975362 12.634 0.982982C13.2664 0.838202 13.2588 0.883922 13.4036 0.289561C13.1979 0.281941 13.0302 0.16764 12.9388 0C12.855 0.0914402 12.794 0.21336 12.7711 0.373381C12.7711 0.403861 12.733 0.441961 12.7026 0.441961C12.5273 0.434341 12.352 0.502921 12.2225 0.609602C12.1082 0.708662 12.0396 0.845822 12.0472 0.998222C12.0472 1.1049 12.1006 1.19634 12.1768 1.27254C12.2149 1.30302 12.2606 1.3335 12.3063 1.34874C12.352 1.3716 12.3978 1.37922 12.4435 1.3716C12.5044 1.3716 12.573 1.34874 12.6264 1.28778C12.6721 1.23444 12.7711 1.28778 12.7483 1.35636C12.733 1.4478 12.7407 1.53162 12.7711 1.6002C12.794 1.66116 12.8397 1.7145 12.8854 1.7526C12.9388 1.78308 12.9921 1.80594 13.0531 1.80594C13.1064 1.80594 13.1674 1.7907 13.2207 1.74498C13.2817 1.69916 13.3655 1.7906 13.3274 1.85156Z" fill="#FFF704"/>
</svg>
