<svg width="4.305309295654297" height="3.1548004150390625" viewBox="0 0 4.305309295654297 3.1548004150390625" fill="none" xmlns="http://www.w3.org/2000/svg">
<path d="M1.7907 0.845939C0.98298 1.39458 0.312421 2.13372 0 2.89572C0.419101 2.71284 0.815343 2.52234 1.20396 2.26326C1.22682 2.15658 1.2573 2.0499 1.30302 1.95084C1.34874 1.84416 1.4097 1.73748 1.47828 1.63842C1.50114 1.60794 1.524 1.57746 1.58496 1.62318C1.64592 1.66128 1.62306 1.69176 1.6002 1.72224C1.53162 1.81368 1.47828 1.91274 1.44018 2.0118C1.41732 2.0499 1.40208 2.088 1.39446 2.13372C1.88976 1.77558 2.33934 1.37172 2.77368 0.944999C2.84988 0.876419 2.95657 0.975479 2.88037 1.05168C2.43079 1.49364 1.9812 1.88988 1.53162 2.21754C1.12014 2.51472 0.678179 2.78142 0.198118 2.97954C0.175258 3.0405 0.144778 3.09384 0.121918 3.1548C0.617219 3.12432 1.11252 2.9643 1.6002 2.66712C2.14122 2.34708 2.67463 1.86702 3.19279 1.23456C3.55093 0.807838 3.93193 0.403978 4.30531 0.000116901C3.42901 -0.00750311 2.52222 0.358258 1.7907 0.845939Z" fill="#178358"/>
</svg>
