<svg width="1.790703296661377" height="3.0937232971191406" viewBox="0 0 1.790703296661377 3.0937232971191406" fill="none" xmlns="http://www.w3.org/2000/svg">
<path d="M1.1811 0C1.39446 0.487681 1.6002 0.982981 1.7907 1.49352C1.55448 1.65354 1.31826 1.8288 1.08966 2.04978V1.55448C1.22682 1.49352 1.30302 1.45542 1.30302 1.19634C1.30302 1.11252 1.28778 1.03632 1.24968 0.998222C1.19634 1.0668 1.15062 1.12776 1.08966 1.1811V0.12954C1.12014 0.09144 1.15062 0.0457201 1.1811 0ZM1.08966 2.04978C1.00584 2.1336 0.914402 2.22504 0.830582 2.31648C0.640081 2.53746 0.449581 2.78892 0.289561 3.09372C0.350521 2.78892 0.441961 2.4765 0.548641 2.18694C0.586741 2.08026 0.441961 2.03454 0.403861 2.1336C0.31242 2.4003 0.2286 2.667 0.16764 2.94894C0.1524 2.50698 0.0990602 2.06502 0 1.63068C0.0381001 1.47066 0.09144 1.31826 0.17526 1.1811C0.25146 1.04394 0.350521 0.922019 0.480061 0.815339C0.739141 0.601979 0.929642 0.37338 1.08966 0.12954V1.1811C1.05918 1.19634 1.0287 1.2192 0.990602 1.23444C0.838202 1.28778 0.883922 1.47828 0.891542 1.65354C0.967742 1.60782 1.03632 1.57734 1.08966 1.55448V2.04978Z" fill="#178358"/>
</svg>
