<svg width="1.7347736358642578" height="5.0064191818237305" viewBox="0 0 1.7347736358642578 5.0064191818237305" fill="none" xmlns="http://www.w3.org/2000/svg">
<path d="M0.958742 0.678181C1.08828 1.12014 1.14162 1.55448 1.12638 1.98882C1.10352 2.42316 1.0197 2.84988 0.867303 3.27661C0.783483 3.52045 0.676804 3.73381 0.554884 3.93955C0.425344 4.14529 0.288077 4.34341 0.151023 4.54153C0.0214825 4.71679 -0.0166187 4.82347 0.00624129 4.87681C0.0291013 4.93015 0.105304 4.96063 0.219604 4.99111C0.547264 5.06731 0.676804 4.84633 0.813964 4.61011C0.852064 4.54915 0.890161 4.48057 0.935881 4.41199C1.35498 3.79477 1.59882 3.16231 1.69026 2.52984C1.78932 1.85166 1.72074 1.17348 1.50738 0.533401C1.46928 0.411481 1.39308 0.243841 1.2864 0.129541C1.21782 0.0533404 1.14162 0 1.0578 0C0.874922 0.00762001 0.852064 0.1143 0.836824 0.220981C0.813964 0.381001 0.913022 0.510541 0.958742 0.678181Z" fill="#FFF704"/>
</svg>
