<svg width="1.4253005981445312" height="2.5755691528320312" viewBox="0 0 1.4253005981445312 2.5755691528320312" fill="none" xmlns="http://www.w3.org/2000/svg">
<path d="M0.7776 0.807722C0.86142 0.937262 0.929999 1.08204 0.99096 1.23444C1.02906 1.32588 1.05954 1.42494 1.09002 1.524C1.18146 1.30302 1.29576 1.09728 1.4253 0.899163C1.36434 0.548642 1.21194 0.335279 1.01382 0.198118C0.83094 0.068578 0.602339 0.0152401 0.373738 0C0.107038 0.487682 -0.00726375 0.777244 0.000356259 1.07442C0.00797627 1.38685 0.137517 1.7145 0.358497 2.30125C0.358497 2.30887 0.358497 2.30887 0.358497 2.31649C0.526137 2.33935 0.68616 2.42317 0.8538 2.57557C0.86142 2.38507 0.8919 2.18695 0.93762 1.99645C0.95286 1.91263 0.975721 1.83643 1.0062 1.75261C0.960481 1.59259 0.90714 1.44018 0.8538 1.2954C0.79284 1.143 0.731879 1.00584 0.655679 0.883922C0.594719 0.792482 0.72426 0.716281 0.7776 0.807722Z" fill="#178358"/>
</svg>
