<svg width="2.5419979095458984" height="2.8949546813964844" viewBox="0 0 2.5419979095458984 2.8949546813964844" fill="none" xmlns="http://www.w3.org/2000/svg">
<path d="M0.728434 1.11949C1.17802 1.31761 1.50568 1.56145 1.7419 1.83577C1.97812 2.11009 2.11528 2.42251 2.18386 2.75017C2.19148 2.79589 2.1991 2.84923 2.1991 2.89495C2.21434 2.89495 2.2372 2.89495 2.26006 2.89495C2.32864 2.89495 2.38198 2.87209 2.4277 2.84161C2.47342 2.80351 2.5039 2.75017 2.52676 2.67397C2.53438 2.62063 2.542 2.56729 2.542 2.49871C2.52676 2.14819 2.43532 1.85101 2.29816 1.60717C2.15338 1.35571 1.95526 1.14235 1.72665 0.951852C1.58949 0.837552 1.45996 0.708013 1.3228 0.586093C1.19326 0.464173 1.06371 0.334631 0.918934 0.212711C0.804633 0.121271 0.644612 0.0298312 0.515071 0.00697123C0.461731 -0.000648767 0.377912 -0.015888 0.355052 0.052692C0.332192 0.136512 0.385532 0.281294 0.400773 0.372734C0.271232 0.342254 -0.0411907 0.159373 0.00452941 0.433693C0.0578696 0.776593 0.446494 0.989954 0.728434 1.11949Z" fill="#FFF704"/>
</svg>
