<svg width="4.983489990234375" height="3.6957054138183594" viewBox="0 0 4.983489990234375 3.6957054138183594" fill="none" xmlns="http://www.w3.org/2000/svg">
<path d="M3.90907 3.53569C4.26721 3.55855 4.59487 3.61189 4.89967 3.69571C4.77013 3.48235 4.59487 3.2766 4.38151 3.07848C4.22911 2.92608 4.05385 2.77368 3.86335 2.6289C3.68809 2.59842 3.52045 2.58319 3.34519 2.60605C3.24613 2.62129 3.22327 2.4765 3.32995 2.46126C3.43663 2.44602 3.53569 2.4384 3.61951 2.44602C3.58141 2.41554 3.54331 2.38506 3.50521 2.3622C3.41377 2.29362 3.32233 2.22504 3.23089 2.16408C3.05563 2.12598 2.87275 2.0574 2.67463 1.97358C2.48412 1.88976 2.27838 1.7907 2.0574 1.66878C1.95834 1.62306 2.02692 1.49352 2.12598 1.53924C2.34696 1.65354 2.54508 1.76022 2.73559 1.83642C2.78893 1.8669 2.84989 1.88976 2.90323 1.905C2.85751 1.87452 2.81179 1.83642 2.77369 1.79832C2.52984 1.60782 2.30124 1.41732 2.06502 1.21158C1.9812 1.143 2.08026 1.0287 2.15646 1.09728C2.4003 1.30302 2.62891 1.49352 2.86513 1.68402C3.10135 1.87452 3.34519 2.06502 3.58903 2.24028C3.90907 2.46126 4.20625 2.69748 4.48819 2.96418C4.68631 3.15468 4.85395 3.3528 4.98349 3.5433C4.96063 3.2385 4.86157 2.9337 4.67869 2.6289C4.41199 2.1717 4.02337 1.78308 3.61951 1.44018C3.07087 0.967741 2.46889 0.640082 1.81356 0.403861C1.24206 0.198121 0.632461 0.0762001 0 0C0.00762001 0.00762001 0.00762007 0.00762228 0.00762007 0.00762228C0.327661 0.243843 0.632461 0.46482 0.891542 0.77724C1.34874 1.32588 1.8288 1.83642 2.33172 2.30124C2.82703 2.75845 3.35281 3.16993 3.90907 3.53569Z" fill="#178358"/>
</svg>
