<svg width="3.704324722290039" height="3.0602211952209473" viewBox="0 0 3.704324722290039 3.0602211952209473" fill="none" xmlns="http://www.w3.org/2000/svg">
<path d="M0.92256 0.216675C0.62538 0.582436 0.160558 0.643396 0.0157778 1.08536C-0.0528024 1.28348 0.114838 1.4435 0.274858 1.48922C0.457738 1.55018 0.549179 1.27586 0.747299 1.20728C0.663479 1.30634 0.602519 1.4435 0.655859 1.5197C0.716819 1.42826 0.77016 1.3673 0.92256 1.3292C0.67872 1.67972 0.785399 1.74068 0.968279 1.71782C1.07496 1.7102 1.14354 1.61114 1.27308 1.55018C1.26546 1.58066 0.930179 1.89308 1.2045 1.91594C1.26546 1.92356 1.46358 1.83212 1.51692 1.77878C1.50168 1.9007 1.31118 1.94642 1.49406 2.04548C1.59312 2.10644 1.71504 1.99214 1.80648 1.95404C1.5855 2.25884 1.69218 2.3198 1.82934 2.27408C1.9284 2.23598 2.01222 2.1293 2.17224 2.1293C2.0808 2.2055 2.0046 2.22074 2.0046 2.3198C2.01222 2.63984 2.3094 2.61698 2.47704 2.5865C2.35512 2.67794 2.47704 3.0437 2.53038 3.05132C2.8428 3.08942 2.919 2.99798 3.20856 2.91416C3.62766 2.78462 3.71148 2.22074 3.70387 1.49684C3.69624 0.864376 3.62004 0.216675 3.51336 0.0185548C3.38382 -0.0195452 3.07902 0.155715 3.07902 0.338596C3.05616 0.254775 3.00282 0.186195 2.9571 0.186195C2.85804 0.193815 2.75898 0.338595 2.67516 0.376695C2.37036 0.513855 2.62944 0.102375 2.62944 0.0795145C2.20272 0.0642745 2.20272 0.666255 2.20272 0.0414144C1.90554 -0.00430566 1.70742 0.605296 1.73028 0.0718947C1.53978 -0.0957456 1.395 0.0642746 1.2807 0.201435C1.19688 0.308115 1.12068 0.399555 1.11306 0.353835C1.09782 0.262395 1.15116 0.102375 1.13592 0.056655C1.10544 -0.0271652 0.94542 0.186195 0.92256 0.216675Z" fill="#ED1B24"/>
</svg>
