<svg width="1.9284303188323975" height="4.1986236572265625" viewBox="0 0 1.9284303188323975 4.1986236572265625" fill="none" xmlns="http://www.w3.org/2000/svg">
<path d="M1.92843 4.19862C1.76079 3.71094 1.58553 3.22326 1.36455 2.75844C1.09023 2.16408 0.762568 1.60782 0.335847 1.13538C0.312987 1.1049 0.282507 1.07442 0.343467 1.0287C0.396808 0.975361 0.419668 1.00584 0.442528 1.03632C0.884489 1.524 1.21977 2.08788 1.50171 2.69748C1.62363 2.95656 1.73031 3.21564 1.83699 3.48996C1.67697 2.87274 1.57791 2.29362 1.52457 1.74498C1.37979 1.3716 1.16643 1.04394 0.899728 0.746761C0.640648 0.46482 0.335847 0.21336 0.000566826 0C-0.00705319 0.571501 0.0615269 1.15062 0.244407 1.73736C0.412048 2.286 0.678748 2.83464 1.06737 3.3909C1.31121 3.74142 1.64649 3.86334 1.92843 4.19862Z" fill="#178358"/>
</svg>
