<svg width="2.2136611938476562" height="5.823864459991455" viewBox="0 0 2.2136611938476562 5.823864459991455" fill="none" xmlns="http://www.w3.org/2000/svg">
<path d="M0.437031 2.04274C0.482751 2.47708 0.589432 2.89618 0.757072 3.27718C0.939952 3.68867 1.15331 4.09253 1.39715 4.45829C1.62575 4.80881 1.88483 5.12885 2.14391 5.37269C2.18963 5.42603 2.22011 5.46413 2.21249 5.50985C2.20487 5.56319 2.16677 5.63177 2.09057 5.73083C2.06771 5.75369 2.04485 5.77655 2.02199 5.79179C1.93817 5.84513 1.83911 5.82989 1.72481 5.76131C1.59527 5.67749 1.45811 5.53271 1.32095 5.35745C1.03139 4.98407 0.741831 4.45829 0.528471 3.99347C0.254151 3.41435 0.109371 2.91142 0.0407909 2.39326C-0.0277892 1.7989 0.00269084 1.20454 0.0407909 0.610179C0.0636509 0.358719 0.0788908 0.0386784 0.337971 0.000578351C0.406551 -0.00704166 0.437031 0.0615383 0.452271 0.152979C0.467511 0.274899 0.452271 0.434919 0.437031 0.541599C0.383691 1.0369 0.376071 1.54744 0.437031 2.04274Z" fill="#FFF704"/>
</svg>
