<svg width="1.7347755432128906" height="5.0064191818237305" viewBox="0 0 1.7347755432128906 5.0064191818237305" fill="none" xmlns="http://www.w3.org/2000/svg">
<path d="M0.776032 0.678181C0.646492 1.12014 0.593151 1.55448 0.608392 1.98882C0.631252 2.42316 0.715072 2.84988 0.867472 3.27661C0.951292 3.52045 1.05797 3.73381 1.18751 3.93955C1.30943 4.14529 1.44659 4.34341 1.58375 4.54153C1.71329 4.71679 1.75139 4.82347 1.72853 4.87681C1.70567 4.93015 1.62947 4.96063 1.51517 4.99111C1.18751 5.06731 1.05797 4.84633 0.920812 4.61011C0.882712 4.54915 0.844612 4.48057 0.798892 4.41199C0.379791 3.79477 0.13595 3.16231 0.0445099 2.52984C-0.0545503 1.85166 0.0140295 1.17348 0.22739 0.533401C0.26549 0.411481 0.341692 0.243841 0.448372 0.129541C0.516952 0.0533404 0.593151 0 0.676971 0C0.859852 0.00762001 0.882713 0.1143 0.897953 0.220981C0.920813 0.381001 0.821752 0.510541 0.776032 0.678181Z" fill="#FFF704"/>
</svg>
