<svg width="3.8785934448242188" height="4.792987823486328" viewBox="0 0 3.8785934448242188 4.792987823486328" fill="none" xmlns="http://www.w3.org/2000/svg">
<path d="M0.0457209 4.46533C0.152401 4.31293 0.259081 4.16815 0.381002 4.02337C0.762003 3.56617 1.15062 3.33757 1.28778 2.72796C1.32588 2.54508 1.34112 2.36982 1.3335 2.18694C1.32588 2.07264 1.47067 2.0574 1.47829 2.1717C1.49353 2.36982 1.47829 2.56794 1.43257 2.75844C1.41733 2.83464 1.39446 2.91084 1.3716 2.97942C1.524 2.8194 1.66878 2.65938 1.80595 2.49174C2.04217 2.20218 2.25553 1.89738 2.43079 1.53924C2.48413 1.4478 2.61367 1.51638 2.56795 1.60782C2.37745 1.97358 2.16409 2.286 1.92787 2.58318C1.83643 2.68986 1.7526 2.79654 1.65354 2.8956C1.76784 2.83464 1.87453 2.77368 1.98121 2.72796C2.07265 2.68224 2.14123 2.81178 2.04217 2.8575C1.905 2.92608 1.76023 3.00229 1.62306 3.08611C1.16586 3.36043 0.838202 3.71095 0.495301 4.12243C0.32004 4.33579 0.1524 4.55677 0 4.79299C0.609602 4.57201 1.15062 4.26721 1.63068 3.84049C2.14885 3.38329 2.59843 2.7813 2.97943 2.00406C3.19279 1.55448 3.39091 1.11252 3.58903 0.662939C3.68047 0.441958 3.77953 0.22098 3.87859 0C1.86691 0.876301 0.548642 2.34696 0.0457209 4.46533Z" fill="#178358"/>
</svg>
