<svg width="1.3858938217163086" height="5.8369293212890625" viewBox="0 0 1.3858938217163086 5.8369293212890625" fill="none" xmlns="http://www.w3.org/2000/svg">
<path d="M0.731522 5.31877C0.830582 5.47879 0.922022 5.65405 0.982982 5.83693C1.09728 5.72263 1.1811 5.54737 1.24206 5.31115C1.31826 5.02921 1.36398 4.67107 1.37922 4.26721C1.4097 3.41377 1.3335 2.62129 1.19634 1.82881C0.998222 1.23444 0.830582 0.624841 0.701041 0C0.563881 0.1905 0.449581 0.419103 0.342901 0.701043C0.190501 1.1049 0.0762001 1.61545 0 2.21743C0.0685801 2.35459 0.13716 2.49175 0.20574 2.63653C0.403861 3.07087 0.556261 3.48235 0.647701 3.90145C0.662941 3.67285 0.678181 3.43663 0.693421 3.21564C0.716281 2.80416 0.731521 2.40793 0.739141 2.0193C0.739141 1.91262 0.891542 1.91262 0.891542 2.0193C0.883922 2.41555 0.868682 2.81941 0.838202 3.22327C0.822962 3.58903 0.792481 3.96241 0.762001 4.32817C0.731521 4.65583 0.762002 4.99111 0.731522 5.31877Z" fill="#178358"/>
</svg>
