<svg width="2.001614570617676" height="3.764284133911133" viewBox="0 0 2.001614570617676 3.764284133911133" fill="none" xmlns="http://www.w3.org/2000/svg">
<path d="M0.29718 2.06502C0.27432 2.3622 0.23622 2.667 0.16764 2.95656C0.19812 2.9337 0.2286 2.8956 0.266701 2.86512C0.365761 2.75082 0.472441 2.62128 0.518161 2.52984C0.685801 2.26314 0.822961 2.07264 0.982982 1.84404C0.982982 1.83642 0.998222 1.81356 1.08204 1.69926C1.143 1.61544 1.26492 1.69926 1.20396 1.7907C1.18872 1.80594 1.16586 1.84404 1.1049 1.92786C0.944882 2.15646 0.807721 2.34696 0.647701 2.61366C0.594361 2.7051 0.480061 2.84988 0.373381 2.96418C0.23622 3.10896 0.13716 3.10896 0.0990603 3.30708C0.0609602 3.48234 0.0304801 3.63474 0 3.76428C0.350521 3.48996 0.662941 3.2004 0.937262 2.90322C1.26492 2.54508 1.524 2.17932 1.69164 1.8288C1.84404 1.524 1.9431 1.20396 1.9812 0.88392C2.0193 0.59436 2.00406 0.3048 1.93548 0C1.64592 0.19812 1.35636 0.434341 1.08966 0.739142C0.792482 1.07442 0.518161 1.49352 0.304801 2.04978C0.304801 2.04978 0.29718 2.0574 0.29718 2.06502Z" fill="#178358"/>
</svg>
