<svg width="18" height="21" viewBox="0 0 18 21" fill="none" xmlns="http://www.w3.org/2000/svg"><path d="M 12 0 L 6 0 L 6 2 L 12 2 L 12 0 Z M 16.030000686645508 6.389999866485596 L 17.450000762939453 4.96999979019165 C 17.020000755786896 4.4599997997283936 16.5500009059906 3.979999929666519 16.040000915527344 3.559999942779541 L 14.620000839233398 4.980000019073486 C 13.070000886917114 3.740000009536743 11.119999885559082 3 9 3 C 4.03000020980835 3 0 7.03000020980835 0 12 C 0 16.96999979019165 4.019999980926514 21 9 21 C 13.980000019073486 21 18 16.96999979019165 18 12 C 18 9.880000114440918 17.260000705718994 7.929999828338623 16.030000686645508 6.389999866485596 Z M 9 19 C 5.130000114440918 19 2 15.869999885559082 2 12 C 2 8.130000114440918 5.130000114440918 5 9 5 C 12.869999885559082 5 16 8.130000114440918 16 12 C 16 15.869999885559082 12.869999885559082 19 9 19 Z" fill="black" fill-rule="nonzero" clip-rule="nonzero" stroke="none" /><path d="M 8 13 L 10 13" fill="black" fill-rule="evenodd" clip-rule="evenodd" stroke="none" /></svg>