<svg width="12" height="12" viewBox="0 0 12 12" fill="none" xmlns="http://www.w3.org/2000/svg">
<path fill-rule="evenodd" clip-rule="evenodd" d="M5.99998 0C6.20757 0 6.39723 0.123352 6.48908 0.318197L8.04777 3.62312L11.5334 4.15635C11.7388 4.18777 11.9094 4.33849 11.9734 4.54515C12.0374 4.75182 11.9838 4.9786 11.8351 5.13019L9.31339 7.7009L9.90847 11.3326C9.9436 11.5468 9.85944 11.7632 9.69149 11.891C9.52349 12.0187 9.30078 12.0355 9.11702 11.9344L5.99998 10.2187L2.88298 11.9344C2.6992 12.0355 2.4765 12.0187 2.30852 11.891C2.14053 11.7632 2.05639 11.5468 2.09149 11.3326L2.68663 7.7009L0.164888 5.13019C0.016188 4.9786 -0.0374151 4.75182 0.0266088 4.54515C0.0906331 4.33849 0.261185 4.18777 0.46658 4.15635L3.95222 3.62312L5.51087 0.318197C5.60278 0.123352 5.79238 0 5.99998 0ZM5.99998 1.86065L4.80366 4.39732C4.72427 4.56565 4.5709 4.68237 4.39343 4.70952L1.71732 5.11891L3.65331 7.09245C3.78197 7.22364 3.84069 7.41266 3.81033 7.59791L3.35356 10.3853L5.74612 9.06845C5.90507 8.98099 6.09494 8.98099 6.25388 9.06845L8.6464 10.3853L8.18964 7.59791C8.15931 7.41266 8.218 7.22364 8.34667 7.09245L10.2826 5.11891L7.60655 4.70952C7.42906 4.68237 7.27573 4.56565 7.19632 4.39732L5.99998 1.86065Z" fill="#FFBD0A"/>
</svg>
