<svg width="20" height="16" viewBox="0 0 20 16" fill="none" xmlns="http://www.w3.org/2000/svg"><path d="M 5.684210777282715 16 L 5.684210777282715 14.117647171020508 L 1.7126052379608154 14.117647171020508 C 1.2340262830257416 14.117647171020508 0.8289474248886108 13.952941209077835 0.4973684549331665 13.623529434204102 C 0.16578948497772217 13.294117659330368 0 12.891686916351318 0 12.41623592376709 L 0 1.7014117240905762 C 0 1.2259607315063477 0.16578948497772217 0.8235294222831726 0.4973684549331665 0.4941176474094391 C 0.8289474248886108 0.16470587253570557 1.2340262830257416 0 1.7126052379608154 0 L 18.287395477294922 0 C 18.765974432229996 0 19.171053171157837 0.16470587253570557 19.50263214111328 0.4941176474094391 C 19.834211111068726 0.8235294222831726 20 1.2259607315063477 20 1.7014117240905762 L 20 12.41623592376709 C 20 12.891686916351318 19.834211111068726 13.294117659330368 19.50263214111328 13.623529434204102 C 19.171053171157837 13.952941209077835 18.765974432229996 14.117647171020508 18.287395477294922 14.117647171020508 L 14.315790176391602 14.117647171020508 L 14.315790176391602 16 L 5.684210777282715 16 Z M 1.7126052379608154 12.705883026123047 L 18.287395477294922 12.705883026123047 C 18.3603428453207 12.705883026123047 18.4271327778697 12.675687566399574 18.487764358520508 12.61529541015625 C 18.548553831875324 12.555060114711523 18.578947067260742 12.488706514239311 18.578947067260742 12.41623592376709 L 18.578947067260742 1.7014117240905762 C 18.578947067260742 1.6289411336183548 18.548553831875324 1.5625876523554325 18.487764358520508 1.5023523569107056 C 18.4271327778697 1.4419602006673813 18.3603428453207 1.4117647409439087 18.287395477294922 1.4117647409439087 L 1.7126052379608154 1.4117647409439087 C 1.6396578699350357 1.4117647409439087 1.5728686526417732 1.4419602006673813 1.5122370719909668 1.5023523569107056 C 1.4514475986361504 1.5625876523554325 1.4210526943206787 1.6289411336183548 1.4210526943206787 1.7014117240905762 L 1.4210526943206787 12.41623592376709 C 1.4210526943206787 12.488706514239311 1.4514475986361504 12.555060114711523 1.5122370719909668 12.61529541015625 C 1.5728686526417732 12.675687566399574 1.6396578699350357 12.705883026123047 1.7126052379608154 12.705883026123047 Z" fill="black" fill-rule="nonzero" clip-rule="nonzero" stroke="none" /><path d="M 1.4210526943206787 12.705883026123047 L 1.4210526943206787 1.4117647409439087" fill="black" fill-rule="evenodd" clip-rule="evenodd" stroke="none" /></svg>