<svg width="19" height="20" viewBox="0 0 19 20" fill="none" xmlns="http://www.w3.org/2000/svg">
<path fill-rule="evenodd" clip-rule="evenodd" d="M16 2C16 0.89543 15.1034 0 13.9988 0H5.00117C3.8966 0 3 0.89543 3 2V7H0V8H5V2H14V8H19V7H16V2ZM6 3H7V4H6V3ZM6 5H7V6H6V5ZM7 7H6V8H7V7ZM8 7H9V8H8V7ZM11 7H10V8H11V7ZM12 7H13V8H12V7ZM9 3H8V4H9V3ZM8 5H9V6H8V5ZM11 5H10V6H11V5ZM10 3H11V4H10V3ZM13 3H12V4H13V3ZM12 5H13V6H12V5ZM10.0881 12.4142C9.7374 12.1592 9.2625 12.1592 8.9119 12.4142L8.0544 13.0377C7.7042 13.2923 7.55766 13.7434 7.69137 14.1552L8.0192 15.1651C8.153 15.5772 8.537 15.8563 8.9703 15.8563H10.0296C10.4629 15.8563 10.8469 15.5772 10.9807 15.1651L11.3086 14.1552C11.4423 13.7434 11.2958 13.2923 10.9455 13.0377L10.0881 12.4142ZM4.5 14C4.5 16.7535 6.73717 18.9942 9.4892 19H7.5C7.22386 19 7 19.2239 7 19.5C7 19.7761 7.22386 20 7.5 20H11.5C11.7761 20 12 19.7761 12 19.5C12 19.2239 11.7761 19 11.5 19H9.5108C12.2629 18.9942 14.5 16.7535 14.5 14C14.5 11.243 12.2571 9 9.5 9C6.74302 9 4.5 11.243 4.5 14ZM8.4916 17.8713C8.8138 17.9553 9.1518 18 9.5 18C9.8481 18 10.186 17.9553 10.5082 17.8713L11.0528 16.867C11.1968 16.6014 11.4531 16.4151 11.7502 16.3603L12.8696 16.1534C13.2295 15.5923 13.4531 14.9358 13.4934 14.2311L12.71 13.4064C12.5019 13.1874 12.404 12.8861 12.4436 12.5866L12.5919 11.4649C12.1599 10.939 11.5966 10.5248 10.9527 10.273L9.9309 10.761C9.6583 10.8912 9.3415 10.8912 9.0689 10.761L8.0472 10.273C7.4032 10.5249 6.83989 10.9392 6.4079 11.4652L6.55619 12.5866C6.5958 12.8861 6.49789 13.1874 6.28982 13.4064L5.50658 14.2309C5.54688 14.9357 5.77053 15.5923 6.13045 16.1535L7.24959 16.3603C7.54666 16.4151 7.80299 16.6014 7.94699 16.8669L8.4916 17.8713Z" fill="black"/>
</svg>
