<svg width="19" height="18" viewBox="0 0 19 18" fill="none" xmlns="http://www.w3.org/2000/svg">
<path d="M6.941 0H1.059C0.474 0 0 0.474 0 1.059V6.941C0 7.526 0.474 8 1.059 8H6.941C7.526 8 8 7.526 8 6.941V1.059C8 0.474 7.526 0 6.941 0ZM6.7 6.7H1.3V2H6.7V6.7ZM6.941 10H1.059C0.474 10 0 10.474 0 11.059V16.941C0 17.526 0.474 18 1.059 18H6.941C7.526 18 8 17.526 8 16.941V11.059C8 10.474 7.526 10 6.941 10ZM6.7 16.7H1.3V12H6.7V16.7ZM19 9C19 9.35898 18.709 9.65 18.35 9.65H14.967V13.291C14.967 14.233 14.199 15 13.257 15H10.7265C10.3672 15 10.076 14.7088 10.076 14.3495C10.076 13.9902 10.3672 13.699 10.7265 13.699H13.257C13.483 13.699 13.666 13.516 13.666 13.291V4.709C13.666 4.483 13.482 4.3 13.257 4.3H10.726C10.367 4.3 10.076 4.00899 10.076 3.65C10.076 3.29102 10.367 3 10.726 3H13.257C14.199 3 14.967 3.767 14.967 4.709V8.35H18.35C18.709 8.35 19 8.64102 19 9Z" fill="black"/>
</svg>
