<svg width="18.734800338745117" height="21.738073348999023" viewBox="0 0 18.734800338745117 21.738073348999023" fill="none" xmlns="http://www.w3.org/2000/svg">
<path d="M9.37177 21.7381C8.07176 21.7381 6.85237 21.4953 5.7136 21.0098C4.57482 20.5243 3.57948 19.8567 2.72758 19.0069C1.87568 18.1572 1.2081 17.1653 0.72485 16.0314C0.241617 14.8974 0 13.6772 0 12.3707H1.98045C1.98045 14.4256 2.69692 16.1681 4.12985 17.5983C5.56278 19.0284 7.30779 19.7435 9.36487 19.7435C11.418 19.7435 13.1605 19.0282 14.5924 17.5975C16.0243 16.1668 16.7402 14.4245 16.7402 12.3707C16.7402 10.3098 16.0446 8.56577 14.6534 7.1386C13.2622 5.71143 11.5371 4.99785 9.47828 4.99785H8.92828L10.6685 6.73807L9.4913 7.90112L5.5478 3.9435L9.4913 0L10.6435 1.15217L8.77828 3.00327H9.35328C10.6581 3.00327 11.8804 3.24602 13.02 3.73152C14.1596 4.21704 15.1542 4.88462 16.0038 5.73425C16.8535 6.58388 17.521 7.57649 18.0065 8.71207C18.4921 9.84767 18.7348 11.0656 18.7348 12.3659C18.7348 13.6662 18.4931 14.8852 18.0097 16.0229C17.5262 17.1607 16.8584 18.1558 16.0062 19.0084C15.154 19.861 14.1602 20.529 13.0248 21.0126C11.8895 21.4963 10.6718 21.7381 9.37177 21.7381ZM6.1837 15.7196V10.3913H4.90435V9.09567H7.56088V15.7196H6.1837ZM9.98588 15.7196C9.67421 15.7196 9.41296 15.6149 9.20213 15.4054C8.99129 15.1959 8.88588 14.9363 8.88588 14.6266V10.1886C8.88588 9.87893 8.99129 9.61937 9.20213 9.4099C9.41296 9.20042 9.67421 9.09567 9.98588 9.09567H12.3294C12.641 9.09567 12.9023 9.20042 13.1131 9.4099C13.324 9.61937 13.4294 9.87893 13.4294 10.1886V14.6266C13.4294 14.9363 13.324 15.1959 13.1131 15.4054C12.9023 15.6149 12.641 15.7196 12.3294 15.7196H9.98588ZM10.2772 14.3989H12.0522V10.3913H10.2772V14.3989Z" fill="black"/>
</svg>
