<svg width="24.644081115722656" height="7.4572954177856445" viewBox="0 0 24.644081115722656 7.4572954177856445" fill="none" xmlns="http://www.w3.org/2000/svg">
<path d="M5.69344 7.56417C3.36143 7.52146 1.31132 6.24014 0.24355 4.34378C0.149586 4.17294 0.115417 3.95938 0.115417 3.74583C0.115417 3.27601 0.380223 2.86599 0.790246 2.66952C4.3694 1.02943 8.35004 0.115417 12.5442 0.115417C16.653 0.115417 20.5482 0.995259 24.0847 2.57556H24.059C24.4605 2.76348 24.7595 3.19059 24.7595 3.67749C24.7595 3.89959 24.6655 4.19002 24.5545 4.36941C23.4269 6.28285 21.3597 7.56417 18.985 7.56417C18.6946 7.56417 18.1906 7.57271 18.1906 7.57271L5.69344 7.56417Z" stroke="black" stroke-width="0.2308" stroke-miterlimit="3.8637"/>
</svg>
