<svg width="24.644081115722656" height="7.4572954177856445" viewBox="0 0 24.644081115722656 7.4572954177856445" fill="none" xmlns="http://www.w3.org/2000/svg">
<path d="M5.57802 7.44875C3.24601 7.40604 1.1959 6.12472 0.128132 4.22836C0.0341686 4.05752 0 3.84397 0 3.63041C0 3.16059 0.264806 2.75057 0.674829 2.5541C4.25399 0.914009 8.23463 0 12.4288 0C16.5376 0 20.4328 0.879842 23.9693 2.46014H23.9436C24.3451 2.64807 24.6441 3.07517 24.6441 3.56208C24.6441 3.78417 24.5501 4.0746 24.4391 4.25399C23.3115 6.16743 21.2443 7.44875 18.8696 7.44875C18.5792 7.44875 18.0752 7.4573 18.0752 7.4573L5.57802 7.44875Z" fill="#F9DF4D"/>
</svg>
