<svg width="37.1583137512207" height="11.341266632080078" viewBox="0 0 37.1583137512207 11.341266632080078" fill="none" xmlns="http://www.w3.org/2000/svg">
<path fill-rule="evenodd" clip-rule="evenodd" d="M18.7561 0.115417C19.5676 0.115417 20.2424 0.790247 20.2424 1.61883C20.2424 1.86656 20.1826 2.09719 20.0801 2.30221H20.1741C21.0027 2.30221 21.6775 2.97703 21.6775 3.80562C21.6775 4.63421 21.0027 5.30904 20.1741 5.30904C19.8666 5.30904 19.5932 5.21508 19.3455 5.05277C19.354 6.7612 20.7208 8.13649 22.4207 8.13649C23.8728 8.13649 25.0858 7.13706 25.4104 5.7874C25.1883 5.85574 24.8723 5.8899 24.6075 5.83011C23.796 5.64218 23.292 4.83922 23.4799 4.02772C23.6678 3.21621 24.4708 2.71223 25.2823 2.90016L25.3335 2.9087C25.2823 2.6866 25.2738 2.44742 25.325 2.20824C25.5129 1.39674 26.3159 0.892752 27.1274 1.08068C27.9389 1.26861 28.4429 2.07157 28.255 2.88307C28.2037 3.12225 28.0927 3.3358 27.9474 3.50665L28.0329 3.52373C28.8444 3.71166 29.3484 4.51462 29.1604 5.32612C28.9725 6.13763 28.1695 6.64161 27.358 6.45369C27.1018 6.39389 26.8711 6.2743 26.6832 6.10346L26.6661 6.15471C26.2817 7.81189 27.3068 9.4776 28.9725 9.84492C30.4161 10.161 31.3387 9.75095 31.817 9.26405C31.5779 9.22134 31.3216 9.11029 31.108 8.93945C30.4759 8.40984 30.3905 7.46166 30.9201 6.821C31.4497 6.18888 32.3979 6.10346 33.0386 6.63307L33.423 6.99184C33.9526 6.06929 34.0294 5.91553 34.2943 5.51405C34.747 4.82214 35.4474 5.01861 36.1821 5.48842L37.3353 6.28284L35.1741 8.52943C35.2339 8.6661 35.251 8.81986 35.251 8.97362C35.251 9.6997 34.6616 10.2976 33.9269 10.2976C33.7134 10.2976 33.5169 10.2891 33.3375 10.1951C32.0904 11.2458 30.3563 11.7071 28.6394 11.3142C27.2128 10.981 26.0425 10.1183 25.3079 8.98216L25.3592 8.92236C24.206 9.58865 22.8051 9.83637 21.4127 9.51177C20.3535 9.26405 19.4395 8.7259 18.7561 7.99981C18.0727 8.7259 17.1587 9.26405 16.0995 9.51177C14.7071 9.83637 13.3233 9.65699 12.1701 8.9907L12.153 9.02487C11.4099 10.161 10.2994 10.981 8.8643 11.3142C7.14733 11.7156 5.41327 11.2458 4.16612 10.1951C3.98674 10.2806 3.79027 10.2976 3.57671 10.2976C2.84209 10.2976 2.25268 9.70824 2.25268 8.97362C2.25268 8.81986 2.26977 8.6661 2.32956 8.52943L0.176941 6.2743L1.33013 5.47988C2.06475 5.01006 2.76521 4.81359 3.21794 5.50551C3.48275 5.91553 3.55963 6.06929 4.08924 6.9833L4.47364 6.62453C5.10576 6.09492 6.05393 6.1718 6.59209 6.81246C7.1217 7.44457 7.04482 8.39275 6.40416 8.93091C6.19061 9.11029 5.93434 9.2128 5.69516 9.25551C6.18207 9.74241 7.09608 10.1524 8.5397 9.83637C10.1969 9.4776 11.2219 7.80334 10.8461 6.14617L10.829 6.09492C10.6496 6.26576 10.419 6.38535 10.1542 6.44514C9.3512 6.63307 8.5397 6.12908 8.35177 5.31758C8.16384 4.50608 8.66783 3.70312 9.47933 3.51519L9.56475 3.49811C9.41954 3.31872 9.30849 3.11371 9.25724 2.87453C9.06931 2.06303 9.5733 1.26006 10.3848 1.07214C11.1963 0.88421 11.9993 1.3882 12.1872 2.1997C12.2384 2.43888 12.2384 2.67806 12.1786 2.90016L12.2299 2.89161C13.0414 2.70369 13.8444 3.20767 14.0323 4.01918C14.2202 4.83068 13.7162 5.63364 12.9047 5.82157C12.6485 5.88136 12.3324 5.85574 12.1018 5.77886C12.4264 7.12852 13.6394 8.12795 15.0915 8.12795C16.7914 8.12795 18.1581 6.75266 18.1667 5.04423C17.919 5.20653 17.6456 5.3005 17.3381 5.3005C16.5095 5.3005 15.8347 4.62567 15.8347 3.79708C15.8347 2.96849 16.5095 2.29366 17.3381 2.29366H17.4321C17.3296 2.08865 17.2698 1.85801 17.2698 1.61029C17.2698 0.790247 17.9446 0.115417 18.7561 0.115417Z" fill="#F9DF4D" stroke="#003A69" stroke-width="0.2308" stroke-miterlimit="3.8637"/>
</svg>
