<svg width="25.718807220458984" height="7.593969345092773" viewBox="0 0 25.718807220458984 7.593969345092773" fill="none" xmlns="http://www.w3.org/2000/svg">
<path fill-rule="evenodd" clip-rule="evenodd" d="M0.427809 3.0262C0.598652 3.1885 -0.657043 4.52107 0.701157 5.5803C2.68293 7.11789 2.70856 3.35934 13.335 3.35934C20.6129 3.35934 23.483 5.76823 23.483 5.76823L22.2615 6.07574L21.1596 6.16117L21.4244 5.36675L21.0742 4.87984L20.5873 5.45217L20.2797 5.49488L20.0149 4.67483L19.6647 5.40946L18.8276 5.81094L20.1431 7.65604C22.7826 7.51083 25.7809 5.05923 25.7809 3.90604C25.7809 1.89863 19.1266 0.0620728 13.1983 0.0620728C7.58612 0.0620728 0.248424 2.8639 0.427809 3.0262Z" fill="#F9DF4D" stroke="black" stroke-width="0.1241" stroke-miterlimit="3.8637"/>
</svg>
