<svg width="18.850088119506836" height="23.48900032043457" viewBox="0 0 18.850088119506836 23.48900032043457" fill="none" xmlns="http://www.w3.org/2000/svg">
<path d="M8.32521 2.46431C8.32521 2.46431 8.0178 2.49454 7.9674 2.07122C7.9674 2.07122 8.55702 1.83437 9.1668 1.94524C9.1668 1.94524 8.53183 2.11658 8.32521 2.46431ZM6.64202 4.11221C5.29648 4.54057 5.08987 3.58307 5.39224 3.27566C5.20074 3.30086 4.7371 3.59819 4.96892 4.12733C5.48294 5.08483 7.23164 3.67378 7.74063 4.4801L8.22946 4.77238L7.81622 4.6464C7.52393 4.58592 7.10566 4.49521 6.73778 4.61616L6.50092 4.43978C6.47572 4.54057 6.46564 4.6464 6.46564 4.74719H6.47068C5.94658 5.20578 6.55635 5.68957 6.55635 5.68957C6.50596 5.52327 6.54628 5.33681 6.66218 5.20578C6.66218 5.20578 6.53116 5.8206 7.18629 6.19856C7.18629 6.19856 6.80833 5.36704 7.33747 5.27633C7.53905 5.2461 7.62472 5.39224 7.89685 5.49303C8.35041 5.65933 8.58726 5.28641 8.5923 5.67949C8.59734 5.97682 8.51671 6.10281 8.25969 6.39006C8.07827 6.59164 7.79606 6.76298 7.48866 6.90912C6.93935 7.1359 6.20863 7.3526 5.99193 6.70754C5.99193 6.70754 5.44263 7.14598 5.82563 7.46347C5.82563 7.46347 4.51537 6.73274 4.29867 6.51604C4.08197 6.29935 4.1626 5.84579 3.77456 5.73996C3.77456 5.73996 3.75441 5.11507 3.4722 4.84798C3.4722 4.84798 3.73929 3.53267 2.74147 3.4722C2.74147 3.4722 2.98841 3.82496 2.80699 4.03158C2.62556 4.2382 2.74147 4.39946 2.8977 4.74215C2.8977 4.74215 2.58021 4.52041 2.50462 4.21804C2.42902 3.91567 2.37863 3.71913 2.0561 3.72417C2.0561 3.72417 1.59247 3.21519 1.11372 3.83C1.11372 3.83 1.56728 3.71913 1.57735 4.10717C1.58743 4.49521 2.03091 4.95885 2.22241 5.09995C2.22241 5.09995 1.40601 4.74215 0.95246 5.03444C0.95246 5.03444 0.383 4.9538 0.322526 5.61902C0.352763 5.59382 0.776078 5.28137 0.902065 5.48295C1.02805 5.68453 1.11876 5.73996 1.43625 5.76516C1.75374 5.79036 2.20225 6.06753 2.26272 6.44045C2.26272 6.44045 1.35562 6.27415 1.28003 6.74282C1.1238 6.85873 0.917184 6.86881 0.750881 6.76802C0.750881 6.76802 0.937341 7.66504 2.83218 7.1611C2.83218 7.1611 4.1626 7.5441 2.77675 8.02285C2.77675 8.02285 4.00134 8.06316 4.8127 9.34319C5.26625 9.2928 7.64488 7.59953 7.64488 7.59953C7.64488 7.59953 6.39509 9.36335 4.60608 9.90257C2.41391 10.5678 1.33546 9.19704 0.816394 9.71611C0.816394 9.71611 0.0302368 9.75642 0 10.3964C0 10.3964 0.448513 10.0336 0.579539 10.2755C0.725684 10.5527 1.42113 10.5174 1.78397 10.4821C1.78397 10.4821 0.634973 10.6938 0.589617 11.1876C0.589617 11.1876 -0.050396 11.5958 0.206617 12.1552C0.206617 12.1552 0.413237 11.7672 0.730724 11.7722C1.04821 11.7773 1.28506 11.7369 1.7235 11.3136C1.7235 11.3136 0.897025 12.4878 1.42113 13.0774C1.45641 12.8053 1.67814 12.5987 1.94524 12.5735C2.33831 12.5181 1.93516 11.7571 2.94305 11.8428C2.94305 11.8428 2.95817 12.2409 2.78179 12.5433C2.78179 12.5433 3.02872 12.7549 2.4643 13.0321C2.4643 13.0321 3.21518 13.2337 3.62338 12.4173C3.74937 12.1603 4.04166 10.8702 5.0042 12.0695C5.0042 12.0695 5.33176 11.1675 6.6521 10.9659C7.81622 10.7895 7.04014 11.868 6.5362 12.1401C6.5362 12.1401 9.12145 11.9184 9.42381 16.0658C9.42381 16.0658 9.25751 14.3272 8.13371 13.3647C7.30723 12.6541 5.81051 12.3719 4.24324 13.5159C4.24324 13.5159 5.19066 13.4907 4.88325 14.3927C4.55568 15.3603 6.21871 16.4438 5.23601 16.7159C4.07189 17.0435 3.05896 14.2768 2.14681 15.4158C2.14681 15.4158 2.68604 15.3049 2.95313 15.7484C2.95313 15.7484 2.01075 15.1839 1.57735 16.212C1.60255 16.2019 2.26272 15.8441 2.77171 16.469C2.77171 16.469 1.51184 15.8189 1.18428 17.1745C1.18428 17.1745 1.59247 16.7815 1.98051 17.0737C2.18713 17.23 2.57517 16.8873 2.96825 17.2652C2.96825 17.2652 1.70838 16.9679 1.62775 18.2278C1.62775 18.2278 2.09138 17.7339 2.82714 18.1975C3.67377 18.7368 4.22308 18.1068 4.22308 18.1068L3.97614 18.8174C3.97614 18.8174 5.08483 18.2379 5.81051 18.4495C6.74281 18.7217 7.18629 18.6713 7.27196 17.8801C7.72551 17.618 8.05308 18.2479 8.05308 18.2479C8.15891 17.3509 7.47858 17.2854 7.29212 17.1695C6.98975 16.983 7.9926 16.6605 7.9926 16.6605C7.75575 16.5849 7.52393 16.4841 7.30724 16.3632C6.35477 15.8189 6.96959 14.937 7.90693 15.5266C8.84427 16.1162 9.34822 16.5295 9.34822 16.5295C9.04585 16.7815 8.76868 17.5676 9.08617 18.2278C9.08617 18.2278 9.34822 17.2501 9.73626 18.0363V18.0312C10.1394 18.7217 10.7089 19.2306 12.0695 19.9412C12.8305 20.3343 11.5807 21.4631 10.1898 20.7072C9.06601 20.0974 8.76364 21.1406 8.76364 21.1406C8.76364 21.1406 9.24743 20.7878 9.59012 21.0297C9.59012 21.0297 8.57718 20.9743 8.48143 22.1737C8.52175 22.1485 8.70317 21.7605 9.01561 21.8512C9.01561 21.8512 9.4087 21.2212 9.88745 21.5538C9.88745 21.5538 8.92994 21.4379 8.82411 23.0808C8.82411 23.0808 9.16176 22.5013 9.56996 22.5416C9.56996 22.5416 9.82193 21.6849 10.5174 22.1334C10.5174 22.1334 9.66571 21.7453 9.62539 23.489C9.62539 23.489 9.94792 22.8943 10.3057 23.0103C10.6232 23.1161 11.7117 23.494 12.8809 22.2896H13.4856C13.4856 22.2896 13.6469 21.2212 14.1811 20.8584C14.2567 20.813 14.3373 20.7778 14.423 20.7526C14.4935 20.7374 14.5641 20.7324 14.6296 20.7425C14.8765 20.7878 14.9824 21.0297 14.9824 21.0297C14.9824 21.0297 15.1235 20.4704 14.6094 19.8001C15.325 19.3768 15.2898 18.7065 15.2898 18.7065C14.6901 19.2861 13.7124 19.0996 13.2437 18.898C12.7549 18.6763 12.2006 18.2227 12.8003 17.4013C13.6771 16.1918 13.5259 15.1184 13.536 14.8463C13.536 14.8463 13.9039 15.4359 13.788 16.1666C13.788 16.1666 14.7808 17.0586 16.5496 16.6504C17.4819 16.4237 17.9052 17.6734 17.1896 18.1724C16.4841 18.6612 15.9147 17.9053 15.9147 17.9053C16.2876 18.8829 17.7793 18.9686 18.2882 17.9305C18.7771 16.9326 17.9607 16.0759 17.6482 15.8995C18.515 14.811 18.6763 13.3193 17.2703 11.0113L17.0788 10.6938C16.6555 9.87233 17.7238 9.2172 18.3134 9.80178C18.8779 10.3662 18.2882 11.0113 18.2882 11.0113C19.2054 10.4872 18.9434 8.99546 17.9103 8.70821C17.0435 8.46632 16.4589 8.97027 16.2523 9.31295C15.9298 8.74853 15.6929 8.29498 15.5518 7.9019C15.3704 7.30724 16.1565 7.03511 16.4438 7.4937C16.7159 7.9271 16.2523 8.24459 16.2523 8.24459C16.9024 8.04805 16.9528 7.08047 16.3531 6.74786C16.0658 6.57652 15.708 6.57652 15.4208 6.73778C15.4661 6.46565 15.582 6.20863 15.7584 6.00202C15.9096 5.8206 16.0356 5.76012 16.1616 5.82563C16.5849 6.04737 16.9578 6.09777 17.2652 5.9869C17.5021 5.90123 17.6936 5.71981 17.8045 5.49303L17.8397 5.4124L17.7692 5.46279C17.5726 5.6039 17.3761 5.64421 17.1745 5.58878C17.0989 5.56862 17.0334 5.53335 16.9679 5.48799C17.4063 5.4124 17.7289 5.20578 17.9355 4.88325C18.1824 4.49521 18.2076 4.00134 18.1875 3.65866C18.1723 3.43692 18.1371 3.21519 18.0816 2.99849L18.0615 2.92794L18.0363 2.99849C17.7994 3.64858 17.4114 3.78969 16.9578 3.95095C16.8621 3.98623 16.7613 4.0215 16.6605 4.06182C16.8268 3.83504 16.8772 3.54275 16.7966 3.27566C16.7562 3.10936 16.6605 2.95817 16.5295 2.8473C16.5295 2.8473 16.6403 3.30086 16.1313 3.77457C15.9802 3.9056 15.8441 4.05678 15.7232 4.21804C15.5669 4.44482 15.5165 4.73207 15.582 4.99916C15.4712 5.07475 15.3654 5.15538 15.2595 5.24106C15.2595 5.24106 14.05 6.13808 14.5943 8.0934C14.8967 9.17689 15.5669 10.1142 16.1465 11.0818C15.6274 11.0768 14.8967 11.2935 14.4734 12.13C13.9089 13.2437 14.7909 14.6901 16.0154 14.4986C16.0154 14.4986 14.7556 14.2768 15.0277 13.148C15.2595 12.1955 16.6958 12.0292 17.109 13.2135C17.8397 15.2999 15.3502 16.6555 13.3798 14.0551C12.2661 12.5886 10.1949 11.3439 11.2632 9.90257C11.9889 11.0213 13.3798 10.3964 13.3798 10.3964C11.8075 9.51453 12.6491 7.84143 12.6491 7.84143L13.3647 8.40081C14.04 6.30942 12.891 5.14027 12.9111 5.13523C13.5663 5.11507 13.9845 5.89115 13.9845 5.89115C14.5238 4.12733 13.0825 3.55283 13.0825 3.55283C13.9392 2.78179 14.5994 3.65866 14.5994 3.65866C14.6951 2.16194 13.1782 1.69326 13.1782 1.69326L13.9795 1.44633C12.5332 -0.221736 10.7643 0.927265 10.7643 0.927265C11.1171 0.418278 10.8853 0 10.8853 0C10.8853 0 10.6786 0.559383 9.55484 0.645054C8.55198 0.720646 8.44112 1.38082 8.44112 1.38082C9.01058 1.1742 9.45405 1.31026 9.45405 1.31026C9.45405 1.31026 8.33529 1.49673 7.97748 1.70838C7.55921 1.95028 7.68519 2.06619 7.18629 2.18209C6.63698 2.30808 6.25902 2.41391 6.20359 2.46431C6.13304 2.52982 6.11288 2.60541 6.18847 2.89266L6.76801 2.64069C6.76801 2.64069 6.56139 3.18999 6.12296 3.06904C6.12296 3.06904 5.88106 3.65362 6.2943 3.74433C6.32454 3.84008 6.39509 4.01142 6.50596 4.03158C6.48076 3.92071 6.52108 3.8048 6.61179 3.73425C6.60675 3.73425 6.85368 3.76449 7.2266 3.61834C7.67008 3.447 8.75356 3.03377 8.3756 4.32387C8.38064 4.33395 8.02284 3.66874 6.64202 4.11221Z" fill="#FF0000"/>
</svg>
