<svg width="28.77054214477539" height="7.842229843139648" viewBox="0 0 28.77054214477539 7.842229843139648" fill="none" xmlns="http://www.w3.org/2000/svg">
<path d="M14.4036 1.89988C22.0988 1.89988 26.4177 6.84361 27.1585 7.7608C27.224 7.84143 27.3399 7.86663 27.4357 7.81623C27.864 7.59449 28.2772 7.34756 28.6703 7.08047C28.7711 7.01495 28.8014 6.87889 28.7358 6.7781C28.7308 6.77306 28.7308 6.76802 28.7258 6.76298C27.6322 5.47287 22.9404 0 14.3884 0H14.3834C5.77093 0 1.0439 5.50311 0.046083 6.76298C-0.0295092 6.85873 -0.00935188 6.9948 0.0863982 7.07039C0.0914377 7.07543 0.0964778 7.07543 0.0964778 7.08047C0.494597 7.34756 0.907834 7.59449 1.33115 7.81623C1.4269 7.86663 1.53777 7.84143 1.60832 7.7608C2.34913 6.84361 6.673 1.89988 14.3632 1.89988H14.4036Z" fill="#0032A0"/>
</svg>
