<svg width="49.19743347167969" height="51.65920639038086" viewBox="0 0 49.19743347167969 51.65920639038086" fill="none" xmlns="http://www.w3.org/2000/svg">
<path d="M31.1792 42.4874C31.1591 42.316 31.1137 42.1497 31.0432 41.9985L30.8517 41.5651L29.7279 40.6883C29.4658 40.4867 29.3398 40.4212 29.2441 40.3758L29.9395 40.0684C29.9748 40.139 30.0454 40.2347 30.2117 40.3607L30.7055 40.7437C30.8114 40.8344 30.9172 40.915 30.9978 40.9906C30.9978 40.91 31.0029 40.8143 31.0079 40.6983L31.0633 39.9827C31.0785 39.766 31.0633 39.6652 31.0281 39.5947L31.5824 39.3528C31.5219 39.5594 31.4867 39.7711 31.4715 39.9878L31.3506 41.298L31.5622 41.7768C31.6278 41.933 31.7185 42.0792 31.8293 42.2102L31.1792 42.4874ZM28.0346 43.4348C27.7423 43.4953 27.445 43.5356 27.1477 43.5608C27.1829 43.4146 27.1577 43.2332 27.1174 43.0518L26.7798 41.3988C26.7445 41.2174 26.6941 41.0461 26.6084 40.9201C26.7647 40.8898 27.1577 40.7588 27.5206 40.6883C28.4378 40.5018 29.1282 40.8546 29.3046 41.7113C29.5011 42.6537 29.0123 43.2332 28.0346 43.4348ZM25.6106 43.7119C25.6106 43.5507 25.5804 43.3945 25.525 43.2433L25.4544 43.0518L24.3961 43.0619L24.3356 43.2483C24.2802 43.3995 24.25 43.5608 24.25 43.7271L23.5948 43.7321C23.7007 43.586 23.7964 43.4045 23.9073 43.1123L24.4818 41.5802C24.6027 41.2527 24.6279 41.1116 24.5977 41.0058L25.1016 41.0007C25.1671 41.0007 25.2276 41.041 25.2528 41.1015L26.0793 43.0921C26.1549 43.2685 26.2859 43.5608 26.3867 43.7019L25.6106 43.7119ZM23.0506 41.4643C22.854 41.3484 22.7331 41.298 22.4357 41.2426L21.9368 41.1469C21.9268 41.1771 21.9217 41.2124 21.9167 41.2426L21.8159 41.7869L22.6071 41.9381C22.6323 41.9431 22.6524 41.9683 22.6474 41.9985L22.5718 42.4067C22.4458 42.3412 22.3098 42.2858 22.0024 42.2303L21.7453 42.1799L21.5992 42.9258C21.5942 42.956 21.5891 42.9913 21.5841 43.0215L22.0326 43.1072C22.4005 43.1778 22.6222 43.1626 22.8137 43.1223L22.6373 43.6313L21.579 43.4297L21.3371 43.3844L20.8836 43.2987C20.9642 43.1475 21.0197 42.9863 21.0499 42.82L21.3674 41.1368C21.4027 40.9705 21.4077 40.7991 21.3875 40.6328L23.1463 40.9654L23.0506 41.4643ZM20.2385 41.3031C20.0672 41.6407 19.6943 41.7163 19.3969 41.676C19.4524 42.2757 19.659 42.9006 19.911 43.0014C19.7648 43.1072 19.5733 43.1223 19.407 43.0467C19.2357 42.9711 19.0694 42.7796 18.9787 42.5075C18.8527 42.1094 18.8023 41.6911 18.8224 41.2779C18.8275 41.2527 18.8476 41.2275 18.8779 41.2325C18.8829 41.2325 18.888 41.2325 18.893 41.2376C19.1651 41.3484 19.5129 41.4139 19.6691 41.0763C19.8102 40.7689 19.6741 40.5169 19.3717 40.3708C19.2911 40.3305 19.2004 40.3002 19.1147 40.2851C19.0895 40.3254 19.0694 40.3708 19.0492 40.4111L18.3437 41.9733C18.2681 42.1296 18.2227 42.2908 18.2026 42.4622L17.5575 42.1699C17.6734 42.0439 17.7642 41.8977 17.8297 41.7415L18.5352 40.1793C18.6057 40.0281 18.6561 39.8668 18.6713 39.7005C18.9736 39.8215 19.1853 39.8819 19.4776 40.013C20.0269 40.2599 20.5359 40.7084 20.2385 41.3031ZM38.7586 37.6595C37.2468 36.7121 35.997 36.2838 34.8077 35.8907C34.6716 35.8453 34.5255 35.8806 34.4247 35.9814C33.6234 36.7827 29.9093 40.018 24.7035 40.018H24.6582C19.4473 40.018 15.7383 36.7827 14.937 35.9814C14.8362 35.8806 14.685 35.8504 14.554 35.8907C13.3697 36.2838 12.1199 36.7121 10.6031 37.6595C10.4267 37.7704 10.3712 38.0022 10.4821 38.1836C10.4872 38.1937 10.4972 38.2038 10.5023 38.2139C11.5958 39.6199 16.3985 44.7652 24.6733 44.7652H24.6884C32.9632 44.7652 37.7658 39.6249 38.8594 38.2139C38.9854 38.0476 38.9552 37.8107 38.7939 37.6847C38.7788 37.6747 38.7637 37.6696 38.7586 37.6595ZM8.57719 12.8704C7.59953 12.9611 6.52108 12.7897 5.95162 12.6184C5.89619 12.5982 5.86595 12.5428 5.88107 12.4874L5.89619 12.4571C6.24391 11.9381 6.54628 11.2476 5.91635 10.7689C5.34185 10.3355 4.75223 10.4867 4.31883 11.0561C4.19788 11.2124 4.10213 11.3787 4.0215 11.5601C4.09709 11.6256 4.18277 11.6911 4.25836 11.7516C5.23098 12.4823 6.19856 13.2181 7.16614 13.9538C7.47858 14.1907 7.81623 14.3822 8.10852 14.4729C7.81119 14.8811 7.52394 15.2893 7.23669 15.7025C7.02503 15.4052 6.76802 15.1432 6.47573 14.9265C5.50815 14.1907 4.53553 13.4549 3.56795 12.7192C3.28574 12.5025 2.96825 12.3261 2.63565 12.2102C3.00857 11.6206 3.22023 11.1972 3.62842 10.6429C4.3793 9.61485 5.58878 8.78334 6.68235 9.69549C7.30724 10.2095 7.27197 11.0461 7.03511 11.6256C8.31514 11.807 9.72619 11.7113 10.084 11.2275C10.2402 11.5954 10.1495 11.9633 9.92273 12.2455C9.67076 12.5579 9.19705 12.8099 8.57719 12.8704ZM12.7751 6.95401C12.2107 6.53573 11.6462 6.1225 11.0818 5.7143C11.0062 5.65887 10.8953 5.56815 10.7895 5.48248C10.8298 5.61351 10.8601 5.75462 10.8853 5.85037C11.0566 6.52566 11.228 7.20094 11.4043 7.88631C11.8478 7.55875 12.3064 7.2463 12.7751 6.95401ZM10.855 9.49391C10.5779 8.32475 10.3108 7.16567 10.0487 6.01667C9.87737 5.2809 9.75643 4.99365 9.57501 4.84751C9.8673 4.63585 10.1646 4.43427 10.462 4.23773C10.5829 4.16214 10.7391 4.16718 10.855 4.24781C12.13 5.11964 13.4151 6.01667 14.7102 6.92881C15.058 7.16567 15.6577 7.55875 16.0205 7.71497C15.5216 7.96191 15.0378 8.22396 14.559 8.50113C14.3675 8.21388 14.1307 7.96191 13.8535 7.75529L13.5008 7.49323C12.8557 7.88631 12.2258 8.30963 11.621 8.76318C11.6563 8.89925 11.6966 9.03028 11.7319 9.16634C11.8629 9.67533 12.0141 9.93738 12.1451 10.1289C11.7773 10.4111 11.4144 10.7084 11.0617 11.0108C11.0768 10.6127 11.0163 10.149 10.855 9.49391ZM17.0536 6.12754C16.7563 4.9483 16.4489 3.75394 16.1465 2.57471C16.0507 2.19675 15.9046 1.83894 15.7232 1.60209C16.086 1.46602 16.4539 1.33499 16.8218 1.21405C16.9226 1.17877 17.0334 1.19389 17.1241 1.25436C18.1774 2.08588 19.2407 2.97786 20.294 3.89505C20.4351 4.01096 20.7173 4.25285 20.8836 4.41915C20.8332 4.26797 20.7576 3.99584 20.7274 3.85473C20.5409 3.05346 20.3645 2.28242 20.173 1.48618C20.0924 1.12838 19.9513 0.790731 19.7598 0.478283C20.168 0.392612 20.5762 0.32206 20.9894 0.256547C20.9491 0.558915 20.9844 0.946955 21.0751 1.32492C21.3523 2.51927 21.6194 3.68339 21.8864 4.87775C21.9721 5.27083 22.1082 5.64375 22.2795 5.91084C21.9016 5.96627 21.5236 6.02675 21.1456 6.10234C21.0801 6.11242 21.0146 6.0973 20.9642 6.05194C19.8555 5.05413 18.7317 4.09159 17.618 3.19456C17.4769 3.08369 17.23 2.90731 17.0989 2.77125C17.1544 2.88211 17.2501 3.23488 17.2854 3.37598C17.487 4.1823 17.6986 5.00877 17.9002 5.82013C17.996 6.20817 18.1371 6.57101 18.2983 6.82298C17.9153 6.94393 17.5323 7.07496 17.1544 7.21606C17.1997 6.90362 17.1493 6.51054 17.0536 6.12754ZM23.6654 2.74101C23.9022 0.785692 25.5552 -0.186927 27.2031 0.0297704C28.0598 0.140639 28.6645 0.483323 28.9115 0.720178C28.8661 1.10822 28.8157 1.49626 28.7704 1.8843C28.5537 1.59201 27.833 1.00239 26.9713 0.891521C25.6257 0.720179 25.026 1.67264 24.9051 2.6503C24.7388 3.9908 25.4846 4.93318 26.6538 5.07933C27.0066 5.11964 27.3694 5.08436 27.7121 4.97854C27.7625 4.54514 27.8179 4.11175 27.8683 3.68339C27.8078 3.67835 27.7524 3.66827 27.697 3.65819C27.1981 3.58764 26.8755 3.59772 26.5379 3.65819C26.5732 3.3659 26.6084 3.07361 26.6437 2.78132C26.6488 2.72589 26.6941 2.68557 26.7495 2.68557H26.7546C27.5105 2.78132 28.2715 2.88715 29.0274 3.00306C28.8964 4.07647 28.7653 5.14484 28.6343 6.21825C28.4327 6.10234 28.2311 5.99147 28.0245 5.87556C27.9489 5.84029 27.8683 5.83021 27.7877 5.85037C27.2988 5.95619 26.7999 5.97635 26.301 5.92092C24.8295 5.74454 23.4285 4.69129 23.6654 2.74101ZM31.1087 5.70926C31.5723 4.58546 32.0359 3.45661 32.4996 2.33281C32.6457 1.97501 32.7465 1.59705 32.7667 1.29972C33.9812 1.6928 35.1604 2.17659 36.2994 2.74605C36.1633 3.07865 36.0272 3.41126 35.8912 3.74386C35.5384 3.38606 35.3217 3.21472 34.727 2.95771C34.3944 2.81156 34.0618 2.6755 33.7242 2.54951C33.6889 2.61502 33.6587 2.68053 33.6335 2.74605L33.1799 3.83961C33.7141 4.04119 34.2432 4.26797 34.7623 4.50483C34.8177 4.52498 34.8429 4.58546 34.8228 4.64089C34.7119 4.91302 34.596 5.18515 34.4851 5.46233C34.2584 5.25571 33.9913 5.07429 33.3765 4.82231C33.2051 4.75176 33.0338 4.68625 32.8574 4.61569C32.6508 5.1146 32.4441 5.61855 32.2375 6.11746C32.2123 6.18297 32.1821 6.24848 32.1569 6.31904C32.4643 6.43494 32.7667 6.56093 33.069 6.68692C33.7998 6.99937 34.2533 7.09008 34.6615 7.13039C34.465 7.45292 34.2684 7.77544 34.0769 8.10301C32.9431 7.53859 31.7638 7.05984 30.5594 6.6718C30.761 6.42487 30.9525 6.07714 31.1087 5.70926ZM38.4058 10.3859C38.3353 9.40823 38.5268 8.33483 38.7082 7.76537C38.7284 7.70993 38.7889 7.6797 38.8443 7.69985C38.8544 7.70489 38.8644 7.70993 38.8745 7.71497C39.3835 8.07277 40.0739 8.39026 40.5627 7.76537C41.0062 7.20094 40.8651 6.60629 40.3057 6.16281C40.1545 6.04187 39.9882 5.93604 39.8068 5.8554C39.7413 5.92596 39.6708 6.01163 39.6103 6.09226L37.3476 8.95972C37.1057 9.26713 36.9041 9.59974 36.8134 9.89202C36.4153 9.58966 36.0071 9.29233 35.5989 9.00004C35.9012 8.79342 36.1633 8.54145 36.3901 8.2542L38.6528 5.39177C38.8745 5.1146 39.0559 4.80215 39.1819 4.46955C39.7615 4.85759 40.1797 5.07429 40.729 5.49256C41.742 6.2636 42.5483 7.48819 41.616 8.56664C41.0869 9.18146 40.2553 9.13106 39.6808 8.88413C39.4742 10.1591 39.5397 11.5752 40.0235 11.9381C39.6556 12.0892 39.2878 11.9884 39.0056 11.7566C38.6981 11.4895 38.4562 11.0108 38.4058 10.3859ZM40.6131 12.8552L41.621 12.1547C41.5001 12.8099 41.6714 13.6616 42.0141 14.1605C42.3215 14.6039 42.7045 14.6594 43.0321 14.4326C44.0097 13.7523 42.2459 11.7718 43.788 10.7034C44.7002 10.0734 45.7484 10.5623 46.4186 11.5349C46.7563 12.0237 46.9326 12.5378 46.9679 12.82L46.0104 13.4852C46.0457 13.0568 45.9802 12.3664 45.6425 11.8776C45.3553 11.4643 44.9874 11.3333 44.6649 11.5601C43.7729 12.1799 45.5417 14.1655 43.909 15.2943C42.9817 15.9344 41.9536 15.5514 41.2431 14.5334C40.7996 13.9034 40.6131 13.1979 40.6131 12.8552ZM0.891987 32.5596L3.80984 31.587C4.12229 31.4811 4.41962 31.34 4.6212 31.1737L5.64421 34.2277L4.78246 34.5149C4.79254 34.1017 4.76734 33.8749 4.596 33.3558L4.30371 32.484L4.13237 32.5445L3.18495 32.862L3.64354 34.2327C3.65866 34.278 3.6385 34.3284 3.59315 34.3436L2.88762 34.5804C2.88258 34.3234 2.83723 34.0614 2.66084 33.5322L2.5147 33.0887L1.21955 33.5221C0.902067 33.628 0.604737 33.7741 0.403158 33.9354L0 32.7259C0.257013 32.7309 0.57954 32.6654 0.891987 32.5596ZM5.75508 39.5342C6.66723 38.9698 6.98975 37.9619 6.47573 37.1254C5.99194 36.3442 5.07475 36.2082 4.2634 36.7121C3.36637 37.2665 3.02873 38.2693 3.55787 39.1311C4.02654 39.8971 4.95885 40.0281 5.75508 39.5342ZM3.56795 35.931C4.84798 35.1398 6.35478 35.5228 7.18125 36.8633C7.97749 38.1584 7.6852 39.5594 6.44045 40.3254C5.16042 41.1166 3.67882 40.7487 2.8473 39.3982C2.05107 38.1081 2.31816 36.697 3.56795 35.931ZM9.89753 43.969C10.6333 43.1878 10.6837 42.1296 9.96809 41.4593C9.29784 40.8294 8.38065 40.9352 7.72552 41.6306C7.00487 42.3966 6.93432 43.4549 7.67008 44.1453C8.32522 44.7602 9.25752 44.6493 9.89753 43.969ZM6.85369 41.0511C7.88678 39.9575 9.43894 39.9374 10.5829 41.0209C11.6865 42.064 11.7672 43.4902 10.7593 44.5586C9.72619 45.6521 8.19923 45.6824 7.05023 44.5888C5.95162 43.5456 5.84579 42.1144 6.85369 41.0511ZM11.8528 47.0531L13.4 44.3973C13.4302 44.3419 13.4554 44.2915 13.4856 44.2361L13.1682 44.0496C12.6793 43.7623 12.4122 43.6868 12.0746 43.6313L12.5281 42.8502L16.0457 44.9013L15.5871 45.6824C15.3704 45.4304 15.1688 45.2188 14.68 44.9365L14.3625 44.7501C14.3272 44.8005 14.292 44.8509 14.2668 44.9013L12.7196 47.5571C12.5483 47.8443 12.4223 48.1517 12.377 48.4087L11.2783 47.7687C11.5051 47.5571 11.6966 47.3152 11.8528 47.0531ZM18.7267 49.3864C18.9031 48.7867 18.4294 48.3886 17.7541 48.1668C17.7289 48.1618 17.7087 48.1366 17.7138 48.1064C17.7138 48.1013 17.7138 48.1013 17.7188 48.0963L17.8549 47.6377C17.8649 47.6075 17.8901 47.5923 17.9204 47.5974H17.9254C18.4394 47.7284 18.8376 47.5369 18.9837 47.0531C19.1147 46.6197 18.8476 46.2468 18.3135 46.0906C18.2177 46.0603 18.1169 46.0503 18.0161 46.0553L16.8923 49.8248C17.0284 49.9004 17.1695 49.9609 17.3156 50.0113C17.9405 50.1978 18.5453 50.0113 18.7267 49.3864ZM15.6627 49.9559C15.8391 49.7492 15.955 49.4368 16.0507 49.1193L16.9175 46.2216C17.0133 45.9092 17.0788 45.5866 17.0485 45.3145C17.618 45.4606 17.9859 45.506 18.3689 45.6219C19.3969 45.9293 20.2537 46.4232 19.9614 47.4008C19.7951 47.9602 19.2911 48.1618 18.8073 48.1165C19.3264 48.3281 19.9614 48.9026 19.7346 49.6585C19.3516 50.9386 18.0212 50.7521 17.2904 50.5354C16.7411 50.3741 16.1969 50.1776 15.6627 49.9559ZM23.741 49.6384L23.2421 47.9501C23.2169 47.8695 23.1917 47.7586 23.1665 47.6478C23.1262 47.7586 23.0758 47.8645 23.0405 47.9401L22.3501 49.5527L23.741 49.6384ZM21.1658 50.2683L22.3954 47.6024C22.6575 47.033 22.723 46.7759 22.6776 46.5844L23.5848 46.6449C23.7057 46.655 23.8065 46.7356 23.8468 46.8515L25.0664 50.5253C25.1772 50.8479 25.3838 51.3921 25.5451 51.6592L24.1542 51.5685C24.1744 51.2812 24.1441 50.994 24.0635 50.7168L23.9577 50.3691L22.0527 50.2482L21.9217 50.5656C21.7504 50.9688 21.7201 51.2157 21.705 51.4123L20.5359 51.3417C20.7425 51.0948 20.939 50.7723 21.1658 50.2683ZM26.9914 50.5757L26.5379 47.5369C26.4976 47.2345 26.4069 46.9423 26.2758 46.6651L27.5307 46.4786C27.4752 46.7306 27.4853 47.0632 27.5307 47.3857L27.9842 50.4245C27.9943 50.485 28.0044 50.5455 28.0195 50.6009L28.7452 50.4951C29.4053 50.3943 29.7783 50.2381 30.0806 50.0617L30.0756 51.0293L26.9914 51.4879C27.0368 51.1855 27.0368 50.8781 26.9914 50.5757ZM31.7386 49.6535L30.7005 46.7608C30.5997 46.4736 30.4536 46.2015 30.2721 45.9596L31.4665 45.5312C31.4665 45.7933 31.537 46.1107 31.6479 46.4232L32.686 49.3158C32.7062 49.3713 32.7264 49.4267 32.7516 49.4821L33.442 49.2352C34.0719 49.0084 34.4045 48.7817 34.6716 48.5498L34.8581 49.4973L31.9251 50.5505C31.9049 50.2482 31.8445 49.9407 31.7386 49.6535ZM36.123 46.2922C35.236 45.0071 35.5283 43.5356 36.8386 42.6335C37.2972 42.316 37.7558 42.1598 38.0833 42.1396L38.6427 42.956C38.169 42.9107 37.5844 43.0064 37.1309 43.3189C36.4001 43.8228 36.3044 44.735 36.8738 45.5614C37.4786 46.4383 38.4663 46.7054 39.2928 46.1359C39.7816 45.7983 39.9882 45.3397 40.089 44.7854L40.6535 45.6068C40.5073 45.9596 40.1193 46.4635 39.5448 46.8616C38.2698 47.7435 36.9545 47.5016 36.123 46.2922ZM41.6815 43.8833L39.444 41.7717C39.2222 41.5601 38.9703 41.3837 38.6981 41.2527L39.57 40.3305C39.6859 40.5623 39.8975 40.8193 40.1344 41.0461L42.3719 43.1526L42.508 43.2735L43.0119 42.7393C43.4705 42.2505 43.662 41.8977 43.7981 41.5702L44.3927 42.3311L42.256 44.5989C42.0998 44.3318 41.9083 44.0899 41.6815 43.8833ZM43.6771 39.9727L42.0242 38.9597C41.747 38.7884 41.4447 38.6523 41.1876 38.6019L41.8478 37.5184C42.0494 37.7502 42.2862 37.9468 42.5433 38.103L44.1408 39.0807C44.7354 39.4435 45.4561 39.766 45.9499 38.9547C46.4438 38.1484 45.8844 37.5688 45.2898 37.2009L43.6923 36.2233C43.4201 36.057 43.1178 35.9209 42.8658 35.8705L43.41 34.9836C43.6116 35.2104 43.8485 35.4069 44.1105 35.5631L45.7584 36.576C46.6555 37.1254 47.3711 37.9821 46.5244 39.3679C45.7181 40.6832 44.6548 40.5774 43.6771 39.9727ZM47.9002 32.5142C47.3056 32.3227 46.8974 32.7914 46.6555 33.4617C46.6504 33.4869 46.6252 33.507 46.595 33.502C46.59 33.502 46.5849 33.502 46.5849 33.4969L46.1263 33.3457C46.0961 33.3357 46.081 33.3054 46.0911 33.2802C46.2322 32.7712 46.0507 32.363 45.572 32.2119C45.1436 32.0708 44.7657 32.3328 44.5943 32.862C44.5641 32.9577 44.549 33.0585 44.549 33.1542L48.2883 34.3637C48.3689 34.2327 48.4294 34.0916 48.4848 33.9454C48.6914 33.3155 48.515 32.7108 47.9002 32.5142ZM48.3991 35.5833C48.1925 35.4019 47.8901 35.2809 47.5727 35.1751L44.6951 34.2428C44.3827 34.142 44.0652 34.0664 43.7931 34.0916C43.9543 33.5272 44.0097 33.1593 44.1307 32.7813C44.4633 31.7583 44.9773 30.9167 45.9449 31.2292C46.4992 31.4106 46.6908 31.9196 46.6353 32.3983C46.8621 31.8843 47.4517 31.2644 48.1976 31.5063C49.4725 31.9196 49.2508 33.25 49.019 33.9706C48.8376 34.5199 48.631 35.0592 48.3991 35.5833ZM9.49941 36.9742C8.11356 35.3615 6.9192 32.5999 6.69746 31.1334C6.68739 31.0427 6.74786 30.9621 6.83353 30.9419C7.84143 30.6647 10.7038 29.9441 11.8881 29.7929C11.9788 29.7828 12.0645 29.8383 12.0847 29.929C12.5483 32.0607 13.41 33.8447 13.9594 34.7366C14.0097 34.8223 13.9845 34.9281 13.8989 34.9836C13.8888 34.9886 13.8737 34.9987 13.8636 34.9987C11.4144 35.805 10.1092 36.7222 9.72115 36.9893C9.6506 37.0397 9.55485 37.0346 9.49941 36.9742ZM11.8226 23.5087C11.8377 23.3978 11.7621 23.292 11.6513 23.2769C9.82194 22.9695 7.94726 22.4706 6.61179 22.1279C6.51604 22.1027 6.41525 22.1531 6.37998 22.2488C6.23887 22.7326 6.13808 23.2265 6.08265 23.7254C5.81052 25.8168 5.94658 28.4877 6.37494 29.8483C6.41021 29.9441 6.511 29.9945 6.60675 29.9693C7.94222 29.6266 9.8169 29.1277 11.6462 28.8203C11.7571 28.8052 11.8377 28.6993 11.8176 28.5885C11.6916 27.7066 11.6513 26.618 11.6513 26.0486H11.6563C11.6563 25.4842 11.6966 24.3956 11.8226 23.5087ZM39.8623 15.128C41.2481 16.7407 42.4425 19.5023 42.6642 20.9688C42.6743 21.0595 42.6138 21.1401 42.5281 21.1603C41.5202 21.4375 38.6578 22.1581 37.4735 22.3093C37.3828 22.3194 37.2972 22.2639 37.277 22.1732C36.8134 20.0415 35.9516 18.2576 35.4023 17.3656C35.3519 17.2799 35.3771 17.1741 35.4628 17.1186C35.4729 17.1136 35.488 17.1035 35.4981 17.1035C37.9473 16.2972 39.2525 15.38 39.6405 15.1129C39.706 15.0575 39.8018 15.0676 39.8623 15.128ZM39.8623 36.9742C41.2481 35.3615 42.4425 32.5999 42.6692 31.1334C42.6793 31.0427 42.6189 30.9621 42.5332 30.9419C41.5253 30.6647 38.6629 29.9441 37.4786 29.7929C37.3879 29.7828 37.3022 29.8383 37.282 29.929C36.8184 32.0607 35.9567 33.8447 35.4074 34.7366C35.357 34.8223 35.3822 34.9281 35.4678 34.9836C35.4779 34.9886 35.493 34.9987 35.5031 34.9987C37.9523 35.805 39.2575 36.7222 39.6456 36.9893C39.706 37.0397 39.8018 37.0346 39.8623 36.9742ZM37.5391 23.5087C37.5239 23.3978 37.5995 23.292 37.7104 23.2769C39.5397 22.9695 41.4144 22.4706 42.7499 22.1279C42.8456 22.1027 42.9464 22.1531 42.9817 22.2488C43.1228 22.7326 43.2236 23.2265 43.279 23.7254C43.5512 25.8168 43.4151 28.4877 42.9867 29.8483C42.9515 29.9441 42.8507 29.9945 42.7549 29.9693C41.4195 29.6266 39.5448 29.1277 37.7154 28.8203C37.6046 28.8052 37.5239 28.6993 37.5441 28.5885C37.6701 27.7066 37.7104 26.618 37.7104 26.0486H37.7054C37.7054 25.4842 37.6701 24.3956 37.5391 23.5087Z" fill="#0032A0"/>
</svg>
