<svg width="29.790115356445312" height="12.141271591186523" viewBox="0 0 29.790115356445312 12.141271591186523" fill="none" xmlns="http://www.w3.org/2000/svg">
<path d="M2.80304 4.95884C1.41719 6.57147 0.222834 9.33311 0.00109702 10.7996C-0.00898194 10.8903 0.0514916 10.9709 0.137163 10.9911C1.14506 11.2683 4.00748 11.9889 5.19176 12.1401C5.28247 12.1502 5.36814 12.0947 5.3883 12.004C5.85193 9.87233 6.71368 8.08836 7.26298 7.19637C7.31338 7.1107 7.28818 7.00487 7.20251 6.94943C7.19243 6.9444 7.17731 6.93432 7.16723 6.93432C4.71805 6.128 3.41282 5.21082 3.02478 4.94372C2.95927 4.88829 2.86352 4.89333 2.80304 4.95884ZM17.9971 1.93516C23.3792 1.93516 27.2294 5.45775 27.8492 6.07257C27.9097 6.13304 27.9903 6.1532 28.071 6.128C28.6052 5.9617 29.1343 5.7702 29.6483 5.54846C29.7642 5.50311 29.8197 5.37712 29.7743 5.26121C29.7642 5.23601 29.7491 5.21586 29.734 5.1957C28.8168 4.14749 24.8356 0 18.0071 0H17.9719C11.1434 0 7.16219 4.14245 6.23997 5.20074C6.15934 5.29145 6.16941 5.43255 6.26013 5.51318C6.28028 5.5283 6.30044 5.54342 6.32564 5.5535C6.83966 5.77524 7.36881 5.96674 7.90803 6.13304C7.98867 6.15824 8.0693 6.13808 8.12977 6.07761C8.74963 5.45775 12.5998 1.9402 17.9819 1.9402L17.9971 1.93516Z" fill="#0032A0"/>
</svg>
