<svg width="4.264036178588867" height="2.0333518981933594" viewBox="0 0 4.264036178588867 2.0333518981933594" fill="none" xmlns="http://www.w3.org/2000/svg">
<path d="M2.99849 0.0276337C2.92793 0.0427522 2.85234 0.0578694 2.78179 0.0830669C2.78683 0.128422 2.79691 0.173778 2.80699 0.219134L3.14967 1.89728C3.15975 1.94264 3.16983 1.988 3.17991 2.03335C3.27566 2.02831 3.37141 2.01823 3.46716 1.99807C3.74937 1.94264 4.41458 1.73098 4.23316 0.838991C4.07189 0.0578694 3.54779 -0.0681167 2.99849 0.0276337ZM0.372922 0.516462C0.352764 0.581976 0.332608 0.642452 0.317489 0.682768L0 1.60499L0.77608 1.59492L0.433396 0.677727C0.413239 0.64245 0.39308 0.581976 0.372922 0.516462Z" fill="#0032A0"/>
</svg>
