<svg width="16" height="19.75" viewBox="0 0 16 19.75" fill="none" xmlns="http://www.w3.org/2000/svg">
<path fill-rule="evenodd" clip-rule="evenodd" d="M0.83791 0H6.1787L6.2463 0.67537C6.413 2.34226 6.75 6.20879 6.75 8.75C6.75 10.1556 6.3223 11.1364 5.61888 11.7519C5.22092 12.1001 4.77409 12.2965 4.35 12.3998V17.989L6.2707 18.5291C6.702 18.6503 7 19.0437 7 19.4917V19.75H0V19.4917C0 19.0437 0.29801 18.6503 0.72932 18.5291L2.85 17.9328V12.4422C2.36902 12.3551 1.84226 12.1554 1.38112 11.7519C0.67768 11.1364 0.25 10.1556 0.25 8.75C0.25 6.21299 0.58608 2.01469 0.75579 0.65697L0.83791 0ZM2.17171 1.5C1.99895 3.21614 1.75 6.61264 1.75 8.75C1.75 9.8444 2.07232 10.3636 2.36888 10.6231C2.68588 10.9004 3.10893 11 3.5 11C3.89107 11 4.31412 10.9004 4.63112 10.6231C4.92768 10.3636 5.25 9.8444 5.25 8.75C5.25 6.58213 4.99376 3.37155 4.8189 1.5H2.17171ZM9.8379 0H15.1787L15.2463 0.67537C15.413 2.34226 15.75 6.20879 15.75 8.75C15.75 10.1556 15.3223 11.1364 14.6189 11.7519C14.2209 12.1001 13.7741 12.2965 13.35 12.3998V17.989L15.2707 18.5291C15.702 18.6503 16 19.0437 16 19.4917V19.75H9V19.4917C9 19.0437 9.298 18.6503 9.7293 18.5291L11.85 17.9328V12.4422C11.369 12.3551 10.8423 12.1554 10.3811 11.7519C9.6777 11.1364 9.25 10.1556 9.25 8.75C9.25 6.21299 9.5861 2.01469 9.7558 0.65697L9.8379 0ZM11.1717 1.5C10.999 3.21614 10.75 6.61264 10.75 8.75C10.75 9.8444 11.0723 10.3636 11.3689 10.6231C11.6859 10.9004 12.1089 11 12.5 11C12.8911 11 13.3141 10.9004 13.6311 10.6231C13.9277 10.3636 14.25 9.8444 14.25 8.75C14.25 6.58213 13.9938 3.37155 13.8189 1.5H11.1717Z" fill="black"/>
</svg>
