<svg width="12" height="12" viewBox="0 0 12 12" fill="none" xmlns="http://www.w3.org/2000/svg">
<path fill-rule="evenodd" clip-rule="evenodd" d="M5.99998 0C6.20757 0 6.39723 0.123352 6.48908 0.318197L8.04777 3.6231L11.5334 4.15633C11.7388 4.18775 11.9094 4.33847 11.9734 4.54513C12.0374 4.7518 11.9838 4.97858 11.8351 5.13017L9.31338 7.70088L9.90847 11.3326C9.9436 11.5468 9.85943 11.7632 9.69149 11.891C9.52349 12.0187 9.30078 12.0355 9.11702 11.9344L5.99998 10.2187L2.88298 11.9344C2.6992 12.0355 2.4765 12.0187 2.30852 11.891C2.14053 11.7632 2.05639 11.5468 2.09149 11.3326L2.68663 7.70088L0.164888 5.13017C0.016188 4.97858 -0.0374151 4.7518 0.0266088 4.54513C0.0906329 4.33847 0.261185 4.18775 0.46658 4.15633L3.95222 3.6231L5.51087 0.318197C5.60278 0.123352 5.79238 0 5.99998 0ZM5.99998 1.86065L4.80366 4.3973C4.72427 4.56563 4.5709 4.68235 4.39343 4.7095L1.71732 5.11889L3.65331 7.09243C3.78197 7.22362 3.84069 7.41264 3.81033 7.59789L3.35356 10.3853L5.74612 9.06843C5.90507 8.98097 6.09494 8.98097 6.25388 9.06843L8.6464 10.3853L8.18964 7.59789C8.15931 7.41264 8.218 7.22362 8.34667 7.09243L10.2826 5.11889L7.60655 4.7095C7.42906 4.68235 7.27573 4.56563 7.19632 4.3973L5.99998 1.86065Z" fill="#FFBD0A"/>
</svg>
