<svg width="6.4775848388671875" height="3.2807388305664062" viewBox="0 0 6.4775848388671875 3.2807388305664062" fill="none" xmlns="http://www.w3.org/2000/svg">
<path fill-rule="evenodd" clip-rule="evenodd" d="M6.47758 0.0144C5.83919 0.8496 5.24399 1.9416 4.29479 2.5656C3.91199 2.8056 3.47279 3.018 3.04799 3.2028C2.67959 3.4008 2.25359 3.1608 1.8288 3.1464C1.2048 3.0468 0.638398 3.0756 0 3.132L0.1416 2.8908C1.0212 2.3952 1.9416 1.7856 2.97719 1.5444C3.06119 1.53 3.14639 1.4592 3.16079 1.3884C3.17519 1.3032 3.10439 1.2468 3.06119 1.2048C2.0556 1.4316 1.0632 1.644 0.269999 2.3388H0.241199L0.212399 2.154C0.892798 1.488 1.8144 1.332 2.67959 1.0488C3.98279 0.7656 5.28719 0.5664 6.44878 0L6.47758 0.0144Z" fill="#FFED00"/>
</svg>
