<svg width="5.782796859741211" height="1.6086654663085938" viewBox="0 0 5.782796859741211 1.6086654663085938" fill="none" xmlns="http://www.w3.org/2000/svg">
<path fill-rule="evenodd" clip-rule="evenodd" d="M0.3696 0.289845L0 0.233445C0.5112 0.587445 0.9072 1.01224 1.5024 1.23904C2.6652 1.55104 4.0824 1.76344 5.316 1.46584C5.4144 1.42384 5.4852 1.35304 5.556 1.26784C5.0184 1.22584 4.5072 1.18264 3.9408 1.19704C3.714 1.19704 3.5436 1.11184 3.3312 1.06984C3.2748 1.02664 3.2604 0.941445 3.2892 0.870645L3.3732 0.785445C3.8988 0.870645 4.4232 0.814245 4.9332 0.772245C5.2164 0.772245 5.5284 0.828645 5.7828 0.856245C5.5284 0.629445 5.2728 0.417045 5.0184 0.148245C4.0968 -0.0929553 3.1332 -0.00775532 2.226 0.175845C1.6164 0.304245 0.992399 0.346245 0.3552 0.275445L0.3696 0.289845Z" fill="#FFED00"/>
</svg>
