<svg width="35.19970703125" height="4.790382385253906" viewBox="0 0 35.19970703125 4.790382385253906" fill="none" xmlns="http://www.w3.org/2000/svg">
<path fill-rule="evenodd" clip-rule="evenodd" d="M21.4164 1.91399C21.5436 2.23919 21.6 2.66519 21.3732 2.97719C20.9484 3.44399 20.3244 3.58559 19.6728 3.62879H19.4172V1.65839C19.5588 1.60199 19.7436 1.55879 19.8852 1.51679C20.4096 1.3752 21.1188 1.3608 21.4296 1.91399H21.4164ZM34.8948 0.977996C35.2632 1.68719 35.2488 2.36759 35.1072 3.11879C34.8516 4.10998 33.846 4.71958 32.7828 4.79038H32.5272L32.5416 0.425998C33.3492 0.1284 34.4124 0.184799 34.8948 0.977996ZM11.9484 4.22398L9.7932 3.91199V1.55879H9.8652C10.644 1.58759 11.5092 1.87079 11.778 2.45279C12.0468 3.01919 12.0336 3.55799 11.9484 4.22398ZM2.4948 1.43159C2.664 1.85759 2.622 2.26799 2.4384 2.62199C2.2956 2.82119 2.0832 2.94839 1.8288 2.97719C1.1196 3.00479 0.5664 2.59439 0 2.30999V0C0.312 0.0143999 0.7092 0.155999 1.02 0.241199C1.4736 0.453598 2.2392 0.850797 2.4804 1.41719L2.4948 1.43159Z" fill="#064F81"/>
</svg>
