<svg width="7.039144515991211" height="5.059196472167969" viewBox="0 0 7.039144515991211 5.059196472167969" fill="none" xmlns="http://www.w3.org/2000/svg">
<path fill-rule="evenodd" clip-rule="evenodd" d="M0 0.0144C0.5388 0.778799 1.0068 1.6152 1.4604 2.4516C1.7016 2.7492 1.9704 2.9904 2.2392 3.3024C3.444 4.2372 4.9332 4.6908 6.4068 5.0592C5.4576 4.2096 4.3236 3.6996 3.246 3.1176C3.2172 3.0612 3.2172 2.9484 3.2748 2.9052C3.3312 2.8344 3.444 2.8632 3.5016 2.9052C4.578 3.5004 5.712 4.0104 7.0308 3.9684C7.0728 3.8832 6.9456 3.8544 6.888 3.8124C6.0804 3.444 5.358 2.8488 4.8336 2.1264C3.444 1.3608 1.7856 1.1484 0.468 0.2832C0.312 0.2124 0.1704 0.0707999 0.0144 0L0 0.0144Z" fill="#FFED00"/>
</svg>
