<svg width="5.445522308349609" height="5.6267852783203125" viewBox="0 0 5.445522308349609 5.6267852783203125" fill="none" xmlns="http://www.w3.org/2000/svg">
<path fill-rule="evenodd" clip-rule="evenodd" d="M5.38559 0.241199C4.57799 2.32439 3.34439 4.40759 1.3032 5.62679C1.374 5.41439 1.5444 5.24399 1.6716 5.01719C2.0832 4.39439 2.4516 3.74159 3.0468 3.17519C3.1464 2.99039 3.47159 2.80679 3.40079 2.55119C3.35879 2.48039 3.2736 2.48039 3.2028 2.50919C2.7072 2.84879 2.4516 3.31679 2.0976 3.75599C1.4736 4.39439 0.778799 4.98959 0 5.41439C1.134 4.60679 1.9272 3.33119 2.2668 1.99919C3.2316 1.1904 4.26599 0.482399 5.42759 0C5.48519 0.0851998 5.38559 0.1704 5.38559 0.241199Z" fill="#FFED00"/>
</svg>
