<svg width="4.520380020141602" height="4.592411041259766" viewBox="0 0 4.520380020141602 4.592411041259766" fill="none" xmlns="http://www.w3.org/2000/svg">
<path fill-rule="evenodd" clip-rule="evenodd" d="M0.1128 0.0432001C1.51559 0.624002 2.94719 1.2756 4.09558 2.31001C4.19518 2.83561 4.42198 3.38761 4.52038 3.88441C3.82678 3.11881 2.83439 2.66521 2.02679 1.9848C1.95599 1.9704 1.84199 1.9992 1.84199 2.0844L1.85639 2.22601C2.80559 3.03361 3.64198 3.75601 4.47838 4.59241C3.55678 4.12441 2.57879 3.71401 1.61519 3.30241C1.58759 3.27481 1.51559 3.28801 1.45919 3.24601C1.0908 3.07561 0.665997 2.91961 0.325199 2.66521L0 2.23921V0L0.1128 0.0288001V0.0432001Z" fill="#FFED00"/>
</svg>
