<svg width="5.129999160766602" height="4.761592864990234" viewBox="0 0 5.129999160766602 4.761592864990234" fill="none" xmlns="http://www.w3.org/2000/svg">
<path fill-rule="evenodd" clip-rule="evenodd" d="M1.7424 2.154C0.978 2.8488 0.396 3.79799 0 4.76159H0.8076C1.0908 4.35119 1.3464 3.89759 1.6584 3.55679C1.956 3.1176 2.2668 2.7348 2.6928 2.3808C2.7636 2.31 2.8764 2.2956 2.9616 2.31C3.174 2.4372 2.9616 2.622 2.8908 2.7348C2.4228 3.41519 1.9692 4.10999 1.5156 4.76159H2.6076C2.8488 4.25159 3.3588 3.92519 3.5004 3.35879C3.8976 2.154 4.308 1.0056 5.13 0.0276L5.1156 0C4.0668 0.849599 2.82 1.374 1.7424 2.154Z" fill="#FFED00"/>
</svg>
