<svg width="9.921592712402344" height="5.383209228515625" viewBox="0 0 9.921592712402344 5.383209228515625" fill="none" xmlns="http://www.w3.org/2000/svg">
<path fill-rule="evenodd" clip-rule="evenodd" d="M9.90719 0.0144C8.54639 2.1828 6.90239 4.50719 4.1664 5.18759C3.4152 5.38679 2.664 5.39999 1.8996 5.37239C3.0192 5.14559 4.1532 4.90439 5.1312 4.33799C5.3148 4.19519 5.556 4.0116 5.5416 3.7848C5.4996 3.6996 5.4144 3.6852 5.3148 3.6996C4.4364 4.80479 1.2756 5.03159 0 5.14559C0.4956 4.98959 1.0068 4.86239 1.5168 4.73399C2.9628 4.25279 4.5492 3.7704 5.4996 2.5236C6.336 1.8996 7.38479 1.602 8.27759 1.1064C8.85839 0.779999 9.38279 0.425999 9.89279 0H9.92159L9.90719 0.0144Z" fill="#FFED00"/>
</svg>
