<svg width="8.116355895996094" height="10.248218536376953" viewBox="0 0 8.116355895996094 10.248218536376953" fill="none" xmlns="http://www.w3.org/2000/svg">
<path fill-rule="evenodd" clip-rule="evenodd" d="M4.79039 0.128607C5.31479 0.242607 5.68318 0.440607 6.13678 0.681807C6.23638 0.723808 6.83158 1.16301 7.05838 1.44741C7.24198 1.67421 7.24198 1.70181 7.34158 1.82901C7.51198 2.05581 7.68238 2.42541 7.75318 2.58021C7.82398 2.76501 7.90798 3.00621 7.97998 3.31821C8.16358 4.12581 8.13478 5.04741 8.05078 5.59941C7.95118 6.19461 7.76638 6.69141 7.35598 7.31422C6.98758 7.88182 6.26398 8.58982 5.68318 8.93062C5.10239 9.27022 4.49279 9.55462 3.55679 9.75262C2.38079 9.90862 1.1904 10.121 0 10.2482V0.411807C1.134 0.270207 2.99039 0.0158067 3.40199 0.00140665C3.81239 -0.0129934 4.53479 0.0866068 4.79039 0.143007V0.128607Z" fill="#FFED00"/>
</svg>
