<svg width="4.5204010009765625" height="4.592411041259766" viewBox="0 0 4.5204010009765625 4.592411041259766" fill="none" xmlns="http://www.w3.org/2000/svg">
<path fill-rule="evenodd" clip-rule="evenodd" d="M4.4076 0.0432001C3.0048 0.624002 1.5732 1.2756 0.4248 2.31001C0.3252 2.83561 0.0984 3.38761 0 3.88441C0.6936 3.11881 1.686 2.66521 2.4936 1.9848C2.5644 1.9704 2.6784 1.9992 2.6784 2.0844L2.664 2.22601C1.7148 3.03361 0.8784 3.75601 0.042 4.59241C0.9636 4.12441 1.9416 3.71401 2.9052 3.30241C2.934 3.27481 3.0048 3.28801 3.0612 3.24601C3.4296 3.07561 3.8544 2.91961 4.1952 2.66521L4.5204 2.23921V0L4.4076 0.0288001V0.0432001Z" fill="#FFED00"/>
</svg>
