<svg width="6.803999900817871" height="2.004962921142578" viewBox="0 0 6.803999900817871 2.004962921142578" fill="none" xmlns="http://www.w3.org/2000/svg">
<path fill-rule="evenodd" clip-rule="evenodd" d="M5.514 0.0564003L5.3868 0.156001C3.6432 0.354002 1.8144 0.255601 0 0.268802C0.8508 0.836405 1.8432 1.29001 2.7924 1.61521C3.912 1.99801 5.4 2.21161 6.5484 1.71481C6.4632 1.48801 6.378 1.21921 6.3924 0.949205C6.2364 0.978005 6.1236 1.11961 5.9532 1.16281C5.3724 1.41721 4.7064 1.30441 4.0536 1.29001C3.8976 1.24681 3.6852 1.27561 3.6144 1.10521C3.6288 1.02001 3.6708 0.936005 3.7428 0.921605L3.8976 0.936005L4.5648 0.992406C5.202 0.921605 5.7264 0.651604 6.3216 0.468003L6.648 0.255601L6.804 0.0144001L6.7752 0C6.3648 0.0564003 5.9532 0.0708004 5.514 0.0564003Z" fill="#FFED00"/>
</svg>
