<svg width="4.932003498077393" height="6.208806991577148" viewBox="0 0 4.932003498077393 6.208806991577148" fill="none" xmlns="http://www.w3.org/2000/svg">
<path fill-rule="evenodd" clip-rule="evenodd" d="M0.2268 3.9264L0 4.3656C0.1704 4.2804 0.3264 4.182 0.4824 4.0824C0.5676 4.068 0.624 4.1532 0.666 4.182C0.723601 4.53601 0.709201 4.94641 0.6096 5.28721L0.6384 5.31481C1.0212 4.53601 1.4028 3.756 2.0832 3.1608C2.2116 3.09 2.3532 2.9064 2.4948 3.048C2.5656 3.1188 2.5368 3.1896 2.5092 3.2604C1.914 4.2384 1.2612 5.23081 0.666 6.18001L0.6804 6.20881C1.3188 5.79721 1.9704 5.49961 2.58 5.07481C2.8488 4.068 3.246 3.048 4.1388 2.382C4.4364 1.6164 4.7052 0.822001 4.932 0.0144L4.9044 0C3.1752 1.0488 1.2612 2.1408 0.2412 3.9264H0.2268Z" fill="#FFED00"/>
</svg>
