<svg width="7.937999725341797" height="10.67279052734375" viewBox="0 0 7.937999725341797 10.67279052734375" fill="none" xmlns="http://www.w3.org/2000/svg">
<path fill-rule="evenodd" clip-rule="evenodd" d="M3.0192 0.623999C4.848 1.2192 7.0728 2.382 7.4268 4.5216C7.5828 5.4852 7.356 6.36359 6.6624 7.05839C6.4488 7.27079 6.1236 7.42679 5.8404 7.52639C5.9532 7.73879 6.0948 7.90919 6.2232 8.12159C6.4068 8.39039 7.8384 10.4748 7.938 10.6728L5.2584 10.3752C4.6212 9.31199 3.912 8.09279 3.0336 7.28519C2.8212 7.11479 2.5092 6.86039 2.2116 6.87479V9.89279L0 9.70919L0.0144 0C1.4604 0.1704 2.5944 0.4824 3.0192 0.609599V0.623999Z" fill="#E3000F"/>
</svg>
