<svg width="5.129997253417969" height="4.761592864990234" viewBox="0 0 5.129997253417969 4.761592864990234" fill="none" xmlns="http://www.w3.org/2000/svg">
<path fill-rule="evenodd" clip-rule="evenodd" d="M3.3876 2.154C4.152 2.8488 4.734 3.79799 5.13 4.76159H4.3224C4.0392 4.35119 3.7836 3.89759 3.4728 3.55679C3.1752 3.1176 2.8632 2.7348 2.4372 2.3808C2.3664 2.31 2.2536 2.2956 2.1684 2.31C1.956 2.4372 2.1684 2.622 2.2392 2.7348C2.7072 3.41519 3.1608 4.10999 3.6144 4.76159H2.5224C2.2812 4.25159 1.7712 3.92519 1.6296 3.35879C1.2324 2.154 0.822 1.0056 0 0.0276L0.0144 0C1.0632 0.849599 2.31 1.374 3.3876 2.154Z" fill="#FFED00"/>
</svg>
