<svg width="9.920397758483887" height="5.383209228515625" viewBox="0 0 9.920397758483887 5.383209228515625" fill="none" xmlns="http://www.w3.org/2000/svg">
<path fill-rule="evenodd" clip-rule="evenodd" d="M0.0132 0.0144C1.374 2.1828 3.018 4.50719 5.754 5.18759C6.5052 5.38679 7.2564 5.39999 8.022 5.37239C6.9024 5.14559 5.7684 4.90439 4.7904 4.33799C4.6056 4.19519 4.3644 4.0116 4.3788 3.7848C4.422 3.6996 4.5072 3.6852 4.6056 3.6996C5.484 4.80479 8.6448 5.03159 9.9204 5.14559C9.4248 4.98959 8.9148 4.86239 8.4048 4.73399C6.9588 4.25279 5.3712 3.7704 4.422 2.5236C3.5856 1.8996 2.5368 1.602 1.644 1.1064C1.062 0.779999 0.5376 0.425999 0.0276 0H0L0.0132 0.0144Z" fill="#FFED00"/>
</svg>
