<svg width="47.791221618652344" height="46.1923713684082" viewBox="0 0 47.791221618652344 46.1923713684082" fill="none" xmlns="http://www.w3.org/2000/svg">
<path fill-rule="evenodd" clip-rule="evenodd" d="M44.9976 15.9168C44.3748 13.8768 43.4676 12.672 41.8512 11.382C41.7096 11.028 41.4828 10.716 41.2992 10.3752C40.3212 8.604 38.4636 7.5264 36.7488 6.4776C36.3804 6.138 35.9844 5.8116 35.5872 5.4996C34.482 4.5924 33.1356 4.1112 31.8456 3.5016V0.2268V0H15.9V0.2268V3.5016C14.5968 4.1112 13.2648 4.5924 12.1584 5.4996C11.7624 5.826 11.3652 6.1512 10.9968 6.4776C9.28201 7.5264 7.42441 8.604 6.44641 10.3752C6.24841 10.716 6.03601 11.0412 5.89441 11.382C4.27801 12.672 3.35761 13.8768 2.74801 15.9168H-0.0155945V32.9388H2.75641C3.05401 33.4068 3.47041 33.7752 3.85321 34.158C4.81681 36.5112 6.19201 38.6508 8.60161 39.8412C9.91921 41.7552 11.6904 43.5552 14.2284 43.9944C15.4752 44.9292 16.9488 45.5532 18.48 45.9648C19.8408 46.248 21.0672 46.0608 21.6768 45.8196C22.2636 46.5072 22.9128 46.122 23.682 45.6384C24.45 46.122 25.0992 46.5072 25.686 45.8184V45.8196C26.2956 46.0608 27.5364 46.248 28.8828 45.9648C30.414 45.5676 31.8732 44.9292 33.1356 43.9944C35.6868 43.5552 37.4436 41.7552 38.7624 39.8412C41.1708 38.6508 42.546 36.5112 43.5096 34.158C43.8924 33.7752 44.3088 33.4068 44.6064 32.9388H47.7756V15.9168H44.9976ZM23.682 40.224C24.6924 39.588 25.3296 39.3288 25.9356 40.4088C26.3604 40.068 26.9136 39.8136 27.3804 39.672C27.594 39.5868 27.834 39.5292 28.0464 39.4452C28.8684 39.2316 29.8332 38.9772 30.7392 38.8068C31.5336 38.5944 31.9728 38.382 32.6388 38.0556C33.6876 36.6384 34.878 35.3772 36.3528 34.4136C36.6504 33.8184 37.0728 33.378 37.5828 32.9388H9.78001C10.29 33.378 10.7136 33.8184 11.0112 34.4136C12.4848 35.3772 13.6752 36.6384 14.724 38.0556C15.39 38.382 15.8292 38.5944 16.6236 38.8068C17.5164 38.9772 18.4944 39.2316 19.3164 39.4452C19.5144 39.5292 19.7556 39.5868 19.9824 39.672C20.4504 39.8136 21.0024 40.068 21.4284 40.4088C22.0116 39.3696 22.6152 39.5532 23.682 40.224ZM31.8456 10.1772C32.4408 10.602 33.0504 11.07 33.702 11.4948C34.0992 12.516 34.6368 13.5648 35.7576 14.0184L36.0408 14.16C36.3528 14.8116 36.8772 15.4212 37.3728 15.9312H31.8456V10.1916V10.1772ZM15.9 10.1772C15.3048 10.602 14.6952 11.07 14.0436 11.4948C13.6464 12.516 13.1088 13.5648 11.9892 14.0184L11.7048 14.16C11.3928 14.8116 10.8684 15.4212 10.3728 15.9312H15.9V10.1916V10.1772Z" fill="black"/>
</svg>
