<svg width="4.931995391845703" height="6.208806991577148" viewBox="0 0 4.931995391845703 6.208806991577148" fill="none" xmlns="http://www.w3.org/2000/svg">
<path fill-rule="evenodd" clip-rule="evenodd" d="M4.7052 3.9264L4.932 4.3656C4.7616 4.2804 4.6056 4.182 4.4496 4.0824C4.3644 4.068 4.308 4.1532 4.266 4.182C4.2096 4.53601 4.2228 4.94641 4.3224 5.28721L4.2936 5.31481C3.9108 4.53601 3.5292 3.756 2.8488 3.1608C2.7204 3.09 2.5788 2.9064 2.4372 3.048C2.3664 3.1188 2.3952 3.1896 2.4228 3.2604C3.018 4.2384 3.6708 5.23081 4.266 6.18001L4.2516 6.20881C3.6132 5.79721 2.9616 5.49961 2.352 5.07481C2.0832 4.068 1.686 3.048 0.793199 2.382C0.4956 1.6164 0.2268 0.822001 0 0.0144L0.0276 0C1.7568 1.0488 3.6708 2.1408 4.6908 3.9264H4.7052Z" fill="#FFED00"/>
</svg>
