<svg width="5.446245193481445" height="5.6267852783203125" viewBox="0 0 5.446245193481445 5.6267852783203125" fill="none" xmlns="http://www.w3.org/2000/svg">
<path fill-rule="evenodd" clip-rule="evenodd" d="M0.0594454 0.241199C0.868245 2.32439 2.10065 4.40759 4.14185 5.62679C4.07105 5.41439 3.90065 5.24399 3.77345 5.01719C3.36185 4.39439 2.99345 3.74159 2.39825 3.17519C2.29865 2.99039 1.97345 2.80679 2.04425 2.55119C2.08625 2.48039 2.17145 2.48039 2.24225 2.50919C2.73905 2.84879 2.99345 3.31679 3.34745 3.75599C3.97145 4.39439 4.66625 4.98959 5.44625 5.41439C4.31225 4.60679 3.51785 3.33119 3.17825 1.99919C2.21465 1.1904 1.17905 0.482399 0.0174454 0C-0.0389547 0.0851998 0.0594454 0.1704 0.0594454 0.241199Z" fill="#FFED00"/>
</svg>
