<svg width="6.802791595458984" height="2.004962921142578" viewBox="0 0 6.802791595458984 2.004962921142578" fill="none" xmlns="http://www.w3.org/2000/svg">
<path fill-rule="evenodd" clip-rule="evenodd" d="M1.2888 0.0564003L1.4172 0.156001C3.1596 0.354002 4.98839 0.255601 6.80279 0.268802C5.95199 0.836405 4.95959 1.29001 4.0104 1.61521C2.8908 1.99801 1.4028 2.21161 0.2544 1.71481C0.3396 1.48801 0.424799 1.21921 0.410399 0.949205C0.566399 0.978005 0.680399 1.11961 0.849599 1.16281C1.4304 1.41721 2.0976 1.30441 2.7492 1.29001C2.9052 1.24681 3.1176 1.27561 3.1884 1.10521C3.174 1.02001 3.132 0.936005 3.0612 0.921605L2.9052 0.936005L2.2392 0.992406C1.6008 0.921605 1.0764 0.651604 0.481199 0.468003L0.1548 0.255601L0 0.0144001L0.0276 0C0.439199 0.0564003 0.849599 0.0708004 1.2888 0.0564003Z" fill="#FFED00"/>
</svg>
