<svg width="5.782796859741211" height="1.6086654663085938" viewBox="0 0 5.782796859741211 1.6086654663085938" fill="none" xmlns="http://www.w3.org/2000/svg">
<path fill-rule="evenodd" clip-rule="evenodd" d="M5.4144 0.289845L5.7828 0.233445C5.2728 0.587445 4.8756 1.01224 4.2804 1.23904C3.1176 1.55104 1.7004 1.76344 0.468 1.46584C0.3684 1.42384 0.2976 1.35304 0.2268 1.26784C0.7656 1.22584 1.2756 1.18264 1.842 1.19704C2.0688 1.19704 2.2392 1.11184 2.4516 1.06984C2.508 1.02664 2.5224 0.941445 2.4948 0.870645L2.4096 0.785445C1.8852 0.870645 1.3608 0.814245 0.8508 0.772245C0.5664 0.772245 0.2556 0.828645 0 0.856245C0.2556 0.629445 0.51 0.417045 0.7656 0.148245C1.686 -0.0929553 2.6508 -0.00775532 3.5568 0.175845C4.1664 0.304245 4.7904 0.346245 5.4276 0.275445L5.4144 0.289845Z" fill="#FFED00"/>
</svg>
