<svg width="7.038324356079102" height="5.059196472167969" viewBox="0 0 7.038324356079102 5.059196472167969" fill="none" xmlns="http://www.w3.org/2000/svg">
<path fill-rule="evenodd" clip-rule="evenodd" d="M7.03832 0.0144C6.49952 0.778799 6.03152 1.6152 5.57912 2.4516C5.33792 2.7492 5.06792 2.9904 4.79912 3.3024C3.59432 4.2372 2.10632 4.6908 0.631523 5.0592C1.58192 4.2096 2.71592 3.6996 3.79232 3.1176C3.82112 3.0612 3.82112 2.9484 3.76472 2.9052C3.70712 2.8344 3.59432 2.8632 3.53792 2.9052C2.46032 3.5004 1.32632 4.0104 0.00872239 3.9684C-0.0344776 3.8832 0.0939224 3.8544 0.150322 3.8124C0.957923 3.444 1.68032 2.8488 2.20472 2.1264C3.59432 1.3608 5.25272 1.1484 6.57032 0.2832C6.72632 0.2124 6.86792 0.0707999 7.02392 0L7.03832 0.0144Z" fill="#FFED00"/>
</svg>
