<svg width="6.477602958679199" height="3.2807388305664062" viewBox="0 0 6.477602958679199 3.2807388305664062" fill="none" xmlns="http://www.w3.org/2000/svg">
<path fill-rule="evenodd" clip-rule="evenodd" d="M0 0.0144C0.6384 0.8496 1.2336 1.9416 2.1828 2.5656C2.5656 2.8056 3.0048 3.018 3.4308 3.2028C3.7992 3.4008 4.224 3.1608 4.6488 3.1464C5.2728 3.0468 5.8392 3.0756 6.4776 3.132L6.336 2.8908C5.4576 2.3952 4.536 1.7856 3.5016 1.5444C3.4164 1.53 3.3312 1.4592 3.3168 1.3884C3.3024 1.3032 3.3732 1.2468 3.4164 1.2048C4.422 1.4316 5.4144 1.644 6.2088 2.3388H6.2364L6.2652 2.154C5.5848 1.488 4.6632 1.332 3.7992 1.0488C2.4948 0.7656 1.1904 0.5664 0.0288 0L0 0.0144Z" fill="#FFED00"/>
</svg>
