<svg width="35.7225456237793" height="5.357975006103516" viewBox="0 0 35.7225456237793 5.357975006103516" fill="none" xmlns="http://www.w3.org/2000/svg">
<path fill-rule="evenodd" clip-rule="evenodd" d="M3.0048 1.68719C3.2172 2.21159 3.174 2.66519 2.9472 3.10439C2.778 3.33118 2.5224 3.50158 2.2104 3.52918C1.3464 3.57238 0.6804 3.13319 0 2.79239V0C0.0276 0 0.7512 0.128399 1.218 0.269999C1.9272 0.524398 2.6928 0.950396 3.0048 1.67279V1.68719ZM12.4296 4.80478C11.5512 4.69198 10.6716 4.57798 9.8076 4.42198V1.60199H9.9348C10.374 1.58759 10.9272 1.67279 11.3952 1.87079C11.82 2.05559 12.1884 2.36759 12.33 2.75039C12.444 3.03359 12.486 3.33118 12.5148 3.59998C12.5424 4.02598 12.486 4.39438 12.4296 4.80478ZM21.8688 2.09759C22.0248 2.48039 22.0956 3.04799 21.8268 3.38758C21.3588 3.98278 20.5644 4.08238 19.7856 4.15318H19.4736V1.78679C19.6296 1.72919 19.8708 1.65839 20.0268 1.61639C20.6496 1.44599 21.5148 1.43159 21.8688 2.09759ZM35.6028 3.50158C35.2344 4.84798 34.0152 5.31598 32.9244 5.35798L32.556 5.34358L32.5692 0.581997H32.5836C33.4908 0.213599 34.7664 0.199199 35.3052 1.07759C35.7864 1.78679 35.8008 2.56559 35.6028 3.50158Z" fill="#FFED00"/>
</svg>
