<svg width="18.99995231628418" height="16.99995231628418" viewBox="0 0 18.99995231628418 16.99995231628418" fill="none" xmlns="http://www.w3.org/2000/svg">
<path d="M7.5 7.94462C7.5 7.59434 7.88671 7.38206 8.18223 7.57012L11.7944 9.86879C12.0685 10.0432 12.0685 10.4434 11.7944 10.6178L8.18223 12.9165C7.88671 13.1045 7.5 12.8923 7.5 12.542V7.94462Z" fill="black"/>
<path fill-rule="evenodd" clip-rule="evenodd" d="M3.55768 3.49998L1.8077 0C1.30257 0 0.875 0.175 0.525 0.525C0.175 0.875 0 1.30257 0 1.8077V15.1923C0 15.6974 0.175 16.125 0.525 16.475C0.875 16.825 1.30257 17 1.8077 17H17.1923C17.6974 17 18.125 16.825 18.475 16.475C18.825 16.125 19 15.6974 19 15.1923V1.8077C19 1.30257 18.825 0.875 18.475 0.525C18.125 0.175 17.6974 0 17.1923 0H14.8077L16.5577 3.49998H13.5577L11.8077 0H9.8077L11.5577 3.49998H8.55768L6.8077 0H4.8077L6.55768 3.49998H3.55768ZM1.49998 15.1923V4.99995H17.5V15.1923C17.5 15.282 17.4711 15.3557 17.4134 15.4134C17.3557 15.4711 17.282 15.5 17.1923 15.5H1.8077C1.71795 15.5 1.64423 15.4711 1.58653 15.4134C1.52883 15.3557 1.49998 15.282 1.49998 15.1923Z" fill="black"/>
</svg>
