<svg width="21.99509620666504" height="21.96625518798828" viewBox="0 0 21.99509620666504 21.96625518798828" fill="none" xmlns="http://www.w3.org/2000/svg">
<path d="M21.425 9.57626L12.415 0.566256C11.665 -0.183744 10.345 -0.193744 9.585 0.566256L0.585 9.56626C-0.195 10.3463 -0.195 11.6063 0.585 12.3863L9.585 21.3863C9.975 21.7763 10.485 21.9663 10.995 21.9663C11.505 21.9663 12.015 21.7763 12.405 21.3863L21.395 12.3963C22.185 11.6363 22.195 10.3763 21.425 9.57626ZM11.005 19.9763L2.005 10.9763L11.005 1.97626L20.005 10.9763L11.005 19.9763ZM6.995 9.98626V13.9863H8.995V10.9863H12.995V13.4863L16.495 9.98626L12.995 6.48626V8.98626H7.995C7.445 8.98626 6.995 9.43626 6.995 9.98626Z" fill="black"/>
</svg>
