<svg width="13.333333015441895" height="5.336004257202148" viewBox="0 0 13.333333015441895 5.336004257202148" fill="none" xmlns="http://www.w3.org/2000/svg"><path d="M 12.6666663646698 0 C 12.266666358311971 0 11.999999713897706 0.2668001969575755 11.999999713897706 0.6670005321502686 L 11.999999713897706 3.3350026607513428 C 11.999999713897706 3.735202995944036 11.73333306948344 4.002003192901611 11.333333063125611 4.002003192901611 L 1.9999999523162844 4.002003192901611 C 1.599999945958456 4.002003192901611 1.3333333015441895 3.735202995944036 1.3333333015441895 3.3350026607513428 L 1.3333333015441895 0.6670005321502686 C 1.3333333015441895 0.2668001969575755 1.066666657129923 0 0.6666666507720947 0 C 0.26666664441426635 0 0 0.2668001969575755 0 0.6670005321502686 L 0 3.3350026607513428 C 0 4.468903597211863 0.8666666142145802 5.336004257202148 1.9999999523162844 5.336004257202148 L 11.333333063125611 5.336004257202148 C 12.466666401227315 5.336004257202148 13.333333015441895 4.468903597211863 13.333333015441895 3.3350026607513428 L 13.333333015441895 0.6670005321502686 C 13.333333015441895 0.2668001969575755 13.066666371027628 0 12.6666663646698 0 Z" fill="black" fill-rule="nonzero" clip-rule="nonzero" stroke="none" /></svg>