<svg width="8.000000953674316" height="9.338006973266602" viewBox="0 0 8.000000953674316 9.338006973266602" fill="none" xmlns="http://www.w3.org/2000/svg"><path d="M 7.800000818570451 3.52472174096232 L 4.466666716999459 0.18375328669088747 C 4.400000046690287 0.11693391740632159 4.333333252204765 0.05011452820803214 4.266666581895593 0.05011452820803214 C 4.133333241277247 -0.01670484107653375 3.933333751890393 -0.01670484107653375 3.733333735995821 0.05011452820803214 C 3.6666670656866485 0.11693389749259803 3.600000271201128 0.11693391740632159 3.533333600891955 0.18375328669088747 L 0.20000001589457164 3.52472174096232 C -0.06666666534211865 3.7919992181005835 -0.06666666534211865 4.19291516497271 0.20000001589457164 4.460192642110974 C 0.46666669713126196 4.727470119249238 0.8666664110289537 4.727470119249238 1.133333092265644 4.460192642110974 L 3.333333465788089 2.2551538390594787 L 3.333333465788089 8.669813290377803 C 3.333333465788089 9.07072951604206 3.600000127156564 9.338006973266602 4.000000158945707 9.338006973266602 C 4.4000001907348505 9.338006973266602 4.666666852103325 9.07072951604206 4.666666852103325 8.669813290377803 L 4.666666852103325 2.2551538390594787 L 6.8666664308971415 4.460192642110974 C 6.999999771515487 4.593831380680106 7.133333608839224 4.6606508744254445 7.333333624733796 4.6606508744254445 C 7.533333640628368 4.6606508744254445 7.666667477952106 4.593831380680106 7.800000818570451 4.460192642110974 C 8.066667499807142 4.19291516497271 8.066667499807142 3.7919992181005835 7.800000818570451 3.52472174096232 Z" fill="black" fill-rule="nonzero" clip-rule="nonzero" stroke="none" /></svg>