<svg width="12.0703125" height="12.90625" viewBox="0 0 12.0703125 12.90625" fill="none" xmlns="http://www.w3.org/2000/svg">
<path d="M1.125 12.5938C0.515625 12.5938 0 12.125 0 11.25V1.65625C0 0.78125 0.515625 0.3125 1.125 0.3125C1.44531 0.3125 1.70312 0.414062 2.02344 0.601562L9.98438 5.28906C10.4141 5.53906 10.6484 5.82812 10.7344 6.14844V0.65625C10.7344 0.289062 11.0391 0 11.4062 0C11.7734 0 12.0703 0.289062 12.0703 0.65625V12.2578C12.0703 12.625 11.7734 12.9062 11.4062 12.9062C11.0391 12.9062 10.7344 12.625 10.7344 12.2578V6.75781C10.6484 7.07812 10.4141 7.36719 9.98438 7.61719L2.02344 12.3047C1.71094 12.4922 1.44531 12.5938 1.125 12.5938Z" fill="black"/>
</svg>
