<svg width="20.004398345947266" height="20.004398345947266" viewBox="0 0 20.004398345947266 20.004398345947266" fill="none" xmlns="http://www.w3.org/2000/svg">
<path fill-rule="evenodd" clip-rule="evenodd" d="M0 10.0022C0 15.5263 4.47814 20.0044 10.0022 20.0044C15.5263 20.0044 20.0044 15.5263 20.0044 10.0022C20.0044 4.47814 15.5263 0 10.0022 0C4.47814 0 0 4.47814 0 10.0022ZM3.50135 6.7522C3.50135 7.16641 3.83713 7.5022 4.25135 7.5022H15.7531C16.1673 7.5022 16.5031 7.16641 16.5031 6.7522C16.5031 6.33799 16.1673 6.0022 15.7531 6.0022H4.25135C3.83713 6.0022 3.50135 6.33799 3.50135 6.7522ZM5.50269 10.7522C5.50269 11.1664 5.83847 11.5022 6.25269 11.5022H13.7517C14.1659 11.5022 14.5017 11.1664 14.5017 10.7522C14.5017 10.338 14.1659 10.0022 13.7517 10.0022H6.25269C5.83847 10.0022 5.50269 10.338 5.50269 10.7522ZM8.2522 15.5022C7.83799 15.5022 7.5022 15.1664 7.5022 14.7522C7.5022 14.338 7.83799 14.0022 8.2522 14.0022H11.7493C12.1635 14.0022 12.4993 14.338 12.4993 14.7522C12.4993 15.1664 12.1635 15.5022 11.7493 15.5022H8.2522Z" fill="black"/>
</svg>
