<svg width="96.66666412353516" height="42.5994873046875" viewBox="0 0 96.66666412353516 42.5994873046875" fill="none" xmlns="http://www.w3.org/2000/svg">
<path d="M24.8727 28.1384L24.1124 27.2734L24.6283 25.7597H28.1039L28.5655 27.2734L27.7509 28.1384V28.1654H31.9326V28.1384L31.118 27.2734L28.1311 18.4345H24.8184V18.4616L25.3886 19.3265L22.3745 27.2734L21.6142 28.1384V28.1654H24.8998V28.1384H24.8727ZM26.5019 20.4077L27.6695 24.3001H25.1442L26.5019 20.4077ZM96.6667 25.3543C96.6667 27.4626 94.5758 28.5168 92.0506 28.5168C90.8829 28.5168 89.661 28.3546 88.6292 27.8951L88.5206 24.9758H88.5477L90.0412 26.8139C90.6114 26.9761 91.236 27.0842 91.9691 27.0842C92.838 27.0842 94.1414 26.8679 94.1414 25.8408C94.1414 24.9758 93.2996 24.6515 91.5618 24.192C89.308 23.5703 88.2762 22.6783 88.2762 21.1916C88.2762 18.8941 90.53 18.0832 92.8652 18.0832C93.9785 18.0832 94.956 18.2724 95.8792 18.6238L96.015 21.3808H95.9878L94.4944 19.7861C93.9513 19.6239 93.3539 19.5428 92.7022 19.5428C91.9419 19.5428 90.72 19.732 90.72 20.678C90.72 21.489 91.2631 21.7052 93.0281 22.1917C95.2818 22.8134 96.6667 23.3811 96.6667 25.3543ZM83.0627 18.4345H86.3212V18.4616L85.588 19.3265V28.1654H83.7416L78.7725 20.8132V27.2734L79.7228 28.1384V28.1654H76.4644V28.1384L77.1976 27.2734V19.3265L76.4644 18.4616V18.4345H80.0487L84.0131 24.5163V19.3265L83.0627 18.4616V18.4345ZM83.47 32.301C82.6554 32.301 81.9766 32.9227 81.9766 33.7606C81.9766 34.6256 82.6554 35.2203 83.47 35.2203C84.2846 35.2203 84.9635 34.5986 84.9635 33.7606C84.9635 32.9227 84.2575 32.301 83.47 32.301ZM83.47 34.977C82.7912 34.977 82.2753 34.4634 82.2753 33.7606C82.2753 33.0578 82.7912 32.5443 83.47 32.5443C84.1489 32.5443 84.6648 33.0578 84.6648 33.7606C84.6648 34.4634 84.1217 34.977 83.47 34.977ZM84.1489 33.3822C84.1489 33.0578 83.9588 32.8957 83.5515 32.8957H82.8998V34.5986H83.1442V33.8688H83.4429L83.8773 34.5986H84.176L83.6873 33.8417C83.9588 33.8417 84.1489 33.7066 84.1489 33.3822ZM83.1442 33.6525V33.1389H83.4972C83.6873 33.1389 83.8773 33.166 83.8773 33.3822C83.8773 33.6525 83.6873 33.6525 83.47 33.6525H83.1442ZM69.0786 32.5172V32.5443L68.3727 33.4092V39.0315C68.3727 41.6805 67.015 42.5995 64.3811 42.5995C61.4757 42.5995 60.118 41.6264 60.118 38.9774V33.4092L59.3848 32.5443V32.5172H63.4307V32.5443L62.6161 33.4092V38.9774C62.6161 40.5993 63.4036 40.9777 64.7069 40.9777C65.9831 40.9777 66.7706 40.5722 66.7706 38.9774V33.4092L65.956 32.5443V32.5172H69.0786ZM74.4822 23.327C74.4822 20.5159 72.4728 18.0832 69.323 18.0832C66.4719 18.0832 64.2182 20.2185 64.2182 23.1648C64.2182 26.003 66.2004 28.5168 69.2687 28.5168C72.0655 28.5168 74.4822 26.5436 74.4822 23.327ZM69.6217 26.9761C67.5309 26.9761 66.8249 24.219 66.8249 22.5161C66.8249 21.3538 67.3137 19.6239 69.0515 19.6239C71.2238 19.6239 71.8483 22.3269 71.8483 24.0028C71.8483 25.5705 71.1152 26.9761 69.6217 26.9761ZM47.7631 28.1384V28.1654H52.0262V28.1384L50.9944 27.2734V24.7326C51.5103 24.8677 52.1891 24.8947 52.868 24.8947C54.9588 24.8947 56.4794 23.6514 56.4794 21.6241C56.4794 19.6779 55.2032 18.4075 52.3792 18.4075H47.736V18.4345L48.4691 19.2995V27.2464L47.7631 28.1384ZM50.9944 19.8401H51.809C53.221 19.8401 53.9813 20.4618 53.9813 21.7593C53.9813 22.8405 53.3839 23.5973 52.0262 23.5973C51.6461 23.5973 51.2931 23.5432 50.9944 23.4622V19.8401ZM57.6742 37.68V37.707L56.9139 38.572V42.5995H56.8867L55.6648 41.5723C54.633 42.3292 53.5197 42.5995 52.2978 42.5995C49.5009 42.5995 47.7088 40.3019 47.7088 37.5178C47.7088 34.1931 50.044 32.1659 53.3296 32.1659C54.4157 32.1659 55.5019 32.3551 56.3979 32.8146L56.4794 35.4906H56.4522L54.9045 33.8417C54.4157 33.6795 53.8455 33.6255 53.2753 33.6255C51.2659 33.6255 50.2884 35.2473 50.2884 37.1664C50.2884 38.9234 51.2116 41.0317 52.9223 41.0317C53.6554 41.0317 54.1985 40.7344 54.4972 40.383V38.545L53.5197 37.68H57.6742ZM62.2088 28.1924H58.2715V28.1654L59.0047 27.3004V19.3265L58.2715 18.4616V18.4345H62.2088V18.4616L61.5028 19.3265V27.2734L62.2088 28.1384V28.1924ZM8.66198 25.8949H8.68914L8.55337 27.5167C7.63015 28.2195 6.27247 28.5168 5.3764 28.5168C1.98221 28.5168 0 26.0841 0 23.327C0 20.5159 2.06367 18.0832 5.64794 18.0832C6.81554 18.0832 7.73876 18.3264 8.17322 18.4886L8.28183 21.57H8.25468L6.73408 19.705C6.35393 19.5968 5.91948 19.5428 5.45787 19.5428C3.77434 19.5428 2.60674 20.9484 2.60674 23.1108C2.60674 24.8677 3.88296 26.895 5.89232 26.895C6.76124 26.895 7.87453 26.5166 8.66198 25.8949ZM43.0655 32.5172H39.7528V32.5443L40.323 33.4092L37.309 41.3561L36.5487 42.2211V42.2481H39.8343V42.2211L39.074 41.3561L39.5899 39.8424H43.0655L43.5272 41.3561L42.7125 42.2211V42.2481H46.8942V42.2211L46.0796 41.3561L43.0655 32.5172ZM40.0786 38.3828L41.4363 34.5175L42.6039 38.3828H40.0786ZM79.4513 39.3559H79.4785L79.2884 42.3022H71.0065V42.2751L71.7397 41.4102V33.4633L71.0065 32.5983V32.5713H78.9625L79.0983 35.1392H79.0712L77.985 33.9769H74.265V36.5447H76.573L77.5234 35.7338H77.5506V38.7612H77.5234L76.573 37.9503H74.265V40.8966H78.1208L79.4513 39.3559ZM17.2154 27.2734V23.8406H13.7125V27.2734L14.4185 28.1384V28.1654H10.4813V28.1384L11.2144 27.2734V19.3265L10.4813 18.4616V18.4345H14.4185V18.4616L13.7125 19.3265V22.2728H17.2154V19.3265L16.5094 18.4616V18.4345H20.4466V18.4616L19.7135 19.3265V27.2734L20.4466 28.1384V28.1654H16.5094V28.1384L17.2154 27.2734ZM25.5243 39.2207H25.5515L25.1713 42.2751H17.4054V42.2211L18.1386 41.3561V33.4092L17.4054 32.5443V32.5172H21.5599V32.5443L20.6367 33.4092V40.8155H24.0037L25.5243 39.2207ZM35.3268 27.2734L36.1685 28.1384V28.1654H32.7472V28.1384L33.5889 27.2734L33.9963 19.3265L33.2903 18.4616V18.4345H36.7931L39.3183 24.9488L41.6807 18.4345H45.1564V18.4616L44.5318 19.3265L45.1292 27.2734L45.9438 28.1384V28.1654H41.7893V28.1384L42.7397 27.2734L42.3052 21.1376L39.78 28.1654H38.2594L35.5169 21.2187L35.3268 27.2734ZM35.4082 39.3559H35.4354L35.2453 42.3022H26.9635V42.2751L27.6966 41.4102V33.4633L26.9635 32.5983V32.5713H34.9195L35.0552 35.1392H35.0281L33.9419 33.9769H30.2219V36.5447H32.53L33.4803 35.7338H33.5075V38.7612H33.4803L32.53 37.9503H30.2219V40.8966H34.0777L35.4082 39.3559ZM58.706 12.6501L58.9504 11.7851L57.8642 10.9742L58.7331 10.3525L59.2491 10.731L59.8193 8.78479L56.4794 10.9472L55.1217 10.1633L60.3624 6.78456C60.5524 6.64941 60.8511 6.54129 61.2041 6.81159L61.4213 6.97377C61.7743 7.24407 61.72 7.54141 61.6657 7.75765L59.9279 13.7313L58.706 12.6501ZM32.014 7.8928L31.2266 6.94674C31.6067 6.56832 32.014 6.1899 32.4485 5.83851C36.7931 2.05429 42.441 0 48.3333 0C54.2257 0 59.8736 2.05429 64.2453 5.81148C64.6526 6.16287 65.0599 6.54129 65.4672 6.91971L64.6798 7.86577C64.2996 7.46032 63.8652 7.08189 63.4579 6.70347C59.3305 3.16252 53.9541 1.18933 48.3605 1.18933C42.7669 1.18933 37.3904 3.13549 33.2631 6.70347C32.8015 7.10892 32.3942 7.48735 32.014 7.8928ZM52.4878 5.05463L52.3792 5.43306L54.9316 6.08178L54.5786 7.40626L52.0262 6.75753L51.4288 9.05509L50.5871 8.83885C50.4242 8.78479 50.2884 8.7037 50.2069 8.56855C50.1255 8.4334 50.1255 8.27122 50.1526 8.10904L51.0758 4.54106C51.3745 3.37877 52.2434 2.91925 53.4653 3.24362L55.7463 3.83828L55.3933 5.18978L53.1938 4.62215C52.7594 4.51403 52.5964 4.56809 52.4878 5.05463ZM46.324 4.02749L43.5 4.59512L43.6901 5.56821L46.2697 5.05463L46.5412 6.40614L43.9616 6.91971L44.0431 7.29814C44.1517 7.81171 44.2875 7.86577 44.7491 7.75765L46.9756 7.29814L47.2472 8.64964L44.9391 9.10915C44.7219 9.16321 44.5318 9.16321 44.3418 9.16321C43.9888 9.16321 43.6629 9.08212 43.3914 8.91994C42.9841 8.67667 42.7397 8.24419 42.6039 7.67656L41.8708 4.08155C41.8436 3.91937 41.8708 3.75719 41.9522 3.62204C42.0337 3.48689 42.1695 3.4058 42.3324 3.37877L46.0253 2.62192L46.324 4.02749ZM38.7753 9.97412C38.8024 9.5957 38.721 9.35242 38.3408 8.91994L36.2228 6.32505L37.3633 5.40603L39.6713 8.21716C40.1601 8.81182 40.3502 9.43351 40.2959 10.0822C40.2144 10.8121 39.8614 11.4067 39.2369 11.9203C38.6667 12.3798 38.0693 12.596 37.4448 12.596C37.3633 12.596 37.2818 12.596 37.2275 12.596C36.5758 12.542 36.0056 12.2176 35.5169 11.623L33.2088 8.81182L34.3492 7.8928L36.4672 10.4607C36.8202 10.9202 37.0646 11.0553 37.4176 11.1094C37.7163 11.1364 38.0421 11.0283 38.3137 10.8121C38.5581 10.5688 38.7481 10.2714 38.7753 9.97412ZM58.9232 14.9477L58.1629 15.8667C55.9906 13.1907 52.3249 11.3527 48.3333 11.3527C44.3418 11.3527 40.676 13.1907 38.5037 15.8667L37.7434 14.9477C40.133 12.1095 44.0159 10.1904 48.3333 10.1904C52.6507 10.1904 56.5337 12.1095 58.9232 14.9477Z" fill="white"/>
</svg>
