<svg width="18" height="17.31501007080078" viewBox="0 0 18 17.31501007080078" fill="none" xmlns="http://www.w3.org/2000/svg">
<path d="M0.63 0.2925C0.24 0.6825 0.24 1.3125 0.63 1.7025L4.29 5.3625L4 5.6625H1C0.45 5.6625 0 6.1125 0 6.6625V10.6625C0 11.2125 0.45 11.6625 1 11.6625H4L7.29 14.9525C7.92 15.5825 9 15.1325 9 14.2425V10.0725L13.18 14.2525C12.69 14.6225 12.16 14.9325 11.58 15.1625C11.22 15.3125 11 15.6925 11 16.0825C11 16.8025 11.73 17.2625 12.39 16.9925C13.19 16.6625 13.94 16.2225 14.61 15.6825L15.95 17.0225C16.34 17.4125 16.97 17.4125 17.36 17.0225C17.75 16.6325 17.75 16.0025 17.36 15.6125L2.05 0.2925C1.66 -0.0975 1.03 -0.0975 0.63 0.2925ZM16 8.66251C16 9.48251 15.85 10.2725 15.59 11.0025L17.12 12.5325C17.68 11.3625 18 10.0525 18 8.66251C18 4.8325 15.6 1.5525 12.22 0.2625C11.63 0.0324998 11 0.4925 11 1.1225V1.3125C11 1.6925 11.25 2.0225 11.61 2.1625C14.18 3.2025 16 5.7225 16 8.66251ZM7.29 2.3725L7.12 2.5425L9 4.4225V3.0725C9 2.1825 7.92 1.7425 7.29 2.3725ZM13.5 8.66251C13.5 6.89251 12.48 5.3725 11 4.6325V6.4225L13.48 8.90251C13.49 8.82251 13.5 8.74251 13.5 8.66251Z" fill="black"/>
</svg>
