<svg width="37.0592155456543" height="58.78643035888672" viewBox="0 0 37.0592155456543 58.78643035888672" fill="none" xmlns="http://www.w3.org/2000/svg">
<path fill-rule="evenodd" clip-rule="evenodd" d="M35.5945 17.9284C34.6485 14.3889 33.2766 11.2107 31.5891 8.55848C29.8842 5.90226 27.882 3.75456 25.6762 2.27322C23.4701 0.812756 21.0697 0 18.5296 0C15.9896 0 13.5892 0.812756 11.383 2.27322C9.17724 3.75456 7.17498 5.90226 5.47007 8.55848C3.78265 11.2107 2.41081 14.3889 1.4647 17.9284C0.51954 21.4486 0 25.3308 0 29.4113C0 37.5364 2.0965 44.9206 5.47007 50.2292C7.17498 52.8842 9.17724 55.0308 11.383 56.5123C13.5892 57.9755 15.9896 58.7864 18.5296 58.7864C21.0697 58.7864 23.4701 57.9755 25.6762 56.5123C27.882 55.0308 29.8842 52.8842 31.5891 50.2292C34.9627 44.9206 37.0592 37.5364 37.0592 29.4113C37.0592 25.3308 36.5397 21.4486 35.5945 17.9284Z" fill="#E21C2A"/>
</svg>
