<svg width="3.9492130279541016" height="5.084869384765625" viewBox="0 0 3.9492130279541016 5.084869384765625" fill="none" xmlns="http://www.w3.org/2000/svg">
<path fill-rule="evenodd" clip-rule="evenodd" d="M1.75452 0.0090918C0.665187 0.101212 -0.0935063 0.723794 0.00932078 1.93874C0.0827838 2.75564 0.7607 3.42624 1.82925 3.33528C2.206 3.30719 2.62749 3.19101 2.85127 2.84044L2.86728 2.85104C2.94678 3.89161 2.5113 4.2055 2.0665 4.29433C1.62699 4.39186 1.29169 4.21154 1.13003 3.87751V3.86967L0.35395 4.15684C0.587696 4.79659 1.26699 5.14409 2.12459 5.07656C3.12784 4.99504 4.09357 4.29433 3.93127 2.38895C3.8771 1.68952 3.68682 -0.144513 1.75452 0.0090918ZM1.99897 2.53917C1.58024 2.57648 1.06324 2.45765 0.998474 1.7156C0.942396 1.00291 1.53339 0.830647 1.81727 0.812095C2.37837 0.765876 2.68569 1.08125 2.73434 1.64542C2.78576 2.23652 2.37837 2.51373 1.99897 2.53917Z" fill="#1F211D"/>
</svg>
