<svg width="4.073712348937988" height="5.138893127441406" viewBox="0 0 4.073712348937988 5.138893127441406" fill="none" xmlns="http://www.w3.org/2000/svg">
<path fill-rule="evenodd" clip-rule="evenodd" d="M2.54342 0.0395023C1.58088 -0.129685 0.738333 0.248972 0.590452 1.0913C0.506601 1.54406 0.682255 1.8942 1.08264 2.16664C0.183598 2.36233 0.0684736 3.01618 0.0229965 3.26275C-0.0995478 3.93664 0.242431 4.84564 1.66176 5.09678C3.11809 5.34377 3.73897 4.45013 3.8541 3.82967C3.96636 3.19321 3.72795 2.8331 3.24201 2.50268C3.72222 2.37971 3.97929 2.04579 4.05646 1.62229C4.1754 0.942363 3.68014 0.236993 2.54342 0.0395023ZM2.77812 3.6889C2.71696 4.02886 2.37339 4.42077 1.80837 4.31868C1.31374 4.23441 0.982467 3.8584 1.06929 3.3783C1.16353 2.85049 1.66505 2.69964 2.06215 2.77512C2.66586 2.86936 2.84395 3.34077 2.77812 3.6889ZM3.03901 1.5536C2.97487 1.90226 2.64392 2.11533 2.21575 2.0424C1.74826 1.95696 1.52448 1.59145 1.5742 1.30639C1.64003 0.939715 1.98466 0.74201 2.47325 0.823529C2.82021 0.886285 3.10569 1.17738 3.03901 1.5536Z" fill="#1F211D"/>
</svg>
