<svg width="4.281223297119141" height="5.086856842041016" viewBox="0 0 4.281223297119141 5.086856842041016" fill="none" xmlns="http://www.w3.org/2000/svg">
<path fill-rule="evenodd" clip-rule="evenodd" d="M1.33884 0.128411C0.303571 0.475055 -0.276181 1.26322 0.131204 2.41605C0.405762 3.19955 1.22997 3.68029 2.24456 3.34383C2.59852 3.22149 2.98449 3.00842 3.10809 2.60845L3.12877 2.61895C3.46873 3.60821 3.12877 4.01305 2.71937 4.21796C2.31463 4.40845 1.94191 4.31093 1.70021 4.02704L1.69746 4.02227L1.01562 4.48171C1.41092 5.05818 2.1517 5.23457 2.96859 4.96001C3.92488 4.64019 4.68367 3.72916 4.04583 1.91919C3.81537 1.25717 3.17085 -0.483993 1.33884 0.128411ZM2.20714 2.53287C1.81173 2.66304 1.28074 2.66517 1.03428 1.96382C0.799154 1.2947 1.33014 0.977951 1.59537 0.896537C2.13495 0.718233 2.50767 0.957174 2.69869 1.48562C2.89375 2.04523 2.57043 2.40947 2.20714 2.53287Z" fill="#1F211D"/>
</svg>
