<svg width="13.364729881286621" height="13.680000305175781" viewBox="0 0 13.364729881286621 13.680000305175781" fill="none" xmlns="http://www.w3.org/2000/svg">
<path d="M1.23367 6.14778C0.863567 6.14778 0.589419 5.88048 0.589419 5.51723C0.589419 5.14713 0.870421 4.89355 1.23367 4.89355H1.80938L4.20818 5.03062L2.30285 3.2281L0.191904 1.11715C0.0685371 0.993788 0 0.822445 0 0.644248C0 0.260441 0.287856 0 0.678517 0C0.843006 0 1.00064 0.0616834 1.11715 0.18505L3.22124 2.3097L5.03062 4.20818L4.88669 1.81623V1.24052C4.88669 0.877275 5.14713 0.603126 5.51038 0.603126C5.88048 0.603126 6.14778 0.884128 6.14778 1.24052V5.03748C6.14778 5.73655 5.73655 6.14778 5.03748 6.14778H1.23367ZM7.80637 13.1043C7.44313 13.1043 7.17583 12.8301 7.17583 12.4669V8.59455C7.17583 7.89547 7.5802 7.4911 8.27928 7.4911H12.1585C12.5286 7.4911 12.8027 7.75154 12.8027 8.12164C12.8027 8.48489 12.5217 8.73848 12.1585 8.73848H11.5074L9.11543 8.6014L11.0139 10.4039L13.1728 12.5628C13.2962 12.6862 13.3647 12.8576 13.3647 13.0358C13.3647 13.4196 13.07 13.68 12.6862 13.68C12.5217 13.68 12.3641 13.6183 12.2476 13.495L10.0955 11.3292L8.28613 9.4307L8.43006 11.8158V12.4669C8.43006 12.837 8.16962 13.1043 7.80637 13.1043Z" fill="black"/>
</svg>
