<svg width="16.693283081054688" height="17.70574951171875" viewBox="0 0 16.693283081054688 17.70574951171875" fill="none" xmlns="http://www.w3.org/2000/svg">
<path d="M14.3558 16.1308L13.273 17.2037C13.1345 17.3422 12.9631 17.4099 12.7587 17.4067C12.5542 17.4034 12.3776 17.3274 12.2288 17.1787C12.0904 17.0402 12.0212 16.8678 12.0212 16.6615C12.0212 16.4552 12.0904 16.2827 12.2288 16.1442L13.2865 15.0615L12.2288 14.0038C12.0904 13.8653 12.0212 13.6938 12.0212 13.4895C12.0212 13.285 12.0904 13.1083 12.2288 12.9595C12.3776 12.8045 12.5558 12.7286 12.7635 12.7317C12.9712 12.7349 13.1493 12.8108 13.298 12.9595L14.3558 14.0172L15.4038 12.9443C15.5423 12.7956 15.7153 12.7212 15.923 12.7212C16.1307 12.7212 16.3089 12.7956 16.4578 12.9443C16.6128 13.0994 16.6903 13.2776 16.6903 13.4788C16.6903 13.6801 16.6128 13.8583 16.4578 14.0135L15.4 15.0615L16.473 16.1345C16.6217 16.2833 16.6951 16.459 16.6933 16.6615C16.6912 16.864 16.6128 17.0397 16.4578 17.1885C16.3089 17.3268 16.1332 17.397 15.9307 17.399C15.7282 17.4008 15.5526 17.3274 15.4038 17.1787L14.3558 16.1308ZM2.75 16.2057C3.0975 16.2057 3.39267 16.0842 3.6355 15.8412C3.8785 15.5984 4 15.3032 4 14.9557C4 14.6082 3.8785 14.3131 3.6355 14.0702C3.39267 13.8272 3.0975 13.7057 2.75 13.7057C2.4025 13.7057 2.10733 13.8272 1.8645 14.0702C1.6215 14.3131 1.5 14.6082 1.5 14.9557C1.5 15.3032 1.6215 15.5984 1.8645 15.8412C2.10733 16.0842 2.4025 16.2057 2.75 16.2057ZM2.75 17.7057C1.98717 17.7057 1.33817 17.4381 0.803 16.9028C0.267667 16.3676 0 15.7186 0 14.9557C0 14.1929 0.267667 13.5439 0.803 13.0087C1.33817 12.4734 1.98717 12.2057 2.75 12.2057C3.35383 12.2057 3.89708 12.383 4.37975 12.7375C4.86242 13.092 5.19158 13.5609 5.36725 14.1443C6.08142 14.0186 6.67308 13.6795 7.14225 13.127C7.61158 12.5743 7.84625 11.9339 7.84625 11.2057V7.35C7.84625 6.03717 8.30967 4.91733 9.2365 3.9905C10.1635 3.0635 11.2834 2.6 12.5962 2.6H14.1115L12.8135 1.302C12.6648 1.15317 12.5914 0.9765 12.5932 0.772C12.5952 0.567667 12.6738 0.387917 12.8288 0.23275C12.9839 0.0775833 13.1622 0 13.3635 0C13.5647 0 13.7428 0.0775833 13.898 0.23275L16.3673 2.71725C16.5481 2.89808 16.6385 3.109 16.6385 3.35C16.6385 3.591 16.5481 3.80192 16.3673 3.98275L13.873 6.477C13.7345 6.61533 13.5647 6.68708 13.3635 6.69225C13.1622 6.69742 12.9839 6.62567 12.8288 6.477C12.6738 6.3385 12.5978 6.16442 12.601 5.95475C12.6042 5.74525 12.675 5.56292 12.8135 5.40775L14.102 4.1H12.5962C11.6924 4.1 10.9248 4.41567 10.2933 5.047C9.66192 5.6785 9.34625 6.44617 9.34625 7.35V11.2057C9.34625 12.3391 8.969 13.3266 8.2145 14.1683C7.46 15.0099 6.52117 15.507 5.398 15.6595C5.243 16.2633 4.919 16.7553 4.426 17.1355C3.933 17.5157 3.37433 17.7057 2.75 17.7057ZM2.64425 4.41925L1.5615 5.49225C1.423 5.63075 1.25158 5.69842 1.04725 5.69525C0.84275 5.69192 0.666083 5.61592 0.51725 5.46725C0.378917 5.32875 0.30975 5.15633 0.30975 4.95C0.30975 4.74367 0.378917 4.57125 0.51725 4.43275L1.575 3.35L0.51725 2.29225C0.378917 2.15375 0.30975 1.98233 0.30975 1.778C0.30975 1.5735 0.378917 1.39683 0.51725 1.248C0.666083 1.093 0.844333 1.01708 1.052 1.02025C1.25967 1.02342 1.43783 1.09933 1.5865 1.248L2.64425 2.30575L3.69225 1.23275C3.83075 1.08408 4.00383 1.00975 4.2115 1.00975C4.41917 1.00975 4.59742 1.08408 4.74625 1.23275C4.90125 1.38792 4.97875 1.56608 4.97875 1.76725C4.97875 1.96858 4.90125 2.14683 4.74625 2.302L3.6885 3.35L4.7615 4.423C4.91017 4.57183 4.98358 4.7475 4.98175 4.95C4.97975 5.1525 4.90125 5.32817 4.74625 5.477C4.59742 5.61533 4.42175 5.6855 4.21925 5.6875C4.01675 5.68933 3.84108 5.61592 3.69225 5.46725L2.64425 4.41925Z" fill="black"/>
</svg>
