<svg width="12" height="20" viewBox="0 0 12 20" fill="none" xmlns="http://www.w3.org/2000/svg">
<path fill-rule="evenodd" clip-rule="evenodd" d="M10.4925 9.16249C10.4895 9.16114 10.4864 9.15912 10.4822 9.1571C10.4852 9.15912 10.4889 9.16046 10.4925 9.16249ZM10.4822 9.1571C10.4749 9.15306 10.4689 9.14969 10.4634 9.14632C10.4701 9.14969 10.4761 9.15373 10.4822 9.1571ZM10.4986 9.16653C10.4961 9.16518 10.4943 9.16383 10.4925 9.16249C10.4949 9.16383 10.4973 9.16585 10.4986 9.16653ZM12 9.1672V9.08301C12 8.58326 11.7006 8.33272 11.2502 8.33272C10.7998 8.33272 10.5004 8.66745 10.5004 9.1672C10.5004 11.9172 8.40006 14.0825 6.0003 14.0825C3.59994 14.0825 1.50023 11.9165 1.50023 9.16653C1.50023 8.66678 1.20018 8.33272 0.750417 8.33272C0.300652 8.33272 0 8.66678 0 9.16653C0 12.6668 2.3252 15.4167 5.24989 15.833V18.3331H2.25004C1.80027 18.3331 1.50023 18.6658 1.50023 19.1662C1.50023 19.6666 1.80027 20 2.25004 20H9.74996C10.1997 20 10.5004 19.6659 10.5004 19.1662C10.5004 18.6664 10.1997 18.3331 9.74996 18.3331H6.75011V15.833C9.6748 15.4167 12 12.6675 12 9.1672ZM10.4634 9.14632C10.4561 9.14228 10.4495 9.13891 10.444 9.13554C10.4483 9.13824 10.4549 9.14161 10.4634 9.14632ZM10.444 9.13554C10.4282 9.12679 10.4325 9.12881 10.444 9.13554V9.13554ZM6.0003 12.5004C7.80058 12.5004 9.00015 11.2504 9.00015 9.1672V3.33389C9.00015 1.25004 7.80058 0 6.0003 0C4.20003 0 2.99985 1.25004 2.99985 3.33389V9.1672C2.99985 11.2504 4.20064 12.5004 6.0003 12.5004Z" fill="black"/>
</svg>
