<svg width="17" height="20.5703125" viewBox="0 0 17 20.5703125" fill="none" xmlns="http://www.w3.org/2000/svg">
<path d="M11.5175 4.26485C11.8347 4.53131 12.3078 4.49022 12.5742 4.17308C12.8407 3.85594 12.7996 3.38285 12.4824 3.1164L8.98244 0.175772C8.7038 -0.0583348 8.2973 -0.0586203 8.01834 0.175095L4.50834 3.11572C4.19082 3.38173 4.14907 3.85476 4.41508 4.17227C4.68108 4.48978 5.15412 4.53154 5.47163 4.26553L7.74998 2.35676V12.7656C7.74998 13.1798 8.08577 13.5156 8.49998 13.5156C8.9142 13.5156 9.24998 13.1798 9.24998 12.7656V2.35971L11.5175 4.26485Z" fill="black"/>
<path d="M1.5 8.82031C1.5 8.12996 2.05964 7.57031 2.75 7.57031H5.28033V6.07031H2.75C1.23122 6.07031 0 7.30153 0 8.82031V17.8203C0 19.3391 1.23122 20.5703 2.75 20.5703H14.25C15.7688 20.5703 17 19.3391 17 17.8203V8.82031C17 7.30153 15.7688 6.07031 14.25 6.07031H11.7339V7.57031H14.25C14.9404 7.57031 15.5 8.12996 15.5 8.82031V17.8203C15.5 18.5107 14.9404 19.0703 14.25 19.0703H2.75C2.05964 19.0703 1.5 18.5107 1.5 17.8203V8.82031Z" fill="black"/>
</svg>
