<svg width="18.000072479248047" height="20.75" viewBox="0 0 18.000072479248047 20.75" fill="none" xmlns="http://www.w3.org/2000/svg">
<path fill-rule="evenodd" clip-rule="evenodd" d="M4.52515 4.75V4.3259C4.52515 1.95496 6.51995 0 9.00005 0C11.4801 0 13.4749 1.95496 13.4749 4.3259V4.75H16.5001C17.3285 4.75 18.0001 5.42157 18.0001 6.25V19.25C18.0001 20.0784 17.3285 20.75 16.5001 20.75H1.5C0.671574 20.75 0 20.0784 0 19.25V6.25C0 5.42157 0.671573 4.75 1.5 4.75H4.52515ZM6.02515 4.3259C6.02515 2.82294 7.30826 1.5 9.00005 1.5C10.6918 1.5 11.9749 2.82294 11.9749 4.3259V4.75H6.02515V4.3259ZM4.52515 6.25V7.00822C4.52515 7.42244 4.86093 7.75822 5.27515 7.75822C5.68936 7.75822 6.02515 7.42244 6.02515 7.00822V6.25H11.9749V7.00822C11.9749 7.42244 12.3107 7.75822 12.7249 7.75822C13.1392 7.75822 13.4749 7.42244 13.4749 7.00822V6.25H16.5001L16.5001 19.25H1.5V6.25H4.52515Z" fill="black"/>
</svg>
