<svg width="12.0703125" height="12.90625" viewBox="0 0 12.0703125 12.90625" fill="none" xmlns="http://www.w3.org/2000/svg">
<path d="M10.9453 12.5938C11.5547 12.5938 12.0703 12.125 12.0703 11.25V1.65625C12.0703 0.78125 11.5547 0.3125 10.9453 0.3125C10.625 0.3125 10.3672 0.414062 10.0469 0.601562L2.08594 5.28906C1.65625 5.53906 1.42188 5.82812 1.33594 6.14844V0.65625C1.33594 0.289062 1.03125 0 0.664062 0C0.296875 0 0 0.289062 0 0.65625V12.2578C0 12.625 0.296875 12.9062 0.664062 12.9062C1.03125 12.9062 1.33594 12.625 1.33594 12.2578V6.75781C1.42188 7.07812 1.65625 7.36719 2.08594 7.61719L10.0469 12.3047C10.3594 12.4922 10.625 12.5938 10.9453 12.5938Z" fill="black"/>
</svg>
