<svg width="17.998037338256836" height="17.50584602355957" viewBox="0 0 17.998037338256836 17.50584602355957" fill="none" xmlns="http://www.w3.org/2000/svg">
<path fill-rule="evenodd" clip-rule="evenodd" d="M0.75 7.92742e-06L5.24804 0C6.21454 0 6.99804 0.783502 6.99804 1.75V3.01143H11.248C12.2145 3.01143 12.998 3.79494 12.998 4.76144V7.9703H17.248C17.6623 7.9703 17.998 8.30609 17.998 8.7203C17.998 9.13451 17.6623 9.4703 17.248 9.4703H12.998V12.7365C12.998 13.703 12.2145 14.4865 11.248 14.4865H6.99804V15.7558C6.99804 16.7223 6.21453 17.5058 5.24804 17.5058L0.75 17.5058C0.335786 17.5058 7.15257e-07 17.1701 0 16.7558C-7.15254e-07 16.3416 0.335786 16.0058 0.75 16.0058L5.24804 16.0058C5.38612 16.0058 5.49804 15.8939 5.49804 15.7558L5.49801 11.7504C5.49801 11.6123 5.38608 11.5004 5.24801 11.5004L0.75 11.5004C0.335788 11.5004 7.15257e-07 11.1646 0 10.7504C-7.15254e-07 10.3362 0.335785 10.0004 0.75 10.0004L5.24801 10.0004C6.21451 10.0004 6.99801 10.7839 6.99801 11.7504L6.99803 12.9865H11.248C11.3861 12.9865 11.498 12.8745 11.498 12.7365V4.76144C11.498 4.62336 11.3861 4.51143 11.248 4.51143H6.99804V5.73487C6.99804 6.70136 6.21454 7.48487 5.24804 7.48487L0.75 7.48487C0.335786 7.48488 7.15257e-07 7.14909 0 6.73488C-7.74859e-07 6.32066 0.335786 5.98488 0.75 5.98487L5.24804 5.98487C5.38611 5.98487 5.49804 5.87294 5.49804 5.73487V1.75C5.49804 1.61193 5.38611 1.5 5.24804 1.5L0.75 1.50001C0.335786 1.50001 0 1.16422 0 0.750009C0 0.335796 0.335786 8.64267e-06 0.75 7.92742e-06Z" fill="black"/>
</svg>
