<svg width="664.5" height="455.3999938964844" viewBox="0 0 664.5 455.3999938964844" fill="none" xmlns="http://www.w3.org/2000/svg"><path d="M 625.1643529514852 359.2774335052592 C 604.5856982785737 394.403204865226 583.0447173702371 425.4751408968418 559.0030290789374 455.3999938964843 C 506.2818904295517 440.1328784136441 464.4229478906391 426.10080815835767 375.53307855876136 387.58922089979814 C 297.4925349034321 353.7767139042651 212.05282684872185 307.21281670468863 212.05282684872185 307.21281670468863 C 212.05282684872185 307.21281670468863 184.15224945293755 337.25501557635596 154.66497337810776 378.5039292916186 C 130.86145105518335 411.8015572164133 106.95815807449446 447.98312288685827 106.95815807449446 447.98312288685827 C 106.95815807449446 447.98312288685827 103.05097401313967 388.4234807917777 102.92545517125745 358.58661478406697 C 102.83855751034663 327.48210588373036 103.57879872704477 294.44190986465827 106.98711845812085 260.88032287147996 C 76.48925583524104 247.19042891404544 33.41697926804469 224.98874099395016 0 205.44617946779454 C 18.905071028394758 192.95549524156831 40.19178266758166 180.23669125812722 59.00673586365535 170.5615430884259 C 77.80881671850838 160.95156926734077 99.85507850344543 150.51387988364192 122.99560372990304 141.00166758548107 C 127.81681525522049 122.51167493670607 138.27670826521032 87.19038434571401 150.46812857452258 56.94292127690946 C 162.72069965699328 26.54229686755697 176.0932936449704 4.076662277253821 178.27217199398427 0 C 180.76001990997528 2.626530636279109 196.45951987958773 19.360069916689348 210.59165495365866 40.12465095625139 C 228.97212038160527 67.14597900002559 250.17195468450518 106.16267175203674 250.17195468450518 106.16267175203674 C 250.17195468450518 106.16267175203674 297.29301266086384 101.05299240129159 343.0880802588811 99.6647764153449 C 381.95708443471426 98.4883774200405 419.21041619680307 100.90635822340468 432.80185572072406 101.76340226673834 C 423.4362185230705 108.64582463896578 400.86535781322164 126.09952578451518 374.04294628007176 147.9525197811557 C 347.21731523114465 169.81203331081065 318.0711857617515 195.58528278323718 298.1587457937879 215.183241265899 C 307.41173808516015 232.52616423458213 354.75166877643176 324.07348115664536 354.75166877643176 324.07348115664536 C 355.1668465128513 324.87186823853915 355.9650077517647 325.2954636245412 356.5346701822683 325.0249896426557 C 357.10433261277194 324.75451566077027 357.29101836532544 323.86166589459486 356.9466461348038 323.0306915787864 L 313.62652025705154 217.894497220191 C 328.9591313229061 202.51006733761815 355.2119164853688 178.6073296816051 380.66327777036867 157.428891814442 C 409.31376011564396 133.59133518298592 436.35501956885776 112.74854645101375 449.20621936615566 102.9854122430865 C 461.71626492883263 104.03146218351884 504.421624459654 107.80832739256584 537.7967652809634 115.88995997285451 C 571.9926079748294 124.17363322459452 582.3173318655219 127.487753334145 606.3461459083048 137.08143309122318 C 628.7174681635688 173.86915510943183 647.7609345025744 218.26924638676368 664.5 276.9229976528184 C 658.3914160736512 293.05041682628627 645.7430076243967 324.1516621452924 625.1643529514852 359.2774335052592 Z" fill="black" fill-rule="evenodd" clip-rule="evenodd" stroke="none" /></svg>