<svg width="829" height="865.5999755859375" viewBox="0 0 829 865.5999755859375" fill="none" xmlns="http://www.w3.org/2000/svg"><path d="M 828.6317404922714 306.21747916501494 C 827.511776399557 304.56546102953087 820.267421753562 293.97887517613543 813.718206921166 287.19158896010225 C 807.1689920887701 280.40756172933874 801.4887024703758 275.09306006794293 794.0287124986693 271.46969855031676 C 793.7680312094478 285.28213447112506 791.7694776189003 299.6843566089642 789.1015174642896 313.0699403183582 C 783.5403169454344 340.9326766023334 775.4270546079366 363.44508360491903 773.2804567337671 368.9909119505864 C 760.8803951943571 321.13777458608354 740.3155015309956 271.8802725236759 717.6008275739403 232.10801490414477 C 697.164702104633 223.1343295884254 680.3524067352321 217.22356689061763 645.8909853247932 208.94066629636174 C 611.5711666830961 200.69686685002486 576.7364621718345 196.73786763668434 567.1137829505279 195.6951736567686 C 576.6946246433953 188.54946199977513 586.3430235551616 181.49826282283632 596.110526824153 174.61322469062233 C 617.2611125094767 159.42899389865426 638.900869141932 144.96161017413965 660.6629275704213 130.6864784488426 L 664.3961171342671 128.23940630118534 L 662.175513523279 124.46290084598216 C 657.5379613394394 117.03044807332712 639.5059260281619 90.03444833879229 613.8046821108068 65.12709626457124 C 588.1034381934517 40.219744190350184 566.7758457095819 28.574153934418277 560.4519110868198 25.133263884137754 C 568.642452411572 28.049548614802227 621.7345058199329 45.00310110521351 685.9844000560098 92.99634765823556 C 751.5473554859718 141.97363897253885 791.0711779147039 207.92403788089248 795.3289724940548 214.53211042282882 C 795.8117156343834 215.28806352548716 796.6419869612766 215.6301987485817 797.1826592736767 215.3043569022084 C 797.7233315860767 214.97525663677538 797.8134192814729 214.07266770310605 797.3821687749635 213.2873887991095 C 793.9032001517527 206.95953987910377 762.1516455607532 143.17599712541082 690.9438193230843 87.81220469241491 C 619.7392124571477 32.44515470457444 539.9739700219968 14.057899019897063 527.7283858774417 10.959143060291156 C 505.3709439356054 5.296011747675145 496.7941600130395 4.872417567913756 496.7941600130395 4.872417567913756 C 496.7941600130395 4.872417567913756 510.33672565771485 8.147127501134278 526.6759717323853 13.930820765968646 C 536.7041554263933 17.479238734622268 546.4587831156662 21.799901275421956 555.7017052092868 27.08505609630984 C 562.4086163314672 30.900664368261364 582.5518738568699 42.230183833125366 608.5846005372177 68.97202562937822 C 634.6141097530441 95.71386742563108 648.2049595368676 119.0148263237291 651.9896654852665 125.31986663812239 C 631.2284921820095 138.61421401783306 610.5831399726856 152.10405950820476 590.3722942362094 166.24559620105498 C 577.2030622334414 175.29422530415107 564.2398128052181 184.63937200190944 551.3730997095113 194.12137033334247 C 516.4868623640041 191.29306294709158 478.81038905359867 190.01903122691004 448.6196339878077 190.40026619729895 C 419.7934348059325 190.79453484392684 390.8384683836084 192.446544903469 362.25042069986137 194.83496556765192 C 356.85978918969295 185.53869745043002 342.6060260897779 161.4785385038155 323.75973433000684 136.54511836190395 C 307.72300811600303 115.32955433735893 290.31847994540067 98.73442561907856 287.216050746953 95.89308443738662 C 305.55707088650945 67.33630396986985 326.8782546654838 41.65344786142465 355.6400892992419 25.126748774448643 C 381.6889090238298 10.157573819226778 400.7636922593213 6.2409534538038365 427.9035109094847 2.356918411398229 C 428.7821033575344 2.2330985020282466 429.4514893520317 1.6465832351773368 429.39034188848404 1.0144499971881884 C 429.32597614091026 0.3790583103387729 428.5568062214053 -0.0640865099676685 427.67177717550305 0.007598694446421766 C 412.69708507753774 1.2197303462667315 382.487050018357 4.230509042944853 352.53444835790486 21.223162442870958 C 321.81911116313773 38.64918507113401 300.0570126832229 63.26327710553733 281.18175802112563 90.57860113311338 C 277.2844117295085 87.26153106670415 273.3034056386987 84.03895726886466 269.13572342928285 81.04447048076635 C 262.23893326645685 76.11774157764708 256.88371389173835 72.57258545511343 247.20310505135782 68.16720360155308 C 237.5224962109773 63.76182174799274 227.83543575345968 62.393282919300944 223.92521650453887 62.49429390270286 C 223.0369691597104 62.51710283425853 222.37722605997425 63.09384354610504 222.44802838305043 63.72923523295446 C 222.5188307061266 64.3613684709436 223.30086395003102 64.8208024740132 224.182674697007 64.93484712620396 C 227.3237232441684 65.3388910598116 236.89814788809332 67.56764567360531 245.34293375521355 72.11314005334351 C 253.78450215781223 76.65537544781203 259.2394944016762 80.6404216300723 265.57308427881907 85.81153199247284 C 269.6731825683855 89.17421998531952 273.5640815340897 92.78455366760933 277.36166067819363 96.49589229124489 C 275.06702153021905 100.10296174337284 260.1019927922802 124.28043200108263 246.49829150727385 154.93237523860228 C 233.24860191214879 184.79252285320797 221.3731215481096 221.01961576765464 217.3792267655075 233.95227919794377 C 198.60373829731805 242.49911134863206 177.10879999091532 253.70479771739437 159.2827038651381 263.76679434345647 C 140.61985526336423 274.3729466246899 117.32266192941591 289.50830646505557 98.23178183526292 303.864898994652 C 84.65382694166661 296.02514410773375 75.76814496891058 290.37181454496255 71.2915070161797 287.41642890478323 C 69.27685904038458 286.08699404761006 68.16010847856953 284.92698112766493 67.15600278959823 283.1022666926129 C 66.02316562037943 281.0527213722391 63.41635636378571 272.74699953694875 64.47195459717574 259.0062479414391 C 65.5307712486927 245.2687558080075 66.54131210510845 238.9018181371006 68.38539083381542 228.5367888066871 C 70.25521583473176 218.1750179847349 72.42434323179312 207.35380509867144 75.04724743983759 197.18428055423624 L 78.46184889251654 184.75993586136133 L 71.0533497964194 195.71799942748268 C 59.91807508620132 212.1893048242331 49.712883163239276 229.45893048975415 40.930176743267 247.38349060834693 C 32.105632794855424 265.298274247939 24.587716541693823 283.86797517550116 18.450442541450474 302.8906230834374 C 12.371097683478364 321.9263050252189 7.624122859343442 341.4116630418953 4.56031300960947 361.1739704373644 C 1.4804117844448972 380.3790910046672 0.06114746354762085 399.83511576987445 0 419.27809887230234 C 0 420.1774224135894 0.5084894423381588 420.9073340306243 1.1392737670713076 420.9073340306243 C 1.7700580918044562 420.9073340306243 2.288202465377823 420.1774224135894 2.2978573277001426 419.27809887230234 C 2.5424471818906262 399.96545229386 4.13549922015326 380.6658511926639 7.373096496700953 361.63994572988315 C 10.60103875726921 342.0633666413916 15.492835483476863 322.7865283722037 21.69769388037223 303.9789363010137 C 27.96369936086308 285.1843782636689 35.58782674983204 266.8590492592204 44.492827336995276 249.20167920552134 C 51.3155967437181 235.617331248071 58.933283005209034 222.49892902101993 67.19140824981054 209.75525335978648 C 65.71099610776362 215.63669854080163 64.32391141615997 221.53443578731498 63.084870739976786 227.48756624724552 C 60.93827286580726 237.96012349603214 59.92773177099015 244.19999268758238 58.41191834075444 258.5207425777211 C 56.87035863830936 273.0369982074549 59.345220976545455 283.2977745778457 60.71942973082865 285.99900347176396 C 62.13547613275181 288.7784344231161 63.9473736602063 291.07237264617225 66.96290914524712 293.26528852437684 C 69.97844463028795 295.45820440258143 82.69711168416289 303.85185494783076 91.15477122379083 309.3422905568893 C 79.86823753684483 318.21822252600276 68.98077530076782 327.6253056785618 58.878570850656665 337.8990996329088 C 44.21927133226028 352.9008587191271 30.840847872874285 369.77947862715854 22.573067373892005 389.34628123664936 C 22.2222740425373 390.17391955862206 22.41859152864588 391.05366934114215 22.997883308960297 391.3045675789419 C 23.577175089274714 391.5554658167416 24.346343556021537 391.0993125384237 24.729319787238285 390.28796634155026 C 33.589265381440676 371.52599148158515 47.331353877877994 355.58905667845454 62.30282660411101 341.48662113352333 C 73.25144069181034 331.2388942932501 85.03359646622239 321.9361263242072 97.24699738311361 313.24592456930486 C 130.00594331039 334.2236241514912 163.96209500782504 353.2690558710042 198.51363212581785 371.040470859999 C 196.3670342516483 401.200391716878 195.87462813869544 431.0898763974199 196.36058954815016 461.1129456206243 C 196.92378989343365 492.58601010359297 199.21842802820248 530.7094643489326 203.06106335727395 564.1375805061514 C 173.6072964807825 609.18521932842 134.8333759652833 678.5439441820097 134.8333759652833 678.5439441820097 C 134.8333759652833 678.5439441820097 101.52409674959388 660.4303447990563 68.86169764449305 621.697521816565 C 41.168333963027294 588.8559219245146 25.337576019487653 558.3637400096583 11.75318524324285 527.5032560450816 C 9.101316464062755 521.4751813209659 6.5331236953666245 515.4307592215803 3.977803407171484 509.35380830097 C 5.969923409683481 520.6344537149771 7.517919113977711 528.9466503696486 7.517919113977711 528.9466503696486 C 15.164569708202922 571.0649692353866 29.25423448867574 611.8474083442959 48.4931560950351 649.9871961374627 C 67.64840264451587 688.1693435870097 92.57081989052674 723.484095137809 122.38825371128026 753.9633421949628 C 152.11557563890133 784.563151204335 187.30753695912148 809.5617033708025 225.27045615806094 828.4051380814502 C 244.30340854035074 837.7600574437423 264.0991021785877 845.4173215525756 284.25523576051154 851.7353949471974 C 303.9608098767731 857.7113344895488 324.03648586633983 862.3318124701633 344.30204185015765 865.5706804791387 C 345.1806342982074 865.7140508879669 345.98199462721675 865.3164908927005 346.088198111831 864.6876161035716 C 346.19761988792146 864.0587413144427 345.57968602136526 863.4070783628607 344.70753011156773 863.2278653443753 C 324.4451915922715 859.0896735557087 304.3985261852995 853.8110133417497 284.83777420951196 847.1964233060824 C 265.2705853974706 840.581833270415 246.18934053198564 832.6280506133027 227.8515378569507 823.1297606931798 C 190.56446167092605 804.2276728302285 156.527844752291 779.0335643824776 127.2478648258106 749.0886974551113 C 97.84559073213923 719.199222310737 73.66981788341405 684.2983385255782 54.28607222936988 646.9568614650145 C 44.59902750634087 628.2665737911983 36.3087180804701 608.8366228153822 29.160901316600256 588.9895961071524 C 24.758283643169875 576.7444588898654 20.889904306701794 564.2875386485449 17.555758539169148 551.6937515156817 C 21.44023163508126 559.8169890098002 32.75573036996557 586.6108830231593 63.915190194141076 625.6141555326225 C 95.68290529696057 665.3766366731529 125.3329851895354 682.2292166451883 137.80384906692163 688.6417844011463 C 148.43063469240357 671.1245254432 181.45027725598783 613.4928778743023 204.86975522107338 579.4815030067596 C 207.9078186793973 602.6684102942445 211.85344028931297 625.7445130361767 216.78385660263567 648.6120960306205 C 223.5647880041165 679.3617907075126 238.78727064329937 729.4273895176915 244.31307046996912 740.750394588079 C 259.6964854587627 746.5829640494079 291.76030075089164 756.508098552011 324.20385505220446 762.3374095048787 C 356.6441937962065 768.1699789662076 373.1507766341589 770.0631392440489 397.79963882904013 772.1648192693787 C 391.76534991763424 774.4522292705153 377.64672080442716 780.3695375937483 349.6090006874609 788.6654712682327 C 321.5744999422269 796.9614049427172 296.55552347717065 802.8135337989606 281.1109623583869 806.0719523818956 C 285.18209583841644 811.2430627442961 294.60522312299724 820.2982174468656 304.9230530051641 827.4471880891288 C 315.81695589191645 834.9969438287325 327.56695287480227 840.5329414584461 329.555854578388 841.47136602845 C 330.36042644913556 841.8493425797792 331.2325822397324 841.686494638075 331.5029183959324 841.109754553902 C 331.7700362532062 840.533014469729 331.3452228809523 839.731421805453 330.5535241463094 839.3208610635264 C 328.63220648177366 838.3205266207889 317.34889145135594 832.3869042988721 307.59748122660454 825.1760239030775 C 298.38352489612623 818.3626705729706 290.6596350084702 810.2589548059046 289.5750720847439 809.0533398134007 C 301.18665265203424 806.7919974031462 327.3899211633159 800.8682116380858 352.8015188925121 793.4683429964272 C 378.87930151942624 785.8794861089044 404.136440925875 776.8015702431562 413.134772777903 773.350904905896 C 463.3175306835929 776.840671152671 513.7094752778739 775.8175381172971 563.7152249546098 771.298111328441 C 564.6034722994383 771.2199092859074 565.2728952796689 770.6366825068446 565.2214026793748 770.0045492688555 C 565.1666917913295 769.3691575820061 564.407136396826 768.9096951715871 563.5188890519975 768.9781219643917 C 516.5705126271431 772.5493487770619 469.3743628259678 773.0576622695841 422.47104234767966 769.6395810633202 C 423.7744487639866 769.1182340733623 448.9028204531838 760.7407613384033 492.6168192116241 736.0321735122386 C 537.2094089281057 710.8283038433552 558.4887454041858 688.3028921306397 562.096445507644 685.1943606456499 C 561.0601569486108 681.1083035619391 555.2543641617515 662.9491708860355 545.7861623352998 637.7811457638434 C 536.317960508848 612.6098630868066 524.2236100704786 584.5157698412279 520.5290162536135 575.9298374962374 C 520.1750046531326 575.105457623125 519.4122919755464 574.6296828754017 518.8265636569798 574.8642890179027 C 518.2408353384133 575.1054119985232 518.0187711032926 575.9787127391152 518.3212901295544 576.8259015754463 C 521.6393445216564 585.9918331686827 532.0569594314373 615.4316360526291 539.887052706857 640.2282026536325 C 547.0606153853342 662.9426386112448 550.6296526318338 678.1497018492443 551.8493836336601 682.157556637117 C 547.4789491878936 686.1002431629969 531.9410901804331 702.5943476291922 488.9962618853508 728.9647289970228 C 456.5784511146319 748.8769258744788 418.67343674102676 763.777692177965 407.5381620308087 768.4079049168471 C 388.904276331361 766.7721787276591 361.06932704605015 763.3834159918047 325.3849525204372 756.2344453495415 C 289.4624284039069 749.043115050898 261.91711577070123 739.3883647525188 250.33128159482092 734.6897252431826 C 239.6755321134074 706.1524958264337 231.78428031112776 676.5954457621191 225.61804150134745 646.6961960459776 C 220.27246593774527 620.149859035703 216.32362972412417 593.3069872656645 213.53337444871715 566.3337980439757 C 215.59629655080406 563.2578509283863 241.68050361710226 524.48917863112 268.33435924860186 489.09297676580576 C 291.8214211335368 457.89687691949797 316.11307062370776 429.67895272345515 319.73686234099796 425.67761495250505 C 319.73686234099796 425.67761495250505 395.3955996888978 466.27100907535333 476.7506872768494 500.36384188634514 C 571.0593823891187 539.8851991224388 624.740403453891 556.8713259692747 667.1896163367447 567.1157943010867 C 694.9473464735382 532.3256578444752 717.1020671711984 498.0243186366297 735.8003174187631 465.5411451391563 C 754.4985676663279 433.0579716416829 766.7634308506673 402.816591887738 772.0317677168421 389.08561581761234 C 773.4799969888271 394.87582562256097 774.8574235652338 400.6823055598223 776.1061191381958 406.5213920380739 C 782.4139626239287 436.1599687062443 786.1439279586149 466.41762002292705 786.3885178128054 496.76979001817335 C 786.6363259510221 526.5680288328643 783.4888851933581 556.4477427561061 776.4215260218452 585.4346348971153 C 776.2091190526168 586.3078910859244 776.5276955566184 587.151849515688 777.1359519080684 587.3147704388747 C 777.7442082595184 587.4744329430016 778.4296823141776 586.9009101829662 778.658180718437 586.0309123834163 C 786.3209229264942 556.9755944255699 790.0702241298849 526.8808494596176 790.375961455073 496.7763203857306 C 790.7074450524706 466.1113431143657 787.5117199917576 435.44965009911454 781.6930565124073 405.3548975042283 C 779.9648361874436 396.48548159842073 777.9855484948063 387.6714317279527 775.8196408270792 378.8997682151343 C 777.9598021033962 372.9498957868567 787.8367687793126 346.1233384923102 793.8807129450993 314.0246556426373 C 795.9919094118793 302.8156964611623 797.652592722458 290.8084255934675 798.276940508939 279.1041864765074 C 802.5122071150068 281.82496594438516 804.5557543399696 283.39878285685006 810.7638306781892 289.26067794071406 C 816.9751254345357 295.1290900415007 825.3813073298288 305.83626109152294 826.7040234204926 307.5925487561209 C 827.2414774339663 308.3094008300623 828.0878859391482 308.59611819470655 828.6028119197385 308.2279169005566 C 829.1209561992551 307.86297399566587 829.1337933367571 306.96039865103535 828.6317404922714 306.21747916501494 Z" fill="black" fill-rule="evenodd" clip-rule="evenodd" stroke="none" /></svg>