<svg width="664.5" height="455.3999938964844" viewBox="0 0 664.5 455.3999938964844" fill="none" xmlns="http://www.w3.org/2000/svg"><path d="M 625.164349338556 359.2774335052592 C 604.5856946828175 394.403204865226 583.0447079813766 425.4751408968418 559.0030193891747 455.3999938964843 C 506.2818835266045 440.1328784136441 464.4229524013712 426.10080815835767 375.53308253425706 387.58922089979814 C 297.49253934018816 353.7767139042651 212.05283106713435 307.21281670468863 212.05283106713435 307.21281670468863 C 212.05283106713435 307.21281670468863 184.15224729412498 337.25501557635596 154.66497232551887 378.5039292916186 C 130.8614497235675 411.8015572164133 106.95816026928026 447.98312288685827 106.95816026928026 447.98312288685827 C 106.95816026928026 447.98312288685827 103.05097584905558 388.4234807917777 102.92545699564462 358.58661478406697 C 102.83855933420274 327.48210588373036 103.57879345907978 294.44190986465827 106.98711302638162 260.88032287147996 C 76.48924950960816 247.19042891404544 33.41698233735175 224.98874099395016 0 205.44617946779454 C 18.90507085750524 192.95549524156831 40.19177872996079 180.23669125812722 59.006733654164 170.5615430884259 C 77.80881432866799 160.95156926734077 99.85507432393366 150.51387988364192 122.99559976852284 141.00166758548107 C 127.81681125983837 122.51167493670607 138.27670666102824 87.19038434571401 150.46812713645883 56.94292127690946 C 162.72069839066447 26.54229686755697 176.09329479895754 4.076662277253821 178.27217310968658 0 C 180.76002101577123 2.626530636279109 196.45952457307104 19.360069916689348 210.59165903786436 40.12465095625139 C 228.9721242467371 67.14597900002559 250.17194714574106 106.16267175203674 250.17194714574106 106.16267175203674 C 250.17194714574106 106.16267175203674 297.29301326470153 101.05299240129159 343.088081254345 99.6647764153449 C 381.9570851856543 98.4883774200405 419.21042609130296 100.90635822340468 432.80186495628413 101.76340226673834 C 423.43622785205685 108.64582463896578 400.8653622081587 126.09952578451518 374.0429501187007 147.9525197811557 C 347.21731851316974 169.81203331081065 318.0711825521492 195.58528278323718 298.1587426625495 215.183241265899 C 307.41173485014923 232.52616423458213 354.75167084318144 324.07348115664536 354.75167084318144 324.07348115664536 C 355.1668485581315 324.87186823853915 355.965009929958 325.2954636245412 356.53467241278435 325.0249896426557 C 357.1043348956107 324.75451566077027 357.29102063550954 323.86166589459486 356.9466484031593 323.0306915787864 L 313.6265490632486 217.894497220191 C 328.95915963008775 202.51006733761815 355.21188998494785 178.6073296816051 380.6632517003266 157.428891814442 C 409.3137328625198 133.59133518298592 436.3550310380677 112.74854645101375 449.2062301084357 102.9854122430865 C 461.71627586649635 104.03146218351884 504.42161357125116 107.80832739256584 537.7967536434323 115.88995997285451 C 571.9925956635506 124.17363322459452 582.3173872579246 127.487753334145 606.3462016004273 137.08143309122318 C 628.7175240031726 173.86915510943183 647.7609348724088 218.26924638676368 664.5 276.9229976528184 C 658.3914159894096 293.05041682628627 645.7430039942946 324.1516621452924 625.164349338556 359.2774335052592 Z" fill="black" fill-rule="evenodd" clip-rule="evenodd" stroke="none" /></svg>