<svg width="829" height="865.5999755859375" viewBox="0 0 829 865.5999755859375" fill="none" xmlns="http://www.w3.org/2000/svg"><path d="M 828.6317405193826 306.21747916501494 C 827.5117765091195 304.56546102953087 820.2674228732544 293.97887517613543 813.7182080462072 287.19158896010225 C 807.16899321916 280.40756172933874 801.4887054493547 275.09306006794293 794.0287150732453 271.46969855031676 C 793.768033773415 285.28213447112506 791.769480598202 299.6843566089642 789.1015204016044 313.0699403183582 C 783.5403198153605 340.9326766023334 775.4270585519613 363.44508360491903 773.2804608358236 368.9909119505864 C 760.8803992556973 321.13777458608354 740.3155080599225 271.8802725236759 717.600835775115 232.10801490414477 C 697.1647099030987 223.1343295884254 680.3524176786248 217.22356689061763 645.8909988052258 208.94066629636174 C 611.5711788757226 200.69686685002486 576.7364816970083 196.73786763668434 567.1138022305153 195.6951736567686 C 576.6946441716491 188.54946199977513 586.3430414194977 181.49826282283632 596.1105439694084 174.61322469062233 C 617.2611280976321 159.42899389865426 638.9008812297642 144.96161017413965 660.6629399633476 130.6864784488426 L 664.3961292523572 128.23940630118534 L 662.1755258048493 124.46290084598216 C 657.5379734856223 117.03044807332712 639.505880855132 90.03444833879229 613.8046369226844 65.12709626457124 C 588.1033929902368 40.219744190350184 566.7758044605115 28.574153934418277 560.451869826513 25.133263884137754 C 568.6424115018851 28.049548614802227 621.7345210787585 45.00310110521351 685.9844105847768 92.99634765823556 C 751.547361188013 141.97363897253885 791.0711807070127 207.92403788089248 795.328974972906 214.53211042282882 C 795.8117181074954 215.28806352548716 796.6419893434642 215.6301987485817 797.18266161606 215.3043569022084 C 797.7233338886559 214.97525663677538 797.8134216072201 214.07266770310605 797.3821711026591 213.2873887991095 C 793.9032024971676 206.95953987910377 762.1515894513705 143.17599712541082 690.9437684560011 87.81220469241491 C 619.7391592032845 32.44515470457444 539.9739312228752 14.057899019897063 527.7283470262312 10.959143060291156 C 505.37090482313266 5.296011747675145 496.7941539545674 4.872417567913756 496.7941539545674 4.872417567913756 C 496.7941539545674 4.872417567913756 510.33674911761256 8.147127501134278 526.6759939893924 13.930820765968646 C 536.7041778987337 17.479238734622268 546.4588039162686 21.799901275421956 555.701725329428 27.08505609630984 C 562.4086364346501 30.900664368261364 582.5518900930988 42.230183833125366 608.5846167641355 68.97202562937822 C 634.6141259708876 95.71386742563108 648.2049113394041 119.0148263237291 651.9896174859767 125.31986663812239 C 631.2284438039408 138.61421401783306 610.583157959682 152.10405950820476 590.3723118039119 166.24559620105498 C 577.2030798170535 175.29422530415107 564.2398332503915 184.63937200190944 551.3731201483231 194.12137033334247 C 516.4868815567094 191.29306294709158 478.8103862262971 190.01903122691004 448.61963147593013 190.40026619729895 C 419.7934325090208 190.79453484392684 390.8384720327741 192.446544903469 362.25042454646024 194.83496556765192 C 356.8597934331486 185.53869745043002 342.60600277443234 161.4785385038155 323.7597104949092 136.54511836190395 C 307.7229835543139 115.32955433735893 290.3184893260094 98.73442561907856 287.21606011756035 95.89308443738662 C 305.55707890685625 67.33630396986985 326.8782592089606 41.65344786142465 355.6400936324914 25.126748774448643 C 381.6889133465834 10.157573819226778 400.76369136337365 6.2409534538038365 427.9035099227221 2.356918411398229 C 428.78210236569043 2.2330985020282466 429.4514882550324 1.6465832351773368 429.39034079226144 1.0144499971881884 C 429.3259750419762 0.3790583103387729 428.55680524614763 -0.0640865099676685 427.67177620580065 0.007598694446421766 C 412.69708425666255 1.2197303462667315 382.48702376698213 4.230509042944853 352.5344224044212 21.223162442870958 C 321.8190855636977 38.64918507113401 300.05702301569295 63.26327710553733 281.18176783597585 90.57860113311338 C 277.2844215928789 87.26153106670415 273.3034165103536 84.03895726886466 269.1357341309587 81.04447048076635 C 262.23894399906976 76.11774157764708 256.8837111913241 72.57258545511343 247.20310211002186 68.16720360155308 C 237.52249302871965 63.76182174799274 227.83543447636723 62.393282919300944 223.9252152769143 62.49429390270286 C 223.036967937878 62.51710283425853 222.37722494631228 63.09384354610504 222.448027264176 63.72923523295446 C 222.51882958203973 64.3613684709436 223.30087796645557 64.8208024740132 224.18268870811323 64.93484712620396 C 227.32373726243287 65.3388910598116 236.89814475179998 67.56764567360531 245.34293095082285 72.11314005334351 C 253.78449873195572 76.65537544781203 259.23950535510687 80.6404216300723 265.57309524277537 85.81153199247284 C 269.67319370729643 89.17421998531952 273.5640914329485 92.78455366760933 277.36167077427837 96.49589229124489 C 275.06703179523447 100.10296174337284 260.10198985493713 124.28043200108263 246.49828861782603 154.93237523860228 C 233.24859904453396 184.79252285320797 221.37312074677084 221.01961576765464 217.3792260197968 233.95227919794377 C 198.60373702664276 242.49911134863206 177.10880220990174 253.70479771739437 159.28270739647652 263.76679434345647 C 140.61985826144553 274.3729466246899 117.32266282820862 289.50830646505557 98.23178223231008 303.864898994652 C 84.65382738471355 296.02514410773375 75.76814749652681 290.37181454496255 71.29150939656206 287.41642890478323 C 69.27686156908476 286.08699404761006 68.16011108948454 284.92698112766493 67.15600547443522 283.1022666926129 C 66.02316838861556 281.0527213722391 63.416351575891305 272.74699953694875 64.47194985076916 259.0062479414391 C 65.53076642433635 245.2687558080075 66.54131459679745 238.9018181371006 68.3853934281452 228.5367888066871 C 70.2552185298069 218.1750179847349 72.42434529037509 207.35380509867144 75.04724954372344 197.18428055423624 L 78.46185074502041 184.75993586136133 L 71.05335219433483 195.71799942748268 C 59.91807735028715 212.1893048242331 49.71288427141776 229.45893048975415 40.930177544420474 247.38349060834693 C 32.10563329206396 265.298274247939 24.587717115566527 283.86797517550116 18.450443090344855 302.8906230834374 C 12.371098203129698 321.9263050252189 7.624123013261707 341.4116630418953 4.560313150683202 361.1739704373644 C 1.4804119138587373 380.3790910046672 0.06114746277098305 399.83511576987445 0 419.27809887230234 C 0 420.1774224135894 0.5084893453029824 420.9073340306243 1.1392736831983037 420.9073340306243 C 1.770058021093625 420.9073340306243 2.288202295989767 420.1774224135894 2.297857158532554 419.27809887230234 C 2.542447009616486 399.96545229386 4.135499154100334 380.6658511926639 7.37309643069838 361.63994572988315 C 10.60103869202779 342.0633666413916 15.49283577330677 322.7865283722037 21.697694190204913 303.9789363010137 C 27.96369968619691 285.1843782636689 35.58782317626127 266.8590492592204 44.49282406144625 249.20167920552134 C 51.315593442681426 235.617331248071 58.933277712952545 222.49892902101993 67.19140330319857 209.75525335978648 C 65.71099115093851 215.63669854080163 64.32391442869536 221.53443578731498 63.08487372452933 227.48756624724552 C 60.93827600839171 237.96012349603214 59.92773129274981 244.19999268758238 58.41191785490718 258.5207425777211 C 56.87035814675062 273.0369982074549 59.34522411720927 283.2977745778457 60.71943288952428 285.99900347176396 C 62.135479306399176 288.7784344231161 63.947368952419225 291.07237264617225 66.9629042154572 293.26528852437684 C 69.97843947849518 295.45820440258143 82.69711227126264 303.85185494783076 91.15477214184544 309.3422905568893 C 79.86823833220546 318.21822252600276 68.98077499044967 327.6253056785618 58.87857033045458 337.8990996329088 C 44.219270937666266 352.9008587191271 30.840848463195925 369.77947862715854 22.573067619279943 389.34628123664936 C 22.222274283950377 390.17391955862206 22.41859178540629 391.05366934114215 22.997883523073412 391.3045675789419 C 23.577175260740535 391.5554658167416 24.346343641061235 391.0993125384237 24.729319873883547 390.28796634155026 C 33.589265769424614 371.52599148158515 47.331356114989276 355.58905667845454 62.30282964623742 341.48662113352333 C 73.25144388150827 331.2388942932501 85.03358925246842 321.9361263242072 97.2469902238179 313.24592456930486 C 130.0059375538114 334.2236241514912 163.96209819466804 353.2690558710042 198.51363276898672 371.040470859999 C 196.3670350528491 401.200391716878 195.87462894634686 431.0898763974199 196.3605903498254 461.1129456206243 C 196.92379065364622 492.58601010359297 199.21842838108316 530.7094643489326 203.06106366566226 564.1375805061514 C 173.60729514312737 609.18521932842 134.83336603888932 678.5439441820097 134.83336603888932 678.5439441820097 C 134.83336603888932 678.5439441820097 101.52410071868296 660.4303447990563 68.86170020375727 621.697521816565 C 41.168336653858304 588.8559219245146 25.337576061353268 558.3637400096583 11.753185331582067 527.5032560450816 C 9.101316509230458 521.4751813209659 6.533123691202606 515.4307592215803 3.9778033527280776 509.35380830097 C 5.969923327781441 520.6344537149771 7.51791951411599 528.9466503696486 7.51791951411599 528.9466503696486 C 15.164570499002306 571.0649692353866 29.2542342421981 611.8474083442959 48.49315633940424 649.9871961374627 C 67.64840338589192 688.1693435870097 92.57081879712167 723.484095137809 122.38825232993497 753.9633421949628 C 152.11557397624983 784.563151204335 187.3075346128586 809.5617033708025 225.27045483140017 828.4051380814502 C 244.30340771970015 837.7600574437423 264.09911134384754 845.4173215525756 284.25524534909323 851.7353949471974 C 303.9608199218468 857.7113344895488 324.0364925262375 862.3318124701633 344.30204701811095 865.5706804791387 C 345.1806394610793 865.7140508879669 345.98196914867276 865.3164908927005 346.0881726329184 864.6876161035716 C 346.1975944084033 864.0587413144427 345.5796911548591 863.4070783628607 344.7075352496691 863.2278653443753 C 324.44519631486975 859.0896735557087 304.3985037755684 853.8110133417497 284.83775323983775 847.1964233060824 C 265.2705639611165 840.581833270415 246.18933957249328 832.6280506133027 227.85153634027148 823.1297606931798 C 190.56445908488934 804.2276728302285 156.52784276480955 779.0335643824776 127.24786308670215 749.0886974551113 C 97.84558925040706 719.199222310737 73.66981818149526 684.2983385255782 54.28607204726621 646.9568614650145 C 44.599027083789316 628.2665737911983 36.308719698656674 608.8366228153822 29.160902984204377 588.9895961071524 C 24.758285634893433 576.7444588898654 20.889904914405033 564.2875386485449 17.555759153929905 551.6937515156817 C 21.440232202269563 559.8169890098002 32.755729865708815 586.6108830231593 63.91518930314454 625.6141555326225 C 95.68290397444468 665.3766366731529 125.33299026663695 682.2292166451883 137.8038541795271 688.6417844011463 C 148.43063902266815 671.1245254432 181.4502791553559 613.4928778743023 204.8697553963063 579.4815030067596 C 207.9078188693702 602.6684102942445 211.8534394736064 625.7445130361767 216.78385590075592 648.6120960306205 C 223.56478775663186 679.3617907075126 238.787267844732 729.4273895176915 244.31306774139662 740.750394588079 C 259.696482551273 746.5829640494079 291.76030597253146 756.508098552011 324.2038616997804 762.3374095048787 C 356.64420186995534 768.1699789662076 373.1507777710661 770.0631392440489 397.7996400585159 772.1648192693787 C 391.76535111454996 774.4522292705153 377.6466949093958 780.3695375937483 349.6089749493478 788.6654712682327 C 321.5744724535844 796.9614049427172 296.5555331138141 802.8135337989606 281.1109721784492 806.0719523818956 C 285.18210583556566 811.2430627442961 294.6052319496159 820.2982174468656 304.9230610721871 827.4471880891288 C 315.8169641105388 834.9969438287325 327.56695915558726 840.5329414584461 329.5558608319513 841.47136602845 C 330.3604327030668 841.8493425797792 331.23258836985553 841.686494638075 331.5029245061535 841.109754553902 C 331.77004237356226 840.533014469729 331.34522906238317 839.731421805453 330.5535303264246 839.3208610635264 C 328.632212684135 838.3205266207889 317.3488995571977 832.3869042988721 307.597489096737 825.1760239030775 C 298.38353249098213 818.3626705729706 290.65964412556195 810.2589548059046 289.57508128168087 809.0533398134007 C 301.18666194773533 806.7919974031462 327.389925669124 800.8682116380858 352.8015234347364 793.4683429964272 C 378.8793060490223 785.8794861089044 404.13644168883724 776.8015702431562 413.1347728784106 773.350904905896 C 463.3175270896605 776.840671152671 513.7094946750495 775.8175381172971 563.7152444847978 771.298111328441 C 564.6034918238341 771.2199092859074 565.2729146989068 770.6366825068446 565.2214220986785 770.0045492688555 C 565.1667112109361 769.3691575820061 564.407155935676 768.9096951715871 563.5189085966397 768.9781219643917 C 516.57053181369 772.5493487770619 469.37436260055443 773.0576622695841 422.4710417608539 769.6395810633202 C 423.7744482004051 769.1182340733623 448.90281410603694 760.7407613384033 492.61681346068656 736.0321735122386 C 537.2094037086958 710.8283038433552 558.4887650807444 688.3028921306397 562.0964651570062 685.1943606456499 C 561.0601765550635 681.1083035619391 555.2543852684311 662.9491708860355 545.7861831854203 637.7811457638434 C 536.3179811024096 612.6098630868066 524.2236327464292 584.5157698412279 520.5290389631576 575.9298374962374 C 520.1750273589389 575.105457623125 519.4122537365644 574.6296828754017 518.8265254611189 574.8642890179027 C 518.2407971856734 575.1054119985232 518.0187939678402 575.9787127391152 518.3213130016309 576.8259015754463 C 521.63936738786 585.9918331686827 532.0569197847558 615.4316360526291 539.887012960529 640.2282026536325 C 547.0605755876932 662.9426386112448 550.6296730061772 678.1497018492443 551.8494040374079 682.157556637117 C 547.4789699133916 686.1002431629969 531.9410853488754 702.5943476291922 488.9962564009577 728.9647289970228 C 456.5784480168286 748.8769258744788 418.6734373873848 763.777692177965 407.53816254333714 768.4079049168471 C 388.90427821571075 766.7721787276591 361.06933097960075 763.3834159918047 325.3849590810611 756.2344453495415 C 289.4624376091366 749.043115050898 261.91711269972933 739.3883647525188 250.3312784231895 734.6897252431826 C 239.67552877264387 706.1524958264337 231.78427898172382 676.5954457621191 225.61804014909757 646.6961960459776 C 220.2724649790351 620.149859035703 216.32362929452754 593.3069872656645 213.53337398613695 566.3337980439757 C 215.59629617475346 563.2578509283863 241.68051443281277 524.48917863112 268.33437000927387 489.09297676580576 C 291.82143207230865 457.89687691949797 316.1130776285236 429.67895272345515 319.73686931743265 425.67761495250505 C 319.73686931743265 425.67761495250505 395.3955934665158 466.27100907535333 476.7506826939719 500.36384188634514 C 571.0593784921049 539.8851991224388 624.7404146770019 556.8713259692747 667.1896282491782 567.1157943010867 C 694.9473582496663 532.3256578444752 717.1020735018813 498.0243186366297 735.8003242800968 465.5411451391563 C 754.4985750583123 433.0579716416829 766.7634354325055 402.816591887738 772.0317719108268 389.08561581761234 C 773.4800011953943 394.87582562256097 774.857427431994 400.6823055598223 776.106123032228 406.5213920380739 C 782.4139665303818 436.1599687062443 786.1439310987664 466.41762002292705 786.3885209498503 496.76979001817335 C 786.6363290847235 526.5680288328643 783.4888890206759 556.4477427561061 776.4215298926573 585.4346348971153 C 776.2091229241661 586.3078910859244 776.5276993600139 587.151849515688 777.1359557262846 587.3147704388747 C 777.7442120925552 587.4744329430016 778.4296860222497 586.9009101829662 778.6581844245873 586.0309123834163 C 786.3209265453182 556.9755944255699 790.0702269660835 526.8808494596176 790.3759642985635 496.7763203857306 C 790.7074479013575 466.1113431143657 787.5117235229153 435.44965009911454 781.6930599951307 405.3548975042283 C 779.9648396781973 396.48548159842073 777.9855522504754 387.6714317279527 775.8196447422018 378.8997682151343 C 777.9598058609608 372.9498957868567 787.8367713329351 346.1233384923102 793.880715530571 314.0246556426373 C 795.9919120803268 302.8156964611623 797.6525949706447 290.8084255934675 798.2769427707617 279.1041864765074 C 802.5122090650304 281.82496594438516 804.5557556627451 283.39878285685006 810.7638320207307 289.26067794071406 C 816.9751267966061 295.1290900415007 825.3813074770354 305.83626109152294 826.7040235895219 307.5925487561209 C 827.2414775634285 308.3094008300623 828.0878859466975 308.59611819470655 828.6028119489795 308.2279169005566 C 829.1209562499507 307.86297399566587 829.1337933269073 306.96039865103535 828.6317405193826 306.21747916501494 Z" fill="black" fill-rule="evenodd" clip-rule="evenodd" stroke="none" /></svg>