<svg width="54" height="54" viewBox="0 0 54 54" fill="none" xmlns="http://www.w3.org/2000/svg">
<path fill-rule="evenodd" clip-rule="evenodd" d="M27 0C12.1 0 0 12.1 0 27C0 41.9 12.1 54 27 54C41.9 54 54 41.9 54 27C54 12.1 41.9 0 27 0ZM27 48.6C15.1 48.6 5.4 38.9 5.4 27C5.4 15.1 15.1 5.4 27 5.4C38.9 5.4 48.6 15.1 48.6 27C48.6 38.9 38.9 48.6 27 48.6ZM23.1 16.4L36.4 25.9C37.1 26.4 37.2 27.3 36.7 27.9C36.6 28.1 36.5 28.2 36.4 28.3L23.1 37.8C22.4 38.3 21.6 38.1 21.1 37.5C20.9 37.2 20.8 36.9 20.8 36.6V17.5C20.8 16.7 21.5 16 22.3 16C22.6 16 22.9 16.1 23.1 16.4Z" fill="white"/>
</svg>
