<svg width="22.000059127807617" height="21.020004272460938" viewBox="0 0 22.000059127807617 21.020004272460938" fill="none" xmlns="http://www.w3.org/2000/svg">
<path fill-rule="evenodd" clip-rule="evenodd" d="M11 0C11.3806 0 11.7283 0.216072 11.8967 0.557375L14.7543 6.34646L21.1447 7.2805C21.5212 7.33554 21.8339 7.59955 21.9513 7.96156C22.0687 8.32357 21.9704 8.72082 21.6978 8.98635L17.0746 13.4894L18.1656 19.851C18.23 20.2261 18.0757 20.6053 17.7678 20.8291C17.4598 21.0528 17.0515 21.0823 16.7146 20.9051L11 17.8998L5.28547 20.9051C4.94855 21.0823 4.54026 21.0528 4.23229 20.8291C3.92431 20.6053 3.77006 20.2261 3.83441 19.851L4.9255 13.4894L0.302296 8.98635C0.0296782 8.72082 -0.0685945 8.32357 0.048783 7.96156C0.166161 7.59955 0.47884 7.33554 0.8554 7.2805L7.24576 6.34646L10.1033 0.557375C10.2718 0.216072 10.6194 0 11 0ZM11 3.25924L8.80673 7.70261C8.66119 7.99746 8.38 8.20192 8.05465 8.24948L3.14844 8.96659L6.69775 12.4236C6.93363 12.6534 7.04129 12.9845 6.98563 13.309L6.1482 18.1917L10.5346 15.8849C10.826 15.7317 11.1741 15.7317 11.4655 15.8849L15.8518 18.1917L15.0144 13.309C14.9588 12.9845 15.0664 12.6534 15.3023 12.4236L18.8516 8.96659L13.9454 8.24948C13.62 8.20192 13.3389 7.99746 13.1933 7.70261L11 3.25924Z" fill="#1A313C"/>
</svg>
