<svg width="12" height="12" viewBox="0 0 12 12" fill="none" xmlns="http://www.w3.org/2000/svg">
<path fill-rule="evenodd" clip-rule="evenodd" d="M5.99998 0C6.20757 0 6.39723 0.123352 6.48908 0.318197L8.04777 3.62311L11.5334 4.15634C11.7388 4.18776 11.9094 4.33848 11.9734 4.54514C12.0374 4.75181 11.9838 4.97859 11.8351 5.13018L9.31338 7.70089L9.90847 11.3326C9.9436 11.5468 9.85943 11.7632 9.69149 11.891C9.52349 12.0187 9.30078 12.0355 9.11702 11.9344L5.99998 10.2187L2.88298 11.9344C2.6992 12.0355 2.4765 12.0187 2.30852 11.891C2.14053 11.7632 2.05639 11.5468 2.09149 11.3326L2.68663 7.70089L0.164888 5.13018C0.016188 4.97859 -0.0374151 4.75181 0.0266088 4.54514C0.090633 4.33848 0.261185 4.18776 0.46658 4.15634L3.95222 3.62311L5.51087 0.318197C5.60278 0.123352 5.79238 0 5.99998 0ZM5.99998 1.86065L4.80366 4.39731C4.72427 4.56564 4.5709 4.68236 4.39343 4.70951L1.71732 5.1189L3.65331 7.09244C3.78197 7.22363 3.84069 7.41265 3.81033 7.5979L3.35356 10.3853L5.74612 9.06844C5.90507 8.98098 6.09494 8.98098 6.25388 9.06844L8.6464 10.3853L8.18964 7.5979C8.15931 7.41265 8.218 7.22363 8.34667 7.09244L10.2826 5.1189L7.60655 4.70951C7.42906 4.68236 7.27573 4.56564 7.19632 4.39731L5.99998 1.86065Z" fill="#D1D9DB"/>
</svg>
