<svg width="18.49989891052246" height="18.499900817871094" viewBox="0 0 18.49989891052246 18.499900817871094" fill="none" xmlns="http://www.w3.org/2000/svg">
<path d="M8.57458 6.82611L10.2625 8.58013L13.9297 4.73187C14.2319 4.42261 14.7214 4.42273 15.0234 4.73213C15.3255 5.04163 15.3255 5.54344 15.0234 5.85295L10.811 10.2672C10.5081 10.5776 10.017 10.5776 9.71407 10.2672L7.47703 7.95064C7.17336 7.6395 7.17454 7.13446 7.47928 6.82444C7.7825 6.51593 8.27243 6.51656 8.57458 6.82611Z" fill="black"/>
<path fill-rule="evenodd" clip-rule="evenodd" d="M4.02498 14.475C4.37496 14.825 4.80252 15 5.30765 15H16.6922C17.1973 15 17.6249 14.825 17.9749 14.475C18.3249 14.125 18.4999 13.6974 18.4999 13.1923V1.8077C18.4999 1.30257 18.3249 0.875 17.9749 0.525C17.6249 0.175 17.1973 0 16.6922 0H5.30765C4.80252 0 4.37496 0.175 4.02498 0.525C3.67498 0.875 3.49998 1.30257 3.49998 1.8077V13.1923C3.49998 13.6974 3.67498 14.125 4.02498 14.475ZM16.6922 13.5H5.30765C5.23072 13.5 5.1602 13.4679 5.0961 13.4038C5.03198 13.3397 4.99993 13.2692 4.99993 13.1923V1.8077C4.99993 1.73077 5.03198 1.66024 5.0961 1.59613C5.1602 1.53203 5.23072 1.49998 5.30765 1.49998H16.6922C16.7691 1.49998 16.8397 1.53203 16.9038 1.59613C16.9679 1.66024 16.9999 1.73077 16.9999 1.8077V13.1923C16.9999 13.2692 16.9679 13.3397 16.9038 13.4038C16.8397 13.4679 16.7691 13.5 16.6922 13.5Z" fill="black"/>
<path d="M0.525 17.9749C0.875 18.3249 1.30256 18.4999 1.80768 18.4999H13.9422C14.155 18.4999 14.3332 18.4281 14.4768 18.2845C14.6204 18.1409 14.6922 17.9627 14.6922 17.7499C14.6922 17.5371 14.6204 17.3589 14.4768 17.2153C14.3332 17.0717 14.155 17 13.9422 17H1.80768C1.73076 17 1.66024 16.9679 1.59613 16.9038C1.53202 16.8397 1.49998 16.7692 1.49998 16.6922V4.55768C1.49998 4.34486 1.42818 4.16666 1.2846 4.02308C1.141 3.87949 0.962792 3.8077 0.749975 3.8077C0.537175 3.8077 0.358975 3.87949 0.215375 4.02308C0.0717916 4.16666 0 4.34486 0 4.55768V16.6922C0 17.1973 0.175 17.6249 0.525 17.9749Z" fill="black"/>
</svg>
