<svg width="32" height="20" viewBox="0 0 32 20" fill="none" xmlns="http://www.w3.org/2000/svg">
<path d="M17.7948 8.51758C16.2481 8.51758 15.2495 9.5612 15.2495 11.2656C15.2495 12.97 16.2481 14.0136 17.7948 14.0136C19.3416 14.0136 20.3402 12.97 20.3402 11.2656C20.3402 9.5612 19.3416 8.51758 17.7948 8.51758ZM17.7948 12.9326C17.044 12.9326 16.4508 12.3922 16.4508 11.2656C16.4508 10.139 17.044 9.59855 17.7948 9.59855C18.5457 9.59855 19.1389 10.139 19.1389 11.2656C19.1389 12.3922 18.5457 12.9326 17.7948 12.9326ZM1.19907 11.783H2.61949L3.24291 10.7037H1.19907V9.72159H3.00453L3.62796 8.64226H0V13.8895H3.0644L3.68783 12.8102H1.19907V11.783ZM7.82661 11.7934C7.82661 12.4987 7.46628 12.9337 6.80661 12.9337C6.14693 12.9337 5.7866 12.4987 5.7866 11.7934V8.64226H4.58644V11.861C4.58644 13.3237 5.59875 14.0136 6.80661 14.0136C8.01446 14.0136 9.02677 13.3237 9.02677 11.861V8.64226H7.82661V11.7934ZM14.3102 10.1039C14.1861 9.24866 13.5083 8.64171 12.3114 8.64171H10.2275V13.8889H11.4271V9.72104H12.1862C12.3153 9.72104 12.5224 9.73916 12.6415 9.7897C13.5121 10.1566 13.198 11.3837 11.8649 11.4238L13.1211 13.8884H14.4701L13.4781 11.8978C14.0598 11.4881 14.4437 11.0223 14.3097 10.1028L14.3102 10.1039ZM25.6209 10.1039C25.4803 9.25141 24.819 8.64171 23.6221 8.64171H21.5381V13.8889H22.7378V9.72104H23.4969C23.6259 9.72104 23.833 9.73916 23.9522 9.7897C24.8228 10.1566 24.5086 11.3837 23.1755 11.4238L23.7105 12.3867C25.1271 12.1994 25.8126 11.265 25.6209 10.1033V10.1039ZM29.011 8.64226H27.7367L25.6077 13.8895H26.9644L28.3739 10.2017L29.0676 12.0879H27.8185L28.4414 13.1672H29.4795L29.7827 13.8895H31.1394L29.0105 8.64226H29.011Z" fill="white"/>
<path d="M28.8994 15.4083H29.1581V16.1163H29.3042V15.4083H29.5629V15.2754H28.8994V15.4083ZM30.3297 15.2759L30.0732 15.9477L29.8167 15.2759H29.6591V16.1169H29.8068V15.6126L29.9996 16.1169H30.1457L30.3385 15.6126V16.1169H30.4863V15.2759H30.3286H30.3297Z" fill="white"/>
<path d="M17.6043 18.2054H18.5485V18.5344C18.3184 18.7904 17.9515 18.9865 17.4989 18.9865C16.7052 18.9865 16.1081 18.5207 16.1081 17.5562C16.1081 16.5916 16.7568 16.1258 17.3797 16.1258C17.9432 16.1258 18.3074 16.3939 18.4612 16.8921L19.4724 16.618C19.2362 15.7589 18.5677 15.1816 17.3934 15.1816C16.1339 15.1816 15.0584 16.0863 15.0584 17.5562C15.0584 19.026 16.1202 19.9307 17.4055 19.9307C18.403 19.9307 19.0198 19.5379 19.5257 18.9211V17.3859H17.1314L17.6038 18.2054H17.6043ZM3.73405 15.2761H2.69482V19.8225H5.37254L5.91247 18.887H3.73405V15.2761ZM7.5927 17.9972H8.82363L9.36356 17.0618H7.5927V16.211H9.15704L9.69697 15.2756H6.55348V19.8219H9.20867L9.7486 18.8865H7.59215V17.9967L7.5927 17.9972ZM26.1516 18.887V17.9972H27.3825L27.9224 17.0618H26.1516V16.211H27.7159L28.2558 15.2756H25.1124V19.8219H27.7675L28.3075 18.8865H26.151L26.1516 18.887ZM23.1778 18.0071C23.1778 18.6184 22.8658 18.9953 22.294 18.9953C21.7222 18.9953 21.4102 18.6179 21.4102 18.0071V15.2761H20.3705V18.0659C20.3705 19.3336 21.2477 19.9318 22.294 19.9318C23.3404 19.9318 24.2176 19.3336 24.2176 18.0659V15.2761H23.1778V18.0071ZM11.9369 15.2761L10.0924 19.8225H11.2679L12.4889 16.6268L13.0898 18.2609H12.0078L12.5477 19.1963H13.4474L13.71 19.8225H14.8854L13.041 15.2761H11.9369Z" fill="white"/>
<path d="M10.8169 5.05991C10.6851 5.16702 10.5319 5.2192 10.3962 5.20327C10.2248 5.1835 10.1205 5.11319 9.94964 4.90282L8.96644 3.69387L8.43639 4.12505L9.50748 5.44276C9.73543 5.72179 9.99468 5.87119 10.3006 5.8992C10.3369 5.9025 10.3726 5.9047 10.4077 5.9047C10.7043 5.90744 10.9795 5.80253 11.2465 5.58667C11.5436 5.34389 11.7068 5.06211 11.7452 4.72486C11.7804 4.41946 11.687 4.13493 11.4601 3.85535L10.3896 2.5382L9.85956 2.96938L10.8422 4.17888C11.0136 4.38925 11.0608 4.5057 11.0449 4.67762C11.0328 4.81329 10.9504 4.9528 10.8175 5.06046L10.8169 5.05991ZM15.5072 5.32082C17.367 5.32082 19.0813 6.18318 20.0892 7.43717L20.4413 7.0027C19.3318 5.67565 17.5126 4.77868 15.5072 4.77868C13.5018 4.77868 11.6832 5.67565 10.5731 7.0027L10.9252 7.43717C11.9331 6.18318 13.6474 5.32082 15.5072 5.32082ZM8.4666 3.15613C10.3957 1.49073 12.8959 0.573992 15.5072 0.573992C18.1184 0.573992 20.6187 1.49128 22.5478 3.15613C22.7483 3.32915 22.94 3.50931 23.1234 3.69497L23.4871 3.24621C23.3069 3.0655 23.1185 2.89028 22.9229 2.72165C20.8895 0.966174 18.2563 0 15.5072 0C12.7581 0 10.1249 0.966723 8.09145 2.72165C7.89591 2.89028 7.70805 3.0655 7.52734 3.24621L7.89041 3.69497C8.07387 3.50931 8.26557 3.32915 8.46605 3.15613H8.4666ZM21.7211 3.64114C21.7535 3.54282 21.7766 3.39781 21.6118 3.27093L21.5075 3.19073C21.3443 3.06495 21.2153 3.11878 21.1213 3.1803L18.6765 4.76221L19.3153 5.12363L20.8736 4.11571L20.605 5.02147L20.3683 4.8435L19.9602 5.13626L20.4671 5.51526L20.3491 5.92227L20.9088 6.43475L21.72 3.64224L21.7211 3.64114ZM14.4433 1.25125L12.7257 1.60004C12.6471 1.61596 12.5851 1.65551 12.5466 1.71374C12.5076 1.77251 12.4955 1.84446 12.5115 1.92301L12.8537 3.60983C12.9091 3.88392 13.0322 4.08166 13.2195 4.197C13.3431 4.27335 13.4914 4.31125 13.6622 4.31125C13.749 4.31125 13.8423 4.30136 13.9407 4.28104L15.014 4.06298L14.8849 3.42637L13.8407 3.63839C13.627 3.68179 13.5573 3.65817 13.5089 3.41813L13.4721 3.23687L14.68 2.9919L14.552 2.36243L13.3442 2.6074L13.2524 2.1559L14.5723 1.88786L14.4433 1.25125ZM17.7828 2.17183L18.8122 2.43878L18.9748 1.81096L17.9163 1.53687C17.3363 1.38637 16.9392 1.60388 16.798 2.14821L16.3657 3.81636C16.3454 3.89381 16.3536 3.96631 16.3893 4.02673C16.425 4.08715 16.4844 4.12944 16.5618 4.14977L16.9545 4.25138L17.233 3.17261L18.4244 3.4813L18.5853 2.86062L17.394 2.55193L17.4401 2.37341C17.5016 2.13668 17.5719 2.1169 17.7828 2.17183Z" fill="white"/>
</svg>
