<svg width="32" height="50" viewBox="0 0 32 50" fill="none" xmlns="http://www.w3.org/2000/svg">
<g clip-path="url(#clip0_1587_26209)">
<path d="M3.25785 35.9442C3.25785 37.0103 3.98607 37.5344 4.97609 37.5344C5.96611 37.5344 6.69433 37.0103 6.69433 35.9442V33.5654C6.69433 33.5376 6.67177 33.5156 6.64449 33.5156H5.68437C5.65657 33.5156 5.63401 33.5381 5.63401 33.5654V35.9327C5.63401 36.3844 5.42152 36.6415 4.9656 36.6373C4.60411 36.6341 4.31765 36.3293 4.31765 35.9678V33.5654C4.31765 33.5376 4.29509 33.5156 4.26728 33.5156H3.30717C3.27936 33.5156 3.25732 33.5381 3.25732 33.5654V35.9442M7.38583 33.5151C7.35802 33.5151 7.33598 33.5376 7.33598 33.5649V37.4253C7.33598 37.4531 7.35855 37.4757 7.38583 37.4757H10.1455C10.1733 37.4757 10.1953 37.4531 10.1953 37.4253V36.6347C10.1953 36.6068 10.1728 36.5843 10.1455 36.5843H8.39579V35.9028H9.77878C9.80658 35.9028 9.82862 35.8802 9.82862 35.8524V35.1079C9.82862 35.0801 9.80606 35.0581 9.77878 35.0581H8.39579V34.4059H10.0642C10.092 34.4059 10.114 34.3834 10.114 34.3561V33.5649C10.114 33.5371 10.092 33.5151 10.0642 33.5151H7.38583ZM10.7588 33.5151C10.731 33.5151 10.709 33.5376 10.709 33.5649V37.4253C10.709 37.4531 10.7315 37.4757 10.7588 37.4757H11.7189C11.7468 37.4757 11.7688 37.4531 11.7688 37.4253V36.1011H13.1575C13.1848 36.1011 13.2074 36.079 13.2074 36.0512V35.2595C13.2074 35.2322 13.1848 35.2097 13.1575 35.2097H11.7688V34.4059H13.4225C13.4419 34.4059 13.4592 34.3949 13.4671 34.3776L13.8433 33.5859C13.859 33.5528 13.8349 33.5145 13.7987 33.5145H10.7588M15.7834 36.9982H14.4031L14.2179 37.4452C14.21 37.4636 14.1922 37.4757 14.1722 37.4757H13.2473C13.2105 37.4757 13.1864 37.4374 13.2027 37.4043L15.0967 33.4448C15.114 33.4038 15.1491 33.4038 15.1664 33.4448L17.0547 37.4043C17.0704 37.4374 17.0463 37.4757 17.0096 37.4757H16.0258C16.0059 37.4757 15.9881 37.4641 15.9802 37.4458L15.7834 36.9977V36.9982ZM14.7294 36.2296H15.4461L15.0851 35.3907L14.7299 36.2296H14.7294Z" fill="white"/>
<path d="M14.4336 38.3659C14.3979 38.3659 14.369 38.3948 14.369 38.4305V43.4367C14.369 43.4724 14.3979 43.5012 14.4336 43.5012H15.6791C15.7148 43.5012 15.7436 43.4724 15.7436 43.4367V38.4305C15.7436 38.3948 15.7148 38.3659 15.6791 38.3659H14.4336ZM16.4157 40.9336C16.4157 39.3853 17.6922 38.3056 19.1722 38.3056C20.6523 38.3056 21.9288 39.3859 21.9288 40.9336C21.9288 42.4813 20.6523 43.5695 19.1722 43.5695C17.6922 43.5695 16.4157 42.4818 16.4157 40.9336ZM20.5243 40.9336C20.5243 40.1251 20.0332 39.4987 19.1722 39.4987C18.3113 39.4987 17.8202 40.1256 17.8202 40.9336C17.8202 41.7416 18.3113 42.3759 19.1722 42.3759C20.0332 42.3759 20.5243 41.7416 20.5243 40.9336ZM10.9855 43.4367C10.9855 43.4724 11.0144 43.5012 11.0501 43.5012H12.2956C12.3313 43.5012 12.3601 43.4724 12.3601 43.4367V39.5212H13.655C13.6907 39.5212 13.7195 39.4924 13.7195 39.4567V38.4305C13.7195 38.3948 13.6907 38.3659 13.655 38.3659H9.15292C9.1057 38.3659 9.07422 38.4153 9.09468 38.4583L9.58313 39.485C9.59363 39.5076 9.61619 39.5217 9.64137 39.5217H10.9861V43.4372L10.9855 43.4367ZM27.7886 42.6901C27.7645 42.7143 27.7624 42.7541 27.786 42.7793C28.1386 43.166 28.7697 43.5763 29.7876 43.5763C31.1469 43.5763 31.7361 42.8963 31.7361 41.9525C31.7361 41.2274 31.3888 40.7363 30.3615 40.3969L29.6816 40.1702C29.4324 40.0873 29.3191 39.9892 29.3191 39.7925C29.3191 39.5957 29.4854 39.4373 29.8175 39.4373C30.2136 39.4373 30.4817 39.5795 30.6905 39.7888C30.6957 39.794 31.2865 39.1954 31.4518 39.0275C31.4759 39.0034 31.4775 38.964 31.4539 38.9389C31.1448 38.602 30.6092 38.3045 29.7419 38.3045C28.828 38.3045 27.9896 38.8255 27.9896 39.8376C27.9896 40.6833 28.5184 41.1366 29.2661 41.3858L29.8705 41.5899C30.2104 41.7033 30.3762 41.8092 30.3762 42.028C30.3762 42.315 30.1344 42.4357 29.7267 42.4357C29.2435 42.4357 28.9203 42.1896 28.6763 41.9026C28.6517 41.8738 28.6071 41.8711 28.5803 41.8984L27.7881 42.6907L27.7886 42.6901ZM27.0877 43.591C27.1711 43.6586 27.1932 43.6361 27.1932 43.5757V38.4294C27.1932 38.3937 27.1643 38.3644 27.1281 38.3644H25.9665C25.9303 38.3644 25.9015 38.3932 25.9015 38.4294V40.9399L22.6764 38.2815C22.5935 38.2133 22.5709 38.251 22.5709 38.2967V43.4351C22.5709 43.4708 22.5998 43.5002 22.636 43.5002H23.7976C23.8333 43.5002 23.8626 43.4708 23.8626 43.4351V40.9399L27.0877 43.591ZM4.51235 43.591C4.59577 43.6586 4.61781 43.6361 4.61781 43.5757V38.4315C4.61781 38.3958 4.58895 38.3665 4.55275 38.3665H3.39117C3.35497 38.3665 3.32611 38.3953 3.32611 38.4315V40.9399L0.101061 38.2815C0.0181656 38.2133 -0.00439453 38.251 -0.00439453 38.2967V43.4351C-0.00439453 43.4708 0.0244614 43.5002 0.0606626 43.5002H1.22225C1.25792 43.5002 1.2873 43.4708 1.2873 43.4351V40.9399L4.51235 43.591ZM8.48503 42.8811H6.69544L6.45515 43.4603C6.44518 43.4845 6.42157 43.5002 6.39534 43.5002H5.19703C5.14928 43.5002 5.1178 43.4504 5.13827 43.4073L7.59365 38.2741C7.61621 38.2211 7.66185 38.2211 7.68441 38.2741L10.1324 43.4073C10.1529 43.4504 10.122 43.5002 10.0737 43.5002H8.7993C8.77359 43.5002 8.75051 43.485 8.74002 43.4614L8.48503 42.8806V42.8811ZM7.11831 41.8843H8.04747L7.57896 40.7967L7.11831 41.8843Z" fill="white"/>
<path d="M1.37215 2.7103C1.37215 2.62897 1.28926 2.57441 1.21476 2.60746C0.972366 2.71502 0.495455 2.97052 0.114032 3.44271C0.037957 3.53715 -0.00244141 3.65572 -0.00244141 3.77692V36.7163C-0.00244141 36.8516 0.0599924 36.9802 0.166497 37.0641L1.17541 37.8915C1.25515 37.9545 1.37215 37.8973 1.37215 37.796V2.7103Z" fill="white"/>
<path d="M0.0606626 44.4093C0.0249861 44.4093 -0.00439453 44.4381 -0.00439453 44.4743V49.4801C-0.00439453 49.5163 0.0244614 49.5451 0.0606626 49.5451H3.48823C3.5239 49.5451 3.55328 49.5163 3.55328 49.4801V48.4544C3.55328 48.4182 3.52443 48.3893 3.48823 48.3893H1.3702V44.4738C1.3702 44.4381 1.34134 44.4088 1.30514 44.4088H0.0606626M4.25212 44.4093C4.21645 44.4093 4.18707 44.4381 4.18707 44.4743V49.4801C4.18707 49.5163 4.21592 49.5451 4.25212 49.5451H7.83079C7.86647 49.5451 7.89585 49.5163 7.89585 49.4801V48.4544C7.89585 48.4182 7.86699 48.3893 7.83079 48.3893H5.56219V47.5058H7.35545C7.39113 47.5058 7.42051 47.4769 7.42051 47.4407V46.4754C7.42051 46.4397 7.39165 46.4103 7.35545 46.4103H5.56219V45.5646H7.72533C7.76101 45.5646 7.79039 45.5357 7.79039 45.4995V44.4738C7.79039 44.4381 7.76154 44.4088 7.72533 44.4088H4.25265M18.7116 47.5588C18.7116 48.9407 19.656 49.6207 20.9393 49.6207C22.2226 49.6207 23.1675 48.9407 23.1675 47.5588V44.4743C23.1675 44.4387 23.1386 44.4093 23.1024 44.4093H21.8574C21.8217 44.4093 21.7924 44.4381 21.7924 44.4743V47.5436C21.7924 48.1296 21.5164 48.4622 20.9256 48.4575C20.4571 48.4533 20.0857 48.0577 20.0857 47.5892V44.4743C20.0857 44.4387 20.0563 44.4093 20.0206 44.4093H18.7756C18.7399 44.4093 18.7105 44.4381 18.7105 44.4743V47.5588M24.0709 44.4093C24.0353 44.4093 24.0059 44.4381 24.0059 44.4743V49.4801C24.0059 49.5163 24.0347 49.5451 24.0709 49.5451H27.6496C27.6853 49.5451 27.7147 49.5163 27.7147 49.4801V48.4544C27.7147 48.4182 27.6858 48.3893 27.6496 48.3893H25.381V47.5058H27.1743C27.2099 47.5058 27.2393 47.4769 27.2393 47.4407V46.4754C27.2393 46.4397 27.2105 46.4103 27.1743 46.4103H25.381V45.5646H27.5441C27.5798 45.5646 27.6092 45.5357 27.6092 45.4995V44.4738C27.6092 44.4381 27.5803 44.4088 27.5441 44.4088H24.0715M16.8533 48.2539C16.634 48.3594 16.3548 48.4575 15.8564 48.4575C14.9503 48.4575 14.4818 47.7854 14.4818 46.9775C14.4818 46.1695 14.9425 45.5425 15.7809 45.5425C16.2646 45.5425 16.6145 45.7372 16.868 46.0378C16.8931 46.0672 16.9372 46.0703 16.9645 46.0425L17.7688 45.2314C17.7929 45.2073 17.7945 45.1679 17.7714 45.1422C17.3228 44.6417 16.6513 44.3495 15.8108 44.3495C14.3302 44.3495 13.0768 45.4292 13.0768 46.9775C13.0768 48.5257 14.3302 49.6133 15.8412 49.6133C16.9818 49.6133 17.6009 49.2964 18.0768 48.9035V46.7482C18.0768 46.7125 18.0474 46.6831 18.0117 46.6831H15.8984C15.8627 46.6831 15.8333 46.712 15.8333 46.7482V47.6758C15.8333 47.7115 15.8627 47.7408 15.8984 47.7408H16.8527V48.2545L16.8533 48.2539ZM11.6492 48.926H9.85963L9.61934 49.5052C9.60937 49.5294 9.58576 49.5451 9.55953 49.5451H8.36122C8.31347 49.5451 8.28199 49.4953 8.30245 49.4523L10.7578 44.319C10.7804 44.266 10.826 44.266 10.8486 44.319L13.2966 49.4523C13.3171 49.4953 13.2861 49.5451 13.2379 49.5451H11.9635C11.9378 49.5451 11.9147 49.5299 11.9042 49.5063L11.6492 48.9255V48.926ZM10.2825 47.9292H11.2117L10.7431 46.8416L10.2825 47.9292Z" fill="white"/>
<path d="M28.0718 44.5776V44.4406C28.0718 44.4312 28.0791 44.4238 28.0886 44.4238H28.7937C28.8031 44.4238 28.8105 44.4312 28.8105 44.4406V44.5776C28.8105 44.587 28.8031 44.5943 28.7937 44.5943H28.544V45.3777C28.544 45.3871 28.5366 45.3944 28.5272 45.3944H28.364C28.3546 45.3944 28.3472 45.3871 28.3472 45.3777V44.5943H28.0886C28.0791 44.5943 28.0718 44.587 28.0718 44.5776Z" fill="white"/>
<path d="M28.9982 44.4102H29.0155L29.4698 44.9023C29.4793 44.9123 29.4955 44.9123 29.505 44.9023L29.9593 44.4102H29.9766V45.3698C29.9766 45.3829 29.9661 45.3939 29.9525 45.3939H29.8082C29.7951 45.3939 29.7841 45.3834 29.7841 45.3698V44.8257L29.505 45.1457C29.4955 45.1567 29.4782 45.1567 29.4688 45.1457L29.1939 44.8257V45.3698C29.1939 45.3829 29.1828 45.3939 29.1697 45.3939H29.0207C29.0076 45.3939 28.9966 45.3834 28.9966 45.3698V44.4102H28.9982Z" fill="white"/>
<path d="M5.39812 8.48686L5.37451 8.39399C5.88867 7.58235 6.37765 6.7534 6.85141 5.9512C7.35666 5.09549 7.83566 4.28595 8.32254 3.5294L8.48361 3.4082L8.64835 3.43286C9.76849 4.1679 10.864 5.01889 11.907 5.96904L11.908 6.06663L11.7449 6.13745C10.2506 6.20304 8.40386 7.10701 6.61532 7.97899C6.26328 8.15055 5.90126 8.32579 5.54817 8.49263L5.3976 8.48686H5.39812Z" fill="url(#paint0_linear_1587_26209)"/>
<path d="M21.9568 9.29503C20.7957 9.29503 19.524 8.99178 18.0749 8.37007L17.8823 8.21057L17.8954 8.10564C18.6336 7.44877 19.1892 6.92622 19.7658 6.27565L19.9043 6.22266L20.0801 6.30293C21.0276 7.262 22.0953 8.1303 23.3377 8.95873L23.3592 9.05894L23.2118 9.16387C22.8109 9.24991 22.3902 9.29451 21.9573 9.29451L21.9568 9.29503Z" fill="url(#paint1_linear_1587_26209)"/>
<path d="M23.6168 13.9015C23.1987 13.9015 22.8325 13.722 22.5859 13.3968C22.3661 13.1066 22.2338 12.7719 22.1992 12.4235L22.2632 12.3569L22.3304 12.2892C22.4463 12.2939 22.5591 12.296 22.6704 12.296C23.5707 12.296 24.4122 12.1413 25.2417 11.8223L25.3141 11.869L25.3849 11.9157C25.3881 12.3301 25.2406 12.7551 24.9552 13.1496C24.642 13.6192 24.141 13.9009 23.6168 13.9009V13.9015Z" fill="url(#paint2_linear_1587_26209)"/>
<path d="M22.2637 12.3575L22.1997 12.4241C21.7999 12.4026 21.4794 12.38 21.0665 12.3181L20.8965 12.2247L20.9002 12.1219C21.7312 11.283 22.4878 10.3155 23.2107 9.16548L23.3582 9.06055L23.5318 9.09098C24.5853 9.783 25.6635 10.4189 26.8151 11.0285L26.876 11.1398L26.6451 11.3596C26.2789 11.5679 25.8377 11.7368 25.3849 11.9168L25.3141 11.8701L25.2417 11.8234C25.2086 11.337 24.9489 10.9152 24.5072 10.6293C24.3256 10.5117 24.1047 10.4498 23.8681 10.4498C23.3996 10.4498 22.9678 10.6849 22.684 11.0946C22.4411 11.4451 22.3167 11.8664 22.3309 12.2903L22.2637 12.358V12.3575Z" fill="url(#paint3_linear_1587_26209)"/>
<path d="M22.0179 15.6417C20.882 15.6417 19.8312 15.3279 18.444 14.5824L18.252 14.403L18.2729 14.3012C19.1124 13.691 19.9282 13.0803 20.7509 12.2718L20.8967 12.2246L21.0667 12.318C22.0468 13.4612 22.9744 14.4004 23.892 15.2036L23.8957 15.3101L23.7215 15.4203C23.1097 15.5656 22.5499 15.6422 22.019 15.6422L22.0179 15.6417Z" fill="url(#paint4_linear_1587_26209)"/>
<path d="M20.7509 12.2718C20.4031 12.2119 20.0269 12.1222 19.6287 12.0042L19.5511 11.9071L19.4666 11.8074C19.4083 11.4696 19.2525 11.0986 19.0222 10.7555C18.5505 10.054 17.975 9.61806 17.5201 9.61806C17.3695 9.61806 17.2352 9.66685 17.1209 9.76339C16.9126 9.93862 16.8375 10.3027 16.9152 10.7665L16.8528 10.8132L16.7908 10.8604C16.4183 10.6752 16.0595 10.4832 15.741 10.2943L15.5044 10.0808L15.5212 9.98112C16.358 9.3657 17.0642 8.8379 17.7562 8.23035L17.8832 8.21094L18.0757 8.37043C19.0516 9.79959 19.9781 11.0294 20.901 12.1212L20.8973 12.224L20.7515 12.2712L20.7509 12.2718Z" fill="url(#paint5_linear_1587_26209)"/>
<path d="M18.8351 13.0956C18.3194 13.0956 17.6641 12.6156 17.2035 11.901C17.0099 11.6009 16.8609 11.2236 16.79 10.8595L16.8519 10.8123L16.9144 10.7656C17.5419 11.0746 18.4747 11.4954 19.4658 11.8071L19.5502 11.9067L19.6279 12.0038C19.6505 12.4435 19.5015 12.7918 19.2008 12.9912C19.0964 13.0605 18.9731 13.0956 18.8346 13.0956H18.8351Z" fill="#0B0700"/>
<path d="M2.11166 12.727C3.33777 11.5811 4.25907 10.1562 5.21813 8.64725L5.39809 8.48828L5.54867 8.49405C6.47678 9.00979 7.52084 9.54546 8.74224 10.131L8.76899 10.2196L8.55336 10.4405C8.1095 10.7186 7.67037 10.973 7.24697 11.2002L7.17877 11.1577L7.10899 11.1163C7.11528 10.631 6.92588 10.27 6.57122 10.0969C6.4474 10.0365 6.31151 10.0056 6.16776 10.0056C5.67143 10.0056 4.87973 10.4237 4.23073 11.3571C4.0109 11.6735 3.86662 12.0533 3.82046 12.4368L3.74176 12.5297L3.66621 12.621C3.17723 12.7469 2.74229 12.8513 2.21344 12.9227L2.05762 12.8707L2.11008 12.7264L2.11166 12.727Z" fill="url(#paint6_linear_1587_26209)"/>
<path d="M5.59652 15.5157L5.57764 15.4229C6.52411 14.0839 7.22085 12.8248 7.83732 11.712C8.08601 11.2629 8.3221 10.8342 8.55452 10.4402L8.77016 10.2193L8.91549 10.2109C10.5556 11.0011 11.6164 11.6265 12.534 12.3526L12.5356 12.4486L12.3252 12.5519C10.7749 12.8211 9.25704 13.67 7.9092 14.4223C7.1516 14.8452 6.43387 15.2455 5.75445 15.5273L5.59757 15.5157H5.59652Z" fill="url(#paint7_linear_1587_26209)"/>
<path d="M5.59642 22.5483L5.5791 22.4549C6.84824 20.7996 7.79157 19.0977 8.68925 17.4439L8.89072 17.2183L9.03342 17.2031C10.2879 17.7556 11.4741 18.414 12.5617 19.1727L12.5701 19.2713L12.3749 19.3888C11.2936 19.6742 10.2391 20.2881 9.12629 20.9329C8.05704 21.5525 6.95317 22.1879 5.76326 22.5651L5.59642 22.5483Z" fill="url(#paint8_linear_1587_26209)"/>
<path d="M12.3209 17.7902C11.8686 17.7902 11.4552 17.6507 11.1257 17.3868C10.8057 17.1302 10.6205 16.722 10.6084 16.2546L10.6782 16.1465L10.7543 16.0374C11.6131 15.6706 12.4578 15.4844 13.2673 15.4844C13.547 15.4844 13.8272 15.5069 14.1021 15.551L14.1886 15.6365L14.271 15.7241C14.334 16.2866 14.1467 16.8322 13.7469 17.233C13.3996 17.5819 12.866 17.7902 12.3203 17.7902H12.3209Z" fill="url(#paint9_linear_1587_26209)"/>
<path d="M8.85938 17.1297C9.84625 15.3212 10.9533 13.86 12.3242 12.5526L12.5346 12.4492L12.7077 12.4996C13.8252 13.4198 14.7848 14.5573 15.7922 16.1538L15.7769 16.2593L15.65 16.2713C15.2303 16.0557 14.7649 15.8275 14.2722 15.7246L14.1899 15.637L14.1033 15.5515C14.0377 15.2241 13.9207 14.9445 13.7549 14.7173C13.4837 14.3464 13.096 14.1423 12.6631 14.1423C12.1946 14.1423 11.7088 14.3794 11.3289 14.7928C10.9979 15.1533 10.7959 15.5914 10.7555 16.0379L10.6794 16.147L10.6096 16.2551C10.1259 16.4786 9.59284 16.8201 9.03408 17.2047L8.89138 17.2199L8.86042 17.1297H8.85938Z" fill="url(#paint10_linear_1587_26209)"/>
<path d="M19.0045 19.4184C18.5339 19.4184 17.8943 18.888 17.4132 18.0984C17.1945 17.739 17.0423 17.3445 16.9814 16.9824L17.0444 16.9357L17.1084 16.8906C17.8723 17.2936 18.7002 17.7038 19.6 18.0003L19.6792 18.0989L19.7527 18.1949C19.7642 18.7091 19.6021 19.1367 19.3177 19.3261C19.2259 19.3875 19.1199 19.4184 19.0035 19.4184H19.0045Z" fill="url(#paint11_linear_1587_26209)"/>
<path d="M5.57947 22.4544C4.29145 21.6848 3.21486 20.7986 2.20857 19.6743L2.05957 19.6113V22.9828L2.11676 23.0625C2.30931 23.0903 2.52232 23.1045 2.75106 23.1045C3.49712 23.1045 4.41317 22.9544 5.41263 22.6727L5.59626 22.5478L5.57895 22.4544H5.57947Z" fill="url(#paint12_linear_1587_26209)"/>
<path d="M18.4754 20.625C17.3684 19.996 15.9004 19.1702 14.0825 19.1702C13.6439 19.1702 13.1922 19.2148 12.7378 19.3061L12.5699 19.2714L12.5615 19.1728C13.4146 18.2184 14.4272 17.2678 15.6496 16.2699L15.7766 16.2578L15.9665 16.4336C16.9282 17.9682 17.7593 19.2882 18.615 20.5232L18.5982 20.6229L18.4749 20.625H18.4754Z" fill="url(#paint13_linear_1587_26209)"/>
<path d="M26.4682 17.2622L26.3192 17.4223C25.7174 18.7302 24.9876 20.0461 24.2017 21.2496L24.22 21.3519L24.379 21.3824C25.0852 21.1971 25.911 20.875 26.678 20.4805L26.7142 20.3824C26.5149 19.2738 26.4582 18.2108 26.4671 17.2617L26.4682 17.2622Z" fill="url(#paint14_linear_1587_26209)"/>
<path d="M22.2576 21.6626C21.0493 21.6626 19.8909 21.3725 18.8148 20.8142L18.5986 20.6238L18.6154 20.5241C19.4785 19.8971 20.2224 19.1999 20.9622 18.4785L21.1107 18.4297L21.2707 18.5142C22.1978 19.5881 23.1589 20.4806 24.2014 21.2508L24.2198 21.3525L24.0713 21.4543C23.4601 21.5897 22.8504 21.6626 22.2581 21.6626H22.2576Z" fill="url(#paint15_linear_1587_26209)"/>
<path d="M5.49863 28.0311C5.15393 28.0311 4.81501 27.9246 4.51858 27.7237C4.134 27.4629 3.8743 27.0211 3.81396 26.5301L3.8764 26.4566L3.94093 26.3821C5.13609 26.2961 6.30765 25.9912 7.42516 25.4766L7.50018 25.518L7.57206 25.561C7.58675 26.0028 7.44352 26.486 7.15496 26.964C6.73996 27.6518 6.15182 28.0301 5.49915 28.0301L5.49863 28.0311Z" fill="url(#paint16_linear_1587_26209)"/>
<path d="M19.0806 10.7154C18.4646 9.79886 17.611 9.25794 17.0759 9.70862C16.8178 9.92635 16.7705 10.3576 16.8529 10.8125C17.6672 11.2149 18.6189 11.6215 19.5517 11.9064C19.5103 11.5292 19.345 11.1089 19.0811 10.7154H19.0806Z" fill="url(#paint17_linear_1587_26209)"/>
<path d="M19.6725 25.371C19.2103 25.371 18.5067 25.0064 18.056 24.3091C17.8 23.9125 17.6132 23.4754 17.5293 23.0725L17.5928 23.0216L17.6557 22.9707C18.1132 23.1575 18.513 23.3453 18.9002 23.5284C19.3498 23.7404 19.7774 23.9434 20.215 24.1008L20.3026 24.2063L20.3829 24.308C20.4007 24.7404 20.2543 25.1176 19.9978 25.2865C19.9123 25.3427 19.8026 25.3715 19.672 25.3715L19.6725 25.371Z" fill="url(#paint18_linear_1587_26209)"/>
<path d="M23.8092 19.9296C23.4944 19.9296 23.1885 19.8204 22.9482 19.6221C22.6208 19.3524 22.4361 18.9894 22.4136 18.5676L22.4828 18.4957L22.5526 18.4228C23.4503 18.3745 24.3343 18.1652 25.2514 17.7832L25.3265 17.8268L25.4004 17.8734C25.4177 18.3073 25.2903 18.7821 25.0489 19.1809C24.7609 19.6567 24.3091 19.9296 23.8097 19.9296H23.8092Z" fill="url(#paint19_linear_1587_26209)"/>
<path d="M18.1234 14.4085C17.9591 14.3156 17.7865 14.2175 17.6076 14.1141C16.3506 13.3849 14.7866 12.4772 13.1349 12.4772C12.9917 12.4772 12.849 12.484 12.7084 12.4982L12.5353 12.4478L12.5337 12.3518C13.4775 11.4799 14.4455 10.771 15.3731 10.0895L15.5038 10.0801L15.7404 10.2936C16.3652 11.1813 16.9618 12.1567 17.5877 13.1845C17.8096 13.5491 18.0399 13.9247 18.2734 14.3009L18.2524 14.4027L18.1234 14.4085Z" fill="url(#paint20_linear_1587_26209)"/>
<path d="M15.7772 16.2584C15.2641 15.9903 14.7468 15.7364 14.1896 15.6367C14.2851 16.2149 14.1052 16.7757 13.698 17.1839C13.1046 17.7794 11.9389 17.9483 11.1702 17.3324C10.8345 17.0633 10.664 16.6252 10.6786 16.1467C10.1162 16.3959 9.49555 16.7957 8.89062 17.2196C10.2694 17.8177 11.4919 18.516 12.57 19.2726C13.3958 18.3424 14.4352 17.3476 15.7772 16.259V16.2584Z" fill="url(#paint21_linear_1587_26209)"/>
<path d="M2.122 19.4636C3.52965 18.204 4.48924 16.9464 5.40581 15.6636L5.59679 15.5156L5.75366 15.5272C6.81608 16.1499 7.91209 16.7145 8.85961 17.1295L8.89057 17.2197L8.6891 17.4453C8.21061 17.7774 7.76991 18.0712 7.33444 18.3047L7.26361 18.2638L7.19279 18.2223C7.176 17.811 7.00706 17.5083 6.69279 17.3204C6.50392 17.2076 6.29563 17.151 6.0737 17.151C5.52281 17.151 4.90844 17.5072 4.38799 18.1284C4.09208 18.4815 3.89953 18.9301 3.85179 19.3713L3.77362 19.4563L3.70016 19.5392C3.20489 19.6184 2.76261 19.652 2.20857 19.6772L2.05957 19.6142L2.122 19.4647V19.4636Z" fill="url(#paint22_linear_1587_26209)"/>
<path d="M2.39692 16.324C2.30353 16.324 2.21172 16.3214 2.12253 16.3156L2.05957 16.2406V12.8691L2.21539 12.9211C3.09943 13.7647 4.31348 14.6682 5.5779 15.4211L5.59679 15.5139L5.40581 15.6619C4.24475 16.1 3.23375 16.3235 2.39745 16.3235L2.39692 16.324Z" fill="url(#paint23_linear_1587_26209)"/>
<path d="M20.8822 6.34516C20.6209 6.34516 20.3486 6.32627 20.0805 6.30371L19.9048 6.22344L19.8906 6.10434C20.5318 5.36458 21.2694 4.41863 21.9625 3.02042L22.1141 2.91602L22.2783 2.94487C23.123 3.52199 24.4404 4.18673 25.5181 4.57864L25.602 4.68358L25.4284 4.9055C25.0868 5.16101 24.7222 5.38819 24.3402 5.57654L24.2636 5.53614L24.1849 5.49626C24.0873 5.02408 23.782 4.64633 23.3198 4.42859C23.1519 4.34937 22.9766 4.3095 22.7993 4.3095C22.2846 4.3095 21.7893 4.65262 21.538 5.18357C21.3827 5.512 21.3271 5.8588 21.3759 6.19196L21.3166 6.26488L21.2605 6.33833C21.1351 6.34358 21.0087 6.34568 20.8822 6.34568V6.34516Z" fill="url(#paint24_linear_1587_26209)"/>
<path d="M21.6349 24.5438C21.2021 24.5102 20.8217 24.4488 20.3831 24.3087L20.3028 24.207L20.2152 24.1015C20.1696 23.8282 20.0437 23.4504 19.7189 23.0365C19.2005 22.3759 18.6281 21.9814 18.188 21.9814C18.0363 21.9814 17.9057 22.0281 17.8002 22.1204C17.6371 22.2626 17.5846 22.5711 17.656 22.9714L17.593 23.0223L17.5295 23.0732C17.1355 22.9147 16.7924 22.7914 16.4047 22.675L16.2021 22.5485L16.2037 22.4488C16.9886 21.7211 17.7567 21.144 18.4765 20.6251L18.5998 20.623L18.816 20.8135C19.8165 22.2332 20.7855 23.4063 21.7761 24.3943L21.7818 24.4913L21.6355 24.5438H21.6349Z" fill="url(#paint25_linear_1587_26209)"/>
<path d="M22.1576 18.5739C21.8648 18.5739 21.5668 18.5492 21.2704 18.5146L21.1104 18.4301L21.1156 18.3284C22.0065 17.4527 22.8585 16.5026 23.721 15.4207L23.8952 15.3105L24.0426 15.3452C24.7751 15.9748 25.551 16.5634 26.4057 17.1379L26.4676 17.2638L26.3186 17.4239C26.0106 17.5912 25.7021 17.7449 25.3989 17.8751L25.3249 17.8284L25.2499 17.7848C25.2179 17.4517 25.093 17.1757 24.8936 17.0015C24.6864 16.82 24.4351 16.7245 24.167 16.7245C23.7352 16.7245 23.2882 16.9721 22.9409 17.4044C22.7048 17.6982 22.5636 18.066 22.5511 18.4249L22.4813 18.4978L22.412 18.5697C22.3275 18.5728 22.241 18.5749 22.1565 18.5749L22.1576 18.5739Z" fill="url(#paint26_linear_1587_26209)"/>
<path d="M26.8768 11.1387L26.646 11.3585C25.5552 12.9771 24.6775 14.2016 23.8921 15.2026L23.8958 15.3091L24.0432 15.3438C24.9141 15.1061 25.8553 14.7236 26.6145 14.3013L26.7042 14.1696C26.8401 13.1995 26.891 12.1943 26.8763 11.1392L26.8768 11.1387Z" fill="url(#paint27_linear_1587_26209)"/>
<path d="M4.82669 14.0475C4.57381 14.0475 4.34138 13.9709 4.13677 13.8204C3.8225 13.5895 3.65042 13.1456 3.66825 12.6205L3.7438 12.5292L3.8225 12.4363C4.89542 12.1011 5.98565 11.7133 7.11051 11.1152L7.18029 11.1567L7.24849 11.1992C7.22488 11.6352 7.06014 12.1184 6.77001 12.6011C6.22542 13.5071 5.49877 14.0475 4.82669 14.0475Z" fill="url(#paint28_linear_1587_26209)"/>
<path d="M12.3193 11.162C11.7915 11.162 11.2773 10.9684 10.9079 10.6305C10.5596 10.3121 10.3723 9.90599 10.3623 9.44796L10.4358 9.3467L10.515 9.2444C11.1031 9.05237 11.6697 8.95898 12.2448 8.95898C12.7768 8.95898 13.3004 9.03978 13.8423 9.204L13.9305 9.30631L14.0118 9.40861C14.0396 9.89497 13.8796 10.3556 13.5653 10.6877C13.2799 10.9894 12.8261 11.162 12.3198 11.162H12.3193Z" fill="url(#paint29_linear_1587_26209)"/>
<path d="M2.05957 9.49838V6.12695L2.21329 6.1726C3.0732 6.94489 4.16291 7.71036 5.37538 8.39398L5.39899 8.48685L5.21904 8.64582C3.96144 9.21612 2.85022 9.54822 2.12358 9.56763L2.06009 9.49838H2.05957Z" fill="url(#paint30_linear_1587_26209)"/>
<path d="M21.1109 18.43L20.9624 18.4788C20.5637 18.4158 20.1681 18.3224 19.7541 18.1949L19.6807 18.0989L19.6015 18.0003C19.5637 17.6577 19.4504 17.3177 19.2704 17.0097C18.7421 16.1068 18.1482 15.7862 17.7998 15.7862C17.6235 15.7862 17.4625 15.8565 17.3198 15.9945C17.1309 16.1782 17.0564 16.4945 17.1099 16.8906L17.0459 16.9358L16.9829 16.9824C16.7988 16.8849 16.6172 16.7868 16.4378 16.6902C16.2762 16.6031 16.1225 16.5171 15.9682 16.4352L15.7783 16.2595L15.7935 16.154C16.5207 15.5669 17.1986 15.0795 17.8549 14.6058C17.9457 14.5402 18.0338 14.4756 18.1241 14.4101L18.2531 14.4043L18.4451 14.5837C19.1319 15.6813 20.0333 17.0459 21.1162 18.3287L21.1109 18.4305V18.43Z" fill="url(#paint31_linear_1587_26209)"/>
<path d="M9.22093 24.4875L9.18945 24.3935C10.02 22.7393 10.8458 21.148 12.3752 19.391L12.5703 19.2734L12.7382 19.3081C14.0058 20.2126 15.1695 21.2703 16.203 22.4507L16.2015 22.5504L16.0692 22.5824C15.6443 22.4749 15.1474 22.4182 14.5923 22.402L14.5152 22.329L14.436 22.2582C14.383 21.8878 14.2135 21.5336 13.9439 21.2955C13.6679 21.0525 13.3631 20.9298 13.0378 20.9298C12.4549 20.9298 11.8474 21.3427 11.4124 22.0347C11.1779 22.4077 11.0032 22.8295 10.9712 23.1968L10.8951 23.3175L10.8274 23.4371C10.3059 23.7299 9.82638 24.1223 9.35 24.4707L9.22093 24.4885V24.4875Z" fill="url(#paint32_linear_1587_26209)"/>
<path d="M17.7555 8.23008C17.3447 8.04383 16.9229 7.83711 16.5142 7.63512C15.0756 6.92526 13.5851 6.18655 12.0835 6.13461L11.9083 6.06745L11.9072 5.96987C12.8165 5.0533 13.9355 4.27524 14.7372 3.75006L14.8757 3.74219L15.1401 3.97828C15.8972 4.99821 16.5557 6.02653 17.1427 6.94468C17.4119 7.36492 17.6658 7.76366 17.8956 8.10626L17.8825 8.21119L17.7555 8.2306V8.23008Z" fill="url(#paint33_linear_1587_26209)"/>
<path d="M25.6018 4.68359L25.4281 4.90552C24.7078 6.51883 24.0215 7.84673 23.3379 8.96005L23.3594 9.06026L23.5331 9.09069C24.4785 8.85145 25.5346 8.53298 26.4239 8.01043L26.4701 7.9013C26.4701 7.9013 26.4706 7.9013 26.4711 7.90077C26.1658 6.5671 25.7833 5.50363 25.6023 4.68412L25.6018 4.68359Z" fill="url(#paint34_linear_1587_26209)"/>
<path d="M4.74728 6.98647C4.47341 6.98647 4.22158 6.90253 3.99755 6.73726C3.74519 6.55101 3.60196 6.20316 3.59619 5.77295L3.66649 5.67379L3.74205 5.57148C4.5327 5.27243 5.19376 4.90045 5.83542 4.54001C6.17959 4.34641 6.53478 4.14652 6.90204 3.96289L6.97601 4.00539L7.04894 4.04736C7.07675 4.53057 6.93352 5.08722 6.65125 5.5846C6.16018 6.44975 5.43038 6.987 4.74676 6.987L4.74728 6.98647Z" fill="url(#paint35_linear_1587_26209)"/>
<path d="M24.8041 25.8399C24.4652 25.8399 24.1446 25.7407 23.8776 25.5524C23.5077 25.2922 23.2742 24.9349 23.1997 24.5199L23.2595 24.4406L23.3235 24.3604C24.3503 24.2282 25.2873 23.9412 26.0753 23.6699L26.1645 23.7129L26.2516 23.7581C26.3775 24.2292 26.3083 24.7528 26.0627 25.1752C25.8246 25.5849 25.3419 25.8394 24.8041 25.8394V25.8399Z" fill="url(#paint36_linear_1587_26209)"/>
<path d="M8.76992 10.2199L8.74316 10.1313C9.72479 8.52741 10.709 7.21998 11.7458 6.13919L11.9089 6.06836L12.0842 6.13552C13.3879 7.34274 14.5112 8.59824 15.5206 9.98175L15.5039 10.0814L15.3732 10.0909C14.8764 9.79813 14.4845 9.57148 14.0112 9.40936L13.9299 9.30705L13.8418 9.20474C13.7814 8.86791 13.6235 8.54997 13.3822 8.27873C13.0049 7.85533 12.5448 7.62186 12.0873 7.62186C11.6776 7.62186 11.2919 7.80182 10.9892 8.15176C10.718 8.4655 10.5532 8.86214 10.5144 9.24462L10.4352 9.34692L10.3617 9.44818C9.85543 9.63129 9.43833 9.88259 8.91473 10.2105L8.7694 10.2189L8.76992 10.2199Z" fill="url(#paint37_linear_1587_26209)"/>
<path d="M22.2019 24.5681C22.1195 24.5681 22.0361 24.5654 21.9537 24.5628L21.7817 24.493L21.7759 24.396C22.5639 23.5476 23.3357 22.5623 24.0718 21.4553L24.2202 21.3535L24.3792 21.3839C25.3309 22.0665 26.3645 22.6463 27.4553 23.1137L27.567 23.2375L27.4563 23.3414C27.1992 23.4212 26.9511 23.5135 26.6441 23.6221C26.5188 23.6667 26.3855 23.7134 26.2517 23.7601L26.1646 23.715L26.0754 23.672C25.9589 23.3451 25.7454 23.0864 25.4558 22.9222C25.2045 22.78 24.9469 22.7076 24.6909 22.7076C24.2507 22.7076 23.8504 22.9275 23.5933 23.3105C23.3913 23.6111 23.2927 23.9993 23.3236 24.3624L23.2596 24.4427L23.1998 24.5219C22.8498 24.5607 22.5324 24.5681 22.2019 24.5681Z" fill="url(#paint38_linear_1587_26209)"/>
<path d="M22.8699 7.70804C22.5341 7.70804 22.1915 7.5669 21.851 7.28884C21.5472 7.04068 21.3442 6.71277 21.2607 6.33816L21.3169 6.26471L21.3762 6.19179C22.3898 6.1346 23.3342 5.9006 24.1852 5.49609L24.2639 5.53597L24.3405 5.57637C24.3856 5.89745 24.342 6.23795 24.2124 6.56586C23.9249 7.29198 23.436 7.70804 22.8704 7.70804H22.8699Z" fill="url(#paint39_linear_1587_26209)"/>
<path d="M24.9406 16.9488C24.3556 16.4378 23.4962 16.6025 22.8871 17.3601C22.6295 17.6807 22.4773 18.0925 22.482 18.4975C23.3671 18.4587 24.311 18.2573 25.3257 17.8286C25.3015 17.4703 25.174 17.1523 24.9406 16.9488Z" fill="url(#paint40_linear_1587_26209)"/>
<path d="M19.2794 19.2667C18.8125 19.5773 18.0145 18.9498 17.4731 18.0605C17.2538 17.7001 17.1 17.3003 17.0449 16.9346C16.6105 16.7053 16.1887 16.4734 15.7769 16.2578C16.7879 17.8711 17.6897 19.315 18.5984 20.6229C19.5014 19.9745 20.2621 19.2578 21.11 18.4288C20.6152 18.3596 20.1394 18.2442 19.6798 18.0978C19.7139 18.6245 19.5628 19.0778 19.2794 19.2662V19.2667Z" fill="url(#paint41_linear_1587_26209)"/>
<path d="M10.9325 8.10373C10.6308 8.45262 10.4503 8.90225 10.4341 9.34663C11.6544 8.92639 12.7887 8.93793 13.9288 9.30624C13.8863 8.93583 13.7284 8.55808 13.4362 8.23017C12.6848 7.38653 11.6313 7.29576 10.9325 8.10373Z" fill="url(#paint42_linear_1587_26209)"/>
<path d="M12.4347 24.8146C12.195 24.8146 11.9547 24.76 11.7207 24.653C11.1908 24.4101 10.855 23.9793 10.8267 23.4348L10.8943 23.3151L10.9704 23.1945C12.1456 22.5628 13.3015 22.2606 14.4352 22.2559L14.5145 22.3267L14.5916 22.3996C14.6204 22.9028 14.4588 23.4075 14.133 23.8277C13.6404 24.4636 13.037 24.8141 12.4347 24.8141V24.8146Z" fill="url(#paint43_linear_1587_26209)"/>
<path d="M25.4899 22.8586C24.7292 22.4278 23.9495 22.6482 23.5324 23.2688C23.331 23.5689 23.2003 24.0049 23.2586 24.4414C24.3509 24.3087 25.3304 24.0028 26.1636 23.7137C26.055 23.3628 25.8315 23.0522 25.4894 22.8586H25.4899Z" fill="url(#paint44_linear_1587_26209)"/>
<path d="M25.2936 26.9518C25.0208 26.819 23.4909 26.0457 21.9521 24.562L21.78 24.4922L21.6336 24.5447C20.7931 25.4292 20.0051 26.1102 19.1468 26.658L19.1216 26.7645C20.8493 27.7172 22.8414 27.8348 25.3041 27.0425L25.2931 26.9518H25.2936Z" fill="url(#paint45_linear_1587_26209)"/>
<path d="M13.2575 26.1366C12.6719 25.8649 12.0492 25.5962 11.3913 25.3087C10.7239 25.017 10.0356 24.7856 9.34931 24.4688L9.22025 24.4866L9.02612 24.719C8.97261 24.8271 8.91909 24.9362 8.86506 25.0453C8.14103 26.5154 7.38763 27.9692 5.93066 29.5647L5.94221 29.6576C9.35561 28.9624 10.4658 27.4871 13.2847 26.2316L13.258 26.1371L13.2575 26.1366Z" fill="url(#paint46_linear_1587_26209)"/>
<path d="M3.20174 26.5035C2.88013 26.5035 2.56009 26.4794 2.23323 26.4432L2.05957 26.3577L2.11046 26.2255C3.54539 25.046 4.47088 23.8913 5.41316 22.6756L5.59679 22.5508L5.76363 22.5676C6.70906 23.1206 7.77095 23.7334 9.18909 24.3939L9.22057 24.4878L9.02645 24.7202C8.59256 25.0193 8.0889 25.3204 7.57106 25.5644L7.49918 25.5214L7.42416 25.4799C7.38376 25.0161 7.14609 24.6452 6.76467 24.4558C6.54484 24.3467 6.30402 24.2916 6.04904 24.2916C5.37171 24.2916 4.67235 24.6798 4.26627 25.2806C4.03594 25.6216 3.92262 26.002 3.93993 26.3855L3.8754 26.46L3.81296 26.5334C3.59681 26.5465 3.39639 26.5035 3.20122 26.5035H3.20174Z" fill="url(#paint47_linear_1587_26209)"/>
<path d="M8.7699 10.2193C8.22373 10.5703 7.69541 10.8819 7.18019 11.1574C7.16603 11.575 7.01178 12.0629 6.70958 12.5655C5.96405 13.8053 4.90477 14.299 4.17812 13.7644C3.84497 13.5193 3.70384 13.0445 3.74319 12.5293C3.13721 12.6862 2.67132 12.798 2.05957 12.8704C2.86544 13.6589 4.10782 14.6348 5.59679 15.5151C7.04221 13.4816 7.91943 11.6138 8.7699 10.2188V10.2193Z" fill="url(#paint48_linear_1587_26209)"/>
<path d="M14.7372 3.75135C14.3636 3.56037 13.9355 3.38566 13.3652 3.21725L13.276 3.11652L13.179 3.01631C13.0929 2.69364 12.9198 2.36836 12.6942 2.10708C12.3254 1.68001 11.8721 1.435 11.4508 1.435C11.1328 1.435 10.8369 1.56879 10.572 1.83269C10.3107 2.09344 10.1612 2.49952 10.1648 2.93079L10.0966 3.01578L10.0316 3.10078C9.59663 3.18052 9.17009 3.28703 8.64858 3.43446L8.48384 3.4098L8.46338 3.31379C9.47334 1.77288 10.3983 0.728815 11.2855 0.129135L11.4628 0.0976562L11.7052 0.197865C12.6281 0.941825 13.7493 2.1543 14.892 3.64799L14.8752 3.744L14.7367 3.75187L14.7372 3.75135Z" fill="url(#paint49_linear_1587_26209)"/>
<path d="M24.899 13.1107C24.3308 13.9617 23.1929 14.0818 22.6425 13.3557C22.4211 13.0635 22.2873 12.7141 22.2642 12.3583C21.7658 12.3347 21.3676 12.2975 20.897 12.2256C21.8776 13.3804 22.8529 14.4045 23.8959 15.3111C24.8046 14.1595 25.7694 12.7922 26.877 11.1406C26.3612 11.4643 25.7868 11.6852 25.3146 11.8704C25.3293 12.2686 25.197 12.6978 24.8985 13.1102L24.899 13.1107Z" fill="url(#paint50_linear_1587_26209)"/>
<path d="M16.4041 22.6753L16.2016 22.5488L16.0694 22.5808C14.944 23.6464 14.0243 24.808 13.2583 26.1369L13.2851 26.2314C15.8102 25.1065 18.0799 26.1889 19.1224 26.7639L19.1475 26.6574C18.4225 25.2256 17.4561 23.9129 16.4041 22.6758V22.6753Z" fill="url(#paint51_linear_1587_26209)"/>
<path d="M5.07794 20.9986C4.72695 20.9986 4.40219 20.8821 4.13881 20.6623C3.8471 20.4183 3.68971 20.0123 3.7002 19.5385L3.77365 19.4556L3.85182 19.3706C5.01813 19.1644 6.11256 18.7888 7.19282 18.2227L7.26365 18.2641L7.33448 18.305C7.33133 18.815 7.11832 19.4204 6.74687 19.9755C6.31193 20.6256 5.70333 20.9986 5.07742 20.9986H5.07794Z" fill="url(#paint52_linear_1587_26209)"/>
<path d="M11.2768 14.7452C10.8864 15.1702 10.6939 15.678 10.6792 16.1471C11.9457 15.5852 13.1125 15.444 14.1902 15.6371C14.1388 15.3239 14.0328 14.9781 13.8119 14.6759C13.1787 13.8103 12.0417 13.9131 11.2773 14.7452H11.2768Z" fill="url(#paint53_linear_1587_26209)"/>
<path d="M27.5672 23.2363L27.4565 23.3402C27.0032 24.5973 26.1312 26.0558 25.2949 26.9514L25.3059 27.0422C27.5252 26.3286 28.904 26.23 28.904 26.23C28.904 26.23 28.2524 24.8134 27.5672 23.2363Z" fill="url(#paint54_linear_1587_26209)"/>
<path d="M5.93152 29.5643C4.64139 28.6881 3.43102 27.6965 2.23323 26.441L2.05957 26.3555V29.5475C2.05957 29.5475 3.75735 30.1015 5.94306 29.6566L5.93152 29.5637V29.5643Z" fill="url(#paint55_linear_1587_26209)"/>
<path d="M6.79608 24.3924C5.89683 23.9459 4.76252 24.4202 4.20796 25.2407C3.93987 25.6374 3.84228 26.0655 3.87533 26.4595C5.25622 26.3693 6.48916 25.992 7.49912 25.5214C7.46869 25.0052 7.21056 24.5986 6.79608 24.3929V24.3924Z" fill="#0B0700"/>
<path d="M7.49971 25.5204C7.52437 25.9354 7.40107 26.4213 7.09415 26.9302C6.38115 28.1112 5.28619 28.161 4.55745 27.6673C4.17235 27.4066 3.91842 26.9595 3.87592 26.4585C3.27992 26.4973 2.72063 26.4422 2.05957 26.3562C3.17026 27.5346 4.42104 28.6306 5.94306 29.6573C7.63822 27.8168 8.40107 26.1222 9.22162 24.4863C8.7636 24.8274 8.15658 25.2135 7.50023 25.5199L7.49971 25.5204Z" fill="url(#paint56_linear_1587_26209)"/>
<path d="M26.0005 25.1403C25.6159 25.8014 24.6039 25.9771 23.9182 25.4944C23.5037 25.2027 23.3096 24.8218 23.2592 24.4415C22.7697 24.5007 22.3028 24.5191 21.7812 24.4918C23.5404 26.2321 25.3059 27.0422 25.3059 27.0422C26.1333 26.1728 27.0866 24.6445 27.5671 23.2363C27.16 23.3539 26.7182 23.5217 26.1647 23.7138C26.308 24.1765 26.2508 24.7106 26.001 25.1398L26.0005 25.1403Z" fill="url(#paint57_linear_1587_26209)"/>
<path d="M6.72881 17.2597C6.00899 16.83 5.07563 17.1973 4.33429 18.0824C3.99484 18.4874 3.80334 18.99 3.77344 19.4554C4.94184 19.2581 6.0751 18.8919 7.26396 18.2639C7.25714 17.8458 7.10027 17.4811 6.72881 17.2597Z" fill="url(#paint58_linear_1587_26209)"/>
<path d="M12.0112 4.80257C11.5485 4.80257 11.0574 4.62052 10.6639 4.3031C10.3003 4.01034 10.0784 3.58485 10.0322 3.09954L10.0973 3.01455L10.1655 2.92956C10.6665 2.84561 11.123 2.80469 11.56 2.80469C12.1219 2.80469 12.6529 2.87394 13.1796 3.01455L13.2767 3.11476L13.3659 3.21549C13.433 3.68663 13.3118 4.10688 13.0175 4.40803C12.7651 4.66616 12.4173 4.80257 12.0117 4.80257H12.0112Z" fill="url(#paint59_linear_1587_26209)"/>
<path d="M13.9904 21.2428C13.1263 20.482 12.033 20.9154 11.3535 21.9972C11.0744 22.4421 10.9044 22.9201 10.8955 23.3173C12.0807 22.6625 13.2811 22.3031 14.5156 22.3288C14.4773 21.9364 14.3131 21.5266 13.9904 21.2428Z" fill="url(#paint60_linear_1587_26209)"/>
<path d="M19.3305 16.973C18.8321 16.121 17.9276 15.3046 17.2702 15.9431C17.0435 16.1629 16.9837 16.5276 17.0451 16.9342C17.8704 17.3702 18.7413 17.7993 19.6799 18.0979C19.6563 17.7369 19.5456 17.3413 19.3305 16.973Z" fill="url(#paint61_linear_1587_26209)"/>
<path d="M20.3019 24.2073C20.3517 24.6863 20.198 25.0698 19.9582 25.2277C19.5899 25.4701 18.6503 25.0986 18.1156 24.2713C17.8507 23.8615 17.6681 23.414 17.592 23.0226C17.1644 22.8489 16.7332 22.6989 16.2012 22.5488C17.5123 24.0572 18.5018 25.5257 19.1224 26.7634C20.0857 26.1584 20.9315 25.3993 21.7809 24.4911C21.2195 24.4617 20.7704 24.3657 20.3019 24.2067V24.2073Z" fill="url(#paint62_linear_1587_26209)"/>
<path d="M5.39746 8.48664C6.60469 9.16239 7.83448 9.77046 8.76889 10.218C9.76206 8.58842 10.7794 7.22012 11.9079 6.06641C10.0396 6.0706 7.59891 7.45569 5.39746 8.48664Z" fill="url(#paint63_linear_1587_26209)"/>
<path d="M18.2515 14.4023C19.0893 15.7518 20.007 17.1316 21.1098 18.4285C22.0022 17.5555 22.9109 16.5555 23.8946 15.3084C21.7661 15.8588 20.2897 15.5366 18.2515 14.4023Z" fill="url(#paint64_linear_1587_26209)"/>
<path d="M26.4696 7.89844C26.4696 7.89844 26.4691 7.89844 26.4686 7.89896C25.509 8.48395 24.3348 8.81606 23.3579 9.05845C24.4502 9.78247 25.6071 10.4708 26.8757 11.1382C26.8589 9.90419 26.6805 8.8213 26.4696 7.89949C26.4696 7.89949 26.4696 7.89949 26.4696 7.89896V7.89844Z" fill="url(#paint65_linear_1587_26209)"/>
<path d="M27.5665 23.2359C27.1505 22.2789 26.8819 21.3146 26.714 20.3828C25.9936 20.7585 25.0734 21.1462 24.2192 21.3518C25.1998 22.0691 26.3037 22.7086 27.5665 23.2354V23.2359Z" fill="url(#paint66_linear_1587_26209)"/>
<path d="M26.4674 17.2613C26.4795 15.9654 26.6038 14.8841 26.704 14.168C25.8111 14.6837 24.736 15.0903 23.895 15.3075C24.7124 16.0179 25.5603 16.6564 26.4674 17.2608V17.2613Z" fill="url(#paint67_linear_1587_26209)"/>
<path d="M17.8818 8.21094C18.9102 9.72876 19.8997 11.0514 20.896 12.224C21.7066 11.414 22.5156 10.4213 23.3582 9.0593C21.6908 9.47273 19.844 9.08501 17.8818 8.21094Z" fill="url(#paint68_linear_1587_26209)"/>
<path d="M15.5035 10.0805C14.9515 9.7484 14.4841 9.48555 13.9295 9.30664C13.9872 9.80978 13.8319 10.3009 13.5114 10.6398C12.9521 11.2305 11.7155 11.2736 10.9563 10.5789C10.5728 10.2285 10.419 9.78722 10.4348 9.34704C9.86396 9.54378 9.37026 9.83287 8.76953 10.219C10.2784 10.9415 11.4788 11.6041 12.535 12.4483C13.5234 11.5286 14.5281 10.7972 15.5035 10.0805Z" fill="url(#paint69_linear_1587_26209)"/>
<path d="M5.59634 22.5487C6.92738 20.8231 7.88278 19.0771 8.89012 17.2188C8.32716 17.6133 7.79201 17.9832 7.26316 18.2628C7.27156 18.7953 7.03651 19.415 6.68814 19.9354C5.95048 21.0377 4.84188 21.1579 4.18292 20.6075C3.87495 20.3499 3.74273 19.9207 3.77264 19.4548C3.18608 19.554 2.67926 19.587 2.05859 19.6127C3.03498 20.7234 4.15354 21.6951 5.59581 22.5492L5.59634 22.5487Z" fill="url(#paint70_linear_1587_26209)"/>
<path d="M2.1162 5.97427C2.97506 5.11384 4.13559 3.34208 4.97871 1.84472L5.16286 1.65899L5.30295 1.64062C6.34491 2.07084 7.40681 2.63327 8.46399 3.3127L8.48445 3.40871L8.32338 3.5299C7.90471 3.66159 7.49495 3.82843 7.05004 4.04669L6.97712 4.00472L6.90314 3.96222C6.86484 3.61542 6.72633 3.36044 6.51175 3.24187C6.36117 3.15897 6.18856 3.11648 5.99916 3.11648C5.36905 3.11648 4.68385 3.56348 4.21114 4.28331C3.94409 4.69044 3.77935 5.14322 3.74315 5.57028L3.6676 5.67259L3.5973 5.77175C3.16131 5.93072 2.76572 6.07081 2.21378 6.17259L2.06006 6.12694L2.11725 5.97374L2.1162 5.97427Z" fill="url(#paint71_linear_1587_26209)"/>
<path d="M19.1624 12.9326C18.6944 13.2432 17.8303 12.7443 17.2626 11.8629C17.07 11.5638 16.9189 11.1803 16.8523 10.812C16.3334 10.5554 15.8702 10.3004 15.5034 10.0801C16.4347 11.3639 17.2956 12.8628 18.2521 14.4027C19.1692 13.7369 20.0349 13.0848 20.8963 12.2238C20.4651 12.1577 20.0102 12.047 19.5506 11.9064C19.5989 12.3424 19.4819 12.7207 19.1624 12.9326Z" fill="url(#paint72_linear_1587_26209)"/>
<path d="M19.7658 6.27587C19.4436 6.23285 19.1472 6.10589 18.7978 5.98679L18.7012 5.87766L18.5953 5.76224C18.4814 5.39393 18.2689 4.98522 17.9888 4.59541C17.5968 4.05029 17.0213 3.46792 16.5822 3.46792C16.4678 3.46792 16.3718 3.5078 16.2878 3.58964C16.1446 3.72973 16.142 4.076 16.2815 4.52091L16.2217 4.5676L16.1624 4.61482C15.9536 4.48313 15.303 4.08177 15.1404 3.97841L14.876 3.74232L14.8928 3.64631C15.0496 3.54348 15.2102 3.43487 15.3644 3.32994C15.7962 3.03561 16.206 2.73236 16.695 2.47895L16.8634 2.47266L17.0879 2.60644C17.6981 3.26226 18.2694 3.9952 18.7469 4.6484C19.1488 5.19823 19.5297 5.71659 19.8911 6.10379L19.9053 6.22288L19.7668 6.27587H19.7658Z" fill="url(#paint73_linear_1587_26209)"/>
<path d="M24.9875 19.1461C24.4739 19.9945 23.5416 20.0228 22.9923 19.5695C22.6408 19.2799 22.4865 18.8917 22.4818 18.4971C22.0086 18.5181 21.5521 18.4924 21.1104 18.4305C22.0028 19.4809 23.019 20.4756 24.22 21.3539C25.1177 19.9872 25.8795 18.568 26.4681 17.2637C26.0773 17.4846 25.6969 17.6719 25.3259 17.8282C25.3548 18.2505 25.2404 18.7296 24.9881 19.1461H24.9875Z" fill="url(#paint74_linear_1587_26209)"/>
<path d="M18.3279 7.00257C17.8458 7.00257 17.1648 6.3221 16.7041 5.64739C16.447 5.27069 16.265 4.92389 16.1616 4.6154L16.2209 4.56818L16.2807 4.52148C17.0514 5.00312 17.8085 5.45904 18.5944 5.76282L18.7004 5.87824L18.797 5.98737C18.8641 6.33836 18.8269 6.62325 18.6857 6.8179C18.5981 6.93909 18.4743 7.0031 18.3274 7.0031L18.3279 7.00257Z" fill="url(#paint75_linear_1587_26209)"/>
<path d="M19.7745 22.9926C19.0017 22.0083 18.1921 21.6836 17.7525 22.0666C17.5531 22.2408 17.5101 22.5986 17.5919 23.0225C18.658 23.4548 19.4413 23.9139 20.3018 24.2072C20.2635 23.8388 20.1055 23.4144 19.7745 22.9926Z" fill="url(#paint76_linear_1587_26209)"/>
<path d="M25.3138 11.8693C25.2944 11.3478 25.0237 10.8793 24.5452 10.5697C24.0074 10.2219 23.1276 10.3305 22.626 11.054C22.3595 11.4385 22.2341 11.9044 22.2635 12.3567C23.2021 12.4008 24.2026 12.3053 25.3138 11.8688V11.8693Z" fill="url(#paint77_linear_1587_26209)"/>
<path d="M5.59679 22.5508C4.21275 22.9616 2.93994 23.1316 2.05957 22.9852V26.3577C3.64193 25.0738 4.633 23.8 5.59679 22.5508Z" fill="url(#paint78_linear_1587_26209)"/>
<path d="M5.39847 8.48828C4.20488 9.04756 2.90479 9.49877 2.05957 9.49981V12.8712C3.39796 11.654 4.37382 10.1011 5.39847 8.48881V8.48828Z" fill="url(#paint79_linear_1587_26209)"/>
<path d="M5.59679 15.5156C4.02807 16.1342 2.8796 16.3079 2.05957 16.2417V19.6132C3.62724 18.2333 4.65608 16.8393 5.59679 15.5156Z" fill="url(#paint80_linear_1587_26209)"/>
<path d="M5.59668 22.5504C6.75039 23.2335 7.99225 23.9166 9.22099 24.488C10.0242 22.8857 10.8841 21.1722 12.5699 19.2734C10.3034 19.7792 8.14492 21.7944 5.59668 22.5504Z" fill="url(#paint81_linear_1587_26209)"/>
<path d="M12.5352 12.4492C9.98908 12.7992 7.59928 14.7262 5.59668 15.5163C6.71314 16.1764 7.88207 16.7829 8.89046 17.2204C10.0452 15.0909 11.2792 13.6181 12.5352 12.4492Z" fill="url(#paint82_linear_1587_26209)"/>
<path d="M12.5352 12.4468C13.7093 13.3859 14.7067 14.5486 15.777 16.2568C16.6595 15.5407 17.4737 14.9662 18.2523 14.4017C16.7644 13.5732 14.7104 12.1478 12.5352 12.4468Z" fill="url(#paint83_linear_1587_26209)"/>
<path d="M15.5036 10.08C16.32 9.48034 17.118 8.88906 17.8829 8.21016C15.9721 7.35864 13.9611 6.0617 11.9087 6.06642C13.2051 7.25371 14.4123 8.57532 15.5036 10.0795V10.08Z" fill="url(#paint84_linear_1587_26209)"/>
<path d="M12.5698 19.2713C14.0273 20.2944 15.223 21.4229 16.2015 22.5483C17.0304 21.7739 17.8526 21.159 18.5986 20.6228C17.1637 19.8112 15.3043 18.6612 12.5698 19.2713Z" fill="url(#paint85_linear_1587_26209)"/>
<path d="M16.2012 22.5495C15.6393 22.3916 15.0391 22.3391 14.515 22.3281C14.5669 22.8591 14.4022 23.3685 14.078 23.7867C13.4405 24.6093 12.5995 24.9797 11.7506 24.5904C11.2401 24.3564 10.8812 23.9288 10.8949 23.3166C10.344 23.6209 9.7952 24.0595 9.2207 24.4871C10.6304 25.1424 12.057 25.6592 13.2852 26.2321C14.1776 24.6686 15.1939 23.4913 16.2012 22.5501V22.5495Z" fill="url(#paint86_linear_1587_26209)"/>
<path d="M6.60309 10.0339C5.7925 9.63779 4.7327 10.5134 4.17394 11.3177C3.91948 11.6834 3.77416 12.1199 3.74268 12.5302C4.86124 12.2406 5.9861 11.7962 7.17969 11.1582C7.19752 10.6383 6.99973 10.228 6.60309 10.0339Z" fill="url(#paint87_linear_1587_26209)"/>
<path d="M23.349 4.36431C22.6098 4.01542 21.817 4.42727 21.4739 5.15287C21.2997 5.52117 21.2499 5.90732 21.3165 6.26408C22.3422 6.21372 23.3411 5.98234 24.263 5.53534C24.1785 5.04426 23.8742 4.61195 23.349 4.36431Z" fill="url(#paint88_linear_1587_26209)"/>
<path d="M13.2764 3.11637C13.1972 2.72865 12.9978 2.34881 12.7491 2.06025C12.1589 1.37715 11.2649 1.04137 10.5219 1.78218C10.2276 2.07546 10.0713 2.5424 10.097 3.01617C11.2649 2.81103 12.2675 2.82677 13.2764 3.11637Z" fill="url(#paint89_linear_1587_26209)"/>
<path d="M18.0461 4.55383C17.5062 3.80305 16.704 3.08322 16.2371 3.53862C16.054 3.71753 16.076 4.11889 16.2208 4.56747C17.0183 5.06589 17.8404 5.56536 18.7003 5.87753C18.5964 5.46358 18.3603 4.99139 18.0455 4.55383H18.0461Z" fill="url(#paint90_linear_1587_26209)"/>
<path d="M6.54427 3.18076C5.87376 2.81088 4.82393 3.22064 4.1508 4.24581C3.83968 4.71958 3.68123 5.23164 3.66602 5.67392C4.95771 5.20226 5.88635 4.54434 6.97553 4.00552C6.94458 3.6262 6.79977 3.3219 6.54374 3.18129L6.54427 3.18076Z" fill="url(#paint91_linear_1587_26209)"/>
<path d="M19.9038 6.22275C19.4861 6.17973 19.1073 6.02496 18.7007 5.87753C18.7926 6.24374 18.781 6.5643 18.6283 6.77521C18.2663 7.27626 17.3608 6.48193 16.7632 5.60681C16.5413 5.28257 16.3335 4.91741 16.2212 4.56747C15.705 4.24428 15.366 4.00871 14.8755 3.74219C16.11 5.36232 17.1184 7.08214 17.8823 8.21067C18.6446 7.53439 19.2626 6.95779 19.9038 6.22275Z" fill="url(#paint92_linear_1587_26209)"/>
<path d="M14.8753 3.7428C14.3606 3.46316 13.7761 3.25906 13.2756 3.11583C13.3664 3.56127 13.2987 4.01771 12.965 4.35874C12.4099 4.92642 11.4068 4.81099 10.7079 4.24804C10.3118 3.92852 10.1208 3.46893 10.0962 3.01562C9.57678 3.10691 9.07258 3.2386 8.4834 3.40964C9.63396 4.15412 10.7924 5.04709 11.9078 6.06806C12.7682 5.18822 13.8275 4.42432 14.8747 3.74332L14.8753 3.7428Z" fill="url(#paint93_linear_1587_26209)"/>
<path d="M23.3586 9.06026C24.0732 7.90497 24.8103 6.47791 25.6015 4.68359C25.1797 5.02672 24.7311 5.30898 24.2631 5.53616C24.3182 5.85725 24.2794 6.20352 24.1466 6.53982C23.707 7.65051 22.8145 7.98524 21.8953 7.23446C21.5821 6.97843 21.3859 6.63741 21.3166 6.26438C20.8497 6.28746 20.3775 6.27277 19.9048 6.22398C20.9426 7.29427 22.0894 8.21871 23.3591 9.06026H23.3586Z" fill="url(#paint94_linear_1587_26209)"/>
<path d="M8.484 3.4082C7.92629 3.5698 7.43679 3.77651 6.97614 4.00421C7.01392 4.46066 6.88642 5.02624 6.59 5.54827C5.91214 6.74238 4.81404 7.25287 4.0386 6.67942C3.77785 6.48687 3.65036 6.11437 3.6661 5.67209C3.15299 5.85939 2.71962 6.01731 2.05908 6.12696C2.91164 6.91027 4.06431 7.73975 5.39798 8.48686C6.50343 6.74658 7.48663 4.93809 8.484 3.4082Z" fill="url(#paint95_linear_1587_26209)"/>
<path d="M5.16263 1.65961C6.22453 2.0893 7.35097 2.67586 8.4837 3.4088C9.41391 1.98174 10.4087 0.756152 11.4627 0.0966616C9.48054 -0.196095 7.50574 0.134961 5.16211 1.65961H5.16263Z" fill="url(#paint96_linear_1587_26209)"/>
<path d="M25.1841 1.56641C25.1841 1.56641 23.5734 2.50606 22.1133 2.91477C22.9485 3.51025 24.3971 4.25841 25.6012 4.6818C25.2171 2.94152 25.1841 1.56641 25.1841 1.56641Z" fill="url(#paint97_linear_1587_26209)"/>
<path d="M16.8623 2.47266C18.1 3.74022 19.0517 5.34356 19.9038 6.22288C20.7096 5.29897 21.4352 4.31996 22.1131 2.91494C20.6535 3.32365 18.9053 3.22816 16.8618 2.47266H16.8623Z" fill="url(#paint98_linear_1587_26209)"/>
<path d="M14.8752 3.74205C15.5179 3.3239 16.1208 2.83597 16.8621 2.47239C14.7965 1.70849 13.4802 0.393707 11.4629 0.0957031C12.5174 0.892128 13.7756 2.2982 14.8752 3.74152V3.74205Z" fill="url(#paint99_linear_1587_26209)"/>
<path d="M5.16241 1.66016C3.60996 2.67012 2.05908 2.75721 2.05908 2.75721V6.12864C3.03232 5.21364 4.35864 3.11712 5.16241 1.66016Z" fill="url(#paint100_linear_1587_26209)"/>
<path d="M18.5987 20.623C19.5871 22.0454 20.6249 23.3476 21.7807 24.4913C22.6716 23.5391 23.49 22.4625 24.2193 21.3523C22.4738 21.772 20.5131 21.7065 18.5981 20.623H18.5987Z" fill="url(#paint101_linear_1587_26209)"/>
</g>
<defs>
<linearGradient id="paint0_linear_1587_26209" x1="11.6588" y1="5.31742" x2="23.3235" y2="3.72667" gradientUnits="userSpaceOnUse">
<stop stop-color="#E30918"/>
<stop offset="0.5" stop-color="#9C1006"/>
<stop offset="1" stop-color="#E30918"/>
</linearGradient>
<linearGradient id="paint1_linear_1587_26209" x1="12.1473" y1="8.98496" x2="23.7731" y2="7.39998" gradientUnits="userSpaceOnUse">
<stop stop-color="#E30918"/>
<stop offset="0.5" stop-color="#9C1006"/>
<stop offset="1" stop-color="#E30918"/>
</linearGradient>
<linearGradient id="paint2_linear_1587_26209" x1="12.7633" y1="14.8159" x2="24.7805" y2="12.8034" gradientUnits="userSpaceOnUse">
<stop stop-color="#144391"/>
<stop offset="0.5" stop-color="#212A72"/>
<stop offset="1" stop-color="#144391"/>
</linearGradient>
<linearGradient id="paint3_linear_1587_26209" x1="12.7612" y1="12.1172" x2="24.3052" y2="10.5327" gradientUnits="userSpaceOnUse">
<stop stop-color="#3FA3DC"/>
<stop offset="0.5" stop-color="#2A78AA"/>
<stop offset="1" stop-color="#3FA3DC"/>
</linearGradient>
<linearGradient id="paint4_linear_1587_26209" x1="12.6397" y1="15.1254" x2="23.1664" y2="13.7325" gradientUnits="userSpaceOnUse">
<stop stop-color="#087BC0"/>
<stop offset="0.53" stop-color="#005D99"/>
<stop offset="1" stop-color="#087BC0"/>
</linearGradient>
<linearGradient id="paint5_linear_1587_26209" x1="11.1965" y1="11.3688" x2="23.0384" y2="9.72456" gradientUnits="userSpaceOnUse">
<stop stop-color="#F39205"/>
<stop offset="0.5" stop-color="#D67A00"/>
<stop offset="1" stop-color="#F39205"/>
</linearGradient>
<linearGradient id="paint6_linear_1587_26209" x1="12.2254" y1="9.55753" x2="23.8512" y2="7.97255" gradientUnits="userSpaceOnUse">
<stop stop-color="#E30918"/>
<stop offset="0.5" stop-color="#9C1006"/>
<stop offset="1" stop-color="#E30918"/>
</linearGradient>
<linearGradient id="paint7_linear_1587_26209" x1="12.5734" y1="12.1705" x2="24.3482" y2="10.6118" gradientUnits="userSpaceOnUse">
<stop stop-color="#087BC0"/>
<stop offset="0.5" stop-color="#005D99"/>
<stop offset="1" stop-color="#087BC0"/>
</linearGradient>
<linearGradient id="paint8_linear_1587_26209" x1="-2.83845" y1="21.3584" x2="8.95315" y2="19.6575" gradientUnits="userSpaceOnUse">
<stop stop-color="#009E4C"/>
<stop offset="0.5" stop-color="#007E38"/>
<stop offset="1" stop-color="#009E4C"/>
</linearGradient>
<linearGradient id="paint9_linear_1587_26209" x1="13.5391" y1="16.4959" x2="25.2877" y2="14.6051" gradientUnits="userSpaceOnUse">
<stop stop-color="white"/>
<stop offset="0.5" stop-color="#D0D0D0"/>
<stop offset="1" stop-color="white"/>
</linearGradient>
<linearGradient id="paint10_linear_1587_26209" x1="11.8399" y1="14.6827" x2="23.546" y2="13.0867" gradientUnits="userSpaceOnUse">
<stop stop-color="#E30918"/>
<stop offset="0.5" stop-color="#9C1006"/>
<stop offset="1" stop-color="#E30918"/>
</linearGradient>
<linearGradient id="paint11_linear_1587_26209" x1="13.1683" y1="18.804" x2="25.5312" y2="17.1676" gradientUnits="userSpaceOnUse">
<stop stop-color="#087BC0"/>
<stop offset="0.5" stop-color="#005D99"/>
<stop offset="1" stop-color="#087BC0"/>
</linearGradient>
<linearGradient id="paint12_linear_1587_26209" x1="1.26787" y1="21.5384" x2="12.9876" y2="19.9796" gradientUnits="userSpaceOnUse">
<stop stop-color="#008045"/>
<stop offset="0.5" stop-color="#006231"/>
<stop offset="1" stop-color="#008045"/>
</linearGradient>
<linearGradient id="paint13_linear_1587_26209" x1="13.0174" y1="18.9928" x2="24.9135" y2="17.4105" gradientUnits="userSpaceOnUse">
<stop stop-color="#008045"/>
<stop offset="0.45" stop-color="#006231"/>
<stop offset="1" stop-color="#008045"/>
</linearGradient>
<linearGradient id="paint14_linear_1587_26209" x1="13.7227" y1="20.8787" x2="25.5799" y2="19.3016" gradientUnits="userSpaceOnUse">
<stop stop-color="#008045"/>
<stop offset="0.5" stop-color="#006231"/>
<stop offset="1" stop-color="#008045"/>
</linearGradient>
<linearGradient id="paint15_linear_1587_26209" x1="13.6884" y1="21.2392" x2="24.2198" y2="19.7198" gradientUnits="userSpaceOnUse">
<stop stop-color="#009E4C"/>
<stop offset="0.5" stop-color="#007E38"/>
<stop offset="1" stop-color="#009E4C"/>
</linearGradient>
<linearGradient id="paint16_linear_1587_26209" x1="15.2708" y1="25.3475" x2="27.1773" y2="23.4315" gradientUnits="userSpaceOnUse">
<stop stop-color="white"/>
<stop offset="0.5" stop-color="#D0D0D0"/>
<stop offset="1" stop-color="white"/>
</linearGradient>
<linearGradient id="paint17_linear_1587_26209" x1="12.7491" y1="11.653" x2="24.2437" y2="9.80306" gradientUnits="userSpaceOnUse">
<stop stop-color="white"/>
<stop offset="0.5" stop-color="#D0D0D0"/>
<stop offset="1" stop-color="white"/>
</linearGradient>
<linearGradient id="paint18_linear_1587_26209" x1="14.5524" y1="24.8379" x2="26.8923" y2="22.8521" gradientUnits="userSpaceOnUse">
<stop stop-color="white"/>
<stop offset="0.5" stop-color="#D0D0D0"/>
<stop offset="1" stop-color="white"/>
</linearGradient>
<linearGradient id="paint19_linear_1587_26209" x1="13.7132" y1="20.6058" x2="25.7472" y2="18.6693" gradientUnits="userSpaceOnUse">
<stop stop-color="white"/>
<stop offset="0.5" stop-color="#D0D0D0"/>
<stop offset="1" stop-color="white"/>
</linearGradient>
<linearGradient id="paint20_linear_1587_26209" x1="12.9324" y1="12.8959" x2="24.5399" y2="10.9515" gradientUnits="userSpaceOnUse">
<stop stop-color="#144391"/>
<stop offset="0.34" stop-color="#1E2E77"/>
<stop offset="0.41" stop-color="#212A72"/>
<stop offset="1" stop-color="#144391"/>
</linearGradient>
<linearGradient id="paint21_linear_1587_26209" x1="10.6178" y1="17.878" x2="22.1444" y2="15.9473" gradientUnits="userSpaceOnUse">
<stop stop-color="#FFDD04"/>
<stop offset="0.5" stop-color="#CA9800"/>
<stop offset="1" stop-color="#FFDD04"/>
</linearGradient>
<linearGradient id="paint22_linear_1587_26209" x1="13.4299" y1="16.056" x2="24.8642" y2="14.1405" gradientUnits="userSpaceOnUse">
<stop stop-color="#144391"/>
<stop offset="0.5" stop-color="#212A72"/>
<stop offset="1" stop-color="#144391"/>
</linearGradient>
<linearGradient id="paint23_linear_1587_26209" x1="12.8113" y1="12.8623" x2="24.1564" y2="10.9615" gradientUnits="userSpaceOnUse">
<stop stop-color="#144391"/>
<stop offset="0.5" stop-color="#212A72"/>
<stop offset="1" stop-color="#144391"/>
</linearGradient>
<linearGradient id="paint24_linear_1587_26209" x1="11.8304" y1="6.278" x2="23.3565" y2="4.34727" gradientUnits="userSpaceOnUse">
<stop stop-color="#E30918"/>
<stop offset="0.5" stop-color="#9C1006"/>
<stop offset="1" stop-color="#E30918"/>
</linearGradient>
<linearGradient id="paint25_linear_1587_26209" x1="13.2525" y1="23.7243" x2="24.8018" y2="21.7899" gradientUnits="userSpaceOnUse">
<stop stop-color="#144391"/>
<stop offset="0.5" stop-color="#212A72"/>
<stop offset="1" stop-color="#144391"/>
</linearGradient>
<linearGradient id="paint26_linear_1587_26209" x1="13.8764" y1="18.4931" x2="25.4031" y2="16.5624" gradientUnits="userSpaceOnUse">
<stop stop-color="#144391"/>
<stop offset="0.5" stop-color="#212A72"/>
<stop offset="1" stop-color="#144391"/>
</linearGradient>
<linearGradient id="paint27_linear_1587_26209" x1="13.3371" y1="15.2719" x2="24.8632" y2="13.3412" gradientUnits="userSpaceOnUse">
<stop stop-color="#144391"/>
<stop offset="0.5" stop-color="#212A72"/>
<stop offset="1" stop-color="#144391"/>
</linearGradient>
<linearGradient id="paint28_linear_1587_26209" x1="12.9462" y1="11.4211" x2="24.8795" y2="9.42218" gradientUnits="userSpaceOnUse">
<stop stop-color="#144391"/>
<stop offset="0.5" stop-color="#212A72"/>
<stop offset="1" stop-color="#144391"/>
</linearGradient>
<linearGradient id="paint29_linear_1587_26209" x1="12.462" y1="10.0088" x2="24.8407" y2="7.93486" gradientUnits="userSpaceOnUse">
<stop stop-color="#144391"/>
<stop offset="0.5" stop-color="#212A72"/>
<stop offset="1" stop-color="#144391"/>
</linearGradient>
<linearGradient id="paint30_linear_1587_26209" x1="11.7819" y1="6.38403" x2="23.349" y2="4.62277" gradientUnits="userSpaceOnUse">
<stop stop-color="#AF1923"/>
<stop offset="0.5" stop-color="#780D0B"/>
<stop offset="1" stop-color="#AF1923"/>
</linearGradient>
<linearGradient id="paint31_linear_1587_26209" x1="11.3691" y1="17.6886" x2="22.9839" y2="15.92" gradientUnits="userSpaceOnUse">
<stop stop-color="#AF1923"/>
<stop offset="0.5" stop-color="#780D0B"/>
<stop offset="1" stop-color="#AF1923"/>
</linearGradient>
<linearGradient id="paint32_linear_1587_26209" x1="12.6002" y1="21.6218" x2="24.2958" y2="19.8406" gradientUnits="userSpaceOnUse">
<stop stop-color="#AF1923"/>
<stop offset="0.4" stop-color="#780D0B"/>
<stop offset="1" stop-color="#AF1923"/>
</linearGradient>
<linearGradient id="paint33_linear_1587_26209" x1="12.2871" y1="6.59316" x2="22.9376" y2="4.97093" gradientUnits="userSpaceOnUse">
<stop stop-color="#AF1923"/>
<stop offset="0.5" stop-color="#780D0B"/>
<stop offset="1" stop-color="#AF1923"/>
</linearGradient>
<linearGradient id="paint34_linear_1587_26209" x1="12.1203" y1="8.78272" x2="23.7083" y2="7.01831" gradientUnits="userSpaceOnUse">
<stop stop-color="#AF1923"/>
<stop offset="0.5" stop-color="#780D0B"/>
<stop offset="1" stop-color="#AF1923"/>
</linearGradient>
<linearGradient id="paint35_linear_1587_26209" x1="11.7425" y1="4.58146" x2="23.7492" y2="2.75304" gradientUnits="userSpaceOnUse">
<stop stop-color="white"/>
<stop offset="0.5" stop-color="#D0D0D0"/>
<stop offset="1" stop-color="white"/>
</linearGradient>
<linearGradient id="paint36_linear_1587_26209" x1="14.1541" y1="26.4836" x2="26.5003" y2="24.6033" gradientUnits="userSpaceOnUse">
<stop stop-color="white"/>
<stop offset="0.5" stop-color="#D0D0D0"/>
<stop offset="1" stop-color="white"/>
</linearGradient>
<linearGradient id="paint37_linear_1587_26209" x1="11.0905" y1="8.43403" x2="22.7116" y2="6.83908" gradientUnits="userSpaceOnUse">
<stop stop-color="#3FA3DC"/>
<stop offset="0.5" stop-color="#2A78AA"/>
<stop offset="1" stop-color="#3FA3DC"/>
</linearGradient>
<linearGradient id="paint38_linear_1587_26209" x1="13.8552" y1="24.2905" x2="25.3991" y2="22.7061" gradientUnits="userSpaceOnUse">
<stop stop-color="#3FA3DC"/>
<stop offset="0.5" stop-color="#2A78AA"/>
<stop offset="1" stop-color="#3FA3DC"/>
</linearGradient>
<linearGradient id="paint39_linear_1587_26209" x1="11.7419" y1="8.22534" x2="23.8032" y2="6.56954" gradientUnits="userSpaceOnUse">
<stop stop-color="#009E4C"/>
<stop offset="0.5" stop-color="#007E38"/>
<stop offset="1" stop-color="#009E4C"/>
</linearGradient>
<linearGradient id="paint40_linear_1587_26209" x1="13.6936" y1="18.9084" x2="25.2349" y2="17.3239" gradientUnits="userSpaceOnUse">
<stop stop-color="#3FA3DC"/>
<stop offset="0.5" stop-color="#2A78AA"/>
<stop offset="1" stop-color="#3FA3DC"/>
</linearGradient>
<linearGradient id="paint41_linear_1587_26209" x1="11.3084" y1="19.2127" x2="22.8933" y2="17.6917" gradientUnits="userSpaceOnUse">
<stop stop-color="#144391"/>
<stop offset="0.5" stop-color="#212A72"/>
<stop offset="1" stop-color="#144391"/>
</linearGradient>
<linearGradient id="paint42_linear_1587_26209" x1="11.4645" y1="8.62156" x2="23.4481" y2="7.04812" gradientUnits="userSpaceOnUse">
<stop stop-color="#FFDD04"/>
<stop offset="0.5" stop-color="#CA9800"/>
<stop offset="1" stop-color="#FFDD04"/>
</linearGradient>
<linearGradient id="paint43_linear_1587_26209" x1="12.046" y1="23.6987" x2="24.0338" y2="22.1242" gradientUnits="userSpaceOnUse">
<stop stop-color="#FDC301"/>
<stop offset="0.45" stop-color="#C78800"/>
<stop offset="1" stop-color="#FDC301"/>
</linearGradient>
<linearGradient id="paint44_linear_1587_26209" x1="14.1611" y1="24.8208" x2="25.9668" y2="23.2704" gradientUnits="userSpaceOnUse">
<stop stop-color="#FFDD04"/>
<stop offset="0.5" stop-color="#CA9800"/>
<stop offset="1" stop-color="#FFDD04"/>
</linearGradient>
<linearGradient id="paint45_linear_1587_26209" x1="14.7748" y1="27.0163" x2="26.2217" y2="25.5132" gradientUnits="userSpaceOnUse">
<stop stop-color="#FFDD04"/>
<stop offset="0.5" stop-color="#CA9800"/>
<stop offset="1" stop-color="#FFDD04"/>
</linearGradient>
<linearGradient id="paint46_linear_1587_26209" x1="-11.8462" y1="29.6224" x2="11.29" y2="26.5842" gradientUnits="userSpaceOnUse">
<stop stop-color="#FFDD04"/>
<stop offset="0.5" stop-color="#CA9800"/>
<stop offset="1" stop-color="#FFDD04"/>
</linearGradient>
<linearGradient id="paint47_linear_1587_26209" x1="7.02122" y1="23.9228" x2="18.8763" y2="20.2596" gradientUnits="userSpaceOnUse">
<stop stop-color="#009E4C"/>
<stop offset="0.5" stop-color="#007E38"/>
<stop offset="1" stop-color="#009E4C"/>
</linearGradient>
<linearGradient id="paint48_linear_1587_26209" x1="6.05743" y1="13.2156" x2="17.9844" y2="9.5304" gradientUnits="userSpaceOnUse">
<stop stop-color="#009E4C"/>
<stop offset="0.5" stop-color="#007E38"/>
<stop offset="1" stop-color="#009E4C"/>
</linearGradient>
<linearGradient id="paint49_linear_1587_26209" x1="11.2703" y1="2.1947" x2="23.0582" y2="0.49377" gradientUnits="userSpaceOnUse">
<stop stop-color="#009E4C"/>
<stop offset="0.5" stop-color="#007E38"/>
<stop offset="1" stop-color="#009E4C"/>
</linearGradient>
<linearGradient id="paint50_linear_1587_26209" x1="13.1069" y1="14.9974" x2="24.8261" y2="13.3064" gradientUnits="userSpaceOnUse">
<stop stop-color="#009E4C"/>
<stop offset="0.5" stop-color="#007E38"/>
<stop offset="1" stop-color="#009E4C"/>
</linearGradient>
<linearGradient id="paint51_linear_1587_26209" x1="14.571" y1="25.1291" x2="26.6821" y2="23.276" gradientUnits="userSpaceOnUse">
<stop stop-color="#FDC301"/>
<stop offset="0.45" stop-color="#C78800"/>
<stop offset="1" stop-color="#FDC301"/>
</linearGradient>
<linearGradient id="paint52_linear_1587_26209" x1="13.8171" y1="18.4441" x2="25.9912" y2="16.581" gradientUnits="userSpaceOnUse">
<stop stop-color="#FDC301"/>
<stop offset="0.5" stop-color="#C78800"/>
<stop offset="1" stop-color="#FDC301"/>
</linearGradient>
<linearGradient id="paint53_linear_1587_26209" x1="9.91006" y1="15.3339" x2="18.8591" y2="14.1592" gradientUnits="userSpaceOnUse">
<stop stop-color="#144391"/>
<stop offset="0.5" stop-color="#212A72"/>
<stop offset="1" stop-color="#144391"/>
</linearGradient>
<linearGradient id="paint54_linear_1587_26209" x1="14.8637" y1="26.91" x2="26.7047" y2="25.0983" gradientUnits="userSpaceOnUse">
<stop stop-color="#FDC301"/>
<stop offset="0.5" stop-color="#C78800"/>
<stop offset="1" stop-color="#FDC301"/>
</linearGradient>
<linearGradient id="paint55_linear_1587_26209" x1="14.7798" y1="26.3623" x2="26.6296" y2="24.5491" gradientUnits="userSpaceOnUse">
<stop stop-color="#FDC301"/>
<stop offset="0.5" stop-color="#C78800"/>
<stop offset="1" stop-color="#FDC301"/>
</linearGradient>
<linearGradient id="paint56_linear_1587_26209" x1="14.5946" y1="26.0823" x2="26.1055" y2="24.4569" gradientUnits="userSpaceOnUse">
<stop stop-color="#EA5045"/>
<stop offset="0.5" stop-color="#C53A31"/>
<stop offset="1" stop-color="#EA5045"/>
</linearGradient>
<linearGradient id="paint57_linear_1587_26209" x1="15.6412" y1="26.6639" x2="27.3048" y2="25.017" gradientUnits="userSpaceOnUse">
<stop stop-color="#E30918"/>
<stop offset="0.5" stop-color="#9C1006"/>
<stop offset="1" stop-color="#E30918"/>
</linearGradient>
<linearGradient id="paint58_linear_1587_26209" x1="13.3935" y1="17.0651" x2="24.9658" y2="15.4313" gradientUnits="userSpaceOnUse">
<stop stop-color="#EA5045"/>
<stop offset="0.5" stop-color="#C53A31"/>
<stop offset="1" stop-color="#EA5045"/>
</linearGradient>
<linearGradient id="paint59_linear_1587_26209" x1="11.5495" y1="3.80783" x2="23.9623" y2="2.05548" gradientUnits="userSpaceOnUse">
<stop stop-color="#EA5045"/>
<stop offset="0.5" stop-color="#C53A31"/>
<stop offset="1" stop-color="#EA5045"/>
</linearGradient>
<linearGradient id="paint60_linear_1587_26209" x1="14.0455" y1="21.7879" x2="25.7023" y2="20.142" gradientUnits="userSpaceOnUse">
<stop stop-color="white"/>
<stop offset="0.5" stop-color="#D0D0D0"/>
<stop offset="1" stop-color="white"/>
</linearGradient>
<linearGradient id="paint61_linear_1587_26209" x1="11.4927" y1="17.9258" x2="22.3955" y2="16.387" gradientUnits="userSpaceOnUse">
<stop stop-color="#FFDD04"/>
<stop offset="0.5" stop-color="#CA9800"/>
<stop offset="1" stop-color="#FFDD04"/>
</linearGradient>
<linearGradient id="paint62_linear_1587_26209" x1="12.8135" y1="25.2985" x2="24.5594" y2="23.744" gradientUnits="userSpaceOnUse">
<stop stop-color="#087BC0"/>
<stop offset="0.5" stop-color="#005D99"/>
<stop offset="1" stop-color="#087BC0"/>
</linearGradient>
<linearGradient id="paint63_linear_1587_26209" x1="11.7531" y1="7.85076" x2="23.8737" y2="5.65245" gradientUnits="userSpaceOnUse">
<stop stop-color="white"/>
<stop offset="0.5" stop-color="#A8A8A7"/>
<stop offset="1" stop-color="white"/>
</linearGradient>
<linearGradient id="paint64_linear_1587_26209" x1="14.1245" y1="17.4233" x2="24.3742" y2="15.5645" gradientUnits="userSpaceOnUse">
<stop stop-color="white"/>
<stop offset="0.42" stop-color="#A8A8A7"/>
<stop offset="0.85" stop-color="#E7E7E7"/>
<stop offset="1" stop-color="white"/>
</linearGradient>
<linearGradient id="paint65_linear_1587_26209" x1="32.3631" y1="8.01806" x2="21.9571" y2="10.7609" gradientUnits="userSpaceOnUse">
<stop stop-color="#D0D0D0"/>
<stop offset="0.76" stop-color="#F2F2F2"/>
<stop offset="1" stop-color="white"/>
</linearGradient>
<linearGradient id="paint66_linear_1587_26209" x1="28.1368" y1="21.568" x2="20.4071" y2="23.441" gradientUnits="userSpaceOnUse">
<stop stop-color="white"/>
<stop offset="0.24" stop-color="#F2F2F2"/>
<stop offset="1" stop-color="#D0D0D0"/>
</linearGradient>
<linearGradient id="paint67_linear_1587_26209" x1="27.2119" y1="15.5001" x2="20.4858" y2="17.8059" gradientUnits="userSpaceOnUse">
<stop stop-color="white"/>
<stop offset="0.24" stop-color="#F2F2F2"/>
<stop offset="1" stop-color="#D0D0D0"/>
</linearGradient>
<linearGradient id="paint68_linear_1587_26209" x1="10.6044" y1="11.8106" x2="22.7254" y2="9.61229" gradientUnits="userSpaceOnUse">
<stop stop-color="white"/>
<stop offset="0.5" stop-color="#A8A8A7"/>
<stop offset="1" stop-color="white"/>
</linearGradient>
<linearGradient id="paint69_linear_1587_26209" x1="11.4463" y1="10.9026" x2="23.0721" y2="9.31713" gradientUnits="userSpaceOnUse">
<stop stop-color="#E30918"/>
<stop offset="0.5" stop-color="#9C1006"/>
<stop offset="1" stop-color="#E30918"/>
</linearGradient>
<linearGradient id="paint70_linear_1587_26209" x1="13.517" y1="19.0283" x2="25.1423" y2="17.4428" gradientUnits="userSpaceOnUse">
<stop stop-color="#E30918"/>
<stop offset="0.5" stop-color="#9C1006"/>
<stop offset="1" stop-color="#E30918"/>
</linearGradient>
<linearGradient id="paint71_linear_1587_26209" x1="11.3144" y1="2.87619" x2="22.9397" y2="1.29121" gradientUnits="userSpaceOnUse">
<stop stop-color="#144391"/>
<stop offset="0.5" stop-color="#212A72"/>
<stop offset="1" stop-color="#144391"/>
</linearGradient>
<linearGradient id="paint72_linear_1587_26209" x1="11.0449" y1="13.0365" x2="22.6707" y2="11.451" gradientUnits="userSpaceOnUse">
<stop stop-color="#E30918"/>
<stop offset="0.5" stop-color="#9C1006"/>
<stop offset="1" stop-color="#E30918"/>
</linearGradient>
<linearGradient id="paint73_linear_1587_26209" x1="11.6399" y1="5.27641" x2="23.271" y2="3.69038" gradientUnits="userSpaceOnUse">
<stop stop-color="#E30918"/>
<stop offset="0.5" stop-color="#9C1006"/>
<stop offset="1" stop-color="#E30918"/>
</linearGradient>
<linearGradient id="paint74_linear_1587_26209" x1="13.7699" y1="20.8869" x2="25.3957" y2="19.3014" gradientUnits="userSpaceOnUse">
<stop stop-color="#E30918"/>
<stop offset="0.5" stop-color="#9C1006"/>
<stop offset="1" stop-color="#E30918"/>
</linearGradient>
<linearGradient id="paint75_linear_1587_26209" x1="11.3789" y1="6.57183" x2="23.9076" y2="4.86356" gradientUnits="userSpaceOnUse">
<stop stop-color="#E30918"/>
<stop offset="0.5" stop-color="#9C1006"/>
<stop offset="1" stop-color="#E30918"/>
</linearGradient>
<linearGradient id="paint76_linear_1587_26209" x1="14.0725" y1="23.7602" x2="25.914" y2="22.1453" gradientUnits="userSpaceOnUse">
<stop stop-color="#E30918"/>
<stop offset="0.5" stop-color="#9C1006"/>
<stop offset="1" stop-color="#E30918"/>
</linearGradient>
<linearGradient id="paint77_linear_1587_26209" x1="12.6487" y1="12.8499" x2="24.2745" y2="11.2649" gradientUnits="userSpaceOnUse">
<stop stop-color="#E30918"/>
<stop offset="0.5" stop-color="#9C1006"/>
<stop offset="1" stop-color="#E30918"/>
</linearGradient>
<linearGradient id="paint78_linear_1587_26209" x1="1.98874" y1="24.6877" x2="9.05688" y2="23.0697" gradientUnits="userSpaceOnUse">
<stop stop-color="white"/>
<stop offset="0.24" stop-color="#F2F2F2"/>
<stop offset="1" stop-color="#D0D0D0"/>
</linearGradient>
<linearGradient id="paint79_linear_1587_26209" x1="-1.49706" y1="11.876" x2="4.84811" y2="10.4237" gradientUnits="userSpaceOnUse">
<stop stop-color="#D0D0D0"/>
<stop offset="0.76" stop-color="#F2F2F2"/>
<stop offset="1" stop-color="white"/>
</linearGradient>
<linearGradient id="paint80_linear_1587_26209" x1="1.32768" y1="18.0854" x2="9.05951" y2="16.4186" gradientUnits="userSpaceOnUse">
<stop stop-color="white"/>
<stop offset="1" stop-color="#D0D0D0"/>
</linearGradient>
<linearGradient id="paint81_linear_1587_26209" x1="2.29923" y1="24.5389" x2="9.53473" y2="22.2928" gradientUnits="userSpaceOnUse">
<stop stop-color="#D0D0D0"/>
<stop offset="0.32" stop-color="#DADADA"/>
<stop offset="0.87" stop-color="#F7F7F7"/>
<stop offset="1" stop-color="white"/>
</linearGradient>
<linearGradient id="paint82_linear_1587_26209" x1="0.329152" y1="18.0085" x2="7.52583" y2="15.775" gradientUnits="userSpaceOnUse">
<stop stop-color="#D0D0D0"/>
<stop offset="0.32" stop-color="#DADADA"/>
<stop offset="0.87" stop-color="#F7F7F7"/>
<stop offset="1" stop-color="white"/>
</linearGradient>
<linearGradient id="paint83_linear_1587_26209" x1="12.2959" y1="14.6037" x2="23.9181" y2="13.0287" gradientUnits="userSpaceOnUse">
<stop stop-color="white"/>
<stop offset="0.49" stop-color="#A8A8A7"/>
<stop offset="1" stop-color="#D0D0D0"/>
</linearGradient>
<linearGradient id="paint84_linear_1587_26209" x1="11.7539" y1="8.33765" x2="23.3755" y2="6.76263" gradientUnits="userSpaceOnUse">
<stop stop-color="white"/>
<stop offset="0.09" stop-color="#ECECEC"/>
<stop offset="0.36" stop-color="#BBBBBA"/>
<stop offset="0.49" stop-color="#A8A8A7"/>
<stop offset="1" stop-color="#D0D0D0"/>
</linearGradient>
<linearGradient id="paint85_linear_1587_26209" x1="13.6134" y1="21.0011" x2="24.4758" y2="19.5289" gradientUnits="userSpaceOnUse">
<stop stop-color="white"/>
<stop offset="0.46" stop-color="#A8A8A7"/>
<stop offset="1" stop-color="#D0D0D0"/>
</linearGradient>
<linearGradient id="paint86_linear_1587_26209" x1="14.8088" y1="24.1277" x2="26.4115" y2="22.1844" gradientUnits="userSpaceOnUse">
<stop stop-color="#144391"/>
<stop offset="0.5" stop-color="#212A72"/>
<stop offset="1" stop-color="#144391"/>
</linearGradient>
<linearGradient id="paint87_linear_1587_26209" x1="12.4845" y1="10.0134" x2="23.9791" y2="8.16404" gradientUnits="userSpaceOnUse">
<stop stop-color="white"/>
<stop offset="0.5" stop-color="#D0D0D0"/>
<stop offset="1" stop-color="white"/>
</linearGradient>
<linearGradient id="paint88_linear_1587_26209" x1="11.9818" y1="6.89052" x2="23.4765" y2="5.04059" gradientUnits="userSpaceOnUse">
<stop stop-color="white"/>
<stop offset="0.5" stop-color="#D0D0D0"/>
<stop offset="1" stop-color="white"/>
</linearGradient>
<linearGradient id="paint89_linear_1587_26209" x1="11.1783" y1="2.43013" x2="22.9158" y2="0.464248" gradientUnits="userSpaceOnUse">
<stop stop-color="#144391"/>
<stop offset="0.5" stop-color="#212A72"/>
<stop offset="1" stop-color="#144391"/>
</linearGradient>
<linearGradient id="paint90_linear_1587_26209" x1="11.7219" y1="5.41216" x2="23.5082" y2="3.86443" gradientUnits="userSpaceOnUse">
<stop stop-color="#FFDD04"/>
<stop offset="0.5" stop-color="#CA9800"/>
<stop offset="1" stop-color="#FFDD04"/>
</linearGradient>
<linearGradient id="paint91_linear_1587_26209" x1="11.2609" y1="3.36807" x2="23.1018" y2="1.55644" gradientUnits="userSpaceOnUse">
<stop stop-color="#FDC301"/>
<stop offset="0.5" stop-color="#C78800"/>
<stop offset="1" stop-color="#FDC301"/>
</linearGradient>
<linearGradient id="paint92_linear_1587_26209" x1="11.9049" y1="6.72537" x2="23.4315" y2="4.79464" gradientUnits="userSpaceOnUse">
<stop stop-color="#144391"/>
<stop offset="0.5" stop-color="#212A72"/>
<stop offset="1" stop-color="#144391"/>
</linearGradient>
<linearGradient id="paint93_linear_1587_26209" x1="11.0044" y1="4.54132" x2="22.5892" y2="3.01982" gradientUnits="userSpaceOnUse">
<stop stop-color="#FFDD04"/>
<stop offset="0.5" stop-color="#CA9800"/>
<stop offset="1" stop-color="#FFDD04"/>
</linearGradient>
<linearGradient id="paint94_linear_1587_26209" x1="12.0874" y1="8.76855" x2="23.9284" y2="6.95639" gradientUnits="userSpaceOnUse">
<stop stop-color="#FDC301"/>
<stop offset="0.5" stop-color="#C78800"/>
<stop offset="1" stop-color="#FDC301"/>
</linearGradient>
<linearGradient id="paint95_linear_1587_26209" x1="11.6314" y1="5.32686" x2="23.2777" y2="3.78543" gradientUnits="userSpaceOnUse">
<stop stop-color="#009E4C"/>
<stop offset="0.5" stop-color="#007E38"/>
<stop offset="1" stop-color="#009E4C"/>
</linearGradient>
<linearGradient id="paint96_linear_1587_26209" x1="6.10911" y1="2.22623" x2="20.6394" y2="-0.409105" gradientUnits="userSpaceOnUse">
<stop stop-color="white"/>
<stop offset="0.2" stop-color="#F3F3F3"/>
<stop offset="0.57" stop-color="#D3D3D3"/>
<stop offset="1" stop-color="#A8A8A7"/>
</linearGradient>
<linearGradient id="paint97_linear_1587_26209" x1="24.9873" y1="3.28255" x2="16.8972" y2="6.97297" gradientUnits="userSpaceOnUse">
<stop stop-color="white"/>
<stop offset="0.53" stop-color="#E3E3E3"/>
<stop offset="1" stop-color="#D0D0D0"/>
</linearGradient>
<linearGradient id="paint98_linear_1587_26209" x1="9.53817" y1="5.95164" x2="22.4578" y2="3.60853" gradientUnits="userSpaceOnUse">
<stop stop-color="white"/>
<stop offset="0.41" stop-color="#A8A8A7"/>
<stop offset="0.56" stop-color="#BABAB9"/>
<stop offset="0.87" stop-color="#E9E9E9"/>
<stop offset="1" stop-color="white"/>
</linearGradient>
<linearGradient id="paint99_linear_1587_26209" x1="10.5872" y1="2.38739" x2="23.4943" y2="0.0463856" gradientUnits="userSpaceOnUse">
<stop stop-color="white"/>
<stop offset="0.17" stop-color="#E0E0E0"/>
<stop offset="0.42" stop-color="#B7B7B6"/>
<stop offset="0.54" stop-color="#A8A8A7"/>
<stop offset="1" stop-color="white"/>
</linearGradient>
<linearGradient id="paint100_linear_1587_26209" x1="1.48144" y1="4.57199" x2="8.85965" y2="2.22416" gradientUnits="userSpaceOnUse">
<stop stop-color="white"/>
<stop offset="1" stop-color="#D0D0D0"/>
</linearGradient>
<linearGradient id="paint101_linear_1587_26209" x1="14.1333" y1="23.378" x2="25.755" y2="21.803" gradientUnits="userSpaceOnUse">
<stop stop-color="white"/>
<stop offset="0.46" stop-color="#A8A8A7"/>
<stop offset="1" stop-color="#D0D0D0"/>
</linearGradient>
<clipPath id="clip0_1587_26209">
<rect width="31.74" height="49.6186" fill="white" transform="translate(-0.000488281)"/>
</clipPath>
</defs>
</svg>
