<svg width="46" height="21" viewBox="0 0 46 21" fill="none" xmlns="http://www.w3.org/2000/svg">
<path d="M15.5905 9.68868V13.7767H16.7282V11.7783H17.7277C18.2193 11.7783 18.6176 11.3795 18.6176 10.8884V10.7542H16.7282V10.2676C16.7282 10.022 16.9273 9.82236 17.1734 9.82236H19.0326V8.79825H16.481C15.9893 8.79825 15.5911 9.19704 15.5911 9.68868H15.5905ZM7.43958 8.6875C5.97584 8.6875 5.03115 9.6747 5.03115 11.2878C5.03115 12.9009 5.97584 13.8881 7.43958 13.8881C8.90332 13.8881 9.84801 12.9003 9.84801 11.2878C9.84801 9.67526 8.90276 8.6875 7.43958 8.6875ZM7.43958 12.8651C6.72924 12.8651 6.16769 12.3538 6.16769 11.2878C6.16769 10.2217 6.72868 9.7105 7.43958 9.7105C8.15047 9.7105 8.71147 10.2217 8.71147 11.2878C8.71147 12.3538 8.15047 12.8651 7.43958 12.8651ZM13.5473 11.8958L11.9611 9.30891C11.767 8.99233 11.4219 8.7988 11.0505 8.7988H10.418V13.7773H11.5556V10.6804L13.1939 13.3528C13.3555 13.6168 13.643 13.7779 13.9529 13.7779H14.685V8.79936H13.5473V11.8963V11.8958ZM35.5141 11.8958L33.9278 9.30891C33.7337 8.99233 33.3886 8.7988 33.0173 8.7988H32.3847V13.7773H33.5223V10.6804L35.1606 13.3528C35.3222 13.6168 35.6097 13.7779 35.9196 13.7779H36.6517V8.79936H35.5141V11.8963V11.8958ZM2.42919 9.72504C2.82911 9.72504 3.12946 9.89339 3.31124 10.215C3.43205 10.4287 3.67592 10.5411 3.91642 10.4935L4.60327 10.3576C4.39744 9.29213 3.58027 8.68806 2.43647 8.68806C1.03705 8.68806 -0.000488281 9.67582 -0.000488281 11.2883C-0.000488281 12.9009 1.02251 13.8886 2.40794 13.8886C3.55175 13.8886 4.36891 13.2208 4.60327 12.1128L4.17819 12.0294C3.83085 11.9612 3.47177 12.1021 3.27545 12.3963C3.09255 12.6704 2.80618 12.8516 2.40794 12.8516C1.69033 12.8516 1.15003 12.2906 1.15003 11.2889C1.15003 10.2872 1.7183 9.72616 2.42864 9.72616L2.42919 9.72504ZM39.7078 9.72504C40.1077 9.72504 40.4081 9.89339 40.5899 10.215C40.7107 10.4287 40.9546 10.5411 41.1951 10.4935L41.8819 10.3576C41.6761 9.29213 40.8589 8.68806 39.7151 8.68806C38.3157 8.68806 37.2781 9.67582 37.2781 11.2883C37.2781 12.9009 38.3011 13.8886 39.6866 13.8886C40.8304 13.8886 41.6475 13.2208 41.8819 12.1128L41.4568 12.0294C41.1095 11.9612 40.7504 12.1021 40.5541 12.3963C40.3712 12.6704 40.0848 12.8516 39.6866 12.8516C38.969 12.8516 38.4287 12.2906 38.4287 11.2889C38.4287 10.2872 38.9969 9.72616 39.7073 9.72616L39.7078 9.72504ZM26.4922 12.2425C26.9369 12.0434 27.593 11.6032 27.593 10.5914C27.593 9.88445 27.2775 9.45712 27.013 9.22333C26.7076 8.95318 26.3065 8.79825 25.9122 8.79825H23.5608V13.7767H24.6985V9.918H25.8361C25.8361 9.918 25.9173 9.91633 25.9698 9.92639C26.1158 9.95324 26.4357 10.0696 26.4357 10.5674C26.4357 10.9293 26.2954 11.0831 25.8093 11.252C25.4972 11.361 25.274 11.634 25.2237 11.9836C25.1851 12.2532 25.2668 12.5261 25.4295 12.7442L26.1964 13.7767H27.6165L26.4883 12.2576C26.4844 12.252 26.4861 12.2448 26.4922 12.242V12.2425ZM20.4566 11.8214V11.7789H21.6854C22.1771 11.7789 22.5753 11.3801 22.5753 10.889V10.7547H20.4561C20.4561 10.2402 20.8733 9.82292 21.3879 9.82292H22.7605V8.7988H21.2503C20.1831 8.7988 19.3184 9.66351 19.3184 10.7307V11.8454C19.3184 12.9126 20.1831 13.7773 21.2503 13.7773H22.8175V12.7532H21.3879C20.8733 12.7532 20.4561 12.3359 20.4561 11.8214H20.4566ZM29.2346 11.8214V11.7789H30.4634C30.955 11.7789 31.3533 11.3801 31.3533 10.889V10.7547H29.234C29.234 10.2402 29.6513 9.82292 30.1658 9.82292H31.5384V8.7988H30.0282C28.9611 8.7988 28.0964 9.66351 28.0964 10.7307V11.8454C28.0964 12.9126 28.9611 13.7773 30.0282 13.7773H31.5955V12.7532H30.1658C29.6513 12.7532 29.234 12.3359 29.234 11.8214H29.2346ZM44.3899 12.7526C43.8753 12.7526 43.4581 12.3354 43.4581 11.8208V11.7783H44.6869C45.1785 11.7783 45.5768 11.3795 45.5768 10.8884V10.7542H43.4575C43.4575 10.2396 43.8748 9.82236 44.3893 9.82236H45.7619V8.79825H44.2517C43.1846 8.79825 42.3199 9.66295 42.3199 10.7301V11.8449C42.3199 12.912 43.1846 13.7767 44.2517 13.7767H45.819V12.7526H44.3893H44.3899Z" fill="white"/>
<path d="M18.1652 5.15245C18.031 5.26152 17.8749 5.31465 17.7368 5.29843C17.5622 5.2783 17.456 5.2067 17.282 4.99248L16.2808 3.76142L15.7411 4.20049L16.8318 5.5423C17.0639 5.82643 17.3279 5.97856 17.6394 6.00709C17.6763 6.01045 17.7127 6.01268 17.7485 6.01268C18.0505 6.01548 18.3308 5.90865 18.6026 5.68884C18.9052 5.44162 19.0713 5.15469 19.1104 4.81126C19.1462 4.50028 19.0512 4.21056 18.8202 3.92586L17.73 2.58461L17.1903 3.02368L18.1909 4.2553C18.3654 4.46952 18.4135 4.5881 18.3973 4.76316C18.385 4.90132 18.3011 5.04338 18.1658 5.15301L18.1652 5.15245ZM22.9412 5.41757C24.8351 5.41757 26.5807 6.2957 27.6071 7.57262L27.9656 7.1302C26.8358 5.77889 24.9833 4.86552 22.9412 4.86552C20.8991 4.86552 19.0472 5.77889 17.9169 7.1302L18.2754 7.57262C19.3017 6.2957 21.0474 5.41757 22.9412 5.41757ZM15.7719 3.21385C17.7362 1.51799 20.2822 0.584489 22.9412 0.584489C25.6002 0.584489 28.1462 1.51855 30.1106 3.21385C30.3147 3.39003 30.5099 3.57349 30.6967 3.76254L31.067 3.30558C30.8836 3.12156 30.6917 2.94314 30.4926 2.77143C28.422 0.983844 25.7406 0 22.9412 0C20.1418 0 17.4605 0.984403 15.3899 2.77143C15.1907 2.94314 14.9994 3.12156 14.8154 3.30558L15.1851 3.76254C15.372 3.57349 15.5672 3.39003 15.7713 3.21385H15.7719ZM29.2688 3.70773C29.3018 3.60761 29.3253 3.45995 29.1575 3.33075L29.0512 3.24909C28.8851 3.121 28.7537 3.17581 28.658 3.23846L26.1685 4.8493L26.819 5.21733L28.4058 4.19098L28.1323 5.1133L27.8912 4.93208L27.4756 5.23019L27.9919 5.61613L27.8716 6.03058L28.4416 6.55243L29.2677 3.70885L29.2688 3.70773ZM21.8578 1.27413L20.1088 1.6293C20.0288 1.64552 19.9656 1.68579 19.9265 1.74508C19.8868 1.80492 19.8745 1.87819 19.8907 1.95818L20.2391 3.67585C20.2956 3.95495 20.4209 4.1563 20.6117 4.27376C20.7375 4.3515 20.8885 4.3901 21.0625 4.3901C21.1508 4.3901 21.2459 4.38003 21.346 4.35934L22.439 4.13729L22.3075 3.48903L21.2442 3.70493C21.0267 3.74912 20.9556 3.72507 20.9064 3.48064L20.8689 3.29607L22.0989 3.04661L21.9686 2.40563L20.7386 2.65509L20.6452 2.19533L21.9893 1.92238L21.8578 1.27413ZM25.259 2.21099L26.3072 2.48282L26.4728 1.84352L25.395 1.56442C24.8043 1.41116 24.3999 1.63265 24.2562 2.18694L23.816 3.88559C23.7953 3.96446 23.8037 4.03829 23.84 4.09981C23.8764 4.16134 23.9368 4.2044 24.0157 4.2251L24.4156 4.32857L24.6992 3.23007L25.9123 3.54441L26.0762 2.91238L24.863 2.59804L24.91 2.41626C24.9727 2.17519 25.0443 2.15506 25.259 2.21099Z" fill="white"/>
<path d="M36.1636 15.6861H36.427V16.4071H36.5758V15.6861H36.8392V15.5508H36.1636V15.6861Z" fill="white"/>
<path d="M37.6208 15.5508L37.3596 16.2354L37.099 15.5508H36.9385V16.4071H37.0889V15.8936L37.2853 16.4071H37.434L37.6304 15.8936V16.4071H37.7814V15.5508H37.6208Z" fill="white"/>
<path d="M14.9393 18.3633V18.3235H16.082C16.539 18.3235 16.9098 17.9527 16.9098 17.4957V17.371H14.9393C14.9393 16.8928 15.3275 16.5046 15.8057 16.5046H17.0821V15.5521H15.6776C14.6854 15.5521 13.8811 16.3564 13.8811 17.3486V18.3851C13.8811 19.3773 14.6854 20.1816 15.6776 20.1816H17.1352V19.2291H15.8057C15.3275 19.2291 14.9393 18.8415 14.9393 18.3627V18.3633ZM34.1368 19.2296C33.6586 19.2296 33.2704 18.842 33.2704 18.3633V18.3235H34.4131C34.8701 18.3235 35.2409 17.9527 35.2409 17.4957V17.371H33.2704C33.2704 16.8928 33.6586 16.5046 34.1368 16.5046H35.4132V15.5521H34.0087C33.0165 15.5521 32.2122 16.3564 32.2122 17.3486V18.3851C32.2122 19.3773 33.0165 20.1816 34.0087 20.1816H35.4663V19.2291H34.1368V19.2296ZM11.4738 18.9321V15.5521H10.4155V19.3488C10.4155 19.8085 10.7886 20.1816 11.2484 20.1816H13.5869V19.2291H11.7708C11.6069 19.2291 11.4738 19.096 11.4738 18.9321ZM30.4627 18.3358C30.4627 18.9578 30.1455 19.3409 29.5633 19.3409C28.981 19.3409 28.6639 18.9572 28.6639 18.3358V15.5527H27.6056V18.3951C27.6056 19.6849 28.4983 20.2929 29.5633 20.2929C30.6282 20.2929 31.5209 19.6849 31.5209 18.3951V15.5527H30.4627V18.3358ZM26.5524 17.7016H24.5579V17.8711C24.5579 18.2385 24.8555 18.5361 25.2229 18.5361H26.001V18.6222C26.001 18.8051 25.9115 18.9763 25.761 19.0797C25.5406 19.2308 25.2582 19.3309 24.9321 19.3309C24.1239 19.3309 23.5159 18.8566 23.5159 17.875C23.5159 16.8934 24.1776 16.4185 24.8118 16.4185C25.393 16.4185 25.7672 16.6993 25.9204 17.22L26.9423 16.9196C26.7018 16.0449 26.0205 15.457 24.8247 15.457C23.5422 15.457 22.447 16.3788 22.447 17.875C22.447 19.3711 23.5293 20.2923 24.8381 20.2923C25.4651 20.2923 25.9445 20.1397 26.341 19.8745C26.7572 19.596 26.996 19.1189 26.996 18.6183V18.1446C26.996 17.8996 26.7974 17.701 26.5524 17.701V17.7016ZM19.363 15.5521L17.4848 20.1816H18.6817L19.9251 16.9275L20.5616 18.5926H19.6079C19.6079 19.1183 20.0341 19.5451 20.5605 19.5451H20.9257L21.169 20.1816H22.3659L20.4877 15.5521H19.3635H19.363Z" fill="white"/>
</svg>
