<svg width="28" height="33" viewBox="0 0 28 33" fill="none" xmlns="http://www.w3.org/2000/svg">
<path d="M12.4912 22.2833L10.7855 22.6295C10.7075 22.6457 10.6458 22.6841 10.6073 22.7429C10.5689 22.8006 10.5567 22.8724 10.5729 22.9504L10.913 24.6257C10.9687 24.898 11.0902 25.0944 11.2765 25.2088C11.3989 25.2847 11.5467 25.3222 11.7158 25.3222C11.8018 25.3222 11.895 25.3121 11.9922 25.2918L13.0581 25.0752L12.9295 24.4425L11.8919 24.6531C11.6794 24.6966 11.6105 24.6723 11.5619 24.4344L11.5255 24.2542L12.7251 24.0103L12.5985 23.3847L11.3989 23.6286L11.3078 23.1802L12.6188 22.9139L12.4902 22.2812L12.4912 22.2833Z" fill="white"/>
<path d="M20.5413 24.1761C20.7407 24.3482 20.931 24.5264 21.1132 24.7116L21.4746 24.2662C21.2954 24.087 21.1092 23.9129 20.9148 23.7449C18.8953 22.0017 16.2795 21.041 13.5493 21.041C10.8191 21.041 8.20336 22.0007 6.18383 23.7449C5.98946 23.9129 5.8032 24.087 5.62402 24.2662L5.98541 24.7116C6.16763 24.5274 6.35794 24.3482 6.55736 24.1761C8.47365 22.522 10.9568 21.6109 13.5503 21.6109C16.1438 21.6109 18.627 22.522 20.5433 24.1761H20.5413Z" fill="white"/>
<path d="M15.8086 23.1981L16.831 23.4633L16.993 22.8397L15.9422 22.5674C15.3662 22.4186 14.9714 22.6342 14.8317 23.1748L14.4025 24.8319C14.3822 24.9088 14.3903 24.9807 14.4258 25.0404C14.4612 25.1002 14.5199 25.1427 14.5969 25.1629L14.9876 25.2642L15.264 24.1932L16.4473 24.4999L16.6073 23.8834L15.4239 23.5767L15.4695 23.3995C15.5302 23.1647 15.6 23.1454 15.8096 23.1991L15.8086 23.1981Z" fill="white"/>
<path d="M18.9142 27.4314L19.72 24.6577C19.7524 24.5605 19.7757 24.4157 19.6117 24.2902L19.5085 24.2102C19.3465 24.0857 19.2179 24.1394 19.1248 24.2001L16.6963 25.7712L17.331 26.1306L18.8788 25.1294L18.6126 26.0293L18.3777 25.8532L17.9718 26.1437L18.4759 26.5203L18.3585 26.9242L18.9142 27.4334V27.4314Z" fill="white"/>
<path d="M13.548 25.7871C11.5568 25.7871 9.74986 26.6779 8.64746 27.9959L8.9967 28.4272C9.99787 27.1821 11.7006 26.3246 13.548 26.3246C15.3955 26.3246 17.0981 27.181 18.0993 28.4272L18.4485 27.9959C17.3462 26.6779 15.5392 25.7871 13.548 25.7871Z" fill="white"/>
<path d="M9.81184 25.7339C9.84626 25.4302 9.75414 25.1478 9.5284 24.8704L8.46447 23.5625L7.93807 23.9907L8.91393 25.1923C9.084 25.4008 9.13158 25.5162 9.11538 25.6873C9.10323 25.822 9.02123 25.9606 8.88964 26.0679C8.75905 26.1742 8.60619 26.2269 8.47156 26.2107C8.30149 26.1914 8.19823 26.1216 8.02817 25.912L7.0513 24.7115L6.5249 25.1397L7.58883 26.4486C7.81457 26.7259 8.07271 26.8737 8.3764 26.9021C8.41183 26.9051 8.44726 26.9071 8.48269 26.9071C8.77727 26.9102 9.05059 26.8059 9.31581 26.5913C9.61141 26.3504 9.77337 26.07 9.81083 25.7349L9.81184 25.7339Z" fill="white"/>
<path d="M8.1395 30.0359C8.45534 30.0359 8.68816 30.1645 8.82786 30.2718C8.88961 30.3204 8.95642 30.3457 9.02222 30.3457C9.17609 30.3457 9.27935 30.2091 9.27935 30.0825C9.27935 30.0066 9.24291 29.9297 9.18014 29.874C8.98173 29.709 8.58997 29.5156 8.1395 29.5156C7.21932 29.5156 6.47021 30.2506 6.47021 31.1535C6.47021 32.0565 7.21932 32.7914 8.1395 32.7914C9.05968 32.7914 9.80271 32.0565 9.80271 31.1535C9.80271 30.9035 9.74399 30.6585 9.62758 30.4257L9.60632 30.3822L9.11434 30.62L9.13661 30.6646C9.20747 30.8063 9.24493 30.9754 9.24493 31.1535C9.24493 31.7801 8.76004 32.2711 8.14051 32.2711C7.52098 32.2711 7.029 31.7801 7.029 31.1535C7.029 30.5269 7.51693 30.0359 8.14051 30.0359H8.1395Z" fill="white"/>
<path d="M14.357 32.7608C14.5078 32.7608 14.6273 32.6454 14.6273 32.4976V30.7514C14.6273 30.0741 14.0766 29.5234 13.3994 29.5234C13.0309 29.5234 12.6715 29.7026 12.4468 29.9942C12.214 29.6986 11.8607 29.5234 11.4892 29.5234C10.8119 29.5234 10.2612 30.0741 10.2612 30.7514V32.7304H10.8008V30.7514C10.8008 30.3606 11.1095 30.0438 11.4892 30.0438C11.8688 30.0438 12.1775 30.3677 12.1775 30.7514L12.1714 32.038C12.1714 32.1858 12.2899 32.3012 12.4407 32.3012C12.5915 32.3012 12.711 32.1858 12.711 32.038V30.7514C12.711 30.3606 13.0197 30.0438 13.3994 30.0438C13.779 30.0438 14.0877 30.3677 14.0877 30.7514V32.4976C14.0877 32.6454 14.2062 32.7608 14.357 32.7608Z" fill="white"/>
<path d="M16.7518 29.5216C15.8316 29.5216 15.0825 30.2535 15.0825 31.1534C15.0825 32.0533 15.8316 32.7913 16.7518 32.7913C17.2944 32.7913 17.8005 32.5048 18.1052 32.024L18.1316 31.9825L17.6669 31.6879L17.6416 31.7344C17.4695 32.0594 17.1203 32.27 16.7518 32.27C16.1394 32.27 15.6403 31.7689 15.6403 31.1524C15.6403 30.5359 16.1383 30.0409 16.7518 30.0409C17.2397 30.0409 17.6507 30.3861 17.7692 30.8882H16.7194C16.5767 30.8882 16.4684 30.9985 16.4684 31.1453C16.4684 31.2921 16.5787 31.3963 16.7194 31.3963H18.3573V31.1514C18.3573 30.2514 17.6366 29.5195 16.7508 29.5195L16.7518 29.5216Z" fill="white"/>
<path d="M23.0041 28.3926C22.9029 28.3926 22.8148 28.4553 22.7693 28.5616L22.2378 29.8715H22.7915L23.245 28.756C23.2582 28.7226 23.2673 28.678 23.2673 28.6436C23.2673 28.5029 23.1519 28.3926 23.0041 28.3926Z" fill="white"/>
<path d="M4.95853 31.9042L4.24182 30.323C4.19728 30.2339 4.10617 30.1762 4.00899 30.1762C3.91181 30.1762 3.82172 30.2258 3.78122 30.3068L3.0716 31.9042L2.11903 29.584H1.51367L2.84181 32.6533C2.87319 32.7312 2.97138 32.791 3.06958 32.791C3.15562 32.791 3.26394 32.7474 3.29734 32.6543L4.00292 31.0235L4.72064 32.6553C4.75303 32.7282 4.85629 32.792 4.94233 32.792C5.04559 32.792 5.13163 32.7413 5.1701 32.6553L6.49824 29.585H5.89187L4.95752 31.9052L4.95853 31.9042Z" fill="white"/>
<path d="M24.355 30.0236C24.7134 30.0236 24.9229 30.137 25.015 30.2038C25.0575 30.2352 25.1112 30.2534 25.1628 30.2534C25.3015 30.2534 25.4139 30.144 25.4139 30.0084C25.4139 29.9234 25.3764 29.8485 25.3126 29.8029C25.1061 29.6551 24.8774 29.5215 24.355 29.5215C23.6434 29.5215 23.1271 29.9183 23.1271 30.466C23.1271 31.0136 23.5401 31.4044 24.1789 31.4044H24.5413C24.765 31.4044 25.0312 31.4772 25.0312 31.8224C25.0312 32.0978 24.7579 32.2901 24.3682 32.2901C24.0048 32.2901 23.7031 32.1889 23.447 31.9793L23.4115 31.95L23.0542 32.3306L23.0947 32.364C23.4338 32.6394 23.8863 32.7912 24.3682 32.7912C25.095 32.7912 25.5839 32.4015 25.5839 31.8214C25.5839 31.2718 25.1648 30.9023 24.5413 30.9023H24.1789C23.8661 30.9023 23.6798 30.7393 23.6798 30.466C23.6798 30.1926 23.9511 30.0236 24.356 30.0236H24.355Z" fill="white"/>
<path d="M21.451 31.0966V32.0107C21.451 32.1575 21.5745 32.281 21.7213 32.281C21.868 32.281 21.9905 32.1575 21.9905 32.0107V31.0966C21.9905 30.1694 21.3275 29.5215 20.3779 29.5215C19.4871 29.5215 18.8149 30.2017 18.8149 31.1027V32.7285H19.3545V31.1027C19.3545 30.468 19.7807 30.0418 20.4154 30.0418C20.9964 30.0418 21.451 30.5054 21.451 31.0966Z" fill="white"/>
<path d="M0.969578 11.8186C1.62352 13.7187 2.92838 16.216 2.92838 16.216L2.18434 13.1893C2.17118 13.1346 2.19952 13.0779 2.25115 13.0566L2.95773 12.759C3.43554 13.581 4.25247 14.4111 4.80417 15.1339C4.82138 15.1562 4.82948 15.1835 4.82745 15.2108C4.76975 16.0237 4.71205 16.8457 4.69687 17.6788C5.17062 17.3711 5.6049 17.121 6.10396 16.8457C6.15053 16.8194 6.20924 16.8305 6.24569 16.87C7.01098 17.7355 7.80665 18.5109 8.63168 19.3278C8.23789 18.2771 7.8846 17.3579 7.47361 16.3183C7.45235 16.2636 7.47563 16.2009 7.52827 16.1735C8.14678 15.8567 8.72987 15.5641 9.35851 15.2503C10.1005 15.8223 11.3912 16.7546 11.6979 16.9763C11.7384 17.0046 11.7546 17.0562 11.7404 17.1028L10.8689 19.914L13.4867 18.2234C13.5241 18.1991 13.5737 18.1991 13.6112 18.2234L16.227 19.914L15.3554 17.1028C15.3412 17.0562 15.3574 17.0046 15.3979 16.9763C15.7046 16.7546 16.9953 15.8233 17.7373 15.2503C18.3649 15.5651 18.948 15.8577 19.5676 16.1735C19.6202 16.2009 19.6435 16.2636 19.6222 16.3183C19.2122 17.3589 18.8579 18.2781 18.4641 19.3278C19.2892 18.5099 20.0848 17.7345 20.8501 16.87C20.8856 16.8295 20.9443 16.8194 20.9919 16.8457C21.4909 17.121 21.9262 17.3711 22.399 17.6788C22.3838 16.8467 22.3261 16.0247 22.2684 15.2108C22.2663 15.1835 22.2744 15.1551 22.2917 15.1339C22.8423 14.4101 23.6603 13.58 24.1381 12.758L24.8467 13.0566C24.8983 13.0789 24.9267 13.1346 24.9135 13.1893L24.1695 16.216C24.1695 16.216 25.4743 13.7187 26.1283 11.8186C27.2469 8.57013 27.091 7.77042 27.092 7.71575C27.092 7.71474 27.09 7.71373 27.09 7.71575C27.0667 7.77953 26.8602 8.34135 26.5453 9.05502C26.5423 8.6825 26.4714 7.87165 26.0027 6.75508C25.9987 6.74496 25.9987 6.73483 26.0007 6.7237C26.186 5.88248 26.4269 4.2223 26.4269 4.2223C26.4269 4.2223 25.7223 5.16779 25.2901 5.65977C25.2678 5.68508 25.2293 5.68609 25.2061 5.66179C24.8862 5.32672 24.3861 4.93699 24.0045 4.62925C23.5884 4.29418 22.9638 3.93886 22.5052 3.69591C22.487 3.6868 22.4759 3.66858 22.4749 3.64833C22.4374 2.88506 22.4 2.12077 22.3635 1.35749C22.0143 1.94058 21.6559 2.5186 21.2956 3.09561C21.2814 3.1189 21.252 3.12902 21.2267 3.1189C20.6467 2.90125 19.9026 2.65526 19.2699 2.49532C18.6322 2.33436 17.874 2.17442 17.2636 2.06104C17.2423 2.05699 17.2251 2.04181 17.219 2.02055C17.049 1.42836 16.8181 0.611429 16.6491 0C16.3626 0.629651 16.0721 1.21982 15.7664 1.83226C15.7562 1.85352 15.734 1.86567 15.7107 1.86364C15.0031 1.80493 14.2469 1.79784 13.5373 1.80291C12.8277 1.79784 12.0725 1.80493 11.3639 1.86364C11.3406 1.86567 11.3183 1.85352 11.3082 1.83226C11.0025 1.21982 10.712 0.630663 10.4255 0C10.2554 0.611429 10.0256 1.42836 9.85555 2.02055C9.84947 2.04181 9.83226 2.05699 9.81101 2.06104C9.20059 2.17341 8.44238 2.33335 7.80463 2.49532C7.17194 2.65526 6.4279 2.90226 5.84785 3.1189C5.82255 3.12801 5.79319 3.1189 5.77902 3.09561C5.41864 2.5186 5.06028 1.94159 4.71104 1.35749C4.6746 2.12077 4.63714 2.88506 4.59969 3.64833C4.59969 3.66858 4.58754 3.6868 4.56932 3.69591C4.11075 3.93886 3.48616 4.29418 3.0701 4.62925C2.68948 4.93699 2.1894 5.32672 1.8685 5.66179C1.84522 5.68609 1.80675 5.68508 1.78448 5.65977C1.35223 5.16779 0.647666 4.2223 0.647666 4.2223C0.647666 4.2223 0.888594 5.88248 1.07385 6.7237C1.07587 6.73382 1.07587 6.74496 1.07182 6.75508C0.624383 7.82002 0.53935 8.6086 0.53024 9.00238C0.228574 8.31402 0.0311757 7.77851 0.00890509 7.71575C0.00890509 7.71474 0.00688083 7.71575 0.00688083 7.71575C0.00789313 7.77042 -0.148001 8.57013 0.97059 11.8186H0.969578ZM0.886569 8.86674C1.12851 8.64808 1.33097 8.54381 1.33097 8.54381L2.10639 11.1151C2.10639 11.1151 2.20863 9.37187 2.27443 8.52559C2.27747 8.48712 2.31189 8.4608 2.35035 8.46587C2.79273 8.53268 3.67849 8.81713 3.67849 8.81713C3.67849 8.81713 2.68846 6.95349 2.6095 6.7733C2.60444 6.76318 2.60343 6.75103 2.60545 6.73989C2.72288 6.05355 2.9628 5.40062 3.11768 4.72137C3.5064 4.86815 3.87387 5.03923 4.25146 5.20626C4.3618 5.25485 4.4691 5.30344 4.57944 5.34899C4.6007 5.3581 4.61487 5.37835 4.61487 5.40265C4.59564 6.20742 4.58653 7.29059 4.58146 8.06702C4.93476 7.32602 5.29615 6.58805 5.65754 5.85008C5.6707 5.82376 5.70208 5.81161 5.72941 5.82174C6.30237 6.04343 6.87837 6.25601 7.45842 6.45847C7.16384 5.88146 6.82472 5.02911 6.50281 4.43084C6.4937 4.41262 6.49471 4.39035 6.50585 4.37314C6.6091 4.21623 6.70729 4.07248 6.8065 3.93582C7.14866 3.46207 7.48677 3.0531 7.85626 2.58035C8.31685 2.75042 8.81187 2.99236 9.24412 3.20899C9.35446 3.26467 9.45366 3.31427 9.53667 3.35476C9.56097 3.36691 9.57312 3.39222 9.56704 3.41752C9.40406 4.12715 9.2178 5.17893 9.04773 5.86223C9.65815 5.27408 10.2372 4.65861 10.8314 4.05527C10.8496 4.03705 10.877 4.033 10.8992 4.04515C11.6018 4.41262 12.2861 4.80843 12.9785 5.19411C12.6323 4.47943 12.2901 3.76879 11.9156 3.06828C11.9014 3.04297 11.9095 3.01058 11.9338 2.99438C12.4642 2.62996 12.9987 2.27363 13.5353 1.91932C14.0718 2.27363 14.6063 2.62996 15.1367 2.99438C15.161 3.01058 15.1681 3.04297 15.1549 3.06828C14.7804 3.76879 14.4382 4.47943 14.092 5.19411C14.7844 4.80944 15.4688 4.41262 16.1713 4.04515C16.1936 4.033 16.2209 4.03807 16.2391 4.05527C16.8333 4.65861 17.4124 5.2751 18.0228 5.86223C17.8527 5.17994 17.6665 4.12816 17.5035 3.41854C17.4974 3.39222 17.5106 3.3659 17.5338 3.35476C17.6169 3.31427 18.7537 2.75042 19.2132 2.58035C19.8834 3.37096 20.4614 4.21623 20.5637 4.37314C20.5748 4.39035 20.5758 4.41262 20.5667 4.43084C20.2519 5.07162 19.9057 5.88146 19.6111 6.45847C20.1911 6.25601 20.7671 6.04343 21.3401 5.82174C21.3674 5.8106 21.3988 5.82275 21.412 5.85008C21.7734 6.58805 22.1347 7.325 22.488 8.06702C22.484 7.29059 22.4739 6.20742 22.4546 5.40265C22.4546 5.37936 22.4678 5.3581 22.4901 5.34899C22.6004 5.30243 23.5631 4.86714 23.9518 4.72137C24.1067 5.40062 24.3466 6.05355 24.464 6.73989C24.4661 6.75103 24.464 6.76318 24.46 6.7733C24.381 6.95248 23.391 8.81713 23.391 8.81713C23.391 8.81713 24.2778 8.53268 24.7191 8.46587C24.7576 8.45979 24.792 8.48712 24.7951 8.52559C24.8609 9.37187 24.9631 11.1151 24.9631 11.1151L25.7385 8.54381C25.7385 8.54381 25.941 8.64808 26.1829 8.86674C26.3409 9.00947 26.4299 9.12184 26.4795 9.19371C26.1374 9.95597 25.6818 10.8589 25.1959 11.5129C24.9469 11.848 24.6989 12.1274 24.4053 12.3865C24.1776 12.588 23.9265 12.7631 23.6613 12.9119C23.1379 13.2055 22.5184 13.4859 22.242 13.6073C22.1742 13.6377 22.0963 13.5952 22.0831 13.5223L21.7116 11.3894L20.5242 14.2542C20.511 14.2866 20.4837 14.3109 20.4503 14.32C20.1385 14.4111 18.5208 14.8778 17.6988 15.0316C17.5926 15.0519 15.5153 15.307 14.7804 15.3617C14.7308 15.3657 14.6852 15.3363 14.667 15.2908C14.2884 14.3473 13.5434 12.5242 13.5434 12.5242C13.5434 12.5242 12.8003 14.3483 12.4217 15.2908C12.4035 15.3374 12.358 15.3657 12.3084 15.3617C11.5734 15.307 9.49517 15.0519 9.38989 15.0316C8.5679 14.8778 6.95025 14.4111 6.63846 14.32C6.60505 14.3099 6.57772 14.2856 6.56456 14.2542L5.37713 11.3894L5.00562 13.5223C4.99246 13.5952 4.91451 13.6377 4.84669 13.6073C4.50453 13.4565 3.53373 13.0151 3.07617 12.7034C2.64392 12.4078 2.24609 11.9877 1.89381 11.5129C1.40385 10.8529 0.94427 9.93978 0.6011 9.17346C0.652728 9.10058 0.740798 8.99631 0.883532 8.86674H0.886569Z" fill="white"/>
</svg>
