<svg width="44" height="5" viewBox="0 0 44 5" fill="none" xmlns="http://www.w3.org/2000/svg">
<path d="M2.70891 3.95607C3.39424 3.95607 4.04718 3.61998 4.33771 3.12497L4.36403 3.13206V4.1808C3.88926 4.55636 3.19684 4.74769 2.55808 4.74769C1.14694 4.74769 0 3.84472 0 2.37384C0 0.902973 1.14694 0 2.55808 0C3.19786 0 3.89027 0.191325 4.36403 0.566889V1.61563L4.33771 1.62272C4.04718 1.12871 3.39525 0.791619 2.70891 0.791619C1.76646 0.791619 1.01432 1.38483 1.01432 2.37384C1.01432 3.36286 1.76545 3.95607 2.70891 3.95607Z" fill="white"/>
<path d="M6.76022 4.65003L6.75314 4.68343H5.40779V0.734455C5.40779 0.470244 5.24987 0.227292 5.03223 0.101767L5.03931 0.0683594H6.38466V1.94719H8.43457V0.734455C8.43457 0.470244 8.27665 0.227292 8.059 0.101767L8.06609 0.0683594H9.41144V4.01734C9.41144 4.28155 9.56936 4.52451 9.787 4.65003L9.77991 4.68343H8.43457V2.7712H6.38466V4.01734C6.38466 4.28155 6.54258 4.52451 6.76022 4.65003Z" fill="white"/>
<path d="M15.2454 4.4253C15.3709 4.58322 15.5289 4.6561 15.5359 4.6561L15.5289 4.68242H14.4801C14.3151 4.68242 14.1704 4.58322 14.1177 4.44554L13.7948 3.62761H11.916L11.593 4.44554C11.5404 4.58423 11.3956 4.68242 11.2306 4.68242H10.1819L10.1748 4.6561C10.1819 4.6561 10.3398 4.58322 10.4653 4.4253C10.5645 4.30686 10.6891 4.05581 10.7356 3.94446L12.3512 0.0683594H13.3595L14.9751 3.94446C15.0217 4.05682 15.1462 4.30686 15.2454 4.4253ZM13.4719 2.8036L12.8584 1.25478H12.8513L12.2379 2.8036H13.4709H13.4719Z" fill="white"/>
<path d="M21.7462 4.65003L21.7391 4.68343H20.3937V1.45319L19.0889 4.05075H18.4096L17.1048 1.45319V4.01734C17.1048 4.28155 17.2627 4.52451 17.4803 4.65003L17.4732 4.68343H16.2139V0.734455C16.2139 0.470244 16.056 0.227292 15.8384 0.101767L15.8455 0.0683594H17.1048C17.2495 0.0683594 17.3882 0.101766 17.454 0.239438L18.6009 2.52015L18.7457 2.81675H18.7528L18.8975 2.52015L20.0779 0.239438C20.1508 0.100753 20.2824 0.0683594 20.4271 0.0683594H21.3696V4.01734C21.3696 4.28155 21.5275 4.52451 21.7452 4.65003H21.7462Z" fill="white"/>
<path d="M24.1149 4.65516L24.1018 4.68148H22.7635V0.78514C22.7635 0.528016 22.6451 0.244573 22.3809 0.0998139L22.394 0.0664062H24.3194C25.4795 0.0664062 26.2377 0.646455 26.2377 1.58891C26.2377 2.53136 25.4795 3.10533 24.3194 3.10533H23.7394V3.94959C23.7394 4.36463 23.9631 4.56304 24.1149 4.65516ZM24.3589 2.28233C24.9521 2.28233 25.2355 1.97257 25.2355 1.58992C25.2355 1.20727 24.9521 0.891433 24.3589 0.891433H23.7394V2.28233H24.3589Z" fill="white"/>
<path d="M28.4931 4.65003L28.486 4.68343H27.1407V0.734455C27.1407 0.470244 26.9828 0.227292 26.7651 0.101767L26.7722 0.0683594H28.1176V4.01734C28.1176 4.28155 28.2755 4.52451 28.4931 4.65003Z" fill="white"/>
<path d="M31.4945 4.74769C29.9325 4.74769 29.0093 3.64023 29.0093 2.37384C29.0093 1.10745 29.9325 0 31.4945 0C33.0565 0 33.9797 1.10745 33.9797 2.37384C33.9797 3.64023 33.0565 4.74769 31.4945 4.74769ZM31.4945 0.825024C30.4599 0.825024 30.0115 1.61664 30.0115 2.37384C30.0115 3.13104 30.4599 3.92266 31.4945 3.92266C32.529 3.92266 32.9512 3.13104 32.9512 2.37384C32.9512 1.61664 32.529 0.825024 31.4945 0.825024Z" fill="white"/>
<path d="M38.9837 0.0664062V4.68148H38.4229C38.2579 4.68148 38.1526 4.63492 38.0534 4.51041L35.7596 1.62231V4.01539C35.7596 4.2796 35.9175 4.52255 36.1351 4.64808L36.128 4.68148H34.8687V0.732501C34.8687 0.468291 34.7108 0.225339 34.4932 0.0998139L34.5003 0.0664062H35.5622C35.714 0.0664062 35.8122 0.112973 35.9053 0.231412L38.0939 2.98689V0.732501C38.0939 0.468291 37.936 0.225339 37.7184 0.0998139L37.7254 0.0664062H38.9847H38.9837Z" fill="white"/>
<path d="M41.5349 4.74769C40.7433 4.74769 40.2098 4.42476 39.9658 4.22028V2.94782L39.9921 2.94073C40.2027 3.5471 40.8951 3.94291 41.5278 3.94291C41.9297 3.94291 42.3123 3.79106 42.3123 3.36286C42.3123 2.99337 41.9631 2.84861 41.4023 2.73625C40.473 2.55201 39.978 2.20175 39.978 1.41722C39.978 0.527408 40.7028 0 41.7384 0C42.3387 0 42.8003 0.197396 43.1363 0.487926V1.60247L43.1029 1.60956C42.6879 1.00319 42.2 0.817937 41.7515 0.817937C41.3031 0.817937 40.9872 0.996102 40.9872 1.31194C40.9872 1.67434 41.4286 1.80594 42.042 1.93147C42.8266 2.08939 43.2882 2.50544 43.2882 3.25657C43.2882 4.13322 42.5634 4.74667 41.5349 4.74667V4.74769Z" fill="white"/>
</svg>
