<svg width="23" height="21" viewBox="0 0 23 21" fill="none" xmlns="http://www.w3.org/2000/svg">
<path d="M0 11.3324C0 14.3692 1.18239 17.2245 3.32977 19.3728C3.7532 19.7962 4.20498 20.179 4.67945 20.5249C5.04333 20.2792 5.42139 20.0542 5.81269 19.8482C3.03583 18.0326 1.1994 14.8975 1.1994 11.3324C1.1994 6.53951 4.51594 2.52545 8.97895 1.44986C9.43829 0.927194 9.94111 0.442331 10.4817 0C7.77955 0.207934 5.26733 1.35629 3.33072 3.29291C1.18333 5.4403 0.000944633 8.2956 0.000944633 11.3324H0ZM19.4106 3.29197C18.9957 2.87704 18.5524 2.50276 18.0883 2.16251C18.1148 2.33736 18.128 2.516 18.128 2.69841C18.128 3.01882 18.0845 3.32788 18.0051 3.62371C20.1705 5.4885 21.5419 8.25023 21.5419 11.3324C21.5419 14.8975 19.7064 18.0326 16.9296 19.8491C16.9324 19.851 16.9362 19.8529 16.939 19.8539C17.0241 19.8983 17.1082 19.9446 17.1914 19.9909C17.2103 20.0013 17.2292 20.0127 17.249 20.0231C17.3086 20.0571 17.3681 20.0911 17.4277 20.1261C17.4711 20.1516 17.5137 20.1762 17.5562 20.2026C17.5808 20.2178 17.6044 20.2329 17.629 20.2471C17.7755 20.3368 17.921 20.4295 18.0638 20.5259C18.5373 20.1799 18.9881 19.7962 19.4106 19.3728C21.558 17.2254 22.7404 14.3701 22.7404 11.3324C22.7404 8.29466 21.558 5.4403 19.4106 3.29291V3.29197Z" fill="#F2365A"/>
</svg>
