<svg width="74.09954071044922" height="12" viewBox="0 0 74.09954071044922 12" fill="none" xmlns="http://www.w3.org/2000/svg">
<path fill-rule="evenodd" clip-rule="evenodd" d="M41.6521 11.7029V10.2198H42.8279V11.7029H41.6521ZM3.04342 8.75035C3.51467 9.23697 4.25913 9.50352 5.05133 9.50269C5.84312 9.50435 6.58799 9.23697 7.05882 8.75035C7.63595 8.16243 7.82072 7.5745 7.81822 6.33305L7.81947 0H10.1018V6.92554C10.0998 8.37335 9.67459 9.49314 8.80059 10.3472C7.8149 11.313 6.60584 11.7647 5.05133 11.7689C3.49599 11.7647 2.28775 11.313 1.30207 10.3472C0.428072 9.49314 0.0024912 8.37335 0 6.92637V0H2.28277L2.28443 6.33305C2.28194 7.5745 2.46671 8.16243 3.04342 8.75035ZM20.1194 2.15364H14.3373V4.79017H19.6286V6.91184H14.3373V8.02375C14.3373 9.24818 14.7641 9.5492 15.8627 9.5492H20.1194V11.7028H15.734C13.702 11.7028 12.0545 10.7915 12.0545 8.26872V0.858219C12.0545 0.313892 12.4145 0 12.9131 0H20.1194V2.15364ZM23.9836 6.91184L23.9874 11.7028H22.5595C22.0604 11.7028 21.7013 11.3889 21.7013 10.8442V3.43454C21.7013 0.912195 23.3484 0 25.3804 0H29.7653V2.15364H25.5091C24.41 2.15364 23.9836 2.45467 23.9836 3.67992L23.9832 4.79017H29.2754V6.91184H23.9836ZM34.5762 0.0033216C35.2484 0.0033216 35.4714 0.355827 35.6159 0.763969L39.9041 11.7045L37.454 11.7053L36.6099 9.55335H33.8181L34.5812 7.39846H35.7658L34.264 3.56823L31.3825 11.7053L29.0977 11.7045L32.9727 0.763969C33.1168 0.356242 33.3394 0.0033216 34.0124 0.0033216H34.5762ZM50.3725 5.77199C50.0855 4.47242 49.2921 3.67897 47.9078 3.67897C45.8659 3.67897 44.8532 5.53574 44.8532 7.39211C44.8532 9.2493 45.8659 11.1052 47.9078 11.1052C49.2248 11.1052 50.3052 10.0764 50.4397 8.62484H51.503C51.2166 10.7179 49.8493 12 47.9078 12C45.2418 12 43.7899 9.89037 43.7899 7.39211C43.7899 4.89467 45.2418 2.78463 47.9078 2.78463C49.765 2.78463 51.1995 3.78028 51.4358 5.77199H50.3725ZM60.7864 7.39202C60.7864 9.8907 59.3348 11.9999 56.6684 11.9999C54.0016 11.9999 52.5496 9.8907 52.5496 7.39202C52.5496 4.89459 54.0016 2.78454 56.6684 2.78454C59.3348 2.78454 60.7864 4.89459 60.7864 7.39202ZM53.613 7.39202C53.613 9.24921 54.6256 11.1052 56.6684 11.1052C58.7104 11.1052 59.7235 9.24921 59.7235 7.39202C59.7235 5.53566 58.7104 3.67888 56.6684 3.67888C54.6256 3.67888 53.613 5.53566 53.613 7.39202ZM62.0654 3.0379H63.044V4.50605H63.0951C63.6523 3.45974 64.564 2.78463 65.9475 2.78463C67.0947 2.78463 68.1248 3.34141 68.4458 4.48944C68.9689 3.34141 70.0663 2.78463 71.2135 2.78463C73.1209 2.78463 74.0995 3.78028 74.0995 5.83967V11.7467H73.0366V5.89033C73.0366 4.45539 72.4964 3.67897 70.9768 3.67897C69.1375 3.67897 68.6143 5.19819 68.6143 6.81871V11.7467H67.5506V5.83967C67.5676 4.65801 67.0785 3.67897 65.7283 3.67897C63.8885 3.67897 63.1457 5.06283 63.1287 6.88598V11.7467H62.0654V3.0379Z" fill="white"/>
</svg>
