<svg width="3.9831924438476562" height="4.010124683380127" viewBox="0 0 3.9831924438476562 4.010124683380127" fill="none" xmlns="http://www.w3.org/2000/svg">
<path fill-rule="evenodd" clip-rule="evenodd" d="M2.71056 1.32908L1.85683 0.912665L1.56718 1.50686L2.42091 1.92359C2.61317 2.01729 2.75556 2.05986 2.84926 2.05035C2.942 2.04085 3.01468 1.98264 3.0675 1.875C3.11905 1.7681 3.1182 1.67271 3.0638 1.5882C3.00887 1.50359 2.89172 1.41729 2.71056 1.32908ZM1.00394 2.66187L1.96489 3.13056C2.15968 3.22553 2.30366 3.26673 2.39694 3.25393C2.48979 3.24157 2.56489 3.17683 2.62225 3.05958C2.67919 2.94285 2.6813 2.83891 2.62891 2.74891C2.57609 2.65933 2.46053 2.5706 2.28063 2.48271L1.31958 2.01444L1.00394 2.66187ZM0 2.8838L1.4062 0L3.27053 0.909401C3.59398 1.067 3.80778 1.24532 3.91046 1.44495C4.01366 1.6443 4.007 1.86337 3.8907 2.10232C3.82215 2.24303 3.72855 2.35035 3.61056 2.42535C3.49172 2.50004 3.35134 2.53891 3.19046 2.54303C3.33116 2.67707 3.41451 2.82528 3.44007 2.98658C3.46606 3.1483 3.4351 3.31838 3.34722 3.49828C3.22268 3.75412 3.04109 3.91499 2.80384 3.97932C2.56574 4.04461 2.30039 4.00616 2.00831 3.86345L0 2.8838Z" fill="black"/>
</svg>
