<svg width="2.700115203857422" height="3.1387176513671875" viewBox="0 0 2.700115203857422 3.1387176513671875" fill="none" xmlns="http://www.w3.org/2000/svg">
<path fill-rule="evenodd" clip-rule="evenodd" d="M0.664184 1.53541C0.461577 1.50403 0.307668 1.44002 0.202456 1.34431C0.0963993 1.24903 0.0324897 1.13473 0.0102009 1.00343C-0.0278275 0.778958 0.0403065 0.576035 0.21735 0.395717C0.394393 0.2154 0.667881 0.0940239 1.03887 0.0321222C1.40658 -0.0289345 1.70447 -0.00295099 1.9318 0.110078C2.16039 0.22279 2.2937 0.391914 2.33162 0.616387C2.3556 0.756352 2.32961 0.888395 2.25451 1.01336C2.18025 1.13759 2.06299 1.24322 1.90422 1.32868C2.12986 1.35963 2.30933 1.43051 2.44307 1.54111C2.5768 1.65128 2.65761 1.79083 2.68655 1.95911C2.73356 2.23766 2.65845 2.48273 2.45997 2.69484C2.2619 2.90654 1.97437 3.04439 1.59598 3.10714C1.24359 3.16566 0.939043 3.14295 0.680767 3.03816C0.374955 2.91361 0.19749 2.70351 0.147631 2.40763C0.119954 2.24463 0.146785 2.08618 0.227279 1.93227C0.307244 1.77878 0.453338 1.64632 0.664184 1.53541ZM0.582105 0.913535C0.634077 1.2222 0.99144 1.25811 1.23979 1.21723C1.48655 1.17635 1.79859 1.02329 1.74778 0.724555C1.69908 0.434483 1.3525 0.40438 1.11566 0.44357C0.877142 0.482761 0.532985 0.622195 0.582105 0.913535ZM0.705486 2.27812C0.772353 2.67298 1.1651 2.71999 1.50683 2.66347C1.83852 2.60865 2.15173 2.40436 2.09025 2.04129C2.03088 1.6909 1.6318 1.62784 1.3281 1.67769C1.0282 1.72766 0.645592 1.92361 0.705486 2.27812Z" fill="black"/>
</svg>
