<svg width="44.2333869934082" height="35.10760498046875" viewBox="0 0 44.2333869934082 35.10760498046875" fill="none" xmlns="http://www.w3.org/2000/svg">
<path fill-rule="evenodd" clip-rule="evenodd" d="M32.1787 13.1432V19.0896H33.0188C33.5078 19.0896 33.7636 18.9188 33.7636 18.4146V13.8505C33.7636 13.3115 33.5507 13.1432 33.0213 13.1432H32.1787ZM21.7465 21.8031L12.0773 21.7845L8.93101 18.5532V16.7686H11.5814V10.8424L4.65041 4.54479L2.66931 4.54975L0 1.78511V0H14.4257L17.2414 3.05884L17.2472 4.62444L15.5996 4.61662L18.2462 7.0107L23.9892 2.8575L22.8722 1.78511V0H31.5251L34.3777 1.93077L34.3834 4.71317L31.249 4.71518L25.9831 8.51968L34.5881 8.52011C38.5712 8.52011 44.1017 11.224 44.0889 16.4121C44.0811 19.6483 42.5729 21.0418 40.7417 22.2545C41.2958 22.8558 44.2135 24.0515 44.2333 28.2472C44.2536 32.4486 40.7222 35.1076 37.3482 35.1076H22.5334L19.423 31.8767V29.8725H21.7465V21.8031ZM32.1423 23.8531V29.8722H33.0196C33.5515 29.8722 33.7269 29.6534 33.7269 29.1228L33.7273 24.7386C33.7273 24.2133 33.5499 23.8531 32.9863 23.8531H32.1423Z" fill="black"/>
</svg>
