<svg width="3.747330665588379" height="3.6956787109375" viewBox="0 0 3.747330665588379 3.6956787109375" fill="none" xmlns="http://www.w3.org/2000/svg">
<path fill-rule="evenodd" clip-rule="evenodd" d="M0.946459 3.3154L1.5472 2.75501L1.56822 2.77688C1.69118 2.90934 1.84308 2.95603 2.02424 2.91684C2.2054 2.87754 2.40716 2.75416 2.6291 2.54712C2.80033 2.3874 2.90934 2.2392 2.9555 2.10188C3.00177 1.96487 2.98191 1.85057 2.89614 1.75857C2.82388 1.68092 2.74054 1.65251 2.6461 1.67268C2.55114 1.69254 2.40262 1.77916 2.19959 1.93307L1.74442 2.28092C1.40945 2.53307 1.12139 2.67251 0.878326 2.69976C0.635263 2.72659 0.423573 2.64283 0.241672 2.44761C0.0271302 2.21776 -0.0447011 1.9335 0.0267072 1.59515C0.098855 1.25754 0.304418 0.930396 0.645192 0.61265C1.01121 0.27103 1.36075 0.072544 1.69498 0.0163468C2.0292 -0.0401673 2.30607 0.0498333 2.52727 0.286664L2.54501 0.305678L1.96107 0.850326C1.83811 0.745537 1.70153 0.708354 1.55174 0.74015C1.40195 0.771523 1.23769 0.87008 1.05864 1.03645C0.893642 1.19078 0.787586 1.33307 0.740474 1.46511C0.693467 1.59716 0.709945 1.70617 0.790015 1.79152C0.854029 1.86008 0.927023 1.88564 1.01037 1.86747C1.09371 1.8493 1.25016 1.75445 1.48118 1.58195L1.96022 1.22173C2.2916 0.974129 2.57924 0.840819 2.82473 0.820643C3.07022 0.800361 3.2873 0.892368 3.4767 1.0954C3.72008 1.35621 3.79931 1.65409 3.71438 1.98758C3.62892 2.32138 3.38174 2.67832 2.97325 3.05913C2.58452 3.42188 2.2186 3.62945 1.87603 3.68269C1.53315 3.73508 1.23854 3.62902 0.992198 3.36452L0.946459 3.3154Z" fill="black"/>
</svg>
