<svg width="2.5781517028808594" height="3.1255645751953125" viewBox="0 0 2.5781517028808594 3.1255645751953125" fill="none" xmlns="http://www.w3.org/2000/svg">
<path fill-rule="evenodd" clip-rule="evenodd" d="M0.661502 1.4146C0.467558 1.34858 0.326853 1.25911 0.23981 1.14598C0.152345 1.03337 0.109353 0.909987 0.110198 0.776677C0.111888 0.54893 0.214564 0.361647 0.420128 0.214711C0.626009 0.0677741 0.916927 -0.00395188 1.29277 0.000167841C1.66545 0.00386502 1.95383 0.0818231 2.15813 0.232879C2.36359 0.383513 2.4651 0.573228 2.46352 0.80108C2.46267 0.942946 2.41398 1.06844 2.31816 1.17862C2.22331 1.28795 2.08957 1.37129 1.91834 1.4278C2.13499 1.49752 2.29968 1.59904 2.41186 1.73108C2.52415 1.8627 2.5794 2.01418 2.57813 2.18499C2.57612 2.46767 2.45929 2.69583 2.22742 2.87002C1.99513 3.04411 1.68774 3.12915 1.30439 3.12545C0.947454 3.12165 0.65115 3.0458 0.415163 2.89759C0.135761 2.7214 -0.00198543 2.48372 2.16173e-05 2.1834C0.00171176 2.0183 0.0553723 1.86693 0.161429 1.7295C0.26738 1.59249 0.434494 1.48728 0.661502 1.4146ZM0.689178 0.788301C0.68622 1.1014 1.03207 1.19879 1.28379 1.20175C1.53383 1.20503 1.86763 1.1089 1.86964 0.8052C1.87218 0.511432 1.53626 0.421435 1.29657 0.418583C1.05478 0.415625 0.691185 0.492421 0.688755 0.788301H0.689178ZM0.572348 2.15319C0.569495 2.55386 0.947877 2.66858 1.29404 2.6727C1.63038 2.6765 1.97411 2.52999 1.97697 2.16196C1.97982 1.80661 1.59816 1.67457 1.29034 1.67087C0.9858 1.6676 0.5752 1.79383 0.572348 2.15319Z" fill="black"/>
</svg>
