<svg width="3.6796913146972656" height="3.7501916885375977" viewBox="0 0 3.6796913146972656 3.7501916885375977" fill="none" xmlns="http://www.w3.org/2000/svg">
<path fill-rule="evenodd" clip-rule="evenodd" d="M0.435208 0.843732L0.952183 1.4825L0.928627 1.50151C0.788345 1.61538 0.730985 1.76348 0.757816 1.94676C0.784225 2.13035 0.893133 2.33993 1.08423 2.57602C1.23159 2.75792 1.37187 2.87676 1.50549 2.93253C1.63923 2.9882 1.75437 2.97669 1.85218 2.89746C1.93468 2.83102 1.96891 2.74926 1.95528 2.65398C1.94208 2.55785 1.86571 2.40352 1.72627 2.19014L1.41148 1.71193C1.18331 1.36039 1.06447 1.06282 1.05412 0.81859C1.04377 0.57426 1.14243 0.368803 1.34958 0.200846C1.59423 0.00278245 1.88314 -0.048768 2.21525 0.046091C2.54662 0.141901 2.85941 0.369648 3.15233 0.731972C3.46723 1.1206 3.64089 1.48334 3.67395 1.82042C3.70691 2.1576 3.598 2.42781 3.34585 2.63211L3.3261 2.64817L2.82349 2.02799C2.93694 1.91243 2.98279 1.7788 2.96208 1.6269C2.94106 1.47553 2.85402 1.30461 2.70053 1.11489C2.55814 0.939436 2.42367 0.823555 2.29532 0.767358C2.16697 0.711267 2.05722 0.720351 1.96606 0.793766C1.89296 0.852816 1.86286 0.924224 1.87521 1.00841C1.88726 1.09292 1.97134 1.2556 2.12694 1.49813L2.45293 2.00116C2.67655 2.34901 2.78969 2.64531 2.79296 2.89123C2.79581 3.13757 2.68891 3.34799 2.4731 3.5225C2.19581 3.74739 1.89338 3.80559 1.56655 3.69753C1.23983 3.58894 0.900632 3.31746 0.549504 2.88341C0.214855 2.47038 0.0328499 2.09074 0.0039061 1.74532C-0.0245095 1.39958 0.102146 1.1132 0.38271 0.88588L0.435208 0.84331" fill="black"/>
</svg>
