<svg width="3.849031448364258" height="3.43847393989563" viewBox="0 0 3.849031448364258 3.43847393989563" fill="none" xmlns="http://www.w3.org/2000/svg">
<path fill-rule="evenodd" clip-rule="evenodd" d="M2.1568 2.71989C2.47 2.6472 2.69564 2.50154 2.83391 2.28204C2.97251 2.06253 3.00641 1.79717 2.93501 1.48778C2.86275 1.175 2.71592 0.950101 2.49515 0.813094C2.27395 0.67651 2.00743 0.644714 1.69465 0.716968C1.38229 0.788682 1.15529 0.935207 1.01543 1.1564C0.875989 1.37718 0.842081 1.64242 0.913912 1.95404C0.985743 2.26343 1.13215 2.48749 1.35335 2.62407C1.57539 2.76066 1.84317 2.79204 2.1568 2.71989ZM0.0519389 2.15284C-0.0636246 1.6532 0.0135943 1.21419 0.284228 0.836968C0.555391 0.459855 0.97539 0.205701 1.54602 0.074081C2.11676 -0.0579611 2.60575 -0.0133838 3.01296 0.206968C3.42029 0.427637 3.68141 0.78827 3.79698 1.28845C3.91254 1.78852 3.83574 2.22637 3.56596 2.60221C3.29648 2.97859 2.87638 3.23274 2.30574 3.36435C1.73511 3.49639 1.24613 3.45181 0.837222 3.23231C0.42863 3.0128 0.16708 2.65302 0.0515166 2.15284" fill="black"/>
</svg>
