<svg width="4.196856498718262" height="4.158597946166992" viewBox="0 0 4.196856498718262 4.158597946166992" fill="none" xmlns="http://www.w3.org/2000/svg">
<path fill-rule="evenodd" clip-rule="evenodd" d="M1.59895 1.15755L0.993213 1.88959L1.5024 2.31128L2.10814 1.57966C2.24472 1.41509 2.3194 1.28632 2.33225 1.19304C2.34545 1.10061 2.30579 1.016 2.21336 0.939733C2.12216 0.864205 2.02891 0.842763 1.9336 0.875721C1.8387 0.909206 1.7277 1.0028 1.59895 1.15797V1.15755ZM2.49144 3.13078L3.17352 2.30716C3.31221 2.14005 3.38605 2.01001 3.39598 1.916C3.40549 1.82315 3.36049 1.73484 3.25982 1.65191C3.15957 1.56857 3.05922 1.54216 2.9594 1.57185C2.86 1.60195 2.74644 1.69353 2.61894 1.84744L1.93689 2.67107L2.49144 3.13078ZM2.47084 4.1586L0 2.11195L1.3229 0.514665C1.55232 0.237377 1.77597 0.0719543 1.99425 0.0191376C2.21212 -0.0341017 2.42383 0.0236809 2.62845 0.193223C2.74897 0.293152 2.83105 0.409454 2.87647 0.541918C2.92105 0.675228 2.92559 0.820474 2.89126 0.977234C3.0551 0.872868 3.21852 0.826178 3.38151 0.839382C3.54493 0.852586 3.70295 0.922833 3.85686 1.05033C4.07595 1.23181 4.18982 1.44603 4.19648 1.69237C4.20387 1.93871 4.10362 2.18748 3.89605 2.43751L2.47042 4.1586" fill="black"/>
</svg>
