<svg width="3.7928848266601562" height="3.6406493186950684" viewBox="0 0 3.7928848266601562 3.6406493186950684" fill="none" xmlns="http://www.w3.org/2000/svg">
<path fill-rule="evenodd" clip-rule="evenodd" d="M1.30893 2.6612C1.57228 2.84564 1.83139 2.91578 2.08724 2.87162C2.34308 2.82789 2.56301 2.67525 2.74533 2.41486C2.92893 2.15247 2.99833 1.8925 2.95206 1.63708C2.9059 1.38124 2.75114 1.16215 2.48791 0.977715C2.22541 0.793585 1.9647 0.723032 1.70717 0.767177C1.44974 0.81092 1.22971 0.963243 1.04612 1.2252C0.864217 1.4856 0.795661 1.74429 0.842668 2.00014C0.889358 2.25641 1.04527 2.47676 1.30893 2.6612ZM0.321577 0.718173C0.615766 0.297634 0.993301 0.0612371 1.45502 0.0100048C1.91632 -0.0406994 2.38681 0.101272 2.86628 0.437071C3.34618 0.772986 3.64037 1.16627 3.74885 1.61638C3.85776 2.06659 3.76459 2.50233 3.46998 2.92285C3.17568 3.34285 2.79857 3.57894 2.33886 3.63049C1.87925 3.68162 1.40886 3.53975 0.929391 3.20384C0.449499 2.86792 0.15531 2.47465 0.0451344 2.02412C-0.0654637 1.57348 0.0273885 1.13817 0.321577 0.718173Z" fill="black"/>
</svg>
