<svg width="45.081764221191406" height="35.955963134765625" viewBox="0 0 45.081764221191406 35.955963134765625" fill="none" xmlns="http://www.w3.org/2000/svg">
<path fill-rule="evenodd" clip-rule="evenodd" d="M33.0271 13.9915V19.0896H33.4328C33.7315 19.0896 33.7636 18.9823 33.7636 18.8238V14.2866C33.7636 14.077 33.7047 13.9911 33.436 13.9911H33.0271V13.9915ZM21.7466 22.6506L12.3225 22.6325L8.93097 19.1498V16.7685H11.5809V11.4542L4.91076 5.39345L2.91359 5.39842L0 2.38046V0H15.0354L18.0894 3.31669L18.0972 5.47437L17.1304 5.46983L18.7001 6.88965L23.7532 3.23588L22.8722 2.38997V0H32.0793L35.2251 2.12916L35.2326 5.56141L31.8106 5.56352L27.7186 8.51958H35.0164C39.571 8.51958 44.9476 11.6152 44.9373 16.8333C44.9319 19.4936 43.9479 21.3009 41.8764 22.705C43.8851 24.0577 45.0887 26.0243 45.0817 28.6701C45.0751 31.0728 44.0089 33.0931 42.2746 34.4106C41.0495 35.3419 39.4736 35.956 37.7773 35.956H22.7769L19.4231 32.4716V29.8725H21.7466V22.6506ZM32.9932 24.7014L32.997 29.8725H33.4319C33.6172 29.8725 33.7269 29.7871 33.7269 29.5383L33.7274 25.1759C33.7199 24.774 33.6518 24.7196 33.3923 24.7014H32.9932Z" fill="white"/>
</svg>
