<svg width="21.929773330688477" height="23.01749610900879" viewBox="0 0 21.929773330688477 23.01749610900879" fill="none" xmlns="http://www.w3.org/2000/svg">
<path fill-rule="evenodd" clip-rule="evenodd" d="M9.62091 1.59771V10.57H13.4328C14.1723 10.57 14.3405 10.1421 14.3405 9.72993V2.46877C14.3405 1.79461 13.9976 1.59729 13.4328 1.59729H9.62091V1.59771ZM9.62091 12.235V21.3529H13.4328C14.0439 21.3529 14.3405 21.0505 14.3405 20.439V13.288C14.3405 12.6059 14.0418 12.235 13.4332 12.235H9.62091ZM2.32352 21.3529V1.59771H0.580984V0L14.9938 0.000422303C18.8321 0.000422303 21.7337 2.15641 21.8558 6.18295C21.919 8.26468 20.7046 10.435 18.8403 11.5987C20.6205 12.7871 21.9425 13.9569 21.9297 17.0508C21.9145 20.8124 18.4962 23.0175 15.9016 23.0175H0V21.3529H2.32352Z" fill="#F9CC11"/>
</svg>
