<svg width="3.8004608154296875" height="3.4489905834198" viewBox="0 0 3.8004608154296875 3.4489905834198" fill="none" xmlns="http://www.w3.org/2000/svg">
<path fill-rule="evenodd" clip-rule="evenodd" d="M1.50304 3.35425C1.26209 3.29857 1.04174 3.21196 0.841666 3.09428C0.64149 2.97756 0.47607 2.83812 0.346035 2.67756C0.185578 2.47706 0.08079 2.26283 0.0324099 2.03424C-0.0166041 1.80565 -0.010056 1.55647 0.0522677 1.28742C0.167831 0.787346 0.42938 0.427029 0.838288 0.206783C1.24688 -0.0135695 1.73659 -0.0577244 2.30775 0.0738953C2.78881 0.184811 3.16603 0.385409 3.4375 0.673367C3.7094 0.963121 3.82866 1.28615 3.79486 1.64307L2.94272 1.44629C2.91092 1.25478 2.83053 1.09971 2.7005 0.978332C2.57057 0.857487 2.38941 0.770022 2.15828 0.71636C1.84593 0.644107 1.57772 0.676747 1.35578 0.813754C1.13332 0.951078 0.98649 1.17481 0.91466 1.48632C0.842829 1.79573 0.876737 2.06149 1.01575 2.281C1.15519 2.50094 1.38219 2.64703 1.69614 2.71928C1.91036 2.7684 2.32582 2.81413 2.76367 2.77864L2.84575 2.43407L1.79691 2.19481L1.94089 1.57125L3.7074 1.98354L3.36694 3.32742C3.12969 3.39386 2.85113 3.43231 2.54289 3.44551C2.19378 3.46073 1.81086 3.42523 1.50304 3.35425Z" fill="black"/>
</svg>
