<svg width="3.406707763671875" height="3.407134771347046" viewBox="0 0 3.406707763671875 3.407134771347046" fill="none" xmlns="http://www.w3.org/2000/svg">
<path fill-rule="evenodd" clip-rule="evenodd" d="M0.798802 0.172923L0.918906 1.89359C0.941195 2.20795 1.02369 2.43242 1.16651 2.56574C1.3088 2.69905 1.5263 2.75599 1.81964 2.73539C1.97566 2.72419 2.10971 2.69282 2.222 2.64084C2.33418 2.58887 2.42249 2.51704 2.48767 2.42502C2.53933 2.35363 2.57355 2.27356 2.59172 2.18493C2.60904 2.09492 2.61147 1.95919 2.59869 1.77602L2.47816 0.0556586L3.27464 0L3.40087 1.80443C3.43467 2.29014 3.32165 2.66725 3.0621 2.93715C2.80256 3.20778 2.40432 3.36168 1.86591 3.3993C1.32908 3.43679 0.913942 3.33982 0.61933 3.10796C0.324718 2.87683 0.160036 2.51873 0.126233 2.03345L0 0.229004L0.798379 0.173345" fill="black"/>
</svg>
