<svg width="3.791337013244629" height="3.649456024169922" viewBox="0 0 3.791337013244629 3.649456024169922" fill="none" xmlns="http://www.w3.org/2000/svg">
<path fill-rule="evenodd" clip-rule="evenodd" d="M3.61883 1.06389C3.81351 1.41829 3.84373 1.79044 3.70788 2.18044C3.57214 2.5699 3.29158 2.91407 2.86619 3.21164C2.38672 3.54745 1.91591 3.69026 1.45451 3.63945C0.993627 3.58917 0.616516 3.3535 0.321904 2.9335C0.0277147 2.51297 -0.0651372 2.07723 0.044616 1.62586C0.154369 1.17481 0.449404 0.781215 0.929297 0.4453C1.34813 0.151955 1.76158 0.00332765 2.16753 4.24401e-05C2.57443 -0.00279911 2.90169 0.137049 3.1513 0.419736L2.43289 0.922342C2.27697 0.792296 2.10405 0.732518 1.91422 0.743187C1.72482 0.753962 1.52306 0.834877 1.30683 0.985828C1.04444 1.16984 0.88884 1.39061 0.841833 1.64773C0.795143 1.90474 0.863276 2.16354 1.04687 2.4255C1.22887 2.6859 1.4488 2.83812 1.70507 2.88185C1.96165 2.92569 2.22204 2.8547 2.48655 2.66942C2.71514 2.50928 2.86535 2.33266 2.93792 2.13913C3.00975 1.94603 2.99655 1.75536 2.89757 1.56893L3.61883 1.06389Z" fill="black"/>
</svg>
