<svg width="2.568920135498047" height="3.129497528076172" viewBox="0 0 2.568920135498047 3.129497528076172" fill="none" xmlns="http://www.w3.org/2000/svg">
<path fill-rule="evenodd" clip-rule="evenodd" d="M0.137029 2.41404L0.748962 2.34929C0.792694 2.56257 1.07199 2.67612 1.35709 2.64179C1.9328 2.57292 1.97156 2.14214 1.9872 1.75795C1.80361 1.9371 1.48301 2.03281 1.19621 2.04432C0.883857 2.05711 0.608998 1.97545 0.374282 1.79968C0.139459 1.62306 0.0143912 1.38664 0.00118708 1.08907C-0.0127565 0.779241 0.0961512 0.524242 0.327171 0.324487C0.557451 0.125154 0.801781 0.0175135 1.17181 0.00177397C2.15927 -0.0386841 2.52487 0.617413 2.5649 1.50622C2.60737 2.45038 2.32184 3.08588 1.29319 3.12835C0.767026 3.14979 0.281852 2.86965 0.137029 2.41404ZM1.89804 1.04365C1.88072 0.65829 1.58653 0.4747 1.21523 0.489489C0.84625 0.504384 0.609423 0.714385 0.626746 1.05812C0.64407 1.40228 0.917237 1.62464 1.30639 1.60943C1.64684 1.5958 1.91378 1.40185 1.89804 1.04365Z" fill="black"/>
</svg>
