<svg width="14.999951362609863" height="19.192251205444336" viewBox="0 0 14.999951362609863 19.192251205444336" fill="none" xmlns="http://www.w3.org/2000/svg">
<path d="M0.749996 16.3846C0.537496 16.3846 0.359373 16.3127 0.215623 16.1689C0.0718746 16.0251 0 15.8469 0 15.6343C0 15.4217 0.0718746 15.2436 0.215623 15.1C0.359373 14.9564 0.537496 14.8846 0.749996 14.8846H1.80768V7.42301C1.80768 6.07814 2.22274 4.88906 3.05285 3.85573C3.88299 2.8224 4.94868 2.16151 6.24996 1.87308V1.25C6.24996 0.902779 6.37138 0.607647 6.61421 0.364599C6.85704 0.121534 7.15191 0 7.49881 0C7.84569 0 8.14093 0.121534 8.38451 0.364599C8.6281 0.607647 8.74989 0.902779 8.74989 1.25V1.87308C10.0512 2.16151 11.1169 2.8224 11.9471 3.85573C12.7772 4.88906 13.1922 6.07814 13.1922 7.42301V14.8846H14.25C14.4625 14.8846 14.6406 14.9565 14.7843 15.1003C14.9281 15.2441 15 15.4223 15 15.6349C15 15.8475 14.9281 16.0256 14.7843 16.1692C14.6406 16.3128 14.4625 16.3846 14.25 16.3846H0.749996ZM7.49824 19.1923C7.00065 19.1923 6.57526 19.0153 6.22206 18.6613C5.86886 18.3073 5.69226 17.8817 5.69226 17.3846H9.30759C9.30759 17.8833 9.13042 18.3093 8.77609 18.6625C8.42176 19.0157 7.9958 19.1923 7.49824 19.1923ZM3.30763 14.8846H11.6923V7.42301C11.6923 6.26531 11.283 5.27719 10.4644 4.45861C9.64576 3.64001 8.65761 3.23071 7.49993 3.23071C6.34224 3.23071 5.35409 3.64001 4.53553 4.45861C3.71693 5.27719 3.30763 6.26531 3.30763 7.42301V14.8846Z" fill="black"/>
</svg>
