<svg width="15" height="19.19230079650879" viewBox="0 0 15 19.19230079650879" fill="none" xmlns="http://www.w3.org/2000/svg">
<path d="M0.749998 16.3846C0.537498 16.3846 0.359374 16.3127 0.215624 16.1689C0.0718748 16.0251 0 15.8469 0 15.6343C0 15.4217 0.0718748 15.2436 0.215624 15.1C0.359374 14.9564 0.537498 14.8846 0.749998 14.8846H1.80769V7.42303C1.80769 6.07816 2.22275 4.88907 3.05286 3.85574C3.883 2.82241 4.9487 2.16152 6.24998 1.87308V1.25C6.24998 0.902781 6.3714 0.607649 6.61423 0.3646C6.85706 0.121534 7.15193 0 7.49883 0C7.84572 0 8.14096 0.121534 8.38454 0.3646C8.62813 0.607649 8.74992 0.902781 8.74992 1.25V1.87308C10.0512 2.16152 11.1169 2.82241 11.9471 3.85574C12.7772 4.88907 13.1922 6.07816 13.1922 7.42303V14.8846H14.25C14.4625 14.8846 14.6406 14.9565 14.7843 15.1003C14.9281 15.2441 15 15.4223 15 15.6349C15 15.8475 14.9281 16.0256 14.7843 16.1692C14.6406 16.3128 14.4625 16.3846 14.25 16.3846H0.749998ZM7.49826 19.1923C7.00067 19.1923 6.57528 19.0153 6.22208 18.6613C5.86888 18.3073 5.69228 17.8817 5.69228 17.3846H9.30762C9.30762 17.8833 9.13045 18.3093 8.77612 18.6625C8.42179 19.0157 7.99583 19.1923 7.49826 19.1923ZM3.30764 14.8846H11.6923V7.42303C11.6923 6.26533 11.283 5.2772 10.4644 4.45862C9.64579 3.64002 8.65764 3.23072 7.49995 3.23072C6.34226 3.23072 5.35411 3.64002 4.53554 4.45862C3.71694 5.2772 3.30764 6.26533 3.30764 7.42303V14.8846Z" fill="black"/>
</svg>
