<svg width="20" height="20.814855575561523" viewBox="0 0 20 20.814855575561523" fill="none" xmlns="http://www.w3.org/2000/svg">
<path d="M18 4.81486H5.8L13.5 1.31488C13.9601 1.12884 14.3704 0.834539 14.1656 0.334549C13.9775 -0.124717 13.5096 -0.0342115 13.052 0.152203L1.24 4.96486C0.51 5.24486 0 5.98486 0 6.81486V18.8149C0 19.9149 0.89 20.8149 2 20.8149H18C19.11 20.8149 20 19.9149 20 18.8149V6.81486C20 5.70486 19.11 4.81486 18 4.81486ZM18.5 6.31488V9.81486H15.5V8.73233C15.5 8.18005 15.3045 7.81486 14.7522 7.81486C14.1999 7.81486 14 8.26257 14 8.81486V9.81486H1.5V6.31488H18.5ZM1.5 19.3149V11.3149H18.5V19.3149H1.5Z" fill="black"/>
<path d="M6 17.7949C7.38071 17.7949 8.5 16.6756 8.5 15.2949C8.5 13.9141 7.38071 12.7949 6 12.7949C4.61929 12.7949 3.5 13.9141 3.5 15.2949C3.5 16.6756 4.61929 17.7949 6 17.7949Z" fill="black"/>
</svg>
