<svg width="19" height="19" viewBox="0 0 19 19" fill="none" xmlns="http://www.w3.org/2000/svg">
<path fill-rule="evenodd" clip-rule="evenodd" d="M19 9.5C19 14.7467 14.7467 19 9.5 19C4.25329 19 0 14.7467 0 9.5C0 4.25329 4.25329 0 9.5 0C14.7467 0 19 4.25329 19 9.5ZM17.5 9.5C17.5 13.9183 13.9183 17.5 9.5 17.5C6.42621 17.5 3.75731 15.7665 2.41764 13.2237L5.01635 10.625L7.59135 12.825C7.79135 13.0084 8.02051 13.0917 8.27884 13.075C8.53718 13.0584 8.75801 12.9584 8.94135 12.775L12.8913 8.85002V9.42502C12.8913 9.70835 12.9872 9.94585 13.1788 10.1375C13.2758 10.2345 13.3845 10.307 13.505 10.3549C13.6226 10.4016 13.7514 10.425 13.8913 10.425C14.1747 10.425 14.4122 10.3292 14.6038 10.1375C14.7955 9.94585 14.8913 9.70835 14.8913 9.42502V6.42502C14.8913 6.32948 14.8804 6.23915 14.8587 6.15403C14.8379 6.07297 14.8073 5.99663 14.7667 5.92502C14.7236 5.84883 14.6693 5.778 14.6038 5.71252C14.5384 5.64703 14.4675 5.59274 14.3913 5.54963C14.3232 5.51106 14.2508 5.48145 14.1741 5.46079C14.0855 5.43694 13.9913 5.42502 13.8913 5.42502H10.8913C10.608 5.42502 10.3705 5.52085 10.1788 5.71252C9.98718 5.90419 9.89135 6.14169 9.89135 6.42502C9.89135 6.56418 9.91447 6.69229 9.9607 6.80934C10.0086 6.9306 10.0813 7.03999 10.1788 7.13752C10.3705 7.32919 10.608 7.42502 10.8913 7.42502H11.4663L8.19135 10.7L5.59135 8.52502C5.39135 8.35835 5.16218 8.27918 4.90385 8.28752C4.64551 8.29585 4.42468 8.39168 4.24134 8.57502L1.66966 11.1467C1.55846 10.6153 1.5 10.0645 1.5 9.5C1.5 5.08172 5.08172 1.5 9.5 1.5C13.9183 1.5 17.5 5.08172 17.5 9.5Z" fill="black"/>
</svg>
