<svg width="18.75" height="12.5" viewBox="0 0 18.75 12.5" fill="none" xmlns="http://www.w3.org/2000/svg">
<path d="M1.04167 12.5H17.7083C18.2812 12.5 18.75 12.0312 18.75 11.4583C18.75 10.8854 18.2812 10.4167 17.7083 10.4167H1.04167C0.46875 10.4167 0 10.8854 0 11.4583C0 12.0312 0.46875 12.5 1.04167 12.5ZM1.04167 7.29167H17.7083C18.2812 7.29167 18.75 6.82292 18.75 6.25C18.75 5.67708 18.2812 5.20833 17.7083 5.20833H1.04167C0.46875 5.20833 0 5.67708 0 6.25C0 6.82292 0.46875 7.29167 1.04167 7.29167ZM0 1.04167C0 1.61458 0.46875 2.08333 1.04167 2.08333H17.7083C18.2812 2.08333 18.75 1.61458 18.75 1.04167C18.75 0.46875 18.2812 0 17.7083 0H1.04167C0.46875 0 0 0.46875 0 1.04167Z" fill="white"/>
</svg>
