<svg width="98.46454620361328" height="15.945378303527832" viewBox="0 0 98.46454620361328 15.945378303527832" fill="none" xmlns="http://www.w3.org/2000/svg">
<path fill-rule="evenodd" clip-rule="evenodd" d="M82.4734 4.0364H83.7738V5.98785H83.8417C84.5821 4.59696 85.7931 3.69986 87.6314 3.69986C89.1564 3.69986 90.5252 4.44027 90.9517 5.96578C91.6469 4.44027 93.1046 3.69986 94.6295 3.69986C97.1641 3.69986 98.4645 5.02344 98.4645 7.75944V15.6094H97.0521V7.8273C97.0521 5.92054 96.3343 4.88827 94.315 4.88827C91.8709 4.88827 91.1757 6.90758 91.1757 9.0604V15.6094H89.7622V7.75944C89.7848 6.18978 89.1349 4.88827 87.3407 4.88827C84.896 4.88827 83.9084 6.72716 83.8858 9.15033V15.6094H82.4734V4.0364ZM55.3484 15.5509V13.5801H56.9109V15.5509H55.3484ZM66.9357 7.67006C66.5539 5.94316 65.5001 4.88827 63.6607 4.88827C60.9473 4.88827 59.6017 7.35558 59.6017 9.82233C59.6017 12.2902 60.9473 14.757 63.6607 14.757C65.4108 14.757 66.8463 13.3892 67.0251 11.4604H68.4375C68.0574 14.2417 66.2406 15.9454 63.6607 15.9454C60.1175 15.9454 58.1887 13.1426 58.1887 9.82233C58.1887 6.50371 60.1175 3.69986 63.6607 3.69986C66.1286 3.69986 68.0348 5.02344 68.3481 7.67006H66.9357ZM71.2414 9.82233C71.2414 12.2902 72.5876 14.757 75.3021 14.757C78.0154 14.757 79.3611 12.2902 79.3611 9.82233C79.3611 7.35558 78.0154 4.88827 75.3021 4.88827C72.5876 4.88827 71.2414 7.35558 71.2414 9.82233ZM80.7741 9.82233C80.7741 13.1426 78.8452 15.9454 75.3021 15.9454C71.7578 15.9454 69.829 13.1426 69.829 9.82233C69.829 6.50371 71.7578 3.69986 75.3021 3.69986C78.8452 3.69986 80.7741 6.50371 80.7741 9.82233ZM4.04414 11.6276C4.67034 12.2742 5.65959 12.6284 6.71228 12.6273C7.76441 12.6295 8.75421 12.2742 9.37986 11.6276C10.1468 10.8463 10.3923 10.0651 10.389 8.41544L10.3906 0H13.4234V9.20275C13.4207 11.1266 12.8557 12.6146 11.6943 13.7495C10.3846 15.0328 8.77793 15.6331 6.71228 15.6381C4.64552 15.6331 3.04 15.0328 1.73021 13.7495C0.568828 12.6146 0.00331034 11.1266 0 9.20385V0H3.03338L3.03559 8.41544C3.03228 10.0651 3.27779 10.8463 4.04414 11.6276ZM26.7349 2.86179H19.0516V6.36523H26.0828V9.18454H19.0516V10.6621C19.0516 12.2891 19.6188 12.6891 21.0786 12.6891H26.7349V15.5509H20.9081C18.2074 15.5509 16.0182 14.3399 16.0182 10.9876V1.13986C16.0182 0.417102 16.4966 0 17.1592 0H26.7349V2.86179ZM31.8698 9.18454L31.8748 15.5509H29.9774C29.3142 15.5509 28.837 15.1338 28.837 14.4099V4.56385C28.837 1.21159 31.0257 0 33.7258 0H39.5525V2.86179H33.8968C32.4364 2.86179 31.8698 3.26179 31.8698 4.88937L31.8692 6.36523H38.9015V9.18454H31.8698ZM45.9454 0.00441378C46.8386 0.00441378 47.1349 0.472827 47.3269 1.01517L53.0251 15.5531L49.7694 15.5542L48.6477 12.6941H44.9379L45.952 9.83116H47.5261L45.5305 4.74151L41.7015 15.5542L38.6654 15.5531L43.8146 1.01517C44.0061 0.473378 44.3018 0.00441378 45.1961 0.00441378H45.9454Z" fill="black"/>
</svg>
