<svg width="6.165811538696289" height="2.2349853515625" viewBox="0 0 6.165811538696289 2.2349853515625" fill="none" xmlns="http://www.w3.org/2000/svg">
<path d="M5.79041 1.63084C5.79041 1.46992 5.76057 1.34647 5.70033 1.26047C5.64509 1.17962 5.56985 1.13891 5.4745 1.13891C5.35138 1.13891 5.26948 1.1925 5.2291 1.2992C5.21002 1.34917 5.20067 1.41846 5.20067 1.50644C5.20067 1.73416 5.24339 1.89562 5.32975 1.99052C5.37852 2.04411 5.43996 2.0708 5.51368 2.0708C5.69832 2.0708 5.79041 1.92465 5.79041 1.63084ZM6.16581 1.45941C6.16581 1.75815 6.05956 1.98153 5.84834 2.13071C5.74829 2.2 5.62404 2.23499 5.4745 2.23499C5.26268 2.23499 5.09768 2.15773 4.9781 2.004C4.85582 1.84883 4.79439 1.62931 4.79439 1.3459C4.79439 1.07184 4.84414 0.845077 4.94243 0.664774C5.04715 0.473328 5.18429 0.322023 5.35339 0.210049C5.52713 0.095619 5.72256 0.037086 5.93704 0.037086L6.05956 0.138665L6.01133 0.191447C5.97412 0.185127 5.93902 0.18279 5.90544 0.18279C5.74571 0.18279 5.60588 0.240814 5.48537 0.35854C5.43178 0.410722 5.38415 0.478122 5.34401 0.558643C5.27766 0.694012 5.2332 0.878537 5.21002 1.11468C5.34868 0.9841 5.43271 0.914245 5.46045 0.902892C5.52713 0.874465 5.60438 0.860296 5.69248 0.860296C5.82668 0.860296 5.93704 0.91038 6.02421 1.00983C6.11842 1.11794 6.16581 1.26796 6.16581 1.45941ZM4.53602 1.44419C4.53602 1.66523 4.44454 1.85245 4.25989 2.00529C4.07593 2.15797 3.86028 2.23499 3.61198 2.23499C3.48033 2.23499 3.35397 2.20596 3.2325 2.14931C3.21378 1.96841 3.18862 1.81654 3.15702 1.69156L3.16696 1.66909L3.24419 1.64639L3.26327 1.65412C3.3659 1.91623 3.53089 2.04776 3.75673 2.04776C3.87373 2.04776 3.96794 2.01008 4.0393 1.9333C4.11044 1.85689 4.14579 1.753 4.14579 1.6203C4.14579 1.48855 4.10718 1.38637 4.02878 1.31478C3.95506 1.24645 3.85618 1.21203 3.73132 1.21203C3.6748 1.21203 3.61279 1.22186 3.54704 1.24046L3.52772 1.22012C3.55114 1.14616 3.57067 1.06789 3.58706 0.983142H3.71437C3.80681 0.983142 3.88661 0.950161 3.95425 0.884049C4.02177 0.818626 4.05568 0.739873 4.05568 0.649078C4.05568 0.562596 4.02585 0.4931 3.96561 0.43882C3.90626 0.384631 3.83197 0.35854 3.74268 0.35854C3.60144 0.35854 3.50573 0.394456 3.45459 0.467368C3.43084 0.501188 3.40837 0.550913 3.38671 0.614689L3.36916 0.666153L3.34753 0.679963L3.26794 0.673642L3.25239 0.653302L3.30715 0.400208C3.32261 0.328584 3.33348 0.258487 3.34109 0.189559C3.47625 0.0883391 3.64532 0.037086 3.8501 0.037086C4.02327 0.037086 4.16137 0.0799222 4.26339 0.165116C4.36144 0.248063 4.41024 0.356442 4.41024 0.490404C4.41024 0.683018 4.295 0.839924 4.06446 0.959746C4.1809 0.959746 4.28622 0.999649 4.3804 1.07864C4.48432 1.16408 4.53602 1.28692 4.53602 1.44419ZM2.54925 0.765635C2.54925 0.573949 2.52094 0.43166 2.46525 0.339337C2.40909 0.246774 2.33291 0.201032 2.23648 0.201032C2.11678 0.201032 2.03581 0.265736 1.99354 0.395743C1.97087 0.46524 1.95963 0.546331 1.95963 0.64135C1.95963 0.802241 1.98899 0.925598 2.04821 1.0116C2.1039 1.09245 2.1802 1.13316 2.27509 1.13316C2.39785 1.13316 2.47975 1.07864 2.52094 0.969932C2.53954 0.919966 2.54925 0.851637 2.54925 0.765635ZM2.95553 0.925928C2.95553 1.20128 2.90602 1.42864 2.80716 1.60894C2.70337 1.79943 2.56635 1.94981 2.39516 2.06214C2.21893 2.17717 2.0255 2.23499 1.81465 2.23499L1.69189 2.13317L1.72897 2.07233C1.76046 2.08425 1.79874 2.08964 1.8446 2.08964C2.00597 2.08964 2.14766 2.03009 2.26937 1.90967C2.31733 1.86171 2.36274 1.79769 2.40393 1.71648C2.47049 1.58881 2.51627 1.40252 2.54095 1.15775C2.38695 1.2998 2.30083 1.372 2.28327 1.37433C2.21458 1.39926 2.14053 1.41154 2.06214 1.41154C1.92405 1.41154 1.81147 1.36052 1.72454 1.25906C1.63057 1.15026 1.58471 1.00142 1.58471 0.812097C1.58471 0.509246 1.69084 0.285508 1.90323 0.140194C2.00433 0.0716252 2.12813 0.037086 2.27509 0.037086C2.55347 0.037086 2.751 0.166853 2.86836 0.42513C2.92627 0.552651 2.95553 0.719174 2.95553 0.925928ZM1.34449 2.16126L1.32751 2.17987C1.18252 2.17085 1.00525 2.16639 0.79544 2.16639C0.590784 2.16639 0.375852 2.17085 0.149538 2.17987L0.132463 2.16336V2.0681L0.150946 2.05256C0.204057 2.04624 0.255671 2.04177 0.305158 2.03698C0.394335 2.03009 0.45155 2.02083 0.476234 2.01065C0.494387 2.00223 0.508765 1.98282 0.521646 1.95367C0.541177 1.90452 0.551002 1.7069 0.551002 1.36145V0.974485C0.551002 0.857958 0.549025 0.711086 0.544442 0.532311L0.541776 0.415515C0.541776 0.363691 0.530992 0.3376 0.508765 0.3376C0.499988 0.3376 0.469104 0.349522 0.417041 0.373876C0.275321 0.43882 0.153043 0.496604 0.0514642 0.54612L0.0328608 0.535576C0.0267798 0.476025 0.0153073 0.410362 0 0.3376L0.00149741 0.325319C0.288202 0.244439 0.608338 0.135968 0.961843 0L0.994495 0.0236349C0.990272 0.0844748 0.985119 0.175301 0.97742 0.295932C0.974245 0.341464 0.971219 0.463953 0.968164 0.662888L0.96349 1.27428C0.96349 1.71226 0.97062 1.94747 0.985717 1.9794C0.995543 2.00316 1.01088 2.01814 1.03146 2.0226C1.06926 2.03335 1.16662 2.0433 1.32436 2.05079L1.34449 2.06637V2.16126Z" fill="white"/>
</svg>
