<svg width="4.744569778442383" height="4.334636688232422" viewBox="0 0 4.744569778442383 4.334636688232422" fill="none" xmlns="http://www.w3.org/2000/svg">
<path d="M4.1548 3.85712L2.88523 2.53219L3.7915 1.58565L4.64041 2.40754L4.74457 1.46817L4.30833 1.04574L4.4306 0.918425C4.52517 0.819901 4.52131 0.662425 4.42303 0.567736L4.36312 0.510191C4.26423 0.415501 4.10625 0.418796 4.01207 0.517679L3.89236 0.642864L3.22831 -1.14441e-05L2.70816 0.537211L3.37491 1.18266L2.48385 2.11314L1.59256 1.18299L2.25979 0.537211L1.73955 -1.14441e-05L1.07558 0.642864L0.955881 0.517679C0.860981 0.418796 0.703387 0.415501 0.604863 0.510191L0.544473 0.567736C0.446069 0.662425 0.442442 0.819901 0.536743 0.918425L0.659022 1.04574L0 1.68418L0.520117 2.22149L1.17647 1.58622L2.08251 2.53219L0.813023 3.85712C0.718244 3.956 0.721869 4.11384 0.820393 4.20817L0.880663 4.26596C0.979067 4.36064 1.13678 4.35678 1.2318 4.25826L2.48385 2.95097L3.73615 4.25826C3.83069 4.35678 3.98831 4.36064 4.08719 4.26596L4.14722 4.20817C4.24551 4.11384 4.24925 3.956 4.1548 3.85712Z" fill="white"/>
</svg>
