<svg width="22.48118019104004" height="21.92625617980957" viewBox="0 0 22.48118019104004 21.92625617980957" fill="none" xmlns="http://www.w3.org/2000/svg">
<path d="M11.2408 21.6728C15.0116 16.3171 14.6655 8.87464 11.2408 5.19101C7.8157 8.87464 7.47016 16.3171 11.2408 21.6728ZM11.0635 21.9263C4.9382 21.831 0 16.8356 0 10.6878C0 5.69845 3.25296 1.46783 7.75273 1.33514e-05C5.03825 2.11847 3.23238 5.87489 3.23238 10.1558C3.23238 16.0077 6.60553 20.8799 11.0635 21.9263ZM11.4181 21.9263C17.5434 21.831 22.4812 16.8356 22.4812 10.6878C22.4812 5.69845 19.2282 1.46783 14.7284 1.33514e-05C17.4428 2.11847 19.2486 5.87489 19.2486 10.1558C19.2486 16.0077 15.8757 20.8799 11.4181 21.9263Z" fill="#F0612C"/>
</svg>
