<svg width="4.279018402099609" height="6.00213623046875" viewBox="0 0 4.279018402099609 6.00213623046875" fill="none" xmlns="http://www.w3.org/2000/svg">
<path d="M1.13352 2.79384L2.2859 2.53349C2.58546 2.46526 2.81941 2.33911 2.98507 2.15554C3.15252 1.97066 3.24149 1.75594 3.25437 1.50905C3.26635 1.28612 3.20344 1.11306 3.06625 0.985991C2.92785 0.860538 2.66694 0.841335 2.28471 0.927936L1.22009 1.16818L1.13352 2.79384ZM0.973854 5.78154L0 6.00214L0.289671 0.576768L2.50249 0.0771394C3.13335 -0.0648198 3.59227 -0.0108685 3.88044 0.2392C4.16711 0.489029 4.29952 0.832108 4.27645 1.2661C4.25009 1.76247 4.06347 2.20129 3.71748 2.58241C3.37149 2.96491 2.94463 3.21229 2.43808 3.32672L1.08888 3.63223L0.973854 5.78154Z" fill="#222324"/>
</svg>
