<svg width="15" height="19" viewBox="0 0 15 19" fill="none" xmlns="http://www.w3.org/2000/svg">
<path d="M4.5 15.25H10.5C10.7128 15.25 10.891 15.1782 11.0345 15.0345C11.1782 14.891 11.25 14.7128 11.25 14.5C11.25 14.2872 11.1782 14.109 11.0345 13.9655C10.891 13.8218 10.7128 13.75 10.5 13.75H4.5C4.28717 13.75 4.109 13.8218 3.9655 13.9655C3.82183 14.109 3.75 14.2872 3.75 14.5C3.75 14.7128 3.82183 14.891 3.9655 15.0345C4.109 15.1782 4.28717 15.25 4.5 15.25ZM4.5 11.25H10.5C10.7128 11.25 10.891 11.1782 11.0345 11.0345C11.1782 10.891 11.25 10.7128 11.25 10.5C11.25 10.2872 11.1782 10.109 11.0345 9.9655C10.891 9.82183 10.7128 9.75 10.5 9.75H4.5C4.28717 9.75 4.109 9.82183 3.9655 9.9655C3.82183 10.109 3.75 10.2872 3.75 10.5C3.75 10.7128 3.82183 10.891 3.9655 11.0345C4.109 11.1782 4.28717 11.25 4.5 11.25ZM1.80775 19C1.30258 19 0.875 18.825 0.525 18.475C0.175 18.125 0 17.6974 0 17.1923V1.80775C0 1.30258 0.175 0.875 0.525 0.525C0.875 0.175 1.30258 0 1.80775 0H9.002C9.243 0 9.47475 0.0468332 9.69725 0.1405C9.91958 0.234 10.1128 0.362834 10.277 0.527L14.473 4.723C14.6372 4.88717 14.766 5.08042 14.8595 5.30275C14.9532 5.52525 15 5.757 15 5.998V17.1923C15 17.6974 14.825 18.125 14.475 18.475C14.125 18.825 13.6974 19 13.1923 19H1.80775ZM9 5.096V1.5H1.80775C1.73075 1.5 1.66025 1.53208 1.59625 1.59625C1.53208 1.66025 1.5 1.73075 1.5 1.80775V17.1923C1.5 17.2693 1.53208 17.3398 1.59625 17.4038C1.66025 17.4679 1.73075 17.5 1.80775 17.5H13.1923C13.2692 17.5 13.3398 17.4679 13.4038 17.4038C13.4679 17.3398 13.5 17.2693 13.5 17.1923V6H9.904C9.64617 6 9.43108 5.91375 9.25875 5.74125C9.08625 5.56892 9 5.35383 9 5.096Z" fill="black"/>
</svg>
