<svg width="54" height="54" viewBox="0 0 54 54" fill="none" xmlns="http://www.w3.org/2000/svg">
<path fill-rule="evenodd" clip-rule="evenodd" d="M26.6667 0C11.9467 0 0 11.9467 0 26.6667C0 41.3867 11.9467 53.3333 26.6667 53.3333C41.3867 53.3333 53.3333 41.3867 53.3333 26.6667C53.3333 11.9467 41.3867 0 26.6667 0ZM26.6667 48C14.9067 48 5.33333 38.4267 5.33333 26.6667C5.33333 14.9067 14.9067 5.33333 26.6667 5.33333C38.4267 5.33333 48 14.9067 48 26.6667C48 38.4267 38.4267 48 26.6667 48ZM22.7797 16.1871L35.9104 25.5392C36.5331 25.9827 36.6784 26.8472 36.2349 27.4699C36.1456 27.5955 36.036 27.7051 35.9104 27.7944L22.78 37.1461C22.1571 37.5899 21.2926 37.4445 20.8491 36.8216C20.682 36.5872 20.5923 36.3064 20.5923 36.0184L20.5921 17.3148C20.592 16.5501 21.2119 15.9303 21.9765 15.9303C22.2645 15.9303 22.5451 16.0201 22.7797 16.1871Z" fill="white"/>
</svg>
