<svg width="20" height="19.89999771118164" viewBox="0 0 20 19.89999771118164" fill="none" xmlns="http://www.w3.org/2000/svg"><path d="M 20 19.89999771118164 L 16 19.89999771118164 L 16 12.89999771118164 C 16 10.999997735023499 15.200000405311584 9.89999771118164 13.600000381469727 9.89999771118164 C 11.90000033378601 9.89999771118164 11 10.999997735023499 11 12.89999771118164 L 11 19.89999771118164 L 7 19.89999771118164 L 7 6.899997711181641 L 11 6.899997711181641 L 11 8.39999771118164 C 11 8.39999771118164 12.300000429153442 6.200000762939453 15.100000381469727 6.200000762939453 C 17.90000033378601 6.200000762939453 20 7.899996280670166 20 11.499996185302734 L 20 19.89999771118164 Z M 2.4000000953674316 4.799999237060547 C 2.1000000834465027 4.799999237060547 1.800000011920929 4.69999847561121 1.5 4.599998474121094 C 1.199999988079071 4.499998472630978 0.8999999910593033 4.299998477101326 0.699999988079071 4.099998474121094 C 0.4999999850988388 3.8999984711408615 0.30000000447034836 3.599999248981476 0.20000000298023224 3.299999237060547 C 0.10000000149011612 2.999999225139618 0 2.6999977231025696 0 2.3999977111816406 C 0 2.0999976992607117 0.10000000149011612 1.800000011920929 0.20000000298023224 1.5 C 0.30000000447034836 1.199999988079071 0.4999999850988388 0.9000007659196854 0.699999988079071 0.7000007629394531 C 0.8999999910593033 0.5000007599592209 1.199999988079071 0.30000076442956924 1.5 0.20000076293945312 C 1.800000011920929 0.100000761449337 2.1000000834465027 0 2.4000000953674316 0 C 3.0000001192092896 0 3.699999898672104 0.30000075697898865 4.099999904632568 0.7000007629394531 C 4.599999904632568 1.2000007629394531 4.800000190734863 1.7999976873397827 4.800000190734863 2.3999977111816406 C 4.800000190734863 2.6999977231025696 4.6999999061226845 2.999999225139618 4.599999904632568 3.299999237060547 C 4.499999903142452 3.599999248981476 4.299999907612801 3.8999984711408615 4.099999904632568 4.099998474121094 C 3.899999901652336 4.299998477101326 3.599999964237213 4.499998472630978 3.299999952316284 4.599998474121094 C 3.099999949336052 4.799998477101326 2.800000101327896 4.799999237060547 2.4000000953674316 4.799999237060547 Z M 5.551115123125783e-17 19.89999771118164 L 5 19.89999771118164 L 5 6.899997711181641 L 5.551115123125783e-17 6.899997711181641 L 5.551115123125783e-17 19.89999771118164 Z" fill="black" fill-rule="evenodd" clip-rule="evenodd" stroke="none" /></svg>