<svg width="32" height="18" viewBox="0 0 32 18" fill="none" xmlns="http://www.w3.org/2000/svg">
<path d="M0.457674 9.88052L8.23813 17.6569C8.69581 18.1143 9.51962 18.1143 9.97729 17.6569C10.435 17.108 10.435 16.3761 9.97729 15.9187L4.30214 10.2465H29.7488C30.4811 10.2465 31.0303 9.69762 31.0303 8.9657C31.0303 8.2338 30.4811 7.68488 29.7488 7.68488H4.30214L9.97729 2.1042C10.435 1.55528 10.435 0.823377 9.97729 0.365947C9.70269 0.0914879 9.33655 0 9.06195 0C8.78734 0 8.42121 0.0914879 8.1466 0.365947L0.36614 8.14231C0.091536 8.41677 0 8.69123 0 9.05718C0 9.42312 0.183069 9.60612 0.457674 9.88052Z" fill="#6F2C91"/>
</svg>
