<svg width="20" height="20" viewBox="0 0 20 20" fill="none" xmlns="http://www.w3.org/2000/svg">
<path fill-rule="evenodd" clip-rule="evenodd" d="M20 20H16V13C16 11.1 15.2 10 13.6 10C12 10 11 11.1 11 13V20H7V7H11V8.5C11 8.5 12.3 6.3 15.1 6.3C17.9 6.3 20 8 20 11.6V20ZM2.4 4.9C2.1 4.9 1.8 4.8 1.5 4.7C1.2 4.6 0.9 4.4 0.7 4.2C0.5 4 0.3 3.7 0.2 3.4C0.1 3.1 0 2.8 0 2.5C0 2.2 0.1 1.9 0.2 1.6C0.3 1.3 0.5 1 0.7 0.8C0.9 0.6 1.2 0.4 1.5 0.3C1.8 0.1 2.1 0 2.4 0C3 0 3.7 0.3 4.1 0.7C4.6 1.2 4.8 1.8 4.8 2.4C4.8 2.7 4.7 3 4.6 3.3C4.5 3.6 4.3 3.9 4.1 4.1C3.9 4.3 3.6 4.5 3.3 4.6C3.1 4.9 2.8 4.9 2.4 4.9ZM0 20H5V7H0V20Z" fill="#009FE3"/>
</svg>
