<svg width="32" height="18" viewBox="0 0 32 18" fill="none" xmlns="http://www.w3.org/2000/svg">
<path d="M30.5726 8.11948L22.7921 0.343082C22.3345 -0.114317 21.5107 -0.114317 21.053 0.343082C20.5953 0.891983 20.5953 1.62388 21.053 2.08128L26.7281 7.75348H1.28148C0.549183 7.75348 -1.71661e-05 8.30238 -1.71661e-05 9.0343C-1.71661e-05 9.7662 0.549183 10.3151 1.28148 10.3151H26.7281L21.053 15.8958C20.5953 16.4447 20.5953 17.1766 21.053 17.6341C21.3276 17.9085 21.6937 18 21.9683 18C22.2429 18 22.6091 17.9085 22.8837 17.6341L30.6641 9.85769C30.9387 9.58323 31.0303 9.30877 31.0303 8.94282C31.0303 8.57688 30.8472 8.39388 30.5726 8.11948Z" fill="#FAA21B"/>
</svg>
