<svg width="873" height="838" viewBox="0 0 873 838" fill="none" xmlns="http://www.w3.org/2000/svg">
<path fill-rule="evenodd" clip-rule="evenodd" d="M872.729 348.305C864.965 107.098 686.489 -93.944 454.11 -139.081C395.686 -122.361 341 -102.567 311.248 -82.671C638.874 -10 763.231 231.654 675.534 398.31C660.599 426.695 621.148 421.11 634.49 365.114C656.932 270.926 553.479 188.968 470.419 243.827C381.773 302.375 431.189 419.441 519.25 434.225C557.33 440.618 572.232 459.079 559.126 474.08C535.544 501.075 150.068 432.759 21.554 114.839C-12.679 158.032 -40.046 206.814 -59 259.557C-10.989 374.434 117.859 489.329 222.572 537.251C430.125 632.245 498.518 694.269 559.761 837.101C748.868 756.299 879.77 567.029 872.729 348.306V348.305Z" fill="black" fill-opacity="0.02"/>
</svg>
