<svg width="3.1999995708465576" height="4.400001049041748" viewBox="0 0 3.1999995708465576 4.400001049041748" fill="none" xmlns="http://www.w3.org/2000/svg"><path d="M 0 0 L 0 4.400001049041748 L 0.7999998927116394 4.400001049041748 L 0.7999998927116394 2.8224097305319447 L 1.810896058409412 2.8224097305319447 C 2.0620982265638332 2.8224097305319447 2.27580426212786 2.7823540526278947 2.452020697769683 2.7022415881731376 C 2.628237133411506 2.6221291237183806 2.7716453173039675 2.516341141781936 2.8822492548786585 2.384874531000605 C 2.9928531924533495 2.2534079202192743 3.0734616330093383 2.1024290448256835 3.1240769964948782 1.9319332914192273 C 3.174692359980418 1.7614375380127711 3.1999995708465576 1.5878631205231528 3.1999995708465576 1.4112048652659723 C 3.1999995708465576 1.2304382754416423 3.174692359980418 1.0558367981521002 3.1240769964948782 0.8873952120292188 C 3.0734616330093383 0.7189536259063374 2.9928531924533495 0.569001714945216 2.8822492548786585 0.4375351041638851 C 2.7716453173039675 0.30606849338255415 2.628237133411506 0.2002805591298369 2.452020697769683 0.12016809467507983 C 2.27580426212786 0.04005563022032277 2.0620982265638332 0 1.810896058409412 0 L 0 0 Z" fill="black" fill-rule="evenodd" clip-rule="evenodd" stroke="none" /></svg>