<svg width="464" height="35" viewBox="0 0 464 35" fill="none" xmlns="http://www.w3.org/2000/svg">
<rect x="168.997" y="1" width="125.001" height="33.968" fill="#14144D"/>
<path d="M272.46 34.9668H464V0.998817H272.46L266.999 21.979L272.46 34.9668Z" fill="#0232FF"/>
<path d="M191.54 34.9668L-7.62939e-05 34.9668L-7.33216e-05 0.998819L191.54 0.998836L197.001 21.979L191.54 34.9668Z" fill="#0232FF"/>
<rect width="233.221" height="1" transform="matrix(1 0 0 -1 0.000976562 1)" fill="url(#paint0_linear_5037_14817)"/>
<rect width="235.001" height="0.999058" transform="matrix(-1 0 0 1 463.999 0)" fill="url(#paint1_linear_5037_14817)"/>
<path d="M88.4724 26L93.7744 12.47L95.6664 12.008L101.1 26H98.0864L96.7224 22.348H92.3004L90.9364 26H88.4724ZM93.0484 20.258H95.9304L94.4784 16.386L93.0484 20.258ZM104.264 26.242C103.648 26.242 102.592 26 102.196 25.802L101.822 23.712C102.812 23.998 103.362 24.086 104 24.086C104.88 24.086 105.298 23.646 105.298 22.568V12.206H108.048V22.084C108.048 24.856 106.926 26.242 104.264 26.242ZM109.677 26L114.979 12.47L116.871 12.008L122.305 26H119.291L117.927 22.348H113.505L112.141 26H109.677ZM114.253 20.258H117.135L115.683 16.386L114.253 20.258ZM122.829 26L127.031 18.784L123.071 12.206H126.195L129.055 17.068L131.761 12.206H134.335L130.353 19.004L134.533 26H131.409L128.285 20.83L125.403 26H122.829Z" fill="white"/>
<path d="M316.457 26V12.206H320.527C324.267 12.206 325.543 13.438 325.543 15.638C325.543 17.068 324.751 18.124 323.167 18.41V18.498C325.367 18.608 326.599 20.082 326.599 21.952C326.599 24.306 325.169 26 321.011 26H316.457ZM319.207 17.64H320.351C322.089 17.64 322.727 17.024 322.727 15.99C322.727 14.956 322.089 14.384 320.351 14.384H319.207V17.64ZM319.207 23.822H321.033C322.881 23.822 323.629 23.14 323.629 21.842C323.629 20.544 322.881 19.862 320.923 19.862H319.207V23.822ZM328.703 26V12.206H337.173L336.513 14.384H331.453V18.168H336.095L335.589 20.346H331.453V23.822H337.437L336.931 26H328.703ZM339.467 26V12.206H341.359L348.135 21.402V12.206H350.489V26H348.487L341.821 17.288V26H339.467ZM353.432 26V12.206H361.902L361.242 14.384H356.182V18.168H360.824L360.318 20.346H356.182V26H353.432ZM363.574 26V12.206H366.324V26H363.574ZM374.941 26.242C370.893 26.242 368.539 23.184 368.539 19.092C368.539 15.242 370.893 11.92 375.007 11.92C376.591 11.92 378.153 12.338 378.901 12.844L378.747 15.154C377.823 14.56 376.591 14.186 375.381 14.186C374.435 14.186 373.511 14.472 372.873 15.066C371.905 15.946 371.509 17.398 371.509 18.916C371.509 22.106 372.785 23.998 375.381 23.998C376.877 23.998 378.021 23.646 379.011 23.074L379.231 25.23C378.241 25.824 376.657 26.242 374.941 26.242ZM380.193 26L385.495 12.47L387.387 12.008L392.821 26H389.807L388.443 22.348H384.021L382.657 26H380.193ZM384.769 20.258H387.651L386.199 16.386L384.769 20.258Z" fill="white"/>
<path d="M227.787 25L223.827 14.528H225.807L228.469 22.052L231.153 14.528H232.737L228.887 25H227.787ZM237.174 25.242C235.81 25.242 234.864 24.978 234.138 24.67L234.204 23.284C235.172 23.702 236.206 23.944 236.998 23.944C238.252 23.944 239.154 23.46 239.154 22.602C239.154 21.788 238.714 21.326 237.042 20.534C235.15 19.61 233.984 18.796 233.984 17.168C233.984 15.584 235.348 14.33 237.372 14.33C238.45 14.33 239.33 14.528 240.1 14.858L239.99 16.156C239.132 15.782 238.252 15.562 237.592 15.562C236.646 15.562 235.722 15.87 235.722 16.816C235.722 17.476 236.14 17.872 237.35 18.51L237.856 18.774C239.198 19.478 240.76 20.358 240.76 22.184C240.76 23.086 240.408 23.856 239.836 24.362C239.22 24.934 238.164 25.242 237.174 25.242Z" fill="white"/>
<defs>
<linearGradient id="paint0_linear_5037_14817" x1="0" y1="1.00002" x2="233.221" y2="1.00002" gradientUnits="userSpaceOnUse">
<stop stop-color="#5AF7DD"/>
<stop offset="1" stop-color="#5AF7DD" stop-opacity="0"/>
</linearGradient>
<linearGradient id="paint1_linear_5037_14817" x1="0" y1="0.999081" x2="235.001" y2="0.999081" gradientUnits="userSpaceOnUse">
<stop stop-color="#5AF7DD"/>
<stop offset="1" stop-color="#5AF7DD" stop-opacity="0"/>
</linearGradient>
</defs>
</svg>
