<svg width="20.00686264038086" height="16.54624366760254" viewBox="0 0 20.00686264038086 16.54624366760254" fill="none" xmlns="http://www.w3.org/2000/svg">
<path d="M13.7914 11.9851L15.1244 13.489L18.1184 13.489C19.3232 13.489 20.0068 12.814 20.0068 11.6091L20.0069 1.87134C20.0069 0.675051 19.3233 2.59313e-06 18.1184 2.59313e-06L1.88841 0C0.734844 0 -1.9366e-05 0.675049 -1.9366e-05 1.87134L-6.54683e-05 11.6091C-6.54683e-05 12.814 0.683528 13.489 1.88836 13.489H4.89609L6.22056 11.9851H2.28997C1.83709 11.9851 1.58075 11.7288 1.58075 11.2759L1.58079 2.21313C1.58079 1.75171 1.83714 1.49536 2.29002 1.49536L17.7168 1.49536C18.1697 1.49536 18.4261 1.75171 18.4261 2.21314L18.426 11.2759C18.426 11.7288 18.1697 11.9851 17.7168 11.9851L13.7914 11.9851ZM15.3124 16.5462C15.7226 16.5462 15.8935 16.1019 15.62 15.8114L10.3905 9.88121C10.1769 9.66759 9.8351 9.66759 9.62148 9.88121L4.39199 15.8114C4.11855 16.1019 4.28945 16.5462 4.69961 16.5462H15.3124Z" fill="black"/>
</svg>
