<svg width="19" height="19" viewBox="0 0 19 19" fill="none" xmlns="http://www.w3.org/2000/svg">
<path d="M0.75 4.525C0.533333 4.525 0.354333 4.454 0.213 4.312C0.0710001 4.17067 0 3.99167 0 3.775V0.875C0 0.625 0.0833333 0.416667 0.25 0.25C0.416667 0.0833333 0.625 0 0.875 0H3.775C3.99167 0 4.17067 0.0706666 4.312 0.212C4.454 0.354 4.525 0.533333 4.525 0.75C4.525 0.966667 4.454 1.14567 4.312 1.287C4.17067 1.429 3.99167 1.5 3.775 1.5H1.5V3.775C1.5 3.99167 1.42933 4.17067 1.288 4.312C1.146 4.454 0.966667 4.525 0.75 4.525ZM0.875 19C0.625 19 0.416667 18.9167 0.25 18.75C0.0833333 18.5833 0 18.375 0 18.125V15.225C0 15.0083 0.0710001 14.8293 0.213 14.688C0.354333 14.546 0.533333 14.475 0.75 14.475C0.966667 14.475 1.146 14.546 1.288 14.688C1.42933 14.8293 1.5 15.0083 1.5 15.225V17.5H3.775C3.99167 17.5 4.17067 17.5707 4.312 17.712C4.454 17.854 4.525 18.0333 4.525 18.25C4.525 18.4667 4.454 18.646 4.312 18.788C4.17067 18.9293 3.99167 19 3.775 19H0.875ZM15.225 19C15.0083 19 14.8293 18.9293 14.688 18.788C14.546 18.646 14.475 18.4667 14.475 18.25C14.475 18.0333 14.546 17.854 14.688 17.712C14.8293 17.5707 15.0083 17.5 15.225 17.5H17.5V15.225C17.5 15.0083 17.5707 14.8293 17.712 14.688C17.854 14.546 18.0333 14.475 18.25 14.475C18.4667 14.475 18.646 14.546 18.788 14.688C18.9293 14.8293 19 15.0083 19 15.225V18.125C19 18.375 18.9167 18.5833 18.75 18.75C18.5833 18.9167 18.375 19 18.125 19H15.225ZM18.25 4.525C18.0333 4.525 17.854 4.454 17.712 4.312C17.5707 4.17067 17.5 3.99167 17.5 3.775V1.5H15.225C15.0083 1.5 14.8293 1.429 14.688 1.287C14.546 1.14567 14.475 0.966667 14.475 0.75C14.475 0.533333 14.546 0.354 14.688 0.212C14.8293 0.0706666 15.0083 0 15.225 0H18.125C18.375 0 18.5833 0.0833333 18.75 0.25C18.9167 0.416667 19 0.625 19 0.875V3.775C19 3.99167 18.9293 4.17067 18.788 4.312C18.646 4.454 18.4667 4.525 18.25 4.525ZM14.725 14.725H16.075V16.075H14.725V14.725ZM14.725 12H16.075V13.375H14.725V12ZM13.375 13.375H14.725V14.725H13.375V13.375ZM12 14.725H13.375V16.075H12V14.725ZM10.65 13.375H12V14.725H10.65V13.375ZM13.375 10.65H14.725V12H13.375V10.65ZM12 12H13.375V13.375H12V12ZM10.65 10.65H12V12H10.65V10.65ZM16.075 2.925V8.35H10.65V2.925H16.075ZM8.35 10.65V16.075H2.925V10.65H8.35ZM8.35 2.925V8.35H2.925V2.925H8.35ZM7.15 14.875V11.85H4.125V14.875H7.15ZM7.15 7.15V4.125H4.125V7.15H7.15ZM14.875 7.15V4.125H11.85V7.15H14.875Z" fill="black"/>
</svg>
