<svg width="18.99995231628418" height="18.99995231628418" viewBox="0 0 18.99995231628418 18.99995231628418" fill="none" xmlns="http://www.w3.org/2000/svg">
<path d="M9.49998 19C8.19741 19 6.96825 18.7503 5.8125 18.2509C4.65673 17.7516 3.64872 17.0718 2.78845 16.2115C1.9282 15.3512 1.2484 14.3432 0.74905 13.1875C0.249683 12.0317 0 10.8025 0 9.49998C0 8.18716 0.249683 6.95543 0.74905 5.8048C1.2484 4.65417 1.9282 3.64872 2.78845 2.78845C3.64872 1.9282 4.65673 1.2484 5.8125 0.749051C6.96825 0.249684 8.19741 0 9.49998 0C10.8128 0 12.0445 0.249684 13.1952 0.749051C14.3458 1.2484 15.3512 1.9282 16.2115 2.78845C17.0718 3.64872 17.7516 4.65417 18.2509 5.8048C18.7503 6.95543 19 8.18716 19 9.49998C19 10.8025 18.7503 12.0317 18.2509 13.1875C17.7516 14.3432 17.0718 15.3512 16.2115 16.2115C15.3512 17.0718 14.3458 17.7516 13.1952 18.2509C12.0445 18.7503 10.8128 19 9.49998 19ZM9.49998 17.4788C10.0102 16.8019 10.4397 16.1192 10.7885 15.4307C11.1372 14.7423 11.4211 13.9897 11.6404 13.173H7.35958C7.59163 14.0153 7.87881 14.7807 8.22113 15.4692C8.56343 16.1577 8.98971 16.8275 9.49998 17.4788ZM7.56348 17.2038C7.18014 16.6538 6.83591 16.0285 6.53078 15.3279C6.22564 14.6272 5.98846 13.9089 5.81922 13.173H2.42688C2.95509 14.2115 3.66343 15.084 4.5519 15.7904C5.44038 16.4968 6.44424 16.9679 7.56348 17.2038ZM11.4365 17.2038C12.5557 16.9679 13.5596 16.4968 14.4481 15.7904C15.3365 15.084 16.0449 14.2115 16.5731 13.173H13.1807C12.9794 13.9153 12.7262 14.6368 12.4211 15.3375C12.116 16.0381 11.7878 16.6602 11.4365 17.2038ZM1.79805 11.6731H5.51538C5.45256 11.3013 5.40705 10.9369 5.37885 10.5798C5.35065 10.2227 5.33655 9.86279 5.33655 9.49998C5.33655 9.13716 5.35065 8.77722 5.37885 8.42015C5.40705 8.0631 5.45256 7.69868 5.51538 7.32688H1.79805C1.7019 7.66663 1.62818 8.01983 1.5769 8.3865C1.52562 8.75317 1.49998 9.12433 1.49998 9.49998C1.49998 9.87563 1.52562 10.2468 1.5769 10.6135C1.62818 10.9801 1.7019 11.3333 1.79805 11.6731ZM7.01535 11.6731H11.9846C12.0474 11.3013 12.0929 10.9401 12.1212 10.5894C12.1494 10.2388 12.1635 9.87563 12.1635 9.49998C12.1635 9.12433 12.1494 8.76118 12.1212 8.41055C12.0929 8.0599 12.0474 7.69868 11.9846 7.32688H7.01535C6.95253 7.69868 6.90702 8.0599 6.8788 8.41055C6.8506 8.76118 6.8365 9.12433 6.8365 9.49998C6.8365 9.87563 6.8506 10.2388 6.8788 10.5894C6.90702 10.9401 6.95253 11.3013 7.01535 11.6731ZM13.4846 11.6731H17.2019C17.2981 11.3333 17.3718 10.9801 17.4231 10.6135C17.4743 10.2468 17.5 9.87563 17.5 9.49998C17.5 9.12433 17.4743 8.75317 17.4231 8.3865C17.3718 8.01983 17.2981 7.66663 17.2019 7.32688H13.4846C13.5474 7.69868 13.5929 8.0631 13.6211 8.42015C13.6493 8.77722 13.6634 9.13716 13.6634 9.49998C13.6634 9.86279 13.6493 10.2227 13.6211 10.5798C13.5929 10.9369 13.5474 11.3013 13.4846 11.6731ZM13.1807 5.82693H16.5731C16.0384 4.77563 15.3349 3.90318 14.4625 3.20958C13.59 2.51599 12.5814 2.04163 11.4365 1.7865C11.8198 2.36855 12.1608 3.00509 12.4596 3.69613C12.7583 4.38716 12.9987 5.09743 13.1807 5.82693ZM7.35958 5.82693H11.6404C11.4083 4.99103 11.1163 4.22083 10.7644 3.51633C10.4125 2.81184 9.99101 2.14678 9.49998 1.52113C9.00894 2.14678 8.58747 2.81184 8.23555 3.51633C7.88362 4.22083 7.59163 4.99103 7.35958 5.82693ZM2.42688 5.82693H5.81922C6.00128 5.09743 6.24167 4.38716 6.5404 3.69613C6.83912 3.00509 7.18014 2.36855 7.56348 1.7865C6.41219 2.04163 5.40193 2.5176 4.53268 3.2144C3.66344 3.9112 2.96151 4.78204 2.42688 5.82693Z" fill="black"/>
</svg>
