<svg width="18" height="19" viewBox="0 0 18 19" fill="none" xmlns="http://www.w3.org/2000/svg">
<path fill-rule="evenodd" clip-rule="evenodd" d="M18 8.8195C18 9.4375 17.4451 9.9075 16.8356 9.8059L15 9.5V18C15 18.5523 14.5523 19 14 19H4C3.44772 19 3 18.5523 3 18V9.5L1.1644 9.8059C0.55487 9.9075 0 9.4375 0 8.8195V1.27924L0.68377 1.05132C2.07956 0.58605 3.68497 0.23561 6.5 0C6.5 1.33333 7.6667 2 9 2C10.3333 2 11.5 1.33333 11.5 0C14.315 0.23561 15.9204 0.58605 17.3162 1.05132L18 1.27924V8.8195ZM1.5 8.2293L4.5 7.72931V17.5H13.5V7.72931L16.5 8.2293V2.36154L16.1246 2.26496C15.9508 2.22024 15.7807 2.16949 15.5527 2.09602L15.1427 1.96266C14.4055 1.72541 13.8415 1.59226 13.0564 1.50319L12.7253 1.46563L12.5632 1.75672C11.9601 2.83952 10.7136 3.5 9 3.5C7.2864 3.5 6.03985 2.83952 5.43683 1.75672L5.27471 1.46563L4.94363 1.50319C4.15849 1.59226 3.59447 1.72541 2.85733 1.96266L2.44733 2.09602C2.21933 2.16949 2.04922 2.22024 1.87542 2.26496L1.5 2.36154V8.2293ZM11 7.5V11.25C11 12.35 10.1 12.5 9 12.5H8C7.45 12.5 7 12.3 7 11.75C7 11.2 7.45 11 8 11H9.5V10H9C7.9 10 7 9.6 7 8.5V7.5C7 6.4 7.9 6 9 6C10.1 6 11 6.4 11 7.5ZM8.5 7.5V8.5H9.5V7.5H8.5Z" fill="black"/>
</svg>
