<svg width="16.800024032592773" height="16.800024032592773" viewBox="0 0 16.800024032592773 16.800024032592773" fill="none" xmlns="http://www.w3.org/2000/svg">
<path d="M10.1319 1.73964C9.0748 2.31439 8.9691 2.42036 8.3955 3.47932C7.8219 2.42036 7.7159 2.31439 6.6591 1.73964C7.7159 1.16488 7.8219 1.05896 8.3955 0C8.9691 1.05896 9.0748 1.16488 10.1319 1.73964ZM3.62025 1.69806L16.7512 14.854C16.8163 14.9192 16.8163 15.0261 16.7512 15.0912L15.0945 16.7512C15.0294 16.8163 14.9228 16.8163 14.8578 16.7512L1.72666 3.59507C1.66163 3.52992 1.66163 3.42313 1.72666 3.35797L3.38356 1.69806C3.41593 1.66548 3.45892 1.64924 3.50191 1.64924C3.5447 1.64924 3.58755 1.66548 3.62025 1.69806ZM2.55528 3.47659L5.41918 6.3458L6.3658 5.39736L3.50191 2.5282L2.55528 3.47659ZM0 9.4513C1.50379 8.6337 1.65413 8.4829 2.47036 6.9764C3.28669 8.4829 3.43707 8.6337 4.94087 9.4513C3.43693 10.2693 3.28655 10.4198 2.47036 11.9268C1.65413 10.4198 1.50379 10.2693 0 9.4513ZM10.8687 5.85819C11.2085 5.23088 11.271 5.16817 11.8971 4.82754C11.271 4.4873 11.2085 4.42459 10.8687 3.79743C10.5289 4.42459 10.4663 4.4873 9.8404 4.82754C10.4663 5.16817 10.5289 5.23088 10.8687 5.85819Z" fill="black"/>
</svg>
