<svg width="20" height="20" viewBox="0 0 20 20" fill="none" xmlns="http://www.w3.org/2000/svg">
<path d="M11 8V10H2V12.2654L9.80166 13.3799L10.0746 14.7748C10.4386 16.6348 12.0791 18 14 18C16.2091 18 18 16.2091 18 14C18 11.7909 16.2091 10 14 10H13V8H14C17.3137 8 20 10.6863 20 14C20 17.3137 17.3137 20 14 20C11.0827 20 8.65172 17.918 8.11182 15.1588L1.71716 14.2453C0.73186 14.1046 0 13.2607 0 12.2654V10C0 8.89543 0.89543 8 2 8H11ZM16.06 3.55C16.44 3.17 17.07 3.17 17.45 3.55C17.84 3.93 17.84 4.56 17.45 4.94C16.82 5.57 16.92 5.48 16.3 6.11C15.91 6.5 15.29 6.5 14.9 6.11L14.89 6.09C14.5 5.71 14.5 5.08 14.89 4.7L16.06 3.55ZM6.57 3.54C6.95 3.15 7.58 3.15 7.96 3.54L9.11 4.71C9.49 5.09 9.49 5.72 9.11 6.1C8.72 6.49 8.09 6.49 7.71 6.1C7.09 5.47 7.18 5.56 6.55 4.94C6.16 4.56 6.16 3.94 6.55 3.55L6.57 3.54ZM12.02 0C12.56 0 13 0.44 13 0.98V4.02C13 4.56 12.56 5 12.01 5H11.98C11.44 5 11 4.56 11 4.01V0.98C11 0.44 11.44 0 11.99 0H12.02Z" fill="black"/>
</svg>
