<svg width="18" height="16.91045570373535" viewBox="0 0 18 16.91045570373535" fill="none" xmlns="http://www.w3.org/2000/svg">
<path d="M1 5.45524C0.44772 5.45524 0 5.90296 0 6.45523V10.4552C0 11.0075 0.44772 11.4552 1 11.4552H4L7.2929 14.7481C7.9229 15.3781 9 14.9319 9 14.041V2.86945C9 1.97855 7.9229 1.53238 7.2929 2.16235L4 5.45524H1ZM13.5 8.45523C13.5 6.68523 12.48 5.16524 11 4.42524V12.4752C12.48 11.7452 13.5 10.2252 13.5 8.45523ZM12.2345 0.0607381C11.6172 -0.176892 11 0.314928 11 0.976388C11 1.43252 11.3033 1.82729 11.7234 2.00494C14.2354 3.06714 16 5.5563 16 8.45523C16 11.3542 14.2354 13.8433 11.7234 14.9055C11.3033 15.0832 11 15.4779 11 15.9341C11 16.5955 11.6172 17.0873 12.2345 16.8497C15.6084 15.551 18 12.283 18 8.45523C18 4.62741 15.6084 1.35949 12.2345 0.0607381Z" fill="black"/>
</svg>
