<svg width="19.871980667114258" height="21.510000228881836" viewBox="0 0 19.871980667114258 21.510000228881836" fill="none" xmlns="http://www.w3.org/2000/svg">
<path d="M9.93599 21.51C4.8129 21.51 0 16.9072 0 11.574C0 8.32205 1.59096 5.38028 4.01242 3.63923C4.55274 3.22898 5.05305 3.37907 5.3032 3.70927C5.54334 4.04948 5.52333 4.56979 5.03303 4.95002C3.01182 6.45093 1.69102 8.84237 1.69102 11.574C1.69102 16.1468 5.36323 19.809 9.93599 19.799C14.4987 19.789 18.171 16.1368 18.171 11.564C18.171 7.55159 15.3392 4.23959 11.557 3.48914V4.73989C11.557 5.43031 10.8866 5.67046 10.3362 5.26021L7.65461 3.26901C7.2944 2.98884 7.2944 2.47853 7.65461 2.20837L10.3362 0.207163C10.8966 -0.21309 11.557 0.0270549 11.557 0.737483V1.7681C16.2298 2.54857 19.872 6.68106 19.872 11.564C19.872 16.9973 15.3693 21.51 9.93599 21.51ZM12.5175 15.7765C10.8565 15.7765 9.76589 14.2056 9.76589 11.8042C9.76589 9.38269 10.8565 7.79173 12.5175 7.79173C14.1785 7.79173 15.2692 9.38269 15.2692 11.8042C15.2692 14.2056 14.1785 15.7765 12.5175 15.7765ZM7.3044 15.6565C6.93418 15.6565 6.68403 15.3763 6.68403 14.9661V9.46274L5.75347 10.1432C5.55335 10.2832 5.46329 10.3233 5.27318 10.3233C4.95299 10.3233 4.69283 10.0431 4.69283 9.71289C4.69283 9.47275 4.8029 9.29264 5.02303 9.13254L6.41387 8.20198C6.77408 7.96184 6.9642 7.87178 7.23436 7.87178C7.68463 7.87178 7.94479 8.18197 7.94479 8.67226V14.9661C7.94479 15.3863 7.69464 15.6565 7.3044 15.6565ZM12.5175 14.5658C13.4081 14.5658 13.9584 13.5152 13.9584 11.8042C13.9584 10.0531 13.4181 9.00246 12.5175 9.00246C11.627 9.00246 11.0667 10.0631 11.0667 11.8042C11.0667 13.5152 11.637 14.5658 12.5175 14.5658Z" fill="black"/>
</svg>
