<svg width="8.385973930358887" height="6.209956169128418" viewBox="0 0 8.385973930358887 6.209956169128418" fill="none" xmlns="http://www.w3.org/2000/svg"><path d="M 8.286736669977598 0.8541662886529505 L 4.6336118056274085 5.983332371768548 C 4.583489908134304 6.0534336844734735 4.517364808138769 6.1105651088789115 4.4407301872072455 6.149979992955476 C 4.364095566275722 6.189394877032041 4.279163024421741 6.209956169128416 4.192986468474085 6.209956169128418 C 4.106809912526429 6.209956169128418 4.021877370672447 6.189394877032041 3.945242749740924 6.149979992955476 C 3.8686081288094005 6.1105651088789115 3.8024830288138656 6.0534336844734735 3.752361131320761 5.983332371768548 L 0.099236375624868 0.8552083764524241 C 0.042046682955480516 0.7742412929901845 0.008172139263970559 0.6791327524366514 0.0013024664676338988 0.5802432287608268 C -0.005567206328702762 0.4813537050850022 0.014831660825043419 0.3824753184741817 0.060276790205315275 0.29437837912850123 C 0.10572191958558713 0.20628143978282076 0.17447062892892695 0.13234446368279096 0.2590344369030371 0.08062123684849931 C 0.3435982448771473 0.028898010014207658 0.4407344260677956 0.001371489689086166 0.5398617283002343 0.001041094388797221 L 7.846111332824275 0 C 7.945238635056714 0.00033039530028894495 8.04237480072532 0.027855922214734104 8.12693860869943 0.07957914904902576 C 8.21150241667354 0.13130237588331742 8.280251122136368 0.20523935198334725 8.325696251516641 0.2933362913290277 C 8.371141380896914 0.3814332306747082 8.391541241703909 0.4803116172855286 8.384671568907573 0.5792011409613532 C 8.377801896111237 0.6780906646371778 8.343926362646986 0.7731992051907108 8.286736669977598 0.8541662886529505 Z" fill="black" fill-rule="nonzero" clip-rule="nonzero" stroke="none" /></svg>