<svg width="20" height="20" viewBox="0 0 20 20" fill="none" xmlns="http://www.w3.org/2000/svg">
<path fill-rule="evenodd" clip-rule="evenodd" d="M10 20C15.5228 20 20 15.5228 20 10C20 4.47715 15.5228 0 10 0C4.47715 0 0 4.47715 0 10C0 15.5228 4.47715 20 10 20ZM3.68106 14.9068C2.62744 13.5519 2 11.8492 2 10C2 5.58172 5.58172 2 10 2C11.8492 2 13.5519 2.62745 14.9068 3.68106L3.68106 14.9068ZM5.09552 16.3208C6.45001 17.3733 8.15182 18 10 18C14.4183 18 18 14.4183 18 10C18 8.15182 17.3733 6.45002 16.3208 5.09552L5.09552 16.3208Z" fill="#FF3B3B"/>
</svg>
