<svg width="16.439329147338867" height="16.53554916381836" viewBox="0 0 16.439329147338867 16.53554916381836" fill="none" xmlns="http://www.w3.org/2000/svg">
<path d="M14.4393 0C14.1632 0 13.9393 0.22386 13.9393 0.5V1.5H12.9393C12.6632 1.5 12.4393 1.72386 12.4393 2C12.4393 2.27614 12.6632 2.5 12.9393 2.5H13.9393V3.5C13.9393 3.77614 14.1632 4 14.4393 4C14.7154 4 14.9393 3.77614 14.9393 3.5V2.5H15.9393C16.2154 2.5 16.4393 2.27614 16.4393 2C16.4393 1.72386 16.2154 1.5 15.9393 1.5H14.9393V0.5C14.9393 0.22386 14.7154 0 14.4393 0ZM6.93933 2.5V1.5C6.93933 1.22386 7.16323 1 7.43933 1C7.71543 1 7.93933 1.22386 7.93933 1.5V2.5H8.93933C9.21543 2.5 9.43933 2.72386 9.43933 3C9.43933 3.27614 9.21543 3.5 8.93933 3.5H7.93933V4.5C7.93933 4.77614 7.71543 5 7.43933 5C7.16323 5 6.93933 4.77614 6.93933 4.5V3.5H5.93933C5.66323 3.5 5.43933 3.27614 5.43933 3C5.43933 2.72386 5.66323 2.5 5.93933 2.5H6.93933ZM13.4393 10.5V11C13.4393 11.2761 13.6632 11.5 13.9393 11.5C14.2154 11.5 14.4393 11.2761 14.4393 11V10.5H14.9393C15.2154 10.5 15.4393 10.2761 15.4393 10C15.4393 9.7239 15.2154 9.5 14.9393 9.5H14.4393V9C14.4393 8.7239 14.2154 8.5 13.9393 8.5C13.6632 8.5 13.4393 8.7239 13.4393 9V9.5H12.9393C12.6632 9.5 12.4393 9.7239 12.4393 10C12.4393 10.2761 12.6632 10.5 12.9393 10.5H13.4393ZM0.29289 15.5355C-0.09763 15.145 -0.09763 14.5119 0.29289 14.1213L7.36393 7.0503L9.48523 9.1716L2.41421 16.2426C2.02369 16.6332 1.39052 16.6332 1 16.2426L0.29289 15.5355ZM10.1929 4.23224L8.07153 6.35356L10.1929 8.4749L12.3142 6.35356C12.7047 5.96304 12.7047 5.32987 12.3142 4.93935L11.6071 4.23224C11.2166 3.84172 10.5834 3.84172 10.1929 4.23224Z" fill="black"/>
</svg>
