<svg width="19.997041702270508" height="19.760896682739258" viewBox="0 0 19.997041702270508 19.760896682739258" fill="none" xmlns="http://www.w3.org/2000/svg">
<path d="M11.9979 9.7609C11.9979 10.5009 11.5979 11.1409 10.9979 11.4809V18.7609C10.9979 19.3109 10.5479 19.7609 9.9979 19.7609C9.4479 19.7609 8.9979 19.3109 8.9979 18.7609V11.4809C8.3979 11.1309 7.9979 10.5009 7.9979 9.7609C7.9979 8.6609 8.8979 7.7609 9.9979 7.7609C11.0979 7.7609 11.9979 8.6609 11.9979 9.7609Z" fill="black"/>
<path fill-rule="evenodd" clip-rule="evenodd" d="M4.04201 9.951C4.04307 6.73031 6.74809 4.00292 9.99959 4.00658C13.2801 4.01026 15.9392 6.67064 15.9392 9.95125C15.9392 11.2516 15.5122 12.463 14.7974 13.4359C14.5521 13.7697 14.0827 13.8415 13.7489 13.5963C13.4151 13.351 13.3433 12.8816 13.5885 12.5478C14.1212 11.8228 14.4392 10.9205 14.4392 9.95125C14.4392 7.49893 12.4511 5.50933 9.9979 5.50657C7.57872 5.50386 5.5428 7.55627 5.54201 9.95149C5.54169 10.9241 5.85491 11.8222 6.3856 12.55C6.62965 12.8846 6.55618 13.3538 6.2215 13.5978C5.88681 13.8419 5.41766 13.7684 5.17361 13.4337C4.46149 12.4572 4.04158 11.2512 4.04201 9.951Z" fill="black"/>
<path fill-rule="evenodd" clip-rule="evenodd" d="M0.000766327 9.87123C0.0657468 4.49352 4.69204 -0.0450038 10.0898 0.000336814C15.524 0.0459835 19.9303 4.43532 19.9963 9.87118C20.0254 12.2629 19.1802 14.6082 17.6376 16.4341C17.3703 16.7505 16.8971 16.7903 16.5807 16.523C16.2643 16.2557 16.2245 15.7825 16.4918 15.4661C17.8024 13.9147 18.5211 11.9193 18.4965 9.8894C18.4404 5.26981 14.695 1.53907 10.0772 1.50028C5.50496 1.46188 1.55565 5.33857 1.50066 9.88935C1.47494 12.0175 2.23436 13.9606 3.50445 15.4666C3.77149 15.7832 3.73128 16.2564 3.41464 16.5234C3.098 16.7905 2.62483 16.7503 2.35779 16.4336C0.866455 14.6653 -0.0295019 12.3762 0.000766327 9.87123Z" fill="black"/>
</svg>
