<svg width="19.171550750732422" height="19.17158317565918" viewBox="0 0 19.171550750732422 19.17158317565918" fill="none" xmlns="http://www.w3.org/2000/svg">
<path d="M9.58455 13.4732C11.5168 13.4732 13.0831 11.7327 13.0831 9.58582H6.08569C6.08569 11.7327 7.65205 13.4732 9.58455 13.4732ZM10.2915 0.292897L18.8787 8.88012C19.2687 9.27002 19.2693 9.90212 18.8801 10.2929L10.3293 18.8773C9.93955 19.2686 9.30645 19.2698 8.91515 18.88L0.29289 10.2915C-0.09763 9.90102 -0.09763 9.26782 0.29289 8.87732L8.87725 0.292897C9.26785 -0.0976325 9.90095 -0.0976325 10.2915 0.292897ZM9.61945 17.4645L17.4652 9.58792L17.4631 9.58582H13.088C13.088 7.65082 11.5195 6.08213 9.58455 6.08213C7.64935 6.08213 6.08074 7.65082 6.08074 9.58582H1.70988L9.61945 17.4645Z" fill="black"/>
</svg>
