<svg width="21.341978073120117" height="19.38385772705078" viewBox="0 0 21.341978073120117 19.38385772705078" fill="none" xmlns="http://www.w3.org/2000/svg">
<path d="M12.12 0.443758C10.5412 2.02255 6 7.39376 6 7.39376V19.3838C8.4216 19.3839 10.8432 19.3839 13.2648 19.3838L17 19.3838C17.8 19.3838 18.52 18.9038 18.84 18.1738L21.1 11.5638C21.94 9.58376 20.49 7.38376 18.34 7.38376H13.69L14.64 1.80376C14.74 1.30376 14.59 0.793758 14.23 0.433758C13.64 -0.146242 12.7 -0.146242 12.12 0.443758Z" fill="black"/>
<path d="M1.5 7.38379C0.671573 7.38379 0 8.05536 0 8.88379V17.8838C0 18.7122 0.671573 19.3838 1.5 19.3838H4.5V7.38379H1.5Z" fill="black"/>
</svg>
