<svg width="18" height="19" viewBox="0 0 18 19" fill="none" xmlns="http://www.w3.org/2000/svg">
<path fill-rule="evenodd" clip-rule="evenodd" d="M16.8909 0.166363C17.0096 0.248453 17.1063 0.358312 17.1727 0.486363C17.2411 0.616763 17.2767 0.761856 17.2764 0.909091V6.36364C17.2764 6.60474 17.1806 6.83597 17.0101 7.00646C16.8396 7.17695 16.6084 7.27273 16.3673 7.27273C16.1262 7.27273 15.8949 7.17695 15.7245 7.00646C15.554 6.83597 15.4582 6.60474 15.4582 6.36364V3.19545L7.58092 11.5336C7.49944 11.6225 7.4011 11.6942 7.29163 11.7447C7.18216 11.7951 7.06375 11.8233 6.94329 11.8276C6.82282 11.8319 6.70271 11.8122 6.58994 11.7696C6.47717 11.727 6.37399 11.6624 6.28641 11.5796C6.19882 11.4968 6.12858 11.3974 6.07978 11.2872C6.03097 11.1769 6.00457 11.0581 6.00212 10.9376C5.99966 10.8171 6.0212 10.6973 6.06547 10.5852C6.10975 10.4731 6.17588 10.3709 6.26001 10.2845L14.2573 1.81818H11.2146C10.9735 1.81818 10.7422 1.7224 10.5717 1.55192C10.4012 1.38143 10.3055 1.1502 10.3055 0.909091C10.3055 0.667985 10.4012 0.436754 10.5717 0.266267C10.7422 0.0957791 10.9735 0 11.2146 0H16.3927C16.5773 0.00545455 16.7491 0.0663633 16.8909 0.166363ZM2.62729 4.54545C2.52287 4.54661 2.41979 4.56915 2.32442 4.61168C2.22904 4.65421 2.14339 4.71582 2.07274 4.79273C1.91547 4.96 1.8182 5.19727 1.8182 5.45455V15.4545C1.8182 15.7118 1.91547 15.9491 2.07274 16.1164C2.14339 16.1933 2.22904 16.2549 2.32442 16.2974C2.41979 16.3399 2.52287 16.3625 2.62729 16.3636H12.0727C12.1772 16.3625 12.2803 16.34 12.3756 16.2975C12.471 16.255 12.5567 16.1933 12.6273 16.1164C12.7846 15.9491 12.8818 15.7118 12.8818 15.4545V10C12.8818 9.75889 12.9776 9.52766 13.1481 9.35717C13.3186 9.18669 13.5498 9.09091 13.7909 9.09091C14.032 9.09091 14.2633 9.18669 14.4337 9.35717C14.6042 9.52766 14.7 9.75889 14.7 10V15.4545C14.702 16.1638 14.4331 16.847 13.9482 17.3645C13.7078 17.6214 13.4175 17.8265 13.0949 17.967C12.7724 18.1076 12.4246 18.1807 12.0727 18.1818H2.62729C2.27534 18.1807 1.92734 18.1076 1.60467 17.967C1.28199 17.8265 0.991463 17.6215 0.750924 17.3645C0.266333 16.8469 -0.0022678 16.1636 1.44251e-05 15.4545V5.45455C1.44251e-05 4.74727 0.26456 4.05909 0.750924 3.54455C0.991358 3.28773 1.28174 3.08276 1.60425 2.94222C1.92676 2.80168 2.27458 2.72854 2.62638 2.72727H7.77911C8.02021 2.72727 8.25144 2.82305 8.42193 2.99354C8.59242 3.16403 8.6882 3.39526 8.6882 3.63636C8.6882 3.87747 8.59242 4.1087 8.42193 4.27919C8.25144 4.44968 8.02021 4.54545 7.77911 4.54545H2.62729Z" fill="#00B3B0"/>
</svg>
