<svg width="18" height="20" viewBox="0 0 18 20" fill="none" xmlns="http://www.w3.org/2000/svg">
<path d="M8.25 10.25C8.25 9.97386 8.47386 9.75 8.75 9.75H9.25C9.52614 9.75 9.75 9.97386 9.75 10.25V12H11.5C11.7761 12 12 12.2239 12 12.5V13C12 13.2761 11.7761 13.5 11.5 13.5H9.75V15.25C9.75 15.5261 9.52614 15.75 9.25 15.75H8.75C8.47386 15.75 8.25 15.5261 8.25 15.25V13.5H6.5C6.22386 13.5 6 13.2761 6 13V12.5C6 12.2239 6.22386 12 6.5 12H8.25V10.25Z" fill="black"/>
<path fill-rule="evenodd" clip-rule="evenodd" d="M15.3 1.81818H16.2C17.19 1.81818 18 2.63636 18 3.63636V18.1818C18 19.1818 17.19 20 16.2 20H1.8C0.81 20 0 19.1818 0 18.1818V3.63636C0 2.63636 0.81 1.81818 1.8 1.81818H2.7V0.909091C2.7 0.407018 3.10295 0 3.6 0C4.09705 0 4.5 0.407018 4.5 0.909091V1.81818H13.5V0.909091C13.5 0.407018 13.9029 0 14.4 0C14.8971 0 15.3 0.407018 15.3 0.909091V1.81818ZM1.8 18.1818H16.2V8.18182H1.8V18.1818ZM1.8 6.36364H16.2V3.63636H1.8V6.36364Z" fill="black"/>
</svg>
