<svg width="14" height="16" viewBox="0 0 14 16" fill="none" xmlns="http://www.w3.org/2000/svg">
<path d="M2.58722 9.95217L0.109707 8.21004C-0.00780813 8.12743 -0.0352251 7.96638 0.0484687 7.85034C0.0653292 7.82699 0.0860238 7.80658 0.109702 7.78994L2.58717 6.04787C2.7047 5.96521 2.86777 5.99229 2.9515 6.10833C2.98299 6.15199 2.99995 6.2043 2.99995 6.25795L3 9.7421C3 9.88454 2.88302 10 2.73877 10C2.68443 10 2.63144 9.98328 2.58722 9.95217Z" fill="black"/>
<path d="M4.5 2.18557e-07L4.5 16H6L6 1.5299e-07L4.5 2.18557e-07Z" fill="black"/>
<path d="M8 6.55671e-08L8 16H9.5V0L8 6.55671e-08Z" fill="black"/>
<path d="M13.8903 7.78996L11.4128 6.04783C11.3686 6.01672 11.3156 6 11.2612 6C11.117 6 11 6.11546 11 6.2579L11.0001 9.74205C11.0001 9.7957 11.017 9.84801 11.0485 9.89167C11.1322 10.0077 11.2953 10.0348 11.4128 9.95213L13.8903 8.21006C13.914 8.19342 13.9347 8.17301 13.9515 8.14966C14.0352 8.03362 14.0078 7.87257 13.8903 7.78996Z" fill="black"/>
</svg>
