<svg width="358.85394287109375" height="318.5347900390625" viewBox="0 0 358.85394287109375 318.5347900390625" fill="none" xmlns="http://www.w3.org/2000/svg"><path d="M 48.062982938853175 318.5309196583134 C 35.13926022060042 318.5309196583134 34.53614884407671 306.9117438634591 34.21141277930577 300.66717731082326 C 33.86734718165787 294.0630163967747 33.43823902219829 285.84649453995195 27.550464888600548 275.88612056937933 C 0.39634440295163387 229.9624570391968 -7.242672722046098 171.66175837117837 7.123032628064681 119.93432025840383 C 17.255570992443317 83.43743809033145 37.072198300184056 54.94833534234627 61.48152636160579 41.77481301615979 C 71.79189676948276 36.22236870222555 81.85872798078796 33.40747463448375 91.40751524033934 33.40747463448375 C 115.18670026728687 33.40747463448375 131.09101376970824 50.39346949780415 142.70419470731736 62.79367087041353 C 147.32008589559942 67.72359194946753 154.29806834815207 75.1744996893801 157.12791135301342 75.1744996893801 C 161.86751177291688 74.96183642253705 178.5449909214529 62.140204870689594 190.72259373056605 52.77915508163704 C 219.69755542516717 30.503644777849864 259.3810863985075 0 294.1317120835412 0 C 312.2009557577523 0 327.1272206720448 7.984540910673282 338.49684914054836 23.733221953271794 C 362.9757636217145 57.639480106855025 365.4267817838383 97.77097429672219 345.58695408709616 139.78550312055896 C 303.3635320656176 229.20073837791108 167.7204668889379 311.0374015928404 49.38509247002611 318.49221585082233 C 48.92118377314963 318.52314868827403 48.48436666800888 318.5347900390625 48.062982938853175 318.5347900390625 L 48.062982938853175 318.5309196583134 Z M 91.40751524033934 49.22185037532324 C 84.50300750689871 49.22185037532324 76.96062548807238 51.39879241617613 68.9852624489564 55.69459018054758 C 48.34519239987921 66.83427831032672 31.346763476379202 91.79319482961344 22.3585328315576 124.16441041834848 C 9.121671224454873 171.83191352484323 16.149889295561362 225.53903074088723 41.15843391308532 267.8319526300241 C 49.029418059947616 281.1408055330895 49.61317146903422 292.3965114233077 50.00362793636976 299.84745898802214 C 50.046152898329886 300.69424545431394 50.10029256586385 301.69181249251295 50.16601296266781 302.5849981717696 C 103.41112987920178 298.86919112258096 164.2720974504295 278.46126896084274 217.46696160472018 246.44191582197826 C 270.9672297101344 214.24083178702548 312.4522770832816 172.90293814767136 331.28310316845534 133.0305087192414 C 348.7608622748387 96.01936740904375 346.8742969534644 62.36445390529679 325.6736702896574 32.99759187320057 C 317.33104591849605 21.440310457989643 307.01290960364724 15.825986883086811 294.1317120835412 15.825986883086811 C 264.7546958470224 15.825986883086811 227.53378028085461 44.4350035846317 200.3603290871565 65.3262686735194 C 178.68806146168743 81.98746867733772 166.94728354611158 90.69119407023261 157.630450773254 90.98892262998483 C 157.4487532079916 90.99278923466629 157.2864172624173 90.99666339148304 157.13178103396558 90.99666339148304 C 147.43995567815108 90.99666339148304 139.89755301316114 82.94254043940403 131.1606060883566 73.61242345899471 C 120.45977912097369 62.18273997162416 108.32858446349319 49.229591136821455 91.40751524033934 49.229591136821455 L 91.40751524033934 49.22185037532324 Z" fill="black" fill-rule="nonzero" clip-rule="nonzero" stroke="none" /></svg>