<svg width="600" height="264" viewBox="0 0 600 264" fill="none" xmlns="http://www.w3.org/2000/svg">
<path d="M-183.491 474.919L-183.509 474.898C-191.614 465.685 -199.077 456.464 -205.697 447.485C-243.221 396.604 -211.908 346.559 -196.861 322.51L-195.707 320.666C-166.946 274.535 -120.61 226.571 -61.7034 181.966C-5.20128 139.183 61.5604 100.33 131.368 69.6045C202.511 38.2906 274.634 16.4439 339.933 6.4281C411.103 -4.48895 471.839 -1.49098 520.451 15.3386C558.882 28.6436 586.892 45.7202 606.083 67.5367C642.29 108.697 639.667 158.274 637.136 206.222C635.043 245.824 633.065 283.225 654.751 310.354C655.116 310.81 655.487 311.256 655.883 311.706L655.891 311.715C682.684 342.156 781.064 359.806 894.979 380.24C971.893 394.036 1059.07 409.676 1133.93 431.463C1219.79 456.451 1276.67 485.811 1307.82 521.215C1325.74 541.586 1335.26 564.401 1336.14 589.026C1337.08 615.659 1327.94 645.321 1308.98 677.19C1271.94 739.424 1219.17 788.688 1152.12 823.62C1090.36 855.796 1016.04 876.097 931.208 883.958C837.344 892.657 731.76 886.236 617.384 864.879C512.041 845.209 403.861 813.865 295.845 771.72C194.267 732.087 96.5668 683.92 13.3037 632.424C-70.2886 580.723 -138.349 526.254 -183.51 474.915L-183.491 474.919ZM605.609 67.9639C586.492 46.2316 558.569 29.218 520.248 15.9501C471.735 -0.848408 411.105 -3.83684 340.037 7.06756C274.793 17.0759 202.726 38.9044 131.631 70.1966C61.8691 100.897 -4.84987 139.729 -61.3117 182.482C-120.16 227.04 -166.444 274.942 -195.159 321.008L-196.313 322.857C-211.284 346.788 -242.441 396.583 -205.178 447.11C-198.567 456.072 -191.116 465.279 -183.025 474.477L-183.007 474.498C-137.886 525.791 -69.8806 580.215 13.6617 631.882C96.8905 683.357 194.556 731.509 296.096 771.128C404.073 813.257 512.215 844.587 617.517 864.252C731.834 885.6 837.357 892.017 931.163 883.322C1015.91 875.47 1090.15 855.191 1151.84 823.054C1218.78 788.181 1271.46 738.996 1308.44 676.868C1327.34 645.108 1336.45 615.562 1335.51 589.055C1334.64 564.58 1325.17 541.9 1307.35 521.645C1276.29 486.334 1219.51 457.041 1133.76 432.088C1058.93 410.308 971.775 394.675 894.878 380.88C780.846 360.425 682.364 342.757 655.422 312.148L655.414 312.139C655.011 311.68 654.632 311.226 654.262 310.764C632.423 283.445 634.407 245.921 636.505 206.196C639.033 158.379 641.644 108.935 605.611 67.9722L605.609 67.9639Z" fill="#88090C"/>
</svg>
