<svg width="600" height="183" viewBox="0 0 600 183" fill="none" xmlns="http://www.w3.org/2000/svg">
<path d="M-34.1728 393.818L-34.1932 393.795C-40.4286 386.707 -46.2478 379.582 -51.4885 372.618C-79.0478 336.002 -58.0761 300.733 -44.2003 277.395C-42.3214 274.239 -40.5497 271.259 -39.0368 268.512C4.71636 189.23 101.753 109.884 220.542 56.2545C340.057 2.29589 456.884 -14.0659 533.051 12.4806C563.885 23.2316 586.488 37.1192 602.153 54.9271C632.584 89.5211 630.112 132.747 627.93 170.883C626.143 202.092 624.456 231.57 640.771 251.756C641.004 252.045 641.244 252.329 641.494 252.613C661.614 275.486 737.195 289.136 824.707 304.946C885.345 315.899 954.074 328.316 1013.5 345.788C1082.02 365.931 1127.65 389.736 1153.02 418.569C1183.41 453.116 1184.73 495.837 1156.96 545.547C1128.5 596.475 1087.11 637.044 1033.96 666.133C985.023 692.908 925.839 710.144 858.048 717.357C783.702 725.266 700.039 721.197 609.382 705.255C525.438 690.492 439.283 666.331 353.31 633.433C186.53 569.614 41.6782 480.04 -34.1647 393.822L-34.1728 393.818ZM598.504 58.1372C583.406 40.9738 561.469 27.5397 531.448 17.068C456.427 -9.08189 340.946 7.22346 222.538 60.6829C104.674 113.895 8.47845 192.465 -34.7848 270.858C-36.3376 273.671 -38.1307 276.685 -40.0255 279.875C-54.0299 303.424 -73.2085 335.679 -47.6082 369.693C-42.4406 376.557 -36.7001 383.587 -30.5493 390.585L-30.5289 390.608C44.8187 476.263 188.946 565.337 355.034 628.888C440.718 661.676 526.571 685.757 610.21 700.464C700.42 716.326 783.623 720.382 857.52 712.519C924.671 705.374 983.246 688.329 1031.61 661.863C1083.96 633.221 1124.69 593.287 1152.7 543.168C1179.74 494.776 1178.65 455.066 1149.36 421.767C1093.67 358.46 944.05 331.434 823.832 309.717C735.426 293.746 659.079 279.956 637.834 255.812C637.538 255.475 637.255 255.142 636.981 254.801C619.486 233.156 621.226 202.766 623.067 170.594C625.3 131.574 627.61 91.2248 598.494 58.1256L598.504 58.1372Z" fill="#88090C"/>
</svg>
