<svg width="600" height="216" viewBox="0 0 600 216" fill="none" xmlns="http://www.w3.org/2000/svg">
<path d="M-93.8655 426.394L-93.9089 426.345C-100.903 418.394 -107.383 410.425 -113.175 402.658C-144.521 360.631 -119.985 319.889 -105.324 295.547C-104.018 293.378 -102.792 291.342 -101.69 289.445C-76.9778 246.901 -36.5572 203.019 15.1975 162.543C64.4457 124.03 123.086 89.1283 184.784 61.6129C247.142 33.8 310.677 14.4313 368.523 5.5964C431.263 -3.9858 484.921 -1.25406 528.009 13.7211C561.878 25.4935 586.649 40.6565 603.726 60.0696C636.468 97.2905 633.89 143.945 631.613 185.111C629.703 219.681 627.898 252.332 646.366 275.299C646.655 275.657 646.948 276.013 647.254 276.356C670.055 302.252 754.794 317.526 852.916 335.211C920.084 347.318 996.219 361.042 1061.83 380.248C1137.3 402.336 1187.42 428.361 1215.08 459.799C1231.03 477.935 1239.64 498.253 1240.65 520.187C1241.74 543.832 1234.04 570.12 1217.75 598.323C1185.98 653.756 1140.16 697.806 1081.57 729.243C1027.62 758.194 962.499 776.683 888.008 784.193C805.86 792.477 713.393 787.503 613.177 769.404C520.619 752.688 425.575 725.647 330.694 689.026C147.211 618.209 -11.499 520.034 -93.8684 426.397L-93.8655 426.394ZM601.345 62.1692C584.638 43.177 560.309 28.3107 526.97 16.7202C444.709 -11.865 317.274 6.00196 186.08 64.5146C124.616 91.9272 66.2008 126.693 17.1573 165.046C-34.2855 205.274 -74.4287 248.845 -98.9428 291.04C-100.054 292.95 -101.287 295.002 -102.605 297.186C-116.852 320.845 -140.701 360.442 -110.629 400.764C-104.887 408.461 -98.4604 416.365 -91.5228 424.251L-91.4794 424.3C-9.43467 517.574 148.806 615.421 331.843 686.064C426.54 722.611 521.384 749.601 613.75 766.28C713.673 784.327 805.842 789.29 887.701 781.034C961.773 773.563 1026.5 755.196 1080.08 726.444C1138.14 695.291 1183.54 651.65 1215.02 596.737C1246.03 543.019 1245.27 498.912 1212.71 461.891C1185.46 430.917 1135.82 405.206 1060.95 383.29C995.498 364.132 919.455 350.425 852.363 338.334C753.658 320.543 668.412 305.179 644.882 278.453C644.514 278.076 644.219 277.682 643.904 277.289C624.675 253.375 626.513 220.134 628.457 184.942C630.809 142.403 633.237 98.4181 601.353 62.1724L601.345 62.1692Z" fill="#88090C"/>
</svg>
