<svg width="213.40487670898438" height="190.73960876464844" viewBox="0 0 213.40487670898438 190.73960876464844" fill="none" xmlns="http://www.w3.org/2000/svg"><path d="M 42.09661224018817 190.73578558318582 C 38.3698791497637 190.73578558318582 35.06838844453785 188.70966755718405 33.48723301241713 185.45011921169134 C 31.763039118900352 181.89670914729012 32.36612607835602 178.21955234539726 35.28101885417426 174.5114778496644 C 37.05160357014261 172.25724701720864 40.35308137151652 168.0581002025284 32.52075662297233 156.7598799214846 C 5.474881694683354 117.7381004256116 -5.442424451556995 77.03824516619119 2.5715975927521484 45.096218942859146 C 7.0560481872486 27.217035608300172 17.26202543977964 13.413240550987023 31.310726295738245 6.221354634641384 C 37.550297630037704 3.0275386079337 43.86333686101893 1.4074499757252648 50.07584697439201 1.4074499757252648 C 69.36284956619622 1.4074499757252648 82.30202635427689 16.587731221397178 90.02997147579393 25.658786788750266 C 90.61372321133177 26.343175910991327 91.27479874493709 27.120340931047984 91.92040495649555 27.85886252128677 C 93.20388557587053 26.934743825480233 94.6458740708588 25.863731974724114 95.93708649397571 24.900947263271718 C 108.45102237158368 15.586295152040353 129.3964825796241 0 153.2375214465799 0 C 163.5749528195979 0 173.34409412898412 2.957949182850564 182.27820210896797 8.792656567220789 C 207.90529040542043 25.52732362617309 218.4283057144078 51.626885477746065 211.1488055786041 80.39829657437669 C 199.07558269862682 128.11607340614017 136.0574362039846 182.99094107295952 43.05147958706444 190.70095215208198 C 42.699682171167794 190.73188499340714 42.382689255150645 190.73960876464844 42.09661224018817 190.73960876464844 L 42.09661224018817 190.73578558318582 Z M 50.068107612679654 19.75834339811291 C 46.747294679558294 19.75834339811291 43.34528481112437 20.674725111121102 39.664942543151476 22.5577618246284 C 30.394501192564096 27.302086645914898 23.54027699197407 36.89512153235723 20.362502520248764 49.562119689134924 C 17.180862423163603 62.24845205216724 13.465704825292619 97.06726155189737 47.59391861745499 146.3046114157373 C 53.64792666194816 155.03927273915846 56.39274233718487 163.22872950610213 55.83218601287281 170.79567586639965 C 97.11619181833098 164.8836364507377 126.69423311729422 149.51386398009814 144.84852526269106 136.99379576090416 C 170.2939155260156 119.44327475776667 187.9765637719992 97.17166449568089 193.36177033196367 75.8898688343007 C 198.750842517288 54.581007054155464 191.45201499204802 36.690202250945276 172.24619606302295 24.150801300489544 C 166.26177443654788 20.245529848401645 160.04537768297035 18.343152659920126 153.23365176572372 18.343152659920126 C 135.46981543278315 18.343152659920126 117.5745330903483 31.659748729505324 106.88530437056144 39.61722230876127 C 100.78877112897655 44.15275009243781 97.11233504132674 46.89030676577616 93.29282030599913 47.73709333810393 C 92.54283460566907 47.90335736670846 91.7657592959384 47.98843211944258 90.99257818438255 47.98843211944258 C 84.95403374737324 47.98843211944258 81.22343687499632 43.61530916081699 76.06245280788852 37.55633870132668 C 69.66051341066782 30.043524578559257 60.88877718042004 19.75060263564539 50.068107612679654 19.75060263564539 L 50.068107612679654 19.75834339811291 Z" fill="black" fill-rule="nonzero" clip-rule="nonzero" stroke="none" /></svg>