<svg width="539" height="119" viewBox="0 0 539 119" fill="none" xmlns="http://www.w3.org/2000/svg">
<path d="M23.4561 328.911L23.4331 328.885C18.7425 323.552 14.3017 318.17 10.2351 312.892C-10.3482 286.168 4.52481 261.335 16.4772 241.378C19.4684 236.383 22.2908 231.671 24.5436 227.084C58.2564 158.488 135.339 90.8564 230.741 46.1634C325.399 1.82016 419.126 -11.5778 481.458 10.3284C506.218 19.0393 524.495 30.3683 537.334 44.963C563.171 74.3351 560.889 110.711 558.875 142.809C557.275 168.323 555.892 190.361 567.887 204.987C568.017 205.146 568.152 205.305 568.292 205.465C583.094 222.292 643.219 233.253 706.877 244.858C802.346 262.267 921.162 283.93 967.509 336.616C992.401 364.914 994.487 399.776 973.708 440.235C952.169 482.176 919.936 515.849 877.906 540.321C839.247 562.83 792.172 577.652 737.99 584.381C679.243 591.677 613.099 589.481 541.394 577.854C474.556 567.012 405.999 548.567 337.625 523.023C203.858 473.049 86.4118 400.484 23.4506 328.91L23.4561 328.911ZM531.158 50.4004C519.275 36.8914 502.127 26.3249 478.731 18.093C418.387 -3.11635 326.985 10.1672 234.232 53.616C140.471 97.54 64.8475 163.744 31.9322 230.712C29.5285 235.602 26.6199 240.462 23.5371 245.604C11.7658 265.258 -0.410103 285.581 16.7567 307.865C20.7172 313.006 25.0409 318.249 29.614 323.447L29.637 323.474C91.7424 394.081 207.95 465.788 340.513 515.313C408.382 540.669 476.416 558.975 542.723 569.729C613.655 581.232 679.013 583.414 736.985 576.214C790.057 569.622 836.079 555.154 873.77 533.208C914.418 509.541 945.581 476.994 966.391 436.477C985.739 398.805 984.086 367.92 961.333 342.054C916.874 291.512 799.62 270.133 705.401 252.958C634.67 240.061 578.806 229.874 562.114 210.905C561.912 210.676 561.716 210.447 561.525 210.213C547.474 193.081 549.02 168.412 550.659 142.298C552.666 110.303 554.741 77.215 531.153 50.4001L531.158 50.4004Z" fill="#88090C"/>
</svg>
