<svg width="476" height="87" viewBox="0 0 476 87" fill="none" xmlns="http://www.w3.org/2000/svg">
<path d="M19.743 296.303L19.7302 296.289C15.8491 291.877 12.1359 287.409 8.69745 283.015C-8.68934 260.785 3.58289 240.84 14.4141 223.244C17.7994 217.743 21.3009 212.053 23.8929 206.405C39.0477 173.416 63.5457 141.641 96.7061 111.956C127.137 84.7178 164.099 60.2616 203.603 41.2305C285.812 1.62494 367.927 -10.3374 423.26 9.22018C444.986 16.9126 461.099 26.9636 472.518 39.9443C496.063 66.7099 493.866 99.6838 491.93 128.779C490.47 150.746 489.207 169.718 499.027 181.561L499.288 181.857C511.437 195.668 562.028 204.954 615.593 214.791C698.307 229.982 801.247 248.882 842.372 295.633C864.484 320.77 866.957 351.67 849.718 387.471C831.673 424.949 804.042 455.206 767.595 477.402C734.085 497.808 693.068 511.456 645.686 517.96C594.73 524.956 537.334 523.695 475.09 514.212C416.797 505.327 357.019 489.726 297.421 467.83C178.383 424.103 77.1714 361.582 19.7434 296.298L19.743 296.303ZM465.074 46.4978C454.802 34.8204 440.041 25.6859 419.953 18.5749C367.058 -0.120026 287.788 11.6872 207.907 50.1677C126.428 89.4199 61.0063 149.373 32.906 210.546C30.0626 216.738 26.3992 222.69 22.8582 228.441C11.9687 246.135 3.3693 260.109 16.5079 276.901C19.8299 281.146 23.4184 285.465 27.177 289.738L27.1898 289.752C83.5607 353.835 183.3 415.35 300.839 458.526C359.817 480.191 418.947 495.63 476.584 504.413C537.889 513.753 594.327 515.008 644.335 508.14C690.355 501.82 730.09 488.631 762.435 468.936C797.222 447.752 823.585 418.898 840.783 383.174C856.345 350.852 854.427 324.359 834.922 302.186C796.07 258.019 695.006 239.46 613.797 224.547C553.719 213.515 506.265 204.8 491.84 188.419L491.835 188.413C491.682 188.239 491.539 188.076 491.397 187.903C479.046 173.013 480.501 151.21 482.038 128.13C483.933 99.6378 485.896 70.1746 465.073 46.5033L465.074 46.4978Z" fill="#88090C"/>
</svg>
