<svg width="412" height="55" viewBox="0 0 412 55" fill="none" xmlns="http://www.w3.org/2000/svg">
<path d="M15.9901 263.556L15.9723 263.536C12.9337 260.082 9.99949 256.582 7.24575 253.13C-7.16912 235.051 2.78595 219.714 12.4098 204.884C16.3222 198.853 20.3708 192.619 23.2928 185.755C48.2455 127.104 104.137 72.6561 176.643 36.3696C246.389 1.46544 316.855 -9.10492 365.134 8.09507C383.83 14.7664 397.774 23.5337 407.77 34.8977C429.04 59.0769 426.824 89.9567 425.048 114.766C423.729 133.154 422.587 149.038 430.217 158.092L430.342 158.235C439.841 169.033 480.927 176.65 524.422 184.718C594.364 197.69 681.406 213.837 717.311 254.654C736.612 276.595 739.479 303.494 725.828 334.598C698.016 397.989 638.443 438.463 553.551 451.648C510.377 458.353 461.71 458.022 408.904 450.663C359.145 443.729 308.131 430.948 257.275 412.674C154.941 375.9 66.9985 321.548 15.9872 263.559L15.9901 263.556ZM399.063 42.5676C390.402 32.7217 378.031 25.022 361.239 19.0285C316.556 3.11309 247.813 13.7333 181.837 46.7526C111.759 81.8246 57.8643 134.146 33.9703 190.3C30.6545 198.093 26.1342 205.06 22.1432 211.207C11.9936 226.844 7.50545 234.85 16.3165 245.902C18.9509 249.207 21.7655 252.565 24.6815 255.88L24.6942 255.894C74.457 312.465 160.651 365.625 261.199 401.756C364.377 438.834 470.29 452.842 551.774 440.185C590.747 434.132 624.185 422.214 651.164 404.762C680.084 386.052 701.631 360.879 715.205 329.944C727.046 302.954 724.884 280.837 708.598 262.324C675.343 224.519 590.489 208.781 522.304 196.132C472.847 186.96 433.784 179.715 421.629 165.91L421.343 165.585C410.674 152.917 412.036 133.987 413.471 113.947C415.18 90.1135 417.117 63.1032 399.054 42.5698L399.063 42.5676Z" fill="#88090C"/>
</svg>
