<svg width="409.6248474121094" height="361.2413635253906" viewBox="0 0 409.6248474121094 361.2413635253906" fill="none" xmlns="http://www.w3.org/2000/svg"><path d="M 50.86823104650447 361.2413635253906 C 36.61463709939409 361.2413635253906 35.010317069133876 349.23944305035747 33.838947649467386 340.47771809499113 C 32.91886204577673 333.58356291680576 31.770654027392915 325.00738168413454 26.555547310428846 315.77393128740334 C -1.0392865998108256 266.9155209536422 -7.580357064267858 203.07404902058204 9.05850147398558 144.99378541806735 C 21.328886115295035 102.15954506519857 44.34260391266563 68.89513377009445 72.20031952929735 53.726445848524236 C 83.8676230860011 47.38521518244875 95.17537443526065 44.17208208638382 105.81048113737388 44.17208208638382 C 131.2365417072422 44.17208208638382 147.77490799202778 61.5718140571 161.06589224270417 75.55345462120165 C 168.03998650103242 82.88840243701476 175.2498776481311 90.47466683794318 179.88896450249518 90.47466683794318 C 186.43007699664307 90.38186834030654 206.7608788816977 74.64477963498435 223.09433051477126 61.99711779922464 C 258.7727746844773 34.37409677463324 303.17660627099764 0 341.8163326823577 0 C 362.21671730139093 0 378.63909564931765 9.562116322350331 390.63500133901147 28.423410916582945 C 415.6938020460234 67.82797527229522 415.9566719546075 113.70910158699388 391.39657343837393 161.09820116200595 C 365.88546247092995 210.3239377104619 315.32326951233114 258.74541988676077 249.0229865520444 297.44239497418147 C 184.57446983227354 335.056719718315 112.784613738578 358.2988474747562 52.06669957020066 361.2104004843087 C 51.65304763874238 361.2297335053699 51.254821617701474 361.23749314525537 50.86823104650447 361.23749314525537 L 50.86823104650447 361.2413635253906 Z M 50.13756920399431 346.2273093851611 C 50.38112126200502 346.25824221770665 50.84116595334302 346.2814682753053 51.347599579490215 346.25440204610777 C 109.73823685756847 343.45884723494345 179.03848412235448 320.95132286439366 241.47286137067118 284.51244613726243 C 304.4291382496654 247.76810732791816 354.22583338830344 200.27461073872468 378.09780115971864 154.21175650674624 C 400.37701619072544 111.22285139769573 400.3422156066987 71.60948416366617 377.99341415489835 36.46591923833527 C 368.8002901063828 22.008686540214605 356.96294400620457 14.979220719012362 341.8085933203367 14.979220719012362 C 308.2873252457784 14.979220719012362 264.33970309522056 49.00146689952199 232.25268568586893 73.84439859294737 C 205.55860556493477 94.50753066423262 191.11945864369892 105.29922338846612 180.12095659819886 105.45388755695554 L 179.88509482148467 105.45388755695554 L 179.881272331706 105.45388755695554 C 168.81704985960792 105.45388755695554 160.19221073584933 96.38282866424845 150.20657631132514 85.87339845399534 C 138.29958701340252 73.34560040303366 124.803716130808 59.147432425260945 105.80278896658469 59.147432425260945 C 97.6921189598386 59.147432425260945 88.78891350674192 61.749656844320256 79.34450573442095 66.88064073449841 C 55.35269435503331 79.94202909680293 34.45362081775569 110.68541725608142 23.443521527032036 149.11172828268786 C 7.88711629318502 203.41431797414856 13.92179682025246 262.96387168551826 39.583677874507096 308.4003379324388 C 46.2175720172587 320.15094772232635 47.636363222031605 330.7454186211073 48.67242597864729 338.48636031565314 C 49.03968701667593 341.22004951934326 49.52679949715884 344.88172357264267 50.133746714215626 346.21956862489066 L 50.13756920399431 346.2273093851611 Z" fill="black" fill-rule="nonzero" clip-rule="nonzero" stroke="none" /></svg>