<svg width="600" height="167" viewBox="0 0 600 167" fill="none" xmlns="http://www.w3.org/2000/svg">
<path d="M-4.342 377.608L-4.34711 377.602C-10.202 370.947 -15.6817 364.249 -20.6416 357.692C-46.3831 323.658 -27.4469 291.724 -13.619 268.407C-11.4598 264.768 -9.42054 261.331 -7.71263 258.151C33.4427 181.53 125.474 105.099 238.468 53.7038C351.776 2.16729 462.843 -13.4423 535.569 11.9501C564.885 22.1932 586.407 35.4363 601.37 52.4459C630.652 85.7337 628.226 127.245 626.089 163.869C624.363 193.392 622.734 221.279 637.974 240.079C638.182 240.333 638.39 240.639 638.616 240.837C657.417 262.193 728.433 275.045 810.66 289.928C925.251 310.669 1067.87 336.48 1122.06 398.086C1151.08 431.078 1152.59 471.839 1126.56 519.243C1099.82 567.915 1060.73 606.754 1010.35 634.678C963.993 660.38 907.838 677.01 843.456 684.098C773.012 691.854 693.732 688.254 607.814 673.395C528.146 659.618 446.392 636.884 364.821 605.828C206.283 545.473 68.2819 460.155 -4.33362 377.606L-4.342 377.608ZM597.084 56.2154C582.788 39.9633 562.049 27.2469 533.685 17.3358C462.308 -7.58664 352.827 7.9517 240.823 58.8976C128.926 109.796 37.8888 185.29 -2.69456 260.852C-4.4615 264.141 -6.52867 267.628 -8.71863 271.321C-22.4455 294.471 -39.5292 323.277 -16.0956 354.254C-11.2215 360.696 -5.8308 367.287 -0.0729371 373.832C71.9575 455.722 209.122 540.458 366.839 600.5C448.068 631.424 529.466 654.059 608.777 667.775C694.167 682.542 772.91 686.13 842.825 678.428C906.454 671.42 961.887 655.024 1007.58 629.691C1057 602.294 1095.35 564.213 1121.55 516.496C1146.66 470.788 1145.42 433.286 1117.77 401.853C1064.89 341.739 923.362 316.12 809.638 295.539C726.363 280.465 654.445 267.449 634.331 244.607C634.061 244.277 633.798 243.989 633.541 243.674C616.91 223.158 618.602 194.201 620.392 163.546C622.568 126.281 624.819 87.7496 597.084 56.2208L597.084 56.2154Z" fill="#88090C"/>
</svg>
