<svg width="507" height="103" viewBox="0 0 507 103" fill="none" xmlns="http://www.w3.org/2000/svg">
<path d="M21.6656 312.605L21.6605 312.599C17.3709 307.723 13.2902 302.791 9.52977 297.949C-9.43055 273.514 3.82057 251.632 15.512 232.327C18.7782 226.931 21.8633 221.838 24.2887 216.739C55.6344 150.838 127.762 86.1439 217.226 43.6875C305.662 1.7188 393.587 -10.957 452.427 9.77815C475.672 17.9785 492.867 28.6686 504.996 42.4563C529.687 70.5251 527.448 105.2 525.475 135.794C523.939 159.537 522.619 180.042 533.531 193.278C533.638 193.406 533.745 193.533 533.86 193.664C547.34 208.976 602.691 219.1 661.297 229.821C750.394 246.122 861.277 266.406 905.012 316.123C928.518 342.845 930.796 375.73 911.783 413.863C891.987 453.566 862.053 485.526 822.816 508.853C786.731 530.308 742.689 544.537 691.913 551.153C637.063 558.3 575.295 556.57 508.32 546.018C445.755 536.159 381.587 519.132 317.604 495.419C256.302 472.699 197.124 444.245 146.468 413.138C94.74 381.374 51.5868 346.608 21.674 312.603L21.6656 312.605ZM498.18 48.4418C487.103 35.85 471.15 25.9982 449.406 18.3266C392.775 -1.629 307.431 10.9131 221.114 51.8777C133.478 93.4675 62.9577 156.552 32.485 220.63C29.8632 226.144 26.5144 231.674 23.2761 237.02C12.1116 255.455 1.56576 272.872 16.7026 292.38C20.3488 297.081 24.3101 301.866 28.4746 306.6C87.2993 373.472 196.559 440.88 320.758 486.909C384.179 510.416 447.762 527.288 509.733 537.052C575.851 547.473 636.751 549.188 690.74 542.15C740.286 535.694 783.16 521.864 818.177 501.045C855.893 478.623 884.653 447.923 903.66 409.805C921.108 374.809 919.323 346.12 898.196 322.103C856.54 274.749 747.376 254.78 659.66 238.732C594.26 226.769 542.608 217.319 527.05 199.644C526.891 199.47 526.7 199.247 526.532 199.039C513.333 183.026 514.833 159.793 516.421 135.196C518.374 104.954 520.392 73.6812 498.183 48.4337L498.18 48.4418Z" fill="#88090C"/>
</svg>
