<svg width="309.02410888671875" height="275.8589782714844" viewBox="0 0 309.02410888671875 275.8589782714844" fill="none" xmlns="http://www.w3.org/2000/svg"><path d="M 45.74517148432402 275.8589782714844 L 45.74134899430558 275.8589782714844 C 41.38447280668109 275.8589782714844 38.740151782522524 273.98753631031616 37.29043704960637 272.42156158732365 C 33.869110132451624 268.72508793204685 34.22864519571391 264.1509163627703 34.541783578945505 260.11804819746146 C 34.978630949954166 254.48053948968695 35.57785017952956 246.7589461729169 28.940089626256256 236.06391936819855 C 1.7202443852854152 192.22822793962007 -6.811780812352174 140.7366592680825 5.5320570181627 94.78593788999528 C 13.623398298790175 64.67282643766009 30.254489392300815 41.00531745332672 51.16130950179757 29.8501645575171 C 60.11474763329872 25.082641765988633 68.93677882205978 22.669901563326057 77.38764947442854 22.669901563326057 C 99.56248626507028 22.669901563326057 114.13693209946378 38.55002003249653 124.7797714574963 50.1459655565387 C 128.162439167634 53.834705826672 132.73582284159565 58.81877363497815 134.8968643291184 59.82795725726127 C 138.87488154149307 58.6873090375235 149.88496124529615 50.304494789507 158.79587417534225 43.52247089286189 C 182.92299317803253 25.156101549889865 215.9648933172961 0 246.88054370688982 0 C 262.5297308335083 0 275.88259100025425 6.360572843729496 286.5756868112548 18.907703353032023 C 310.83038141831025 47.36977616452914 315.5351661361076 81.96810940082239 300.1797872131473 118.96377728167575 C 284.7006994176229 156.25717237809556 249.95783103776182 193.17937678756667 202.35306535070578 222.92902946310429 C 154.30371988899836 252.96094258392134 99.16425713134456 271.73716880206337 47.098238568379095 275.80096977044997 C 46.61886622634134 275.83963581174817 46.1704249275154 275.85510789143166 45.749041165577246 275.85510789143166 L 45.74517148432402 275.8589782714844 Z M 77.38377979317532 39.33108529452395 C 71.68930049924778 39.33108529452395 65.49995474581604 41.09039390860768 58.98976905954483 44.554871172052955 C 42.13828494513835 53.544725639928735 28.514862682049262 73.43065575135259 21.618086400333745 99.10877481085629 C 10.464947574292822 140.624503796112 18.28950869362815 187.33697909825383 43.08929598127101 227.27126548398576 C 51.424189012588656 240.69611529467784 51.73349566572118 251.7468335662251 51.339173265741614 258.69898751104995 C 99.18362618377591 253.97013090774277 149.42876800270682 236.3577762037123 193.52329037526002 208.80049027910314 C 237.56755703220824 181.2741349450832 270.83372319175453 146.20017566008272 284.7935098292047 112.57618700218936 C 297.77522273209314 81.31082623834388 294.10645668628194 53.43259671782142 273.89936608544076 29.71871323499403 C 266.41497192168276 20.933789048443728 257.57750919914355 16.665054111250637 246.88441338814303 16.665054111250637 C 221.58592387844274 16.665054111250637 191.13030544344375 39.853082154244206 168.889748959445 56.78494174042649 C 151.77924985395936 69.81153032868664 143.21628453432749 76.0947568296393 135.6120474924434 76.54714948949358 C 135.31823864359254 76.5626159054367 135.05148924416488 76.57037176981004 134.78860763649763 76.57037176981004 L 134.7808682739912 76.57037176981004 C 126.41118203009451 76.57037176981004 119.96671456245421 69.5447241162588 112.50165037088625 61.41325548691382 C 103.00311955879766 51.062356208622916 92.23272450520219 39.33108529452395 77.38377979317532 39.33108529452395 Z" fill="black" fill-rule="nonzero" clip-rule="nonzero" stroke="none" /></svg>