<svg width="5.6681742668151855" height="11.240299224853516" viewBox="0 0 5.6681742668151855 11.240299224853516" fill="none" xmlns="http://www.w3.org/2000/svg">
<path fill-rule="evenodd" clip-rule="evenodd" d="M4.77509 0.000538665C4.78389 0.00420327 4.79195 0.0115324 4.79928 0.0210604C4.83226 0.0591723 4.85938 0.270987 4.86744 0.410975C4.86891 0.440292 4.86891 0.463747 4.83812 0.483536C4.21661 0.861723 2.35426 2.97327 0.731567 3.34193C0.660474 3.35732 0.651675 3.41742 0.686855 3.45333C2.61664 5.72099 0.315266 9.26247 4.11913 10.6125C4.82566 10.8067 5.5366 10.7144 5.66779 11.1849C5.67146 11.2018 5.648 11.223 5.63408 11.223C3.34663 11.3682 1.91963 10.5971 1.49234 8.96343C0.941916 7.14286 1.97827 4.55638 0.0264969 3.14477C-0.0226088 3.10739 0.00377417 3.0429 0.0470166 3.04729C2.02004 3.24811 3.2814 1.15489 4.74724 0.00566965C4.75457 0.000539202 4.76703 -0.000927178 4.77509 0.000538665ZM4.14845 3.04729C4.1719 3.05242 4.19609 3.05975 4.21661 3.07221C4.23933 3.08321 4.26132 3.10593 4.27378 3.13085C4.28404 3.1521 4.2811 3.22173 4.27378 3.26937C4.26571 3.30015 4.23786 3.31774 4.221 3.33753C4.18582 3.38077 4.15504 3.40056 4.11033 3.43281C4.05317 3.47166 3.98354 3.42988 3.97108 3.38517C3.95422 3.30821 3.95422 3.22173 3.97108 3.15357C3.97548 3.12938 3.99453 3.10886 4.00846 3.08614C4.03118 3.06268 4.05463 3.05023 4.09128 3.04729C4.10667 3.04729 4.12719 3.04436 4.14845 3.04729ZM3.47929 3.79121C3.48662 3.79267 3.49468 3.79414 3.50201 3.8C3.51593 3.811 3.52253 3.82932 3.52253 3.84838C3.52693 3.94366 3.57457 4.08071 3.48808 4.13348C3.44704 4.15474 3.3972 4.15987 3.36349 4.12249C3.34516 4.09464 3.30925 4.09024 3.30925 4.04113C3.30925 4.01768 3.33857 4.01182 3.3481 3.98397C3.36055 3.94512 3.35396 3.87549 3.36788 3.84838C3.37888 3.82639 3.38841 3.80367 3.41113 3.8C3.43458 3.79414 3.45584 3.78608 3.47929 3.79121ZM4.85645 3.8C4.92021 3.82199 4.98324 3.87256 5.00596 3.95465C5.03381 4.00229 5.03235 4.03601 5.00596 4.06532C4.97371 4.11516 4.93047 4.17379 4.87184 4.19945C4.82273 4.22437 4.75824 4.22876 4.73625 4.12249C4.71353 4.03454 4.71499 3.91141 4.75604 3.87769C4.80734 3.84032 4.79342 3.78461 4.85645 3.8ZM4.11473 4.88912C4.21661 5.74225 4.52956 6.71703 4.83373 7.3576C4.47899 7.30996 4.19315 7.52544 4.17337 7.80175C4.08395 7.49026 3.84502 7.24913 3.56064 7.33268C3.74754 6.56019 3.97767 5.72685 4.11473 4.88912Z" fill="#0053A0"/>
</svg>
