<svg width="14.531086921691895" height="19.195571899414062" viewBox="0 0 14.531086921691895 19.195571899414062" fill="none" xmlns="http://www.w3.org/2000/svg">
<path fill-rule="evenodd" clip-rule="evenodd" d="M3.57775 0.00036041C3.7969 0.00622378 4.04536 0.0846455 4.31067 0.260547C4.68813 0.59256 4.82738 1.1122 4.95198 1.57687C5.12202 2.36183 5.54418 3.97499 5.69883 4.76215C5.43791 4.55254 5.2129 4.52908 4.91826 4.59358C3.76611 4.84204 2.61836 5.10296 1.4706 5.35142C1.19283 5.40492 0.987608 5.6226 0.83003 5.86666C0.660726 4.77461 -0.0179605 2.55459 0.000362396 1.44055C0.0223503 0.52733 0.868876 -0.0553426 1.67875 0.134484C2.1383 0.263478 2.39628 0.794115 2.49816 1.16644C2.49963 0.61235 2.92032 -0.0172297 3.57775 0.00036041ZM3.57335 1.32475C3.23548 1.32695 2.92325 1.63844 3.0134 2.02982C3.10282 2.43732 3.2648 3.29484 3.36447 3.69795C3.75659 3.61879 4.16409 3.53084 4.55107 3.44143C4.43967 3.02073 4.33486 2.4234 4.22419 1.9961C4.11279 1.51164 3.83501 1.32475 3.57335 1.32475ZM1.46107 1.39731C1.10927 1.40977 0.786786 1.76304 0.864475 2.19326C0.97368 2.7107 1.17304 3.66497 1.26832 4.17435C1.69561 4.08786 2.13829 3.98452 2.56999 3.8995C2.46078 3.38133 2.29294 2.63448 2.15515 2.1163C2.02763 1.58567 1.73592 1.38851 1.46107 1.39731ZM5.78018 4.98862C6.10413 5.57056 6.40023 6.12539 6.73958 6.71465C6.48232 6.59152 6.228 6.5776 6.01618 6.69047C5.26347 7.08844 4.62217 7.4615 3.87679 7.87633C3.58875 8.04271 3.27652 8.35273 3.24427 8.76317C3.25673 9.31286 3.63639 9.97762 4.1421 10.2012C4.50783 10.3727 4.92413 10.1968 5.20191 10.0363C5.88499 9.62581 6.42369 9.33412 7.10677 8.91782C7.34277 8.78223 7.55312 8.68182 7.57438 8.24353C7.90126 8.79762 8.19589 9.40374 8.5389 9.97469C8.08375 9.77094 7.77006 9.90653 7.44318 10.1088C6.83559 10.4584 6.32987 10.7516 5.72815 11.1019C5.2686 11.3628 4.80833 11.5351 4.18095 11.3951C3.63932 11.2698 3.17978 10.7457 2.84923 10.2056C2.49962 9.63974 2.19253 8.98085 2.22771 8.35493C2.25849 7.7085 2.65207 7.26728 3.09036 6.97557C3.80569 6.54242 4.37371 6.24412 5.09563 5.82342C5.37341 5.65631 5.77139 5.40492 5.78018 4.98862ZM5.38587 11.6509C5.40126 12.1954 5.70616 12.836 6.09387 13.2802C6.28956 13.5425 6.91914 14.2564 7.17346 14.5298C8.03538 13.7983 8.81961 13.135 9.68445 12.4087C9.91313 12.2204 10.0934 11.958 10.1044 11.6604C10.4621 12.0291 10.9451 12.5766 11.2764 12.9716C10.9803 12.9298 10.7025 13.0735 10.4804 13.2618C9.63242 13.9852 8.81008 14.7269 7.94963 15.4394C7.69164 15.6739 7.55898 15.9011 7.54506 16.2741C6.7645 15.3932 5.31624 13.7287 4.55547 12.8331C4.65881 12.7884 4.7966 12.7722 4.85523 12.6491C5.08024 12.2387 5.14767 11.9763 5.38587 11.6509ZM11.3584 13.0735C11.6003 13.3908 12.0848 13.5748 12.4336 13.7287C13.1878 14.0886 14.2462 14.949 14.4668 15.9568C14.6427 16.8253 14.4514 17.5267 13.9713 18.1592C13.4964 18.8013 12.8976 19.1743 12.0708 19.1956C11.1459 19.1868 10.1601 18.5924 9.43013 17.8507C9.18973 17.6103 8.8951 17.2797 8.5433 17.2526C8.83646 16.9037 9.08126 16.5101 9.40081 16.1774C9.6075 16.8143 10.6028 17.8602 11.2764 18.0434C11.8708 18.1775 12.2687 18.017 12.7034 17.6425C13.1864 17.1427 13.4869 16.527 13.2868 15.8065C12.9892 14.8779 11.7564 14.1978 10.9817 14.3319C11.1224 13.9171 11.2287 13.4729 11.3584 13.0735Z" fill="#0053A0"/>
</svg>
