<svg width="12.258878707885742" height="17.078115463256836" viewBox="0 0 12.258878707885742 17.078115463256836" fill="none" xmlns="http://www.w3.org/2000/svg">
<path fill-rule="evenodd" clip-rule="evenodd" d="M9.48693 0.00324519C10.2426 -0.0290034 10.7424 0.179146 11.2701 0.625495C11.8609 1.16273 12.2632 1.78644 12.2588 2.72238C12.2391 3.4597 11.4336 4.61845 10.4646 5.22971C10.192 5.43126 9.75958 5.68265 9.71853 6.01906C9.39752 5.69072 9.06257 5.36676 8.73422 5.05967C9.52065 4.82367 10.8524 4.05996 11.0437 3.18046C11.1653 2.48052 10.9938 2.25185 10.6963 1.86926C10.1407 1.19864 9.57781 0.956042 8.73422 1.18911C7.98005 1.48961 7.30429 2.43435 7.24566 3.12256C6.85355 2.91734 6.48196 2.7539 6.08398 2.55381C6.39987 2.35812 6.53912 2.12359 6.75313 1.83995C7.21634 1.16493 8.08778 0.201134 9.14466 0.0325616C9.26339 0.0186361 9.37919 0.00837564 9.48693 0.00324519ZM5.32687 3.60482C5.34226 4.09881 5.60245 4.25126 5.95718 4.51511C6.81836 5.10438 7.63411 5.70464 8.49309 6.27559C8.73716 6.43097 9.05304 6.63032 9.40045 6.46321C9.12121 6.8971 8.56932 7.63003 8.28641 8.05879C8.25709 7.6161 8.01963 7.41528 7.75138 7.23938C6.82276 6.61933 5.94985 5.95017 5.01831 5.33598C4.74933 5.15422 4.59542 5.07506 4.23775 5.19526C4.5148 4.77163 5.04763 4.02918 5.32687 3.60482ZM3.6778 5.92818C3.93505 6.31663 4.506 6.08063 4.91131 6.23674C4.41805 6.51452 3.87349 7.40575 3.66827 7.92906C4.77132 8.44577 5.68307 8.90971 6.78758 9.43301C6.9972 9.53929 7.32848 9.47186 7.54322 9.38977C7.31529 9.85224 6.93417 10.6658 6.7055 11.1253C6.58383 10.7691 6.22763 10.4664 5.89562 10.3198C4.90837 9.8713 4.09556 9.43741 3.09879 9.01378C2.84593 9.51144 2.42157 10.4481 2.56376 11.0095C2.18264 10.7794 1.99574 10.2781 1.56112 10.325C2.08882 9.18162 3.14496 7.07007 3.6778 5.92818ZM1.28188 10.8739C1.38669 11.3533 1.82204 11.6296 2.09175 11.9872C2.63192 12.6183 3.28129 13.3292 3.9138 13.9683C4.06478 14.1098 4.4393 14.1545 4.66651 14.2058C5.13704 14.274 5.35619 14.3289 5.71679 14.027C5.60392 14.5341 5.41922 15.4386 5.31734 15.9458C5.11652 15.6416 4.90251 15.4628 4.50747 15.3623C4.15566 15.2993 3.84417 15.1637 3.59131 15.2744C2.43696 15.9025 0.271179 16.7974 -9.53674e-07 17.0781L0.39504 15.1835C0.523301 15.3689 0.674286 15.4584 0.828199 15.3997C1.52081 15.1315 2.34315 14.7489 2.93095 14.5239C2.50073 14.024 1.99794 13.541 1.5428 13.0676C1.34491 12.8264 1.07373 12.7312 0.83333 12.9657L1.28188 10.8739Z" fill="#0053A0"/>
</svg>
