<svg width="6.652193069458008" height="11.595874786376953" viewBox="0 0 6.652193069458008 11.595874786376953" fill="none" xmlns="http://www.w3.org/2000/svg">
<path fill-rule="evenodd" clip-rule="evenodd" d="M1.60984 0.000171534C1.6223 0.000171534 1.63769 0.00676854 1.65308 0.0192282C3.60778 1.39785 4.13842 3.84141 6.65219 3.43757C4.86789 4.27164 4.91092 6.32235 4.72893 8.22428C4.57524 9.82645 3.35016 11.9849 0.0472503 11.5356C0.0106039 11.5327 -0.0143156 11.5034 0.00913763 11.4682C0.220219 11.167 0.928221 11.2659 1.10412 11.2366C3.71882 10.7463 4.16158 8.34155 4.70467 5.62021C4.83103 4.83379 5.34129 4.33687 5.65447 3.74613C5.67711 3.68603 5.69749 3.66698 5.62068 3.65305C3.95482 3.33423 2.69896 1.88891 1.36358 0.351973C1.33573 0.335116 1.3306 0.297003 1.36358 0.269152C1.43907 0.193662 1.50796 0.11011 1.57612 0.0192282C1.58858 0.00676854 1.59591 -0.00129431 1.60984 0.000171534ZM1.85976 3.16273C1.88322 3.16419 1.90814 3.16932 1.92793 3.18105C1.95138 3.19204 1.97263 3.2155 1.98656 3.23969C1.99755 3.26167 1.99242 3.3313 1.98656 3.37894C1.97703 3.40972 1.94478 3.42658 1.92793 3.44637C1.89275 3.48961 1.86123 3.51453 1.81652 3.54824C1.76009 3.58562 1.69486 3.53945 1.6824 3.49474C1.66554 3.41705 1.66554 3.3313 1.6824 3.26314C1.68753 3.23822 1.70585 3.22283 1.72124 3.20011C1.7425 3.17665 1.76595 3.16419 1.8026 3.16273C1.81872 3.16126 1.83851 3.1598 1.85976 3.16273ZM1.10852 3.84581C1.11658 3.84801 1.12391 3.85094 1.13197 3.8568C1.1459 3.86633 1.15689 3.88465 1.15689 3.90444C1.16129 3.99899 1.2104 4.13751 1.12245 4.18882C1.08067 4.21154 1.02717 4.21667 0.993452 4.17929C0.974396 4.15144 0.940681 4.14558 0.940681 4.09794C0.939216 4.07302 0.968533 4.06642 0.977327 4.0393C0.989787 4.00046 0.983924 3.93083 0.997849 3.90444C1.00884 3.88319 1.02204 3.85974 1.04549 3.8568C1.06894 3.85094 1.0858 3.84141 1.10852 3.84581ZM2.43877 3.94769C2.5018 3.96967 2.56997 4.02025 2.59269 4.10233C2.62054 4.14997 2.61907 4.18369 2.59269 4.21301C2.56044 4.26284 2.5128 4.32148 2.45416 4.34786C2.40433 4.37205 2.33983 4.37718 2.31784 4.27017C2.29365 4.18222 2.29659 4.05469 2.33836 4.02025C2.38893 3.9836 2.37501 3.93229 2.43877 3.94769ZM1.66701 5.09544C1.77035 5.94856 2.08184 6.92335 2.386 7.56392C2.03127 7.51628 1.74763 7.73176 1.72564 8.00661C1.63622 7.69511 1.39729 7.45545 1.11365 7.539C1.29981 6.76504 1.52995 5.93317 1.66701 5.09544Z" fill="#0053A0"/>
</svg>
