<svg width="12.473387718200684" height="6.807541370391846" viewBox="0 0 12.473387718200684 6.807541370391846" fill="none" xmlns="http://www.w3.org/2000/svg">
<path fill-rule="evenodd" clip-rule="evenodd" d="M6.19856 0C6.29677 0.282908 6.36347 0.655964 6.42943 0.98358C6.44336 1.05541 6.47927 1.10451 6.52251 1.15655C8.71615 3.36411 11.4265 2.72134 12.4365 5.95865C12.5508 6.23203 12.4057 6.52153 11.9168 6.79198C11.8677 6.8213 11.8245 6.80884 11.8245 6.75753C11.9476 3.24244 7.19827 3.47991 6.15972 1.04075C6.14872 1.01583 6.11354 1.02243 6.10255 1.04075C5.22964 2.6693 3.78725 2.88258 2.46873 3.64482C1.48148 4.2143 0.769814 4.73101 0.56826 6.34857C0.561664 6.42479 0.540409 6.41086 0.501564 6.37202C0.352048 6.20711 -0.0107479 6.12209 0.000246048 5.8751C0.319799 3.48871 2.94806 2.97346 5.05667 1.99061C5.14462 1.92319 5.23404 1.85576 5.32199 1.78833C5.76321 1.26649 6.09962 0.677952 6.19856 0ZM6.23667 2.98446C6.26013 2.98592 6.27992 2.99105 6.30044 3.00278C6.32316 3.01377 6.34515 3.03723 6.35761 3.06141C6.36933 3.0834 6.36493 3.15303 6.35761 3.20067C6.34954 3.23145 6.32169 3.24831 6.30484 3.2681C6.26966 3.31134 6.23887 3.33626 6.19343 3.36997C6.137 3.40735 6.06737 3.36118 6.05491 3.31647C6.03805 3.23878 6.03805 3.15303 6.05491 3.08487C6.05931 3.05995 6.07836 3.04455 6.09375 3.02183C6.11501 2.99838 6.13846 2.98592 6.17511 2.98446C6.1905 2.98299 6.21542 2.98152 6.23667 2.98446ZM5.51988 3.64921C5.52721 3.65068 5.53014 3.65215 5.5382 3.65874C5.55213 3.66974 5.56312 3.68806 5.56312 3.70638C5.56459 3.8024 5.60783 3.94238 5.51988 3.99222C5.47663 4.01201 5.4224 4.01934 5.38868 3.98123C5.37183 3.95338 5.33885 3.94385 5.34104 3.89474C5.34104 3.87129 5.37329 3.86396 5.38355 3.83758C5.39748 3.79873 5.39015 3.72984 5.40408 3.70199C5.41654 3.68146 5.429 3.66167 5.45172 3.65874C5.47517 3.65435 5.49642 3.64335 5.51988 3.64921ZM6.83987 3.66314C6.90363 3.68513 6.97106 3.7313 6.99451 3.81266C7.02237 3.86103 7.0209 3.89914 6.99451 3.92846C6.9608 3.9783 6.91902 4.03693 6.86039 4.06405C6.81055 4.0875 6.74605 4.0875 6.72407 3.98123C6.69988 3.89328 6.69841 3.76941 6.73799 3.7357C6.7893 3.69905 6.77684 3.64775 6.83987 3.66314ZM6.1414 4.82482C6.4221 5.66988 6.49466 6.09571 6.69475 6.76853C6.32829 6.77146 6.126 6.77293 5.86215 6.77806C6.0769 6.01142 6.08716 5.70726 6.1414 4.82482Z" fill="#0053A0"/>
</svg>
