<svg width="24.43109893798828" height="27.757322311401367" viewBox="0 0 24.43109893798828 27.757322311401367" fill="none" xmlns="http://www.w3.org/2000/svg">
<path fill-rule="evenodd" clip-rule="evenodd" d="M1.02944 0.000651462C1.03677 0.00211725 1.04483 0.00211738 1.05362 0.00651475C2.80597 0.501951 5.17249 2.52401 7.12199 4.29614C7.17915 4.36137 7.25757 4.3753 7.32133 4.35331C8.61709 3.9275 10.1239 3.87253 11.3794 3.83808C13.1706 3.67318 15.3238 3.89232 17.2506 4.51675C17.3334 4.54606 17.3957 4.47057 17.4573 4.39655C18.9824 2.6999 21.1313 1.31033 23.4501 0.342913C23.5146 0.312131 23.5689 0.284282 23.6429 0.352441C24.8331 1.45032 24.5715 4.70217 23.5498 6.46551C23.4296 6.72129 23.4032 7.16982 23.4003 7.323C23.3278 8.27136 23.1431 9.09074 22.8946 9.97461C22.833 10.5235 22.6227 11.082 22.3068 11.5555C22.2453 11.631 22.2716 11.6991 22.3164 11.7482C22.7202 12.1528 23.0888 12.5353 23.4927 12.9392C23.522 12.967 23.5777 12.9868 23.6319 12.9963C23.9668 13.0352 24.0716 13.1444 24.2299 13.5313C24.2534 13.587 24.2505 13.6259 24.2211 13.6721C24.164 13.7783 23.7755 14.4511 23.4545 14.8088C23.1445 15.1159 23.2603 15.4076 23.522 15.6868C23.0273 16.0569 22.1419 16.7649 22.0892 16.8726C22.0335 17.1577 21.5307 17.2537 21.8304 17.6627C21.7513 17.681 21.7037 17.7103 21.6421 17.7594C21.5974 17.8078 21.5879 17.854 21.5835 17.9045C21.5432 18.3487 21.4596 18.7518 21.2133 19.1768C20.2107 20.8771 19.0872 20.6148 17.7519 22.0644C16.953 22.9329 16.1644 22.9674 15.6214 24.4991C15.6712 25.0803 15.702 25.4365 15.4623 25.9392C15.1787 26.5534 14.4802 26.5769 13.5825 26.9851C13.4623 27.032 13.3956 27.0686 13.3076 27.1595C13.0731 27.3882 12.8034 27.5348 12.4978 27.6799C12.2508 27.7847 11.9584 27.7847 11.7312 27.6703C11.2995 27.4234 11.2086 27.6022 10.4105 27.0283C9.6578 26.8063 8.42874 25.8792 8.55993 24.3012C8.55553 24.2551 8.54454 24.2243 8.53061 24.184C8.50716 24.1114 8.43973 24.0389 8.37597 23.9685C8.07255 23.6057 7.72516 23.2847 7.51262 22.845C7.46938 22.7387 7.432 22.6354 7.33526 22.5555C4.33039 20.1025 5.39309 21.1806 4.30694 20.348C2.07967 18.6543 3.5418 16.6769 0.933426 15.571C1.28668 14.8227 1.16649 14.7545 0.0173073 13.1612C0.624878 12.8402 1.04776 12.4716 1.46917 12.177C2.79058 11.1406 1.59083 10.2612 1.48236 9.75254C1.40688 9.46378 1.29328 9.09953 1.26543 8.73089C1.12471 7.88146 1.20387 6.88033 0.769993 6.4362C0.450451 6.12765 0.358105 4.43833 0.307535 4.30127C-0.0427876 3.19827 0.0854702 3.05023 0.0217075 2.35764C0.011446 2.2653 -0.021534 2.19127 0.0217075 2.0894C0.26576 1.4166 0.564781 0.765793 0.909241 0.120846C0.940023 0.0651461 0.962744 0.0116449 1.00598 0.000651462C1.01258 -0.000814327 1.02138 0.000651462 1.02944 0.000651462ZM2.07015 2.5951C2.21086 3.9788 2.71509 4.89492 2.55752 6.05509C3.1453 6.77699 2.94815 8.12332 3.4883 8.92877C3.52348 8.97494 3.57112 9.00133 3.62828 8.9962C4.34578 8.87747 4.84855 7.97381 5.45905 7.46298C5.52135 7.41388 5.55213 7.36771 5.53161 7.3186C5.28316 6.766 4.71296 6.21193 5.15563 5.65053C5.13365 4.04183 3.212 3.78312 2.07015 2.5951ZM22.7356 2.8604C21.6084 3.49143 20.8894 4.55119 20.3353 4.56658C20.2489 4.7007 20.1257 4.83922 20.0224 4.94769C19.1928 5.89166 19.8509 6.24345 19.1217 7.45419C19.0425 7.62349 19.0073 7.78839 19.1217 7.89173C19.609 8.31607 20.0422 8.74628 20.4467 9.2124C20.9818 9.86174 21.2427 9.62282 21.401 9.2124C21.4999 8.90825 21.6047 8.56452 21.4677 8.2142C21.3826 8.02145 21.434 7.86314 21.5791 7.67918C21.7733 7.40655 21.9316 7.11779 22.0848 6.83049C22.139 6.72276 22.1742 6.63041 22.1954 6.49483C22.3882 5.30094 22.353 3.51561 22.7356 2.8604ZM8.73289 14.6791C8.65081 14.6703 8.57825 14.7267 8.56872 14.8088C8.55993 14.8923 8.62149 14.9693 8.70358 14.9781C8.78639 14.9861 8.85895 14.926 8.86848 14.8425C8.8758 14.7611 8.81424 14.6886 8.73289 14.6791ZM16.4312 14.693C16.3477 14.6857 16.2758 14.7406 16.2678 14.8242C16.2583 14.9063 16.3205 14.9781 16.4019 14.9876C16.484 14.9971 16.558 14.94 16.5653 14.8579C16.5749 14.7751 16.5133 14.7025 16.4312 14.693ZM4.02771 18.0438C3.90605 18.0452 3.86867 18.1588 3.8826 18.2746C4.01232 19.9097 4.77453 19.4597 6.51588 21.0083C6.97101 21.3719 6.8215 21.7251 7.43567 22.2425C7.95016 22.7233 8.4302 23.2261 8.86848 23.8483C8.93957 23.9546 8.9916 23.8417 8.9982 23.7941C9.01945 23.6643 9.09641 23.5178 9.20487 23.399C9.4929 23.0751 9.03338 23.1154 9.55153 22.3393C9.76627 22.0249 10.0147 22.4301 10.1642 21.9201C10.2566 21.591 10.1686 21.753 10.2844 20.9893L9.98028 20.7379C9.83736 21.1454 9.63655 21.4862 9.41741 21.7698C9.38517 21.8087 9.44526 22.1524 9.31114 22.4551C9.28329 21.9772 8.85602 21.7024 9.46505 20.8449C9.5442 20.7335 9.58525 20.6243 9.61456 20.4931C9.61823 20.4792 9.62116 20.4682 9.62409 20.4543C8.47051 19.7045 7.17916 19.0925 5.96035 18.5876C6.02265 18.6572 6.08274 18.7268 6.14431 18.8009C6.17216 18.8346 6.11792 18.847 6.10107 18.8397C6.02704 18.8192 5.99186 18.8287 5.93323 18.8397C5.89439 18.8624 5.89879 18.9027 5.89879 18.9394C5.88999 19.0816 6.00359 19.0896 5.96988 19.2479C5.76906 18.9907 5.57778 18.7408 5.3733 18.5062C5.32493 18.4461 5.2619 18.375 5.16663 18.386L4.94382 18.4154C4.86834 18.4183 4.79578 18.4044 4.71296 18.3809C4.51655 18.304 4.36997 18.2087 4.18235 18.0819C4.12078 18.0526 4.06948 18.0438 4.02771 18.0438ZM20.4079 18.304C20.4006 18.304 20.3881 18.3091 20.3786 18.3135C19.8003 18.6037 19.0117 18.7855 18.6094 18.9548C18.3983 19.0537 18.1711 19.2003 18.0077 19.2252C17.9402 19.2296 17.9402 19.193 17.974 19.1526C18.0172 19.0845 18.0604 19.02 18.1037 18.9599C17.1099 19.4209 16.1894 19.9559 15.2161 20.5994C15.219 20.6074 15.2234 20.6148 15.2249 20.6228C15.2527 20.7056 15.2806 20.7811 15.3084 20.8493C15.3238 20.8881 15.3407 20.9314 15.3561 20.9651C15.3685 20.9944 15.3824 21.0252 15.3949 21.0516C15.4176 21.1007 15.4411 21.1549 15.4623 21.1967C15.4902 21.2502 15.521 21.3132 15.5444 21.3601C15.5517 21.3784 15.5598 21.3953 15.5679 21.4136C15.5833 21.4481 15.6001 21.4818 15.6104 21.514C15.6184 21.5375 15.6243 21.5587 15.6309 21.5822C15.6338 21.5924 15.6382 21.6034 15.6397 21.6159C15.6463 21.6467 15.6477 21.6775 15.6507 21.7112C15.6521 21.7427 15.6521 21.7749 15.6507 21.8087C15.6477 21.8446 15.6463 21.8797 15.6397 21.9201C15.628 22.0168 15.6001 22.0542 15.5679 22.0696C15.5583 22.074 15.5444 22.0754 15.5334 22.0784C15.5107 22.0835 15.466 22.0908 15.4521 22.0542C15.4411 22.0197 15.4242 21.986 15.4088 21.9538C15.3934 21.9201 15.3795 21.8893 15.3605 21.8563C15.3253 21.7918 15.2835 21.7273 15.2403 21.6635C15.2315 21.6496 15.2219 21.6342 15.2109 21.6203C15.1325 21.5096 15.046 21.4034 14.9662 21.2934C14.9581 21.2824 14.9537 21.2736 14.9456 21.2641C14.9134 21.2165 14.8841 21.1674 14.8548 21.119C14.8438 21.1021 14.832 21.0838 14.821 21.067C14.7932 21.0186 14.7653 20.971 14.7441 20.9219L14.1219 21.3843C14.2252 21.6372 14.3579 21.9801 14.3967 22.2235C14.4693 22.7709 14.8057 22.6478 15.057 22.4397C15.0416 23.004 14.9984 23.2466 15.3128 23.7413C15.3546 23.8124 15.3934 23.7875 15.4191 23.7413C16.1798 22.2748 16.9142 22.6244 17.8765 21.0618C17.963 20.8354 18.1264 20.6192 18.4415 20.5019C19.6274 20.0351 20.4746 19.714 20.4467 18.3516C20.4453 18.3274 20.4328 18.304 20.4079 18.304ZM9.94803 23.2019C9.89892 23.2048 9.85569 23.2466 9.83736 23.2986C9.59771 23.8388 9.30015 24.7886 9.39763 25.0957C9.74942 26.4442 10.6992 26.6677 11.5817 26.5519C12.2435 26.4655 12.2464 26.3101 12.2574 25.8674C12.2559 25.8191 12.1892 25.8007 12.1357 25.7853C11.3361 25.534 10.8554 25.0986 10.8348 24.2675C10.8304 24.1546 10.8165 24.0359 10.8737 23.934C10.6501 23.7911 10.4435 23.6431 10.2412 23.4577C10.2353 23.4518 10.2273 23.4452 10.2229 23.4379C10.1613 23.3404 10.0917 23.262 9.99567 23.2107C9.97881 23.2048 9.96342 23.2004 9.94803 23.2019ZM14.3923 23.3038C14.3659 23.2957 14.3425 23.3096 14.3146 23.3419C14.2948 23.3639 14.267 23.4327 14.2039 23.4327C14.0962 23.5691 13.946 23.6863 13.8045 23.7897C13.8478 23.8322 13.8741 23.882 13.891 23.934C13.9357 24.0623 13.9276 24.28 13.891 24.4786C13.8756 24.5958 13.8353 24.6992 13.7752 24.8011C13.4864 25.2503 13.2812 25.4519 12.9558 25.6739C12.8202 25.756 12.6707 25.8271 12.4978 25.8103C12.4501 25.8037 12.4223 25.8359 12.4303 25.8762C12.4824 26.538 12.7836 26.5827 13.5436 26.4889C15.2278 26.1525 15.3766 25.0554 14.4649 23.399C14.4443 23.3404 14.4165 23.3111 14.3923 23.3038ZM12.2075 26.8839C11.9752 26.8788 11.7282 26.8869 11.4856 26.9177C11.449 26.925 11.4461 26.9558 11.4563 26.9807C11.4908 27.0716 11.5926 27.1874 11.6447 27.2321C11.6769 27.257 11.7268 27.2665 11.77 27.2797C11.9518 27.3281 12.2354 27.3493 12.2852 27.342C12.3299 27.3325 12.3746 27.3156 12.4164 27.2892C12.5747 27.1998 12.7228 27.0965 12.8789 27.0012C12.9126 26.9748 12.9141 26.9345 12.8745 26.9287C12.6641 26.9081 12.4421 26.8898 12.2075 26.8839Z" fill="#0053A0"/>
</svg>
