<svg width="11.131102561950684" height="11.030933380126953" viewBox="0 0 11.131102561950684 11.030933380126953" fill="none" xmlns="http://www.w3.org/2000/svg">
<path fill-rule="evenodd" clip-rule="evenodd" d="M8.21521 0.00119633C8.22913 0.00486094 8.24452 0.00925784 8.26285 0.0165871C11.2898 1.18633 11.8945 3.904 10.2022 6.29699C8.93054 8.43346 8.36765 9.3137 8.97231 11.0309C6.60644 8.21432 2.41487 12.7709 0.01015 9.25726C-0.0220985 9.21402 0.0284729 9.1847 0.078311 9.13633C0.195579 9.05497 0.31871 9.00074 0.43891 8.9531C0.528326 8.91938 0.577433 8.93918 0.631668 9.01613C1.61598 10.0532 4.80785 9.82308 7.22136 9.83041C7.29539 9.83041 7.516 9.86925 7.58856 9.9081C7.82016 10.0268 8.0547 10.1316 8.30169 10.1096C8.36765 10.1096 8.46806 10.0745 8.45121 9.93741C8.33101 8.18206 9.37542 7.06656 10.0372 5.6183C10.2439 5.12432 11.7772 2.35388 8.08988 0.671088C8.07302 0.638839 8.03784 0.619781 8.04224 0.570675C8.05323 0.399172 8.08841 0.229868 8.13825 0.0539668C8.14704 0.0107244 8.17196 -0.00466704 8.21521 0.00119633ZM5.47701 3.34698C5.50046 3.35065 5.52465 3.35505 5.54517 3.36604C5.56789 3.3785 5.58988 3.40122 5.60161 3.42467C5.6126 3.44739 5.60967 3.51702 5.60161 3.56466C5.59428 3.59544 5.56203 3.61083 5.54517 3.63136C5.50779 3.6746 5.47848 3.69879 5.43377 3.73323C5.3766 3.76988 5.30551 3.72371 5.29378 3.679C5.27839 3.60204 5.27619 3.51555 5.29378 3.44739C5.29964 3.42321 5.3231 3.40928 5.33629 3.38583C5.35974 3.36091 5.37807 3.35065 5.41398 3.34698C5.43084 3.34552 5.45356 3.34405 5.47701 3.34698ZM4.71477 3.99342C4.72284 3.99489 4.73163 3.99635 4.73969 4.00295C4.75215 4.01394 4.76461 4.03227 4.76315 4.05059C4.76754 4.1466 4.81665 4.28366 4.73016 4.33643C4.68692 4.35768 4.63928 4.36208 4.6041 4.32544C4.58724 4.29758 4.54693 4.29318 4.54693 4.24334C4.54547 4.22062 4.57918 4.21403 4.59018 4.18618C4.60264 4.14807 4.59164 4.07844 4.6041 4.05059C4.61656 4.02934 4.62829 4.00588 4.65321 4.00295C4.6752 3.99635 4.69205 3.98902 4.71477 3.99342ZM6.07434 4.07551C6.13737 4.09676 6.2048 4.14807 6.22826 4.22942C6.25757 4.2756 6.25464 4.31151 6.22826 4.34082C6.19601 4.38993 6.15276 4.4471 6.09413 4.47495C6.04502 4.49987 5.97979 4.50427 5.96001 4.39799C5.93509 4.31004 5.93216 4.18178 5.97393 4.14807C6.0245 4.11069 6.01058 4.06011 6.07434 4.07551ZM5.37953 5.17342C5.48287 6.02654 5.7951 7.00133 6.09853 7.6419C5.7438 7.59426 5.46015 7.80535 5.43817 8.08166C5.34875 7.77017 5.10982 7.53416 4.82618 7.61845C5.01307 6.84449 5.24394 6.01262 5.37953 5.17342Z" fill="#0053A0"/>
</svg>
