<svg width="23.321664810180664" height="22.709569931030273" viewBox="0 0 23.321664810180664 22.709569931030273" fill="none" xmlns="http://www.w3.org/2000/svg">
<path fill-rule="evenodd" clip-rule="evenodd" d="M0.522303 0C0.53183 0 0.541357 0.00146566 0.551619 0.00439735C2.46601 0.700673 4.84068 2.08589 6.07565 3.92406C6.57403 4.3257 7.08488 4.71708 7.61405 5.06082C6.51393 3.59864 8.70903 3.5019 11.3549 3.21459C13.1733 3.05921 15.3434 3.62796 16.05 4.01568C16.1137 4.05232 16.1533 4.12488 16.1027 4.18938C15.9056 4.47009 15.8448 4.80063 15.7282 5.11066C15.7121 5.14438 15.7451 5.14731 15.7707 5.12459C18.0728 3.06361 21.5124 0.28364 22.6587 0.00952722C22.713 -7.60128e-07 22.7621 0.0183225 22.7899 0.0681612C22.8713 0.238932 22.8903 0.288771 22.9534 0.458076C22.9981 0.607592 23.0802 0.700673 23.1212 0.741716C23.7772 1.38522 22.6279 2.59161 22.4564 4.7977C22.3421 5.72925 22.1171 6.14701 21.9031 6.78759C21.8701 6.87407 21.8488 6.94809 21.8349 7.03385C21.5374 8.0614 21.3431 9.10875 20.9481 10.0608C20.4776 11.5897 22.3223 11.3383 22.3978 12.6062C22.441 13.4667 21.4311 13.9387 21.6033 14.5683C21.6143 14.6079 21.6883 14.6511 21.6466 14.7024C20.8689 15.5093 20.5684 15.321 20.254 15.9901C19.524 17.2691 18.731 15.8699 17.4095 17.7352C16.4157 18.1962 15.4952 18.7313 14.5218 19.3748C14.4522 19.1571 14.3877 18.8874 14.3291 18.5356C14.2133 17.84 14.236 17.1379 14.6757 16.1675C14.7564 16.0261 14.708 15.7864 14.5651 15.6728C14.4925 15.6186 14.4617 15.5973 14.4537 15.7094C14.3305 16.9994 13.2737 17.8694 13.9245 19.0897C13.948 19.1344 13.9758 19.171 13.9677 19.2436C13.9538 19.4085 13.9875 19.5565 14.0498 19.6973L13.4276 20.1597C13.3865 20.0593 13.3492 19.975 13.3257 19.9149C13.0487 18.4813 12.831 16.1675 12.6228 15.8795C12.6038 15.8516 12.5811 15.8084 12.6228 15.7776C12.8647 15.5277 13.1366 15.1128 13.0127 14.9875C12.8801 14.8871 12.1076 15.1993 12.112 15.7593C12.1442 16.2606 12.6331 20.9022 13.2444 21.5574C13.2737 21.5911 13.2627 21.6146 13.2444 21.6395C12.9776 22.0155 13.0347 22.1086 13.1286 22.1562C13.2136 22.1885 13.3909 22.1745 13.4708 22.2039C13.4847 22.2082 13.4987 22.2082 13.5097 22.2082C13.4019 22.3446 13.2517 22.4618 13.1102 22.5652C13.0252 22.4816 12.8816 22.4201 12.6609 22.3871C11.799 22.2376 10.9767 22.2625 10.3471 22.5601C10.2628 22.6033 10.2101 22.6546 10.1793 22.7096C9.95573 22.5666 9.74905 22.4186 9.54676 22.2332C9.6054 22.2764 9.72999 22.2346 9.74905 22.1357C10.0943 20.2543 10.4629 19.964 10.6806 18.5451C10.7685 18.0636 10.8103 17.5593 10.7194 17.0976C10.6901 16.9481 10.6806 16.8125 10.7194 16.6505C10.844 16.1866 10.8367 15.7021 10.7326 15.2426C10.6623 15.0879 10.4812 14.8812 10.3522 14.7068C10.2452 14.5668 10.1697 14.4034 10.1111 14.226C10.051 14.042 9.45441 13.1508 8.94503 13.0101C8.90179 12.9991 8.89593 12.9734 8.8908 12.9331C8.8864 12.8884 8.96995 12.887 8.96336 12.8188C8.94503 12.4641 6.71476 12.6554 5.54062 12.7646C5.09353 12.725 4.64718 12.6554 4.22502 12.5769C4.151 12.563 4.14586 12.5887 4.19057 12.6356C4.54091 13.0211 5.04516 13.2322 5.50177 13.2908C5.58825 13.3033 5.61171 13.3509 5.62856 13.4161C5.88948 14.7251 7.78335 15.3576 8.60716 15.2037C8.65993 15.1942 8.66139 15.2316 8.65993 15.258C8.59983 15.9286 8.88787 15.9967 9.13779 17.9573C9.15318 18.0665 9.14879 18.164 9.13193 18.2747C9.09309 18.5928 9.00074 18.8947 8.92964 19.2297C7.77602 18.4799 6.48462 17.8679 5.26577 17.3629C5.01951 17.0844 4.77544 16.8323 4.51965 16.5486C4.44856 16.4548 4.3115 16.3976 4.18178 16.3515C3.21139 15.944 2.22854 15.31 1.49122 14.5096C1.46997 14.4833 1.42526 14.44 1.43918 14.3894C1.66419 13.337 0.970116 13.0255 0.533295 12.2449C0.467333 12.143 0.538425 12.1167 0.61025 12.08C1.09031 11.7773 1.52714 11.3595 1.86281 10.9674C1.94197 10.8502 1.97569 10.7021 2.00353 10.5709C2.35094 8.93651 1.63194 8.81704 1.50222 7.87157C1.51175 7.40104 1.38495 6.84768 1.2369 6.35883C1.06247 5.78935 0.984041 5.32687 0.783222 5.00878C0.684277 2.16138 -0.199625 2.80416 0.0415058 1.28628C0.104536 0.982848 0.265045 0.43169 0.456337 0.0527693C0.471729 0.0168562 0.495184 0.00146584 0.522303 0ZM1.06686 0.555553C1.05147 0.551889 1.03461 0.554088 1.01922 0.555553C0.917347 0.562883 0.837458 0.638375 0.826464 0.732921C0.80814 0.917618 0.767828 1.08766 0.731182 1.25843C1.38935 2.83201 1.00676 4.99193 1.86794 6.31558C1.91119 7.47507 2.0563 8.21458 2.74525 8.67706C2.7731 8.69831 2.80388 8.69538 2.83687 8.67706C3.93625 8.13983 4.9191 7.01992 5.87849 6.14115C4.38553 5.16929 5.73777 4.14833 4.67357 3.03283C3.43493 1.72456 2.34434 1.59484 1.21198 0.621517C1.16434 0.581206 1.11523 0.559951 1.06686 0.555553ZM22.4704 0.636908C22.3348 0.638374 22.1787 0.710933 22.0665 0.819406C20.9635 1.30167 21.0624 1.74289 20.2012 2.17531C20.018 2.27059 19.7043 2.44209 19.4625 2.49706C19.3511 2.88331 19.1693 2.87232 18.764 3.56346C18.6665 3.73277 18.3103 4.01055 18.2781 4.24215C18.2531 4.38727 18.2561 4.51333 18.2671 4.65259C18.2781 5.04543 18.44 5.42069 18.2238 5.59659C18.0465 5.68747 18.1637 5.77689 17.8427 5.93886C17.6807 6.01728 17.5972 6.09791 17.6837 6.26721C17.9402 6.71649 18.2546 7.08662 18.5412 7.49705C18.6159 7.59233 18.7251 7.66782 18.8358 7.73305C19.4581 8.10611 19.9748 8.63088 20.5333 9.1256C20.5684 9.15199 20.5853 9.1256 20.6102 9.11681C21.1452 8.81265 21.2874 8.28201 21.3585 7.55862C21.5432 5.62737 21.9309 7.2977 22.5818 1.5472C22.6697 1.28774 22.765 0.825269 22.6836 0.718996C22.6279 0.661828 22.5539 0.635442 22.4704 0.636908ZM9.87511 4.38214C10.3706 5.30049 10.622 5.214 10.921 5.57313C10.943 5.59805 10.9657 5.62884 10.9892 5.65962C11.0104 5.6904 11.0339 5.72265 11.0551 5.76003C11.0786 5.79667 11.0954 5.82966 11.105 5.86191C11.105 5.86337 11.1035 5.86484 11.105 5.8663C11.1123 5.89709 11.1174 5.93153 11.1189 5.95865C11.105 6.25842 11.1541 6.38008 11.0756 6.47902C11.0705 6.48635 11.0676 6.49442 11.0661 6.50321C11.0617 6.51274 11.0617 6.52227 11.0602 6.53106C11.0588 6.55158 11.0632 6.57137 11.0705 6.5853C11.1262 6.55012 11.2127 6.48342 11.2867 6.41746C11.3439 6.36615 11.3915 6.31852 11.4135 6.27674C11.4135 6.27527 11.412 6.27381 11.4135 6.27234C11.4194 6.25842 11.4223 6.24449 11.4223 6.2335C11.4223 6.20271 11.4252 6.18292 11.4274 6.16533C11.4348 6.09644 11.4546 6.1067 11.4707 6.03121C11.478 5.9931 11.4875 5.933 11.4905 5.82819C11.4919 5.77689 11.4905 5.71239 11.4905 5.6347C11.4963 5.58559 11.4919 5.56068 11.4795 5.53942C11.4751 5.52989 11.4685 5.51963 11.4612 5.5101C11.4531 5.50058 11.4458 5.49178 11.4362 5.48079C10.9892 5.02124 10.3955 4.71708 9.87511 4.38214ZM13.4415 4.49354C12.9732 4.81163 12.4469 5.23672 11.9332 5.66402C11.9222 5.67648 11.9148 5.68893 11.9038 5.70286C11.8745 5.74757 11.8525 5.80034 11.865 5.8663C11.8958 6.06053 11.9889 6.24742 12.0629 6.44458C12.0658 6.45411 12.0717 6.4585 12.0783 6.4651C12.0841 6.4695 12.0893 6.47609 12.0966 6.47902C12.112 6.48489 12.1303 6.48342 12.1398 6.4739C12.2322 6.35663 12.3326 6.23789 12.4162 6.11769C12.444 6.08105 12.4733 6.04074 12.4733 5.99163C12.4697 5.95279 12.4682 5.91394 12.4682 5.88169C12.4682 5.84798 12.4697 5.81866 12.4733 5.78935C12.4806 5.73511 12.4975 5.68747 12.521 5.65009C12.5224 5.64862 12.521 5.64569 12.521 5.64569C12.5701 5.56727 12.6551 5.5211 12.7907 5.48518C12.9021 5.45293 12.9988 5.40383 13.0809 5.34666C13.0824 5.3452 13.0838 5.34666 13.0853 5.34666C13.2055 5.26018 13.292 5.14437 13.3506 5.00439C13.3506 5.00292 13.355 5.00072 13.355 4.99926C13.4137 4.85634 13.44 4.68923 13.4415 4.49354ZM7.23733 9.0054C7.11127 8.99954 6.97861 9.01493 6.84741 9.04425C6.71769 9.07357 6.58796 9.11828 6.47729 9.17838C6.44284 9.19963 6.43405 9.24141 6.47216 9.25533C6.65759 9.30517 6.84595 9.3682 7.03577 9.44369C7.13105 9.48034 7.2234 9.52212 7.32088 9.56389C7.79874 9.77497 8.28614 10.0388 8.7706 10.2829C8.8219 10.3041 8.85562 10.2968 8.87761 10.2675C8.88494 10.2565 8.8908 10.2455 8.89593 10.2287C8.90692 10.1766 8.90472 10.1253 8.90033 10.0747C8.8974 10.0249 8.88787 9.97433 8.8864 9.92009C8.882 9.84607 8.83583 9.84167 8.80944 9.80429C8.71856 9.76911 8.6416 9.73833 8.57784 9.70901C8.38801 9.62106 8.31106 9.55949 8.24656 9.50233C8.20185 9.46348 8.16154 9.4283 8.10584 9.38506C8.04867 9.34328 7.97318 9.29564 7.85005 9.23701C7.77602 9.20329 7.702 9.17251 7.62944 9.13953C7.55542 9.10875 7.48286 9.07796 7.41176 9.05305C7.35606 9.02373 7.29156 9.00687 7.23733 9.0054ZM16.6429 9.10582C16.6334 9.10582 16.6209 9.10875 16.6136 9.10582C16.5828 9.11681 16.5579 9.12927 16.5359 9.13953C16.5146 9.15199 16.4993 9.16445 16.4839 9.17838C16.4267 9.22748 16.4032 9.28318 16.2567 9.35281C16.2215 9.36967 16.1753 9.39092 16.1225 9.40998C16.069 9.4283 16.0053 9.44662 15.9298 9.46861C15.748 9.52724 15.6183 9.56096 15.4966 9.60713C15.4937 9.6086 15.4937 9.61153 15.49 9.61153C15.3698 9.6599 15.254 9.71854 15.1111 9.81968C15.0613 9.85413 15.0092 9.89444 14.9506 9.94061C14.8934 9.98679 14.8282 10.0388 14.7578 10.0989C14.7285 10.1224 14.7021 10.1378 14.6955 10.181C14.6941 10.1949 14.6955 10.2089 14.7007 10.2243V10.2287C14.7051 10.244 14.7117 10.258 14.719 10.2734C14.7373 10.3056 14.7622 10.3335 14.7872 10.3554C14.7959 10.3613 14.804 10.3664 14.8113 10.3694C14.8179 10.3708 14.8304 10.3708 14.8458 10.3694C14.892 10.3598 14.9286 10.354 14.966 10.3401C14.9997 10.3276 15.029 10.3122 15.0569 10.2968C15.0862 10.2814 15.1111 10.2675 15.1338 10.2492C15.1573 10.2301 15.1756 10.2103 15.1969 10.1905C15.2401 10.1502 15.2848 10.1085 15.342 10.0652C15.3684 10.044 15.3977 10.0234 15.4336 10.0022C15.4688 9.98166 15.5091 9.9604 15.5538 9.94061C15.6 9.92009 15.6366 9.91569 15.674 9.92522C15.6864 9.92962 15.7004 9.93255 15.7121 9.94061C15.7619 9.9604 15.8081 9.93695 15.8572 9.92522C15.8946 9.91716 15.9364 9.90323 15.9774 9.88784C15.9796 9.88638 15.9811 9.88784 15.9825 9.88784C16.283 9.76911 16.6568 9.47594 16.6583 9.1256C16.6583 9.11974 16.6546 9.11388 16.6532 9.11021C16.6502 9.10875 16.6473 9.10582 16.6429 9.10582ZM16.0023 12.4611C15.9224 12.4611 15.8389 12.4655 15.7553 12.4699C15.6711 12.478 15.5846 12.4853 15.4966 12.4992C15.4299 12.5102 15.3654 12.5242 15.2973 12.5381C15.276 12.544 15.254 12.5476 15.2313 12.5535C15.191 12.563 15.1507 12.5747 15.1111 12.5872C15.0583 12.6011 15.0078 12.6165 14.9565 12.6356C14.881 12.6612 14.8084 12.6891 14.7344 12.7213C14.6699 12.7492 14.6047 12.78 14.5416 12.8129C14.4786 12.8466 14.4148 12.8855 14.3533 12.9236C14.3012 12.9559 14.2499 12.9903 14.1993 13.0255C14.1759 13.0409 14.1532 13.0519 14.1312 13.0687C14.0945 13.0966 14.0572 13.1259 14.0205 13.1552C14.0125 13.1611 14.0051 13.1677 13.9971 13.175C13.9912 13.1801 13.9831 13.1845 13.9773 13.1889C13.9663 13.1984 13.9538 13.2094 13.9428 13.2182C13.8952 13.26 13.8475 13.3077 13.7999 13.3524C13.7376 13.411 13.679 13.4711 13.6203 13.5363C13.6159 13.5407 13.6115 13.5451 13.6049 13.5503C13.5529 13.6104 13.5038 13.6734 13.451 13.7379C13.4217 13.7782 13.3909 13.8185 13.3602 13.8588C13.3352 13.894 13.3125 13.9248 13.2876 13.9607C13.2334 14.0406 13.1843 14.1241 13.1329 14.2121C13.1132 14.2458 13.0978 14.2905 13.0992 14.3271C13.1007 14.3396 13.1036 14.3491 13.1102 14.3616C13.1579 14.4635 13.1872 14.5668 13.2106 14.6841C13.2136 14.7009 13.229 14.7149 13.2444 14.7178C13.2502 14.7178 13.2597 14.7163 13.2641 14.7134C13.3477 14.6621 13.4246 14.613 13.5001 14.5588C13.5727 14.5067 13.6409 14.4495 13.7068 14.3938C13.7083 14.3938 13.712 14.3953 13.712 14.3938C13.7794 14.3381 13.841 14.2795 13.9047 14.2209C14.4705 13.6983 14.8685 13.1303 15.6307 12.9778C15.6322 12.9764 15.6337 12.9778 15.6351 12.9778C15.9759 12.9097 16.3849 12.9265 16.917 13.0643C17.0944 13.0826 17.2908 13.0826 17.4909 13.0687C17.6917 13.0548 17.8955 13.0269 18.0897 12.9918C18.1835 12.9749 18.281 12.9544 18.3689 12.9331C18.3704 12.9331 18.3719 12.9346 18.3733 12.9331C18.4613 12.9126 18.5434 12.8884 18.6189 12.8664C18.6218 12.865 18.6233 12.8664 18.6247 12.8664C18.7808 12.8203 18.9069 12.7712 18.9949 12.7264C18.5969 12.7338 18.1593 12.7294 17.7811 12.7125C17.4029 12.6957 17.0885 12.6707 16.9375 12.64C16.8862 12.615 16.8247 12.5938 16.758 12.5718C16.6964 12.552 16.6253 12.53 16.5513 12.5146C16.5454 12.5132 16.5374 12.5146 16.5315 12.5146C16.4655 12.5007 16.3959 12.489 16.3204 12.4809C16.308 12.4795 16.2984 12.4765 16.286 12.4765C16.1951 12.467 16.1013 12.4626 16.0023 12.4611ZM7.60012 13.1076C7.93653 13.1274 8.30519 13.2556 8.72296 13.6177C9.35547 14.2392 9.88757 15.0124 10.2951 15.7439C10.3427 15.8333 10.3581 15.9147 10.3383 16.0092C9.87511 18.1405 9.67649 19.2018 9.59001 19.7647L9.28584 19.5133C9.46834 19.0003 9.56215 18.3795 9.49912 17.6334C9.27998 17.0624 9.16564 16.3881 9.06523 15.7439C8.73249 15.0373 8.69804 14.7376 8.37629 14.7566C8.08751 14.772 7.78848 14.786 7.51804 14.7273C7.41323 14.7068 7.32675 14.665 7.23293 14.6064C6.77779 14.3323 6.38934 13.9607 6.05732 13.5407C6.01701 13.4975 5.99283 13.4051 6.01408 13.3634C6.02654 13.3311 6.04633 13.3142 6.08664 13.3142C6.56524 13.3436 7.03724 13.0746 7.60012 13.1076ZM7.75404 13.1596C7.66462 13.1581 7.57227 13.1779 7.48432 13.2138C7.30696 13.2835 7.17723 13.4191 7.1076 13.5796C7.07242 13.6609 7.05263 13.7459 7.04897 13.8354C7.0475 13.9248 7.06289 14.0171 7.0988 14.1051C7.13399 14.193 7.18529 14.2685 7.24832 14.3323C7.43668 14.5221 7.73132 14.591 7.99517 14.4862C8.03988 14.4679 8.08165 14.4495 8.11976 14.4232C8.15861 14.3982 8.18939 14.3675 8.22164 14.3367C8.41147 14.1483 8.48109 13.8588 8.37629 13.595C8.36236 13.559 8.34697 13.5283 8.32792 13.4975C8.32498 13.4945 8.32059 13.4916 8.31765 13.488C8.30959 13.4748 8.30373 13.4623 8.2942 13.4498C8.27588 13.4249 8.25536 13.4037 8.23557 13.3817L8.21724 13.3634C8.18793 13.334 8.15861 13.3047 8.12416 13.2813C8.09851 13.2615 8.06773 13.2476 8.03841 13.2322C8.03328 13.2307 8.02888 13.2307 8.02448 13.2278C8.01496 13.2248 8.00909 13.2168 7.99957 13.2138C7.96219 13.1984 7.92408 13.1875 7.88377 13.1801C7.84199 13.1706 7.79728 13.1611 7.75404 13.1596ZM15.4468 13.1706C15.3574 13.1677 15.2716 13.1831 15.1815 13.2182C15.139 13.2351 15.0957 13.2556 15.0569 13.2813C15.018 13.3062 14.9872 13.3355 14.9565 13.3678C14.9227 13.4007 14.8949 13.4315 14.8685 13.4682C14.8194 13.5422 14.782 13.6243 14.7622 13.7108C14.7344 13.8383 14.7439 13.9775 14.7959 14.1102C14.815 14.1549 14.8348 14.1916 14.8597 14.2304C14.8597 14.2319 14.8575 14.2333 14.8597 14.2348C14.9594 14.3858 15.117 14.4877 15.2885 14.525C15.375 14.5434 15.4644 14.5448 15.5538 14.5294C15.5985 14.5221 15.6447 14.5082 15.6879 14.4913C15.7326 14.4723 15.7759 14.4525 15.814 14.4276C15.8895 14.3785 15.9518 14.3132 16.0023 14.2392C16.1262 14.0574 16.1614 13.82 16.0734 13.5994C16.0566 13.5561 16.0317 13.5158 16.0067 13.4792C15.984 13.4432 15.962 13.411 15.9349 13.3817C15.9283 13.3758 15.921 13.3729 15.9144 13.3678C15.8851 13.3384 15.8572 13.3077 15.8235 13.2864C15.7957 13.2659 15.7663 13.252 15.737 13.2366C15.7355 13.2366 15.7341 13.2336 15.7326 13.2322C15.7048 13.2197 15.674 13.2138 15.6447 13.2043C15.6168 13.1955 15.5875 13.1845 15.5582 13.1801H15.5487C15.5164 13.1735 15.4812 13.1706 15.4468 13.1706ZM17.636 13.507C17.6192 13.507 17.6008 13.5099 17.5832 13.5129C17.5803 13.5129 17.5759 13.5114 17.573 13.5129C17.5422 13.5158 17.5114 13.5268 17.477 13.5407C17.4403 13.5561 17.4015 13.5744 17.3612 13.5994C17.3201 13.6243 17.2769 13.6521 17.23 13.6858L17.2168 13.6954C17.1765 13.7262 17.1362 13.7569 17.0915 13.7921C17.0438 13.8295 16.9991 13.8617 16.9463 13.9035C16.8496 13.979 16.7426 14.0618 16.629 14.1439C16.5718 14.1857 16.5132 14.2238 16.4501 14.2641C16.4018 14.2949 16.3527 14.3308 16.2999 14.3616C16.2786 14.3741 16.2552 14.3858 16.2339 14.3982C16.1738 14.4327 16.1101 14.4649 16.0456 14.4957C15.9825 14.5265 15.9158 14.5544 15.8484 14.5822C15.8264 14.591 15.8066 14.6035 15.7847 14.6115C15.7172 14.6372 15.6461 14.6577 15.5736 14.6789C15.4871 14.7039 15.3991 14.7288 15.3083 14.7471C15.2159 14.764 15.1214 14.7764 15.0232 14.7838C14.9242 14.7933 14.8209 14.7991 14.7146 14.7991C14.6941 14.7991 14.6787 14.8043 14.6662 14.8131C14.6545 14.8211 14.645 14.8321 14.642 14.8519C14.6391 15.0183 14.7915 15.0769 14.9565 15.0879C15.0539 15.0894 15.1507 15.0865 15.2496 15.0835C15.5399 15.0755 15.8279 15.0527 16.1181 15.0058C16.1489 15.0029 16.1753 14.9956 16.2046 14.9831C16.2325 14.9707 16.2567 14.9538 16.286 14.934C16.3754 14.8732 16.4699 14.8043 16.5652 14.7273C16.6612 14.6496 16.7521 14.5697 16.8401 14.4913C16.9309 14.4107 17.0145 14.3367 17.0871 14.2685C17.1582 14.2026 17.2146 14.1454 17.2549 14.1051C17.2967 14.0684 17.3289 14.0376 17.3568 14.0083C17.3832 13.9805 17.4059 13.9526 17.4249 13.9314C17.4601 13.8881 17.4755 13.8588 17.4953 13.831C17.5063 13.817 17.5173 13.8046 17.5297 13.7921C17.5679 13.7518 17.6302 13.7086 17.7701 13.6331C17.787 13.6257 17.798 13.6191 17.7995 13.6089C17.8009 13.6023 17.8009 13.5979 17.7951 13.5898C17.7899 13.5825 17.7855 13.573 17.7767 13.5656C17.7613 13.5532 17.7423 13.5437 17.7269 13.5363C17.713 13.5283 17.699 13.5209 17.6837 13.5173C17.6683 13.5129 17.6529 13.5085 17.636 13.507Z" fill="#FDBE11"/>
</svg>
