<svg width="37.18292999267578" height="37.06267547607422" viewBox="0 0 37.18292999267578 37.06267547607422" fill="none" xmlns="http://www.w3.org/2000/svg">
<path fill-rule="evenodd" clip-rule="evenodd" d="M19.4614 3.59065e-05C22.8671 -0.00802593 26.824 1.34197 29.4837 3.54358C29.4925 3.54944 29.4925 3.5729 29.4742 3.58242C27.9534 4.1856 26.9105 4.98592 25.285 5.89617C25.2263 5.92842 25.2058 5.91449 25.1933 5.86173C24.4069 1.86745 19.531 2.97559 19.0759 0.0630649C19.0957 0.0432767 19.0927 0.00736539 19.1345 0.0051667C19.2422 0.00223513 19.3522 0.000768801 19.4614 3.59065e-05ZM17.4335 0.0051667C17.4672 0.0051667 17.4782 0.0190916 17.4767 0.0725929C17.6812 0.585619 17.0802 1.1199 16.7299 1.46582C16.6962 1.49734 16.6405 1.53398 16.5987 1.55231C14.422 2.43838 12.013 3.09285 11.4853 5.59642C11.4743 5.63526 11.467 5.66018 11.4267 5.62573C10.2665 4.85619 9.11584 4.07566 7.94174 3.33544C7.88164 3.31052 7.90363 3.28267 7.94174 3.25848C10.5948 1.37201 13.9097 0.144417 17.4335 0.0051667ZM31.0074 4.81149C33.1299 6.69356 34.9512 9.15535 35.8997 11.9213C35.9103 11.9484 35.8941 11.9609 35.8563 11.9645C33.7793 12.1522 33.1006 9.44338 31.5087 8.43638C31.4874 8.42393 31.4684 8.41293 31.4699 8.38728C31.5827 7.15309 31.637 6.11311 31.0074 4.81149ZM5.38614 5.40367C5.26888 6.36156 5.35829 7.27035 5.6126 8.15568C5.6236 8.19746 5.62213 8.22971 5.57449 8.26196C4.03981 9.0828 3.20798 11.4801 1.43437 11.5739C1.41238 11.5834 1.37867 11.5849 1.39113 11.5556C2.00676 9.41626 3.77744 6.88485 5.38614 5.40367ZM0.821674 12.9576C2.99837 15.1402 -0.53418 18.7973 4.25822 20.8384C4.6811 20.963 5.08712 21.1111 5.46969 21.1125C6.53532 21.1177 8.05168 20.3049 8.04215 21.9224C8.04215 21.9517 8.01576 21.9722 7.98059 21.9861C6.50014 22.6201 4.49934 23.9943 4.46709 26.1123C4.39454 28.6372 7.05201 30.3375 6.63059 32.7355C0.951397 27.8244 -1.38434 20.5731 0.821674 12.9576ZM36.3245 13.3182C36.3429 13.3233 36.3563 13.3431 36.3728 13.382C38.5235 19.259 36.4103 28.3953 29.8129 33.2214C29.8114 33.0968 29.7388 32.8374 29.6633 32.6629C29.6355 32.5955 29.6399 32.509 29.6633 32.4269C29.9052 31.3643 30.5391 30.2928 31.1423 29.2499C33.2232 25.7957 32.068 23.427 28.7084 21.8901C28.6651 21.8762 28.6556 21.852 28.6791 21.8073C28.7311 21.693 28.7824 21.5801 28.833 21.4643C28.8484 21.4335 28.833 21.372 28.9099 21.383C29.6633 21.4768 30.5113 21.5435 31.2779 21.509C32.4315 21.2518 33.5332 20.7922 34.3627 19.5705C35.8479 17.4972 33.8139 14.7085 36.2667 13.3336C36.287 13.3219 36.3061 13.3138 36.3245 13.3182ZM5.2227 21.8132C5.167 21.8132 5.10984 21.8212 5.05414 21.8366C4.30952 21.9722 3.18306 22.4105 2.51393 23.2387C2.47069 23.2922 2.49047 23.3369 2.55717 23.331C3.63232 23.2987 4.84013 23.18 5.67637 22.5211C5.7951 22.4273 5.9043 22.3343 5.82075 22.1107C5.75918 21.9693 5.56203 21.8608 5.39713 21.8315C5.33703 21.8212 5.27987 21.8117 5.2227 21.8132ZM31.8172 22.2514C31.7571 22.25 31.6985 22.2514 31.6384 22.2558C31.5886 22.2617 31.538 22.2617 31.5043 22.2947C31.2976 22.5409 31.3387 22.8854 31.7249 23.1522C32.5406 23.6747 33.4862 23.704 34.3572 23.7414C34.3912 23.7429 34.4509 23.7055 34.3909 23.6491C33.5973 22.922 32.7194 22.2602 31.8172 22.2514ZM17.0707 32.1572C17.0817 32.1558 17.0941 32.1587 17.1044 32.1668C17.7728 32.4841 18.823 32.6388 19.4137 32.3068C19.4848 32.2716 19.5266 32.298 19.5545 32.339C20.6157 34.1361 23.1376 34.0935 24.928 33.637C26.2582 33.3372 27.5599 32.9576 28.635 34.0225C23.0372 38.0592 14.4081 38.1853 7.93148 33.7432C9.15322 33.1664 10.2621 33.5813 11.6055 33.8927C13.1262 34.246 15.2612 34.5655 16.9842 32.1961C17.0135 32.188 17.0399 32.1587 17.0707 32.1572ZM18.1891 32.5618C18.1737 32.5633 18.1568 32.5647 18.1363 32.5662C17.9421 32.5889 17.8314 32.6879 17.7127 32.822C17.6555 32.8975 17.635 32.9854 17.6445 33.0785C17.6768 33.9081 17.819 34.7473 18.0982 35.4736C18.1041 35.508 18.129 35.5154 18.1414 35.4736C18.4654 34.4512 19.0187 33.4164 18.3203 32.6109C18.2756 32.5721 18.2382 32.5596 18.1891 32.5618Z" fill="#0053A0"/>
</svg>
