<svg width="39.056785583496094" height="23.817312240600586" viewBox="0 0 39.056785583496094 23.817312240600586" fill="none" xmlns="http://www.w3.org/2000/svg">
<path fill-rule="evenodd" clip-rule="evenodd" d="M11.1474 0C10.9811 0.219648 10.8147 0.464142 10.8733 0.727764C11.0873 1.93374 11.3175 3.13723 11.5623 4.33844C11.6055 4.60668 11.8004 4.72175 11.9961 4.90204C10.6769 5.14169 8.20927 5.60782 6.88566 5.857C6.92084 5.33445 6.52141 5.02883 6.36091 4.55538C6.80064 4.86319 7.36204 4.97606 7.88386 4.86393C8.42694 4.76132 9.7718 4.49382 10.3134 4.38168C10.2255 3.96173 10.1698 3.53372 10.0723 3.11378C9.5446 3.20685 8.69518 3.40693 8.16896 3.4707C7.72043 3.57696 7.3811 2.954 7.13704 2.66085C7.30854 2.69969 7.63101 2.71948 7.80618 2.6799C8.35878 2.57268 9.35185 2.36351 9.90445 2.25116C9.85535 1.85078 9.77033 1.4559 9.68678 1.06526C8.73988 1.31423 6.76033 1.40708 6.05749 2.20293C6.03403 1.76356 6.28249 1.2177 6.03257 0.925572C7.34079 0.671624 9.83922 0.244054 11.1474 0ZM11.7785 0.0192752C13.039 0.0251383 15.4547 0.157792 16.7145 0.17355C16.4448 0.617171 16.8457 1.0067 16.8552 1.45091C16.4279 1.06328 15.3616 0.947266 14.8068 0.964123C14.8082 2.18007 14.6829 3.40107 14.6661 4.61328C14.6587 4.84267 14.8376 4.98852 14.9841 5.08086C14.4359 5.075 13.5697 5.00758 13.0559 4.99878C13.3087 4.76645 13.437 4.7474 13.4414 4.42053C13.5308 3.3014 13.5755 1.9967 13.6063 0.882039C13.039 0.840703 11.9961 0.942502 11.5329 1.2243C11.5351 0.734727 12.0086 0.247792 11.7785 0.0192752ZM17.2928 0.347099C18.0982 0.522774 19.8923 0.648978 20.5864 1.17622C21.416 1.7522 21.6073 3.03023 20.5322 3.59089C19.855 3.86792 18.5702 3.5667 17.9011 3.62021C17.4408 3.63926 17.2466 4.27688 17.5493 4.58909C18.203 5.17028 19.9788 5.17028 20.7542 4.93575C20.5644 5.38062 20.3519 5.76466 20.151 6.20366C19.8872 6.03802 19.4189 5.99698 19.1206 5.94348C18.4852 5.85114 16.9798 5.44365 16.5555 4.93135C16.0483 4.33551 16.0234 3.47216 16.5174 2.92615C16.9615 2.43951 18.3371 2.52548 18.922 2.56447C19.2555 2.56447 19.531 2.6821 19.8476 2.52592C20.1173 2.34035 20.1019 1.87709 19.8 1.72084C19.2195 1.41331 17.904 1.36575 17.2979 1.61471C17.3331 1.19007 17.2788 0.771738 17.2928 0.347099ZM4.3176 1.43164C4.20913 1.70017 4.1461 1.95375 4.27436 2.2077C4.7522 3.23763 5.29528 4.26002 5.80098 5.2978C5.94316 5.60049 6.12492 5.7925 6.46132 5.9193C6.01278 6.14869 5.24251 6.53346 4.78958 6.76286C4.9794 6.06954 4.50888 5.44731 4.23991 4.88811C3.9812 5.02956 3.28715 5.3535 3.11712 5.63493C2.88919 6.02043 2.83348 6.4162 2.78438 6.81563C2.76239 7.17694 2.73308 7.44958 3.10612 7.57784C2.5821 7.79111 1.75833 8.23011 1.27096 8.46464C1.65792 7.66725 1.419 6.58256 1.93569 5.7991C1.59929 5.81376 1.03496 5.87019 0.677311 5.64959C0.030899 5.27068 -0.126671 4.67118 0.0939293 3.88038C0.215591 3.4641 0.624542 3.22664 0.971935 3.06101C1.80157 2.65059 3.48723 1.83685 4.3176 1.43164ZM23.2182 1.96181C24.3747 2.61123 26.5976 3.72208 27.739 4.39121C27.4411 4.46963 27.2345 4.58103 27.093 4.83974C26.5221 5.86506 25.9526 6.88965 25.3868 7.91497C25.2403 8.16928 25.285 8.47563 25.4008 8.75853C24.2142 8.09966 21.9928 6.94462 20.8026 6.29087C21.1742 6.0798 20.9382 5.37549 21.0877 4.9123C21.205 5.31686 21.6227 5.68477 21.9635 5.93395C22.5161 6.3048 23.8133 6.96587 24.3886 7.29347C24.5983 6.9219 24.8115 6.54152 25.0101 6.16042C24.5616 5.88192 23.5216 5.42166 23.0819 5.12924C22.8246 4.80676 22.9756 4.34137 22.9185 3.96247C23.0313 4.09879 23.1779 4.22191 23.3384 4.30473C23.8207 4.57297 24.879 5.15928 25.3678 5.42313C25.5532 5.07134 25.7753 4.73787 25.9358 4.37216C25.0424 3.96686 23.4403 2.88218 22.4223 2.94008C22.6766 2.56938 23.0856 2.40126 23.2182 1.96181ZM3.27176 2.89684C2.83055 3.11744 2.18268 3.40547 1.78178 3.6246C0.718353 4.17721 1.4747 5.33298 2.24424 4.89764C2.68398 4.75106 3.45351 4.31646 3.88226 4.14056C3.69757 3.71108 3.46158 3.32631 3.27176 2.89684ZM28.7845 5.16735C28.9067 5.34324 29.0667 5.50374 29.257 5.60635C29.893 5.90244 31.0323 6.92996 31.3056 7.57784C31.6865 8.31952 31.6825 9.00185 31.2334 9.8674C30.7217 10.8883 29.996 11.3618 28.8859 11.3618C27.7831 11.2936 26.79 10.3277 26.3364 9.73254C26.0865 9.44452 25.8439 9.12718 25.4774 8.96594C25.7852 8.62441 26.1092 8.30047 26.4229 7.96334C26.535 8.37303 26.7329 8.72555 27.0011 9.06708C27.3976 9.51707 28.013 10.2243 28.7124 10.1906C29.4119 10.1562 29.6345 9.82269 29.9464 9.4819C30.2582 9.1411 30.4728 8.74314 30.4187 8.1319C30.3646 7.52067 29.1529 6.39201 28.2783 6.3583C28.4789 5.97719 28.5837 5.55285 28.7845 5.16735ZM33.041 9.27888C33.3602 9.69077 33.9273 10.4068 34.2654 10.8033C33.9515 10.7571 33.6657 10.7835 33.4266 10.9711C32.5087 11.6857 31.592 12.4076 30.6791 13.1266C30.4446 13.3039 30.3386 13.5692 30.3079 13.8727C29.9701 13.4703 29.4263 12.7653 29.098 12.3732C29.3823 12.4105 29.6592 12.4259 29.8788 12.2486C30.8113 11.5296 31.728 10.7989 32.6553 10.0748C32.909 9.88206 33.0504 9.62115 33.041 9.27888ZM35.2198 12.0463C35.8015 13.2416 37.0051 15.463 37.5769 16.6584C37.2597 16.5323 37.0213 16.5551 36.7334 16.7016C35.6987 17.2198 34.6589 17.7233 33.6244 18.2349C33.3705 18.3631 33.1482 18.6174 33.046 18.8813C32.4692 17.6661 31.405 15.5158 30.7417 14.3109C30.8784 14.3109 31.0153 14.1966 31.1128 14.0999C31.3862 13.8404 31.5241 13.5443 31.8022 13.29C31.7248 13.7723 31.7945 14.3498 32.0047 14.8181C32.2491 15.3399 32.8978 16.6049 33.1422 17.1275C33.5474 16.9904 33.8605 16.7573 34.2509 16.5814C34.0554 16.1139 33.4777 15.0541 33.2773 14.5916C33.2751 14.3205 33.5975 13.8624 33.8267 13.5348C33.8366 13.7107 33.9124 13.8895 33.9955 14.0515C34.2448 14.5594 34.8066 15.6837 35.0608 16.1864C35.4171 16.0061 35.8806 15.8317 36.2369 15.6558C35.9877 15.1486 35.3583 13.8793 35.0993 13.3765C34.899 12.9815 34.5743 12.6509 34.1738 12.4508C34.5888 12.2837 34.8636 12.3351 35.2198 12.0463ZM34.4728 18.6929C34.3066 18.9619 34.2704 19.417 34.2605 19.7388C34.2167 20.3456 34.5727 21.4962 34.6656 22.0869C35.7835 21.8678 36.9073 21.5981 38.0205 21.3541C38.328 21.2954 38.452 21.0484 38.6327 20.7846C38.7498 21.2881 38.9495 22.2394 39.0568 22.7473C38.8322 22.5817 38.6648 22.4527 38.4012 22.5113C37.2101 22.7612 36.0253 23.0229 34.8389 23.2918C34.5656 23.3505 34.2914 23.5586 34.1498 23.8173C33.8958 22.6652 33.4202 20.5596 33.1712 19.4016C33.2932 19.4119 33.4205 19.4324 33.5278 19.3642C33.8746 19.173 34.1212 18.8739 34.4728 18.6929H34.4728Z" fill="#0053A0"/>
</svg>
