<svg width="36.92909622192383" height="23.774362564086914" viewBox="0 0 36.92909622192383 23.774362564086914" fill="none" xmlns="http://www.w3.org/2000/svg">
<path fill-rule="evenodd" clip-rule="evenodd" d="M32.1039 0C32.2715 0.240389 32.5116 0.437537 32.7981 0.491772C33.8877 0.80032 35.0498 1.03631 36.2928 1.33533C36.5423 1.42475 36.6933 1.31994 36.9291 1.13819C36.8189 1.64242 36.649 2.46472 36.529 2.96895C36.0864 2.34893 35.2624 2.37238 34.6106 2.15471C34.4557 2.67726 34.2735 3.77294 34.0995 4.2845C33.826 4.56886 33.3719 4.60844 33.015 4.73377C33.1077 4.59452 33.282 4.29843 33.309 4.13059C33.4356 3.57799 33.6744 2.52336 33.8007 1.97588C33.3838 1.88281 32.9752 1.75968 32.5523 1.70105C32.3284 2.57539 31.8041 4.20315 32.2099 5.03718C31.7843 4.9016 31.4333 4.43254 31.0531 4.53149C31.3037 3.35739 31.8726 1.18436 32.104 0H32.104H32.1039ZM32.0461 5.34573C32.1852 5.34133 32.3254 5.35379 32.4655 5.36918C33.4092 5.57146 34.2859 6.03685 34.6876 7.02259C35.217 8.3975 34.1714 10.5119 32.7691 11.0286C31.8673 11.3511 30.9754 11.1092 30.306 10.6094C29.6842 10.1836 29.2625 9.47193 29.2791 8.5177C29.3181 7.44108 29.92 6.37325 30.7976 5.76568C31.215 5.47252 31.6284 5.35672 32.0461 5.34573H32.0461H32.0461ZM32.0847 6.54621C31.5642 6.54328 31.0356 6.67593 30.6771 7.21095C30.2315 7.76502 30.0962 8.54335 30.412 9.00947C30.8605 9.59872 31.5835 9.95051 32.3449 9.91973C33.1728 9.89041 34.0116 8.83064 33.7669 7.81412C33.5343 6.98595 32.5947 6.58799 32.0847 6.54621ZM28.8211 10.5522C29.0246 10.5581 29.2227 10.5984 29.419 10.6724C30.3607 11.0198 31.0518 11.6274 31.3277 12.6681C31.7146 14.0921 30.1573 15.9617 28.6864 16.2255C27.742 16.3846 26.9059 16.0438 26.3343 15.434C25.796 14.9063 25.4613 14.117 25.6448 13.1789C25.8715 12.1257 26.7229 11.2228 27.6933 10.7787C28.1213 10.6196 28.4823 10.5398 28.8211 10.5522ZM28.3536 11.7043C27.9419 11.7058 27.5675 11.8707 27.2884 12.1624C26.7727 12.6388 26.5296 13.2236 26.7677 13.8436C27.0955 14.5721 27.7047 15.0427 28.4598 15.146C29.2801 15.2596 30.3404 14.1742 30.2289 13.2793C30.0953 12.4585 29.5599 12.1235 29.1201 11.8912C28.8596 11.7644 28.6008 11.7029 28.3536 11.7043ZM24.6897 13.8297C24.6978 14.2988 25.1786 14.1603 25.5584 14.751C24.988 14.6938 24.0316 15.2024 23.5853 15.5359C24.2485 16.5429 24.9382 17.5272 25.6109 18.5239C25.7358 18.7335 25.9549 18.757 26.1847 18.7753C25.7651 19.0655 25.0034 19.5741 24.5835 19.8644C24.667 19.5294 24.6362 19.2517 24.4538 18.9776C23.8601 18.0996 23.2584 17.2238 22.6662 16.3413C22.6325 16.3054 22.6047 16.2226 22.5394 16.2439C22.0535 16.5077 21.295 17.1681 21.1235 17.7001C20.9197 17.308 20.9586 16.6821 20.5841 16.529C21.616 15.8181 23.6534 14.5252 24.6897 13.8297ZM20.3276 16.7452C20.1766 17.02 20.2154 17.3344 20.3034 17.6232C20.6405 18.7518 21.07 19.7669 21.4078 20.8919C21.4833 21.1645 21.6541 21.3265 22 21.4071C20.9293 21.7464 19.6863 22.1994 18.554 22.5453C17.3813 22.9249 16.3282 22.642 16.2014 21.4115C16.1273 20.705 16.88 20.3781 17.1747 20.2206C16.3992 20.3166 15.8774 19.9025 15.8357 19.1747C15.7697 18.6566 16.2417 18.09 17.3102 17.7434C18.0768 17.4935 19.5551 16.9614 20.3276 16.7452ZM4.10201 17.632C4.59892 17.7602 5.43002 18.1076 5.91886 18.274C5.64622 18.3913 5.45787 18.4711 5.36552 18.746C5.01666 19.8057 4.59525 20.7944 4.2332 21.8512C4.13426 22.184 4.0126 22.5607 4.19436 22.8876C3.06863 22.5409 1.11547 21.8359 3.8147e-06 21.4657C0.0637665 21.3727 0.160507 21.2972 0.154644 21.1799C0.182495 20.782 0.0820885 20.4595 0.115799 20.0571C0.373779 20.5936 0.94104 20.8684 1.51856 21.0934C1.84397 21.1982 2.75862 21.6057 3.08109 21.638C3.43728 20.5657 3.86162 19.4371 4.22221 18.3649C4.32115 18.0871 4.24859 17.8929 4.10201 17.632ZM19.2663 17.9838C18.8544 18.1289 17.6811 18.3971 17.2809 18.5642C16.7232 18.7951 17.0852 19.7947 17.6672 19.6665C18.0754 19.6005 19.2216 19.2795 19.6042 19.1359C19.4965 18.7518 19.3851 18.3649 19.2663 17.9838ZM13.8063 18.5642C13.7704 18.6382 13.7923 18.8185 13.8539 18.8999L15.95 22.4478C16.1369 22.752 16.3128 22.8905 16.5729 23.0898C16.0951 23.1639 15.2684 23.4013 14.7883 23.4937C14.943 23.1573 14.9291 22.741 14.6791 22.42C13.9389 22.4852 12.5552 22.5856 11.8194 22.675C11.6699 23.0246 11.4786 23.4446 11.8194 23.7641C11.332 23.7604 10.4819 23.7421 10.0069 23.7744C10.2209 23.52 10.4291 23.2643 10.5185 22.9352C10.7413 22.2785 11.5695 19.8395 11.8297 19.0838C11.8744 18.9468 11.8143 18.7768 11.8099 18.7614L13.8063 18.5642ZM8.26705 18.5913C8.80206 18.6793 9.71232 18.7848 10.2239 18.8478C9.98056 19.0186 9.80027 19.1241 9.76582 19.4122C9.63976 20.5196 9.41623 21.5808 9.27405 22.6889C9.24473 23.0356 9.23887 23.4812 9.48219 23.7641C8.30956 23.6527 6.15192 23.3024 4.98442 23.1668C5.02912 23.0635 5.10461 22.966 5.0753 22.8538C5.02253 22.4574 4.87449 22.1166 4.82538 21.7157C5.21235 22.1583 5.77228 22.3958 6.38205 22.5021C6.73164 22.5607 7.75183 22.7256 8.06917 22.7183C8.20183 21.5947 8.39604 20.4089 8.53236 19.2861C8.57047 18.993 8.46273 18.8171 8.26705 18.5913ZM12.948 19.4166L12.0935 21.7442C12.6278 21.7135 13.6487 21.6504 14.1822 21.5903L12.948 19.4166ZM19.7925 19.8754C19.3022 20.0666 18.4887 20.3422 18.0527 20.5108C17.0977 20.8435 17.3491 22.1239 18.5063 21.7259C19.0259 21.561 19.7185 21.3448 20.2118 21.1572C20.093 20.7372 19.9113 20.299 19.7925 19.8754Z" fill="#0053A0"/>
</svg>
