<svg width="11.029579162597656" height="10.797547340393066" viewBox="0 0 11.029579162597656 10.797547340393066" fill="none" xmlns="http://www.w3.org/2000/svg">
<path fill-rule="evenodd" clip-rule="evenodd" d="M3.17741 0.00130297C3.1928 0.00276881 3.21039 0.0181595 3.21625 0.0350167C3.28295 0.177204 3.35038 0.312795 3.41854 0.454982C3.47864 0.615491 3.48157 0.752547 3.2397 0.829503C-1.09699 2.60244 1.03801 5.95703 2.16891 7.92565C2.28617 8.12794 2.56688 8.72453 2.58814 8.98692C2.63138 9.26616 2.58814 9.50949 2.59473 9.8012C2.59473 9.86936 2.69001 9.88768 2.74278 9.87815C5.51909 9.34458 7.92088 11.7977 10.1966 9.15036C10.4062 8.92389 10.6576 8.9019 10.75 8.973C10.8504 9.04849 10.9244 9.13204 10.9955 9.24271C11.0431 9.30941 11.0417 9.34752 10.986 9.41568C8.62008 12.7336 5.12258 8.81542 2.12127 10.466C2.82414 8.77877 1.43892 7.14216 0.655425 5.67045C-1.086 2.71165 0.951524 0.893268 3.16201 0.00130297C3.16861 -0.00162871 3.17154 0.00130297 3.17741 0.00130297ZM5.47585 3.28846C5.4993 3.29139 5.51909 3.29652 5.53961 3.30825C5.56233 3.31924 5.58432 3.34269 5.59678 3.36541C5.60704 3.38887 5.60411 3.46289 5.59678 3.51053C5.58872 3.54131 5.56087 3.55378 5.54401 3.57356C5.50883 3.61534 5.47805 3.64173 5.43334 3.67397C5.37617 3.71282 5.30654 3.66664 5.29408 3.62193C5.27723 3.54498 5.27723 3.45703 5.29408 3.39033C5.29848 3.36395 5.31754 3.35002 5.33146 3.3273C5.35418 3.30385 5.37764 3.29139 5.41428 3.28846C5.42967 3.28699 5.45459 3.28552 5.47585 3.28846ZM4.74806 3.95468C4.75612 3.95468 4.76491 3.95834 4.77298 3.96421C4.7869 3.97374 4.79716 3.99353 4.79716 4.01185C4.80083 4.1064 4.84993 4.24492 4.76345 4.29549C4.72021 4.31894 4.66817 4.32334 4.63226 4.2867C4.6154 4.25884 4.58022 4.25445 4.58022 4.20461C4.58022 4.18189 4.60734 4.17383 4.61833 4.14598C4.63079 4.10786 4.62493 4.0397 4.63665 4.01185C4.64911 3.99059 4.65718 3.96714 4.6821 3.96421C4.70335 3.95834 4.7268 3.95028 4.74806 3.95468ZM6.09297 4.05509C6.15673 4.07708 6.21976 4.12912 6.24248 4.20974C6.27033 4.25738 6.26887 4.29109 6.24248 4.32041C6.20877 4.37025 6.16699 4.42815 6.10836 4.45453C6.05925 4.47945 5.99476 4.48385 5.97277 4.37758C5.94785 4.28963 5.95151 4.16137 5.99329 4.12765C6.0424 4.09101 6.02994 4.0397 6.09297 4.05509ZM5.35565 5.15521C5.45753 6.00833 5.77048 6.98311 6.07465 7.62296C5.71845 7.57532 5.4348 7.79153 5.41428 8.06564C5.32487 7.75415 5.08593 7.51521 4.80229 7.59877C4.98846 6.82407 5.21859 5.99293 5.35565 5.15521Z" fill="#0053A0"/>
</svg>
