<svg width="18" height="16" viewBox="0 0 18 16" fill="none" xmlns="http://www.w3.org/2000/svg">
<path fill-rule="evenodd" clip-rule="evenodd" d="M10.2058 15.4026C9.52206 16.0324 8.46947 16.0324 7.78573 15.4116L7.69576 15.3307L7.64149 15.2814C2.94887 11.0179 -0.121762 8.22802 0.00370608 4.75075C0.0576853 3.21235 0.84938 1.75491 2.10889 0.891243C4.04624 -0.437012 6.35472 -0.173009 7.9992 0.975255C8.37076 1.2347 8.70843 1.53929 9.00026 1.88086C9.29219 1.53917 9.63 1.23479 10.0017 0.975721C11.6462 -0.170347 13.9544 -0.429565 15.8916 0.891243C17.1511 1.75491 17.9428 3.21235 17.9968 4.74176C18.1137 8.23241 15.0279 11.0303 10.3048 15.3127L10.2058 15.4026ZM9.29153 14.41C9.12347 14.5648 8.86107 14.5653 8.69282 14.4125C8.27019 14.0202 7.84132 13.632 7.41183 13.2433C5.8931 11.8686 4.36673 10.487 3.0818 8.89339C1.85334 7.36986 1.32289 6.12612 1.3505 4.86099L1.35065 4.85594C1.35182 4.81554 1.353 4.77513 1.35506 4.73476C1.52618 1.38464 5.86836 0.292617 7.97423 2.75745C8.23062 3.05754 8.60554 3.23034 9.00024 3.23034C9.39494 3.23034 9.76985 3.05754 10.0262 2.75745C11.2312 1.34705 13.408 0.832442 15.1297 2.00511C16.0303 2.62328 16.6087 3.68187 16.6481 4.78839C16.6908 6.07678 16.1617 7.33723 14.9152 8.88336C13.6489 10.4541 11.7884 12.1459 9.3983 14.3129L9.29799 14.4041L9.29153 14.41Z" fill="black"/>
</svg>
